<?xml version="1.0" encoding="utf-8"?>
<!-- Generator: Adobe Illustrator 24.2.3, SVG Export Plug-In . SVG Version: 6.00 Build 0)  -->
<svg version="1.1" id="Layer_1" xmlns="http://www.w3.org/2000/svg" xmlns:xlink="http://www.w3.org/1999/xlink" x="0px" y="0px"
	 viewBox="0 0 20 20" style="enable-background:new 0 0 20 20;" xml:space="preserve">
<style type="text/css">
	.st0{fill-rule:evenodd;clip-rule:evenodd;fill:#6B6B6B;}
</style>
<path class="st0" d="M10,0C4.5,0,0,4.5,0,10s4.5,10,10,10s10-4.5,10-10S15.5,0,10,0z M10,1.7c1.7,0,3.2,0.5,4.4,1.3l-0.6,0.1
	l0.1,1.7l-0.8-0.4l-0.7,0.6l0.1,1.7l1.8-0.5l2.2,0.7l-0.5,1.1l-1.4-0.8l-1.5,0.2l-1.5,1.1l-0.8,2.5l1.6,1.4c0,0,1.7-0.3,1.8-0.3
	c0.1,0,0.7,1.5,0.7,1.5l-1.4,4.2c-1.1,0.5-2.3,0.8-3.6,0.8c-0.3,0-0.5,0-0.7-0.1l-0.9-1.6l0.8-3.4l-3.4-2.5H2.7L1.9,9.2l2.3-1.8
	l3.4-1.6L7.1,3.6l1.4-0.3l0.7,0.9l2.4-0.4l-0.4-1.9L9.4,1.7C9.6,1.7,9.8,1.7,10,1.7z M9.1,1.7L7.8,2.2L7.2,2.1
	C7.8,1.9,8.4,1.8,9.1,1.7z M1.7,10.6l0.8,0.9v1.7l1.6,1.7h0.9l2.4,2.9C4.3,16.9,2,14.1,1.7,10.6z"/>
</svg>
