<svg width="40" height="41" viewBox="0 0 40 41" fill="none" xmlns="http://www.w3.org/2000/svg">
<circle cx="20" cy="20.5" r="20" fill="#EA1917"/>
<g clip-path="url(#clip0_4027_52549)">
<path fill-rule="evenodd" clip-rule="evenodd" d="M20.9999 13.0001C20.9999 12.4478 20.5521 12.0001 19.9999 12.0001C19.4476 12.0001 18.9999 12.4478 18.9999 13.0001L18.9999 19.5004H12.5C11.9477 19.5004 11.5 19.9481 11.5 20.5004C11.5 21.0527 11.9477 21.5004 12.5 21.5004H18.9999L18.9999 27.9997C18.9999 28.552 19.4476 28.9997 19.9999 28.9997C20.5521 28.9997 20.9999 28.552 20.9999 27.9997L20.9999 21.5004H27.4996C28.0519 21.5004 28.4996 21.0527 28.4996 20.5004C28.4996 19.9481 28.0519 19.5004 27.4996 19.5004H20.9999L20.9999 13.0001Z" fill="white"/>
</g>
<defs>
<clipPath id="clip0_4027_52549">
<rect width="16.6667" height="16.6668" fill="white" transform="translate(11.666 12.1666)"/>
</clipPath>
</defs>
</svg>
