<svg width="49" height="48" viewBox="0 0 49 48" fill="none" xmlns="http://www.w3.org/2000/svg">
<path fill-rule="evenodd" clip-rule="evenodd" d="M3.08301 9H2.33301V9.75V38.25V39H3.08301H45.5818H46.3318V38.25V9.75V9H45.5818H3.08301ZM3.83301 16.25V10.5H44.8318V16.25H3.83301ZM3.83301 17.75V37.5H44.8318V17.75H3.83301ZM23.0519 27.538C23.0519 29.476 22.6836 30.9437 21.9469 31.941C21.2216 32.927 20.1846 33.42 18.8359 33.42C17.4986 33.42 16.4559 32.927 15.7079 31.941C14.9713 30.9437 14.6029 29.476 14.6029 27.538C14.6029 25.6 14.9713 24.138 15.7079 23.152C16.4559 22.1547 17.4986 21.656 18.8359 21.656C20.1846 21.656 21.2216 22.1547 21.9469 23.152C22.6836 24.138 23.0519 25.6 23.0519 27.538ZM21.3009 27.538C21.3009 26.0873 21.0856 24.988 20.6549 24.24C20.2356 23.4807 19.6293 23.101 18.8359 23.101C18.0426 23.101 17.4306 23.4807 16.9999 24.24C16.5693 24.988 16.3539 26.0873 16.3539 27.538C16.3539 28.9887 16.5693 30.0937 16.9999 30.853C17.4306 31.601 18.0426 31.975 18.8359 31.975C19.6293 31.975 20.2356 31.601 20.6549 30.853C21.0856 30.0937 21.3009 28.9887 21.3009 27.538ZM26.6318 24.7476C26.6318 24.3347 26.9665 24 27.3794 24C27.7923 24 28.127 24.3347 28.127 24.7476C28.127 25.1604 27.7923 25.4951 27.3794 25.4951C26.9665 25.4951 26.6318 25.1604 26.6318 24.7476ZM27.3794 22.5C26.1381 22.5 25.1318 23.5063 25.1318 24.7476C25.1318 25.9889 26.1381 26.9951 27.3794 26.9951C28.6207 26.9951 29.627 25.9889 29.627 24.7476C29.627 23.5063 28.6207 22.5 27.3794 22.5ZM34.3868 24.3116L34.9171 23.7812L33.8564 22.7206L33.3261 23.2509L25.8841 30.693L25.3537 31.2233L26.4144 32.284L26.9447 31.7536L34.3868 24.3116ZM32.8833 29.5078C32.47 29.5078 32.1357 29.8425 32.1357 30.2544C32.1357 30.6662 32.47 31.0009 32.8833 31.0009C33.2967 31.0009 33.6309 30.6662 33.6309 30.2544C33.6309 29.8425 33.2967 29.5078 32.8833 29.5078ZM30.6357 30.2544C30.6357 29.0132 31.6425 28.0078 32.8833 28.0078C34.1241 28.0078 35.1309 29.0132 35.1309 30.2544C35.1309 31.4956 34.1241 32.5009 32.8833 32.5009C31.6425 32.5009 30.6357 31.4956 30.6357 30.2544Z" fill="black"/>
</svg>
