<svg width="114" height="32" viewBox="0 0 114 32" fill="none" xmlns="http://www.w3.org/2000/svg">
<g clip-path="url(#clip0_3946_47217)">
<mask id="mask0_3946_47217" style="mask-type:luminance" maskUnits="userSpaceOnUse" x="0" y="0" width="114" height="32">
<path d="M0.158203 0.105225H113.842V31.6842H0.158203V0.105225Z" fill="white"/>
</mask>
<g mask="url(#mask0_3946_47217)">
<path fill-rule="evenodd" clip-rule="evenodd" d="M12.327 7.42435C12.7101 6.52077 13.5623 4.75361 13.5623 4.75361C13.5623 4.75361 13.9623 4.02772 14.2613 4.0534C14.3624 4.05852 14.4614 4.08406 14.5523 4.12846C14.6433 4.17287 14.7243 4.23523 14.7905 4.31179C14.8567 4.38835 14.9068 4.47752 14.9376 4.57393C14.9684 4.67034 14.9794 4.772 14.9699 4.87277L14.9804 6.48835C15.0032 9.82729 15.0255 13.1654 14.9699 16.5039C14.9341 18.6092 15.8133 19.9553 17.7615 20.7136C19.9392 21.5658 22.2331 21.9456 24.5404 22.2046C33.6002 23.2189 44.383 22.1145 53.5855 19.7507C54.1905 19.5957 54.3745 19.1528 54.4512 18.6155C54.6234 17.4227 55.6798 16.4003 56.6836 15.8888C58.9042 14.7435 61.5628 14.7351 63.2074 15.9519C64.1493 16.6483 64.5493 17.3519 65.1126 18.3439L65.1948 18.4879C66.0247 19.9532 68.983 19.9772 70.5969 19.8513C71.4659 19.7835 72.0537 19.6938 72.7038 19.5944C73.3767 19.4879 74.0521 19.3985 74.7295 19.3262C73.748 18.3347 73.0238 17.6189 72.2381 16.8993C71.8684 16.5587 71.7611 16.2248 71.9977 15.754C72.2015 15.3469 72.3817 14.93 72.5615 14.5136C72.7531 14.0698 72.9446 13.6273 73.1636 13.1978C73.303 12.9237 73.644 12.5831 73.8722 12.5692C74.5421 12.5254 74.7089 12.7747 74.8929 13.0492L74.9425 13.1229C76.2293 14.9995 76.5754 17.1145 76.316 19.3452C76.2994 19.4947 76.2855 19.6445 76.2743 19.7945C76.2411 20.2083 76.2103 20.5923 76.0162 21.2197C75.5969 22.5831 74.5661 23.485 73.1686 23.7949C72.8756 23.8601 72.6293 23.9166 72.4133 23.9658L72.412 23.9662C71.3948 24.1995 71.0503 24.2782 69.6406 24.405C67.9316 24.5582 67.3775 23.7641 66.3859 22.2012C66.156 22.9056 65.2537 23.1713 64.2377 23.4711L64.0764 23.5187C62.4625 23.9944 56.8558 24.1271 54.7324 23.5886C54.6179 23.5593 54.5038 23.5285 54.3901 23.4963C53.8524 23.3465 53.7817 23.3267 53.0453 23.7267C52.2731 24.1456 47.8217 25.298 46.399 25.4837C41.7804 26.4088 37.0992 26.7448 32.3821 26.7039C29.5427 26.6831 26.7043 26.5933 23.8693 26.4345C21.6196 26.3052 19.4297 25.8757 17.359 24.933C14.3973 23.5852 12.8225 21.2505 12.5876 18.0517C12.3855 15.3123 12.2634 12.5654 12.1413 9.81972C12.124 9.41845 12.1059 9.01803 12.0882 8.61719C12.08 8.20684 12.1613 7.79964 12.3265 7.42393L12.327 7.42435ZM55.796 20.7646L63.3215 20.8551C63.3215 20.8551 63.8225 17.5161 59.4154 17.6749C56.3531 17.7907 55.796 20.7646 55.796 20.7646ZM74.2065 6.13887L74.271 6.20372C74.4826 6.41467 74.6505 6.66535 74.7651 6.94137C74.8796 7.21739 74.9385 7.5133 74.9383 7.81214C74.9384 8.11102 74.8794 8.40697 74.7649 8.68304C74.6504 8.95911 74.4825 9.20987 74.271 9.42098C73.7821 9.91024 72.3404 10.706 71.0554 9.42098L70.9889 9.35487C70.7774 9.14387 70.6096 8.89315 70.4953 8.61713C70.381 8.3411 70.3224 8.04521 70.3228 7.74645C70.3226 7.44785 70.3813 7.15214 70.4956 6.87629C70.6099 6.60043 70.7775 6.34983 70.9889 6.13887C71.1999 5.92726 71.4507 5.75941 71.7268 5.64496C72.0029 5.53051 72.2988 5.47171 72.5977 5.47193C72.8966 5.47187 73.1925 5.53074 73.4685 5.64519C73.7446 5.75963 73.9954 5.92739 74.2065 6.13887ZM7.32823 13.2542C7.47476 12.9814 7.8857 12.6917 8.16823 12.6917C8.46002 12.6968 8.86381 13.0003 9.00697 13.2795C11.7472 18.6121 11.0912 23.7692 8.10718 28.7742C7.73244 29.4033 7.31939 30.0096 6.89707 30.6294C6.69665 30.9233 6.49497 31.2197 6.2937 31.5233C5.78688 31.3167 5.27965 31.1111 4.77202 30.9064C3.3657 30.338 1.99055 29.7822 0.632231 29.1919C0.410757 29.0963 0.0819152 28.9208 0.174126 28.3279C0.203178 28.1384 0.548863 27.8509 0.770336 27.7654C1.36276 27.5355 1.96402 27.3275 2.56486 27.1199C3.59013 26.7662 4.61328 26.4126 5.58676 25.9507C6.66464 25.4184 7.64839 24.7137 8.49918 23.8643C9.61707 22.7654 9.73455 21.3662 8.85876 20.0538C8.2137 19.0833 7.42718 18.2096 6.64613 17.341L6.64528 17.3401L6.32781 16.9865C5.99728 16.6201 5.8916 16.3456 6.12318 15.8837C6.32276 15.485 6.4996 15.0753 6.67644 14.6656C6.88192 14.1894 7.08739 13.7132 7.32823 13.2542ZM64.8129 6.29424C64.5872 6.5185 64.4087 6.78564 64.2878 7.07993L67.7388 10.0711C67.9144 9.96901 68.076 9.84461 68.2196 9.70098L68.2895 9.63108C69.6529 8.26772 68.8091 6.74435 68.2895 6.22266C67.8372 5.77094 67.2243 5.51702 66.5851 5.51656C66.2686 5.51652 65.9552 5.57886 65.6628 5.70002C65.3704 5.82118 65.1048 5.99878 64.8811 6.22266L64.8129 6.29424ZM3.25876 5.11319C3.2684 5.012 3.25731 4.9099 3.22619 4.81314C3.19506 4.71637 3.14455 4.62696 3.07772 4.55036C3.0109 4.47377 2.92917 4.41159 2.83751 4.36763C2.74586 4.32367 2.64622 4.29884 2.54465 4.29466C2.23939 4.2694 1.8457 4.99361 1.8457 4.99361C1.8457 4.99361 0.993494 6.76203 0.610336 7.66393C0.445084 8.03949 0.363617 8.44654 0.371599 8.85677C0.389284 9.24329 0.406547 9.6294 0.423389 10.0159C0.475178 11.1751 0.526968 12.3347 0.584652 13.4938C0.686968 15.69 0.790968 17.8875 0.896231 20.0858C0.93581 20.9043 0.978757 21.7229 1.02255 22.5477L1.10634 24.1641H2.35686C2.4537 23.6841 2.5716 23.2054 2.68949 22.7283C2.94886 21.6808 3.20655 20.6382 3.23139 19.5915C3.27349 17.541 3.27223 7.88877 3.25834 5.11277L3.25876 5.11319ZM106.849 23.8399C110.711 23.8399 113.843 20.7086 113.843 16.8462C113.843 12.9831 110.711 9.85172 106.849 9.85172C102.986 9.85172 99.8545 12.9831 99.8545 16.8458C99.8545 20.7086 102.986 23.8399 106.849 23.8399ZM86.0095 12.2105C85.3771 12.87 84.8819 13.6486 84.5527 14.501L94.6482 22.8774C95.1467 22.5726 95.6048 22.2062 96.0116 21.7869L96.2078 21.5806C100.025 17.5839 97.5164 13.2555 95.9914 11.7953C95.335 11.1665 94.5613 10.6732 93.7142 10.3435C92.8672 10.0138 91.9636 9.8542 91.0548 9.87379C90.1461 9.89338 89.2502 10.0918 88.4182 10.4577C87.5861 10.8236 86.8343 11.3498 86.2057 12.0062L86.0095 12.2105Z" fill="black"/>
</g>
</g>
<defs>
<clipPath id="clip0_3946_47217">
<rect width="113.684" height="32" fill="white" transform="translate(0.158203)"/>
</clipPath>
</defs>
</svg>
