<svg width="64" height="64" viewBox="0 0 64 64" fill="none" xmlns="http://www.w3.org/2000/svg">
<g id="Icon_Guide_64">
<rect width="64" height="64" fill="white"/>
<g id="Group 6340345">
<path id="Vector" d="M38.4292 39.3625C38.0811 38.7448 37.6099 38.2051 37.0449 37.7768C36.4799 37.3486 35.833 37.0408 35.1442 36.8725C34.4979 36.6786 33.8421 36.5184 33.1792 36.3925V29.59C34.497 29.7314 35.7543 30.2177 36.8242 31C36.8981 31.0655 36.9841 31.1158 37.0774 31.148C37.1707 31.1803 37.2695 31.1938 37.368 31.1879C37.4666 31.182 37.563 31.1567 37.6518 31.1135C37.7405 31.0704 37.8199 31.0101 37.8854 30.9362C37.9509 30.8624 38.0013 30.7763 38.0335 30.683C38.0657 30.5897 38.0793 30.491 38.0734 30.3924C38.0674 30.2939 38.0422 30.1975 37.999 30.1087C37.9558 30.0199 37.8956 29.9405 37.8217 29.875C36.4794 28.8412 34.8676 28.2163 33.1792 28.075V25.75C33.1792 25.5511 33.1002 25.3603 32.9595 25.2197C32.8189 25.079 32.6281 25 32.4292 25C32.2303 25 32.0395 25.079 31.8989 25.2197C31.7582 25.3603 31.6792 25.5511 31.6792 25.75V28C28.3792 28.075 26.5567 29.7175 26.0017 31.135C25.6314 32.0478 25.5963 33.0622 25.9024 33.9984C26.2085 34.9346 26.8362 35.7323 27.6742 36.25C28.894 36.9936 30.2603 37.4643 31.6792 37.63V44.5C29.7212 44.4014 27.8455 43.6816 26.3242 42.445C26.2563 42.3642 26.1721 42.2986 26.0772 42.2526C25.9822 42.2066 25.8786 42.1811 25.7731 42.1778C25.6676 42.1746 25.5627 42.1936 25.465 42.2337C25.3674 42.2738 25.2794 42.3341 25.2066 42.4105C25.1339 42.487 25.0781 42.5779 25.0429 42.6774C25.0077 42.7769 24.9939 42.8827 25.0024 42.9879C25.0109 43.0931 25.0415 43.1953 25.0922 43.2879C25.143 43.3804 25.2126 43.4612 25.2967 43.525C27.0906 45.0353 29.336 45.906 31.6792 46V48.25C31.6792 48.4489 31.7582 48.6397 31.8989 48.7803C32.0395 48.921 32.2303 49 32.4292 49C32.6281 49 32.8189 48.921 32.9595 48.7803C33.1002 48.6397 33.1792 48.4489 33.1792 48.25V46C35.2942 45.8575 37.7317 45.1825 38.6542 42.43C38.8211 41.9292 38.8871 41.4002 38.8485 40.8737C38.8099 40.3472 38.6674 39.8336 38.4292 39.3625ZM28.5217 34.99C27.974 34.664 27.5606 34.1533 27.3558 33.5498C27.151 32.9463 27.1681 32.2895 27.4042 31.6975C27.4867 31.4725 28.3267 29.59 31.6792 29.5V36.1C30.5604 35.956 29.4845 35.5778 28.5217 34.99ZM37.2292 41.92C36.6892 43.525 35.4892 44.2975 33.1792 44.47V37.9225C33.6592 38.0275 34.1542 38.1475 34.6792 38.305C35.1751 38.4176 35.643 38.63 36.0543 38.9291C36.4656 39.2282 36.8117 39.6079 37.0717 40.045C37.3659 40.6258 37.4223 41.2983 37.2292 41.92Z" fill="black"/>
<path id="Rectangle 3466946" d="M5 15H59V59H5V15Z" stroke="black" stroke-width="1.5"/>
<path id="Rectangle 3466947" d="M41 15V5H23V15" stroke="black" stroke-width="1.5"/>
</g>
</g>
</svg>
