<svg width="48" height="48" viewBox="0 0 48 48" fill="none" xmlns="http://www.w3.org/2000/svg">
<path fill-rule="evenodd" clip-rule="evenodd" d="M40.2922 4.21967C40.5851 3.92678 41.06 3.92678 41.3529 4.21967L43.7799 6.64666C43.9207 6.78748 43.9997 6.97854 43.9995 7.17769C43.9994 7.37685 43.92 7.56776 43.7789 7.70832L38.943 12.5261C38.6507 12.8173 38.1781 12.8177 37.8853 12.5271L37.2333 11.8799L29.6143 19.5159L29.0845 20.0468L28.0227 18.9874L28.5524 18.4564L36.1687 10.8233L35.4583 10.1182C35.3168 9.97772 35.237 9.78667 35.2367 9.58727C35.2363 9.38788 35.3153 9.19654 35.4563 9.05554L40.2922 4.21967ZM38.4127 10.9371L38.2928 10.8181L38.2944 10.8165L37.2326 9.75706L37.2282 9.76143L37.0493 9.58388L40.8226 5.81066L42.1879 7.17599L38.4127 10.9371ZM16.9993 26.0495L16.4685 26.5793L6.48882 36.5409L6.4863 36.5434C5.1729 37.842 5.16857 39.9548 6.4893 41.2755L6.72476 41.511C8.04382 42.83 10.159 42.83 11.478 41.511L21.4396 31.5494L21.9699 31.0191L23.0306 32.0798L22.5002 32.6101L12.5387 42.5716C10.6338 44.4765 7.56895 44.4765 5.66409 42.5716L5.42864 42.3362C3.52589 40.4334 3.52112 37.3672 5.43034 35.478L5.43165 35.4767L15.4088 25.5177L15.9396 24.9879L16.9993 26.0495ZM19.476 29.5864L20.0064 29.056L18.9457 27.9954L18.4154 28.5257L9.57676 37.3643L9.04643 37.8946L10.1071 38.9553L10.6374 38.425L19.476 29.5864ZM18.7872 6.53794C16.1097 3.86053 12.1241 3.30634 8.91173 4.85301C8.69273 4.95846 8.53841 5.16349 8.49769 5.40311C8.45697 5.64273 8.53489 5.88723 8.70676 6.0591L13.447 10.7993L10.7784 13.4679L6.05629 8.71319C5.8847 8.54041 5.6399 8.4617 5.39976 8.50208C5.15962 8.54247 4.95403 8.69693 4.84839 8.91634C3.30084 12.1305 3.87541 16.1157 6.53333 18.7736C8.92979 21.1701 12.3461 21.8404 15.3449 20.8656L27.1168 32.6376C26.1427 35.6227 26.8141 39.0543 29.2095 41.4497C31.867 44.1072 35.871 44.6829 39.0684 43.1338C39.2869 43.028 39.4406 42.823 39.481 42.5836C39.5213 42.3443 39.4434 42.1002 39.2717 41.9285L34.5315 37.1883L37.2019 34.5179L41.9421 39.2582C42.114 39.43 42.3585 39.5079 42.5981 39.4672C42.8377 39.4265 43.0428 39.2722 43.1482 39.0532C44.6958 35.8391 44.1212 31.8538 41.4633 29.1959C39.0632 26.7958 35.6401 26.1271 32.6381 27.1083L20.8792 15.3495C21.854 12.3507 21.1836 8.9344 18.7872 6.53794ZM32.7436 28.6804C32.786 28.6628 32.8262 28.6416 32.8639 28.6173C35.4149 27.6838 38.3603 28.2142 40.4026 30.2566C42.3258 32.1797 42.9298 34.9462 42.1919 37.3866L37.7322 32.9269C37.4393 32.634 36.9645 32.634 36.6716 32.9269L32.9405 36.658C32.7999 36.7986 32.7208 36.9894 32.7208 37.1883C32.7208 37.3872 32.7999 37.578 32.9405 37.7186L37.4014 42.1795C34.9714 42.9152 32.1929 42.3118 30.2701 40.389C28.1912 38.3101 27.6795 35.2785 28.6814 32.7161C28.7899 32.4387 28.7239 32.1233 28.5133 31.9127L16.0704 19.4698C15.8601 19.2596 15.5456 19.1934 15.2684 19.3011C12.6867 20.3041 9.67264 19.7916 7.59399 17.713C5.67193 15.7909 5.06754 13.0265 5.80338 10.5872L10.2445 15.0589C10.3849 15.2003 10.576 15.28 10.7753 15.2804C10.9747 15.2807 11.166 15.2017 11.3069 15.0607L15.038 11.3296C15.1786 11.189 15.2577 10.9982 15.2577 10.7993C15.2577 10.6004 15.1786 10.4096 15.038 10.269L10.5777 5.80873C13.0198 5.06696 15.7884 5.66048 17.7265 7.5986C19.8051 9.67725 20.3177 12.6913 19.3146 15.273C19.2069 15.5501 19.2731 15.8647 19.4834 16.075L31.9262 28.5178C32.1407 28.7323 32.4633 28.7965 32.7436 28.6804Z" fill="black"/>
</svg>
