<svg width="65" height="65" viewBox="0 0 65 65" fill="none" xmlns="http://www.w3.org/2000/svg">
<rect x="1" y="15.8398" width="63" height="35" rx="8" fill="#FFB2C8"/>
<path d="M15.0824 27.3398H12.4355C12.4355 29.5119 11.4385 31.4941 9.70562 32.7997L8.66113 33.583L12.7204 39.1141H16.0556L12.3168 34.0222C14.0853 32.2655 15.0824 29.8917 15.0824 27.3398Z" fill="black"/>
<path d="M8.32824 27.3398H5.62207V39.1141H8.32824V27.3398Z" fill="black"/>
<path d="M19.3898 27.3398H16.8379V39.1141H19.3898V27.3398Z" fill="black"/>
<path d="M41.7745 30.7466C40.8012 30.7466 39.8754 31.0433 39.2582 31.886V30.9721H36.8369V39.1143H39.2938V34.8414C39.2938 33.6071 40.1247 33.0017 41.1217 33.0017C42.1899 33.0017 42.8071 33.6427 42.8071 34.8296V39.1262H45.2403V33.9394C45.2403 32.0403 43.7329 30.7466 41.7745 30.7466Z" fill="black"/>
<path d="M27.1037 30.9721V31.4943C26.4153 31.0196 25.5844 30.7466 24.6824 30.7466C22.3085 30.7466 20.3857 32.6694 20.3857 35.0432C20.3857 37.4171 22.3085 39.3399 24.6824 39.3399C25.5844 39.3399 26.4153 39.0669 27.1037 38.5921V39.1143H29.5369V30.9721H27.1037ZM24.8842 37.1322C23.6616 37.1322 22.6765 36.1945 22.6765 35.0432C22.6765 33.8919 23.6616 32.9542 24.8842 32.9542C26.1067 32.9542 27.0918 33.8919 27.0918 35.0432C27.0918 36.1945 26.1067 37.1322 24.8842 37.1322Z" fill="black"/>
<path d="M33.3138 32.0295V30.9731H30.8213V39.1154H33.3257V35.3173C33.3257 34.0354 34.7144 33.347 35.6758 33.347C35.6876 33.347 35.6995 33.347 35.6995 33.347V30.9731C34.7144 30.9731 33.8005 31.4004 33.3138 32.0295Z" fill="black"/>
<path d="M52.8146 30.9721V31.4943C52.1262 31.0196 51.2954 30.7466 50.3933 30.7466C48.0195 30.7466 46.0967 32.6694 46.0967 35.0432C46.0967 37.4171 48.0195 39.3399 50.3933 39.3399C51.2954 39.3399 52.1262 39.0669 52.8146 38.5921V39.1143H55.2478V30.9721H52.8146ZM50.5951 37.1322C49.3726 37.1322 48.3874 36.1945 48.3874 35.0432C48.3874 33.8919 49.3726 32.9542 50.5951 32.9542C51.8176 32.9542 52.8028 33.8919 52.8028 35.0432C52.8146 36.1945 51.8176 37.1322 50.5951 37.1322Z" fill="black"/>
<path d="M57.1325 31.2041C57.1325 31.0854 57.0494 31.0142 56.9189 31.0142H56.6934V31.6314H56.8002V31.4058H56.9189L57.0138 31.6314H57.1325L57.0257 31.3821C57.0969 31.3465 57.1325 31.2872 57.1325 31.2041ZM56.9189 31.299H56.8002V31.1091H56.9189C56.9901 31.1091 57.0257 31.1447 57.0257 31.2041C57.0257 31.2634 57.002 31.299 56.9189 31.299Z" fill="black"/>
<path d="M56.8843 30.7563C56.5639 30.7563 56.3027 31.0175 56.3027 31.3379C56.3146 31.6584 56.5639 31.9195 56.8843 31.9195C57.2048 31.9195 57.4659 31.6584 57.4659 31.3379C57.4659 31.0175 57.2048 30.7563 56.8843 30.7563ZM56.8843 31.8127C56.6232 31.8127 56.4214 31.5991 56.4214 31.3379C56.4214 31.0768 56.6351 30.8632 56.8843 30.8632C57.1454 30.8632 57.3472 31.0768 57.3472 31.3379C57.3472 31.5991 57.1336 31.8127 56.8843 31.8127Z" fill="black"/>
<path d="M57.8475 36.2319C57.0048 36.2319 56.3164 36.9203 56.3164 37.7631C56.3164 38.6058 57.0048 39.2942 57.8475 39.2942C58.6902 39.2942 59.3786 38.6058 59.3786 37.7631C59.3786 36.9085 58.6902 36.2319 57.8475 36.2319Z" fill="black"/>
</svg>
