<svg width="64" height="64" viewBox="0 0 64 64" fill="none" xmlns="http://www.w3.org/2000/svg">
<path fill-rule="evenodd" clip-rule="evenodd" d="M57.6951 5.88245C56.1922 4.44909 53.5353 4.67117 51.6875 7.22011C51.4444 7.55548 51.5192 8.02443 51.8546 8.26754C52.19 8.51064 52.6589 8.43585 52.902 8.10048C54.3671 6.07945 55.987 6.32623 56.6598 6.96789C57.1027 7.39034 57.4143 7.94487 57.4852 8.51208C57.5529 9.05306 57.4114 9.66574 56.8389 10.28C56.6203 10.5145 56.0427 10.9537 55.1602 11.5465C54.9428 11.6925 54.7113 11.845 54.4681 12.0027V11.7307C54.4681 10.2119 53.2368 8.98071 51.7181 8.98071L34.1337 8.98071C33.4044 8.98071 32.7049 9.27044 32.1892 9.78617L5.80546 36.1699C4.73151 37.2439 4.73151 38.9851 5.80546 40.059L23.3898 57.6433C24.4637 58.7173 26.2049 58.7173 27.2789 57.6433L53.6626 31.2596C54.1783 30.7438 54.4681 30.0444 54.4681 29.315V13.7827C55.0212 13.4339 55.5378 13.0998 55.9965 12.7917C56.8526 12.2167 57.5798 11.6851 57.9362 11.3027C58.8012 10.3746 59.0984 9.32295 58.9736 8.32581C58.8521 7.3549 58.3399 6.4975 57.6951 5.88245ZM52.9681 12.9512V11.7307C52.9681 11.0404 52.4084 10.4807 51.7181 10.4807L34.1337 10.4807C33.8022 10.4807 33.4843 10.6124 33.2499 10.8468L6.86612 37.2306C6.37796 37.7187 6.37796 38.5102 6.86612 38.9983L24.4504 56.5827C24.9386 57.0708 25.73 57.0708 26.2182 56.5827L52.6019 30.1989C52.8364 29.9645 52.9681 29.6465 52.9681 29.315V14.7115C52.9314 14.7339 52.8946 14.7563 52.8578 14.7786C51.5711 15.5613 50.2002 16.3684 48.9477 17.0927C49.4954 18.5821 49.1714 20.3196 47.9756 21.5155C46.3353 23.1558 43.6758 23.1558 42.0355 21.5155C40.3952 19.8752 40.3952 17.2157 42.0355 15.5754C43.6758 13.9351 46.3353 13.9351 47.9756 15.5754C48.0487 15.6486 48.1187 15.7238 48.1853 15.8008C49.4327 15.0796 50.7983 14.2757 52.0783 13.4971C52.3809 13.313 52.6784 13.1305 52.9681 12.9512ZM46.8462 16.5697C45.7873 15.582 44.1281 15.6042 43.0962 16.6361C42.0416 17.6906 42.0416 19.4003 43.0962 20.4548C44.1507 21.5093 45.8604 21.5093 46.9149 20.4548C47.6188 19.7509 47.8529 18.7549 47.617 17.8569C47.1245 18.1376 46.6682 18.3955 46.2646 18.6217C45.9033 18.8242 45.4462 18.6955 45.2437 18.3341C45.0412 17.9728 45.1699 17.5157 45.5313 17.3132C45.9244 17.0928 46.3679 16.8423 46.8462 16.5697ZM31.9185 23.498C31.9185 23.0838 31.5827 22.748 31.1685 22.748C30.7543 22.748 30.4185 23.0838 30.4185 23.498V42.0752C30.4185 42.4894 30.7543 42.8252 31.1685 42.8252C31.5827 42.8252 31.9185 42.4894 31.9185 42.0752V23.498ZM22.4301 32.7831C22.4301 31.7096 23.3011 30.8385 24.3766 30.8385C25.452 30.8385 26.323 31.7096 26.323 32.7831C26.323 33.8567 25.452 34.7278 24.3766 34.7278C23.3011 34.7278 22.4301 33.8567 22.4301 32.7831ZM24.3766 29.3385C22.4736 29.3385 20.9301 30.8802 20.9301 32.7831C20.9301 34.686 22.4736 36.2278 24.3766 36.2278C26.2795 36.2278 27.823 34.686 27.823 32.7831C27.823 30.8802 26.2795 29.3385 24.3766 29.3385ZM37.9598 30.8385C36.8843 30.8385 36.0133 31.7096 36.0133 32.7831C36.0133 33.8567 36.8843 34.7278 37.9598 34.7278C39.0353 34.7278 39.9062 33.8567 39.9062 32.7831C39.9062 31.7096 39.0353 30.8385 37.9598 30.8385ZM34.5133 32.7831C34.5133 30.8802 36.0568 29.3385 37.9598 29.3385C39.8627 29.3385 41.4062 30.8802 41.4062 32.7831C41.4062 34.686 39.8627 36.2278 37.9598 36.2278C36.0568 36.2278 34.5133 34.686 34.5133 32.7831Z" fill="black"/>
</svg>
