<svg width="50" height="50" viewBox="0 0 50 50" fill="none" xmlns="http://www.w3.org/2000/svg">
<path fill-rule="evenodd" clip-rule="evenodd" d="M4.75 7C4.33579 7 4 7.33579 4 7.75C4 8.16421 4.33579 8.5 4.75 8.5H9.57972L17.1181 28.7404C17.8507 30.7081 19.7271 32.0138 21.8276 32.0138H38.9747C39.3889 32.0138 39.7247 31.678 39.7247 31.2638C39.7247 30.8496 39.3889 30.5138 38.9747 30.5138H21.8276C20.3545 30.5138 19.0381 29.5983 18.5238 28.2171L18.5238 28.217L17.547 25.5942L34.6191 25.5942C37.669 25.5942 40.3717 23.6366 41.1288 20.7815L41.1289 20.7813L43.9753 10.0576C44.035 9.83258 43.9868 9.59254 43.8449 9.40796C43.7029 9.22339 43.4832 9.11523 43.2504 9.11523H22.8901C22.4759 9.11523 22.1401 9.45102 22.1401 9.86523C22.1401 10.2794 22.4759 10.6152 22.8901 10.6152H42.2753L39.679 20.3967L39.679 20.3969C39.1101 22.5426 37.0439 24.0942 34.6191 24.0942L16.9883 24.0942L10.8036 7.48823C10.6942 7.19468 10.414 7 10.1007 7H4.75ZM16.7324 39.8233C16.7324 38.7598 17.5939 37.8984 18.6556 37.8984C19.7174 37.8984 20.5789 38.7598 20.5789 39.8233C20.5789 40.8867 19.7174 41.7481 18.6556 41.7481C17.5939 41.7481 16.7324 40.8867 16.7324 39.8233ZM18.6556 36.3984C16.7646 36.3984 15.2324 37.9322 15.2324 39.8233C15.2324 41.7143 16.7646 43.2481 18.6556 43.2481C20.5467 43.2481 22.0789 41.7143 22.0789 39.8233C22.0789 37.9322 20.5467 36.3984 18.6556 36.3984ZM37.9056 37.8984C36.8439 37.8984 35.9824 38.7598 35.9824 39.8233C35.9824 40.8867 36.8439 41.7481 37.9056 41.7481C38.9674 41.7481 39.8289 40.8867 39.8289 39.8233C39.8289 38.7598 38.9674 37.8984 37.9056 37.8984ZM34.4824 39.8233C34.4824 37.9322 36.0146 36.3984 37.9056 36.3984C39.7967 36.3984 41.3289 37.9322 41.3289 39.8233C41.3289 41.7143 39.7967 43.2481 37.9056 43.2481C36.0146 43.2481 34.4824 41.7143 34.4824 39.8233Z" fill="black"/>
</svg>
