<svg width="25" height="24" viewBox="0 0 25 24" fill="none" xmlns="http://www.w3.org/2000/svg">
<path fill-rule="evenodd" clip-rule="evenodd" d="M11.0697 4.16286H11.027L11.027 3.78823C11.027 2.80062 11.8277 2 12.8153 2C13.8029 2 14.6035 2.80062 14.6035 3.78823V4.06614C17.2445 4.77285 19.1894 7.18248 19.1894 10.0464V16.4148H21.1905C21.6047 16.4148 21.9405 16.7506 21.9405 17.1648C21.9405 17.579 21.6047 17.9148 21.1905 17.9148H19.1894V17.9148H17.6894H8.30908H6.80908V17.9148H4.80811C4.39389 17.9148 4.05811 17.579 4.05811 17.1648C4.05811 16.7506 4.39389 16.4148 4.80811 16.4148H6.80908V10.0464C6.80908 7.30137 8.5958 4.97369 11.0697 4.16286ZM17.6894 16.4148V10.0464C17.6894 7.45607 15.5895 5.35622 12.9992 5.35622C10.4089 5.35622 8.30908 7.45607 8.30908 10.0464V16.4148H17.6894ZM10.4307 18.8386H15.1993C15.1993 20.0332 14.2309 21.0015 13.0364 21.0015H12.5935C11.399 21.0015 10.4307 20.0332 10.4307 18.8386Z" fill="#ffffff"/>
</svg>
