<svg width="48" height="48" viewBox="0 0 48 48" fill="none" xmlns="http://www.w3.org/2000/svg">
<g id="Icon_Calendar">
<path id="Union" fill-rule="evenodd" clip-rule="evenodd" d="M15.1239 6.32422C15.1239 5.91001 14.7881 5.57422 14.3739 5.57422C13.9597 5.57422 13.6239 5.91001 13.6239 6.32422V8.9401H6.75C5.23122 8.9401 4 10.1713 4 11.6901V39.6757C4 41.1945 5.23122 42.4257 6.75 42.4257H41.2488C42.7676 42.4257 43.9988 41.1945 43.9988 39.6757V11.6901C43.9988 10.1713 42.7676 8.9401 41.2488 8.9401H34.373V6.32422C34.373 5.91001 34.0372 5.57422 33.623 5.57422C33.2088 5.57422 32.873 5.91001 32.873 6.32422V8.9401H15.1239V6.32422ZM32.873 13.8997V10.4401H15.1239V13.8997C15.1239 14.314 14.7881 14.6497 14.3739 14.6497C13.9597 14.6497 13.6239 14.314 13.6239 13.8997V10.4401H6.75C6.05964 10.4401 5.5 10.9997 5.5 11.6901V17.3568H42.4988V11.6901C42.4988 10.9997 41.9392 10.4401 41.2488 10.4401H34.373V13.8997C34.373 14.314 34.0372 14.6497 33.623 14.6497C33.2088 14.6497 32.873 14.314 32.873 13.8997ZM5.5 39.6757V18.8568H42.4988V39.6757C42.4988 40.366 41.9392 40.9257 41.2488 40.9257H6.75C6.05965 40.9257 5.5 40.366 5.5 39.6757ZM30.8055 25.645C31.1046 25.3584 31.1148 24.8837 30.8282 24.5845C30.5417 24.2854 30.0669 24.2753 29.7678 24.5618L22.0846 31.9223L18.2334 28.2346C17.9343 27.9481 17.4595 27.9584 17.173 28.2575C16.8866 28.5567 16.8968 29.0315 17.196 29.318L21.566 33.5025L22.0848 33.9993L22.6035 33.5024L30.8055 25.645Z" fill="black"/>
</g>
</svg>
