<svg width="32" height="33" viewBox="0 0 32 33" fill="none" xmlns="http://www.w3.org/2000/svg">
<path fill-rule="evenodd" clip-rule="evenodd" d="M18.7773 6.15681C19.3208 6.14596 20.1156 6.28986 20.7976 6.77897C21.2694 7.11731 21.6594 7.60225 21.8746 8.24999H22.9686C26.2105 8.24999 28.6443 11.1989 28.6443 14.6196V15.3696H28.6376V23.8828V24.6328L27.8876 24.6328L26.4079 24.6328C26.0959 26.1921 24.7057 27.3678 23.038 27.3678C21.3894 27.3678 20.0121 26.2191 19.6792 24.6866H12.1272C11.7943 26.2191 10.4169 27.3678 8.76842 27.3678C6.87106 27.3678 5.33295 25.8461 5.33295 23.9691C5.33295 23.5429 5.41223 23.1351 5.55697 22.7593C4.39817 21.6669 3.64278 20.1652 3.64278 18.4438V12.2682V11.5182H4.39278H10.9741V13.0182H5.14278V18.4438C5.14278 19.6184 5.62006 20.6746 6.41189 21.4959C7.02702 20.922 7.8562 20.5703 8.76842 20.5703C10.3936 20.5703 11.7552 21.6867 12.1124 23.1866H19.694C20.0512 21.6867 21.4128 20.5703 23.038 20.5703C24.6436 20.5703 25.992 21.6601 26.3687 23.1328L27.1376 23.1328V14.9887H27.1443V14.6196C27.1443 11.8322 25.1996 9.74999 22.9686 9.74999H22.0556V15.4141H25.4104V16.9141H21.3056H20.5556V16.1641V9.44019C20.5556 8.63966 20.2478 8.23053 19.9234 7.99789C19.5592 7.73671 19.0992 7.64967 18.8029 7.65661L18.7941 7.65681H18.7853H3.42969V6.15681H18.7773ZM8.76842 25.8678C9.85259 25.8678 10.7039 25.0026 10.7039 23.9691C10.7039 22.9356 9.85259 22.0703 8.76842 22.0703C7.68425 22.0703 6.83295 22.9356 6.83295 23.9691C6.83295 25.0026 7.68425 25.8678 8.76842 25.8678ZM13.29 10.2891L3.43709 10.2891L3.43709 8.78905L13.29 8.78905V10.2891ZM24.9734 23.9691C24.9734 25.0026 24.1221 25.8678 23.038 25.8678C21.9538 25.8678 21.1025 25.0026 21.1025 23.9691C21.1025 22.9356 21.9538 22.0703 23.038 22.0703C24.1221 22.0703 24.9734 22.9356 24.9734 23.9691Z" fill="#EA1917"/>
</svg>
