<svg width="49" height="48" viewBox="0 0 49 48" fill="none" xmlns="http://www.w3.org/2000/svg">
<path fill-rule="evenodd" clip-rule="evenodd" d="M30.0259 23.9997C30.0259 21.4561 29.8861 19.0207 29.6307 16.7699L26.4654 21.1809C26.2239 21.5174 25.7553 21.5945 25.4188 21.353C25.0823 21.1115 25.0052 20.6429 25.2467 20.3064L29.5522 14.3064C29.6765 14.1332 29.8686 14.0211 30.0804 13.998C30.2923 13.975 30.504 14.0432 30.6626 14.1856L35.7001 18.7087C36.0083 18.9854 36.0338 19.4596 35.757 19.7678C35.4803 20.076 35.0061 20.1015 34.6979 19.8248L31.1227 16.6146C31.3838 18.9208 31.5259 21.408 31.5259 23.9997C31.5259 25.878 31.4513 27.7028 31.3105 29.4448C34.2438 29.1181 36.8633 28.5961 39.003 27.9338C40.8853 27.3512 42.3541 26.6728 43.3358 25.9543C44.3333 25.2244 44.6986 24.5546 44.6986 23.9994C44.6986 23.4304 44.3141 22.7412 43.2642 21.9928C42.2328 21.2576 40.6932 20.5676 38.7277 19.9814C38.3307 19.863 38.1049 19.4452 38.2233 19.0483C38.3417 18.6514 38.7595 18.4256 39.1564 18.544C41.2021 19.1541 42.9158 19.9024 44.1349 20.7713C45.3354 21.6271 46.1986 22.708 46.1986 23.9994C46.1986 25.2605 45.3747 26.321 44.2216 27.1648C43.0528 28.0202 41.4096 28.7591 39.4465 29.3667C37.1289 30.0841 34.3066 30.6363 31.1683 30.969C30.8355 34.1074 30.2833 36.9297 29.5659 39.2473C28.9583 41.2104 28.2194 42.8536 27.3641 44.0224C26.5202 45.1755 25.4597 45.9994 24.1986 45.9994C22.8671 45.9994 21.7593 45.0828 20.888 43.8179C20.0013 42.5306 19.2412 40.7213 18.6287 38.5638C18.5156 38.1654 18.7469 37.7506 19.1454 37.6375C19.5438 37.5244 19.9586 37.7557 20.0717 38.1542C20.6616 40.232 21.3662 41.8679 22.1233 42.967C22.8959 44.0885 23.6112 44.4994 24.1986 44.4994C24.7539 44.4994 25.4236 44.1341 26.1536 43.1366C26.872 42.1548 27.5504 40.6861 28.133 38.8038C28.7953 36.6641 29.3173 34.0446 29.644 31.1113C27.9021 31.2521 26.0772 31.3267 24.1989 31.3267C23.6827 31.3267 23.1706 31.3211 22.6634 31.31C22.2493 31.3009 21.9209 30.9579 21.93 30.5438C21.939 30.1297 22.2821 29.8013 22.6962 29.8103C23.1925 29.8212 23.6936 29.8267 24.1989 29.8267C26.1393 29.8267 28.0151 29.7453 29.793 29.5937C29.9446 27.8159 30.0259 25.9401 30.0259 23.9997ZM29.3508 10.7544C28.9509 10.8625 28.5391 10.6259 28.4311 10.226C27.8389 8.03486 27.1205 6.30106 26.3421 5.13299C25.5459 3.9383 24.8045 3.5 24.1986 3.5C23.6841 3.5 23.0717 3.8118 22.3979 4.66041C21.7309 5.5005 21.0896 6.76592 20.522 8.40752C19.7381 10.6748 19.1217 13.5801 18.7533 16.8876C19.8329 16.8003 20.9441 16.7385 22.0798 16.7041C22.4938 16.6915 22.8396 17.017 22.8521 17.431C22.8647 17.845 22.5392 18.1908 22.1252 18.2034C20.917 18.24 19.7405 18.3082 18.6044 18.4052C18.5184 19.4126 18.4551 20.4518 18.4163 21.5168C18.4012 21.9308 18.0534 22.2541 17.6395 22.239C17.2255 22.224 16.9022 21.8762 16.9173 21.4622C16.9533 20.4718 17.0103 19.5008 17.0868 18.5541C13.842 18.9155 10.9837 19.5157 8.73495 20.2789C7.0539 20.8495 5.75537 21.4972 4.89229 22.1729C4.0196 22.8562 3.69922 23.4781 3.69922 23.9994C3.69922 24.6988 4.28967 25.5715 5.87516 26.4771C7.40744 27.3524 9.65186 28.1261 12.4226 28.709L15.4041 29.2312C15.6022 29.2595 15.8021 29.2869 16.0037 29.3134L12.8057 25.7517C12.5289 25.4435 12.5544 24.9693 12.8626 24.6926C13.1709 24.4158 13.645 24.4413 13.9218 24.7495L18.4449 29.787C18.5873 29.9456 18.6555 30.1573 18.6324 30.3692C18.6093 30.581 18.4972 30.7731 18.3241 30.8974L12.3241 35.2029C11.9875 35.4444 11.5189 35.3673 11.2774 35.0308C11.036 34.6943 11.113 34.2257 11.4495 33.9842L15.8741 30.8092C15.6406 30.7788 15.4092 30.7472 15.1799 30.7144C15.1722 30.7133 15.1645 30.7121 15.1568 30.7107L12.1513 30.1843C12.143 30.1829 12.1348 30.1813 12.1265 30.1796C9.2714 29.5798 6.85446 28.764 5.13114 27.7796C3.45876 26.8243 2.19922 25.5653 2.19922 23.9994C2.19922 22.8139 2.92902 21.805 3.96758 20.9919C5.01577 20.1712 6.48959 19.4569 8.25287 18.8585C10.6944 18.0299 13.7713 17.3965 17.2291 17.0298C17.6025 13.5081 18.2527 10.3808 19.1044 7.91737C19.7005 6.19319 20.4096 4.75239 21.2231 3.7277C22.0299 2.71153 23.0284 2 24.1986 2C25.57 2 26.704 2.97109 27.5903 4.30119C28.4944 5.65791 29.2656 7.56431 29.8791 9.83472C29.9872 10.2346 29.7506 10.6463 29.3508 10.7544Z" fill="black"/>
</svg>
