<?xml version="1.0" encoding="utf-8"?>
<svg version="1.1" xmlns:xlink="http://www.w3.org/1999/xlink" width="17px" height="17px" xmlns="http://www.w3.org/2000/svg">
  <g transform="matrix(1 0 0 1 -1379 -1288 )">
    <path d="M 14.64950588235294 3.3827388235294116  L 14.64950588235294 5.879595294117647  C 14.64950588235294 6.2694399999999995  14.96555294117647 6.585477647058823  15.355388235294114 6.585477647058823  C 15.745223529411765 6.585477647058823  16.061270588235296 6.2694399999999995  16.061270588235296 5.879595294117647  L 16.061270588235296 1.6452517647058824  C 16.061270588235296 1.2544564705882353  15.745223529411765 0.9384188235294117  15.355388235294114 0.9384188235294117  C 15.343058823529411 0.9384188235294117  15.330729411764704 0.9387378823529412  15.31849411764706 0.9393665882352941  L 11.120094117647058 0.9393665882352941  C 10.730258823529411 0.9393665882352941  10.414211764705879 1.2553976470588235  10.414211764705879 1.6452517647058824  C 10.414211764705879 2.0350964705882353  10.730258823529411 2.351134117647059  11.120094117647058 2.351134117647059  L 13.682258823529411 2.351134117647059  L 7.662127058823529 8.68980705882353  C 7.393656470588235 8.972480000000001  7.405176470588236 9.419294117647055  7.687849411764706 9.687717647058822  C 7.970522352941177 9.956235294117647  8.417317647058823 9.944658823529412  8.685788235294117 9.662023529411766  L 14.64950588235294 3.3827388235294116  Z M 2.411482352941176 14.588423529411765  L 2.411472941176471 4.225214117647059  L 7.823237647058823 4.225214117647059  C 8.213091764705883 4.225214117647059  8.529119999999999 3.9091764705882355  8.529119999999999 3.5193317647058824  C 8.529119999999999 3.129477647058823  8.213091764705883 2.813449411764706  7.823237647058823 2.813449411764706  L 1.705595294117647 2.813449411764706  C 1.3157468235294116 2.813449411764706  0.9997127755294117 3.129477647058823  0.9997127755294117 3.5193317647058824  L 0.9997309035294117 3.5244423529411764  L 1 3.529552941176471  L 1 15.29430588235294  C 0.9997127755294117 15.684141176470588  1.3157477647058824 16.000188235294118  1.705595294117647 16  L 13.47124705882353 16  C 13.861082352941176 16.000188235294118  14.177129411764707 15.684141176470588  14.177129411764707 15.29430588235294  L 14.177129411764707 9.176611764705882  C 14.177129411764707 8.78676705882353  13.861082352941176 8.470729411764706  13.47124705882353 8.470729411764706  C 13.081411764705882 8.470729411764706  12.765364705882353 8.78676705882353  12.765364705882353 9.176611764705882  L 12.765364705882353 14.588423529411765  L 2.411482352941176 14.588423529411765  Z " fill-rule="nonzero" fill="#a50034" stroke="none" transform="matrix(1 0 0 1 1379 1288 )" />
  </g>
</svg>