<?xml version="1.0" encoding="UTF-8"?>
<svg id="Layer_1" data-name="Layer 1" xmlns="http://www.w3.org/2000/svg" version="1.1" viewBox="0 0 226 48">
  <defs>
    <style>
      .cls-1 {
        fill: #000;
        fill-rule: evenodd;
        stroke-width: 0px;
      }
    </style>
  </defs>
  <path class="cls-1" d="M64.8,10.3c0-1,.9-1.7,1.8-1.7h28.1c.9,0,1.8.7,1.8,1.7v15.4c0,1-.9,1.7-1.8,1.7h-28.1c-.9,0-1.8-.7-1.8-1.7v-15.4ZM66.6,10.1c-.2,0-.3.1-.3.2v15.4c0,0,0,.2.3.2h28.1c.2,0,.3-.1.3-.2v-15.4c0,0,0-.2-.3-.2h-28.1ZM3.1,8.9c-1.2,0-2.2,1-2.2,2.2v22.1c0,1.2,1,2.2,2.2,2.2h17c1.2,0,2.2-1,2.2-2.2V11c0-1.2-1-2.2-2.2-2.2H3.1ZM2.4,11c0-.4.3-.7.8-.7h17c.4,0,.8.3.8.7v22.1c0,.4-.3.7-.8.7H3.1c-.4,0-.8-.3-.8-.7V11ZM12.6,12.5c0,.5-.4,1-1,1s-1-.4-1-1,.4-1,1-1,1,.4,1,1ZM26.1,14.2c-.4,0-.8.3-.8.7v18.2c0,.4.3.7.8.7h10c.4,0,.8-.3.8-.7V14.9c0-.4-.3-.7-.8-.7h-10ZM23.9,14.9c0-1.2,1-2.2,2.2-2.2h10c1.2,0,2.2,1,2.2,2.2v18.2c0,1.2-1,2.2-2.2,2.2h-10c-1.2,0-2.2-1-2.2-2.2V14.9ZM32.1,16.3c0,.5-.4,1-1,1s-1-.4-1-1,.4-1,1-1,1,.4,1,1ZM26.2,23.4c1.2-1.4,3-2.3,5-2.3s3.8.9,5,2.3c.2.3.2.6,0,.8-.3.2-.6.2-.8,0-.9-1.1-2.4-1.9-4-1.9s-3.1.7-4,1.9c-.2.3-.6.3-.8,0-.3-.2-.3-.6,0-.8ZM27.7,24.6c.8-1,2.1-1.6,3.5-1.6s2.6.6,3.5,1.6c.2.3.2.6,0,.8-.3.2-.6.2-.8,0-.6-.7-1.5-1.2-2.5-1.2s-1.9.5-2.5,1.2c-.2.3-.6.3-.8,0-.3-.2-.3-.6,0-.8ZM29,25.7c.5-.6,1.2-.9,2-.9s1.5.4,2,.9c.2.3.2.6,0,.8-.3.2-.6.2-.8,0-.2-.3-.6-.5-1-.5s-.8.2-1,.5c-.2.3-.6.3-.8,0-.3-.2-.3-.6,0-.8ZM31.6,27.4c0,.3-.3.6-.6.6s-.6-.3-.6-.6.3-.6.6-.6.6.3.6.6ZM68.5,29c-.8,0-1.6.6-1.6,1.5v2.3c0,.9.8,1.5,1.6,1.5h24.2c.8,0,1.6-.6,1.6-1.5v-2.3c0-.9-.8-1.5-1.6-1.5h-24.2ZM68.4,32.8v-2.3h0s0,0,.1,0h24.2c0,0,.1,0,.1,0h0v2.3h0s0,0-.1,0h-24.2c0,0-.1,0-.1,0h0ZM96.9,28.5c.2-.3.6-.3.8,0,.9.8,1.5,1.9,1.5,3.2s-.6,2.5-1.5,3.2c-.3.2-.6.2-.8,0-.2-.3-.2-.6,0-.8.6-.5,1.1-1.4,1.1-2.3s-.4-1.8-1.1-2.3c-.3-.2-.3-.6,0-.8ZM95.3,30c.2-.3.6-.3.8,0,.5.4.9,1.1.9,1.9s-.3,1.4-.9,1.9c-.3.2-.6.2-.8,0-.2-.3-.2-.6,0-.8.3-.2.4-.5.4-.9s-.2-.7-.4-.9c-.3-.2-.3-.6,0-.8ZM64.3,29.3c.3-.2.3-.6,0-.8-.2-.3-.6-.3-.8,0-.9.8-1.5,1.9-1.5,3.2s.6,2.5,1.5,3.2c.3.2.6.2.8,0,.2-.3.2-.6,0-.8-.6-.5-1.1-1.4-1.1-2.3s.4-1.8,1.1-2.3ZM65.9,30.6c.3-.2.3-.6,0-.8-.2-.3-.6-.3-.8,0-.5.4-.9,1.1-.9,1.9s.3,1.4.9,1.9c.3.2.6.2.8,0,.2-.3.2-.6,0-.8-.3-.2-.4-.5-.4-.9s.2-.7.4-.9ZM69,31.7c0-.3.3-.6.6-.6h9c.3,0,.6.3.6.6s-.3.6-.6.6h-9c-.3,0-.6-.3-.6-.6ZM85.6,31.6c0,.3-.3.6-.6.6s-.6-.2-.6-.6.3-.6.6-.6.6.2.6.6ZM87.6,32.2c.3,0,.6-.2.6-.6s-.3-.6-.6-.6-.6.2-.6.6.3.6.6.6ZM89.6,31.1c-.3,0-.6.3-.6.6s.3.6.6.6h1c.3,0,.6-.3.6-.6s-.3-.6-.6-.6h-1ZM127.1,10.4c-.4,0-.8.3-.8.7v12.2h7.5v-12.9h-6.8ZM133.9,24.8h-7.5v9.8c0,.4.3.7.8.7h6.8v-10.5ZM135.4,24.8h7.5v9.8c0,.4-.3.7-.8.7h-6.8v-10.5ZM142.9,23.2h-7.5v-12.9h6.8c.4,0,.8.3.8.7v12.2ZM127.1,36.8h15c1.2,0,2.2-1,2.2-2.2V11c0-1.2-1-2.2-2.2-2.2h-15c-1.2,0-2.2,1-2.2,2.2v23.5c0,1.2,1,2.2,2.2,2.2ZM137.9,20.6v-7.6h2.5v7.6h-2.5ZM137.6,11.5c-.7,0-1.2.5-1.2,1.2v8.2c0,.7.6,1.2,1.2,1.2h3c.7,0,1.2-.5,1.2-1.2v-8.2c0-.7-.6-1.2-1.2-1.2h-3ZM148.1,16.1c-1.2,0-2.2,1-2.2,2.2v16.3c0,1.2,1,2.2,2.2,2.2h12.5c1.2,0,2.2-1,2.2-2.2v-16.3c0-1.2-1-2.2-2.2-2.2h-12.5ZM147.4,18.2c0-.4.3-.7.8-.7h12.5c.4,0,.8.3.8.7v3.1h-14v-3.1ZM147.4,22.8v11.8c0,.4.3.7.8.7h12.5c.4,0,.8-.3.8-.7v-11.8h-14ZM154.4,25.2c-2.2,0-4,1.7-4,3.8s1.8,3.8,4,3.8,4-1.7,4-3.8-1.8-3.8-4-3.8ZM148.9,29c0-2.9,2.5-5.3,5.5-5.3s5.5,2.4,5.5,5.3-2.5,5.3-5.5,5.3-5.5-2.4-5.5-5.3ZM156.3,30.7c.2.2.6.3.8,0,.3-.2.3-.6,0-.8-.2-.2-.4-.4-.7-.5-.3-.1-.6-.2-.9-.2s-.6,0-.9.2c-.3.1-.5.3-.7.5-.2.2-.4.3-.5.3-.2,0-.3,0-.5,0-.2,0-.3-.1-.4-.2,0,0,0,0-.1,0,0,0,0,0,0,0h0s0,0,0,0c-.2-.2-.6-.2-.8,0-.2.2-.2.6,0,.8h0s0,0,0,0h0s0,0,0,0h0s0,0,0,0c0,0,0,0,0,0,0,0,.1,0,.2.2.2.1.4.3.7.4.3.1.7.2,1.1.1.4,0,.8-.3,1.2-.6h0s0,0,0,0c0,0,.2-.2.3-.2.1,0,.2,0,.3,0s.2,0,.3,0c.1,0,.2.1.3.2ZM157.1,28.5c-.3.2-.6.2-.8,0,0,0-.2-.2-.3-.2-.1,0-.2,0-.3,0s-.2,0-.3,0c-.1,0-.2.1-.3.2h0s0,0,0,0c-.4.4-.8.6-1.2.6-.4,0-.8,0-1.1-.1-.3-.1-.5-.3-.7-.4,0,0-.2-.1-.2-.2,0,0,0,0,0,0h0s0,0,0,0h0s0,0,0,0h0s0,0,0,0c-.2-.2-.2-.6,0-.8.2-.2.6-.2.8,0h0s0,0,0,0c0,0,0,0,0,0,0,0,0,0,.1,0,.1,0,.3.2.4.2.2,0,.3,0,.5,0,.1,0,.3,0,.5-.3.2-.2.4-.4.7-.5.3-.1.6-.2.9-.2s.6,0,.9.2c.3.1.5.3.7.5.2.2.2.6,0,.8ZM149.1,18.7c-.4,0-.8.3-.8.7s.3.7.8.7h2.8c.4,0,.8-.3.8-.7s-.3-.7-.8-.7h-2.8ZM156.9,18.7c-.4,0-.8.3-.8.7s.3.7.8.7h2.8c.4,0,.8-.3.8-.7s-.3-.7-.8-.7h-2.8ZM154.4,18.7c-.3,0-.6.3-.6.6s.3.6.6.6.6-.3.6-.6-.3-.6-.6-.6ZM205.1,30c0,0-.1,0-.2,0s-.1,0-.2,0h-13.8c-.4,0-.8-.3-.8-.7v-15.4c0-.4.3-.7.8-.7h30c.4,0,.8.3.8.7v12.2h-2.3c-1.7,0-3.2,1.3-3.2,3v.8h-9c0,0-.1,0-.2,0s-.1,0-.2,0h-1.6ZM204.1,31.4h-13.2c-1.2,0-2.2-1-2.2-2.2v-15.4c0-1.2,1-2.2,2.2-2.2h30c1.2,0,2.2,1,2.2,2.2v12.4c1.2.4,2,1.5,2,2.8v7.2c0,1.7-1.5,3-3.2,3h-2.6c-1.7,0-3.2-1.3-3.2-3v-4.9h-8.5v6.4h4.5c.4,0,.8.3.8.8s-.3.8-.8.8h-12.5c-.4,0-.8-.3-.8-.8s.3-.8.8-.8h4.5v-6.4ZM206.1,31.4v6.4h-.5v-6.4h.5ZM219.9,27.6v2.1c0,.4.3.8.8.8s.8-.3.8-.8v-2.1h.6c1,0,1.7.7,1.7,1.5v7.2c0,.8-.7,1.5-1.7,1.5h-2.6c-1,0-1.7-.7-1.7-1.5v-7.2c0-.8.7-1.5,1.7-1.5h.6Z"/>
</svg>