<svg 
 xmlns="http://www.w3.org/2000/svg"
 xmlns:xlink="http://www.w3.org/1999/xlink"
 width="35px" height="35px">
<path fill-rule="evenodd"  fill="rgb(51, 51, 51)"
 d="M17.500,34.998 C7.835,34.998 -0.000,27.163 -0.000,17.498 C-0.000,7.833 7.835,-0.002 17.500,-0.002 C27.165,-0.002 35.000,7.833 35.000,17.498 C35.000,27.163 27.165,34.998 17.500,34.998 ZM21.773,18.364 C21.162,18.364 19.942,19.516 17.500,19.516 C15.058,19.516 13.837,18.364 13.227,18.364 C12.556,18.364 12.006,18.882 12.006,19.516 C12.006,20.092 12.372,20.380 12.617,20.496 C13.349,20.899 15.669,21.820 15.669,21.820 L13.044,24.932 C13.044,24.932 12.556,25.450 12.556,25.854 C12.556,26.487 13.105,27.006 13.776,27.006 C14.387,27.006 14.692,26.603 14.692,26.603 L17.500,23.549 L20.247,26.603 C20.247,26.603 20.552,27.006 21.162,27.006 C21.834,27.006 22.383,26.487 22.383,25.854 C22.383,25.508 21.895,24.932 21.895,24.932 L19.331,21.820 C19.331,21.820 21.651,20.899 22.383,20.496 C22.628,20.322 22.994,20.092 22.994,19.516 C22.994,18.882 22.444,18.364 21.773,18.364 ZM17.500,7.993 C20.067,7.993 22.148,10.122 22.148,12.746 C22.148,15.371 20.067,17.500 17.500,17.500 C14.933,17.500 12.851,15.371 12.851,12.746 C12.851,10.122 14.933,7.993 17.500,7.993 ZM17.500,10.154 C18.900,10.154 20.036,11.314 20.036,12.746 C20.036,14.178 18.900,15.339 17.500,15.339 C16.100,15.339 14.964,14.178 14.964,12.746 C14.964,11.314 16.100,10.154 17.500,10.154 Z"/>
</svg>