<svg width="49" height="48" viewBox="0 0 49 48" fill="none" xmlns="http://www.w3.org/2000/svg">
<path fill-rule="evenodd" clip-rule="evenodd" d="M2.5 5.5H8.81581L16.3728 35.4336L16.5158 36H17.1H41.5V34.5H17.6842L16.6744 30.5H41.0495H41.6426L41.7793 29.9229L46.2798 10.9229L46.4984 10H45.55H11.4989L10.1272 4.56642L9.98419 4H9.4H2.5V5.5ZM11.8776 11.5L16.2957 29H40.4564L44.6016 11.5H11.8776ZM17.5 42.5C17.5 41.3954 18.3954 40.5 19.5 40.5C20.6046 40.5 21.5 41.3954 21.5 42.5C21.5 43.6046 20.6046 44.5 19.5 44.5C18.3954 44.5 17.5 43.6046 17.5 42.5ZM19.5 39C17.567 39 16 40.567 16 42.5C16 44.433 17.567 46 19.5 46C21.433 46 23 44.433 23 42.5C23 40.567 21.433 39 19.5 39ZM38 42.5C38 41.3954 38.8954 40.5 40 40.5C41.1046 40.5 42 41.3954 42 42.5C42 43.6046 41.1046 44.5 40 44.5C38.8954 44.5 38 43.6046 38 42.5ZM40 39C38.067 39 36.5 40.567 36.5 42.5C36.5 44.433 38.067 46 40 46C41.933 46 43.5 44.433 43.5 42.5C43.5 40.567 41.933 39 40 39Z" fill="black"/>
</svg>
