<svg width="16" height="16" viewBox="0 0 16 16" fill="none" xmlns="http://www.w3.org/2000/svg">
<path fill-rule="evenodd" clip-rule="evenodd" d="M0.101562 2.77344C0.101562 1.39273 1.22085 0.273438 2.60156 0.273438H13.4031C14.7838 0.273438 15.9031 1.39272 15.9031 2.77344V10.7997C15.9031 12.1804 14.7838 13.2997 13.4031 13.2997H8.61626L5.35665 15.4728C4.69209 15.9158 3.80194 15.4394 3.80194 14.6407V13.2997H2.45175C1.15378 13.2997 0.101562 12.2475 0.101562 10.9495V2.77344ZM2.60156 1.27344C1.77313 1.27344 1.10156 1.94501 1.10156 2.77344V10.9495C1.10156 11.6952 1.70606 12.2997 2.45175 12.2997H4.30194H4.80194V12.7997V14.6407L8.18753 12.3837L8.31349 12.2997H8.46488H13.4031C14.2315 12.2997 14.9031 11.6281 14.9031 10.7997V2.77344C14.9031 1.94501 14.2315 1.27344 13.4031 1.27344H2.60156Z" fill="black"/>
<path d="M4.75 6.78073L6.94939 8.98029C8.62888 7.3008 9.57051 6.35918 11.25 4.67969" stroke="black" stroke-linecap="round" stroke-linejoin="round"/>
</svg>
