<svg width="75" height="35" viewBox="0 0 75 35" fill="none" xmlns="http://www.w3.org/2000/svg">
<path fill-rule="evenodd" clip-rule="evenodd" d="M10.6216 11.5007H13.3278V23.2749H10.6216V11.5007ZM17.435 11.5007H20.0819C20.0819 14.0526 19.0849 16.4264 17.3163 18.1831L21.0551 23.2749H17.7199L13.6606 17.7439L14.7051 16.9605C16.438 15.6549 17.435 13.6728 17.435 11.5007ZM24.3893 11.5007H21.8374V23.2749H24.3893V11.5007ZM44.2577 16.0469C44.8749 15.2042 45.8007 14.9075 46.774 14.9075C48.7324 14.9075 50.2398 16.2012 50.2398 18.1003V23.2871H47.8066V18.9905C47.8066 17.8035 47.1894 17.1626 46.1212 17.1626C45.1242 17.1626 44.2933 17.7679 44.2933 19.0023V23.2752H41.8364V15.133H44.2577V16.0469ZM32.1022 15.133V15.6552C31.4138 15.1805 30.583 14.9075 29.6809 14.9075C27.3071 14.9075 25.3843 16.8303 25.3843 19.2041C25.3843 21.5779 27.3071 23.5007 29.6809 23.5007C30.583 23.5007 31.4138 23.2278 32.1022 22.753V23.2752H34.5354V15.133H32.1022ZM29.8827 21.2931C28.6602 21.2931 27.675 20.3554 27.675 19.2041C27.675 18.0528 28.6602 17.1151 29.8827 17.1151C31.1052 17.1151 32.0903 18.0528 32.0903 19.2041C32.0903 20.3554 31.1052 21.2931 29.8827 21.2931ZM38.3123 15.134V16.1904C38.799 15.5613 39.7129 15.134 40.6981 15.134V17.5079H40.6743C39.7129 17.5079 38.3242 18.1963 38.3242 19.4781V23.2763H35.8198V15.134H38.3123ZM57.8132 15.133V15.6552C57.1247 15.1805 56.2939 14.9075 55.3919 14.9075C53.018 14.9075 51.0952 16.8303 51.0952 19.2041C51.0952 21.5779 53.018 23.5007 55.3919 23.5007C56.2939 23.5007 57.1247 23.2278 57.8132 22.753V23.2752H60.2463V15.133H57.8132ZM55.5936 21.2931C54.3711 21.2931 53.386 20.3554 53.386 19.2041C53.386 18.0528 54.3711 17.1151 55.5936 17.1151C56.8162 17.1151 57.8013 18.0528 57.8013 19.2041C57.8132 20.3554 56.8162 21.2931 55.5936 21.2931ZM61.9184 15.1751C62.049 15.1751 62.1321 15.2463 62.1321 15.365C62.1321 15.4481 62.0965 15.5074 62.0252 15.543L62.1321 15.7923H62.0134L61.9184 15.5667H61.7997V15.7923H61.6929V15.1751H61.9184ZM61.7997 15.4599H61.9184C62.0015 15.4599 62.0252 15.4243 62.0252 15.365C62.0252 15.3056 61.9896 15.27 61.9184 15.27H61.7997V15.4599ZM61.8838 14.9172C61.5634 14.9172 61.3022 15.1784 61.3022 15.4988C61.3141 15.8193 61.5634 16.0804 61.8838 16.0804C62.2043 16.0804 62.4654 15.8193 62.4654 15.4988C62.4654 15.1784 62.2043 14.9172 61.8838 14.9172ZM61.8838 15.9736C61.6227 15.9736 61.4209 15.7599 61.4209 15.4988C61.4209 15.2377 61.6346 15.0241 61.8838 15.0241C62.145 15.0241 62.3467 15.2377 62.3467 15.4988C62.3467 15.7599 62.1331 15.9736 61.8838 15.9736ZM61.3159 21.9239C61.3159 21.0812 62.0043 20.3928 62.847 20.3928C63.6898 20.3928 64.3782 21.0694 64.3782 21.9239C64.3782 22.7667 63.6898 23.4551 62.847 23.4551C62.0043 23.4551 61.3159 22.7667 61.3159 21.9239Z" fill="black"/>
<rect x="1.37158" y="0.750732" width="72.2566" height="33.5" rx="3.25" stroke="black" stroke-width="1.5"/>
</svg>
