<svg width="36" height="26" viewBox="0 0 36 26" fill="none" xmlns="http://www.w3.org/2000/svg">
<g clip-path="url(#clip0_21_20369)">
<path d="M33.5893 25.6448V25.7116H33.6517C33.6634 25.7118 33.6749 25.7089 33.6851 25.7031C33.6891 25.7003 33.6924 25.6964 33.6946 25.6919C33.6968 25.6875 33.6978 25.6825 33.6976 25.6776C33.6978 25.6727 33.6968 25.6678 33.6946 25.6635C33.6924 25.6591 33.6891 25.6554 33.6851 25.6527C33.675 25.6466 33.6634 25.6437 33.6517 25.6441H33.5893V25.6448ZM33.6523 25.5975C33.6791 25.5959 33.7055 25.6036 33.7272 25.6193C33.7359 25.6264 33.7428 25.6354 33.7473 25.6457C33.7519 25.656 33.754 25.6672 33.7534 25.6784C33.7538 25.6881 33.7521 25.6977 33.7485 25.7067C33.7449 25.7156 33.7394 25.7237 33.7324 25.7304C33.7156 25.7449 33.6947 25.7536 33.6726 25.7553L33.7561 25.8505H33.6918L33.6149 25.7559H33.59V25.8505H33.5362V25.5977H33.6532L33.6523 25.5975ZM33.6356 25.9377C33.6638 25.938 33.6918 25.9323 33.7177 25.921C33.7426 25.9103 33.7653 25.8949 33.7845 25.8757C33.8037 25.8566 33.8191 25.8339 33.8298 25.8089C33.8517 25.7559 33.8517 25.6964 33.8298 25.6435C33.819 25.6186 33.8036 25.5959 33.7845 25.5766C33.7653 25.5575 33.7426 25.5421 33.7177 25.5314C33.6916 25.5207 33.6637 25.5154 33.6356 25.5157C33.607 25.5154 33.5786 25.5207 33.5521 25.5314C33.5266 25.5419 33.5034 25.5573 33.4838 25.5766C33.4542 25.607 33.4342 25.6453 33.4263 25.6869C33.4183 25.7285 33.4228 25.7715 33.4391 25.8106C33.4493 25.8356 33.4645 25.8584 33.4838 25.8774C33.5034 25.8967 33.5266 25.9121 33.5521 25.9227C33.5785 25.9339 33.6069 25.9396 33.6356 25.9394M33.6356 25.4548C33.7091 25.4548 33.7796 25.4836 33.8319 25.535C33.8572 25.5598 33.8773 25.5892 33.8911 25.6218C33.9054 25.6552 33.9127 25.6911 33.9127 25.7274C33.9127 25.7638 33.9054 25.7997 33.8911 25.8331C33.877 25.8655 33.8569 25.8949 33.8319 25.9198C33.8063 25.9444 33.7765 25.9642 33.7439 25.9783C33.7097 25.9928 33.6728 26.0002 33.6356 26C33.598 26.0003 33.5607 25.9929 33.526 25.9783C33.4931 25.9645 33.463 25.9447 33.4373 25.9198C33.4123 25.894 33.3925 25.8636 33.379 25.8303C33.3647 25.7969 33.3574 25.7609 33.3574 25.7246C33.3574 25.6883 33.3647 25.6523 33.379 25.6189C33.3928 25.5864 33.4129 25.5569 33.4381 25.5322C33.4634 25.5069 33.4936 25.487 33.5269 25.4737C33.5615 25.4591 33.5988 25.4517 33.6365 25.452M8.05268 24.4786C8.05268 23.9966 8.36845 23.6006 8.88456 23.6006C9.37777 23.6006 9.71059 23.9795 9.71059 24.4786C9.71059 24.9777 9.37777 25.3566 8.88456 25.3566C8.36845 25.3566 8.05268 24.9606 8.05268 24.4786ZM10.2728 24.4786V23.1069H9.67651V23.4411C9.48737 23.1941 9.2005 23.0392 8.81037 23.0392C8.04182 23.0392 7.43867 23.6421 7.43867 24.4793C7.43867 25.3165 8.04148 25.9193 8.81037 25.9193C9.20033 25.9193 9.48737 25.7643 9.67651 25.5175V25.8505H10.2721V24.4786H10.2728ZM30.4211 24.4786C30.4211 23.9966 30.7368 23.6006 31.2531 23.6006C31.7468 23.6006 32.0791 23.9795 32.0791 24.4786C32.0791 24.9777 31.7468 25.3566 31.2531 25.3566C30.737 25.3566 30.4211 24.9606 30.4211 24.4786ZM32.6419 24.4786V22.0059H32.045V23.4411C31.8559 23.1941 31.569 23.0392 31.1789 23.0392C30.4104 23.0392 29.8072 23.6421 29.8072 24.4793C29.8072 25.3165 30.41 25.9193 31.1789 25.9193C31.569 25.9193 31.8559 25.7643 32.045 25.5175V25.8505H32.6419V24.4786ZM17.6737 23.5724C18.058 23.5724 18.3047 23.8133 18.3677 24.2375H16.9449C17.0085 23.8415 17.249 23.5724 17.6739 23.5724M17.6857 23.0377C16.8821 23.0377 16.3199 23.6225 16.3199 24.4778C16.3199 25.3498 16.9046 25.9178 17.7256 25.9178C18.1387 25.9178 18.5169 25.8147 18.8497 25.5335L18.5575 25.0916C18.3276 25.2754 18.0349 25.3785 17.7597 25.3785C17.3755 25.3785 17.0256 25.2006 16.9395 24.7068H18.9757C18.9816 24.6327 18.9876 24.5578 18.9876 24.4776C18.9816 23.6227 18.4529 23.0376 17.6854 23.0376M24.8848 24.4776C24.8848 23.9956 25.2005 23.5996 25.7166 23.5996C26.2099 23.5996 26.5427 23.9785 26.5427 24.4776C26.5427 24.9767 26.2099 25.3556 25.7166 25.3556C25.2005 25.3556 24.8846 24.9596 24.8846 24.4776M27.1047 24.4776V23.1069H26.5088V23.4411C26.319 23.1941 26.0328 23.0392 25.6426 23.0392C24.8741 23.0392 24.2709 23.6421 24.2709 24.4793C24.2709 25.3165 24.8737 25.9193 25.6426 25.9193C26.0328 25.9193 26.319 25.7643 26.5088 25.5175V25.8505H27.1049V24.4786L27.1047 24.4776ZM21.5173 24.4776C21.5173 25.3095 22.0964 25.9177 22.9802 25.9177C23.3933 25.9177 23.6684 25.8258 23.966 25.5907L23.6796 25.1087C23.4557 25.2696 23.2207 25.3556 22.9612 25.3556C22.4852 25.3498 22.1352 25.0056 22.1352 24.4776C22.1352 23.9496 22.4852 23.6056 22.9612 23.5996C23.22 23.5996 23.4551 23.6857 23.6796 23.8466L23.966 23.3645C23.6679 23.1295 23.3928 23.0376 22.9802 23.0376C22.0964 23.0376 21.5173 23.6456 21.5173 24.4776ZM29.2046 23.0376C28.8605 23.0376 28.6365 23.1985 28.4816 23.4394V23.1069H27.8907V25.849H28.4876V24.3119C28.4876 23.8581 28.6826 23.606 29.0724 23.606C29.2 23.6041 29.3268 23.6276 29.4453 23.675L29.6291 23.1129C29.4971 23.061 29.325 23.0381 29.2042 23.0381M13.2209 23.3249C12.934 23.1358 12.5387 23.0381 12.1026 23.0381C11.4079 23.0381 10.9607 23.3711 10.9607 23.9159C10.9607 24.363 11.2937 24.6388 11.9068 24.7249L12.1885 24.765C12.5155 24.8109 12.6699 24.897 12.6699 25.0519C12.6699 25.2639 12.4527 25.3848 12.0448 25.3848C11.6318 25.3848 11.3338 25.2529 11.1328 25.098L10.8526 25.5629C11.1795 25.8039 11.5926 25.9188 12.0398 25.9188C12.8318 25.9188 13.2907 25.5459 13.2907 25.0238C13.2907 24.5418 12.9295 24.2896 12.3327 24.2036L12.0517 24.1628C11.7935 24.1294 11.5867 24.0775 11.5867 23.8937C11.5867 23.6932 11.7817 23.5725 12.1088 23.5725C12.4589 23.5725 12.7977 23.7045 12.9638 23.8076L13.2219 23.3256L13.2209 23.3249ZM20.915 23.0386C20.571 23.0386 20.3469 23.1995 20.1927 23.4404V23.1069H19.6018V25.849H20.1981V24.3119C20.1981 23.8581 20.393 23.606 20.7828 23.606C20.9105 23.6041 21.0372 23.6276 21.1558 23.675L21.3395 23.1129C21.2075 23.061 21.0355 23.0381 20.9147 23.0381M15.8265 23.1069H14.8514V22.275H14.2486V23.1069H13.6924V23.6519H14.2486V24.9028C14.2486 25.5391 14.4955 25.918 15.2009 25.918C15.4597 25.918 15.7578 25.8378 15.9469 25.706L15.7747 25.1954C15.5967 25.2985 15.4018 25.3504 15.2467 25.3504C14.9486 25.3504 14.8514 25.1666 14.8514 24.8915V23.6524H15.8265V23.1069ZM6.91137 25.8497V24.1288C6.91137 23.4807 6.49835 23.0446 5.83255 23.0387C5.48252 23.0329 5.12146 23.1418 4.86867 23.5266C4.67954 23.2225 4.38148 23.0387 3.96245 23.0387C3.66956 23.0387 3.38335 23.1248 3.1593 23.4459V23.1069H2.5625V25.849H3.16398V24.3286C3.16398 23.8526 3.42796 23.5996 3.83563 23.5996C4.23161 23.5996 4.43193 23.8578 4.43193 24.3226V25.8486H5.03475V24.3282C5.03475 23.8522 5.30993 23.5993 5.70573 23.5993C6.1129 23.5993 6.30721 23.8574 6.30721 24.3222V25.8483L6.91137 25.8497Z" fill="#231F20"/>
<path d="M33.9289 16.7281V16.3271H33.8245L33.7037 16.6023L33.5836 16.3271H33.4788V16.7281H33.553V16.4261L33.6659 16.6867H33.7428L33.8557 16.4254V16.7281H33.9292H33.9289ZM33.2664 16.7281V16.3958H33.4001V16.3282H33.0586V16.3958H33.1923V16.7281H33.2658H33.2664Z" fill="#F79410"/>
<path d="M22.06 18.448H13.0234V2.20801H22.0602L22.06 18.448Z" fill="#FF5F00"/>
<path d="M13.5968 10.3283C13.5968 7.03399 15.1392 4.09943 17.5411 2.20828C15.723 0.774662 13.4743 -0.00340984 11.1589 1.12334e-05C5.45541 1.12334e-05 0.832031 4.62406 0.832031 10.3283C0.832031 16.0325 5.45541 20.6565 11.1589 20.6565C13.4743 20.66 15.7231 19.8819 17.5413 18.4482C15.1396 16.5574 13.5968 13.6227 13.5968 10.3283Z" fill="#EB001B"/>
<path d="M34.2492 10.3283C34.2492 16.0325 29.6258 20.6565 23.9223 20.6565C21.6066 20.6599 19.3576 19.8818 17.5391 18.4482C19.9416 16.5571 21.4841 13.6227 21.4841 10.3283C21.4841 7.03382 19.9416 4.09943 17.5391 2.20828C19.3575 0.774706 21.6065 -0.00334988 23.9221 1.08416e-05C29.6256 1.08416e-05 34.249 4.62406 34.249 10.3283" fill="#F79E1B"/>
</g>
<defs>
<clipPath id="clip0_21_20369">
<rect width="35.7463" height="26" fill="white" transform="translate(0.125)"/>
</clipPath>
</defs>
</svg>
