<svg width="65" height="64" viewBox="0 0 65 64" fill="none" xmlns="http://www.w3.org/2000/svg">
<g clip-path="url(#clip0_653_188735)">
<path d="M31.1998 49.25H34.2298C35.0548 49.25 35.7148 49.69 35.7148 50.24V55.26H29.7148V50.24C29.7148 49.69 30.3748 49.25 31.1998 49.25V49.25Z" stroke="black" stroke-width="1.5" stroke-miterlimit="10"/>
<path d="M32.6548 2.91016C33.7948 2.91016 34.7148 3.83016 34.7148 4.97016V11.4502C34.7148 12.5502 33.8148 13.4502 32.7148 13.4502C31.6148 13.4502 30.7148 12.5502 30.7148 11.4502V4.85016C30.7148 3.78016 31.5848 2.91016 32.6548 2.91016Z" stroke="black" stroke-width="1.5" stroke-miterlimit="10"/>
<path d="M30.7148 23.2207V49.2507H34.7148V23.2207" stroke="black" stroke-width="1.5" stroke-miterlimit="10" stroke-linecap="round"/>
<path d="M22.3888 55.2695H43.0409C44.2366 55.2695 45.2148 56.1695 45.2148 57.2695V60.0895C45.2148 60.6395 44.7257 61.0895 44.1279 61.0895H21.3018C20.704 61.0895 20.2148 60.6395 20.2148 60.0895V57.2695C20.2148 56.1695 21.1931 55.2695 22.3888 55.2695Z" stroke="black" stroke-width="1.5" stroke-miterlimit="10" stroke-linecap="round"/>
<path d="M37.7148 12.0476C37.7148 9.15161 34.8043 6.87617 31.5191 7.57719C29.7453 7.95643 28.3088 9.26653 27.8716 10.8869C27.5094 12.2315 27.7967 13.4956 28.5087 14.4954C29.533 15.9549 30.22 17.5753 30.22 19.3106V21.6205C30.22 22.7697 31.0694 23.827 32.2936 24.0109C33.855 24.2407 35.2166 23.1375 35.2166 21.7469V19.0923C35.2166 17.4604 35.8786 15.9319 36.8654 14.5874C37.4026 13.8634 37.7148 12.99 37.7148 12.0476Z" stroke="black" stroke-width="1.5" stroke-miterlimit="10"/>
<path d="M32.7192 16.6429C35.4787 16.6429 37.7158 14.5848 37.7158 12.0461C37.7158 9.50729 35.4787 7.44922 32.7192 7.44922C29.9597 7.44922 27.7227 9.50729 27.7227 12.0461C27.7227 14.5848 29.9597 16.6429 32.7192 16.6429Z" stroke="black" stroke-width="1.5" stroke-miterlimit="10"/>
</g>
<defs>
<clipPath id="clip0_653_188735">
<rect width="54.04" height="59.68" fill="white" transform="translate(5.69531 2.16016)"/>
</clipPath>
</defs>
</svg>
