<svg width="20" height="20" viewBox="0 0 20 20" fill="none" xmlns="http://www.w3.org/2000/svg">
<path fill-rule="evenodd" clip-rule="evenodd" d="M14.5675 15.9655C14.9586 16.3553 15.5851 16.3476 15.9668 15.9482C16.3485 15.5489 16.3409 14.9092 15.9498 14.5194L11.4164 10.0009L15.9507 5.48101C16.3417 5.09121 16.3493 4.45151 15.9675 4.0522C15.5858 3.6529 14.9593 3.64519 14.5683 4.035L9.99979 8.58898L5.43066 4.0349C5.03959 3.64512 4.41312 3.65286 4.0314 4.05219C3.64968 4.45152 3.65726 5.09122 4.04833 5.481L8.58328 10.001L4.05036 14.5195C3.65931 14.9093 3.65177 15.549 4.03351 15.9483C4.41525 16.3476 5.04172 16.3553 5.43277 15.9655L9.99988 11.4129L14.5675 15.9655Z" fill="black"/>
</svg>
