<svg 
 xmlns="http://www.w3.org/2000/svg"
 xmlns:xlink="http://www.w3.org/1999/xlink"
 width="35px" height="35px">
<path fill-rule="evenodd"  fill="rgb(51, 51, 51)"
 d="M17.500,34.998 C7.835,34.998 -0.000,27.163 -0.000,17.498 C-0.000,7.833 7.835,-0.002 17.500,-0.002 C27.165,-0.002 35.000,7.833 35.000,17.498 C35.000,27.163 27.165,34.998 17.500,34.998 ZM25.406,16.375 C26.634,14.952 27.125,14.084 26.972,13.712 C26.825,13.357 25.922,13.451 25.922,13.451 L22.915,13.468 C22.915,13.468 22.692,13.441 22.527,13.527 C22.365,13.611 22.261,13.807 22.261,13.807 C22.261,13.807 21.785,14.908 21.151,15.844 C19.812,17.820 19.277,17.924 19.058,17.802 C18.549,17.516 18.676,16.653 18.676,16.040 C18.676,14.126 19.010,13.327 18.025,13.121 C17.698,13.052 17.458,12.976 16.622,12.968 C15.549,12.959 14.641,13.002 14.127,13.221 C13.785,13.367 13.521,13.691 13.681,13.710 C13.880,13.733 14.330,13.815 14.569,14.098 C14.877,14.462 14.866,15.280 14.866,15.280 C14.866,15.280 15.043,17.534 14.453,17.814 C14.047,18.006 13.491,17.613 12.298,15.821 C11.686,14.903 11.224,13.889 11.224,13.889 C11.224,13.889 11.135,13.699 10.977,13.598 C10.784,13.475 10.514,13.435 10.514,13.435 L7.657,13.452 C7.657,13.452 7.228,13.462 7.071,13.624 C6.931,13.768 7.060,14.066 7.060,14.066 C7.060,14.066 9.297,18.614 11.829,20.905 C14.152,23.006 17.000,22.999 17.000,22.999 L18.000,22.999 C18.000,22.999 18.346,22.834 18.530,22.661 C18.700,22.503 18.694,22.205 18.694,22.205 C18.694,22.205 18.671,20.811 19.415,20.606 C20.149,20.404 21.091,21.953 22.090,22.549 C22.845,22.999 23.419,22.995 23.419,22.995 L26.090,22.993 C26.090,22.993 27.487,22.794 26.824,21.839 C26.770,21.761 26.439,21.133 24.839,19.843 C23.164,18.493 23.388,18.711 25.406,16.375 Z"/>
</svg>