<svg width="110" height="10" viewBox="0 0 110 10" fill="none" xmlns="http://www.w3.org/2000/svg">
<path fill-rule="evenodd" clip-rule="evenodd" d="M0 0.14309H2.42602V7.96359H7.45171V9.85496H0V0.14309ZM14.7645 6.15302H12.7889L12.79 6.15205V4.34147H17V9.05285C16.1327 9.61452 14.5393 9.99902 12.91 9.99902C9.35674 9.99902 7.74641 8.23712 7.74641 4.98296C7.74641 1.71225 9.52935 -0.000976562 12.9247 -0.000976562C14.4351 -0.000976562 16.0464 0.366978 16.9653 1.58376L15.457 2.86868C14.8845 2.19312 14.193 1.84074 12.9794 1.84074C10.7955 1.84074 10.103 3.01275 10.103 4.99854C10.103 7.08167 10.8313 8.10766 13.0142 8.10766C13.6909 8.10766 14.4003 7.98111 14.7645 7.85067V6.15302ZM33.4591 6.78856V7.57316H33.4581C33.4581 7.80792 33.4324 8.03547 33.3821 8.24964C33.1392 9.36373 32.2885 9.97946 30.9884 9.97946H24.2579V8.76653H31.0398C31.7053 8.76653 32.1762 8.37629 32.1911 7.81616C32.1922 7.81101 32.1943 7.80071 32.1943 7.78836V6.63205C32.189 5.99367 31.8145 5.6199 31.1618 5.59725L26.4739 5.59622C24.917 5.59622 24.0396 4.77559 24.0021 3.28671V3.23831C24 3.22287 24 3.20743 24 3.19198V2.40738C24 2.17262 24.0246 1.95125 24.0749 1.72884C24.3199 0.613727 25.1706 -0.000976562 26.4739 -0.000976562H32.8225V1.21402H26.4172C25.7527 1.21402 25.2798 1.60322 25.2659 2.16747L25.2637 2.19219V3.34849C25.2659 3.97761 25.65 4.3627 26.2963 4.38329H30.9852C32.54 4.38329 33.4163 5.20495 33.4538 6.69692L33.4549 6.71752C33.4552 6.72548 33.4559 6.73373 33.4566 6.74225C33.4579 6.75687 33.4591 6.7723 33.4591 6.78856ZM37.185 9.99902H35.9427V-0.000976562H37.185V9.99902ZM43.6074 4.45022H48.4568V7.04186C48.4568 8.93951 47.391 9.98358 45.4543 9.98358H41.9285C40.0238 9.98358 38.9292 8.91068 38.9292 7.04186V2.93766C38.9292 1.06986 40.0238 -0.000976562 41.9285 -0.000976562H47.8939V1.17695H41.8771C40.8617 1.17695 40.2293 1.78341 40.2293 2.75747V7.22411C40.2293 8.17756 40.8617 8.77168 41.8771 8.77168H45.5088C46.6195 8.77168 47.1599 8.26509 47.1599 7.22411V5.64771H43.6074V4.45022ZM70.0395 9.99799L68.8945 7.54124V7.54021H62.9965L61.8462 9.99799H60.4262L65.1697 5.30169e-05H66.733L71.4765 9.99799H70.0395ZM68.3295 6.32728L65.9519 1.22637L63.5657 6.32728H68.3295ZM59.5274 -0.000976562V9.98976H57.8335L51.5107 1.49099V9.99902H50.2748V0.00829063H51.9194L58.2637 8.5122V-0.000976562H59.5274ZM69.9806 -0.000976562H78.7934V1.18004H75.0547V9.96402H73.7193V1.18004H69.9806V-0.000976562ZM87.7785 -0.000976562H89.1129V6.80813C89.1129 8.91892 88.0343 9.98667 85.9092 9.98667H83.2683C81.1871 9.98667 80.132 8.91892 80.132 6.80813V-0.000976562H81.4653V6.9564C81.4653 8.14668 82.0827 8.77477 83.2491 8.77477H85.9948C87.1622 8.77477 87.7785 8.14668 87.7785 6.95846V-0.000976562ZM100.071 9.99182H98.7657V9.99284C98.7357 8.77579 97.8626 6.39009 95.2527 6.39009H92.1817V9.96607H90.8806V5.30169e-05H97.4313C99.1605 5.30169e-05 100.073 0.888644 100.073 2.57419V3.87773C100.073 5.51179 99.1466 6.10178 98.3687 6.30771L98.2478 6.33963L98.3505 6.4148C99.3852 7.17571 99.962 8.37938 100.071 9.99182ZM97.3864 1.18107H92.1817V5.2101H97.4463C98.2895 5.2101 98.7732 4.75808 98.7732 3.96937L98.7721 2.4218C98.7721 1.65471 98.2414 1.18107 97.3864 1.18107ZM110 -0.000976562V1.1718H102.926V4.38947H109.859V5.56842H102.926V8.80565H110V9.98358H101.629V-0.000976562H110Z" fill="black"/>
</svg>
