<svg width="60" height="60" viewBox="0 0 60 60" fill="none" xmlns="http://www.w3.org/2000/svg">
<path d="M47.9618 31.1328V17.8316C47.96 16.9593 47.7079 16.106 47.2357 15.3739C46.7614 14.6427 46.0899 14.062 45.2996 13.6994L28.9636 6.31283C28.3774 6.04237 27.7399 5.90234 27.0948 5.90234C26.4496 5.90234 25.8121 6.04237 25.2259 6.31283L9.21259 13.6859C8.41403 14.039 7.73479 14.6176 7.25742 15.3511C6.78005 16.0847 6.52509 16.9417 6.52355 17.818V34.8328C6.51782 35.6645 6.73913 36.4818 7.16343 37.196C7.58773 37.9103 8.1988 38.494 8.93024 38.8839L25.0645 47.4318C25.7144 47.7715 26.4361 47.9488 27.1687 47.9488C27.9013 47.9488 28.6231 47.7715 29.2729 47.4318L34.3552 44.7311" stroke="black" stroke-width="1.5" stroke-linejoin="round"/>
<path d="M38.8241 33.685V21.9502C38.8236 21.0685 38.5696 20.2057 38.0925 19.4654C37.6155 18.7252 36.9358 18.1391 36.1351 17.7776L18.6562 9.32422" stroke="black" stroke-width="1.5" stroke-linejoin="round"/>
<path d="M7.11719 15.0488C12.9255 17.8576 21.4229 21.8007 27.285 24.596L47.0092 15.4404" stroke="black" stroke-width="1.5" stroke-linejoin="round"/>
<path d="M27.2422 47.7429V24.7324" stroke="black" stroke-width="1.5" stroke-linejoin="round"/>
<path d="M46.2272 55.0208C52.7988 55.0208 58.1262 49.6702 58.1262 43.07C58.1262 36.4697 52.7988 31.1191 46.2272 31.1191C39.6555 31.1191 34.3281 36.4697 34.3281 43.07C34.3281 49.6702 39.6555 55.0208 46.2272 55.0208Z" stroke="black" stroke-width="1.5" stroke-linejoin="round"/>
<path d="M41.3906 43.127H51.0329" stroke="black" stroke-width="1.5" stroke-linecap="round" stroke-linejoin="round"/>
<path d="M46.2109 38.3047V47.947" stroke="black" stroke-width="1.5" stroke-linecap="round" stroke-linejoin="round"/>
</svg>
