<svg width="20" height="20" viewBox="0 0 20 20" fill="none" xmlns="http://www.w3.org/2000/svg">
<path fill-rule="evenodd" clip-rule="evenodd" d="M18.5 10C18.5 14.6944 14.6944 18.5 10 18.5C5.30558 18.5 1.5 14.6944 1.5 10C1.5 5.30558 5.30558 1.5 10 1.5C14.6944 1.5 18.5 5.30558 18.5 10ZM20 10C20 15.5228 15.5228 20 10 20C4.47715 20 0 15.5228 0 10C0 4.47715 4.47715 0 10 0C15.5228 0 20 4.47715 20 10ZM10.5 4.75C10.5 4.33579 10.1642 4 9.75 4C9.33579 4 9 4.33579 9 4.75V10.25C9 10.5812 9.21725 10.8732 9.53449 10.9684L14.5345 12.4684C14.9312 12.5874 15.3493 12.3623 15.4684 11.9655C15.5874 11.5688 15.3623 11.1507 14.9655 11.0316L10.5 9.69198V4.75Z" fill="white"/>
</svg>
