<svg width="38" height="38" viewBox="0 0 38 38" fill="none" xmlns="http://www.w3.org/2000/svg">
<g clip-path="url(#clip0_10306_441090)">
<path fill-rule="evenodd" clip-rule="evenodd" d="M19.7953 11.459C20.1157 11.2073 20.6086 11.4367 20.6086 11.8637V26.1456C20.6086 26.5612 20.1223 26.8013 19.7922 26.5479L19.7911 26.5471L15.5761 23.2596L15.4134 23.1327H15.2071H12.8147C12.0118 23.1327 11.3523 22.4732 11.3523 21.6703V16.3288C11.3523 15.5258 12.0118 14.8664 12.8147 14.8664H15.2071H15.4129L15.5753 14.7401L19.7929 11.4609L19.7929 11.4609L19.7953 11.459ZM21.8086 11.8637C21.8086 10.4558 20.1785 9.63349 19.0552 10.5144L19.0539 10.5154L15.0013 13.6664H12.8147C11.349 13.6664 10.1523 14.8631 10.1523 16.3288V21.6703C10.1523 23.136 11.349 24.3327 12.8147 24.3327H15.0007L19.0556 27.4953L19.0581 27.4972C20.1716 28.3562 21.8086 27.5651 21.8086 26.1456V11.8637ZM25.5299 14.2315C25.2648 14.0326 24.8887 14.0864 24.6899 14.3515C24.491 14.6166 24.5448 14.9926 24.8099 15.1915C25.3811 15.6199 25.8446 16.1753 26.1639 16.8139C26.4832 17.4525 26.6495 18.1567 26.6495 18.8707C26.6495 19.5847 26.4832 20.2888 26.1639 20.9274C25.8446 21.566 25.3811 22.1215 24.8099 22.5499C24.5448 22.7487 24.491 23.1248 24.6899 23.3899C24.8887 23.655 25.2648 23.7087 25.5299 23.5099C26.2501 22.9698 26.8346 22.2693 27.2373 21.4641C27.6399 20.6589 27.8495 19.771 27.8495 18.8707C27.8495 17.9704 27.6399 17.0825 27.2373 16.2773C26.8346 15.4721 26.2501 14.7716 25.5299 14.2315Z" fill="black"/>
</g>
<defs>
<clipPath id="clip0_10306_441090">
<rect width="18" height="18" fill="white" transform="translate(10 10)"/>
</clipPath>
</defs>
</svg>
