<svg width="181" height="20" viewBox="0 0 181 20" fill="none" xmlns="http://www.w3.org/2000/svg">
<g clip-path="url(#clip0_2986_354104)">
<path d="M19.1535 2.28256L12.6673 17.758H8.43551L5.24361 5.40789C5.04983 4.6472 4.88133 4.36852 4.29198 4.04804C3.33028 3.52604 1.7413 3.03654 0.343262 2.73258L0.438219 2.28256H7.25009C8.11838 2.28256 8.89894 2.86056 9.09608 3.86045L10.7818 12.8153L14.9481 2.28256H19.1535ZM35.7346 12.7054C35.7516 8.62094 30.0867 8.39594 30.1257 6.57137C30.1378 6.01608 30.6665 5.42569 31.8238 5.275C32.3974 5.19991 33.9779 5.14263 35.7705 5.96757L36.4736 2.68587C35.5104 2.33623 34.271 1.99976 32.729 1.99976C28.7721 1.99976 25.9873 4.10326 25.9639 7.11531C25.9383 9.34318 27.9515 10.5864 29.4682 11.3267C31.0286 12.0848 31.5521 12.572 31.5462 13.2501C31.5351 14.2882 30.3017 14.7464 29.149 14.7645C27.1369 14.7955 25.9693 14.2201 25.0385 13.7873L24.3129 17.1777C25.2483 17.6068 26.9748 17.9812 28.7648 18C32.9705 18 35.7217 15.9226 35.7346 12.7054ZM46.1835 17.7582H49.8861L46.6542 2.28256H43.2367C42.4683 2.28256 41.8201 2.73 41.5332 3.41792L35.5259 17.758H39.7295L40.5643 15.4462H45.7005L46.1838 17.758L46.1835 17.7582ZM41.7167 12.2747L43.8238 6.46428L45.0365 12.2747H41.7169H41.7167ZM24.8737 2.28256L21.5633 17.758H17.5602L20.8718 2.28256H24.8737Z" fill="#1434CB"/>
</g>
<g clip-path="url(#clip1_2986_354104)">
<path d="M76.4787 17.7813V17.8225H76.517C76.5243 17.8226 76.5313 17.8208 76.5376 17.8172C76.5401 17.8155 76.5421 17.8131 76.5435 17.8103C76.5448 17.8076 76.5455 17.8046 76.5453 17.8015C76.5455 17.7985 76.5448 17.7955 76.5435 17.7928C76.5421 17.7902 76.5401 17.7879 76.5376 17.7862C76.5314 17.7825 76.5243 17.7806 76.517 17.7809H76.4787V17.7813ZM76.5175 17.7523C76.5339 17.7512 76.5502 17.756 76.5635 17.7656C76.5689 17.77 76.5731 17.7756 76.5759 17.7819C76.5787 17.7882 76.58 17.7951 76.5797 17.802C76.5799 17.808 76.5789 17.8139 76.5766 17.8194C76.5744 17.8249 76.571 17.8299 76.5667 17.834C76.5564 17.8429 76.5435 17.8483 76.5299 17.8493L76.5813 17.9079H76.5417L76.4944 17.8497H76.4791V17.9079H76.446V17.7524H76.518L76.5175 17.7523ZM76.5072 17.9616C76.5245 17.9618 76.5417 17.9582 76.5577 17.9513C76.573 17.9447 76.587 17.9352 76.5988 17.9234C76.6106 17.9117 76.6201 17.8977 76.6267 17.8823C76.6401 17.8497 76.6401 17.8131 76.6267 17.7805C76.62 17.7652 76.6106 17.7513 76.5988 17.7394C76.587 17.7276 76.573 17.7181 76.5577 17.7115C76.5417 17.705 76.5245 17.7017 76.5072 17.7019C76.4896 17.7017 76.4721 17.705 76.4558 17.7115C76.4401 17.718 76.4258 17.7275 76.4137 17.7394C76.3955 17.7581 76.3832 17.7816 76.3783 17.8072C76.3735 17.8328 76.3762 17.8593 76.3863 17.8833C76.3925 17.8988 76.4019 17.9128 76.4137 17.9245C76.4258 17.9364 76.4401 17.9458 76.4558 17.9523C76.472 17.9593 76.4895 17.9628 76.5072 17.9626M76.5072 17.6644C76.5524 17.6644 76.5958 17.6821 76.628 17.7138C76.6435 17.729 76.6559 17.7471 76.6644 17.7672C76.6732 17.7877 76.6777 17.8098 76.6777 17.8322C76.6777 17.8545 76.6732 17.8767 76.6644 17.8972C76.6557 17.9171 76.6434 17.9352 76.628 17.9506C76.6122 17.9657 76.5939 17.9779 76.5738 17.9866C76.5527 17.9955 76.5301 18.0001 76.5072 17.9999C76.484 18.0001 76.4611 17.9956 76.4397 17.9866C76.4194 17.9781 76.4009 17.9659 76.3851 17.9506C76.3698 17.9347 76.3576 17.916 76.3493 17.8955C76.3405 17.8749 76.3359 17.8528 76.3359 17.8304C76.3359 17.8081 76.3405 17.786 76.3493 17.7654C76.3577 17.7454 76.3701 17.7273 76.3857 17.7121C76.4012 17.6965 76.4198 17.6842 76.4402 17.6761C76.4616 17.6671 76.4845 17.6625 76.5077 17.6627M60.7638 17.0637C60.7638 16.7671 60.9581 16.5234 61.2758 16.5234C61.5793 16.5234 61.7841 16.7566 61.7841 17.0637C61.7841 17.3708 61.5793 17.604 61.2758 17.604C60.9581 17.604 60.7638 17.3603 60.7638 17.0637ZM62.1301 17.0637V16.2196H61.7631V16.4252C61.6467 16.2732 61.4702 16.1779 61.2301 16.1779C60.7571 16.1779 60.386 16.5489 60.386 17.0641C60.386 17.5793 60.7569 17.9503 61.2301 17.9503C61.4701 17.9503 61.6467 17.8549 61.7631 17.703V17.9079H62.1296V17.0637H62.1301ZM74.529 17.0637C74.529 16.7671 74.7233 16.5234 75.041 16.5234C75.3448 16.5234 75.5493 16.7566 75.5493 17.0637C75.5493 17.3708 75.3448 17.604 75.041 17.604C74.7234 17.604 74.529 17.3603 74.529 17.0637ZM75.8956 17.0637V15.542H75.5284V16.4252C75.412 16.2732 75.2354 16.1779 74.9954 16.1779C74.5224 16.1779 74.1512 16.5489 74.1512 17.0641C74.1512 17.5793 74.5222 17.9503 74.9954 17.9503C75.2354 17.9503 75.412 17.8549 75.5284 17.703V17.9079H75.8956V17.0637ZM66.6844 16.506C66.9209 16.506 67.0728 16.6543 67.1115 16.9153H66.236C66.2751 16.6716 66.4231 16.506 66.6845 16.506M66.6918 16.177C66.1973 16.177 65.8513 16.5369 65.8513 17.0632C65.8513 17.5998 66.2112 17.9494 66.7164 17.9494C66.9706 17.9494 67.2034 17.8859 67.4082 17.7129L67.2283 17.4409C67.0869 17.554 66.9067 17.6175 66.7374 17.6175C66.5009 17.6175 66.2856 17.508 66.2327 17.2041H67.4857C67.4893 17.1585 67.493 17.1124 67.493 17.0631C67.4893 16.537 67.164 16.1769 66.6916 16.1769M71.122 17.0631C71.122 16.7664 71.3164 16.5228 71.634 16.5228C71.9375 16.5228 72.1423 16.756 72.1423 17.0631C72.1423 17.3702 71.9375 17.6034 71.634 17.6034C71.3164 17.6034 71.1219 17.3597 71.1219 17.0631M72.4882 17.0631V16.2196H72.1214V16.4252C72.0046 16.2732 71.8285 16.1779 71.5884 16.1779C71.1154 16.1779 70.7443 16.5489 70.7443 17.0641C70.7443 17.5793 71.1152 17.9503 71.5884 17.9503C71.8285 17.9503 72.0046 17.8549 72.1214 17.703V17.9079H72.4883V17.0637L72.4882 17.0631ZM69.0498 17.0631C69.0498 17.575 69.4061 17.9492 69.95 17.9492C70.2042 17.9492 70.3735 17.8927 70.5566 17.748L70.3804 17.4514C70.2426 17.5504 70.098 17.6034 69.9383 17.6034C69.6454 17.5998 69.43 17.388 69.43 17.0631C69.43 16.7382 69.6454 16.5265 69.9383 16.5228C70.0976 16.5228 70.2422 16.5757 70.3804 16.6747L70.5566 16.3781C70.3732 16.2334 70.2039 16.1769 69.95 16.1769C69.4061 16.1769 69.0498 16.551 69.0498 17.0631ZM73.7804 16.1769C73.5687 16.1769 73.4308 16.2759 73.3355 16.4242V16.2196H72.9718V17.907H73.3392V16.9611C73.3392 16.6818 73.4592 16.5267 73.699 16.5267C73.7776 16.5255 73.8556 16.54 73.9285 16.5691L74.0416 16.2233C73.9604 16.1913 73.8545 16.1772 73.7802 16.1772M63.9443 16.3537C63.7677 16.2373 63.5245 16.1772 63.2561 16.1772C62.8286 16.1772 62.5534 16.3821 62.5534 16.7174C62.5534 16.9925 62.7583 17.1623 63.1356 17.2152L63.309 17.2399C63.5102 17.2682 63.6052 17.3211 63.6052 17.4165C63.6052 17.5469 63.4715 17.6214 63.2205 17.6214C62.9664 17.6214 62.7829 17.5401 62.6593 17.4448L62.4868 17.731C62.688 17.8792 62.9422 17.95 63.2175 17.95C63.7048 17.95 63.9872 17.7205 63.9872 17.3992C63.9872 17.1026 63.765 16.9474 63.3977 16.8944L63.2248 16.8694C63.0659 16.8488 62.9386 16.8168 62.9386 16.7037C62.9386 16.5803 63.0586 16.5061 63.2599 16.5061C63.4753 16.5061 63.6838 16.5873 63.786 16.6508L63.9449 16.3541L63.9443 16.3537ZM68.6791 16.1775C68.4674 16.1775 68.3295 16.2765 68.2346 16.4248V16.2196H67.871V17.907H68.2379V16.9611C68.2379 16.6818 68.3579 16.5267 68.5978 16.5267C68.6763 16.5255 68.7543 16.54 68.8273 16.5691L68.9404 16.2233C68.8591 16.1913 68.7532 16.1772 68.6789 16.1772M65.5477 16.2196H64.9477V15.7076H64.5767V16.2196H64.2344V16.5549H64.5767V17.3247C64.5767 17.7163 64.7287 17.9495 65.1628 17.9495C65.322 17.9495 65.5054 17.9001 65.6218 17.819L65.5158 17.5048C65.4063 17.5682 65.2863 17.6002 65.1909 17.6002C65.0075 17.6002 64.9477 17.4871 64.9477 17.3177V16.5553H65.5477V16.2196ZM60.0615 17.9074V16.8484C60.0615 16.4496 59.8073 16.1812 59.3976 16.1776C59.1822 16.174 58.96 16.241 58.8044 16.4778C58.688 16.2907 58.5046 16.1776 58.2468 16.1776C58.0665 16.1776 57.8904 16.2306 57.7525 16.4282V16.2196H57.3853V17.907H57.7554V16.9714C57.7554 16.6784 57.9178 16.5228 58.1687 16.5228C58.4124 16.5228 58.5357 16.6816 58.5357 16.9677V17.9068H58.9066V16.9711C58.9066 16.6782 59.076 16.5226 59.3196 16.5226C59.5701 16.5226 59.6897 16.6814 59.6897 16.9674V17.9066L60.0615 17.9074Z" fill="#231F20"/>
<path d="M76.6879 12.2942V12.0475H76.6237L76.5493 12.2168L76.4754 12.0475H76.4109V12.2942H76.4566V12.1084L76.5261 12.2687H76.5734L76.6429 12.1079V12.2942H76.6881H76.6879ZM76.2802 12.2942V12.0897H76.3625V12.0481H76.1523V12.0897H76.2346V12.2942H76.2798H76.2802Z" fill="#F79410"/>
<path d="M69.3842 13.3526H63.8232V3.35876H69.3843L69.3842 13.3526Z" fill="#FF5F00"/>
<path d="M64.1758 8.35585C64.1758 6.32861 65.125 4.52273 66.6031 3.35894C65.4842 2.47672 64.1004 1.9979 62.6756 2.00001C59.1657 2.00001 56.3206 4.84557 56.3206 8.35585C56.3206 11.8661 59.1657 14.7117 62.6756 14.7117C64.1004 14.7138 65.4843 14.235 66.6032 13.3528C65.1252 12.1892 64.1758 10.3832 64.1758 8.35585Z" fill="#EB001B"/>
<path d="M76.8864 8.35585C76.8864 11.8661 74.0413 14.7117 70.5314 14.7117C69.1064 14.7138 67.7224 14.235 66.6033 13.3528C68.0818 12.189 69.031 10.3832 69.031 8.35585C69.031 6.3285 68.0818 4.52273 66.6033 3.35894C67.7223 2.47674 69.1063 1.99794 70.5313 2.00001C74.0412 2.00001 76.8863 4.84557 76.8863 8.35585" fill="#F79E1B"/>
</g>
<g clip-path="url(#clip2_2986_354104)">
<path d="M83.9038 2.01001H99.8242V10.6365L99.0362 11.8724L99.8242 12.9723V17.99H83.9038V9.8579L84.3963 9.28939L83.9038 8.7456V2.01001Z" fill="#016FD0"/>
<path d="M83.9036 2.01135H99.824V10.6379L99.0359 11.8737L99.824 12.9737V17.9914H83.9036V9.85924L84.3961 9.29073L83.9036 8.74694V2.01135Z" fill="#016FD0"/>
<path d="M86.9943 13.1453V10.6365H89.6408L89.9247 11.008L90.2181 10.6365H99.8242V12.9723C99.8242 12.9723 99.573 13.1428 99.2824 13.1453H93.9633L93.6432 12.7498V13.1453H92.5942V12.4702C92.5942 12.4702 92.4508 12.5645 92.141 12.5645H91.784V13.1453H90.1956L89.9121 12.7658L89.6242 13.1453L86.9943 13.1453ZM83.9038 8.74556L84.5006 7.349H85.5327L85.8714 8.13129V7.349H87.1544L87.356 7.91442L87.5515 7.349H93.3108V7.63325C93.3108 7.63325 93.6135 7.349 94.1111 7.349L95.9798 7.35557L96.3126 8.12761V7.349H97.3863L97.6818 7.79247V7.349H98.7653V9.85786H97.6818L97.3986 9.41293V9.85784H95.8211L95.6625 9.46236H95.2384L95.0824 9.85784H94.0126C93.5844 9.85784 93.3108 9.5794 93.3108 9.5794V9.85784H91.6978L91.3776 9.46238V9.85786H85.3798L85.2213 9.46238H84.7985L84.6412 9.85784H83.9038V8.74556Z" fill="white"/>
<path d="M84.7119 7.65828L83.907 9.53683H84.431L84.5796 9.16065H85.443L85.5907 9.53683H86.1264L85.3222 7.65828H84.7119ZM85.0097 8.09546L85.2729 8.75282H84.7458L85.0097 8.09546ZM86.1818 9.53651V7.65796L86.9265 7.66073L87.3596 8.87191L87.7824 7.65796H88.5212V9.53651H88.0533V8.15231L87.5573 9.53651H87.147L86.6496 8.15231V9.53651H86.1818ZM88.8413 9.53651V7.65796H90.3681V8.07816H89.3141V8.39948H90.3435V8.79498H89.3141V9.12867H90.3681V9.53651H88.8413ZM90.639 7.65828V9.53683H91.1069V8.86944H91.3039L91.8649 9.53683H92.4366L91.821 8.84472C92.0737 8.82332 92.3343 8.60566 92.3343 8.26772C92.3343 7.87242 92.0252 7.65828 91.6802 7.65828H90.639ZM91.1069 8.07848H91.6417C91.77 8.07848 91.8633 8.17921 91.8633 8.27621C91.8633 8.40101 91.7424 8.47396 91.6486 8.47396H91.1069V8.07848ZM93.003 9.53651H92.5253V7.65796H93.003V9.53651ZM94.1358 9.53651H94.0327C93.5338 9.53651 93.2308 9.14194 93.2308 8.60495C93.2308 8.05469 93.5304 7.65796 94.1604 7.65796H94.6776V8.10288H94.1415C93.8857 8.10288 93.7049 8.30324 93.7049 8.60958C93.7049 8.97339 93.9117 9.12619 94.2097 9.12619H94.3328L94.1358 9.53651ZM95.1539 7.65828L94.349 9.53683H94.873L95.0215 9.16065H95.885L96.0327 9.53683H96.5683L95.7642 7.65828H95.1539ZM95.4517 8.09546L95.7149 8.75282H95.1878L95.4517 8.09546ZM96.623 9.53651V7.65796H97.2178L97.9774 8.83823V7.65796H98.4453V9.53651H97.8696L97.0909 8.32534V9.53651H96.623ZM87.3145 12.824V10.9454H88.8413V11.3656H87.7873V11.687H88.8167V12.0824H87.7873V12.4161H88.8413V12.824H87.3145ZM94.7958 12.824V10.9454H96.3225V11.3656H95.2686V11.687H96.293V12.0824H95.2686V12.4161H96.3225V12.824H94.7958ZM88.9006 12.824L89.644 11.8963L88.8829 10.9454H89.4724L89.9256 11.5332L90.3804 10.9454H90.9468L90.1957 11.8847L90.9405 12.824H90.3511L89.911 12.2454L89.4816 12.824H88.9006ZM90.9961 10.9457V12.8243H91.4762V12.2311H91.9688C92.3855 12.2311 92.7014 12.0091 92.7014 11.5776C92.7014 11.2201 92.4536 10.9457 92.0295 10.9457H90.9961ZM91.4762 11.3706H91.9949C92.1296 11.3706 92.2258 11.4534 92.2258 11.5868C92.2258 11.7122 92.13 11.8031 91.9934 11.8031H91.4762V11.3706ZM92.9045 10.9454V12.824H93.3724V12.1566H93.5694L94.1304 12.824H94.7022L94.0866 12.1319C94.3392 12.1105 94.5998 11.8928 94.5998 11.5549C94.5998 11.1596 94.2907 10.9454 93.9457 10.9454H92.9045ZM93.3724 11.3656H93.9072C94.0356 11.3656 94.1289 11.4663 94.1289 11.5634C94.1289 11.6882 94.008 11.7611 93.9142 11.7611H93.3724V11.3656ZM96.5392 12.824V12.4161H97.4756C97.6142 12.4161 97.6742 12.341 97.6742 12.2585C97.6742 12.1796 97.6144 12.0997 97.4756 12.0997H97.0525C96.6847 12.0997 96.4798 11.8748 96.4798 11.5371C96.4798 11.2359 96.6674 10.9454 97.214 10.9454H98.1251L97.9281 11.3681H97.1401C96.9895 11.3681 96.9431 11.4474 96.9431 11.5232C96.9431 11.6011 97.0004 11.687 97.1155 11.687H97.5587C97.9688 11.687 98.1467 11.9204 98.1467 12.2261C98.1467 12.5548 97.9484 12.824 97.5364 12.824H96.5392ZM98.2565 12.824V12.4161H99.1929C99.3314 12.4161 99.3914 12.341 99.3914 12.2585C99.3914 12.1796 99.3316 12.0997 99.1929 12.0997H98.7697C98.4019 12.0997 98.1971 11.8748 98.1971 11.5371C98.1971 11.2359 98.3847 10.9454 98.9312 10.9454H99.8424L99.6454 11.3681H98.8574C98.7067 11.3681 98.6603 11.4474 98.6603 11.5232C98.6603 11.6011 98.7176 11.687 98.8327 11.687H99.276C99.686 11.687 99.8639 11.9204 99.8639 12.2261C99.8639 12.5548 99.6657 12.824 99.2537 12.824H98.2565Z" fill="#016FD0"/>
</g>
<g clip-path="url(#clip3_2986_354104)">
<path d="M109.4 7.6681H110.958C111.813 7.6681 113.197 7.6681 113.197 5.97042C113.197 4.42958 111.956 4.34428 110.941 4.34428H109.4V7.6681ZM105.884 2H111.692C112.672 2 113.951 2 114.994 2.6466C116.037 3.29321 116.78 4.43233 116.78 6.07498C116.78 8.29819 115.363 9.25847 114.873 9.52261C113.893 10.0729 112.372 10.0729 111.689 10.0729L109.414 10.0894V14.6377H105.884V2Z" fill="#0047BA"/>
<path d="M120.739 12.3044C120.998 12.7611 121.493 13.0335 122.016 13.0033C123.452 13.0033 123.73 11.4459 123.73 10.2215C123.73 8.69991 123.361 7.42321 122.052 7.42321C120.599 7.42321 120.318 8.91178 120.318 10.2215C120.318 10.7993 120.371 11.655 120.739 12.3016M122.052 5.54944C124.902 5.54944 127.126 6.98572 127.126 10.0977C127.126 11.3744 126.757 12.6703 125.849 13.5783C125.114 14.2965 124.03 14.8385 122.228 14.8385C120.285 14.8385 119.025 14.3653 118.169 13.5453C117.154 12.5823 116.909 11.2698 116.909 10.2022C116.909 7.50851 118.56 5.54944 122.052 5.54944Z" fill="#0047BA"/>
<path d="M130.933 11.7789C130.922 12.0485 130.969 12.3154 131.074 12.5658C131.244 12.9372 131.632 13.1574 132.037 13.1161C132.791 13.1161 133.036 12.6098 133.036 12.2219C133.036 11.6083 132.529 11.4349 131.792 11.2423L130.006 10.736C129.456 10.5957 127.871 10.1582 127.871 8.35599C127.871 7.55805 128.264 6.81239 128.919 6.36115C129.69 5.81085 130.738 5.60999 132.034 5.60999C133.924 5.60999 135.9 6.11626 136.04 8.56785H132.926C132.945 8.27619 132.904 7.98453 132.804 7.71213C132.664 7.43698 132.419 7.23888 131.894 7.23888C131.368 7.23888 130.914 7.46725 130.914 8.0093C130.914 8.55134 131.28 8.70818 131.806 8.83475L134.15 9.48135C134.975 9.70973 136.214 10.1802 136.214 11.8972C136.214 14.8716 132.766 14.8715 131.996 14.8715C130.21 14.8715 127.64 14.5964 127.676 11.7761H130.933V11.7789Z" fill="#0047BA"/>
<path d="M143.442 5.87691V7.97631H141.326V11.0195C141.343 12.1036 141.343 12.5933 142.603 12.5933C142.878 12.5988 143.156 12.5796 143.428 12.5411V14.6074C142.724 14.723 142.008 14.7753 141.293 14.7643C138.668 14.7643 138.145 13.8893 138.145 12.1916V7.98456H136.494V5.87691H138.214V4.50116L141.381 3.24097V5.87691H143.442Z" fill="#0047BA"/>
<path d="M150.092 9.12085C150.059 8.61458 149.952 7.28285 148.518 7.28285C147.085 7.28285 146.964 8.69987 146.928 9.12085H150.092ZM146.892 10.9066C146.892 11.3798 146.892 13.0417 148.571 13.0417C149.446 13.0417 149.988 12.5878 150.076 11.7651H153.138C152.893 13.9663 150.83 14.8275 148.554 14.8275C145.492 14.8275 143.849 13.2866 143.849 10.3838C143.849 7.48096 145.285 5.53564 148.527 5.53564C150.976 5.53564 152.104 6.53444 152.709 7.77537C153.094 8.52653 153.199 9.36849 153.199 10.9066H146.892Z" fill="#0047BA"/>
<path d="M158.492 13.7572C159.213 13.7875 159.901 13.4683 160.347 12.9015C160.977 12.0458 161.065 10.7856 161.065 10.15C161.065 8.57612 160.592 6.93072 158.652 6.93072C156.027 6.93072 156.027 9.71249 156.027 10.5077C156.027 11.5753 156.184 13.7627 158.504 13.7627M154.448 7.28291C154.448 6.8977 154.429 6.68859 154.396 5.84663H156.046L156.082 7.29942C156.908 5.92367 158.358 5.7063 159.073 5.7063C160.963 5.7063 162.766 7.00226 162.766 10.2573C162.766 13.5123 160.873 14.9569 158.773 14.9569C157.496 14.9569 156.553 14.4066 156.079 13.6444V18H154.448V7.28291Z" fill="#0047BA"/>
<path d="M168.591 10.3095C167.925 10.3095 165.424 10.3095 165.424 12.0953C165.424 12.6456 165.773 13.6168 167.242 13.6168C167.991 13.6554 168.703 13.2949 169.113 12.6703C169.482 12.076 169.499 11.5862 169.534 10.3618C169.221 10.3233 168.907 10.3068 168.591 10.3095ZM169.727 14.6294C169.617 14.1974 169.567 13.7517 169.581 13.3059C169.08 14.335 168.01 14.9623 166.868 14.899C164.857 14.899 163.773 13.7627 163.773 12.3099C163.767 11.234 164.359 10.2408 165.311 9.73723C166.257 9.21169 167.655 9.15941 168.354 9.15941C168.775 9.15941 169.036 9.17592 169.545 9.21169C169.545 8.1276 169.545 7.65434 169.229 7.26913C168.896 6.83164 168.181 6.69131 167.707 6.69131C166.056 6.69131 165.957 7.82768 165.941 8.17987H164.29C164.312 7.57729 164.527 6.99948 164.904 6.52897C165.569 5.79432 166.81 5.58521 167.738 5.58521C169.014 5.58521 170.379 5.98692 170.852 6.88116C171.072 7.29664 171.174 7.76165 171.15 8.2294L171.081 12.4282C171.086 13.1628 171.133 13.8975 171.221 14.6294H169.727Z" fill="#0047BA"/>
<path d="M177.098 14.6844L175.838 17.956H174.143L175.472 14.5964L171.815 5.84937H173.67L176.416 12.7777L179.214 5.84937H181L177.098 14.6844Z" fill="#0047BA"/>
</g>
<defs>
<clipPath id="clip0_2986_354104">
<rect width="49.5428" height="16" fill="white" transform="translate(0.343262 2)"/>
</clipPath>
<clipPath id="clip1_2986_354104">
<rect width="21.9977" height="16" fill="white" transform="translate(55.886 2)"/>
</clipPath>
<clipPath id="clip2_2986_354104">
<rect width="16" height="16" fill="white" transform="translate(83.8838 2)"/>
</clipPath>
<clipPath id="clip3_2986_354104">
<rect width="75.1161" height="16" fill="white" transform="translate(105.884 2)"/>
</clipPath>
</defs>
</svg>
