<svg width="16" height="16" viewBox="0 0 16 16" fill="none" xmlns="http://www.w3.org/2000/svg">
<path d="M8.00124 11.6348H3.67989V12.9985C3.67989 14.6587 1.27826 14.6784 1.27826 12.9985V11.6348H0V7.36422C0 6.21796 0.922003 5.61221 1.44268 5.54611L2.7569 2.1894C3.00433 1.55021 3.54042 1.00389 4.55076 1.00389C11.1889 0.99506 4.83242 1.00405 11.4478 1.00389C12.4582 1.00389 12.9943 1.55021 13.2417 2.1894L14.5561 5.54607C15.0768 5.61217 15.9998 6.21792 15.9998 7.36418V11.6348H14.7215V12.9985C14.7215 14.6784 12.3199 14.6586 12.3199 12.9985V11.6348H7.99852L8.00124 11.6348Z" fill="#333333"/>
<path d="M7.99835 5.46693H2.80316L3.7928 2.86975C3.91651 2.49861 4.10216 2.23056 4.53517 2.22656H11.4632C11.8962 2.23056 12.0818 2.49861 12.2055 2.86975L13.1951 5.46693H7.99826H7.99835Z" fill="white"/>
<path d="M2.51706 9.0237C1.90443 9.0237 1.40771 8.51684 1.40771 7.89171C1.40771 7.26658 1.90443 6.75977 2.51706 6.75977C3.1297 6.75977 3.62637 7.26658 3.62637 7.89171C3.62637 8.51684 3.1297 9.0237 2.51706 9.0237Z" fill="white"/>
<path d="M13.4818 9.0237C14.0944 9.0237 14.5911 8.51684 14.5911 7.89171C14.5911 7.26658 14.0944 6.75977 13.4818 6.75977C12.8692 6.75977 12.3724 7.26658 12.3724 7.89171C12.3724 8.51684 12.8692 9.0237 13.4818 9.0237Z" fill="white"/>
</svg>
