<svg width="20" height="20" viewBox="0 0 20 20" fill="none" xmlns="http://www.w3.org/2000/svg">
<g clip-path="url(#clip0_1887_42514)">
<path d="M3.55833 10.9143C3.72357 12.1743 4.22869 13.3656 5.01953 14.3604C5.81036 15.3551 6.85706 16.1159 8.04739 16.561C9.23771 17.0061 10.5268 17.1188 11.7763 16.887C13.0258 16.6552 14.1886 16.0876 15.1401 15.2452C16.0915 14.4027 16.7957 13.3172 17.1771 12.1049C17.5585 10.8927 17.6027 9.59945 17.3049 8.36399C17.0072 7.12853 16.3788 5.99742 15.4871 5.09197C14.5954 4.18651 13.474 3.54087 12.2432 3.22429C8.8314 2.34749 5.29969 4.10547 3.99586 7.37817" stroke="black" stroke-width="1.5" stroke-linecap="round" stroke-linejoin="round"/>
<path d="M3.49973 3.00293V7.3782H7.875" stroke="black" stroke-width="1.5" stroke-linecap="round" stroke-linejoin="round"/>
</g>
<defs>
<clipPath id="clip0_1887_42514">
<rect width="20" height="20" fill="white"/>
</clipPath>
</defs>
</svg>
