<svg width="60" height="60" viewBox="0 0 60 60" fill="none" xmlns="http://www.w3.org/2000/svg">
<path fill-rule="evenodd" clip-rule="evenodd" d="M30.125 8.75024C22.5355 8.75024 17 14.2858 17 21.8752C17 25.9525 18.7614 29.5677 21.4887 31.9677L21.5218 31.9975C23.4582 33.7849 24.7775 36.2838 25.2215 38.7994L25.3231 39.3752H28.1255V24.7503H21.8755V21.0003H30.0005C31.036 21.0003 31.8755 21.8398 31.8755 22.8753V39.3752H34.8471L35.0455 38.7004C35.5107 36.071 36.8376 33.7427 38.7282 31.9975L38.7305 31.9954C41.5051 29.4427 43.25 25.9294 43.25 21.8752C43.25 14.4005 37.7042 8.75024 30.125 8.75024ZM13.25 21.8752C13.25 12.2147 20.4645 5.00024 30.125 5.00024C39.7958 5.00024 47 12.35 47 21.8752C47 27.0703 44.7455 31.5564 41.271 34.7537C39.94 35.9826 39.0282 37.611 38.7245 39.4335C38.7121 39.508 38.6951 39.5818 38.6738 39.6543L38.0488 41.7793C37.8141 42.5773 37.0818 43.1252 36.25 43.1252H23.75C22.8402 43.1252 22.0616 42.4721 21.9035 41.5761L21.5285 39.4511C21.2236 37.7233 20.2989 35.9788 18.9931 34.7668C15.4809 31.6668 13.25 27.0391 13.25 21.8752ZM38.7505 46.3754H21.8755V50.1254H38.7505V46.3754ZM36.2505 56.2502V52.5002H23.7505V56.2502H36.2505Z" fill="#1D1D1B"/>
<path d="M21.4887 31.9677L21.9908 31.4105L21.9841 31.4046L21.4887 31.9677ZM21.5218 31.9975L22.0305 31.4463L22.0239 31.4404L21.5218 31.9975ZM25.2215 38.7994L25.9601 38.6691V38.6691L25.2215 38.7994ZM25.3231 39.3752L24.5845 39.5056C24.6477 39.864 24.9592 40.1252 25.3231 40.1252V39.3752ZM28.1255 39.3752V40.1252C28.5397 40.1252 28.8755 39.7895 28.8755 39.3752H28.1255ZM28.1255 24.7503H28.8755C28.8755 24.3361 28.5397 24.0003 28.1255 24.0003V24.7503ZM21.8755 24.7503H21.1255C21.1255 25.1645 21.4613 25.5003 21.8755 25.5003V24.7503ZM21.8755 21.0003V20.2503C21.4613 20.2503 21.1255 20.5861 21.1255 21.0003H21.8755ZM31.8755 39.3752H31.1255C31.1255 39.7895 31.4613 40.1252 31.8755 40.1252V39.3752ZM34.8471 39.3752V40.1252C35.1798 40.1252 35.4727 39.9061 35.5666 39.5869L34.8471 39.3752ZM35.0455 38.7004L35.7651 38.912C35.7729 38.8854 35.7792 38.8583 35.7841 38.831L35.0455 38.7004ZM38.7282 31.9975L38.2196 31.4463L38.2195 31.4464L38.7282 31.9975ZM38.7305 31.9954L38.2227 31.4434L38.2219 31.4441L38.7305 31.9954ZM41.271 34.7537L40.7632 34.2018L40.7623 34.2026L41.271 34.7537ZM38.7245 39.4335L39.4643 39.5568L39.4643 39.5568L38.7245 39.4335ZM38.6738 39.6543L39.3933 39.8659L39.3933 39.8659L38.6738 39.6543ZM38.0488 41.7793L38.7683 41.9909L38.7683 41.9909L38.0488 41.7793ZM21.9035 41.5761L22.6421 41.4458L22.6421 41.4458L21.9035 41.5761ZM21.5285 39.4511L22.2671 39.3207L21.5285 39.4511ZM18.9931 34.7668L19.5034 34.2171C19.4988 34.2129 19.4941 34.2087 19.4894 34.2045L18.9931 34.7668ZM21.8755 46.3754V45.6254C21.4613 45.6254 21.1255 45.9612 21.1255 46.3754H21.8755ZM38.7505 46.3754H39.5005C39.5005 45.9612 39.1647 45.6254 38.7505 45.6254V46.3754ZM21.8755 50.1254H21.1255C21.1255 50.5396 21.4613 50.8754 21.8755 50.8754V50.1254ZM38.7505 50.1254V50.8754C39.1647 50.8754 39.5005 50.5396 39.5005 50.1254H38.7505ZM36.2505 52.5002H37.0005C37.0005 52.086 36.6647 51.7502 36.2505 51.7502V52.5002ZM36.2505 56.2502V57.0002C36.6647 57.0002 37.0005 56.6645 37.0005 56.2502H36.2505ZM23.7505 52.5002V51.7502C23.3363 51.7502 23.0005 52.086 23.0005 52.5002H23.7505ZM23.7505 56.2502H23.0005C23.0005 56.6645 23.3363 57.0002 23.7505 57.0002V56.2502ZM17.75 21.8752C17.75 14.7 22.9497 9.50024 30.125 9.50024V8.00024C22.1213 8.00024 16.25 13.8716 16.25 21.8752H17.75ZM21.9841 31.4046C19.416 29.1447 17.75 25.7334 17.75 21.8752H16.25C16.25 26.1716 18.1068 29.9907 20.9932 32.5307L21.9841 31.4046ZM22.0239 31.4404L21.9908 31.4106L20.9865 32.5248L21.0196 32.5546L22.0239 31.4404ZM25.9601 38.6691C25.4886 35.9972 24.0914 33.3488 22.0305 31.4464L21.0131 32.5486C22.8249 34.221 24.0665 36.5703 24.4829 38.9297L25.9601 38.6691ZM26.0617 39.2449L25.9601 38.6691L24.4829 38.9297L24.5845 39.5056L26.0617 39.2449ZM28.1255 38.6252H25.3231V40.1252H28.1255V38.6252ZM28.8755 39.3752V24.7503H27.3755V39.3752H28.8755ZM28.1255 24.0003H21.8755V25.5003H28.1255V24.0003ZM22.6255 24.7503V21.0003H21.1255V24.7503H22.6255ZM21.8755 21.7503H30.0005V20.2503H21.8755V21.7503ZM30.0005 21.7503C30.6218 21.7503 31.1255 22.254 31.1255 22.8753H32.6255C32.6255 21.4256 31.4502 20.2503 30.0005 20.2503V21.7503ZM31.1255 22.8753V39.3752H32.6255V22.8753H31.1255ZM34.8471 38.6252H31.8755V40.1252H34.8471V38.6252ZM34.326 38.4887L34.1275 39.1636L35.5666 39.5869L35.7651 38.912L34.326 38.4887ZM38.2195 31.4464C36.2132 33.2984 34.8019 35.7724 34.307 38.5697L35.7841 38.831C36.2196 36.3695 37.4619 34.187 39.2369 32.5486L38.2195 31.4464ZM38.2219 31.4441L38.2196 31.4463L39.2368 32.5487L39.2391 32.5466L38.2219 31.4441ZM42.5 21.8752C42.5 25.7013 40.8571 29.0198 38.2227 31.4434L39.2383 32.5473C42.1532 29.8656 44 26.1576 44 21.8752H42.5ZM30.125 9.50024C37.286 9.50024 42.5 14.8107 42.5 21.8752H44C44 13.9902 38.1223 8.00024 30.125 8.00024V9.50024ZM30.125 4.25024C20.0503 4.25024 12.5 11.8005 12.5 21.8752H14C14 12.6289 20.8787 5.75024 30.125 5.75024V4.25024ZM47.75 21.8752C47.75 11.9401 40.2143 4.25024 30.125 4.25024V5.75024C39.3774 5.75024 46.25 12.76 46.25 21.8752H47.75ZM41.7789 35.3056C45.3934 31.9795 47.75 27.2987 47.75 21.8752H46.25C46.25 26.8419 44.0977 31.1334 40.7632 34.2018L41.7789 35.3056ZM39.4643 39.5568C39.7396 37.905 40.5662 36.4252 41.7798 35.3047L40.7623 34.2026C39.3138 35.54 38.3169 37.3169 37.9847 39.3102L39.4643 39.5568ZM39.3933 39.8659C39.4232 39.7644 39.4469 39.6612 39.4643 39.5568L37.9847 39.3102C37.9772 39.3549 37.9671 39.3992 37.9543 39.4427L39.3933 39.8659ZM38.7683 41.9909L39.3933 39.8659L37.9543 39.4427L37.3293 41.5677L38.7683 41.9909ZM36.25 43.8752C37.4145 43.8752 38.4398 43.1081 38.7683 41.9909L37.3293 41.5677C37.1885 42.0465 36.7491 42.3752 36.25 42.3752V43.8752ZM23.75 43.8752H36.25V42.3752H23.75V43.8752ZM21.1649 41.7064C21.3863 42.9608 22.4762 43.8752 23.75 43.8752V42.3752C23.2041 42.3752 22.737 41.9833 22.6421 41.4458L21.1649 41.7064ZM20.7899 39.5814L21.1649 41.7064L22.6421 41.4458L22.2671 39.3207L20.7899 39.5814ZM18.4829 35.3165C19.6651 36.4139 20.5125 38.0094 20.7899 39.5814L22.2671 39.3207C21.9347 37.4371 20.9326 35.5438 19.5034 34.2171L18.4829 35.3165ZM12.5 21.8752C12.5 27.2578 14.826 32.0892 18.4968 35.3291L19.4894 34.2045C16.1357 31.2445 14 26.8203 14 21.8752H12.5ZM21.8755 47.1254H38.7505V45.6254H21.8755V47.1254ZM22.6255 50.1254V46.3754H21.1255V50.1254H22.6255ZM38.7505 49.3754H21.8755V50.8754H38.7505V49.3754ZM38.0005 46.3754V50.1254H39.5005V46.3754H38.0005ZM35.5005 52.5002V56.2502H37.0005V52.5002H35.5005ZM23.7505 53.2502H36.2505V51.7502H23.7505V53.2502ZM24.5005 56.2502V52.5002H23.0005V56.2502H24.5005ZM36.2505 55.5002H23.7505V57.0002H36.2505V55.5002Z" fill="white"/>
</svg>
