<svg width="80" height="80" viewBox="0 0 80 80" fill="none" xmlns="http://www.w3.org/2000/svg">
<path d="M39.9979 36.5661C46.8831 36.5661 52.4646 30.9846 52.4646 24.0995C52.4646 17.2143 46.8831 11.6328 39.9979 11.6328C33.1128 11.6328 27.5312 17.2143 27.5312 24.0995C27.5312 30.9846 33.1128 36.5661 39.9979 36.5661Z" stroke="#1D1D1B" stroke-width="2"/>
<path d="M40 40.2148C54.702 40.2148 66.8103 51.1348 69.4606 65.5956C70.0579 68.855 67.3137 71.5648 64 71.5648H16C12.6863 71.5648 9.94206 68.855 10.5394 65.5956C13.1897 51.1348 25.2979 40.2148 40 40.2148Z" stroke="#1D1D1B" stroke-width="2" stroke-miterlimit="10" stroke-linecap="square"/>
<path d="M35 23C36.5 23 38 23 38 25C38.0792 25.3085 38 26.6416 38 27C37.8333 28.6667 38.5 32 42.5 32" stroke="#1D1D1B" stroke-width="2" stroke-linecap="round"/>
<path d="M51.5 20H21" stroke="#1D1D1B" stroke-width="2" stroke-linecap="round"/>
<path d="M40 49L40 72" stroke="#1D1D1B" stroke-width="2"/>
<path d="M47 42C47 45.866 43.866 49 40 49C36.134 49 33 45.866 33 42" stroke="#1D1D1B" stroke-width="2" stroke-linecap="round"/>
<path d="M28 19C28 14.5817 31.5817 11 36 11H44C48.4183 11 52 14.5817 52 19V20H28V19Z" fill="white" stroke="#1D1D1B" stroke-width="2"/>
<path d="M37 12V16" stroke="#1D1D1B" stroke-width="2" stroke-linecap="round"/>
<path d="M43 12V16" stroke="#1D1D1B" stroke-width="2" stroke-linecap="round"/>
<path d="M46 56C46 54.8954 46.8954 54 48 54H56C57.1046 54 58 54.8954 58 56V60C58 63.3137 55.3137 66 52 66V66C48.6863 66 46 63.3137 46 60V56Z" stroke="#1D1D1B" stroke-width="2"/>
</svg>
