<svg width="60" height="60" viewBox="0 0 60 60" fill="none" xmlns="http://www.w3.org/2000/svg">
<path fill-rule="evenodd" clip-rule="evenodd" d="M4 29.9999C4 44.3592 15.6407 56.0001 30.0001 56.0001C44.3594 56.0001 56.0001 44.3592 56.0001 29.9999C56.0001 15.6404 44.3595 4 30.0001 4C15.6407 4 4 15.6404 4 29.9999ZM2 29.9999C2 45.4637 14.5361 58.0001 30.0001 58.0001C45.464 58.0001 58.0001 45.4637 58.0001 29.9999C58.0001 14.5358 45.464 2 30.0001 2C14.5361 2 2 14.5358 2 29.9999ZM29.9942 42.1384C28.9665 42.1384 28.1335 41.3005 28.1335 40.2671C28.1335 39.2336 28.9665 38.3957 29.9942 38.3957C31.0217 38.3957 31.8547 39.2336 31.8547 40.2671C31.8547 41.3005 31.0217 42.1384 29.9942 42.1384ZM29.9942 35.9336C28.9665 35.9336 28.1335 35.2589 28.1335 34.4275V19.3675C28.1335 18.5359 28.9665 17.8616 29.9942 17.8616C31.0217 17.8616 31.8547 18.5359 31.8547 19.3675V34.4275C31.8547 35.2589 31.0217 35.9336 29.9942 35.9336Z" fill="#EA1917"/>
</svg>
