<svg width="32" height="32" viewBox="0 0 32 32" fill="none" xmlns="http://www.w3.org/2000/svg">
<path fill-rule="evenodd" clip-rule="evenodd" d="M15.6361 22.3491C15.2219 22.3491 14.8861 22.0133 14.8861 21.5991L14.8861 5.55115L8.23875 12.1358C7.94447 12.4273 7.46961 12.4251 7.1781 12.1308C6.8866 11.8365 6.88885 11.3617 7.18312 11.0702L15.1089 3.21912C15.4012 2.92956 15.8722 2.92956 16.1645 3.21912L24.0902 11.0702C24.3845 11.3617 24.3867 11.8365 24.0952 12.1308C23.8037 12.4251 23.3289 12.4273 23.0346 12.1358L16.3861 5.54997L16.3861 21.5991C16.3861 22.0133 16.0503 22.3491 15.6361 22.3491ZM3.75 27.4991C3.33579 27.4991 3 27.8349 3 28.2491C3 28.6633 3.33579 28.9991 3.75 28.9991H28.2477C28.6619 28.9991 28.9977 28.6633 28.9977 28.2491C28.9977 27.8349 28.6619 27.4991 28.2477 27.4991H3.75Z" fill="black"/>
</svg>
