<svg width="60" height="60" viewBox="0 0 60 60" fill="none" xmlns="http://www.w3.org/2000/svg">
<circle cx="30" cy="30" r="27.5" fill="black" fill-opacity="0.7"/>
<path fill-rule="evenodd" clip-rule="evenodd" d="M55.5 30C55.5 44.0833 44.0833 55.5 30 55.5C15.9167 55.5 4.5 44.0833 4.5 30C4.5 15.9167 15.9167 4.5 30 4.5C44.0833 4.5 55.5 15.9167 55.5 30ZM57.5 30C57.5 45.1878 45.1878 57.5 30 57.5C14.8122 57.5 2.5 45.1878 2.5 30C2.5 14.8122 14.8122 2.5 30 2.5C45.1878 2.5 57.5 14.8122 57.5 30ZM23.1201 22.1875H26.8701V37.8125H23.1201V22.1875ZM33 22.1875H36.75V37.8125H33V22.1875Z" fill="white"/>
</svg>
