<svg width="76" height="76" viewBox="0 0 76 76" fill="none" xmlns="http://www.w3.org/2000/svg">
<circle cx="38" cy="38" r="32" fill="#FFCD29"/>
<path d="M37.9969 55.8465C47.8029 55.8465 55.8919 49.6262 57.0537 41.5944C57.2118 40.5012 56.3014 39.6003 55.1969 39.6003H20.7969C19.6923 39.6003 18.7819 40.5012 18.9401 41.5944C20.1018 49.6262 28.1909 55.8465 37.9969 55.8465Z" fill="url(#paint0_linear_8186_243080)"/>
<path d="M30.3984 30.8003C30.0651 28.8803 28.3984 27.6003 26.3984 27.6003C24.3984 27.6003 22.7318 28.8803 22.3984 30.8003" stroke="#333333" stroke-width="2.4" stroke-linecap="round"/>
<path d="M53.5938 30.8003C53.2604 28.8803 51.5938 27.6003 49.5938 27.6003C47.5938 27.6003 45.9271 28.8803 45.5938 30.8003" stroke="#333333" stroke-width="2.4" stroke-linecap="round"/>
<defs>
<linearGradient id="paint0_linear_8186_243080" x1="37.9969" y1="39.6003" x2="37.9969" y2="55.8465" gradientUnits="userSpaceOnUse">
<stop stop-color="#F85165"/>
<stop offset="1" stop-color="#EF3254"/>
</linearGradient>
</defs>
</svg>
