<svg width="62" height="52" viewBox="0 0 62 52" fill="none" xmlns="http://www.w3.org/2000/svg">
<path fill-rule="evenodd" clip-rule="evenodd" d="M31 0.285156C31.8476 0.285156 32.6762 0.536522 33.381 1.00744C34.0858 1.47836 34.6351 2.14766 34.9595 2.93077C35.2838 3.71388 35.3687 4.5756 35.2034 5.40694C35.038 6.23829 34.6298 7.00196 34.0305 7.60133C33.4311 8.2007 32.6674 8.60889 31.8361 8.77425C31.0047 8.93962 30.143 8.8547 29.3599 8.53033C28.5768 8.20595 27.9075 7.65668 27.4366 6.95189C26.9657 6.24711 26.7143 5.4185 26.7143 4.57087C26.7143 3.43423 27.1658 2.34414 27.9695 1.54041C28.7733 0.736682 29.8634 0.285156 31 0.285156ZM31 2.42801C31.4238 2.42801 31.8381 2.55366 32.1905 2.78912C32.5429 3.02458 32.8176 3.35926 32.9798 3.75082C33.1419 4.14237 33.1843 4.57327 33.1017 4.98894C33.019 5.40461 32.8149 5.78638 32.5152 6.08607C32.2155 6.38575 31.8337 6.58985 31.4181 6.67253C31.0024 6.75521 30.5715 6.71282 30.1799 6.55063C29.7884 6.38844 29.4537 6.11377 29.2183 5.76138C28.9828 5.40899 28.8571 4.99469 28.8571 4.57087C28.8571 4.00255 29.0829 3.45754 29.4848 3.05567C29.8867 2.65381 30.4317 2.42801 31 2.42801ZM58.8571 37.7852H56.7143V33.4994C56.7143 43.693 47.5396 51.7137 37.4286 51.7137H24.5714C14.4229 51.7137 5.28571 43.6341 5.28571 33.4994V29.2137C5.28571 19.0352 14.4229 10.9994 24.5714 10.9994H29.9286V8.85658H32.0714V10.9994H37.4286C47.6318 10.9994 56.7143 19.1477 56.7143 29.2137V24.928H58.8571C59.4083 24.9789 59.9242 25.2211 60.3156 25.6124C60.7069 26.0038 60.9491 26.5197 61 27.0709V35.6423C60.9493 36.1935 60.7072 36.7096 60.3158 37.101C59.9244 37.4924 59.4083 37.7344 58.8571 37.7852ZM54.5714 29.2137C54.5714 20.1066 46.5004 13.1423 37.4286 13.1423H24.5714C15.4996 13.1423 7.42857 20.1066 7.42857 29.2137V33.4994C7.42857 42.5637 15.4579 49.5709 24.5714 49.5709H37.4286C46.5829 49.5709 54.5714 42.5637 54.5714 33.4994V29.2137ZM58.8571 28.1423C58.8316 27.8668 58.7105 27.6089 58.5148 27.4132C58.3191 27.2175 58.0612 27.0964 57.7857 27.0709H56.7143V35.6423H57.7857C58.0613 35.6169 58.3194 35.4959 58.5151 35.3002C58.7108 35.1045 58.8318 34.8465 58.8571 34.5709V28.1423ZM42.7857 34.5709C38.8911 33.9067 34.9505 33.5485 31 33.4994C27.0497 33.5517 23.1093 33.9099 19.2143 34.5709C17.2252 34.5709 15.3175 33.7807 13.911 32.3742C12.5044 30.9677 11.7143 29.06 11.7143 27.0709C11.7143 25.0817 12.5044 23.1741 13.911 21.7675C15.3175 20.361 17.2252 19.5709 19.2143 19.5709C23.1093 18.9099 27.0497 18.5517 31 18.4994C34.9505 18.5485 38.8911 18.9067 42.7857 19.5709C44.7748 19.5709 46.6825 20.361 48.089 21.7675C49.4956 23.1741 50.2857 25.0817 50.2857 27.0709C50.2857 29.06 49.4956 30.9677 48.089 32.3742C46.6825 33.7807 44.7748 34.5709 42.7857 34.5709ZM42.7857 21.7137C38.8911 21.0496 34.9505 20.6913 31 20.6423C27.0497 20.6946 23.1093 21.0528 19.2143 21.7137C17.7935 21.7137 16.4309 22.2781 15.4262 23.2828C14.4216 24.2875 13.8571 25.6501 13.8571 27.0709C13.8571 28.4917 14.4216 29.8543 15.4262 30.8589C16.4309 31.8636 17.7935 32.428 19.2143 32.428C23.1093 31.7671 27.0497 31.4089 31 31.3566C34.9505 31.4056 38.8911 31.7638 42.7857 32.428C44.2065 32.428 45.5691 31.8636 46.5738 30.8589C47.5784 29.8543 48.1429 28.4917 48.1429 27.0709C48.1429 25.6501 47.5784 24.2875 46.5738 23.2828C45.5691 22.2781 44.2065 21.7137 42.7857 21.7137ZM39.5714 29.2137C39.0201 29.1632 38.504 28.9212 38.1125 28.5298C37.7211 28.1383 37.4791 27.6221 37.4286 27.0709V25.9994C37.4286 25.4311 37.6544 24.8861 38.0562 24.4842C38.4581 24.0824 39.0031 23.8566 39.5714 23.8566C40.1397 23.8566 40.6848 24.0824 41.0866 24.4842C41.4885 24.8861 41.7143 25.4311 41.7143 25.9994V27.0709C41.6636 27.6221 41.4215 28.1382 41.0301 28.5296C40.6387 28.921 40.1226 29.163 39.5714 29.2137ZM22.4286 29.2137C21.8773 29.1632 21.3611 28.9212 20.9697 28.5298C20.5782 28.1383 20.3362 27.6221 20.2857 27.0709V25.9994C20.2857 25.4311 20.5115 24.8861 20.9134 24.4842C21.3152 24.0824 21.8603 23.8566 22.4286 23.8566C22.9969 23.8566 23.5419 24.0824 23.9438 24.4842C24.3456 24.8861 24.5714 25.4311 24.5714 25.9994V27.0709C24.5207 27.6221 24.2787 28.1382 23.8873 28.5296C23.4959 28.921 22.9798 29.163 22.4286 29.2137ZM23.5 37.7852C23.7755 37.8107 24.0334 37.9318 24.2291 38.1275C24.4247 38.3232 24.5459 38.5811 24.5714 38.8566C24.5714 38.8759 24.7739 39.2412 24.5714 38.8566C26.426 40.2475 28.6817 40.9994 31 40.9994C33.3183 40.9994 35.574 40.2475 37.4286 38.8566C37.4286 38.8384 37.4286 38.8748 37.4286 38.8566C37.4541 38.5811 37.5752 38.3232 37.7709 38.1275C37.9666 37.9318 38.2245 37.8107 38.5 37.7852C38.7842 37.7852 39.0567 37.898 39.2576 38.099C39.4585 38.2999 39.5714 38.5724 39.5714 38.8566C39.5714 39.1407 39.4585 39.4132 39.2576 39.6142C39.0567 39.8151 38.7842 39.928 38.5 39.928C37.5326 40.9437 36.3691 41.7523 35.0798 42.3048C33.7906 42.8573 32.4026 43.1422 31 43.1422C29.5974 43.1422 28.2094 42.8573 26.9201 42.3048C25.6309 41.7523 24.4674 40.9437 23.5 39.928C23.2158 39.928 22.9433 39.8151 22.7424 39.6142C22.5415 39.4132 22.4286 39.1407 22.4286 38.8566C22.4286 38.5724 22.5415 38.2999 22.7424 38.099C22.9433 37.898 23.2158 37.7852 23.5 37.7852ZM5.28571 27.0709H4.21429C3.93868 27.0962 3.68064 27.2172 3.48494 27.4129C3.28923 27.6087 3.16822 27.8667 3.14286 28.1423V34.5709C3.167 34.8469 3.28762 35.1056 3.48356 35.3016C3.67951 35.4975 3.93823 35.6182 4.21429 35.6423H5.28571L6.35714 37.7852H3.14286C2.61148 37.7819 2.0998 37.5837 1.70483 37.2282C1.30985 36.8728 1.05903 36.3847 1 35.8566V27.0709C1.05072 26.5197 1.29275 26.0036 1.68416 25.6122C2.07557 25.2208 2.59165 24.9787 3.14286 24.928H6.35714" fill="#1D1D1B"/>
<path d="M5.28571 27.0709H4.21429C3.93868 27.0962 3.68064 27.2172 3.48494 27.4129C3.28923 27.6086 3.16822 27.8667 3.14286 28.1423V34.5709C3.167 34.8469 3.28762 35.1056 3.48356 35.3016C3.67951 35.4975 3.93823 35.6182 4.21429 35.6423H5.28571L6.35714 37.7852H3.14286C2.61148 37.7819 2.0998 37.5837 1.70483 37.2282C1.30985 36.8728 1.05903 36.3847 1 35.8566V27.0709C1.05072 26.5197 1.29275 26.0036 1.68416 25.6122C2.07557 25.2208 2.59165 24.9787 3.14286 24.928H6.35714M31 0.285156C31.8476 0.285156 32.6762 0.536522 33.381 1.00744C34.0858 1.47836 34.6351 2.14766 34.9595 2.93077C35.2838 3.71388 35.3687 4.5756 35.2034 5.40694C35.038 6.23829 34.6298 7.00196 34.0305 7.60133C33.4311 8.2007 32.6674 8.60889 31.8361 8.77425C31.0047 8.93962 30.143 8.8547 29.3599 8.53033C28.5768 8.20595 27.9075 7.65668 27.4366 6.95189C26.9657 6.24711 26.7143 5.4185 26.7143 4.57087C26.7143 3.43423 27.1658 2.34414 27.9695 1.54041C28.7733 0.736682 29.8634 0.285156 31 0.285156ZM31 2.42801C31.4238 2.42801 31.8381 2.55366 32.1905 2.78912C32.5429 3.02458 32.8176 3.35926 32.9798 3.75082C33.1419 4.14238 33.1843 4.57327 33.1017 4.98894C33.019 5.40461 32.8149 5.78638 32.5152 6.08607C32.2155 6.38575 31.8337 6.58985 31.4181 6.67253C31.0024 6.75521 30.5715 6.71282 30.1799 6.55063C29.7884 6.38844 29.4537 6.11377 29.2183 5.76138C28.9828 5.40899 28.8571 4.99469 28.8571 4.57087C28.8571 4.00255 29.0829 3.45754 29.4848 3.05567C29.8867 2.65381 30.4317 2.42801 31 2.42801ZM58.8571 37.7852H56.7143V33.4994C56.7143 43.693 47.5396 51.7137 37.4286 51.7137H24.5714C14.4229 51.7137 5.28571 43.6341 5.28571 33.4994V29.2137C5.28571 19.0352 14.4229 10.9994 24.5714 10.9994H29.9286V8.85658H32.0714V10.9994H37.4286C47.6318 10.9994 56.7143 19.1477 56.7143 29.2137V24.928H58.8571C59.4083 24.9789 59.9242 25.2211 60.3156 25.6124C60.7069 26.0038 60.9491 26.5197 61 27.0709V35.6423C60.9493 36.1935 60.7072 36.7096 60.3158 37.101C59.9244 37.4924 59.4083 37.7344 58.8571 37.7852ZM54.5714 29.2137C54.5714 20.1066 46.5004 13.1423 37.4286 13.1423H24.5714C15.4996 13.1423 7.42857 20.1066 7.42857 29.2137V33.4994C7.42857 42.5637 15.4579 49.5709 24.5714 49.5709H37.4286C46.5829 49.5709 54.5714 42.5637 54.5714 33.4994V29.2137ZM58.8571 28.1423C58.8316 27.8668 58.7105 27.6089 58.5148 27.4132C58.3191 27.2175 58.0612 27.0964 57.7857 27.0709H56.7143V35.6423H57.7857C58.0613 35.6169 58.3194 35.4959 58.5151 35.3002C58.7108 35.1045 58.8318 34.8465 58.8571 34.5709V28.1423ZM42.7857 34.5709C38.8911 33.9067 34.9505 33.5485 31 33.4994C27.0497 33.5517 23.1093 33.9099 19.2143 34.5709C17.2252 34.5709 15.3175 33.7807 13.911 32.3742C12.5044 30.9677 11.7143 29.06 11.7143 27.0709C11.7143 25.0817 12.5044 23.1741 13.911 21.7675C15.3175 20.361 17.2252 19.5709 19.2143 19.5709C23.1093 18.9099 27.0497 18.5517 31 18.4994C34.9505 18.5485 38.8911 18.9067 42.7857 19.5709C44.7748 19.5709 46.6825 20.361 48.089 21.7675C49.4956 23.1741 50.2857 25.0817 50.2857 27.0709C50.2857 29.06 49.4956 30.9677 48.089 32.3742C46.6825 33.7807 44.7748 34.5709 42.7857 34.5709V34.5709ZM42.7857 21.7137C38.8911 21.0496 34.9505 20.6913 31 20.6423C27.0497 20.6946 23.1093 21.0528 19.2143 21.7137C17.7935 21.7137 16.4309 22.2781 15.4262 23.2828C14.4216 24.2875 13.8571 25.6501 13.8571 27.0709C13.8571 28.4917 14.4216 29.8543 15.4262 30.8589C16.4309 31.8636 17.7935 32.428 19.2143 32.428C23.1093 31.7671 27.0497 31.4089 31 31.3566C34.9505 31.4056 38.8911 31.7638 42.7857 32.428C44.2065 32.428 45.5691 31.8636 46.5738 30.8589C47.5784 29.8543 48.1429 28.4917 48.1429 27.0709C48.1429 25.6501 47.5784 24.2875 46.5738 23.2828C45.5691 22.2781 44.2065 21.7137 42.7857 21.7137ZM39.5714 29.2137C39.0201 29.1632 38.504 28.9212 38.1125 28.5298C37.7211 28.1383 37.4791 27.6221 37.4286 27.0709V25.9994C37.4286 25.4311 37.6544 24.8861 38.0562 24.4842C38.4581 24.0824 39.0031 23.8566 39.5714 23.8566C40.1397 23.8566 40.6848 24.0824 41.0866 24.4842C41.4885 24.8861 41.7143 25.4311 41.7143 25.9994V27.0709C41.6636 27.6221 41.4215 28.1382 41.0301 28.5296C40.6387 28.921 40.1226 29.163 39.5714 29.2137V29.2137ZM22.4286 29.2137C21.8773 29.1632 21.3611 28.9212 20.9697 28.5298C20.5782 28.1383 20.3362 27.6221 20.2857 27.0709V25.9994C20.2857 25.4311 20.5115 24.8861 20.9134 24.4842C21.3152 24.0824 21.8602 23.8566 22.4286 23.8566C22.9969 23.8566 23.5419 24.0824 23.9438 24.4842C24.3456 24.8861 24.5714 25.4311 24.5714 25.9994V27.0709C24.5207 27.6221 24.2787 28.1382 23.8873 28.5296C23.4959 28.921 22.9798 29.163 22.4286 29.2137ZM23.5 37.7852C23.7755 37.8107 24.0334 37.9318 24.2291 38.1275C24.4247 38.3232 24.5459 38.5811 24.5714 38.8566C24.5714 38.8759 24.7739 39.2412 24.5714 38.8566C26.426 40.2475 28.6817 40.9994 31 40.9994C33.3183 40.9994 35.574 40.2475 37.4286 38.8566C37.4286 38.8384 37.4286 38.8748 37.4286 38.8566C37.4541 38.5811 37.5752 38.3232 37.7709 38.1275C37.9666 37.9318 38.2245 37.8107 38.5 37.7852V37.7852C38.7842 37.7852 39.0567 37.898 39.2576 38.099C39.4585 38.2999 39.5714 38.5724 39.5714 38.8566C39.5714 39.1407 39.4585 39.4132 39.2576 39.6142C39.0567 39.8151 38.7842 39.928 38.5 39.928C37.5326 40.9437 36.3691 41.7523 35.0799 42.3048C33.7906 42.8573 32.4026 43.1422 31 43.1422C29.5974 43.1422 28.2094 42.8573 26.9201 42.3048C25.6309 41.7523 24.4674 40.9437 23.5 39.928V39.928C23.2158 39.928 22.9433 39.8151 22.7424 39.6142C22.5415 39.4132 22.4286 39.1407 22.4286 38.8566C22.4286 38.5724 22.5415 38.2999 22.7424 38.099C22.9433 37.898 23.2158 37.7852 23.5 37.7852Z" stroke="#1D1D1B" stroke-width="0.2"/>
</svg>
