<svg width="54" height="20" viewBox="0 0 54 20" fill="none" xmlns="http://www.w3.org/2000/svg">
<path d="M9.70344 4H7.05662C7.05662 6.17206 6.05961 8.15421 4.32671 9.45982L3.28223 10.2432L7.34148 15.7742H10.6767L6.93793 10.6823C8.70643 8.9257 9.70344 6.55187 9.70344 4Z" fill="black"/>
<path d="M2.94933 4H0.243164V15.7742H2.94933V4Z" fill="black"/>
<path d="M14.0113 4H11.4595V15.7742H14.0113V4Z" fill="black"/>
<path d="M36.3961 7.40674C35.4228 7.40674 34.497 7.70347 33.8798 8.54618V7.63225H31.4585V15.7745H33.9154V11.5016C33.9154 10.2672 34.7463 9.66188 35.7433 9.66188C36.8115 9.66188 37.4287 10.3028 37.4287 11.4897V15.7864H39.8619V10.5995C39.8619 8.70048 38.3545 7.40674 36.3961 7.40674Z" fill="black"/>
<path d="M21.7243 7.63225V8.1545C21.0359 7.67973 20.205 7.40674 19.303 7.40674C16.9292 7.40674 15.0063 9.32954 15.0063 11.7034C15.0063 14.0772 16.9292 16 19.303 16C20.205 16 21.0359 15.727 21.7243 15.2523V15.7745H24.1575V7.63225H21.7243ZM19.5048 13.7923C18.2822 13.7923 17.2971 12.8547 17.2971 11.7034C17.2971 10.5521 18.2822 9.6144 19.5048 9.6144C20.7273 9.6144 21.7124 10.5521 21.7124 11.7034C21.7124 12.8547 20.7273 13.7923 19.5048 13.7923Z" fill="black"/>
<path d="M27.9349 8.68966V7.6333H25.4424V15.7755H27.9468V11.9774C27.9468 10.6955 29.3355 10.0071 30.2969 10.0071C30.3087 10.0071 30.3206 10.0071 30.3206 10.0071V7.6333C29.3355 7.6333 28.4215 8.06059 27.9349 8.68966Z" fill="black"/>
<path d="M47.4352 7.63225V8.1545C46.7468 7.67973 45.916 7.40674 45.0139 7.40674C42.6401 7.40674 40.7173 9.32954 40.7173 11.7034C40.7173 14.0772 42.6401 16 45.0139 16C45.916 16 46.7468 15.727 47.4352 15.2523V15.7745H49.8684V7.63225H47.4352ZM45.2157 13.7923C43.9932 13.7923 43.008 12.8547 43.008 11.7034C43.008 10.5521 43.9932 9.6144 45.2157 9.6144C46.4382 9.6144 47.4234 10.5521 47.4234 11.7034C47.4352 12.8547 46.4382 13.7923 45.2157 13.7923Z" fill="black"/>
<path d="M51.7536 7.86422C51.7536 7.74553 51.6705 7.67432 51.54 7.67432H51.3145V8.29151H51.4213V8.066H51.54L51.6349 8.29151H51.7536L51.6468 8.04226C51.718 8.00665 51.7536 7.94731 51.7536 7.86422ZM51.54 7.95918H51.4213V7.76927H51.54C51.6112 7.76927 51.6468 7.80488 51.6468 7.86422C51.6468 7.92357 51.6231 7.95918 51.54 7.95918Z" fill="black"/>
<path d="M51.5054 7.4165C51.1849 7.4165 50.9238 7.67763 50.9238 7.99809C50.9357 8.31856 51.1849 8.57968 51.5054 8.57968C51.8259 8.57968 52.087 8.31856 52.087 7.99809C52.087 7.67763 51.8259 7.4165 51.5054 7.4165ZM51.5054 8.47286C51.2443 8.47286 51.0425 8.25921 51.0425 7.99809C51.0425 7.73697 51.2562 7.52333 51.5054 7.52333C51.7665 7.52333 51.9683 7.73697 51.9683 7.99809C51.9683 8.25921 51.7547 8.47286 51.5054 8.47286Z" fill="black"/>
<path d="M52.4686 12.8921C51.6259 12.8921 50.9375 13.5805 50.9375 14.4232C50.9375 15.2659 51.6259 15.9543 52.4686 15.9543C53.3113 15.9543 53.9997 15.2659 53.9997 14.4232C53.9997 13.5686 53.3113 12.8921 52.4686 12.8921Z" fill="black"/>
</svg>
