<svg width="91" height="20" viewBox="0 0 91 20" fill="none" xmlns="http://www.w3.org/2000/svg">
<path fill-rule="evenodd" clip-rule="evenodd" d="M24.0379 5.17291C25.3368 5.17291 26.3595 5.62291 27.1163 6.53313C27.8732 7.44336 28.2516 8.58881 28.2516 9.95927C28.2516 11.3297 27.8732 12.4752 27.1163 13.3854C26.3595 14.2956 25.3368 14.7456 24.0379 14.7456C23.4345 14.7456 22.8925 14.6331 22.422 14.4081C21.9516 14.1831 21.5834 13.8968 21.3277 13.5593V18.182H18.8425V5.37745H21.1334V6.49222C21.7368 5.61268 22.7084 5.17291 24.0379 5.17291ZM37.497 5.17291C38.8266 5.17291 39.7981 5.61268 40.4016 6.50245V5.38768H42.6925V14.5513H40.4016V13.4365C39.7981 14.3263 38.8266 14.7661 37.497 14.7661C36.1982 14.7661 35.1754 14.3059 34.4186 13.4059C33.6618 12.4956 33.2834 11.3502 33.2834 9.97972C33.2834 8.59904 33.6618 7.46381 34.4186 6.55359C35.1857 5.6229 36.2084 5.17291 37.497 5.17291ZM56.8061 5.17291C58.1356 5.17291 59.1072 5.61268 59.7106 6.50245V5.38768H62.0016V14.5513H59.7106V13.4365C59.1072 14.3263 58.1356 14.7661 56.8061 14.7661C55.5072 14.7661 54.4845 14.3059 53.7277 13.4059C52.9709 12.4956 52.5925 11.3502 52.5925 9.97972C52.5925 8.59904 52.9709 7.46381 53.7277 6.55359C54.4845 5.6229 55.5175 5.17291 56.8061 5.17291ZM83.6016 5.17291C84.9413 5.17291 86.0356 5.62291 86.8845 6.52291C87.7334 7.4229 88.1527 8.56836 88.1527 9.93881L88.122 10.6752H81.4743C81.5561 11.3093 81.7913 11.7899 82.1697 12.1172C82.5584 12.4547 83.0595 12.6184 83.6936 12.6184C84.0925 12.6184 84.4504 12.5365 84.7675 12.3627C85.0845 12.1888 85.3197 11.9434 85.4629 11.6161H87.9686C87.7027 12.5468 87.1709 13.3036 86.3834 13.8763C85.5959 14.449 84.6754 14.7456 83.6322 14.7456C82.2822 14.7456 81.1675 14.2956 80.3084 13.3956C79.4493 12.4956 79.0095 11.34 79.0095 9.92859C79.0095 8.56836 79.4391 7.4229 80.3084 6.52291C81.1572 5.62291 82.2618 5.17291 83.6016 5.17291ZM14.2095 1.81836L17.6152 14.5411H14.8947L14.1482 11.6059H9.12656L8.37997 14.5411H5.65952L6.44702 11.6059H3.72656L4.29929 9.45813H13.5959L11.6322 1.81836H14.2095ZM32.0152 1.81836V14.5411H29.53V1.81836H32.0152ZM74.4891 5.17291C75.5629 5.17291 76.3811 5.50018 76.9538 6.16495C77.5266 6.82972 77.8129 7.7195 77.8129 8.82404V14.5411H75.3277V9.10018C75.3277 7.90359 74.8368 7.30018 73.855 7.30018C73.272 7.30018 72.8322 7.47404 72.5254 7.83199C72.2186 8.18995 72.0754 8.69109 72.0754 9.32518V14.5411H69.5902V9.10018C69.5902 7.90359 69.0993 7.30018 68.1175 7.30018C67.5447 7.30018 67.105 7.47404 66.7981 7.82177C66.4913 8.1695 66.3379 8.66041 66.3379 9.27404V14.5411H63.8527V5.37745H66.1436V6.49222C66.6243 5.60245 67.5038 5.16268 68.7822 5.16268C69.9993 5.16268 70.8788 5.59222 71.4413 6.46154C72.2288 5.60245 73.2413 5.17291 74.4891 5.17291ZM51.9788 5.37745V7.41268L47.3663 12.3934H52.0402V14.5411H44.2879V12.4956L48.8697 7.52518H44.3595V5.37745H51.9788ZM23.5163 7.36154C22.8413 7.36154 22.2993 7.607 21.88 8.0979C21.4607 8.58881 21.2561 9.21268 21.2561 9.96949C21.2561 10.7263 21.4607 11.3502 21.88 11.8411C22.2891 12.332 22.8413 12.5775 23.5163 12.5775C24.1913 12.5775 24.7334 12.332 25.1527 11.8411C25.5618 11.3502 25.7766 10.7263 25.7766 9.96949C25.7766 9.21268 25.572 8.58881 25.1527 8.0979C24.7334 7.607 24.1913 7.36154 23.5163 7.36154ZM38.0288 7.36154C37.3538 7.36154 36.8118 7.607 36.3925 8.0979C35.9834 8.58881 35.7686 9.21268 35.7686 9.96949C35.7686 10.7263 35.9731 11.3502 36.3925 11.8411C36.8016 12.332 37.3538 12.5775 38.0288 12.5775C38.7038 12.5775 39.2459 12.332 39.6652 11.8411C40.0743 11.3502 40.2891 10.7263 40.2891 9.96949C40.2891 9.21268 40.0845 8.58881 39.6652 8.0979C39.2459 7.607 38.7038 7.36154 38.0288 7.36154ZM57.3277 7.36154C56.6527 7.36154 56.1106 7.607 55.6913 8.0979C55.272 8.58881 55.0675 9.21268 55.0675 9.96949C55.0675 10.7263 55.272 11.3502 55.6913 11.8411C56.1004 12.332 56.6527 12.5775 57.3277 12.5775C58.0027 12.5775 58.5447 12.332 58.9641 11.8411C59.3731 11.3502 59.5879 10.7263 59.5879 9.96949C59.5879 9.21268 59.3834 8.58881 58.9641 8.0979C58.555 7.607 58.0129 7.36154 57.3277 7.36154ZM83.5811 7.16722C83.0186 7.16722 82.5584 7.32063 82.2004 7.62745C81.8425 7.93427 81.6072 8.36381 81.505 8.89563H85.6675C85.5754 8.37404 85.3504 7.95472 84.9822 7.63768C84.6141 7.32063 84.1538 7.16722 83.5811 7.16722ZM11.6322 1.81836L9.92429 8.49677H7.27543L9.0652 1.81836H11.6322Z" fill="#334BFF"/>
</svg>
