<svg width="32" height="32" viewBox="0 0 32 32" fill="none" xmlns="http://www.w3.org/2000/svg">
<path fill-rule="evenodd" clip-rule="evenodd" d="M10.7711 3.88101C10.1303 3.62399 9.44364 3.50093 8.75348 3.51939C8.56102 3.52453 8.37791 3.6035 8.24207 3.73993L6.2196 5.77112C5.92778 6.0642 5.92829 6.53819 6.22074 6.83064L8.72267 9.33258L9.78333 8.27192L7.81059 6.29917L9.08147 5.02281C9.46904 5.04385 9.85122 5.12823 10.2127 5.2732C10.6633 5.45397 11.0722 5.72512 11.4141 6.06995L11.4263 6.08198C11.9165 6.55421 12.2589 7.15864 12.4119 7.8218C12.5649 8.48497 12.522 9.17832 12.2884 9.81756C12.1882 10.0917 12.2562 10.399 12.4625 10.6053L21.4503 19.5931C21.6565 19.7993 21.9634 19.8673 22.2374 19.7675C22.8784 19.534 23.5733 19.4912 24.2381 19.6443C24.9029 19.7975 25.5091 20.1399 25.9834 20.6303L25.9833 20.6304L25.9902 20.6373C26.3325 20.9822 26.6017 21.3926 26.7815 21.8441C26.9614 22.2955 27.0482 22.7787 27.0368 23.2645L27.0365 23.2821V23.8052H28.5365V23.2906C28.5514 22.6059 28.4285 21.9252 28.175 21.289C27.9211 20.6514 27.5412 20.0716 27.0583 19.5841C26.383 18.8872 25.5205 18.4004 24.5748 18.1826C23.7871 18.0012 22.9698 18.0128 22.1916 18.2131L13.8428 9.86434C14.0434 9.08735 14.055 8.27106 13.8735 7.48451C13.6557 6.54095 13.1694 5.68072 12.4733 5.00774C11.9884 4.52037 11.4092 4.13697 10.7711 3.88101ZM11.2076 17.8104C11.4482 17.7215 11.7087 17.7011 11.9601 17.7514C12.2116 17.8017 12.4441 17.9207 12.632 18.0953L12.6388 18.1017L12.6495 18.1121L13.652 19.1059L13.6655 19.1196L13.8604 19.323L14.8573 20.3199C14.8638 20.3264 14.8701 20.333 14.8764 20.3397C15.051 20.5276 15.17 20.7602 15.2203 21.0116C15.2706 21.263 15.2501 21.5235 15.1612 21.7641C15.158 21.7727 15.1547 21.7814 15.1511 21.7899C14.9741 22.2192 14.8532 22.6695 14.7913 23.1296C14.7854 23.1738 14.7755 23.2173 14.7618 23.2598C14.7207 23.3875 14.6627 23.5093 14.5894 23.6218C14.561 23.6655 14.5281 23.7062 14.4912 23.743L10.1324 28.1018C10.1136 28.1206 10.0938 28.1384 10.0731 28.1551C9.71246 28.4462 9.2752 28.6265 8.8143 28.6742C8.23012 28.7458 7.63724 28.6705 7.08938 28.4552C6.54718 28.2422 6.06609 27.8986 5.68866 27.4552L5.50475 27.2642C5.06786 26.8883 4.72844 26.4119 4.51585 25.8757C4.29811 25.3265 4.22023 24.7318 4.2892 24.1451L4.28973 24.1406C4.34611 23.6847 4.52732 23.2533 4.81338 22.8939C4.831 22.8717 4.84986 22.8506 4.86988 22.8306L9.22866 18.4718C9.27996 18.4205 9.33844 18.3769 9.40226 18.3424C9.50074 18.2892 9.60385 18.245 9.71034 18.2104C9.75326 18.1964 9.79736 18.1864 9.84209 18.1804C10.3022 18.1185 10.7525 17.9975 11.1818 17.8206L11.1974 17.8143L11.2076 17.8104ZM11.6613 19.2446C11.182 19.4341 10.6831 19.5694 10.1738 19.648L5.96479 23.857C5.86407 23.9936 5.7999 24.1538 5.77866 24.3226C5.73919 24.6617 5.78439 25.0054 5.91025 25.3228C6.03639 25.641 6.23961 25.9228 6.50165 26.143C6.52183 26.1599 6.54111 26.1779 6.5594 26.1969L6.78605 26.4323C6.79803 26.4448 6.80958 26.4576 6.82067 26.4708C7.03966 26.7322 7.32067 26.9345 7.63801 27.0592C7.95534 27.1839 8.29889 27.227 8.63721 27.1847L8.6561 27.1826C8.81871 27.1664 8.97362 27.1062 9.10423 27.0087L13.3253 22.7876C13.4041 22.282 13.5388 21.7867 13.7269 21.3109L12.7941 20.3781L12.783 20.3667L12.5891 20.1644L11.6613 19.2446ZM7.18116 24.7654L11.3743 20.5722L12.435 21.6329L8.24182 25.826L7.18116 24.7654ZM3.51773 8.86977V8.358H5.01773V8.88105C5.01773 8.88889 5.0176 8.89672 5.01736 8.90455C5.00217 9.38899 5.08691 9.87137 5.26627 10.3216C5.44564 10.7719 5.7158 11.1804 6.05992 11.5217L6.0692 11.5309L6.06912 11.531C6.54419 12.0189 7.14965 12.3598 7.8132 12.5129C8.47675 12.666 9.17035 12.625 9.81118 12.3946C10.0845 12.2963 10.3899 12.3647 10.5952 12.57L19.583 21.5578C19.7884 21.7632 19.8567 22.0686 19.7585 22.3419C19.5281 22.9827 19.487 23.6763 19.6401 24.3399C19.7933 25.0034 20.1341 25.6089 20.622 26.0839L20.631 26.0926L20.6309 26.0927C20.9734 26.4375 21.3834 26.7081 21.8351 26.8876C22.1985 27.0319 22.5826 27.1148 22.9719 27.1335L24.2416 25.8638L22.2631 23.8922L23.3219 22.8297L25.8326 25.3316C25.9737 25.4722 26.053 25.6631 26.0532 25.8622C26.0534 26.0613 25.9743 26.2524 25.8335 26.3932L23.811 28.4157C23.6763 28.5504 23.4954 28.6288 23.305 28.6349C22.6133 28.6574 21.9244 28.5371 21.2813 28.2816C20.6401 28.0269 20.058 27.6432 19.5712 27.1543C18.8794 26.479 18.396 25.6192 18.1786 24.6771C17.9974 23.8919 18.0073 23.0771 18.2044 22.3005L9.85258 13.9487C9.07598 14.1458 8.26116 14.1557 7.47591 13.9745C6.53394 13.7571 5.67423 13.2738 4.99898 12.5821C4.51084 12.0967 4.12753 11.5163 3.87277 10.8767C3.6187 10.239 3.49788 9.55595 3.51773 8.86977ZM26.4559 4.27027C26.2086 4.02326 25.8235 3.97983 25.5274 4.16555L22.7882 5.88359C22.6765 5.95369 22.5852 6.05202 22.5236 6.16867L21.4363 8.22707L17.8775 11.6676C17.733 11.8073 17.6506 11.9992 17.6488 12.2002C17.6471 12.4013 17.7261 12.5946 17.8682 12.7368L18.635 13.5045L18.6356 13.5051L19.4033 14.2719C19.5455 14.414 19.7388 14.493 19.9399 14.4913C20.1409 14.4895 20.3328 14.4071 20.4726 14.2626L23.913 10.7038L25.9714 9.61652C26.0881 9.55491 26.1864 9.46362 26.2565 9.35186L27.9746 6.61275C28.1603 6.31666 28.1168 5.93152 27.8698 5.68422L27.1636 4.97714L27.163 4.97651L26.4559 4.27027ZM22.7068 9.03343L23.7559 7.04731L25.8184 5.75363L26.1023 6.03717L26.1029 6.0378L26.3865 6.32168L25.0928 8.38423L23.1067 9.43329C23.0366 9.47031 22.9728 9.5182 22.9177 9.57518L19.924 12.6719L19.6963 12.4444L19.6957 12.4438L19.4682 12.2161L22.5649 9.22236C22.6219 9.16727 22.6698 9.1035 22.7068 9.03343Z" fill="black"/>
</svg>
