<svg 
 xmlns="http://www.w3.org/2000/svg"
 xmlns:xlink="http://www.w3.org/1999/xlink"
 width="35px" height="35px">
<path fill-rule="evenodd"  fill="rgb(51, 51, 51)"
 d="M17.500,34.998 C7.835,34.998 -0.000,27.162 -0.000,17.497 C-0.000,7.832 7.835,-0.004 17.500,-0.004 C27.165,-0.004 35.000,7.832 35.000,17.497 C35.000,27.162 27.165,34.998 17.500,34.998 ZM18.558,13.870 C18.153,14.001 17.398,14.433 17.233,14.170 C17.141,14.039 17.251,13.832 17.288,13.701 C17.527,12.781 17.620,11.505 16.736,10.941 C16.091,10.528 14.968,10.641 14.287,10.885 C10.605,12.162 4.990,17.569 6.131,21.868 C6.389,22.844 6.923,23.576 7.438,24.102 C8.967,25.660 11.341,26.524 13.532,26.843 C15.134,27.068 16.791,27.049 18.393,26.749 C21.007,26.261 23.511,25.059 25.131,22.919 C26.217,21.492 26.567,19.465 25.131,18.169 C24.929,17.982 24.745,17.850 24.524,17.700 C24.137,17.437 23.750,17.287 23.290,17.137 C22.848,16.986 22.775,16.911 22.941,16.461 C23.050,16.142 23.143,15.860 23.180,15.485 C23.382,13.795 22.038,13.288 20.510,13.420 C19.793,13.476 19.185,13.664 18.558,13.870 ZM24.837,15.616 C25.149,15.710 25.462,15.560 25.609,15.372 C25.776,15.184 25.849,14.827 25.886,14.527 C26.015,13.269 25.407,12.180 24.432,11.561 C23.879,11.223 22.351,10.885 21.891,11.467 C21.486,11.974 21.781,12.744 22.480,12.725 C22.903,12.706 22.996,12.650 23.455,12.800 C23.897,12.950 24.358,13.457 24.376,14.058 C24.413,14.452 23.971,15.372 24.837,15.616 ZM27.396,9.946 C25.978,8.369 24.118,7.825 22.075,8.031 C21.706,8.069 21.412,8.125 21.209,8.350 C20.731,8.876 20.970,9.646 21.633,9.759 C22.186,9.852 23.566,9.421 25.112,10.340 C25.831,10.791 26.512,11.505 26.861,12.293 C27.800,14.471 26.769,15.447 27.100,16.198 C27.377,16.817 28.205,16.874 28.574,16.405 C28.849,16.048 28.997,14.996 29.016,14.527 C29.107,12.744 28.500,11.167 27.396,9.946 ZM21.682,21.448 C20.808,23.254 18.743,24.301 16.808,24.735 C13.516,25.475 9.945,24.626 8.549,22.604 C7.601,21.213 7.973,19.768 8.884,18.649 C9.666,17.692 10.987,16.933 12.232,16.536 C14.725,15.741 17.813,15.759 20.120,17.168 C21.607,18.089 22.501,19.786 21.682,21.448 ZM17.977,20.406 C17.800,19.073 16.757,18.277 15.449,18.051 C15.095,18.000 14.724,17.982 14.353,18.034 C13.133,18.155 11.984,18.830 11.383,19.870 C10.481,21.411 11.241,22.952 12.408,23.558 C14.972,24.927 18.313,22.918 17.977,20.406 ZM15.008,20.436 C15.048,20.206 15.305,19.998 15.562,19.998 C15.839,19.998 16.055,20.227 15.997,20.540 C15.858,21.165 14.850,21.123 15.008,20.436 ZM13.306,23.006 C12.532,23.065 11.859,22.498 12.043,21.717 C12.165,21.111 12.776,20.623 13.510,20.565 C14.284,20.525 14.937,21.092 14.774,21.853 C14.651,22.479 14.040,22.967 13.306,23.006 Z"/>
</svg>