<svg width="48" height="49" viewBox="0 0 48 49" fill="none" xmlns="http://www.w3.org/2000/svg">
<path fill-rule="evenodd" clip-rule="evenodd" d="M18.4327 32.9672L18.4189 32.9534L18.4055 32.9394C17.9141 32.4243 17.2631 32.0946 16.5611 32.0034C16.1747 31.9716 15.9349 32.0095 14.8769 32.6039L14.8736 32.6057C13.2571 33.5086 11.7455 34.589 10.3667 35.8272C9.32224 36.8297 9.06121 37.4395 9.0119 37.9586C9.00019 38.3468 9.06544 38.7333 9.20387 39.0959C9.34599 39.468 9.56211 39.8068 9.83868 40.0914L9.88972 40.144L9.9354 40.2012C10.5144 40.9269 11.224 41.5365 12.0271 41.9983L12.0388 42.0051L12.0503 42.012C12.8353 42.4824 13.686 42.8316 14.5739 43.0479C15.304 43.1867 16.0452 43.2578 16.7883 43.2605C16.8309 43.2605 16.8756 43.2593 16.9374 43.2574L16.9513 43.2569C16.9919 43.2557 17.0459 43.254 17.1026 43.2532C19.0814 43.1144 20.8019 42.5481 23.6003 40.9789C27.4895 38.7395 30.8752 35.716 33.5441 32.0983L33.5607 32.0757L33.5781 32.0538C36.975 27.7918 39.2786 22.7581 40.2868 17.3938C40.4477 16.3518 40.5178 15.2977 40.4964 14.2434C40.3668 12.3679 39.6401 10.5843 38.4241 9.15583L38.4099 9.13915L38.3962 9.12206C38.0049 8.63424 37.561 8.1916 37.0727 7.80209L37.051 7.78482L37.03 7.76677C36.2829 7.1243 35.4146 6.64029 34.4774 6.34335C34.0909 6.25057 33.6901 6.23555 33.2981 6.29912C32.793 6.42639 32.3444 6.72297 32.0276 7.14188L32.0195 7.15253L32.0113 7.16304C31.7514 7.49418 31.3171 8.29491 30.8204 9.46708C30.3421 10.5956 29.8573 11.9447 29.4687 13.2745L29.4639 13.2909L29.4588 13.3071C29.2952 13.8232 29.2289 14.3653 29.2632 14.9057C29.3162 15.1859 29.4415 15.4468 29.6265 15.6625L29.6324 15.6693L29.6381 15.6762C30.0221 16.1348 30.3901 16.4064 32.3014 17.3907L32.3041 17.3921C32.9722 17.7379 33.7671 18.2486 33.7448 18.2356L34.7434 18.8166L34.4366 19.9304L32.9904 19.5321C32.9683 19.5192 32.9233 19.4909 32.8601 19.4511C32.6207 19.3006 32.1203 18.986 31.6146 18.7243C29.7321 17.7548 29.0936 17.3624 28.488 16.6391C28.1098 16.1982 27.8618 15.6599 27.7721 15.085C27.7134 14.3316 27.8006 13.5739 28.0289 12.8538C28.8383 10.084 30.0463 7.23724 30.8312 6.23703C31.367 5.5286 32.1328 5.03047 32.9959 4.82898C33.6225 4.71833 34.2653 4.742 34.8822 4.89829C36.031 5.25501 37.0948 5.84416 38.008 6.62942C38.5831 7.08809 39.1057 7.60925 39.5663 8.18352C40.9987 9.86617 41.8507 11.9686 41.9953 14.1771C42.0211 15.3383 41.9441 16.4995 41.7654 17.6471C40.7145 23.2605 38.3058 28.5287 34.7511 32.9887C31.9578 36.7752 28.4134 39.9398 24.3413 42.2831C21.4063 43.9296 19.4594 44.5989 17.1599 44.7528C17.1082 44.7528 17.0528 44.7545 16.9943 44.7563L16.9941 44.7563C16.9284 44.7584 16.8587 44.7605 16.7859 44.7605C15.9369 44.7576 15.0901 44.6753 14.2564 44.5143C13.2084 44.263 12.2045 43.8531 11.2793 43.2986C10.3128 42.7428 9.45911 42.0094 8.76284 41.1367C8.34401 40.7056 8.01726 40.1932 7.80256 39.631C7.58786 39.0687 7.48975 38.4684 7.51424 37.8668C7.59932 36.8127 8.14738 35.874 9.34619 34.7276C10.8127 33.4082 12.4213 32.2573 14.1422 31.2961C15.2789 30.6575 15.8431 30.4344 16.7184 30.5113C17.775 30.6402 18.7547 31.1323 19.4908 31.904C20.0618 32.4722 20.5815 33.0902 21.0438 33.7505C21.1081 33.8421 21.1801 33.9456 21.2498 34.0456L21.2499 34.0458C21.3968 34.2568 21.533 34.4526 21.5642 34.4891C21.5923 34.499 21.6218 34.5042 21.6516 34.5045C22.6445 33.7354 23.5891 32.9055 24.48 32.0194C27.9894 28.5585 30.823 24.4694 32.8349 19.963C32.9353 19.7322 32.9904 19.5321 32.9904 19.5321C34.4366 19.9304 34.4365 19.9305 34.4365 19.9307L34.4364 19.9309L34.4363 19.9314L34.436 19.9325L34.4353 19.9349L34.4337 19.9406L34.4294 19.9557C34.4261 19.9673 34.4218 19.982 34.4165 19.9995C34.406 20.0344 34.3915 20.0809 34.3731 20.1359C34.337 20.2442 34.2827 20.3951 34.2104 20.5613L34.2075 20.5679L34.2046 20.5745C32.1171 25.2503 29.177 29.4935 25.5355 33.0851C24.6015 34.014 23.6111 34.884 22.5702 35.6904L22.1567 36.0106L21.6338 36.0044C21.4405 36.0021 21.2497 35.9683 21.0687 35.9049L20.6865 35.7711L20.4235 35.4632C20.3806 35.4129 20.3435 35.3627 20.3314 35.3463L20.3303 35.3447C20.3109 35.3185 20.2902 35.2897 20.2704 35.262C20.2304 35.2059 20.1819 35.1368 20.1318 35.065L20.0155 34.898C19.9474 34.8001 19.8792 34.7022 19.8165 34.613L19.815 34.6108C19.4034 34.0229 18.9408 33.4729 18.4327 32.9672ZM20.547 8.62476C20.9613 8.62476 21.297 8.96054 21.297 9.37476C21.297 9.78897 20.9613 10.1248 20.547 10.1248C17.0877 10.1248 13.7694 11.5042 11.3224 13.9604C8.87529 16.4167 7.5 19.7488 7.5 23.2238C7.5 23.638 7.16421 23.9738 6.75 23.9738C6.33579 23.9738 6 23.638 6 23.2238C6 19.3528 7.53196 15.6398 10.2597 12.9017C12.9876 10.1636 16.688 8.62476 20.547 8.62476ZM20.547 16.3187C20.9613 16.3187 21.297 16.6545 21.297 17.0687C21.297 17.4829 20.9613 17.8187 20.547 17.8187C19.1206 17.8187 17.7519 18.3875 16.7424 19.4008C15.7327 20.4143 15.165 21.7894 15.165 23.2238C15.165 23.638 14.8292 23.9738 14.415 23.9738C14.0008 23.9738 13.665 23.638 13.665 23.2238C13.665 21.3934 14.3894 19.6373 15.6797 18.3422C16.9701 17.0469 18.7209 16.3187 20.547 16.3187Z" fill="black"/>
</svg>
