<svg width="60" height="61" viewBox="0 0 60 61" fill="none" xmlns="http://www.w3.org/2000/svg">
<g clip-path="url(#clip0_144_147443)">
<mask id="path-1-inside-1_144_147443" fill="white">
<path fill-rule="evenodd" clip-rule="evenodd" d="M8 7.66797C6.34314 7.66797 5 9.01112 5 10.668V22.3363L5.00024 22.3586V49.3338C5.00024 50.9907 6.34339 52.3338 8.00025 52.3338H33.1028L32.1981 50.7703L32.1964 50.7674C32.1137 50.625 32.0387 50.4803 31.971 50.3338H8.00025C7.44796 50.3338 7.00024 49.8861 7.00024 49.3338V23.3363H53.0016V32.9939C53.6885 32.6419 54.3599 32.433 55.0016 32.3476V22.333L55.0013 22.3107V10.668C55.0013 9.01112 53.6582 7.66797 52.0013 7.66797H8ZM53.0013 21.333V10.668C53.0013 10.1157 52.5536 9.66797 52.0013 9.66797H8C7.44772 9.66797 7 10.1157 7 10.668V21.333H53.0013ZM13.232 17.3212C14.2136 17.3212 15.0093 16.5255 15.0093 15.5439C15.0093 14.5623 14.2136 13.7666 13.232 13.7666C12.2504 13.7666 11.4547 14.5623 11.4547 15.5439C11.4547 16.5255 12.2504 17.3212 13.232 17.3212Z"/>
</mask>
<path fill-rule="evenodd" clip-rule="evenodd" d="M8 7.66797C6.34314 7.66797 5 9.01112 5 10.668V22.3363L5.00024 22.3586V49.3338C5.00024 50.9907 6.34339 52.3338 8.00025 52.3338H33.1028L32.1981 50.7703L32.1964 50.7674C32.1137 50.625 32.0387 50.4803 31.971 50.3338H8.00025C7.44796 50.3338 7.00024 49.8861 7.00024 49.3338V23.3363H53.0016V32.9939C53.6885 32.6419 54.3599 32.433 55.0016 32.3476V22.333L55.0013 22.3107V10.668C55.0013 9.01112 53.6582 7.66797 52.0013 7.66797H8ZM53.0013 21.333V10.668C53.0013 10.1157 52.5536 9.66797 52.0013 9.66797H8C7.44772 9.66797 7 10.1157 7 10.668V21.333H53.0013ZM13.232 17.3212C14.2136 17.3212 15.0093 16.5255 15.0093 15.5439C15.0093 14.5623 14.2136 13.7666 13.232 13.7666C12.2504 13.7666 11.4547 14.5623 11.4547 15.5439C11.4547 16.5255 12.2504 17.3212 13.232 17.3212Z" fill="#646464"/>
<path d="M5 22.3363H3V22.3473L3.00012 22.3582L5 22.3363ZM5.00024 22.3586H7.00024V22.3477L7.00012 22.3368L5.00024 22.3586ZM33.1028 52.3338V54.3338H36.5708L34.8339 51.3321L33.1028 52.3338ZM32.1981 50.7703L33.9292 49.7686L33.9277 49.7661L32.1981 50.7703ZM32.1964 50.7674L30.4665 51.7712L30.4668 51.7716L32.1964 50.7674ZM31.971 50.3338L33.7867 49.4951L33.2502 48.3338H31.971V50.3338ZM7.00024 23.3363V21.3363H5.00024V23.3363H7.00024ZM53.0016 23.3363H55.0016V21.3363H53.0016V23.3363ZM53.0016 32.9939H51.0016V36.2658L53.9135 34.7739L53.0016 32.9939ZM55.0016 32.3476L55.2653 34.3302L57.0016 34.0992V32.3476H55.0016ZM55.0016 22.333H57.0016V22.3221L57.0014 22.3111L55.0016 22.333ZM55.0013 22.3107H53.0013V22.3216L53.0014 22.3326L55.0013 22.3107ZM53.0013 21.333V23.333H55.0013V21.333H53.0013ZM7 21.333H5V23.333H7V21.333ZM7 10.668C7 10.1157 7.44772 9.66797 8 9.66797V5.66797C5.23857 5.66797 3 7.90655 3 10.668H7ZM7 22.3363V10.668H3V22.3363H7ZM7.00012 22.3368L6.99988 22.3144L3.00012 22.3582L3.00036 22.3805L7.00012 22.3368ZM7.00024 49.3338V22.3586H3.00024V49.3338H7.00024ZM8.00025 50.3338C7.44796 50.3338 7.00024 49.8861 7.00024 49.3338H3.00024C3.00024 52.0952 5.23883 54.3338 8.00025 54.3338V50.3338ZM33.1028 50.3338H8.00025V54.3338H33.1028V50.3338ZM34.8339 51.3321L33.9291 49.7686L30.467 51.772L31.3717 53.3355L34.8339 51.3321ZM33.9277 49.7661L33.926 49.7632L30.4668 51.7716L30.4684 51.7745L33.9277 49.7661ZM33.9263 49.7637C33.8748 49.675 33.8283 49.5854 33.7867 49.4951L30.1553 51.1725C30.249 51.3752 30.3527 51.575 30.4665 51.7712L33.9263 49.7637ZM8.00025 52.3338H31.971V48.3338H8.00025V52.3338ZM5.00024 49.3338C5.00024 50.9907 6.34339 52.3338 8.00025 52.3338V48.3338C8.55253 48.3338 9.00024 48.7815 9.00024 49.3338H5.00024ZM5.00024 23.3363V49.3338H9.00024V23.3363H5.00024ZM53.0016 21.3363H7.00024V25.3363H53.0016V21.3363ZM55.0016 32.9939V23.3363H51.0016V32.9939H55.0016ZM53.9135 34.7739C54.4147 34.5171 54.868 34.383 55.2653 34.3302L54.7378 30.3651C53.8518 30.483 52.9624 30.7667 52.0896 31.2139L53.9135 34.7739ZM53.0016 22.333V32.3476H57.0016V22.333H53.0016ZM53.0014 22.3326L53.0017 22.3549L57.0014 22.3111L57.0012 22.2888L53.0014 22.3326ZM53.0013 10.668V22.3107H57.0013V10.668H53.0013ZM52.0013 9.66797C52.5536 9.66797 53.0013 10.1157 53.0013 10.668H57.0013C57.0013 7.90655 54.7628 5.66797 52.0013 5.66797V9.66797ZM8 9.66797H52.0013V5.66797H8V9.66797ZM51.0013 10.668V21.333H55.0013V10.668H51.0013ZM52.0013 11.668C51.449 11.668 51.0013 11.2203 51.0013 10.668H55.0013C55.0013 9.01111 53.6582 7.66797 52.0013 7.66797V11.668ZM8 11.668H52.0013V7.66797H8V11.668ZM9 10.668C9 11.2203 8.55229 11.668 8 11.668V7.66797C6.34315 7.66797 5 9.01112 5 10.668H9ZM9 21.333V10.668H5V21.333H9ZM53.0013 19.333H7V23.333H53.0013V19.333ZM13.0093 15.5439C13.0093 15.4209 13.109 15.3212 13.232 15.3212V19.3212C15.3182 19.3212 17.0093 17.63 17.0093 15.5439H13.0093ZM13.232 15.7666C13.109 15.7666 13.0093 15.6669 13.0093 15.5439H17.0093C17.0093 13.4578 15.3182 11.7666 13.232 11.7666V15.7666ZM13.4547 15.5439C13.4547 15.6669 13.355 15.7666 13.232 15.7666V11.7666C11.1459 11.7666 9.45471 13.4578 9.45471 15.5439H13.4547ZM13.232 15.3212C13.355 15.3212 13.4547 15.4209 13.4547 15.5439H9.45471C9.45471 17.63 11.1459 19.3212 13.232 19.3212V15.3212Z" fill="#646464" mask="url(#path-1-inside-1_144_147443)"/>
<path fill-rule="evenodd" clip-rule="evenodd" d="M58.7063 38.7922L57.2626 36.2971C56.6598 35.2599 55.3422 34.9094 54.3049 35.5122L53.59 35.9187C52.1463 36.7457 50.3521 35.7084 50.3521 34.0404V33.2133C50.3521 32.0219 49.3849 31.0547 48.1934 31.0547H45.3059C44.1144 31.0547 43.1472 32.0219 43.1472 33.2133V34.0404C43.1472 35.7084 41.353 36.7457 39.9092 35.9187L39.1944 35.5122C38.1571 34.9094 36.8395 35.2739 36.2367 36.2971L34.7929 38.7922C34.1902 39.8295 34.5546 41.1471 35.5779 41.7498L36.2928 42.1563C37.7366 42.9833 37.7366 45.0719 36.2928 45.8989L35.5779 46.3054C34.5406 46.9082 34.1902 48.2258 34.7929 49.2631L36.2367 51.7581C36.8395 52.7954 38.1571 53.1458 39.1944 52.5431L39.9092 52.1366C41.353 51.3096 43.1472 52.3469 43.1472 54.0149V54.8419C43.1472 56.0334 44.1144 57.0006 45.3059 57.0006H48.1934C49.3849 57.0006 50.3521 56.0334 50.3521 54.8419V54.0149C50.3521 52.3469 52.1463 51.3096 53.59 52.1366L54.3049 52.5431C55.3422 53.1458 56.6598 52.7814 57.2626 51.7581L58.7063 49.2631C59.3091 48.2258 58.9446 46.9082 57.9214 46.3054L57.2065 45.8989C55.7627 45.0719 55.7627 42.9833 57.2065 42.1563L57.9214 41.7498C58.9586 41.1471 59.3091 39.8155 58.7063 38.7922Z" stroke="#646464" stroke-width="2" stroke-linecap="round" stroke-linejoin="round"/>
<path d="M46.731 47.3643C48.5629 47.3643 50.0479 45.8793 50.0479 44.0474C50.0479 42.2155 48.5629 40.7305 46.731 40.7305C44.8991 40.7305 43.4141 42.2155 43.4141 44.0474C43.4141 45.8793 44.8991 47.3643 46.731 47.3643Z" stroke="#646464" stroke-width="2" stroke-linecap="round" stroke-linejoin="round"/>
</g>
<defs>
<clipPath id="clip0_144_147443">
<rect width="60" height="60" fill="white" transform="translate(0 0.00195312)"/>
</clipPath>
</defs>
</svg>
