<svg width="114" height="16" viewBox="0 0 114 16" fill="none" xmlns="http://www.w3.org/2000/svg">
<g clip-path="url(#clip0_3946_46729)">
<path d="M56.1079 3.54242C54.7211 3.02133 53.3795 2.76888 51.69 3.12652C50.3711 3.40487 49.3111 3.93567 48.6153 5.25942C48.9211 5.50864 49.1962 5.74491 49.4649 5.97956C49.9067 6.3631 50.3646 6.75796 50.978 7.21755C51.4635 6.52492 52.3114 5.74491 53.2209 5.72711C54.276 5.70607 55.2875 6.28704 55.4542 7.13825C55.5221 7.49104 55.5674 8.94912 55.5674 8.94912L55.014 9.06725C54.9044 9.10819 54.7837 9.10819 54.6741 9.06725L54.5868 9.03327L54.5155 9.00576C53.379 8.56635 52.1737 8.33184 50.9553 8.31313C50.5456 8.31298 50.1366 8.3449 49.7319 8.40861C48.489 8.60442 47.0116 9.30676 47.0374 11.5481C47.0472 12.4009 47.2252 13.0401 47.6006 13.5596C47.9309 14.0336 48.3729 14.4189 48.8874 14.6817C49.4019 14.9444 49.9731 15.0765 50.5507 15.0662C51.9623 15.1094 53.3402 14.63 54.4201 13.7198C54.4427 13.702 54.7 13.4771 54.7745 13.4188L55.5367 12.8281V15.0501H58.7166V7.28228C58.7182 5.5232 57.7602 4.16384 56.1079 3.54242ZM55.1256 10.8425C54.446 12.0595 53.3374 12.7472 52.0622 12.7472C52.0088 12.7472 51.9538 12.7472 51.9004 12.7472C51.6321 12.7417 51.3652 12.7075 51.1042 12.6453C50.151 12.3944 49.6089 11.6274 49.6477 10.5949L49.6672 10.1434H55.514L55.1256 10.8425Z" fill="black"/>
<path d="M89.3241 3.54242C87.9372 3.02133 86.5957 2.76888 84.9078 3.12652C83.5873 3.40487 82.5273 3.93567 81.833 5.25942C82.1389 5.50864 82.414 5.74491 82.6826 5.97956C83.1261 6.3631 83.5824 6.75796 84.1957 7.21755C84.6812 6.52492 85.5308 5.74491 86.4387 5.72711C87.4954 5.70607 88.5052 6.28704 88.6719 7.13825C88.7399 7.49104 88.7852 8.94912 88.7852 8.94912L88.2334 9.06725C88.1238 9.10819 88.0031 9.10819 87.8935 9.06725C87.866 9.05754 87.8353 9.04621 87.8061 9.03327L87.7333 9.00576C86.5968 8.56635 85.3914 8.33184 84.1731 8.31313C83.7634 8.31298 83.3544 8.3449 82.9497 8.40861C81.7068 8.60442 80.2293 9.30676 80.2552 11.5481C80.2649 12.4009 80.4446 13.0401 80.8184 13.5596C81.1487 14.0336 81.5906 14.4189 82.1051 14.6817C82.6196 14.9444 83.1909 15.0765 83.7685 15.0662C85.1806 15.1095 86.559 14.6301 87.6395 13.7198C87.6605 13.702 87.9194 13.4771 87.9922 13.4188L88.7545 12.8281V15.0501H91.9344V7.28228C91.9344 5.5232 90.9764 4.16384 89.3241 3.54242ZM88.3418 10.8425C87.6637 12.0595 86.5536 12.7472 85.28 12.7472C85.225 12.7472 85.17 12.7472 85.1182 12.7472C84.8504 12.7417 84.5841 12.7075 84.3236 12.6453C83.3688 12.3944 82.8267 11.6274 82.8671 10.5949L82.8865 10.1434H88.7318L88.3418 10.8425Z" fill="black"/>
<path d="M111.05 3.54242C109.663 3.02133 108.322 2.76888 106.632 3.12652C105.313 3.40487 104.254 3.93567 103.558 5.25942C103.864 5.50864 104.139 5.74491 104.407 5.97956C104.849 6.3631 105.307 6.75796 105.92 7.21755C106.406 6.52492 107.254 5.74491 108.163 5.72711C109.22 5.70607 110.23 6.28704 110.397 7.13825C110.465 7.49104 110.51 8.94912 110.51 8.94912L109.956 9.06725C109.847 9.10779 109.727 9.10779 109.618 9.06725C109.591 9.05754 109.56 9.04621 109.531 9.03327L109.458 9.00576C108.321 8.56635 107.116 8.33184 105.898 8.31313C105.488 8.31298 105.079 8.3449 104.674 8.40861C103.431 8.60442 101.954 9.30676 101.98 11.5481C101.99 12.4009 102.168 13.0401 102.543 13.5596C102.873 14.0336 103.315 14.4189 103.83 14.6817C104.344 14.9444 104.916 15.0765 105.493 15.0662C106.905 15.1095 108.284 14.6301 109.364 13.7198C109.385 13.702 109.644 13.4771 109.717 13.4188L110.479 12.8281V15.0501H113.659V7.28228C113.661 5.5232 112.703 4.16384 111.05 3.54242ZM110.068 10.8425C109.388 12.0595 108.28 12.7472 107.005 12.7472C106.951 12.7472 106.896 12.7472 106.843 12.7472C106.575 12.7417 106.308 12.7075 106.047 12.6453C105.093 12.3944 104.551 11.6274 104.59 10.5949L104.61 10.1434H110.453L110.068 10.8425Z" fill="black"/>
<path d="M100.646 3.95832C99.617 4.00525 98.884 4.45513 98.3985 5.34034C98.3451 5.43743 98.002 6.11064 98.002 6.11064L97.2398 5.93425V5.55881V4.11529H94.165V15.0743H97.2479V14.0791C97.2479 13.0477 97.2479 12.0179 97.2479 10.9898V10.794C97.2479 10.4298 97.2236 10.0528 97.2479 9.67573C97.2928 9.01593 97.5664 8.39246 98.0216 7.91274C98.4768 7.43301 99.0851 7.12707 99.7416 7.04763C100.172 6.98613 101.255 6.98128 101.373 6.97966V3.95185C101.116 3.94861 100.879 3.94699 100.646 3.95832Z" fill="black"/>
<path d="M44.6569 12.5142C44.3861 12.5098 44.1159 12.4881 43.8478 12.4495C43.0387 12.3168 42.5224 11.9187 42.3023 11.2633C42.2036 10.9894 42.149 10.7015 42.1405 10.4104V5.51674L42.6179 5.4957C43.639 5.44553 44.7217 5.37109 45.7493 5.08628L45.0939 2.85142L42.1405 3.28998V0H38.6531V3.28998H36.2969V5.54587H38.6531C38.6531 5.54587 38.6531 10.1984 38.6725 11.3863C38.6745 12.1117 38.884 12.8215 39.2761 13.4318C39.7454 14.1454 40.4267 14.5921 41.4236 14.8381C42.4965 15.1019 43.584 15.0889 44.733 15.076H45.0081V12.5272H44.8754L44.6569 12.5142Z" fill="black"/>
<path d="M71.3596 8.90059C71.3596 7.79368 72.104 6.91981 73.1154 6.82595C74.3356 6.71105 75.1933 7.32114 75.4118 8.45556C75.4444 8.65502 75.458 8.85715 75.4522 9.05918C75.4522 10.705 75.4522 12.3362 75.4522 13.9691V15.0598H78.527V13.3622C78.527 11.4575 78.527 9.55276 78.527 7.64804C78.5303 7.29117 78.5011 6.93475 78.4396 6.5832C78.1839 5.22384 77.4557 4.39528 76.2274 4.04573C74.8972 3.67352 72.6672 3.95187 71.6315 5.76273L71.1589 6.70781C70.8871 5.35169 70.1119 4.36939 68.8755 4.01498C67.5453 3.64278 65.5386 3.95511 64.5062 5.76597L64.0433 6.57511V4.1137H60.8262V15.0744H64.0304C64.0304 15.0744 64.0304 10.7293 64.0304 9.12877C64.0302 8.92371 64.0432 8.71884 64.0692 8.51544C64.1062 8.13125 64.2614 7.76799 64.5136 7.47581C64.7658 7.18362 65.1025 6.97691 65.4771 6.88421C66.3542 6.65764 67.2653 6.93923 67.7427 7.58816C68.0253 8.00739 68.1634 8.5074 68.136 9.01225C68.136 10.5593 68.136 15.0663 68.136 15.0663H71.3596V8.90059Z" fill="black"/>
<path d="M1.8011 4.26094C1.16261 4.92688 0.662613 5.71291 0.330078 6.57347L10.5253 15.0274C11.027 14.7195 11.4875 14.3492 11.896 13.9253L12.095 13.7182C15.9579 9.68544 13.4204 5.31606 11.8814 3.84666C10.5437 2.56678 8.75269 1.87022 6.90177 1.90997C5.05084 1.94972 3.29138 2.72253 2.00986 4.05865L1.8011 4.26094Z" fill="black"/>
<path d="M22.8344 16C26.7329 16 29.8933 12.8396 29.8933 8.94105C29.8933 5.04249 26.7329 1.88208 22.8344 1.88208C18.9358 1.88208 15.7754 5.04249 15.7754 8.94105C15.7754 12.8396 18.9358 16 22.8344 16Z" fill="black"/>
</g>
<defs>
<clipPath id="clip0_3946_46729">
<rect width="113.34" height="16" fill="white" transform="translate(0.330078)"/>
</clipPath>
</defs>
</svg>
