<?xml version="1.0" encoding="utf-8"?>
<!-- Generator: Adobe Illustrator 27.8.1, SVG Export Plug-In . SVG Version: 6.00 Build 0)  -->
<svg version="1.1" id="Layer_1" xmlns="http://www.w3.org/2000/svg" xmlns:xlink="http://www.w3.org/1999/xlink" x="0px" y="0px"
	 viewBox="0 0 24 24" style="enable-background:new 0 0 24 24;" xml:space="preserve">
<style type="text/css">
	.st0{fill:none;stroke:#000000;stroke-width:1.5;stroke-linejoin:round;}
	.st1{fill:none;stroke:#000000;stroke-width:1.5;stroke-miterlimit:10;}
</style>
<g>
	<g>
		<path class="st0" d="M21.4,12.7c0,2.5-1,4.9-2.7,6.6C16.9,21.1,14.5,22,12,22c-2.5,0-4.9-1-6.6-2.7c-1.8-1.8-2.7-4.1-2.7-6.6
			c0-2.5,1-4.9,2.7-6.6C7.1,4.3,9.5,3.3,12,3.3c1.4,0,2.7,0.3,3.9,0.9c1.2,0.6,2.3,1.4,3.2,2.5l0.6,0.9"/>
		<path class="st1" d="M19.8,2l0.4,6l-6,0.4"/>
	</g>
	<polyline class="st0" points="11,8.8 11,13.9 16,15.8 	"/>
</g>
</svg>
