<svg width="48" height="48" viewBox="0 0 48 48" fill="none" xmlns="http://www.w3.org/2000/svg">
<path fill-rule="evenodd" clip-rule="evenodd" d="M15.1084 14.5178C15.1084 9.52837 19.0994 5.5 24.0024 5.5C28.9054 5.5 32.8964 9.52837 32.8964 14.5178C32.8964 19.5073 28.9054 23.5357 24.0024 23.5357C19.0994 23.5357 15.1084 19.5073 15.1084 14.5178ZM24.0024 4C18.253 4 13.6084 8.71805 13.6084 14.5178C13.6084 19.0872 16.4913 22.9851 20.5262 24.4333C11.7411 26.0865 5.10059 33.8874 5.10059 43.2469C5.10059 43.6611 5.43637 43.9969 5.85059 43.9969H42.1574C42.5716 43.9969 42.9074 43.6611 42.9074 43.2469C42.9074 33.8867 36.2658 26.0852 27.4797 24.433C31.514 22.9844 34.3964 19.0868 34.3964 14.5178C34.3964 8.71805 29.7518 4 24.0024 4ZM24.004 25.6104C33.3596 25.6104 41.0041 33.0957 41.392 42.4969H6.61603C7.00383 33.0957 14.6483 25.6104 24.004 25.6104Z" fill="black"/>
</svg>
