<svg width="24" height="24" viewBox="0 0 24 24" fill="none" xmlns="http://www.w3.org/2000/svg">
<path fill-rule="evenodd" clip-rule="evenodd" d="M1.99805 2.99805C1.99805 2.44576 2.44576 1.99805 2.99805 1.99805H21.0019C21.5542 1.99805 22.0019 2.44576 22.0019 2.99805V5.87673C22.0019 6.35423 21.6672 6.75357 21.2196 6.85296V21.0024C21.2196 21.5547 20.7719 22.0024 20.2196 22.0024H3.78311C3.23083 22.0024 2.78312 21.5547 2.78312 21.0024V6.85358C2.33413 6.75524 1.99805 6.35523 1.99805 5.87673V2.99805ZM3.78312 6.87673H20.2196V21.0024L3.78312 21.0024V6.87673ZM21.0019 2.99805L2.99805 2.99805V5.87673L21.0019 5.87673V2.99805ZM12.0008 10.044C12.277 10.044 12.5008 10.2679 12.5008 10.544V13.4168H15.3682C15.6443 13.4168 15.8682 13.6406 15.8682 13.9168C15.8682 14.1929 15.6443 14.4168 15.3682 14.4168H12.5008V17.2841C12.5008 17.5602 12.277 17.7841 12.0008 17.7841C11.7247 17.7841 11.5008 17.5602 11.5008 17.2841V14.4168H8.62807C8.35192 14.4168 8.12807 14.1929 8.12807 13.9168C8.12807 13.6406 8.35192 13.4168 8.62807 13.4168H11.5008V10.544C11.5008 10.2679 11.7247 10.044 12.0008 10.044Z" fill="black"/>
</svg>
