<svg width="24" height="24" viewBox="0 0 24 24" fill="none" xmlns="http://www.w3.org/2000/svg">
<path fill-rule="evenodd" clip-rule="evenodd" d="M5.11272 1.93292H5.71272H21.5635H22.1635V2.53292V15.3082V15.9082H21.5635H19.4545H19.4397V18.7189V19.3189H18.8397H12.1766L12.1787 21.0196L12.1799 22.067L11.2757 21.5382L7.48147 19.3189H2.43667H1.83667V18.7189V5.25369V4.65369H2.43667H5.11272V2.53292V1.93292ZM19.4545 14.7082H19.4397V5.25369V4.65369H18.8397H6.31272V3.13292H20.9635V14.7082H19.4545ZM3.03667 5.85369V18.1189H7.64406H7.80665L7.94699 18.2009L10.9774 19.9735L10.9759 18.7196L10.9752 18.1189H11.5759H18.2397V5.85369H3.03667ZM5.58495 9.74007H6.18495H14.9384H15.5384V10.9401H14.9384H6.18495H5.58495V9.74007ZM5.58495 12.8156H6.18495H11.1531H11.7531V14.0156H11.1531H6.18495H5.58495V12.8156Z" fill="black"/>
</svg>
