<svg width="60" height="60" viewBox="0 0 60 60" fill="none" xmlns="http://www.w3.org/2000/svg">
<g id="Membership_MY LG / Member">
<path id="Union" fill-rule="evenodd" clip-rule="evenodd" d="M8.36216 5.1875H9.11216H51.3414H52.0914V5.9375V18.552H56.5622H57.3122V19.302V54.0628V54.8128H56.5622H3.4375H2.6875V54.0628V19.302V18.552H3.4375H8.36216V5.9375V5.1875ZM52.0914 22.4614V20.052H54.8704L52.0914 22.4614ZM50.5914 6.6875V23.7619L30.0018 41.613L9.74112 24.0713H9.86216V6.6875H50.5914ZM8.36216 20.052V22.8774L5.09878 20.052H8.36216ZM4.1875 21.2471V52.6576L22.3192 36.9455L4.1875 21.2471ZM23.4649 37.9374L5.72189 53.3128H54.2753L36.5202 37.9468L30.4935 43.172L30.0025 43.5976L29.5112 43.1723L23.4649 37.9374ZM37.6652 36.9541L55.8122 52.6591V21.2208L37.6652 36.9541ZM16.3097 14.9194H17.0597H39.3095H40.0595V16.4194H39.3095H17.0597H16.3097V14.9194ZM16.3097 22.639H17.0597H31.1361H31.8861V24.139H31.1361H17.0597H16.3097V22.639Z" fill="black"/>
</g>
</svg>
