<svg width="48" height="48" viewBox="0 0 48 48" fill="none" xmlns="http://www.w3.org/2000/svg">
<path d="M37 12.7998H9C6.8 12.7998 5 14.5998 5 16.7998V19.0998H41V16.7998C41 14.5998 39.2 12.7998 37 12.7998Z" stroke="#666666" stroke-width="1.5" stroke-miterlimit="10" stroke-linecap="round"/>
<path d="M33.8992 42.5996H11.9992C9.09922 42.5996 6.69922 40.1996 6.69922 37.2996V19.0996H39.1992V37.2996C39.1992 40.1996 36.7992 42.5996 33.8992 42.5996Z" stroke="#666666" stroke-width="1.5" stroke-miterlimit="10" stroke-linecap="round"/>
<path d="M23 12.7998V42.5998" stroke="#666666" stroke-width="1.5" stroke-miterlimit="10" stroke-linecap="round"/>
<path d="M17.3984 12.7996L14.4984 9.89961C13.6984 9.09961 13.6984 7.79961 14.4984 6.99961L14.7984 6.69961C15.5984 5.89961 16.8984 5.89961 17.6984 6.69961L23.2984 12.2996" stroke="#666666" stroke-width="1.5" stroke-miterlimit="10" stroke-linecap="round"/>
<path d="M22.5 12.7L28.6 6.6C29.4 5.8 30.7 5.8 31.5 6.6L31.8 6.9C32.6 7.7 32.6 9 31.8 9.8L29 12.7" stroke="#666666" stroke-width="1.5" stroke-miterlimit="10" stroke-linecap="round"/>
</svg>
