<svg width="18" height="19" viewBox="0 0 18 19" fill="none" xmlns="http://www.w3.org/2000/svg">
<path fill-rule="evenodd" clip-rule="evenodd" d="M7.20027 5.90039C7.20027 4.51968 8.31956 3.40039 9.70027 3.40039C11.081 3.40039 12.2003 4.51968 12.2003 5.90039C12.2003 7.2811 11.081 8.40039 9.70027 8.40039C8.31956 8.40039 7.20027 7.2811 7.20027 5.90039ZM9.70027 2.40039C7.76727 2.40039 6.20027 3.96739 6.20027 5.90039C6.20027 7.83339 7.76727 9.40039 9.70027 9.40039C11.6333 9.40039 13.2003 7.83339 13.2003 5.90039C13.2003 3.96739 11.6333 2.40039 9.70027 2.40039ZM15.513 11.6688C15.7422 11.4396 15.7418 11.0681 15.513 10.8394C15.2839 10.6102 14.9124 10.6107 14.6837 10.8394L12.5642 12.9589C12.375 13.148 12.1039 13.2306 11.8415 13.1796L11.8405 13.1794L10.222 12.869C9.96877 13.04 9.6636 13.1397 9.33511 13.1397H6.58719C6.31105 13.1397 6.08719 12.9159 6.08719 12.6397C6.08719 12.3636 6.31105 12.1397 6.58719 12.1397H9.33511C9.65926 12.1397 9.92192 11.8771 9.92192 11.5529C9.92192 11.2288 9.65926 10.9661 9.33511 10.9661H5.44511C5.37559 10.9661 5.30835 10.9936 5.25688 11.045L1.90755 14.3944L1.20044 13.6873L4.54978 10.3379C4.78654 10.1012 5.10721 9.96611 5.44511 9.96611L9.33511 9.96611C10.2115 9.96611 10.9219 10.6765 10.9219 11.5529C10.9219 11.6988 10.9022 11.8401 10.8654 11.9742L11.9304 12.1785L13.9765 10.1323C14.5952 9.51369 15.5998 9.51196 16.2201 10.1323C16.8388 10.7509 16.8405 11.7556 16.2201 12.3759L12.5913 16.0048C12.3707 16.2253 12.0676 16.3433 11.7552 16.3295L11.7546 16.3295L4.7991 16.0148L4.16352 16.6504L3.45642 15.9433L4.15186 15.2478C4.31267 15.087 4.53292 15.0033 4.75519 15.0118L4.75881 15.0119L11.7992 15.3305L11.7994 15.3305C11.8315 15.3319 11.8621 15.3198 11.8842 15.2977L15.513 11.6688Z" fill="#DAA40D"/>
</svg>
