<svg width="48" height="48" viewBox="0 0 48 48" fill="none" xmlns="http://www.w3.org/2000/svg">
<path fill-rule="evenodd" clip-rule="evenodd" d="M24 8.25C19.7198 8.25 16.25 11.7198 16.25 16C16.25 20.2802 19.7198 23.75 24 23.75C28.2802 23.75 31.75 20.2802 31.75 16C31.75 11.7198 28.2802 8.25 24 8.25ZM17.75 16C17.75 12.5482 20.5482 9.75 24 9.75C27.4518 9.75 30.25 12.5482 30.25 16C30.25 19.4518 27.4518 22.25 24 22.25C20.5482 22.25 17.75 19.4518 17.75 16Z" fill="black"/>
<path fill-rule="evenodd" clip-rule="evenodd" d="M23.9972 2C16.2848 2 10.0431 8.30172 10.0431 16.0624C10.0431 18.0092 10.4359 19.8643 11.1462 21.5511L2 37.5565L11.4685 37.1657L15.8824 45.6448L23.9997 31.4293L32.117 45.6448L36.5309 37.1657L45.9994 37.5565L36.8504 21.5462C37.5593 19.8607 37.9514 18.0073 37.9514 16.0624C37.9514 8.30172 31.7097 2 23.9972 2ZM11.5431 16.0624C11.5431 9.11858 17.1248 3.5 23.9972 3.5C30.8697 3.5 36.4514 9.11858 36.4514 16.0624C36.4514 23.0062 30.8697 28.6248 23.9972 28.6248C17.1248 28.6248 11.5431 23.0062 11.5431 16.0624ZM23.036 30.0919C18.3029 29.7676 14.221 27.0658 11.9515 23.1651L4.648 35.9459L12.3589 35.6276L15.9433 42.5132L23.036 30.0919ZM32.0561 42.5132L24.9632 30.0916C29.696 29.7657 33.7772 27.0625 36.0455 23.1609L43.3514 35.9459L35.6405 35.6276L32.0561 42.5132Z" fill="black"/>
</svg>
