<svg width="24" height="25" viewBox="0 0 24 25" fill="none" xmlns="http://www.w3.org/2000/svg">
<path fill-rule="evenodd" clip-rule="evenodd" d="M5.89844 20.4584C5.34615 20.4584 4.89844 20.0107 4.89844 19.4584V5.83398C4.89844 5.2817 5.34615 4.83398 5.89844 4.83398H17.4448C17.9971 4.83398 18.4448 5.2817 18.4448 5.83398V13.5581H19.4448V5.83398C19.4448 4.72941 18.5494 3.83398 17.4448 3.83398H5.89844C4.79387 3.83398 3.89844 4.72942 3.89844 5.83398V19.4584C3.89844 20.563 4.79387 21.4584 5.89844 21.4584H11.6911V20.4584H5.89844ZM15.9417 20.7353C17.6731 20.7353 19.0767 19.3317 19.0767 17.6003C19.0767 15.8689 17.6731 14.4653 15.9417 14.4653C14.2102 14.4653 12.8066 15.8689 12.8066 17.6003C12.8066 19.3317 14.2102 20.7353 15.9417 20.7353ZM15.9417 21.7353C18.2254 21.7353 20.0767 19.884 20.0767 17.6003C20.0767 15.3166 18.2254 13.4653 15.9417 13.4653C13.6579 13.4653 11.8066 15.3166 11.8066 17.6003C11.8066 19.884 13.6579 21.7353 15.9417 21.7353ZM17.6948 16.899C17.8783 16.6926 17.8597 16.3766 17.6533 16.1931C17.4469 16.0097 17.1309 16.0283 16.9474 16.2347L15.4833 17.8818L14.9382 17.2684C14.7547 17.062 14.4387 17.0434 14.2323 17.2269C14.0259 17.4104 14.0073 17.7264 14.1907 17.9328L15.1096 18.9665C15.2045 19.0733 15.3405 19.1343 15.4833 19.1343C15.6262 19.1343 15.7622 19.0733 15.857 18.9665L17.6948 16.899ZM7.36318 8.70723C7.36318 8.43109 7.58704 8.20723 7.86318 8.20723H15.4827C15.7589 8.20723 15.9827 8.43109 15.9827 8.70723C15.9827 8.98337 15.7589 9.20723 15.4827 9.20723H7.86318C7.58704 9.20723 7.36318 8.98337 7.36318 8.70723ZM7.86328 10.9497C7.58714 10.9497 7.36328 11.1735 7.36328 11.4497C7.36328 11.7258 7.58714 11.9497 7.86328 11.9497H15.4828C15.759 11.9497 15.9828 11.7258 15.9828 11.4497C15.9828 11.1735 15.759 10.9497 15.4828 10.9497H7.86328Z" fill="#555555"/>
</svg>
