<svg width="24" height="24" viewBox="0 0 24 24" fill="none" xmlns="http://www.w3.org/2000/svg">
<g opacity="0.5" filter="url(#filter0_b_12424_91839)">
<circle cx="12" cy="12" r="12" fill="#4A4946"/>
</g>
<path fill-rule="evenodd" clip-rule="evenodd" d="M7.88669 16.8479C7.68385 17.0507 7.35497 17.0507 7.15213 16.8479C6.94929 16.645 6.94929 16.3162 7.15213 16.1133L11.2657 11.9997L7.15267 7.88669C6.94983 7.68385 6.94983 7.35498 7.15267 7.15213C7.35551 6.94929 7.68439 6.94929 7.88723 7.15213L12.0002 11.2652L16.1132 7.15213C16.3161 6.94929 16.645 6.94929 16.8478 7.15213C17.0506 7.35498 17.0506 7.68385 16.8478 7.88669L12.7348 11.9997L16.8483 16.1133C17.0512 16.3162 17.0512 16.645 16.8483 16.8479C16.6455 17.0507 16.3166 17.0507 16.1138 16.8479L12.0002 12.7343L7.88669 16.8479Z" fill="white"/>
<defs>
<filter id="filter0_b_12424_91839" x="-15" y="-15" width="54" height="54" filterUnits="userSpaceOnUse" color-interpolation-filters="sRGB">
<feFlood flood-opacity="0" result="BackgroundImageFix"/>
<feGaussianBlur in="BackgroundImageFix" stdDeviation="7.5"/>
<feComposite in2="SourceAlpha" operator="in" result="effect1_backgroundBlur_12424_91839"/>
<feBlend mode="normal" in="SourceGraphic" in2="effect1_backgroundBlur_12424_91839" result="shape"/>
</filter>
</defs>
</svg>
