<svg width="36" height="36" viewBox="0 0 36 36" fill="none" xmlns="http://www.w3.org/2000/svg">
<g id="Icon_Guide_36">
<rect width="36" height="36" fill="white"/>
<g id="Group 6340346">
<path id="Vector" d="M21.572 22.0905C21.3786 21.7473 21.1169 21.4475 20.8029 21.2096C20.489 20.9716 20.1296 20.8006 19.747 20.7072C19.388 20.5994 19.0236 20.5104 18.6553 20.4405V16.6613C19.3875 16.7399 20.0859 17.0101 20.6803 17.4447C20.7214 17.481 20.7692 17.509 20.821 17.5269C20.8728 17.5448 20.9277 17.5523 20.9825 17.5491C21.0372 17.5458 21.0908 17.5317 21.1401 17.5077C21.1894 17.4838 21.2335 17.4503 21.2699 17.4092C21.3063 17.3682 21.3342 17.3204 21.3522 17.2686C21.3701 17.2167 21.3776 17.1619 21.3743 17.1071C21.371 17.0524 21.357 16.9988 21.333 16.9495C21.309 16.9002 21.2755 16.856 21.2345 16.8197C20.4888 16.2453 19.5933 15.8981 18.6553 15.8197V14.528C18.6553 14.4175 18.6114 14.3115 18.5333 14.2334C18.4551 14.1552 18.3492 14.1113 18.2387 14.1113C18.1282 14.1113 18.0222 14.1552 17.944 14.2334C17.8659 14.3115 17.822 14.4175 17.822 14.528V15.778C15.9887 15.8197 14.9762 16.7322 14.6678 17.5197C14.4621 18.0268 14.4426 18.5903 14.6127 19.1104C14.7827 19.6306 15.1314 20.0737 15.597 20.3613C16.2747 20.7744 17.0337 21.036 17.822 21.128V24.9447C16.7342 24.8899 15.6922 24.49 14.847 23.803C14.8093 23.7581 14.7625 23.7217 14.7098 23.6961C14.657 23.6705 14.5994 23.6564 14.5408 23.6546C14.4822 23.6528 14.4239 23.6633 14.3697 23.6856C14.3155 23.7079 14.2665 23.7414 14.2261 23.7838C14.1857 23.8263 14.1547 23.8768 14.1352 23.9321C14.1156 23.9874 14.108 24.0462 14.1127 24.1046C14.1174 24.163 14.1344 24.2198 14.1626 24.2712C14.1907 24.3227 14.2295 24.3676 14.2762 24.403C15.2728 25.2421 16.5202 25.7258 17.822 25.778V27.028C17.822 27.1385 17.8659 27.2445 17.944 27.3226C18.0222 27.4008 18.1282 27.4447 18.2387 27.4447C18.3492 27.4447 18.4551 27.4008 18.5333 27.3226C18.6114 27.2445 18.6553 27.1385 18.6553 27.028V25.778C19.8303 25.6988 21.1845 25.3238 21.697 23.7947C21.7897 23.5164 21.8264 23.2226 21.805 22.9301C21.7835 22.6376 21.7043 22.3522 21.572 22.0905ZM16.0678 19.6613C15.7636 19.4802 15.5339 19.1965 15.4201 18.8612C15.3063 18.5259 15.3158 18.1611 15.447 17.8322C15.4928 17.7072 15.9595 16.6613 17.822 16.6113V20.278C17.2004 20.198 16.6027 19.9879 16.0678 19.6613ZM20.9053 23.5113C20.6053 24.403 19.9387 24.8322 18.6553 24.928V21.2905C18.922 21.3488 19.197 21.4155 19.4887 21.503C19.7642 21.5656 20.0241 21.6835 20.2526 21.8497C20.4811 22.0159 20.6734 22.2268 20.8178 22.4697C20.9812 22.7923 21.0126 23.1659 20.9053 23.5113Z" fill="black" stroke="black" stroke-width="0.5"/>
<path id="Rectangle 3466946" d="M3 8.55566H33V33.0001H3V8.55566Z" stroke="black" stroke-width="1.5"/>
<path id="Rectangle 3466947" d="M23 8.55556V3H13V8.55556" stroke="black" stroke-width="1.5"/>
</g>
</g>
</svg>
