<svg width="65" height="65" viewBox="0 0 65 65" fill="none" xmlns="http://www.w3.org/2000/svg">
<rect x="2.25" y="7.01074" width="52.5" height="50.5" rx="3.25" fill="white" stroke="black" stroke-width="1.5"/>
<rect x="11.5" y="3.26074" width="2" height="7" rx="1" fill="black"/>
<rect x="43.5" y="3.26074" width="2" height="7" rx="1" fill="black"/>
<rect x="10.25" y="20.0107" width="6.5" height="6.5" rx="1.25" fill="white" stroke="black" stroke-width="1.5"/>
<rect x="20.25" y="20.0107" width="6.5" height="6.5" rx="1.25" fill="white" stroke="black" stroke-width="1.5"/>
<rect x="30.25" y="20.0107" width="6.5" height="6.5" rx="1.25" fill="white" stroke="black" stroke-width="1.5"/>
<rect x="40.25" y="20.0107" width="6.5" height="6.5" rx="1.25" fill="white" stroke="black" stroke-width="1.5"/>
<rect x="10.25" y="30.0107" width="6.5" height="6.5" rx="1.25" fill="white" stroke="black" stroke-width="1.5"/>
<rect x="20.25" y="30.0107" width="6.5" height="6.5" rx="1.25" fill="white" stroke="black" stroke-width="1.5"/>
<rect x="30.25" y="30.0107" width="6.5" height="6.5" rx="1.25" fill="white" stroke="black" stroke-width="1.5"/>
<rect x="40.25" y="30.0107" width="6.5" height="6.5" rx="1.25" fill="white" stroke="black" stroke-width="1.5"/>
<rect x="10.25" y="40.0107" width="6.5" height="6.5" rx="1.25" fill="white" stroke="black" stroke-width="1.5"/>
<rect x="20.25" y="40.0107" width="6.5" height="6.5" rx="1.25" fill="white" stroke="black" stroke-width="1.5"/>
<rect x="30.25" y="40.0107" width="6.5" height="6.5" rx="1.25" fill="white" stroke="black" stroke-width="1.5"/>
<rect x="40.25" y="40.0107" width="6.5" height="6.5" rx="1.25" fill="white" stroke="black" stroke-width="1.5"/>
<circle cx="48.5" cy="47.2607" r="14.25" fill="white" stroke="black" stroke-width="1.5"/>
<rect x="48.5" y="41.2607" width="1.5" height="11" fill="#050505"/>
<rect x="43.5" y="47.2607" width="1.5" height="11" transform="rotate(-90 43.5 47.2607)" fill="#050505"/>
</svg>
