<svg xmlns="http://www.w3.org/2000/svg" width="35" height="35" viewBox="0 0 35 35"><path fill="#333" fill-rule="evenodd" d="M17.5 34.998c-9.665 0-17.5-7.835-17.5-17.5s7.835-17.5 17.5-17.5S35 7.833 35 17.498s-7.835 17.5-17.5 17.5Zm-3.357-19.456c.268.98.575 3.272.69 3.977l-.019-.019.014.016c.046.339.134.551.266.679.138.127.326.176.571.206.292-.03.489-.098.623-.294.08-.127.134-.323.159-.597l.094-1.137v-.019l-.019-.177-.029-.166-.029-.172-.03-.162-.029-.17-.029-.161-.028-.161-.029-.166-.027-.157-.029-.147-.028-.147v-.135l-.029-.133-.029-.131-.014-.123-.029-.114-.029-.098-.029-.166-.045-.164-.043-.176-.043-.177-.012-.192-.05-.199-.043-.205-.051-.206-.029-.206-.041-.211-.029-.209-.016-.236-.014-.206-.01-.223v-.394l.019-.206.034-.205.044-.206.057-.196.087-.19.101-.182.038-.073a2.942 2.942 0 0 0-.661-.074c-.105 0-.191 0-.287.015-2.232.197-1.322 2.778-.939 4.195Zm2.134-6.818c-.187-.457-.518-.766-1.022-.766-.071 0-.129 0-.172.015-.647.108-.935.764-.905 1.577.014.764.3 1.401.89 1.548l.027-.059.001-.009c.087.03.171.045.271.045.46 0 .757-.251.92-.632a2.37 2.37 0 0 0 .147-.926 2.652 2.652 0 0 0-.157-.793Zm1.815-1.722h-.009c-.872 0-1.275.823-1.275 1.822 0 .998.403 1.802 1.281 1.802v-.025c.858-.004 1.268-.808 1.268-1.791 0-.987-.403-1.808-1.265-1.808Zm-.008 3.979c-.965 0-1.517.322-1.794.842-.445.793-.245 2.017 0 3.046l-.002-.059v-.016c.081.353.161.676.227.955.273 1.132.539 3.764.637 4.573.094.808.374.969.93 1.028.551-.043.83-.22.924-1.013.093-.793.364-3.426.63-4.557.065-.274.153-.598.23-.941.247-1.028.446-2.242 0-3.036-.284-.5-.829-.822-1.782-.822Zm2.948-3.023c-.058-.016-.115-.016-.173-.016-.517 0-.853.323-1.025.774a2.348 2.348 0 0 0-.144.803c-.019.353.029.676.144.94.153.392.46.647.92.647l.028-.049.01.018c.086 0 .172-.014.259-.03.575-.147.862-.778.891-1.528.028-.793-.259-1.469-.91-1.559Zm.008 3.471c-.1-.014-.187-.014-.287-.014l.011-.049.013-.027c-.259 0-.489.029-.676.073l.043.074.101.19.072.196.057.205.043.206.029.206.015.225v.431l-.015.225v.164l-.029.212-.028.209-.042.209-.044.205-.043.206-.043.202-.048.196-.048.192-.057.191-.048.177-.029.176-.048.165-.017.088-.029.117-.028.135-.025.131-.015.129-.028.118v.029l-.029.147-.029.147-.019.16-.029.164-.019.162-.029.161-.019.176-.012.162-.014.176-.013.177-.016.176v.014c.043.485.071.911.086 1.146.029.281.072.47.159.603.134.196.335.265.632.294.249-.029.431-.069.575-.216.144-.117.22-.336.278-.675.115-.689.421-2.988.68-3.97.383-1.42 1.294-3.999-.939-4.196Zm3.071.855a9.618 9.618 0 0 0-.646-.034l-.011.023-.043.044c.242-.025.467-.022.7-.033 3.706.311 5.723 2.802 3.148 6.141-1.265 1.633-3.382 3.249-6.218 4.279l-.402.147c-.278.087-.537.175-.795.25-.623.176-1.208.338-1.782.455-.623.138-1.227.226-1.802.294-.421.049-.824.079-1.197.079-2.632.078-4.616-.657-5.26-2.234-.776-1.88.788-4.495 3.938-6.493-2.328.95-6.554 3.222-6.741 6.435v.411c.015.343.071.666.186 1.019.678 2.174 3.842 3.203 7.866 2.84.39-.029.793-.071 1.198-.137a18.07 18.07 0 0 0 1.782-.352c.58-.128 1.178-.304 1.787-.5l.402-.127c.273-.089.534-.177.791-.279 3.494-1.293 6.084-3.012 7.594-4.998.862-1.128 1.308-2.186 1.394-3.115v-.718c-.233-2.207-2.6-3.538-5.889-3.397Z"/></svg>