<svg width="18" height="19" viewBox="0 0 18 19" fill="none" xmlns="http://www.w3.org/2000/svg">
<path fill-rule="evenodd" clip-rule="evenodd" d="M4.79907 15.1676C4.24679 15.1676 3.79907 14.7198 3.79907 14.1676V4.69922C3.79907 4.14694 4.24679 3.69922 4.79907 3.69922H12.7089C13.2612 3.69922 13.7089 4.14693 13.7089 4.69922V10.1173H14.7089V4.69922C14.7089 3.59465 13.8134 2.69922 12.7089 2.69922H4.79907C3.6945 2.69922 2.79907 3.59465 2.79907 4.69922V14.1676C2.79907 15.2721 3.6945 16.1676 4.79907 16.1676H8.76858V15.1676H4.79907ZM11.9565 15.2502C13.117 15.2502 14.0577 14.3094 14.0577 13.1489C14.0577 11.9885 13.117 11.0477 11.9565 11.0477C10.796 11.0477 9.85523 11.9885 9.85523 13.1489C9.85523 14.3094 10.796 15.2502 11.9565 15.2502ZM11.9565 16.2502C13.6693 16.2502 15.0577 14.8617 15.0577 13.1489C15.0577 11.4362 13.6693 10.0477 11.9565 10.0477C10.2437 10.0477 8.85523 11.4362 8.85523 13.1489C8.85523 14.8617 10.2437 16.2502 11.9565 16.2502ZM13.3648 12.706C13.5483 12.4997 13.5297 12.1836 13.3233 12.0002C13.1169 11.8167 12.8008 11.8353 12.6174 12.0417L11.6128 13.1719L11.2973 12.817C11.1138 12.6106 10.7978 12.592 10.5914 12.7755C10.385 12.9589 10.3664 13.275 10.5499 13.4814L11.239 14.2567C11.3339 14.3634 11.4699 14.4245 11.6128 14.4245C11.7556 14.4245 11.8916 14.3634 11.9865 14.2567L13.3648 12.706ZM5.39763 6.47915C5.39763 6.20301 5.62149 5.97915 5.89763 5.97915H11.6123C11.8884 5.97915 12.1123 6.20301 12.1123 6.47915C12.1123 6.7553 11.8884 6.97915 11.6123 6.97915H5.89763C5.62149 6.97915 5.39763 6.7553 5.39763 6.47915ZM5.89771 8.03597C5.62156 8.03597 5.39771 8.25983 5.39771 8.53597C5.39771 8.81212 5.62156 9.03597 5.89771 9.03597H11.6124C11.8885 9.03597 12.1124 8.81212 12.1124 8.53597C12.1124 8.25983 11.8885 8.03597 11.6124 8.03597H5.89771Z" fill="#555555"/>
</svg>
