<svg width="18" height="18" viewBox="0 0 18 18" fill="none" xmlns="http://www.w3.org/2000/svg">
<path d="M7.85712 17.7827C8.22152 17.9265 8.6085 17.9992 8.99699 18.0007C9.38548 18.0007 9.77397 17.9296 10.1399 17.7858C14.3365 15.3124 17.7787 9.21558 18 4.27191C17.7561 0.244947 11.8745 -0.0163036 9 0.000700816C6.18421 -0.0163036 0.237912 0.333061 0 4.27346C0.222854 9.21558 3.66204 15.3094 7.85712 17.7827Z" fill="#FB255B"/>
<path d="M9.19874 0.294434C9.09786 0.294434 9.00149 0.294434 8.90662 0.294434C8.83736 0.294434 8.76659 0.294434 8.69431 0.294434C5.92821 0.294434 0.581212 0.637615 0.359863 4.17918C0.46075 6.33102 0.998311 8.65445 2.29629 10.8326C4.76124 6.85507 17.8072 4.18846 17.104 2.8652C15.7187 0.513946 11.7028 0.294434 9.19874 0.294434Z" fill="#EB7A8C"/>
<path d="M8.96756 13.9059L8.98864 13.8812C10.8799 11.7541 12.3555 10.0938 14.2483 7.9667C14.834 7.30816 15.2271 6.95416 14.6774 6.2678L13.5316 4.83788L10.7218 4.09277H7.21634L4.40657 4.83788C3.97592 5.37429 3.66875 5.75767 3.2381 6.29408C2.82853 6.80267 3.20497 7.40401 3.63863 7.89095L8.94798 13.8796L8.96906 13.9044L8.96756 13.9059Z" fill="white"/>
<path d="M13.4618 5.08504C12.861 5.51479 12.1096 5.70339 11.3462 5.86725C11.7422 5.83169 11.9485 5.81314 12.3445 5.77604C12.6035 5.75285 12.8023 5.71884 12.983 5.90744L13.8578 6.81177C13.6801 6.48095 13.5025 6.15014 13.3263 5.81933C13.2164 5.61373 13.2118 5.61836 13.3112 5.40658C13.3624 5.29992 13.4121 5.19171 13.4633 5.0835" fill="#FC255C"/>
<path d="M4.25049 7.67259C4.71878 7.77926 4.79257 7.79626 5.26086 7.90292C5.56804 7.97249 6.0544 7.90602 6.19143 7.61694L6.69285 6.56885C6.64918 7.28458 6.27425 8.15026 7.07532 8.31567L8.54796 8.84281C7.9065 8.79025 7.32076 8.61402 7.05424 8.77015C6.74104 8.95256 6.92926 9.25555 7.02262 9.47816L8.33565 12.6008C7.50145 11.0348 6.77416 9.83061 5.72765 8.80416C5.30152 8.38833 4.80461 8.09616 4.2535 7.67259" fill="#FC255C"/>
<path d="M4.47459 5.08504C4.99559 5.47151 5.78913 5.67401 6.59171 5.86725C6.18515 5.83015 5.78009 5.79305 5.37354 5.75595C5.20589 5.74049 5.06285 5.79459 4.94439 5.91826L4.08008 6.81177C4.26981 6.45931 4.45803 6.10531 4.64775 5.75131C4.72455 5.60909 4.72154 5.61527 4.65378 5.46842C4.59355 5.34011 4.53332 5.21335 4.47459 5.0835" fill="#FC255C"/>
<path d="M8.98479 7.96356L8.96672 8.04549L8.95166 7.96356C8.87487 7.591 8.79657 7.21845 8.71827 6.8459C8.62792 6.40842 8.66255 6.4177 8.24696 6.28784C7.88256 6.17345 7.51816 6.0606 7.15527 5.94775C8.36441 6.16263 9.57204 6.16263 10.7812 5.94775C9.10977 6.46871 9.35069 6.20591 8.98479 7.96356Z" fill="#FC255C"/>
<path d="M13.8184 7.67308C13.3501 7.77974 13.2764 7.79675 12.8081 7.90341C12.5009 7.97298 12.0145 7.90651 11.8775 7.61743L11.3776 6.56934C11.4197 7.28507 11.7962 8.15075 10.9951 8.31616L9.52246 8.8433C10.1624 8.79074 10.7497 8.61451 11.0162 8.77064C11.3294 8.95305 11.1412 9.25604 11.0478 9.47865L9.73477 12.6013C10.569 11.0353 11.2963 9.8311 12.3428 8.80465C12.7689 8.38881 13.2658 8.09665 13.8169 7.67308" fill="#FC255C"/>
</svg>
