<svg width="49" height="48" viewBox="0 0 49 48" fill="none" xmlns="http://www.w3.org/2000/svg">
<path fill-rule="evenodd" clip-rule="evenodd" d="M4 24C4 35.3217 13.1782 44.5001 24.5 44.5001C35.8218 44.5001 45 35.3217 45 24C45 12.678 35.8219 3.5 24.5 3.5C13.1782 3.5 4 12.678 4 24ZM2.5 24C2.5 36.1501 12.3498 46.0001 24.5 46.0001C36.6503 46.0001 46.5 36.1501 46.5 24C46.5 11.8495 36.6503 2 24.5 2C12.3498 2 2.5 11.8495 2.5 24ZM35.0217 19.6535L34.3591 20.2626L22.4662 31.1944L21.8571 31.7543L21.2481 31.1944L14.6409 25.1212L13.9783 24.5121L15.1965 23.1869L15.8591 23.796L21.8571 29.3094L33.1409 18.9374L33.8035 18.3283L35.0217 19.6535Z" fill="black"/>
</svg>
