<svg width="91" height="20" viewBox="0 0 91 20" fill="none" xmlns="http://www.w3.org/2000/svg">
<g clip-path="url(#clip0_1861_408002)">
<path d="M21.1576 1.31767L13.8606 18.7275H9.09987L5.50899 4.83366C5.29098 3.97789 5.10142 3.66437 4.4384 3.30383C3.35649 2.71658 1.56888 2.1659 -0.00390625 1.82393L0.10292 1.31767H7.76628C8.74311 1.31767 9.62123 1.96792 9.84301 3.09279L11.7395 13.167L16.4265 1.31767H21.1576ZM39.8114 13.0433C39.8305 8.44835 33.4575 8.19522 33.5013 6.14258C33.515 5.51787 34.1098 4.85369 35.4117 4.68416C36.0571 4.59969 37.8351 4.53524 39.8517 5.4633L40.6428 1.77139C39.5591 1.37805 38.1648 0.999512 36.4301 0.999512C31.9785 0.999512 28.8457 3.36595 28.8193 6.75451C28.7905 9.26087 31.0554 10.6595 32.7617 11.4923C34.5171 12.3452 35.1061 12.8933 35.0994 13.6561C35.0869 14.824 33.6993 15.3395 32.4026 15.3599C30.1389 15.3947 28.8254 14.7473 27.7783 14.2605L26.962 18.0746C28.0143 18.5574 29.9566 18.9786 31.9704 18.9998C36.7018 18.9998 39.7969 16.6627 39.8114 13.0433ZM51.5664 18.7278H55.7317L52.0959 1.31767H48.2513C47.3868 1.31767 46.6576 1.82103 46.3348 2.59494L39.5765 18.7275H44.3056L45.2447 16.1268H51.0229L51.5667 18.7275L51.5664 18.7278ZM46.5412 12.5589L48.9117 6.02211L50.276 12.5589H46.5415H46.5412ZM27.5928 1.31767L23.8687 18.7275H19.3651L23.0907 1.31767H27.5928Z" fill="#1434CB"/>
</g>
<g clip-path="url(#clip1_1861_408002)">
<path d="M89.5856 19.7269V19.7783H89.6335C89.6425 19.7785 89.6514 19.7762 89.6592 19.7718C89.6623 19.7696 89.6648 19.7666 89.6665 19.7632C89.6682 19.7597 89.669 19.7559 89.6688 19.7521C89.669 19.7484 89.6682 19.7446 89.6665 19.7413C89.6648 19.7379 89.6623 19.7351 89.6592 19.733C89.6515 19.7283 89.6425 19.726 89.6335 19.7264H89.5856V19.7269ZM89.634 19.6906C89.6546 19.6893 89.6749 19.6952 89.6916 19.7073C89.6983 19.7127 89.7036 19.7197 89.7071 19.7276C89.7106 19.7355 89.7122 19.7441 89.7118 19.7528C89.7121 19.7602 89.7108 19.7676 89.708 19.7745C89.7052 19.7814 89.701 19.7876 89.6956 19.7927C89.6827 19.8039 89.6666 19.8106 89.6496 19.8119L89.7138 19.8851H89.6643L89.6052 19.8124H89.5861V19.8851H89.5447V19.6907H89.6347L89.634 19.6906ZM89.6212 19.9522C89.6429 19.9524 89.6644 19.9481 89.6843 19.9394C89.7034 19.9311 89.7209 19.9193 89.7357 19.9045C89.7505 19.8898 89.7623 19.8724 89.7705 19.8531C89.7874 19.8124 89.7874 19.7666 89.7705 19.7259C89.7622 19.7068 89.7504 19.6893 89.7357 19.6745C89.7209 19.6597 89.7034 19.6479 89.6843 19.6397C89.6642 19.6315 89.6428 19.6274 89.6212 19.6276C89.5992 19.6274 89.5773 19.6315 89.5569 19.6397C89.5373 19.6478 89.5194 19.6596 89.5043 19.6745C89.4816 19.6978 89.4662 19.7273 89.4601 19.7593C89.454 19.7913 89.4575 19.8244 89.47 19.8544C89.4778 19.8737 89.4895 19.8912 89.5043 19.9058C89.5194 19.9207 89.5373 19.9325 89.5569 19.9407C89.5772 19.9493 89.5991 19.9537 89.6212 19.9535M89.6212 19.5808C89.6776 19.5807 89.7319 19.6029 89.7722 19.6425C89.7916 19.6615 89.8071 19.6842 89.8177 19.7092C89.8287 19.7349 89.8343 19.7625 89.8343 19.7905C89.8343 19.8184 89.8287 19.8461 89.8177 19.8718C89.8068 19.8967 89.7914 19.9193 89.7722 19.9385C89.7525 19.9574 89.7295 19.9726 89.7044 19.9835C89.6781 19.9946 89.6498 20.0003 89.6212 20.0002C89.5922 20.0004 89.5635 19.9947 89.5368 19.9835C89.5115 19.9729 89.4883 19.9576 89.4686 19.9385C89.4494 19.9186 89.4342 19.8952 89.4237 19.8696C89.4128 19.8439 89.4071 19.8162 89.4071 19.7883C89.4071 19.7604 89.4128 19.7327 89.4237 19.707C89.4344 19.682 89.4498 19.6593 89.4692 19.6403C89.4887 19.6208 89.5119 19.6055 89.5375 19.5953C89.5642 19.5841 89.5929 19.5784 89.6218 19.5786M69.942 18.8299C69.942 18.4591 70.1849 18.1545 70.5819 18.1545C70.9613 18.1545 71.2173 18.446 71.2173 18.8299C71.2173 19.2137 70.9613 19.5052 70.5819 19.5052C70.1849 19.5052 69.942 19.2006 69.942 18.8299ZM71.6498 18.8299V17.7747H71.1911V18.0317C71.0456 17.8418 70.8249 17.7226 70.5248 17.7226C69.9336 17.7226 69.4696 18.1863 69.4696 18.8304C69.4696 19.4744 69.9334 19.9381 70.5248 19.9381C70.8248 19.9381 71.0456 19.8188 71.1911 19.629V19.8851H71.6492V18.8299H71.6498ZM87.1484 18.8299C87.1484 18.4591 87.3913 18.1545 87.7884 18.1545C88.1682 18.1545 88.4239 18.446 88.4239 18.8299C88.4239 19.2137 88.1682 19.5052 87.7884 19.5052C87.3914 19.5052 87.1484 19.2006 87.1484 18.8299ZM88.8567 18.8299V16.9277H88.3976V18.0317C88.2522 17.8418 88.0315 17.7226 87.7314 17.7226C87.1402 17.7226 86.6762 18.1863 86.6762 18.8304C86.6762 19.4744 87.1399 19.9381 87.7314 19.9381C88.0315 19.9381 88.2522 19.8188 88.3976 19.629V19.8851H88.8567V18.8299ZM77.3427 18.1328C77.6383 18.1328 77.8282 18.3181 77.8766 18.6444H76.7821C76.8311 18.3398 77.016 18.1328 77.3429 18.1328M77.352 17.7215C76.7338 17.7215 76.3013 18.1713 76.3013 18.8292C76.3013 19.5 76.7512 19.9369 77.3827 19.9369C77.7004 19.9369 77.9914 19.8576 78.2474 19.6413L78.0226 19.3014C77.8458 19.4428 77.6206 19.5221 77.4089 19.5221C77.1133 19.5221 76.8442 19.3852 76.778 19.0054H78.3443C78.3488 18.9483 78.3534 18.8908 78.3534 18.8291C78.3488 18.1714 77.9422 17.7214 77.3517 17.7214M82.8897 18.8291C82.8897 18.4583 83.1326 18.1537 83.5296 18.1537C83.909 18.1537 84.165 18.4452 84.165 18.8291C84.165 19.213 83.909 19.5045 83.5296 19.5045C83.1326 19.5045 82.8896 19.1999 82.8896 18.8291M84.5974 18.8291V17.7747H84.139V18.0317C83.993 17.8418 83.7728 17.7226 83.4727 17.7226C82.8815 17.7226 82.4175 18.1863 82.4175 18.8304C82.4175 19.4744 82.8812 19.9381 83.4727 19.9381C83.7728 19.9381 83.993 19.8188 84.139 19.629V19.8851H84.5975V18.8299L84.5974 18.8291ZM80.2994 18.8291C80.2994 19.469 80.7448 19.9368 81.4247 19.9368C81.7424 19.9368 81.9541 19.8661 82.183 19.6853L81.9627 19.3145C81.7905 19.4383 81.6096 19.5045 81.4101 19.5045C81.0439 19.5 80.7746 19.2352 80.7746 18.8291C80.7746 18.423 81.0439 18.1583 81.4101 18.1537C81.6091 18.1537 81.79 18.2199 81.9627 18.3437L82.183 17.9729C81.9537 17.792 81.742 17.7214 81.4247 17.7214C80.7448 17.7214 80.2994 18.189 80.2994 18.8291ZM86.2126 17.7214C85.948 17.7214 85.7757 17.8451 85.6565 18.0304V17.7747H85.202V19.884H85.6612V18.7016C85.6612 18.3525 85.8111 18.1586 86.111 18.1586C86.2092 18.1572 86.3067 18.1752 86.3978 18.2117L86.5392 17.7793C86.4377 17.7393 86.3053 17.7217 86.2124 17.7217M73.9175 17.9424C73.6968 17.7969 73.3928 17.7217 73.0573 17.7217C72.5229 17.7217 72.1789 17.9779 72.1789 18.397C72.1789 18.7409 72.435 18.9531 72.9067 19.0193L73.1234 19.0501C73.3749 19.0855 73.4937 19.1517 73.4937 19.2708C73.4937 19.4339 73.3266 19.527 73.0129 19.527C72.6951 19.527 72.4659 19.4254 72.3113 19.3063L72.0957 19.664C72.3472 19.8493 72.6649 19.9377 73.009 19.9377C73.6182 19.9377 73.9712 19.6508 73.9712 19.2492C73.9712 18.8784 73.6934 18.6845 73.2343 18.6183L73.0181 18.5869C72.8196 18.5612 72.6604 18.5213 72.6604 18.3799C72.6604 18.2257 72.8104 18.1329 73.0621 18.1329C73.3313 18.1329 73.592 18.2344 73.7197 18.3137L73.9183 17.9429L73.9175 17.9424ZM79.8361 17.7221C79.5714 17.7221 79.3991 17.8459 79.2805 18.0312V17.7747H78.8259V19.884H79.2846V18.7016C79.2846 18.3525 79.4346 18.1586 79.7344 18.1586C79.8326 18.1572 79.9301 18.1752 80.0213 18.2117L80.1626 17.7793C80.0611 17.7393 79.9287 17.7217 79.8358 17.7217M75.9218 17.7747H75.1718V17.1348H74.7081V17.7747H74.2802V18.1939H74.7081V19.1562C74.7081 19.6456 74.898 19.9371 75.4406 19.9371C75.6397 19.9371 75.869 19.8754 76.0145 19.774L75.882 19.3812C75.7451 19.4605 75.5951 19.5005 75.4758 19.5005C75.2466 19.5005 75.1718 19.3591 75.1718 19.1474V18.1943H75.9218V17.7747ZM69.064 19.8845V18.5607C69.064 18.0622 68.7463 17.7268 68.2342 17.7223C67.9649 17.7178 67.6872 17.8016 67.4927 18.0975C67.3472 17.8636 67.118 17.7223 66.7956 17.7223C66.5703 17.7223 66.3502 17.7884 66.1778 18.0355V17.7747H65.7188V19.884H66.1814V18.7144C66.1814 18.3483 66.3845 18.1537 66.6981 18.1537C67.0027 18.1537 67.1568 18.3523 67.1568 18.7098V19.8837H67.6205V18.7142C67.6205 18.348 67.8322 18.1534 68.1366 18.1534C68.4498 18.1534 68.5993 18.352 68.5993 18.7096V19.8835L69.064 19.8845Z" fill="#231F20"/>
<path d="M89.8452 12.868V12.5596H89.7649L89.672 12.7712L89.5796 12.5596H89.499V12.868H89.5561V12.6357L89.643 12.8361H89.7021L89.789 12.6351V12.868H89.8455H89.8452ZM89.3357 12.868V12.6124H89.4385V12.5603H89.1758V12.6124H89.2786V12.868H89.3351H89.3357Z" fill="#F79410"/>
<path d="M80.7168 14.1905H73.7656V1.69824H80.717L80.7168 14.1905Z" fill="#FF5F00"/>
<path d="M74.2058 7.94482C74.2058 5.41076 75.3923 3.15341 77.2399 1.69868C75.8413 0.595894 74.1115 -0.00262296 72.3305 8.6411e-06C67.9432 8.6411e-06 64.3867 3.55697 64.3867 7.94482C64.3867 12.3327 67.9432 15.8896 72.3305 15.8896C74.1116 15.8923 75.8414 15.2938 77.24 14.191C75.3925 12.7365 74.2058 10.479 74.2058 7.94482Z" fill="#EB001B"/>
<path d="M90.0961 7.94482C90.0961 12.3327 86.5397 15.8896 82.1523 15.8896C80.3711 15.8922 78.641 15.2937 77.2422 14.191C79.0903 12.7362 80.2768 10.479 80.2768 7.94482C80.2768 5.41063 79.0903 3.15341 77.2422 1.69868C78.641 0.595928 80.371 -0.00257683 82.1522 8.33969e-06C86.5396 8.33969e-06 90.096 3.55697 90.096 7.94482" fill="#F79E1B"/>
</g>
<defs>
<clipPath id="clip0_1861_408002">
<rect width="55.7356" height="18" fill="white" transform="translate(-0.00390625 1)"/>
</clipPath>
<clipPath id="clip1_1861_408002">
<rect width="27.2699" height="20" fill="white" transform="translate(63.7305)"/>
</clipPath>
</defs>
</svg>
