<svg width="64" height="64" viewBox="0 0 64 64" fill="none" xmlns="http://www.w3.org/2000/svg">
<g clip-path="url(#clip0_11687_144932)">
<path fill-rule="evenodd" clip-rule="evenodd" d="M11.75 2C10.23 2 9 3.23 9 4.75V59.25C9 60.77 10.23 62 11.75 62H52.25C53.77 62 55 60.77 55 59.25V19V18.98V4.75C55 3.23 53.77 2 52.25 2H11.75ZM53.5 18.25V4.75C53.5 4.06 52.94 3.5 52.25 3.5H11.75C11.06 3.5 10.5 4.06 10.5 4.75V18.25H53.5ZM10.5 19.75V59.25C10.5 59.94 11.06 60.5 11.75 60.5H52.25C52.94 60.5 53.5 59.94 53.5 59.25V19.75H10.5ZM30.25 10.89C30.25 9.92 31.03 9.14 32 9.14C32.97 9.14 33.75 9.92 33.75 10.89C33.75 11.86 32.97 12.64 32 12.64C31.03 12.64 30.25 11.86 30.25 10.89ZM15.82 10.81C15.82 10.4 16.16 10.06 16.57 10.06H24.57C24.98 10.06 25.32 10.4 25.32 10.81C25.32 11.22 24.98 11.56 24.57 11.56H16.58C16.17 11.56 15.83 11.22 15.83 10.81H15.82ZM38.67 10.81C38.67 10.4 39.01 10.06 39.42 10.06H47.42C47.83 10.06 48.17 10.4 48.17 10.81C48.17 11.22 47.83 11.56 47.42 11.56H39.42C39.01 11.56 38.67 11.22 38.67 10.81ZM20.74 40C20.74 33.79 25.78 28.75 31.99 28.75C38.2 28.75 43.24 33.79 43.24 40C43.24 46.21 38.2 51.25 31.99 51.25C25.78 51.25 20.74 46.21 20.74 40ZM31.99 27.25C24.95 27.25 19.24 32.96 19.24 40C19.24 47.04 24.95 52.75 31.99 52.75C39.03 52.75 44.74 47.04 44.74 40C44.74 32.96 39.03 27.25 31.99 27.25Z" fill="black"/>
<path d="M33.4844 39.8799C33.4844 41.5399 32.1444 42.8799 30.4844 42.8799C28.8244 42.8799 27.4844 41.5399 27.4844 39.8799C27.4844 36.5699 30.1744 33.8799 33.4844 33.8799C36.7944 33.8799 39.4844 36.5699 39.4844 39.8799" stroke="black" stroke-width="1.5" stroke-miterlimit="10" stroke-linecap="round"/>
<path d="M30.5234 39.7803C30.5234 38.1203 31.8634 36.7803 33.5234 36.7803C35.1834 36.7803 36.5234 38.1203 36.5234 39.7803C36.5234 43.0903 33.8334 45.7803 30.5234 45.7803C27.2134 45.7803 24.5234 43.0903 24.5234 39.7803" stroke="black" stroke-width="1.5" stroke-miterlimit="10" stroke-linecap="round"/>
</g>
<defs>
<clipPath id="clip0_11687_144932">
<rect width="46" height="60" fill="white" transform="translate(9 2)"/>
</clipPath>
</defs>
</svg>
