<svg width="34" height="44" viewBox="0 0 34 44" fill="none" xmlns="http://www.w3.org/2000/svg">
<path fill-rule="evenodd" clip-rule="evenodd" d="M8.29739 10.7557C8.29739 5.64393 12.4413 1.5 17.5531 1.5C22.6649 1.5 26.8089 5.64393 26.8089 10.7557C26.8089 15.8675 22.6649 20.0115 17.5531 20.0115C12.4413 20.0115 8.29739 15.8675 8.29739 10.7557ZM17.5531 0C11.6129 0 6.79739 4.8155 6.79739 10.7557C6.79739 11.4327 6.85993 12.0951 6.97955 12.7373L1.27763 16.0277C1.19104 16.0769 1.11336 16.1438 1.05062 16.2268C1.01687 16.2714 0.988211 16.3196 0.965181 16.3705C0.918091 16.4743 0.89658 16.5843 0.898563 16.6927V34.3875C0.898563 34.6555 1.04157 34.9032 1.2737 35.0371L16.6328 43.9003C16.7838 43.9874 16.9576 44.0178 17.1245 43.9916C17.2353 43.9749 17.3382 43.9339 17.4276 43.8743L32.7237 35.0369C32.9556 34.9029 33.0985 34.6554 33.0985 34.3875V16.6927C33.1005 16.5841 33.0789 16.474 33.0317 16.3701C33.0086 16.3193 32.98 16.2712 32.9463 16.2267C32.8837 16.1438 32.8061 16.0769 32.7197 16.0278L28.0052 13.304C28.2037 12.4871 28.3089 11.6337 28.3089 10.7557C28.3089 4.8155 23.4933 0 17.5531 0ZM27.5365 14.7656C25.9468 18.7198 22.076 21.5115 17.5531 21.5115C12.8328 21.5115 8.82267 18.4707 7.37469 14.2412L3.14902 16.6796L17.0075 24.6768L30.8494 16.6796L27.5365 14.7656ZM18.18 12.0077H16.5718L16.5583 14.3929C16.5559 14.8071 16.2182 15.141 15.804 15.1387C15.3898 15.1363 15.0559 14.7986 15.0583 14.3844L15.0725 11.879C15.0601 11.8516 15.0533 11.8212 15.0533 11.7892V7.22345C15.0533 7.10274 15.1511 7.00488 15.2718 7.00488H18.18C19.5615 7.00488 20.6815 8.12481 20.6815 9.50632C20.6815 10.8878 19.5615 12.0077 18.18 12.0077ZM16.5916 8.50488L16.5803 10.5077H18.18C18.7331 10.5077 19.1815 10.0594 19.1815 9.50632C19.1815 8.95324 18.7331 8.50488 18.18 8.50488H16.5916ZM17.7618 41.9488L31.5985 33.9547V17.9792L17.7618 25.9733V41.9488ZM16.2618 25.9784V41.9544L2.39856 33.9544V17.9784L16.2618 25.9784Z" fill="#666666"/>
</svg>
