<svg width="81" height="80" viewBox="0 0 81 80" fill="none" xmlns="http://www.w3.org/2000/svg">
<path fill-rule="evenodd" clip-rule="evenodd" d="M14.3203 11C12.2492 11 10.5703 12.6789 10.5703 14.75V64.75C10.5703 66.8211 12.2492 68.5 14.3203 68.5H48.3203C49.5472 68.5 50.6364 67.9108 51.3206 67H48.5703V66.9863C48.4882 66.9953 48.4048 67 48.3203 67H14.3203C13.0777 67 12.0703 65.9926 12.0703 64.75V14.75C12.0703 13.5074 13.0777 12.5 14.3203 12.5H48.3203C49.563 12.5 50.5703 13.5074 50.5703 14.75V24H52.0703V14.75C52.0703 12.6789 50.3914 11 48.3203 11H14.3203Z" fill="black"/>
<circle cx="31.3203" cy="60.75" r="2" stroke="black" stroke-width="1.5"/>
<path d="M30.3203 16.75H36.8203" stroke="black" stroke-width="1.5" stroke-linecap="round"/>
<path d="M27.3203 16.75L26.3203 16.75" stroke="black" stroke-width="1.5" stroke-linecap="round"/>
<path d="M58.3203 27.75L61.3203 27.75" stroke="black" stroke-width="1.5" stroke-linecap="round"/>
<path d="M54.3203 27.75L55.3203 27.75" stroke="black" stroke-width="1.5" stroke-linecap="round"/>
<rect x="45.3203" y="23.75" width="26" height="44" rx="3" stroke="black" stroke-width="1.5"/>
</svg>
