<svg width="20" height="20" viewBox="0 0 20 20" fill="none" xmlns="http://www.w3.org/2000/svg">
<path d="M13.9269 5.31934C13.9172 5.37869 13.9062 5.43936 13.8937 5.5017C13.466 7.60746 12.0028 8.3349 10.134 8.3349H9.18249C8.95393 8.3349 8.76138 8.49401 8.72577 8.71024L8.2386 11.6731L8.10065 12.5129C8.07749 12.6548 8.19154 12.7828 8.34093 12.7828H10.0285C10.2284 12.7828 10.3982 12.6435 10.4296 12.4546L10.4462 12.3723L10.764 10.4386L10.7844 10.3326C10.8155 10.1429 10.9856 10.0036 11.1854 10.0036H11.4378C13.0729 10.0036 14.3529 9.36707 14.727 7.5249C14.8833 6.75535 14.8024 6.11279 14.3888 5.66085C14.2637 5.52458 14.1084 5.41151 13.9269 5.31934Z" fill="#179BD7"/>
<path d="M13.4803 5.14916C13.415 5.13093 13.3476 5.11435 13.2784 5.09943C13.2089 5.08484 13.1377 5.07191 13.0644 5.06064C12.8078 5.02085 12.5267 5.00195 12.2256 5.00195H9.68362C9.62106 5.00195 9.56156 5.01554 9.50834 5.04008C9.39112 5.09412 9.30401 5.20056 9.2829 5.33086L8.74212 8.61529L8.72656 8.71113C8.76217 8.49496 8.95478 8.33579 9.18334 8.33579H10.1348C12.0036 8.33579 13.4668 7.60801 13.8946 5.50261C13.9073 5.44027 13.9181 5.3796 13.9277 5.32025C13.8195 5.26521 13.7023 5.21813 13.5761 5.17801C13.545 5.16806 13.5128 5.15845 13.4803 5.14916Z" fill="#222D65"/>
<path d="M9.28109 5.33004C9.3022 5.19973 9.38931 5.0933 9.50654 5.03959C9.56015 5.01505 9.61926 5.00146 9.68181 5.00146H12.2238C12.525 5.00146 12.806 5.02036 13.0626 5.06014C13.1359 5.07142 13.2071 5.08435 13.2766 5.09894C13.3458 5.11386 13.4132 5.13044 13.4785 5.14867C13.511 5.15795 13.5432 5.16757 13.5746 5.17719C13.7009 5.21731 13.8181 5.26472 13.9263 5.31943C14.0535 4.54125 13.9253 4.01142 13.4865 3.53164C13.0028 3.00347 12.1298 2.77734 11.0126 2.77734H7.76948C7.54126 2.77734 7.34659 2.93649 7.31137 3.153L5.96048 11.3641C5.93386 11.5266 6.06456 11.6731 6.23537 11.6731H8.23759L8.74037 8.61451L9.28109 5.33004Z" fill="#253B80"/>
<path d="M3.72567 13.7236H2.45016C2.36287 13.7236 2.28865 13.7817 2.27503 13.8606L1.75915 16.8546C1.7489 16.9136 1.79888 16.9669 1.86434 16.9669H2.47328C2.56057 16.9669 2.6348 16.9089 2.64841 16.8298L2.78755 16.0222C2.80097 15.9432 2.87539 15.8852 2.96249 15.8852H3.36627C4.20648 15.8852 4.6914 15.513 4.81803 14.7755C4.87511 14.4528 4.82046 14.1992 4.6554 14.0217C4.47412 13.8267 4.15258 13.7236 3.72567 13.7236ZM3.87282 14.8171C3.80307 15.2361 3.45337 15.2361 3.11524 15.2361H2.92276L3.0578 14.4536C3.06581 14.4064 3.11057 14.3715 3.1628 14.3715H3.25101C3.48135 14.3715 3.69863 14.3715 3.81091 14.4917C3.87786 14.5634 3.89838 14.67 3.87282 14.8171Z" fill="#253B80"/>
<path d="M7.53161 14.7264H6.90305C6.8495 14.7264 6.80322 14.7637 6.795 14.8144L6.76716 14.9822L6.72316 14.9214C6.58711 14.7329 6.28366 14.6699 5.9808 14.6699C5.2862 14.6699 4.69294 15.1719 4.5774 15.876C4.51732 16.2273 4.60273 16.5631 4.81155 16.7973C5.0031 17.0126 5.27717 17.1024 5.60327 17.1024C6.16294 17.1024 6.47327 16.759 6.47327 16.759L6.44527 16.9257C6.43472 16.9894 6.48616 17.0465 6.55316 17.0465H7.11933C7.20933 17.0465 7.28533 16.9843 7.29955 16.8995L7.63927 14.8469C7.65 14.7836 7.59877 14.7264 7.53161 14.7264ZM6.65544 15.8936C6.59477 16.2362 6.30977 16.4662 5.94625 16.4662C5.76372 16.4662 5.61786 16.4104 5.52419 16.3045C5.4313 16.1994 5.39598 16.0498 5.42554 15.8831C5.48216 15.5435 5.77197 15.3059 6.12994 15.3059C6.30844 15.3059 6.4535 15.3625 6.54911 15.4693C6.64489 15.5771 6.68289 15.7277 6.65544 15.8936Z" fill="#253B80"/>
<path d="M10.6172 14.8047H10.0055C9.94716 14.8047 9.89233 14.8318 9.85927 14.8772L9.01566 16.0394L8.65805 14.9226C8.63555 14.8527 8.5666 14.8047 8.48855 14.8047H7.88749C7.81444 14.8047 7.76372 14.8715 7.78694 14.9358L8.46066 16.785L7.82727 17.6212C7.77744 17.6871 7.82766 17.7777 7.91372 17.7777H8.5246C8.5826 17.7777 8.63688 17.7513 8.66977 17.7068L10.7042 14.9603C10.7529 14.8946 10.7029 14.8047 10.6172 14.8047Z" fill="#253B80"/>
<path d="M12.6012 13.7236H11.3834C11.3002 13.7236 11.2294 13.7817 11.2164 13.8606L10.7239 16.8546C10.7142 16.9136 10.7618 16.9669 10.824 16.9669H11.4489C11.5069 16.9669 11.5566 16.9262 11.5657 16.871L11.7054 16.0222C11.7183 15.9432 11.7893 15.8852 11.8724 15.8852H12.2577C13.0599 15.8852 13.5227 15.513 13.6437 14.7755C13.6984 14.4528 13.6459 14.1992 13.4883 14.0217C13.3154 13.8267 13.0087 13.7236 12.6012 13.7236ZM12.7416 14.8171C12.6752 15.2361 12.3414 15.2361 12.0184 15.2361H11.8349L11.9639 14.4536C11.9716 14.4064 12.014 14.3715 12.064 14.3715H12.1482C12.3679 14.3715 12.5755 14.3715 12.6827 14.4917C12.7466 14.5634 12.766 14.67 12.7416 14.8171Z" fill="#179BD7"/>
<path d="M16.3646 14.7264H15.7649C15.7135 14.7264 15.6696 14.7637 15.662 14.8144L15.6354 14.9822L15.5932 14.9214C15.4634 14.7329 15.1739 14.6699 14.8847 14.6699C14.2217 14.6699 13.6556 15.1719 13.5452 15.876C13.4881 16.2273 13.5692 16.5631 13.7686 16.7973C13.9518 17.0126 14.2131 17.1024 14.5244 17.1024C15.0586 17.1024 15.3549 16.759 15.3549 16.759L15.3281 16.9257C15.3181 16.9894 15.3672 17.0465 15.4315 17.0465H15.9718C16.0574 17.0465 16.1302 16.9843 16.1436 16.8995L16.4681 14.8469C16.478 14.7836 16.4289 14.7264 16.3646 14.7264ZM15.5282 15.8936C15.4707 16.2362 15.1982 16.4662 14.8512 16.4662C14.6774 16.4662 14.5377 16.4104 14.4484 16.3045C14.3596 16.1994 14.3263 16.0498 14.3542 15.8831C14.4086 15.5435 14.6849 15.3059 15.0266 15.3059C15.197 15.3059 15.3355 15.3625 15.4267 15.4693C15.5185 15.5771 15.5548 15.7277 15.5282 15.8936Z" fill="#179BD7"/>
<path d="M17.0236 13.8059L16.4702 16.8546C16.4593 16.9136 16.5122 16.9669 16.581 16.9669H17.1374C17.2298 16.9669 17.3083 16.9089 17.3225 16.8298L17.8683 13.8361C17.8791 13.7771 17.8263 13.7236 17.7575 13.7236H17.1344C17.0794 13.7238 17.0321 13.7586 17.0236 13.8059Z" fill="#179BD7"/>
</svg>
