<svg width="67" height="64" viewBox="0 0 67 64" fill="none" xmlns="http://www.w3.org/2000/svg">
<path fill-rule="evenodd" clip-rule="evenodd" d="M18.75 16H18V17.5H18.75H20.75L20.75 46.5H18.75H18V48H18.75H24.25H25V46.5H24.25H22.25L22.25 17.5H24.25H25V16H24.25H18.75ZM11.4971 19.9999H12.2471H16.75H17.5V21.4999H16.75H12.9971V42.4999H16.75H17.5V43.9999H16.75H12.2471H11.4971V43.2499V20.7499V19.9999ZM25.5 19.9999H26.25H54.7471H55.4971V20.7499V43.2499V43.9999H54.7471H26.25H25.5V42.4999H26.25H53.9971V21.4999H26.25H25.5V19.9999ZM31.2998 35.5498H30.5498V37.0498H31.2998H37.7998H38.5498V35.5498H37.7998H31.2998ZM42.2998 35.5498H41.5498V37.0498H42.2998H48.7998H49.5498V35.5498H48.7998H42.2998Z" fill="black"/>
</svg>
