<svg width="60" height="60" viewBox="0 0 60 60" fill="none" xmlns="http://www.w3.org/2000/svg">
<path fill-rule="evenodd" clip-rule="evenodd" d="M25.7949 5.79962C26.027 5.66568 26.3129 5.66576 26.545 5.79981L46.9233 17.5734C47.0407 17.6371 47.1426 17.733 47.2144 17.8572C47.2851 17.9796 47.3174 18.1137 47.315 18.2454V34.9414C47.0248 34.9117 46.7304 34.8965 46.4324 34.8965C46.2248 34.8965 46.0189 34.9039 45.815 34.9184V19.5319L26.924 30.4462V52.2564L38.1776 45.7546C38.3144 46.2483 38.4943 46.724 38.713 47.1776L26.6031 54.1741C26.4815 54.2591 26.3335 54.3089 26.174 54.3089C26.1274 54.3089 26.0818 54.3047 26.0375 54.2966C25.9534 54.2815 25.8712 54.252 25.7949 54.2079L5.37527 42.4245C5.14314 42.2906 5.00013 42.0429 5.00013 41.7749V18.2454C4.99772 18.1138 5.02994 17.9799 5.10052 17.8576C5.17234 17.7331 5.27444 17.637 5.39215 17.5732L25.7949 5.79962ZM16.75 25.4459L25.424 30.4513V52.262L6.50013 41.3418V19.5311L15.25 24.5803V33.9069C15.25 34.3211 15.5858 34.6569 16 34.6569C16.4142 34.6569 16.75 34.3211 16.75 33.9069V25.4459ZM16.0121 23.2491L34.8804 12.348L26.1695 7.31527L7.25083 18.2325L15.9472 23.2509C15.9647 23.2496 15.9823 23.249 16 23.249C16.004 23.249 16.0081 23.2491 16.0121 23.2491ZM36.3796 13.2141L45.0656 18.2325L26.1695 29.1497L17.4783 24.1344L36.3796 13.2141ZM46.4343 50.5307C50.3363 50.5307 53.4995 47.3676 53.4995 43.4656C53.4995 39.5636 50.3363 36.4004 46.4343 36.4004C42.5323 36.4004 39.3691 39.5636 39.3691 43.4656C39.3691 47.3676 42.5323 50.5307 46.4343 50.5307ZM46.4343 52.0307C51.1647 52.0307 54.9995 48.196 54.9995 43.4656C54.9995 38.7351 51.1647 34.9004 46.4343 34.9004C41.7039 34.9004 37.8691 38.7351 37.8691 43.4656C37.8691 48.196 41.7039 52.0307 46.4343 52.0307ZM42.7109 43.4658C42.7109 43.0516 43.0467 42.7158 43.4609 42.7158H45.7715V40.4062C45.7715 39.992 46.1073 39.6562 46.5215 39.6562C46.9357 39.6562 47.2715 39.992 47.2715 40.4062V42.7158H49.5789C49.9931 42.7158 50.3289 43.0516 50.3289 43.4658C50.3289 43.88 49.9931 44.2158 49.5789 44.2158H47.2715V46.5242C47.2715 46.9384 46.9357 47.2742 46.5215 47.2742C46.1073 47.2742 45.7715 46.9384 45.7715 46.5242V44.2158H43.4609C43.0467 44.2158 42.7109 43.88 42.7109 43.4658Z" fill="black"/>
</svg>
