<svg width="47" height="10" viewBox="0 0 47 10" fill="none" xmlns="http://www.w3.org/2000/svg">
<g clip-path="url(#clip0_5512_161626)">
<path fill-rule="evenodd" clip-rule="evenodd" d="M25.8352 3.04C26.1552 2.92 26.5152 2.84 26.9152 2.84C28.4752 2.84 29.3352 3.74 29.3352 4.7V8.28H28.0152V4.9C28.0152 4.42 27.6552 3.98 26.9352 3.98C26.3352 3.98 25.8352 4.36 25.8352 4.84V8.28H24.4952V0.5H25.8352V3.04ZM2.50801 0.680625H0.708008V8.46063H6.22801V6.94063H2.50801V0.680625ZM10.168 5.50063H11.628V6.86063C11.368 6.96063 10.828 7.06063 10.328 7.06063C8.70801 7.06063 8.16801 6.24063 8.16801 4.58063C8.16801 2.98063 8.68801 2.06063 10.288 2.06063C11.188 2.06063 11.708 2.34063 12.128 2.88063L13.248 1.86063C12.568 0.880625 11.368 0.580625 10.268 0.580625C7.74801 0.580625 6.42801 1.96063 6.42801 4.56063C6.42801 7.16063 7.62801 8.58063 10.248 8.58063C11.448 8.58063 12.628 8.28063 13.268 7.82063V4.04063H10.168V5.50063ZM18.0677 1.74H20.4677V8.46H21.8077V1.74H24.1877V0.68H18.0677V1.74ZM30.888 2.06C30.888 1.64 31.228 1.28 31.668 1.28C32.108 1.28 32.468 1.64 32.448 2.06C32.448 2.5 32.108 2.86 31.668 2.86C31.248 2.86 30.888 2.5 30.888 2.06ZM31.008 3.58063V8.44063H32.308V3.58063C32.108 3.66062 31.888 3.72063 31.648 3.72063C31.428 3.72063 31.208 3.66062 31.008 3.58063ZM35.9674 3.02C34.4074 3.02 33.5674 3.92 33.5674 4.86V8.44H34.8874V5.08C34.8874 4.6 35.2474 4.16 35.9874 4.16C36.7074 4.16 37.0874 4.6 37.0874 5.08V8.46H38.4074V4.88C38.3674 3.92 37.5074 3.04 35.9674 3.02ZM45.67 9.48L45.6874 9.5V9.48H45.67ZM45.67 9.48L44.3674 7.98C44.5074 7.86 44.6274 7.74 44.7474 7.58C45.2474 6.94 45.5074 5.78 45.5274 4.46C45.5074 3.14 45.2474 2.14 44.7474 1.5C44.2474 0.84 43.4674 0.5 42.4874 0.5C41.5074 0.5 40.7274 0.84 40.2274 1.5C39.7274 2.14 39.4674 3.14 39.4474 4.46C39.4674 5.78 39.7274 6.94 40.2274 7.58C40.7274 8.24 41.5074 8.58 42.4874 8.58C42.7474 8.58 43.0074 8.56 43.2474 8.5L44.1074 9.48H45.67ZM40.8074 4.5C40.8274 5.46 40.9674 6.28 41.2474 6.76C41.5074 7.24 41.9474 7.48 42.4874 7.48C43.0074 7.48 43.4474 7.22 43.7274 6.76C44.0074 6.28 44.1674 5.46 44.1674 4.5C44.1474 3.52 44.0074 2.8 43.7274 2.32C43.4674 1.84 43.0274 1.6 42.4874 1.6C41.9674 1.6 41.5274 1.86 41.2474 2.32C40.9674 2.8 40.8074 3.54 40.8074 4.5Z" fill="#1D1D1D"/>
</g>
<defs>
<clipPath id="clip0_5512_161626">
<rect width="46" height="9" fill="white" transform="translate(0.5 0.5)"/>
</clipPath>
</defs>
</svg>
