<svg width="48" height="48" viewBox="0 0 48 48" fill="none" xmlns="http://www.w3.org/2000/svg">
<path fill-rule="evenodd" clip-rule="evenodd" d="M42 14C43.1 14 44 14.9 44 16V32C44 33.1 43.1 34 42 34H6C4.9 34 4 33.1 4 32V16C4 14.9 4.9 14 6 14H42ZM42 12H6C3.8 12 2 13.8 2 16V32C2 34.2 3.8 36 6 36H42C44.2 36 46 34.2 46 32V16C46 13.8 44.2 12 42 12ZM36.3002 31H11.7002V29H36.3002V31ZM7.7002 20H10.8002V18H7.7002V20ZM16.7001 20H13.6001V18H16.7001V20ZM19.5 20H22.6V18H19.5V20ZM28.5004 20H25.4004V18H28.5004V20ZM31.3003 20H34.4003V18H31.3003V20ZM40.3002 20H37.2002V18H40.3002V20ZM10.7002 25H13.8002V23H10.7002V25ZM19.7001 25H16.6001V23H19.7001V25ZM22.5 25H25.5V23H22.5V25ZM31.4003 25H28.3003V23H31.4003V25ZM34.2002 25H37.3002V23H34.2002V25Z" fill="#1D1D1B"/>
</svg>
