<svg width="60" height="60" viewBox="0 0 60 60" fill="none" xmlns="http://www.w3.org/2000/svg">
<path fill-rule="evenodd" clip-rule="evenodd" d="M4.75 9.5C4.05964 9.5 3.5 10.0596 3.5 10.75V37.25C3.5 37.9404 4.05964 38.5 4.75 38.5H9.75005C10.1643 38.5 10.5 38.8358 10.5 39.25V44.5179C10.5 44.7104 10.7084 44.8307 10.875 44.7345L21.4994 38.6005C21.6134 38.5347 21.7427 38.5 21.8744 38.5H43.25C43.9404 38.5 44.5 37.9404 44.5 37.25V10.75C44.5 10.0596 43.9404 9.5 43.25 9.5H4.75ZM2 10.75C2 9.23122 3.23122 8 4.75 8H43.25C44.7688 8 46 9.23122 46 10.75V37.25C46 38.7688 44.7688 40 43.25 40H22.0754L11.625 46.0335C10.4584 46.7071 9.00005 45.8651 9.00005 44.5179V40H4.75C3.23122 40 2 38.7688 2 37.25V10.75ZM48 27.75C48 27.3358 48.3358 27 48.75 27H55.25C56.7688 27 58 28.2312 58 29.75V47.25C58 48.7688 56.7688 50 55.25 50H53.22V52.5189C53.22 53.8657 51.7624 54.7077 50.5957 54.0349L43.5992 50H28.75C27.2312 50 26 48.7688 26 47.25V42.75C26 42.3358 26.3358 42 26.75 42C27.1642 42 27.5 42.3358 27.5 42.75V47.25C27.5 47.9404 28.0596 48.5 28.75 48.5H43.8C43.9315 48.5 44.0607 48.5346 44.1747 48.6003L51.3451 52.7355C51.5118 52.8316 51.72 52.7113 51.72 52.5189V49.25C51.72 48.8358 52.0558 48.5 52.47 48.5H55.25C55.9404 48.5 56.5 47.9404 56.5 47.25V29.75C56.5 29.0596 55.9404 28.5 55.25 28.5H48.75C48.3358 28.5 48 28.1642 48 27.75ZM11.25 16.5C10.8358 16.5 10.5 16.8358 10.5 17.25C10.5 17.6642 10.8358 18 11.25 18H36.75C37.1642 18 37.5 17.6642 37.5 17.25C37.5 16.8358 37.1642 16.5 36.75 16.5H11.25ZM10.5 24C10.5 23.5858 10.8358 23.25 11.25 23.25H36.75C37.1642 23.25 37.5 23.5858 37.5 24C37.5 24.4142 37.1642 24.75 36.75 24.75H11.25C10.8358 24.75 10.5 24.4142 10.5 24ZM11 30.25C10.5858 30.25 10.25 30.5858 10.25 31C10.25 31.4142 10.5858 31.75 11 31.75H27.5C27.9142 31.75 28.25 31.4142 28.25 31C28.25 30.5858 27.9142 30.25 27.5 30.25H11Z" fill="black"/>
</svg>
