<svg width="24" height="24" viewBox="0 0 24 24" fill="none" xmlns="http://www.w3.org/2000/svg">
<path fill-rule="evenodd" clip-rule="evenodd" d="M11.7227 2C12.0541 2 12.3227 2.26863 12.3227 2.6V14.8561L17.3822 9.84437C17.6176 9.61116 17.9975 9.61296 18.2307 9.84838C18.4639 10.0838 18.4621 10.4637 18.2267 10.6969L12.1449 16.7214C11.911 16.953 11.5342 16.953 11.3004 16.7214L5.21856 10.6969C4.98314 10.4637 4.98135 10.0838 5.21455 9.84838C5.44775 9.61296 5.82765 9.61116 6.06307 9.84437L11.1227 14.8563V2.6C11.1227 2.26863 11.3914 2 11.7227 2ZM2.6 19.8015C2.26863 19.8015 2 20.0702 2 20.4015C2 20.7329 2.26863 21.0015 2.6 21.0015H21.3983C21.7297 21.0015 21.9983 20.7329 21.9983 20.4015C21.9983 20.0702 21.7297 19.8015 21.3983 19.8015H2.6Z" fill="#EA1917"/>
</svg>
