<svg width="60" height="60" viewBox="0 0 60 60" fill="none" xmlns="http://www.w3.org/2000/svg">
<path fill-rule="evenodd" clip-rule="evenodd" d="M12.75 6.50049C12.0596 6.50049 11.5 7.06013 11.5 7.75049V52.2518C11.5 52.9422 12.0596 53.5018 12.75 53.5018H47.5647C48.2551 53.5018 48.8147 52.9422 48.8147 52.2518V18.6173H39.4337C37.9149 18.6173 36.6837 17.386 36.6837 15.8673V6.50049H12.75ZM50.3175 17.8758C50.3176 17.873 50.3176 17.8701 50.3176 17.8673C50.3176 17.6115 50.1896 17.3857 49.9942 17.2503L37.964 5.22016C37.8921 5.14825 37.8093 5.094 37.7208 5.0574C37.6324 5.02073 37.5354 5.00049 37.4337 5.00049H37.4323H37.4309H12.75C11.2312 5.00049 10 6.2317 10 7.75049V52.2518C10 53.7706 11.2312 55.0018 12.75 55.0018H47.5647C49.0835 55.0018 50.3147 53.7706 50.3147 52.2518V17.9499C50.3169 17.9253 50.3178 17.9006 50.3175 17.8758ZM38.1837 7.56115V15.8673C38.1837 16.5576 38.7434 17.1173 39.4337 17.1173H47.7398L38.1837 7.56115Z" fill="black"/>
</svg>
