<svg width="20" height="19" viewBox="0 0 20 19" fill="none" xmlns="http://www.w3.org/2000/svg">
<path fill-rule="evenodd" clip-rule="evenodd" d="M5.5 0V1.00017H14.5V0H15.5V1.00017H18.5454C19.3906 1.00017 19.999 1.81931 19.999 2.71869V6.65019H20V7.65019H19.999V13.4828C20.0522 16.5407 17.9703 19.0002 15.4378 19.0002H1.45356C0.608364 19.0002 0 18.181 0 17.2816V7.65019V6.65019V2.71869C0 1.71943 0.69285 1.00017 1.45356 1.00017H4.5V0H5.5ZM14.5 2.18535V3H15.5V2.18535H18.5454C18.8029 2.18535 18.9965 2.43288 18.9965 2.71869V6.65019H1.00246V2.71869C1.00246 2.41424 1.21182 2.18535 1.45356 2.18535H4.5V3H5.5V2.18535H14.5ZM18.9965 7.65019V13.4891L18.9967 13.5019C19.0406 15.8928 17.4146 17.815 15.4378 17.815H1.45356C1.19606 17.815 1.00246 17.5675 1.00246 17.2816V7.65019H18.9965Z" fill="#1D1D1B"/>
</svg>
