<svg width="64" height="64" viewBox="0 0 64 64" fill="none" xmlns="http://www.w3.org/2000/svg">
<circle cx="51" cy="42" r="11" stroke="black" stroke-width="1.5"/>
<path d="M52.6298 37.0693L50.9907 38.6997L49.3516 37.0605" stroke="black" stroke-width="1.3" stroke-linecap="round" stroke-linejoin="round"/>
<path d="M50.9883 35V49.2" stroke="black" stroke-width="1.3" stroke-linecap="round" stroke-linejoin="round"/>
<path d="M49.3516 47.105L50.9907 45.4746L52.6298 47.105" stroke="black" stroke-width="1.3" stroke-linecap="round" stroke-linejoin="round"/>
<path d="M56.161 40.969L53.9258 40.3817L54.5131 38.1465" stroke="black" stroke-width="1.3" stroke-linecap="round" stroke-linejoin="round"/>
<path d="M57.1174 38.5137L44.8633 45.6838" stroke="black" stroke-width="1.3" stroke-linecap="round" stroke-linejoin="round"/>
<path d="M45.8438 43.2129L48.0789 43.8002L47.4917 46.0441" stroke="black" stroke-width="1.3" stroke-linecap="round" stroke-linejoin="round"/>
<path d="M45.8203 40.969L48.0555 40.3817L47.4682 38.1465" stroke="black" stroke-width="1.3" stroke-linecap="round" stroke-linejoin="round"/>
<path d="M44.8633 38.5137L57.1174 45.6838" stroke="black" stroke-width="1.3" stroke-linecap="round" stroke-linejoin="round"/>
<path d="M56.1375 43.2129L53.9023 43.8002L54.4896 46.0441" stroke="black" stroke-width="1.3" stroke-linecap="round" stroke-linejoin="round"/>
<path d="M18 47C17.9659 48.1973 17.6755 49.3677 17.1533 50.4121C16.6311 51.4565 15.8924 52.3442 15 53" stroke="black" stroke-width="1.5" stroke-linecap="round" stroke-linejoin="round"/>
<path d="M34 47V53" stroke="black" stroke-width="1.5" stroke-linecap="round" stroke-linejoin="round"/>
<path d="M26 47C25.9263 49.041 25.5897 51.0607 25 53" stroke="black" stroke-width="1.5" stroke-linecap="round" stroke-linejoin="round"/>
<path fill-rule="evenodd" clip-rule="evenodd" d="M4.75 10.25C3.23122 10.25 2 11.4812 2 13V39C2 40.5188 3.23122 41.75 4.75 41.75H8.75H40V40.25H9.5V36.5H41.7764C42.1906 36.5 42.5264 36.1642 42.5264 35.75C42.5264 35.3358 42.1906 35 41.7764 35H3.5V13C3.5 12.3096 4.05964 11.75 4.75 11.75H59.25C59.9417 11.75 60.5 12.3083 60.5 12.9973V13.0439V13.0906V13.1373V13.1841V13.231V13.278V13.325V13.3721V13.4193V13.4665V13.5138V13.5612V13.6086V13.6561V13.7037V13.7514V13.7991V13.8469V13.8947V13.9426V13.9906V14.0387V14.0868V14.1349V14.1832V14.2315V14.2798V14.3283V14.3767V14.4253V14.4739V14.5226V14.5713V14.6201V14.6689V14.7179V14.7668V14.8159V14.8649V14.9141V14.9633V15.0126V15.0619V15.1113V15.1607V15.2102V15.2597V15.3093V15.359V15.4087V15.4584V15.5083V15.5581V15.6081V15.658V15.7081V15.7581V15.8083V15.8585V15.9087V15.959V16.0093V16.0597V16.1101V16.1606V16.2111V16.2617V16.3123V16.363V16.4137V16.4645V16.5153V16.5661V16.617V16.668V16.719V16.77V16.8211V16.8722V16.9234V16.9746V17.0259V17.0772V17.1285V17.1799V17.2313V17.2827V17.3342V17.3858V17.4374V17.489V17.5406V17.5923V17.6441V17.6958V17.7476V17.7995V17.8514V17.9033V17.9552V18.0072V18.0592V18.1113V18.1634V18.2155V18.2677V18.3199V18.3721V18.4243V18.4766V18.529V18.5813V18.6337V18.6861V18.7385V18.791V18.8435V18.8961V18.9486V19.0012V19.0538V19.1065V19.1591V19.2118V19.2646V19.3173V19.3701V19.4229V19.4757V19.5285V19.5814V19.6343V19.6872V19.7402V19.7931V19.8461V19.8991V19.9522V20.0052V20.0583V20.1114V20.1645V20.2176V20.2708V20.324V20.3772V20.4304V20.4836V20.5368V20.5901V20.6434V20.6967V20.75V20.8033V20.8566V20.91V20.9634V21.0167V21.0701V21.1236V21.177V21.2304V21.2839V21.3373V21.3908V21.4443V21.4978V21.5513V21.6048V21.6583V21.7118V21.7654V21.8189V21.8725V21.926V21.9796V22.0332V22.0868V22.1403V22.1939V22.2475V22.3011V22.3548V22.4084V22.462V22.5156V22.5692V22.6229V22.6765V22.7301V22.7838V22.8374V22.891V22.9447V22.9983V23.0519V23.1056V23.1592V23.2128V23.2665V23.3201V23.3737V23.4274V23.481V23.5346V23.5882V23.6418V23.6954V23.749V23.8026V23.8562V23.9098V23.9634V24.0169V24.0705V24.124V24.1776V24.2311V24.2846V24.3382V24.3917V24.4452V24.4987V24.5521V24.6056V24.659V24.7125V24.7659V24.8193V24.8727V24.9261V24.9795V25.0329V25.0862V25.1396V25.1929V25.2462V25.2995V25.3527V25.406V25.4592V25.5125V25.5657V25.6188V25.672V25.7251V25.7783V25.8314V25.8845V25.9375V25.9906V26.0436V26.0966V26.1496V26.2025V26.2555V26.3084V26.3613V26.4142V26.467V26.5198V26.5726V26.6254V26.6781V26.7308V26.7835V26.8362V26.8888V26.9414V26.994V27.0465V27.0991V27.1516V27.204V27.2564V27.3088V27.3612V27.4136V27.4659V27.5182V27.5704V27.6226V27.6748V27.7269V27.7791V27.8311V27.8832V27.9352V27.9872V28.0391V28.091V28.1429V28.1947V28.2465V28.2983V28.35V28.4017V28.4533V28.5049V28.5565V28.608V28.6595V28.7109V28.7623V28.8137V28.865V28.9163V28.9675V29.0187V29.0699V29.121V29.1721V29.2231V29.2741V29.325V29.3759V29.4267V29.4775V29.5283V29.579V29.6296V29.6802V29.7308V29.7813V29.8318V29.8822V29.9325V29.9829V30.0331V30.0833V30.1335V30.1836V30.2337V30.2837V30.3336V30.3836V30.4334V30.4832V30.5329V30.5826V30.6323V30.6819V30.7314V30.7808V30.8303V30.8796V30.9289V30.9782V31.0273V31.0765V31.1255V31.1746V31.2235V31.2724V31.3212V31.37V31.4187V31.4674V31.516V31.5645V31.6129V31.6614V31.7097V31.758V31.8062V31.8543V31.9024V31.9504V31.9984V32.0463V32.0941V32.1419V32.1896V32.2372V32.2847V32.3322V32.3797V32.427V32.4743V32.5215V32.5687V32.6157V32.6627V32.7097V32.7565V32.8033V32.85V32.8967V32.9433V32.9898V33.0362V33.0826V33.1288V33.1751V33.2212V33.2672V33.3132V33.3591V33.405V33.4507V33.4964V33.542V33.5875V33.633V33.6783V33.7236V33.7688V33.8139V33.859V33.904V33.9488V33.9936V34.0384V34.083V34.1276V34.172V34.2164V34.2607V34.305V34.3491V34.3932V34.4371V34.481V34.5248V34.5686V34.6122V34.6557V34.6992V34.7425V34.7858V34.829V34.8721V34.9151V34.9581V35.0009V35.0436V35.0863V35.1289V35.1713V35.2137V35.256V35.2982V35.3403V35.3823V35.4242V35.466V35.5078V35.5494V35.5909V35.6324V35.6737V35.715V35.7561V35.7972V35.8382V35.879V35.9198V35.9605V36.001V36.0415V36.0819V36.1221V36.1623V36.2024V36.2423V36.2822V36.322V36.3616V36.4012V36.4407V36.48V36.5193V36.5584V36.5974V36.6364V36.6752V36.7139V36.7526V36.7911V36.8295V36.8678V36.906V36.9441V36.982V37.0199V37.0577V37.0953V37.1329V37.1703V37.2076V37.2448V37.2819V37.3189V37.3558V37.3926V37.4292V37.4657V37.5022V37.5385V37.5747V37.6108V37.6467V37.6826V37.7183V37.7539V37.7894V37.8248V37.8601V37.8953V37.9303V37.9652V38H62V37.9652V37.9303V37.8953V37.8601V37.8248V37.7894V37.7539V37.7183V37.6826V37.6467V37.6108V37.5747V37.5385V37.5022V37.4657V37.4292V37.3926V37.3558V37.3189V37.2819V37.2448V37.2076V37.1703V37.1329V37.0953V37.0577V37.0199V36.982V36.9441V36.906V36.8678V36.8295V36.7911V36.7526V36.7139V36.6752V36.6364V36.5974V36.5584V36.5193V36.48V36.4407V36.4012V36.3616V36.322V36.2822V36.2423V36.2024V36.1623V36.1221V36.0819V36.0415V36.001V35.9605V35.9198V35.879V35.8382V35.7972V35.7561V35.715V35.6737V35.6324V35.5909V35.5494V35.5078V35.466V35.4242V35.3823V35.3403V35.2982V35.256V35.2137V35.1713V35.1289V35.0863V35.0436V35.0009V34.9581V34.9151V34.8721V34.829V34.7858V34.7425V34.6992V34.6557V34.6122V34.5686V34.5248V34.481V34.4371V34.3932V34.3491V34.305V34.2607V34.2164V34.172V34.1276V34.083V34.0384V33.9936V33.9488V33.904V33.859V33.8139V33.7688V33.7236V33.6783V33.633V33.5875V33.542V33.4964V33.4507V33.405V33.3591V33.3132V33.2672V33.2212V33.1751V33.1288V33.0826V33.0362V32.9898V32.9433V32.8967V32.85V32.8033V32.7565V32.7097V32.6627V32.6157V32.5687V32.5215V32.4743V32.427V32.3797V32.3322V32.2847V32.2372V32.1896V32.1419V32.0941V32.0463V31.9984V31.9504V31.9024V31.8543V31.8062V31.758V31.7097V31.6614V31.6129V31.5645V31.516V31.4674V31.4187V31.37V31.3212V31.2724V31.2235V31.1746V31.1255V31.0765V31.0273V30.9782V30.9289V30.8796V30.8303V30.7808V30.7314V30.6819V30.6323V30.5826V30.5329V30.4832V30.4334V30.3836V30.3336V30.2837V30.2337V30.1836V30.1335V30.0833V30.0331V29.9829V29.9325V29.8822V29.8318V29.7813V29.7308V29.6802V29.6296V29.579V29.5283V29.4775V29.4267V29.3759V29.325V29.2741V29.2231V29.1721V29.121V29.0699V29.0187V28.9675V28.9163V28.865V28.8137V28.7623V28.7109V28.6595V28.608V28.5565V28.5049V28.4533V28.4017V28.35V28.2983V28.2465V28.1947V28.1429V28.091V28.0391V27.9872V27.9352V27.8832V27.8311V27.7791V27.7269V27.6748V27.6226V27.5704V27.5182V27.4659V27.4136V27.3612V27.3088V27.2564V27.204V27.1516V27.0991V27.0465V26.994V26.9414V26.8888V26.8362V26.7835V26.7308V26.6781V26.6254V26.5726V26.5198V26.467V26.4142V26.3613V26.3084V26.2555V26.2025V26.1496V26.0966V26.0436V25.9906V25.9375V25.8845V25.8314V25.7783V25.7251V25.672V25.6188V25.5657V25.5125V25.4592V25.406V25.3527V25.2995V25.2462V25.1929V25.1396V25.0862V25.0329V24.9795V24.9261V24.8727V24.8193V24.7659V24.7125V24.659V24.6056V24.5521V24.4987V24.4452V24.3917V24.3382V24.2846V24.2311V24.1776V24.124V24.0705V24.0169V23.9634V23.9098V23.8562V23.8026V23.749V23.6954V23.6418V23.5882V23.5346V23.481V23.4274V23.3737V23.3201V23.2665V23.2128V23.1592V23.1056V23.0519V22.9983V22.9447V22.891V22.8374V22.7838V22.7301V22.6765V22.6229V22.5692V22.5156V22.462V22.4084V22.3548V22.3011V22.2475V22.1939V22.1403V22.0868V22.0332V21.9796V21.926V21.8725V21.8189V21.7654V21.7118V21.6583V21.6048V21.5513V21.4978V21.4443V21.3908V21.3373V21.2839V21.2304V21.177V21.1236V21.0701V21.0167V20.9634V20.91V20.8566V20.8033V20.75V20.6967V20.6434V20.5901V20.5368V20.4836V20.4304V20.3772V20.324V20.2708V20.2176V20.1645V20.1114V20.0583V20.0052V19.9522V19.8991V19.8461V19.7931V19.7402V19.6872V19.6343V19.5814V19.5285V19.4757V19.4229V19.3701V19.3173V19.2646V19.2118V19.1591V19.1065V19.0538V19.0012V18.9486V18.8961V18.8435V18.791V18.7385V18.6861V18.6337V18.5813V18.529V18.4766V18.4243V18.3721V18.3199V18.2677V18.2155V18.1634V18.1113V18.0592V18.0072V17.9552V17.9033V17.8514V17.7995V17.7476V17.6958V17.6441V17.5923V17.5406V17.489V17.4374V17.3858V17.3342V17.2827V17.2313V17.1799V17.1285V17.0772V17.0259V16.9746V16.9234V16.8722V16.8211V16.77V16.719V16.668V16.617V16.5661V16.5153V16.4645V16.4137V16.363V16.3123V16.2617V16.2111V16.1606V16.1101V16.0597V16.0093V15.959V15.9087V15.8585V15.8083V15.7581V15.7081V15.658V15.6081V15.5581V15.5083V15.4584V15.4087V15.359V15.3093V15.2597V15.2102V15.1607V15.1113V15.0619V15.0126V14.9633V14.9141V14.8649V14.8159V14.7668V14.7179V14.6689V14.6201V14.5713V14.5226V14.4739V14.4253V14.3767V14.3283V14.2798V14.2315V14.1832V14.1349V14.0868V14.0387V13.9906V13.9426V13.8947V13.8469V13.7991V13.7514V13.7037V13.6561V13.6086V13.5612V13.5138V13.4665V13.4193V13.3721V13.325V13.278V13.231V13.1841V13.1373V13.0906V13.0439V12.9973C62 11.4772 60.7675 10.25 59.25 10.25H4.75ZM3.5 36.5V39C3.5 39.6904 4.05964 40.25 4.75 40.25H8V36.5H3.5Z" fill="black"/>
</svg>
