<svg width="13" height="12" viewBox="0 0 13 12" fill="none" xmlns="http://www.w3.org/2000/svg">
<g clip-path="url(#clip0_3598_100061)">
<path fill-rule="evenodd" clip-rule="evenodd" d="M9.3608 5.63631C9.44825 5.78976 9.44825 5.97796 9.3608 6.13141L8.14483 8.26526C8.05589 8.42134 7.89006 8.51771 7.71041 8.51771H5.27847C5.09883 8.51771 4.93299 8.42134 4.84405 8.26526L3.62808 6.13141C3.54064 5.97796 3.54064 5.78976 3.62808 5.63631L4.84405 3.50245C4.933 3.34637 5.09883 3.25 5.27847 3.25L7.71041 3.25C7.89006 3.25 8.05589 3.34637 8.14483 3.50245L9.3608 5.63631ZM7.41985 4.25L5.56903 4.25L4.63798 5.88386L5.56903 7.51771H7.41985L8.3509 5.88386L7.41985 4.25Z" fill="black"/>
<path fill-rule="evenodd" clip-rule="evenodd" d="M1 0C0.723858 0 0.5 0.223858 0.5 0.5C0.5 0.760669 0.699473 0.974748 0.954102 0.997921V11.498C0.954102 11.7742 1.17796 11.998 1.4541 11.998H11.546C11.8221 11.998 12.046 11.7742 12.046 11.498V0.997823C12.3001 0.974147 12.499 0.760303 12.499 0.5C12.499 0.223858 12.2751 0 11.999 0H1ZM11.046 1H1.9541V10.998H11.046V1Z" fill="black"/>
</g>
<defs>
<clipPath id="clip0_3598_100061">
<rect width="12" height="12" fill="white" transform="translate(0.5)"/>
</clipPath>
</defs>
</svg>
