<svg width="38" height="61" viewBox="0 0 38 61" fill="none" xmlns="http://www.w3.org/2000/svg">
<path d="M1.90137 44.625H37.0003" stroke="#666666" stroke-width="2" stroke-linecap="round" stroke-linejoin="round"/>
<path d="M1.90137 12.4512H37.0003" stroke="#666666" stroke-width="2" stroke-linecap="round" stroke-linejoin="round"/>
<path d="M19.4512 52V52.0292" stroke="#666666" stroke-width="4" stroke-linecap="round" stroke-linejoin="round"/>
<path fill-rule="evenodd" clip-rule="evenodd" d="M0 5.24902C0 2.4876 2.23858 0.249023 5 0.249023H33C35.7614 0.249023 38 2.4876 38 5.24902V55.249C38 58.0104 35.7614 60.249 33 60.249H5C2.23858 60.249 0 58.0104 0 55.249V5.24902ZM5 2.24902C3.34315 2.24902 2 3.59217 2 5.24902V55.249C2 56.9059 3.34315 58.249 5 58.249H33C34.6569 58.249 36 56.9059 36 55.249V5.24902C36 3.59217 34.6569 2.24902 33 2.24902H5Z" fill="#666666"/>
<path d="M12 27.945L16.6707 32.6157L26 23.2861" stroke="#666666" stroke-width="2" stroke-linecap="round" stroke-linejoin="round"/>
</svg>
