<svg width="75" height="45" viewBox="0 0 75 45" fill="none" xmlns="http://www.w3.org/2000/svg">
<g clip-path="url(#clip0_5520_345472)">
<path d="M20 0H59.5V45H20L-3.8147e-06 22.6731L20 0Z" fill="#FDB913"/>
<path d="M59.5 0H75V45H59.5V0Z" fill="white"/>
<path d="M0.166664 22.3269L19.5 0.173077C19.5 0.173077 19.6667 0 19.8333 0H74.5C74.6667 0 75 0.173077 75 0.519231V44.4808C75 44.6539 74.8333 45 74.5 45H19.8333C19.6667 45 19.6667 45 19.5 44.8269L0.166664 23.0192C0 22.6731 0 22.5 0.166664 22.3269ZM74 1.03846H60V44.1346H74V1.03846ZM20.1667 44.1346H59V1.03846H20.1667L1.16667 22.6731L20.1667 44.1346Z" fill="black"/>
<path d="M45.9424 34.442C45.9191 34.1942 45.8694 33.9504 45.7941 33.7153C45.7449 33.5602 45.6597 33.4219 45.5471 33.314C45.4553 33.2305 45.3399 33.1846 45.2209 33.1841H36.1374V24.7245H43.7679C43.8855 24.7252 44.0003 24.6833 44.0941 24.6052C44.208 24.5073 44.2939 24.3756 44.3412 24.2256C44.4174 23.9984 44.4674 23.7615 44.4894 23.5206C44.5508 22.7991 44.5508 22.073 44.4894 21.3515C44.4676 21.107 44.4179 20.8665 44.3412 20.6357C44.2914 20.4841 44.206 20.3494 44.0941 20.2452C44.0028 20.1608 43.8872 20.1147 43.7679 20.1151H36.1374V12.751H45.1614C45.278 12.7527 45.3909 12.7062 45.4778 12.6208C45.5847 12.5096 45.6662 12.3721 45.7149 12.2195C45.7907 11.9846 45.8404 11.7408 45.8632 11.4929C45.8983 11.1327 45.9147 10.7706 45.9127 10.4084C45.9159 10.0244 45.8996 9.64056 45.8632 9.25871C45.8295 9.00629 45.7699 8.75888 45.6855 8.52124C45.6407 8.36646 45.5587 8.22781 45.4481 8.11997C45.3585 8.04109 45.2466 7.9989 45.1317 8.00064H32.5397C32.1365 7.98843 31.7454 8.1523 31.4523 8.45613C31.1236 8.85843 30.9622 9.39294 31.0075 9.93114V36.0687C30.9622 36.607 31.1236 37.1414 31.4523 37.5438C31.7454 37.8475 32.1365 38.0116 32.5397 37.9994H45.2308C45.3501 37.9996 45.4657 37.9535 45.5567 37.8689C45.6696 37.7613 45.7548 37.623 45.804 37.4679C45.8795 37.2331 45.9293 36.989 45.9523 36.7412C46.0159 35.9944 46.0159 35.2427 45.9523 34.4962L45.9424 34.442Z" fill="white" stroke="black" stroke-miterlimit="10" stroke-linecap="round" stroke-linejoin="round"/>
<path d="M66.8327 27.5193C67.3327 27.5193 67.666 27.1731 67.666 26.6539V20.4231L68.8327 21.4616C68.9993 21.6346 69.166 21.6346 69.3327 21.6346C69.4993 21.6346 69.8327 21.4616 69.8327 21.4616C70.166 21.1154 70.166 20.5962 69.8327 20.25L67.3327 17.6539C66.9993 17.3077 66.4993 17.3077 66.166 17.6539L63.666 20.25C63.3327 20.5962 63.3327 21.1154 63.666 21.4616C63.9993 21.8077 64.4993 21.8077 64.8327 21.4616L65.9993 20.4231V26.6539C65.8327 27.1731 65.9993 27.5193 66.8327 27.5193Z" fill="black"/>
<path d="M68.3327 13.6731H65.3327L64.8327 15.4039H63.166L65.8327 6.9231H67.4993L70.3327 15.4039H68.666C68.9993 15.4039 68.3327 13.6731 68.3327 13.6731ZM67.8327 12.2885L66.8327 8.48079L65.666 12.2885H67.8327Z" fill="#231C1E"/>
<path d="M70.1654 33.0577V37.3846C69.832 37.5577 69.4987 37.7308 68.9987 37.9039C68.4987 38.0769 67.832 38.0769 67.6654 38.0769C66.4987 38.0769 65.4987 37.7308 64.832 36.8654C64.1654 36 63.832 34.9616 63.832 33.5769C63.832 32.1923 64.1654 30.9808 64.832 30.2885C65.4987 29.5962 66.4987 29.0769 67.6654 29.0769C68.1654 29.0769 68.6654 29.0769 68.9987 29.25C69.4987 29.4231 69.832 29.5962 69.9987 29.7692L69.4987 31.1539C68.832 30.8077 68.1654 30.6346 67.4987 30.6346C65.9987 30.6346 65.332 31.6731 65.332 33.5769C65.332 35.4808 65.9987 36.6923 67.6654 36.6923C67.9987 36.6923 68.332 36.6923 68.6654 36.5192V34.4423H67.1654V33.0577H70.1654Z" fill="black"/>
</g>
<defs>
<clipPath id="clip0_5520_345472">
<rect width="75" height="45" fill="white"/>
</clipPath>
</defs>
</svg>
