<svg xmlns="http://www.w3.org/2000/svg" width="35" height="35" viewBox="0 0 35 35"><path fill="#333" fill-rule="evenodd" d="M17.5 34.998C7.835 34.998 0 27.162 0 17.497 0 7.832 7.835-.004 17.5-.004S35 7.832 35 17.497c0 9.665-7.835 17.501-17.5 17.501ZM27 11.924a.94.94 0 0 0-.95-.928H8.95a.94.94 0 0 0-.95.928v11.144a.94.94 0 0 0 .95.929h10.209a11.8 11.8 0 0 1-.179-2.014h-7.93l4.026-3.586 1.952 1.762a.964.964 0 0 0 .943 0l1.571-1.407c.529-1.257 1.441-2.083 2.74-2.474l2.734-2.504v2.28c.625.057 1.191.162 1.63.365.132.061.234.147.354.219v-4.714Zm.989 9.811a7.95 7.95 0 0 0-.13-1.486 2.881 2.881 0 0 0-.497-1.185 2.432 2.432 0 0 0-1.01-.785c-.429-.189-.985-.284-1.67-.284-2.465 0-3.698 1.319-3.698 3.958 0 .667.066 1.254.196 1.761.13.506.342.929.635 1.268.294.34.679.596 1.157.768.478.173 1.059.26 1.743.26.304 0 .611-.026.92-.076.31-.05.606-.114.888-.192.283-.077.541-.164.774-.259.233-.094.421-.191.562-.291l-.391-1.353a7.405 7.405 0 0 0-.48.217 3.686 3.686 0 0 1-.522.208 4.435 4.435 0 0 1-1.409.21c-.804 0-1.341-.223-1.613-.669-.195-.333-.293-.762-.293-1.285h4.838v-.785Zm-4.822-.802c0-.055.006-.105.017-.149.032-.456.165-.702.399-.936.233-.234.589-.351 1.067-.351.412 0 .706.151.88.451.173.301.47.517.47 1.052h-3c0-.056.167-.011.167-.067Zm-3.784-4.387c-.008.007-.01.02-.018.026L17.5 18.283l-5.871-5.29h11.79l-4.013 3.541c-.007.006-.016.007-.023.012Zm-9.371 4.107v-6.931l3.67 3.417-3.67 3.514Z"/></svg>