<svg width="38" height="38" viewBox="0 0 38 38" fill="none" xmlns="http://www.w3.org/2000/svg">
<path fill-rule="evenodd" clip-rule="evenodd" d="M27.5466 20.8975C28.0242 18.8101 27.653 16.6184 26.5148 14.8047C25.3765 12.991 23.5643 11.7037 21.477 11.2261C21.1539 11.1522 20.8322 11.3541 20.7582 11.6771C20.6843 12.0002 20.8863 12.3219 21.2093 12.3959C22.9864 12.8025 24.5293 13.8984 25.4984 15.4426C26.4674 16.9868 26.7834 18.8527 26.3768 20.6298C25.9702 22.4069 24.8742 23.9498 23.33 24.9189C22.7303 25.2953 22.082 25.5731 21.4092 25.7484L22.1713 24.3814C22.3326 24.092 22.2288 23.7265 21.9393 23.5652C21.6499 23.4038 21.2845 23.5077 21.1231 23.7971L19.5987 26.5316C19.4374 26.821 19.5412 27.1864 19.8306 27.3478L22.5651 28.8722C22.8545 29.0336 23.22 28.9297 23.3813 28.6403C23.5427 28.3509 23.4388 27.9854 23.1494 27.8241L21.572 26.9447C22.4122 26.7418 23.222 26.4034 23.9679 25.9353C25.7817 24.797 27.0689 22.9848 27.5466 20.8975ZM11.3336 23.0358C10.2629 21.1813 9.97281 18.9775 10.527 16.9092C11.0812 14.8408 12.4344 13.0773 14.2889 12.0066C15.05 11.5672 15.8699 11.2593 16.7152 11.0872L15.1759 10.1531C14.8926 9.98116 14.8023 9.61215 14.9742 9.32886C15.1461 9.04557 15.5151 8.95527 15.7984 9.12718L18.4748 10.7513C18.7581 10.9232 18.8484 11.2922 18.6765 11.5755L17.0524 14.252C16.8805 14.5353 16.5115 14.6256 16.2282 14.4536C15.9449 14.2817 15.8546 13.9127 16.0265 13.6294L16.841 12.2872C16.1615 12.4375 15.5027 12.6915 14.8889 13.0459C13.31 13.9574 12.158 15.4588 11.6861 17.2197C11.2143 18.9807 11.4613 20.857 12.3728 22.4358C13.2844 24.0146 14.7858 25.1667 16.5467 25.6385C16.8668 25.7243 17.0567 26.0533 16.971 26.3734C16.8852 26.6934 16.5562 26.8834 16.2361 26.7976C14.1678 26.2434 12.4043 24.8902 11.3336 23.0358Z" fill="black"/>
</svg>
