<svg width="24" height="24" viewBox="0 0 24 24" fill="none" xmlns="http://www.w3.org/2000/svg">
<path fill-rule="evenodd" clip-rule="evenodd" d="M13.2485 2.75195C13.2485 2.33774 12.9127 2.00195 12.4985 2.00195C12.0843 2.00195 11.7485 2.33774 11.7485 2.75195V11.2505H3.25C2.83579 11.2505 2.5 11.5863 2.5 12.0005C2.5 12.4147 2.83579 12.7505 3.25 12.7505H11.7485V21.2491C11.7485 21.6633 12.0843 21.9991 12.4985 21.9991C12.9127 21.9991 13.2485 21.6633 13.2485 21.2491V12.7505H21.7471C22.1613 12.7505 22.4971 12.4147 22.4971 12.0005C22.4971 11.5863 22.1613 11.2505 21.7471 11.2505H13.2485V2.75195Z" fill="white"/>
</svg>