<svg width="24" height="25" viewBox="0 0 24 25" fill="none" xmlns="http://www.w3.org/2000/svg">
<path d="M9.46265 17.9499H11.6319V19.15H9.46265V17.9499Z" fill="black"/>
<path d="M9.46265 14.8504V16.0504H14.5352V14.8504H9.46265Z" fill="black"/>
<path fill-rule="evenodd" clip-rule="evenodd" d="M6.69962 2.23828V7.25167H2V18.4814H6.56766V22.2377H17.4303V18.4814H21.9989V7.25167H17.2991V2.23828H6.69962ZM16.6566 8.45167C16.6706 8.45265 16.6848 8.45315 16.6991 8.45315C16.7134 8.45315 16.7275 8.45265 16.7416 8.45167H20.7989V17.2814H17.4303V11.7602H6.56766V17.2814H3.2V8.45167H7.25713C7.27116 8.45265 7.28533 8.45315 7.29962 8.45315C7.31391 8.45315 7.32808 8.45265 7.34211 8.45167H16.6566ZM16.0991 7.25167V3.43828H7.89962V7.25167H16.0991ZM7.76766 12.9602V21.0377H16.2303V12.9602H7.76766Z" fill="black"/>
</svg>
