<svg width="12" height="13" viewBox="0 0 12 13" fill="none" xmlns="http://www.w3.org/2000/svg">
<path fill-rule="evenodd" clip-rule="evenodd" d="M1.5 0C1.22386 0 1 0.223858 1 0.5V11.5012C1 11.7773 1.22386 12.0012 1.5 12.0012H10.5C10.7761 12.0012 11 11.7773 11 11.5012V11.476V11.4507V11.4254V11.4001V11.3747V11.3492V11.3237V11.2981V11.2725V11.2468V11.2211V11.1953V11.1694V11.1436V11.1176V11.0917V11.0656V11.0396V11.0134V10.9873V10.961V10.9348V10.9085V10.8821V10.8557V10.8293V10.8028V10.7762V10.7497V10.723V10.6964V10.6697V10.6429V10.6161V10.5893V10.5624V10.5355V10.5085V10.4815V10.4545V10.4274V10.4003V10.3732V10.346V10.3188V10.2915V10.2642V10.2369V10.2095V10.1821V10.1547V10.1272V10.0997V10.0722V10.0446V10.017V9.98934V9.96167V9.93397V9.90624V9.87848V9.85068V9.82286V9.79501V9.76713V9.73921V9.71128V9.68331V9.65532V9.62729V9.59925V9.57117V9.54307V9.51495V9.4868V9.45862V9.43043V9.4022V9.37396V9.34569V9.3174V9.28908V9.26075V9.23239V9.20401V9.17562V9.1472V9.11876V9.0903V9.06183V9.03333V9.00482V8.97629V8.94775V8.91918V8.8906V8.862V8.83339V8.80476V8.77612V8.74747V8.7188V8.69011V8.66142V8.6327V8.60398V8.57525V8.5465V8.51775V8.48898V8.4602V8.43141V8.40261V8.37381V8.34499V8.31617V8.28734V8.2585V8.22965V8.2008V8.17194V8.14308V8.11421V8.08533V8.05645V8.02757V7.99868V7.96979V7.9409V7.912V7.8831V7.8542V7.8253V7.7964V7.76749V7.73859V7.70969V7.68078V7.65188V7.62298V7.59409V7.56519V7.5363V7.50741V7.47852V7.44964V7.42076V7.39189V7.36302V7.33416V7.3053V7.27645V7.24761V7.21877V7.18994V7.16112V7.13231V7.10351V7.07471V7.04593V7.01715V6.98839V6.95964V6.93089V6.90216V6.87345V6.84474V6.81605V6.78737V6.7587V6.73005V6.70142V6.67279V6.64419V6.6156V6.58702V6.55846V6.52992V6.5014V6.47289V6.44441V6.41594V6.38749V6.35906V6.33065V6.30226V6.27389V6.24554V6.21721V6.1889V6.16062V6.13236V6.10412V6.07591V6.04772V6.01955V5.99141V5.9633V5.93521V5.90714V5.8791V5.85109V5.82311V5.79515V5.76722V5.73932V5.71145V5.68361V5.6558V5.62801V5.60026V5.57254V5.54485V5.51719V5.48957V5.46197V5.43441V5.40688V5.37939V5.35193V5.3245V5.29711V5.26976V5.24244V5.21515V5.18791V5.1607V5.13353V5.10639V5.07929V5.05224V5.02522V4.99824V4.9713V4.9444V4.91754V4.89072V4.86394V4.83721V4.81052V4.78387V4.75726V4.7307V4.70418V4.6777V4.65127V4.62489V4.59855V4.57225V4.546V4.5198V4.49365V4.46754V4.44148V4.41547V4.38951V4.3636V4.33774V4.31193V4.28616V4.26045V4.23479V4.20918V4.18363V4.15812V4.13267V4.10727V4.08193V4.05664V4.0314V4.00622V3.9811V3.95603V3.93101V3.90605V3.88115V3.85631V3.83153V3.8068V3.78213V3.75752V3.73297V3.70848V3.68405V3.65968V3.63537V3.61112V3.58693V3.56281V3.53875V3.51475V3.49082V3.46695V3.44314V3.4194V3.39572V3.37211V3.34856V3.32509V3.30167V3.27833V3.25505V3.23184V3.2087V3.18562V3.16262V3.13969V3.11682V3.09403V3.0713V3.04865V3.02607V3.00356V2.98113V2.95876V2.93647V2.91426V2.89211V2.87005V2.84805V2.82613V2.80429V2.78253V2.76084V2.73922V2.71769V2.69623V2.67485V2.65355V2.63233V2.61118V2.59012V2.56914V2.54823V2.52741V2.50667V2.48601V2.46543V2.44494V2.42453V2.4042V2.38396V2.3638V2.34372V2.32373V2.30383V2.28401V2.26428V2.24463V2.22507V2.2056V2.18622V2.16692V2.14772V2.1286V2.10957V2.09063V2.07178V2.05303V2.03436V2.01579V1.99731V1.97892V1.96062V1.94241V1.9243V1.90629V1.88836V1.87054V1.85281V1.83517V1.81763V1.80018V1.78284V1.76559V1.74843V1.73138V1.71442V1.69757V1.68081V1.66415V1.64759V1.63114V1.61478V1.59852V1.58237V1.56632V1.55037V1.53453V1.51878V1.50314V1.48761V1.47218V1.45685V1.44163V1.42652V1.41151V1.39661V1.38182V1.36713V1.35255V1.33808V1.32372V1.30947V1.29532V1.28129V1.26737V1.25356V1.23985V1.22626V1.21279V1.19942V1.18617V1.17303V1.16V1.14709V1.13429V1.12161V1.10904V1.09659V1.08425V1.07203V1.05993V1.04794V1.03607V1.02432V1.01269V1.00118V0.989783V0.978509V0.967354V0.95632V0.945408V0.934616V0.923946V0.913398V0.902973V0.89267V0.882491V0.872436V0.862504V0.852698V0.843016V0.833459V0.824029V0.814724V0.805546V0.796495V0.787572V0.778776V0.770108V0.761569V0.753159V0.744879V0.736728V0.728708V0.720818V0.713059V0.705432V0.697936V0.690573V0.683343V0.676246V0.669282V0.662452V0.655756V0.649195V0.642769V0.636479V0.630325V0.624307V0.618426V0.612682V0.607075V0.601607V0.596277V0.591086V0.586034V0.581121V0.576349V0.571717V0.567226V0.562876V0.558667V0.554601V0.550678V0.546897V0.543259V0.539765V0.536415V0.53321V0.53015V0.527235V0.524465V0.521842V0.519365V0.517036V0.514853V0.512819V0.510932V0.509194V0.507605V0.506166V0.504876V0.503737V0.502748V0.50191V0.501223V0.500689V0.500306V0.500077L10.5 0.5H11C11 0.223858 10.7761 0 10.5 0H1.5ZM4.5 1H10V1.00118V1.01269V1.02432V1.03607V1.04794V1.05993V1.07203V1.08425V1.09659V1.10904V1.12161V1.13429V1.14709V1.16V1.17303V1.18617V1.19942V1.21279V1.22626V1.23985V1.25356V1.26737V1.28129V1.29532V1.30947V1.32372V1.33808V1.35255V1.36713V1.38182V1.39661V1.41151V1.42652V1.44163V1.45685V1.47218V1.48761V1.50314V1.51878V1.53453V1.55037V1.56632V1.58237V1.59852V1.61478V1.63114V1.64759V1.66415V1.68081V1.69757V1.71442V1.73138V1.74843V1.76559V1.78284V1.80018V1.81763V1.83517V1.85281V1.87054V1.88836V1.90629V1.9243V1.94241V1.96062V1.97892V1.99731V2.01579V2.03436V2.05303V2.07178V2.09063V2.10957V2.1286V2.14772V2.16692V2.18622V2.2056V2.22507V2.24463V2.26428V2.28401V2.30383V2.32373V2.34372V2.3638V2.38396V2.4042V2.42453V2.44494V2.46543V2.48601V2.50667V2.52741V2.54823V2.56914V2.59012V2.61118V2.63233V2.65355V2.67485V2.69623V2.71769V2.73922V2.76084V2.78253V2.80429V2.82613V2.84805V2.87005V2.89211V2.91426V2.93647V2.95876V2.98113V3.00356V3.02607V3.04865V3.0713V3.09403V3.11682V3.13969V3.16262V3.18562V3.2087V3.23184V3.25505V3.27833V3.30167V3.32509V3.34856V3.37211V3.39572V3.4194V3.44314V3.46695V3.49082V3.51475V3.53875V3.56281V3.58693V3.61112V3.63537V3.65968V3.68405V3.70848V3.73297V3.75752V3.78213V3.8068V3.83153V3.85631V3.88115V3.90605V3.93101V3.95603V3.9811V4.00622V4.0314V4.05664V4.08193V4.10727V4.13267V4.15812V4.18363V4.20918V4.23479V4.26045V4.28616V4.31193V4.33774V4.3636V4.38951V4.41547V4.44148V4.46754V4.49365V4.5198V4.546V4.57225V4.59855V4.62489V4.65127V4.6777V4.70418V4.7307V4.75726V4.78387V4.81052V4.83721V4.86394V4.89072V4.91754V4.9444V4.9713V4.99824V5.02522V5.05224V5.07929V5.10639V5.13353V5.1607V5.18791V5.21515V5.24244V5.26976V5.29711V5.3245V5.35193V5.37939V5.40688V5.43441V5.46197V5.48957V5.51719V5.54485V5.57254V5.60026V5.62801V5.6558V5.68361V5.71145V5.73932V5.76722V5.79515V5.82311V5.85109V5.8791V5.90714V5.93521V5.9633V5.99141V6.01955V6.04772V6.07591V6.10412V6.13236V6.16062V6.1889V6.21721V6.24554V6.27389V6.30226V6.33065V6.35906V6.38749V6.41594V6.44441V6.47289V6.5014V6.52992V6.55846V6.58702V6.6156V6.64419V6.67279V6.70142V6.73005V6.7587V6.78737V6.81605V6.84474V6.87345V6.90216V6.93089V6.95964V6.98839V7.01715V7.04593V7.07471V7.10351V7.13231V7.16112V7.18994V7.21877V7.24761V7.27645V7.3053V7.33416V7.36302V7.39189V7.42076V7.44964V7.47852V7.50741V7.5363V7.56519V7.59409V7.62298V7.65188V7.68078V7.70969V7.73859V7.76749V7.7964V7.8253V7.8542V7.8831V7.912V7.9409V7.96979V7.99868V8.02757V8.05645V8.08533V8.11421V8.14308V8.17194V8.2008V8.22965V8.2585V8.28734V8.31617V8.34499V8.37381V8.40261V8.43141V8.4602V8.48898V8.51775V8.5465V8.57525V8.60398V8.6327V8.66142V8.69011V8.7188V8.74747V8.77612V8.80476V8.83339V8.862V8.8906V8.91918V8.94775V8.97629V9.00482V9.03333V9.06183V9.0903V9.11876V9.1472V9.17562V9.20401V9.23239V9.26075V9.28908V9.3174V9.34569V9.37396V9.4022V9.43043V9.45862V9.4868V9.51495V9.54307V9.57117V9.59925V9.62729V9.65532V9.68331V9.71128V9.73921V9.76713V9.79501V9.82286V9.85068V9.87848V9.90624V9.93397V9.96167V9.98934V10.017V10.0446V10.0722V10.0997V10.1272V10.1547V10.1821V10.2095V10.2369V10.2642V10.2915V10.3188V10.346V10.3732V10.4003V10.4274V10.4545V10.4815V10.5085V10.5355V10.5624V10.5893V10.6161V10.6429V10.6697V10.6964V10.723V10.7497V10.7762V10.8028V10.8293V10.8557V10.8821V10.9085V10.9348V10.961V10.9873V11.0012H4.5V1ZM3.5 1H2V11.0012H3.5V1Z" fill="black"/>
</svg>
