<svg width="48" height="48" viewBox="0 0 48 48" fill="none" xmlns="http://www.w3.org/2000/svg">
<path fill-rule="evenodd" clip-rule="evenodd" d="M4.5 6.75C4.5 5.23121 5.73122 4 7.25 4H26.3512C27.87 4 29.1012 5.23122 29.1012 6.75V11.4883V24H29.5C29.5 21.7909 31.2909 20 33.5 20C35.7091 20 37.5 21.7909 37.5 24H41.5C42.6046 24 43.5 24.8954 43.5 26V42C43.5 43.1046 42.6046 44 41.5 44H26.4579C26.4225 44.0014 26.3869 44.002 26.3512 44.002H7.25C5.73122 44.002 4.5 42.7708 4.5 41.252V35.552V11.4883V6.75ZM23.5635 42.502C23.5221 42.3416 23.5 42.1734 23.5 42V36.302H6V41.252C6 41.9424 6.55965 42.502 7.25 42.502H23.5635ZM25 35.552V42C25 42.2761 25.2239 42.5 25.5 42.5H41.5C41.7761 42.5 42 42.2761 42 42V26C42 25.7239 41.7761 25.5 41.5 25.5H25.5C25.2239 25.5 25 25.7239 25 26V35.552ZM23.5 34.802H6V12.2383H27.6012V24H25.5C24.3954 24 23.5 24.8954 23.5 26V34.802ZM27.6012 6.75V10.7383H6V6.75C6 6.05964 6.55964 5.5 7.25 5.5H26.3512C27.0416 5.5 27.6012 6.05965 27.6012 6.75ZM16.8004 40.3646C17.332 40.3646 17.763 39.9336 17.763 39.402C17.763 38.8704 17.332 38.4395 16.8004 38.4395C16.2688 38.4395 15.8379 38.8704 15.8379 39.402C15.8379 39.9336 16.2688 40.3646 16.8004 40.3646ZM36 24C36 22.6193 34.8807 21.5 33.5 21.5C32.1193 21.5 31 22.6193 31 24H36ZM31 27H29.5C29.5 29.2091 31.2909 31 33.5 31C35.7091 31 37.5 29.2091 37.5 27H36C36 28.3807 34.8807 29.5 33.5 29.5C32.1193 29.5 31 28.3807 31 27Z" fill="black"/>
</svg>
