<svg width="59" height="58" viewBox="0 0 59 58" fill="none" xmlns="http://www.w3.org/2000/svg">
<rect x="29.0625" y="1" width="28" height="56" stroke="white" stroke-width="2"/>
<rect x="1.0625" y="18" width="28" height="39" stroke="white" stroke-width="2"/>
<rect x="39.0625" y="46" width="8" height="11" stroke="white" stroke-width="2"/>
<path d="M34.0625 7L52.0625 7" stroke="white" stroke-width="2"/>
<path d="M34.0625 13L52.0625 13" stroke="white" stroke-width="2"/>
<path d="M34.0625 19L52.0625 19" stroke="white" stroke-width="2"/>
<path d="M34.0625 25L52.0625 25" stroke="white" stroke-width="2"/>
<path d="M34.0625 31L52.0625 31" stroke="white" stroke-width="2"/>
<path d="M34.0625 37L52.0625 37" stroke="white" stroke-width="2"/>
<path d="M13.0625 24H7.0625V30" stroke="white" stroke-width="2"/>
<path d="M13.0625 35H7.0625V41" stroke="white" stroke-width="2"/>
<path d="M13.0625 46H7.0625V52" stroke="white" stroke-width="2"/>
<path d="M24.0625 24H18.0625V30" stroke="white" stroke-width="2"/>
<path d="M24.0625 35H18.0625V41" stroke="white" stroke-width="2"/>
<path d="M24.0625 46H18.0625V52" stroke="white" stroke-width="2"/>
</svg>
