<svg width="12" height="12" viewBox="0 0 12 12" fill="none" xmlns="http://www.w3.org/2000/svg">
<g clip-path="url(#clip0_11861_64436)">
<path d="M3.24219 5.76198H5.77219V3.36807C5.00219 3.35793 4.27219 3.27678 3.61219 3.13477C3.39219 3.92597 3.26219 4.81862 3.24219 5.77213V5.76198Z" fill="#333333"/>
<path d="M5.76219 0.162109C4.94219 0.314265 4.20219 1.27792 3.74219 2.65746C4.37219 2.78933 5.05219 2.87048 5.76219 2.88062V0.162109Z" fill="#333333"/>
<path d="M6.24219 0.162109V2.88062C6.95219 2.87048 7.63219 2.78933 8.26219 2.65746C7.79219 1.27792 7.06219 0.324409 6.24219 0.162109Z" fill="#333333"/>
<path d="M3.60219 8.87527C4.27219 8.73325 5.00219 8.6521 5.76219 8.64196V6.24805H3.24219C3.26219 7.20155 3.39219 8.0942 3.61219 8.88541L3.60219 8.87527Z" fill="#333333"/>
<path d="M11.9972 5.76205C11.9472 4.43323 11.4772 3.22613 10.7272 2.24219C10.2072 2.55664 9.58719 2.82038 8.86719 3.01311C9.08719 3.83475 9.21719 4.76797 9.23719 5.76205H11.9972Z" fill="#333333"/>
<path d="M8.72906 2.54607C9.36906 2.37363 9.93906 2.14032 10.4091 1.86644C9.53906 0.90279 8.35906 0.233305 7.03906 0C7.73906 0.456467 8.33906 1.34911 8.72906 2.54607Z" fill="#333333"/>
<path d="M10.7272 9.75815C11.4872 8.78435 11.9472 7.56711 11.9972 6.23828H9.23719C9.21719 7.23236 9.08719 8.16558 8.86719 8.98722C9.57719 9.17995 10.2072 9.44369 10.7272 9.75815Z" fill="#333333"/>
<path d="M5.76219 11.8377V9.11914C5.05219 9.12928 4.37219 9.21043 3.74219 9.3423C4.20219 10.7218 4.94219 11.6754 5.76219 11.8377Z" fill="#333333"/>
<path d="M8.72906 9.4541C8.33906 10.6511 7.74906 11.5437 7.03906 12.0002C8.35906 11.7669 9.52906 11.0872 10.4091 10.1337C9.93906 9.85985 9.36906 9.62654 8.72906 9.4541Z" fill="#333333"/>
<path d="M2.76 6.23828H0C0.05 7.56711 0.52 8.77421 1.27 9.75815C1.79 9.44369 2.41 9.17995 3.13 8.98722C2.91 8.16558 2.78 7.23236 2.76 6.23828Z" fill="#333333"/>
<path d="M3.27375 9.4541C2.63375 9.62654 2.06375 9.85985 1.59375 10.1337C2.46375 11.0974 3.63375 11.7669 4.96375 12.0002C4.26375 11.5437 3.66375 10.6511 3.27375 9.4541Z" fill="#333333"/>
<path d="M2.76 5.76205C2.78 4.76797 2.91 3.83475 3.13 3.01311C2.42 2.82038 1.79 2.55664 1.27 2.24219C0.52 3.22613 0.05 4.43323 0 5.76205H2.76Z" fill="#333333"/>
<path d="M8.40219 3.1244C7.73219 3.26641 7.00219 3.34756 6.24219 3.35771V5.75162H8.77219C8.75219 4.79811 8.62219 3.90547 8.40219 3.11426V3.1244Z" fill="#333333"/>
<path d="M3.27375 2.54607C3.66375 1.34911 4.25375 0.456467 4.96375 0C3.64375 0.233305 2.47375 0.912933 1.59375 1.86644C2.06375 2.14032 2.63375 2.37363 3.27375 2.54607Z" fill="#333333"/>
<path d="M8.75656 6.23866H6.22656V8.63257C6.99656 8.64272 7.72656 8.72387 8.38656 8.86588C8.60656 8.07467 8.73656 7.18202 8.75656 6.22852V6.23866Z" fill="#333333"/>
<path d="M8.26219 9.3423C7.63219 9.21043 6.95219 9.12928 6.24219 9.11914V11.8377C7.06219 11.6855 7.80219 10.7218 8.26219 9.3423Z" fill="#333333"/>
</g>
<defs>
<clipPath id="clip0_11861_64436">
<rect width="12" height="12" fill="white"/>
</clipPath>
</defs>
</svg>
