<svg width="80" height="80" viewBox="0 0 80 80" fill="none" xmlns="http://www.w3.org/2000/svg">
<path d="M26 64C26 66.2091 24.2091 68 22 68V68C19.7909 68 18 66.2091 18 64L18 40L26 40L26 64Z" stroke="black" stroke-width="1.5"/>
<path d="M23 64C23 64.5523 22.5523 65 22 65V65C21.4477 65 21 64.5523 21 64L21 40L23 40L23 64Z" stroke="black" stroke-width="1.5"/>
<path d="M33 64C33 64.5523 32.5523 65 32 65V65C31.4477 65 31 64.5523 31 64L31 40L33 40L33 64Z" stroke="black" stroke-width="1.5"/>
<path d="M36 64C36 66.2091 34.2091 68 32 68V68C29.7909 68 28 66.2091 28 64L28 40L36 40L36 64Z" stroke="black" stroke-width="1.5"/>
<path d="M18 21C18 17.6863 20.6863 15 24 15H30C33.3137 15 36 17.6863 36 21V40H18V21Z" stroke="black" stroke-width="1.5"/>
<path d="M25 14C25 12.8954 25.8954 12 27 12V12C28.1046 12 29 12.8954 29 14L29 15L25 15L25 14Z" stroke="black" stroke-width="1.5"/>
<path d="M18 37L36 37" stroke="black" stroke-width="1.5" stroke-linecap="round" stroke-linejoin="round"/>
<path d="M26 21L36 21" stroke="black" stroke-width="1.5" stroke-linecap="round" stroke-linejoin="round"/>
<path d="M41.998 21C41.998 17.6863 44.6843 15 47.998 15H53.998C57.3118 15 59.998 17.6863 59.998 21V40H41.998V21Z" stroke="black" stroke-width="1.5"/>
<path d="M54.002 40V39.25C53.5877 39.25 53.252 39.5858 53.252 40H54.002ZM60.002 40H60.752C60.752 39.5858 60.4162 39.25 60.002 39.25V40ZM54.002 42.4504L54.3803 43.098C54.6104 42.9635 54.752 42.7169 54.752 42.4504H54.002ZM43.4367 48.6225L43.0584 47.9749L43.4367 48.6225ZM42.3814 52.5611L41.73 52.9328L42.3814 52.5611ZM46.2801 53.6057L45.9018 52.9581H45.9018L46.2801 53.6057ZM58.5633 46.43L58.9416 47.0776L58.5633 46.43ZM59.997 44V43.25C59.5907 43.25 59.2583 43.5735 59.2473 43.9796L59.997 44ZM60.002 44V44.75C60.4162 44.75 60.752 44.4142 60.752 44H60.002ZM54.002 40.75H60.002V39.25H54.002V40.75ZM54.752 42.4504V40H53.252V42.4504H54.752ZM43.8151 49.27L54.3803 43.098L53.6236 41.8028L43.0584 47.9749L43.8151 49.27ZM43.0329 52.1894C42.4515 51.1705 42.8021 49.8618 43.8151 49.27L43.0584 47.9749C41.3353 48.9815 40.741 51.1995 41.73 52.9328L43.0329 52.1894ZM45.9018 52.9581C44.894 53.5468 43.6113 53.2031 43.0329 52.1894L41.73 52.9328C42.722 54.6713 44.9302 55.2629 46.6585 54.2533L45.9018 52.9581ZM58.185 45.7824L45.9018 52.9581L46.6585 54.2533L58.9416 47.0776L58.185 45.7824ZM59.2473 43.9796C59.2276 44.7031 58.8462 45.3961 58.185 45.7824L58.9416 47.0776C60.0715 46.4175 60.7136 45.2378 60.7467 44.0204L59.2473 43.9796ZM60.002 43.25H59.997V44.75H60.002V43.25ZM59.252 40V44H60.752V40H59.252Z" fill="black"/>
<path d="M46.1612 60.5078C44.9654 61.1982 43.4364 60.7885 42.7461 59.5927V59.5927C42.0557 58.397 42.4654 56.868 43.6612 56.1777L56.4297 48.8058C57.6254 48.1154 59.1544 48.5251 59.8447 49.7208V49.7208C60.5351 50.9166 60.1254 52.4455 58.9297 53.1359L46.1612 60.5078Z" stroke="black" stroke-width="1.5"/>
<path d="M46.1612 67.2637C44.9654 67.954 43.4364 67.5443 42.7461 66.3486V66.3486C42.0557 65.1529 42.4654 63.6239 43.6612 62.9335L56.4297 55.5616C57.6254 54.8713 59.1544 55.281 59.8447 56.4767V56.4767C60.5351 57.6724 60.1254 59.2014 58.9297 59.8918L46.1612 67.2637Z" stroke="black" stroke-width="1.5"/>
<path d="M48.998 14C48.998 12.8954 49.8935 12 50.998 12V12C52.1026 12 52.998 12.8954 52.998 14L52.998 15L48.998 15L48.998 14Z" stroke="black" stroke-width="1.5"/>
<path d="M41.998 37L59.998 37" stroke="black" stroke-width="1.5" stroke-linecap="round" stroke-linejoin="round"/>
<path d="M49.998 21L59.998 21" stroke="black" stroke-width="1.5" stroke-linecap="round" stroke-linejoin="round"/>
<path d="M42 51V40H48V46" stroke="black" stroke-width="1.5"/>
<path d="M46 67.5H57.5C58.8807 67.5 60 66.3807 60 65V65C60 63.6193 58.8807 62.5 57.5 62.5H54.5" stroke="black" stroke-width="1.5" stroke-linecap="round"/>
</svg>
