<svg width="72" height="72" viewBox="0 0 72 72" fill="none" xmlns="http://www.w3.org/2000/svg">
<path fill-rule="evenodd" clip-rule="evenodd" d="M12.3672 17.2275C11.953 17.2275 11.6172 17.5633 11.6172 17.9775C11.6172 18.3918 11.953 18.7275 12.3672 18.7275H18.4149L27.7081 43.5094C28.5837 45.8453 30.8244 47.3911 33.3281 47.3911H54.3742C54.7885 47.3911 55.1242 47.0553 55.1242 46.6411C55.1242 46.2269 54.7885 45.8911 54.3742 45.8911H33.3281C31.4455 45.8911 29.7673 44.7293 29.1127 42.9829L29.1126 42.9828L27.8324 39.5689H49.0395C52.7083 39.5689 55.9554 37.2303 56.8644 33.8253L60.358 20.753C60.4182 20.5278 60.3703 20.2874 60.2283 20.1026C60.0864 19.9177 59.8665 19.8093 59.6335 19.8093H49.3058C48.8916 19.8093 48.5558 20.1451 48.5558 20.5593C48.5558 20.9735 48.8916 21.3093 49.3058 21.3093H58.6567L55.4152 33.4382L55.4151 33.4384C54.6967 36.1295 52.0903 38.0689 49.0395 38.0689H27.2699L19.6369 17.7142C19.5271 17.4215 19.2472 17.2275 18.9346 17.2275H12.3672ZM26.9111 57.0715C26.9111 55.6894 28.0399 54.5609 29.4422 54.5609C30.8445 54.5609 31.9733 55.6894 31.9733 57.0715C31.9733 58.4537 30.8445 59.5822 29.4422 59.5822C28.0399 59.5822 26.9111 58.4537 26.9111 57.0715ZM29.4422 53.0609C27.2203 53.0609 25.4111 54.8521 25.4111 57.0715C25.4111 59.291 27.2203 61.0822 29.4422 61.0822C31.6641 61.0822 33.4733 59.291 33.4733 57.0715C33.4733 54.8521 31.6641 53.0609 29.4422 53.0609ZM53.0689 54.5609C51.6666 54.5609 50.5379 55.6894 50.5379 57.0715C50.5379 58.4537 51.6666 59.5822 53.0689 59.5822C54.4713 59.5822 55.6 58.4537 55.6 57.0715C55.6 55.6894 54.4713 54.5609 53.0689 54.5609ZM49.0379 57.0715C49.0379 54.8521 50.8471 53.0609 53.0689 53.0609C55.2908 53.0609 57.1 54.8521 57.1 57.0715C57.1 59.291 55.2908 61.0822 53.0689 61.0822C50.8471 61.0822 49.0379 59.291 49.0379 57.0715Z" fill="black"/>
<path d="M36.6309 20.36L39.1661 23.1927L44.2366 17.5273" stroke="black" stroke-width="1.5" stroke-linecap="round" stroke-linejoin="round"/>
<rect x="31.6758" y="11.668" width="17.5143" height="17.3845" rx="8.69224" stroke="black" stroke-width="1.5"/>
</svg>