<svg width="80" height="80" viewBox="0 0 80 80" fill="none" xmlns="http://www.w3.org/2000/svg">
<path fill-rule="evenodd" clip-rule="evenodd" d="M4.45 12.7402C3.31326 12.7402 2.5 13.5747 2.5 14.4727V65.777C2.5 66.675 3.31326 67.5095 4.45 67.5095H19L19 12.7402H4.45ZM19.75 11.2402H4.45C2.60594 11.2402 1 12.6301 1 14.4727V65.777C1 67.6196 2.60594 69.0095 4.45 69.0095H19.75H35.05C36.8941 69.0095 38.5 67.6196 38.5 65.777V14.4727C38.5 12.6301 36.8941 11.2402 35.05 11.2402H19.75ZM20.5 12.7402L20.5 67.5095H35.05C36.1867 67.5095 37 66.675 37 65.777V14.4727C37 13.5747 36.1867 12.7402 35.05 12.7402H20.5ZM14.1694 42.581V35.2417H13.0477V35.4007V37.5801V39.0801H11.5477H10.875H9.375V37.5801V35.4007V35.2417H8.25V42.581H14.1694ZM15.6694 35.2417V33.7417V32.2536C15.6694 31.7168 15.1776 31.2737 14.5605 31.2737H7.8589C7.25141 31.2737 6.75 31.7083 6.75 32.2536V33.7417V35.2417V43.1011C6.75 43.6379 7.24177 44.081 7.8589 44.081H14.5508H14.5605C15.168 44.081 15.6694 43.6464 15.6694 43.1011V35.2417ZM8.25 32.7737V33.7417H14.1694V32.7737H8.25ZM11.5477 37.5801H10.875V35.4007H11.5477V37.5801Z" fill="black"/>
<path fill-rule="evenodd" clip-rule="evenodd" d="M42.5 21.8825C42.5 21.2684 43.202 20.4922 44.45 20.4922H75.05C76.298 20.4922 77 21.2684 77 21.8825V26.1704H42.5V21.8825ZM42.5 27.6704V66.1167C42.5 66.7309 43.202 67.507 44.45 67.507H75.05C76.298 67.507 77 66.7309 77 66.1167V27.6704H42.5ZM44.45 18.9922C42.7172 18.9922 41 20.1338 41 21.8825V66.1167C41 67.8654 42.7172 69.007 44.45 69.007H75.05C76.7828 69.007 78.5 67.8654 78.5 66.1167V21.8825C78.5 20.1338 76.7828 18.9922 75.05 18.9922H44.45Z" fill="black"/>
<ellipse cx="60" cy="47.7134" rx="11" ry="10.8911" stroke="black" stroke-width="1.5"/>
<path d="M53 47.7119C53 43.8842 56.134 40.7812 60 40.7812" stroke="black" stroke-width="1.5" stroke-linecap="round"/>
</svg>
