<svg width="15" height="20" viewBox="0 0 15 20" fill="none" xmlns="http://www.w3.org/2000/svg">
<g clip-path="url(#clip0_989_22433)">
<path d="M13.6609 8.13591C13.6609 4.56453 10.6753 1.66602 6.99648 1.66602C3.3177 1.66602 0.332031 4.56453 0.332031 8.13591C0.332031 9.13228 0.563065 10.0769 0.980704 10.9223C1.0118 11.0042 1.05179 11.0862 1.10066 11.1681L6.16564 18.6905C6.52997 19.3245 7.47187 19.3245 7.8362 18.6905L12.8878 11.194C12.8878 11.194 12.9634 11.0517 12.9945 10.9784C13.4254 10.1243 13.6654 9.16247 13.6654 8.14454L13.6609 8.13591Z" fill="#666666"/>
<path d="M6.99935 11.6657C8.8403 11.6657 10.3327 10.1733 10.3327 8.33236C10.3327 6.49141 8.8403 4.99902 6.99935 4.99902C5.1584 4.99902 3.66602 6.49141 3.66602 8.33236C3.66602 10.1733 5.1584 11.6657 6.99935 11.6657Z" fill="white"/>
</g>
<defs>
<clipPath id="clip0_989_22433">
<rect width="13.3333" height="17.5" fill="white" transform="translate(0.332031 1.66602)"/>
</clipPath>
</defs>
</svg>
