<svg width="48" height="23" viewBox="0 0 48 23" fill="none" xmlns="http://www.w3.org/2000/svg">
<path d="M29.0332 4.42291H25.875V18.6445H35.575V15.8752H29.0332V4.42291Z" fill="white"/>
<path d="M42.5178 13.2235H45.0884V15.71C44.615 15.8986 43.6911 16.0865 42.8114 16.0865C39.9685 16.0865 39.0211 14.5832 39.0211 11.533C39.0211 8.6229 39.9231 6.90936 42.7653 6.90936C44.3452 6.90936 45.2465 7.42573 45.9907 8.41175L47.9543 6.53407C46.7577 4.75126 44.6599 4.21103 42.6974 4.21103C38.2769 4.21103 35.9531 6.7218 35.9531 11.5092C35.9531 16.2742 38.0509 18.8555 42.6751 18.8555C44.7955 18.8555 46.8711 18.292 47.9985 17.4712V10.5712H42.5178V13.2235Z" fill="white"/>
<path d="M0 11.594C0 17.6703 4.73492 22.5938 10.5666 22.5938C16.3853 22.5938 21.1013 17.717 21.1468 11.6794V11.5074C21.1013 5.47103 16.3853 0.593751 10.5666 0.593751C4.73492 0.593751 0 5.51759 0 11.594" fill="url(#paint0_radial_4559_203581)"/>
<path d="M3.41647 4.14686C-0.116486 7.82337 -0.474054 13.4252 2.62834 16.6538C5.73047 19.8801 11.1105 19.5108 14.6445 15.8321C18.184 12.1479 18.5405 6.54752 15.4402 3.31953C14.0241 1.84565 12.1328 1.12103 10.1554 1.12103C7.80668 1.12103 5.33847 2.14613 3.41647 4.14686" fill="url(#paint1_linear_4559_203581)"/>
<path d="M10.2386 16.3098L10.0234 16.5234H13.1946L12.988 16.3036L10.2386 16.3098Z" fill="#626D77"/>
<path d="M12.9898 15.6445L13.1964 15.4358H11.1207L10.875 15.6445H12.9898Z" fill="#8699A3"/>
<path d="M11.1191 6.6511H10.0234L10.2289 6.85547L10.8844 6.85432L11.1191 6.6511Z" fill="#8D9AA1"/>
<path d="M10.8828 6.8528L10.8891 15.6289L11.1175 15.4364V6.64957L10.8828 6.8528Z" fill="url(#paint2_linear_4559_203581)"/>
<path d="M12.9922 15.6466V16.3036L13.1987 16.5234V15.4379L12.9922 15.6466Z" fill="url(#paint3_linear_4559_203581)"/>
<path d="M10.0234 6.65102V16.5234L10.2386 16.3098L10.2289 6.85539L10.0234 6.65102Z" fill="#B4BDC3"/>
<path d="M5.8125 8.08097C5.8125 8.87124 6.43095 9.51172 7.19303 9.51172C7.95596 9.51172 8.57246 8.87124 8.57246 8.08097C8.57246 7.28963 7.95596 6.64599 7.19303 6.64599C6.43095 6.64599 5.8125 7.28963 5.8125 8.08097ZM6.01662 8.08097C6.01662 7.40713 6.5443 6.86154 7.19303 6.86154C7.83956 6.86154 8.36733 7.40713 8.36733 8.08097C8.36733 8.7526 7.83956 9.29679 7.19303 9.29679C6.5443 9.29679 6.01662 8.7526 6.01662 8.08097Z" fill="url(#paint4_linear_4559_203581)"/>
<path d="M18.6682 11.9285L13.1878 11.9216L12.9844 12.1445H18.4578L18.5667 12.0266L18.6682 11.9285Z" fill="#505C61"/>
<path d="M13.1878 11.2812L19.3171 11.2708L19.5245 11.0536L12.9844 11.0553L13.1878 11.2812Z" fill="#8F9CA4"/>
<path d="M1.60938 11.5891C1.60938 14.0777 2.542 16.42 4.23272 18.1816C5.92193 19.9422 8.17037 20.9141 10.5614 20.9141C12.9601 20.9141 15.2142 19.9422 16.9027 18.1816C18.5958 16.42 19.5255 14.0777 19.5255 11.5891V11.0509L19.3181 11.268V11.5891C19.3181 14.0221 18.4097 16.3081 16.7578 18.0298C15.1077 19.7511 12.9053 20.6994 10.5614 20.6994C8.22713 20.6994 6.02953 19.7511 4.37881 18.0298C2.72624 16.3067 1.81603 14.0199 1.81603 11.5891C1.81603 6.56447 5.73972 2.47923 10.5614 2.47923L10.8957 2.47483L11.1003 2.26844L10.5614 2.26324C5.62704 2.26324 1.60938 6.44636 1.60938 11.5891" fill="url(#paint5_linear_4559_203581)"/>
<path d="M10.4446 3.1469C8.32605 3.17885 6.33697 4.05441 4.82456 5.61718C3.29582 7.21111 2.45312 9.33189 2.45312 11.5895C2.45312 13.8462 3.29582 15.965 4.82456 17.5599C6.33756 19.1303 8.33476 20.0082 10.4596 20.0352H10.6687C14.8759 19.9795 18.3776 16.5401 18.6618 12.1618L18.6692 11.9286L18.566 12.0269L18.4571 12.1447C18.176 16.4503 14.7084 19.8209 10.5654 19.8209C8.45378 19.8209 6.46842 18.9623 4.97192 17.408C3.48049 15.8538 2.66054 13.7882 2.66054 11.5895C2.66054 9.38919 3.48049 7.3206 4.97192 5.76839C6.47147 4.21891 8.45624 3.36174 10.5654 3.36174L11.0985 3.36711L10.8932 3.15227L10.6623 3.1469H10.4446Z" fill="url(#paint6_linear_4559_203581)"/>
<path d="M13.1878 11.2787L12.9844 11.0527V12.1445L13.1878 11.9216V11.2787Z" fill="#B4BDC3"/>
<path d="M10.8984 2.47534V3.15358L11.1031 3.36719V2.26895L10.8984 2.47534Z" fill="url(#paint7_linear_4559_203581)"/>
<path d="M10.4513 2.38044C5.63305 2.44064 1.71875 6.54798 1.71875 11.5894C1.71875 14.05 2.63978 16.3595 4.3097 18.0993C5.97776 19.8392 8.20395 20.7969 10.559 20.7969C12.9288 20.7969 15.153 19.8392 16.8217 18.0993C18.493 16.3595 19.4114 14.05 19.4114 11.5894V11.1708L19.0617 11.1722H13.0962V12.0267H18.5707C18.5701 12.0467 18.5701 12.1349 18.5683 12.1516C18.2838 16.4912 14.8077 19.9375 10.5644 19.9375C8.4249 19.9375 6.41154 19.0685 4.89144 17.4904C3.3808 15.9161 2.54622 13.8203 2.54622 11.5894C2.54622 9.35658 3.3808 7.25922 4.89144 5.68615C6.41154 4.1144 8.4249 3.245 10.5644 3.245C10.6565 3.245 10.8862 3.245 10.9875 3.24746V2.38528C10.904 2.38528 10.7655 2.38229 10.6565 2.38044H10.4513ZM10.1433 6.76599V16.4064H13.0892V15.5471H10.9875V6.76599H10.1433Z" fill="url(#paint8_radial_4559_203581)"/>
<path d="M5.92188 8.08351C5.92188 8.81095 6.49431 9.39844 7.19244 9.39844C7.88989 9.39844 8.46097 8.81095 8.46097 8.08351C8.46097 7.35071 7.88989 6.76366 7.19244 6.76366C6.49431 6.76366 5.92188 7.35071 5.92188 8.08351Z" fill="url(#paint9_radial_4559_203581)"/>
<defs>
<radialGradient id="paint0_radial_4559_203581" cx="0" cy="0" r="1" gradientUnits="userSpaceOnUse" gradientTransform="translate(10.1781 11.2605) scale(11.0237 11.4697)">
<stop stop-color="#BF0C3F"/>
<stop offset="0.5" stop-color="#BF0C3F"/>
<stop offset="0.883847" stop-color="#BF0C3F"/>
<stop offset="1" stop-color="#99002C"/>
</radialGradient>
<linearGradient id="paint1_linear_4559_203581" x1="6.24485" y1="2.01412" x2="12.2256" y2="17.8071" gradientUnits="userSpaceOnUse">
<stop stop-color="#F38895"/>
<stop offset="0.547622" stop-color="#BF0C3F"/>
<stop offset="0.8011" stop-color="#BF0C3F"/>
<stop offset="1" stop-color="#BF0C3F"/>
</linearGradient>
<linearGradient id="paint2_linear_4559_203581" x1="10.8828" y1="11.1392" x2="11.1174" y2="11.1392" gradientUnits="userSpaceOnUse">
<stop stop-color="#B4BDC3"/>
<stop offset="0.844281" stop-color="#333940"/>
<stop offset="1" stop-color="#333940"/>
</linearGradient>
<linearGradient id="paint3_linear_4559_203581" x1="12.9921" y1="15.9806" x2="13.1987" y2="15.9806" gradientUnits="userSpaceOnUse">
<stop stop-color="#B3BBC1"/>
<stop offset="0.844281" stop-color="#2A3236"/>
<stop offset="1" stop-color="#2A3236"/>
</linearGradient>
<linearGradient id="paint4_linear_4559_203581" x1="6.21556" y1="7.06166" x2="8.24233" y2="9.00963" gradientUnits="userSpaceOnUse">
<stop stop-color="#ABBAC2"/>
<stop offset="1" stop-color="#262A30"/>
</linearGradient>
<linearGradient id="paint5_linear_4559_203581" x1="3.41913" y1="5.80631" x2="16.7006" y2="18.5714" gradientUnits="userSpaceOnUse">
<stop stop-color="#B4BDC3"/>
<stop offset="1" stop-color="#3E454D"/>
</linearGradient>
<linearGradient id="paint6_linear_4559_203581" x1="18.6705" y1="11.5856" x2="2.45294" y2="11.5856" gradientUnits="userSpaceOnUse">
<stop stop-color="#B4BDC3"/>
<stop offset="1" stop-color="#485159"/>
</linearGradient>
<linearGradient id="paint7_linear_4559_203581" x1="10.8984" y1="2.81801" x2="11.103" y2="2.81801" gradientUnits="userSpaceOnUse">
<stop stop-color="#B3BBC1"/>
<stop offset="0.844281" stop-color="#2A3236"/>
<stop offset="1" stop-color="#2A3236"/>
</linearGradient>
<radialGradient id="paint8_radial_4559_203581" cx="0" cy="0" r="1" gradientUnits="userSpaceOnUse" gradientTransform="translate(6.99905 7.69007) scale(13.5312 14.0786)">
<stop stop-color="white"/>
<stop offset="0.350006" stop-color="white"/>
<stop offset="0.666526" stop-color="white"/>
<stop offset="1" stop-color="#C0CCD2"/>
</radialGradient>
<radialGradient id="paint9_radial_4559_203581" cx="0" cy="0" r="1" gradientUnits="userSpaceOnUse" gradientTransform="translate(6.6668 7.59659) scale(1.97584 2.05578)">
<stop stop-color="white"/>
<stop offset="0.350006" stop-color="white"/>
<stop offset="0.665531" stop-color="white"/>
<stop offset="1" stop-color="#D0DADF"/>
</radialGradient>
</defs>
</svg>
