<svg width="62" height="60" viewBox="0 0 62 60" fill="none" xmlns="http://www.w3.org/2000/svg">
<path fill-rule="evenodd" clip-rule="evenodd" d="M31 4.28516C31.8476 4.28516 32.6762 4.53652 33.381 5.00744C34.0858 5.47836 34.6351 6.14766 34.9595 6.93077C35.2838 7.71388 35.3687 8.5756 35.2034 9.40694C35.038 10.2383 34.6298 11.002 34.0305 11.6013C33.4311 12.2007 32.6674 12.6089 31.8361 12.7743C31.0047 12.9396 30.143 12.8547 29.3599 12.5303C28.5768 12.206 27.9075 11.6567 27.4366 10.9519C26.9657 10.2471 26.7143 9.4185 26.7143 8.57087C26.7143 7.43423 27.1658 6.34414 27.9695 5.54041C28.7733 4.73668 29.8634 4.28516 31 4.28516ZM31 6.42801C31.4238 6.42801 31.8381 6.55366 32.1905 6.78912C32.5429 7.02458 32.8176 7.35926 32.9798 7.75082C33.1419 8.14237 33.1843 8.57327 33.1017 8.98894C33.019 9.40461 32.8149 9.78638 32.5152 10.0861C32.2155 10.3858 31.8337 10.5898 31.4181 10.6725C31.0024 10.7552 30.5715 10.7128 30.1799 10.5506C29.7884 10.3884 29.4537 10.1138 29.2183 9.76138C28.9828 9.40899 28.8571 8.99469 28.8571 8.57087C28.8571 8.00255 29.0829 7.45754 29.4848 7.05567C29.8867 6.65381 30.4317 6.42801 31 6.42801ZM58.8571 41.7852H56.7143V37.4994C56.7143 47.693 47.5396 55.7137 37.4286 55.7137H24.5714C14.4229 55.7137 5.28571 47.6341 5.28571 37.4994V33.2137C5.28571 23.0352 14.4229 14.9994 24.5714 14.9994H29.9286V12.8566H32.0714V14.9994H37.4286C47.6318 14.9994 56.7143 23.1477 56.7143 33.2137V28.928H58.8571C59.4083 28.9789 59.9242 29.2211 60.3156 29.6124C60.7069 30.0038 60.9491 30.5197 61 31.0709V39.6423C60.9493 40.1935 60.7072 40.7096 60.3158 41.101C59.9244 41.4924 59.4083 41.7344 58.8571 41.7852ZM54.5714 33.2137C54.5714 24.1066 46.5004 17.1423 37.4286 17.1423H24.5714C15.4996 17.1423 7.42857 24.1066 7.42857 33.2137V37.4994C7.42857 46.5637 15.4579 53.5709 24.5714 53.5709H37.4286C46.5829 53.5709 54.5714 46.5637 54.5714 37.4994V33.2137ZM58.8571 32.1423C58.8316 31.8668 58.7105 31.6089 58.5148 31.4132C58.3191 31.2175 58.0612 31.0964 57.7857 31.0709H56.7143V39.6423H57.7857C58.0613 39.6169 58.3194 39.4959 58.5151 39.3002C58.7108 39.1045 58.8318 38.8465 58.8571 38.5709V32.1423ZM42.7857 38.5709C38.8911 37.9067 34.9505 37.5485 31 37.4994C27.0497 37.5517 23.1093 37.9099 19.2143 38.5709C17.2252 38.5709 15.3175 37.7807 13.911 36.3742C12.5044 34.9677 11.7143 33.06 11.7143 31.0709C11.7143 29.0817 12.5044 27.1741 13.911 25.7675C15.3175 24.361 17.2252 23.5709 19.2143 23.5709C23.1093 22.9099 27.0497 22.5517 31 22.4994C34.9505 22.5485 38.8911 22.9067 42.7857 23.5709C44.7748 23.5709 46.6825 24.361 48.089 25.7675C49.4956 27.1741 50.2857 29.0817 50.2857 31.0709C50.2857 33.06 49.4956 34.9677 48.089 36.3742C46.6825 37.7807 44.7748 38.5709 42.7857 38.5709ZM42.7857 25.7137C38.8911 25.0496 34.9505 24.6913 31 24.6423C27.0497 24.6946 23.1093 25.0528 19.2143 25.7137C17.7935 25.7137 16.4309 26.2781 15.4262 27.2828C14.4216 28.2875 13.8571 29.6501 13.8571 31.0709C13.8571 32.4917 14.4216 33.8543 15.4262 34.8589C16.4309 35.8636 17.7935 36.428 19.2143 36.428C23.1093 35.7671 27.0497 35.4089 31 35.3566C34.9505 35.4056 38.8911 35.7638 42.7857 36.428C44.2065 36.428 45.5691 35.8636 46.5738 34.8589C47.5784 33.8543 48.1429 32.4917 48.1429 31.0709C48.1429 29.6501 47.5784 28.2875 46.5738 27.2828C45.5691 26.2781 44.2065 25.7137 42.7857 25.7137ZM39.5714 33.2137C39.0201 33.1632 38.504 32.9212 38.1125 32.5298C37.7211 32.1383 37.4791 31.6221 37.4286 31.0709V29.9994C37.4286 29.4311 37.6544 28.8861 38.0562 28.4842C38.4581 28.0824 39.0031 27.8566 39.5714 27.8566C40.1397 27.8566 40.6848 28.0824 41.0866 28.4842C41.4885 28.8861 41.7143 29.4311 41.7143 29.9994V31.0709C41.6636 31.6221 41.4215 32.1382 41.0301 32.5296C40.6387 32.921 40.1226 33.163 39.5714 33.2137ZM22.4286 33.2137C21.8773 33.1632 21.3611 32.9212 20.9697 32.5298C20.5782 32.1383 20.3362 31.6221 20.2857 31.0709V29.9994C20.2857 29.4311 20.5115 28.8861 20.9134 28.4842C21.3152 28.0824 21.8603 27.8566 22.4286 27.8566C22.9969 27.8566 23.5419 28.0824 23.9438 28.4842C24.3456 28.8861 24.5714 29.4311 24.5714 29.9994V31.0709C24.5207 31.6221 24.2787 32.1382 23.8873 32.5296C23.4959 32.921 22.9798 33.163 22.4286 33.2137ZM23.5 41.7852C23.7755 41.8107 24.0334 41.9318 24.2291 42.1275C24.4247 42.3232 24.5459 42.5811 24.5714 42.8566C24.5714 42.8759 24.7739 43.2412 24.5714 42.8566C26.426 44.2475 28.6817 44.9994 31 44.9994C33.3183 44.9994 35.574 44.2475 37.4286 42.8566C37.4286 42.8384 37.4286 42.8748 37.4286 42.8566C37.4541 42.5811 37.5752 42.3232 37.7709 42.1275C37.9666 41.9318 38.2245 41.8107 38.5 41.7852C38.7842 41.7852 39.0567 41.898 39.2576 42.099C39.4585 42.2999 39.5714 42.5724 39.5714 42.8566C39.5714 43.1407 39.4585 43.4132 39.2576 43.6142C39.0567 43.8151 38.7842 43.928 38.5 43.928C37.5326 44.9437 36.3691 45.7523 35.0798 46.3048C33.7906 46.8573 32.4026 47.1422 31 47.1422C29.5974 47.1422 28.2094 46.8573 26.9201 46.3048C25.6309 45.7523 24.4674 44.9437 23.5 43.928C23.2158 43.928 22.9433 43.8151 22.7424 43.6142C22.5415 43.4132 22.4286 43.1407 22.4286 42.8566C22.4286 42.5724 22.5415 42.2999 22.7424 42.099C22.9433 41.898 23.2158 41.7852 23.5 41.7852ZM5.28571 31.0709H4.21429C3.93868 31.0962 3.68064 31.2172 3.48494 31.4129C3.28923 31.6087 3.16822 31.8667 3.14286 32.1423V38.5709C3.167 38.8469 3.28762 39.1056 3.48356 39.3016C3.67951 39.4975 3.93823 39.6182 4.21429 39.6423H5.28571L6.35714 41.7852H3.14286C2.61148 41.7819 2.0998 41.5837 1.70483 41.2282C1.30985 40.8728 1.05903 40.3847 1 39.8566V31.0709C1.05072 30.5197 1.29275 30.0036 1.68416 29.6122C2.07557 29.2208 2.59165 28.9787 3.14286 28.928H6.35714" fill="#1D1D1B"/>
<path d="M5.28571 31.0709H4.21429C3.93868 31.0962 3.68064 31.2172 3.48494 31.4129C3.28923 31.6086 3.16822 31.8667 3.14286 32.1423V38.5709C3.167 38.8469 3.28762 39.1056 3.48356 39.3016C3.67951 39.4975 3.93823 39.6182 4.21429 39.6423H5.28571L6.35714 41.7852H3.14286C2.61148 41.7819 2.0998 41.5837 1.70483 41.2282C1.30985 40.8728 1.05903 40.3847 1 39.8566V31.0709C1.05072 30.5197 1.29275 30.0036 1.68416 29.6122C2.07557 29.2208 2.59165 28.9787 3.14286 28.928H6.35714M31 4.28516C31.8476 4.28516 32.6762 4.53652 33.381 5.00744C34.0858 5.47836 34.6351 6.14766 34.9595 6.93077C35.2838 7.71388 35.3687 8.5756 35.2034 9.40694C35.038 10.2383 34.6298 11.002 34.0305 11.6013C33.4311 12.2007 32.6674 12.6089 31.8361 12.7743C31.0047 12.9396 30.143 12.8547 29.3599 12.5303C28.5768 12.206 27.9075 11.6567 27.4366 10.9519C26.9657 10.2471 26.7143 9.4185 26.7143 8.57087C26.7143 7.43423 27.1658 6.34414 27.9695 5.54041C28.7733 4.73668 29.8634 4.28516 31 4.28516ZM31 6.42801C31.4238 6.42801 31.8381 6.55366 32.1905 6.78912C32.5429 7.02458 32.8176 7.35926 32.9798 7.75082C33.1419 8.14238 33.1843 8.57327 33.1017 8.98894C33.019 9.40461 32.8149 9.78638 32.5152 10.0861C32.2155 10.3858 31.8337 10.5898 31.4181 10.6725C31.0024 10.7552 30.5715 10.7128 30.1799 10.5506C29.7884 10.3884 29.4537 10.1138 29.2183 9.76138C28.9828 9.40899 28.8571 8.99469 28.8571 8.57087C28.8571 8.00255 29.0829 7.45754 29.4848 7.05567C29.8867 6.65381 30.4317 6.42801 31 6.42801ZM58.8571 41.7852H56.7143V37.4994C56.7143 47.693 47.5396 55.7137 37.4286 55.7137H24.5714C14.4229 55.7137 5.28571 47.6341 5.28571 37.4994V33.2137C5.28571 23.0352 14.4229 14.9994 24.5714 14.9994H29.9286V12.8566H32.0714V14.9994H37.4286C47.6318 14.9994 56.7143 23.1477 56.7143 33.2137V28.928H58.8571C59.4083 28.9789 59.9242 29.2211 60.3156 29.6124C60.7069 30.0038 60.9491 30.5197 61 31.0709V39.6423C60.9493 40.1935 60.7072 40.7096 60.3158 41.101C59.9244 41.4924 59.4083 41.7344 58.8571 41.7852ZM54.5714 33.2137C54.5714 24.1066 46.5004 17.1423 37.4286 17.1423H24.5714C15.4996 17.1423 7.42857 24.1066 7.42857 33.2137V37.4994C7.42857 46.5637 15.4579 53.5709 24.5714 53.5709H37.4286C46.5829 53.5709 54.5714 46.5637 54.5714 37.4994V33.2137ZM58.8571 32.1423C58.8316 31.8668 58.7105 31.6089 58.5148 31.4132C58.3191 31.2175 58.0612 31.0964 57.7857 31.0709H56.7143V39.6423H57.7857C58.0613 39.6169 58.3194 39.4959 58.5151 39.3002C58.7108 39.1045 58.8318 38.8465 58.8571 38.5709V32.1423ZM42.7857 38.5709C38.8911 37.9067 34.9505 37.5485 31 37.4994C27.0497 37.5517 23.1093 37.9099 19.2143 38.5709C17.2252 38.5709 15.3175 37.7807 13.911 36.3742C12.5044 34.9677 11.7143 33.06 11.7143 31.0709C11.7143 29.0817 12.5044 27.1741 13.911 25.7675C15.3175 24.361 17.2252 23.5709 19.2143 23.5709C23.1093 22.9099 27.0497 22.5517 31 22.4994C34.9505 22.5485 38.8911 22.9067 42.7857 23.5709C44.7748 23.5709 46.6825 24.361 48.089 25.7675C49.4956 27.1741 50.2857 29.0817 50.2857 31.0709C50.2857 33.06 49.4956 34.9677 48.089 36.3742C46.6825 37.7807 44.7748 38.5709 42.7857 38.5709V38.5709ZM42.7857 25.7137C38.8911 25.0496 34.9505 24.6913 31 24.6423C27.0497 24.6946 23.1093 25.0528 19.2143 25.7137C17.7935 25.7137 16.4309 26.2781 15.4262 27.2828C14.4216 28.2875 13.8571 29.6501 13.8571 31.0709C13.8571 32.4917 14.4216 33.8543 15.4262 34.8589C16.4309 35.8636 17.7935 36.428 19.2143 36.428C23.1093 35.7671 27.0497 35.4089 31 35.3566C34.9505 35.4056 38.8911 35.7638 42.7857 36.428C44.2065 36.428 45.5691 35.8636 46.5738 34.8589C47.5784 33.8543 48.1429 32.4917 48.1429 31.0709C48.1429 29.6501 47.5784 28.2875 46.5738 27.2828C45.5691 26.2781 44.2065 25.7137 42.7857 25.7137ZM39.5714 33.2137C39.0201 33.1632 38.504 32.9212 38.1125 32.5298C37.7211 32.1383 37.4791 31.6221 37.4286 31.0709V29.9994C37.4286 29.4311 37.6544 28.8861 38.0562 28.4842C38.4581 28.0824 39.0031 27.8566 39.5714 27.8566C40.1397 27.8566 40.6848 28.0824 41.0866 28.4842C41.4885 28.8861 41.7143 29.4311 41.7143 29.9994V31.0709C41.6636 31.6221 41.4215 32.1382 41.0301 32.5296C40.6387 32.921 40.1226 33.163 39.5714 33.2137V33.2137ZM22.4286 33.2137C21.8773 33.1632 21.3611 32.9212 20.9697 32.5298C20.5782 32.1383 20.3362 31.6221 20.2857 31.0709V29.9994C20.2857 29.4311 20.5115 28.8861 20.9134 28.4842C21.3152 28.0824 21.8602 27.8566 22.4286 27.8566C22.9969 27.8566 23.5419 28.0824 23.9438 28.4842C24.3456 28.8861 24.5714 29.4311 24.5714 29.9994V31.0709C24.5207 31.6221 24.2787 32.1382 23.8873 32.5296C23.4959 32.921 22.9798 33.163 22.4286 33.2137ZM23.5 41.7852C23.7755 41.8107 24.0334 41.9318 24.2291 42.1275C24.4247 42.3232 24.5459 42.5811 24.5714 42.8566C24.5714 42.8759 24.7739 43.2412 24.5714 42.8566C26.426 44.2475 28.6817 44.9994 31 44.9994C33.3183 44.9994 35.574 44.2475 37.4286 42.8566C37.4286 42.8384 37.4286 42.8748 37.4286 42.8566C37.4541 42.5811 37.5752 42.3232 37.7709 42.1275C37.9666 41.9318 38.2245 41.8107 38.5 41.7852V41.7852C38.7842 41.7852 39.0567 41.898 39.2576 42.099C39.4585 42.2999 39.5714 42.5724 39.5714 42.8566C39.5714 43.1407 39.4585 43.4132 39.2576 43.6142C39.0567 43.8151 38.7842 43.928 38.5 43.928C37.5326 44.9437 36.3691 45.7523 35.0799 46.3048C33.7906 46.8573 32.4026 47.1422 31 47.1422C29.5974 47.1422 28.2094 46.8573 26.9201 46.3048C25.6309 45.7523 24.4674 44.9437 23.5 43.928V43.928C23.2158 43.928 22.9433 43.8151 22.7424 43.6142C22.5415 43.4132 22.4286 43.1407 22.4286 42.8566C22.4286 42.5724 22.5415 42.2999 22.7424 42.099C22.9433 41.898 23.2158 41.7852 23.5 41.7852Z" stroke="#1D1D1B" stroke-width="0.2"/>
</svg>
