<svg width="44" height="44" viewBox="0 0 44 44" fill="none" xmlns="http://www.w3.org/2000/svg">
<path fill-rule="evenodd" clip-rule="evenodd" d="M3 2C2.44772 2 2 2.44772 2 3V14.6642C2 15.2165 2.44772 15.6642 3 15.6642C3.55228 15.6642 4 15.2165 4 14.6642V4H14.6642C15.2165 4 15.6642 3.55228 15.6642 3C15.6642 2.44772 15.2165 2 14.6642 2H3ZM30.2188 2C29.6665 2 29.2188 2.44772 29.2188 3C29.2188 3.55228 29.6665 4 30.2188 4H40.883V14.6642C40.883 15.2165 41.3307 15.6642 41.883 15.6642C42.4353 15.6642 42.883 15.2165 42.883 14.6642V3C42.883 2.44772 42.4353 2 41.883 2H30.2188ZM3 29.1885C3.55228 29.1885 4 29.6362 4 30.1885V40.8527H14.6642C15.2165 40.8527 15.6642 41.3004 15.6642 41.8527C15.6642 42.405 15.2165 42.8527 14.6642 42.8527H3C2.44772 42.8527 2 42.405 2 41.8527V30.1885C2 29.6362 2.44772 29.1885 3 29.1885ZM42.883 30.1885C42.883 29.6362 42.4353 29.1885 41.883 29.1885C41.3307 29.1885 40.883 29.6362 40.883 30.1885V40.8527H30.2188C29.6665 40.8527 29.2188 41.3004 29.2188 41.8527C29.2188 42.405 29.6665 42.8527 30.2188 42.8527H41.883C42.4353 42.8527 42.883 42.405 42.883 41.8527V30.1885ZM22 13C17.0294 13 13 17.0294 13 22C13 26.9706 17.0294 31 22 31C24.3352 31 26.4627 30.1106 28.0622 28.6521C28.1107 28.5211 28.1876 28.3982 28.2929 28.2929C28.3982 28.1876 28.5211 28.1107 28.6521 28.0622C30.1106 26.4627 31 24.3352 31 22C31 17.0294 26.9706 13 22 13ZM30.4533 29.0391C32.0434 27.1316 33 24.6775 33 22C33 15.9249 28.0751 11 22 11C15.9249 11 11 15.9249 11 22C11 28.0751 15.9249 33 22 33C24.6775 33 27.1316 32.0434 29.0391 30.4533L33.2929 34.7071C33.6834 35.0976 34.3166 35.0976 34.7071 34.7071C35.0976 34.3166 35.0976 33.6834 34.7071 33.2929L30.4533 29.0391Z" fill="white"/>
</svg>
