<svg width="24" height="24" viewBox="0 0 24 24" fill="none" xmlns="http://www.w3.org/2000/svg">
<path d="M9.98763 20.25C4.88357 20.25 0.75 16.1349 0.75 11.0625C0.75 5.99011 4.88357 1.875 9.98763 1.875C14.0653 1.875 17.5239 4.50057 18.75 8.14697" stroke="white" stroke-width="1.5" stroke-miterlimit="10" stroke-linecap="round"/>
<path d="M11.1188 9.68438V7.71563C11.1188 7.38881 10.8549 7.125 10.5281 7.125H9.34688C9.02006 7.125 8.75625 7.38881 8.75625 7.71563V9.68438C8.75625 9.79463 8.66963 9.88125 8.55938 9.88125H6.59063C6.26381 9.88125 6 10.1451 6 10.4719V11.6531C6 11.9799 6.26381 12.2438 6.59063 12.2438H8.55938C8.66963 12.2438 8.75625 12.3304 8.75625 12.4406V14.4094C8.75625 14.7362 9.02006 15 9.34688 15H10.5281C10.8549 15 11.1188 14.7362 11.1188 14.4094V12.4406C11.1188 12.3304 11.2054 12.2438 11.3156 12.2438H13.2844C13.6112 12.2438 13.875 11.9799 13.875 11.6531V10.4719C13.875 10.1451 13.6112 9.88125 13.2844 9.88125H11.3156C11.2054 9.88125 11.1188 9.79463 11.1188 9.68438Z" stroke="white" stroke-width="1.5" stroke-miterlimit="10"/>
<path d="M22.6644 11.7375C22.5854 11.9351 22.4905 11.7178 22.289 11.6388C22.0915 11.5598 21.9967 11.3385 22.0757 11.1409L22.534 9.99119C22.613 9.79364 22.8382 9.69882 23.0318 9.77784C23.2254 9.85686 23.3242 10.0781 23.2452 10.2757L22.6644 11.7375Z" fill="white"/>
<path d="M20.2584 18.0992C20.215 18.0992 20.1715 18.0913 20.132 18.0755L16.3706 16.5938C16.2837 16.5622 16.2165 16.495 16.181 16.4081C16.1454 16.3251 16.1454 16.2303 16.181 16.1434L18.3145 10.9557C18.3145 10.9557 18.6148 10.0391 19.7922 10.0391C19.9937 10.0391 20.2189 10.0707 20.4481 10.126L20.5231 10.1457C21.3805 10.3551 22.2695 10.5725 22.629 11.2836C22.8543 11.7222 22.8305 12.2674 22.5579 12.9431L20.5706 17.8858C20.5192 18.0162 20.3888 18.0992 20.2545 18.0992H20.2584ZM16.9435 16.0881L20.0727 17.3208L21.9376 12.6902C22.1312 12.2161 22.1628 11.8447 22.0364 11.5958C21.8112 11.1612 21.0802 10.9834 20.373 10.8095L20.2979 10.7898C20.1162 10.7463 19.9502 10.7226 19.8041 10.7226C19.1166 10.7226 18.9664 11.1849 18.9664 11.1888L16.9514 16.0841L16.9435 16.0881Z" fill="white"/>
<path d="M19.8431 16.4476C19.8155 16.4476 19.7839 16.4436 19.7562 16.4318L17.6503 15.6613C17.5832 15.6376 17.5318 15.5862 17.5041 15.523C17.4765 15.4598 17.4765 15.3847 17.5041 15.3215L19.1162 11.4851C19.1675 11.3626 19.3019 11.2994 19.4322 11.3389L21.5065 12.0185C21.5737 12.0422 21.629 12.0896 21.6606 12.1528C21.6883 12.216 21.6922 12.2871 21.6646 12.3543L20.0842 16.2856C20.0447 16.3843 19.9498 16.4476 19.8471 16.4476H19.8431ZM18.077 15.2701L19.7009 15.8668L21.0838 12.4175L19.4915 11.896L18.077 15.2701Z" fill="white"/>
<path d="M16.5006 17.1934L15.9594 17.6556L16.4967 17.8887L17.038 17.4146M13.6006 19.6667L14.1419 19.9472L14.7582 19.4059L14.2169 19.1412L13.6006 19.6667ZM14.8175 18.6276L15.3548 18.8804L15.9317 18.3747L15.3944 18.1337L14.8175 18.6276ZM15.2758 20.5241L15.8645 20.8283L16.4809 20.2475L15.8882 19.9591L15.2719 20.5241H15.2758ZM18.4445 17.9994L18.1561 17.8808L17.6188 18.3747L18.2035 18.6236L18.7369 18.1179L18.4445 17.9994ZM16.4848 19.4138L17.0696 19.6865L17.6464 19.1452L17.0617 18.8804L16.4848 19.4099V19.4138ZM17.3106 17.5292L16.7693 18.0073L17.3304 18.2483L17.8716 17.7584L17.5872 17.6438L17.3106 17.5292ZM14.4184 20.0895L14.9834 20.3739L15.5998 19.8129L15.0348 19.5403L14.4184 20.0855V20.0895ZM15.6354 19.0148L16.1964 19.2755L16.7733 18.754L16.2122 18.5011L15.6354 19.0108V19.0148Z" fill="white"/>
<path d="M15.1457 22.1481C14.2686 22.1481 13.265 21.757 12.7 21.1999C12.3365 20.8403 12.1627 20.4492 12.1904 20.0422C12.2259 19.4219 12.7079 19.0308 12.7633 18.9912L16.2757 16.0201C16.3705 15.9411 16.5009 15.9173 16.6195 15.9648L20.3808 17.4464C20.4875 17.4899 20.5665 17.5847 20.5902 17.6993C20.61 17.8138 20.5744 17.9324 20.4875 18.0114L16.5918 21.6542C16.2244 21.9822 15.7265 22.1521 15.1457 22.1521V22.1481ZM16.5562 16.668L13.19 19.5167C13.19 19.5167 12.8818 19.7656 12.862 20.0857C12.8502 20.2872 12.9568 20.5005 13.1742 20.7139C13.5416 21.0774 14.3595 21.4646 15.1418 21.4646C15.4262 21.4646 15.8332 21.4093 16.1256 21.1446L19.6222 17.8771L16.5523 16.6641L16.5562 16.668Z" fill="white"/>
</svg>
