<?xml version="1.0" encoding="utf-8"?>
<!-- Generator: Adobe Illustrator 27.9.0, SVG Export Plug-In . SVG Version: 6.00 Build 0)  -->
<svg version="1.1" id="Layer_1" xmlns="http://www.w3.org/2000/svg" xmlns:xlink="http://www.w3.org/1999/xlink" x="0px" y="0px"
	 viewBox="0 0 16 16" style="enable-background:new 0 0 16 16;" xml:space="preserve">
<style type="text/css">
	.st0{fill:none;stroke:#646464;}
	.st1{fill:#646464;}
</style>
<path class="st0" d="M8,0.5L8,0.5c4.1,0,7.5,3.4,7.5,7.5l0,0c0,4.1-3.4,7.5-7.5,7.5h0c-4.1,0-7.5-3.4-7.5-7.5l0,0
	C0.5,3.9,3.9,0.5,8,0.5z"/>
<g>
	<path class="st1" d="M7.8,3.2L7.8,3.2c0.4,0,0.6,0.3,0.6,0.6v4.3c0,0.4-0.3,0.6-0.6,0.6l0,0c-0.4,0-0.6-0.3-0.6-0.6V3.9
		C7.2,3.5,7.5,3.2,7.8,3.2z"/>
	<path class="st1" d="M12.5,9.4L12.5,9.4c-0.1,0.3-0.4,0.5-0.8,0.5L7.7,8.8C7.3,8.7,7.1,8.4,7.2,8l0,0C7.3,7.7,7.7,7.5,8,7.6
		l4.1,1.1C12.4,8.7,12.6,9.1,12.5,9.4z"/>
</g>
</svg>
