<svg width="60" height="60" viewBox="0 0 60 60" fill="none" xmlns="http://www.w3.org/2000/svg">
<path fill-rule="evenodd" clip-rule="evenodd" d="M7 10.0938C5.34315 10.0938 4 11.4369 4 13.0938V46.9088C4 48.5657 5.34315 49.9088 7 49.9088H52.9969C54.6538 49.9088 55.9969 48.5657 55.9969 46.9088V13.0938C55.9969 11.4369 54.6538 10.0938 52.9969 10.0938H7ZM6.08265 12.695C6.02948 12.8172 6 12.952 6 13.0938V46.9088C6 46.943 6.00171 46.9767 6.00506 47.01L23.1713 29.8437L6.25685 12.9291C6.18589 12.8581 6.12782 12.7791 6.08265 12.695ZM24.5856 31.2579L7.93468 47.9088H52.4722L35.6104 31.047L34.3607 32.2967C31.8872 34.7702 28.1233 34.7637 25.6289 32.3012L25.6243 32.2967L25.6243 32.2967L24.5856 31.2579ZM53.9969 13.0938V46.6051L37.0246 29.6328L53.7283 12.9291C53.8027 12.8547 53.8629 12.7715 53.9089 12.6829C53.9654 12.8083 53.9969 12.9473 53.9969 13.0938ZM51.7352 12.0938H8.24997L27.034 30.8779L27.0361 30.88C28.7566 32.5764 31.2597 32.5692 32.9465 30.8825L51.7352 12.0938Z" fill="#646464"/>
</svg>