<svg width="48" height="48" viewBox="0 0 48 48" fill="none" xmlns="http://www.w3.org/2000/svg">
<path fill-rule="evenodd" clip-rule="evenodd" d="M24.0258 37.3816C14.7328 37.3816 6.648 32.0152 2.81543 24.2412C6.64712 16.4211 14.6869 11.0554 24.0258 11.0554C33.363 11.0554 41.3575 16.4196 45.1887 24.2412C41.3567 32.0166 33.3171 37.3816 24.0258 37.3816ZM24.0258 9.55542C13.9613 9.55542 5.31151 15.4197 1.30443 23.9225L1.15332 24.2431L1.30514 24.5634C5.31289 33.0188 14.0101 38.8816 24.0258 38.8816C34.0431 38.8816 42.6919 33.0173 46.699 24.5634L46.8508 24.2431L46.6997 23.9225C42.6933 15.4212 34.0919 9.55542 24.0258 9.55542ZM17.1234 23.962C17.1234 19.979 20.3522 16.7503 24.3351 16.7503C28.318 16.7503 31.5468 19.979 31.5468 23.962C31.5468 27.9449 28.318 31.1737 24.3351 31.1737C20.3522 31.1737 17.1234 27.9449 17.1234 23.962ZM24.3351 15.2503C19.5238 15.2503 15.6234 19.1506 15.6234 23.962C15.6234 28.7733 19.5238 32.6737 24.3351 32.6737C29.1465 32.6737 33.0468 28.7733 33.0468 23.962C33.0468 19.1506 29.1465 15.2503 24.3351 15.2503Z" fill="black"/>
<line x1="5.66314" y1="5.87189" x2="41.0378" y2="41.2465" stroke="black" stroke-width="1.5"/>
<line x1="6.84283" y1="4.69281" x2="42.2175" y2="40.0675" stroke="white" stroke-width="1.5"/>
</svg>
