<svg width="41" height="16" viewBox="0 0 41 16" fill="none" xmlns="http://www.w3.org/2000/svg">
<g clip-path="url(#clip0_3156_43004)">
<path d="M1.25079 12.7967L1.59996 15.7053H13.8244L13.4243 12.3743H7.72448L7.67467 11.9616L12.9242 8.21083L12.5734 5.29688H0.350098L0.750115 8.62734H6.45941L6.50922 9.04385L1.25079 12.7967Z" fill="black"/>
<path d="M13.9937 5.29688L15.244 15.7053H27.4773L26.227 5.29688H13.9937Z" fill="#AA8FFF"/>
<path d="M40.3055 9.0439C40.0235 6.70459 38.2263 5.28674 35.7832 5.29693H27.646L28.8959 15.7059H32.5568L32.3062 13.6239H36.1801C39.2287 13.6234 40.6238 11.6813 40.3055 9.0439ZM35.7842 10.7057L31.9571 10.7099L31.6572 8.21196L35.5058 8.21517C36.4107 8.22643 36.8737 8.74747 36.9486 9.46041C36.9948 9.91927 36.7893 10.7051 35.7842 10.7051V10.7057Z" fill="black"/>
<path d="M17.6484 3.91549C18.2923 3.20879 18.18 2.03189 17.3977 1.28683C16.6155 0.541762 15.4594 0.510663 14.8156 1.21737C14.1717 1.92407 14.284 3.10096 15.0662 3.84603C15.8485 4.5911 17.0046 4.6222 17.6484 3.91549Z" fill="black"/>
</g>
<defs>
<clipPath id="clip0_3156_43004">
<rect width="41" height="16" fill="white"/>
</clipPath>
</defs>
</svg>
