<svg width="64" height="64" viewBox="0 0 64 64" fill="none" xmlns="http://www.w3.org/2000/svg">
<path d="M50.5243 35.564V21.1772L37.3471 8H13.3886C12.9374 8 12.5047 8.1792 12.1857 8.49821C11.8667 8.81722 11.6875 9.24989 11.6875 9.70104V45.4592C11.6875 47.2543 12.4006 48.9758 13.6699 50.2451C14.9392 51.5144 16.6607 52.2275 18.4558 52.2275H41.9574" stroke="black" stroke-width="1.5" stroke-linecap="round" stroke-linejoin="round"/>
<path d="M49.1484 58.0241V42.75" stroke="black" stroke-width="1.5" stroke-linecap="round" stroke-linejoin="round"/>
<path d="M54.5392 47.2422L49.1641 41.8516L43.7578 47.2422" stroke="black" stroke-width="1.5" stroke-linecap="round" stroke-linejoin="round"/>
<path d="M20.9375 21.7266H29.6704" stroke="black" stroke-width="1.5" stroke-linecap="round" stroke-linejoin="round"/>
<path d="M20.9375 27.4551H29.6704" stroke="black" stroke-width="1.5" stroke-linecap="round" stroke-linejoin="round"/>
<path d="M20.9375 33.1699H36.8463" stroke="black" stroke-width="1.5" stroke-linecap="round" stroke-linejoin="round"/>
<path d="M20.9375 38.8828H36.8463" stroke="black" stroke-width="1.5" stroke-linecap="round" stroke-linejoin="round"/>
<path d="M50.5251 21.1772H40.7141C39.817 21.174 38.9578 20.8155 38.3246 20.1801C37.6915 19.5446 37.3359 18.6841 37.3359 17.787V8" stroke="black" stroke-width="1.5" stroke-linecap="round" stroke-linejoin="round"/>
</svg>
