<svg width="32" height="32" viewBox="0 0 32 32" fill="none" xmlns="http://www.w3.org/2000/svg">
<path fill-rule="evenodd" clip-rule="evenodd" d="M15.6385 3C16.0528 3 16.3885 3.33579 16.3885 3.75V19.7979L23.0359 13.2133C23.3301 12.9218 23.805 12.924 24.0965 13.2183C24.388 13.5126 24.3858 13.9874 24.0915 14.2789L16.1658 22.13C15.8735 22.4195 15.4024 22.4195 15.1101 22.13L7.1844 14.2789C6.89012 13.9874 6.88787 13.5126 7.17938 13.2183C7.47088 12.924 7.94575 12.9218 8.24003 13.2133L14.8885 19.7991V3.75C14.8885 3.33579 15.2243 3 15.6385 3ZM3.75 27.4971C3.33579 27.4971 3 27.8329 3 28.2471C3 28.6613 3.33579 28.9971 3.75 28.9971H28.2477C28.6619 28.9971 28.9977 28.6613 28.9977 28.2471C28.9977 27.8329 28.6619 27.4971 28.2477 27.4971H3.75Z" fill="black"/>
</svg>
