<svg width="62" height="20" viewBox="0 0 62 20" fill="none" xmlns="http://www.w3.org/2000/svg">
<g clip-path="url(#clip0_8220_72197)">
<mask id="mask0_8220_72197" style="mask-type:luminance" maskUnits="userSpaceOnUse" x="0" y="1" width="62" height="18">
<path d="M61.9491 1.10254H0.464844V18.784H61.9491V1.10254Z" fill="white"/>
</mask>
<g mask="url(#mask0_8220_72197)">
<path d="M14.0378 1.10254C12.6179 1.10254 11.1735 1.69995 10.252 2.64677L10.775 3.69264L10.5539 3.86933C9.57699 2.18485 7.7808 1.10254 5.8689 1.10254C2.88106 1.10254 0.465271 3.7172 0.465271 6.78033V13.3795C0.462685 13.4358 0.471856 13.4921 0.492193 13.5446C0.51253 13.5971 0.543589 13.6449 0.583394 13.6848C0.623199 13.7246 0.670872 13.7558 0.72338 13.7762C0.775889 13.7966 0.832083 13.8059 0.888375 13.8035H3.05537C3.16044 13.8035 3.26121 13.7617 3.3355 13.6874C3.40979 13.6131 3.45153 13.5124 3.45153 13.4073V6.73039C3.45153 5.21152 4.373 3.96678 5.94178 3.96678C7.41075 3.96678 8.45663 5.06177 8.45663 6.68049V12.1594C8.45295 12.2136 8.46044 12.2681 8.47869 12.3193C8.49695 12.3705 8.52554 12.4174 8.56271 12.4571C8.59984 12.4968 8.6448 12.5284 8.69469 12.55C8.74459 12.5716 8.79843 12.5826 8.8528 12.5825H10.9239C10.9783 12.5826 11.0321 12.5716 11.082 12.55C11.1319 12.5284 11.1769 12.4968 11.214 12.4571C11.2512 12.4174 11.2798 12.3705 11.298 12.3193C11.3163 12.2681 11.3238 12.2136 11.3201 12.1594V6.68049C11.3201 5.06177 12.4159 3.96678 13.8848 3.96678C15.4536 3.96678 16.3252 5.21152 16.3252 6.73039V13.4049C16.3301 13.5131 16.3771 13.6151 16.4562 13.6891C16.5352 13.7631 16.64 13.8033 16.7483 13.8011H18.8876C18.9439 13.8037 19.0002 13.7945 19.0528 13.7741C19.1054 13.7537 19.1532 13.7226 19.193 13.6827C19.2329 13.6428 19.2641 13.595 19.2845 13.5424C19.3049 13.4898 19.314 13.4335 19.3114 13.3772V6.78033C19.3114 3.7172 16.9955 1.10254 14.0322 1.10254" fill="#2FF19E"/>
<path d="M26.8667 11.2627C24.7275 11.2627 23.2316 9.74303 23.2316 7.6014C23.2316 5.43521 24.7251 3.89096 26.8667 3.89096C29.0338 3.89096 30.578 5.43521 30.578 7.6014C30.578 9.74068 29.0338 11.2627 26.8667 11.2627ZM33.4169 1.35078H31.4463C31.3921 1.34697 31.3376 1.35439 31.2862 1.37258C31.2349 1.39078 31.1879 1.41935 31.1481 1.45653C31.1084 1.4937 31.0767 1.53868 31.055 1.58864C31.0334 1.63861 31.0223 1.69249 31.0225 1.74694V2.02108L31.7197 3.11686L31.532 3.30543C30.3815 1.9989 28.7374 1.09961 26.8636 1.09961C23.3274 1.09961 20.4141 3.98841 20.4141 7.59663C20.4185 9.30588 21.0994 10.9439 22.3079 12.1526C23.5164 13.3612 25.1543 14.0423 26.8636 14.047C28.7517 14.047 30.4076 13.154 31.5581 11.8474L31.7166 11.9798L31.0256 13.1287V13.3774C31.0251 13.4332 31.0357 13.4886 31.0568 13.5403C31.0779 13.5919 31.1092 13.6389 31.1486 13.6783C31.1881 13.7178 31.235 13.749 31.2867 13.7701C31.3383 13.7912 31.3937 13.8019 31.4495 13.8013H33.4169C33.4731 13.8038 33.5294 13.7945 33.5819 13.7741C33.6344 13.7537 33.682 13.7225 33.7218 13.6826C33.7616 13.6427 33.7927 13.595 33.8131 13.5425C33.8334 13.4899 33.8426 13.4337 33.84 13.3774V1.74932C33.84 1.50053 33.6657 1.35315 33.4169 1.35315" fill="#2FF19E"/>
<path d="M54.9772 11.2627C52.8377 11.2627 51.342 9.74303 51.342 7.6014C51.342 5.43521 52.8352 3.89096 54.9772 3.89096C57.1439 3.89096 58.6881 5.43521 58.6881 7.6014C58.6881 9.74068 57.1439 11.2627 54.9772 11.2627ZM61.5271 1.35078H59.5597C59.5057 1.34697 59.4508 1.35439 59.3998 1.37258C59.3483 1.39078 59.3014 1.41935 59.2616 1.45653C59.2219 1.4937 59.19 1.53868 59.1687 1.58864C59.1469 1.63861 59.1356 1.69249 59.136 1.74694V2.02108L59.833 3.11686L59.6455 3.30543C58.4952 1.9989 56.8509 1.09961 54.9772 1.09961C51.4408 1.09961 48.5273 3.98841 48.5273 7.59663C48.5319 9.30588 49.2126 10.9439 50.4215 12.1526C51.63 13.3612 53.2676 14.0423 54.9772 14.047C56.8651 14.047 58.5211 13.154 59.6714 11.8474L59.8301 11.9798L59.1327 13.1255V13.3743C59.1323 13.4301 59.1427 13.4854 59.1641 13.5371C59.185 13.5887 59.2164 13.6357 59.2558 13.6752C59.2951 13.7146 59.342 13.7459 59.3939 13.7669C59.4454 13.7881 59.5006 13.7987 59.5567 13.7981H61.5242C61.5803 13.8006 61.6364 13.7914 61.6891 13.7709C61.7414 13.7505 61.7892 13.7194 61.8289 13.6795C61.8687 13.6396 61.8997 13.5918 61.9202 13.5393C61.9407 13.4867 61.9495 13.4306 61.947 13.3743V1.74932C61.947 1.50053 61.7728 1.35315 61.5242 1.35315" fill="#2FF19E"/>
<path d="M46.8903 1.35059H44.8739C44.5499 1.35059 44.3754 1.5249 44.3754 1.69921V7.77553C44.3754 9.66837 43.13 10.9884 41.2126 10.9884C39.4449 10.9884 38.2992 9.66837 38.2992 7.77553V1.69921C38.2992 1.5249 38.0251 1.35059 37.8507 1.35059H35.6846C35.5941 1.3567 35.5089 1.3954 35.4449 1.4595C35.3807 1.5236 35.342 1.60876 35.3359 1.69921V7.75095C35.3359 10.9884 37.8761 13.8027 41.2126 13.8027C42.7215 13.8026 44.1782 13.2531 45.3114 12.2569L45.4231 12.3583L44.5261 13.5785V14.0539C44.5261 15.2986 42.6587 15.9959 41.5628 15.9959H40.8655C40.6168 15.9959 40.4171 16.1702 40.4171 16.392V18.3847C40.4171 18.5836 40.6168 18.7809 40.8655 18.7809H41.5628C44.8999 18.7809 47.3403 16.8381 47.3403 13.1776V1.69921C47.3403 1.5249 47.1662 1.35059 46.892 1.35059" fill="#2FF19E"/>
</g>
</g>
<defs>
<clipPath id="clip0_8220_72197">
<rect width="61.5349" height="18" fill="white" transform="translate(0.464844 1)"/>
</clipPath>
</defs>
</svg>
