<svg width="60" height="60" viewBox="0 0 60 60" fill="none" xmlns="http://www.w3.org/2000/svg">
<path fill-rule="evenodd" clip-rule="evenodd" d="M10.9688 6.84375C10.2784 6.84375 9.71875 7.4034 9.71875 8.09375V47.3782C9.71875 48.0686 10.2784 48.6282 10.9688 48.6282H27.7932C27.7914 48.6794 27.7902 48.7307 27.7895 48.782C27.7901 49.2359 27.8363 49.6872 27.9268 50.1282H10.9688C9.44997 50.1282 8.21875 48.897 8.21875 47.3782V8.09375C8.21875 6.57497 9.44997 5.34375 10.9688 5.34375H33.6297H42.6607C44.1795 5.34375 45.4107 6.57497 45.4107 8.09375V23.469C44.895 23.6167 44.3928 23.8017 43.9107 24.0198V8.09375C43.9107 7.40339 43.351 6.84375 42.6607 6.84375H33.6297H10.9688ZM31.8804 36.1836C31.3212 35.6271 30.7933 35.1031 30.3682 34.6836H21.1468C20.7326 34.6836 20.3968 35.0194 20.3968 35.4336C20.3968 35.8478 20.7326 36.1836 21.1468 36.1836H31.8804ZM27.2686 29.9049L27.7504 29.3932H21.1468C20.7326 29.3932 20.3968 29.729 20.3968 30.1432C20.3968 30.5575 20.7326 30.8932 21.1468 30.8932H27.0072C26.9953 30.8241 26.9892 30.7535 26.9892 30.6823C26.9892 30.395 27.0888 30.1179 27.2686 29.9049ZM31.3282 25.5928C31.5793 25.3117 32.5217 24.257 34.4621 25.6029H35.0555C35.4697 25.6029 35.8055 25.2671 35.8055 24.8529C35.8055 24.4387 35.4697 24.1029 35.0555 24.1029H21.1468C20.7326 24.1029 20.3968 24.4387 20.3968 24.8529C20.3968 25.2671 20.7326 25.6029 21.1468 25.6029H31.3191L31.3282 25.5928ZM18.7505 19.5604C18.7505 20.0918 18.3209 20.5226 17.7909 20.5226C17.261 20.5226 16.8314 20.0918 16.8314 19.5604C16.8314 19.029 17.261 18.5982 17.7909 18.5982C18.3209 18.5982 18.7505 19.029 18.7505 19.5604ZM20.3968 19.5626C20.3968 19.1484 20.7326 18.8126 21.1468 18.8126H35.0555C35.4697 18.8126 35.8055 19.1484 35.8055 19.5626C35.8055 19.9768 35.4697 20.3126 35.0555 20.3126H21.1468C20.7326 20.3126 20.3968 19.9768 20.3968 19.5626ZM17.7909 25.815C18.3209 25.815 18.7505 25.3842 18.7505 24.8528C18.7505 24.3214 18.3209 23.8906 17.7909 23.8906C17.261 23.8906 16.8314 24.3214 16.8314 24.8528C16.8314 25.3842 17.261 25.815 17.7909 25.815ZM18.7505 30.1451C18.7505 30.6765 18.3209 31.1073 17.7909 31.1073C17.261 31.1073 16.8314 30.6765 16.8314 30.1451C16.8314 29.6137 17.261 29.1829 17.7909 29.1829C18.3209 29.1829 18.7505 29.6137 18.7505 30.1451ZM17.7909 36.3943C18.3209 36.3943 18.7505 35.9635 18.7505 35.4321C18.7505 34.9007 18.3209 34.4699 17.7909 34.4699C17.261 34.4699 16.8314 34.9007 16.8314 35.4321C16.8314 35.9635 17.261 36.3943 17.7909 36.3943ZM41.6473 32.9434C41.6493 32.9856 41.6511 33.0271 41.6528 33.068C41.6663 33.3888 41.6786 33.6782 41.7787 34.06C41.8924 34.4942 42.1302 35.0744 42.6664 35.8787L43.0699 36.484L42.4773 36.9058L40.361 38.4119L40.3475 38.4216L40.3335 38.4306L32.2102 43.6852C31.3942 44.5179 30.9278 45.6345 30.91 46.8044C30.9115 47.3815 31.0307 47.9522 31.2602 48.4812C31.4904 49.012 31.8268 49.4895 32.2483 49.8845L32.2666 49.9016L32.2836 49.9199C33.132 50.8282 34.2963 51.3724 35.5333 51.4407C36.6658 51.3471 37.7188 50.8167 38.4704 49.9602L41.8557 45.4319L42.1125 45.0884L42.6319 44.3937L42.6402 44.402L45.6833 40.4218L46.2097 40.8243L45.8114 40.456L47.5659 40.35C47.83 40.3341 48.3971 40.3376 48.6444 40.3391L48.7166 40.3395C50.2888 40.2032 51.9742 39.2365 53.1941 37.8014C54.4043 36.3778 55.0678 34.6003 54.7852 32.9016C54.7772 32.8855 54.7666 32.8707 54.7539 32.8581C54.7349 32.839 54.7114 32.825 54.6856 32.8171L54.671 32.8127L54.6566 32.8077C54.4692 32.7424 54.2687 32.7291 54.076 32.7679L52.9939 33.8492L52.9701 33.873L52.9444 33.8945C52.2961 34.4355 51.4789 34.7322 50.6347 34.7322C49.7905 34.7322 48.9734 34.4355 48.3251 33.8945L48.2774 33.8547L48.237 33.8076C47.6817 33.1616 47.3765 32.3375 47.3765 31.4854C47.3765 30.6333 47.6817 29.8092 48.237 29.1633L48.2554 29.1418L48.2754 29.1218L49.3559 28.0415C49.3944 27.8479 49.3811 27.6466 49.3161 27.4585L49.3051 27.4266L49.297 27.3938C49.2932 27.3784 49.2853 27.3646 49.2746 27.3539C49.2691 27.3483 49.2629 27.3437 49.2563 27.34C48.7959 27.2851 48.333 27.2525 47.8692 27.2421L47.8602 27.2419L47.8511 27.2415C44.0813 27.0659 41.6566 29.9592 41.6473 32.9434ZM56.2204 32.581L55.513 32.7091L56.2203 32.582L56.2204 32.581ZM56.2893 32.8142C56.2906 32.7881 56.2904 32.7667 56.2901 32.7532C56.2899 32.7455 56.2896 32.7382 56.2892 32.7317C56.2888 32.7242 56.2884 32.7175 56.288 32.712C56.2864 32.6914 56.2844 32.6738 56.2828 32.6618C56.2798 32.6375 56.276 32.6143 56.2729 32.5963C56.2709 32.5849 56.2688 32.5734 56.2667 32.5619C56.2652 32.5541 56.2638 32.5464 56.2623 32.5388C56.255 32.5014 56.2466 32.4615 56.2385 32.425C56.2307 32.3901 56.2215 32.3509 56.2126 32.317C56.2102 32.308 56.2073 32.2974 56.204 32.2861C56.2011 32.276 56.1961 32.2594 56.1894 32.2402C56.186 32.2305 56.1807 32.2156 56.1734 32.1978C56.1721 32.1947 56.1706 32.1912 56.169 32.1874C56.166 32.1803 56.1623 32.1721 56.1581 32.1632C56.152 32.15 56.1425 32.1309 56.1297 32.1085C56.1232 32.0971 56.1148 32.0831 56.1045 32.0675C56.0944 32.0521 56.0807 32.0326 56.0632 32.0108C56.0462 31.9896 56.0216 31.9613 55.989 31.931C55.9573 31.9014 55.9085 31.8612 55.8422 31.8243L55.8393 31.8227L55.8273 31.8103L55.8145 31.7974C55.6248 31.6076 55.3922 31.4668 55.1367 31.3865C54.5857 31.1979 53.9874 31.1995 53.4372 31.3912L53.2752 31.4477L53.1539 31.5689L51.9592 32.7626C51.5842 33.0664 51.1167 33.2322 50.6347 33.2322C50.1632 33.2322 49.7055 33.0734 49.3347 32.7821C49.0388 32.4161 48.8765 31.9584 48.8765 31.4854C48.8765 31.0004 49.0472 30.5314 49.3576 30.1609L50.5554 28.9633L50.6776 28.8411L50.734 28.6777C50.9217 28.134 50.9251 27.5438 50.744 26.9984C50.6716 26.7322 50.5309 26.4889 50.3353 26.2932C50.1312 26.0892 49.8752 25.9445 49.5944 25.8755L49.5515 25.865L49.5076 25.8595C48.9779 25.7939 48.4453 25.755 47.9118 25.7427C43.2167 25.5289 40.1473 29.1868 40.1473 32.9605V32.9783L40.1482 32.9962C40.1501 33.0359 40.1517 33.0779 40.1535 33.1222V33.1222C40.1664 33.4463 40.1842 33.893 40.3277 34.4403C40.4529 34.9181 40.6678 35.4574 41.0334 36.0923L39.935 36.874L36.9053 33.7416C36.9168 33.6849 36.9272 33.6288 36.9366 33.5744C36.9815 33.3144 37.0163 33.0212 37.0407 32.7337C37.0873 32.186 37.1047 31.5574 37.0483 31.1972C36.9435 30.5282 36.6471 29.9038 36.1948 29.4001L36.1813 29.385L36.167 29.3707L34.3371 27.5419L34.3264 27.5312L34.3153 27.5209C34.0107 27.2402 33.6117 27.084 33.1972 27.084C32.7827 27.084 32.3837 27.2402 32.0792 27.5209L32.068 27.5312L32.0573 27.5419L29.6177 29.9804L29.6042 29.9939L29.5914 30.0081C29.3147 30.3143 29.1619 30.7125 29.1619 31.1248C29.1619 31.5372 29.3147 31.9353 29.5914 32.2416L29.6042 32.2558L29.6178 32.2693L31.4477 34.0982L31.4685 34.119L31.4908 34.138C32.1405 34.6929 32.9785 34.9755 33.8305 34.9273C34.0506 34.9261 34.5228 34.91 34.9861 34.8803C35.2276 34.8649 35.4758 34.8452 35.6909 34.8207L35.7473 34.8142L38.6572 37.7285L31.3282 42.4693L31.2634 42.5112L31.2085 42.5654C30.0781 43.6818 29.4322 45.1992 29.41 46.7892H29.4099L29.4099 46.8007C29.411 47.5843 29.5723 48.3595 29.8841 49.0782C30.1925 49.7892 30.6417 50.43 31.2044 50.9619C32.3284 52.1559 33.8717 52.8662 35.5091 52.9413L35.5534 52.9434L35.5977 52.9402C37.1524 52.8274 38.5988 52.1019 39.6209 50.9231L39.6387 50.9026L39.6549 50.8809L42.7945 46.6813L47.6609 51.562C48.4226 52.3783 49.4533 52.8917 50.5633 53.0069L50.6547 53.0164L50.7457 53.0035C51.8312 52.8501 52.8371 52.3469 53.612 51.5704C54.3869 50.7939 54.8887 49.7862 55.0423 48.6993L55.0551 48.6084L55.0457 48.5172C54.9302 47.4014 54.4126 46.3657 53.5894 45.6049L49.4268 41.7561C51.2741 41.4216 53.0561 40.2797 54.337 38.7729C55.7144 37.1526 56.5972 35.008 56.2893 32.8142ZM43.7089 45.4738L48.7323 50.5121L48.7418 50.5217L48.7511 50.5316C49.2459 51.0652 49.9096 51.4083 50.6273 51.5041C51.3546 51.3818 52.027 51.0351 52.5502 50.5108C53.0736 49.9864 53.4203 49.3116 53.5429 48.5809C53.4472 47.8621 53.1038 47.1987 52.5713 46.7065L52.5711 46.7064L47.102 41.6493L46.8272 41.3953L43.7089 45.4738ZM39.901 38.4408C39.902 38.4407 39.9015 38.4407 39.8991 38.4409L39.901 38.4408ZM35.4552 33.3376L35.4584 33.3191C35.4941 33.1125 35.5243 32.8637 35.5461 32.6067C35.5921 32.0655 35.5924 31.5951 35.5664 31.4294C35.5074 31.0528 35.3423 30.7013 35.0911 30.4162L33.2919 28.618C33.2649 28.5959 33.2315 28.584 33.1972 28.584C33.163 28.584 33.1295 28.5959 33.1025 28.618L30.6972 31.0223C30.6745 31.0511 30.6619 31.0872 30.6619 31.1248C30.6619 31.1625 30.6745 31.1986 30.6972 31.2274L32.4855 33.0147C32.842 33.3102 33.2974 33.4584 33.7591 33.4289L33.7828 33.4273L33.8066 33.4273C33.973 33.4273 34.4292 33.4129 34.8902 33.3834C35.092 33.3705 35.2877 33.3551 35.4552 33.3376ZM35.5667 47.4486C35.5667 47.98 35.1371 48.4108 34.6072 48.4108C34.0772 48.4108 33.6476 47.98 33.6476 47.4486C33.6476 46.9172 34.0772 46.4864 34.6072 46.4864C35.1371 46.4864 35.5667 46.9172 35.5667 47.4486Z" fill="black"/>
</svg>
