<svg width="36" height="36" viewBox="0 0 36 36" fill="none" xmlns="http://www.w3.org/2000/svg">
<g id="Icon_Guide_36">
<rect width="36" height="36" fill="white"/>
<path id="Union" fill-rule="evenodd" clip-rule="evenodd" d="M29.2768 3.99976L29.8071 4.53009L32.4718 7.19483L33.0022 7.72516L32.4718 8.25549L22.7437 17.9836L22.58 18.1474L22.3524 18.1903L19.068 18.8099L17.9883 19.0137L18.192 17.9339L18.8116 14.6495L18.8546 14.422L19.0183 14.2582L28.7464 4.53009L29.2768 3.99976ZM29.2768 6.12108L27.874 7.52388L29.478 9.12796L30.8809 7.72516L29.2768 6.12108ZM20.2427 15.1552L26.8133 8.58454L28.4174 10.1886L21.8468 16.7592L19.8697 17.1322L20.2427 15.1552ZM3.75 4.09157H3V4.84157V14.2828V26.5863V27.3363H3.75H10.3673V31.3702V32.797L11.5426 31.988L18.2997 27.3363H32.1583H32.9083V26.5863V12.5575V11.8075H31.4083V12.5575V25.8363H18.0665H17.8333L17.6412 25.9686L11.8673 29.9433V26.5863V25.8363H11.1173H4.5V14.2828V5.59157H13.644H24.4426H25.1926V4.09157H24.4426H13.644H3.75Z" fill="black"/>
</g>
</svg>
