<svg width="48" height="48" viewBox="0 0 48 48" fill="none" xmlns="http://www.w3.org/2000/svg">
<path d="M21.1539 34.8098C28.6953 34.8098 34.8088 28.6963 34.8088 21.1549C34.8088 13.6135 28.6953 7.5 21.1539 7.5C13.6125 7.5 7.49902 13.6135 7.49902 21.1549C7.49902 28.6963 13.6125 34.8098 21.1539 34.8098Z" fill="white" stroke="black" stroke-width="3"/>
<path d="M31.2812 31.126L40.5008 40.5013" stroke="black" stroke-width="3" stroke-linecap="round"/>
<g clip-path="url(#clip0_599_113804)">
<path fill-rule="evenodd" clip-rule="evenodd" d="M21.7497 15.749C21.7497 15.3348 21.4139 14.999 20.9997 14.999C20.5855 14.999 20.2497 15.3348 20.2497 15.749V20.2505H15.7495C15.3353 20.2505 14.9995 20.5862 14.9995 21.0005C14.9995 21.4147 15.3353 21.7505 15.7495 21.7505H20.2497V26.2497C20.2497 26.6639 20.5855 26.9997 20.9997 26.9997C21.4139 26.9997 21.7497 26.6639 21.7497 26.2497V21.7505H26.2502C26.6644 21.7505 27.0002 21.4147 27.0002 21.0005C27.0002 20.5862 26.6644 20.2505 26.2502 20.2505H21.7497V15.749Z" fill="black"/>
</g>
<defs>
<clipPath id="clip0_599_113804">
<rect width="12" height="12" fill="white" transform="translate(15 15)"/>
</clipPath>
</defs>
</svg>
