<svg width="64" height="64" viewBox="0 0 64 64" fill="none" xmlns="http://www.w3.org/2000/svg">
<path d="M49.3346 21.0013C49.3346 31.8728 36.6554 48.2386 32.9854 52.748C32.4692 53.3822 31.5334 53.3822 31.0172 52.748C27.3472 48.2386 14.668 31.8728 14.668 21.0013C14.668 11.4284 22.4284 3.66797 32.0013 3.66797C41.5742 3.66797 49.3346 11.4284 49.3346 21.0013Z" stroke="black" stroke-width="2"/>
<path d="M26.9471 47.1875C17.6046 47.8968 10.668 50.5282 10.668 53.666C10.668 57.3479 20.2192 60.3326 32.0013 60.3326C43.7834 60.3326 53.3346 57.3479 53.3346 53.666C53.3346 50.5596 46.5358 47.9494 37.3346 47.2093" stroke="black" stroke-width="2"/>
<circle cx="31.9987" cy="21.3346" r="4.66667" stroke="black" stroke-width="2"/>
</svg>
