<svg width="60" height="60" viewBox="0 0 60 60" fill="none" xmlns="http://www.w3.org/2000/svg">
<path d="M28.7191 51.5625C15.9589 51.5625 5.625 41.2747 5.625 28.5937C5.625 15.9128 15.9589 5.625 28.7191 5.625C38.9132 5.625 47.5598 12.1889 50.625 21.3049" stroke="black" stroke-width="1.5" stroke-miterlimit="10" stroke-linecap="round"/>
<path d="M31.5469 25.1484V20.2266C31.5469 19.4095 30.8873 18.75 30.0703 18.75H27.1172C26.3002 18.75 25.6406 19.4095 25.6406 20.2266V25.1484C25.6406 25.4241 25.4241 25.6406 25.1484 25.6406H20.2266C19.4095 25.6406 18.75 26.3002 18.75 27.1172V30.0703C18.75 30.8873 19.4095 31.5469 20.2266 31.5469H25.1484C25.4241 31.5469 25.6406 31.7634 25.6406 32.0391V36.9609C25.6406 37.778 26.3002 38.4375 27.1172 38.4375H30.0703C30.8873 38.4375 31.5469 37.778 31.5469 36.9609V32.0391C31.5469 31.7634 31.7634 31.5469 32.0391 31.5469H36.9609C37.778 31.5469 38.4375 30.8873 38.4375 30.0703V27.1172C38.4375 26.3002 37.778 25.6406 36.9609 25.6406H32.0391C31.7634 25.6406 31.5469 25.4241 31.5469 25.1484Z" stroke="black" stroke-width="1.5" stroke-miterlimit="10"/>
<path d="M57.596 30.2814C57.3985 30.7752 57.1614 30.232 56.6577 30.0344C56.1638 29.8369 55.9267 29.2837 56.1243 28.7899L57.2701 25.9155C57.4676 25.4216 58.0307 25.1845 58.5147 25.3821C58.9987 25.5796 59.2456 26.1328 59.048 26.6267L57.596 30.2814Z" fill="black"/>
<path d="M51.5806 46.1815C51.472 46.1815 51.3633 46.1617 51.2646 46.1222L41.8611 42.4181C41.6438 42.3391 41.4759 42.1712 41.387 41.9539C41.2981 41.7465 41.2981 41.5094 41.387 41.2921L46.7209 28.3228C46.7209 28.3228 47.4716 26.0312 50.4151 26.0312C50.9188 26.0312 51.4819 26.1103 52.0548 26.2486L52.2424 26.2979C54.3859 26.8215 56.6083 27.3647 57.5072 29.1427C58.0702 30.2391 58.0109 31.6022 57.3294 33.2913L52.361 45.6481C52.2326 45.9741 51.9066 46.1815 51.5708 46.1815H51.5806ZM43.2934 41.1538L51.1164 44.2356L55.7786 32.6591C56.2626 31.4738 56.3416 30.5453 56.0255 29.923C55.4625 28.8365 53.6352 28.392 51.8671 27.9574L51.6794 27.908C51.225 27.7993 50.8102 27.7401 50.4447 27.7401C48.726 27.7401 48.3507 28.8957 48.3507 28.9056L43.3131 41.1439L43.2934 41.1538Z" fill="black"/>
<path d="M50.5478 42.0588C50.4787 42.0588 50.3997 42.049 50.3305 42.0193L45.0658 40.0932C44.8978 40.0339 44.7694 39.9055 44.7003 39.7475C44.6312 39.5894 44.6312 39.4018 44.7003 39.2437L48.7303 29.6526C48.8588 29.3464 49.1946 29.1884 49.5205 29.2871L54.7063 30.9861C54.8742 31.0453 55.0125 31.1639 55.0915 31.3219C55.1606 31.4799 55.1705 31.6577 55.1014 31.8257L51.1503 41.6538C51.0516 41.9008 50.8145 42.0588 50.5577 42.0588H50.5478ZM46.1325 39.1153L50.1922 40.6068L53.6494 31.9837L49.6687 30.6799L46.1325 39.1153Z" fill="black"/>
<path d="M42.1876 43.9219L40.8344 45.0775L42.1778 45.6603L43.531 44.475M34.9375 50.1052L36.2907 50.8065L37.8316 49.4533L36.4784 48.7915L34.9375 50.1052ZM37.9798 47.5074L39.3231 48.1396L40.7653 46.8753L39.4219 46.2727L37.9798 47.5074ZM39.1256 52.2487L40.5973 53.0092L42.1383 51.5572L40.6566 50.8362L39.1157 52.2487H39.1256ZM47.0474 45.9369L46.3263 45.6406L44.983 46.8753L46.4449 47.4976L47.7783 46.2332L47.0474 45.9369ZM42.1481 49.4731L43.61 50.1546L45.0521 48.8014L43.5903 48.1396L42.1481 49.4632V49.4731ZM44.2125 44.7615L42.8593 45.9567L44.2619 46.5592L45.6152 45.3344L44.904 45.0479L44.2125 44.7615ZM36.9822 51.1621L38.3946 51.8733L39.9356 50.4707L38.5231 49.7891L36.9822 51.1523V51.1621ZM40.0244 48.4754L41.4271 49.1274L42.8692 47.8235L41.4666 47.1913L40.0244 48.4656V48.4754Z" fill="black"/>
<path d="M38.8018 56.3083C36.609 56.3083 34.1001 55.3304 32.6876 53.9377C31.7788 53.0388 31.3442 52.0609 31.4134 51.0435C31.5023 49.4928 32.7073 48.5149 32.8456 48.4161L41.6268 40.9882C41.8638 40.7906 42.1898 40.7313 42.4861 40.8499L51.8896 44.554C52.1563 44.6626 52.3538 44.8997 52.4131 45.1861C52.4625 45.4726 52.3736 45.7689 52.1563 45.9665L42.417 55.0736C41.4984 55.8934 40.2538 56.3182 38.8018 56.3182V56.3083ZM42.3281 42.6081L33.9124 49.7298C33.9124 49.7298 33.142 50.3521 33.0926 51.1522C33.0629 51.6559 33.3296 52.1893 33.8729 52.7227C34.7915 53.6315 36.8362 54.5995 38.7919 54.5995C39.5031 54.5995 40.5205 54.4612 41.2514 53.7994L49.9931 45.6306L42.3182 42.5982L42.3281 42.6081Z" fill="black"/>
</svg>
