<svg width="64" height="64" viewBox="0 0 64 64" fill="none" xmlns="http://www.w3.org/2000/svg">
<path d="M4.59102 26.1609C7.25962 13.8625 18.2215 4.66602 31.3311 4.66602C45.1165 4.66602 56.527 14.835 58.4169 28.0867L58.5581 29.0767L60.5381 28.7943L60.3969 27.8043C58.3679 13.5773 46.1221 2.66602 31.3311 2.66602C16.5401 2.66602 4.29432 13.5773 2.26532 27.8043C2.21283 28.1724 2.36887 28.5392 2.67046 28.7566C2.97204 28.9741 3.36936 29.0063 3.70201 28.8402L10.3177 25.5371L9.42428 23.7477L4.59102 26.1609Z" fill="black"/>
<path d="M4.10525 34.9081L4.24543 35.8982C6.12144 49.1492 17.5317 59.3322 31.3311 59.3322C44.4549 59.3322 55.4176 50.1221 58.0735 37.8219L53.2379 40.2362L52.3445 38.4468L58.9602 35.1437C59.2927 34.9777 59.6898 35.0098 59.9913 35.227C60.2929 35.4441 60.4491 35.8106 60.397 36.1786C58.3828 50.4062 46.1367 61.3322 31.3311 61.3322C16.5256 61.3322 4.27945 50.4062 2.26518 36.1786L2.125 35.1885L4.10525 34.9081Z" fill="black"/>
<path fill-rule="evenodd" clip-rule="evenodd" d="M27.3733 41.7035C28.4186 41.9621 29.5329 42.1098 30.7163 42.1468V44.4188H32.5801V42.0914C34.4932 41.9436 35.9231 41.4449 36.8698 40.5952C37.8165 39.7455 38.2898 38.6279 38.2898 37.2426C38.2898 36.633 38.2011 36.0881 38.0236 35.6078C37.8658 35.1091 37.5699 34.6473 37.136 34.2225C36.7218 33.7792 36.14 33.3636 35.3906 32.9757C34.6608 32.5878 33.724 32.1906 32.5801 31.7842V24.8574C33.2704 24.9128 33.9508 25.0514 34.6214 25.273C35.2919 25.4947 35.9329 25.781 36.5443 26.132L37.4319 24.4141C36.6824 24.0262 35.9231 23.7122 35.1539 23.4721C34.3847 23.2319 33.5268 23.0842 32.5801 23.0287V20.5905H30.7163V23.0564C28.8623 23.2042 27.462 23.7029 26.5153 24.5526C25.5686 25.3839 25.0953 26.4644 25.0953 27.7944C25.0953 28.4594 25.184 29.0597 25.3615 29.5954C25.5588 30.1126 25.8743 30.5836 26.3082 31.0084C26.7618 31.4333 27.3437 31.8304 28.0537 32.1999C28.7637 32.5693 29.6512 32.9387 30.7163 33.3081V40.4012C28.8426 40.3088 27.107 39.8471 25.5094 39.0158C25.3517 39.2929 25.2136 39.57 25.0953 39.8471C24.9769 40.1241 24.8389 40.4012 24.6811 40.6783C25.4306 41.1031 26.3279 41.4449 27.3733 41.7035ZM27.5212 28.6533C27.4226 28.3578 27.3733 28.0253 27.3733 27.6559C27.3733 26.88 27.6494 26.252 28.2016 25.7718C28.7538 25.2915 29.5921 24.996 30.7163 24.8851V31.1193C30.0457 30.7868 29.4935 30.4912 29.0595 30.2326C28.6256 29.974 28.2805 29.7154 28.0241 29.4568C27.7874 29.1982 27.6198 28.9304 27.5212 28.6533ZM35.8343 36.3559C35.9527 36.67 36.0118 37.0209 36.0118 37.4088C36.0118 38.1846 35.716 38.8219 35.1243 39.3206C34.5523 39.8194 33.7043 40.1426 32.5801 40.2904V33.9731C33.2506 34.2132 33.8029 34.4534 34.2368 34.6935C34.6904 34.9336 35.0454 35.1922 35.3018 35.4693C35.5582 35.7464 35.7357 36.0419 35.8343 36.3559Z" fill="black"/>
</svg>
