<svg width="20" height="20" viewBox="0 0 20 20" fill="none" xmlns="http://www.w3.org/2000/svg">
<path d="M10.0001 1.66675C5.40008 1.66675 1.66675 5.40008 1.66675 10.0001C1.66675 14.6001 5.40008 18.3334 10.0001 18.3334C14.6001 18.3334 18.3334 14.6001 18.3334 10.0001C18.3334 5.40008 14.6001 1.66675 10.0001 1.66675ZM10.0001 16.6667C6.31675 16.6667 3.33341 13.6834 3.33341 10.0001C3.33341 8.45842 3.85841 7.04175 4.74175 5.91675L14.0834 15.2584C12.9584 16.1417 11.5417 16.6667 10.0001 16.6667ZM15.2584 14.0834L5.91675 4.74175C7.04175 3.85841 8.45842 3.33341 10.0001 3.33341C13.6834 3.33341 16.6667 6.31675 16.6667 10.0001C16.6667 11.5417 16.1417 12.9584 15.2584 14.0834Z" fill="white"/>
</svg>
