<svg width="75" height="45" viewBox="0 0 75 45" fill="none" xmlns="http://www.w3.org/2000/svg">
<g clip-path="url(#clip0_5520_344912)">
<path d="M20 0H59.5V45H20L-3.8147e-06 22.6731L20 0Z" fill="#BFD730"/>
<path d="M59.5 0H75V45H59.5V0Z" fill="white"/>
<path d="M0.166664 22.3269L19.5 0.173077C19.5 0.173077 19.6667 0 19.8333 0H74.5C74.6667 0 75 0.173077 75 0.519231V44.4808C75 44.6539 74.8333 45 74.5 45H19.8333C19.6667 45 19.6667 45 19.5 44.8269L0.166664 23.0192C0 22.6731 0 22.5 0.166664 22.3269ZM74 1.03846H60V44.1346H74V1.03846ZM20.1667 44.1346H59V1.03846H20.1667L1.16667 22.6731L20.1667 44.1346Z" fill="black"/>
<path d="M46.9893 31.4109C46.9732 31.1382 46.9305 30.8679 46.8622 30.6043C46.8307 30.4569 46.7568 30.3239 46.6505 30.2233C46.5508 30.152 46.4318 30.1167 46.3115 30.1225C46.0281 30.1693 45.7633 30.3016 45.549 30.5035C45.2242 30.7572 44.8039 31.0448 44.2885 31.366C43.7065 31.7205 43.0927 32.0131 42.4563 32.2401C41.6388 32.5189 40.7833 32.6514 39.9247 32.6321C38.9247 32.6486 37.9336 32.4304 37.0227 31.9935C36.1503 31.5566 35.3958 30.8938 34.8302 30.0663C34.1685 29.0845 33.6904 27.9779 33.4216 26.806C33.0682 25.2584 32.901 23.6698 32.924 22.0779C32.9063 20.5702 33.0591 19.0657 33.3794 17.5963C33.638 16.4012 34.0935 15.2635 34.7245 14.2352C35.2622 13.353 35.9875 12.6163 36.8427 12.084C37.7247 11.572 38.718 11.3132 39.7237 11.3333C40.5805 11.311 41.4344 11.4514 42.2445 11.7478C42.8805 11.9905 43.4909 12.3021 44.0661 12.6777C44.4997 12.9612 44.9172 13.2717 45.3159 13.6076C45.5312 13.8332 45.8102 13.9788 46.1104 14.0222C46.2372 14.0232 46.3591 13.9708 46.4492 13.8766C46.5677 13.7472 46.6547 13.5897 46.7034 13.4172C46.7846 13.1521 46.8346 12.8773 46.8518 12.5993C46.8518 12.2632 46.8518 11.8599 46.8518 11.3781C46.8518 10.8963 46.8518 10.5602 46.8518 10.2577C46.8341 9.99461 46.8021 9.73275 46.7565 9.47342C46.7227 9.28348 46.6656 9.09891 46.587 8.92445C46.4779 8.72872 46.3464 8.54804 46.1951 8.38664C45.8964 8.08122 45.5617 7.81759 45.1995 7.60236C44.6911 7.28154 44.1557 7.01144 43.6 6.79569C42.9693 6.55413 42.3211 6.36678 41.662 6.23548C40.9747 6.08877 40.2763 6.01001 39.5753 6.00015C37.8216 5.99141 36.0859 6.37317 34.4807 7.12056C32.9466 7.83475 31.5906 8.91641 30.5195 10.2801C29.3471 11.7872 28.4654 13.5229 27.9247 15.3891C27.2787 17.663 26.968 20.0287 27.0031 22.4028C26.9667 24.7008 27.2484 26.9921 27.8399 29.2035C28.3154 30.9861 29.1339 32.6453 30.2443 34.0772C31.2698 35.3651 32.5742 36.3722 34.0466 37.0127C35.6419 37.6893 37.3482 38.0245 39.0669 37.9986C39.9557 38.0036 40.843 37.9135 41.7148 37.7297C42.4583 37.5752 43.1883 37.354 43.8966 37.0689C44.4549 36.8422 44.9935 36.5648 45.5065 36.2397C45.8313 36.0469 46.1302 35.8094 46.3964 35.5339C46.5273 35.3844 46.6409 35.2188 46.7352 35.0408C46.8112 34.8769 46.8682 34.7039 46.9047 34.5254C46.951 34.2888 46.9828 34.0494 47 33.8084C47 33.5285 47 33.1921 47 32.7888C46.9893 32.2175 46.9893 31.7583 46.9893 31.4109Z" fill="white" stroke="black" stroke-miterlimit="10" stroke-linecap="round" stroke-linejoin="round"/>
<path d="M66.8327 27.5192C67.3327 27.5192 67.666 27.1731 67.666 26.6539V20.4231L68.8327 21.4616C68.9993 21.6346 69.166 21.6346 69.3327 21.6346C69.4993 21.6346 69.8327 21.4616 69.8327 21.4616C70.166 21.1154 70.166 20.5962 69.8327 20.25L67.3327 17.6539C66.9993 17.3077 66.4993 17.3077 66.166 17.6539L63.666 20.25C63.3327 20.5962 63.3327 21.1154 63.666 21.4616C63.9993 21.8077 64.4993 21.8077 64.8327 21.4616L65.9993 20.4231V26.6539C65.8327 27.1731 65.9993 27.5192 66.8327 27.5192Z" fill="black"/>
<path d="M68.3327 13.6731H65.3327L64.8327 15.4039H63.166L65.8327 6.9231H67.4993L70.3327 15.4039H68.666C68.9993 15.4039 68.3327 13.6731 68.3327 13.6731ZM67.8327 12.2885L66.8327 8.48079L65.666 12.2885H67.8327Z" fill="#231C1E"/>
<path d="M70.1654 33.0577V37.3846C69.832 37.5577 69.4987 37.7308 68.9987 37.9039C68.4987 38.0769 67.832 38.0769 67.6654 38.0769C66.4987 38.0769 65.4987 37.7308 64.832 36.8654C64.1654 36 63.832 34.9616 63.832 33.5769C63.832 32.1923 64.1654 30.9808 64.832 30.2885C65.4987 29.5962 66.4987 29.0769 67.6654 29.0769C68.1654 29.0769 68.6654 29.0769 68.9987 29.25C69.4987 29.4231 69.832 29.5962 69.9987 29.7693L69.4987 31.1539C68.832 30.8077 68.1654 30.6346 67.4987 30.6346C65.9987 30.6346 65.332 31.6731 65.332 33.5769C65.332 35.4808 65.9987 36.6923 67.6654 36.6923C67.9987 36.6923 68.332 36.6923 68.6654 36.5193V34.4423H67.1654V33.0577H70.1654Z" fill="black"/>
</g>
<defs>
<clipPath id="clip0_5520_344912">
<rect width="75" height="45" fill="white"/>
</clipPath>
</defs>
</svg>
