<svg width="192" height="32" viewBox="0 0 192 32" fill="none" xmlns="http://www.w3.org/2000/svg">
<path d="M11.4531 11.8171H11.8238L11.9315 11.4623L15.05 1.18901C15.2791 0.681418 15.6323 0.5 16.0297 0.5C16.4268 0.5 16.7796 0.681072 17.0087 1.18755L20.0507 11.4591L20.1567 11.8171H20.5301H30.4462C31.391 11.8171 31.8546 13.0049 31.1921 13.6645L22.9069 19.6533L22.6079 19.8694L22.7262 20.2189L26.0777 30.1172C26.282 30.8773 25.6968 31.5 25.1067 31.5C24.9712 31.5 24.773 31.4491 24.6359 31.3596L16.3347 24.9696L16.0311 24.7359L15.7265 24.9683L7.34809 31.3591C7.21089 31.4489 7.01227 31.5 6.87643 31.5C6.27594 31.5 5.69614 30.8632 5.83369 30.1819L9.18068 20.2969L9.2977 19.9513L9.00425 19.7345L0.80127 13.6725C0.129961 12.9451 0.656592 11.8171 1.53701 11.8171H11.4531Z" fill="#F7B500" stroke="#646464"/>
<path d="M51.4531 11.8171H51.8238L51.9315 11.4623L55.05 1.18901C55.2791 0.681418 55.6323 0.5 56.0297 0.5C56.4268 0.5 56.7796 0.681072 57.0087 1.18755L60.0507 11.4591L60.1567 11.8171H60.5301H70.4462C71.391 11.8171 71.8546 13.0049 71.1921 13.6645L62.9069 19.6533L62.6079 19.8694L62.7262 20.2189L66.0777 30.1172C66.282 30.8773 65.6968 31.5 65.1067 31.5C64.9712 31.5 64.773 31.4491 64.6359 31.3596L56.3347 24.9696L56.0311 24.7359L55.7265 24.9683L47.3481 31.3591C47.2109 31.4489 47.0123 31.5 46.8764 31.5C46.2759 31.5 45.6961 30.8632 45.8337 30.1819L49.1807 20.2969L49.2977 19.9513L49.0042 19.7345L40.8013 13.6725C40.13 12.9451 40.6566 11.8171 41.537 11.8171H51.4531Z" fill="#F7B500" stroke="#646464"/>
<path d="M91.4531 11.8171H91.8238L91.9315 11.4623L95.05 1.18901C95.2791 0.681418 95.6323 0.5 96.0297 0.5C96.4268 0.5 96.7796 0.681072 97.0087 1.18755L100.051 11.4591L100.157 11.8171H100.53H110.446C111.391 11.8171 111.855 13.0049 111.192 13.6645L102.907 19.6533L102.608 19.8694L102.726 20.2189L106.078 30.1172C106.282 30.8773 105.697 31.5 105.107 31.5C104.971 31.5 104.773 31.4491 104.636 31.3596L96.3347 24.9696L96.0311 24.7359L95.7265 24.9683L87.3481 31.3591C87.2109 31.4489 87.0123 31.5 86.8764 31.5C86.2759 31.5 85.6961 30.8632 85.8337 30.1819L89.1807 20.2969L89.2977 19.9513L89.0042 19.7345L80.8013 13.6725C80.13 12.9451 80.6566 11.8171 81.537 11.8171H91.4531Z" fill="#F7B500" stroke="#646464"/>
<path d="M131.453 11.8171H131.824L131.932 11.4623L135.05 1.18901C135.279 0.681418 135.632 0.5 136.03 0.5C136.427 0.5 136.78 0.681072 137.009 1.18755L140.051 11.4591L140.157 11.8171H140.53H150.446C151.391 11.8171 151.855 13.0049 151.192 13.6645L142.907 19.6533L142.608 19.8694L142.726 20.2189L146.078 30.1172C146.282 30.8773 145.697 31.5 145.107 31.5C144.971 31.5 144.773 31.4491 144.636 31.3596L136.335 24.9696L136.031 24.7359L135.726 24.9683L127.348 31.3591C127.211 31.4489 127.012 31.5 126.876 31.5C126.276 31.5 125.696 30.8632 125.834 30.1819L129.181 20.2969L129.298 19.9513L129.004 19.7345L120.801 13.6725C120.13 12.9451 120.657 11.8171 121.537 11.8171H131.453Z" fill="#F7B500" stroke="#646464"/>
<path d="M171.453 11.8171H171.824L171.932 11.4623L175.05 1.18901C175.279 0.681418 175.632 0.5 176.03 0.5C176.427 0.5 176.78 0.681072 177.009 1.18755L180.051 11.4591L180.157 11.8171H180.53H190.446C191.391 11.8171 191.855 13.0049 191.192 13.6645L182.907 19.6533L182.608 19.8694L182.726 20.2189L186.078 30.1172C186.282 30.8773 185.697 31.5 185.107 31.5C184.971 31.5 184.773 31.4491 184.636 31.3596L176.335 24.9696L176.031 24.7359L175.726 24.9683L167.348 31.3591C167.211 31.4489 167.012 31.5 166.876 31.5C166.276 31.5 165.696 30.8632 165.834 30.1819L169.181 20.2969L169.298 19.9513L169.004 19.7345L160.801 13.6725C160.13 12.9451 160.657 11.8171 161.537 11.8171H171.453Z" fill="#F7B500" stroke="#646464"/>
</svg>
