<svg width="24" height="24" viewBox="0 0 24 24" fill="none" xmlns="http://www.w3.org/2000/svg">
<path d="M19.9097 15.6143C19.9097 15.6143 17.3379 14.0999 16.8831 13.9031C16.7032 13.8044 16.5054 13.7396 16.3006 13.7122C16.1183 13.6996 15.9363 13.7336 15.773 13.8106C15.6097 13.8876 15.4711 14.0048 15.3713 14.1503C15.0687 14.488 14.3487 15.184 14.0914 15.4216C14.058 15.4524 13.8933 15.6335 13.8226 15.6272L13.3482 15.446C11.328 14.2147 9.66619 12.5122 8.52077 10.5004C8.51464 10.4657 8.51781 10.4301 8.52999 10.397L8.70757 10.2392C8.87425 10.0994 9.03301 9.95128 9.18316 9.79534L9.42095 9.57342C9.61643 9.39322 9.78196 9.18548 9.91191 8.9573L9.95956 8.83998C10.0679 8.67816 10.0965 8.49004 10.1137 8.29802C10.1308 8.10599 10.099 7.91248 10.021 7.73404C10.0317 7.61344 9.08911 4.94186 9.00555 4.65655C8.77402 3.99336 8.42317 3.64949 7.9185 3.60449L7.63012 3.57877C6.87029 3.55464 6.11383 3.66992 5.40162 3.91839C4.79346 4.30496 4.29241 4.82634 3.94063 5.43866C3.58886 6.05098 3.39663 6.73634 3.38013 7.43708C3.35 9.06442 4.03365 10.7357 4.7307 12.0206L4.77845 12.129C6.30209 14.9579 8.64861 17.3089 11.5327 18.8962C12.8587 19.656 14.3265 20.1587 15.8517 20.3754L16.5727 20.4397L16.6988 20.4509C17.3846 20.396 18.0477 20.1954 18.6398 19.8637C19.2319 19.5319 19.7382 19.0775 20.1218 18.5333C20.5304 17.8465 20.6788 17.0444 20.5424 16.2612C20.393 15.9973 20.1751 15.7745 19.9097 15.6143Z" stroke="black" stroke-linecap="round" stroke-linejoin="round"/>
<path fill-rule="evenodd" clip-rule="evenodd" d="M14 3.5C17.7839 3.5 20.8493 6.5599 20.8493 10.332C20.8493 10.6082 21.0731 10.832 21.3493 10.832C21.6254 10.832 21.8493 10.6082 21.8493 10.332C21.8493 6.00541 18.3339 2.5 14 2.5C13.7239 2.5 13.5 2.72386 13.5 3C13.5 3.27614 13.7239 3.5 14 3.5ZM14.5244 6.11914C16.5688 6.11914 18.224 7.77219 18.224 9.80886C18.224 10.085 18.4479 10.3089 18.724 10.3089C19.0002 10.3089 19.224 10.085 19.224 9.80886C19.224 7.21769 17.1188 5.11914 14.5244 5.11914C14.2483 5.11914 14.0244 5.343 14.0244 5.61914C14.0244 5.89528 14.2483 6.11914 14.5244 6.11914Z" fill="black"/>
</svg>
