<svg width="64" height="64" viewBox="0 0 64 64" fill="none" xmlns="http://www.w3.org/2000/svg">
<circle cx="32" cy="32" r="32" fill="#FFCD29"/>
<rect x="16" y="28.0008" width="3" height="9.6" rx="1.5" transform="rotate(-45 16 28.0008)" fill="#333333"/>
<rect x="28" y="16.8004" width="3" height="8" rx="1.5" fill="#F7AE18"/>
<rect x="33" y="13.6004" width="3" height="11.2" rx="1.5" fill="#F7AE18"/>
<rect x="45.6001" y="25.9998" width="3" height="9.6" rx="1.5" transform="rotate(45 45.6001 25.9998)" fill="#333333"/>
<path fill-rule="evenodd" clip-rule="evenodd" d="M31.9356 39.0713C31.5972 39.0077 31.2348 39.0616 30.9124 39.2504L21.3689 44.8379C20.654 45.2565 20.4067 46.1794 20.8166 46.8994C21.2264 47.6193 22.1383 47.8636 22.8532 47.445L31.8065 42.203L40.937 47.5487C41.6519 47.9673 42.5637 47.723 42.9736 47.0031C43.3835 46.2831 43.1362 45.3602 42.4213 44.9417L32.7423 39.2748C32.4878 39.1258 32.2084 39.0608 31.9356 39.0713Z" fill="#333333"/>
</svg>
