<svg width="49" height="48" viewBox="0 0 49 48" fill="none" xmlns="http://www.w3.org/2000/svg">
<g clip-path="url(#clip0_270_228604)">
<path fill-rule="evenodd" clip-rule="evenodd" d="M5.24805 6H4.49805V6.75V40.25V41H5.24805H34.4012L36.1492 45.2834C36.2691 45.5772 36.561 45.7637 36.8779 45.7492C37.1949 45.7347 37.4685 45.5223 37.561 45.2187L39.927 37.4583L47.7213 35.0285C48.0236 34.9343 48.2341 34.6603 48.2474 34.3439C48.2606 34.0275 48.0737 33.7368 47.7803 33.6176L44.4985 32.2844V32.1446V6.75V6H43.7485H5.24805ZM42.9985 31.675V17.4225H5.99805V39.5H33.7891L28.8036 27.2834C28.6896 27.004 28.7541 26.6836 28.9673 26.4701C29.1805 26.2566 29.5008 26.1916 29.7803 26.3051L42.9985 31.675ZM42.9985 15.9225V7.5H5.99805V15.9225H42.9985ZM9.41602 11.1158H12.5922V12.3069H9.41602V11.1158ZM36.7412 42.7641L30.8651 28.3649L45.2764 34.2195L39.102 36.1443C38.8652 36.2181 38.6802 36.4043 38.6079 36.6416L36.7412 42.7641Z" fill="black"/>
</g>
<defs>
<clipPath id="clip0_270_228604">
<rect width="48" height="48" fill="white" transform="translate(0.5)"/>
</clipPath>
</defs>
</svg>
