<svg width="60" height="60" viewBox="0 0 60 60" fill="none" xmlns="http://www.w3.org/2000/svg">
<g clip-path="url(#clip0_4559_168797)">
<path d="M7.20312 24.5094C9.51875 13.8406 19.0156 5.84375 30.3781 5.84375C34.475 5.84375 38.3281 6.88437 41.6844 8.70312C49.0813 12.7156 54.0969 20.5531 54.0969 29.5625C54.0969 39.2938 48.2375 47.6562 39.8469 51.3125" stroke="black" stroke-width="1.5" stroke-miterlimit="10" stroke-linecap="round"/>
<path d="M2.83056 28.125C2.83056 28.125 2.06045 43.0805 10.5776 50.4097C17.4811 56.3523 27.1625 56.3883 30.5914 56.1993C31.3156 56.1542 31.8841 55.569 31.8749 54.8577C31.8749 51.022 31.0131 39.4429 21.1941 37.0299C8.11135 33.8065 2.83973 28.134 2.83973 28.134L2.83056 28.125Z" stroke="black" stroke-width="1.5" stroke-miterlimit="10"/>
<path d="M13.125 40.3125C13.125 40.3125 18.1566 50.3363 35.625 57.1875" stroke="black" stroke-width="1.5" stroke-miterlimit="10" stroke-linecap="square"/>
<path d="M42.8399 10.0703L37.9367 12.5078C36.9899 12.9766 36.3524 13.9141 36.2586 14.9641L35.7055 21.1141C35.5461 22.9141 36.4555 24.6391 38.0305 25.5203L42.5211 28.0422C42.9899 28.3047 43.2805 28.8016 43.2805 29.3359V34.0609C43.2805 34.4828 43.4586 34.8766 43.768 35.1578L50.8367 41.5516" stroke="black" stroke-width="1.5" stroke-miterlimit="10"/>
<path d="M12.4609 14.8203L16.0609 18.0922C16.4828 18.4766 17.0359 18.6922 17.6172 18.6922H26.7203C27.5453 18.6922 28.3047 19.1328 28.7172 19.8453L29.6547 21.4766C30.0953 22.2453 30.0578 23.2016 29.5516 23.9328L27.2359 27.2891C26.8047 27.9172 26.0922 28.2828 25.3422 28.2828H20.0078C18.9016 28.2828 17.9453 29.0703 17.7391 30.1578" stroke="black" stroke-width="1.5" stroke-miterlimit="10"/>
</g>
<defs>
<clipPath id="clip0_4559_168797">
<rect width="60" height="60" rx="30" fill="white"/>
</clipPath>
</defs>
</svg>
