<svg width="16" height="16" viewBox="0 0 16 16" fill="#EA1917" xmlns="http://www.w3.org/2000/svg">
<path d="M1.92089 9.38335C3.0516 10.4601 4.99037 12.2147 7.35185 14.2449C7.72448 14.5653 8.27559 14.5653 8.64822 14.2449C11.0097 12.2147 12.9485 10.4601 14.0792 9.38335C14.1675 9.29951 14.2444 9.21707 14.3099 9.13603L14.3547 9.08712C15.0056 8.33537 15.4 7.35377 15.4 6.27854C15.4 3.9157 13.4932 2 11.1405 2C9.74777 2 8.66438 2.6714 8.00004 3.7103C7.33569 2.6714 6.25231 2 4.85953 2C2.50691 2 0.600037 3.9157 0.600037 6.27854C0.600037 7.35377 0.994513 8.33537 1.64533 9.08712L1.69019 9.13603C1.7557 9.21707 1.8326 9.29951 1.92089 9.38335Z" stroke="#EA1917" stroke-width="1.2"/>
</svg>
