<svg width="41" height="40" viewBox="0 0 41 40" fill="none" xmlns="http://www.w3.org/2000/svg">
<g clip-path="url(#clip0_700_12627)">
<path d="M40.5 20C40.5 31.0457 31.5457 40 20.5 40C9.4543 40 0.5 31.0457 0.5 20C0.5 8.9543 9.4543 0 20.5 0C31.5457 0 40.5 8.9543 40.5 20Z" fill="white"/>
<path fill-rule="evenodd" clip-rule="evenodd" d="M20.5 38.5C30.7173 38.5 39 30.2173 39 20C39 9.78273 30.7173 1.5 20.5 1.5C10.2827 1.5 2 9.78273 2 20C2 30.2173 10.2827 38.5 20.5 38.5ZM20.5 40C31.5457 40 40.5 31.0457 40.5 20C40.5 8.9543 31.5457 0 20.5 0C9.4543 0 0.5 8.9543 0.5 20C0.5 31.0457 9.4543 40 20.5 40Z" fill="#CBC8C2"/>
<path d="M20.5 7L20.5 33" stroke="#646464" stroke-width="1.5" stroke-linecap="round" stroke-linejoin="round"/>
<path d="M33.5 20H7.5" stroke="#646464" stroke-width="1.5" stroke-linecap="round" stroke-linejoin="round"/>
<path d="M30.5 20C30.5 25.5228 26.0228 30 20.5 30C14.9772 30 10.5 25.5228 10.5 20C10.5 14.4772 14.9772 10 20.5 10C26.0228 10 30.5 14.4772 30.5 20Z" fill="white"/>
<path fill-rule="evenodd" clip-rule="evenodd" d="M20.5 28.5C25.1944 28.5 29 24.6944 29 20C29 15.3056 25.1944 11.5 20.5 11.5C15.8056 11.5 12 15.3056 12 20C12 24.6944 15.8056 28.5 20.5 28.5ZM20.5 30C26.0228 30 30.5 25.5228 30.5 20C30.5 14.4772 26.0228 10 20.5 10C14.9772 10 10.5 14.4772 10.5 20C10.5 25.5228 14.9772 30 20.5 30Z" fill="#646464"/>
<g filter="url(#filter0_b_700_12627)">
<circle cx="20.5" cy="20" r="4" fill="#646464"/>
</g>
</g>
<defs>
<filter id="filter0_b_700_12627" x="1.5" y="1" width="38" height="38" filterUnits="userSpaceOnUse" color-interpolation-filters="sRGB">
<feFlood flood-opacity="0" result="BackgroundImageFix"/>
<feGaussianBlur in="BackgroundImageFix" stdDeviation="7.5"/>
<feComposite in2="SourceAlpha" operator="in" result="effect1_backgroundBlur_700_12627"/>
<feBlend mode="normal" in="SourceGraphic" in2="effect1_backgroundBlur_700_12627" result="shape"/>
</filter>
<clipPath id="clip0_700_12627">
<rect width="40" height="40" fill="white" transform="translate(0.5)"/>
</clipPath>
</defs>
</svg>
