<svg width="65" height="64" viewBox="0 0 65 64" fill="none" xmlns="http://www.w3.org/2000/svg">
<g clip-path="url(#clip0_642_110441)">
<path d="M59.6797 27H5.17969C4.07512 27 3.17969 27.8954 3.17969 29V35C3.17969 36.1046 4.07512 37 5.17969 37H59.6797C60.7843 37 61.6797 36.1046 61.6797 35V29C61.6797 27.8954 60.7843 27 59.6797 27Z" stroke="black" stroke-width="1.5"/>
<path d="M8.17969 32H32.1797" stroke="black" stroke-width="1.5" stroke-linecap="round"/>
<path d="M44.8438 33.0122C45.396 33.0122 45.8438 32.56 45.8438 32.0022C45.8438 31.4444 45.396 30.9922 44.8438 30.9922C44.2915 30.9922 43.8438 31.4444 43.8438 32.0022C43.8438 32.56 44.2915 33.0122 44.8438 33.0122Z" fill="black"/>
<path d="M49.8438 33.0122C50.396 33.0122 50.8438 32.56 50.8438 32.0022C50.8438 31.4444 50.396 30.9922 49.8438 30.9922C49.2915 30.9922 48.8438 31.4444 48.8438 32.0022C48.8438 32.56 49.2915 33.0122 49.8438 33.0122Z" fill="black"/>
<path d="M54.1797 32H57.1797" stroke="black" stroke-width="1.5" stroke-linecap="round"/>
</g>
<defs>
<clipPath id="clip0_642_110441">
<rect width="60" height="11.5" fill="white" transform="translate(2.42969 26.25)"/>
</clipPath>
</defs>
</svg>
