<svg width="48" height="48" viewBox="0 0 48 48" fill="none" xmlns="http://www.w3.org/2000/svg">
<path fill-rule="evenodd" clip-rule="evenodd" d="M5.36133 8.85742C4.94711 8.85742 4.61133 9.19321 4.61133 9.60742C4.61133 10.0216 4.94711 10.3574 5.36133 10.3574H10.0212L17.3146 29.94L17.3146 29.9401C18.0274 31.8545 19.8532 33.125 21.8969 33.125H38.4999C38.9141 33.125 39.2499 32.7892 39.2499 32.375C39.2499 31.9607 38.9141 31.625 38.4999 31.625H21.8969C20.4806 31.625 19.2148 30.7447 18.7203 29.4166L18.7203 29.4166L17.7874 26.9117C17.7912 26.9118 17.795 26.9118 17.7988 26.9118H34.2899C37.253 26.9118 39.88 25.0099 40.6161 22.2342L40.6161 22.234L43.3722 11.8506C43.4319 11.6255 43.3837 11.3855 43.2418 11.2009C43.0998 11.0164 42.8801 10.9082 42.6473 10.9082H34.2899C33.8757 10.9082 33.5399 11.244 33.5399 11.6582C33.5399 12.0724 33.8757 12.4082 34.2899 12.4082H41.6722L39.1663 21.8493L39.1662 21.8495C38.6184 23.9158 36.6278 25.4118 34.2899 25.4118H17.7988C17.6071 25.4118 17.4322 25.4837 17.2996 25.6021L11.2451 9.34566C11.1357 9.05211 10.8555 8.85742 10.5422 8.85742H5.36133ZM16.9941 40.6602C16.9941 39.6437 17.8176 38.8203 18.8325 38.8203C19.8474 38.8203 20.6709 39.6437 20.6709 40.6602C20.6709 41.6768 19.8474 42.5002 18.8325 42.5002C17.8176 42.5002 16.9941 41.6768 16.9941 40.6602ZM18.8325 37.3203C16.9884 37.3203 15.4941 38.8161 15.4941 40.6602C15.4941 42.5044 16.9884 44.0002 18.8325 44.0002C20.6767 44.0002 22.1709 42.5044 22.1709 40.6602C22.1709 38.8161 20.6767 37.3203 18.8325 37.3203ZM37.4692 38.8203C36.4544 38.8203 35.6309 39.6437 35.6309 40.6602C35.6309 41.6768 36.4544 42.5002 37.4692 42.5002C38.4841 42.5002 39.3076 41.6768 39.3076 40.6602C39.3076 39.6437 38.4841 38.8203 37.4692 38.8203ZM34.1309 40.6602C34.1309 38.8161 35.6251 37.3203 37.4692 37.3203C39.3134 37.3203 40.8076 38.8161 40.8076 40.6602C40.8076 42.5044 39.3134 44.0002 37.4692 44.0002C35.6251 44.0002 34.1309 42.5044 34.1309 40.6602Z" fill="black"/>
<path d="M24.502 11.5L26.502 13.75L30.502 9.25" stroke="black" stroke-width="1.5" stroke-linecap="round" stroke-linejoin="round"/>
<rect x="20.752" y="4.75" width="13.5" height="13.5" rx="6.75" stroke="black" stroke-width="1.5"/>
</svg>
