<svg width="24" height="25" viewBox="0 0 24 25" fill="none" xmlns="http://www.w3.org/2000/svg">
<path fill-rule="evenodd" clip-rule="evenodd" d="M12.1419 3.25981C11.36 2.91001 10.5164 2.9244 9.73047 3.24672C9.71911 3.25138 9.70786 3.25623 9.69671 3.26126L3.69809 5.9693C3.68743 5.97411 3.67685 5.9791 3.66634 5.98427C2.70606 6.45688 1.99951 7.46832 1.99951 8.60666V14.733C1.99951 15.8508 2.64068 16.8235 3.61026 17.3056L9.50996 20.3643L9.50994 20.3643L9.51551 20.3671L9.52399 20.3714L9.52397 20.3714L9.52966 20.3742C10.3649 20.7853 11.3416 20.7853 12.1768 20.3742L12.1769 20.3743L12.1832 20.3711L13.751 19.5764C13.5518 19.2315 13.3928 18.8605 13.2803 18.4697L11.644 19.299C11.604 19.3186 11.5634 19.3367 11.5224 19.3531V11.442L14.7021 9.98325V11.9853C14.7021 12.3166 14.9707 12.5853 15.3021 12.5853C15.6335 12.5853 15.9021 12.3166 15.9021 11.9853V9.42634L18.5794 8.14874C18.6208 8.29655 18.6423 8.45054 18.6423 8.60666V12.1499C19.0603 12.1986 19.4625 12.2992 19.8423 12.445V8.60666C19.8423 7.50271 19.2103 6.45921 18.15 5.97214L18.1464 5.97052L12.1451 3.26125L12.1433 3.26045L12.1419 3.25982L12.1419 3.25981ZM8.46385 5.13444L10.1881 4.35603C10.6955 4.14857 11.1953 4.15095 11.6518 4.35517L11.6532 4.35578L17.6491 7.06261L17.6507 7.06337C17.719 7.09481 17.7842 7.13013 17.8462 7.16897L15.3015 8.38329L8.46385 5.13444ZM7.03002 5.78174L4.1941 7.062C4.13241 7.09246 4.07268 7.12654 4.01518 7.16388L10.9249 10.3959L13.884 9.03832L7.03002 5.78174ZM3.27103 8.14059C3.22452 8.29132 3.19951 8.44819 3.19951 8.60666V14.733C3.19951 15.3761 3.56559 15.9447 4.14775 16.2327L4.1579 16.2377L4.15785 16.2378L10.0595 19.2975L10.0622 19.2988C10.1468 19.3403 10.2338 19.3748 10.3224 19.4022V11.4389L3.27103 8.14059ZM18.06 19.8014C19.5731 19.8014 20.8003 18.5743 20.8003 17.0599C20.8003 15.5455 19.5731 14.3184 18.06 14.3184C16.5469 14.3184 15.3196 15.5455 15.3196 17.0599C15.3196 18.5743 16.5469 19.8014 18.06 19.8014ZM22.0003 17.0599C22.0003 19.2368 20.2362 21.0014 18.06 21.0014C15.8838 21.0014 14.1196 19.2368 14.1196 17.0599C14.1196 14.8831 15.8838 13.1184 18.06 13.1184C20.2362 13.1184 22.0003 14.8831 22.0003 17.0599ZM16.6537 17.7605C16.4585 17.9557 16.4585 18.2723 16.6537 18.4676C16.849 18.6628 17.1656 18.6628 17.3608 18.4676L18.0581 17.7703L18.7783 18.4905C18.9736 18.6858 19.2901 18.6858 19.4854 18.4905C19.6807 18.2953 19.6807 17.9787 19.4854 17.7834L18.7652 17.0632L19.4821 16.3463C19.6774 16.151 19.6774 15.8344 19.4821 15.6392C19.2869 15.4439 18.9703 15.4439 18.775 15.6392L18.0581 16.3561L17.3641 15.6621C17.1688 15.4668 16.8522 15.4668 16.657 15.6621C16.4617 15.8574 16.4617 16.1739 16.657 16.3692L17.351 17.0632L16.6537 17.7605Z" fill="#EA1917"/>
</svg>