<svg width="49" height="48" viewBox="0 0 49 48" fill="none" xmlns="http://www.w3.org/2000/svg">
<path fill-rule="evenodd" clip-rule="evenodd" d="M9.75 8.00006H9V9.50006H9.75H11.75L11.75 38.5001H9.75H9V40.0001H9.75H15.25H16V38.5001H15.25H13.25L13.25 9.50006H15.25H16V8.00006H15.25H9.75ZM2.49707 12H3.24707H7.75H8.5V13.5H7.75H3.99707V34.5H7.75H8.5V36H7.75H3.24707H2.49707V35.25V12.75V12ZM16.5 12H17.25H45.7471H46.4971V12.75V35.25V36H45.7471H17.25H16.5V34.5H17.25H44.9971V13.5H17.25H16.5V12ZM22.2998 27.5498H21.5498V29.0498H22.2998H28.7998H29.5498V27.5498H28.7998H22.2998ZM33.2998 27.5498H32.5498V29.0498H33.2998H39.7998H40.5498V27.5498H39.7998H33.2998Z" fill="black"/>
</svg>
