<svg width="75" height="45" viewBox="0 0 75 45" fill="none" xmlns="http://www.w3.org/2000/svg">
<g clip-path="url(#clip0_5520_345734)">
<path d="M20 0H59.5V45H20L-3.8147e-06 22.6731L20 0Z" fill="#F37021"/>
<path d="M59.5 0H75V45H59.5V0Z" fill="white"/>
<path d="M0.166664 22.3269L19.5 0.173077C19.5 0.173077 19.6667 0 19.8333 0H74.5C74.6667 0 75 0.173077 75 0.519231V44.4808C75 44.6539 74.8333 45 74.5 45H19.8333C19.6667 45 19.6667 45 19.5 44.8269L0.166664 23.0192C0 22.6731 0 22.5 0.166664 22.3269ZM74 1.03846H60V44.1346H74V1.03846ZM20.1667 44.1346H59V1.03846H20.1667L1.16667 22.6731L20.1667 44.1346Z" fill="black"/>
<path d="M45.9615 8.41467C45.9392 8.13162 45.8791 7.85311 45.7827 7.58696C45.725 7.41706 45.6293 7.26349 45.5033 7.13863C45.4045 7.04906 45.2771 6.99997 45.1456 7.00068H31.731C31.2752 6.98771 30.833 7.16142 30.5015 7.48347C30.1334 7.91177 29.9553 8.47804 30.0096 9.04682V37.9128C30.0056 38.0821 30.0566 38.2481 30.1549 38.3841C30.2785 38.5378 30.4409 38.6532 30.6243 38.7175C30.913 38.8241 31.2133 38.8936 31.5187 38.9245C32.455 39.0252 33.3991 39.0252 34.3357 38.9245C34.6405 38.892 34.9409 38.8222 35.2298 38.7175C35.4153 38.6573 35.5788 38.5411 35.6994 38.3841C35.7906 38.2454 35.8376 38.0805 35.8334 37.9128V26.0722H44.5978C44.7294 26.073 44.8567 26.0239 44.9553 25.9343C45.0813 25.8094 45.1769 25.6558 45.2349 25.486C45.3282 25.223 45.3882 24.9486 45.4137 24.6698C45.4892 23.8517 45.4892 23.0279 45.4137 22.2097C45.3896 21.9418 45.3295 21.6787 45.2349 21.428C45.1759 21.2686 45.0799 21.1267 44.9553 21.0141C44.8535 20.9313 44.7272 20.8867 44.5978 20.8876H35.8225V12.3462H45.1679C45.3013 12.3461 45.4297 12.2925 45.5254 12.1969C45.6468 12.0724 45.742 11.9237 45.805 11.76C45.9012 11.5017 45.9613 11.2308 45.9839 10.9552C46.0054 10.5417 46.0054 10.1272 45.9839 9.71368C45.9995 9.28061 45.9921 8.84689 45.9615 8.41467Z" fill="white" stroke="black" stroke-miterlimit="10" stroke-linecap="round" stroke-linejoin="round"/>
<path d="M66.8327 27.5192C67.3327 27.5192 67.666 27.1731 67.666 26.6538V20.4231L68.8327 21.4615C68.9993 21.6346 69.166 21.6346 69.3327 21.6346C69.4993 21.6346 69.8327 21.4615 69.8327 21.4615C70.166 21.1154 70.166 20.5961 69.8327 20.25L67.3327 17.6538C66.9993 17.3077 66.4993 17.3077 66.166 17.6538L63.666 20.25C63.3327 20.5961 63.3327 21.1154 63.666 21.4615C63.9993 21.8077 64.4993 21.8077 64.8327 21.4615L65.9993 20.4231V26.6538C65.8327 27.1731 65.9993 27.5192 66.8327 27.5192Z" fill="black"/>
<path d="M68.3327 13.6731H65.3327L64.8327 15.4039H63.166L65.8327 6.9231H67.4993L70.3327 15.4039H68.666C68.9993 15.4039 68.3327 13.6731 68.3327 13.6731ZM67.8327 12.2885L66.8327 8.48079L65.666 12.2885H67.8327Z" fill="#231C1E"/>
<path d="M70.1654 33.0577V37.3847C69.832 37.5577 69.4987 37.7308 68.9987 37.9039C68.4987 38.077 67.832 38.077 67.6654 38.077C66.4987 38.077 65.4987 37.7308 64.832 36.8654C64.1654 36 63.832 34.9616 63.832 33.577C63.832 32.1924 64.1654 30.9808 64.832 30.2885C65.4987 29.5962 66.4987 29.077 67.6654 29.077C68.1654 29.077 68.6654 29.077 68.9987 29.25C69.4987 29.4231 69.832 29.5962 69.9987 29.7693L69.4987 31.1539C68.832 30.8077 68.1654 30.6347 67.4987 30.6347C65.9987 30.6347 65.332 31.6731 65.332 33.577C65.332 35.4808 65.9987 36.6924 67.6654 36.6924C67.9987 36.6924 68.332 36.6924 68.6654 36.5193V34.4424H67.1654V33.0577H70.1654Z" fill="black"/>
</g>
<defs>
<clipPath id="clip0_5520_345734">
<rect width="75" height="45" fill="white"/>
</clipPath>
</defs>
</svg>
