<svg width="24" height="24" viewBox="0 0 24 24" fill="none" xmlns="http://www.w3.org/2000/svg">
<line x1="16.6" y1="6.6" x2="16.6" y2="16.4" stroke="black" stroke-width="1.2" stroke-linecap="round" stroke-dasharray="1 2"/>
<circle cx="7.6" cy="9.6" r="1" stroke="black" stroke-width="1.2"/>
<circle cx="11.6" cy="13.6" r="1" stroke="black" stroke-width="1.2"/>
<path d="M12 9L7 14" stroke="black" stroke-width="1.2" stroke-linecap="round"/>
<mask id="path-5-inside-1_3805_5336" fill="white">
<path fill-rule="evenodd" clip-rule="evenodd" d="M3.5 6C2.67157 6 2 6.67157 2 7.5V15.5C2 16.3284 2.67157 17 3.5 17H20.5C21.3284 17 22 16.3284 22 15.5V12.9146C21.8436 12.9699 21.6753 13 21.5 13C20.6716 13 20 12.3284 20 11.5C20 10.6716 20.6716 10 21.5 10C21.6753 10 21.8436 10.0301 22 10.0854V7.5C22 6.67157 21.3284 6 20.5 6H3.5Z"/>
</mask>
<path d="M22 12.9146H23V11.5006L21.6668 11.9718L22 12.9146ZM22 10.0854L21.6668 11.0282L23 11.4994V10.0854H22ZM3 7.5C3 7.22386 3.22386 7 3.5 7V5C2.11929 5 1 6.11929 1 7.5H3ZM3 15.5V7.5H1V15.5H3ZM3.5 16C3.22386 16 3 15.7761 3 15.5H1C1 16.8807 2.11929 18 3.5 18V16ZM20.5 16H3.5V18H20.5V16ZM21 15.5C21 15.7761 20.7761 16 20.5 16V18C21.8807 18 23 16.8807 23 15.5H21ZM21 12.9146V15.5H23V12.9146H21ZM21.6668 11.9718C21.6159 11.9898 21.5602 12 21.5 12V14C21.7904 14 22.0713 13.9501 22.3332 13.8575L21.6668 11.9718ZM21.5 12C21.2239 12 21 11.7761 21 11.5H19C19 12.8807 20.1193 14 21.5 14V12ZM21 11.5C21 11.2239 21.2239 11 21.5 11V9C20.1193 9 19 10.1193 19 11.5H21ZM21.5 11C21.5602 11 21.6159 11.0102 21.6668 11.0282L22.3332 9.14251C22.0713 9.04993 21.7904 9 21.5 9V11ZM21 7.5V10.0854H23V7.5H21ZM20.5 7C20.7761 7 21 7.22386 21 7.5H23C23 6.11929 21.8807 5 20.5 5V7ZM3.5 7H20.5V5H3.5V7Z" fill="black" mask="url(#path-5-inside-1_3805_5336)"/>
</svg>
