<svg width="16" height="16" viewBox="0 0 16 16" fill="none" xmlns="http://www.w3.org/2000/svg">
<path fill-rule="evenodd" clip-rule="evenodd" d="M8 16C3.584 16 0 12.416 0 8C0 3.584 3.576 0 7.992 0H8C12.416 0 16 3.584 16 8C16 12.416 12.416 16 8 16ZM8 1.6C4.592 1.472 1.728 4.12 1.6 7.528C1.6 7.688 1.6 7.84 1.6 8C1.472 11.4 4.12 14.272 7.528 14.4C7.688 14.4 7.84 14.4 8 14.4C11.408 14.528 14.272 11.88 14.4 8.472C14.4 8.312 14.4 8.16 14.4 8C14.528 4.6 11.88 1.728 8.472 1.6C8.312 1.6 8.16 1.6 8 1.6ZM9.768 10.952L7.448 8.848C7.288 8.712 7.208 8.504 7.216 8.296V4.72C7.24 4.304 7.592 3.992 8.008 4.008C8.424 3.992 8.776 4.304 8.8 4.72V7.968L10.936 9.896C11.224 10.152 11.256 10.592 11.008 10.88C10.984 10.904 10.96 10.928 10.936 10.952C10.6 11.24 10.104 11.24 9.776 10.952H9.768Z" fill="black"/>
</svg>
