<svg width="60" height="60" viewBox="0 0 60 60" fill="none" xmlns="http://www.w3.org/2000/svg">
<path d="M25.1016 50L25.0671 50.7492L25.0843 50.75H25.1016V50ZM22.1016 47H21.3516V47.0172L21.3524 47.0345L22.1016 47ZM20.1016 43L20.0723 43.7494L20.0869 43.75H20.1016V43ZM15.1016 38H14.3516V38.0146L14.3521 38.0292L15.1016 38ZM15.1016 14V13.25H14.3516V14H15.1016ZM18.1016 5L17.3524 4.96553L17.3516 4.98276V5H18.1016ZM21.1016 2V1.25H21.0843L21.0671 1.25079L21.1016 2ZM33.1016 2L33.136 1.25079L33.1188 1.25H33.1016V2ZM36.1016 5H36.8516V4.98276L36.8508 4.96553L36.1016 5ZM39.1016 14H39.8516V13.25H39.1016V14ZM39.1016 38L39.8508 38.0332L39.8516 38.0166V38H39.1016ZM34.1016 43V43.75H34.1182L34.1348 43.7493L34.1016 43ZM32.1016 47L32.8508 47.0345L32.8516 47.0172V47H32.1016ZM29.1016 50V50.75H29.1188L29.136 50.7492L29.1016 50ZM42.8516 41C42.8516 40.5858 42.5158 40.25 42.1016 40.25C41.6873 40.25 41.3516 40.5858 41.3516 41H42.8516ZM23.2515 6C23.2515 5.58579 22.9157 5.25 22.5015 5.25C22.0873 5.25 21.7515 5.58579 21.7515 6H23.2515ZM21.7515 11C21.7515 11.4142 22.0873 11.75 22.5015 11.75C22.9157 11.75 23.2515 11.4142 23.2515 11H21.7515ZM32.2515 6C32.2515 5.58579 31.9157 5.25 31.5015 5.25C31.0873 5.25 30.7515 5.58579 30.7515 6H32.2515ZM30.7515 11C30.7515 11.4142 31.0873 11.75 31.5015 11.75C31.9157 11.75 32.2515 11.4142 32.2515 11H30.7515ZM26.1016 49.25H25.1016V50.75H26.1016V49.25ZM25.136 49.2508C24.5388 49.2233 23.9734 48.9737 23.5506 48.551L22.4899 49.6116C23.1771 50.2988 24.0963 50.7045 25.0671 50.7492L25.136 49.2508ZM23.5506 48.551C23.1278 48.1282 22.8782 47.5628 22.8508 46.9655L21.3524 47.0345C21.397 48.0053 21.8027 48.9244 22.4899 49.6116L23.5506 48.551ZM22.8516 47V43H21.3516V47H22.8516ZM22.1016 42.25H20.1016V43.75H22.1016V42.25ZM20.1308 42.2506C19.0098 42.2068 17.9464 41.7418 17.153 40.9484L16.0924 42.0091C17.1527 43.0694 18.5739 43.691 20.0723 43.7494L20.1308 42.2506ZM17.153 40.9484C16.3597 40.1551 15.8947 39.0918 15.851 37.9708L14.3521 38.0292C14.4106 39.5277 15.032 40.9488 16.0924 42.0091L17.153 40.9484ZM15.8516 38V14H14.3516V38H15.8516ZM15.1016 14.75H18.1016V13.25H15.1016V14.75ZM18.8516 14C18.8516 13.9931 18.8516 13.9863 18.8516 13.9794C18.8516 13.9726 18.8516 13.9657 18.8516 13.9589C18.8516 13.952 18.8516 13.9452 18.8516 13.9384C18.8516 13.9315 18.8516 13.9247 18.8516 13.9179C18.8516 13.9111 18.8516 13.9043 18.8516 13.8975C18.8516 13.8907 18.8516 13.8839 18.8516 13.8771C18.8516 13.8703 18.8516 13.8635 18.8516 13.8567C18.8516 13.8499 18.8516 13.8431 18.8516 13.8364C18.8516 13.8296 18.8516 13.8228 18.8516 13.8161C18.8516 13.8093 18.8516 13.8026 18.8516 13.7958C18.8516 13.7891 18.8516 13.7823 18.8516 13.7756C18.8516 13.7688 18.8516 13.7621 18.8516 13.7554C18.8516 13.7486 18.8516 13.7419 18.8516 13.7352C18.8516 13.7285 18.8516 13.7218 18.8516 13.7151C18.8516 13.7084 18.8516 13.7017 18.8516 13.695C18.8516 13.6883 18.8516 13.6816 18.8516 13.6749C18.8516 13.6682 18.8516 13.6616 18.8516 13.6549C18.8516 13.6482 18.8516 13.6416 18.8516 13.6349C18.8516 13.6282 18.8516 13.6216 18.8516 13.6149C18.8516 13.6083 18.8516 13.6016 18.8516 13.595C18.8516 13.5884 18.8516 13.5817 18.8516 13.5751C18.8516 13.5685 18.8516 13.5619 18.8516 13.5552C18.8516 13.5486 18.8516 13.542 18.8516 13.5354C18.8516 13.5288 18.8516 13.5222 18.8516 13.5156C18.8516 13.509 18.8516 13.5024 18.8516 13.4958C18.8516 13.4892 18.8516 13.4827 18.8516 13.4761C18.8516 13.4695 18.8516 13.463 18.8516 13.4564C18.8516 13.4498 18.8516 13.4433 18.8516 13.4367C18.8516 13.4302 18.8516 13.4236 18.8516 13.4171C18.8516 13.4105 18.8516 13.404 18.8516 13.3975C18.8516 13.3909 18.8516 13.3844 18.8516 13.3779C18.8516 13.3714 18.8516 13.3648 18.8516 13.3583C18.8516 13.3518 18.8516 13.3453 18.8516 13.3388C18.8516 13.3323 18.8516 13.3258 18.8516 13.3193C18.8516 13.3128 18.8516 13.3063 18.8516 13.2999C18.8516 13.2934 18.8516 13.2869 18.8516 13.2804C18.8516 13.274 18.8516 13.2675 18.8516 13.261C18.8516 13.2546 18.8516 13.2481 18.8516 13.2417C18.8516 13.2352 18.8516 13.2288 18.8516 13.2223C18.8516 13.2159 18.8516 13.2095 18.8516 13.203C18.8516 13.1966 18.8516 13.1902 18.8516 13.1838C18.8516 13.1773 18.8516 13.1709 18.8516 13.1645C18.8516 13.1581 18.8516 13.1517 18.8516 13.1453C18.8516 13.1389 18.8516 13.1325 18.8516 13.1261C18.8516 13.1197 18.8516 13.1133 18.8516 13.107C18.8516 13.1006 18.8516 13.0942 18.8516 13.0878C18.8516 13.0815 18.8516 13.0751 18.8516 13.0687C18.8516 13.0624 18.8516 13.056 18.8516 13.0497C18.8516 13.0433 18.8516 13.037 18.8516 13.0306C18.8516 13.0243 18.8516 13.0179 18.8516 13.0116C18.8516 13.0053 18.8516 12.9989 18.8516 12.9926C18.8516 12.9863 18.8516 12.98 18.8516 12.9737C18.8516 12.9673 18.8516 12.961 18.8516 12.9547C18.8516 12.9484 18.8516 12.9421 18.8516 12.9358C18.8516 12.9295 18.8516 12.9232 18.8516 12.917C18.8516 12.9107 18.8516 12.9044 18.8516 12.8981C18.8516 12.8918 18.8516 12.8856 18.8516 12.8793C18.8516 12.873 18.8516 12.8668 18.8516 12.8605C18.8516 12.8542 18.8516 12.848 18.8516 12.8417C18.8516 12.8355 18.8516 12.8292 18.8516 12.823C18.8516 12.8168 18.8516 12.8105 18.8516 12.8043C18.8516 12.7981 18.8516 12.7918 18.8516 12.7856C18.8516 12.7794 18.8516 12.7732 18.8516 12.767C18.8516 12.7607 18.8516 12.7545 18.8516 12.7483C18.8516 12.7421 18.8516 12.7359 18.8516 12.7297C18.8516 12.7235 18.8516 12.7173 18.8516 12.7112C18.8516 12.705 18.8516 12.6988 18.8516 12.6926C18.8516 12.6864 18.8516 12.6803 18.8516 12.6741C18.8516 12.6679 18.8516 12.6617 18.8516 12.6556C18.8516 12.6494 18.8516 12.6433 18.8516 12.6371C18.8516 12.631 18.8516 12.6248 18.8516 12.6187C18.8516 12.6125 18.8516 12.6064 18.8516 12.6002C18.8516 12.5941 18.8516 12.588 18.8516 12.5819C18.8516 12.5757 18.8516 12.5696 18.8516 12.5635C18.8516 12.5574 18.8516 12.5513 18.8516 12.5451C18.8516 12.539 18.8516 12.5329 18.8516 12.5268C18.8516 12.5207 18.8516 12.5146 18.8516 12.5085C18.8516 12.5024 18.8516 12.4963 18.8516 12.4903C18.8516 12.4842 18.8516 12.4781 18.8516 12.472C18.8516 12.4659 18.8516 12.4599 18.8516 12.4538C18.8516 12.4477 18.8516 12.4417 18.8516 12.4356C18.8516 12.4295 18.8516 12.4235 18.8516 12.4174C18.8516 12.4114 18.8516 12.4053 18.8516 12.3993C18.8516 12.3932 18.8516 12.3872 18.8516 12.3812C18.8516 12.3751 18.8516 12.3691 18.8516 12.3631C18.8516 12.357 18.8516 12.351 18.8516 12.345C18.8516 12.339 18.8516 12.3329 18.8516 12.3269C18.8516 12.3209 18.8516 12.3149 18.8516 12.3089C18.8516 12.3029 18.8516 12.2969 18.8516 12.2909C18.8516 12.2849 18.8516 12.2789 18.8516 12.2729C18.8516 12.2669 18.8516 12.2609 18.8516 12.2549C18.8516 12.249 18.8516 12.243 18.8516 12.237C18.8516 12.231 18.8516 12.2251 18.8516 12.2191C18.8516 12.2131 18.8516 12.2072 18.8516 12.2012C18.8516 12.1952 18.8516 12.1893 18.8516 12.1833C18.8516 12.1774 18.8516 12.1714 18.8516 12.1655C18.8516 12.1595 18.8516 12.1536 18.8516 12.1476C18.8516 12.1417 18.8516 12.1358 18.8516 12.1298C18.8516 12.1239 18.8516 12.118 18.8516 12.1121C18.8516 12.1061 18.8516 12.1002 18.8516 12.0943C18.8516 12.0884 18.8516 12.0825 18.8516 12.0766C18.8516 12.0707 18.8516 12.0647 18.8516 12.0588C18.8516 12.0529 18.8516 12.047 18.8516 12.0411C18.8516 12.0353 18.8516 12.0294 18.8516 12.0235C18.8516 12.0176 18.8516 12.0117 18.8516 12.0058C18.8516 11.9999 18.8516 11.9941 18.8516 11.9882C18.8516 11.9823 18.8516 11.9764 18.8516 11.9706C18.8516 11.9647 18.8516 11.9588 18.8516 11.953C18.8516 11.9471 18.8516 11.9413 18.8516 11.9354C18.8516 11.9296 18.8516 11.9237 18.8516 11.9179C18.8516 11.912 18.8516 11.9062 18.8516 11.9003C18.8516 11.8945 18.8516 11.8886 18.8516 11.8828C18.8516 11.877 18.8516 11.8711 18.8516 11.8653C18.8516 11.8595 18.8516 11.8537 18.8516 11.8478C18.8516 11.842 18.8516 11.8362 18.8516 11.8304C18.8516 11.8246 18.8516 11.8188 18.8516 11.813C18.8516 11.8072 18.8516 11.8013 18.8516 11.7955C18.8516 11.7897 18.8516 11.7839 18.8516 11.7782C18.8516 11.7724 18.8516 11.7666 18.8516 11.7608C18.8516 11.755 18.8516 11.7492 18.8516 11.7434C18.8516 11.7376 18.8516 11.7319 18.8516 11.7261C18.8516 11.7203 18.8516 11.7145 18.8516 11.7088C18.8516 11.703 18.8516 11.6972 18.8516 11.6915C18.8516 11.6857 18.8516 11.6799 18.8516 11.6742C18.8516 11.6684 18.8516 11.6627 18.8516 11.6569C18.8516 11.6512 18.8516 11.6454 18.8516 11.6397C18.8516 11.6339 18.8516 11.6282 18.8516 11.6224C18.8516 11.6167 18.8516 11.611 18.8516 11.6052C18.8516 11.5995 18.8516 11.5938 18.8516 11.588C18.8516 11.5823 18.8516 11.5766 18.8516 11.5709C18.8516 11.5651 18.8516 11.5594 18.8516 11.5537C18.8516 11.548 18.8516 11.5423 18.8516 11.5366C18.8516 11.5309 18.8516 11.5252 18.8516 11.5194C18.8516 11.5137 18.8516 11.508 18.8516 11.5023C18.8516 11.4966 18.8516 11.4909 18.8516 11.4853C18.8516 11.4796 18.8516 11.4739 18.8516 11.4682C18.8516 11.4625 18.8516 11.4568 18.8516 11.4511C18.8516 11.4454 18.8516 11.4398 18.8516 11.4341C18.8516 11.4284 18.8516 11.4227 18.8516 11.4171C18.8516 11.4114 18.8516 11.4057 18.8516 11.4001C18.8516 11.3944 18.8516 11.3887 18.8516 11.3831C18.8516 11.3774 18.8516 11.3717 18.8516 11.3661C18.8516 11.3604 18.8516 11.3548 18.8516 11.3491C18.8516 11.3435 18.8516 11.3378 18.8516 11.3322C18.8516 11.3265 18.8516 11.3209 18.8516 11.3153C18.8516 11.3096 18.8516 11.304 18.8516 11.2983C18.8516 11.2927 18.8516 11.2871 18.8516 11.2814C18.8516 11.2758 18.8516 11.2702 18.8516 11.2646C18.8516 11.2589 18.8516 11.2533 18.8516 11.2477C18.8516 11.2421 18.8516 11.2365 18.8516 11.2308C18.8516 11.2252 18.8516 11.2196 18.8516 11.214C18.8516 11.2084 18.8516 11.2028 18.8516 11.1972C18.8516 11.1916 18.8516 11.186 18.8516 11.1804C18.8516 11.1748 18.8516 11.1692 18.8516 11.1636C18.8516 11.158 18.8516 11.1524 18.8516 11.1468C18.8516 11.1412 18.8516 11.1356 18.8516 11.13C18.8516 11.1244 18.8516 11.1189 18.8516 11.1133C18.8516 11.1077 18.8516 11.1021 18.8516 11.0965C18.8516 11.091 18.8516 11.0854 18.8516 11.0798C18.8516 11.0742 18.8516 11.0687 18.8516 11.0631C18.8516 11.0575 18.8516 11.052 18.8516 11.0464C18.8516 11.0408 18.8516 11.0353 18.8516 11.0297C18.8516 11.0241 18.8516 11.0186 18.8516 11.013C18.8516 11.0075 18.8516 11.0019 18.8516 10.9964C18.8516 10.9908 18.8516 10.9853 18.8516 10.9797C18.8516 10.9742 18.8516 10.9686 18.8516 10.9631C18.8516 10.9575 18.8516 10.952 18.8516 10.9465C18.8516 10.9409 18.8516 10.9354 18.8516 10.9299C18.8516 10.9243 18.8516 10.9188 18.8516 10.9133C18.8516 10.9077 18.8516 10.9022 18.8516 10.8967C18.8516 10.8911 18.8516 10.8856 18.8516 10.8801C18.8516 10.8746 18.8516 10.8691 18.8516 10.8635C18.8516 10.858 18.8516 10.8525 18.8516 10.847C18.8516 10.8415 18.8516 10.836 18.8516 10.8304C18.8516 10.8249 18.8516 10.8194 18.8516 10.8139C18.8516 10.8084 18.8516 10.8029 18.8516 10.7974C18.8516 10.7919 18.8516 10.7864 18.8516 10.7809C18.8516 10.7754 18.8516 10.7699 18.8516 10.7644C18.8516 10.7589 18.8516 10.7534 18.8516 10.7479C18.8516 10.7424 18.8516 10.7369 18.8516 10.7314C18.8516 10.7259 18.8516 10.7205 18.8516 10.715C18.8516 10.7095 18.8516 10.704 18.8516 10.6985C18.8516 10.693 18.8516 10.6876 18.8516 10.6821C18.8516 10.6766 18.8516 10.6711 18.8516 10.6656C18.8516 10.6602 18.8516 10.6547 18.8516 10.6492C18.8516 10.6437 18.8516 10.6383 18.8516 10.6328C18.8516 10.6273 18.8516 10.6219 18.8516 10.6164C18.8516 10.6109 18.8516 10.6055 18.8516 10.6C18.8516 10.5945 18.8516 10.5891 18.8516 10.5836C18.8516 10.5782 18.8516 10.5727 18.8516 10.5672C18.8516 10.5618 18.8516 10.5563 18.8516 10.5509C18.8516 10.5454 18.8516 10.54 18.8516 10.5345C18.8516 10.5291 18.8516 10.5236 18.8516 10.5182C18.8516 10.5127 18.8516 10.5073 18.8516 10.5018C18.8516 10.4964 18.8516 10.4909 18.8516 10.4855C18.8516 10.4801 18.8516 10.4746 18.8516 10.4692C18.8516 10.4637 18.8516 10.4583 18.8516 10.4529C18.8516 10.4474 18.8516 10.442 18.8516 10.4366C18.8516 10.4311 18.8516 10.4257 18.8516 10.4203C18.8516 10.4148 18.8516 10.4094 18.8516 10.404C18.8516 10.3985 18.8516 10.3931 18.8516 10.3877C18.8516 10.3823 18.8516 10.3768 18.8516 10.3714C18.8516 10.366 18.8516 10.3606 18.8516 10.3551C18.8516 10.3497 18.8516 10.3443 18.8516 10.3389C18.8516 10.3335 18.8516 10.328 18.8516 10.3226C18.8516 10.3172 18.8516 10.3118 18.8516 10.3064C18.8516 10.301 18.8516 10.2956 18.8516 10.2901C18.8516 10.2847 18.8516 10.2793 18.8516 10.2739C18.8516 10.2685 18.8516 10.2631 18.8516 10.2577C18.8516 10.2523 18.8516 10.2469 18.8516 10.2415C18.8516 10.2361 18.8516 10.2307 18.8516 10.2253C18.8516 10.2199 18.8516 10.2144 18.8516 10.209C18.8516 10.2036 18.8516 10.1982 18.8516 10.1928C18.8516 10.1874 18.8516 10.182 18.8516 10.1767C18.8516 10.1713 18.8516 10.1659 18.8516 10.1605C18.8516 10.1551 18.8516 10.1497 18.8516 10.1443C18.8516 10.1389 18.8516 10.1335 18.8516 10.1281C18.8516 10.1227 18.8516 10.1173 18.8516 10.1119C18.8516 10.1065 18.8516 10.1011 18.8516 10.0958C18.8516 10.0904 18.8516 10.085 18.8516 10.0796C18.8516 10.0742 18.8516 10.0688 18.8516 10.0634C18.8516 10.0581 18.8516 10.0527 18.8516 10.0473C18.8516 10.0419 18.8516 10.0365 18.8516 10.0311C18.8516 10.0258 18.8516 10.0204 18.8516 10.015C18.8516 10.0096 18.8516 10.0042 18.8516 9.99886C18.8516 9.99348 18.8516 9.9881 18.8516 9.98273C18.8516 9.97735 18.8516 9.97197 18.8516 9.9666C18.8516 9.96122 18.8516 9.95584 18.8516 9.95047C18.8516 9.9451 18.8516 9.93972 18.8516 9.93435C18.8516 9.92897 18.8516 9.9236 18.8516 9.91823C18.8516 9.91286 18.8516 9.90748 18.8516 9.90211C18.8516 9.89674 18.8516 9.89137 18.8516 9.886C18.8516 9.88063 18.8516 9.87526 18.8516 9.86989C18.8516 9.86452 18.8516 9.85916 18.8516 9.85379C18.8516 9.84842 18.8516 9.84305 18.8516 9.83769C18.8516 9.83232 18.8516 9.82695 18.8516 9.82159C18.8516 9.81622 18.8516 9.81086 18.8516 9.80549C18.8516 9.80013 18.8516 9.79476 18.8516 9.7894C18.8516 9.78403 18.8516 9.77867 18.8516 9.77331C18.8516 9.76794 18.8516 9.76258 18.8516 9.75722C18.8516 9.75185 18.8516 9.74649 18.8516 9.74113C18.8516 9.73577 18.8516 9.73041 18.8516 9.72505C18.8516 9.71968 18.8516 9.71432 18.8516 9.70896C18.8516 9.7036 18.8516 9.69824 18.8516 9.69288C18.8516 9.68752 18.8516 9.68216 18.8516 9.6768C18.8516 9.67144 18.8516 9.66608 18.8516 9.66072C18.8516 9.65537 18.8516 9.65001 18.8516 9.64465C18.8516 9.63929 18.8516 9.63393 18.8516 9.62857C18.8516 9.62321 18.8516 9.61786 18.8516 9.6125C18.8516 9.60714 18.8516 9.60178 18.8516 9.59643C18.8516 9.59107 18.8516 9.58571 18.8516 9.58035C18.8516 9.575 18.8516 9.56964 18.8516 9.56428C18.8516 9.55893 18.8516 9.55357 18.8516 9.54821C18.8516 9.54285 18.8516 9.5375 18.8516 9.53214C18.8516 9.52678 18.8516 9.52143 18.8516 9.51607C18.8516 9.51071 18.8516 9.50536 18.8516 9.5C18.8516 9.49464 18.8516 9.48929 18.8516 9.48393C18.8516 9.47857 18.8516 9.47322 18.8516 9.46786C18.8516 9.4625 18.8516 9.45715 18.8516 9.45179C18.8516 9.44643 18.8516 9.44107 18.8516 9.43572C18.8516 9.43036 18.8516 9.425 18.8516 9.41965C18.8516 9.41429 18.8516 9.40893 18.8516 9.40357C18.8516 9.39822 18.8516 9.39286 18.8516 9.3875C18.8516 9.38214 18.8516 9.37679 18.8516 9.37143C18.8516 9.36607 18.8516 9.36071 18.8516 9.35535C18.8516 9.34999 18.8516 9.34463 18.8516 9.33928C18.8516 9.33392 18.8516 9.32856 18.8516 9.3232C18.8516 9.31784 18.8516 9.31248 18.8516 9.30712C18.8516 9.30176 18.8516 9.2964 18.8516 9.29104C18.8516 9.28568 18.8516 9.28032 18.8516 9.27495C18.8516 9.26959 18.8516 9.26423 18.8516 9.25887C18.8516 9.25351 18.8516 9.24815 18.8516 9.24278C18.8516 9.23742 18.8516 9.23206 18.8516 9.22669C18.8516 9.22133 18.8516 9.21597 18.8516 9.2106C18.8516 9.20524 18.8516 9.19987 18.8516 9.19451C18.8516 9.18914 18.8516 9.18378 18.8516 9.17841C18.8516 9.17305 18.8516 9.16768 18.8516 9.16231C18.8516 9.15695 18.8516 9.15158 18.8516 9.14621C18.8516 9.14084 18.8516 9.13548 18.8516 9.13011C18.8516 9.12474 18.8516 9.11937 18.8516 9.114C18.8516 9.10863 18.8516 9.10326 18.8516 9.09789C18.8516 9.09252 18.8516 9.08714 18.8516 9.08177C18.8516 9.0764 18.8516 9.07103 18.8516 9.06565C18.8516 9.06028 18.8516 9.0549 18.8516 9.04953C18.8516 9.04416 18.8516 9.03878 18.8516 9.0334C18.8516 9.02803 18.8516 9.02265 18.8516 9.01727C18.8516 9.0119 18.8516 9.00652 18.8516 9.00114C18.8516 8.99576 18.8516 8.99038 18.8516 8.985C18.8516 8.97962 18.8516 8.97424 18.8516 8.96886C18.8516 8.96348 18.8516 8.95809 18.8516 8.95271C18.8516 8.94733 18.8516 8.94194 18.8516 8.93656C18.8516 8.93117 18.8516 8.92579 18.8516 8.9204C18.8516 8.91501 18.8516 8.90963 18.8516 8.90424C18.8516 8.89885 18.8516 8.89346 18.8516 8.88807C18.8516 8.88268 18.8516 8.87729 18.8516 8.8719C18.8516 8.86651 18.8516 8.86111 18.8516 8.85572C18.8516 8.85033 18.8516 8.84493 18.8516 8.83954C18.8516 8.83414 18.8516 8.82875 18.8516 8.82335C18.8516 8.81795 18.8516 8.81255 18.8516 8.80715C18.8516 8.80175 18.8516 8.79635 18.8516 8.79095C18.8516 8.78555 18.8516 8.78015 18.8516 8.77475C18.8516 8.76934 18.8516 8.76394 18.8516 8.75853C18.8516 8.75313 18.8516 8.74772 18.8516 8.74231C18.8516 8.73691 18.8516 8.7315 18.8516 8.72609C18.8516 8.72068 18.8516 8.71527 18.8516 8.70986C18.8516 8.70444 18.8516 8.69903 18.8516 8.69362C18.8516 8.6882 18.8516 8.68279 18.8516 8.67737C18.8516 8.67195 18.8516 8.66654 18.8516 8.66112C18.8516 8.6557 18.8516 8.65028 18.8516 8.64486C18.8516 8.63943 18.8516 8.63401 18.8516 8.62859C18.8516 8.62316 18.8516 8.61774 18.8516 8.61231C18.8516 8.60689 18.8516 8.60146 18.8516 8.59603C18.8516 8.5906 18.8516 8.58517 18.8516 8.57974C18.8516 8.57431 18.8516 8.56888 18.8516 8.56344C18.8516 8.55801 18.8516 8.55257 18.8516 8.54713C18.8516 8.5417 18.8516 8.53626 18.8516 8.53082C18.8516 8.52538 18.8516 8.51994 18.8516 8.5145C18.8516 8.50906 18.8516 8.50361 18.8516 8.49817C18.8516 8.49272 18.8516 8.48727 18.8516 8.48183C18.8516 8.47638 18.8516 8.47093 18.8516 8.46548C18.8516 8.46003 18.8516 8.45457 18.8516 8.44912C18.8516 8.44367 18.8516 8.43821 18.8516 8.43275C18.8516 8.4273 18.8516 8.42184 18.8516 8.41638C18.8516 8.41092 18.8516 8.40546 18.8516 8.39999C18.8516 8.39453 18.8516 8.38907 18.8516 8.3836C18.8516 8.37813 18.8516 8.37267 18.8516 8.3672C18.8516 8.36173 18.8516 8.35626 18.8516 8.35078C18.8516 8.34531 18.8516 8.33984 18.8516 8.33436C18.8516 8.32888 18.8516 8.32341 18.8516 8.31793C18.8516 8.31245 18.8516 8.30697 18.8516 8.30148C18.8516 8.296 18.8516 8.29052 18.8516 8.28503C18.8516 8.27954 18.8516 8.27406 18.8516 8.26857C18.8516 8.26308 18.8516 8.25759 18.8516 8.25209C18.8516 8.2466 18.8516 8.24111 18.8516 8.23561C18.8516 8.23011 18.8516 8.22461 18.8516 8.21911C18.8516 8.21361 18.8516 8.20811 18.8516 8.20261C18.8516 8.1971 18.8516 8.1916 18.8516 8.18609C18.8516 8.18058 18.8516 8.17507 18.8516 8.16956C18.8516 8.16405 18.8516 8.15854 18.8516 8.15302C18.8516 8.1475 18.8516 8.14199 18.8516 8.13647C18.8516 8.13095 18.8516 8.12543 18.8516 8.11991C18.8516 8.11438 18.8516 8.10886 18.8516 8.10333C18.8516 8.0978 18.8516 8.09228 18.8516 8.08674C18.8516 8.08121 18.8516 8.07568 18.8516 8.07015C18.8516 8.06461 18.8516 8.05907 18.8516 8.05353C18.8516 8.048 18.8516 8.04245 18.8516 8.03691C18.8516 8.03137 18.8516 8.02582 18.8516 8.02028C18.8516 8.01473 18.8516 8.00918 18.8516 8.00363C18.8516 7.99808 18.8516 7.99252 18.8516 7.98697C18.8516 7.98141 18.8516 7.97585 18.8516 7.97029C18.8516 7.96473 18.8516 7.95917 18.8516 7.95361C18.8516 7.94804 18.8516 7.94248 18.8516 7.93691C18.8516 7.93134 18.8516 7.92577 18.8516 7.92019C18.8516 7.91462 18.8516 7.90905 18.8516 7.90347C18.8516 7.89789 18.8516 7.89231 18.8516 7.88673C18.8516 7.88115 18.8516 7.87556 18.8516 7.86997C18.8516 7.86439 18.8516 7.8588 18.8516 7.85321C18.8516 7.84762 18.8516 7.84202 18.8516 7.83643C18.8516 7.83083 18.8516 7.82523 18.8516 7.81963C18.8516 7.81403 18.8516 7.80843 18.8516 7.80282C18.8516 7.79721 18.8516 7.79161 18.8516 7.786C18.8516 7.78039 18.8516 7.77477 18.8516 7.76916C18.8516 7.76354 18.8516 7.75793 18.8516 7.75231C18.8516 7.74669 18.8516 7.74106 18.8516 7.73544C18.8516 7.72981 18.8516 7.72418 18.8516 7.71855C18.8516 7.71292 18.8516 7.70729 18.8516 7.70166C18.8516 7.69602 18.8516 7.69038 18.8516 7.68474C18.8516 7.6791 18.8516 7.67346 18.8516 7.66782C18.8516 7.66217 18.8516 7.65652 18.8516 7.65087C18.8516 7.64522 18.8516 7.63957 18.8516 7.63391C18.8516 7.62826 18.8516 7.6226 18.8516 7.61694C18.8516 7.61128 18.8516 7.60561 18.8516 7.59995C18.8516 7.59428 18.8516 7.58861 18.8516 7.58294C18.8516 7.57727 18.8516 7.57159 18.8516 7.56592C18.8516 7.56024 18.8516 7.55456 18.8516 7.54888C18.8516 7.54319 18.8516 7.53751 18.8516 7.53182C18.8516 7.52613 18.8516 7.52044 18.8516 7.51475C18.8516 7.50905 18.8516 7.50336 18.8516 7.49766C18.8516 7.49196 18.8516 7.48626 18.8516 7.48055C18.8516 7.47485 18.8516 7.46914 18.8516 7.46343C18.8516 7.45772 18.8516 7.45201 18.8516 7.44629C18.8516 7.44057 18.8516 7.43485 18.8516 7.42913C18.8516 7.42341 18.8516 7.41769 18.8516 7.41196C18.8516 7.40623 18.8516 7.4005 18.8516 7.39476C18.8516 7.38903 18.8516 7.38329 18.8516 7.37755C18.8516 7.37182 18.8516 7.36607 18.8516 7.36033C18.8516 7.35458 18.8516 7.34883 18.8516 7.34308C18.8516 7.33733 18.8516 7.33157 18.8516 7.32582C18.8516 7.32006 18.8516 7.3143 18.8516 7.30854C18.8516 7.30277 18.8516 7.297 18.8516 7.29123C18.8516 7.28546 18.8516 7.27969 18.8516 7.27392C18.8516 7.26814 18.8516 7.26236 18.8516 7.25658C18.8516 7.2508 18.8516 7.24501 18.8516 7.23922C18.8516 7.23343 18.8516 7.22764 18.8516 7.22185C18.8516 7.21605 18.8516 7.21025 18.8516 7.20445C18.8516 7.19865 18.8516 7.19285 18.8516 7.18704C18.8516 7.18123 18.8516 7.17542 18.8516 7.16961C18.8516 7.16379 18.8516 7.15797 18.8516 7.15215C18.8516 7.14633 18.8516 7.14051 18.8516 7.13468C18.8516 7.12885 18.8516 7.12302 18.8516 7.11719C18.8516 7.11136 18.8516 7.10552 18.8516 7.09968C18.8516 7.09384 18.8516 7.08799 18.8516 7.08215C18.8516 7.0763 18.8516 7.07045 18.8516 7.0646C18.8516 7.05874 18.8516 7.05288 18.8516 7.04702C18.8516 7.04116 18.8516 7.0353 18.8516 7.02943C18.8516 7.02356 18.8516 7.01769 18.8516 7.01182C18.8516 7.00594 18.8516 7.00007 18.8516 6.99418C18.8516 6.9883 18.8516 6.98242 18.8516 6.97653C18.8516 6.97064 18.8516 6.96475 18.8516 6.95885C18.8516 6.95296 18.8516 6.94706 18.8516 6.94116C18.8516 6.93526 18.8516 6.92935 18.8516 6.92344C18.8516 6.91753 18.8516 6.91162 18.8516 6.9057C18.8516 6.89978 18.8516 6.89386 18.8516 6.88794C18.8516 6.88202 18.8516 6.87609 18.8516 6.87016C18.8516 6.86423 18.8516 6.85829 18.8516 6.85235C18.8516 6.84641 18.8516 6.84047 18.8516 6.83453C18.8516 6.82858 18.8516 6.82263 18.8516 6.81668C18.8516 6.81073 18.8516 6.80477 18.8516 6.79881C18.8516 6.79285 18.8516 6.78688 18.8516 6.78091C18.8516 6.77495 18.8516 6.76897 18.8516 6.763C18.8516 6.75702 18.8516 6.75104 18.8516 6.74506C18.8516 6.73908 18.8516 6.73309 18.8516 6.7271C18.8516 6.72111 18.8516 6.71511 18.8516 6.70912C18.8516 6.70312 18.8516 6.69712 18.8516 6.69111C18.8516 6.6851 18.8516 6.67909 18.8516 6.67308C18.8516 6.66707 18.8516 6.66105 18.8516 6.65503C18.8516 6.649 18.8516 6.64298 18.8516 6.63695C18.8516 6.63092 18.8516 6.62489 18.8516 6.61885C18.8516 6.61281 18.8516 6.60677 18.8516 6.60072C18.8516 6.59468 18.8516 6.58863 18.8516 6.58258C18.8516 6.57652 18.8516 6.57047 18.8516 6.5644C18.8516 6.55834 18.8516 6.55228 18.8516 6.54621C18.8516 6.54014 18.8516 6.53407 18.8516 6.52799C18.8516 6.52191 18.8516 6.51583 18.8516 6.50974C18.8516 6.50366 18.8516 6.49757 18.8516 6.49147C18.8516 6.48538 18.8516 6.47928 18.8516 6.47318C18.8516 6.46708 18.8516 6.46097 18.8516 6.45486C18.8516 6.44875 18.8516 6.44263 18.8516 6.43652C18.8516 6.4304 18.8516 6.42427 18.8516 6.41815C18.8516 6.41202 18.8516 6.40589 18.8516 6.39975C18.8516 6.39362 18.8516 6.38748 18.8516 6.38133C18.8516 6.37519 18.8516 6.36904 18.8516 6.36289C18.8516 6.35673 18.8516 6.35058 18.8516 6.34441C18.8516 6.33825 18.8516 6.33209 18.8516 6.32592C18.8516 6.31975 18.8516 6.31357 18.8516 6.30739C18.8516 6.30122 18.8516 6.29503 18.8516 6.28885C18.8516 6.28266 18.8516 6.27647 18.8516 6.27027C18.8516 6.26407 18.8516 6.25787 18.8516 6.25167C18.8516 6.24546 18.8516 6.23925 18.8516 6.23304C18.8516 6.22683 18.8516 6.22061 18.8516 6.21439C18.8516 6.20816 18.8516 6.20194 18.8516 6.1957C18.8516 6.18947 18.8516 6.18324 18.8516 6.177C18.8516 6.17076 18.8516 6.16451 18.8516 6.15826C18.8516 6.15201 18.8516 6.14576 18.8516 6.1395C18.8516 6.13324 18.8516 6.12698 18.8516 6.12071C18.8516 6.11444 18.8516 6.10817 18.8516 6.10189C18.8516 6.09561 18.8516 6.08933 18.8516 6.08305C18.8516 6.07676 18.8516 6.07047 18.8516 6.06417C18.8516 6.05788 18.8516 6.05158 18.8516 6.04527C18.8516 6.03897 18.8516 6.03266 18.8516 6.02634C18.8516 6.02003 18.8516 6.01371 18.8516 6.00739C18.8516 6.00106 18.8516 5.99473 18.8516 5.9884C18.8516 5.98207 18.8516 5.97573 18.8516 5.96939C18.8516 5.96304 18.8516 5.9567 18.8516 5.95034C18.8516 5.94399 18.8516 5.93764 18.8516 5.93127C18.8516 5.92491 18.8516 5.91854 18.8516 5.91217C18.8516 5.9058 18.8516 5.89943 18.8516 5.89304C18.8516 5.88666 18.8516 5.88028 18.8516 5.87389C18.8516 5.8675 18.8516 5.8611 18.8516 5.8547C18.8516 5.8483 18.8516 5.84189 18.8516 5.83548C18.8516 5.82907 18.8516 5.82266 18.8516 5.81624C18.8516 5.80982 18.8516 5.80339 18.8516 5.79696C18.8516 5.79053 18.8516 5.7841 18.8516 5.77765C18.8516 5.77121 18.8516 5.76477 18.8516 5.75832C18.8516 5.75187 18.8516 5.74541 18.8516 5.73895C18.8516 5.73249 18.8516 5.72603 18.8516 5.71956C18.8516 5.71309 18.8516 5.70661 18.8516 5.70013C18.8516 5.69365 18.8516 5.68716 18.8516 5.68067C18.8516 5.67418 18.8516 5.66769 18.8516 5.66119C18.8516 5.65469 18.8516 5.64818 18.8516 5.64167C18.8516 5.63516 18.8516 5.62864 18.8516 5.62212C18.8516 5.6156 18.8516 5.60907 18.8516 5.60254C18.8516 5.59601 18.8516 5.58947 18.8516 5.58293C18.8516 5.57638 18.8516 5.56984 18.8516 5.56328C18.8516 5.55673 18.8516 5.55017 18.8516 5.54361C18.8516 5.53705 18.8516 5.53048 18.8516 5.5239C18.8516 5.51733 18.8516 5.51075 18.8516 5.50417C18.8516 5.49758 18.8516 5.49099 18.8516 5.4844C18.8516 5.4778 18.8516 5.4712 18.8516 5.4646C18.8516 5.45799 18.8516 5.45138 18.8516 5.44476C18.8516 5.43814 18.8516 5.43152 18.8516 5.4249C18.8516 5.41827 18.8516 5.41163 18.8516 5.405C18.8516 5.39836 18.8516 5.39171 18.8516 5.38507C18.8516 5.37842 18.8516 5.37176 18.8516 5.3651C18.8516 5.35844 18.8516 5.35178 18.8516 5.3451C18.8516 5.33843 18.8516 5.33176 18.8516 5.32508C18.8516 5.31839 18.8516 5.31171 18.8516 5.30501C18.8516 5.29832 18.8516 5.29162 18.8516 5.28492C18.8516 5.27821 18.8516 5.2715 18.8516 5.26479C18.8516 5.25807 18.8516 5.25135 18.8516 5.24462C18.8516 5.2379 18.8516 5.23116 18.8516 5.22443C18.8516 5.21769 18.8516 5.21095 18.8516 5.2042C18.8516 5.19745 18.8516 5.19069 18.8516 5.18393C18.8516 5.17717 18.8516 5.17041 18.8516 5.16363C18.8516 5.15686 18.8516 5.15008 18.8516 5.1433C18.8516 5.13652 18.8516 5.12973 18.8516 5.12293C18.8516 5.11614 18.8516 5.10934 18.8516 5.10253C18.8516 5.09573 18.8516 5.08891 18.8516 5.08209C18.8516 5.07528 18.8516 5.06845 18.8516 5.06162C18.8516 5.05479 18.8516 5.04796 18.8516 5.04112C18.8516 5.03428 18.8516 5.02743 18.8516 5.02058C18.8516 5.01372 18.8516 5.00686 18.8516 5H17.3516C17.3516 5.00686 17.3516 5.01372 17.3516 5.02058C17.3516 5.02743 17.3516 5.03428 17.3516 5.04112C17.3516 5.04796 17.3516 5.05479 17.3516 5.06162C17.3516 5.06845 17.3516 5.07528 17.3516 5.08209C17.3516 5.08891 17.3516 5.09573 17.3516 5.10253C17.3516 5.10934 17.3516 5.11614 17.3516 5.12293C17.3516 5.12973 17.3516 5.13652 17.3516 5.1433C17.3516 5.15008 17.3516 5.15686 17.3516 5.16363C17.3516 5.17041 17.3516 5.17717 17.3516 5.18393C17.3516 5.19069 17.3516 5.19745 17.3516 5.2042C17.3516 5.21095 17.3516 5.21769 17.3516 5.22443C17.3516 5.23116 17.3516 5.2379 17.3516 5.24462C17.3516 5.25135 17.3516 5.25807 17.3516 5.26479C17.3516 5.2715 17.3516 5.27821 17.3516 5.28492C17.3516 5.29162 17.3516 5.29832 17.3516 5.30501C17.3516 5.31171 17.3516 5.31839 17.3516 5.32508C17.3516 5.33176 17.3516 5.33843 17.3516 5.3451C17.3516 5.35178 17.3516 5.35844 17.3516 5.3651C17.3516 5.37176 17.3516 5.37842 17.3516 5.38507C17.3516 5.39171 17.3516 5.39836 17.3516 5.405C17.3516 5.41163 17.3516 5.41827 17.3516 5.4249C17.3516 5.43152 17.3516 5.43814 17.3516 5.44476C17.3516 5.45138 17.3516 5.45799 17.3516 5.4646C17.3516 5.4712 17.3516 5.4778 17.3516 5.4844C17.3516 5.49099 17.3516 5.49758 17.3516 5.50417C17.3516 5.51075 17.3516 5.51733 17.3516 5.5239C17.3516 5.53048 17.3516 5.53705 17.3516 5.54361C17.3516 5.55017 17.3516 5.55673 17.3516 5.56328C17.3516 5.56984 17.3516 5.57638 17.3516 5.58293C17.3516 5.58947 17.3516 5.59601 17.3516 5.60254C17.3516 5.60907 17.3516 5.6156 17.3516 5.62212C17.3516 5.62864 17.3516 5.63516 17.3516 5.64167C17.3516 5.64818 17.3516 5.65469 17.3516 5.66119C17.3516 5.66769 17.3516 5.67418 17.3516 5.68067C17.3516 5.68716 17.3516 5.69365 17.3516 5.70013C17.3516 5.70661 17.3516 5.71309 17.3516 5.71956C17.3516 5.72603 17.3516 5.73249 17.3516 5.73895C17.3516 5.74541 17.3516 5.75187 17.3516 5.75832C17.3516 5.76477 17.3516 5.77121 17.3516 5.77765C17.3516 5.7841 17.3516 5.79053 17.3516 5.79696C17.3516 5.80339 17.3516 5.80982 17.3516 5.81624C17.3516 5.82266 17.3516 5.82907 17.3516 5.83548C17.3516 5.84189 17.3516 5.8483 17.3516 5.8547C17.3516 5.8611 17.3516 5.8675 17.3516 5.87389C17.3516 5.88028 17.3516 5.88666 17.3516 5.89304C17.3516 5.89943 17.3516 5.9058 17.3516 5.91217C17.3516 5.91854 17.3516 5.92491 17.3516 5.93127C17.3516 5.93764 17.3516 5.94399 17.3516 5.95034C17.3516 5.9567 17.3516 5.96304 17.3516 5.96939C17.3516 5.97573 17.3516 5.98207 17.3516 5.9884C17.3516 5.99473 17.3516 6.00106 17.3516 6.00739C17.3516 6.01371 17.3516 6.02003 17.3516 6.02634C17.3516 6.03266 17.3516 6.03897 17.3516 6.04527C17.3516 6.05158 17.3516 6.05788 17.3516 6.06417C17.3516 6.07047 17.3516 6.07676 17.3516 6.08305C17.3516 6.08933 17.3516 6.09561 17.3516 6.10189C17.3516 6.10817 17.3516 6.11444 17.3516 6.12071C17.3516 6.12698 17.3516 6.13324 17.3516 6.1395C17.3516 6.14576 17.3516 6.15201 17.3516 6.15826C17.3516 6.16451 17.3516 6.17076 17.3516 6.177C17.3516 6.18324 17.3516 6.18947 17.3516 6.1957C17.3516 6.20194 17.3516 6.20816 17.3516 6.21439C17.3516 6.22061 17.3516 6.22683 17.3516 6.23304C17.3516 6.23925 17.3516 6.24546 17.3516 6.25167C17.3516 6.25787 17.3516 6.26407 17.3516 6.27027C17.3516 6.27647 17.3516 6.28266 17.3516 6.28885C17.3516 6.29503 17.3516 6.30122 17.3516 6.30739C17.3516 6.31357 17.3516 6.31975 17.3516 6.32592C17.3516 6.33209 17.3516 6.33825 17.3516 6.34441C17.3516 6.35058 17.3516 6.35673 17.3516 6.36289C17.3516 6.36904 17.3516 6.37519 17.3516 6.38133C17.3516 6.38748 17.3516 6.39362 17.3516 6.39975C17.3516 6.40589 17.3516 6.41202 17.3516 6.41815C17.3516 6.42427 17.3516 6.4304 17.3516 6.43652C17.3516 6.44263 17.3516 6.44875 17.3516 6.45486C17.3516 6.46097 17.3516 6.46708 17.3516 6.47318C17.3516 6.47928 17.3516 6.48538 17.3516 6.49147C17.3516 6.49757 17.3516 6.50366 17.3516 6.50974C17.3516 6.51583 17.3516 6.52191 17.3516 6.52799C17.3516 6.53407 17.3516 6.54014 17.3516 6.54621C17.3516 6.55228 17.3516 6.55834 17.3516 6.5644C17.3516 6.57047 17.3516 6.57652 17.3516 6.58258C17.3516 6.58863 17.3516 6.59468 17.3516 6.60072C17.3516 6.60677 17.3516 6.61281 17.3516 6.61885C17.3516 6.62489 17.3516 6.63092 17.3516 6.63695C17.3516 6.64298 17.3516 6.649 17.3516 6.65503C17.3516 6.66105 17.3516 6.66707 17.3516 6.67308C17.3516 6.67909 17.3516 6.6851 17.3516 6.69111C17.3516 6.69712 17.3516 6.70312 17.3516 6.70912C17.3516 6.71511 17.3516 6.72111 17.3516 6.7271C17.3516 6.73309 17.3516 6.73908 17.3516 6.74506C17.3516 6.75104 17.3516 6.75702 17.3516 6.763C17.3516 6.76897 17.3516 6.77495 17.3516 6.78091C17.3516 6.78688 17.3516 6.79285 17.3516 6.79881C17.3516 6.80477 17.3516 6.81073 17.3516 6.81668C17.3516 6.82263 17.3516 6.82858 17.3516 6.83453C17.3516 6.84047 17.3516 6.84641 17.3516 6.85235C17.3516 6.85829 17.3516 6.86423 17.3516 6.87016C17.3516 6.87609 17.3516 6.88202 17.3516 6.88794C17.3516 6.89386 17.3516 6.89978 17.3516 6.9057C17.3516 6.91162 17.3516 6.91753 17.3516 6.92344C17.3516 6.92935 17.3516 6.93526 17.3516 6.94116C17.3516 6.94706 17.3516 6.95296 17.3516 6.95885C17.3516 6.96475 17.3516 6.97064 17.3516 6.97653C17.3516 6.98242 17.3516 6.9883 17.3516 6.99418C17.3516 7.00007 17.3516 7.00594 17.3516 7.01182C17.3516 7.01769 17.3516 7.02356 17.3516 7.02943C17.3516 7.0353 17.3516 7.04116 17.3516 7.04702C17.3516 7.05288 17.3516 7.05874 17.3516 7.0646C17.3516 7.07045 17.3516 7.0763 17.3516 7.08215C17.3516 7.08799 17.3516 7.09384 17.3516 7.09968C17.3516 7.10552 17.3516 7.11136 17.3516 7.11719C17.3516 7.12302 17.3516 7.12885 17.3516 7.13468C17.3516 7.14051 17.3516 7.14633 17.3516 7.15215C17.3516 7.15797 17.3516 7.16379 17.3516 7.16961C17.3516 7.17542 17.3516 7.18123 17.3516 7.18704C17.3516 7.19285 17.3516 7.19865 17.3516 7.20445C17.3516 7.21025 17.3516 7.21605 17.3516 7.22185C17.3516 7.22764 17.3516 7.23343 17.3516 7.23922C17.3516 7.24501 17.3516 7.2508 17.3516 7.25658C17.3516 7.26236 17.3516 7.26814 17.3516 7.27392C17.3516 7.27969 17.3516 7.28546 17.3516 7.29123C17.3516 7.297 17.3516 7.30277 17.3516 7.30854C17.3516 7.3143 17.3516 7.32006 17.3516 7.32582C17.3516 7.33157 17.3516 7.33733 17.3516 7.34308C17.3516 7.34883 17.3516 7.35458 17.3516 7.36033C17.3516 7.36607 17.3516 7.37182 17.3516 7.37755C17.3516 7.38329 17.3516 7.38903 17.3516 7.39476C17.3516 7.4005 17.3516 7.40623 17.3516 7.41196C17.3516 7.41769 17.3516 7.42341 17.3516 7.42913C17.3516 7.43485 17.3516 7.44057 17.3516 7.44629C17.3516 7.45201 17.3516 7.45772 17.3516 7.46343C17.3516 7.46914 17.3516 7.47485 17.3516 7.48055C17.3516 7.48626 17.3516 7.49196 17.3516 7.49766C17.3516 7.50336 17.3516 7.50905 17.3516 7.51475C17.3516 7.52044 17.3516 7.52613 17.3516 7.53182C17.3516 7.53751 17.3516 7.54319 17.3516 7.54888C17.3516 7.55456 17.3516 7.56024 17.3516 7.56592C17.3516 7.57159 17.3516 7.57727 17.3516 7.58294C17.3516 7.58861 17.3516 7.59428 17.3516 7.59995C17.3516 7.60561 17.3516 7.61128 17.3516 7.61694C17.3516 7.6226 17.3516 7.62826 17.3516 7.63391C17.3516 7.63957 17.3516 7.64522 17.3516 7.65087C17.3516 7.65652 17.3516 7.66217 17.3516 7.66782C17.3516 7.67346 17.3516 7.6791 17.3516 7.68474C17.3516 7.69038 17.3516 7.69602 17.3516 7.70166C17.3516 7.70729 17.3516 7.71292 17.3516 7.71855C17.3516 7.72418 17.3516 7.72981 17.3516 7.73544C17.3516 7.74106 17.3516 7.74669 17.3516 7.75231C17.3516 7.75793 17.3516 7.76354 17.3516 7.76916C17.3516 7.77477 17.3516 7.78039 17.3516 7.786C17.3516 7.79161 17.3516 7.79721 17.3516 7.80282C17.3516 7.80843 17.3516 7.81403 17.3516 7.81963C17.3516 7.82523 17.3516 7.83083 17.3516 7.83643C17.3516 7.84202 17.3516 7.84762 17.3516 7.85321C17.3516 7.8588 17.3516 7.86439 17.3516 7.86997C17.3516 7.87556 17.3516 7.88115 17.3516 7.88673C17.3516 7.89231 17.3516 7.89789 17.3516 7.90347C17.3516 7.90905 17.3516 7.91462 17.3516 7.92019C17.3516 7.92577 17.3516 7.93134 17.3516 7.93691C17.3516 7.94248 17.3516 7.94804 17.3516 7.95361C17.3516 7.95917 17.3516 7.96473 17.3516 7.97029C17.3516 7.97585 17.3516 7.98141 17.3516 7.98697C17.3516 7.99252 17.3516 7.99808 17.3516 8.00363C17.3516 8.00918 17.3516 8.01473 17.3516 8.02028C17.3516 8.02582 17.3516 8.03137 17.3516 8.03691C17.3516 8.04245 17.3516 8.048 17.3516 8.05353C17.3516 8.05907 17.3516 8.06461 17.3516 8.07015C17.3516 8.07568 17.3516 8.08121 17.3516 8.08674C17.3516 8.09228 17.3516 8.0978 17.3516 8.10333C17.3516 8.10886 17.3516 8.11438 17.3516 8.11991C17.3516 8.12543 17.3516 8.13095 17.3516 8.13647C17.3516 8.14199 17.3516 8.1475 17.3516 8.15302C17.3516 8.15854 17.3516 8.16405 17.3516 8.16956C17.3516 8.17507 17.3516 8.18058 17.3516 8.18609C17.3516 8.1916 17.3516 8.1971 17.3516 8.20261C17.3516 8.20811 17.3516 8.21361 17.3516 8.21911C17.3516 8.22461 17.3516 8.23011 17.3516 8.23561C17.3516 8.24111 17.3516 8.2466 17.3516 8.25209C17.3516 8.25759 17.3516 8.26308 17.3516 8.26857C17.3516 8.27406 17.3516 8.27954 17.3516 8.28503C17.3516 8.29052 17.3516 8.296 17.3516 8.30148C17.3516 8.30697 17.3516 8.31245 17.3516 8.31793C17.3516 8.32341 17.3516 8.32888 17.3516 8.33436C17.3516 8.33984 17.3516 8.34531 17.3516 8.35078C17.3516 8.35626 17.3516 8.36173 17.3516 8.3672C17.3516 8.37267 17.3516 8.37813 17.3516 8.3836C17.3516 8.38907 17.3516 8.39453 17.3516 8.39999C17.3516 8.40546 17.3516 8.41092 17.3516 8.41638C17.3516 8.42184 17.3516 8.4273 17.3516 8.43275C17.3516 8.43821 17.3516 8.44367 17.3516 8.44912C17.3516 8.45457 17.3516 8.46003 17.3516 8.46548C17.3516 8.47093 17.3516 8.47638 17.3516 8.48183C17.3516 8.48727 17.3516 8.49272 17.3516 8.49817C17.3516 8.50361 17.3516 8.50906 17.3516 8.5145C17.3516 8.51994 17.3516 8.52538 17.3516 8.53082C17.3516 8.53626 17.3516 8.5417 17.3516 8.54713C17.3516 8.55257 17.3516 8.55801 17.3516 8.56344C17.3516 8.56888 17.3516 8.57431 17.3516 8.57974C17.3516 8.58517 17.3516 8.5906 17.3516 8.59603C17.3516 8.60146 17.3516 8.60689 17.3516 8.61231C17.3516 8.61774 17.3516 8.62316 17.3516 8.62859C17.3516 8.63401 17.3516 8.63943 17.3516 8.64486C17.3516 8.65028 17.3516 8.6557 17.3516 8.66112C17.3516 8.66654 17.3516 8.67195 17.3516 8.67737C17.3516 8.68279 17.3516 8.6882 17.3516 8.69362C17.3516 8.69903 17.3516 8.70444 17.3516 8.70986C17.3516 8.71527 17.3516 8.72068 17.3516 8.72609C17.3516 8.7315 17.3516 8.73691 17.3516 8.74231C17.3516 8.74772 17.3516 8.75313 17.3516 8.75853C17.3516 8.76394 17.3516 8.76934 17.3516 8.77475C17.3516 8.78015 17.3516 8.78555 17.3516 8.79095C17.3516 8.79635 17.3516 8.80175 17.3516 8.80715C17.3516 8.81255 17.3516 8.81795 17.3516 8.82335C17.3516 8.82875 17.3516 8.83414 17.3516 8.83954C17.3516 8.84493 17.3516 8.85033 17.3516 8.85572C17.3516 8.86111 17.3516 8.86651 17.3516 8.8719C17.3516 8.87729 17.3516 8.88268 17.3516 8.88807C17.3516 8.89346 17.3516 8.89885 17.3516 8.90424C17.3516 8.90963 17.3516 8.91501 17.3516 8.9204C17.3516 8.92579 17.3516 8.93117 17.3516 8.93656C17.3516 8.94194 17.3516 8.94733 17.3516 8.95271C17.3516 8.95809 17.3516 8.96348 17.3516 8.96886C17.3516 8.97424 17.3516 8.97962 17.3516 8.985C17.3516 8.99038 17.3516 8.99576 17.3516 9.00114C17.3516 9.00652 17.3516 9.0119 17.3516 9.01727C17.3516 9.02265 17.3516 9.02803 17.3516 9.0334C17.3516 9.03878 17.3516 9.04416 17.3516 9.04953C17.3516 9.0549 17.3516 9.06028 17.3516 9.06565C17.3516 9.07103 17.3516 9.0764 17.3516 9.08177C17.3516 9.08714 17.3516 9.09252 17.3516 9.09789C17.3516 9.10326 17.3516 9.10863 17.3516 9.114C17.3516 9.11937 17.3516 9.12474 17.3516 9.13011C17.3516 9.13548 17.3516 9.14084 17.3516 9.14621C17.3516 9.15158 17.3516 9.15695 17.3516 9.16231C17.3516 9.16768 17.3516 9.17305 17.3516 9.17841C17.3516 9.18378 17.3516 9.18914 17.3516 9.19451C17.3516 9.19987 17.3516 9.20524 17.3516 9.2106C17.3516 9.21597 17.3516 9.22133 17.3516 9.22669C17.3516 9.23206 17.3516 9.23742 17.3516 9.24278C17.3516 9.24815 17.3516 9.25351 17.3516 9.25887C17.3516 9.26423 17.3516 9.26959 17.3516 9.27495C17.3516 9.28032 17.3516 9.28568 17.3516 9.29104C17.3516 9.2964 17.3516 9.30176 17.3516 9.30712C17.3516 9.31248 17.3516 9.31784 17.3516 9.3232C17.3516 9.32856 17.3516 9.33392 17.3516 9.33928C17.3516 9.34463 17.3516 9.34999 17.3516 9.35535C17.3516 9.36071 17.3516 9.36607 17.3516 9.37143C17.3516 9.37679 17.3516 9.38214 17.3516 9.3875C17.3516 9.39286 17.3516 9.39822 17.3516 9.40357C17.3516 9.40893 17.3516 9.41429 17.3516 9.41965C17.3516 9.425 17.3516 9.43036 17.3516 9.43572C17.3516 9.44107 17.3516 9.44643 17.3516 9.45179C17.3516 9.45715 17.3516 9.4625 17.3516 9.46786C17.3516 9.47322 17.3516 9.47857 17.3516 9.48393C17.3516 9.48929 17.3516 9.49464 17.3516 9.5C17.3516 9.50536 17.3516 9.51071 17.3516 9.51607C17.3516 9.52143 17.3516 9.52678 17.3516 9.53214C17.3516 9.5375 17.3516 9.54285 17.3516 9.54821C17.3516 9.55357 17.3516 9.55893 17.3516 9.56428C17.3516 9.56964 17.3516 9.575 17.3516 9.58035C17.3516 9.58571 17.3516 9.59107 17.3516 9.59643C17.3516 9.60178 17.3516 9.60714 17.3516 9.6125C17.3516 9.61786 17.3516 9.62321 17.3516 9.62857C17.3516 9.63393 17.3516 9.63929 17.3516 9.64465C17.3516 9.65001 17.3516 9.65537 17.3516 9.66072C17.3516 9.66608 17.3516 9.67144 17.3516 9.6768C17.3516 9.68216 17.3516 9.68752 17.3516 9.69288C17.3516 9.69824 17.3516 9.7036 17.3516 9.70896C17.3516 9.71432 17.3516 9.71968 17.3516 9.72505C17.3516 9.73041 17.3516 9.73577 17.3516 9.74113C17.3516 9.74649 17.3516 9.75185 17.3516 9.75722C17.3516 9.76258 17.3516 9.76794 17.3516 9.77331C17.3516 9.77867 17.3516 9.78403 17.3516 9.7894C17.3516 9.79476 17.3516 9.80013 17.3516 9.80549C17.3516 9.81086 17.3516 9.81622 17.3516 9.82159C17.3516 9.82695 17.3516 9.83232 17.3516 9.83769C17.3516 9.84305 17.3516 9.84842 17.3516 9.85379C17.3516 9.85916 17.3516 9.86452 17.3516 9.86989C17.3516 9.87526 17.3516 9.88063 17.3516 9.886C17.3516 9.89137 17.3516 9.89674 17.3516 9.90211C17.3516 9.90748 17.3516 9.91286 17.3516 9.91823C17.3516 9.9236 17.3516 9.92897 17.3516 9.93435C17.3516 9.93972 17.3516 9.9451 17.3516 9.95047C17.3516 9.95584 17.3516 9.96122 17.3516 9.9666C17.3516 9.97197 17.3516 9.97735 17.3516 9.98273C17.3516 9.9881 17.3516 9.99348 17.3516 9.99886C17.3516 10.0042 17.3516 10.0096 17.3516 10.015C17.3516 10.0204 17.3516 10.0258 17.3516 10.0311C17.3516 10.0365 17.3516 10.0419 17.3516 10.0473C17.3516 10.0527 17.3516 10.0581 17.3516 10.0634C17.3516 10.0688 17.3516 10.0742 17.3516 10.0796C17.3516 10.085 17.3516 10.0904 17.3516 10.0958C17.3516 10.1011 17.3516 10.1065 17.3516 10.1119C17.3516 10.1173 17.3516 10.1227 17.3516 10.1281C17.3516 10.1335 17.3516 10.1389 17.3516 10.1443C17.3516 10.1497 17.3516 10.1551 17.3516 10.1605C17.3516 10.1659 17.3516 10.1713 17.3516 10.1767C17.3516 10.182 17.3516 10.1874 17.3516 10.1928C17.3516 10.1982 17.3516 10.2036 17.3516 10.209C17.3516 10.2144 17.3516 10.2199 17.3516 10.2253C17.3516 10.2307 17.3516 10.2361 17.3516 10.2415C17.3516 10.2469 17.3516 10.2523 17.3516 10.2577C17.3516 10.2631 17.3516 10.2685 17.3516 10.2739C17.3516 10.2793 17.3516 10.2847 17.3516 10.2901C17.3516 10.2956 17.3516 10.301 17.3516 10.3064C17.3516 10.3118 17.3516 10.3172 17.3516 10.3226C17.3516 10.328 17.3516 10.3335 17.3516 10.3389C17.3516 10.3443 17.3516 10.3497 17.3516 10.3551C17.3516 10.3606 17.3516 10.366 17.3516 10.3714C17.3516 10.3768 17.3516 10.3823 17.3516 10.3877C17.3516 10.3931 17.3516 10.3985 17.3516 10.404C17.3516 10.4094 17.3516 10.4148 17.3516 10.4203C17.3516 10.4257 17.3516 10.4311 17.3516 10.4366C17.3516 10.442 17.3516 10.4474 17.3516 10.4529C17.3516 10.4583 17.3516 10.4637 17.3516 10.4692C17.3516 10.4746 17.3516 10.4801 17.3516 10.4855C17.3516 10.4909 17.3516 10.4964 17.3516 10.5018C17.3516 10.5073 17.3516 10.5127 17.3516 10.5182C17.3516 10.5236 17.3516 10.5291 17.3516 10.5345C17.3516 10.54 17.3516 10.5454 17.3516 10.5509C17.3516 10.5563 17.3516 10.5618 17.3516 10.5672C17.3516 10.5727 17.3516 10.5782 17.3516 10.5836C17.3516 10.5891 17.3516 10.5945 17.3516 10.6C17.3516 10.6055 17.3516 10.6109 17.3516 10.6164C17.3516 10.6219 17.3516 10.6273 17.3516 10.6328C17.3516 10.6383 17.3516 10.6437 17.3516 10.6492C17.3516 10.6547 17.3516 10.6602 17.3516 10.6656C17.3516 10.6711 17.3516 10.6766 17.3516 10.6821C17.3516 10.6876 17.3516 10.693 17.3516 10.6985C17.3516 10.704 17.3516 10.7095 17.3516 10.715C17.3516 10.7205 17.3516 10.7259 17.3516 10.7314C17.3516 10.7369 17.3516 10.7424 17.3516 10.7479C17.3516 10.7534 17.3516 10.7589 17.3516 10.7644C17.3516 10.7699 17.3516 10.7754 17.3516 10.7809C17.3516 10.7864 17.3516 10.7919 17.3516 10.7974C17.3516 10.8029 17.3516 10.8084 17.3516 10.8139C17.3516 10.8194 17.3516 10.8249 17.3516 10.8304C17.3516 10.836 17.3516 10.8415 17.3516 10.847C17.3516 10.8525 17.3516 10.858 17.3516 10.8635C17.3516 10.8691 17.3516 10.8746 17.3516 10.8801C17.3516 10.8856 17.3516 10.8911 17.3516 10.8967C17.3516 10.9022 17.3516 10.9077 17.3516 10.9133C17.3516 10.9188 17.3516 10.9243 17.3516 10.9299C17.3516 10.9354 17.3516 10.9409 17.3516 10.9465C17.3516 10.952 17.3516 10.9575 17.3516 10.9631C17.3516 10.9686 17.3516 10.9742 17.3516 10.9797C17.3516 10.9853 17.3516 10.9908 17.3516 10.9964C17.3516 11.0019 17.3516 11.0075 17.3516 11.013C17.3516 11.0186 17.3516 11.0241 17.3516 11.0297C17.3516 11.0353 17.3516 11.0408 17.3516 11.0464C17.3516 11.052 17.3516 11.0575 17.3516 11.0631C17.3516 11.0687 17.3516 11.0742 17.3516 11.0798C17.3516 11.0854 17.3516 11.091 17.3516 11.0965C17.3516 11.1021 17.3516 11.1077 17.3516 11.1133C17.3516 11.1189 17.3516 11.1244 17.3516 11.13C17.3516 11.1356 17.3516 11.1412 17.3516 11.1468C17.3516 11.1524 17.3516 11.158 17.3516 11.1636C17.3516 11.1692 17.3516 11.1748 17.3516 11.1804C17.3516 11.186 17.3516 11.1916 17.3516 11.1972C17.3516 11.2028 17.3516 11.2084 17.3516 11.214C17.3516 11.2196 17.3516 11.2252 17.3516 11.2308C17.3516 11.2365 17.3516 11.2421 17.3516 11.2477C17.3516 11.2533 17.3516 11.2589 17.3516 11.2646C17.3516 11.2702 17.3516 11.2758 17.3516 11.2814C17.3516 11.2871 17.3516 11.2927 17.3516 11.2983C17.3516 11.304 17.3516 11.3096 17.3516 11.3153C17.3516 11.3209 17.3516 11.3265 17.3516 11.3322C17.3516 11.3378 17.3516 11.3435 17.3516 11.3491C17.3516 11.3548 17.3516 11.3604 17.3516 11.3661C17.3516 11.3717 17.3516 11.3774 17.3516 11.3831C17.3516 11.3887 17.3516 11.3944 17.3516 11.4001C17.3516 11.4057 17.3516 11.4114 17.3516 11.4171C17.3516 11.4227 17.3516 11.4284 17.3516 11.4341C17.3516 11.4398 17.3516 11.4454 17.3516 11.4511C17.3516 11.4568 17.3516 11.4625 17.3516 11.4682C17.3516 11.4739 17.3516 11.4796 17.3516 11.4853C17.3516 11.4909 17.3516 11.4966 17.3516 11.5023C17.3516 11.508 17.3516 11.5137 17.3516 11.5194C17.3516 11.5252 17.3516 11.5309 17.3516 11.5366C17.3516 11.5423 17.3516 11.548 17.3516 11.5537C17.3516 11.5594 17.3516 11.5651 17.3516 11.5709C17.3516 11.5766 17.3516 11.5823 17.3516 11.588C17.3516 11.5938 17.3516 11.5995 17.3516 11.6052C17.3516 11.611 17.3516 11.6167 17.3516 11.6224C17.3516 11.6282 17.3516 11.6339 17.3516 11.6397C17.3516 11.6454 17.3516 11.6512 17.3516 11.6569C17.3516 11.6627 17.3516 11.6684 17.3516 11.6742C17.3516 11.6799 17.3516 11.6857 17.3516 11.6915C17.3516 11.6972 17.3516 11.703 17.3516 11.7088C17.3516 11.7145 17.3516 11.7203 17.3516 11.7261C17.3516 11.7319 17.3516 11.7376 17.3516 11.7434C17.3516 11.7492 17.3516 11.755 17.3516 11.7608C17.3516 11.7666 17.3516 11.7724 17.3516 11.7782C17.3516 11.7839 17.3516 11.7897 17.3516 11.7955C17.3516 11.8013 17.3516 11.8072 17.3516 11.813C17.3516 11.8188 17.3516 11.8246 17.3516 11.8304C17.3516 11.8362 17.3516 11.842 17.3516 11.8478C17.3516 11.8537 17.3516 11.8595 17.3516 11.8653C17.3516 11.8711 17.3516 11.877 17.3516 11.8828C17.3516 11.8886 17.3516 11.8945 17.3516 11.9003C17.3516 11.9062 17.3516 11.912 17.3516 11.9179C17.3516 11.9237 17.3516 11.9296 17.3516 11.9354C17.3516 11.9413 17.3516 11.9471 17.3516 11.953C17.3516 11.9588 17.3516 11.9647 17.3516 11.9706C17.3516 11.9764 17.3516 11.9823 17.3516 11.9882C17.3516 11.9941 17.3516 11.9999 17.3516 12.0058C17.3516 12.0117 17.3516 12.0176 17.3516 12.0235C17.3516 12.0294 17.3516 12.0353 17.3516 12.0411C17.3516 12.047 17.3516 12.0529 17.3516 12.0588C17.3516 12.0647 17.3516 12.0707 17.3516 12.0766C17.3516 12.0825 17.3516 12.0884 17.3516 12.0943C17.3516 12.1002 17.3516 12.1061 17.3516 12.1121C17.3516 12.118 17.3516 12.1239 17.3516 12.1298C17.3516 12.1358 17.3516 12.1417 17.3516 12.1476C17.3516 12.1536 17.3516 12.1595 17.3516 12.1655C17.3516 12.1714 17.3516 12.1774 17.3516 12.1833C17.3516 12.1893 17.3516 12.1952 17.3516 12.2012C17.3516 12.2072 17.3516 12.2131 17.3516 12.2191C17.3516 12.2251 17.3516 12.231 17.3516 12.237C17.3516 12.243 17.3516 12.249 17.3516 12.2549C17.3516 12.2609 17.3516 12.2669 17.3516 12.2729C17.3516 12.2789 17.3516 12.2849 17.3516 12.2909C17.3516 12.2969 17.3516 12.3029 17.3516 12.3089C17.3516 12.3149 17.3516 12.3209 17.3516 12.3269C17.3516 12.3329 17.3516 12.339 17.3516 12.345C17.3516 12.351 17.3516 12.357 17.3516 12.3631C17.3516 12.3691 17.3516 12.3751 17.3516 12.3812C17.3516 12.3872 17.3516 12.3932 17.3516 12.3993C17.3516 12.4053 17.3516 12.4114 17.3516 12.4174C17.3516 12.4235 17.3516 12.4295 17.3516 12.4356C17.3516 12.4417 17.3516 12.4477 17.3516 12.4538C17.3516 12.4599 17.3516 12.4659 17.3516 12.472C17.3516 12.4781 17.3516 12.4842 17.3516 12.4903C17.3516 12.4963 17.3516 12.5024 17.3516 12.5085C17.3516 12.5146 17.3516 12.5207 17.3516 12.5268C17.3516 12.5329 17.3516 12.539 17.3516 12.5451C17.3516 12.5513 17.3516 12.5574 17.3516 12.5635C17.3516 12.5696 17.3516 12.5757 17.3516 12.5819C17.3516 12.588 17.3516 12.5941 17.3516 12.6002C17.3516 12.6064 17.3516 12.6125 17.3516 12.6187C17.3516 12.6248 17.3516 12.631 17.3516 12.6371C17.3516 12.6433 17.3516 12.6494 17.3516 12.6556C17.3516 12.6617 17.3516 12.6679 17.3516 12.6741C17.3516 12.6803 17.3516 12.6864 17.3516 12.6926C17.3516 12.6988 17.3516 12.705 17.3516 12.7112C17.3516 12.7173 17.3516 12.7235 17.3516 12.7297C17.3516 12.7359 17.3516 12.7421 17.3516 12.7483C17.3516 12.7545 17.3516 12.7607 17.3516 12.767C17.3516 12.7732 17.3516 12.7794 17.3516 12.7856C17.3516 12.7918 17.3516 12.7981 17.3516 12.8043C17.3516 12.8105 17.3516 12.8168 17.3516 12.823C17.3516 12.8292 17.3516 12.8355 17.3516 12.8417C17.3516 12.848 17.3516 12.8542 17.3516 12.8605C17.3516 12.8668 17.3516 12.873 17.3516 12.8793C17.3516 12.8856 17.3516 12.8918 17.3516 12.8981C17.3516 12.9044 17.3516 12.9107 17.3516 12.917C17.3516 12.9232 17.3516 12.9295 17.3516 12.9358C17.3516 12.9421 17.3516 12.9484 17.3516 12.9547C17.3516 12.961 17.3516 12.9673 17.3516 12.9737C17.3516 12.98 17.3516 12.9863 17.3516 12.9926C17.3516 12.9989 17.3516 13.0053 17.3516 13.0116C17.3516 13.0179 17.3516 13.0243 17.3516 13.0306C17.3516 13.037 17.3516 13.0433 17.3516 13.0497C17.3516 13.056 17.3516 13.0624 17.3516 13.0687C17.3516 13.0751 17.3516 13.0815 17.3516 13.0878C17.3516 13.0942 17.3516 13.1006 17.3516 13.107C17.3516 13.1133 17.3516 13.1197 17.3516 13.1261C17.3516 13.1325 17.3516 13.1389 17.3516 13.1453C17.3516 13.1517 17.3516 13.1581 17.3516 13.1645C17.3516 13.1709 17.3516 13.1773 17.3516 13.1838C17.3516 13.1902 17.3516 13.1966 17.3516 13.203C17.3516 13.2095 17.3516 13.2159 17.3516 13.2223C17.3516 13.2288 17.3516 13.2352 17.3516 13.2417C17.3516 13.2481 17.3516 13.2546 17.3516 13.261C17.3516 13.2675 17.3516 13.274 17.3516 13.2804C17.3516 13.2869 17.3516 13.2934 17.3516 13.2999C17.3516 13.3063 17.3516 13.3128 17.3516 13.3193C17.3516 13.3258 17.3516 13.3323 17.3516 13.3388C17.3516 13.3453 17.3516 13.3518 17.3516 13.3583C17.3516 13.3648 17.3516 13.3714 17.3516 13.3779C17.3516 13.3844 17.3516 13.3909 17.3516 13.3975C17.3516 13.404 17.3516 13.4105 17.3516 13.4171C17.3516 13.4236 17.3516 13.4302 17.3516 13.4367C17.3516 13.4433 17.3516 13.4498 17.3516 13.4564C17.3516 13.463 17.3516 13.4695 17.3516 13.4761C17.3516 13.4827 17.3516 13.4892 17.3516 13.4958C17.3516 13.5024 17.3516 13.509 17.3516 13.5156C17.3516 13.5222 17.3516 13.5288 17.3516 13.5354C17.3516 13.542 17.3516 13.5486 17.3516 13.5552C17.3516 13.5619 17.3516 13.5685 17.3516 13.5751C17.3516 13.5817 17.3516 13.5884 17.3516 13.595C17.3516 13.6016 17.3516 13.6083 17.3516 13.6149C17.3516 13.6216 17.3516 13.6282 17.3516 13.6349C17.3516 13.6416 17.3516 13.6482 17.3516 13.6549C17.3516 13.6616 17.3516 13.6682 17.3516 13.6749C17.3516 13.6816 17.3516 13.6883 17.3516 13.695C17.3516 13.7017 17.3516 13.7084 17.3516 13.7151C17.3516 13.7218 17.3516 13.7285 17.3516 13.7352C17.3516 13.7419 17.3516 13.7486 17.3516 13.7554C17.3516 13.7621 17.3516 13.7688 17.3516 13.7756C17.3516 13.7823 17.3516 13.7891 17.3516 13.7958C17.3516 13.8026 17.3516 13.8093 17.3516 13.8161C17.3516 13.8228 17.3516 13.8296 17.3516 13.8364C17.3516 13.8431 17.3516 13.8499 17.3516 13.8567C17.3516 13.8635 17.3516 13.8703 17.3516 13.8771C17.3516 13.8839 17.3516 13.8907 17.3516 13.8975C17.3516 13.9043 17.3516 13.9111 17.3516 13.9179C17.3516 13.9247 17.3516 13.9315 17.3516 13.9384C17.3516 13.9452 17.3516 13.952 17.3516 13.9589C17.3516 13.9657 17.3516 13.9726 17.3516 13.9794C17.3516 13.9863 17.3516 13.9931 17.3516 14H18.8516ZM18.8508 5.03447C18.8782 4.43723 19.1278 3.87179 19.5506 3.44903L18.4899 2.38837C17.8027 3.07558 17.397 3.9947 17.3524 4.96553L18.8508 5.03447ZM19.5506 3.44903C19.9734 3.02627 20.5388 2.77668 21.136 2.74921L21.0671 1.25079C20.0963 1.29546 19.1771 1.70117 18.4899 2.38837L19.5506 3.44903ZM21.1016 2.75H33.1016V1.25H21.1016V2.75ZM33.0671 2.74921C33.6643 2.77668 34.2298 3.02627 34.6525 3.44903L35.7132 2.38837C35.026 1.70117 34.1069 1.29546 33.136 1.25079L33.0671 2.74921ZM34.6525 3.44903C35.0753 3.87179 35.3249 4.43723 35.3524 5.03447L36.8508 4.96553C36.8061 3.9947 36.4004 3.07558 35.7132 2.38837L34.6525 3.44903ZM35.3516 5V14H36.8516V5H35.3516ZM36.1016 14.75H39.1016V13.25H36.1016V14.75ZM38.3516 14V38H39.8516V14H38.3516ZM38.3523 37.9668C38.3027 39.087 37.8354 40.148 37.0425 40.9409L38.1032 42.0015C39.1612 40.9436 39.7846 39.5279 39.8508 38.0332L38.3523 37.9668ZM37.0425 40.9409C36.2496 41.7338 35.1886 42.2011 34.0684 42.2507L34.1348 43.7493C35.6295 43.683 37.0453 43.0595 38.1032 42.0015L37.0425 40.9409ZM34.1016 42.25H32.1016V43.75H34.1016V42.25ZM31.3516 43V47H32.8516V43H31.3516ZM31.3524 46.9655C31.3249 47.5628 31.0753 48.1282 30.6525 48.551L31.7132 49.6116C32.4004 48.9244 32.8061 48.0053 32.8508 47.0345L31.3524 46.9655ZM30.6525 48.551C30.2298 48.9737 29.6643 49.2233 29.0671 49.2508L29.136 50.7492C30.1069 50.7045 31.026 50.2988 31.7132 49.6116L30.6525 48.551ZM29.1016 49.25H27.1016V50.75H29.1016V49.25ZM26.3516 50V53H27.8516V50H26.3516ZM26.3516 53C26.3516 53.6807 26.5174 54.2889 26.848 54.8081C27.1764 55.324 27.6412 55.7111 28.1781 55.9953C29.2312 56.5528 30.6268 56.75 32.1016 56.75V55.25C30.7163 55.25 29.612 55.0572 28.88 54.6697C28.5244 54.4814 28.2754 54.2572 28.1133 54.0025C27.9532 53.7511 27.8516 53.4293 27.8516 53H26.3516ZM32.1016 56.75H37.1016V55.25H32.1016V56.75ZM37.1016 56.75C38.8368 56.75 40.2883 55.8434 41.2827 54.5769C42.2736 53.3148 42.8516 51.6514 42.8516 50H41.3516C41.3516 51.3186 40.8845 52.6552 40.1029 53.6506C39.3248 54.6416 38.2764 55.25 37.1016 55.25V56.75ZM42.8516 50V41H41.3516V50H42.8516ZM18.1016 14.75H36.1016V13.25H18.1016V14.75ZM22.1016 43.75H32.1016V42.25H22.1016V43.75ZM26.1016 50.75H27.1016V49.25H26.1016V50.75ZM21.7515 6V11H23.2515V6H21.7515ZM30.7515 6V11H32.2515V6H30.7515Z" fill="black"/>
</svg>
