<svg width="50" height="50" viewBox="0 0 50 50" fill="none" xmlns="http://www.w3.org/2000/svg">
<rect x="5.75" y="11.75" width="38.5" height="26.5" rx="1.25" fill="white" stroke="black" stroke-width="1.5"/>
<path fill-rule="evenodd" clip-rule="evenodd" d="M13.9939 23.2909C13.9939 22.1547 14.9008 21.25 15.9994 21.25C17.098 21.25 18.0048 22.1547 18.0048 23.2909C18.0048 24.427 17.098 25.3317 15.9994 25.3317C14.9008 25.3317 13.9939 24.427 13.9939 23.2909ZM15.9994 19.75C14.0544 19.75 12.4939 21.3443 12.4939 23.2909C12.4939 24.3541 12.9595 25.3123 13.699 25.9629C11.5592 26.8729 10.0625 29.0139 10.0625 31.4995C10.0625 31.9137 10.3983 32.2495 10.8125 32.2495H21.1861C21.6003 32.2495 21.9361 31.9137 21.9361 31.4995C21.9361 29.0139 20.4394 26.873 18.2996 25.963C19.0392 25.3123 19.5048 24.3541 19.5048 23.2909C19.5048 21.3443 17.9444 19.75 15.9994 19.75ZM15.9993 26.9961C18.1907 26.9961 20.0227 28.6131 20.3749 30.7495H11.6236C11.9759 28.6131 13.8078 26.9961 15.9993 26.9961Z" fill="black"/>
<path d="M25 22H39" stroke="black" stroke-width="1.5" stroke-linecap="round"/>
<path d="M25 26H39" stroke="black" stroke-width="1.5" stroke-linecap="round"/>
<path d="M25 30H39" stroke="black" stroke-width="1.5" stroke-linecap="round"/>
<mask id="path-6-inside-1_2758_473694" fill="white">
<path fill-rule="evenodd" clip-rule="evenodd" d="M16 11V14C16 15.1046 16.8954 16 18 16H32C33.1046 16 34 15.1046 34 14V11H16Z"/>
</mask>
<path fill-rule="evenodd" clip-rule="evenodd" d="M16 11V14C16 15.1046 16.8954 16 18 16H32C33.1046 16 34 15.1046 34 14V11H16Z" fill="white"/>
<path d="M16 11V9.5H14.5V11H16ZM34 11H35.5V9.5H34V11ZM17.5 14V11H14.5V14H17.5ZM18 14.5C17.7239 14.5 17.5 14.2761 17.5 14H14.5C14.5 15.933 16.067 17.5 18 17.5V14.5ZM32 14.5H18V17.5H32V14.5ZM32.5 14C32.5 14.2761 32.2761 14.5 32 14.5V17.5C33.933 17.5 35.5 15.933 35.5 14H32.5ZM32.5 11V14H35.5V11H32.5ZM34 9.5H16V12.5H34V9.5Z" fill="black" mask="url(#path-6-inside-1_2758_473694)"/>
</svg>
