<svg width="48" height="48" viewBox="0 0 48 48" fill="none" xmlns="http://www.w3.org/2000/svg">
<path fill-rule="evenodd" clip-rule="evenodd" d="M24.6795 4.5576L24.1166 4.16797L23.5497 4.55172L4.75973 17.2717L4.32031 17.5692V18.0998V33.3698L4.32032 33.3739C4.3261 34.7817 4.60911 36.1746 5.15319 37.4729C5.69727 38.7713 6.49176 39.9499 7.4913 40.9412C8.49085 41.9326 9.67587 42.7173 10.9787 43.2507C12.2815 43.7841 13.6767 44.0556 15.0844 44.0498L15.0762 42.0498C13.9311 42.0546 12.7962 41.8337 11.7364 41.3998C10.6767 40.966 9.71275 40.3276 8.89969 39.5212C8.08663 38.7148 7.44036 37.7562 6.99779 36.7C6.55547 35.6444 6.32527 34.5122 6.32031 33.3677V18.6305L24.104 6.59167L41.8903 18.9038V42.1398H25.0003V38.0698H23.0003V43.1398V44.1398H24.0003H42.8903H43.8903V43.1398V18.3798V17.8558L43.4595 17.5576L24.6795 4.5576ZM30.7997 21.9346V21.9345V21.9018C30.7997 18.3673 27.9345 15.5021 24.4001 15.5021C20.8657 15.5021 18.0005 18.3673 18.0005 21.9018C18.0005 22.7803 18.0088 23.1496 18.2604 23.7611L18.2605 23.7609C18.2615 23.7603 18.2695 23.7723 18.2871 23.7988L18.2872 23.7989L18.2872 23.7989C18.3225 23.8518 18.3963 23.9626 18.5301 24.1469C18.7561 24.4582 19.068 24.8661 19.445 25.3457C20.1966 26.3019 21.1654 27.4902 22.1291 28.6566C22.941 29.6393 23.7438 30.5998 24.4009 31.3821C25.0572 30.6015 25.8588 29.6433 26.6695 28.6626C27.6328 27.4974 28.6011 26.31 29.3527 25.3533C29.7297 24.8736 30.0415 24.4653 30.2675 24.1534C30.4022 23.9674 30.4762 23.8559 30.5114 23.803L30.5114 23.803C30.5288 23.7768 30.5367 23.7649 30.5377 23.7655L30.5378 23.7659C30.7932 23.144 30.7998 22.7892 30.7997 21.9346ZM25.7093 32.9336C24.9267 33.8633 24.4001 34.4821 24.4001 34.4821C24.4001 34.4821 23.8739 33.8629 23.0917 32.9329C20.9181 30.3484 16.7679 25.3636 16.4427 24.5983C16.0005 23.5577 16.0005 22.845 16.0005 21.9018C16.0005 17.2628 19.7611 13.5021 24.4001 13.5021C29.0391 13.5021 32.7997 17.2628 32.7997 21.9018V21.9345C32.7998 22.8612 32.7998 23.5528 32.3575 24.5983C32.0285 25.3761 27.8822 30.3526 25.7093 32.9336ZM24.4001 23.0949C25.0459 23.0949 25.5695 22.5713 25.5695 21.9255C25.5695 21.2797 25.0459 20.7561 24.4001 20.7561C23.7542 20.7561 23.2307 21.2797 23.2307 21.9255C23.2307 22.5713 23.7542 23.0949 24.4001 23.0949ZM27.5695 21.9255C27.5695 23.6759 26.1505 25.0949 24.4001 25.0949C22.6497 25.0949 21.2307 23.6759 21.2307 21.9255C21.2307 20.1751 22.6497 18.7561 24.4001 18.7561C26.1505 18.7561 27.5695 20.1751 27.5695 21.9255Z" fill="#1D1D1B"/>
</svg>
