<svg width="49" height="48" viewBox="0 0 49 48" fill="none" xmlns="http://www.w3.org/2000/svg">
<path fill-rule="evenodd" clip-rule="evenodd" d="M7.09961 10.2502C5.58083 10.2502 4.34961 11.4815 4.34961 13.0002V35.0002C4.34961 36.519 5.58082 37.7502 7.09961 37.7502H41.8996C43.4184 37.7502 44.6496 36.519 44.6496 35.0002V13.0002C44.6496 11.4815 43.4184 10.2502 41.8996 10.2502H7.09961ZM6.84604 11.776C6.92792 11.7591 7.01273 11.7502 7.09961 11.7502H41.8996C41.9787 11.7502 42.0561 11.7576 42.1311 11.7716L25.3246 26.5977C24.8524 27.0143 24.144 27.0146 23.6714 26.5983L6.84604 11.776ZM5.85352 12.9007C5.85093 12.9335 5.84961 12.9667 5.84961 13.0002V35.0002C5.84961 35.1096 5.86365 35.2156 5.89002 35.3167L18.5889 24.1199L5.85352 12.9007ZM19.7234 25.1193L7.09931 36.2502H7.09961H41.8952L29.2614 25.1251L26.317 27.7226C25.278 28.6391 23.7195 28.6396 22.6799 27.7238L19.7234 25.1193ZM30.3952 24.1249L43.1084 35.3199C43.1353 35.2179 43.1496 35.1107 43.1496 35.0002V13.0002C43.1496 12.9592 43.1476 12.9186 43.1438 12.8785L30.3952 24.1249Z" fill="black"/>
</svg>
