<svg width="21" height="20" viewBox="0 0 21 20" fill="none" xmlns="http://www.w3.org/2000/svg">
<g clip-path="url(#clip0_4564_141340)">
<path fill-rule="evenodd" clip-rule="evenodd" d="M1.45312 0.203125C1.03891 0.203125 0.703125 0.538911 0.703125 0.953125V6.50752C0.703125 6.92174 1.03891 7.25752 1.45312 7.25752C1.86734 7.25752 2.20312 6.92174 2.20312 6.50752V1.70312H7.00752C7.42174 1.70312 7.75752 1.36734 7.75752 0.953125C7.75752 0.538911 7.42174 0.203125 7.00752 0.203125H1.45312ZM14.4141 0.203125C13.9998 0.203125 13.6641 0.538911 13.6641 0.953125C13.6641 1.36734 13.9998 1.70312 14.4141 1.70312H19.2185V6.50752C19.2185 6.92174 19.5542 7.25752 19.9685 7.25752C20.3827 7.25752 20.7185 6.92174 20.7185 6.50752V0.953125C20.7185 0.538911 20.3827 0.203125 19.9685 0.203125H14.4141ZM1.45312 13.1504C1.86734 13.1504 2.20312 13.4862 2.20312 13.9004V18.7048H7.00752C7.42174 18.7048 7.75752 19.0406 7.75752 19.4548C7.75752 19.869 7.42174 20.2048 7.00752 20.2048H1.45312C1.03891 20.2048 0.703125 19.869 0.703125 19.4548V13.9004C0.703125 13.4862 1.03891 13.1504 1.45312 13.1504ZM20.7185 13.9004C20.7185 13.4862 20.3827 13.1504 19.9685 13.1504C19.5542 13.1504 19.2185 13.4862 19.2185 13.9004V18.7048H14.4141C13.9998 18.7048 13.6641 19.0406 13.6641 19.4548C13.6641 19.869 13.9998 20.2048 14.4141 20.2048H19.9685C20.3827 20.2048 20.7185 19.869 20.7185 19.4548V13.9004ZM10.0833 5.75293C7.96624 5.75293 6.25 7.46917 6.25 9.58626C6.25 11.7034 7.96624 13.4196 10.0833 13.4196C12.2004 13.4196 13.9167 11.7034 13.9167 9.58626C13.9167 7.46917 12.2004 5.75293 10.0833 5.75293ZM4.75 9.58626C4.75 6.64074 7.13781 4.25293 10.0833 4.25293C13.0289 4.25293 15.4167 6.64074 15.4167 9.58626C15.4167 10.7879 15.0192 11.8968 14.3487 12.7886C14.3546 12.7941 14.3605 12.7998 14.3663 12.8056L16.0329 14.4723C16.3258 14.7652 16.3258 15.24 16.0329 15.5329C15.74 15.8258 15.2652 15.8258 14.9723 15.5329L13.3056 13.8663C13.2999 13.8606 13.2944 13.8549 13.289 13.8491C12.3966 14.5212 11.2865 14.9196 10.0833 14.9196C7.13781 14.9196 4.75 12.5318 4.75 9.58626Z" fill="white"/>
</g>
<defs>
<clipPath id="clip0_4564_141340">
<rect width="20" height="20" fill="white" transform="translate(0.5)"/>
</clipPath>
</defs>
</svg>
