<svg width="60" height="60" viewBox="0 0 60 60" fill="none" xmlns="http://www.w3.org/2000/svg">
<path d="M29.9333 25.2026C29.3786 25.2026 28.929 24.7529 28.929 24.1983C28.929 23.6437 29.3786 23.1941 29.9333 23.1941C30.4879 23.1941 30.9375 23.6437 30.9375 24.1983C30.9375 24.7529 30.4879 25.2026 29.9333 25.2026Z" fill="black"/>
<path d="M29.9824 21.5056L29.9824 19.8782C31.8319 19.8782 33.3222 18.363 33.3222 16.4959C33.3222 14.6287 31.8378 13.1135 29.9824 13.1135C28.1269 13.1135 26.6484 14.6287 26.6484 16.4959" stroke="black" stroke-width="1.5" stroke-linecap="round" stroke-linejoin="round"/>
<path d="M17.4688 7.00049H42.5341C43.6386 7.00049 44.5341 7.89592 44.5341 9.00049V28.6161C44.5341 29.7206 43.6386 30.6161 42.5341 30.6161H30.9097L23.5124 35.5476C23.1802 35.7691 22.7351 35.5309 22.7351 35.1316V30.6161H17.4687C16.3642 30.6161 15.4688 29.7206 15.4688 28.6161V26.9829V9.00049C15.4688 7.89592 16.3642 7.00049 17.4688 7.00049Z" stroke="black" stroke-width="1.5"/>
<path d="M29.3932 31.8257V53.0191C29.3932 50.2207 17.5952 47.8746 2.75 47.7333V14.2654C7.33378 14.2936 11.6571 14.548 15.4075 14.9438" stroke="black" stroke-width="1.5" stroke-linejoin="round"/>
<path d="M44.0069 14.9438C47.9316 14.548 52.4286 14.2936 57.2527 14.2654V47.7333C41.7175 47.8746 29.3984 50.2207 29.3984 53.0191V31.8257" stroke="black" stroke-width="1.5" stroke-linejoin="round"/>
</svg>
