<svg width="49" height="48" viewBox="0 0 49 48" fill="none" xmlns="http://www.w3.org/2000/svg">
<path fill-rule="evenodd" clip-rule="evenodd" d="M9.74459 9.30078C7.69153 9.30078 6.00003 11.0055 6.00003 13.1423V32.8841L17.1939 19.0221C17.3368 18.8452 17.5522 18.7426 17.7796 18.7433C18.007 18.744 18.2218 18.8477 18.3636 19.0255L29.34 32.7802L36.0925 26.6366C36.3842 26.3712 36.8316 26.3771 37.1162 26.65L43.0002 32.2912V13.1423C43.0002 11.0055 41.3087 9.30078 39.2557 9.30078H9.74459ZM4.56787 35.3188C4.50225 35.175 4.48361 35.0136 4.51458 34.8588C4.50493 34.7266 4.50003 34.5931 4.50003 34.4585V13.1423C4.50003 10.2074 6.83309 7.80078 9.74459 7.80078H39.2557C42.1672 7.80078 44.5002 10.2074 44.5002 13.1423V34.0485V34.0503V34.4585C44.5002 37.3933 42.1672 39.8 39.2557 39.8H9.74459C7.12339 39.8 4.97104 37.8493 4.56787 35.3188ZM43.0002 34.4585V34.3692L36.5838 28.2175L29.7576 34.4282C29.6043 34.5677 29.4 34.6375 29.1933 34.6211C28.9866 34.6046 28.796 34.5033 28.6667 34.3412L17.774 20.6914L6.0673 35.1884C6.40059 36.9706 7.93162 38.3 9.74459 38.3H39.2557C41.3087 38.3 43.0002 36.5952 43.0002 34.4585ZM29.1004 17.9233C29.1004 16.0671 30.5692 14.5898 32.3477 14.5898C34.1261 14.5898 35.5949 16.0671 35.5949 17.9233C35.5949 19.7795 34.1261 21.2568 32.3477 21.2568C30.5692 21.2568 29.1004 19.7795 29.1004 17.9233ZM32.3477 13.0898C29.7108 13.0898 27.6004 15.269 27.6004 17.9233C27.6004 20.5776 29.7108 22.7568 32.3477 22.7568C34.9845 22.7568 37.0949 20.5776 37.0949 17.9233C37.0949 15.269 34.9845 13.0898 32.3477 13.0898Z" fill="#EA1917"/>
</svg>
