<svg width="80" height="80" viewBox="0 0 80 80" fill="none" xmlns="http://www.w3.org/2000/svg">
<path fill-rule="evenodd" clip-rule="evenodd" d="M53.4596 11.2071C52.5168 10.2643 50.9832 10.2643 50.0404 11.2071L41.7475 19.5001L42.0808 19.8334H49.4145L53.9473 15.1387L53.9534 15.1324L53.9596 15.1262C54.9024 14.1834 54.9024 12.6499 53.9596 11.7071L53.4596 11.2071ZM40.3333 18.0859L48.6262 9.79289C50.3501 8.06904 53.1499 8.06904 54.8738 9.79289L55.3738 10.2929C57.0954 12.0146 57.0976 14.8095 55.3803 16.5339L52.1946 19.8334H63.3333C67.5523 19.8334 71 23.2811 71 27.5001V31.3334V32.3334H70H67.9999V61.6668C67.9999 67.0524 63.5522 71.5002 58.1666 71.5002H21.6666C16.281 71.5002 11.8333 67.0524 11.8333 61.6668V32.3334H10H9V31.3334V27.5001C9 23.2811 12.4477 19.8334 16.6667 19.8334H28.4719L25.2862 16.5339C23.5689 14.8095 23.5711 12.0146 25.2927 10.2929L25.7927 9.79289C27.5166 8.06904 30.3164 8.06904 32.0403 9.79289L40.3333 18.0859ZM31.252 19.8334L26.7192 15.1387L26.7131 15.1324L26.7069 15.1262C25.7641 14.1834 25.7641 12.6499 26.7069 11.7071L25.9998 11L26.7069 11.7071L27.2069 11.2071C28.1498 10.2643 29.6833 10.2643 30.6261 11.2071L38.919 19.5001L38.5857 19.8334H31.252ZM39 21.8334H16.6667C13.5523 21.8334 11 24.3857 11 27.5001V30.3334H39V21.8334ZM41 30.3334V21.8334H63.3333C66.4477 21.8334 69 24.3857 69 27.5001V30.3334H41ZM39 69.5002V32.3335H13.8333V61.6668C13.8333 65.9479 17.3855 69.5002 21.6666 69.5002H39ZM41 69.5002V32.3335H65.9999V61.6668C65.9999 65.9479 62.4476 69.5002 58.1666 69.5002H41Z" fill="#666666"/>
</svg>
