<svg width="36" height="36" viewBox="0 0 36 36" fill="none" xmlns="http://www.w3.org/2000/svg">
<g id="Icon_Guide_36">
<rect width="36" height="36" fill="white"/>
<path id="Union" fill-rule="evenodd" clip-rule="evenodd" d="M18.0005 3C11.3513 3 5.96108 8.39026 5.96108 15.0395V15.9335C4.22437 16.64 3 18.3446 3 20.3351V20.8486C3 23.4719 5.12665 25.5986 7.75 25.5986H9.30226H10.0523V24.8486V16.3351V15.5851H9.30226H7.75C7.65299 15.5851 7.55665 15.588 7.46108 15.5937V15.0395C7.46108 9.21868 12.1798 4.5 18.0005 4.5C23.8215 4.5 28.5402 9.21734 28.5403 15.038V15.5937C28.4448 15.588 28.3485 15.5851 28.2515 15.5851H26.6993H25.9493V16.3351V24.8486V25.5986H26.6993H28.2515C28.3448 25.5986 28.4375 25.5959 28.5294 25.5906C28.337 28.8874 25.6025 31.5016 22.2574 31.5016H18.5559H17.8059V33.0016H18.5559H22.2574C26.5452 33.0016 30.0232 29.5341 30.0402 25.2503C31.777 24.5438 33.0015 22.8392 33.0015 20.8486V20.3351C33.0015 18.3445 31.7771 16.6399 30.0403 15.9334L30.0403 15.038C30.0402 8.38862 24.6496 3 18.0005 3ZM8.55226 17.0851V24.0986H7.75C5.95507 24.0986 4.5 22.6435 4.5 20.8486V20.3351C4.5 18.5402 5.95507 17.0851 7.75 17.0851H8.55226ZM27.4493 24.0986V17.0851H28.2515C30.0464 17.0851 31.5015 18.5402 31.5015 20.3351V20.8486C31.5015 22.6435 30.0464 24.0986 28.2515 24.0986H27.4493Z" fill="black"/>
</g>
</svg>
