<svg width="16" height="16" viewBox="0 0 16 16" fill="none" xmlns="http://www.w3.org/2000/svg">
<path fill-rule="evenodd" clip-rule="evenodd" d="M9.1291 1C9.1291 0.447715 8.68138 0 8.1291 0C7.57681 0 7.1291 0.447715 7.1291 1V7.19939H1C0.447715 7.19939 0 7.64711 0 8.19939C0 8.75168 0.447715 9.19939 1 9.19939H7.1291V14.997C7.1291 15.5492 7.57681 15.997 8.1291 15.997C8.68138 15.997 9.1291 15.5492 9.1291 14.997V9.19939H14.997C15.5492 9.19939 15.997 8.75168 15.997 8.19939C15.997 7.64711 15.5492 7.19939 14.997 7.19939H9.1291V1Z" fill="#646464"/>
</svg>
