<svg width="24" height="24" viewBox="0 0 24 24" fill="none" xmlns="http://www.w3.org/2000/svg">
<path fill-rule="evenodd" clip-rule="evenodd" d="M4.74453 4.3999C3.30859 4.3999 2.14453 5.56396 2.14453 6.9999V16.9999C2.14453 18.4358 3.30859 19.5999 4.74453 19.5999H19.2545C20.6905 19.5999 21.8545 18.4358 21.8545 16.9999V6.9999C21.8545 5.56396 20.6905 4.3999 19.2545 4.3999H4.74453ZM4.47951 5.62495C4.56532 5.60851 4.65392 5.5999 4.74453 5.5999H19.2545C19.3439 5.5999 19.4314 5.60828 19.5161 5.6243L12.9302 12.1623L12.9286 12.1639C12.3944 12.6981 11.6122 12.7022 11.0641 12.1617L11.0636 12.1611L4.47951 5.62495ZM3.50502 6.34845C3.40253 6.54304 3.34453 6.7647 3.34453 6.9999V16.9999C3.34453 17.127 3.36147 17.2502 3.39322 17.3672L9.13272 11.9352L3.50502 6.34845ZM9.98476 12.781L4.19022 18.2652C4.18517 18.2699 4.18006 18.2746 4.1749 18.2792C4.34892 18.3568 4.54169 18.3999 4.74453 18.3999H19.2545C19.4579 18.3999 19.6511 18.3566 19.8254 18.2786C19.8187 18.2726 19.8121 18.2665 19.8056 18.2602L14.084 12.7078L13.7772 13.0124L13.7764 13.0131C12.7704 14.0184 11.2327 14.0143 10.2206 13.0151L10.2194 13.0139L9.98476 12.781ZM20.6545 16.9999C20.6545 17.1263 20.6378 17.2487 20.6064 17.3652L14.9358 11.8622L20.4926 6.34579C20.596 6.54102 20.6545 6.76362 20.6545 6.9999V16.9999Z" fill="black"/>
</svg>
