<svg width="34" height="20" viewBox="0 0 34 20" fill="none" xmlns="http://www.w3.org/2000/svg">
<g clip-path="url(#clip0_133_292450)">
<path d="M32.3999 0H1.9999C1.11625 0 0.399902 0.716344 0.399902 1.6V18.4C0.399902 19.2837 1.11625 20 1.9999 20H32.3999C33.2836 20 33.9999 19.2837 33.9999 18.4V1.6C33.9999 0.716344 33.2836 0 32.3999 0Z" fill="#004C97"/>
<path d="M16.489 7.07769C16.7784 8.8263 15.5699 10.4743 13.7899 10.7586C12.0098 11.0429 10.3322 9.85582 10.0428 8.10726C9.75344 6.35863 10.9618 4.71064 12.7418 4.42634C14.5218 4.14204 16.1995 5.32909 16.489 7.07769Z" fill="url(#paint0_linear_133_292450)"/>
<path d="M12.3623 4.51546C13.426 4.71934 14.7692 4.83669 16.4347 6.85438C16.4695 6.83154 16.277 6.1643 16.5341 5.95689C16.8516 5.70062 17.5253 5.89126 17.6345 5.66559C17.8057 5.09954 14.1763 3.9821 12.3623 4.51546Z" fill="url(#paint1_linear_133_292450)"/>
<path d="M18.7075 5.30446C18.6518 3.31406 20.2491 1.65619 22.2754 1.60149C24.3015 1.54679 25.9892 3.11598 26.0449 5.10637C26.1006 7.09676 24.5032 8.75466 22.477 8.8093C20.4508 8.86402 18.7631 7.29486 18.7075 5.30446Z" fill="url(#paint2_linear_133_292450)"/>
<path d="M22.9143 8.7672C21.7605 8.3836 20.2822 8.0552 18.7347 5.5625C18.6925 5.58278 18.8051 6.3544 18.4871 6.5476C18.0943 6.78629 17.3729 6.4748 17.217 6.71012C16.9399 7.31545 20.8124 9.09432 22.9143 8.7672Z" fill="url(#paint3_linear_133_292450)"/>
<path d="M18.0525 12.4141C17.6199 12.4141 17.1586 12.5554 16.8991 12.8525C16.8847 12.5696 16.7117 12.4141 16.4233 12.4141C16.0917 12.4141 15.9331 12.5837 15.9331 12.909V17.4767C15.9331 17.8302 16.1494 17.9999 16.4666 17.9999C16.7982 17.9999 17 17.8161 17 17.4767V16.006C17.2451 16.3029 17.6488 16.3878 18.0813 16.3878C19.2203 16.3878 19.7394 15.4403 19.7394 14.4221C19.7394 13.0504 18.9463 12.4141 18.0525 12.4141ZM17.8074 15.5534C17.1442 15.5676 16.9423 14.9171 16.9423 14.3797C16.9423 13.7857 17.1731 13.2342 17.8074 13.2342C18.3841 13.2484 18.658 13.7574 18.658 14.3797C18.6724 14.8746 18.4995 15.5534 17.8074 15.5534ZM22.4931 12.4141C22.0606 12.4141 21.5991 12.5554 21.3396 12.8525C21.3108 12.5696 21.1523 12.4141 20.8495 12.4141C20.5179 12.4141 20.3593 12.5837 20.3593 12.909V17.4767C20.3593 17.8302 20.5755 17.9999 20.8927 17.9999C21.2243 17.9999 21.4262 17.8161 21.4262 17.4767V16.006C21.6712 16.3029 22.0749 16.3878 22.5075 16.3878C23.6464 16.3878 24.1655 15.4403 24.1655 14.4221C24.1799 13.0504 23.387 12.4141 22.4931 12.4141ZM22.2479 15.5534C21.5847 15.5676 21.3829 14.9171 21.3829 14.3797C21.3829 13.7857 21.6136 13.2342 22.2479 13.2342C22.8247 13.2484 23.0986 13.7574 23.0986 14.3797C23.0986 14.8746 22.9399 15.5534 22.2479 15.5534ZM15.0825 15.2706V13.5029C15.0825 12.7393 14.3616 12.4141 13.338 12.4141C12.2279 12.4141 11.6223 12.9514 11.6223 13.3757C11.6223 13.5878 11.8098 13.7857 12.0837 13.7857C12.5163 13.7857 12.5306 13.206 13.3236 13.206C13.684 13.206 14.0012 13.3333 14.0012 13.6444C14.0012 13.9413 13.7994 14.012 13.5399 14.0403L12.8767 14.111C12.2135 14.1817 11.3772 14.4645 11.3772 15.3272C11.3772 16.0767 12.0981 16.3737 12.7325 16.4019C13.3956 16.4302 13.857 16.2322 14.1742 15.9918C14.2319 16.2322 14.4049 16.4019 14.7509 16.4019C14.996 16.4019 15.2123 16.2322 15.2123 15.9918C15.2123 15.8221 15.0825 15.709 15.0825 15.2706ZM14.0012 14.606C14.0012 15.2706 13.6407 15.6949 13.0496 15.6949C12.6748 15.6949 12.4586 15.4969 12.4586 15.2565C12.4586 14.9313 12.7036 14.8039 13.1506 14.7333L13.5399 14.6767C13.6696 14.6484 13.8859 14.6201 14.0012 14.5069V14.606ZM26.6741 16.8121C26.4146 17.5332 26.1263 17.9151 25.4487 17.9151H25.391C24.9151 17.9151 24.7134 17.6888 24.7134 17.4342C24.7134 17.1514 24.9151 17.01 25.2035 17.01H25.2756C25.4198 17.01 25.5784 16.9958 25.6937 16.6706L25.737 16.5575L24.6124 13.404C24.5259 13.1494 24.4827 13.0363 24.4827 12.909C24.4827 12.6261 24.7134 12.3999 25.0017 12.3999C25.29 12.3999 25.4919 12.5554 25.5495 12.7958L26.2415 15.2706H26.256L26.948 12.7958C27.0201 12.5554 27.2075 12.3999 27.4959 12.3999C27.7843 12.3999 28.0149 12.6121 28.0149 12.909C28.0149 13.0363 27.9716 13.1494 27.8851 13.404L26.6741 16.8121ZM9.80569 16.8121C9.54625 17.5332 9.25785 17.9151 8.58025 17.9151H8.50817C8.0324 17.9151 7.83053 17.6888 7.83053 17.4342C7.83053 17.1514 8.0324 17.01 8.32076 17.01H8.39283C8.53697 17.01 8.69561 16.9958 8.81097 16.6706L8.85417 16.5575L7.72961 13.404C7.6431 13.1635 7.59985 13.0363 7.59985 12.9231C7.59985 12.6403 7.83053 12.4141 8.11889 12.4141C8.40729 12.4141 8.60905 12.5696 8.66673 12.81L9.35881 15.2848H9.37321L10.0652 12.81C10.1374 12.5696 10.3247 12.4141 10.6131 12.4141C10.9015 12.4141 11.1321 12.6261 11.1321 12.9231C11.1321 13.0504 11.0889 13.1635 11.0024 13.4181L9.80569 16.8121Z" fill="white"/>
</g>
<defs>
<linearGradient id="paint0_linear_133_292450" x1="11.3072" y1="5.04574" x2="12.283" y2="11.1548" gradientUnits="userSpaceOnUse">
<stop stop-color="#2CCAFE"/>
<stop offset="1" stop-color="#0A91E7"/>
</linearGradient>
<linearGradient id="paint1_linear_133_292450" x1="15.9371" y1="4.59834" x2="14.7902" y2="6.80044" gradientUnits="userSpaceOnUse">
<stop stop-color="#2CCAFE"/>
<stop offset="1" stop-color="#0A91E7"/>
</linearGradient>
<linearGradient id="paint2_linear_133_292450" x1="24.1695" y1="8.33058" x2="23.9819" y2="1.38285" gradientUnits="userSpaceOnUse">
<stop stop-color="#FF8741"/>
<stop offset="1" stop-color="#FFA537"/>
</linearGradient>
<linearGradient id="paint3_linear_133_292450" x1="19.821" y1="9.03104" x2="20.6973" y2="7.41037" gradientUnits="userSpaceOnUse">
<stop stop-color="#FF8043"/>
<stop offset="1" stop-color="#FFA636"/>
</linearGradient>
<clipPath id="clip0_133_292450">
<rect width="33.6" height="20" fill="white" transform="translate(0.399902)"/>
</clipPath>
</defs>
</svg>
