<svg width="90" height="90" viewBox="0 0 90 90" fill="none" xmlns="http://www.w3.org/2000/svg">
<g clip-path="url(#clip0_342_11699)">
<path fill-rule="evenodd" clip-rule="evenodd" d="M73 45C73 60.464 60.464 73 45 73C29.536 73 17 60.464 17 45C17 29.536 29.536 17 45 17C60.464 17 73 29.536 73 45ZM75 45C75 61.5685 61.5685 75 45 75C28.4315 75 15 61.5685 15 45C15 28.4315 28.4315 15 45 15C61.5685 15 75 28.4315 75 45ZM45.5 68C57.9264 68 68 57.9264 68 45.5C68 33.0736 57.9264 23 45.5 23C33.0736 23 23 33.0736 23 45.5C23 57.9264 33.0736 68 45.5 68Z" fill="#EA1917"/>
<path fill-rule="evenodd" clip-rule="evenodd" d="M40 39.5C40.5523 39.5 41 39.9477 41 40.5V50.5C41 51.0523 40.5523 51.5 40 51.5C39.4477 51.5 39 51.0523 39 50.5V40.5C39 39.9477 39.4477 39.5 40 39.5ZM45 39.5C45.5523 39.5 46 39.9477 46 40.5V50.5C46 51.0523 45.5523 51.5 45 51.5C44.4477 51.5 44 51.0523 44 50.5V40.5C44 39.9477 44.4477 39.5 45 39.5ZM51 40.5C51 39.9477 50.5523 39.5 50 39.5C49.4477 39.5 49 39.9477 49 40.5V50.5C49 51.0523 49.4477 51.5 50 51.5C50.5523 51.5 51 51.0523 51 50.5V40.5Z" fill="white"/>
<path fill-rule="evenodd" clip-rule="evenodd" d="M6.29289 38.2929C6.68342 37.9024 7.31658 37.9024 7.70711 38.2929C8.09763 38.6834 8.09763 39.3166 7.70711 39.7071L2.41421 45L7.70711 50.2929C8.09763 50.6834 8.09763 51.3166 7.70711 51.7071C7.31658 52.0976 6.68342 52.0976 6.29289 51.7071L0.292893 45.7071C-0.0976311 45.3166 -0.0976311 44.6834 0.292893 44.2929L6.29289 38.2929ZM83.7071 38.2929C83.3166 37.9024 82.6834 37.9024 82.2929 38.2929C81.9024 38.6834 81.9024 39.3166 82.2929 39.7071L87.5858 45L82.2929 50.2929C81.9024 50.6834 81.9024 51.3166 82.2929 51.7071C82.6834 52.0976 83.3166 52.0976 83.7071 51.7071L89.7071 45.7071C90.0976 45.3166 90.0976 44.6834 89.7071 44.2929L83.7071 38.2929Z" fill="#EA1917"/>
</g>
<defs>
<clipPath id="clip0_342_11699">
<rect width="90" height="90" fill="white"/>
</clipPath>
</defs>
</svg>
