<svg width="96" height="31" viewBox="0 0 96 31" fill="none" xmlns="http://www.w3.org/2000/svg">
<g clip-path="url(#clip0_972_392494)">
<path d="M0.813232 3.14901V11.851C0.813232 13.314 1.99923 14.5 3.46224 14.5H20.4609C21.9239 14.5 23.1099 13.314 23.1099 11.851V3.14901C23.1099 1.686 21.9239 0.499999 20.4609 0.499999H3.46224C1.99923 0.499999 0.813232 1.686 0.813232 3.14901Z" fill="#016FD0"/>
<path fill-rule="evenodd" clip-rule="evenodd" d="M3.70166 6.95086L4.75226 4.50212H5.76311L6.09477 5.26556V4.50212H7.35147L7.54907 5.05364L7.74033 4.50212H13.3832V4.77974C13.604 4.59809 13.8815 4.49982 14.1674 4.50212L15.9978 4.50848L16.3242 5.26185V4.50212H17.3758L17.6656 4.93497V4.50212H18.7252V6.95086H17.6656L17.388 6.51642V6.95086H15.8426L15.6873 6.56517H15.272L15.1194 6.95086H14.072C13.8168 6.94822 13.5715 6.85144 13.3832 6.67907V6.95086H11.8034L11.4897 6.56517V6.95086H5.61424L5.459 6.56517H5.04471L4.89053 6.95086H3.70219H3.70166Z" fill="white"/>
<path fill-rule="evenodd" clip-rule="evenodd" d="M4.9594 4.8041L4.17053 6.63775H4.68391L4.8296 6.27059H5.67728L5.82191 6.63775H6.34642L5.55861 4.8041H4.9594ZM5.25132 5.23059L5.50879 5.87218H4.99277L5.25132 5.23059Z" fill="#016FD0"/>
<path fill-rule="evenodd" clip-rule="evenodd" d="M6.39941 6.63722V4.80357L7.12896 4.80622L7.55279 5.98821L7.9671 4.80357H8.69081V6.63722H8.23254V5.28516L7.7467 6.63616H7.34458L6.85717 5.28516V6.63616L6.39941 6.63722Z" fill="#016FD0"/>
<path fill-rule="evenodd" clip-rule="evenodd" d="M9.00439 6.63722V4.80357H10.499V5.21364H9.46639V5.52728H10.473V5.91351H9.46639V6.23881H10.499V6.63669L9.00439 6.63722Z" fill="#016FD0"/>
<path fill-rule="evenodd" clip-rule="evenodd" d="M10.7655 4.8041V6.63774H11.2238V5.98609H11.4161L11.9655 6.63774H12.5287L11.9258 5.96225C12.0649 5.94846 12.1938 5.88292 12.2869 5.77862C12.38 5.67433 12.4306 5.53887 12.4286 5.39907C12.4291 5.31686 12.4126 5.23543 12.38 5.15995C12.3474 5.08448 12.2994 5.01661 12.2392 4.96066C12.179 4.90471 12.1077 4.86189 12.0301 4.83494C11.9524 4.80799 11.87 4.79749 11.788 4.8041H10.7655ZM11.2238 5.21417H11.7478C11.8017 5.2126 11.8542 5.23169 11.8946 5.26752C11.935 5.30336 11.9601 5.35325 11.965 5.40702C11.9614 5.46037 11.9374 5.51029 11.8979 5.54633C11.8584 5.58237 11.8065 5.60174 11.753 5.60039H11.2232V5.21417H11.2238Z" fill="#016FD0"/>
<path fill-rule="evenodd" clip-rule="evenodd" d="M13.0813 6.63722H12.614V4.80357H13.0818L13.0813 6.63722Z" fill="#016FD0"/>
<path fill-rule="evenodd" clip-rule="evenodd" d="M14.1912 6.63722H14.0901C13.9768 6.63499 13.8652 6.60896 13.7626 6.56081C13.66 6.51265 13.5687 6.44346 13.4946 6.35772C13.4205 6.27198 13.3653 6.17162 13.3325 6.06314C13.2997 5.95466 13.2901 5.8405 13.3044 5.72808C13.2913 5.60467 13.3058 5.4799 13.3468 5.36275C13.3877 5.24561 13.4541 5.139 13.5412 5.05059C13.6283 4.96218 13.7339 4.89418 13.8504 4.85147C13.967 4.80875 14.0915 4.7924 14.2151 4.80358H14.7221V5.23801H14.1971C14.1355 5.23941 14.0749 5.25368 14.0192 5.27991C13.9635 5.30615 13.9139 5.34376 13.8737 5.39033C13.8334 5.4369 13.8033 5.49139 13.7854 5.55029C13.7674 5.6092 13.762 5.6712 13.7695 5.73232C13.7607 5.79982 13.7673 5.86845 13.7889 5.93302C13.8104 5.99759 13.8464 6.0564 13.8941 6.105C13.9418 6.1536 13.9999 6.19071 14.0641 6.21352C14.1282 6.23634 14.1967 6.24426 14.2644 6.23669H14.3852L14.1923 6.63722H14.1912Z" fill="#016FD0"/>
<path fill-rule="evenodd" clip-rule="evenodd" d="M15.1888 4.8041L14.3999 6.63775H14.9133L15.059 6.27059H15.9067L16.0513 6.63775H16.5758L15.788 4.8041H15.1888ZM15.4807 5.23059L15.7382 5.87218H15.2216L15.4807 5.23059Z" fill="#016FD0"/>
<path fill-rule="evenodd" clip-rule="evenodd" d="M16.6278 6.63722V4.80357H17.2106L17.9523 5.95536V4.80357H18.4106V6.63722H17.8469L17.084 5.45523V6.63722H16.6278Z" fill="#016FD0"/>
<path fill-rule="evenodd" clip-rule="evenodd" d="M19.8749 8.73735L20.3094 7.71059H10.3533L10.0662 8.07351L9.78804 7.71059H7.19519V10.1593H9.77162L10.0535 9.78848L10.3316 10.1593H11.8876V9.59245H12.2373C12.3908 9.60193 12.5441 9.57029 12.6813 9.50079V10.1593H13.7086V9.77523L14.0222 10.1615H19.2333C19.3487 10.1666 19.4638 10.1472 19.5711 10.1046C19.6784 10.0619 19.7755 9.99709 19.856 9.91425C19.9364 9.83141 19.9984 9.73248 20.0378 9.62395C20.0772 9.51543 20.0932 9.39979 20.0847 9.28463C20.0896 9.18385 20.0735 9.08314 20.0374 8.98893C20.0013 8.89471 19.946 8.80903 19.8749 8.73735Z" fill="white"/>
<path fill-rule="evenodd" clip-rule="evenodd" d="M7.50879 9.84569V8.01205H9.00442V8.42212H7.97185V8.73576H8.97847V9.12198H7.97185V9.44781H9.00442V9.84569H7.50879Z" fill="#016FD0"/>
<path fill-rule="evenodd" clip-rule="evenodd" d="M14.8375 9.84569V8.01205H16.3326V8.42212H15.3V8.73576H16.3035V9.12198H15.3V9.44781H16.3326V9.84569H14.8375Z" fill="#016FD0"/>
<path fill-rule="evenodd" clip-rule="evenodd" d="M9.06274 9.84569L9.79121 8.94026L9.04578 8.01205H9.62326L10.0672 8.58583L10.5128 8.01205H11.0675L10.3316 8.92861L11.0611 9.84516H10.4837L10.0524 9.28039L9.63175 9.84516L9.06274 9.84569Z" fill="#016FD0"/>
<path fill-rule="evenodd" clip-rule="evenodd" d="M11.1151 8.01258V9.84569H11.5856V9.26715H12.0682C12.1583 9.27889 12.2499 9.27118 12.3368 9.24453C12.4237 9.21788 12.5038 9.17292 12.5719 9.11267C12.6399 9.05242 12.6942 8.97828 12.7312 8.89526C12.7681 8.81224 12.7869 8.72226 12.7861 8.63139C12.7883 8.54623 12.7725 8.46156 12.7396 8.38296C12.7068 8.30436 12.6577 8.23361 12.5955 8.17535C12.5334 8.1171 12.4596 8.07266 12.379 8.04498C12.2984 8.01729 12.2129 8.00697 12.1281 8.0147L11.1151 8.01258ZM11.5856 8.42689H12.0936C12.1228 8.42409 12.1523 8.42754 12.18 8.437C12.2078 8.44647 12.2332 8.46173 12.2546 8.48177C12.276 8.50182 12.2929 8.52619 12.3041 8.55326C12.3154 8.58034 12.3208 8.6095 12.3199 8.63881C12.32 8.66803 12.314 8.69695 12.3024 8.72375C12.2907 8.75056 12.2737 8.77467 12.2523 8.79457C12.2309 8.81447 12.2056 8.82973 12.178 8.8394C12.1505 8.84906 12.1212 8.85292 12.0921 8.85073H11.5856V8.42689Z" fill="#016FD0"/>
<path fill-rule="evenodd" clip-rule="evenodd" d="M12.9849 8.01205V9.84569H13.4431V9.19563H13.636L14.1854 9.84675H14.7459L14.1425 9.17126C14.2816 9.15735 14.4104 9.09178 14.5035 8.98751C14.5966 8.88323 14.6471 8.74785 14.6453 8.60808C14.6457 8.52584 14.6291 8.4444 14.5965 8.36893C14.5638 8.29345 14.5158 8.22559 14.4555 8.16965C14.3953 8.1137 14.324 8.0709 14.2463 8.04395C14.1686 8.017 14.0862 8.0065 14.0042 8.01311L12.9849 8.01205ZM13.4431 8.42212H13.9671C14.0212 8.42056 14.0738 8.43972 14.1141 8.47567C14.1545 8.51161 14.1796 8.56164 14.1843 8.6155C14.1807 8.66875 14.1566 8.71854 14.1171 8.75447C14.0776 8.7904 14.0258 8.8097 13.9724 8.80834H13.4426L13.4431 8.42212Z" fill="#016FD0"/>
<path fill-rule="evenodd" clip-rule="evenodd" d="M16.5456 9.84569V9.44781H17.4627C17.5984 9.44781 17.6577 9.3747 17.6577 9.29417C17.6577 9.21364 17.5989 9.13894 17.4627 9.13894H17.0479C16.9734 9.14627 16.8983 9.13721 16.8277 9.1124C16.7572 9.08759 16.6929 9.04762 16.6394 8.99531C16.5859 8.94299 16.5446 8.87961 16.5182 8.8096C16.4918 8.73959 16.4811 8.66465 16.4868 8.59006C16.4868 8.29602 16.6701 8.01258 17.2058 8.01258H18.0985L17.9051 8.4253H17.1332C16.9854 8.4253 16.9398 8.50265 16.9398 8.57682C16.9398 8.59857 16.9442 8.62009 16.9528 8.64006C16.9614 8.66003 16.974 8.67802 16.9899 8.69292C17.0057 8.70782 17.0244 8.71931 17.0449 8.72668C17.0654 8.73405 17.0871 8.73714 17.1088 8.73576H17.5433C17.6171 8.72477 17.6926 8.73039 17.764 8.75221C17.8355 8.77402 17.9012 8.81148 17.9563 8.86187C18.0115 8.91225 18.0547 8.97429 18.0829 9.04348C18.111 9.11267 18.1234 9.18727 18.1192 9.26185C18.1243 9.341 18.1122 9.42032 18.0838 9.49436C18.0554 9.56841 18.0113 9.63542 17.9545 9.69079C17.8977 9.74616 17.8296 9.78859 17.7549 9.81514C17.6801 9.8417 17.6005 9.85176 17.5215 9.84463L16.5456 9.84569Z" fill="#016FD0"/>
<path fill-rule="evenodd" clip-rule="evenodd" d="M18.2277 9.84569V9.44781H19.1072C19.2428 9.44781 19.3022 9.3747 19.3022 9.29417C19.3022 9.21364 19.2434 9.13894 19.1072 9.13894H18.7316C18.6571 9.14618 18.582 9.13706 18.5115 9.11221C18.441 9.08736 18.3767 9.04739 18.3233 8.9951C18.2698 8.9428 18.2285 8.87946 18.2021 8.80949C18.1757 8.73952 18.1649 8.66463 18.1705 8.59006C18.1705 8.29602 18.3544 8.01258 18.89 8.01258H19.7652L19.5724 8.4253H18.8179C18.6706 8.4253 18.6251 8.50265 18.6251 8.57682C18.625 8.59857 18.6295 8.62009 18.6381 8.64006C18.6467 8.66003 18.6593 8.67802 18.6751 8.69292C18.691 8.70782 18.7097 8.71931 18.7302 8.72668C18.7506 8.73405 18.7724 8.73714 18.7941 8.73576H19.1893C19.2632 8.72477 19.3386 8.73039 19.4101 8.75221C19.4815 8.77402 19.5472 8.81148 19.6024 8.86187C19.6575 8.91225 19.7007 8.97429 19.7289 9.04348C19.7571 9.11267 19.7695 9.18727 19.7652 9.26185C19.7704 9.341 19.7583 9.42032 19.7299 9.49436C19.7014 9.56841 19.6573 9.63542 19.6005 9.69079C19.5438 9.74616 19.4756 9.78859 19.4009 9.81514C19.3262 9.8417 19.2466 9.85176 19.1676 9.84463L18.2277 9.84569Z" fill="#016FD0"/>
</g>
<g clip-path="url(#clip1_972_392494)">
<path d="M25.1099 3.14901V11.851C25.1099 13.314 26.2959 14.5 27.7589 14.5H44.7575C46.2206 14.5 47.4066 13.314 47.4066 11.851V3.14901C47.4066 1.686 46.2206 0.499999 44.7575 0.499999H27.7589C26.2959 0.499999 25.1099 1.686 25.1099 3.14901Z" fill="#00589F"/>
<path d="M34.2659 9.50821L34.9488 5.50185H36.0428L35.3594 9.50821H34.2659Z" fill="white"/>
<path d="M39.318 5.60093C39.0044 5.48733 38.6731 5.43029 38.3395 5.43245C37.2608 5.43245 36.5006 5.97603 36.4942 6.75695C36.4884 7.33285 37.0367 7.65391 37.451 7.84517C37.8749 8.04172 38.019 8.16675 38.0168 8.34212C38.0168 8.61073 37.6772 8.73311 37.3636 8.73311C37.0092 8.74301 36.6574 8.67047 36.3358 8.52119L36.1949 8.45762L36.0417 9.35457C36.4319 9.49788 36.8447 9.56967 37.2603 9.56649C38.4078 9.56649 39.1533 9.02927 39.1617 8.19801C39.166 7.74238 38.8751 7.39536 38.2452 7.10927C37.8637 6.92437 37.6296 6.8004 37.6322 6.61285C37.6322 6.44649 37.8298 6.26848 38.2574 6.26848C38.5376 6.26223 38.816 6.31456 39.0749 6.42212L39.1723 6.46821L39.3202 5.59987" fill="white"/>
<path d="M42.1181 5.50556H41.2741C41.1555 5.49026 41.0351 5.51452 40.9317 5.57458C40.8282 5.63463 40.7475 5.72714 40.7019 5.83775L39.0802 9.50927H40.2267C40.2267 9.50927 40.4142 9.0155 40.4566 8.90742H41.8553C41.8881 9.04781 41.9883 9.50768 41.9883 9.50768H43.0013L42.1181 5.50556ZM40.7719 8.08834C40.8619 7.85735 41.2068 6.96834 41.2068 6.96834C41.2005 6.97947 41.2964 6.73682 41.3515 6.58636L41.4251 6.93179C41.4251 6.93179 41.6344 7.88543 41.6778 8.08887L40.7719 8.08834Z" fill="white"/>
<path d="M33.3499 5.50503L32.2807 8.23669L32.1668 7.68146C31.8901 6.95226 31.3508 6.35285 30.6548 6.00093L31.6323 9.5045H32.7878L34.5064 5.50609H33.3499" fill="white"/>
<path d="M31.2895 5.50238H29.5284L29.5146 5.58609C30.0942 5.69265 30.6389 5.93934 31.1013 6.30465C31.5636 6.66996 31.9296 7.14281 32.1674 7.68198L31.7822 5.84093C31.7543 5.73435 31.6889 5.64142 31.598 5.57922C31.5071 5.51702 31.3968 5.48974 31.2874 5.50238" fill="#F9A51A"/>
</g>
<g clip-path="url(#clip2_972_392494)">
<path d="M49.4066 3.14901V11.851C49.4066 13.314 50.5926 14.5 52.0556 14.5H69.0543C70.5173 14.5 71.7033 13.314 71.7033 11.851V3.14901C71.7033 1.686 70.5173 0.499999 69.0543 0.499999H52.0556C50.5926 0.499999 49.4066 1.686 49.4066 3.14901Z" fill="#333B44"/>
<path d="M59.0559 7.49974C59.0554 6.90388 59.1901 6.31567 59.4498 5.77938C59.7095 5.2431 60.0874 4.77269 60.5552 4.40358C59.9733 3.94306 59.2735 3.65581 58.5359 3.57475C57.7983 3.4937 57.0528 3.62213 56.3849 3.94531C55.7169 4.26849 55.1535 4.77335 54.7593 5.40202C54.3651 6.03068 54.156 6.7577 54.156 7.49974C54.156 8.24177 54.3651 8.96879 54.7593 9.59746C55.1535 10.2261 55.7169 10.731 56.3849 11.0542C57.0528 11.3773 57.7983 11.5058 58.5359 11.4247C59.2735 11.3437 59.9733 11.0564 60.5552 10.5959C60.0874 10.2268 59.7095 9.75638 59.4498 9.22009C59.1901 8.6838 59.0554 8.0956 59.0559 7.49974Z" fill="#E20D17"/>
<path d="M60.5546 10.5964C61.3827 10.5964 62.054 9.21023 62.054 7.50027C62.054 5.7903 61.3827 4.40411 60.5546 4.40411C59.7266 4.40411 59.0553 5.7903 59.0553 7.50027C59.0553 9.21023 59.7266 10.5964 60.5546 10.5964Z" fill="#EA610A"/>
<path d="M63.004 3.55113C62.1145 3.55011 61.2511 3.85082 60.5547 4.40411C61.0221 4.77354 61.3998 5.244 61.6595 5.78022C61.9191 6.31644 62.054 6.90448 62.054 7.50026C62.054 8.09604 61.9191 8.68409 61.6595 9.22031C61.3998 9.75652 61.0221 10.227 60.5547 10.5964C61.0488 10.9867 61.6291 11.2531 62.2472 11.3734C62.8652 11.4938 63.5031 11.4646 64.1075 11.2882C64.712 11.1118 65.2655 10.7935 65.7219 10.3596C66.1782 9.92583 66.5242 9.38915 66.7309 8.7944C66.9377 8.19965 66.9992 7.56408 66.9103 6.94073C66.8214 6.31738 66.5847 5.72433 66.2199 5.21108C65.8552 4.69783 65.3729 4.27927 64.8135 3.99032C64.2541 3.70137 63.6336 3.55042 63.004 3.55006V3.55113Z" fill="#F59E00"/>
</g>
<g clip-path="url(#clip3_972_392494)">
<path d="M73.7032 3.14901V11.851C73.7032 13.314 74.8892 14.5 76.3523 14.5H93.3509C94.8139 14.5 95.9999 13.314 95.9999 11.851V3.14901C95.9999 1.686 94.8139 0.499999 93.3509 0.499999H76.3523C74.8892 0.499999 73.7032 1.686 73.7032 3.14901Z" fill="#002338"/>
<path d="M85.709 11.4621C87.8754 11.4727 89.8521 9.69576 89.8521 7.5347C89.8456 6.99933 89.7329 6.47057 89.5206 5.97906C89.3083 5.48756 89.0005 5.04307 88.6151 4.67136C88.2298 4.29966 87.7745 4.00812 87.2757 3.81364C86.7768 3.61916 86.2443 3.52561 85.709 3.53841H83.8452C83.3171 3.52639 82.792 3.62154 82.3017 3.81811C81.8114 4.01468 81.366 4.30859 80.9925 4.6821C80.6189 5.0556 80.325 5.50095 80.1283 5.99124C79.9317 6.48153 79.8365 7.00659 79.8484 7.5347C79.8596 8.58489 80.2865 9.58786 81.0356 10.324C81.7847 11.0601 82.795 11.4693 83.8452 11.4621H85.709Z" fill="#004A98"/>
<path d="M84.6781 9.6396V5.34821C85.1123 5.51454 85.4858 5.80869 85.7493 6.1918C86.0128 6.5749 86.1539 7.02893 86.1539 7.49391C86.1539 7.95888 86.0128 8.41291 85.7493 8.79601C85.4858 9.17912 85.1123 9.47327 84.6781 9.6396ZM81.5565 7.49338C81.5572 7.02855 81.6986 6.57482 81.9621 6.19186C82.2255 5.80889 82.5987 5.5146 83.0325 5.34768V9.63907C82.5987 9.47237 82.2254 9.17821 81.962 8.79531C81.6985 8.4124 81.5571 7.95817 81.5565 7.49338ZM83.8553 3.86636C83.138 3.86636 82.4367 4.07906 81.8403 4.47758C81.2438 4.8761 80.779 5.44253 80.5044 6.10525C80.2299 6.76797 80.158 7.49722 80.2979 8.20078C80.4378 8.90434 80.7832 9.55061 81.2904 10.0579C81.7976 10.5651 82.4438 10.9106 83.1474 11.0506C83.8509 11.1906 84.5802 11.1189 85.243 10.8445C85.9057 10.57 86.4722 10.1052 86.8708 9.50883C87.2694 8.91244 87.4822 8.21124 87.4823 7.49391C87.4823 6.53191 87.1002 5.60931 86.42 4.92903C85.7398 4.24875 84.8173 3.8665 83.8553 3.86636Z" fill="white"/>
</g>
<g clip-path="url(#clip4_972_392494)">
<path d="M25.1099 19.149V27.851C25.1099 29.314 26.2959 30.5 27.7589 30.5H44.7575C46.2206 30.5 47.4066 29.314 47.4066 27.851V19.149C47.4066 17.686 46.2206 16.5 44.7575 16.5H27.7589C26.2959 16.5 25.1099 17.686 25.1099 19.149Z" fill="#C0272D"/>
<path d="M28.8391 24.5387C28.9401 24.1738 29.0362 23.7639 29.1273 23.309C29.2185 22.8541 29.2993 22.3751 29.37 21.8722C29.4325 21.8801 29.4759 21.8844 29.504 21.887C29.5321 21.8897 29.5522 21.8907 29.5702 21.8907C29.5883 21.8907 29.6232 21.8907 29.6555 21.887C29.6879 21.8833 29.7313 21.8791 29.7837 21.8722C29.7123 22.1099 29.6529 22.3511 29.6057 22.5948L29.5967 22.6367L29.5204 23.0128L29.7541 23.0203C29.9766 23.0256 30.1249 23.0282 30.1948 23.0282C30.3407 23.0282 30.5806 23.024 30.9143 23.0155H30.9821L31.0717 22.5864C31.1042 22.4225 31.1277 22.2884 31.1421 22.1842C31.1565 22.0783 31.1676 21.9771 31.1755 21.8754C31.2285 21.8833 31.2683 21.8876 31.299 21.8902C31.3297 21.8928 31.3599 21.8939 31.3843 21.8939C31.4086 21.8939 31.4251 21.8939 31.4547 21.8902C31.4844 21.8865 31.5294 21.8833 31.5919 21.8754C31.456 22.3886 31.342 22.8751 31.2502 23.335C31.1584 23.7948 31.0947 24.197 31.059 24.5413C30.9912 24.5323 30.9467 24.527 30.9239 24.5254C30.9011 24.5238 30.881 24.5254 30.8645 24.5254C30.8396 24.5254 30.8116 24.5254 30.7777 24.5291C30.7437 24.5328 30.6998 24.536 30.6436 24.544C30.6913 24.3649 30.7316 24.2065 30.7655 24.0672C30.7994 23.9278 30.8248 23.8187 30.8423 23.735L30.9451 23.2205C30.8317 23.2205 30.6955 23.2205 30.5366 23.2205H30.2288H29.8579L29.4818 23.2237L29.3917 23.6566C29.3668 23.7858 29.343 23.9246 29.3191 24.0709C29.2953 24.2171 29.273 24.376 29.2497 24.5477C29.2009 24.5413 29.1602 24.5366 29.1289 24.5334C29.0977 24.5302 29.0696 24.5291 29.0473 24.5291C29.0251 24.5291 28.998 24.5291 28.9668 24.5328C28.9355 24.5366 28.8926 24.5397 28.8375 24.5477L28.8391 24.5387ZM31.9469 21.985C31.9456 21.9596 31.9497 21.9343 31.9588 21.9105C31.9679 21.8868 31.9819 21.8653 31.9999 21.8473C32.0179 21.8293 32.0394 21.8153 32.0632 21.8062C32.0869 21.7971 32.1123 21.793 32.1377 21.7943C32.1626 21.7928 32.1876 21.7965 32.2112 21.805C32.2347 21.8136 32.2562 21.8269 32.2743 21.8441C32.2914 21.8631 32.3045 21.8853 32.3128 21.9094C32.3212 21.9335 32.3247 21.959 32.3231 21.9845C32.3239 22.0097 32.3196 22.0348 32.3105 22.0583C32.3014 22.0817 32.2877 22.1032 32.2701 22.1212C32.2528 22.1393 32.2318 22.1536 32.2087 22.1632C32.1855 22.1727 32.1606 22.1774 32.1355 22.1768C32.1108 22.1777 32.0862 22.1735 32.0632 22.1643C32.0402 22.1552 32.0194 22.1414 32.002 22.1238C31.9844 22.1056 31.9707 22.084 31.9616 22.0603C31.9525 22.0367 31.9482 22.0114 31.949 21.9861L31.9469 21.985ZM31.5061 24.5387C31.6121 24.1346 31.6933 23.7706 31.7498 23.4468C31.8 23.1901 31.8317 22.9302 31.8447 22.669C31.8823 22.6743 31.9167 22.6775 31.9506 22.6801C31.9845 22.6828 32.0142 22.6838 32.0444 22.6838C32.0746 22.6838 32.108 22.6838 32.1424 22.6801C32.1768 22.6764 32.2118 22.6743 32.2484 22.669C32.1477 23.0385 32.0688 23.3825 32.0115 23.7011C31.9598 23.9778 31.9261 24.2576 31.9104 24.5387C31.8526 24.5307 31.8097 24.5265 31.78 24.5238C31.7503 24.5212 31.727 24.5201 31.7043 24.5201C31.6815 24.5201 31.664 24.5201 31.6354 24.5238C31.6068 24.5275 31.5644 24.5307 31.5082 24.5387H31.5061ZM33.1951 24.3633C33.2936 24.3609 33.3897 24.3328 33.4739 24.2818C33.5581 24.2308 33.6275 24.1586 33.6751 24.0725C33.8098 23.8568 33.8769 23.6059 33.868 23.3519C33.876 23.2126 33.8368 23.0747 33.7567 22.9604C33.7208 22.914 33.6743 22.877 33.6211 22.8523C33.5679 22.8275 33.5096 22.8159 33.451 22.8184C33.3503 22.82 33.2517 22.8477 33.1649 22.8988C33.0781 22.9499 33.006 23.0226 32.9556 23.1098C32.8178 23.3248 32.7487 23.5767 32.7575 23.8319C32.7476 23.9731 32.7865 24.1134 32.8677 24.2293C32.9083 24.2753 32.959 24.3113 33.0158 24.3345C33.0725 24.3578 33.1339 24.3676 33.1951 24.3633ZM32.0296 25.6046C32.1458 25.1967 32.2546 24.743 32.3559 24.2436C32.4573 23.7442 32.5479 23.2195 32.6277 22.6695C32.6616 22.6732 32.6918 22.6759 32.7183 22.678C32.7448 22.6801 32.7686 22.6812 32.7888 22.6812C32.8089 22.6812 32.8354 22.6812 32.8651 22.678C32.8947 22.6748 32.9286 22.6732 32.9657 22.6695L32.8947 22.9424C32.9785 22.8429 33.0811 22.761 33.1967 22.7013C33.3053 22.648 33.4249 22.6208 33.5458 22.6219C33.639 22.618 33.7318 22.635 33.8175 22.6717C33.9033 22.7084 33.9797 22.7638 34.0412 22.8338C34.1702 22.994 34.2355 23.1963 34.2245 23.4017C34.2356 23.7103 34.1324 24.0122 33.9347 24.2494C33.8464 24.3569 33.7349 24.443 33.6085 24.5014C33.4822 24.5597 33.3443 24.5888 33.2052 24.5864C33.0857 24.5867 32.9696 24.5472 32.8751 24.474C32.7771 24.4007 32.7049 24.2981 32.669 24.1811L32.5848 24.6176C32.58 24.642 32.5721 24.6796 32.5626 24.7299C32.4919 25.0831 32.4389 25.3761 32.4036 25.6089C32.3596 25.6009 32.3247 25.5962 32.2977 25.5919C32.2763 25.5885 32.2547 25.5866 32.233 25.5861C32.2027 25.5863 32.1725 25.5883 32.1424 25.5919C32.1085 25.5956 32.0698 25.6009 32.0296 25.6089V25.6046ZM34.7056 23.4224L34.855 23.4261C35.0047 23.4286 35.1038 23.4298 35.1522 23.4298C35.2084 23.4298 35.3175 23.4298 35.4796 23.4261L35.6269 23.4224C35.6306 23.3811 35.6338 23.345 35.6359 23.3164C35.638 23.2878 35.6359 23.2634 35.6359 23.2401C35.6426 23.1182 35.6091 22.9974 35.5406 22.8963C35.5099 22.8555 35.4697 22.8228 35.4236 22.801C35.3774 22.7792 35.3266 22.769 35.2757 22.7713C35.2074 22.7723 35.1402 22.7885 35.0789 22.8187C35.0176 22.8488 34.9638 22.8921 34.9212 22.9456C34.8082 23.083 34.7325 23.2472 34.7014 23.4224H34.7056ZM34.6696 23.5872C34.6653 23.629 34.6611 23.6703 34.6585 23.7111C34.6558 23.7519 34.6547 23.7932 34.6547 23.8325C34.644 23.9854 34.6915 24.1369 34.7877 24.2563C34.8365 24.307 34.8958 24.3464 34.9614 24.372C35.027 24.3975 35.0973 24.4085 35.1676 24.4041C35.2711 24.4039 35.373 24.3794 35.4653 24.3326C35.5766 24.2729 35.6779 24.196 35.7652 24.1048L35.8118 24.1429C35.7919 24.1823 35.7742 24.2228 35.7588 24.2642C35.7426 24.3075 35.7287 24.3515 35.717 24.3962C35.6206 24.4594 35.5167 24.5103 35.4076 24.5477C35.3089 24.5801 35.2057 24.5965 35.1019 24.5964C34.9924 24.6017 34.8831 24.5844 34.7807 24.5456C34.6782 24.5067 34.5848 24.4472 34.5064 24.3707C34.4308 24.2894 34.3723 24.1938 34.3343 24.0895C34.2962 23.9853 34.2795 23.8744 34.2849 23.7636C34.2755 23.4657 34.3775 23.1749 34.571 22.9482C34.659 22.8429 34.7695 22.7587 34.8944 22.7019C35.0193 22.645 35.1554 22.6169 35.2926 22.6197C35.3858 22.6149 35.4789 22.6305 35.5654 22.6655C35.6518 22.7004 35.7296 22.7539 35.7933 22.8221C35.9218 22.9796 35.9865 23.1797 35.9745 23.3826C35.9745 23.3954 35.9745 23.4197 35.9708 23.4558C35.9671 23.4918 35.9649 23.5363 35.9612 23.5887H35.8775C35.5935 23.5834 35.3917 23.5808 35.2741 23.5808H35.0309L34.6717 23.5861L34.6696 23.5872ZM35.9734 24.5408C36.066 24.1812 36.1403 23.8402 36.1964 23.5177C36.2477 23.2373 36.2843 22.9543 36.3061 22.6701C36.3406 22.6754 36.3724 22.6785 36.3999 22.6812C36.4275 22.6838 36.4529 22.6849 36.4741 22.6849C36.4953 22.6849 36.5302 22.6849 36.5594 22.6812C36.5885 22.6775 36.6192 22.6754 36.6521 22.6701C36.6324 22.7285 36.6163 22.7882 36.6039 22.8486C36.5906 22.9095 36.5795 22.9747 36.571 23.043C36.6428 22.9263 36.7348 22.8233 36.8428 22.7389C36.9221 22.6743 37.0203 22.6371 37.1226 22.633C37.1392 22.633 37.1559 22.6342 37.1724 22.6367C37.1903 22.6396 37.208 22.6436 37.2253 22.6489C37.2095 22.7025 37.197 22.757 37.1877 22.8121C37.1795 22.8658 37.174 22.9199 37.1713 22.9742C37.1278 22.9652 37.0923 22.9588 37.0653 22.954C37.0403 22.95 37.0149 22.9479 36.9896 22.9477C36.813 22.9477 36.6787 23.0584 36.5869 23.2799C36.454 23.6886 36.3732 24.1124 36.3464 24.5413C36.3029 24.5355 36.2658 24.5307 36.2351 24.5281C36.208 24.5249 36.1808 24.5231 36.1535 24.5228C36.1346 24.523 36.1157 24.5242 36.0968 24.5265C36.0741 24.5265 36.0333 24.5334 35.9745 24.5413L35.9734 24.5408ZM38.4995 24.4348C38.4115 24.4858 38.3173 24.5251 38.2192 24.5519C38.1223 24.5781 38.0224 24.5913 37.922 24.5911C37.813 24.5958 37.7042 24.578 37.6024 24.5388C37.5006 24.4996 37.4079 24.4399 37.3302 24.3633C37.2541 24.2836 37.1949 24.1892 37.1562 24.086C37.1175 23.9827 37.1001 23.8727 37.1051 23.7625C37.0967 23.4646 37.204 23.1751 37.4044 22.9546C37.4983 22.8486 37.6141 22.7644 37.7439 22.7077C37.8736 22.6511 38.0141 22.6234 38.1556 22.6266C38.2735 22.6254 38.3911 22.6386 38.5058 22.6658C38.6075 22.6904 38.705 22.7298 38.7951 22.7829C38.7692 22.8343 38.7469 22.8874 38.7284 22.9419C38.7096 22.9953 38.6943 23.05 38.6828 23.1056L38.6251 23.1093C38.5878 23.0128 38.5254 22.9281 38.4444 22.864C38.3684 22.8062 38.275 22.7757 38.1795 22.7776C38.0769 22.7797 37.9764 22.8077 37.8875 22.8591C37.7986 22.9104 37.7241 22.9833 37.6709 23.0711C37.5282 23.2816 37.4557 23.5317 37.4637 23.7858C37.4529 23.949 37.5004 24.1107 37.5978 24.242C37.6451 24.2958 37.7042 24.3382 37.7704 24.3657C37.8366 24.3932 37.9082 24.4053 37.9798 24.4009C38.0886 24.4016 38.1962 24.3777 38.2945 24.331C38.3896 24.287 38.4723 24.22 38.535 24.136L38.588 24.1795C38.5696 24.219 38.5519 24.26 38.535 24.3024C38.5196 24.3453 38.5064 24.3882 38.4947 24.4332L38.4995 24.4348ZM39.6783 24.2828C39.6041 24.3735 39.5133 24.4494 39.4108 24.5064C39.3196 24.5541 39.218 24.5786 39.1151 24.5779C39.0515 24.5814 38.9879 24.5724 38.9278 24.5513C38.8677 24.5302 38.8124 24.4975 38.7649 24.455C38.7215 24.4117 38.6876 24.3597 38.6656 24.3025C38.6435 24.2453 38.6336 24.184 38.6367 24.1228C38.6323 24.0452 38.6456 23.9676 38.6755 23.8958C38.7054 23.824 38.7512 23.76 38.8094 23.7085C38.9913 23.5827 39.2009 23.5025 39.4203 23.4748L39.7414 23.4118C39.7661 23.4066 39.7891 23.3953 39.8084 23.3789C39.8276 23.3625 39.8425 23.3416 39.8516 23.318C39.8791 23.2444 39.8914 23.166 39.8876 23.0876C39.8901 23.045 39.8837 23.0023 39.8689 22.9623C39.8542 22.9223 39.8313 22.8857 39.8017 22.855C39.7694 22.8258 39.7316 22.8033 39.6905 22.7888C39.6494 22.7744 39.6058 22.7682 39.5623 22.7707C39.4554 22.7688 39.35 22.7963 39.2576 22.8502C39.1682 22.9039 39.0961 22.9823 39.05 23.0759L38.9843 23.0642C38.9939 23.0278 39.0013 22.9908 39.0065 22.9535C39.0118 22.9184 39.0144 22.883 39.0145 22.8476C39.0145 22.8412 39.0145 22.8306 39.0145 22.8163C39.0145 22.802 39.0145 22.7898 39.0145 22.7808C39.103 22.726 39.1985 22.6834 39.2984 22.6542C39.3983 22.6265 39.5015 22.6128 39.6052 22.6134C39.7598 22.6031 39.9131 22.6467 40.0391 22.7368C40.09 22.78 40.13 22.8344 40.1562 22.8957C40.1824 22.957 40.194 23.0236 40.1901 23.0902C40.1896 23.1453 40.1857 23.2003 40.1785 23.255C40.17 23.3207 40.1583 23.3906 40.144 23.4669L40.0142 24.1286C40.0084 24.1577 40.0031 24.1853 40.0004 24.2113C39.9978 24.2372 39.9962 24.2616 39.9962 24.2828C39.9952 24.2983 39.9973 24.3138 40.0024 24.3284C40.0075 24.3431 40.0155 24.3566 40.0259 24.3681C40.0371 24.3787 40.0503 24.3869 40.0648 24.3922C40.0793 24.3975 40.0947 24.3997 40.1101 24.3988C40.1263 24.3986 40.1425 24.3967 40.1583 24.393C40.1835 24.3876 40.2085 24.3809 40.233 24.3728L40.2823 24.473C40.228 24.5048 40.1705 24.5305 40.1106 24.5498C40.0591 24.5656 40.0056 24.5738 39.9517 24.5742C39.916 24.5763 39.8803 24.5707 39.847 24.5577C39.8137 24.5447 39.7836 24.5247 39.7588 24.4989C39.7086 24.4383 39.6821 24.3615 39.6841 24.2828H39.6783ZM39.7996 23.549L39.4855 23.6232C39.3407 23.6485 39.2041 23.7081 39.087 23.797C39.0462 23.8324 39.0139 23.8764 38.9923 23.9259C38.9706 23.9754 38.9603 24.0291 38.962 24.083C38.9601 24.1216 38.9657 24.1602 38.9787 24.1966C38.9917 24.2329 39.0118 24.2664 39.0378 24.295C39.0634 24.3217 39.0944 24.3426 39.1287 24.3564C39.1631 24.3702 39.2 24.3765 39.237 24.375C39.3505 24.3727 39.4596 24.3307 39.5453 24.2563C39.6346 24.1899 39.6962 24.0929 39.7186 23.984L39.7991 23.5511L39.7996 23.549ZM40.3294 24.5397C40.422 24.1802 40.4965 23.8392 40.553 23.5167C40.6042 23.2362 40.6408 22.9533 40.6627 22.669C40.6971 22.6743 40.7289 22.6775 40.7564 22.6801C40.784 22.6828 40.8094 22.6838 40.8306 22.6838C40.8518 22.6838 40.8868 22.6838 40.9159 22.6801C40.9451 22.6764 40.9763 22.6743 41.0086 22.669C40.9893 22.7275 40.9734 22.7872 40.961 22.8476C40.9477 22.9085 40.9366 22.9736 40.9281 23.042C40.9999 22.9252 41.0919 22.8222 41.1999 22.7379C41.2792 22.6732 41.3774 22.636 41.4796 22.6319C41.4963 22.6319 41.513 22.6331 41.5294 22.6356C41.5474 22.6385 41.565 22.6426 41.5824 22.6478C41.5666 22.7014 41.5541 22.7559 41.5448 22.811C41.5366 22.8647 41.5311 22.9188 41.5284 22.9731C41.4849 22.9641 41.4494 22.9577 41.4224 22.953C41.3974 22.9489 41.372 22.9468 41.3466 22.9466C41.17 22.9466 41.0358 23.0574 40.944 23.2788C40.8112 23.6875 40.7304 24.1114 40.7035 24.5403C40.66 24.5344 40.6229 24.5297 40.5927 24.527C40.5657 24.5238 40.5384 24.522 40.5112 24.5217C40.4922 24.5219 40.4733 24.5232 40.4545 24.5254C40.4312 24.5254 40.3909 24.5323 40.3321 24.5403L40.3294 24.5397ZM42.8057 24.2674C42.7154 24.3664 42.6077 24.448 42.4878 24.5079C42.3772 24.5592 42.2564 24.5849 42.1345 24.5832C42.0439 24.5862 41.9538 24.5685 41.8711 24.5313C41.7884 24.4941 41.7154 24.4384 41.6577 24.3686C41.5306 24.2064 41.4664 24.0038 41.477 23.798C41.4669 23.4929 41.5687 23.1947 41.7631 22.9593C41.8483 22.8527 41.9568 22.767 42.0802 22.7086C42.2036 22.6502 42.3386 22.6207 42.4751 22.6224C42.5989 22.619 42.7204 22.6563 42.8211 22.7283C42.9213 22.8028 42.9955 22.907 43.033 23.0261L43.1209 22.5932C43.1596 22.3999 43.193 22.2224 43.2216 22.0634C43.2502 21.9045 43.2746 21.7525 43.2963 21.6089C43.3429 21.6179 43.3795 21.6237 43.406 21.6269C43.4274 21.6295 43.449 21.6309 43.4706 21.6311C43.5002 21.6308 43.5297 21.6289 43.5591 21.6253C43.593 21.6216 43.6312 21.6163 43.672 21.6083C43.5413 22.0827 43.4258 22.5659 43.3254 23.0579C43.2251 23.5499 43.1413 24.0424 43.0738 24.5355C43.041 24.5318 43.0113 24.5286 42.9832 24.5265C42.9551 24.5244 42.9302 24.5265 42.9111 24.5265C42.8921 24.5265 42.8629 24.5265 42.8327 24.5265C42.8025 24.5265 42.7692 24.5318 42.7321 24.5355L42.8031 24.2632L42.8057 24.2674ZM42.5122 22.846C42.4129 22.848 42.3159 22.8759 42.2308 22.927C42.1456 22.9781 42.0753 23.0507 42.0269 23.1374C41.8915 23.3554 41.8242 23.6088 41.8335 23.8653C41.8244 24.0028 41.8617 24.1394 41.9395 24.2531C41.9765 24.2979 42.0235 24.3333 42.0766 24.3566C42.1298 24.3799 42.1878 24.3903 42.2457 24.3872C42.3473 24.3865 42.4469 24.3593 42.5347 24.3083C42.6225 24.2573 42.6955 24.1842 42.7464 24.0963C42.8844 23.8771 42.9529 23.6213 42.9429 23.3625C42.9523 23.2256 42.9131 23.0898 42.8322 22.9789C42.7923 22.9338 42.7427 22.8984 42.6871 22.8753C42.6314 22.8523 42.5713 22.8422 42.5111 22.846H42.5122Z" fill="white"/>
</g>
<g clip-path="url(#clip5_972_392494)">
<path d="M69.0543 16.5H52.0556C50.5926 16.5 49.4066 17.686 49.4066 19.149V27.851C49.4066 29.314 50.5926 30.5 52.0556 30.5H69.0543C70.5173 30.5 71.7033 29.314 71.7033 27.851V19.149C71.7033 17.686 70.5173 16.5 69.0543 16.5Z" fill="#EB5D15"/>
<path d="M55.893 21.0256V22.6997H54.2787V21.0256H53.1428V25.5999H54.2787V23.6868H55.893V25.6004H57.0289V21.0256H55.893Z" fill="#FFFBFF"/>
<path d="M61.0506 22.1615C60.0339 22.1615 60.0042 22.6997 60.0042 22.6997V22.2812H59.1072V24.8242C58.5541 24.8242 58.569 24.2113 58.569 24.2113V22.2828H57.4628V24.1779C57.4628 25.602 59.0622 25.6915 59.0622 25.6915V26.8571H60.1536V25.7196C62.2469 25.7196 62.4847 24.8375 62.4847 23.9713C62.4847 23.105 62.0673 22.1615 61.0506 22.1615ZM60.5425 24.8227H60.1536V23.4621C60.1745 23.3307 60.2451 23.2124 60.3508 23.1317C60.4566 23.051 60.5893 23.0142 60.7215 23.0287C61.245 23.0287 61.3647 23.6868 61.3647 24.0301C61.3647 24.3734 61.2598 24.8227 60.5425 24.8227Z" fill="white"/>
<path d="M58.5706 21.3922C58.5706 21.509 58.5359 21.6233 58.471 21.7204C58.4061 21.8176 58.3138 21.8933 58.2058 21.938C58.0978 21.9827 57.979 21.9944 57.8644 21.9715C57.7498 21.9487 57.6446 21.8924 57.562 21.8097C57.4794 21.727 57.4232 21.6217 57.4004 21.5071C57.3777 21.3925 57.3895 21.2737 57.4343 21.1658C57.4791 21.0578 57.5549 20.9656 57.6521 20.9008C57.7493 20.8359 57.8635 20.8014 57.9804 20.8015C58.058 20.8015 58.1348 20.8167 58.2064 20.8464C58.278 20.8761 58.3431 20.9196 58.3979 20.9745C58.4527 21.0294 58.4962 21.0945 58.5258 21.1662C58.5555 21.2378 58.5707 21.3146 58.5706 21.3922Z" fill="#FCCF11"/>
<path d="M64.2649 22.1615C62.5457 22.1615 62.6506 24.1048 62.6506 24.0751C62.6376 24.2976 62.6729 24.5203 62.754 24.728C62.8351 24.9356 62.9602 25.1232 63.1206 25.278C63.2811 25.4328 63.473 25.5511 63.6834 25.6247C63.8938 25.6984 64.1176 25.7257 64.3396 25.7048C64.7844 25.6942 65.2242 25.6082 65.6402 25.4505L65.5343 24.7029C65.5343 24.7029 63.7701 25.1797 63.6212 24.2547H65.7589C65.7589 24.2547 65.9841 22.1615 64.2649 22.1615ZM64.8625 23.522H63.6069C63.6069 23.522 63.5618 22.8195 64.2347 22.8195C64.9075 22.8195 64.8625 23.522 64.8625 23.522Z" fill="#FFFBFF"/>
<path d="M67.023 22.2812H66.0312V25.5999H67.1968V23.6868C67.1968 23.6868 67.1369 22.998 68.0938 23.1935V22.162C67.8798 22.1134 67.6557 22.1405 67.4595 22.2386C67.2633 22.3368 67.1072 22.4999 67.0177 22.7003L67.023 22.2812Z" fill="#FFFBFF"/>
</g>
<g clip-path="url(#clip6_972_392494)">
<path d="M73.7032 19.149V27.851C73.7032 29.314 74.8892 30.5 76.3523 30.5H93.3509C94.8139 30.5 95.9999 29.314 95.9999 27.851V19.149C95.9999 17.686 94.8139 16.5 93.3509 16.5H76.3523C74.8892 16.5 73.7032 17.686 73.7032 19.149Z" fill="black"/>
<path d="M79.6175 21.9808C79.8325 21.9091 80.0604 21.8839 80.2859 21.9068C80.5114 21.9296 80.7296 22.0001 80.9259 22.1134C81.1222 22.2268 81.2922 22.3805 81.4248 22.5644C81.5573 22.7483 81.6494 22.9582 81.6948 23.1803L82.7926 22.9567C82.7152 22.5793 82.5587 22.2226 82.3334 21.9101C82.1082 21.5975 81.8192 21.3364 81.4856 21.1437C81.1519 20.9511 80.7812 20.8313 80.3979 20.7924C80.0147 20.7535 79.6275 20.7963 79.262 20.918L79.6175 21.9808Z" fill="#FFF100"/>
<path d="M78.3215 25.5389L79.0632 24.6992C78.8933 24.549 78.7572 24.3643 78.664 24.1576C78.5708 23.9508 78.5226 23.7266 78.5226 23.4997C78.5226 23.2729 78.5708 23.0487 78.664 22.8419C78.7572 22.6351 78.8933 22.4505 79.0632 22.3003L78.3215 21.4611C78.0324 21.7165 77.801 22.0304 77.6425 22.3821C77.4839 22.7337 77.402 23.1151 77.402 23.5008C77.402 23.8865 77.4839 24.2679 77.6425 24.6195C77.801 24.9712 78.0324 25.2851 78.3215 25.5405V25.5389Z" fill="#00A3DF"/>
<path d="M81.6948 23.8219C81.6493 24.0438 81.5571 24.2536 81.4245 24.4374C81.2919 24.6212 81.1218 24.7747 80.9255 24.8879C80.7292 25.0011 80.5111 25.0714 80.2856 25.0941C80.0602 25.1168 79.8324 25.0915 79.6175 25.0197L79.262 26.0825C79.6273 26.2044 80.0143 26.2474 80.3975 26.2088C80.7807 26.1702 81.1514 26.0508 81.485 25.8584C81.8187 25.6661 82.1078 25.4052 82.3333 25.093C82.5588 24.7807 82.7155 24.4242 82.7931 24.047L81.6948 23.8219Z" fill="#EE4023"/>
<path d="M86.4487 24.5726C86.2921 24.7271 86.0877 24.824 85.869 24.8472C85.6502 24.8705 85.43 24.8189 85.2444 24.7008L84.881 25.2799C85.1966 25.4788 85.5701 25.5655 85.941 25.526C86.312 25.4864 86.6588 25.323 86.9255 25.0621L86.4487 24.5726Z" fill="white"/>
<path d="M85.7907 22.2134C85.4894 22.2089 85.1925 22.2863 84.9319 22.4376C84.6713 22.5888 84.4567 22.808 84.3111 23.0719C84.1655 23.3357 84.0944 23.6341 84.1054 23.9352C84.1163 24.2364 84.209 24.5288 84.3735 24.7813L87.3822 23.495C87.2976 23.135 87.0954 22.8135 86.8075 22.5813C86.5196 22.3492 86.1626 22.2197 85.7928 22.2134M84.7952 23.9776C84.7906 23.9386 84.7887 23.8993 84.7893 23.86C84.7923 23.6609 84.8561 23.4675 84.972 23.3056C85.0879 23.1437 85.2505 23.021 85.4381 22.9541C85.6256 22.8871 85.8291 22.8791 86.0214 22.9309C86.2136 22.9828 86.3854 23.0922 86.5138 23.2444L84.7952 23.9776Z" fill="white"/>
<path d="M88.3263 21.4642V24.6717L88.8826 24.9027L88.6177 25.5352L88.0672 25.3064C87.9567 25.2583 87.8625 25.1791 87.796 25.0785C87.7225 24.9591 87.6857 24.8208 87.69 24.6807V21.4642H88.3263Z" fill="white"/>
<path d="M90.3326 22.9472C90.4639 22.9034 90.6029 22.8881 90.7406 22.902C90.8782 22.916 91.0113 22.959 91.1311 23.0282C91.251 23.0974 91.3547 23.1912 91.4356 23.3034C91.5165 23.4157 91.5727 23.5438 91.6004 23.6793L92.2712 23.5426C92.2241 23.3122 92.1287 23.0944 91.9913 22.9036C91.8538 22.7128 91.6774 22.5533 91.4738 22.4357C91.2701 22.3181 91.0439 22.245 90.8099 22.2213C90.5759 22.1976 90.3396 22.2238 90.1165 22.2981L90.3326 22.9472Z" fill="white"/>
<path d="M89.5416 25.1188L89.9946 24.6065C89.891 24.5148 89.8081 24.4021 89.7512 24.2759C89.6944 24.1497 89.665 24.0129 89.665 23.8746C89.665 23.7362 89.6944 23.5994 89.7512 23.4732C89.8081 23.347 89.891 23.2344 89.9946 23.1426L89.5416 22.6325C89.3652 22.7884 89.2239 22.98 89.1272 23.1946C89.0304 23.4093 88.9803 23.642 88.9803 23.8775C88.9803 24.1129 89.0304 24.3457 89.1272 24.5603C89.2239 24.775 89.3652 24.9666 89.5416 25.1225V25.1188Z" fill="white"/>
<path d="M91.5999 24.0709C91.5722 24.2064 91.516 24.3345 91.4351 24.4467C91.3542 24.5589 91.2504 24.6527 91.1306 24.7218C91.0107 24.7909 90.8776 24.8338 90.7399 24.8476C90.6023 24.8614 90.4633 24.8459 90.3321 24.802L90.1149 25.451C90.3379 25.5255 90.5743 25.5518 90.8082 25.5282C91.0422 25.5047 91.2685 25.4318 91.4723 25.3143C91.676 25.1968 91.8525 25.0375 91.9901 24.8468C92.1277 24.6561 92.2233 24.4384 92.2706 24.2081L91.5999 24.0709Z" fill="white"/>
</g>
<defs>
<clipPath id="clip0_972_392494">
<rect width="22.2967" height="14" fill="white" transform="translate(0.813232 0.5)"/>
</clipPath>
<clipPath id="clip1_972_392494">
<rect width="22.2967" height="14" fill="white" transform="translate(25.1099 0.5)"/>
</clipPath>
<clipPath id="clip2_972_392494">
<rect width="22.2967" height="14" fill="white" transform="translate(49.4066 0.5)"/>
</clipPath>
<clipPath id="clip3_972_392494">
<rect width="22.2967" height="14" fill="white" transform="translate(73.7032 0.5)"/>
</clipPath>
<clipPath id="clip4_972_392494">
<rect width="22.2967" height="14" fill="white" transform="translate(25.1099 16.5)"/>
</clipPath>
<clipPath id="clip5_972_392494">
<rect width="22.2967" height="14" fill="white" transform="translate(49.4066 16.5)"/>
</clipPath>
<clipPath id="clip6_972_392494">
<rect width="22.2967" height="14" fill="white" transform="translate(73.7032 16.5)"/>
</clipPath>
</defs>
</svg>
