<svg width="60" height="60" viewBox="0 0 60 60" fill="none" xmlns="http://www.w3.org/2000/svg">
<path fill-rule="evenodd" clip-rule="evenodd" d="M5 15.75C5 14.2312 6.23122 13 7.75 13H52.25C53.7688 13 55 14.2312 55 15.75V44.25C55 45.7688 53.7688 47 52.25 47H48V51.25C48 52.7688 46.7688 54 45.25 54H30.75C29.2312 54 28 52.7688 28 51.25V47H7.75C6.23122 47 5 45.7688 5 44.25V15.75ZM52.25 45.5H48V41.25C48 39.7312 46.7688 38.5 45.25 38.5H43V36C43 33.2386 40.7614 31 38 31C35.2386 31 33 33.2386 33 36V38.5H30.75C29.2312 38.5 28 39.7312 28 41.25V45.5H7.75C7.05964 45.5 6.5 44.9404 6.5 44.25V26.5H53.5V44.25C53.5 44.9404 52.9404 45.5 52.25 45.5ZM53.5 25H6.5V20.5H53.5V25ZM53.5 19H6.5V15.75C6.5 15.0596 7.05964 14.5 7.75 14.5H52.25C52.9404 14.5 53.5 15.0596 53.5 15.75V19ZM41.5 38.5V36C41.5 34.067 39.933 32.5 38 32.5C36.067 32.5 34.5 34.067 34.5 36V38.5H41.5ZM33.75 40H30.75C30.0596 40 29.5 40.5596 29.5 41.25V51.25C29.5 51.9404 30.0596 52.5 30.75 52.5H45.25C45.9404 52.5 46.5 51.9404 46.5 51.25V41.25C46.5 40.5596 45.9404 40 45.25 40H42.25H33.75ZM38 44.25C37.4477 44.25 37 44.6977 37 45.25C37 45.8023 37.4477 46.25 38 46.25C38.5523 46.25 39 45.8023 39 45.25C39 44.6977 38.5523 44.25 38 44.25ZM35.5 45.25C35.5 43.8693 36.6193 42.75 38 42.75C39.3807 42.75 40.5 43.8693 40.5 45.25C40.5 46.3694 39.7643 47.317 38.75 47.6356V49.5C38.75 49.9142 38.4142 50.25 38 50.25C37.5858 50.25 37.25 49.9142 37.25 49.5V47.6356C36.2357 47.317 35.5 46.3694 35.5 45.25Z" fill="black"/>
</svg>
