<svg width="24" height="24" viewBox="0 0 24 24" fill="none" xmlns="http://www.w3.org/2000/svg">
<path fill-rule="evenodd" clip-rule="evenodd" d="M16.0849 3.58182C16.7422 4.53001 17.9776 5.76786 19.2253 6.36641C19.3407 6.42179 19.4332 6.49668 19.484 6.55842C19.4923 6.56851 19.4983 6.57669 19.5026 6.58298C19.5011 7.43545 19.4994 8.58045 19.4994 9.08354C19.4994 16.1292 14.6036 19.1173 12.1216 20.6323C12.0264 20.6903 11.9349 20.7462 11.8472 20.8001C11.76 20.7464 11.6688 20.6908 11.574 20.6329C9.09372 19.1184 4.2 16.1303 4.2 9.08354V6.58231C4.20446 6.57561 4.21092 6.56672 4.22002 6.55562C4.27189 6.49239 4.36583 6.41598 4.48287 6.3589C5.72023 5.75543 6.94728 4.51579 7.60354 3.5834C7.68627 3.46587 7.80196 3.34961 7.91728 3.27183C8.0009 3.21542 8.04825 3.20261 8.05745 3.20012L8.0579 3.2H15.6466C15.6568 3.2029 15.7001 3.2162 15.7754 3.26794C15.8868 3.34443 16.0009 3.46073 16.0849 3.58182L17.071 2.89811L16.0849 3.58182ZM19.7443 5.28447C18.736 4.80075 17.6475 3.72966 17.071 2.89811C16.7564 2.44424 16.2129 2 15.6606 2H8.04601C7.49372 2 6.94013 2.44108 6.62225 2.89271C6.04163 3.71762 4.95742 4.79235 3.95685 5.28034C3.46045 5.52243 3 5.98903 3 6.54132V9.08354C3 16.8142 8.43191 20.1238 10.9283 21.6449L10.9288 21.6452C11.0334 21.7089 11.1328 21.7695 11.2264 21.8271C11.6025 22.0585 12.0918 22.0585 12.4679 21.8272C12.562 21.7693 12.6618 21.7085 12.7669 21.6445L12.7672 21.6443C15.265 20.123 20.6994 16.8132 20.6994 9.08354C20.6994 8.57344 20.7012 7.40009 20.7026 6.54322C20.7036 5.9902 20.2429 5.52366 19.7443 5.28447ZM19.5107 6.59634L19.5118 6.59867C19.5118 6.59866 19.5117 6.59842 19.5115 6.59793C19.5113 6.59754 19.5111 6.59702 19.5107 6.59634ZM4.19109 6.59776C4.19104 6.59776 4.19135 6.59697 4.19216 6.59537L4.19109 6.59776ZM16.0987 8.89173C16.3151 8.64073 16.287 8.26187 16.036 8.04552C15.785 7.82918 15.4061 7.85727 15.1898 8.10827L11.3086 12.6111L8.92498 10.804C8.66092 10.6038 8.28457 10.6556 8.08437 10.9196C7.88418 11.1837 7.93595 11.5601 8.20002 11.7603L11.0327 13.9078C11.2852 14.0992 11.6429 14.0614 11.8497 13.8214L16.0987 8.89173Z" fill="black"/>
</svg>
