<svg width="49" height="48" viewBox="0 0 49 48" fill="none" xmlns="http://www.w3.org/2000/svg">
<path fill-rule="evenodd" clip-rule="evenodd" d="M16.3984 2H17.1484H31.6484H32.3984V2.75V3.55902H32.3984H41.6484H42.3984V4.30902V45.2502V46.0002H41.6484H7.14844H6.39844V45.2502V4.30902V3.55902H7.14844H16.3984V2.75V2ZM32.3984 7.25V5.05902H32.3984H40.8984V44.5002H7.89844V5.05902H16.3984V7.25V8H17.1484H31.6484H32.3984V7.25ZM17.8984 3.5V6.5H30.8984V3.5H17.8984ZM13.3984 16H14.1484H34.6484H35.3984V17.5H34.6484H14.1484H13.3984V16ZM14.1484 23H13.3984V24.5H14.1484H34.6484H35.3984V23H34.6484H14.1484ZM14.1484 30H13.3984V31.5H14.1484H27.6484H28.3984V30H27.6484H14.1484Z" fill="black"/>
</svg>
