<svg width="199" height="124" viewBox="0 0 199 124" fill="none" xmlns="http://www.w3.org/2000/svg">
<path d="M14.5 10C14.5 4.47715 18.9772 0 24.5 0H174.5C180.023 0 184.5 4.47715 184.5 10V124H14.5V10Z" fill="#F6F6F6"/>
<path d="M56.0462 45.7143V29.0929C56.0462 27.7232 54.9358 26.6128 53.5661 26.6128C52.1963 26.6128 51.0859 27.7232 51.0859 29.0929V45.7143C51.0859 47.084 52.1963 48.1944 53.5661 48.1944C54.9358 48.1944 56.0462 47.084 56.0462 45.7143Z" fill="black"/>
<path d="M68.6509 29.0312C68.834 27.7041 67.7301 26.6128 66.3904 26.6128C65.0507 26.6128 63.9896 27.7088 63.7356 29.0242C63.1534 32.0402 61.482 34.7209 58.9609 36.6204C57.9003 37.4158 57.678 38.9168 58.4623 39.9856L63.7485 47.1884C64.2126 47.8208 64.9502 48.1944 65.7347 48.1944C67.7534 48.1944 68.9153 45.8997 67.7205 44.2726L65.8284 41.6957C64.6322 40.0666 64.8583 37.8326 65.9733 36.1468C67.3787 34.0222 68.2963 31.6016 68.6509 29.0312Z" fill="black"/>
<path d="M76.2776 45.8557V28.9515C76.2776 27.6599 75.2305 26.6128 73.9388 26.6128C72.6472 26.6128 71.6001 27.6599 71.6001 28.9515V45.8557C71.6001 47.1473 72.6472 48.1944 73.9388 48.1944C75.2305 48.1944 76.2776 47.1473 76.2776 45.8557Z" fill="black"/>
<path d="M89.9206 32.8567C89.7386 32.8567 89.591 33.0043 89.591 33.1863C89.591 33.4519 89.2906 33.6115 89.0605 33.4789C87.9114 32.8166 86.5808 32.4434 85.1529 32.4434C80.8018 32.4434 77.2773 35.9678 77.2773 40.3189C77.2773 44.67 80.8018 48.1944 85.1529 48.1944C86.5808 48.1944 87.9114 47.8213 89.0605 47.1589C89.2906 47.0263 89.591 47.1859 89.591 47.4515C89.591 47.6335 89.7386 47.7811 89.9206 47.7811H91.821C93.0526 47.7811 94.0509 46.7827 94.0509 45.5511V35.0867C94.0509 33.8551 93.0526 32.8567 91.821 32.8567H89.9206ZM85.5227 44.1479C83.2819 44.1479 81.4762 42.4292 81.4762 40.3189C81.4762 38.2086 83.2819 36.4899 85.5227 36.4899C87.7636 36.4899 89.5693 38.2086 89.5693 40.3189C89.5693 42.4292 87.7636 44.1479 85.5227 44.1479Z" fill="black"/>
<path d="M100.68 34.2366C100.289 34.4966 99.62 34.2332 99.62 33.7631C99.62 33.4908 99.3992 33.27 99.1269 33.27H97.3356C96.074 33.27 95.0513 34.2928 95.0513 35.5544V45.8992C95.0513 47.1668 96.0789 48.1944 97.3465 48.1944C98.6141 48.1944 99.6417 47.1668 99.6417 45.8992V41.2326C99.6417 38.883 102.187 37.6211 103.949 37.6211C103.973 37.6211 103.993 37.6017 103.993 37.5776V34.5286C103.993 33.8335 103.424 33.2574 102.743 33.3959C101.979 33.5513 101.272 33.8438 100.68 34.2366Z" fill="black"/>
<path d="M114.043 32.835C112.67 32.835 111.349 33.1571 110.297 34.0097C109.987 34.261 109.431 34.0603 109.431 33.6611C109.431 33.4331 109.246 33.2483 109.018 33.2483H107.212C105.986 33.2483 104.993 34.2418 104.993 35.4674V45.921C104.993 47.1646 106.001 48.1727 107.244 48.1727C108.488 48.1727 109.496 47.1646 109.496 45.921V40.3407C109.496 38.0781 111.019 36.9685 112.846 36.9685C114.804 36.9685 115.936 38.1433 115.936 40.3189V45.9645C115.936 47.1961 116.934 48.1945 118.166 48.1945C119.397 48.1945 120.396 47.1961 120.396 45.9645V38.6872C120.396 35.2063 117.633 32.835 114.043 32.835Z" fill="black"/>
<path d="M134.039 32.8567C133.857 32.8567 133.709 33.0043 133.709 33.1863C133.709 33.4519 133.409 33.6115 133.179 33.4789C132.03 32.8166 130.699 32.4434 129.271 32.4434C124.92 32.4434 121.396 35.9678 121.396 40.3189C121.396 44.67 124.92 48.1944 129.271 48.1944C130.699 48.1944 132.03 47.8213 133.179 47.1589C133.409 47.0263 133.709 47.1859 133.709 47.4515C133.709 47.6335 133.857 47.7811 134.039 47.7811H135.939C137.171 47.7811 138.169 46.7827 138.169 45.5511V35.0867C138.169 33.8551 137.171 32.8567 135.939 32.8567H134.039ZM129.641 44.1479C127.4 44.1479 125.594 42.4292 125.594 40.3189C125.594 38.2086 127.4 36.4899 129.641 36.4899C131.882 36.4899 133.687 38.2086 133.687 40.3189C133.709 42.4292 131.882 44.1479 129.641 44.1479Z" fill="black"/>
<path d="M140.669 46.8935C140.669 46.6759 140.517 46.5454 140.278 46.5454C140.049 46.5454 139.864 46.7305 139.864 46.9588V47.5788C139.864 47.6329 139.908 47.6767 139.962 47.6767C140.016 47.6767 140.06 47.6329 140.06 47.5788V47.3941C140.06 47.3219 140.119 47.2633 140.191 47.2633C140.243 47.2633 140.291 47.2949 140.311 47.3434L140.426 47.6156C140.442 47.6526 140.478 47.6767 140.518 47.6767C140.59 47.6767 140.638 47.6035 140.61 47.5376L140.548 47.395C140.506 47.2966 140.558 47.1868 140.616 47.0966C140.651 47.0408 140.669 46.9731 140.669 46.8935ZM140.278 47.0675H140.234C140.138 47.0675 140.06 46.9896 140.06 46.8935C140.06 46.7974 140.138 46.7195 140.234 46.7195H140.278C140.408 46.7195 140.473 46.7847 140.473 46.8935C140.473 47.0023 140.43 47.0675 140.278 47.0675Z" fill="black"/>
<path d="M140.235 46.0625C139.648 46.0625 139.169 46.5411 139.169 47.1285C139.191 47.7159 139.648 48.1946 140.235 48.1946C140.823 48.1946 141.301 47.7159 141.301 47.1285C141.301 46.5411 140.823 46.0625 140.235 46.0625ZM140.235 47.9988C139.757 47.9988 139.387 47.6072 139.387 47.1285C139.387 46.6499 139.779 46.2583 140.235 46.2583C140.714 46.2583 141.084 46.6499 141.084 47.1285C141.084 47.6072 140.692 47.9988 140.235 47.9988Z" fill="black"/>
<path d="M145.108 42.5815C143.563 42.5815 142.301 43.8434 142.301 45.388C142.301 46.9327 143.563 48.1945 145.108 48.1945C146.652 48.1945 147.914 46.9327 147.914 45.388C147.914 43.8216 146.652 42.5815 145.108 42.5815Z" fill="black"/>
<path d="M55.3414 61.3743V64.1943H54.3014V61.3843C54.2214 61.2577 54.1147 61.0943 53.9814 60.8943C53.8547 60.6943 53.718 60.4743 53.5714 60.2343C53.4247 59.9943 53.2714 59.7477 53.1114 59.4943C52.9514 59.2343 52.798 58.9843 52.6514 58.7443C52.5047 58.5043 52.368 58.2877 52.2414 58.0943C52.1214 57.8943 52.0214 57.731 51.9414 57.6043H53.1614L54.7914 60.4143H54.8714L56.5014 57.6043H57.7014L55.3414 61.3743ZM60.1733 64.3043C59.7667 64.3043 59.4267 64.251 59.1533 64.1443C58.8867 64.031 58.67 63.871 58.5033 63.6643C58.3433 63.451 58.23 63.1977 58.1633 62.9043C58.0967 62.6043 58.0633 62.2643 58.0633 61.8843C58.0633 61.0777 58.2467 60.481 58.6133 60.0943C58.98 59.701 59.5733 59.5043 60.3933 59.5043C60.7933 59.5043 61.13 59.561 61.4033 59.6743C61.6767 59.781 61.8933 59.941 62.0533 60.1543C62.22 60.361 62.3367 60.6143 62.4033 60.9143C62.4767 61.2143 62.5133 61.5543 62.5133 61.9343C62.5133 62.741 62.3233 63.3377 61.9433 63.7243C61.57 64.111 60.98 64.3043 60.1733 64.3043ZM60.1733 63.5743C60.6733 63.5743 61.0133 63.431 61.1933 63.1443C61.3733 62.851 61.4633 62.4177 61.4633 61.8443C61.4633 61.6243 61.4467 61.4177 61.4133 61.2243C61.3867 61.0243 61.3333 60.851 61.2533 60.7043C61.1733 60.551 61.0633 60.431 60.9233 60.3443C60.7833 60.2577 60.6067 60.2143 60.3933 60.2143C59.9 60.2143 59.5633 60.3643 59.3833 60.6643C59.2033 60.9643 59.1133 61.3977 59.1133 61.9643C59.1133 62.1843 59.1267 62.3943 59.1533 62.5943C59.18 62.7877 59.2333 62.9577 59.3133 63.1043C59.3933 63.251 59.5 63.3677 59.6333 63.4543C59.7733 63.5343 59.9533 63.5743 60.1733 63.5743ZM67.3293 62.9743L67.4193 64.1943H66.4693L66.4193 63.8343C66.3327 63.8943 66.2427 63.9477 66.1493 63.9943C66.056 64.041 65.9627 64.081 65.8693 64.1143C65.536 64.241 65.206 64.3043 64.8793 64.3043C64.5793 64.3043 64.3327 64.2677 64.1393 64.1943C63.9527 64.1143 63.8027 64.0043 63.6893 63.8643C63.5827 63.7177 63.506 63.541 63.4593 63.3343C63.4193 63.1277 63.3993 62.891 63.3993 62.6243V59.6143H64.4293V62.4143C64.4293 62.5677 64.436 62.711 64.4493 62.8443C64.4693 62.9777 64.506 63.0943 64.5593 63.1943C64.6127 63.2877 64.6893 63.3643 64.7893 63.4243C64.8893 63.4777 65.026 63.5043 65.1993 63.5043C65.386 63.5043 65.556 63.481 65.7093 63.4343C65.8693 63.381 66.0127 63.3143 66.1393 63.2343C66.1927 63.1943 66.2493 63.1543 66.3093 63.1143V59.6143H67.3293V62.9743ZM69.3382 59.6143L69.3982 60.1643C69.5515 59.9843 69.7182 59.8477 69.8982 59.7543C70.2048 59.5877 70.5148 59.5043 70.8282 59.5043C70.9748 59.5043 71.1082 59.5177 71.2282 59.5443C71.3482 59.571 71.4482 59.601 71.5282 59.6343L71.2682 60.4643C71.1282 60.3843 70.9415 60.3443 70.7082 60.3443C70.4415 60.3443 70.1948 60.4177 69.9682 60.5643C69.8282 60.651 69.6848 60.771 69.5382 60.9243V64.1943H68.5182V60.8943L68.3882 59.6143H69.3382ZM75.9322 61.3043C75.9855 61.331 76.0588 61.361 76.1522 61.3943C76.2455 61.4277 76.3388 61.461 76.4322 61.4943L77.0022 61.6843C77.2888 61.7643 77.5288 61.901 77.7222 62.0943C77.9222 62.281 78.0222 62.551 78.0222 62.9043C78.0222 63.3843 77.8488 63.7377 77.5022 63.9643C77.1622 64.191 76.6788 64.3043 76.0522 64.3043C75.7055 64.3043 75.3855 64.2743 75.0922 64.2143C74.8055 64.161 74.5455 64.081 74.3122 63.9743L74.6322 63.2343C75.0055 63.441 75.4788 63.5443 76.0522 63.5443C76.3322 63.5443 76.5622 63.5077 76.7422 63.4343C76.9288 63.361 77.0222 63.2177 77.0222 63.0043C77.0222 62.7643 76.8288 62.571 76.4422 62.4243C76.2622 62.371 76.0755 62.3143 75.8822 62.2543C75.6888 62.1877 75.5122 62.1243 75.3522 62.0643C75.0788 61.971 74.8488 61.8343 74.6622 61.6543C74.4755 61.4743 74.3822 61.211 74.3822 60.8643C74.3822 60.6243 74.4322 60.421 74.5322 60.2543C74.6322 60.081 74.7688 59.941 74.9422 59.8343C75.1155 59.721 75.3188 59.6377 75.5522 59.5843C75.7855 59.531 76.0355 59.5043 76.3022 59.5043C76.6688 59.5043 76.9855 59.5343 77.2522 59.5943C77.5255 59.6477 77.7688 59.7177 77.9822 59.8043L77.6622 60.5443C77.2888 60.351 76.8355 60.2543 76.3022 60.2543C75.9755 60.2543 75.7355 60.301 75.5822 60.3943C75.4288 60.4877 75.3522 60.611 75.3522 60.7643C75.3522 60.8843 75.3955 60.9843 75.4822 61.0643C75.5755 61.1443 75.7255 61.2243 75.9322 61.3043ZM81.8483 64.1943V61.4043C81.8483 61.251 81.8383 61.1077 81.8183 60.9743C81.805 60.841 81.7683 60.7277 81.7083 60.6343C81.655 60.5343 81.575 60.4577 81.4683 60.4043C81.3683 60.351 81.235 60.3243 81.0683 60.3243C80.875 60.3243 80.6983 60.351 80.5383 60.4043C80.3783 60.451 80.235 60.5143 80.1083 60.5943L79.9283 60.7143V64.1943H78.8983V57.3943L79.9283 57.2643V59.9043C80.0683 59.8177 80.2183 59.7477 80.3783 59.6943C80.725 59.5743 81.055 59.5143 81.3683 59.5143C81.6683 59.5143 81.915 59.551 82.1083 59.6243C82.3083 59.6977 82.4617 59.8077 82.5683 59.9543C82.6817 60.0943 82.7583 60.2677 82.7983 60.4743C82.845 60.681 82.8683 60.9177 82.8683 61.1843V64.1943H81.8483ZM85.8667 64.3043C85.46 64.3043 85.12 64.251 84.8467 64.1443C84.58 64.031 84.3634 63.871 84.1967 63.6643C84.0367 63.451 83.9234 63.1977 83.8567 62.9043C83.79 62.6043 83.7567 62.2643 83.7567 61.8843C83.7567 61.0777 83.94 60.481 84.3067 60.0943C84.6734 59.701 85.2667 59.5043 86.0867 59.5043C86.4867 59.5043 86.8234 59.561 87.0967 59.6743C87.37 59.781 87.5867 59.941 87.7467 60.1543C87.9134 60.361 88.03 60.6143 88.0967 60.9143C88.17 61.2143 88.2067 61.5543 88.2067 61.9343C88.2067 62.741 88.0167 63.3377 87.6367 63.7243C87.2634 64.111 86.6734 64.3043 85.8667 64.3043ZM85.8667 63.5743C86.3667 63.5743 86.7067 63.431 86.8867 63.1443C87.0667 62.851 87.1567 62.4177 87.1567 61.8443C87.1567 61.6243 87.14 61.4177 87.1067 61.2243C87.08 61.0243 87.0267 60.851 86.9467 60.7043C86.8667 60.551 86.7567 60.431 86.6167 60.3443C86.4767 60.2577 86.3 60.2143 86.0867 60.2143C85.5934 60.2143 85.2567 60.3643 85.0767 60.6643C84.8967 60.9643 84.8067 61.3977 84.8067 61.9643C84.8067 62.1843 84.82 62.3943 84.8467 62.5943C84.8734 62.7877 84.9267 62.9577 85.0067 63.1043C85.0867 63.251 85.1934 63.3677 85.3267 63.4543C85.4667 63.5343 85.6467 63.5743 85.8667 63.5743ZM89.9427 59.6143L90.0227 59.9143C90.1894 59.8077 90.366 59.7177 90.5527 59.6443C90.8127 59.551 91.0927 59.5043 91.3927 59.5043C92.0394 59.5043 92.516 59.7077 92.8227 60.1143C93.136 60.5143 93.2927 61.0777 93.2927 61.8043C93.2927 62.171 93.2527 62.5077 93.1727 62.8143C93.0927 63.121 92.966 63.3843 92.7927 63.6043C92.6194 63.8243 92.3927 63.9977 92.1127 64.1243C91.8327 64.2443 91.4927 64.3043 91.0927 64.3043C90.866 64.3043 90.6594 64.2743 90.4727 64.2143C90.3794 64.1943 90.276 64.1577 90.1627 64.1043V66.3243L89.1427 66.4543V60.8043L89.0627 59.6143H89.9427ZM90.4227 63.4843C90.6027 63.5377 90.7727 63.5643 90.9327 63.5643C91.3327 63.5643 91.6494 63.4343 91.8827 63.1743C92.116 62.9143 92.2327 62.4743 92.2327 61.8543C92.2327 61.621 92.2127 61.4077 92.1727 61.2143C92.1327 61.0143 92.066 60.8443 91.9727 60.7043C91.8794 60.5643 91.756 60.4543 91.6027 60.3743C91.456 60.2943 91.276 60.2543 91.0627 60.2543C90.816 60.2543 90.5994 60.3077 90.4127 60.4143C90.3727 60.4343 90.3327 60.461 90.2927 60.4943C90.2527 60.521 90.2094 60.551 90.1627 60.5843V63.3543C90.2094 63.381 90.2527 63.4077 90.2927 63.4343C90.3327 63.4543 90.376 63.471 90.4227 63.4843ZM95.0306 59.6143L95.1106 59.9143C95.2773 59.8077 95.4539 59.7177 95.6406 59.6443C95.9006 59.551 96.1806 59.5043 96.4806 59.5043C97.1273 59.5043 97.6039 59.7077 97.9106 60.1143C98.2239 60.5143 98.3806 61.0777 98.3806 61.8043C98.3806 62.171 98.3406 62.5077 98.2606 62.8143C98.1806 63.121 98.0539 63.3843 97.8806 63.6043C97.7073 63.8243 97.4806 63.9977 97.2006 64.1243C96.9206 64.2443 96.5806 64.3043 96.1806 64.3043C95.9539 64.3043 95.7473 64.2743 95.5606 64.2143C95.4673 64.1943 95.3639 64.1577 95.2506 64.1043V66.3243L94.2306 66.4543V60.8043L94.1506 59.6143H95.0306ZM95.5106 63.4843C95.6906 63.5377 95.8606 63.5643 96.0206 63.5643C96.4206 63.5643 96.7373 63.4343 96.9706 63.1743C97.2039 62.9143 97.3206 62.4743 97.3206 61.8543C97.3206 61.621 97.3006 61.4077 97.2606 61.2143C97.2206 61.0143 97.1539 60.8443 97.0606 60.7043C96.9673 60.5643 96.8439 60.4543 96.6906 60.3743C96.5439 60.2943 96.3639 60.2543 96.1506 60.2543C95.9039 60.2543 95.6873 60.3077 95.5006 60.4143C95.4606 60.4343 95.4206 60.461 95.3806 60.4943C95.3406 60.521 95.2973 60.551 95.2506 60.5843V63.3543C95.2973 63.381 95.3406 63.4077 95.3806 63.4343C95.4206 63.4543 95.4639 63.471 95.5106 63.4843ZM99.3085 57.6743H100.348V58.5943H99.3085V57.6743ZM99.3185 59.6143H100.338V64.1943H99.3185V59.6143ZM102.376 59.6143L102.406 59.9743C102.586 59.8477 102.776 59.751 102.976 59.6843C103.323 59.5643 103.653 59.5043 103.966 59.5043C104.266 59.5043 104.513 59.5443 104.706 59.6243C104.906 59.6977 105.059 59.8077 105.166 59.9543C105.279 60.0943 105.356 60.2677 105.396 60.4743C105.443 60.681 105.466 60.9177 105.466 61.1843V64.1943H104.446V61.4043C104.446 61.2443 104.436 61.0977 104.416 60.9643C104.403 60.831 104.366 60.7177 104.306 60.6243C104.253 60.5243 104.173 60.4477 104.066 60.3943C103.966 60.341 103.833 60.3143 103.666 60.3143C103.473 60.3143 103.296 60.341 103.136 60.3943C102.976 60.4477 102.833 60.5143 102.706 60.5943L102.526 60.7143V64.1943H101.506V60.8343L101.426 59.6143H102.376ZM110.514 59.6143V64.3543C110.514 64.7477 110.457 65.0777 110.344 65.3443C110.237 65.611 110.084 65.8277 109.884 65.9943C109.691 66.161 109.454 66.2777 109.174 66.3443C108.901 66.4177 108.601 66.4543 108.274 66.4543C107.974 66.4543 107.694 66.431 107.434 66.3843C107.181 66.3443 106.961 66.291 106.774 66.2243L107.034 65.4943C107.181 65.5343 107.351 65.5743 107.544 65.6143C107.744 65.661 107.977 65.6843 108.244 65.6843C108.424 65.6843 108.591 65.6643 108.744 65.6243C108.897 65.591 109.027 65.5277 109.134 65.4343C109.247 65.3477 109.334 65.2277 109.394 65.0743C109.461 64.921 109.494 64.731 109.494 64.5043V64.0443C109.321 64.1243 109.141 64.1877 108.954 64.2343C108.774 64.281 108.571 64.3043 108.344 64.3043C107.651 64.3043 107.147 64.1077 106.834 63.7143C106.521 63.3143 106.364 62.751 106.364 62.0243C106.364 61.6577 106.401 61.321 106.474 61.0143C106.554 60.701 106.681 60.4343 106.854 60.2143C107.027 59.9877 107.257 59.8143 107.544 59.6943C107.831 59.5677 108.184 59.5043 108.604 59.5043C108.831 59.5043 109.031 59.531 109.204 59.5843C109.377 59.631 109.534 59.691 109.674 59.7643L109.724 59.6143H110.514ZM109.494 60.4143C109.367 60.361 109.247 60.321 109.134 60.2943C109.021 60.261 108.894 60.2443 108.754 60.2443C108.287 60.2443 107.947 60.381 107.734 60.6543C107.527 60.9277 107.424 61.3743 107.424 61.9943C107.424 62.2077 107.444 62.411 107.484 62.6043C107.524 62.791 107.591 62.9577 107.684 63.1043C107.777 63.2443 107.904 63.3577 108.064 63.4443C108.224 63.5243 108.421 63.5643 108.654 63.5643C108.801 63.5643 108.941 63.5477 109.074 63.5143C109.207 63.4743 109.347 63.421 109.494 63.3543V60.4143ZM116.102 64.3043C115.876 64.3043 115.669 64.2743 115.482 64.2143C115.396 64.1943 115.312 64.1677 115.232 64.1343C115.152 64.101 115.069 64.061 114.982 64.0143L114.902 64.1943H114.142V57.3943L115.172 57.2643V59.8243C115.299 59.7577 115.429 59.6977 115.562 59.6443C115.822 59.551 116.102 59.5043 116.402 59.5043C117.049 59.5043 117.526 59.7077 117.832 60.1143C118.146 60.5143 118.302 61.0777 118.302 61.8043C118.302 62.171 118.262 62.5077 118.182 62.8143C118.102 63.121 117.976 63.3843 117.802 63.6043C117.629 63.8243 117.402 63.9977 117.122 64.1243C116.842 64.2443 116.502 64.3043 116.102 64.3043ZM115.432 63.4843C115.612 63.5377 115.782 63.5643 115.942 63.5643C116.342 63.5643 116.659 63.4343 116.892 63.1743C117.126 62.9143 117.242 62.4743 117.242 61.8543C117.242 61.621 117.222 61.4077 117.182 61.2143C117.142 61.0143 117.076 60.8443 116.982 60.7043C116.889 60.5643 116.766 60.4543 116.612 60.3743C116.466 60.2943 116.286 60.2543 116.072 60.2543C115.826 60.2543 115.609 60.3077 115.422 60.4143C115.382 60.4343 115.342 60.461 115.302 60.4943C115.262 60.521 115.219 60.551 115.172 60.5843V63.3543C115.219 63.381 115.262 63.4077 115.302 63.4343C115.342 63.4543 115.386 63.471 115.432 63.4843ZM120.071 59.6143L120.131 60.1643C120.284 59.9843 120.451 59.8477 120.631 59.7543C120.937 59.5877 121.247 59.5043 121.561 59.5043C121.707 59.5043 121.841 59.5177 121.961 59.5443C122.081 59.571 122.181 59.601 122.261 59.6343L122.001 60.4643C121.861 60.3843 121.674 60.3443 121.441 60.3443C121.174 60.3443 120.927 60.4177 120.701 60.5643C120.561 60.651 120.417 60.771 120.271 60.9243V64.1943H119.251V60.8943L119.121 59.6143H120.071ZM124.47 64.3043C124.064 64.3043 123.724 64.251 123.45 64.1443C123.184 64.031 122.967 63.871 122.8 63.6643C122.64 63.451 122.527 63.1977 122.46 62.9043C122.394 62.6043 122.36 62.2643 122.36 61.8843C122.36 61.0777 122.544 60.481 122.91 60.0943C123.277 59.701 123.87 59.5043 124.69 59.5043C125.09 59.5043 125.427 59.561 125.7 59.6743C125.974 59.781 126.19 59.941 126.35 60.1543C126.517 60.361 126.634 60.6143 126.7 60.9143C126.774 61.2143 126.81 61.5543 126.81 61.9343C126.81 62.741 126.62 63.3377 126.24 63.7243C125.867 64.111 125.277 64.3043 124.47 64.3043ZM124.47 63.5743C124.97 63.5743 125.31 63.431 125.49 63.1443C125.67 62.851 125.76 62.4177 125.76 61.8443C125.76 61.6243 125.744 61.4177 125.71 61.2243C125.684 61.0243 125.63 60.851 125.55 60.7043C125.47 60.551 125.36 60.431 125.22 60.3443C125.08 60.2577 124.904 60.2143 124.69 60.2143C124.197 60.2143 123.86 60.3643 123.68 60.6643C123.5 60.9643 123.41 61.3977 123.41 61.9643C123.41 62.1843 123.424 62.3943 123.45 62.5943C123.477 62.7877 123.53 62.9577 123.61 63.1043C123.69 63.251 123.797 63.3677 123.93 63.4543C124.07 63.5343 124.25 63.5743 124.47 63.5743ZM131.446 59.6143L132.186 63.4643H132.266L133.166 59.6143H134.186L132.926 64.1943H131.496L130.766 60.3343H130.666L129.916 64.1943H128.456L127.256 59.6143H128.316L129.176 63.4643H129.266L130.016 59.6143H131.446ZM136.206 61.3043C136.259 61.331 136.332 61.361 136.426 61.3943C136.519 61.4277 136.612 61.461 136.706 61.4943L137.276 61.6843C137.562 61.7643 137.802 61.901 137.996 62.0943C138.196 62.281 138.296 62.551 138.296 62.9043C138.296 63.3843 138.122 63.7377 137.776 63.9643C137.436 64.191 136.952 64.3043 136.326 64.3043C135.979 64.3043 135.659 64.2743 135.366 64.2143C135.079 64.161 134.819 64.081 134.586 63.9743L134.906 63.2343C135.279 63.441 135.752 63.5443 136.326 63.5443C136.606 63.5443 136.836 63.5077 137.016 63.4343C137.202 63.361 137.296 63.2177 137.296 63.0043C137.296 62.7643 137.102 62.571 136.716 62.4243C136.536 62.371 136.349 62.3143 136.156 62.2543C135.962 62.1877 135.786 62.1243 135.626 62.0643C135.352 61.971 135.122 61.8343 134.936 61.6543C134.749 61.4743 134.656 61.211 134.656 60.8643C134.656 60.6243 134.706 60.421 134.806 60.2543C134.906 60.081 135.042 59.941 135.216 59.8343C135.389 59.721 135.592 59.6377 135.826 59.5843C136.059 59.531 136.309 59.5043 136.576 59.5043C136.942 59.5043 137.259 59.5343 137.526 59.5943C137.799 59.6477 138.042 59.7177 138.256 59.8043L137.936 60.5443C137.562 60.351 137.109 60.2543 136.576 60.2543C136.249 60.2543 136.009 60.301 135.856 60.3943C135.702 60.4877 135.626 60.611 135.626 60.7643C135.626 60.8843 135.669 60.9843 135.756 61.0643C135.849 61.1443 135.999 61.2243 136.206 61.3043ZM141.172 64.3043C140.758 64.3043 140.408 64.2543 140.122 64.1543C139.842 64.0543 139.615 63.9043 139.442 63.7043C139.268 63.4977 139.145 63.2443 139.072 62.9443C138.998 62.6377 138.962 62.281 138.962 61.8743C138.962 60.2943 139.692 59.5043 141.152 59.5043C141.545 59.5043 141.865 59.561 142.112 59.6743C142.365 59.7877 142.562 59.9443 142.702 60.1443C142.848 60.3443 142.948 60.581 143.002 60.8543C143.055 61.1277 143.082 61.4243 143.082 61.7443V62.1543H140.022C140.035 62.6143 140.118 62.9477 140.272 63.1543C140.472 63.4143 140.825 63.5443 141.332 63.5443C141.678 63.5443 141.965 63.5043 142.192 63.4243C142.418 63.3377 142.618 63.2543 142.792 63.1743L143.012 63.8343C142.932 63.8877 142.822 63.9443 142.682 64.0043C142.548 64.0577 142.398 64.1077 142.232 64.1543C142.065 64.1943 141.892 64.2277 141.712 64.2543C141.532 64.2877 141.352 64.3043 141.172 64.3043ZM142.022 61.4443C142.022 61.0043 141.948 60.6877 141.802 60.4943C141.655 60.301 141.432 60.2043 141.132 60.2043C140.792 60.2043 140.542 60.281 140.382 60.4343C140.222 60.5877 140.115 60.8243 140.062 61.1443L140.032 61.4443H142.022ZM144.875 59.6143L144.935 60.1643C145.089 59.9843 145.255 59.8477 145.435 59.7543C145.742 59.5877 146.052 59.5043 146.365 59.5043C146.512 59.5043 146.645 59.5177 146.765 59.5443C146.885 59.571 146.985 59.601 147.065 59.6343L146.805 60.4643C146.665 60.3843 146.479 60.3443 146.245 60.3443C145.979 60.3443 145.732 60.4177 145.505 60.5643C145.365 60.651 145.222 60.771 145.075 60.9243V64.1943H144.055V60.8943L143.925 59.6143H144.875Z" fill="black"/>
<rect x="48" y="82.6943" width="103" height="18.1925" rx="9.09625" fill="white" stroke="#DDDDDD"/>
<g clip-path="url(#clip0_3272_385765)">
<path d="M54.4355 91.0223C54.4355 88.2663 56.6697 86.0322 59.4256 86.0322C62.1815 86.0322 64.4157 88.2663 64.4157 91.0223V91.79C64.4157 94.9699 61.8378 97.5477 58.6579 97.5477H54.4355V91.0223Z" fill="white"/>
<path fill-rule="evenodd" clip-rule="evenodd" d="M55.9785 91.0074C55.9785 89.1307 57.2831 87.7354 58.7476 87.7354C60.2122 87.7354 61.5167 89.1307 61.5167 91.0074C61.5167 92.8841 60.2122 94.2795 58.7476 94.2795C57.2831 94.2795 55.9785 92.8841 55.9785 91.0074ZM58.7476 86.7354C56.6012 86.7354 54.9785 88.7176 54.9785 91.0074C54.9785 93.2972 56.6012 95.2795 58.7476 95.2795C59.6304 95.2795 60.4246 94.9441 61.0538 94.39L62.9995 96.673C63.1786 96.8831 63.4942 96.9083 63.7044 96.7292C63.9145 96.5501 63.9397 96.2345 63.7606 96.0243L61.7216 93.632C62.2236 92.8984 62.5167 91.9807 62.5167 91.0074C62.5167 88.7176 60.894 86.7354 58.7476 86.7354Z" fill="black"/>
</g>
<defs>
<clipPath id="clip0_3272_385765">
<path d="M54.4355 91.0223C54.4355 88.2663 56.6697 86.0322 59.4256 86.0322C62.1815 86.0322 64.4157 88.2663 64.4157 91.0223V91.79C64.4157 94.9699 61.8378 97.5477 58.6579 97.5477H54.4355V91.0223Z" fill="white"/>
</clipPath>
</defs>
</svg>
