<svg width="32" height="32" viewBox="0 0 32 32" fill="none" xmlns="http://www.w3.org/2000/svg">
<g id="Membership_Benfit">
<path id="Union" fill-rule="evenodd" clip-rule="evenodd" d="M14.0117 24.2004H4H2.5V22.7004V9.50073V8.00073H4H7.18801L11.6278 3.5609L12.6885 2.50024L13.7492 3.5609L18.189 8.00073H27.9995H29.4995V9.50073V19.3113V22.7004V24.2004H27.9995H24.6103L20.3717 28.4391L19.311 29.4998L18.2504 28.4391L14.0117 24.2004ZM22.489 24.2004H16.133L19.311 27.3784L22.489 24.2004ZM16.0677 8.00073H9.30933L12.6885 4.62156L16.0677 8.00073ZM4 9.50073H21.6484V11.5057C21.3345 11.1533 20.9656 10.8398 20.5535 10.6472C20.0043 10.3904 19.3414 10.3405 18.7308 10.7477C17.9598 11.2617 17.6389 12.1685 17.8644 13.0593H4V9.50073ZM19.0244 17.3373L20.8497 15.5119C20.0266 15.2903 19.3669 14.9633 18.872 14.5593H4V22.7004H21.6484V16.8345L20.085 18.3979C19.7921 18.6908 19.3172 18.6908 19.0244 18.3979C18.7315 18.105 18.7315 17.6301 19.0244 17.3373ZM23.1484 12.0136V9.50073H27.9995V13.0593H27.9991H27.9928H27.9864H27.98H27.9736H27.9672H27.9608H27.9544H27.9479H27.9415H27.935H27.9285H27.922H27.9155H27.909H27.9025H27.8959H27.8894H27.8828H27.8762H27.8696H27.863H27.8564H27.8498H27.8432H27.8365H27.8299H27.8232H27.8165H27.8098H27.8031H27.7964H27.7897H27.783H27.7763H27.7695H27.7628H27.756H27.7492H27.7424H27.7356H27.7288H27.722H27.7152H27.7084H27.7015H27.6947H27.6878H27.681H27.6741H27.6672H27.6604H27.6535H27.6466H27.6396H27.6327H27.6258H27.6189H27.6119H27.605H27.598H27.5911H27.5841H27.5771H27.5702H27.5632H27.5562H27.5492H27.5422H27.5352H27.5281H27.5211H27.5141H27.5071H27.5H27.493H27.4859H27.4789H27.4718H27.4647H27.4577H27.4506H27.4435H27.4364H27.4293H27.4223H27.4152H27.4081H27.401H27.3938H27.3867H27.3796H27.3725H27.3654H27.3582H27.3511H27.344H27.3368H27.3329C27.5583 12.1685 27.2374 11.2617 26.4665 10.7477C25.8559 10.3405 25.193 10.3904 24.6437 10.6472C24.1251 10.8897 23.6747 11.3235 23.3164 11.7857C23.2594 11.8592 23.2033 11.9353 23.1484 12.0136ZM24.3475 15.5119L26.1729 17.3373C26.4658 17.6301 26.4658 18.105 26.1729 18.3979C25.88 18.6908 25.4051 18.6908 25.1122 18.3979L23.1484 16.4341V22.7004H27.9995V14.5593H27.9991H27.9928H27.9864H27.98H27.9736H27.9672H27.9608H27.9544H27.9479H27.9415H27.935H27.9285H27.922H27.9155H27.909H27.9025H27.8959H27.8894H27.8828H27.8762H27.8696H27.863H27.8564H27.8498H27.8432H27.8365H27.8299H27.8232H27.8165H27.8098H27.8031H27.7964H27.7897H27.783H27.7763H27.7695H27.7628H27.756H27.7492H27.7424H27.7356H27.7288H27.722H27.7152H27.7084H27.7015H27.6947H27.6878H27.681H27.6741H27.6672H27.6604H27.6535H27.6466H27.6396H27.6327H27.6258H27.6189H27.6119H27.605H27.598H27.5911H27.5841H27.5771H27.5702H27.5632H27.5562H27.5492H27.5422H27.5352H27.5281H27.5211H27.5141H27.5071H27.5H27.493H27.4859H27.4789H27.4718H27.4647H27.4577H27.4506H27.4435H27.4364H27.4293H27.4223H27.4152H27.4081H27.401H27.3938H27.3867H27.3796H27.3725H27.3654H27.3582H27.3511H27.344H27.3368H27.3297H27.3226H27.3154H27.3083H27.3011H27.294H27.2868H27.2796H27.2725H27.2653H27.2582H27.251H27.2438H27.2367H27.2295H27.2223H27.2151H27.208H27.2008H27.1936H27.1864H27.1793H27.1721H27.1649H27.1577H27.1506H27.1434H27.1362H27.129H27.1218H27.1147H27.1075H27.1003H27.0931H27.086H27.0788H27.0716H27.0644H27.0573H27.0501H27.0429H27.0357H27.0286H27.0214H27.0142H27.0071H26.9999H26.9928H26.9856H26.9785H26.9713H26.9642H26.957H26.9499H26.9427H26.9356H26.9285H26.9213H26.9142H26.9071H26.9H26.8928H26.8857H26.8786H26.8715H26.8644H26.8573H26.8502H26.8431H26.836H26.829H26.8219H26.8148H26.8077H26.8007H26.7936H26.7866H26.7795H26.7725H26.7655H26.7584H26.7514H26.7444H26.7374H26.7304H26.7234H26.7164H26.7094H26.7024H26.6954H26.6885H26.6815H26.6745H26.6676H26.6607H26.6537H26.6468H26.6399H26.633H26.6261H26.6192H26.6123H26.6054H26.5985H26.5917H26.5848H26.578H26.5711H26.5643H26.5575H26.5507H26.5439H26.5371H26.5303H26.5235H26.5168H26.51H26.5033H26.4965H26.4898H26.4831H26.4764H26.4697H26.463H26.4563H26.4496H26.443H26.4363H26.4297H26.4231H26.4165H26.4099H26.4033H26.3967H26.3901H26.3836H26.377H26.3705H26.364H26.3574H26.351H26.3445H26.338H26.3315H26.3253C25.8304 14.9633 25.1707 15.2903 24.3475 15.5119ZM19.9182 12.006C19.729 11.9175 19.6413 11.9434 19.563 11.9957C19.3143 12.1614 19.1669 12.5186 19.4353 12.966C19.664 13.347 20.2494 13.8407 21.4608 14.1195C21.2958 13.6482 21.029 13.1351 20.6954 12.7048C20.4137 12.3414 20.1379 12.1087 19.9182 12.006ZM25.6343 11.9957C25.5559 11.9434 25.4682 11.9175 25.2791 12.006C25.0594 12.1087 24.7836 12.3414 24.5019 12.7048C24.1682 13.1351 23.9015 13.6482 23.7364 14.1195C24.9478 13.8407 25.5332 13.347 25.7619 12.966C26.0304 12.5186 25.8829 12.1614 25.6343 11.9957Z" fill="black"/>
</g>
</svg>
