<svg width="65" height="64" viewBox="0 0 65 64" fill="none" xmlns="http://www.w3.org/2000/svg">
<path fill-rule="evenodd" clip-rule="evenodd" d="M9.28571 4.75C9.28571 3.23122 10.5169 2 12.0357 2H52.5357C54.0545 2 55.2857 3.23122 55.2857 4.75V14.9804L55.286 15L55.2857 15.0196V59.25C55.2857 60.7688 54.0545 62 52.5357 62H12.0357C10.5169 62 9.28571 60.7688 9.28571 59.25V15V4.75ZM53.7857 4.75V14.25H10.7857V4.75C10.7857 4.05964 11.3453 3.5 12.0357 3.5H52.5357C53.2261 3.5 53.7857 4.05964 53.7857 4.75ZM10.7857 59.25V15.75H53.7857V59.25C53.7857 59.9404 53.2261 60.5 52.5357 60.5H12.0357C11.3453 60.5 10.7857 59.9404 10.7857 59.25ZM30.5357 8.89404C30.5357 7.92804 31.3197 7.14404 32.2857 7.14404C33.2517 7.14404 34.0357 7.92804 34.0357 8.89404C34.0357 9.86004 33.2517 10.644 32.2857 10.644C31.3197 10.644 30.5357 9.86004 30.5357 8.89404ZM32.2857 22.75C23.3111 22.75 16.0357 30.0254 16.0357 39C16.0357 47.9746 23.3111 55.25 32.2857 55.25C41.2603 55.25 48.5357 47.9746 48.5357 39C48.5357 30.0254 41.2603 22.75 32.2857 22.75ZM14.5357 39C14.5357 29.1969 22.4827 21.25 32.2857 21.25C42.0888 21.25 50.0357 29.1969 50.0357 39C50.0357 48.8031 42.0888 56.75 32.2857 56.75C22.4827 56.75 14.5357 48.8031 14.5357 39ZM28.7001 37.7272C28.7001 36.0682 29.5853 35.1028 30.6129 34.5145C31.6802 33.9035 32.8322 33.75 33.0802 33.75C33.4142 33.75 34.6716 33.7508 36.0205 34.4405C37.3384 35.1144 38.8178 36.4836 39.5593 39.3685C39.6624 39.7697 40.0712 40.0113 40.4724 39.9082C40.8736 39.8051 41.1152 39.3963 41.0121 38.9951C40.1647 35.6983 38.4078 33.9765 36.7034 33.105C35.0314 32.25 33.4818 32.25 33.0812 32.25H33.0802C32.5953 32.25 31.1822 32.4601 29.8677 33.2128C28.5134 33.9881 27.2001 35.3863 27.2001 37.7272C27.2001 39.5697 27.9538 40.7137 28.8973 41.367C29.7929 41.9871 30.7818 42.1136 31.248 42.1136C31.6255 42.1136 32.0768 42.0412 32.4982 41.8581C32.9208 41.6744 33.3657 41.3546 33.6231 40.8308C33.8058 40.4591 33.6526 40.0096 33.2808 39.8269C32.9091 39.6442 32.4596 39.7975 32.2769 40.1692C32.2219 40.2812 32.1057 40.3931 31.9004 40.4824C31.694 40.5721 31.4506 40.6136 31.248 40.6136C30.9813 40.6136 30.3212 40.5285 29.7512 40.1337C29.2289 39.7721 28.7001 39.0979 28.7001 37.7272ZM36.764 38.3051C36.2869 37.2451 35.3185 36.4907 34.2778 36.1793C33.2325 35.8665 32.007 35.9749 31.0853 36.8064C30.7777 37.0838 30.7533 37.5581 31.0307 37.8656C31.3082 38.1732 31.7824 38.1976 32.09 37.9202C32.5332 37.5204 33.1767 37.4155 33.8478 37.6163C34.5234 37.8185 35.1188 38.3045 35.3962 38.9208C35.6072 39.3894 35.7329 40.0221 35.6328 40.9165C35.4849 42.2368 34.6871 43.0537 33.7328 43.5667C32.7551 44.0922 31.6886 44.25 31.248 44.25C30.7611 44.25 29.4322 44.1665 28.1166 43.4729C26.8352 42.7974 25.5228 41.5238 25.0209 39.0336C24.9391 38.6276 24.5436 38.3648 24.1375 38.4466C23.7315 38.5284 23.4687 38.9239 23.5505 39.33C24.1479 42.2943 25.767 43.9299 27.4171 44.7998C29.033 45.6517 30.6356 45.75 31.248 45.75C31.9067 45.75 33.2221 45.5442 34.443 44.8879C35.6873 44.219 36.9048 43.0359 37.1235 41.0835C37.249 39.9621 37.1008 39.0532 36.764 38.3051Z" fill="black"/>
</svg>
