<svg width="48" height="48" viewBox="0 0 48 48" fill="none" xmlns="http://www.w3.org/2000/svg">
<path fill-rule="evenodd" clip-rule="evenodd" d="M9.25 2C7.73122 2 6.5 3.23121 6.5 4.75V43.2498C6.5 44.7686 7.73122 45.9998 9.25 45.9998H23.4488V44.4998H9.25C8.55964 44.4998 8 43.9402 8 43.2498V4.75C8 4.05964 8.55964 3.5 9.25 3.5H33.9931C34.6835 3.5 35.2431 4.05964 35.2431 4.75V29.9883H36.7431V4.75C36.7431 3.23122 35.5119 2 33.9931 2H9.25ZM17.7949 7.15234C17.3807 7.15234 17.0449 7.48813 17.0449 7.90234C17.0449 8.31656 17.3807 8.65234 17.7949 8.65234H25.4483C25.8625 8.65234 26.1983 8.31656 26.1983 7.90234C26.1983 7.48813 25.8625 7.15234 25.4483 7.15234H17.7949ZM24.293 30.7734C23.8788 30.7734 23.543 31.1092 23.543 31.5234C23.543 31.9377 23.8788 32.2734 24.293 32.2734H25.5727C25.6844 32.2734 25.7822 32.3471 25.8132 32.4542C26.8892 36.1773 28.0768 40.2146 28.5493 41.8179C28.7694 42.5644 29.4536 43.07 30.2267 43.07H37.6966C38.7641 43.07 39.7062 42.3817 40.0422 41.3698L41.9158 35.7284C42.261 34.689 41.4974 33.5957 40.387 33.5957H27.7056C27.5545 33.0752 27.4033 32.5535 27.2542 32.0378C27.0378 31.2887 26.3523 30.7734 25.5727 30.7734H24.293ZM29.9881 41.3938C29.6446 40.2283 28.9233 37.7768 28.142 35.0957H40.387C40.4541 35.0957 40.5213 35.168 40.4922 35.2557L38.6187 40.897C38.4839 41.3028 38.1103 41.57 37.6966 41.57H30.2267C30.1135 41.57 30.0187 41.4974 29.9881 41.3938ZM31.8192 45.0356C31.8192 45.5687 31.3871 46.0009 30.854 46.0009C30.3208 46.0009 29.8887 45.5687 29.8887 45.0356C29.8887 44.5025 30.3208 44.0703 30.854 44.0703C31.3871 44.0703 31.8192 44.5025 31.8192 45.0356ZM37.4179 46.0009C37.951 46.0009 38.3832 45.5687 38.3832 45.0356C38.3832 44.5025 37.951 44.0703 37.4179 44.0703C36.8848 44.0703 36.4526 44.5025 36.4526 45.0356C36.4526 45.5687 36.8848 46.0009 37.4179 46.0009Z" fill="#333333"/>
<path d="M12.3494 23.3863L12.5189 24.8041H18.454L18.2598 23.1804H15.4924L15.4683 22.9792L18.0169 21.1509L17.8467 19.7305H11.9121L12.1063 21.3539H14.8782L14.9024 21.557L12.3494 23.3863Z" fill="#333333"/>
<path d="M18.5352 19.7305L19.1422 24.8041H25.0816L24.4745 19.7305H18.5352Z" fill="#AA8FFF"/>
<path d="M31.3104 21.557C31.1734 20.4167 30.3009 19.7255 29.1147 19.7305H25.1641L25.7709 24.8044H27.5483L27.4266 23.7895H29.3074C30.7876 23.7893 31.4649 22.8426 31.3104 21.557ZM29.1152 22.367L27.2571 22.3691L27.1115 21.1514L28.9801 21.153C29.4194 21.1585 29.6442 21.4125 29.6806 21.76C29.703 21.9837 29.6032 22.3667 29.1152 22.3667V22.367Z" fill="#333333"/>
<path d="M20.3108 19.0562C20.6234 18.7117 20.5689 18.138 20.1891 17.7748C19.8093 17.4116 19.248 17.3965 18.9354 17.741C18.6228 18.0854 18.6773 18.6591 19.0571 19.0223C19.4369 19.3855 19.9982 19.4007 20.3108 19.0562Z" fill="#333333"/>
</svg>
