<svg width="60" height="60" viewBox="0 0 60 60" fill="none" xmlns="http://www.w3.org/2000/svg">
<path fill-rule="evenodd" clip-rule="evenodd" d="M2 29.9999C2 45.4637 14.5361 58.0001 30.0001 58.0001C45.464 58.0001 58.0001 45.4637 58.0001 29.9999C58.0001 14.5358 45.464 2 30.0001 2C14.5361 2 2 14.5358 2 29.9999ZM0 29.9999C0 46.5683 13.4315 60.0001 30.0001 60.0001C46.5686 60.0001 60.0001 46.5683 60.0001 29.9999C60.0001 13.4312 46.5686 0 30.0001 0C13.4315 0 0 13.4312 0 29.9999ZM29.9937 43.0052C28.8927 43.0052 28.0002 42.1075 28.0002 41.0003C28.0002 39.893 28.8927 38.9951 29.9937 38.9951C31.0946 38.9951 31.9871 39.893 31.9871 41.0003C31.9871 42.1075 31.0946 43.0052 29.9937 43.0052ZM29.9937 36.3572C28.8927 36.3572 28.0002 35.6344 28.0002 34.7435V18.6078C28.0002 17.7169 28.8927 16.9944 29.9937 16.9944C31.0946 16.9944 31.9871 17.7169 31.9871 18.6078V34.7435C31.9871 35.6344 31.0946 36.3572 29.9937 36.3572Z" fill="#999999"/>
</svg>
