<svg width="40" height="40" viewBox="0 0 40 40" fill="none" xmlns="http://www.w3.org/2000/svg">
<path d="M18.381 5.09632C19.2639 5.43831 20.7354 5.43831 21.6183 5.09632L23.7303 4.29266C24.6132 3.95068 25.7731 4.32686 26.2924 5.11342L27.5215 6.97723C28.0409 7.76379 29.2181 8.60165 30.1356 8.85814L32.3168 9.43951C33.2343 9.6789 33.9441 10.6535 33.9095 11.594L33.7883 13.834C33.7364 14.7744 34.1865 16.1424 34.7924 16.8776L36.2119 18.6218C36.8178 19.357 36.8178 20.554 36.2119 21.2892L34.7924 23.0333C34.1865 23.7686 33.7537 25.1365 33.7883 26.077L33.9095 28.317C33.9614 29.2574 33.2516 30.2321 32.3168 30.4715L30.1356 31.0528C29.2181 31.2922 28.0409 32.1472 27.5215 32.9338L26.2924 34.7976C25.7731 35.5841 24.6132 35.9603 23.7303 35.6183L21.6183 34.8147C20.7354 34.4727 19.2639 34.4727 18.381 34.8147L16.269 35.6183C15.3862 35.9603 14.2263 35.5841 13.7069 34.7976L12.4778 32.9338C11.9585 32.1472 10.7813 31.3093 9.86378 31.0528L7.68253 30.4715C6.76502 30.2321 6.05524 29.2574 6.08987 28.317L6.21105 26.077C6.26298 25.1365 5.81288 23.7686 5.20698 23.0333L3.78744 21.2892C3.18153 20.554 3.18153 19.357 3.78744 18.6218L5.20698 16.8776C5.81288 16.1424 6.24567 14.7744 6.21105 13.834L6.08987 11.594C6.03793 10.6535 6.74771 9.6789 7.68253 9.43951L9.86378 8.85814C10.7813 8.61875 11.9585 7.76379 12.4778 6.97723L13.7069 5.11342C14.2263 4.32686 15.3862 3.95068 16.269 4.29266L18.381 5.09632V5.09632Z" stroke="black" stroke-width="1.5"/>
<path d="M13.333 19.8431L17.7132 24.2809L26.2774 15.7168" stroke="black" stroke-width="1.5"/>
</svg>
