<svg width="48" height="48" viewBox="0 0 48 48" fill="none" xmlns="http://www.w3.org/2000/svg">
<path d="M30.3159 11.5031C30.0218 11.2115 29.5469 11.2135 29.2553 11.5077C28.9636 11.8018 28.9657 12.2767 29.2599 12.5683L35.0543 18.3128C35.2207 18.4777 35.4449 18.5487 35.6611 18.526L20.8056 33.327C20.7601 33.3724 20.7001 33.4028 20.6343 33.4127L12.9435 34.5616C12.8456 34.5762 12.748 34.5435 12.6804 34.4764C12.6132 34.4098 12.5834 34.3175 12.597 34.2276L11.8555 34.1149L12.597 34.2276L13.7559 26.6032L13.0157 26.4907L13.7559 26.6032C13.7652 26.5421 13.7941 26.4847 13.8398 26.4397L35.014 5.5526L35.015 5.55163C35.2947 5.27468 35.6964 5.14941 36.0751 5.14941C36.4545 5.14941 36.8554 5.27426 37.1348 5.55128L41.8757 10.2513C42.1543 10.5275 42.2784 10.9215 42.2784 11.2928C42.2784 11.6637 42.1545 12.0575 41.8764 12.3336L41.8754 12.3346L36.3279 17.8617C36.3517 17.6425 36.2791 17.4148 36.1104 17.2475L30.3159 11.5031Z" stroke="black" stroke-width="1.5" stroke-miterlimit="10" stroke-linecap="round" stroke-linejoin="round"/>
<path d="M25.8504 5.9209H8.97656C6.76742 5.9209 4.97656 7.71176 4.97656 9.9209V39.5992C4.97656 41.8084 6.76742 43.5992 8.97656 43.5992H33.4254C35.6346 43.5992 37.4254 41.8084 37.4254 39.5992V24.7611" stroke="black" stroke-width="1.5"/>
</svg>
