<svg width="48" height="48" viewBox="0 0 48 48" fill="none" xmlns="http://www.w3.org/2000/svg">
<path fill-rule="evenodd" clip-rule="evenodd" d="M4 13.933H4.75H43.1795H43.9295V14.683V23.7339V24.5431L43.1226 24.4817C43.0669 24.4775 43.0105 24.4753 42.9535 24.4753C41.7447 24.4753 40.7648 25.4552 40.7648 26.664C40.7648 27.8728 41.7447 28.8528 42.9535 28.8528C43.0105 28.8528 43.0669 28.8506 43.1226 28.8464L43.9295 28.785V29.5942V38.6449V39.3949H43.1795H4.75H4V38.6449V29.5942V28.785L4.80687 28.8464C4.86255 28.8506 4.91895 28.8528 4.97599 28.8528C6.18479 28.8528 7.16472 27.8728 7.16472 26.664C7.16472 25.4552 6.18479 24.4753 4.97599 24.4753C4.91895 24.4753 4.86255 24.4775 4.80687 24.4817L4 24.5431V23.7339V14.683V13.933ZM5.5 15.433V23.0122C7.28905 23.2667 8.66472 24.8047 8.66472 26.664C8.66472 28.5234 7.28905 30.0614 5.5 30.3158V37.8949H33.9112V37.4428V36.3423V35.5923H35.4112V36.3423V37.4428V37.8949H42.4295V30.3158C40.6404 30.0614 39.2648 28.5234 39.2648 26.664C39.2648 24.8047 40.6404 23.2667 42.4295 23.0122V15.433H35.4112V16.5335V17.2835H33.9112V16.5335V15.433H5.5ZM18.1778 22.6667C17.6681 22.6667 17.255 23.0799 17.255 23.5895C17.255 24.0992 17.6681 24.5124 18.1778 24.5124C18.6875 24.5124 19.1006 24.0992 19.1006 23.5895C19.1006 23.0799 18.6875 22.6667 18.1778 22.6667ZM15.755 23.5895C15.755 22.2515 16.8397 21.1667 18.1778 21.1667C19.5159 21.1667 20.6006 22.2515 20.6006 23.5895C20.6006 24.9276 19.5159 26.0124 18.1778 26.0124C16.8397 26.0124 15.755 24.9276 15.755 23.5895ZM26.4751 22.507L25.9447 23.0373L17.6318 31.3503L17.1015 31.8806L16.0408 30.8199L16.5712 30.2896L24.8841 21.9767L25.4144 21.4463L26.4751 22.507ZM23.4044 29.7372C23.4044 29.2286 23.8171 28.8155 24.3272 28.8155C24.8374 28.8155 25.25 29.2286 25.25 29.7372C25.25 30.2457 24.8374 30.6588 24.3272 30.6588C23.8171 30.6588 23.4044 30.2457 23.4044 29.7372ZM24.3272 27.3155C22.9896 27.3155 21.9044 28.3992 21.9044 29.7372C21.9044 31.0751 22.9896 32.1588 24.3272 32.1588C25.6648 32.1588 26.75 31.0751 26.75 29.7372C26.75 28.3992 25.6648 27.3155 24.3272 27.3155ZM35.4112 18.7345V17.9845H33.9112V18.7345V20.9354V21.6854H35.4112V20.9354V18.7345ZM35.4112 23.1364V22.3864H33.9112V23.1364V25.3374V26.0874H35.4112V25.3374V23.1364ZM35.4112 27.5384V26.7884H33.9112V27.5384V29.7394V30.4894H35.4112V29.7394V27.5384ZM35.4112 31.9403V31.1903H33.9112V31.9403V34.1413V34.8913H35.4112V34.1413V31.9403Z" fill="black"/>
<path d="M43.1795 14.683H43.9295V13.933H43.1795V14.683ZM4.75 14.683V13.933H4V14.683H4.75ZM43.1795 23.7339L43.1226 24.4817L43.9295 24.5431V23.7339H43.1795ZM43.1795 29.5942H43.9295V28.785L43.1226 28.8464L43.1795 29.5942ZM43.1795 38.6449V39.3949H43.9295V38.6449H43.1795ZM4.75 38.6449H4V39.3949H4.75V38.6449ZM4.75 29.5942L4.80687 28.8464L4 28.785V29.5942H4.75ZM4.75 23.7339H4V24.5431L4.80687 24.4817L4.75 23.7339ZM43.1795 13.933H4.75V15.433H43.1795V13.933ZM43.9295 23.7339V14.683H42.4295V23.7339H43.9295ZM42.9535 24.4753C43.0105 24.4753 43.0669 24.4775 43.1226 24.4817L43.2364 22.986C43.1429 22.9789 43.0485 22.9753 42.9535 22.9753V24.4753ZM40.7648 26.664C40.7648 25.4552 41.7447 24.4753 42.9535 24.4753V22.9753C40.9163 22.9753 39.2648 24.6268 39.2648 26.664H40.7648ZM42.9535 28.8528C41.7447 28.8528 40.7648 27.8728 40.7648 26.664H39.2648C39.2648 28.7013 40.9163 30.3528 42.9535 30.3528V28.8528ZM43.1226 28.8464C43.0669 28.8506 43.0105 28.8528 42.9535 28.8528V30.3528C43.0485 30.3528 43.1429 30.3491 43.2364 30.342L43.1226 28.8464ZM43.9295 38.6449V29.5942H42.4295V38.6449H43.9295ZM4.75 39.3949H43.1795V37.8949H4.75V39.3949ZM4 29.5942V38.6449H5.5V29.5942H4ZM4.97599 28.8528C4.91895 28.8528 4.86255 28.8506 4.80687 28.8464L4.69313 30.342C4.78662 30.3491 4.88096 30.3528 4.97599 30.3528V28.8528ZM7.16472 26.664C7.16472 27.8728 6.18479 28.8528 4.97599 28.8528V30.3528C7.01322 30.3528 8.66472 28.7013 8.66472 26.664H7.16472ZM4.97599 24.4753C6.18479 24.4753 7.16472 25.4552 7.16472 26.664H8.66472C8.66472 24.6268 7.01322 22.9753 4.97599 22.9753V24.4753ZM4.80687 24.4817C4.86255 24.4775 4.91895 24.4753 4.97599 24.4753V22.9753C4.88096 22.9753 4.78662 22.9789 4.69313 22.986L4.80687 24.4817ZM4 14.683V23.7339H5.5V14.683H4Z" fill="black"/>
<path fill-rule="evenodd" clip-rule="evenodd" d="M18.1778 22.6667C17.6682 22.6667 17.255 23.0799 17.255 23.5896C17.255 24.0992 17.6682 24.5124 18.1778 24.5124C18.6875 24.5124 19.1006 24.0992 19.1006 23.5896C19.1006 23.0799 18.6875 22.6667 18.1778 22.6667ZM15.755 23.5896C15.755 22.2515 16.8397 21.1667 18.1778 21.1667C19.5159 21.1667 20.6006 22.2515 20.6006 23.5896C20.6006 24.9276 19.5159 26.0124 18.1778 26.0124C16.8397 26.0124 15.755 24.9276 15.755 23.5896ZM26.4751 22.507L25.9448 23.0374L17.6319 31.3503L17.1015 31.8806L16.0409 30.8199L16.5712 30.2896L24.8841 21.9767L25.4144 21.4464L26.4751 22.507ZM23.4044 29.7372C23.4044 29.2286 23.8171 28.8155 24.3273 28.8155C24.8374 28.8155 25.2501 29.2286 25.2501 29.7372C25.2501 30.2457 24.8374 30.6589 24.3273 30.6589C23.8171 30.6589 23.4044 30.2457 23.4044 29.7372ZM24.3273 27.3155C22.9897 27.3155 21.9044 28.3992 21.9044 29.7372C21.9044 31.0751 22.9897 32.1589 24.3273 32.1589C25.6649 32.1589 26.7501 31.0751 26.7501 29.7372C26.7501 28.3992 25.6649 27.3155 24.3273 27.3155Z" fill="black"/>
<line x1="34.6613" y1="15.433" x2="34.6613" y2="37.4428" stroke="black" stroke-width="1.5" stroke-linecap="square" stroke-dasharray="2.4 2.4"/>
<path d="M34.7012 14.6633L30.4968 18.8678" stroke="black" stroke-width="1.5" stroke-linecap="round"/>
<path d="M35.2989 14.6633L39.5033 18.8678" stroke="black" stroke-width="1.5" stroke-linecap="round"/>
<path d="M34.7001 14.6653C34.7002 12.2596 31.9319 7.89764 29.8934 9.25692C28.0911 10.4586 28.6946 14.0646 34.7001 14.6653Z" stroke="black" stroke-width="1.5"/>
<path d="M35.3 14.6653C35.2998 12.2596 38.0681 7.89764 40.1066 9.25692C41.9089 10.4586 41.3054 14.0646 35.3 14.6653Z" stroke="black" stroke-width="1.5"/>
</svg>
