<svg width="48" height="48" viewBox="0 0 48 48" fill="none" xmlns="http://www.w3.org/2000/svg">
<path fill-rule="evenodd" clip-rule="evenodd" d="M2 5.5H8.31581L15.8728 35.4336L16.0158 36H16.6H41V34.5H17.1842L16.1744 30.5H40.5495H41.1426L41.2793 29.9229L45.7798 10.9229L45.9984 10H45.05H10.9989L9.62718 4.56642L9.48419 4H8.9H2V5.5ZM11.3776 11.5L15.7957 29H39.9564L44.1016 11.5H11.3776ZM17 42.5C17 41.3954 17.8954 40.5 19 40.5C20.1046 40.5 21 41.3954 21 42.5C21 43.6046 20.1046 44.5 19 44.5C17.8954 44.5 17 43.6046 17 42.5ZM19 39C17.067 39 15.5 40.567 15.5 42.5C15.5 44.433 17.067 46 19 46C20.933 46 22.5 44.433 22.5 42.5C22.5 40.567 20.933 39 19 39ZM37.5 42.5C37.5 41.3954 38.3954 40.5 39.5 40.5C40.6046 40.5 41.5 41.3954 41.5 42.5C41.5 43.6046 40.6046 44.5 39.5 44.5C38.3954 44.5 37.5 43.6046 37.5 42.5ZM39.5 39C37.567 39 36 40.567 36 42.5C36 44.433 37.567 46 39.5 46C41.433 46 43 44.433 43 42.5C43 40.567 41.433 39 39.5 39Z" fill="black"/>
</svg>
