<svg width="24" height="24" viewBox="0 0 24 24" fill="none" xmlns="http://www.w3.org/2000/svg">
<path fill-rule="evenodd" clip-rule="evenodd" d="M4 3C4 2.44771 4.44772 2 5 2H19C19.5503 2 20 2.44429 20 2.99851V3.01169V3.02503V3.03854V3.0522V3.06602V3.08V3.09413V3.10843V3.12288V3.13749V3.15226V3.16718V3.18226V3.1975V3.21289V3.22843V3.24413V3.25999V3.27599V3.29215V3.30846V3.32492V3.34154V3.3583V3.37522V3.39228V3.4095V3.42686V3.44438V3.46204V3.47985V3.49781V3.51591V3.53417V3.55256V3.57111V3.58979V3.60863V3.62761V3.64673V3.66599V3.6854V3.70495V3.72465V3.74448V3.76446V3.78458V3.80484V3.82524V3.84577V3.86645V3.88727V3.90822V3.92931V3.95054V3.97191V3.99341V4.01505V4.03683V4.05874V4.08078V4.10296V4.12527V4.14772V4.1703V4.19301V4.21586V4.23883V4.26194V4.28518V4.30855V4.33205V4.35567V4.37943V4.40332V4.42733V4.45147V4.47574V4.50014V4.52466V4.54931V4.57408V4.59898V4.62401V4.64915V4.67443V4.69982V4.72534V4.75098V4.77674V4.80263V4.82863V4.85476V4.88101V4.90737V4.93386V4.96046V4.98719V5.01403V5.04099V5.06806V5.09526V5.12257V5.14999V5.17753V5.20519V5.23296V5.26084V5.28884V5.31695V5.34518V5.37351V5.40196V5.43052V5.45919V5.48798V5.51687V5.54587V5.57498V5.6042V5.63353V5.66297V5.69251V5.72216V5.75192V5.78178V5.81175V5.84183V5.87201V5.90229V5.93268V5.96318V5.99377V6.02447V6.05527V6.08617V6.11718V6.14828V6.17949V6.21079V6.2422V6.2737V6.3053V6.337V6.3688V6.4007V6.43269V6.46478V6.49697V6.52925V6.56163V6.5941V6.62667V6.65933V6.69208V6.72493V6.75787V6.7909V6.82403V6.85724V6.89055V6.92394V6.95743V6.99101V7.02467V7.05842V7.09227V7.1262V7.16021V7.19432V7.22851V7.26278V7.29714V7.33159V7.36612V7.40074V7.43544V7.47022V7.50509V7.54004V7.57507V7.61018V7.64538V7.68065V7.71601V7.75144V7.78695V7.82255V7.85822V7.89397V7.9298V7.9657V8.00168V8.03774V8.07388V8.11009V8.14637V8.18273V8.21916V8.25567V8.29225V8.3289V8.36563V8.40243V8.4393V8.47624V8.51325V8.55033V8.58748V8.6247V8.66199V8.69935V8.73677V8.77427V8.81183V8.84945V8.88715V8.92491V8.96273V9.00062V9.03858V9.07659V9.11468V9.15282V9.19103V9.2293V9.26763V9.30603V9.34448V9.383V9.42157V9.46021V9.4989V9.53765V9.57646V9.61533V9.65426V9.69324V9.73228V9.77138V9.81053V9.84974V9.889V9.92832V9.96769V10.0071V10.0466V10.0861V10.1257V10.1653V10.205V10.2448V10.2845V10.3244V10.3643V10.4042V10.4442V10.4842V10.5243V10.5644V10.6046V10.6448V10.6851V10.7254V10.7658V10.8062V10.8466V10.8871V10.9276V10.9682V11.0088V11.0495V11.0902V11.131V11.1717V11.2126V11.2534V11.2943V11.3353V11.3763V11.4173V11.4583V11.4994V11.5406V11.5817V11.6229V11.6642V11.7055V11.7468V11.7881V11.8295V11.8709V11.9124V11.9538V11.9953V12.0369V12.0785V12.1201V12.1617V12.2034V12.2451V12.2868V12.3285V12.3703V12.4121V12.4539V12.4958V12.5377V12.5796V12.6215V12.6635V12.7055V12.7475V12.7895V12.8316V12.8737V12.9158V12.9579V13V13.0422V13.0844V13.1266V13.1688V13.2111V13.2533V13.2956V13.3379V13.3803V13.4226V13.4649V13.5073V13.5497V13.5921V13.6345V13.6769V13.7194V13.7618V13.8043V13.8468V13.8893V13.9318V13.9743V14.0169V14.0594V14.1019V14.1445V14.1871V14.2297V14.2722V14.3148V14.3574V14.4V14.4427V14.4853V14.5279V14.5705V14.6132V14.6558V14.6985V14.7411V14.7838V14.8264V14.8691V14.9117V14.9544V14.997V15.0397V15.0824V15.125V15.1677V15.2103V15.253V15.2957V15.3383V15.381V15.4236V15.4662V15.5089V15.5515V15.5941V15.6368V15.6794V15.722V15.7646V15.8072V15.8498V15.8923V15.9349V15.9775V16.02V16.0625V16.1051V16.1476V16.1901V16.2326V16.2751V16.3175V16.36V16.4024V16.4449V16.4873V16.5297V16.572V16.6144V16.6568V16.6991V16.7414V16.7837V16.826V16.8683V16.9105V16.9527V16.9949V17.0371V17.0793V17.1214V17.1635V17.2056V17.2477V17.2898V17.3318V17.3738V17.4158V17.4577V17.4997V17.5416V17.5835V17.6253V17.6671V17.7089V17.7507V17.7925V17.8342V17.8759V17.9175V17.9591V18.0007V18.0423V18.0838V18.1253V18.1668V18.2082V18.2497V18.291V18.3324V18.3737V18.4149V18.4562V18.4974V18.5385V18.5797V18.6207V18.6618V18.7028V18.7438V18.7847V18.8256V18.8665V18.9073V18.9481V18.9888V19.0295V19.0702V19.1108V19.1513V19.1919V19.2323V19.2728V19.3132V19.3535V19.3938V19.4341V19.4743V19.5145V19.5546V19.5947V19.6347V19.6746V19.7146V19.7544V19.7943V19.8341V19.8738V19.9135V19.9531V19.9926V20.0322V20.0716V20.111V20.1504V20.1897V20.229V20.2682V20.3073V20.3464V20.3854V20.4244V20.4633V20.5022V20.541V20.5797V20.6184V20.657V20.6956V20.7341V20.7725V20.8109V20.8492V20.8875V20.9257V20.9638V21.0019C20 21.5572 19.5492 21.9995 19 21.9995H5C4.44772 21.9995 4 21.5518 4 20.9995V3ZM19 3L9 3V20.9995H19V20.9638V20.9257V20.8875V20.8492V20.8109V20.7725V20.7341V20.6956V20.657V20.6184V20.5797V20.541V20.5022V20.4633V20.4244V20.3854V20.3464V20.3073V20.2682V20.229V20.1897V20.1504V20.111V20.0716V20.0322V19.9926V19.9531V19.9135V19.8738V19.8341V19.7943V19.7544V19.7146V19.6746V19.6347V19.5947V19.5546V19.5145V19.4743V19.4341V19.3938V19.3535V19.3132V19.2728V19.2323V19.1919V19.1513V19.1108V19.0702V19.0295V18.9888V18.9481V18.9073V18.8665V18.8256V18.7847V18.7438V18.7028V18.6618V18.6207V18.5797V18.5385V18.4974V18.4562V18.4149V18.3737V18.3324V18.291V18.2497V18.2082V18.1668V18.1253V18.0838V18.0423V18.0007V17.9591V17.9175V17.8759V17.8342V17.7925V17.7507V17.7089V17.6671V17.6253V17.5835V17.5416V17.4997V17.4577V17.4158V17.3738V17.3318V17.2898V17.2477V17.2056V17.1635V17.1214V17.0793V17.0371V16.9949V16.9527V16.9105V16.8683V16.826V16.7837V16.7414V16.6991V16.6568V16.6144V16.572V16.5297V16.4873V16.4449V16.4024V16.36V16.3175V16.2751V16.2326V16.1901V16.1476V16.1051V16.0625V16.02V15.9775V15.9349V15.8923V15.8498V15.8072V15.7646V15.722V15.6794V15.6368V15.5941V15.5515V15.5089V15.4662V15.4236V15.381V15.3383V15.2957V15.253V15.2103V15.1677V15.125V15.0824V15.0397V14.997V14.9544V14.9117V14.8691V14.8264V14.7838V14.7411V14.6985V14.6558V14.6132V14.5705V14.5279V14.4853V14.4427V14.4V14.3574V14.3148V14.2722V14.2297V14.1871V14.1445V14.1019V14.0594V14.0169V13.9743V13.9318V13.8893V13.8468V13.8043V13.7618V13.7194V13.6769V13.6345V13.5921V13.5497V13.5073V13.4649V13.4226V13.3803V13.3379V13.2956V13.2533V13.2111V13.1688V13.1266V13.0844V13.0422V13V12.9579V12.9158V12.8737V12.8316V12.7895V12.7475V12.7055V12.6635V12.6215V12.5796V12.5377V12.4958V12.4539V12.4121V12.3703V12.3285V12.2868V12.2451V12.2034V12.1617V12.1201V12.0785V12.0369V11.9953V11.9538V11.9124V11.8709V11.8295V11.7881V11.7468V11.7055V11.6642V11.6229V11.5817V11.5406V11.4994V11.4583V11.4173V11.3763V11.3353V11.2943V11.2534V11.2126V11.1717V11.131V11.0902V11.0495V11.0088V10.9682V10.9276V10.8871V10.8466V10.8062V10.7658V10.7254V10.6851V10.6448V10.6046V10.5644V10.5243V10.4842V10.4442V10.4042V10.3643V10.3244V10.2845V10.2448V10.205V10.1653V10.1257V10.0861V10.0466V10.0071V9.96769V9.92832V9.889V9.84974V9.81053V9.77138V9.73228V9.69324V9.65426V9.61533V9.57646V9.53765V9.4989V9.46021V9.42157V9.383V9.34448V9.30603V9.26763V9.2293V9.19103V9.15282V9.11468V9.07659V9.03858V9.00062V8.96273V8.92491V8.88715V8.84945V8.81183V8.77427V8.73677V8.69935V8.66199V8.6247V8.58748V8.55033V8.51325V8.47624V8.4393V8.40243V8.36563V8.3289V8.29225V8.25567V8.21916V8.18273V8.14637V8.11009V8.07388V8.03774V8.00168V7.9657V7.9298V7.89397V7.85822V7.82255V7.78695V7.75144V7.71601V7.68065V7.64538V7.61018V7.57507V7.54004V7.50509V7.47022V7.43544V7.40074V7.36612V7.33159V7.29714V7.26278V7.22851V7.19432V7.16021V7.1262V7.09227V7.05842V7.02467V6.99101V6.95743V6.92394V6.89055V6.85724V6.82403V6.7909V6.75787V6.72493V6.69208V6.65933V6.62667V6.5941V6.56163V6.52925V6.49697V6.46478V6.43269V6.4007V6.3688V6.337V6.3053V6.2737V6.2422V6.21079V6.17949V6.14828V6.11718V6.08617V6.05527V6.02447V5.99377V5.96318V5.93268V5.90229V5.87201V5.84183V5.81175V5.78178V5.75192V5.72216V5.69251V5.66297V5.63353V5.6042V5.57498V5.54587V5.51687V5.48798V5.45919V5.43052V5.40196V5.37351V5.34518V5.31695V5.28884V5.26084V5.23296V5.20519V5.17753V5.14999V5.12257V5.09526V5.06806V5.04099V5.01403V4.98719V4.96046V4.93386V4.90737V4.88101V4.85476V4.82863V4.80263V4.77674V4.75098V4.72534V4.69982V4.67443V4.64915V4.62401V4.59898V4.57408V4.54931V4.52466V4.50014V4.47574V4.45147V4.42733V4.40332V4.37943V4.35567V4.33205V4.30855V4.28518V4.26194V4.23883V4.21586V4.19301V4.1703V4.14772V4.12527V4.10296V4.08078V4.05874V4.03683V4.01505V3.99341V3.97191V3.95054V3.92931V3.90822V3.88727V3.86645V3.84577V3.82524V3.80484V3.78458V3.76446V3.74448V3.72465V3.70495V3.6854V3.66599V3.64673V3.62761V3.60863V3.58979V3.57111V3.55256V3.53417V3.51591V3.49781V3.47985V3.46204V3.44438V3.42686V3.4095V3.39228V3.37522V3.3583V3.34154V3.32492V3.30846V3.29215V3.27599V3.25999V3.24413V3.22843V3.21289V3.1975V3.18226V3.16718V3.15226V3.13749V3.12288V3.10843V3.09413V3.08V3.06602V3.0522V3.03854V3.02503V3.01169V3ZM5 3L8 3V20.9995H5V3ZM19.0008 3.00002L19.0007 2.99998L19.0006 2.99986C19.0006 2.99985 19.0006 2.99989 19.0008 2.99995L19.0011 3.00007L19.0008 3.00004L19.0008 3.00002ZM12 6.24805C11.7239 6.24805 11.5 6.4719 11.5 6.74805C11.5 7.02419 11.7239 7.24805 12 7.24805H16C16.2761 7.24805 16.5 7.02419 16.5 6.74805C16.5 6.4719 16.2761 6.24805 16 6.24805H12Z" fill="black"/>
</svg>
