<svg width="24" height="25" viewBox="0 0 24 25" fill="none" xmlns="http://www.w3.org/2000/svg">
<path fill-rule="evenodd" clip-rule="evenodd" d="M2.60391 2.1875H2.00391V2.7875V15.4584V17.7875V18.3875H2.60391H6.61152V21.0925V22.1867L7.53409 21.5984L12.5701 18.3875H21.4023H22.0023V17.7875V2.7875V2.1875H21.4023H2.60391ZM3.20391 15.4584V3.3875H20.8023V17.1875H12.3951H12.2201L12.0725 17.2816L7.81152 19.9984V17.7875V17.1875H7.21152H3.20391V15.4584ZM6.00391 7.1875H6.60391H17.4039H18.0039V8.3875H17.4039H6.60391H6.00391V7.1875ZM6.00391 11.1875H6.60391H12.4039H13.0039V12.3875H12.4039H6.60391H6.00391V11.1875Z" fill="black"/>
</svg>
