<svg width="32" height="32" viewBox="0 0 32 32" fill="none" xmlns="http://www.w3.org/2000/svg">
<circle cx="16.0001" cy="16.0001" r="13.3333" fill="black" fill-opacity="0.7"/>
<circle cx="16.0001" cy="16.0001" r="12.8333" stroke="white"/>
<path fill-rule="evenodd" clip-rule="evenodd" d="M9.33325 16.3242C9.33325 16.8321 9.47125 17.3304 9.73249 17.7659C9.81282 17.9 9.91957 18.0158 10.0473 18.1058C10.1751 18.1959 10.3202 18.2582 10.4735 18.2888L11.7382 18.542C11.8133 18.5571 11.8811 18.5975 11.9301 18.6563L13.4772 20.5119C14.3601 21.5718 14.8023 22.1015 15.196 21.9595C15.5904 21.8161 15.5904 21.1266 15.5904 19.7469V12.903C15.5904 11.5225 15.5904 10.8323 15.1953 10.6896C14.8016 10.547 14.3594 11.0766 13.4764 12.1373L11.9316 13.9921C11.8824 14.0511 11.8143 14.0914 11.7389 14.1064L10.4743 14.3596C10.321 14.3902 10.1758 14.4525 10.0481 14.5426C9.92031 14.6327 9.81282 14.7484 9.73249 14.8825C9.47125 15.318 9.33325 15.8163 9.33325 16.3242ZM18.2436 13.6709C18.0158 13.4431 17.6464 13.4431 17.4186 13.6709C17.1908 13.8987 17.1908 14.268 17.4186 14.4958L19.2471 16.3244L17.4186 18.1529C17.1908 18.3807 17.1908 18.75 17.4186 18.9778C17.6464 19.2056 18.0158 19.2056 18.2436 18.9778L20.0721 17.1493L21.9006 18.9778C22.1284 19.2056 22.4977 19.2056 22.7255 18.9778C22.9533 18.75 22.9533 18.3807 22.7255 18.1529L20.897 16.3244L22.7255 14.4958C22.9533 14.268 22.9533 13.8987 22.7255 13.6709C22.4977 13.4431 22.1284 13.4431 21.9006 13.6709L20.0721 15.4994L18.2436 13.6709Z" fill="white"/>
</svg>
