<svg width="60" height="60" viewBox="0 0 60 60" fill="none" xmlns="http://www.w3.org/2000/svg">
<path d="M51.413 25.7876V20.7876C51.4013 19.9006 51.1415 19.0346 50.663 18.2876C50.1668 17.5356 49.4695 16.9379 48.6505 16.5626L31.713 8.86263C31.1062 8.5802 30.4447 8.43508 29.7755 8.43763C29.106 8.43257 28.4439 8.57781 27.838 8.86263L11.2255 16.5001C10.3929 16.8892 9.6899 17.5098 9.20045 18.2876C8.71121 19.0303 8.44647 19.8983 8.43795 20.7876V38.4376C8.42589 39.3159 8.65505 40.1806 9.10045 40.9376C9.53939 41.6796 10.1754 42.2854 10.938 42.6876L27.663 51.5501C28.3428 51.8848 29.0928 52.0519 29.8505 52.0376C30.6084 52.0379 31.3549 51.8534 32.0255 51.5001L37.3005 48.7001L48.913 42.6376C49.6739 42.2331 50.3093 41.6276 50.75 40.8871C51.1908 40.1466 51.4201 39.2994 51.413 38.4376V25.7876Z" stroke="black" stroke-width="1.5" stroke-linejoin="round"/>
<path d="M41.9406 46.4621V25.0746C41.9359 24.1613 41.6715 23.2682 41.1781 22.4996C40.6787 21.7439 39.971 21.1491 39.1406 20.7871L21.0156 12.0371" stroke="black" stroke-width="1.5" stroke-linejoin="round"/>
<path d="M9.04688 17.9258C15.0719 20.7883 23.8844 24.9258 29.9719 27.8258L50.4219 18.2883" stroke="black" stroke-width="1.5" stroke-linejoin="round"/>
<path d="M29.9219 51.8254V27.9629" stroke="black" stroke-width="1.5" stroke-linejoin="round"/>
</svg>
