<svg width="32" height="32" viewBox="0 0 32 32" fill="none" xmlns="http://www.w3.org/2000/svg">
<path fill-rule="evenodd" clip-rule="evenodd" d="M2 4.07617C2 3.66196 2.33579 3.32617 2.75 3.32617H5.2052C5.98276 3.32617 6.67172 3.83994 6.88483 4.59437C7.15948 5.56667 7.43664 6.59504 7.71141 7.65039H27.2513C29.129 7.65039 30.4545 9.49054 29.8596 11.2715L27.4733 18.4165C26.826 20.3548 25.0115 21.6618 22.968 21.6618H10.9982C11.0402 21.8565 11.0796 22.04 11.1163 22.2114C11.2411 22.7941 11.7548 23.2097 12.3476 23.2097H26.0505C26.4647 23.2097 26.8005 23.5455 26.8005 23.9597C26.8005 24.3739 26.4647 24.7097 26.0505 24.7097H25.0186C25.4568 25.1283 25.7302 25.7175 25.7302 26.372C25.7302 27.6473 24.6923 28.6747 23.4198 28.6747C22.1473 28.6747 21.1094 27.6473 21.1094 26.372C21.1094 25.7175 21.3828 25.1283 21.821 24.7097H15.4482C15.8864 25.1283 16.1598 25.7175 16.1598 26.372C16.1598 27.6473 15.122 28.6747 13.8495 28.6747C12.577 28.6747 11.5391 27.6473 11.5391 26.372C11.5391 25.7167 11.8132 25.1268 12.2524 24.7081C10.9899 24.6649 9.91523 23.7658 9.64959 22.5255C8.9206 19.122 7.1298 10.9797 5.44131 5.00212C5.41245 4.89995 5.31778 4.82617 5.2052 4.82617H2.75C2.33579 4.82617 2 4.49039 2 4.07617ZM10.6812 20.2033C10.0529 17.3362 9.10694 13.1509 8.09602 9.15039H27.2513C28.1048 9.15039 28.7073 9.98682 28.4369 10.7964L26.0506 17.9414C25.6077 19.2676 24.3662 20.1618 22.968 20.1618H10.9277C10.8413 20.1618 10.7584 20.1764 10.6812 20.2033ZM13.0391 26.372C13.0391 25.9322 13.3984 25.5693 13.8495 25.5693C14.3005 25.5693 14.6598 25.9322 14.6598 26.372C14.6598 26.8119 14.3005 27.1747 13.8495 27.1747C13.3984 27.1747 13.0391 26.8119 13.0391 26.372ZM23.4198 25.5693C22.9687 25.5693 22.6094 25.9322 22.6094 26.372C22.6094 26.8119 22.9687 27.1747 23.4198 27.1747C23.8708 27.1747 24.2302 26.8119 24.2302 26.372C24.2302 25.9322 23.8708 25.5693 23.4198 25.5693ZM16.0156 13.8702C16.0156 13.0907 16.6015 12.5342 17.2338 12.5342C17.5884 12.5342 17.858 12.7007 18.0435 13.0068C18.1794 13.2311 18.4226 13.3681 18.6849 13.3681C18.9472 13.3681 19.1904 13.2311 19.3263 13.0068C19.5118 12.7007 19.7814 12.5342 20.136 12.5342C20.7683 12.5342 21.3542 13.0907 21.3542 13.8702C21.3542 14.2152 21.2359 14.5233 21.0474 14.7565L21.0344 14.7714C21.0243 14.7831 21.0145 14.7951 21.0051 14.8073C20.9975 14.8172 20.9843 14.8329 20.963 14.8542L20.9623 14.855C20.5102 15.3092 19.7636 16.025 18.8446 16.8669C18.754 16.9499 18.6158 16.9499 18.5252 16.8669C17.6062 16.025 16.8596 15.3092 16.4075 14.855L16.4068 14.8542C16.3855 14.8329 16.3723 14.8172 16.3647 14.8073C16.3553 14.7951 16.3455 14.7831 16.3354 14.7714L16.3224 14.7565C16.1339 14.5233 16.0156 14.2152 16.0156 13.8702ZM17.2338 11.0342C15.692 11.0342 14.5156 12.3457 14.5156 13.8702C14.5156 14.5701 14.7594 15.2163 15.1688 15.7153C15.1712 15.7183 15.1737 15.7212 15.1761 15.7241C15.1783 15.7266 15.1804 15.7291 15.1826 15.7316L15.1902 15.7404C15.2385 15.8015 15.2904 15.859 15.3443 15.9131C15.8175 16.3886 16.5818 17.1209 17.5119 17.973C18.1759 18.5812 19.1939 18.5812 19.8579 17.973C20.7877 17.1211 21.5518 16.3889 22.0251 15.9135C22.0792 15.8592 22.1312 15.8016 22.1796 15.7404L22.1872 15.7316C22.1919 15.7263 22.1965 15.7208 22.201 15.7153C22.6104 15.2163 22.8542 14.5701 22.8542 13.8702C22.8542 12.3457 21.6778 11.0342 20.136 11.0342C19.5709 11.0342 19.0797 11.2134 18.6849 11.512C18.2901 11.2134 17.7989 11.0342 17.2338 11.0342Z" fill="black"/>
</svg>
