<svg width="16" height="16" viewBox="0 0 16 16" fill="none" xmlns="http://www.w3.org/2000/svg">
<path fill-rule="evenodd" clip-rule="evenodd" d="M12.4475 1.2C11.7211 1.2 11.0917 1.81993 11.0917 2.63568C11.0917 3.45142 11.7211 4.07135 12.4475 4.07135C13.174 4.07135 13.8034 3.45142 13.8034 2.63568C13.8034 1.81993 13.174 1.2 12.4475 1.2ZM9.89169 2.63568C9.89169 1.20288 11.0136 0 12.4475 0C13.8815 0 15.0034 1.20288 15.0034 2.63568C15.0034 4.06847 13.8815 5.27135 12.4475 5.27135C11.7216 5.27135 11.0757 4.96309 10.6148 4.4728L5.89613 7.48179C6.03503 7.80757 6.11171 8.16645 6.11171 8.54105C6.11171 8.57879 6.11093 8.61637 6.10939 8.65377L10.6155 11.5272C11.0764 11.0374 11.722 10.7294 12.4475 10.7294C13.8815 10.7294 15.0034 11.9323 15.0034 13.3651C15.0034 14.7979 13.8815 16.0008 12.4475 16.0008C11.0136 16.0008 9.89169 14.7979 9.89169 13.3651C9.89169 13.0876 9.93377 12.8188 10.012 12.5656L5.76858 9.85967C5.33015 10.6414 4.51244 11.1767 3.55586 11.1767C2.1219 11.1767 1 9.97384 1 8.54105C1 7.10825 2.1219 5.90537 3.55586 5.90537C4.1812 5.90537 4.7472 6.13414 5.18668 6.51097L10.0117 3.43414C9.93366 3.18128 9.89169 2.91278 9.89169 2.63568ZM11.0917 13.3651C11.0917 12.5494 11.7211 11.9294 12.4475 11.9294C13.174 11.9294 13.8034 12.5494 13.8034 13.3651C13.8034 14.1809 13.174 14.8008 12.4475 14.8008C11.7211 14.8008 11.0917 14.1809 11.0917 13.3651ZM2.2 8.54105C2.2 7.7253 2.82943 7.10537 3.55586 7.10537C4.28228 7.10537 4.91171 7.7253 4.91171 8.54105C4.91171 9.35679 4.28228 9.97672 3.55586 9.97672C2.82943 9.97672 2.2 9.35679 2.2 8.54105Z" fill="black"/>
</svg>
