<svg width="48" height="48" viewBox="0 0 48 48" fill="none" xmlns="http://www.w3.org/2000/svg">
<path fill-rule="evenodd" clip-rule="evenodd" d="M20.264 30.1344C19.5797 29.4198 18.6691 28.9641 17.6869 28.8447C16.8732 28.7735 16.3488 28.9801 15.2922 29.5715C13.6925 30.4615 12.1973 31.5274 10.8341 32.7492C9.71974 33.8108 9.2103 34.6801 9.13121 35.6563C9.10845 36.2134 9.19965 36.7693 9.39922 37.29C9.5988 37.8107 9.90252 38.2852 10.2918 38.6844C10.9391 39.4926 11.7326 40.1717 12.631 40.6865C13.491 41.1999 14.4242 41.5795 15.3984 41.8123C16.1733 41.9613 16.9605 42.0376 17.7496 42.0402C17.8779 42.0402 17.9954 42.0331 18.0973 42.0331C20.2348 41.8906 22.0446 41.2708 24.7727 39.746C28.558 37.576 31.8527 34.6454 34.4492 31.1389C37.7534 27.0087 39.9924 22.13 40.9693 16.9317C41.1354 15.869 41.2069 14.7937 41.183 13.7184C41.0486 11.6732 40.2566 9.72618 38.9251 8.16795C38.4969 7.63615 38.0111 7.15352 37.4766 6.72877C36.6277 6.00158 35.6389 5.45599 34.571 5.12565C33.9976 4.98092 33.4 4.959 32.8176 5.06146C32.0153 5.24806 31.3035 5.70935 30.8054 6.36539C30.0758 7.29164 28.9529 9.92787 28.2005 12.4929C27.9883 13.1598 27.9073 13.8614 27.9619 14.5591C28.0452 15.0915 28.2757 15.59 28.6273 15.9983C29.1902 16.6681 29.7837 17.0315 31.5336 17.9293C32.1279 18.2356 32.6686 18.5207 32.767 18.5777C32.7998 18.6016 32.822 18.6373 32.829 18.6773C32.8226 18.6773 32.7613 18.8626 32.6679 19.0764C30.7978 23.2496 28.1638 27.0363 24.9017 30.2413C24.0735 31.0618 23.1955 31.8304 22.2725 32.5426C22.2449 32.5423 22.2175 32.5375 22.1913 32.5284C22.1486 32.4785 21.8935 32.108 21.7075 31.8444C21.2778 31.2329 20.7948 30.6606 20.264 30.1344Z" stroke="black" stroke-width="1.5" stroke-linejoin="round"/>
<path d="M13.5 23.25C13.5 18.6937 17.1937 15 21.75 15" stroke="black" stroke-width="1.5" stroke-linecap="round"/>
<path d="M6 23.25C6 14.5515 13.0515 7.5 21.75 7.5" stroke="black" stroke-width="1.5" stroke-linecap="round"/>
</svg>
