<svg width="32" height="32" viewBox="0 0 32 32" fill="none" xmlns="http://www.w3.org/2000/svg">
<path fill-rule="evenodd" clip-rule="evenodd" d="M6.16634 5.08325H5.41634V6.58325H6.16634H7.24967L7.24967 25.4166H6.16634H5.41634V26.9166H6.16634H9.83301H10.583V25.4166H9.83301H8.74967L8.74967 6.58325H9.83301H10.583V5.08325H9.83301H6.16634ZM1.08105 7.74988H1.83105H4.83301H5.58301V9.24988H4.83301H2.58105V22.7499H4.83301H5.58301V24.2499H4.83301H1.83105H1.08105V23.4999V8.49988V7.74988ZM10.4163 7.74988H11.1663H30.1644H30.9144V8.49988V23.4999V24.2499H30.1644H11.1663H10.4163V22.7499H11.1663H29.4144V9.24988H11.1663H10.4163V7.74988ZM14.5329 18.1164H13.7829V19.6164H14.5329H18.8662H19.6162V18.1164H18.8662H14.5329ZM21.8662 18.1164H21.1162V19.6164H21.8662H26.1995H26.9495V18.1164H26.1995H21.8662Z" fill="black"/>
</svg>
