<svg width="24" height="24" viewBox="0 0 24 24" fill="none" xmlns="http://www.w3.org/2000/svg">
<path fill-rule="evenodd" clip-rule="evenodd" d="M20.8351 13.9386C21.3231 11.8059 20.9439 9.56666 19.7809 7.71354C18.6179 5.86042 16.7664 4.5452 14.6337 4.0572L14.2991 5.51941C16.044 5.91867 17.5589 6.99474 18.5104 8.5109C19.4619 10.0271 19.7722 11.8591 19.3729 13.604C18.9736 15.3489 17.8976 16.8638 16.3814 17.8153C15.8945 18.1209 15.375 18.3603 14.8362 18.5314L15.4266 17.4723L14.1165 16.7419L12.5869 19.4857L12.2217 20.1408L12.8768 20.506L15.6205 22.0355L16.3509 20.7254L15.0892 20.022C15.8195 19.8105 16.5233 19.4972 17.1788 19.0858C19.0319 17.9228 20.3471 16.0713 20.8351 13.9386ZM4.29485 16.1247C3.20093 14.2299 2.9045 11.9783 3.47075 9.865C4.037 7.75172 5.41955 5.94994 7.31427 4.85602C7.98364 4.46957 8.69757 4.18263 9.4342 3.99811L8.20159 3.25014L8.97976 1.96777L11.6653 3.59741L12.3064 3.98649L11.9174 4.62767L10.2877 7.31318L9.00537 6.53501L9.63579 5.49613C9.09075 5.64721 8.56244 5.86744 8.06427 6.15506C6.51408 7.05006 5.38292 8.52422 4.91963 10.2532C4.45635 11.9822 4.69888 13.8245 5.59388 15.3747C6.48889 16.9249 7.96304 18.056 9.69205 18.5193L9.30382 19.9682C7.19054 19.4019 5.38876 18.0194 4.29485 16.1247Z" fill="#333333"/>
</svg>
