<svg width="60" height="94" viewBox="0 0 60 94" fill="none" xmlns="http://www.w3.org/2000/svg">
<path d="M0 8.5C0 4.08172 3.58172 0.5 8 0.5H52C56.4183 0.5 60 4.08172 60 8.5V85.5C60 89.9183 56.4183 93.5 52 93.5H8C3.58172 93.5 0 89.9183 0 85.5V8.5Z" fill="#F6F6F6"/>
<g clip-path="url(#clip0_3272_385391)">
<path d="M15.7412 20.3384H13.5747C13.5747 21.845 12.7587 23.2198 11.3403 24.1254L10.4854 24.6688L13.8079 28.5052H16.5378L13.4776 24.9734C14.9251 23.7549 15.7412 22.1084 15.7412 20.3384Z" fill="black"/>
<path d="M10.215 20.3384H8V28.5052H10.215V20.3384Z" fill="black"/>
<path d="M19.264 20.3384H17.1753V28.5052H19.264V20.3384Z" fill="black"/>
<path d="M37.5893 22.7007C36.7927 22.7007 36.0349 22.9065 35.5297 23.491V22.8571H33.5479V28.5047H35.5589V25.541C35.5589 24.6848 36.2389 24.2649 37.055 24.2649C37.9293 24.2649 38.4345 24.7095 38.4345 25.5327V28.513H40.4261V24.9153C40.4261 23.598 39.1923 22.7007 37.5893 22.7007Z" fill="black"/>
<path d="M25.5881 22.8571V23.2193C25.0246 22.89 24.3445 22.7007 23.6062 22.7007C21.6632 22.7007 20.0894 24.0344 20.0894 25.6809C20.0894 27.3274 21.6632 28.6611 23.6062 28.6611C24.3445 28.6611 25.0246 28.4718 25.5881 28.1425V28.5047H27.5797V22.8571H25.5881ZM23.7714 27.1299C22.7707 27.1299 21.9644 26.4795 21.9644 25.6809C21.9644 24.8823 22.7707 24.232 23.7714 24.232C24.772 24.232 25.5784 24.8823 25.5784 25.6809C25.5784 26.4795 24.772 27.1299 23.7714 27.1299Z" fill="black"/>
<path d="M30.6661 23.5935V22.8608H28.626V28.5085H30.6759V25.874C30.6759 24.9849 31.8125 24.5074 32.5994 24.5074C32.6092 24.5074 32.6189 24.5074 32.6189 24.5074V22.8608C31.8125 22.8608 31.0645 23.1572 30.6661 23.5935Z" fill="black"/>
<path d="M46.6271 22.8571V23.2193C46.0637 22.89 45.3836 22.7007 44.6453 22.7007C42.7023 22.7007 41.1284 24.0344 41.1284 25.6809C41.1284 27.3274 42.7023 28.6611 44.6453 28.6611C45.3836 28.6611 46.0637 28.4718 46.6271 28.1425V28.5047H48.6187V22.8571H46.6271ZM44.8104 27.1299C43.8098 27.1299 43.0034 26.4795 43.0034 25.6809C43.0034 24.8823 43.8098 24.232 44.8104 24.232C45.8111 24.232 46.6174 24.8823 46.6174 25.6809C46.6271 26.4795 45.8111 27.1299 44.8104 27.1299Z" fill="black"/>
<path d="M50.1612 23.0175C50.1612 22.9351 50.0932 22.8857 49.9863 22.8857H49.8018V23.3138H49.8892V23.1574H49.9863L50.0641 23.3138H50.1612L50.0738 23.141C50.1321 23.1163 50.1612 23.0751 50.1612 23.0175ZM49.9863 23.0833H49.8892V22.9516H49.9863C50.0446 22.9516 50.0738 22.9763 50.0738 23.0175C50.0738 23.0586 50.0544 23.0833 49.9863 23.0833Z" fill="black"/>
<path d="M49.956 22.7075C49.6937 22.7075 49.48 22.8886 49.48 23.1109C49.4897 23.3332 49.6937 23.5143 49.956 23.5143C50.2183 23.5143 50.4321 23.3332 50.4321 23.1109C50.4321 22.8886 50.2183 22.7075 49.956 22.7075ZM49.956 23.4402C49.7423 23.4402 49.5771 23.292 49.5771 23.1109C49.5771 22.9298 49.752 22.7816 49.956 22.7816C50.1697 22.7816 50.3349 22.9298 50.3349 23.1109C50.3349 23.292 50.16 23.4402 49.956 23.4402Z" fill="black"/>
<path d="M50.7464 26.5054C50.0566 26.5054 49.4932 26.9829 49.4932 27.5674C49.4932 28.1519 50.0566 28.6294 50.7464 28.6294C51.4362 28.6294 51.9996 28.1519 51.9996 27.5674C51.9996 26.9746 51.4362 26.5054 50.7464 26.5054Z" fill="black"/>
</g>
<rect x="8" y="40" width="44" height="18.1925" rx="9.09625" fill="white" stroke="#DDDDDD"/>
<g clip-path="url(#clip1_3272_385391)">
<path d="M14.4355 48.3279C14.4355 45.572 16.6697 43.3379 19.4256 43.3379C22.1815 43.3379 24.4157 45.572 24.4157 48.3279V49.0956C24.4157 52.2756 21.8378 54.8534 18.6579 54.8534H14.4355V48.3279Z" fill="white"/>
<path fill-rule="evenodd" clip-rule="evenodd" d="M15.9785 47.811C15.9785 46.2811 17.2184 45.041 18.7476 45.041C20.2768 45.041 21.5167 46.2811 21.5167 47.811C21.5167 49.341 20.2768 50.581 18.7476 50.581C17.2184 50.581 15.9785 49.341 15.9785 47.811ZM18.7476 44.041C16.6659 44.041 14.9785 45.729 14.9785 47.811C14.9785 49.893 16.6659 51.581 18.7476 51.581C19.451 51.581 20.1094 51.3883 20.6729 51.0528C20.6701 51.1714 20.7092 51.2914 20.7922 51.3888L22.9995 53.9786C23.1786 54.1888 23.4942 54.214 23.7044 54.0349C23.9145 53.8557 23.9397 53.5402 23.7606 53.33L21.5533 50.7401C21.4853 50.6603 21.3977 50.6072 21.3035 50.5818C22.0496 49.893 22.5167 48.9065 22.5167 47.811C22.5167 45.729 20.8294 44.041 18.7476 44.041Z" fill="black"/>
</g>
<defs>
<clipPath id="clip0_3272_385391">
<rect width="43.9997" height="20" fill="white" transform="translate(8 14.5)"/>
</clipPath>
<clipPath id="clip1_3272_385391">
<path d="M14.4355 48.3279C14.4355 45.572 16.6697 43.3379 19.4256 43.3379C22.1815 43.3379 24.4157 45.572 24.4157 48.3279V49.0956C24.4157 52.2756 21.8378 54.8534 18.6579 54.8534H14.4355V48.3279Z" fill="white"/>
</clipPath>
</defs>
</svg>
