<svg width="60" height="60" viewBox="0 0 60 60" fill="none" xmlns="http://www.w3.org/2000/svg">
<mask id="path-1-inside-1_3756_172689" fill="white">
<path fill-rule="evenodd" clip-rule="evenodd" d="M45.1631 5C45.8223 5 46.5875 5.21357 47.156 5.77722L53.1064 11.6763C53.675 12.2399 53.8904 12.9985 53.8904 13.6519C53.8904 14.3049 53.6753 15.0629 53.1077 15.6264L26.6625 41.9744C26.4624 42.1738 26.2028 42.3041 25.9222 42.346L16.2694 43.788C15.8543 43.85 15.4341 43.713 15.1373 43.4187C14.8405 43.1244 14.7022 42.7079 14.7648 42.2964L16.2193 32.7269C16.2616 32.4487 16.393 32.1914 16.5942 31.9929L43.1703 5.77722C43.7387 5.21442 44.5044 5 45.1631 5Z"/>
</mask>
<path d="M37.8 14.0518C37.5059 13.7602 37.031 13.7623 36.7394 14.0564C36.4478 14.3506 36.4498 14.8255 36.744 15.1171L37.8 14.0518ZM44.0167 22.327C44.3108 22.6186 44.7857 22.6166 45.0773 22.3224C45.3689 22.0283 45.3669 21.5534 45.0727 21.2618L44.0167 22.327ZM36.744 15.1171L44.0167 22.327L45.0727 21.2618L37.8 14.0518L36.744 15.1171ZM47.156 5.77722L48.2121 4.71198L48.2121 4.71198L47.156 5.77722ZM53.1064 11.6763L54.1625 10.611L54.1625 10.611L53.1064 11.6763ZM53.1077 15.6264L52.0508 14.5619L52.0489 14.5638L53.1077 15.6264ZM26.6625 41.9744L25.6038 40.9118L25.6038 40.9118L26.6625 41.9744ZM25.9222 42.346L26.1438 43.8296H26.1438L25.9222 42.346ZM16.2694 43.788L16.0477 42.3045H16.0477L16.2694 43.788ZM15.1373 43.4187L14.0813 44.484L14.0813 44.484L15.1373 43.4187ZM14.7648 42.2964L16.2477 42.5218H16.2477L14.7648 42.2964ZM16.2193 32.7269L17.7023 32.9523L17.7023 32.9523L16.2193 32.7269ZM16.5942 31.9929L17.6476 33.0608L17.6476 33.0608L16.5942 31.9929ZM43.1703 5.77722L44.2237 6.8451L44.2256 6.84316L43.1703 5.77722ZM48.2121 4.71198C47.2964 3.80419 46.1137 3.5 45.1631 3.5V6.5C45.5309 6.5 45.8785 6.62295 46.1 6.84247L48.2121 4.71198ZM54.1625 10.611L48.2121 4.71198L46.1 6.84247L52.0504 12.7415L54.1625 10.611ZM55.3904 13.6519C55.3904 12.6998 55.0798 11.5205 54.1625 10.611L52.0504 12.7415C52.2701 12.9594 52.3904 13.2972 52.3904 13.6519H55.3904ZM54.1645 16.6909C55.0803 15.7817 55.3904 14.6034 55.3904 13.6519H52.3904C52.3904 14.0064 52.2703 14.344 52.0508 14.5619L54.1645 16.6909ZM27.7212 43.037L54.1664 16.689L52.0489 14.5638L25.6038 40.9118L27.7212 43.037ZM26.1438 43.8296C26.7398 43.7405 27.2931 43.4636 27.7212 43.037L25.6038 40.9118C25.6316 40.8841 25.6658 40.8677 25.7006 40.8625L26.1438 43.8296ZM16.491 45.2716L26.1438 43.8296L25.7006 40.8625L16.0477 42.3045L16.491 45.2716ZM14.0813 44.484C14.7158 45.113 15.6101 45.4032 16.491 45.2716L16.0477 42.3045C16.0984 42.2969 16.1525 42.3129 16.1934 42.3535L14.0813 44.484ZM13.2818 42.071C13.1469 42.9586 13.4458 43.854 14.0813 44.484L16.1934 42.3535C16.2351 42.3949 16.2576 42.4573 16.2477 42.5218L13.2818 42.071ZM14.7364 32.5015L13.2818 42.071L16.2477 42.5218L17.7023 32.9523L14.7364 32.5015ZM15.5408 30.9251C15.1104 31.3496 14.8275 31.902 14.7363 32.5015L17.7023 32.9523C17.6957 32.9953 17.6757 33.0331 17.6476 33.0608L15.5408 30.9251ZM42.1169 4.70935L15.5408 30.9251L17.6476 33.0608L44.2237 6.8451L42.1169 4.70935ZM45.1631 3.5C44.2121 3.5 43.0297 3.80555 42.1149 4.71129L44.2256 6.84316C44.4477 6.62329 44.7968 6.5 45.1631 6.5V3.5Z" fill="black" mask="url(#path-1-inside-1_3756_172689)"/>
<path d="M32.3163 6.90918H12.1172C8.80348 6.90918 6.11719 9.59547 6.11719 12.9092V48.1999C6.11719 51.5136 8.80347 54.1999 12.1172 54.1999H40.8443C44.158 54.1999 46.8443 51.5136 46.8443 48.1999V30.5558" stroke="black" stroke-width="1.5"/>
</svg>
