<svg width="32" height="32" viewBox="0 0 32 32" fill="none" xmlns="http://www.w3.org/2000/svg">
<g clip-path="url(#clip0_1571_39387)">
<path d="M26.8824 25.2674C14.6762 31.0765 7.1009 26.2162 2.2517 23.2641C1.95163 23.0781 1.44162 23.3076 1.88413 23.8159C3.49964 25.7747 8.79401 30.4961 15.7047 30.4961C22.6201 30.4961 26.7342 26.7227 27.2488 26.0645C27.76 25.4118 27.3989 25.0518 26.8823 25.2674H26.8824ZM30.3105 23.3742C29.9827 22.9474 28.3173 22.8678 27.2693 22.9965C26.2195 23.1216 24.6439 23.7631 24.7809 24.1483C24.8512 24.2926 24.9947 24.2279 25.7158 24.163C26.4389 24.0909 28.4645 23.8353 28.8866 24.387C29.3107 24.9426 28.2406 27.5893 28.0451 28.0161C27.8563 28.443 28.1173 28.553 28.472 28.2687C28.8218 27.9846 29.4551 27.2486 29.8801 26.2071C30.3022 25.16 30.5596 23.6992 30.3104 23.3742H30.3105Z" fill="#FF9900"/>
<path fill-rule="evenodd" clip-rule="evenodd" d="M18.6767 13.4141C18.6767 14.9383 18.7152 16.2094 17.9448 17.563C17.323 18.6637 16.338 19.3405 15.2375 19.3405C13.7352 19.3405 12.8603 18.1959 12.8603 16.5066C12.8603 13.1719 15.8482 12.5666 18.6767 12.5666V13.4141ZM22.6221 22.9503C22.3635 23.1814 21.9893 23.1979 21.6977 23.0438C20.399 21.9653 20.1679 21.4646 19.4526 20.4355C17.3065 22.6257 15.7877 23.2804 13.0034 23.2804C9.71275 23.2804 7.14844 21.2499 7.14844 17.1834C7.14844 14.0084 8.87089 11.8458 11.3194 10.7893C13.4436 9.85375 16.4096 9.68869 18.6767 9.43015V8.92385C18.6767 7.99384 18.7482 6.89333 18.2035 6.08998C17.7247 5.3691 16.8112 5.07194 16.0078 5.07194C14.5166 5.07194 13.1849 5.83677 12.8603 7.42155C12.7941 7.77381 12.5356 8.1205 12.1835 8.13698L8.38652 7.72985C8.06743 7.65817 7.71528 7.39963 7.80332 6.9098C8.67823 2.30963 12.8327 0.922852 16.5525 0.922852C18.4564 0.922852 20.9436 1.42915 22.4459 2.87091C24.3499 4.64822 24.1683 7.01987 24.1683 9.60065V15.6977C24.1683 17.5301 24.9277 18.3334 25.643 19.324C25.8961 19.6761 25.9512 20.1 25.6319 20.364C24.834 21.0297 23.4143 22.2679 22.633 22.9613L22.622 22.9503" fill="black"/>
<path d="M26.8824 25.2674C14.6762 31.0765 7.1009 26.2162 2.2517 23.2641C1.95163 23.0781 1.44162 23.3076 1.88413 23.8159C3.49964 25.7747 8.79401 30.4961 15.7047 30.4961C22.6201 30.4961 26.7342 26.7227 27.2488 26.0645C27.76 25.4118 27.3989 25.0518 26.8823 25.2674H26.8824ZM30.3105 23.3742C29.9827 22.9474 28.3173 22.8678 27.2693 22.9965C26.2195 23.1216 24.6439 23.7631 24.7809 24.1483C24.8512 24.2926 24.9947 24.2279 25.7158 24.163C26.4389 24.0909 28.4645 23.8353 28.8866 24.387C29.3107 24.9426 28.2406 27.5893 28.0451 28.0161C27.8563 28.443 28.1173 28.553 28.472 28.2687C28.8218 27.9846 29.4551 27.2486 29.8801 26.2071C30.3022 25.16 30.5596 23.6992 30.3104 23.3742H30.3105Z" fill="#FF9900"/>
<path fill-rule="evenodd" clip-rule="evenodd" d="M18.6767 13.4141C18.6767 14.9383 18.7152 16.2094 17.9448 17.563C17.323 18.6637 16.338 19.3405 15.2375 19.3405C13.7352 19.3405 12.8603 18.1959 12.8603 16.5066C12.8603 13.1719 15.8482 12.5666 18.6767 12.5666V13.4141ZM22.6221 22.9503C22.3635 23.1814 21.9893 23.1979 21.6977 23.0438C20.399 21.9653 20.1679 21.4646 19.4526 20.4355C17.3065 22.6257 15.7877 23.2804 13.0034 23.2804C9.71275 23.2804 7.14844 21.2499 7.14844 17.1834C7.14844 14.0084 8.87089 11.8458 11.3194 10.7893C13.4436 9.85375 16.4096 9.68869 18.6767 9.43015V8.92385C18.6767 7.99384 18.7482 6.89333 18.2035 6.08998C17.7247 5.3691 16.8112 5.07194 16.0078 5.07194C14.5166 5.07194 13.1849 5.83677 12.8603 7.42155C12.7941 7.77381 12.5356 8.1205 12.1835 8.13698L8.38652 7.72985C8.06743 7.65817 7.71528 7.39963 7.80332 6.9098C8.67823 2.30963 12.8327 0.922852 16.5525 0.922852C18.4564 0.922852 20.9436 1.42915 22.4459 2.87091C24.3499 4.64822 24.1683 7.01987 24.1683 9.60065V15.6977C24.1683 17.5301 24.9277 18.3334 25.643 19.324C25.8961 19.6761 25.9512 20.1 25.6319 20.364C24.834 21.0297 23.4143 22.2679 22.633 22.9613L22.622 22.9503" fill="black"/>
</g>
<defs>
<clipPath id="clip0_1571_39387">
<rect width="30.1538" height="30.1538" fill="white" transform="translate(0.921875 0.922852)"/>
</clipPath>
</defs>
</svg>
