<svg width="97" height="82" viewBox="0 0 97 82" fill="none" xmlns="http://www.w3.org/2000/svg">
<path d="M42.8207 27C38.4236 24.8105 35.3828 20.1056 35.3828 14.6547C35.3828 7.11342 41.2031 1 48.3828 1C55.5625 1 61.3828 7.11342 61.3828 14.6547C61.3828 20.1056 58.342 24.8105 53.9449 27" stroke="white" stroke-width="2" stroke-miterlimit="10" stroke-linecap="round" stroke-linejoin="round"/>
<path d="M43.5828 41.62C43.5828 38.7752 41.2997 36.4694 38.4828 36.4694C35.6659 36.4694 33.3828 38.7752 33.3828 41.62V53.6379C33.3828 67.8602 44.8 81 58.8828 81C72.9656 81 84.3828 67.8602 84.3828 53.6379V41.62C84.3828 38.7752 82.0997 36.4694 79.2828 36.4694C76.4659 36.4694 74.1828 38.7752 74.1828 41.62V38.1863C74.1828 35.3415 71.8997 33.0358 69.0828 33.0358C66.2659 33.0358 63.9828 35.3415 63.9828 38.1863V34.7526C63.9828 31.9078 61.6997 29.6021 58.8828 29.6021C56.0659 29.6021 53.7828 31.9078 53.7828 34.7526V14.1505C53.7828 11.3057 51.4997 9 48.6828 9C45.8659 9 43.5828 11.3057 43.5828 14.1505V51.921V41.62Z" stroke="white" stroke-width="2" stroke-miterlimit="10" stroke-linecap="round" stroke-linejoin="round"/>
<path fill-rule="evenodd" clip-rule="evenodd" d="M5.9452 12.4388C6.32562 12.0384 6.30945 11.4055 5.90908 11.0251C5.50871 10.6446 4.87575 10.6608 4.49533 11.0612L1.41545 14.3026C1.24052 14.4826 1.13281 14.7284 1.13281 14.9993C1.13281 15.0023 1.13283 15.0053 1.13285 15.0083C1.13408 15.1458 1.16302 15.2766 1.21437 15.3954C1.25985 15.501 1.32435 15.6003 1.40788 15.6882L4.49533 18.9375C4.87575 19.3379 5.50871 19.354 5.90908 18.9736C6.30945 18.5932 6.32562 17.9602 5.9452 17.5599L4.46234 15.9993H25.6346C26.1869 15.9993 26.6346 15.5515 26.6346 14.9993C26.6346 14.447 26.1869 13.9993 25.6346 13.9993H4.46251L5.9452 12.4388Z" fill="white"/>
<path fill-rule="evenodd" clip-rule="evenodd" d="M90.8204 17.5612C90.44 17.9616 90.4562 18.5945 90.8565 18.9749C91.2569 19.3554 91.8899 19.3392 92.2703 18.9388L95.3502 15.6974C95.5251 15.5174 95.6328 15.2716 95.6328 15.0007C95.6328 14.9977 95.6328 14.9947 95.6328 14.9917C95.6315 14.8542 95.6026 14.7234 95.5513 14.6046C95.5058 14.499 95.4413 14.3997 95.3577 14.3118L92.2703 11.0625C91.8899 10.6621 91.2569 10.646 90.8565 11.0264C90.4562 11.4068 90.44 12.0398 90.8204 12.4401L92.3033 14.0007L71.1311 14.0007C70.5788 14.0007 70.1311 14.4485 70.1311 15.0007C70.1311 15.553 70.5788 16.0007 71.1311 16.0007L92.3031 16.0007L90.8204 17.5612Z" fill="white"/>
</svg>
