<svg width="32" height="32" viewBox="0 0 32 32" fill="none" xmlns="http://www.w3.org/2000/svg">
<path fill-rule="evenodd" clip-rule="evenodd" d="M16 32C24.8366 32 32 24.8366 32 16C32 7.16344 24.8366 0 16 0C7.16344 0 0 7.16344 0 16C0 24.8366 7.16344 32 16 32ZM11.6587 9.08917C11.6587 7.38167 12.6337 6 13.8371 6C15.0421 6 16.0154 7.38167 16.0162 9.08917C16.0162 10.7983 15.0429 12.1808 13.8379 12.1808C12.6346 12.1808 11.6587 10.7983 11.6587 9.08917ZM17.2087 9.2725C17.3312 8.1575 18.5921 6.48333 19.6912 6.495H19.6904C19.7636 6.49547 19.8365 6.50385 19.9079 6.52C21.0471 6.77833 22.0862 8.28583 21.8762 9.58167C21.6704 10.88 20.6354 12.5933 19.0246 12.385C17.4171 12.1783 17.0529 10.7267 17.2087 9.2725ZM9.06374 10.6192C9.107 10.6157 9.15035 10.6135 9.19374 10.6125C10.5304 10.5933 11.5029 12.0558 11.6071 12.9042C11.6729 13.4725 11.9687 16.0717 9.7879 16.5392C7.61207 17.0067 6.80124 14.4942 7.0404 13.3192C7.0404 13.3192 7.29874 10.7775 9.06374 10.6192ZM20.7912 15.0867C20.7912 13.8392 21.0487 12.0733 22.9721 12.0733C24.8921 12.0733 25.4087 13.9442 25.4087 14.565C25.4087 14.612 25.4102 14.6705 25.4119 14.7385C25.4331 15.5737 25.4906 17.8398 23.2812 17.8883C20.8921 17.9408 20.7912 16.2783 20.7912 15.0867ZM13.3162 15.7608C13.8287 14.9092 14.8987 14.15 16.0854 14.1383C17.0687 14.1292 18.1321 14.6317 19.0254 16.0192C20.4804 18.0958 22.9721 20.0175 22.9721 20.0175C22.9721 20.0175 24.8371 21.4717 23.6454 24.275C22.4521 27.0783 18.0912 25.6217 18.0912 25.6217C18.0912 25.6217 16.4829 25.1067 14.6162 25.5192C12.7487 25.9358 11.1404 25.7775 11.1404 25.7775C11.1404 25.7775 8.9579 25.8308 8.33624 23.08C7.80883 20.7441 9.74413 19.3062 10.4704 18.7666C10.6001 18.6701 10.6913 18.6024 10.7229 18.5633C10.7746 18.4983 10.9038 18.3883 11.083 18.2357C11.6228 17.776 12.6168 16.9295 13.3162 15.7608ZM15.5087 17.3583L14.2237 17.3383L14.2229 19.1883H12.7146C12.7146 19.1883 11.2046 19.3108 10.6754 21.0183C10.5047 22.0791 10.7935 22.7324 10.8825 22.9336C10.8891 22.9485 10.8946 22.9609 10.8987 22.9708C10.9612 23.1125 11.4487 23.9467 12.6737 24.1892H15.5087V17.3583ZM17.5271 22.5642V19.33L16.2021 19.3517V22.9492C16.2021 22.9492 16.2629 23.845 17.5271 24.17H20.7896V19.3517H19.3821V22.9708H18.0371C18.0371 22.9708 17.6071 22.9083 17.5271 22.5642ZM12.1037 21.0592C12.1637 20.8758 12.4287 20.45 12.9787 20.2858L14.2021 20.2867V23.07H13.0604C13.0604 23.07 12.2654 23.0292 12.0204 22.1167C11.8979 21.7092 12.0404 21.2425 12.1037 21.0592Z" fill="#333333"/>
</svg>
