<svg width="124" height="24" viewBox="0 0 124 24" fill="none" xmlns="http://www.w3.org/2000/svg">
<g id="pay.png">
<g id="Clip path group">
<mask id="mask0_12572_149392" style="mask-type:luminance" maskUnits="userSpaceOnUse" x="9" y="0" width="107" height="24">
<g id="clip0">
<path id="Vector" d="M115.297 0H9V24H115.297V0Z" fill="white"/>
</g>
</mask>
<g mask="url(#mask0_12572_149392)">
<g id="Group">
<path id="Vector_2" d="M10.4761 19.3378L11.0483 23.9998H31.0814L30.4258 18.6608H21.0855L21.0039 17.9992L29.607 11.9874L29.0322 7.31592H9L9.65557 12.655H19.0114L19.0939 13.3226L10.4761 19.3378Z" fill="#1A0826"/>
<path id="Vector_3" d="M31.4097 7.31592L33.458 23.9998H94.2488L92.1997 7.31592H31.4097Z" fill="#AA8FFF"/>
<path id="Vector_4" d="M115.224 13.3228C114.76 9.57324 111.815 7.30066 107.811 7.31698H94.48L96.5284 24.0009H102.528L102.117 20.6638H108.466C113.458 20.6629 115.744 17.55 115.224 13.3228ZM107.813 15.9863L101.541 15.9932L101.049 11.9893L107.357 11.9945C108.84 12.0125 109.599 12.8476 109.721 13.9904C109.798 14.7259 109.461 15.9854 107.813 15.9854V15.9863Z" fill="#1A0826"/>
<path id="Vector_5" d="M36.4387 5.11432C37.4939 3.98159 37.3099 2.09523 36.0279 0.901004C34.7459 -0.293218 32.8512 -0.343068 31.7961 0.789665C30.7408 1.92239 30.9248 3.80877 32.2068 5.00299C33.4888 6.1972 35.3835 6.24706 36.4387 5.11432Z" fill="#1A0826"/>
<path id="Vector_6" d="M38.2885 15.1626L38.9148 20.2644H35.8612L34.7271 11.0264H37.5624L40.8849 14.4794L43.4247 11.0264H46.1561L47.2903 20.2644H44.2495L43.6155 15.1367L41.3601 18.0744H41.141L38.2885 15.1626Z" fill="#1A0826"/>
<path id="Vector_7" d="M51.8758 20.393C51.3904 20.3124 50.9146 20.1829 50.4554 20.0064C49.6137 19.6882 48.8787 19.139 48.335 18.422C47.796 17.7088 47.4591 16.8026 47.3245 15.7034V15.6777C47.2608 15.2029 47.2623 14.7215 47.3289 14.2471C47.3885 13.8292 47.5174 13.4241 47.7103 13.0486C48.0997 12.3121 48.72 11.7239 49.476 11.374C50.2699 10.9873 51.2167 10.794 52.3165 10.794C52.8367 10.7921 53.3561 10.8396 53.8674 10.9358C54.3455 11.0259 54.8123 11.1686 55.2593 11.3611C56.1103 11.7247 56.8548 12.2989 57.4227 13.0297C57.9835 13.7554 58.3272 14.6337 58.4537 15.6648L58.4607 15.7163C58.5267 16.2077 58.5293 16.7056 58.4683 17.1976C58.4148 17.6198 58.2886 18.0297 58.0955 18.4091C57.7191 19.1222 57.1357 19.6527 56.3453 20.0003C55.5548 20.3481 54.6011 20.5219 53.4841 20.5219C52.9454 20.5243 52.4072 20.4812 51.8758 20.393ZM54.8073 17.2998C55.1922 16.9733 55.3394 16.441 55.249 15.7026C55.1561 14.9466 54.8758 14.3946 54.4078 14.0469C53.9399 13.6992 53.345 13.5251 52.6232 13.5245C51.8934 13.5245 51.3398 13.703 50.9624 14.0598C50.585 14.4167 50.4417 14.9608 50.5327 15.6923V15.7052C50.6187 16.3999 50.8911 16.9219 51.3499 17.2706C51.8087 17.6195 52.4035 17.7933 53.1345 17.7922C53.8642 17.7911 54.4219 17.6273 54.8073 17.3007V17.2998Z" fill="#1A0826"/>
<path id="Vector_8" d="M61.8432 14.7759L62.5169 20.2644H59.5277L58.3936 11.0264H61.4085L66.4924 16.3345L65.8411 11.0264H68.8173L69.9515 20.2644H67.0526L61.8432 14.7759Z" fill="#1A0826"/>
<path id="Vector_9" d="M80.019 20.2644H70.9115L69.7773 11.0264H78.6932L78.9888 13.4321H73.0345L73.1866 14.6693H78.5076L78.7337 16.5115H73.4126L73.5664 17.7616H79.7122L80.019 20.2644Z" fill="#1A0826"/>
<path id="Vector_10" d="M83.8258 20.2644L83.3746 16.5923L78.8647 11.0264H82.3436L84.7125 14.0541L86.4309 11.0264H89.8968L86.5623 16.6052L87.0118 20.2644H83.8258Z" fill="#1A0826"/>
</g>
</g>
</g>
</g>
</svg>
