<svg width="40" height="40" viewBox="0 0 40 40" fill="none" xmlns="http://www.w3.org/2000/svg">
<path fill-rule="evenodd" clip-rule="evenodd" d="M34.6803 26.0268L31.987 26.2322C32.0025 26.1557 32.0115 26.0781 32.0137 26.0001C32.0142 25.7645 31.9873 25.5296 31.9336 25.3001H32.0003L33.347 25.3108V19.9908H25.3337V25.3108H25.4004C25.5715 24.5046 26.036 23.7909 26.7038 23.308C27.3716 22.8251 28.195 22.6076 29.0142 22.6978C29.8333 22.788 30.5898 23.1793 31.1366 23.7959C31.6834 24.4124 31.9815 25.2102 31.9731 26.0342C31.9648 26.8583 31.6505 27.6499 31.0913 28.2552C30.5321 28.8605 29.7677 29.2364 28.9469 29.3099C28.1261 29.3835 27.3073 29.1493 26.6494 28.653C25.9915 28.1566 25.5417 27.4336 25.387 26.6242H24.707C24.6896 26.6291 24.6717 26.6321 24.6536 26.6334L15.9469 26.6415C15.9895 26.433 16.0119 26.2209 16.0137 26.0081C16.0137 26.8922 15.6624 27.74 15.0373 28.3651C14.4122 28.9902 13.5644 29.3414 12.6803 29.3414C11.7963 29.3414 10.9484 28.9902 10.3232 28.3651C9.69812 27.74 9.347 26.8922 9.347 26.0081C9.34877 26.2209 9.37116 26.433 9.41374 26.6415L6.01367 26.6334C5.92535 26.637 5.83724 26.623 5.75439 26.5922C5.67154 26.5614 5.59561 26.5143 5.53109 26.4539C5.46657 26.3935 5.41476 26.3209 5.37858 26.2402C5.3424 26.1596 5.32254 26.0725 5.32031 25.9841V11.3335C5.32254 11.2451 5.3424 11.158 5.37858 11.0774C5.41476 10.9967 5.46657 10.9241 5.53109 10.8637C5.59561 10.8032 5.67154 10.7562 5.75439 10.7254C5.83724 10.6946 5.92535 10.6806 6.01367 10.6841H24.6536C24.8298 10.6806 25.0002 10.7469 25.1276 10.8685C25.255 10.9902 25.3291 11.1573 25.3337 11.3335V13.3161H29.9202C30.0163 13.3176 30.1108 13.3411 30.1963 13.3848C30.2818 13.4285 30.3562 13.4912 30.4137 13.5682L34.627 18.6614V18.9935C34.6586 19.0697 34.6767 19.151 34.6803 19.2335V26.0241V26.0268ZM12.6803 27.9828C13.072 27.9817 13.4545 27.8646 13.7796 27.6463C14.1047 27.4279 14.3579 27.1181 14.507 26.756C14.6561 26.3939 14.6947 25.9957 14.6177 25.6117C14.5406 25.2277 14.3514 24.8752 14.0741 24.5986C13.7968 24.322 13.4438 24.1339 13.0596 24.0578C12.6754 23.9818 12.2773 24.0213 11.9155 24.1714C11.5538 24.3216 11.2447 24.5755 11.0272 24.9013C10.8097 25.227 10.6937 25.6098 10.6937 26.0014C10.6954 26.5273 10.9055 27.0311 11.2778 27.4024C11.6502 27.7737 12.1545 27.9825 12.6803 27.9828ZM24.0003 12.0001H6.66699V25.3335L9.33366 25.3148H9.42692C9.59197 24.5751 10.0043 23.9137 10.5957 23.4397C11.1871 22.9657 11.9224 22.7074 12.6803 22.7074C13.4383 22.7074 14.1736 22.9657 14.765 23.4397C15.3564 23.9137 15.7685 24.5751 15.9336 25.3148L24.0003 25.3335V12.0001ZM28.6536 28.0001C29.0473 27.9986 29.4316 27.8804 29.7581 27.6605C30.0847 27.4407 30.3387 27.1291 30.4883 26.7649C30.6378 26.4008 30.6762 26.0005 30.5985 25.6146C30.5207 25.2288 30.3303 24.8746 30.0514 24.5968C29.7725 24.319 29.4176 24.1301 29.0314 24.0538C28.6452 23.9776 28.245 24.0175 27.8815 24.1685C27.518 24.3195 27.2073 24.5748 26.9888 24.9022C26.7702 25.2296 26.6536 25.6145 26.6536 26.0081C26.6558 26.5372 26.8673 27.0439 27.2422 27.4172C27.617 27.7906 28.1246 28.0001 28.6536 28.0001ZM29.3203 14.6668H25.3337V18.6482H32.6403L29.3203 14.6668Z" fill="black"/>
</svg>
