<svg width="60" height="60" viewBox="0 0 60 60" fill="none" xmlns="http://www.w3.org/2000/svg">
<g clip-path="url(#clip0_7801_293031)">
<path d="M27.4128 6.15451C28.8254 6.70168 31.1798 6.70168 32.5924 6.15451L35.9716 4.86865C37.3842 4.32148 39.24 4.92337 40.071 6.18186L42.0376 9.16396C42.8685 10.4225 44.752 11.763 46.22 12.1734L49.71 13.1036C51.1781 13.4866 52.3137 15.0461 52.2583 16.5508L52.0644 20.1348C51.9813 21.6395 52.7015 23.8282 53.6709 25.0046L55.9422 27.7952C56.9116 28.9716 56.9116 30.8867 55.9422 32.0632L53.6709 34.8537C52.7015 36.0302 52.009 38.2188 52.0644 39.7236L52.2583 43.3076C52.3414 44.8123 51.2058 46.3717 49.71 46.7547L46.22 47.6849C44.752 48.068 42.8685 49.4359 42.0376 50.6944L40.071 53.6765C39.24 54.935 37.3842 55.5369 35.9716 54.9897L32.5924 53.7038C31.1798 53.1567 28.8254 53.1567 27.4128 53.7038L24.0336 54.9897C22.621 55.5369 20.7652 54.935 19.9342 53.6765L17.9676 50.6944C17.1367 49.4359 15.2532 48.0953 13.7852 47.6849L10.2952 46.7547C8.82715 46.3717 7.69152 44.8123 7.74691 43.3076L7.9408 39.7236C8.0239 38.2188 7.30374 36.0302 6.33429 34.8537L4.06302 32.0632C3.09358 30.8867 3.09358 28.9716 4.06302 27.7952L6.33429 25.0046C7.30374 23.8282 7.9962 21.6395 7.9408 20.1348L7.74691 16.5508C7.66382 15.0461 8.79945 13.4866 10.2952 13.1036L13.7852 12.1734C15.2532 11.7904 17.1367 10.4225 17.9676 9.16396L19.9342 6.18186C20.7652 4.92337 22.621 4.32148 24.0336 4.86865L27.4128 6.15451V6.15451Z" stroke="black" stroke-width="1.5"/>
<path d="M19.3359 29.7486L26.3443 36.8491L40.0469 23.1465" stroke="black" stroke-width="1.5"/>
</g>
<defs>
<clipPath id="clip0_7801_293031">
<rect width="60" height="60" rx="30" fill="white"/>
</clipPath>
</defs>
</svg>
