<svg width="65" height="64" viewBox="0 0 65 64" fill="none" xmlns="http://www.w3.org/2000/svg">
<path d="M36.8213 9.00024H4.82129C3.99286 9.00024 3.32129 9.67182 3.32129 10.5002V53.5002C3.32129 54.3287 3.99286 55.0002 4.82129 55.0002H36.8213C37.6497 55.0002 38.3213 54.3287 38.3213 53.5002V10.5002C38.3213 9.67182 37.6497 9.00024 36.8213 9.00024Z" stroke="#EA1917" stroke-width="1.5"/>
<circle cx="21.3213" cy="13" r="1" fill="#EA1917"/>
<path d="M41.5713 18.5002C41.5713 17.6718 42.2429 17.0002 43.0713 17.0002H60.0713C60.8997 17.0002 61.5713 17.6718 61.5713 18.5002V53.5002C61.5713 54.3287 60.8997 55.0002 60.0713 55.0002H43.0713C42.2429 55.0002 41.5713 54.3287 41.5713 53.5002V18.5002Z" stroke="#EA1917" stroke-width="1.5"/>
<circle cx="51.5713" cy="20" r="1" fill="#EA1917"/>
<path d="M53.6787 38.0887C53.131 37.4063 52.2893 36.9693 51.3454 36.9693C50.4015 36.9693 49.5598 37.4063 49.0121 38.0887M56.2377 36.2232C55.1422 34.8585 53.4588 33.9846 51.5711 33.9846C49.6833 33.9846 47.9999 34.8585 46.9044 36.2232" stroke="#EA1917" stroke-width="1.5" stroke-linecap="round" stroke-linejoin="round"/>
<circle cx="51.3213" cy="40.25" r="1" fill="#EA1917"/>
</svg>
