<svg width="36" height="36" viewBox="0 0 36 36" fill="none" xmlns="http://www.w3.org/2000/svg">
<path fill-rule="evenodd" clip-rule="evenodd" d="M4.0625 5.8125C3.37214 5.8125 2.8125 6.37214 2.8125 7.0625V21.4375C2.8125 22.1279 3.37214 22.6875 4.0625 22.6875H5.81305C6.22726 22.6875 6.56305 23.0233 6.56305 23.4375V26.2055C6.56305 26.398 6.77137 26.5183 6.93804 26.4221L13.2331 22.788C13.3471 22.7221 13.4765 22.6875 13.6081 22.6875H25.1875C25.8779 22.6875 26.4375 22.1279 26.4375 21.4375V7.0625C26.4375 6.37214 25.8779 5.8125 25.1875 5.8125H4.0625ZM1.3125 7.0625C1.3125 5.54372 2.54372 4.3125 4.0625 4.3125H25.1875C26.7063 4.3125 27.9375 5.54372 27.9375 7.0625V21.4375C27.9375 22.9563 26.7063 24.1875 25.1875 24.1875H13.809L7.68798 27.7211C6.52131 28.3946 5.06305 27.5527 5.06305 26.2055V24.1875H4.0625C2.54372 24.1875 1.3125 22.9563 1.3125 21.4375V7.0625ZM29.0631 16.3124C29.0631 15.8982 29.3989 15.5624 29.8131 15.5624H31.9381C33.4569 15.5624 34.6881 16.7936 34.6881 18.3124V26.7999C34.6881 28.3187 33.4569 29.5499 31.9381 29.5499H31.9259V29.5517V29.5539V29.556V29.5582V29.5604V29.5625V29.5647V29.5669V29.569V29.5712V29.5733V29.5755V29.5777V29.5798V29.582V29.5841V29.5863V29.5884V29.5906V29.5927V29.5949V29.5971V29.5992V29.6014V29.6035V29.6056V29.6078V29.6099V29.6121V29.6142V29.6164V29.6185V29.6207V29.6228V29.6249V29.6271V29.6292V29.6314V29.6335V29.6356V29.6378V29.6399V29.642V29.6442V29.6463V29.6484V29.6506V29.6527V29.6548V29.657V29.6591V29.6612V29.6634V29.6655V29.6676V29.6697V29.6719V29.674V29.6761V29.6782V29.6803V29.6825V29.6846V29.6867V29.6888V29.6909V29.6931V29.6952V29.6973V29.6994V29.7015V29.7036V29.7057V29.7078V29.71V29.7121V29.7142V29.7163V29.7184V29.7205V29.7226V29.7247V29.7268V29.7289V29.731V29.7331V29.7352V29.7373V29.7394V29.7415V29.7436V29.7457V29.7478V29.7499V29.752V29.7541V29.7562V29.7583V29.7604V29.7625V29.7646V29.7667V29.7688V29.7709V29.773V29.7751V29.7772V29.7793V29.7813V29.7834V29.7855V29.7876V29.7897V29.7918V29.7939V29.7959V29.798V29.8001V29.8022V29.8043V29.8064V29.8084V29.8105V29.8126V29.8147V29.8168V29.8188V29.8209V29.823V29.8251V29.8271V29.8292V29.8313V29.8334V29.8354V29.8375V29.8396V29.8417V29.8437V29.8458V29.8479V29.85V29.852V29.8541V29.8562V29.8582V29.8603V29.8624V29.8644V29.8665V29.8686V29.8706V29.8727V29.8748V29.8768V29.8789V29.8809V29.883V29.8851V29.8871V29.8892V29.8913V29.8933V29.8954V29.8974V29.8995V29.9016V29.9036V29.9057V29.9077V29.9098V29.9118V29.9139V29.916V29.918V29.9201V29.9221V29.9242V29.9262V29.9283V29.9303V29.9324V29.9344V29.9365V29.9385V29.9406V29.9426V29.9447V29.9467V29.9488V29.9508V29.9529V29.9549V29.957C31.9259 31.3036 30.4686 32.1454 29.302 31.4731L25.9651 29.5499H18.3131C16.7945 29.5499 15.5631 28.3192 15.5631 26.8002V26.7988V26.7975V26.7961V26.7947V26.7933V26.7919V26.7906V26.7892V26.7878V26.7864V26.785V26.7836V26.7823V26.7809V26.7795V26.7781V26.7767V26.7753V26.774V26.7726V26.7712V26.7698V26.7684V26.767V26.7656V26.7643V26.7629V26.7615V26.7601V26.7587V26.7573V26.7559V26.7545V26.7532V26.7518V26.7504V26.749V26.7476V26.7462V26.7448V26.7434V26.742V26.7406V26.7393V26.7379V26.7365V26.7351V26.7337V26.7323V26.7309V26.7295V26.7281V26.7267V26.7253V26.7239V26.7225V26.7211V26.7197V26.7183V26.717V26.7156V26.7142V26.7128V26.7114V26.71V26.7086V26.7072V26.7058V26.7044V26.703V26.7016V26.7002V26.6988V26.6974V26.696V26.6946V26.6932V26.6918V26.6904V26.689V26.6876V26.6862V26.6848V26.6834V26.682V26.6806V26.6792V26.6778V26.6764V26.675V26.6736V26.6722V26.6707V26.6693V26.6679V26.6665V26.6651V26.6637V26.6623V26.6609V26.6595V26.6581V26.6567V26.6553V26.6539V26.6525V26.6511V26.6497V26.6482V26.6468V26.6454V26.644V26.6426V26.6412V26.6398V26.6384V26.637V26.6356V26.6341V26.6327V26.6313V26.6299V26.6285V26.6271V26.6257V26.6243V26.6228V26.6214V26.62V26.6186V26.6172V26.6158V26.6144V26.613V26.6115V26.6101V26.6087V26.6073V26.6059V26.6045V26.603V26.6016V26.6002V26.5988V26.5974V26.596V26.5945V26.5931V26.5917V26.5903V26.5889V26.5874V26.586V26.5846V26.5832V26.5818V26.5803V26.5789V26.5775V26.5761V26.5747V26.5732V26.5718V26.5704V26.569V26.5676V26.5661V26.5647V26.5633V26.5619V26.5604V26.559V26.5576V26.5562V26.5547V26.5533V26.5519V26.5505V26.549V26.5476V26.5462V26.5448V26.5433V26.5419V26.5405V26.5391V26.5376V26.5362V26.5348V26.5333V26.5319V26.5305V26.5291V26.5276V26.5262V26.5248V26.5233V26.5219V26.5205V26.519V26.5176V26.5162V26.5147V26.5133V26.5119V26.5105V26.509V26.5076V26.5062V26.5047V26.5033V26.5019V26.5004V26.499V26.4976V26.4961V26.4947V26.4933V26.4918V26.4904V26.4889V26.4875V26.4861V26.4846V26.4832V26.4818V26.4803V26.4789V26.4775V26.476V26.4746V26.4731V26.4717V26.4703V26.4688V26.4674V26.4659V26.4645V26.4631V26.4616V26.4602V26.4587V26.4573V26.4559V26.4544V26.453V26.4515V26.4501V26.4487V26.4472V26.4458V26.4443V26.4429V26.4414V26.44V26.4386V26.4371V26.4357V26.4342V26.4328V26.4313V26.4299V26.4285V26.427V26.4256V26.4241V26.4227V26.4212V26.4198V26.4183V26.4169V26.4154V26.414V26.4125V26.4111V26.4096V26.4082V26.4068V26.4053V26.4039V26.4024V26.401V26.3995V26.3981V26.3966V26.3952V26.3937V26.3923V26.3908V26.3894V26.3879V26.3865V26.385V26.3836V26.3821V26.3806V26.3792V26.3777V26.3763V26.3748V26.3734V26.3719V26.3705V26.369V26.3676V26.3661V26.3647V26.3632V26.3618V26.3603V26.3588V26.3574V26.3559V26.3545V26.353V26.3516V26.3501V26.3487V26.3472V26.3457V26.3443V26.3428V26.3414V26.3399V26.3384V26.337V26.3355V26.3341V26.3326V26.3312V26.3297V26.3282V26.3268V26.3253V26.3239V26.3224V26.3209V26.3195V26.318V26.3166V26.3151V26.3136V26.3122V26.3107V26.3092V26.3078V26.3063V26.3049V26.3034V26.3019V26.3005V26.299V26.2975V26.2961V26.2946V26.2931V26.2917V26.2902V26.2888V26.2873V26.2858V26.2844V26.2829V26.2814V26.28V26.2785V26.277V26.2756V26.2741V26.2726V26.2712V26.2697V26.2682V26.2668V26.2653V26.2638V26.2624V26.2609V26.2594V26.2579V26.2565V26.255V26.2535V26.2521V26.2506V26.2491V26.2477V26.2462V26.2447V26.2432V26.2418V26.2403V26.2388V26.2374V26.2359V26.2344V26.2329V26.2315V26.23V26.2285V26.2271V26.2256V26.2241V26.2226V26.2212V26.2197V26.2182V26.2167V26.2153V26.2138V26.2123V26.2108V26.2094V26.2079V26.2064V26.2049V26.2035V26.202V26.2005V26.199V26.1975V26.1961V26.1946V26.1931V26.1916V26.1902V26.1887V26.1872V26.1857V26.1842V26.1828V26.1813V26.1798V26.1783V26.1769V26.1754V26.1739V26.1724V26.1709V26.1695V26.168V26.1665V26.165V26.1635V26.1621V26.1606V26.1591V26.1576V26.1561V26.1546V26.1532V26.1517V26.1502V26.1487V26.1472V26.1457V26.1443V26.1428V26.1413V26.1398V26.1383V26.1368V26.1354V26.1339V26.1324V26.1309V26.1294V26.1279V26.1264V26.125V26.1235V26.122V26.1205V26.119V26.1175V26.116V26.1146V26.1131V26.1116V26.1101V26.1086V26.1071V26.1056V26.1041V26.1027V26.1012V26.0997V26.0982V26.0967V26.0952V26.0937V26.0922V26.0907V26.0893V26.0878V26.0863V26.0848V26.0833V26.0818V26.0803V26.0788V26.0773V26.0758V26.0744V26.0729V26.0714V26.0699V26.0684V26.0669V26.0654V26.0639V26.0624C15.5631 25.6482 15.8989 25.3124 16.3131 25.3124C16.7273 25.3124 17.0631 25.6482 17.0631 26.0624V26.0639V26.0654V26.0669V26.0684V26.0699V26.0714V26.0729V26.0744V26.0758V26.0773V26.0788V26.0803V26.0818V26.0833V26.0848V26.0863V26.0878V26.0893V26.0907V26.0922V26.0937V26.0952V26.0967V26.0982V26.0997V26.1012V26.1027V26.1041V26.1056V26.1071V26.1086V26.1101V26.1116V26.1131V26.1146V26.116V26.1175V26.119V26.1205V26.122V26.1235V26.125V26.1264V26.1279V26.1294V26.1309V26.1324V26.1339V26.1354V26.1368V26.1383V26.1398V26.1413V26.1428V26.1443V26.1457V26.1472V26.1487V26.1502V26.1517V26.1532V26.1546V26.1561V26.1576V26.1591V26.1606V26.1621V26.1635V26.165V26.1665V26.168V26.1695V26.1709V26.1724V26.1739V26.1754V26.1769V26.1783V26.1798V26.1813V26.1828V26.1842V26.1857V26.1872V26.1887V26.1902V26.1916V26.1931V26.1946V26.1961V26.1975V26.199V26.2005V26.202V26.2035V26.2049V26.2064V26.2079V26.2094V26.2108V26.2123V26.2138V26.2153V26.2167V26.2182V26.2197V26.2212V26.2226V26.2241V26.2256V26.2271V26.2285V26.23V26.2315V26.2329V26.2344V26.2359V26.2374V26.2388V26.2403V26.2418V26.2432V26.2447V26.2462V26.2477V26.2491V26.2506V26.2521V26.2535V26.255V26.2565V26.2579V26.2594V26.2609V26.2624V26.2638V26.2653V26.2668V26.2682V26.2697V26.2712V26.2726V26.2741V26.2756V26.277V26.2785V26.28V26.2814V26.2829V26.2844V26.2858V26.2873V26.2888V26.2902V26.2917V26.2931V26.2946V26.2961V26.2975V26.299V26.3005V26.3019V26.3034V26.3049V26.3063V26.3078V26.3092V26.3107V26.3122V26.3136V26.3151V26.3166V26.318V26.3195V26.3209V26.3224V26.3239V26.3253V26.3268V26.3282V26.3297V26.3312V26.3326V26.3341V26.3355V26.337V26.3384V26.3399V26.3414V26.3428V26.3443V26.3457V26.3472V26.3487V26.3501V26.3516V26.353V26.3545V26.3559V26.3574V26.3588V26.3603V26.3618V26.3632V26.3647V26.3661V26.3676V26.369V26.3705V26.3719V26.3734V26.3748V26.3763V26.3777V26.3792V26.3806V26.3821V26.3836V26.385V26.3865V26.3879V26.3894V26.3908V26.3923V26.3937V26.3952V26.3966V26.3981V26.3995V26.401V26.4024V26.4039V26.4053V26.4068V26.4082V26.4096V26.4111V26.4125V26.414V26.4154V26.4169V26.4183V26.4198V26.4212V26.4227V26.4241V26.4256V26.427V26.4285V26.4299V26.4313V26.4328V26.4342V26.4357V26.4371V26.4386V26.44V26.4414V26.4429V26.4443V26.4458V26.4472V26.4487V26.4501V26.4515V26.453V26.4544V26.4559V26.4573V26.4587V26.4602V26.4616V26.4631V26.4645V26.4659V26.4674V26.4688V26.4703V26.4717V26.4731V26.4746V26.476V26.4775V26.4789V26.4803V26.4818V26.4832V26.4846V26.4861V26.4875V26.4889V26.4904V26.4918V26.4933V26.4947V26.4961V26.4976V26.499V26.5004V26.5019V26.5033V26.5047V26.5062V26.5076V26.509V26.5105V26.5119V26.5133V26.5147V26.5162V26.5176V26.519V26.5205V26.5219V26.5233V26.5248V26.5262V26.5276V26.5291V26.5305V26.5319V26.5333V26.5348V26.5362V26.5376V26.5391V26.5405V26.5419V26.5433V26.5448V26.5462V26.5476V26.549V26.5505V26.5519V26.5533V26.5547V26.5562V26.5576V26.559V26.5604V26.5619V26.5633V26.5647V26.5661V26.5676V26.569V26.5704V26.5718V26.5732V26.5747V26.5761V26.5775V26.5789V26.5803V26.5818V26.5832V26.5846V26.586V26.5874V26.5889V26.5903V26.5917V26.5931V26.5945V26.596V26.5974V26.5988V26.6002V26.6016V26.603V26.6045V26.6059V26.6073V26.6087V26.6101V26.6115V26.613V26.6144V26.6158V26.6172V26.6186V26.62V26.6214V26.6228V26.6243V26.6257V26.6271V26.6285V26.6299V26.6313V26.6327V26.6341V26.6356V26.637V26.6384V26.6398V26.6412V26.6426V26.644V26.6454V26.6468V26.6482V26.6497V26.6511V26.6525V26.6539V26.6553V26.6567V26.6581V26.6595V26.6609V26.6623V26.6637V26.6651V26.6665V26.6679V26.6693V26.6707V26.6722V26.6736V26.675V26.6764V26.6778V26.6792V26.6806V26.682V26.6834V26.6848V26.6862V26.6876V26.689V26.6904V26.6918V26.6932V26.6946V26.696V26.6974V26.6988V26.7002V26.7016V26.703V26.7044V26.7058V26.7072V26.7086V26.71V26.7114V26.7128V26.7142V26.7156V26.717V26.7183V26.7197V26.7211V26.7225V26.7239V26.7253V26.7267V26.7281V26.7295V26.7309V26.7323V26.7337V26.7351V26.7365V26.7379V26.7393V26.7406V26.742V26.7434V26.7448V26.7462V26.7476V26.749V26.7504V26.7518V26.7532V26.7545V26.7559V26.7573V26.7587V26.7601V26.7615V26.7629V26.7643V26.7656V26.767V26.7684V26.7698V26.7712V26.7726V26.774V26.7753V26.7767V26.7781V26.7795V26.7809V26.7823V26.7836V26.785V26.7864V26.7878V26.7892V26.7906V26.7919V26.7933V26.7947V26.7961V26.7975V26.7988V26.8002C17.0631 27.4904 17.6226 28.0499 18.3131 28.0499H26.1658C26.2972 28.0499 26.4264 28.0845 26.5403 28.1501L30.051 30.1735C30.2178 30.2696 30.4259 30.1492 30.4259 29.957V29.9549V29.9529V29.9508V29.9488V29.9467V29.9447V29.9426V29.9406V29.9385V29.9365V29.9344V29.9324V29.9303V29.9283V29.9262V29.9242V29.9221V29.9201V29.918V29.916V29.9139V29.9118V29.9098V29.9077V29.9057V29.9036V29.9016V29.8995V29.8974V29.8954V29.8933V29.8913V29.8892V29.8871V29.8851V29.883V29.8809V29.8789V29.8768V29.8748V29.8727V29.8706V29.8686V29.8665V29.8644V29.8624V29.8603V29.8582V29.8562V29.8541V29.852V29.85V29.8479V29.8458V29.8437V29.8417V29.8396V29.8375V29.8354V29.8334V29.8313V29.8292V29.8271V29.8251V29.823V29.8209V29.8188V29.8168V29.8147V29.8126V29.8105V29.8084V29.8064V29.8043V29.8022V29.8001V29.798V29.7959V29.7939V29.7918V29.7897V29.7876V29.7855V29.7834V29.7813V29.7793V29.7772V29.7751V29.773V29.7709V29.7688V29.7667V29.7646V29.7625V29.7604V29.7583V29.7562V29.7541V29.752V29.7499V29.7478V29.7457V29.7436V29.7415V29.7394V29.7373V29.7352V29.7331V29.731V29.7289V29.7268V29.7247V29.7226V29.7205V29.7184V29.7163V29.7142V29.7121V29.71V29.7078V29.7057V29.7036V29.7015V29.6994V29.6973V29.6952V29.6931V29.6909V29.6888V29.6867V29.6846V29.6825V29.6803V29.6782V29.6761V29.674V29.6719V29.6697V29.6676V29.6655V29.6634V29.6612V29.6591V29.657V29.6548V29.6527V29.6506V29.6484V29.6463V29.6442V29.642V29.6399V29.6378V29.6356V29.6335V29.6314V29.6292V29.6271V29.6249V29.6228V29.6207V29.6185V29.6164V29.6142V29.6121V29.6099V29.6078V29.6056V29.6035V29.6014V29.5992V29.5971V29.5949V29.5927V29.5906V29.5884V29.5863V29.5841V29.582V29.5798V29.5777V29.5755V29.5733V29.5712V29.569V29.5669V29.5647V29.5625V29.5604V29.5582V29.556V29.5539V29.5517V29.5495V29.5473V29.5452V29.543V29.5408V29.5387V29.5365V29.5343V29.5321V29.5299V29.5278V29.5256V29.5234V29.5212V29.519V29.5169V29.5147V29.5125V29.5103V29.5081V29.5059V29.5037V29.5016V29.4994V29.4972V29.495V29.4928V29.4906V29.4884V29.4862V29.484V29.4818V29.4796V29.4774V29.4752V29.473V29.4708V29.4686V29.4664V29.4642V29.462V29.4598V29.4575V29.4553V29.4531V29.4509V29.4487V29.4465V29.4443V29.4421V29.4398V29.4376V29.4354V29.4332V29.431V29.4287V29.4265V29.4243V29.4221V29.4198V29.4176V29.4154V29.4131V29.4109V29.4087V29.4064V29.4042V29.402V29.3997V29.3975V29.3953V29.393V29.3908V29.3885V29.3863V29.3841V29.3818V29.3796V29.3773V29.3751V29.3728V29.3706V29.3683V29.3661V29.3638V29.3615V29.3593V29.357V29.3548V29.3525V29.3503V29.348V29.3457V29.3435V29.3412V29.3389V29.3367V29.3344V29.3321V29.3299V29.3276V29.3253V29.323V29.3208V29.3185V29.3162V29.3139V29.3116V29.3094V29.3071V29.3048V29.3025V29.3002V29.2979V29.2956V29.2934V29.2911V29.2888V29.2865V29.2842V29.2819V29.2796V29.2773V29.275V29.2727V29.2704V29.2681V29.2658V29.2635V29.2612V29.2589V29.2566V29.2542V29.2519V29.2496V29.2473V29.245V29.2427V29.2403V29.238V29.2357V29.2334V29.2311V29.2287V29.2264V29.2241V29.2218V29.2194V29.2171V29.2148V29.2124V29.2101V29.2078V29.2054V29.2031V29.2007V29.1984V29.1961V29.1937V29.1914V29.189V29.1867V29.1843V29.182V29.1796V29.1773V29.1749V29.1726V29.1702V29.1678V29.1655V29.1631V29.1608V29.1584V29.156V29.1537V29.1513V29.1489V29.1466V29.1442V29.1418V29.1394V29.1371V29.1347V29.1323V29.1299V29.1275V29.1252V29.1228V29.1204V29.118V29.1156V29.1132V29.1108V29.1084V29.106V29.1036V29.1012V29.0988V29.0964V29.094V29.0916V29.0892V29.0868V29.0844V29.082V29.0796V29.0772V29.0748V29.0724V29.07V29.0675V29.0651V29.0627V29.0603V29.0578V29.0554V29.053V29.0506V29.0481V29.0457V29.0433V29.0408V29.0384V29.036V29.0335V29.0311V29.0287V29.0262V29.0238V29.0213V29.0189V29.0164V29.014V29.0115V29.0091V29.0066V29.0042V29.0017V28.9992V28.9968V28.9943V28.9919V28.9894V28.9869V28.9845V28.982V28.9795V28.977V28.9746V28.9721V28.9696V28.9671V28.9647V28.9622V28.9597V28.9572V28.9547V28.9522V28.9497V28.9472V28.9448V28.9423V28.9398V28.9373V28.9348V28.9323V28.9298V28.9273V28.9247V28.9222V28.9197V28.9172V28.9147V28.9122V28.9097V28.9072V28.9046V28.9021V28.8996V28.8971V28.8945V28.892V28.8895V28.887V28.8844V28.8819V28.8794V28.8768V28.8743V28.8717V28.8692V28.8667V28.8641V28.8616V28.859V28.8565V28.8539V28.8514V28.8488V28.8462V28.8437V28.8411V28.8386V28.836V28.8334V28.8309V28.8283V28.8257V28.8231V28.8206V28.818V28.8154V28.8128V28.8103V28.8077V28.8051V28.8025V28.7999C30.4259 28.3857 30.7617 28.0499 31.1759 28.0499H31.9381C32.6285 28.0499 33.1881 27.4903 33.1881 26.7999V18.3124C33.1881 17.6221 32.6285 17.0624 31.9381 17.0624H29.8131C29.3989 17.0624 29.0631 16.7266 29.0631 16.3124ZM6.56305 9.5625C6.14884 9.5625 5.81305 9.89829 5.81305 10.3125C5.81305 10.7267 6.14884 11.0625 6.56305 11.0625H22.688C23.1023 11.0625 23.438 10.7267 23.438 10.3125C23.438 9.89829 23.1023 9.5625 22.688 9.5625H6.56305ZM5.81305 14.25C5.81305 13.8358 6.14884 13.5 6.56305 13.5H22.688C23.1023 13.5 23.438 13.8358 23.438 14.25C23.438 14.6642 23.1023 15 22.688 15H6.56305C6.14884 15 5.81305 14.6642 5.81305 14.25ZM6.56305 17.4375C6.14884 17.4375 5.81305 17.7733 5.81305 18.1875C5.81305 18.6017 6.14884 18.9375 6.56305 18.9375H15.938C16.3523 18.9375 16.688 18.6017 16.688 18.1875C16.688 17.7733 16.3523 17.4375 15.938 17.4375H6.56305Z" fill="black"/>
</svg>
