<svg width="160" height="160" viewBox="0 0 160 160" fill="none" xmlns="http://www.w3.org/2000/svg">
<path d="M103.168 15.833C103.168 14.4523 104.288 13.333 105.668 13.333H137.502C142.565 13.333 146.669 17.4371 146.669 22.4997V54.3595C146.669 55.7402 145.55 56.8595 144.169 56.8595C142.788 56.8595 141.669 55.7402 141.669 54.3595V22.4997C141.669 20.1985 139.803 18.333 137.502 18.333H105.668C104.288 18.333 103.168 17.2137 103.168 15.833Z" fill="white"/>
<path d="M15.8359 103.138C17.2166 103.138 18.3359 104.257 18.3359 105.638V137.497C18.3359 139.799 20.2014 141.664 22.5026 141.664H54.3365C55.7172 141.664 56.8365 142.783 56.8365 144.164C56.8365 145.545 55.7172 146.664 54.3365 146.664H22.5026C17.44 146.664 13.3359 142.56 13.3359 137.497V105.638C13.3359 104.257 14.4552 103.138 15.8359 103.138Z" fill="white"/>
<path d="M146.669 105.638C146.669 104.257 145.55 103.138 144.169 103.138C142.788 103.138 141.669 104.257 141.669 105.638V137.497C141.669 139.799 139.803 141.664 137.502 141.664H105.668C104.288 141.664 103.168 142.783 103.168 144.164C103.168 145.545 104.288 146.664 105.668 146.664H137.502C142.565 146.664 146.669 142.56 146.669 137.497V105.638Z" fill="white"/>
<path d="M13.3368 22.4997C13.3368 17.4371 17.4408 13.333 22.5034 13.333H54.3374C55.7181 13.333 56.8374 14.4523 56.8374 15.833C56.8374 17.2137 55.7181 18.333 54.3374 18.333H22.5034C20.2022 18.333 18.3368 20.1985 18.3368 22.4997V54.3595C18.3368 55.7402 17.2175 56.8595 15.8368 56.8595C14.456 56.8595 13.3368 55.7402 13.3368 54.3595V22.4997Z" fill="white"/>
<path fill-rule="evenodd" clip-rule="evenodd" d="M43.3353 75.565C43.3353 57.7659 57.7551 43.334 75.5463 43.334C93.3376 43.334 107.757 57.7659 107.757 75.565C107.757 83.5522 104.854 90.8613 100.045 96.4926L115.939 112.397C116.915 113.373 116.914 114.956 115.938 115.932C114.961 116.908 113.378 116.908 112.402 115.931L96.5139 100.033C90.8795 104.872 83.5545 107.796 75.5463 107.796C57.7551 107.796 43.3353 93.364 43.3353 75.565ZM75.5463 48.334C60.5197 48.334 48.3353 60.5241 48.3353 75.565C48.3353 90.6058 60.5197 102.796 75.5463 102.796C90.573 102.796 102.757 90.6058 102.757 75.565C102.757 60.5241 90.573 48.334 75.5463 48.334Z" fill="white"/>
</svg>
