<svg width="32" height="32" viewBox="0 0 32 32" fill="none" xmlns="http://www.w3.org/2000/svg">
<mask id="path-1-inside-1_2003_339808" fill="white">
<path fill-rule="evenodd" clip-rule="evenodd" d="M3.5 7.38843V16.9047H19.2663V15.7364V15.7084V11.8852V10.3852H19.2789V7.38843H3.5ZM20.7789 10.3852V6.88843C20.7789 6.33614 20.3312 5.88843 19.7789 5.88843H3C2.44772 5.88843 2 6.33614 2 6.88843V22.2448C2 22.7971 2.44772 23.2448 3 23.2448H19.2789H20.7789V23.2447H28.4998C29.3283 23.2447 29.9998 22.5731 29.9998 21.7447V19.5578C29.9998 18.0243 29.1231 16.6258 27.7429 15.9576L27.6411 15.9083C27.5622 15.8701 27.4811 15.8372 27.3983 15.8098L27.3605 15.7364L26.2795 13.6378C25.2508 11.6404 23.1923 10.3852 20.9455 10.3852H20.7789ZM20.7789 15.7084V11.8852H20.9455C22.6306 11.8852 24.1745 12.8266 24.946 14.3247L25.6588 15.7084H20.7789ZM20.7789 21.7447V17.2364H26.4458H26.9347C26.9526 17.2427 26.9703 17.25 26.9875 17.2584L27.0893 17.3077C27.9519 17.7253 28.4998 18.5994 28.4998 19.5578V21.7447L20.7789 21.7447ZM19.2665 18.4047L19.2667 21.7448H3.5V18.4047H19.2665Z"/>
</mask>
<path fill-rule="evenodd" clip-rule="evenodd" d="M3.5 7.38843V16.9047H19.2663V15.7364V15.7084V11.8852V10.3852H19.2789V7.38843H3.5ZM20.7789 10.3852V6.88843C20.7789 6.33614 20.3312 5.88843 19.7789 5.88843H3C2.44772 5.88843 2 6.33614 2 6.88843V22.2448C2 22.7971 2.44772 23.2448 3 23.2448H19.2789H20.7789V23.2447H28.4998C29.3283 23.2447 29.9998 22.5731 29.9998 21.7447V19.5578C29.9998 18.0243 29.1231 16.6258 27.7429 15.9576L27.6411 15.9083C27.5622 15.8701 27.4811 15.8372 27.3983 15.8098L27.3605 15.7364L26.2795 13.6378C25.2508 11.6404 23.1923 10.3852 20.9455 10.3852H20.7789ZM20.7789 15.7084V11.8852H20.9455C22.6306 11.8852 24.1745 12.8266 24.946 14.3247L25.6588 15.7084H20.7789ZM20.7789 21.7447V17.2364H26.4458H26.9347C26.9526 17.2427 26.9703 17.25 26.9875 17.2584L27.0893 17.3077C27.9519 17.7253 28.4998 18.5994 28.4998 19.5578V21.7447L20.7789 21.7447ZM19.2665 18.4047L19.2667 21.7448H3.5V18.4047H19.2665Z" fill="white"/>
<path d="M3.5 16.9047H1.5V18.9047H3.5V16.9047ZM3.5 7.38843V5.38843H1.5V7.38843H3.5ZM19.2663 16.9047V18.9047H21.2663V16.9047H19.2663ZM19.2663 10.3852V8.38523H17.2663V10.3852H19.2663ZM19.2789 10.3852V12.3852H21.2789V10.3852H19.2789ZM19.2789 7.38843H21.2789V5.38843H19.2789V7.38843ZM20.7789 10.3852H18.7789V12.3852H20.7789V10.3852ZM20.7789 23.2448V25.2448H22.7789V23.2448H20.7789ZM20.7789 23.2447V21.2447H18.7789V23.2447H20.7789ZM27.7429 15.9576L26.8714 17.7577L26.8714 17.7577L27.7429 15.9576ZM27.6411 15.9083L26.7695 17.7084L26.7696 17.7084L27.6411 15.9083ZM27.3983 15.8098L25.6203 16.7256L25.9942 17.4517L26.7696 17.7084L27.3983 15.8098ZM27.3605 15.7364L29.1385 14.8207L29.1385 14.8206L27.3605 15.7364ZM26.2795 13.6378L24.5015 14.5536L24.5015 14.5536L26.2795 13.6378ZM20.7789 11.8852V9.88523H18.7789V11.8852H20.7789ZM20.7789 15.7084H18.7789V17.7084H20.7789V15.7084ZM24.946 14.3247L26.7241 13.4088L26.724 13.4088L24.946 14.3247ZM25.6588 15.7084V17.7084H28.9386L27.4368 14.7926L25.6588 15.7084ZM20.7789 17.2364V15.2364H18.7789V17.2364H20.7789ZM20.7789 21.7447H18.7789V23.7447H20.7789V21.7447ZM26.9347 17.2364L27.5952 15.3487L27.2745 15.2364H26.9347V17.2364ZM26.9875 17.2584L27.859 15.4582L27.859 15.4582L26.9875 17.2584ZM27.0893 17.3077L27.9608 15.5075L27.9608 15.5075L27.0893 17.3077ZM28.4998 21.7447V23.7447H30.4998V21.7447H28.4998ZM19.2667 21.7448V23.7448H21.2669L21.2667 21.7447L19.2667 21.7448ZM19.2665 18.4047L21.2665 18.4045L21.2663 16.4047H19.2665V18.4047ZM3.5 21.7448H1.5V23.7448H3.5V21.7448ZM3.5 18.4047V16.4047H1.5V18.4047H3.5ZM5.5 16.9047V7.38843H1.5V16.9047H5.5ZM19.2663 14.9047H3.5V18.9047H19.2663V14.9047ZM21.2663 16.9047V15.7364H17.2663V16.9047H21.2663ZM21.2663 15.7364V15.7084H17.2663V15.7364H21.2663ZM21.2663 15.7084V11.8852H17.2663V15.7084H21.2663ZM21.2663 11.8852V10.3852H17.2663V11.8852H21.2663ZM19.2663 12.3852H19.2789V8.38523H19.2663V12.3852ZM17.2789 7.38843V10.3852H21.2789V7.38843H17.2789ZM3.5 9.38843H19.2789V5.38843H3.5V9.38843ZM18.7789 6.88843V10.3852H22.7789V6.88843H18.7789ZM19.7789 7.88843C19.2267 7.88843 18.7789 7.44071 18.7789 6.88843H22.7789C22.7789 5.23157 21.4358 3.88843 19.7789 3.88843V7.88843ZM3 7.88843H19.7789V3.88843H3V7.88843ZM4 6.88843C4 7.44071 3.55229 7.88843 3 7.88843V3.88843C1.34314 3.88843 0 5.23158 0 6.88843H4ZM4 22.2448V6.88843H0V22.2448H4ZM3 21.2448C3.55228 21.2448 4 21.6925 4 22.2448H0C0 23.9017 1.34315 25.2448 3 25.2448V21.2448ZM19.2789 21.2448H3V25.2448H19.2789V21.2448ZM20.7789 21.2448H19.2789V25.2448H20.7789V21.2448ZM18.7789 23.2447V23.2448H22.7789V23.2447H18.7789ZM28.4998 21.2447H20.7789V25.2447H28.4998V21.2447ZM27.9998 21.7447C27.9998 21.4686 28.2237 21.2447 28.4998 21.2447V25.2447C30.4328 25.2447 31.9998 23.6777 31.9998 21.7447H27.9998ZM27.9998 19.5578V21.7447H31.9998V19.5578H27.9998ZM26.8714 17.7577C27.5615 18.0918 27.9998 18.7911 27.9998 19.5578H31.9998C31.9998 17.2576 30.6848 15.1598 28.6145 14.1575L26.8714 17.7577ZM26.7696 17.7084L26.8714 17.7577L28.6145 14.1575L28.5127 14.1082L26.7696 17.7084ZM26.7696 17.7084L26.7695 17.7084L28.5127 14.1082C28.3549 14.0318 28.1926 13.966 28.027 13.9112L26.7696 17.7084ZM25.5825 16.6522L25.6203 16.7256L29.1763 14.894L29.1385 14.8207L25.5825 16.6522ZM24.5015 14.5536L25.5825 16.6522L29.1385 14.8206L28.0576 12.722L24.5015 14.5536ZM20.9455 12.3852C22.4434 12.3852 23.8157 13.222 24.5015 14.5536L28.0576 12.722C26.6858 10.0588 23.9412 8.38523 20.9455 8.38523V12.3852ZM20.7789 12.3852H20.9455V8.38523H20.7789V12.3852ZM18.7789 11.8852V15.7084H22.7789V11.8852H18.7789ZM20.7789 13.8852H20.9455V9.88523H20.7789V13.8852ZM20.9455 13.8852C21.8817 13.8852 22.7394 14.4082 23.168 15.2405L26.724 13.4088C25.6095 11.245 23.3795 9.88523 20.9455 9.88523V13.8852ZM23.168 15.2405L23.8808 16.6242L27.4368 14.7926L26.7241 13.4088L23.168 15.2405ZM25.6588 13.7084H20.7789V17.7084H25.6588V13.7084ZM18.7789 17.2364V21.7447H22.7789V17.2364H18.7789ZM26.4458 15.2364H20.7789V19.2364H26.4458V15.2364ZM26.9347 15.2364H26.4458V19.2364H26.9347V15.2364ZM27.859 15.4582C27.773 15.4166 27.685 15.3801 27.5952 15.3487L26.2742 19.1242C26.2203 19.1054 26.1675 19.0834 26.1159 19.0585L27.859 15.4582ZM27.9608 15.5075L27.859 15.4582L26.1159 19.0585L26.2177 19.1078L27.9608 15.5075ZM30.4998 19.5578C30.4998 17.8326 29.5136 16.2593 27.9608 15.5075L26.2177 19.1078C26.3902 19.1913 26.4998 19.3661 26.4998 19.5578H30.4998ZM30.4998 21.7447V19.5578H26.4998V21.7447H30.4998ZM20.7789 23.7447L28.4998 23.7447V19.7447L20.7789 19.7447V23.7447ZM21.2667 21.7447L21.2665 18.4045L17.2665 18.4048L17.2667 21.745L21.2667 21.7447ZM3.5 23.7448H19.2667V19.7448H3.5V23.7448ZM1.5 18.4047V21.7448H5.5V18.4047H1.5ZM19.2665 16.4047H3.5V20.4047H19.2665V16.4047Z" fill="black" mask="url(#path-1-inside-1_2003_339808)"/>
<path d="M6.43146 13.9019H5.75391V10.4525H7.9457V11.0017H6.43146V11.8282H7.83791V12.3774H6.43146V13.9019Z" fill="black"/>
<path d="M9.21352 11.0017V11.9976H9.86541C10.0434 11.9976 10.1802 11.9565 10.2761 11.8744C10.3753 11.7922 10.4249 11.6673 10.4249 11.4997C10.4249 11.332 10.3753 11.2071 10.2761 11.1249C10.1802 11.0428 10.0434 11.0017 9.86541 11.0017H9.21352ZM8.53596 13.9019V10.4525H9.87055C10.2846 10.4525 10.5977 10.5398 10.8099 10.7143C11.0221 10.8854 11.1281 11.1472 11.1281 11.4997C11.1281 11.7152 11.0717 11.9069 10.9587 12.0745C10.8492 12.2388 10.697 12.3603 10.5019 12.439L11.2616 13.9019H10.543L9.83975 12.5468H9.21352V13.9019H8.53596Z" fill="black"/>
<path d="M14.1745 13.3527V13.9019H11.8544V10.4525H14.1232V11.0017H12.5319V11.8333H14.0667V12.3723H12.5319V13.3527H14.1745Z" fill="black"/>
<path d="M17.1621 13.3527V13.9019H14.842V10.4525H17.1107V11.0017H15.5195V11.8333H17.0543V12.3723H15.5195V13.3527H17.1621Z" fill="black"/>
<path d="M10.0751 22.8431C10.0751 24.2376 8.95153 25.3614 7.57369 25.3614C6.19584 25.3614 5.07227 24.2376 5.07227 22.8431C5.07227 21.4486 6.19584 20.3248 7.57369 20.3248C8.95153 20.3248 10.0751 21.4486 10.0751 22.8431Z" fill="white" stroke="black" stroke-width="1.5"/>
<path d="M26.7978 22.8431C26.7978 24.2376 25.6742 25.3614 24.2963 25.3614C22.9185 25.3614 21.7949 24.2376 21.7949 22.8431C21.7949 21.4486 22.9185 20.3248 24.2963 20.3248C25.6742 20.3248 26.7978 21.4486 26.7978 22.8431Z" fill="white" stroke="black" stroke-width="1.5"/>
</svg>
