<svg width="16" height="16" viewBox="0 0 16 16" fill="none" xmlns="http://www.w3.org/2000/svg">
<path fill-rule="evenodd" clip-rule="evenodd" d="M6.93909 0C5.12037 0 3.64599 1.47437 3.64599 3.2931V3.91034V5.99945H3.41211C2.0314 5.99945 0.912109 7.11874 0.912109 8.49945V13.4993C0.912109 14.88 2.0314 15.9993 3.41211 15.9993H12.5866C13.9673 15.9993 15.0866 14.88 15.0866 13.4993V8.49945C15.0866 7.11874 13.9673 5.99945 12.5866 5.99945H12.3528V3.91034V3.2931C12.3528 1.47437 10.8784 0 9.05966 0H6.93909ZM11.3528 5.99945V3.91034V3.2931C11.3528 2.02665 10.3261 1 9.05966 1H6.93909C5.67265 1 4.64599 2.02666 4.64599 3.2931V3.91034V5.99945H11.3528ZM3.41211 6.99945C2.58368 6.99945 1.91211 7.67102 1.91211 8.49945V13.4993C1.91211 14.3277 2.58368 14.9993 3.41211 14.9993H12.5866C13.415 14.9993 14.0866 14.3277 14.0866 13.4993V8.49945C14.0866 7.67102 13.415 6.99945 12.5866 6.99945H3.41211ZM7.99943 9.16752C8.27557 9.16752 8.49943 9.39138 8.49943 9.66752V12.1675C8.49943 12.4436 8.27557 12.6675 7.99943 12.6675C7.72329 12.6675 7.49943 12.4436 7.49943 12.1675V9.66752C7.49943 9.39138 7.72329 9.16752 7.99943 9.16752Z" fill="black"/>
</svg>
