<svg width="48" height="48" viewBox="0 0 48 48" fill="none" xmlns="http://www.w3.org/2000/svg">
<path fill-rule="evenodd" clip-rule="evenodd" d="M5.5 24.0001C5.5 13.784 13.7799 5.5 23.9956 5.5C25.8935 5.5 27.7257 5.78726 29.4491 6.31387C29.8453 6.43491 30.2645 6.2119 30.3856 5.81577C30.5066 5.41964 30.2836 5.00038 29.8875 4.87934C28.0253 4.31035 26.0455 4 23.9956 4C12.951 4 4 12.956 4 24.0001C4 35.0441 12.9464 44.0002 23.9956 44.0002C35.0446 44.0002 43.9957 35.0443 43.9957 24.0001C43.9957 21.9502 43.6854 19.9698 43.1113 18.1066C42.9894 17.7107 42.5696 17.4887 42.1738 17.6106C41.7779 17.7326 41.5559 18.1524 41.6778 18.5482C42.2085 20.2706 42.4957 22.1022 42.4957 24.0001C42.4957 34.2161 34.2159 42.5002 23.9956 42.5002C13.7755 42.5002 5.5 34.2164 5.5 24.0001ZM22.8252 13.4126C22.8252 12.9983 22.4895 12.6626 22.0752 12.6626C21.661 12.6626 21.3252 12.9983 21.3252 13.4126V25.9251C21.3252 26.3394 21.661 26.6751 22.0752 26.6751H30.7378C31.152 26.6751 31.4878 26.3394 31.4878 25.9251C31.4878 25.5109 31.152 25.1751 30.7378 25.1751H22.8252V13.4126Z" fill="black"/>
<circle cx="40" cy="8" r="4" fill="#EA1917"/>
</svg>
