<svg width="74" height="18" viewBox="0 0 74 18" fill="none" xmlns="http://www.w3.org/2000/svg">
<g clip-path="url(#clip0_1614_380236)">
<path d="M4.54064 16.9751L4.84532 15.0398L4.16663 15.0241H0.925781L3.178 0.743531C3.18499 0.700421 3.20771 0.660224 3.24092 0.631678C3.27413 0.603132 3.31665 0.587402 3.36093 0.587402H8.82545C10.6396 0.587402 11.8915 0.964908 12.5452 1.71002C12.8516 2.05956 13.0468 2.42483 13.1411 2.82681C13.2402 3.24859 13.2419 3.75251 13.1452 4.36712L13.1382 4.41198V4.8058L13.4447 4.97941C13.7027 5.11631 13.9078 5.27302 14.0651 5.45246C14.3273 5.75131 14.4968 6.13115 14.5684 6.58148C14.6424 7.04462 14.618 7.59573 14.4968 8.21967C14.357 8.9374 14.1309 9.5625 13.8257 10.074C13.5449 10.5453 13.1872 10.9362 12.7625 11.2391C12.357 11.5269 11.8752 11.7454 11.3305 11.8852C10.8027 12.0227 10.2009 12.092 9.54084 12.092H9.11557C8.81147 12.092 8.5161 12.2015 8.28424 12.3979C8.05179 12.5983 7.89799 12.8721 7.85081 13.1715L7.81876 13.3457L7.28047 16.7567L7.256 16.8819C7.24959 16.9215 7.23852 16.9413 7.22221 16.9547C7.20765 16.967 7.18667 16.9751 7.16628 16.9751H4.54064Z" fill="#253B80"/>
<path d="M13.7321 4.46191C13.7158 4.56619 13.6972 4.6728 13.6762 4.78233C12.9555 8.48224 10.4901 9.7604 7.34131 9.7604H5.73807C5.35299 9.7604 5.0285 10.04 4.96849 10.4199L4.14765 15.6257L3.91521 17.1014C3.87617 17.3507 4.06842 17.5756 4.32009 17.5756H7.16362C7.50035 17.5756 7.78639 17.3309 7.8394 16.9988L7.86737 16.8544L8.40275 13.4568L8.43712 13.2704C8.48955 12.9372 8.77618 12.6925 9.11291 12.6925H9.53818C12.2932 12.6925 14.4498 11.5739 15.0802 8.33718C15.3435 6.98503 15.2072 5.85601 14.5104 5.06196C14.2995 4.82253 14.038 4.62387 13.7321 4.46191Z" fill="#179BD7"/>
<path d="M27.8659 4.03174H23.7878C23.5087 4.03174 23.2714 4.23448 23.2279 4.50997L21.5785 14.9674C21.5457 15.1737 21.7055 15.3597 21.9148 15.3597H23.8618C24.1408 15.3597 24.3782 15.157 24.4217 14.8809L24.8665 12.0604C24.9095 11.7843 25.1474 11.5816 25.4259 11.5816H26.7169C29.4032 11.5816 30.9536 10.2816 31.3585 7.70557C31.541 6.57856 31.3662 5.69304 30.8385 5.07289C30.2589 4.39191 29.2309 4.03174 27.8659 4.03174ZM28.3364 7.85107C28.1134 9.3144 26.9953 9.3144 25.9142 9.3144H25.2988L25.7306 6.58154C25.7562 6.41636 25.8993 6.29471 26.0663 6.29471H26.3483C27.0848 6.29471 27.7795 6.29471 28.1384 6.71451C28.3525 6.96496 28.4181 7.33706 28.3364 7.85107Z" fill="#253B80"/>
<path d="M40.057 7.80622H38.1041C37.9378 7.80622 37.7941 7.92787 37.7684 8.09304L37.682 8.63926L37.5454 8.44129C37.1226 7.82769 36.1799 7.62256 35.2389 7.62256C33.0809 7.62256 31.2377 9.25703 30.8787 11.5498C30.6921 12.6935 30.9574 13.7872 31.6062 14.5498C32.2013 15.2511 33.0529 15.5433 34.066 15.5433C35.8048 15.5433 36.769 14.4252 36.769 14.4252L36.682 14.9678C36.6492 15.1754 36.809 15.3614 37.0171 15.3614H38.7762C39.0558 15.3614 39.292 15.1587 39.3361 14.8826L40.3916 8.19859C40.425 7.99286 40.2657 7.80622 40.057 7.80622ZM37.3349 11.6071C37.1465 12.7228 36.261 13.4717 35.1316 13.4717C34.5645 13.4717 34.1113 13.2898 33.8203 12.9452C33.5317 12.6029 33.422 12.1157 33.5138 11.5731C33.6897 10.4669 34.5901 9.69353 35.7022 9.69353C36.2568 9.69353 36.7076 9.87778 37.0046 10.2254C37.3021 10.5767 37.4202 11.0668 37.3349 11.6071Z" fill="#253B80"/>
<path d="M50.4621 7.80127H48.4996C48.3124 7.80127 48.1365 7.89429 48.0303 8.04993L45.3237 12.0368L44.1764 8.20556C44.1043 7.96585 43.883 7.80127 43.6326 7.80127H41.7041C41.4698 7.80127 41.307 8.03025 41.3815 8.25088L43.5431 14.5944L41.5109 17.4632C41.3511 17.6892 41.5121 17.9999 41.7882 17.9999H43.7483C43.9343 17.9999 44.1084 17.9092 44.214 17.7566L50.7411 8.33496C50.8974 8.10956 50.737 7.80127 50.4621 7.80127Z" fill="#253B80"/>
<path d="M56.9558 4.03174H52.8771C52.5986 4.03174 52.3613 4.23448 52.3177 4.50997L50.6683 14.9674C50.6355 15.1737 50.7954 15.3597 51.0035 15.3597H53.0965C53.2909 15.3597 53.4573 15.2178 53.4877 15.0246L53.9558 12.0604C53.9987 11.7843 54.2366 11.5816 54.5151 11.5816H55.8055C58.4925 11.5816 60.0422 10.2816 60.4477 7.70557C60.6308 6.57856 60.4549 5.69304 59.9272 5.07289C59.3481 4.39191 58.3207 4.03174 56.9558 4.03174ZM57.4263 7.85107C57.2038 9.3144 56.0858 9.3144 55.0041 9.3144H54.3893L54.8216 6.58154C54.8472 6.41636 54.9892 6.29471 55.1567 6.29471H55.4388C56.1746 6.29471 56.8699 6.29471 57.2289 6.71451C57.443 6.96496 57.508 7.33706 57.4263 7.85107Z" fill="#179BD7"/>
<path d="M69.1404 7.80622H67.1887C67.0212 7.80622 66.8787 7.92787 66.8536 8.09304L66.7671 8.63926L66.63 8.44129C66.2072 7.82769 65.2651 7.62256 64.3241 7.62256C62.1661 7.62256 60.3235 9.25703 59.9645 11.5498C59.7785 12.6935 60.0426 13.7872 60.6914 14.5498C61.2877 15.2511 62.138 15.5433 63.1512 15.5433C64.89 15.5433 65.8542 14.4252 65.8542 14.4252L65.7671 14.9678C65.7343 15.1754 65.8942 15.3614 66.1035 15.3614H67.862C68.1404 15.3614 68.3778 15.1587 68.4213 14.8826L69.4773 8.19859C69.5096 7.99286 69.3497 7.80622 69.1404 7.80622ZM66.4183 11.6071C66.2311 12.7228 65.3444 13.4717 64.215 13.4717C63.6491 13.4717 63.1947 13.2898 62.9037 12.9452C62.6151 12.6029 62.5066 12.1157 62.5972 11.5731C62.7743 10.4669 63.6735 9.69353 64.7856 9.69353C65.3402 9.69353 65.791 9.87778 66.088 10.2254C66.3867 10.5767 66.5048 11.0668 66.4183 11.6071Z" fill="#179BD7"/>
<path d="M71.4437 4.31916L69.7699 14.968C69.7371 15.1743 69.8969 15.3603 70.105 15.3603H71.7878C72.0675 15.3603 72.3048 15.1576 72.3477 14.8815L73.9983 4.4247C74.0311 4.21838 73.8713 4.03174 73.6632 4.03174H71.7789C71.6125 4.03233 71.4694 4.15398 71.4437 4.31916Z" fill="#179BD7"/>
<path d="M13.2806 4.2589C13.1679 4.2261 13.0516 4.19629 12.9324 4.16945C12.8125 4.14322 12.6897 4.11996 12.5633 4.09969C12.1208 4.02813 11.636 3.99414 11.1166 3.99414H6.7326C6.62467 3.99414 6.52211 4.01859 6.43028 4.06272C6.22813 4.15991 6.07786 4.35133 6.04149 4.58567L5.10887 10.4927L5.08203 10.665C5.14345 10.2762 5.47559 9.98998 5.86975 9.98998H7.51078C10.7338 9.98998 13.2574 8.68109 13.995 4.89456C14.0171 4.78246 14.0355 4.67333 14.0522 4.56659C13.8656 4.46761 13.6635 4.38293 13.4458 4.31078C13.3921 4.29289 13.3367 4.2756 13.2806 4.2589Z" fill="#222D65"/>
<path d="M6.04146 4.59095C6.07783 4.3566 6.2281 4.16519 6.43025 4.06859C6.52268 4.02446 6.62465 4.00001 6.73258 4.00001H11.1166C11.636 4.00001 12.1208 4.034 12.5632 4.10556C12.6897 4.12583 12.8125 4.14909 12.9324 4.17533C13.0516 4.20216 13.1679 4.23198 13.2806 4.26477C13.3367 4.28147 13.3921 4.29876 13.4464 4.31605C13.664 4.38821 13.8662 4.47348 14.0528 4.57187C14.2723 3.17234 14.051 2.21945 13.2943 1.35659C12.4601 0.40668 10.9544 0 9.02775 0H3.43442C3.04086 0 2.70514 0.286226 2.64431 0.675613L0.31455 15.4431C0.268635 15.7353 0.494038 15.9989 0.788612 15.9989H4.24181L5.10884 10.4979L6.04146 4.59095Z" fill="#253B80"/>
</g>
<defs>
<clipPath id="clip0_1614_380236">
<rect width="73.6926" height="18" fill="white" transform="translate(0.308594)"/>
</clipPath>
</defs>
</svg>
