<svg width="24" height="20" viewBox="0 0 24 20" fill="none" xmlns="http://www.w3.org/2000/svg">
<g id="Wallet">
<path id="Union" fill-rule="evenodd" clip-rule="evenodd" d="M20 1.6L20 1L19.4 1L4.59646 0.999999L3.99646 0.999999L3.99646 1.6L3.99646 18.3996L3.99752 18.3996L3.99752 18.9996L19.4 18.9996L20 18.9996L20 18.3996L20 1.6ZM18.8 17.7996L5.19646 17.7996L5.19646 2.2L18.8 2.2L18.8 7.20076L13.5985 7.20076L12.9985 7.20076L12.9985 7.80076L12.9985 12.2007L12.9985 12.8007L13.5985 12.8007L18.8 12.8007L18.8 17.7996ZM14.1985 8.40076L18.7999 8.40076L18.7999 11.6007L14.1985 11.6007L14.1985 8.40076Z" fill="black"/>
</g>
</svg>
