<svg width="23" height="28" viewBox="0 0 23 28" fill="none" xmlns="http://www.w3.org/2000/svg">
<path d="M11.5 28C11.3083 28 10.925 27.893 10.925 27.893L10.4286 27.6076C6.93069 24.5401 4.3125 21.6928 2.5875 19.0657C0.8625 16.4376 0 13.9822 0 11.6994C0 8.13248 1.15623 5.29087 3.46869 3.17452C5.78019 1.05817 8.45729 0 11.5 0C14.5427 0 17.2198 1.05817 19.5313 3.17452C21.8438 5.29087 23 8.13248 23 11.6994C23 13.9822 22.1375 16.4376 20.4125 19.0657C18.6875 21.6928 16.076 24.5401 12.5781 27.6076L12.075 27.893C12.075 27.893 11.6917 28 11.5 28Z" fill="#EA1917"/>
</svg>
