<?xml version="1.0" encoding="UTF-8"?>
<svg id="Layer_1" data-name="Layer 1" xmlns="http://www.w3.org/2000/svg" version="1.1" xmlns:xlink="http://www.w3.org/1999/xlink" viewBox="0 0 64 64">
  <defs>
    <style>
      .cls-1 {
        fill: #000;
      }

      .cls-1, .cls-2 {
        stroke-width: 0px;
      }

      .cls-3 {
        stroke-linecap: round;
      }

      .cls-3, .cls-4 {
        fill: none;
        stroke: #000;
        stroke-width: 1.5px;
      }

      .cls-2 {
        fill: #fff;
      }

      .cls-5 {
        mask: url(#mask-1);
      }

      .cls-6 {
        mask: url(#mask);
      }
    </style>
    <mask id="mask" x="7" y="34.5" width="49" height="24.5" maskUnits="userSpaceOnUse">
      <g id="path-4-inside-1_281_1314" data-name="path-4-inside-1 281 1314">
        <path class="cls-2" d="M8.5,40c0-2.2,1.8-4,4-4h38c2.2,0,4,1.8,4,4v19H8.5v-19Z"/>
      </g>
    </mask>
    <mask id="mask-1" x="14" y="20.5" width="35" height="16.5" maskUnits="userSpaceOnUse">
      <g id="path-6-inside-2_281_1314" data-name="path-6-inside-2 281 1314">
        <path class="cls-2" d="M15.5,26c0-2.2,1.8-4,4-4h24c2.2,0,4,1.8,4,4v11H15.5v-11Z"/>
      </g>
    </mask>
  </defs>
  <path class="cls-3" d="M31.5,15.2v6.5"/>
  <path class="cls-3" d="M3.5,58.4h57"/>
  <path class="cls-3" d="M9.5,54.1h44"/>
  <g class="cls-6">
    <path class="cls-1" d="M7,40c0-3,2.5-5.5,5.5-5.5h38c3,0,5.5,2.5,5.5,5.5h-3c0-1.4-1.1-2.5-2.5-2.5H12.5c-1.4,0-2.5,1.1-2.5,2.5h-3ZM54.5,59H8.5h46ZM7,59v-19c0-3,2.5-5.5,5.5-5.5v3c-1.4,0-2.5,1.1-2.5,2.5v19h-3ZM50.5,34.5c3,0,5.5,2.5,5.5,5.5v19h-3v-19c0-1.4-1.1-2.5-2.5-2.5v-3Z"/>
  </g>
  <g class="cls-5">
    <path class="cls-1" d="M14,26c0-3,2.5-5.5,5.5-5.5h24c3,0,5.5,2.5,5.5,5.5h-3c0-1.4-1.1-2.5-2.5-2.5h-24c-1.4,0-2.5,1.1-2.5,2.5h-3ZM47.5,37H15.5h32ZM14,37v-11c0-3,2.5-5.5,5.5-5.5v3c-1.4,0-2.5,1.1-2.5,2.5v11h-3ZM43.5,20.5c3,0,5.5,2.5,5.5,5.5v11h-3v-11c0-1.4-1.1-2.5-2.5-2.5v-3Z"/>
  </g>
  <path class="cls-4" d="M34.7,10.5c0,1.3-.4,2.2-.9,2.8-.6.6-1.3,1-2.2,1s-1.6-.3-2.2-1c-.6-.6-.9-1.6-.9-2.8s.4-2.7,1-3.8c.7-1.1,1.4-1.7,2.1-1.7s1.4.6,2.1,1.7c.6,1.1,1,2.5,1,3.8Z"/>
</svg>