<svg width="48" height="48" viewBox="0 0 48 48" fill="none" xmlns="http://www.w3.org/2000/svg">
<path fill-rule="evenodd" clip-rule="evenodd" d="M43.5 24C43.5 34.7696 34.7696 43.5 24 43.5C13.2304 43.5 4.5 34.7696 4.5 24C4.5 13.2304 13.2304 4.5 24 4.5C34.7696 4.5 43.5 13.2304 43.5 24ZM45 24C45 35.598 35.598 45 24 45C12.402 45 3 35.598 3 24C3 12.402 12.402 3 24 3C35.598 3 45 12.402 45 24ZM20 16.25H19.25V17V25.5714V33.4286V34.1786H20.75V33.4286V26.3214H26.4286C27.1752 26.3214 28.2505 26.0599 29.151 25.2818C30.0787 24.4803 30.75 23.1919 30.75 21.2857C30.75 19.3796 30.0787 18.0911 29.151 17.2896C28.2505 16.5116 27.1752 16.25 26.4286 16.25H20ZM26.4286 24.8214H20.75V17.75H26.4286C26.8725 17.75 27.5828 17.917 28.1704 18.4247C28.7308 18.9089 29.25 19.7633 29.25 21.2857C29.25 22.8081 28.7308 23.6626 28.1704 24.1468C27.5828 24.6544 26.8725 24.8214 26.4286 24.8214Z" fill="black"/>
</svg>
