<svg width="100" height="100" viewBox="0 0 100 100" fill="none" xmlns="http://www.w3.org/2000/svg">
<path fill-rule="evenodd" clip-rule="evenodd" d="M7 49.9998C7 73.7477 26.2519 93 50 93C73.7482 93 93 73.7477 93 49.9998C93 26.2513 73.7483 7 50 7C26.2518 7 7 26.2513 7 49.9998ZM5 49.9998C5 74.8523 25.1473 95 50 95C74.8528 95 95 74.8523 95 49.9998C95 25.1467 74.8528 5 50 5C25.1473 5 5 25.1467 5 49.9998ZM49.9905 69.5066C48.3389 69.5066 47.0002 68.16 47.0002 66.4992C47.0002 64.8382 48.3389 63.4915 49.9905 63.4915C51.6418 63.4915 52.9806 64.8382 52.9806 66.4992C52.9806 68.16 51.6418 69.5066 49.9905 69.5066ZM49.9905 59.5346C48.3389 59.5346 47.0002 58.4503 47.0002 57.1141V32.9105C47.0002 31.5741 48.3389 30.4904 49.9905 30.4904C51.6418 30.4904 52.9806 31.5741 52.9806 32.9105V57.1141C52.9806 58.4503 51.6418 59.5346 49.9905 59.5346Z" fill="black"/>
</svg>
