<svg width="64" height="64" viewBox="0 0 64 64" fill="none" xmlns="http://www.w3.org/2000/svg">
<path fill-rule="evenodd" clip-rule="evenodd" d="M4.5 15C4.5 13.0005 5.96308 11.5 7.626 11.5H17.8008V15C17.8008 16.6568 19.1439 18 20.8008 18H43.6008C45.2576 18 46.6008 16.6569 46.6008 15V11.5H56.874C58.5369 11.5 60 13.0005 60 15V49.8C60 51.7995 58.5369 53.3 56.874 53.3H7.626C5.96308 53.3 4.5 51.7995 4.5 49.8V15ZM7.626 10H17.8008H18.5508H45.8508H46.6008H56.874C59.4924 10 61.5 12.3051 61.5 15V49.8C61.5 52.4949 59.4924 54.8 56.874 54.8H7.626C5.00761 54.8 3 52.4949 3 49.8V15C3 12.3051 5.00761 10 7.626 10ZM19.3008 15V11.5H45.1008V15C45.1008 15.8284 44.4292 16.5 43.6008 16.5H20.8008C19.9723 16.5 19.3008 15.8284 19.3008 15ZM17.799 25.951C15.7873 25.951 14.1402 27.6054 14.1402 29.6664C14.1402 31.7274 15.7873 33.3818 17.799 33.3818C19.8107 33.3818 21.4577 31.7274 21.4577 29.6664C21.4577 27.6054 19.8107 25.951 17.799 25.951ZM12.6402 29.6664C12.6402 26.7951 14.9409 24.451 17.799 24.451C20.6571 24.451 22.9577 26.7951 22.9577 29.6664C22.9577 31.5183 22.0007 33.1509 20.5544 34.0767C24.2088 35.2569 26.8477 38.7218 26.8477 42.8002C26.8477 43.2144 26.5119 43.5502 26.0977 43.5502H9.50002C9.08578 43.5502 8.75 43.2144 8.75 42.8002C8.75 38.7217 11.389 35.2568 15.0435 34.0766C13.5972 33.1508 12.6402 31.5183 12.6402 29.6664ZM25.312 42.0502C24.9401 38.1668 21.7107 35.1448 17.7988 35.1448C13.887 35.1448 10.6575 38.1668 10.2857 42.0502H25.312ZM32.1953 26.8499C31.7811 26.8499 31.4453 27.1857 31.4453 27.5999C31.4453 28.0141 31.7811 28.3499 32.1953 28.3499H54.5953C55.0095 28.3499 55.3453 28.0141 55.3453 27.5999C55.3453 27.1857 55.0095 26.8499 54.5953 26.8499H32.1953ZM31.4453 33.9995C31.4453 33.5853 31.7811 33.2495 32.1953 33.2495H54.5953C55.0095 33.2495 55.3453 33.5853 55.3453 33.9995C55.3453 34.4137 55.0095 34.7495 54.5953 34.7495H32.1953C31.7811 34.7495 31.4453 34.4137 31.4453 33.9995ZM32.1953 39.6506C31.7811 39.6506 31.4453 39.9864 31.4453 40.4006C31.4453 40.8148 31.7811 41.1506 32.1953 41.1506H54.5953C55.0095 41.1506 55.3453 40.8148 55.3453 40.4006C55.3453 39.9864 55.0095 39.6506 54.5953 39.6506H32.1953Z" fill="black"/>
</svg>
