<svg width="24" height="24" viewBox="0 0 24 24" fill="none" xmlns="http://www.w3.org/2000/svg">
<circle cx="12" cy="12" r="10" fill="#9F9F9F"/>
<path fill-rule="evenodd" clip-rule="evenodd" d="M8.05714 16.6486C7.86267 16.8431 7.54736 16.8431 7.35289 16.6486C7.15841 16.4542 7.15841 16.1388 7.35289 15.9444L11.2965 12.0007L7.35292 8.05714C7.15845 7.86267 7.15845 7.54736 7.35292 7.35289C7.5474 7.15841 7.86271 7.15841 8.05718 7.35289L12.0007 11.2965L15.9443 7.35289C16.1388 7.15841 16.4541 7.15841 16.6486 7.35289C16.843 7.54736 16.843 7.86267 16.6486 8.05714L12.705 12.0007L16.6486 15.9444C16.8431 16.1388 16.8431 16.4542 16.6486 16.6486C16.4541 16.8431 16.1388 16.8431 15.9443 16.6486L12.0007 12.705L8.05714 16.6486Z" fill="white"/>
</svg>
