<svg width="25" height="24" viewBox="0 0 25 24" fill="none" xmlns="http://www.w3.org/2000/svg">
<path fill-rule="evenodd" clip-rule="evenodd" d="M4.70159 5.64215C4.70159 4.83001 5.33864 4.19902 6.09116 4.19902C6.84367 4.19902 7.48073 4.83001 7.48073 5.64215C7.48073 6.45429 6.84367 7.08527 6.09116 7.08527C5.33864 7.08527 4.70159 6.45429 4.70159 5.64215ZM6.09116 2.99902C4.64605 2.99902 3.50159 4.19751 3.50159 5.64215C3.50159 7.08678 4.64605 8.28527 6.09116 8.28527C7.33018 8.28527 8.34819 7.40424 8.61335 6.24242H20.8987C21.2301 6.24242 21.4987 5.97379 21.4987 5.64242C21.4987 5.31105 21.2301 5.04242 20.8987 5.04242H8.61347C8.34851 3.88033 7.33037 2.99902 6.09116 2.99902ZM4.70146 17.4997C4.70146 16.6875 5.33852 16.0565 6.09104 16.0565C6.84355 16.0565 7.48061 16.6875 7.48061 17.4997C7.48061 18.3118 6.84355 18.9428 6.09104 18.9428C5.33852 18.9428 4.70146 18.3118 4.70146 17.4997ZM6.09104 14.8565C4.64593 14.8565 3.50146 16.055 3.50146 17.4997C3.50146 18.9443 4.64593 20.1428 6.09104 20.1428C7.32971 20.1428 8.3475 19.2622 8.61301 18.1009H20.8986C21.23 18.1009 21.4986 17.8323 21.4986 17.5009C21.4986 17.1695 21.23 16.9009 20.8986 16.9009H8.61358C8.34896 15.7383 7.3306 14.8565 6.09104 14.8565ZM18.9035 10.1278C18.1912 10.1278 17.5824 10.6931 17.5193 11.4423C17.5284 11.4838 17.5332 11.5269 17.5332 11.5712C17.5332 11.6153 17.5284 11.6584 17.5194 11.6999C17.5826 12.4489 18.1914 13.014 18.9035 13.014C19.6561 13.014 20.2931 12.383 20.2931 11.5709C20.2931 10.7588 19.6561 10.1278 18.9035 10.1278ZM18.9035 8.92776C17.6643 8.92776 16.6462 9.80907 16.3812 10.9712H4.32021C3.98884 10.9712 3.72021 11.2398 3.72021 11.5712C3.72021 11.9025 3.98884 12.1712 4.32021 12.1712H16.3813C16.6465 13.333 17.6645 14.214 18.9035 14.214C20.3486 14.214 21.4931 13.0155 21.4931 11.5709C21.4931 10.1263 20.3486 8.92776 18.9035 8.92776Z" fill="black"/>
</svg>
