<svg width="48" height="48" viewBox="0 0 48 48" fill="none" xmlns="http://www.w3.org/2000/svg">
<path fill-rule="evenodd" clip-rule="evenodd" d="M24.0972 9.38867C18.1825 9.38867 13.3877 14.1835 13.3877 20.0982C13.3877 26.006 18.1715 30.7966 24.0767 30.8076H24.1176C30.0229 30.7966 34.8067 26.006 34.8067 20.0982C34.8067 14.1835 30.0119 9.38867 24.0972 9.38867ZM11.8877 20.0982C11.8877 24.7144 14.4496 28.7323 18.2291 30.8076H13.6377C12.6712 30.8076 11.8877 31.5911 11.8877 32.5576V34.8549C11.8877 35.2264 12.0035 35.5709 12.2009 35.8542C12.0035 36.1376 11.8877 36.482 11.8877 36.8535V39.1508C11.8877 40.1173 12.6712 40.9008 13.6377 40.9008H34.5567C35.5232 40.9008 36.3067 40.1173 36.3067 39.1508V36.8535C36.3067 36.482 36.1909 36.1376 35.9935 35.8542C36.1909 35.5709 36.3067 35.2264 36.3067 34.8549V32.5576C36.3067 31.5911 35.5232 30.8076 34.5567 30.8076H29.9653C33.7448 28.7323 36.3067 24.7144 36.3067 20.0982C36.3067 13.355 30.8403 7.88867 24.0972 7.88867C17.3541 7.88867 11.8877 13.355 11.8877 20.0982ZM13.6127 36.6047C13.621 36.6049 13.6294 36.6049 13.6377 36.6049H34.5567C34.565 36.6049 34.5733 36.6049 34.5816 36.6047C34.708 36.6173 34.8067 36.7239 34.8067 36.8535V39.1508C34.8067 39.2889 34.6947 39.4008 34.5567 39.4008H13.6377C13.4996 39.4008 13.3877 39.2889 13.3877 39.1508V36.8535C13.3877 36.7239 13.4864 36.6173 13.6127 36.6047ZM34.5816 35.1037C34.708 35.0912 34.8067 34.9846 34.8067 34.8549V32.5576C34.8067 32.4195 34.6947 32.3076 34.5567 32.3076H24.119L24.0972 32.3076L24.0754 32.3076H13.6377C13.4996 32.3076 13.3877 32.4195 13.3877 32.5576V34.8549C13.3877 34.9846 13.4864 35.0912 13.6127 35.1037C13.621 35.1036 13.6294 35.1035 13.6377 35.1035H34.5567C34.565 35.1035 34.5733 35.1036 34.5816 35.1037ZM22.7517 21.5276H24.8101C26.3923 21.5276 27.675 20.245 27.675 18.6627C27.675 17.0805 26.3923 15.7979 24.8101 15.7979H21.4794C21.3411 15.7979 21.229 15.91 21.229 16.0482V21.2773C21.229 21.3151 21.2374 21.351 21.2525 21.3832L21.2356 24.3586C21.2333 24.7728 21.5671 25.1105 21.9813 25.1128C22.3955 25.1152 22.7332 24.7813 22.7356 24.3671L22.7517 21.5276ZM22.7602 20.0276L22.7757 17.2979H24.8101C25.5639 17.2979 26.175 17.909 26.175 18.6627C26.175 19.4165 25.5639 20.0276 24.8101 20.0276H22.7602Z" fill="black"/>
</svg>
