<svg width="60" height="60" viewBox="0 0 60 60" fill="none" xmlns="http://www.w3.org/2000/svg">
<g clip-path="url(#clip0_6995_239562)">
<circle cx="30" cy="30" r="29" fill="black" fill-opacity="0.7" stroke="white" stroke-width="2"/>
<path fill-rule="evenodd" clip-rule="evenodd" d="M25 22C23.8954 22 23 22.8954 23 24V36C23 37.1046 23.8954 38 25 38C26.1046 38 27 37.1046 27 36V24C27 22.8954 26.1046 22 25 22ZM35 22C33.8954 22 33 22.8954 33 24V36C33 37.1046 33.8954 38 35 38C36.1046 38 37 37.1046 37 36V24C37 22.8954 36.1046 22 35 22Z" fill="white"/>
</g>
<defs>
<clipPath id="clip0_6995_239562">
<rect width="60" height="60" fill="white"/>
</clipPath>
</defs>
</svg>
