<svg width="32" height="32" viewBox="0 0 32 32" fill="none" xmlns="http://www.w3.org/2000/svg">
<g clip-path="url(#clip0_1571_39403)">
<path d="M15.9988 31.0752C24.3256 31.0752 31.0757 24.3251 31.0757 15.9983C31.0757 7.67156 24.3256 0.921387 15.9988 0.921387C7.67204 0.921387 0.921875 7.67156 0.921875 15.9983C0.921875 24.3251 7.67204 31.0752 15.9988 31.0752Z" fill="#1977F3"/>
<path d="M21.8699 20.3567L22.5378 15.9976H18.3567V13.1692C18.3567 11.9777 18.9397 10.8137 20.814 10.8137H22.7159V7.1033C22.7159 7.1033 20.99 6.80859 19.3405 6.80859C15.8972 6.80859 13.6455 8.89488 13.6455 12.6752V15.9976H9.81641V20.3567H13.6455V30.892C14.4131 31.0129 15.1997 31.0743 16.0011 31.0743C16.8025 31.0743 17.5892 31.0107 18.3567 30.892V20.3567H21.8699Z" fill="#F6F6F6"/>
</g>
<defs>
<clipPath id="clip0_1571_39403">
<rect width="30.1538" height="30.1538" fill="white" transform="translate(0.921875 0.922852)"/>
</clipPath>
</defs>
</svg>
