<svg width="31" height="32" viewBox="0 0 31 32" fill="none" xmlns="http://www.w3.org/2000/svg">
<g clip-path="url(#clip0_711_411531)">
<path fill-rule="evenodd" clip-rule="evenodd" d="M5.61496 1.94678H6.36496H28.6983H29.4483V2.69678V20.6968V21.4468H28.6983H25.7267H25.6114V25.5022V26.2522H24.8614H15.3778L15.3807 28.7439L15.3823 30.0532L14.252 29.3921L8.88383 26.2522H1.75H1V25.5022V6.53015V5.78015H1.75H5.61496V5.73599V2.69678V1.94678ZM25.7267 19.9468H25.6114V6.53015V5.78015H24.8614H7.11496V5.73599V3.44678H27.9483V19.9468H25.7267ZM2.5 7.28015V24.7522H9.08707H9.29031L9.46574 24.8548L13.8792 27.4363L13.8769 25.5031L13.876 24.7522H14.6269H24.1114V7.28015H2.5ZM6.2793 12.9468H7.0293H19.3626H20.1126V14.4468H19.3626H7.0293H6.2793V12.9468ZM6.2793 17.2801H7.0293H14.0293H14.7793V18.7801H14.0293H7.0293H6.2793V17.2801Z" fill="black"/>
</g>
<defs>
<clipPath id="clip0_711_411531">
<rect width="30.4483" height="30.1064" fill="white" transform="translate(0 0.946777)"/>
</clipPath>
</defs>
</svg>
