<svg width="64" height="64" viewBox="0 0 64 64" fill="none" xmlns="http://www.w3.org/2000/svg">
<path fill-rule="evenodd" clip-rule="evenodd" d="M5.58008 6.83008C5.58008 6.13972 6.13972 5.58008 6.83008 5.58008H57.1637C57.854 5.58008 58.4137 6.13972 58.4137 6.83008V16.9433C58.4137 17.6336 57.854 18.1933 57.1637 18.1933H56.2959V57.1636C56.2959 57.854 55.7362 58.4136 55.0459 58.4136H8.94596C8.25561 58.4136 7.69596 57.854 7.69596 57.1636V18.1933H6.83008C6.13973 18.1933 5.58008 17.6336 5.58008 16.9433V6.83008ZM7.08008 7.08008V16.6933H56.9137V7.08008H7.08008ZM9.19596 18.1944V56.9136H54.7959V18.1944H9.19596ZM28.7401 26.334C28.7401 25.9198 29.0759 25.584 29.4901 25.584H34.5209C34.9351 25.584 35.2709 25.9198 35.2709 26.334V28.4827C36.3452 28.8662 37.3302 29.4317 38.1867 30.1415L40.1186 29.0508C40.4744 28.8499 40.9255 28.9707 41.1332 29.3226L43.6486 33.5831C43.751 33.7566 43.7793 33.9639 43.7272 34.1585C43.6751 34.353 43.5469 34.5185 43.3715 34.6175L41.4518 35.7014C41.547 36.2334 41.5966 36.7805 41.5966 37.3383C41.5966 37.8939 41.5474 38.4387 41.453 38.9687L43.3714 40.0519C43.5468 40.1509 43.675 40.3163 43.7271 40.5109C43.7793 40.7054 43.7509 40.9128 43.6485 41.0863L41.1331 45.3468C40.9254 45.6986 40.4743 45.8195 40.1186 45.6186L38.192 44.5308C37.3342 45.2426 36.3474 45.8097 35.2709 46.1939V48.3392C35.2709 48.7534 34.9351 49.0892 34.5209 49.0892H29.4901C29.0759 49.0892 28.7401 48.7534 28.7401 48.3392V46.2131C27.651 45.8317 26.6526 45.2635 25.7852 44.5477L23.8862 45.6199C23.5304 45.8208 23.0793 45.6999 22.8716 45.3481L20.3562 41.0875C20.2538 40.9141 20.2255 40.7067 20.2776 40.5122C20.3297 40.3176 20.4579 40.1522 20.6333 40.0532L22.5084 38.9945C22.4109 38.4564 22.3602 37.9029 22.3602 37.3383C22.3602 36.7713 22.4114 36.2154 22.5097 35.6751L20.6319 34.615C20.4565 34.5159 20.3283 34.3505 20.2762 34.1559C20.2241 33.9614 20.2524 33.754 20.3548 33.5806L22.8702 29.32C23.0779 28.9682 23.529 28.8474 23.8848 29.0482L25.7908 30.1243C26.6569 29.4107 27.6534 28.8441 28.7401 28.4636V26.334ZM30.2401 27.084V29.012C30.2401 29.347 30.018 29.6413 29.6959 29.7332C28.4429 30.0907 27.3156 30.7353 26.3934 31.5887C26.1541 31.8102 25.7992 31.8517 25.5153 31.6914L23.7879 30.7161L22.0352 33.6847L23.727 34.6399C24.0202 34.8054 24.1671 35.1461 24.0863 35.473C23.9386 36.0704 23.8602 36.695 23.8602 37.3383C23.8602 37.9795 23.938 38.6019 24.0848 39.1975C24.1653 39.5242 24.0183 39.8646 23.7253 40.03L22.0367 40.9834L23.7893 43.952L25.51 42.9805C25.7941 42.8201 26.1493 42.8618 26.3886 43.0835C27.3117 43.9392 28.4408 44.5854 29.6959 44.9435C30.018 45.0354 30.2401 45.3297 30.2401 45.6647V47.5892H33.7709V45.649C33.7709 45.3158 33.9907 45.0225 34.3106 44.9291C35.5537 44.5659 36.6714 43.9197 37.5855 43.0674C37.8247 42.8443 38.1809 42.802 38.4657 42.9628L40.2155 43.9507L41.9681 40.9821L40.2375 40.005C39.9453 39.84 39.7982 39.5009 39.8775 39.1748C40.0206 38.5861 40.0966 37.9713 40.0966 37.3383C40.0966 36.7033 40.0201 36.0866 39.8761 35.4961C39.7965 35.1698 39.9435 34.8304 40.236 34.6652L41.9682 33.6872L40.2155 30.7186L38.4608 31.7093C38.1762 31.87 37.8203 31.8279 37.581 31.6052C36.6677 30.7549 35.5516 30.1102 34.3106 29.7476C33.9907 29.6542 33.7709 29.3609 33.7709 29.0277V27.084H30.2401ZM31.962 41.1874C34.0894 41.1874 35.814 39.4628 35.814 37.3355C35.814 35.2082 34.0894 33.4836 31.962 33.4836C29.8345 33.4836 28.1099 35.2082 28.1099 37.3355C28.1099 39.4628 29.8345 41.1874 31.962 41.1874ZM37.314 37.3355C37.314 40.2913 34.9178 42.6874 31.962 42.6874C29.0061 42.6874 26.6099 40.2913 26.6099 37.3355C26.6099 34.3797 29.0061 31.9836 31.962 31.9836C34.9178 31.9836 37.314 34.3797 37.314 37.3355Z" fill="#1A1A1A"/>
</svg>
