<svg width="48" height="48" viewBox="0 0 48 48" fill="none" xmlns="http://www.w3.org/2000/svg">
<path fill-rule="evenodd" clip-rule="evenodd" d="M2 7.07422C2 6.66001 2.33579 6.32422 2.75 6.32422H6.71665C7.49085 6.32422 8.17878 6.8308 8.39537 7.58425C8.85588 9.1862 9.33054 10.8991 9.8063 12.6602H40.0992C41.9782 12.6602 43.3039 14.5027 42.7066 16.2843L38.3578 29.2553C37.7088 31.1909 35.8957 32.4954 33.8542 32.4954H14.8301C15.0195 33.2819 15.1817 33.9599 15.3118 34.5059C15.4458 35.0684 15.9462 35.4631 16.5306 35.4631H37.0277C37.4419 35.4631 37.7777 35.7989 37.7777 36.2131C37.7777 36.6273 37.4419 36.9631 37.0277 36.9631H36.1761C36.5024 37.4444 36.6931 38.0246 36.6931 38.6504C36.6931 40.3274 35.3237 41.6759 33.6481 41.6759C31.9724 41.6759 30.603 40.3274 30.603 38.6504C30.603 38.0246 30.7938 37.4444 31.12 36.9631H22.1014C22.4277 37.4444 22.6184 38.0246 22.6184 38.6504C22.6184 40.3274 21.249 41.6759 19.5734 41.6759C17.8977 41.6759 16.5283 40.3274 16.5283 38.6504C16.5283 38.0246 16.7191 37.4444 17.0453 36.9631H16.5306C15.2578 36.9631 14.149 36.0976 13.8526 34.8536C12.7956 30.4177 9.63176 17.3145 6.95376 7.99867C6.92464 7.89736 6.83181 7.82422 6.71665 7.82422H2.75C2.33579 7.82422 2 7.48843 2 7.07422ZM14.4677 30.9954C13.4241 26.691 11.8315 20.2477 10.2088 14.1602H40.0992C40.9533 14.1602 41.5559 14.9977 41.2844 15.8075L36.9356 28.7785C36.4916 30.1028 35.251 30.9954 33.8542 30.9954H14.4677ZM18.0283 38.6504C18.0283 37.814 18.714 37.125 19.5734 37.125C20.4327 37.125 21.1184 37.814 21.1184 38.6504C21.1184 39.4869 20.4327 40.1759 19.5734 40.1759C18.714 40.1759 18.0283 39.4869 18.0283 38.6504ZM33.6481 37.125C32.7887 37.125 32.103 37.814 32.103 38.6504C32.103 39.4869 32.7887 40.1759 33.6481 40.1759C34.5075 40.1759 35.1931 39.4869 35.1931 38.6504C35.1931 37.814 34.5075 37.125 33.6481 37.125ZM21.9106 21.4282C21.9106 20.1151 22.909 19.1211 24.056 19.1211C24.7152 19.1211 25.2206 19.4414 25.5501 19.9829C25.6861 20.2066 25.929 20.3431 26.1908 20.3431C26.4526 20.3431 26.6955 20.2066 26.8315 19.9829C27.161 19.4414 27.6664 19.1211 28.3256 19.1211C29.4726 19.1211 30.4709 20.1151 30.4709 21.4282C30.4709 22.0163 30.2674 22.5466 29.9378 22.9504L29.9148 22.9767C29.9046 22.9884 29.8948 23.0004 29.8854 23.0127C29.8637 23.0409 29.8337 23.0754 29.7933 23.1157L29.7925 23.1165C29.0713 23.8384 27.8498 25.0024 26.3526 26.3609C26.2607 26.4443 26.1209 26.4443 26.029 26.3609C24.5318 25.0024 23.3102 23.8384 22.5891 23.1165L22.5883 23.1157C22.5479 23.0754 22.5179 23.0409 22.4962 23.0127C22.4868 23.0004 22.477 22.9884 22.4668 22.9767L22.4438 22.9504C22.1142 22.5466 21.9106 22.0163 21.9106 21.4282ZM24.056 17.6211C22.0047 17.6211 20.4106 19.3646 20.4106 21.4282C20.4106 22.3728 20.7408 23.2422 21.2923 23.9117C21.2968 23.9172 21.3014 23.9227 21.3061 23.928L21.3229 23.9473C21.3858 24.0272 21.4548 24.1036 21.5279 24.1766C22.2714 24.9209 23.5119 26.1024 25.021 27.4717C25.6848 28.074 26.6968 28.074 27.3606 27.4717C28.8694 26.1027 30.1097 24.9213 30.8533 24.177C30.9266 24.1039 30.9957 24.0273 31.0587 23.9473L31.0755 23.928C31.0802 23.9227 31.0848 23.9172 31.0893 23.9117C31.6408 23.2422 31.9709 22.3728 31.9709 21.4282C31.9709 19.3646 30.3769 17.6211 28.3256 17.6211C27.4726 17.6211 26.747 17.9263 26.1908 18.4262C25.6346 17.9263 24.909 17.6211 24.056 17.6211Z" fill="#333333"/>
</svg>
