<svg width="16" height="16" viewBox="0 0 16 16" fill="none" xmlns="http://www.w3.org/2000/svg">
<g clip-path="url(#clip0_2953_48432)">
<path fill-rule="evenodd" clip-rule="evenodd" d="M15.808 7.68086C15.672 7.51286 12.248 3.63281 7.96797 3.63281C3.68797 3.63281 0.26402 7.51286 0.12002 7.68086C0.042628 7.77107 0 7.88583 0 8.00469C0 8.12355 0.042628 8.2387 0.12002 8.32891C0.26402 8.49691 3.67997 12.377 7.96797 12.377C12.256 12.377 15.672 8.49691 15.808 8.32891C15.8854 8.2387 15.9279 8.12355 15.9279 8.00469C15.9279 7.88583 15.8854 7.77107 15.808 7.68086ZM7.96797 11.4086C7.2895 11.4364 6.61826 11.2607 6.04053 10.9039C5.46279 10.5471 5.00504 10.0257 4.72607 9.40664C4.44711 8.78756 4.35967 8.09923 4.4751 7.43008C4.59053 6.76093 4.90348 6.14141 5.37373 5.65156C5.84398 5.16172 6.45008 4.82388 7.11397 4.68125C7.77785 4.53862 8.46917 4.5977 9.09912 4.85117C9.72907 5.10465 10.2688 5.54082 10.6489 6.10352C11.029 6.66621 11.232 7.32956 11.2319 8.00859C11.2482 8.8918 10.914 9.74557 10.3022 10.3828C9.69049 11.0201 8.85111 11.3889 7.96797 11.4086ZM7.96797 6.0168C7.57378 6.01283 7.18735 6.12599 6.85772 6.34219C6.52808 6.55838 6.27012 6.86773 6.1167 7.23086C5.96328 7.59399 5.92134 7.99459 5.99609 8.38164C6.07085 8.76869 6.25901 9.12481 6.53662 9.40469C6.81424 9.68456 7.16874 9.87563 7.55518 9.95352C7.94161 10.0314 8.34248 9.99266 8.70684 9.84219C9.07119 9.69171 9.38261 9.43607 9.60147 9.1082C9.82032 8.78033 9.93671 8.39499 9.93594 8.00078C9.9371 7.74126 9.88716 7.48394 9.78887 7.24375C9.69057 7.00356 9.54585 6.78503 9.36309 6.60078C9.18032 6.41653 8.96302 6.27016 8.72363 6.16992C8.48425 6.06969 8.22749 6.01774 7.96797 6.0168Z" fill="#666666"/>
</g>
<defs>
<clipPath id="clip0_2953_48432">
<rect width="15.952" height="16" fill="white"/>
</clipPath>
</defs>
</svg>
