<svg width="32" height="33" viewBox="0 0 32 33" fill="none" xmlns="http://www.w3.org/2000/svg">
<g clip-path="url(#clip0_431_10075)">
<path fill-rule="evenodd" clip-rule="evenodd" d="M16 0.638672C19.1645 0.638672 22.258 1.57705 24.8892 3.33516C27.5204 5.09326 29.571 7.59212 30.782 10.5157C31.993 13.4394 32.3099 16.6564 31.6925 19.7601C31.0752 22.8638 29.5514 25.7147 27.3137 27.9524C25.0761 30.19 22.2251 31.7139 19.1214 32.3312C16.0177 32.9486 12.8007 32.6317 9.87712 31.4207C6.9535 30.2097 4.45464 28.159 2.69654 25.5278C0.938438 22.8966 0 19.8032 0 16.6387C0 12.3952 1.68569 8.32554 4.68627 5.32496C7.68685 2.32438 11.7565 0.638672 16 0.638672ZM23.8172 22.5815H8.18281C8.06997 22.5832 7.95796 22.5626 7.85313 22.5208C7.74829 22.479 7.65272 22.4169 7.57199 22.338C7.49126 22.2592 7.42694 22.1651 7.3827 22.0613C7.33847 21.9575 7.31524 21.8459 7.31429 21.7331V11.5434C7.31512 11.4304 7.3383 11.3188 7.38248 11.2149C7.42666 11.1109 7.49102 11.0168 7.57176 10.9378C7.6525 10.8589 7.74801 10.7967 7.8529 10.7548C7.95779 10.713 8.06989 10.6923 8.18281 10.694H23.8172C24.0448 10.6923 24.2637 10.7806 24.4265 10.9397C24.5892 11.0988 24.6823 11.3158 24.6857 11.5434V21.7313C24.6826 21.959 24.5895 22.1762 24.4268 22.3355C24.2641 22.4948 24.0449 22.5832 23.8172 22.5815ZM21.8879 20.7411L18.1943 17.4917L16.4297 19.0743C16.2983 19.1475 16.1504 19.1859 16 19.1859C15.8496 19.1859 15.7017 19.1475 15.5703 19.0743L13.7874 17.4624L10.1029 20.7411H21.8879ZM9.15201 19.526L12.5075 16.3123L9.15201 13.19V19.526ZM10.6331 12.5216L16 17.3582L17.7006 15.7948C17.7097 15.7875 17.7097 15.7774 17.7189 15.771C17.728 15.7646 17.7372 15.7646 17.7463 15.76L21.4126 12.5216H10.6331ZM19.4743 16.3452L22.8754 19.5342V13.2366L19.4743 16.3452Z" fill="#333333"/>
</g>
<defs>
<clipPath id="clip0_431_10075">
<rect width="32" height="32" fill="white" transform="translate(0 0.638672)"/>
</clipPath>
</defs>
</svg>
