<svg width="32" height="32" viewBox="0 0 32 32" fill="none" xmlns="http://www.w3.org/2000/svg">
<path fill-rule="evenodd" clip-rule="evenodd" d="M10.624 3.75C10.624 3.33579 10.2882 3 9.87402 3C9.45981 3 9.12402 3.33579 9.12402 3.75V5.1416H5.75C4.23122 5.1416 3 6.37282 3 7.8916V24.2453C3 25.764 4.23122 26.9953 5.75 26.9953H26.2483C27.7671 26.9953 28.9983 25.764 28.9983 24.2453V7.8916C28.9983 6.37282 27.7671 5.1416 26.2483 5.1416H22.873V3.75C22.873 3.33579 22.5373 3 22.123 3C21.7088 3 21.373 3.33579 21.373 3.75V5.1416H10.624V3.75ZM21.373 8.5706V6.6416H10.624V8.5706C10.624 8.98482 10.2882 9.3206 9.87402 9.3206C9.45981 9.3206 9.12402 8.98482 9.12402 8.5706V6.6416H5.75C5.05965 6.6416 4.5 7.20125 4.5 7.8916V10.498H27.4983V7.8916C27.4983 7.20125 26.9387 6.6416 26.2483 6.6416H22.873V8.5706C22.873 8.98482 22.5373 9.3206 22.123 9.3206C21.7088 9.3206 21.373 8.98482 21.373 8.5706ZM4.5 24.2453V11.998H27.4983V24.2453C27.4983 24.9356 26.9387 25.4953 26.2483 25.4953H5.75C5.05964 25.4953 4.5 24.9356 4.5 24.2453ZM20.5188 16.2416C20.8179 15.955 20.8281 15.4803 20.5416 15.1812C20.255 14.8821 19.7803 14.8719 19.4812 15.1584L14.7807 19.6615L12.5187 17.4955C12.2195 17.209 11.7448 17.2193 11.4583 17.5185C11.1718 17.8176 11.1821 18.2924 11.4813 18.5789L14.2621 21.2417L14.7809 21.7385L15.2996 21.2416L20.5188 16.2416Z" fill="black"/>
</svg>
