<svg width="20" height="18" viewBox="0 0 20 18" fill="none" xmlns="http://www.w3.org/2000/svg">
<path fill-rule="evenodd" clip-rule="evenodd" d="M10.1424 0.258587C9.36053 -0.091209 8.51687 -0.0768196 7.73096 0.2455C7.7196 0.250158 7.70835 0.255006 7.6972 0.260039L1.69858 2.96808C1.68792 2.97289 1.67734 2.97788 1.66683 2.98305C0.706549 3.45565 0 4.4671 0 5.60544V11.7318C0 12.8496 0.641168 13.8223 1.61074 14.3044L7.51044 17.3631L7.51043 17.3631L7.51599 17.3659L7.52448 17.3702L7.52446 17.3702L7.53015 17.373C8.36541 17.7841 9.34206 17.7841 10.1773 17.373L10.1773 17.3731L10.1836 17.3699L11.7515 16.5752C11.5523 16.2303 11.3932 15.8592 11.2808 15.4684L9.64453 16.2978C9.58741 16.3258 9.52921 16.3505 9.47017 16.3721V8.28589L12.6498 6.8271V9C12.6498 9.33137 12.9185 9.6 13.2498 9.6C13.5812 9.6 13.8498 9.33137 13.8498 9V6.27019L16.5281 4.99211C16.6032 5.18592 16.6428 5.39371 16.6428 5.60544V9.14866C17.0608 9.19739 17.463 9.29796 17.8428 9.44379V5.60544C17.8428 4.50149 17.2108 3.45799 16.1505 2.97092L16.1469 2.9693L10.1456 0.260034L10.1438 0.259225L10.1424 0.258602L10.1424 0.258587ZM6.6045 2.06994L8.18861 1.35481C8.69599 1.14735 9.19583 1.14973 9.65228 1.35395L9.65364 1.35456L15.6496 4.06139L15.6512 4.06215L15.6711 4.07145L13.2493 5.22715L6.6045 2.06994ZM5.17067 2.71724L2.19458 4.06078C2.17567 4.07012 2.15694 4.0798 2.1384 4.08981L8.87261 7.23978L11.8317 5.88217L5.17067 2.71724ZM1.31046 5.02732C1.23911 5.21162 1.2 5.40727 1.2 5.60544V11.7318C1.2 12.3749 1.56608 12.9435 2.14824 13.2315L2.15839 13.2365L2.15834 13.2366L8.05996 16.2963L8.06265 16.2976C8.13043 16.3309 8.19974 16.3596 8.27016 16.3838V8.28277L1.31046 5.02732ZM17.7441 10.5516L18.1683 10.9758L19.6176 12.4251C19.7892 12.5967 19.8405 12.8548 19.7477 13.079C19.6548 13.3032 19.436 13.4493 19.1933 13.4493H13.3963H12.7963V12.2493H13.3963H17.7448L17.3198 11.8243L16.8955 11.4001L17.7441 10.5516ZM14.8469 17.8486L14.4227 17.4243L12.9734 15.975C12.8018 15.8034 12.7505 15.5454 12.8433 15.3212C12.9362 15.097 13.155 14.9508 13.3977 14.9508L19.1947 14.9508H19.7947V16.1508H19.1947H14.8462L15.2712 16.5758L15.6955 17L14.8469 17.8486Z" fill="black"/>
</svg>
