<svg width="22" height="28" viewBox="0 0 22 28" fill="none" xmlns="http://www.w3.org/2000/svg">
<path fill-rule="evenodd" clip-rule="evenodd" d="M2.95297 14.2352C2.39242 13.2016 2.058 12.1191 2.05791 10.6697C2.06701 5.93558 6.05134 2.06719 11.0045 2.06719C15.9581 2.06719 19.9416 5.93587 19.9416 10.6691C19.9416 12.1204 19.6111 13.2024 19.0473 14.2339L19.0468 14.2348C18.808 14.6733 18.5169 15.0897 18.1945 15.5134C16.7886 17.3593 15.7189 18.7828 14.6605 20.1914L14.6604 20.1916C13.5521 21.6664 12.4562 23.1248 10.9998 25.0343C9.54324 23.1247 8.44731 21.6663 7.33904 20.1914L7.33899 20.1913C6.28052 18.7827 5.21079 17.3591 3.80489 15.5132L3.80314 15.5109C3.48385 15.0959 3.19235 14.6747 2.95297 14.2352ZM11.0045 0.867188C5.42921 0.867188 0.868005 5.23254 0.857911 10.668L0.85791 10.6691C0.85791 12.3353 1.25047 13.6132 1.89837 14.8078L1.89885 14.8087C2.17853 15.3223 2.50981 15.7977 2.85108 16.2414C4.23804 18.0625 5.30973 19.4885 6.37248 20.9027L6.37258 20.9029L6.37274 20.9031C7.60791 22.5467 8.83105 24.1743 10.5231 26.3874L10.9998 27.0108L11.4764 26.3874C13.1685 24.1742 14.3917 22.5466 15.6269 20.903L15.6269 20.9029L15.6273 20.9023C16.6902 19.488 17.762 18.0617 19.1493 16.2403L19.1495 16.2401C19.488 15.7951 19.8201 15.3239 20.1006 14.8088C20.7546 13.6121 21.1416 12.3336 21.1416 10.6691C21.1416 5.23255 16.5795 0.867188 11.0045 0.867188ZM20.1006 14.8088L20.1007 14.8087L19.5737 14.5217L20.1002 14.8095L20.1006 14.8088ZM2.85108 16.2414L2.85024 16.2403L3.32757 15.8768L2.85199 16.2426L2.85108 16.2414ZM11.8292 5.61279C8.46076 5.05928 5.59061 7.93763 6.13877 11.3005L6.13895 11.3016C6.4765 13.3485 8.1222 14.996 10.1702 15.3291C13.5384 15.8825 16.4094 13.0042 15.8559 9.6405L15.8559 9.64029C15.5185 7.59424 13.8781 5.94599 11.8292 5.61279ZM10.3632 14.1447C8.82557 13.8948 7.57728 12.6471 7.32305 11.1068C6.90688 8.55141 9.07863 6.37662 11.635 6.79698L11.6361 6.79716C13.1731 7.04692 14.4177 8.29415 14.6719 9.83554C15.0921 12.3902 12.9211 14.5653 10.3644 14.1449L10.3632 14.1447Z" fill="black"/>
</svg>
