<svg width="32" height="32" viewBox="0 0 32 32" fill="none" xmlns="http://www.w3.org/2000/svg">
<mask id="path-2-inside-1_2003_339827" fill="white">
<rect x="2" y="8.5625" width="28" height="14.875" rx="1"/>
</mask>
<rect x="2" y="8.5625" width="28" height="14.875" rx="1" stroke="black" stroke-width="3" mask="url(#path-2-inside-1_2003_339827)"/>
<path fill-rule="evenodd" clip-rule="evenodd" d="M5.5 13.4614H6.55724V18.0614H5.5V13.4614ZM8.16232 13.4614H9.19638C9.19638 14.4584 8.80687 15.3858 8.11595 16.0721L9.57661 18.0614H8.27361L6.68774 15.9005L7.0958 15.5945C7.77281 15.0844 8.16232 14.31 8.16232 13.4614ZM10.8788 13.4614H9.88184V18.0614H10.8788V13.4614ZM18.6413 15.2379C18.8824 14.9087 19.2441 14.7927 19.6243 14.7927C20.3894 14.7927 20.9783 15.2982 20.9783 16.0401V18.0665H20.0277V16.3879C20.0277 15.9242 19.7866 15.6738 19.3693 15.6738C18.9798 15.6738 18.6552 15.9102 18.6552 16.3925V18.0618H17.6953V14.8808H18.6413V15.2379ZM13.8907 14.8808V15.0849C13.6217 14.8994 13.2971 14.7927 12.9447 14.7927C12.0173 14.7927 11.2661 15.5439 11.2661 16.4713C11.2661 17.3987 12.0173 18.1499 12.9447 18.1499C13.2971 18.1499 13.6217 18.0433 13.8907 17.8578V18.0618H14.8413V14.8808H13.8907ZM13.0235 17.2874C12.5459 17.2874 12.1611 16.9211 12.1611 16.4713C12.1611 16.0215 12.5459 15.6552 13.0235 15.6552C13.5012 15.6552 13.886 16.0215 13.886 16.4713C13.886 16.9211 13.5012 17.2874 13.0235 17.2874ZM16.3175 14.8799V15.2926C16.5076 15.0468 16.8647 14.8799 17.2496 14.8799V15.8073H17.2403C16.8647 15.8073 16.3222 16.0762 16.3222 16.577V18.0609H15.3438V14.8799H16.3175ZM23.9378 14.8808V15.0849C23.6688 14.8994 23.3443 14.7927 22.9918 14.7927C22.0644 14.7927 21.3132 15.5439 21.3132 16.4713C21.3132 17.3987 22.0644 18.1499 22.9918 18.1499C23.3443 18.1499 23.6688 18.0433 23.9378 17.8578V18.0618H24.8884V14.8808H23.9378ZM23.0707 17.2874C22.5931 17.2874 22.2082 16.9211 22.2082 16.4713C22.2082 16.0215 22.5931 15.6552 23.0707 15.6552C23.5483 15.6552 23.9332 16.0215 23.9332 16.4713C23.9378 16.9211 23.5483 17.2874 23.0707 17.2874ZM25.5383 14.897C25.5893 14.897 25.6218 14.9248 25.6218 14.9712C25.6218 15.0036 25.6079 15.0268 25.58 15.0407L25.6218 15.1381H25.5754L25.5383 15.05H25.4919V15.1381H25.4502V14.897H25.5383ZM25.4919 15.0083H25.5383C25.5708 15.0083 25.58 14.9944 25.58 14.9712C25.58 14.948 25.5661 14.9341 25.5383 14.9341H25.4919V15.0083ZM25.527 14.7961C25.4018 14.7961 25.2998 14.8982 25.2998 15.0234C25.3044 15.1486 25.4018 15.2506 25.527 15.2506C25.6522 15.2506 25.7542 15.1486 25.7542 15.0234C25.7542 14.8982 25.6522 14.7961 25.527 14.7961ZM25.527 15.2088C25.425 15.2088 25.3462 15.1254 25.3462 15.0234C25.3462 14.9213 25.4296 14.8379 25.527 14.8379C25.629 14.8379 25.7079 14.9213 25.7079 15.0234C25.7079 15.1254 25.6244 15.2088 25.527 15.2088ZM25.3037 17.5323C25.3037 17.203 25.5727 16.9341 25.9019 16.9341C26.2311 16.9341 26.5001 17.1984 26.5001 17.5323C26.5001 17.8615 26.2311 18.1304 25.9019 18.1304C25.5727 18.1304 25.3037 17.8615 25.3037 17.5323Z" fill="black"/>
</svg>
