<svg width="60" height="60" viewBox="0 0 60 60" fill="none" xmlns="http://www.w3.org/2000/svg">
<path fill-rule="evenodd" clip-rule="evenodd" d="M1.5 29.9999C1.5 45.7399 14.26 58.5001 30.0001 58.5001C45.7401 58.5001 58.5001 45.7399 58.5001 29.9999C58.5001 14.2596 45.7402 1.5 30.0001 1.5C14.26 1.5 1.5 14.2596 1.5 29.9999ZM0 29.9999C0 46.5683 13.4315 60.0001 30.0001 60.0001C46.5686 60.0001 60.0001 46.5683 60.0001 29.9999C60.0001 13.4312 46.5686 0 30.0001 0C13.4315 0 0 13.4312 0 29.9999ZM41.5522 23.4924C41.8325 23.7974 41.8125 24.2719 41.5075 24.5522L27.3647 37.5522L26.8571 38.0187L26.3496 37.5522L18.4924 30.3299C18.1875 30.0496 18.1675 29.5752 18.4478 29.2702C18.7281 28.9653 19.2026 28.9453 19.5076 29.2256L26.8571 35.9813L40.4924 23.4478C40.7974 23.1675 41.2719 23.1875 41.5522 23.4924Z" fill="black"/>
</svg>
