<svg width="32" height="32" viewBox="0 0 32 32" fill="none" xmlns="http://www.w3.org/2000/svg">
<path fill-rule="evenodd" clip-rule="evenodd" d="M28.0003 11.4663C28.0003 11.1996 27.8003 10.9329 27.467 10.9329H10.3337V14.5996H9.00033V10.9329H4.60033C4.26699 10.9329 4.00033 11.1996 4.00033 11.5329V24.3329C4.00033 24.6663 4.26699 24.9329 4.60033 24.9329H9.00033V21.2663H10.3337V24.9329H23.2003C25.867 24.9329 28.0003 22.7996 28.0003 20.1329V11.4663ZM4.60033 9.59961H27.467C28.5337 9.59961 29.4003 10.4663 29.3337 11.5329V20.1329C29.3337 23.5329 26.6003 26.2663 23.2003 26.2663H4.60033C3.53366 26.2663 2.66699 25.3996 2.66699 24.3329V11.5329C2.66699 10.4663 3.53366 9.59961 4.60033 9.59961ZM15.8003 22.7996L21.7337 13.5996H23.0003L17.0003 22.7996H15.8003ZM17.867 17.9329C18.2003 17.5329 18.3337 16.9329 18.3337 16.2663C18.3337 15.5996 18.2003 14.9996 17.867 14.5996C17.5337 14.1996 17.067 13.9996 16.4003 13.9996C15.7337 13.9996 15.267 14.1996 14.9337 14.5996C14.6003 14.9996 14.467 15.5996 14.467 16.2663C14.467 16.9329 14.6003 17.5329 14.9337 17.9329C15.267 18.3329 15.7337 18.5329 16.4003 18.5329C17.0003 18.5329 17.5337 18.3329 17.867 17.9329ZM16.3337 17.3996C16.0003 17.3996 15.8003 16.9996 15.8003 16.2663C15.8003 15.5329 16.0003 15.1329 16.3337 15.1329C16.667 15.1329 16.867 15.5329 16.867 16.2663C16.867 16.9996 16.667 17.3996 16.3337 17.3996ZM22.5337 17.7996C21.867 17.7996 21.4003 17.9996 21.067 18.3996C20.7337 18.7996 20.6003 19.3996 20.6003 20.0663C20.6003 20.7329 20.7337 21.3329 21.067 21.7329C21.4003 22.1329 21.867 22.3329 22.5337 22.3329C23.2003 22.3329 23.667 22.1329 24.0003 21.7329C24.3337 21.3329 24.467 20.7329 24.467 20.0663C24.467 19.3996 24.3337 18.7996 24.0003 18.3996C23.667 17.9996 23.1337 17.7996 22.5337 17.7996ZM22.5337 21.1996C22.2003 21.1996 22.0003 20.7996 22.0003 20.0663C22.0003 19.3329 22.2003 18.9329 22.5337 18.9329C22.867 18.9329 23.067 19.3329 23.067 20.0663C23.0003 20.8663 22.867 21.1996 22.5337 21.1996ZM9.00033 15.9329V19.9329H10.3337V15.9329H9.00033Z" fill="black"/>
<path d="M10.267 10.6001L12.3337 7.33346L11.2003 6.60013L9.13366 9.86679L10.267 10.6001ZM12.3337 7.26679C12.467 7.00013 12.667 6.80013 12.867 6.66679L12.1337 5.53346C11.667 5.80013 11.3337 6.20013 11.067 6.66679L12.3337 7.26679ZM12.9337 6.66679C13.2003 6.53346 13.467 6.46679 13.7337 6.40013L13.667 5.06679C13.1337 5.06679 12.667 5.20013 12.2003 5.53346L12.9337 6.66679ZM13.7337 6.40013C14.0003 6.40013 14.267 6.46679 14.5337 6.60013L15.2003 5.40013C14.7337 5.13346 14.267 5.00013 13.7337 5.06679V6.40013ZM14.5337 6.60013C14.8003 6.73346 15.0003 6.93346 15.1337 7.20013L16.267 6.53346C16.0003 6.06679 15.6003 5.73346 15.1337 5.46679L14.5337 6.60013ZM15.1337 7.20013C15.267 7.46679 15.3337 7.73346 15.3337 8.00013H16.667C16.667 7.46679 16.5337 7.00013 16.267 6.53346L15.1337 7.20013ZM15.3337 8.00013C15.3337 8.26679 15.267 8.53346 15.1337 8.80013L16.267 9.46679C16.5337 9.00013 16.667 8.53346 16.667 8.00013H15.3337ZM15.1337 8.80013C15.0003 9.06679 14.8003 9.26679 14.5337 9.40013L15.2003 10.5335C15.667 10.2668 16.0003 9.93346 16.267 9.46679L15.1337 8.80013ZM14.5337 9.33346C14.267 9.46679 14.0003 9.53346 13.7337 9.53346V10.8668C14.267 10.8668 14.7337 10.7335 15.2003 10.4668L14.5337 9.33346ZM13.7337 9.60013H9.66699V10.9335H13.7337V9.60013ZM7.13366 13.8668L10.1337 10.7335L9.13366 9.80013L6.13366 12.9335L7.13366 13.8668ZM13.1337 12.9335L10.1337 9.80013L9.13366 10.7335L12.1337 13.8668L13.1337 12.9335ZM10.267 9.86679L8.20033 6.60013L7.00033 7.33346L9.06699 10.6001L10.267 9.86679ZM8.20033 6.66679C7.93366 6.20013 7.60033 5.80013 7.13366 5.53346L6.40033 6.66679C6.66699 6.80013 6.86699 7.00013 6.93366 7.26679L8.20033 6.66679ZM7.13366 5.53346C6.66699 5.26679 6.20033 5.13346 5.66699 5.06679L5.60033 6.40013C5.86699 6.40013 6.13366 6.46679 6.40033 6.66679L7.13366 5.53346ZM5.66699 5.06679C5.13366 5.06679 4.66699 5.20013 4.20033 5.46679L4.86699 6.66679C5.06699 6.46679 5.33366 6.40013 5.66699 6.40013V5.06679ZM4.20033 5.46679C3.73366 5.66679 3.33366 6.06679 3.06699 6.46679L4.20033 7.13346C4.33366 6.86679 4.53366 6.66679 4.80033 6.53346L4.20033 5.46679ZM3.06699 6.46679C2.80033 6.93346 2.66699 7.46679 2.66699 7.93346H4.00033C4.00033 7.66679 4.06699 7.40013 4.20033 7.13346L3.06699 6.46679ZM2.66699 7.93346C2.66699 8.46679 2.80033 8.93346 3.06699 9.40013L4.20033 8.73346C4.06699 8.53346 4.00033 8.26679 4.00033 8.00013L2.66699 7.93346ZM3.06699 9.46679C3.33366 9.93346 3.66699 10.2668 4.13366 10.5335L4.80033 9.40013C4.53366 9.26679 4.33366 9.06679 4.20033 8.80013L3.06699 9.46679ZM4.13366 10.5335C4.60033 10.8001 5.06699 10.9335 5.60033 10.9335V9.60013C5.33366 9.60013 5.06699 9.53346 4.80033 9.40013L4.13366 10.5335ZM5.60033 10.9335H9.66699V9.60013H5.60033V10.9335Z" fill="black"/>
</svg>
