<svg width="48" height="48" viewBox="0 0 48 48" fill="none" xmlns="http://www.w3.org/2000/svg">
<path fill-rule="evenodd" clip-rule="evenodd" d="M4 14C4 9.72079 8.10312 6 13.5 6C18.8969 6 23 9.72079 23 14H25C25 9.72079 29.1031 6 34.5 6C39.8969 6 44 9.72079 44 14H46C46 8.33809 40.7011 4 34.5 4C29.9134 4 25.8204 6.37322 24 9.9C22.1796 6.37322 18.0866 4 13.5 4C7.2989 4 2 8.33809 2 14H4ZM23.9506 42.5256L43.6639 22.8124L45.0781 24.2266L24.6577 44.6469L23.9506 45.354L23.2435 44.6469L2.8232 24.2266L4.23742 22.8124L23.9506 42.5256Z" fill="#1D1D1B"/>
</svg>
