<?xml version="1.0" encoding="UTF-8"?>
<svg id="Layer_1" data-name="Layer 1" xmlns="http://www.w3.org/2000/svg" version="1.1" xmlns:xlink="http://www.w3.org/1999/xlink" viewBox="0 0 48 48">
  <defs>
    <style>
      .cls-1 {
        fill: #000;
      }

      .cls-1, .cls-2 {
        stroke-width: 0px;
      }

      .cls-3 {
        fill: none;
        stroke-linecap: round;
      }

      .cls-3, .cls-4 {
        stroke: #000;
        stroke-width: 1.5px;
      }

      .cls-2, .cls-4 {
        fill: #fff;
      }

      .cls-5 {
        mask: url(#mask-1);
      }

      .cls-6 {
        mask: url(#mask);
      }
    </style>
    <mask id="mask" x="11.5" y="15" width="25" height="12.7" maskUnits="userSpaceOnUse">
      <g id="path-4-inside-1_281_1392" data-name="path-4-inside-1 281 1392">
        <path class="cls-2" d="M13,18.5c0-1.1.9-2,2-2h18c1.1,0,2,.9,2,2v9.2H13v-9.2Z"/>
      </g>
    </mask>
    <mask id="mask-1" x="6.5" y="25.2" width="35" height="17.8" maskUnits="userSpaceOnUse">
      <g id="path-6-inside-2_281_1392" data-name="path-6-inside-2 281 1392">
        <path class="cls-2" d="M8,28.7c0-1.1.9-2,2-2h28c1.1,0,2,.9,2,2v14.3H8v-14.3Z"/>
      </g>
    </mask>
  </defs>
  <path class="cls-3" d="M24,10.4v6.1"/>
  <path class="cls-3" d="M4,43h40"/>
  <path class="cls-3" d="M9,38.9h30"/>
  <g class="cls-6">
    <path class="cls-1" d="M11.5,18.5c0-1.9,1.6-3.5,3.5-3.5h18c1.9,0,3.5,1.6,3.5,3.5h-3c0-.3-.2-.5-.5-.5H15c-.3,0-.5.2-.5.5h-3ZM35,27.7H13h22ZM11.5,27.7v-9.2c0-1.9,1.6-3.5,3.5-3.5v3c-.3,0-.5.2-.5.5v9.2h-3ZM33,15c1.9,0,3.5,1.6,3.5,3.5v9.2h-3v-9.2c0-.3-.2-.5-.5-.5v-3Z"/>
  </g>
  <g class="cls-5">
    <path class="cls-1" d="M6.5,28.7c0-1.9,1.6-3.5,3.5-3.5h28c1.9,0,3.5,1.6,3.5,3.5h-3c0-.3-.2-.5-.5-.5H10c-.3,0-.5.2-.5.5h-3ZM40,43H8h32ZM6.5,43v-14.3c0-1.9,1.6-3.5,3.5-3.5v3c-.3,0-.5.2-.5.5v14.3h-3ZM38,25.2c1.9,0,3.5,1.6,3.5,3.5v14.3h-3v-14.3c0-.3-.2-.5-.5-.5v-3Z"/>
  </g>
  <path class="cls-4" d="M25.9,8.7c0,.9-.3,1.5-.6,1.9-.3.4-.8.6-1.4.6s-1-.2-1.4-.6c-.3-.4-.6-1-.6-1.9s.3-1.9.7-2.6c.4-.8.9-1.1,1.3-1.1s.8.3,1.3,1.1c.4.8.7,1.7.7,2.6Z"/>
</svg>