<svg width="76" height="76" viewBox="0 0 76 76" fill="none" xmlns="http://www.w3.org/2000/svg">
<circle cx="38" cy="38" r="32" fill="#FFCD29"/>
<rect x="22" y="34.0007" width="3" height="9.6" rx="1.5" transform="rotate(-45 22 34.0007)" fill="#333333"/>
<rect x="34" y="22.8003" width="3" height="8" rx="1.5" fill="#F7AE18"/>
<rect x="39" y="19.6003" width="3" height="11.2" rx="1.5" fill="#F7AE18"/>
<rect x="51.6016" y="31.9998" width="3" height="9.6" rx="1.5" transform="rotate(45 51.6016 31.9998)" fill="#333333"/>
<path fill-rule="evenodd" clip-rule="evenodd" d="M37.9341 45.0713C37.5958 45.0076 37.2333 45.0616 36.911 45.2503L27.3674 50.8379C26.6525 51.2565 26.4052 52.1794 26.8151 52.8993C27.225 53.6193 28.1368 53.8636 28.8517 53.445L37.805 48.203L46.9355 53.5487C47.6504 53.9673 48.5623 53.723 48.9721 53.003C49.382 52.2831 49.1347 51.3602 48.4198 50.9416L38.7408 45.2747C38.4864 45.1258 38.207 45.0608 37.9341 45.0713Z" fill="#333333"/>
</svg>
