<svg width="60" height="60" viewBox="0 0 60 60" fill="none" xmlns="http://www.w3.org/2000/svg">
<g clip-path="url(#clip0_7309_264709)">
<path d="M18 18.2071V40.7165L38.4469 52.7728C39.3844 53.2603 40.5 52.5759 40.5 51.5259V7.40714C40.5 6.35714 39.3844 5.67277 38.4469 6.16027C38.4469 6.16027 22.8562 15.7228 18 18.2165V18.2071Z" stroke="black" stroke-width="1.5" stroke-linecap="round" stroke-linejoin="round"/>
<path d="M7.96875 18.75H17.8125V41.25H7.96875C7.19063 41.25 6.5625 40.6219 6.5625 39.8438V20.1562C6.5625 19.3781 7.19063 18.75 7.96875 18.75Z" stroke="black" stroke-width="1.5" stroke-linecap="round" stroke-linejoin="round"/>
<path d="M10.3125 41.25H15.9375V52.9688C15.9375 53.7469 15.3094 54.375 14.5312 54.375H11.7188C10.9406 54.375 10.3125 53.7469 10.3125 52.9688V41.25Z" stroke="black" stroke-width="1.5" stroke-linecap="round" stroke-linejoin="round"/>
<path d="M46.5781 21.2656C51.3969 26.0844 51.3969 33.9031 46.5781 38.7219" stroke="black" stroke-width="1.5" stroke-linecap="round" stroke-linejoin="round"/>
<path d="M48.7578 12.5156C58.4141 22.1719 58.4141 37.8188 48.7578 47.4656" stroke="black" stroke-width="1.5" stroke-linecap="round" stroke-linejoin="round"/>
</g>
<defs>
<clipPath id="clip0_7309_264709">
<rect width="60" height="60" fill="white"/>
</clipPath>
</defs>
</svg>
