<svg width="54" height="50" viewBox="0 0 54 50" fill="none" xmlns="http://www.w3.org/2000/svg">
<path fill-rule="evenodd" clip-rule="evenodd" d="M1.19922 0.849854C0.785005 0.849854 0.449219 1.18564 0.449219 1.59985C0.449219 2.01407 0.785005 2.34985 1.19922 2.34985H7.88364L18.0981 29.7754C19.0467 32.3235 21.4765 34.0141 24.1964 34.0141H47.2871C47.7013 34.0141 48.0371 33.6784 48.0371 33.2641C48.0371 32.8499 47.7013 32.5141 47.2871 32.5141H24.1964C22.1039 32.5141 20.2341 31.2137 19.5038 29.2521L19.5038 29.252L17.9853 25.175C18.1184 25.2953 18.2948 25.3686 18.4883 25.3686H41.4235C45.4223 25.3686 48.9516 22.8027 49.9384 19.081L49.9385 19.0808L53.7715 4.63992C53.8313 4.41486 53.7831 4.17481 53.6411 3.99024C53.4991 3.80567 53.2795 3.69751 53.0466 3.69751H25.6289C25.2147 3.69751 24.8789 4.0333 24.8789 4.44751C24.8789 4.86172 25.2147 5.19751 25.6289 5.19751H52.0716L48.4886 18.6962L48.4886 18.6964C47.6899 21.7087 44.7971 23.8686 41.4235 23.8686H18.4883C18.1052 23.8686 17.7892 24.1558 17.7439 24.5266L9.10748 1.33809C8.99814 1.04454 8.71789 0.849854 8.40464 0.849854H1.19922ZM17.0751 44.7912C17.0751 43.2157 18.3514 41.9393 19.9249 41.9393C21.4984 41.9393 22.7747 43.2157 22.7747 44.7912C22.7747 46.3668 21.4984 47.6432 19.9249 47.6432C18.3514 47.6432 17.0751 46.3668 17.0751 44.7912ZM19.9249 40.4393C17.5222 40.4393 15.5751 42.3881 15.5751 44.7912C15.5751 47.1944 17.5222 49.1432 19.9249 49.1432C22.3277 49.1432 24.2747 47.1944 24.2747 44.7912C24.2747 42.3881 22.3277 40.4393 19.9249 40.4393ZM45.8468 41.9393C44.2733 41.9393 42.997 43.2157 42.997 44.7912C42.997 46.3668 44.2733 47.6432 45.8468 47.6432C47.4203 47.6432 48.6966 46.3668 48.6966 44.7912C48.6966 43.2157 47.4203 41.9393 45.8468 41.9393ZM41.497 44.7912C41.497 42.3881 43.444 40.4393 45.8468 40.4393C48.2496 40.4393 50.1966 42.3881 50.1966 44.7912C50.1966 47.1944 48.2496 49.1432 45.8468 49.1432C43.444 49.1432 41.497 47.1944 41.497 44.7912Z" fill="black"/>
</svg>
