<svg width="76" height="76" viewBox="0 0 76 76" fill="none" xmlns="http://www.w3.org/2000/svg">
<circle cx="38" cy="38" r="32" fill="#CACACA"/>
<path d="M38 55.8465C47.806 55.8465 55.895 49.6263 57.0568 41.5945C57.2149 40.5013 56.3045 39.6004 55.2 39.6004H20.8C19.6954 39.6004 18.785 40.5013 18.9431 41.5945C20.1049 49.6263 28.1939 55.8465 38 55.8465Z" fill="url(#paint0_linear_1_140)"/>
<path d="M30.4 30.8004C30.0666 28.8804 28.4 27.6004 26.4 27.6004C24.4 27.6004 22.7333 28.8804 22.4 30.8004" stroke="#333333" stroke-width="2.4" stroke-linecap="round"/>
<path d="M53.5999 30.8004C53.2666 28.8804 51.5999 27.6004 49.5999 27.6004C47.5999 27.6004 45.9333 28.8804 45.5999 30.8004" stroke="#333333" stroke-width="2.4" stroke-linecap="round"/>
<defs>
<linearGradient id="paint0_linear_1_140" x1="38" y1="39.6004" x2="38" y2="55.8465" gradientUnits="userSpaceOnUse">
<stop stop-color="#848484"/>
<stop offset="1" stop-color="#717171"/>
</linearGradient>
</defs>
</svg>
