<svg width="24" height="20" viewBox="0 0 24 20" fill="none" xmlns="http://www.w3.org/2000/svg">
<g id="UPI">
<g id="Group 6340450">
<path id="Union" fill-rule="evenodd" clip-rule="evenodd" d="M6.6 0H6V0.6V19.4005V20.0005H6.6H11.9569H11.9652H11.9735H11.9819H11.9904H11.9989H12.0074H12.0161H12.0248H12.0335H12.0423H12.0512H12.0601H12.0691H12.0781H12.0872H12.0963H12.1055H12.1148H12.1241H12.1334H12.1429H12.1523H12.1618H12.1714H12.1811H12.1907H12.2005H12.2103H12.2201H12.23H12.2399H12.2499H12.26H12.2701H12.2802H12.2904H12.3007H12.3109H12.3213H12.3317H12.3421H12.3526H12.3631H12.3737H12.3844H12.395H12.4057H12.4165H12.4273H12.4382H12.4491H12.46H12.471H12.4821H12.4932H12.5043H12.5155H12.5267H12.5379H12.5492H12.5606H12.572H12.5834H12.5949H12.6064H12.6179H12.6295H12.6411H12.6528H12.6645H12.6763H12.6881H12.6999H12.7118H12.7237H12.7356H12.7476H12.7596H12.7716H12.7837H12.7959H12.808H12.8202H12.8325H12.8447H12.857H12.8694H12.8817H12.8941H12.9066H12.9191H12.9316H12.9441H12.9567H12.9693H12.9819H12.9946H13.0073H13.02H13.0328H13.0456H13.0584H13.0712H13.0841H13.097H13.11H13.1229H13.1359H13.149H13.162H13.1751H13.1882H13.2013H13.2145H13.2277H13.2409H13.2541H13.2674H13.2807H13.294H13.3073H13.3207H13.3341H13.3475H13.3609H13.3744H13.3878H13.4013H13.4149H13.4284H13.442H13.4556H13.4692H13.4828H13.4964H13.5101H13.5238H13.5375H13.5512H13.565H13.5787H13.5925H13.6063H13.6201H13.634H13.6478H13.6617H13.6756H13.6895H13.7034H13.7173H13.7313H13.7452H13.7592H13.7732H13.7872H13.8012H13.8153H13.8293H13.8434H13.8574H13.8715H13.8856H13.8997H13.9138H13.928H13.9421H13.9563H13.9704H13.9846H13.9988H14.013H14.0272H14.0414H14.0556H14.0698H14.084H14.0983H14.1125H14.1268H14.141H14.1553H14.1696H14.1838H14.1981H14.2124H14.2267H14.241H14.2553H14.2696H14.2839H14.2982H14.3125H14.3268H14.3412H14.3555H14.3698H14.3841H14.3984H14.4128H14.4271H14.4414H14.4558H14.4701H14.4844H14.4987H14.5131H14.5274H14.5417H14.556H14.5703H14.5846H14.599H14.6133H14.6276H14.6419H14.6562H14.6705H14.6847H14.699H14.7133H14.7276H14.7418H14.7561H14.7703H14.7846H14.7988H14.8131H14.8273H14.8415H14.8557H14.8699H14.8841H14.8983H14.9124H14.9266H14.9407H14.9549H14.969H14.9831H14.9972H15.0113H15.0254H15.0395H15.0535H15.0676H15.0816H15.0956H15.1096H15.1236H15.1376H15.1516H15.1655H15.1794H15.1934H15.2073H15.2211H15.235H15.2489H15.2627H15.2765H15.2903H15.3041H15.3179H15.3316H15.3453H15.359H15.3727H15.3864H15.4H15.4137H15.4273H15.4409H15.4544H15.468H15.4815H15.495H15.5085H15.5219H15.5354H15.5488H15.5622H15.5755H15.5888H15.6022H15.6154H15.6287H15.6419H15.6552H15.6683H15.6815H15.6946H15.7077H15.7208H15.7339H15.7469H15.7599H15.7729H15.7858H15.7987H15.8116H15.8244H15.8373H15.8501H15.8628H15.8755H15.8882H15.9009H15.9135H15.9261H15.9387H15.9513H15.9638H15.9762H15.9887H16.0011H16.0135H16.0258H16.0381H16.0504H16.0626H16.0748H16.087H16.0991H16.1112H16.1232H16.1353H16.1472H16.1592H16.1711H16.1829H16.1948H16.2066H16.2183H16.23H16.2417H16.2533H16.2649H16.2765H16.288H16.2994H16.3109H16.3222H16.3336H16.3449H16.3561H16.3673H16.3785H16.3896H16.4007H16.4118H16.4228H16.4337H16.4446H16.4555H16.4663H16.4771H16.4878H16.4985H16.5091H16.5197H16.5302H16.5407H16.5511H16.5615H16.5719H16.5822H16.5924H16.6026H16.6127H16.6228H16.6329H16.6429H16.6528H16.6627H16.6725H16.6823H16.6921H16.7017H16.7114H16.721H16.7305H16.7399H16.7494H16.7587H16.768H16.7773H16.7865H16.7956H16.8047H16.8137H16.8227H16.8316H16.8405H16.8493H16.858H16.8667H16.8753H16.8839H16.8924H16.9009H16.9093H16.9176H16.9259H16.9341H16.9422H16.9503H16.9584H16.9663H16.9742H16.9821H16.9899H16.9976H17.0053H17.0129H17.0204H17.0279H17.0353H17.0426H17.0499H17.0571H17.0642H17.0713H17.0783H17.0853H17.0921H17.099H17.1057H17.1124H17.119H17.1255H17.132H17.1384H17.1447H17.151H17.1572H17.1633H17.1694H17.1754H17.1813H17.1872H17.1929H17.1986H17.2043H17.2098H17.2153H17.2207H17.2261H17.2313H17.2365H17.2417H17.2467H17.2517H17.2566H17.2614H17.2661H17.2708H17.2754H17.2799H17.2844H17.2887H17.293H17.2972H17.3014H17.3054H17.3094H17.3133H17.3171H17.3208H17.3245H17.3281H17.3316H17.335H17.3383H17.3416H17.3448H17.3479H17.3509H17.3538H17.3566H17.3594H17.3621H17.3647H17.3672H17.3696H17.372H17.3742H17.3764H17.3785H17.3805H17.3824H17.3843H17.386H17.3877H17.3892H17.3907H17.3921H17.3934H17.3946H17.3958H17.3968H17.3978H17.3986H17.3994H17.4001H17.4007H17.4012H17.4016H17.4019H17.4022H17.4023L17.4023 19.4005V20.0005H18.0023V19.4005V0.6V0H17.4023H6.6ZM16.8023 1.2V18.8005H16.7956H16.7865H16.7773H16.768H16.7587H16.7494H16.7399H16.7305H16.721H16.7114H16.7017H16.6921H16.6823H16.6725H16.6627H16.6528H16.6429H16.6329H16.6228H16.6127H16.6026H16.5924H16.5822H16.5719H16.5615H16.5511H16.5407H16.5302H16.5197H16.5091H16.4985H16.4878H16.4771H16.4663H16.4555H16.4446H16.4337H16.4228H16.4118H16.4007H16.3896H16.3785H16.3673H16.3561H16.3449H16.3336H16.3222H16.3109H16.2994H16.288H16.2765H16.2649H16.2533H16.2417H16.23H16.2183H16.2066H16.1948H16.1829H16.1711H16.1592H16.1472H16.1353H16.1232H16.1112H16.0991H16.087H16.0748H16.0626H16.0504H16.0381H16.0258H16.0135H16.0011H15.9887H15.9762H15.9638H15.9513H15.9387H15.9261H15.9135H15.9009H15.8882H15.8755H15.8628H15.8501H15.8373H15.8244H15.8116H15.7987H15.7858H15.7729H15.7599H15.7469H15.7339H15.7208H15.7077H15.6946H15.6815H15.6683H15.6552H15.6419H15.6287H15.6154H15.6022H15.5888H15.5755H15.5622H15.5488H15.5354H15.5219H15.5085H15.495H15.4815H15.468H15.4544H15.4409H15.4273H15.4137H15.4H15.3864H15.3727H15.359H15.3453H15.3316H15.3179H15.3041H15.2903H15.2765H15.2627H15.2489H15.235H15.2211H15.2073H15.1934H15.1794H15.1655H15.1516H15.1376H15.1236H15.1096H15.0956H15.0816H15.0676H15.0535H15.0395H15.0254H15.0113H14.9972H14.9831H14.969H14.9549H14.9407H14.9266H14.9124H14.8983H14.8841H14.8699H14.8557H14.8415H14.8273H14.8131H14.7988H14.7846H14.7703H14.7561H14.7418H14.7276H14.7133H14.699H14.6847H14.6705H14.6562H14.6419H14.6276H14.6133H14.599H14.5846H14.5703H14.556H14.5417H14.5274H14.5131H14.4987H14.4844H14.4701H14.4558H14.4414H14.4271H14.4128H14.3984H14.3841H14.3698H14.3555H14.3412H14.3268H14.3125H14.2982H14.2839H14.2696H14.2553H14.241H14.2267H14.2124H14.1981H14.1838H14.1696H14.1553H14.141H14.1268H14.1125H14.0983H14.084H14.0698H14.0556H14.0414H14.0272H14.013H13.9988H13.9846H13.9704H13.9563H13.9421H13.928H13.9138H13.8997H13.8856H13.8715H13.8574H13.8434H13.8293H13.8153H13.8012H13.7872H13.7732H13.7592H13.7452H13.7313H13.7173H13.7034H13.6895H13.6756H13.6617H13.6478H13.634H13.6201H13.6063H13.5925H13.5787H13.565H13.5512H13.5375H13.5238H13.5101H13.4964H13.4828H13.4692H13.4556H13.442H13.4284H13.4149H13.4013H13.3878H13.3744H13.3609H13.3475H13.3341H13.3207H13.3073H13.294H13.2807H13.2674H13.2541H13.2409H13.2277H13.2145H13.2013H13.1882H13.1751H13.162H13.149H13.1359H13.1229H13.11H13.097H13.0841H13.0712H13.0584H13.0456H13.0328H13.02H13.0073H12.9946H12.9819H12.9693H12.9567H12.9441H12.9316H12.9191H12.9066H12.8941H12.8817H12.8694H12.857H12.8447H12.8325H12.8202H12.808H12.7959H12.7837H12.7716H12.7596H12.7476H12.7356H12.7237H12.7118H12.6999H12.6881H12.6763H12.6645H12.6528H12.6411H12.6295H12.6179H12.6064H12.5949H12.5834H12.572H12.5606H12.5492H12.5379H12.5267H12.5155H12.5043H12.4932H12.4821H12.471H12.46H12.4491H12.4382H12.4273H12.4165H12.4057H12.395H12.3844H12.3737H12.3631H12.3526H12.3421H12.3317H12.3213H12.3109H12.3007H12.2904H12.2802H12.2701H12.26H12.2499H12.2399H12.23H12.2201H12.2103H12.2005H12.1907H12.1811H12.1714H12.1618H12.1523H12.1429H12.1334H12.1241H12.1148H12.1055H12.0963H12.0872H12.0781H12.0691H12.0601H12.0512H12.0423H12.0335H12.0248H12.0161H12.0074H11.9989H11.9904H11.9819H11.9735H11.9652H11.9569H7.2V1.2H16.8023ZM10.8633 3.40299L10.2633 3.40299V4.60299H10.8633L13.0422 4.60299H13.6422V3.40299L13.0422 3.40299L10.8633 3.40299Z" fill="black"/>
</g>
</g>
</svg>
