<svg version="1.1" id="Layer_1" xmlns="http://www.w3.org/2000/svg" xmlns:xlink="http://www.w3.org/1999/xlink" x="0px" y="0px"
	 viewBox="0 0 16 20" style="enable-background:new 0 0 16 20;" xml:space="preserve">
<style type="text/css">
	.st0{fill:#F2F2F2;}
	.st1{fill:none;stroke:#FF7915;stroke-linecap:round;stroke-linejoin:round;stroke-miterlimit:10;}
	.st2{fill:#FF7915;}
	.st3{display:none;}
	.st4{display:inline;fill:#FFFFFF;}
	.st5{fill:#C0C0C0;}
	.st6{fill-rule:evenodd;clip-rule:evenodd;fill:#FF7915;}
	.st7{fill:#FFFFFF;}
</style>
<polygon class="st0" points="10.7,0 0,0 0,20 16,20 16,5.2 "/>
<g>
	<polygon class="st1" points="2.5,11.9 2.5,11.9 12.7,11.9 13.5,11.9 9.8,6.1 6.9,10.3 5.1,8.6 	"/>
</g>
<polygon class="st2" points="16,20 0,20 0,14.2 16,14.2 "/>
<g class="st3">
	<path class="st4" d="M3.7,19.5c-0.2,0-0.4,0-0.6,0v-0.6c0.1,0,0.1,0,0.2,0c0.1,0,0.1,0,0.2,0c0.2,0,0.3,0,0.4-0.1
		C4,18.7,4,18.5,4,18.3v-2.8h1.1v2.7c0,0.4-0.1,0.7-0.4,0.9C4.5,19.4,4.1,19.5,3.7,19.5z"/>
	<path class="st4" d="M8.8,16.8c0,0.4-0.1,0.8-0.4,1c-0.3,0.2-0.6,0.4-1.1,0.4H7v1.3H5.9v-3.9h1.4c0.5,0,0.9,0.1,1.1,0.3
		C8.7,16.1,8.8,16.4,8.8,16.8z M7,17.3h0.2c0.2,0,0.3,0,0.4-0.1c0.1-0.1,0.1-0.2,0.1-0.4c0-0.3-0.1-0.4-0.4-0.4H7L7,17.3L7,17.3z"/>
	<path class="st4" d="M11.1,17.2h1.7v2.1c-0.5,0.2-1,0.2-1.5,0.2c-0.6,0-1.1-0.2-1.4-0.5c-0.3-0.3-0.5-0.8-0.5-1.5
		c0-0.6,0.2-1.1,0.6-1.5c0.4-0.4,0.9-0.5,1.5-0.5c0.3,0,0.5,0,0.7,0.1c0.2,0,0.4,0.1,0.6,0.2l-0.3,0.8c-0.3-0.1-0.6-0.2-0.9-0.2
		c-0.3,0-0.6,0.1-0.7,0.3c-0.2,0.2-0.3,0.5-0.3,0.9c0,0.4,0.1,0.6,0.2,0.8c0.2,0.2,0.4,0.3,0.7,0.3c0.2,0,0.3,0,0.4,0V18h-0.7
		L11.1,17.2L11.1,17.2z"/>
</g>
<polygon class="st5" points="10.7,5.2 16,5.2 10.7,0 "/>
<path class="st6" d="M4.8,2.1c-1.3,0-2.3,1-2.3,2.3c0,1.3,1,2.3,2.3,2.3s2.3-1,2.3-2.3C7.1,3.2,6.1,2.1,4.8,2.1z M4.8,5.7
	c-0.7,0-1.2-0.5-1.2-1.2s0.6-1.2,1.2-1.2C5.5,3.2,6,3.8,6,4.4S5.5,5.7,4.8,5.7z"/>
<g>
	<path class="st7" d="M3.3,18.2c0,0.2,0,0.2-0.2,0.2H2v1h1.2c0.9,0,1.3-0.5,1.3-1.3v-3.3H3.3V18.2z"/>
	<path class="st7" d="M7.2,14.8H5.6v4.6h1.2v-1.5h0.5c0.9,0,1.8-0.5,1.8-1.5C9,15.4,8.3,14.8,7.2,14.8z M7.5,16.8H6.7v-0.9h0.8
		c0.2,0,0.4,0.1,0.4,0.5C7.9,16.7,7.8,16.8,7.5,16.8z"/>
	<path class="st7" d="M14.2,16.3c-0.2-1-1-1.6-2.1-1.6c-1.3,0-2.3,1-2.3,2.4c0,1.4,0.9,2.4,2.3,2.4c1.2,0,1.8-0.7,2-1.2
		c0.1-0.2,0.1-0.3,0.1-0.5v-1.1h-2.3v1h1.2v0.1c0,0.1,0,0.1,0,0.2c-0.1,0.1-0.3,0.4-1,0.4c-0.7,0-1.1-0.2-1.1-1.3
		c0-1.1,0.5-1.3,1.1-1.3c0.6,0,0.8,0.1,1,0.5"/>
</g>
</svg>