<svg width="169" height="16" viewBox="0 0 169 16" fill="none" xmlns="http://www.w3.org/2000/svg">
<g clip-path="url(#clip0_801_403701)">
<path d="M0.923218 3.64901V12.351C0.923218 13.814 2.10922 15 3.57222 15H20.5709C22.0339 15 23.2199 13.814 23.2199 12.351V3.64901C23.2199 2.186 22.0339 0.999999 20.5709 0.999999H3.57222C2.10922 0.999999 0.923218 2.186 0.923218 3.64901Z" fill="#016FD0"/>
<path fill-rule="evenodd" clip-rule="evenodd" d="M3.81171 7.45086L4.8623 5.00211H5.87316L6.20482 5.76556V5.00211H7.46151L7.65912 5.55364L7.85037 5.00211H13.4933V5.27973C13.714 5.09809 13.9916 4.99982 14.2774 5.00211L16.1079 5.00847L16.4342 5.76185V5.00211H17.4859L17.7757 5.43496V5.00211H18.8353V7.45086H17.7757L17.4981 7.01642V7.45086H15.9526L15.7974 7.06516H15.382L15.2295 7.45086H14.182C13.9268 7.44822 13.6815 7.35143 13.4933 7.17907V7.45086H11.9134L11.5998 7.06516V7.45086H5.72428L5.56905 7.06516H5.15475L5.00057 7.45086H3.81224H3.81171Z" fill="white"/>
<path fill-rule="evenodd" clip-rule="evenodd" d="M5.06944 5.30411L4.28058 7.13775H4.79395L4.93965 6.7706H5.78733L5.93196 7.13775H6.45647L5.66866 5.30411H5.06944ZM5.36136 5.7306L5.61884 6.37219H5.10282L5.36136 5.7306Z" fill="#016FD0"/>
<path fill-rule="evenodd" clip-rule="evenodd" d="M6.50946 7.13722V5.30357L7.239 5.30622L7.66284 6.48821L8.07715 5.30357H8.80086V7.13722H8.34258V5.78516L7.85674 7.13616H7.45462L6.96722 5.78516V7.13616L6.50946 7.13722Z" fill="#016FD0"/>
<path fill-rule="evenodd" clip-rule="evenodd" d="M9.1145 7.13722V5.30357H10.6091V5.71364H9.57649V6.02728H10.5831V6.41351H9.57649V6.73881H10.6091V7.13669L9.1145 7.13722Z" fill="#016FD0"/>
<path fill-rule="evenodd" clip-rule="evenodd" d="M10.8755 5.30411V7.13775H11.3338V6.48609H11.5261L12.0755 7.13775H12.6387L12.0358 6.46225C12.1749 6.44846 12.3038 6.38293 12.3969 6.27863C12.49 6.17433 12.5406 6.03887 12.5386 5.89907C12.5392 5.81686 12.5226 5.73543 12.49 5.65996C12.4574 5.58448 12.4095 5.51661 12.3492 5.46066C12.289 5.40471 12.2178 5.3619 12.1401 5.33495C12.0624 5.30799 11.98 5.29749 11.8981 5.30411H10.8755ZM11.3338 5.71417H11.8578C11.9118 5.71261 11.9643 5.73169 12.0046 5.76753C12.045 5.80337 12.0702 5.85326 12.075 5.90702C12.0715 5.96037 12.0475 6.01029 12.008 6.04633C11.9685 6.08237 11.9165 6.10175 11.8631 6.1004H11.3333V5.71417H11.3338Z" fill="#016FD0"/>
<path fill-rule="evenodd" clip-rule="evenodd" d="M13.1913 7.13722H12.724V5.30357H13.1918L13.1913 7.13722Z" fill="#016FD0"/>
<path fill-rule="evenodd" clip-rule="evenodd" d="M14.3012 7.13721H14.2C14.0867 7.13498 13.9752 7.10895 13.8726 7.0608C13.77 7.01265 13.6787 6.94345 13.6046 6.85771C13.5305 6.77198 13.4753 6.67161 13.4425 6.56313C13.4097 6.45466 13.4001 6.3405 13.4143 6.22807C13.4013 6.10466 13.4158 5.97989 13.4567 5.86275C13.4977 5.7456 13.5641 5.63899 13.6512 5.55058C13.7383 5.46217 13.8439 5.39417 13.9604 5.35146C14.0769 5.30875 14.2015 5.29239 14.3251 5.30357H14.8321V5.73801H14.3071C14.2455 5.7394 14.1849 5.75367 14.1292 5.77991C14.0735 5.80614 14.0239 5.84376 13.9836 5.89033C13.9434 5.93689 13.9133 5.99138 13.8953 6.05029C13.8774 6.10919 13.872 6.17119 13.8795 6.23231C13.8706 6.29981 13.8772 6.36845 13.8988 6.43301C13.9204 6.49758 13.9564 6.55639 14.0041 6.60499C14.0518 6.65359 14.1099 6.6907 14.174 6.71352C14.2382 6.73633 14.3067 6.74425 14.3743 6.73668H14.4951L14.3023 7.13721H14.3012Z" fill="#016FD0"/>
<path fill-rule="evenodd" clip-rule="evenodd" d="M15.2989 5.30411L14.51 7.13775H15.0234L15.1691 6.7706H16.0168L16.1614 7.13775H16.6859L15.8981 5.30411H15.2989ZM15.5908 5.7306L15.8483 6.37219H15.3317L15.5908 5.7306Z" fill="#016FD0"/>
<path fill-rule="evenodd" clip-rule="evenodd" d="M16.7378 7.13722V5.30357H17.3206L18.0623 6.45536V5.30357H18.5206V7.13722H17.9569L17.1939 5.95523V7.13722H16.7378Z" fill="#016FD0"/>
<path fill-rule="evenodd" clip-rule="evenodd" d="M19.985 9.23734L20.4194 8.21059H10.4634L10.1762 8.5735L9.89809 8.21059H7.30524V10.6593H9.88166L10.1635 10.2885L10.4417 10.6593H11.9977V10.0924H12.3474C12.5009 10.1019 12.6541 10.0703 12.7913 10.0008V10.6593H13.8186V10.2752L14.1322 10.6614H19.3434C19.4587 10.6665 19.5739 10.6472 19.6812 10.6045C19.7885 10.5619 19.8856 10.4971 19.966 10.4142C20.0464 10.3314 20.1084 10.2325 20.1478 10.1239C20.1873 10.0154 20.2033 9.89978 20.1948 9.78463C20.1997 9.68384 20.1836 9.58314 20.1474 9.48892C20.1113 9.3947 20.056 9.30902 19.985 9.23734Z" fill="white"/>
<path fill-rule="evenodd" clip-rule="evenodd" d="M7.61884 10.3457V8.51205H9.11446V8.92212H8.08189V9.23576H9.08851V9.62199H8.08189V9.94782H9.11446V10.3457H7.61884Z" fill="#016FD0"/>
<path fill-rule="evenodd" clip-rule="evenodd" d="M14.9476 10.3457V8.51205H16.4427V8.92212H15.4101V9.23576H16.4135V9.62199H15.4101V9.94782H16.4427V10.3457H14.9476Z" fill="#016FD0"/>
<path fill-rule="evenodd" clip-rule="evenodd" d="M9.17278 10.3457L9.90126 9.44027L9.15582 8.51205H9.7333L10.1773 9.08583L10.6228 8.51205H11.1775L10.4417 9.42861L11.1712 10.3452H10.5937L10.1624 9.7804L9.74179 10.3452L9.17278 10.3457Z" fill="#016FD0"/>
<path fill-rule="evenodd" clip-rule="evenodd" d="M11.2252 8.51258V10.3457H11.6957V9.76715H12.1783C12.2685 9.77889 12.36 9.77118 12.4469 9.74453C12.5338 9.71788 12.6139 9.67291 12.682 9.61266C12.75 9.55241 12.8043 9.47828 12.8413 9.39526C12.8782 9.31224 12.897 9.22226 12.8962 9.13139C12.8984 9.04623 12.8826 8.96156 12.8498 8.88296C12.8169 8.80436 12.7678 8.7336 12.7056 8.67535C12.6435 8.61709 12.5697 8.57266 12.4891 8.54497C12.4085 8.51728 12.323 8.50697 12.2382 8.5147L11.2252 8.51258ZM11.6957 8.92688H12.2038C12.2329 8.92409 12.2624 8.92754 12.2901 8.937C12.3179 8.94646 12.3433 8.96173 12.3647 8.98177C12.3861 9.00182 12.403 9.02619 12.4142 9.05326C12.4255 9.08034 12.4309 9.1095 12.43 9.1388C12.4301 9.16802 12.4241 9.19694 12.4125 9.22375C12.4008 9.25055 12.3838 9.27466 12.3624 9.29457C12.341 9.31447 12.3157 9.32973 12.2882 9.33939C12.2606 9.34906 12.2313 9.35292 12.2022 9.35072H11.6957V8.92688Z" fill="#016FD0"/>
<path fill-rule="evenodd" clip-rule="evenodd" d="M13.0949 8.51205V10.3457H13.5532V9.69562H13.746L14.2954 10.3467H14.856L14.2525 9.67125C14.3916 9.65734 14.5204 9.59177 14.6135 9.4875C14.7066 9.38323 14.7572 9.24784 14.7553 9.10807C14.7558 9.02583 14.7392 8.94439 14.7065 8.86892C14.6739 8.79344 14.6259 8.72558 14.5656 8.66964C14.5053 8.61369 14.4341 8.57089 14.3564 8.54394C14.2787 8.517 14.1962 8.50649 14.1143 8.5131L13.0949 8.51205ZM13.5532 8.92211H14.0772C14.1312 8.92055 14.1838 8.93971 14.2242 8.97566C14.2646 9.01161 14.2897 9.06163 14.2944 9.11549C14.2907 9.16875 14.2666 9.21853 14.2271 9.25446C14.1877 9.29039 14.1358 9.30969 14.0825 9.30834H13.5527L13.5532 8.92211Z" fill="#016FD0"/>
<path fill-rule="evenodd" clip-rule="evenodd" d="M16.6557 10.3457V9.9478H17.5728C17.7084 9.9478 17.7677 9.87469 17.7677 9.79416C17.7677 9.71363 17.7089 9.63893 17.5728 9.63893H17.1579C17.0835 9.64627 17.0083 9.63721 16.9378 9.61239C16.8672 9.58758 16.8029 9.54761 16.7494 9.4953C16.696 9.44299 16.6546 9.3796 16.6283 9.30959C16.6019 9.23958 16.5912 9.16465 16.5969 9.09006C16.5969 8.79602 16.7802 8.51257 17.3158 8.51257H18.2085L18.0152 8.92529H17.2432C17.0954 8.92529 17.0499 9.00264 17.0499 9.07681C17.0498 9.09856 17.0542 9.12008 17.0629 9.14005C17.0715 9.16002 17.0841 9.17801 17.0999 9.19291C17.1158 9.20781 17.1345 9.2193 17.1549 9.22667C17.1754 9.23404 17.1972 9.23713 17.2189 9.23575H17.6533C17.7272 9.22477 17.8026 9.23038 17.8741 9.2522C17.9455 9.27401 18.0112 9.31147 18.0664 9.36186C18.1215 9.41224 18.1647 9.47429 18.1929 9.54348C18.2211 9.61266 18.2335 9.68726 18.2292 9.76184C18.2343 9.84099 18.2223 9.92031 18.1939 9.99436C18.1654 10.0684 18.1213 10.1354 18.0645 10.1908C18.0077 10.2462 17.9396 10.2886 17.8649 10.3151C17.7902 10.3417 17.7106 10.3518 17.6316 10.3446L16.6557 10.3457Z" fill="#016FD0"/>
<path fill-rule="evenodd" clip-rule="evenodd" d="M18.3378 10.3457V9.9478H19.2172C19.3529 9.9478 19.4122 9.87469 19.4122 9.79416C19.4122 9.71363 19.3534 9.63893 19.2172 9.63893H18.8416C18.7672 9.64617 18.6921 9.63705 18.6215 9.6122C18.551 9.58735 18.4868 9.54738 18.4333 9.49509C18.3799 9.4428 18.3385 9.37945 18.3121 9.30948C18.2857 9.23952 18.275 9.16462 18.2806 9.09006C18.2806 8.79602 18.4644 8.51257 19 8.51257H19.8753L19.6824 8.92529H18.928C18.7807 8.92529 18.7351 9.00264 18.7351 9.07681C18.7351 9.09856 18.7395 9.12008 18.7481 9.14005C18.7567 9.16002 18.7693 9.17801 18.7852 9.19291C18.801 9.20781 18.8198 9.2193 18.8402 9.22667C18.8607 9.23404 18.8824 9.23713 18.9041 9.23575H19.2994C19.3733 9.22477 19.4487 9.23038 19.5201 9.2522C19.5916 9.27401 19.6572 9.31147 19.7124 9.36186C19.7676 9.41224 19.8108 9.47429 19.839 9.54348C19.8671 9.61266 19.8795 9.68726 19.8753 9.76184C19.8804 9.84099 19.8683 9.92031 19.8399 9.99436C19.8115 10.0684 19.7674 10.1354 19.7106 10.1908C19.6538 10.2462 19.5857 10.2886 19.511 10.3151C19.4362 10.3417 19.3566 10.3518 19.2776 10.3446L18.3378 10.3457Z" fill="#016FD0"/>
</g>
<g clip-path="url(#clip1_801_403701)">
<path d="M25.2199 3.64901V12.351C25.2199 13.814 26.4059 15 27.8689 15H44.8676C46.3306 15 47.5166 13.814 47.5166 12.351V3.64901C47.5166 2.186 46.3306 0.999999 44.8676 0.999999H27.8689C26.4059 0.999999 25.2199 2.186 25.2199 3.64901Z" fill="#00589F"/>
<path d="M34.376 10.0082L35.0589 6.00185H36.1529L35.4695 10.0082H34.376Z" fill="white"/>
<path d="M39.4281 6.10092C39.1145 5.98733 38.7832 5.93029 38.4496 5.93245C37.3709 5.93245 36.6107 6.47602 36.6043 7.25695C36.5985 7.83284 37.1468 8.1539 37.5611 8.34516C37.985 8.54172 38.1291 8.66675 38.127 8.84211C38.127 9.11072 37.7873 9.23311 37.4737 9.23311C37.1193 9.24301 36.7675 9.17046 36.4459 9.02119L36.305 8.95761L36.1519 9.85457C36.542 9.99787 36.9548 10.0697 37.3704 10.0665C38.5179 10.0665 39.2634 9.52927 39.2719 8.69801C39.2761 8.24238 38.9852 7.89536 38.3553 7.60927C37.9738 7.42437 37.7397 7.30039 37.7423 7.11284C37.7423 6.94649 37.9399 6.76847 38.3675 6.76847C38.6477 6.76222 38.9261 6.81455 39.185 6.92212L39.2824 6.96821L39.4303 6.09986" fill="white"/>
<path d="M42.2281 6.00557H41.3842C41.2655 5.99026 41.1451 6.01452 41.0417 6.07458C40.9382 6.13464 40.8575 6.22714 40.812 6.33775L39.1902 10.0093H40.3367C40.3367 10.0093 40.5243 9.5155 40.5667 9.40742H41.9653C41.9982 9.54782 42.0983 10.0077 42.0983 10.0077H43.1113L42.2281 6.00557ZM40.8819 8.58835C40.972 8.35735 41.3169 7.46835 41.3169 7.46835C41.3105 7.47947 41.4064 7.23682 41.4615 7.08636L41.5351 7.43179C41.5351 7.43179 41.7444 8.38543 41.7879 8.58888L40.8819 8.58835Z" fill="white"/>
<path d="M33.4599 6.00504L32.3908 8.73669L32.2769 8.18146C32.0002 7.45226 31.4609 6.85285 30.7648 6.50093L31.7423 10.0045H32.8978L34.6165 6.00609H33.4599" fill="white"/>
<path d="M31.3995 6.00238H29.6385L29.6247 6.08609C30.2042 6.19265 30.7489 6.43934 31.2113 6.80465C31.6737 7.16996 32.0397 7.64281 32.2774 8.18198L31.8922 6.34093C31.8644 6.23435 31.799 6.14142 31.7081 6.07922C31.6172 6.01702 31.5068 5.98974 31.3974 6.00238" fill="#F9A51A"/>
</g>
<g clip-path="url(#clip2_801_403701)">
<path d="M49.5166 3.64901V12.351C49.5166 13.814 50.7026 15 52.1656 15H69.1643C70.6273 15 71.8133 13.814 71.8133 12.351V3.64901C71.8133 2.186 70.6273 0.999999 69.1643 0.999999H52.1656C50.7026 0.999999 49.5166 2.186 49.5166 3.64901Z" fill="#333B44"/>
<path d="M59.1659 7.99973C59.1654 7.40387 59.3001 6.81566 59.5598 6.27938C59.8195 5.74309 60.1975 5.27269 60.6652 4.90357C60.0834 4.44305 59.3836 4.1558 58.646 4.07475C57.9084 3.99369 57.1629 4.12212 56.4949 4.4453C55.8269 4.76849 55.2636 5.27335 54.8694 5.90201C54.4751 6.53067 54.2661 7.25769 54.2661 7.99973C54.2661 8.74177 54.4751 9.46879 54.8694 10.0974C55.2636 10.7261 55.8269 11.231 56.4949 11.5542C57.1629 11.8773 57.9084 12.0058 58.646 11.9247C59.3836 11.8437 60.0834 11.5564 60.6652 11.0959C60.1975 10.7268 59.8195 10.2564 59.5598 9.72008C59.3001 9.18379 59.1654 8.59559 59.1659 7.99973Z" fill="#E20D17"/>
<path d="M60.6647 11.0964C61.4927 11.0964 62.164 9.71023 62.164 8.00027C62.164 6.29031 61.4927 4.90411 60.6647 4.90411C59.8366 4.90411 59.1653 6.29031 59.1653 8.00027C59.1653 9.71023 59.8366 11.0964 60.6647 11.0964Z" fill="#EA610A"/>
<path d="M63.1139 4.05113C62.2245 4.05011 61.3611 4.35082 60.6647 4.90411C61.1321 5.27354 61.5098 5.744 61.7694 6.28022C62.0291 6.81644 62.164 7.40448 62.164 8.00026C62.164 8.59604 62.0291 9.18409 61.7694 9.72031C61.5098 10.2565 61.1321 10.727 60.6647 11.0964C61.1588 11.4867 61.7391 11.7531 62.3572 11.8734C62.9752 11.9938 63.6131 11.9646 64.2175 11.7882C64.822 11.6118 65.3755 11.2935 65.8319 10.8596C66.2882 10.4258 66.6342 9.88915 66.8409 9.2944C67.0477 8.69965 67.1091 8.06408 67.0202 7.44073C66.9313 6.81738 66.6946 6.22433 66.3299 5.71108C65.9651 5.19783 65.4829 4.77927 64.9235 4.49032C64.364 4.20137 63.7436 4.05042 63.1139 4.05006V4.05113Z" fill="#F59E00"/>
</g>
<g clip-path="url(#clip3_801_403701)">
<path d="M73.8133 3.64901V12.351C73.8133 13.814 74.9993 15 76.4623 15H93.461C94.924 15 96.11 13.814 96.11 12.351V3.64901C96.11 2.186 94.924 0.999999 93.461 0.999999H76.4623C74.9993 0.999999 73.8133 2.186 73.8133 3.64901Z" fill="#002338"/>
<path d="M85.8191 11.9621C87.9855 11.9727 89.9621 10.1958 89.9621 8.03469C89.9556 7.49932 89.843 6.97056 89.6306 6.47906C89.4183 5.98755 89.1105 5.54306 88.7252 5.17136C88.3398 4.79965 87.8845 4.50811 87.3857 4.31364C86.8869 4.11916 86.3544 4.02561 85.8191 4.0384H83.9553C83.4271 4.02638 82.9021 4.12153 82.4118 4.3181C81.9214 4.51467 81.4761 4.80859 81.1025 5.18209C80.729 5.5556 80.435 6.00094 80.2384 6.49123C80.0417 6.98152 79.9465 7.50658 79.9585 8.03469C79.9696 9.08489 80.3965 10.0878 81.1456 10.824C81.8947 11.5601 82.905 11.9693 83.9553 11.9621H85.8191Z" fill="#004A98"/>
<path d="M84.7881 10.1396V5.84822C85.2223 6.01455 85.5959 6.3087 85.8594 6.69181C86.1228 7.07491 86.2639 7.52894 86.2639 7.99391C86.2639 8.45888 86.1228 8.91292 85.8594 9.29602C85.5959 9.67912 85.2223 9.97327 84.7881 10.1396ZM81.6665 7.99338C81.6673 7.52855 81.8087 7.07483 82.0721 6.69186C82.3356 6.3089 82.7087 6.01461 83.1426 5.84769V10.1391C82.7087 9.97238 82.3355 9.67822 82.072 9.29531C81.8085 8.91241 81.6672 8.45817 81.6665 7.99338ZM83.9653 4.36636C83.248 4.36636 82.5468 4.57907 81.9503 4.97759C81.3539 5.37611 80.889 5.94254 80.6145 6.60526C80.3399 7.26798 80.2681 7.99723 80.408 8.70079C80.5479 9.40434 80.8933 10.0506 81.4005 10.5579C81.9077 11.0652 82.5539 11.4106 83.2574 11.5506C83.961 11.6907 84.6902 11.6189 85.353 11.3445C86.0158 11.07 86.5822 10.6052 86.9808 10.0088C87.3795 9.41244 87.5923 8.71125 87.5924 7.99391C87.5924 7.03192 87.2103 6.10932 86.5301 5.42904C85.8499 4.74875 84.9273 4.3665 83.9653 4.36636Z" fill="white"/>
</g>
<g clip-path="url(#clip4_801_403701)">
<path d="M98.11 3.64901V12.351C98.11 13.814 99.296 15 100.759 15H117.758C119.221 15 120.407 13.814 120.407 12.351V3.64901C120.407 2.186 119.221 0.999999 117.758 0.999999H100.759C99.296 0.999999 98.11 2.186 98.11 3.64901Z" fill="#C0272D"/>
<path d="M101.839 9.03867C101.94 8.67381 102.036 8.26392 102.128 7.809C102.219 7.35408 102.3 6.87514 102.37 6.37218C102.433 6.38013 102.476 6.38436 102.504 6.38701C102.532 6.38966 102.552 6.39072 102.57 6.39072C102.588 6.39072 102.623 6.39072 102.656 6.38701C102.688 6.3833 102.731 6.37907 102.784 6.37218C102.712 6.60992 102.653 6.85111 102.606 7.09483L102.597 7.13668L102.521 7.51284L102.754 7.52026C102.977 7.52556 103.125 7.52821 103.195 7.52821C103.341 7.52821 103.581 7.52397 103.915 7.51549H103.982L104.072 7.08635C104.104 6.92247 104.128 6.78842 104.142 6.68423C104.157 6.57827 104.168 6.47708 104.176 6.37536C104.229 6.38331 104.268 6.38754 104.299 6.39019C104.33 6.39284 104.36 6.3939 104.384 6.3939C104.409 6.3939 104.425 6.3939 104.455 6.39019C104.485 6.38648 104.53 6.38331 104.592 6.37536C104.456 6.88856 104.342 7.37509 104.25 7.83496C104.159 8.29483 104.095 8.69695 104.059 9.04132C103.991 9.03231 103.947 9.02701 103.924 9.02542C103.901 9.02383 103.881 9.02542 103.865 9.02542C103.84 9.02542 103.812 9.02542 103.778 9.02913C103.744 9.03284 103.7 9.03602 103.644 9.04397C103.691 8.86489 103.732 8.70648 103.766 8.56714C103.8 8.42781 103.825 8.31867 103.842 8.23496L103.945 7.72052C103.832 7.72052 103.696 7.72052 103.537 7.72052H103.229H102.858L102.482 7.7237L102.392 8.15655C102.367 8.28582 102.343 8.42463 102.319 8.57085C102.295 8.71708 102.273 8.87602 102.25 9.04768C102.201 9.04132 102.16 9.03655 102.129 9.03337C102.098 9.03019 102.07 9.02913 102.048 9.02913C102.025 9.02913 101.998 9.02913 101.967 9.03284C101.936 9.03655 101.893 9.03973 101.838 9.04768L101.839 9.03867ZM104.947 6.48503C104.946 6.45964 104.95 6.43426 104.959 6.41054C104.968 6.38681 104.982 6.36526 105 6.34729C105.018 6.32931 105.04 6.31531 105.063 6.30618C105.087 6.29705 105.112 6.293 105.138 6.2943C105.163 6.2928 105.188 6.29645 105.211 6.30501C105.235 6.31358 105.256 6.32688 105.275 6.3441C105.292 6.3631 105.305 6.38529 105.313 6.4094C105.321 6.4335 105.325 6.45903 105.323 6.4845C105.324 6.50967 105.32 6.53476 105.311 6.55825C105.302 6.58174 105.288 6.60314 105.27 6.62118C105.253 6.63929 105.232 6.65358 105.209 6.66316C105.186 6.67273 105.161 6.67738 105.136 6.67681C105.111 6.67771 105.086 6.67346 105.063 6.66434C105.04 6.65522 105.02 6.64143 105.002 6.62383C104.985 6.60556 104.971 6.58396 104.962 6.56031C104.953 6.53665 104.948 6.51142 104.949 6.48609L104.947 6.48503ZM104.506 9.03867C104.612 8.63461 104.693 8.27063 104.75 7.94675C104.8 7.6901 104.832 7.43018 104.845 7.169C104.882 7.1743 104.917 7.17748 104.951 7.18012C104.985 7.18277 105.014 7.18383 105.045 7.18383C105.075 7.18383 105.108 7.18383 105.143 7.18012C105.177 7.17642 105.212 7.1743 105.249 7.169C105.148 7.53845 105.069 7.88247 105.012 8.20105C104.96 8.47779 104.926 8.75758 104.911 9.03867C104.853 9.03072 104.81 9.02648 104.78 9.02383C104.751 9.02118 104.727 9.02012 104.704 9.02012C104.682 9.02012 104.664 9.02012 104.636 9.02383C104.607 9.02754 104.565 9.03072 104.508 9.03867H104.506ZM106.195 8.8633C106.294 8.86092 106.39 8.83281 106.474 8.78179C106.558 8.73076 106.628 8.65859 106.675 8.57244C106.81 8.35684 106.877 8.10594 106.868 7.85191C106.876 7.71261 106.837 7.57467 106.757 7.46039C106.721 7.41403 106.674 7.37695 106.621 7.35224C106.568 7.32754 106.51 7.31594 106.451 7.3184C106.35 7.32003 106.252 7.34772 106.165 7.39879C106.078 7.44986 106.006 7.52256 105.956 7.60979C105.818 7.82479 105.749 8.07667 105.758 8.33191C105.748 8.47308 105.787 8.61338 105.868 8.72926C105.909 8.77525 105.959 8.81126 106.016 8.83451C106.073 8.85775 106.134 8.86761 106.195 8.8633ZM105.03 10.1046C105.146 9.69668 105.255 9.243 105.356 8.74357C105.457 8.24414 105.548 7.71946 105.628 7.16953C105.662 7.17324 105.692 7.17589 105.718 7.17801C105.745 7.18013 105.769 7.18119 105.789 7.18119C105.809 7.18119 105.836 7.18119 105.865 7.17801C105.895 7.17483 105.929 7.17324 105.966 7.16953L105.895 7.44238C105.979 7.34289 106.081 7.26097 106.197 7.20132C106.305 7.148 106.425 7.12078 106.546 7.12185C106.639 7.118 106.732 7.13504 106.818 7.1717C106.903 7.20837 106.98 7.26374 107.041 7.33377C107.17 7.49404 107.236 7.69628 107.225 7.90171C107.236 8.21032 107.133 8.51216 106.935 8.7494C106.847 8.8569 106.735 8.94304 106.609 9.00139C106.482 9.05974 106.344 9.08878 106.205 9.08635C106.086 9.08673 105.97 9.0472 105.875 8.97403C105.777 8.90071 105.705 8.7981 105.669 8.68105L105.585 9.11761C105.58 9.14198 105.572 9.17959 105.563 9.22993C105.492 9.58313 105.439 9.87611 105.404 10.1089C105.36 10.1009 105.325 10.0962 105.298 10.0919C105.276 10.0885 105.255 10.0865 105.233 10.0861C105.203 10.0863 105.173 10.0883 105.143 10.0919C105.109 10.0956 105.07 10.1009 105.03 10.1089V10.1046ZM107.706 7.92238L107.855 7.92609C108.005 7.92856 108.104 7.92979 108.152 7.92979C108.209 7.92979 108.318 7.92979 108.48 7.92609L108.627 7.92238C108.631 7.88105 108.634 7.84503 108.636 7.81642C108.638 7.78781 108.636 7.76344 108.636 7.74012C108.643 7.61816 108.609 7.49737 108.541 7.39628C108.51 7.35549 108.47 7.32279 108.424 7.301C108.378 7.27922 108.327 7.26901 108.276 7.27125C108.208 7.27234 108.14 7.28853 108.079 7.31867C108.018 7.3488 107.964 7.39214 107.921 7.44556C107.808 7.583 107.733 7.7472 107.702 7.92238H107.706ZM107.67 8.08715C107.666 8.129 107.661 8.17032 107.659 8.21112C107.656 8.25191 107.655 8.29324 107.655 8.33244C107.644 8.48544 107.692 8.63685 107.788 8.75629C107.837 8.80697 107.896 8.84643 107.962 8.87196C108.027 8.89748 108.098 8.90845 108.168 8.9041C108.271 8.90389 108.373 8.87939 108.465 8.83258C108.577 8.77289 108.678 8.69601 108.765 8.60476L108.812 8.64291C108.792 8.68231 108.774 8.72282 108.759 8.76423C108.743 8.80746 108.729 8.8515 108.717 8.89615C108.621 8.95941 108.517 9.01031 108.408 9.04768C108.309 9.08007 108.206 9.09653 108.102 9.09642C107.993 9.1017 107.883 9.08439 107.781 9.04556C107.678 9.00673 107.585 8.94721 107.507 8.87072C107.431 8.78941 107.372 8.69381 107.334 8.58953C107.296 8.48526 107.28 8.37443 107.285 8.26357C107.276 7.96565 107.378 7.67493 107.571 7.4482C107.659 7.3429 107.77 7.25871 107.895 7.20186C108.02 7.145 108.156 7.11693 108.293 7.11973C108.386 7.1149 108.479 7.13052 108.566 7.16548C108.652 7.20044 108.73 7.2539 108.793 7.32211C108.922 7.47962 108.987 7.67969 108.975 7.88264C108.975 7.89536 108.975 7.91973 108.971 7.95575C108.967 7.99178 108.965 8.03628 108.961 8.08873H108.878C108.594 8.08344 108.392 8.08079 108.274 8.08079H108.031L107.672 8.08608L107.67 8.08715ZM108.974 9.04079C109.066 8.68123 109.14 8.34021 109.197 8.01774C109.248 7.73727 109.284 7.45433 109.306 7.17006C109.341 7.17536 109.373 7.17854 109.4 7.18119C109.428 7.18384 109.453 7.18489 109.474 7.18489C109.495 7.18489 109.53 7.18489 109.56 7.18119C109.589 7.17748 109.619 7.17536 109.652 7.17006C109.633 7.22854 109.616 7.28816 109.604 7.3486C109.591 7.40953 109.58 7.4747 109.571 7.54304C109.643 7.4263 109.735 7.32331 109.843 7.23893C109.922 7.17426 110.02 7.13707 110.123 7.13297C110.139 7.13296 110.156 7.1342 110.173 7.13668C110.19 7.13957 110.208 7.14364 110.226 7.14887C110.21 7.20246 110.197 7.25695 110.188 7.31205C110.18 7.36577 110.174 7.41988 110.171 7.47416C110.128 7.46516 110.093 7.4588 110.066 7.45403C110.04 7.44998 110.015 7.44786 109.99 7.44768C109.813 7.44768 109.679 7.5584 109.587 7.77986C109.454 8.18856 109.373 8.61239 109.347 9.04132C109.303 9.03549 109.266 9.03072 109.235 9.02807C109.208 9.02485 109.181 9.02308 109.154 9.02277C109.135 9.023 109.116 9.02424 109.097 9.02648C109.074 9.02648 109.033 9.03337 108.975 9.04132L108.974 9.04079ZM111.5 8.93483C111.412 8.98578 111.317 9.02513 111.219 9.05191C111.122 9.07807 111.023 9.09126 110.922 9.09112C110.813 9.0958 110.704 9.07799 110.603 9.0388C110.501 8.9996 110.408 8.93986 110.33 8.8633C110.254 8.78356 110.195 8.68921 110.156 8.58595C110.118 8.4827 110.1 8.37267 110.105 8.26251C110.097 7.96464 110.204 7.6751 110.405 7.45456C110.498 7.3486 110.614 7.26437 110.744 7.20774C110.874 7.1511 111.014 7.12342 111.156 7.12662C111.274 7.12543 111.391 7.13859 111.506 7.16582C111.608 7.19036 111.705 7.22981 111.795 7.28291C111.769 7.33426 111.747 7.38737 111.729 7.44185C111.71 7.49534 111.694 7.55003 111.683 7.60556L111.625 7.60926C111.588 7.51284 111.526 7.42814 111.445 7.36397C111.369 7.30615 111.275 7.27572 111.18 7.27761C111.077 7.27972 110.977 7.30773 110.888 7.35905C110.799 7.41036 110.724 7.48331 110.671 7.57112C110.528 7.78154 110.456 8.0317 110.464 8.28582C110.453 8.44896 110.501 8.61066 110.598 8.74198C110.645 8.79583 110.704 8.83815 110.771 8.86569C110.837 8.89324 110.908 8.90529 110.98 8.90092C111.089 8.90155 111.196 8.87765 111.295 8.83099C111.39 8.78704 111.472 8.72002 111.535 8.63602L111.588 8.67946C111.57 8.71902 111.552 8.75999 111.535 8.80238C111.52 8.84529 111.507 8.88821 111.495 8.93324L111.5 8.93483ZM112.678 8.78277C112.604 8.87354 112.513 8.94941 112.411 9.00635C112.32 9.05406 112.218 9.07862 112.115 9.07787C112.052 9.08142 111.988 9.07239 111.928 9.0513C111.868 9.03021 111.813 8.99747 111.765 8.95496C111.722 8.91165 111.688 8.8597 111.666 8.80248C111.644 8.74526 111.634 8.68403 111.637 8.62277C111.633 8.54515 111.646 8.46755 111.676 8.39579C111.706 8.32403 111.751 8.25999 111.81 8.20847C111.992 8.08268 112.201 8.00254 112.42 7.97483L112.742 7.91178C112.766 7.90658 112.789 7.89528 112.809 7.8789C112.828 7.86252 112.843 7.84159 112.852 7.81801C112.879 7.74443 112.892 7.66601 112.888 7.58754C112.89 7.54496 112.884 7.50232 112.869 7.4623C112.854 7.42227 112.831 7.38573 112.802 7.35496C112.77 7.32576 112.732 7.30327 112.691 7.28881C112.65 7.27435 112.606 7.2682 112.562 7.27072C112.456 7.26876 112.35 7.29625 112.258 7.35019C112.168 7.40393 112.096 7.48228 112.05 7.57589L111.984 7.56423C111.994 7.52779 112.001 7.49082 112.007 7.4535C112.012 7.41843 112.015 7.38301 112.015 7.34754C112.015 7.34119 112.015 7.33059 112.015 7.31628C112.015 7.30198 112.015 7.2898 112.015 7.28079C112.103 7.22599 112.199 7.1834 112.299 7.15416C112.399 7.12649 112.502 7.11276 112.605 7.11337C112.76 7.1031 112.913 7.14672 113.039 7.23681C113.09 7.27998 113.13 7.33438 113.156 7.39571C113.183 7.45703 113.194 7.52362 113.19 7.59019C113.19 7.6453 113.186 7.70033 113.179 7.75496C113.17 7.82065 113.159 7.89059 113.144 7.96688L113.014 8.6286C113.009 8.65774 113.003 8.68529 113.001 8.71125C112.998 8.73721 112.996 8.76158 112.996 8.78277C112.995 8.79825 112.998 8.81377 113.003 8.82841C113.008 8.84306 113.016 8.85654 113.026 8.86807C113.037 8.87868 113.05 8.88688 113.065 8.89216C113.079 8.89745 113.095 8.89971 113.11 8.8988C113.127 8.89862 113.143 8.89667 113.158 8.89297C113.184 8.88757 113.209 8.88085 113.233 8.87284L113.282 8.97297C113.228 9.00476 113.171 9.03052 113.111 9.04979C113.059 9.06555 113.006 9.07376 112.952 9.07417C112.916 9.0763 112.88 9.07067 112.847 9.05769C112.814 9.0447 112.784 9.02466 112.759 8.99893C112.709 8.93827 112.682 8.86149 112.684 8.78277H112.678ZM112.8 8.049L112.486 8.12317C112.341 8.14853 112.204 8.20811 112.087 8.29695C112.046 8.33235 112.014 8.37639 111.992 8.42588C111.971 8.47537 111.96 8.52906 111.962 8.58304C111.96 8.62161 111.966 8.66019 111.979 8.69656C111.992 8.73293 112.012 8.76637 112.038 8.79496C112.064 8.82167 112.095 8.84263 112.129 8.85642C112.163 8.87021 112.2 8.87653 112.237 8.87496C112.351 8.87273 112.46 8.83073 112.546 8.75629C112.635 8.68986 112.696 8.59293 112.719 8.48397L112.799 8.05112L112.8 8.049ZM113.33 9.03973C113.422 8.68017 113.497 8.33915 113.553 8.01668C113.604 7.73622 113.641 7.45327 113.663 7.169C113.697 7.1743 113.729 7.17748 113.757 7.18012C113.784 7.18277 113.81 7.18383 113.831 7.18383C113.852 7.18383 113.887 7.18383 113.916 7.18012C113.945 7.17642 113.976 7.1743 114.009 7.169C113.989 7.22753 113.974 7.28715 113.961 7.34754C113.948 7.40847 113.937 7.47364 113.928 7.54198C114 7.42523 114.092 7.32224 114.2 7.23787C114.279 7.1732 114.378 7.13601 114.48 7.13191C114.496 7.1319 114.513 7.13314 114.53 7.13562C114.548 7.13851 114.565 7.14258 114.583 7.14781C114.567 7.2014 114.554 7.25589 114.545 7.31099C114.537 7.36471 114.531 7.41882 114.529 7.47311C114.485 7.4641 114.45 7.45774 114.423 7.45297C114.398 7.44892 114.372 7.4468 114.347 7.44662C114.17 7.44662 114.036 7.55734 113.944 7.7788C113.811 8.18754 113.731 8.61135 113.704 9.04026C113.66 9.03443 113.623 9.02966 113.593 9.02701C113.566 9.02379 113.539 9.02202 113.511 9.02172C113.492 9.02194 113.473 9.02317 113.455 9.02542C113.431 9.02542 113.391 9.03231 113.332 9.04026L113.33 9.03973ZM115.806 8.76741C115.716 8.86643 115.608 8.94797 115.488 9.00794C115.377 9.05918 115.257 9.08489 115.135 9.08317C115.044 9.08624 114.954 9.06849 114.871 9.0313C114.789 8.9941 114.716 8.93844 114.658 8.8686C114.531 8.70642 114.467 8.50377 114.477 8.29801C114.467 7.99292 114.569 7.69466 114.763 7.45933C114.849 7.35271 114.957 7.26694 115.08 7.20855C115.204 7.15016 115.339 7.12069 115.475 7.12238C115.599 7.11904 115.721 7.15625 115.821 7.22834C115.922 7.30279 115.996 7.407 116.033 7.52609L116.121 7.09324C116.16 6.89986 116.193 6.72238 116.222 6.56344C116.25 6.4045 116.275 6.25244 116.296 6.10887C116.343 6.11787 116.38 6.1237 116.406 6.12688C116.428 6.12952 116.449 6.13093 116.471 6.13112C116.5 6.13081 116.53 6.12887 116.559 6.12529C116.593 6.12158 116.631 6.11628 116.672 6.10834C116.541 6.58269 116.426 7.06587 116.326 7.55787C116.225 8.04988 116.141 8.54242 116.074 9.03549C116.041 9.03178 116.011 9.0286 115.983 9.02648C115.955 9.02436 115.93 9.02648 115.911 9.02648C115.892 9.02648 115.863 9.02648 115.833 9.02648C115.803 9.02648 115.769 9.03178 115.732 9.03549L115.803 8.76317L115.806 8.76741ZM115.512 7.34595C115.413 7.34795 115.316 7.3759 115.231 7.42702C115.146 7.47814 115.076 7.55065 115.027 7.63734C114.892 7.85537 114.824 8.10881 114.834 8.36529C114.825 8.50278 114.862 8.63935 114.94 8.75311C114.977 8.79786 115.024 8.8333 115.077 8.85658C115.13 8.87986 115.188 8.89033 115.246 8.88715C115.347 8.88649 115.447 8.85931 115.535 8.80829C115.623 8.75727 115.696 8.68419 115.747 8.59628C115.885 8.37712 115.953 8.12133 115.943 7.86251C115.953 7.7256 115.913 7.58977 115.832 7.47893C115.793 7.4338 115.743 7.39836 115.687 7.37532C115.632 7.35228 115.571 7.34223 115.511 7.34595H115.512Z" fill="white"/>
</g>
<g clip-path="url(#clip5_801_403701)">
<path d="M142.054 1H125.056C123.593 1 122.407 2.186 122.407 3.64901V12.351C122.407 13.814 123.593 15 125.056 15H142.054C143.517 15 144.703 13.814 144.703 12.351V3.64901C144.703 2.186 143.517 1 142.054 1Z" fill="#EB5D15"/>
<path d="M128.893 5.52556V7.19973H127.279V5.52556H126.143V10.0999H127.279V8.18675H128.893V10.1004H130.029V5.52556H128.893Z" fill="#FFFBFF"/>
<path d="M134.051 6.66145C133.034 6.66145 133.004 7.19973 133.004 7.19973V6.78119H132.107V9.32424C131.554 9.32424 131.569 8.71125 131.569 8.71125V6.78278H130.463V8.67788C130.463 10.102 132.062 10.1915 132.062 10.1915V11.3571H133.154V10.2196C135.247 10.2196 135.485 9.33748 135.485 8.47125C135.485 7.60503 135.067 6.66145 134.051 6.66145ZM133.543 9.32265H133.154V7.96212C133.175 7.83074 133.245 7.71243 133.351 7.63174C133.457 7.55105 133.589 7.51416 133.722 7.52874C134.245 7.52874 134.365 8.18675 134.365 8.53006C134.365 8.87337 134.26 9.32265 133.543 9.32265Z" fill="white"/>
<path d="M131.571 5.89218C131.571 6.00904 131.536 6.12327 131.471 6.22043C131.406 6.31758 131.314 6.3933 131.206 6.43799C131.098 6.48269 130.979 6.49436 130.865 6.47152C130.75 6.44868 130.645 6.39237 130.562 6.3097C130.479 6.22703 130.423 6.12173 130.401 6.0071C130.378 5.89248 130.39 5.77368 130.434 5.66575C130.479 5.55782 130.555 5.4656 130.652 5.40075C130.749 5.3359 130.864 5.30135 130.98 5.30145C131.058 5.30145 131.135 5.31674 131.206 5.34643C131.278 5.37612 131.343 5.41964 131.398 5.47451C131.453 5.52937 131.496 5.59449 131.526 5.66616C131.556 5.73783 131.571 5.81463 131.571 5.89218Z" fill="#FCCF11"/>
<path d="M137.265 6.66147C135.546 6.66147 135.651 8.60478 135.651 8.57511C135.638 8.79765 135.673 9.02036 135.754 9.22798C135.835 9.43561 135.96 9.62324 136.121 9.77802C136.281 9.93281 136.473 10.0511 136.683 10.1247C136.894 10.1984 137.118 10.2257 137.34 10.2048C137.784 10.1942 138.224 10.1082 138.64 9.95048L138.534 9.20293C138.534 9.20293 136.77 9.67975 136.621 8.75471H138.759C138.759 8.75471 138.984 6.66147 137.265 6.66147ZM137.863 8.022H136.607C136.607 8.022 136.562 7.31948 137.235 7.31948C137.908 7.31948 137.863 8.022 137.863 8.022Z" fill="#FFFBFF"/>
<path d="M140.023 6.7812H139.031V10.0999H140.197V8.18676C140.197 8.18676 140.137 7.49802 141.094 7.69352V6.66199C140.88 6.61341 140.656 6.6405 140.46 6.73865C140.263 6.8368 140.107 6.99994 140.018 7.20027L140.023 6.7812Z" fill="#FFFBFF"/>
</g>
<g clip-path="url(#clip6_801_403701)">
<path d="M146.703 3.64901V12.351C146.703 13.814 147.889 15 149.352 15H166.351C167.814 15 169 13.814 169 12.351V3.64901C169 2.186 167.814 0.999999 166.351 0.999999H149.352C147.889 0.999999 146.703 2.186 146.703 3.64901Z" fill="black"/>
<path d="M152.618 6.4808C152.833 6.40914 153.06 6.38391 153.286 6.40677C153.511 6.42963 153.73 6.50006 153.926 6.61342C154.122 6.72677 154.292 6.88047 154.425 7.06437C154.557 7.24826 154.649 7.45818 154.695 7.68027L155.793 7.45669C155.715 7.07928 155.559 6.72256 155.334 6.41005C155.108 6.09754 154.819 5.83635 154.486 5.64371C154.152 5.45106 153.781 5.33134 153.398 5.29243C153.015 5.25353 152.628 5.29633 152.262 5.41801L152.618 6.4808Z" fill="#FFF100"/>
<path d="M151.322 10.0389L152.063 9.19921C151.893 9.04897 151.757 8.86435 151.664 8.65756C151.571 8.45078 151.523 8.22655 151.523 7.99974C151.523 7.77292 151.571 7.5487 151.664 7.34191C151.757 7.13513 151.893 6.9505 152.063 6.80027L151.322 5.96106C151.033 6.21649 150.801 6.53044 150.643 6.88209C150.484 7.23374 150.402 7.61507 150.402 8.0008C150.402 8.38653 150.484 8.76785 150.643 9.1195C150.801 9.47115 151.033 9.7851 151.322 10.0405V10.0389Z" fill="#00A3DF"/>
<path d="M154.695 8.32185C154.649 8.54384 154.557 8.75363 154.425 8.9374C154.292 9.12116 154.122 9.2747 153.926 9.38791C153.729 9.50111 153.511 9.57139 153.286 9.59412C153.06 9.61684 152.832 9.59149 152.618 9.51974L152.262 10.5825C152.627 10.7044 153.014 10.7474 153.398 10.7088C153.781 10.6702 154.151 10.5508 154.485 10.3584C154.819 10.1661 155.108 9.9052 155.333 9.59297C155.559 9.28073 155.716 8.92425 155.793 8.54702L154.695 8.32185Z" fill="#EE4023"/>
<path d="M159.449 9.07257C159.292 9.22711 159.088 9.32395 158.869 9.34724C158.65 9.37053 158.43 9.31889 158.245 9.20078L157.881 9.77986C158.197 9.97876 158.57 10.0655 158.941 10.0259C159.312 9.98643 159.659 9.82302 159.926 9.56211L159.449 9.07257Z" fill="white"/>
<path d="M158.791 6.71337C158.489 6.70884 158.193 6.78633 157.932 6.93756C157.671 7.08878 157.457 7.30803 157.311 7.57184C157.166 7.83566 157.094 8.1341 157.105 8.43522C157.116 8.73635 157.209 9.02881 157.374 9.28132L160.382 7.99496C160.298 7.63496 160.095 7.31345 159.808 7.08132C159.52 6.8492 159.163 6.71971 158.793 6.71337M157.795 8.47761C157.791 8.43857 157.789 8.39928 157.789 8.35999C157.792 8.16088 157.856 7.96744 157.972 7.80555C158.088 7.64365 158.251 7.52102 158.438 7.45407C158.626 7.38713 158.829 7.37905 159.022 7.43093C159.214 7.4828 159.386 7.59216 159.514 7.74436L157.795 8.47761Z" fill="white"/>
<path d="M161.326 5.96423V9.17165L161.883 9.40264L161.618 10.0352L161.067 9.80635C160.957 9.75828 160.863 9.67914 160.796 9.57854C160.723 9.45913 160.686 9.32079 160.69 9.18066V5.96423H161.326Z" fill="white"/>
<path d="M163.333 7.44714C163.464 7.40344 163.603 7.38806 163.741 7.40203C163.878 7.416 164.011 7.459 164.131 7.52819C164.251 7.59738 164.355 7.69119 164.436 7.80343C164.517 7.91567 164.573 8.04379 164.601 8.17933L165.271 8.04264C165.224 7.81223 165.129 7.59442 164.991 7.4036C164.854 7.21278 164.678 7.05329 164.474 6.93567C164.27 6.81805 164.044 6.74498 163.81 6.72127C163.576 6.69756 163.34 6.72376 163.117 6.79814L163.333 7.44714Z" fill="white"/>
<path d="M162.542 9.6188L162.995 9.10649C162.891 9.01477 162.808 8.90209 162.751 8.77592C162.695 8.64974 162.665 8.51294 162.665 8.37457C162.665 8.23619 162.695 8.09939 162.751 7.97321C162.808 7.84704 162.891 7.73436 162.995 7.64265L162.542 7.13245C162.365 7.28835 162.224 7.47998 162.127 7.69462C162.031 7.90927 161.98 8.14203 161.98 8.37748C161.98 8.61293 162.031 8.84569 162.127 9.06034C162.224 9.27498 162.365 9.46661 162.542 9.62251V9.6188Z" fill="white"/>
<path d="M164.6 8.57086C164.572 8.70639 164.516 8.8345 164.435 8.94671C164.354 9.05892 164.251 9.15268 164.131 9.22179C164.011 9.29089 163.878 9.33378 163.74 9.3476C163.602 9.36143 163.463 9.34588 163.332 9.30199L163.115 9.951C163.338 10.0255 163.574 10.0518 163.808 10.0282C164.042 10.0047 164.269 9.93175 164.472 9.8143C164.676 9.69684 164.853 9.53751 164.99 9.34682C165.128 9.15614 165.223 8.93844 165.271 8.70808L164.6 8.57086Z" fill="white"/>
</g>
<defs>
<clipPath id="clip0_801_403701">
<rect width="22.2967" height="14" fill="white" transform="translate(0.923218 1)"/>
</clipPath>
<clipPath id="clip1_801_403701">
<rect width="22.2967" height="14" fill="white" transform="translate(25.2199 1)"/>
</clipPath>
<clipPath id="clip2_801_403701">
<rect width="22.2967" height="14" fill="white" transform="translate(49.5166 1)"/>
</clipPath>
<clipPath id="clip3_801_403701">
<rect width="22.2967" height="14" fill="white" transform="translate(73.8133 1)"/>
</clipPath>
<clipPath id="clip4_801_403701">
<rect width="22.2967" height="14" fill="white" transform="translate(98.11 1)"/>
</clipPath>
<clipPath id="clip5_801_403701">
<rect width="22.2967" height="14" fill="white" transform="translate(122.407 1)"/>
</clipPath>
<clipPath id="clip6_801_403701">
<rect width="22.2967" height="14" fill="white" transform="translate(146.703 1)"/>
</clipPath>
</defs>
</svg>
