<svg width="60" height="60" viewBox="0 0 60 60" fill="none" xmlns="http://www.w3.org/2000/svg">
<circle cx="30" cy="30" r="27.5" fill="black" fill-opacity="0.7"/>
<path fill-rule="evenodd" clip-rule="evenodd" d="M56 30C56 44.3594 44.3594 56 30 56C15.6406 56 4 44.3594 4 30C4 15.6406 15.6406 4 30 4C44.3594 4 56 15.6406 56 30ZM57.5 30C57.5 45.1878 45.1878 57.5 30 57.5C14.8122 57.5 2.5 45.1878 2.5 30C2.5 14.8122 14.8122 2.5 30 2.5C45.1878 2.5 57.5 14.8122 57.5 30ZM24.6429 40.7424L42.3214 30.5357L24.6429 20.329L24.6429 40.7424Z" fill="white"/>
</svg>
