<svg width="24" height="24" viewBox="0 0 24 24" fill="none" xmlns="http://www.w3.org/2000/svg">
<g clip-path="url(#clip0_3151_469895)">
<path fill-rule="evenodd" clip-rule="evenodd" d="M15.0696 3.26196C15.2561 3.05829 15.5723 3.04436 15.776 3.23084L19.8223 6.93571C20.1326 7.21985 20.3094 7.62126 20.3094 8.04202V8.12361C20.3094 8.12407 20.3094 8.12454 20.3094 8.125C20.3094 8.12547 20.3094 8.12594 20.3094 8.1264V19.4C20.3094 20.2285 19.6378 20.9 18.8094 20.9H5.30127C4.47284 20.9 3.80127 20.2285 3.80127 19.4V8.125V8.0414C3.80127 7.62119 3.97753 7.22024 4.28716 6.93615L8.32511 3.23119C8.52859 3.0445 8.84488 3.0581 9.03157 3.26158C9.21826 3.46505 9.20466 3.78134 9.00119 3.96803L5.01553 7.625H9.61768H10.1177H13.9947H14.4947L19.0943 7.625L15.1007 3.96838C14.897 3.7819 14.8831 3.46563 15.0696 3.26196ZM19.3094 8.625L14.4947 8.625V13.2944V13.7944H13.9947H10.1177H9.61768V13.2944V8.625L4.80127 8.625V19.4C4.80127 19.6762 5.02513 19.9 5.30127 19.9H18.8094C19.0855 19.9 19.3094 19.6762 19.3094 19.4V8.625ZM10.6177 8.625V12.7944H13.4947V8.625H10.6177Z" fill="#555555"/>
</g>
<defs>
<clipPath id="clip0_3151_469895">
<rect width="24" height="24" fill="white"/>
</clipPath>
</defs>
</svg>
