<svg width="49" height="48" viewBox="0 0 49 48" fill="none" xmlns="http://www.w3.org/2000/svg">
<path d="M35.2184 7.89136L32.7413 5.41422C31.9602 4.63317 30.6939 4.63317 29.9128 5.41421L6.07828 29.2488C5.29723 30.0298 5.29723 31.2961 6.07828 32.0772L16.5869 42.5858C17.3679 43.3668 18.6343 43.3668 19.4153 42.5858L43.2499 18.7512C44.0309 17.9702 44.0309 16.7039 43.2499 15.9228L40.7727 13.4457" stroke="black" stroke-width="1.5" stroke-linecap="round" stroke-linejoin="round"/>
<path d="M35.2191 7.89074C33.6892 9.42068 33.6892 11.9151 35.2191 13.4451C36.749 14.975 39.2435 14.9861 40.7734 13.4451" stroke="black" stroke-width="1.5" stroke-linecap="round" stroke-linejoin="round"/>
<path d="M37.6172 24.3994L24.2802 11.0624" stroke="black" stroke-width="1.5" stroke-linecap="round" stroke-linejoin="round" stroke-dasharray="3 3"/>
<path d="M17.3794 25.4296C16.4325 25.4296 15.665 26.1972 15.665 27.144C15.665 28.0908 16.4325 28.8584 17.3794 28.8584C18.3262 28.8584 19.0938 28.0908 19.0938 27.144C19.0938 26.1972 18.3262 25.4296 17.3794 25.4296Z" stroke="black" stroke-width="1.5" stroke-linecap="round" stroke-linejoin="round"/>
<path d="M25.9497 28.8584C24.9945 28.8584 24.2353 28.0869 24.2353 27.144C24.2353 26.2011 25.0068 25.4296 25.9497 25.4296C26.8926 25.4296 27.6641 26.2011 27.6641 27.144C27.6641 28.0869 26.8926 28.8584 25.9497 28.8584V28.8584Z" stroke="black" stroke-width="1.5" stroke-linecap="round" stroke-linejoin="round"/>
<path d="M21.6562 32.2861L21.6562 21.9998" stroke="black" stroke-width="1.5" stroke-linecap="round" stroke-linejoin="round"/>
</svg>
