<svg width="60" height="60" viewBox="0 0 60 60" fill="none" xmlns="http://www.w3.org/2000/svg">
<circle cx="30" cy="30" r="27.5" fill="black" fill-opacity="0.7"/>
<circle cx="30" cy="30" r="26.75" stroke="white" stroke-width="1.5"/>
<path fill-rule="evenodd" clip-rule="evenodd" d="M16.25 30.4186C16.25 31.466 16.5346 32.4938 17.0734 33.3921C17.2391 33.6686 17.4593 33.9074 17.7228 34.0931C17.9862 34.2789 18.2857 34.4074 18.6018 34.4706L21.2102 34.9928C21.3652 35.024 21.5049 35.1072 21.6061 35.2286L24.7969 39.0556C26.618 41.2419 27.53 42.3342 28.342 42.0415C29.1555 41.7457 29.1555 40.3236 29.1555 37.478V23.3622C29.1555 20.5151 29.1555 19.0915 28.3404 18.7972C27.5285 18.5029 26.6164 19.5953 24.7953 21.783L21.6092 25.6086C21.5076 25.7303 21.3673 25.8135 21.2117 25.8443L18.6033 26.3666C18.2872 26.4297 17.9878 26.5582 17.7243 26.744C17.4608 26.9297 17.2391 27.1685 17.0734 27.445C16.5346 28.3433 16.25 29.3711 16.25 30.4186ZM34.1893 25.3843C33.9615 25.1565 33.5922 25.1565 33.3644 25.3843C33.1366 25.6121 33.1366 25.9815 33.3644 26.2093L37.5739 30.4189L33.3644 34.6284C33.1366 34.8562 33.1366 35.2256 33.3644 35.4534C33.5922 35.6812 33.9615 35.6812 34.1893 35.4534L38.3989 31.2438L42.6085 35.4534C42.8363 35.6812 43.2056 35.6812 43.4334 35.4534C43.6612 35.2256 43.6612 34.8562 43.4334 34.6284L39.2239 30.4189L43.4334 26.2093C43.6612 25.9815 43.6612 25.6121 43.4334 25.3843C43.2056 25.1565 42.8363 25.1565 42.6085 25.3843L38.3989 29.5939L34.1893 25.3843Z" fill="white"/>
</svg>
