<svg width="12" height="12" viewBox="0 0 12 12" fill="none" xmlns="http://www.w3.org/2000/svg">
<g clip-path="url(#clip0_11861_64431)">
<path d="M10.8 2.60004H1.2C0.88174 2.60004 0.576515 2.72647 0.351472 2.95151C0.126428 3.17655 0 3.48178 0 3.80004V7.00004C0 7.3183 0.126428 7.62352 0.351472 7.84856C0.576515 8.07361 0.88174 8.20004 1.2 8.20004H1.6V6.20004H10.4V8.20004H10.8C11.1183 8.20004 11.4235 8.07361 11.6485 7.84856C11.8736 7.62352 12 7.3183 12 7.00004V3.80004C12 3.48178 11.8736 3.17655 11.6485 2.95151C11.4235 2.72647 11.1183 2.60004 10.8 2.60004ZM2.9 11.65C2.9 11.7561 2.94214 11.8578 3.01716 11.9328C3.09217 12.0079 3.19391 12.05 3.3 12.05H8.7C8.80609 12.05 8.90783 12.0079 8.98284 11.9328C9.05786 11.8578 9.1 11.7561 9.1 11.65V7.75H2.9V11.65ZM9.6 0.400038C9.58994 0.289715 9.53863 0.187247 9.45633 0.113097C9.37402 0.0389473 9.26677 -0.00142643 9.156 3.85136e-05H2.756C2.70569 0.000896987 2.6561 0.0121772 2.61037 0.0331671C2.56464 0.054157 2.52376 0.0844006 2.4903 0.121988C2.45685 0.159576 2.43155 0.203691 2.41601 0.251549C2.40047 0.299407 2.39502 0.349967 2.4 0.400038V2.60004H9.6V0.400038Z" fill="#333333"/>
</g>
<defs>
<clipPath id="clip0_11861_64431">
<rect width="12" height="12" fill="white"/>
</clipPath>
</defs>
</svg>
