<svg width="80" height="80" viewBox="0 0 80 80" fill="none" xmlns="http://www.w3.org/2000/svg">
<path fill-rule="evenodd" clip-rule="evenodd" d="M3.25 14.75C3.25 12.6789 4.92893 11 7 11H73C75.0711 11 76.75 12.6789 76.75 14.75V50.75C76.75 52.8211 75.0711 54.5 73 54.5H7C4.92893 54.5 3.25 52.8211 3.25 50.75V14.75ZM7 12.5C5.75736 12.5 4.75 13.5074 4.75 14.75V50.75C4.75 51.9926 5.75736 53 7 53H73C74.2426 53 75.25 51.9926 75.25 50.75V14.75C75.25 13.5074 74.2426 12.5 73 12.5H7Z" fill="black"/>
<rect x="30" y="54" width="20" height="14" stroke="black" stroke-width="1.5"/>
<path d="M25 68H55" stroke="black" stroke-width="1.5" stroke-linecap="round" stroke-linejoin="round"/>
<circle cx="40" cy="33" r="10" stroke="black" stroke-width="1.5"/>
<path d="M40 28V29" stroke="black" stroke-width="1.5" stroke-linecap="round" stroke-linejoin="round"/>
<path d="M40 32V38" stroke="black" stroke-width="1.5" stroke-linecap="round" stroke-linejoin="round"/>
</svg>
