<svg width="60" height="60" viewBox="0 0 60 60" fill="none" xmlns="http://www.w3.org/2000/svg">
<path fill-rule="evenodd" clip-rule="evenodd" d="M5 7.75C5 6.23121 6.23122 5 7.75 5H52.2494C53.7682 5 54.9994 6.23122 54.9994 7.75V43.1558C54.9994 44.6745 53.7682 45.9058 52.2494 45.9058H31.7424L19.0682 54.3552C18.2375 54.909 17.1248 54.3135 17.1248 53.3151V45.9058H7.75C6.23122 45.9058 5 44.6745 5 43.1558V39.0933V7.75ZM7.75 6.5C7.05964 6.5 6.5 7.05964 6.5 7.75V39.0933V43.1558C6.5 43.8461 7.05964 44.4058 7.75 44.4058H17.8748H18.6248V45.1558V52.848L31.0993 44.5317L31.2882 44.4058H31.5153H52.2494C52.9397 44.4058 53.4994 43.8461 53.4994 43.1558V7.75C53.4994 7.05964 52.9397 6.5 52.2494 6.5H7.75Z" fill="black"/>
<path d="M30.0814 35.1145C29.4662 35.1145 28.9675 34.6158 28.9675 34.0006C28.9675 33.3854 29.4662 32.8867 30.0814 32.8867C30.6966 32.8867 31.1953 33.3854 31.1953 34.0006C31.1953 34.6158 30.6966 35.1145 30.0814 35.1145Z" fill="black"/>
<path d="M30.0855 30.0597L30.0855 27.3333C33.1842 27.3333 35.6809 24.7948 35.6809 21.6666C35.6809 18.5385 33.194 16 30.0855 16C26.977 16 24.5 18.5385 24.5 21.6666" stroke="black" stroke-width="1.5" stroke-linecap="round" stroke-linejoin="round"/>
</svg>
