<svg width="76" height="20" viewBox="0 0 76 20" fill="none" xmlns="http://www.w3.org/2000/svg">
<g clip-path="url(#clip0_8220_72204)">
<path d="M53.413 6.55583C53.413 9.47594 51.4847 11.239 48.5095 11.239H46.0301V15.5365H43.5508V1.92773H48.5095C51.4296 1.92773 53.413 3.58063 53.413 6.55583ZM50.9888 6.55583C50.9888 4.90294 49.942 4.24178 48.5095 4.24178H46.0301V8.92498H48.5095C49.942 8.92498 50.9888 8.15363 50.9888 6.55583Z" fill="#00AB4E"/>
<path d="M64.9293 9.36559V15.3711H62.505V14.2692C62.505 14.2692 61.6786 15.4813 59.5849 15.4813C56.3893 15.4813 54.4609 13.4427 54.4609 10.2471V9.36559C54.4609 6.16999 56.4995 4.18652 59.6951 4.18652C62.8907 4.18652 64.9293 6.16999 64.9293 9.36559ZM62.505 9.36559C62.505 7.6025 61.348 6.50057 59.6951 6.50057C58.0422 6.50057 56.8301 7.6025 56.8301 9.36559V10.2471C56.8301 11.9 58.0422 13.1121 59.6951 13.1121C61.4582 13.1121 62.505 12.1204 62.505 10.3022V9.36559Z" fill="#00AB4E"/>
<path d="M76.0012 4.29688V15.4814C76.0012 18.4567 73.9627 19.9994 70.9324 19.9994C69.4448 19.9994 68.1225 19.3933 67.296 18.6219V16.1977C68.1776 16.9691 69.4999 17.6853 71.0426 17.6853C72.6955 17.6853 73.6872 16.9691 73.6872 15.3713V14.3244C73.1362 15.0407 71.9792 15.4814 70.8773 15.4814C68.0674 15.4814 66.3594 13.5531 66.3594 10.7983V4.29688H68.8938V10.7432C68.8938 12.1206 69.7754 13.1123 71.1528 13.1123C72.5302 13.1123 73.4117 12.2308 73.4117 10.8533V4.29688H76.0012Z" fill="#00AB4E"/>
<path d="M39.9686 6.00551C39.0319 5.06887 37.7647 4.51791 36.4424 4.51791C35.4507 4.51791 34.514 4.90358 33.9631 5.23416C32.8611 5.95041 31.9245 6.77686 30.3267 8.87052V10.4132C31.7041 8.59504 33.0264 7.16254 34.0182 6.39119C34.6793 5.84022 35.616 5.50964 36.4424 5.50964C38.5912 5.50964 40.4644 7.32782 40.4644 9.53168V10.4683C40.4644 11.5702 40.0237 12.562 39.2523 13.3333C38.481 14.1047 37.4892 14.4904 36.4424 14.4904C34.6793 14.4904 33.0815 13.2782 32.6407 11.5702L31.9245 12.4518C32.4204 14.2149 34.3487 15.4821 36.4424 15.4821C37.7647 15.4821 39.0319 14.9311 39.9686 13.9945C40.9052 13.0579 41.4562 11.7906 41.4562 10.4683V9.53168C41.4562 8.20937 40.9603 6.94215 39.9686 6.00551ZM18.1504 5.50964C18.8666 5.50964 19.4176 5.67493 19.9686 5.95041C20.244 5.61983 20.4644 5.39945 20.6848 5.17906C20.1339 4.73829 19.1421 4.46281 18.1504 4.46281C16.7179 4.46281 15.4507 4.95868 14.514 5.89532C13.5774 6.83196 13.0815 8.09917 13.0815 9.47658V15.427H14.0732V9.53168C14.1283 7.16253 15.7812 5.50964 18.1504 5.50964ZM27.8474 15.4821V9.53168C27.8474 7.7135 26.4148 6.28099 24.5967 6.28099C23.7702 6.28099 22.9438 6.61157 22.2826 7.27273C21.6766 7.87879 21.2909 8.70523 21.2909 9.58678V10.5234C21.2909 12.2865 22.7785 13.7741 24.5416 13.7741C25.0374 13.7741 25.6986 13.6639 26.0843 13.3333V12.2314C25.6986 12.562 25.0925 12.7273 24.5416 12.7273C23.2744 12.7273 22.2826 11.7355 22.2826 10.4683V9.53168C22.2826 8.26446 23.2744 7.27273 24.5416 7.27273C25.8088 7.27273 26.8005 8.26446 26.8005 9.53168V15.4821H27.8474ZM0.519531 8.98072V9.3113C0.519531 11.0744 1.18069 12.7273 2.39281 13.9394C3.60493 15.1515 5.25782 15.8127 6.96581 15.8127C8.34322 15.8127 9.61044 15.4821 10.6573 14.876C11.5388 14.3802 11.9245 13.8292 11.9245 13.7741V8.26446H6.69033V9.3113H10.8777V13.4435C10.3818 13.9394 9.22476 14.7658 6.91072 14.7658C5.42311 14.7658 4.0457 14.2149 3.05397 13.168C2.06223 12.1212 1.51127 10.7438 1.51127 9.2562V8.92562C1.51127 7.49311 2.17242 6.1157 3.27435 5.06887C4.43138 4.02204 5.86388 3.41598 7.46168 3.41598C8.89419 3.41598 9.94102 3.63636 10.7124 4.13223V2.97521C9.88592 2.58953 8.83909 2.47934 7.46168 2.47934C3.71512 2.47934 0.519531 5.45455 0.519531 8.98072ZM18.1504 7.32782C18.5361 7.32782 18.8666 7.38292 19.1421 7.49311C19.2523 7.16254 19.4176 6.94215 19.5829 6.61157C19.3074 6.39118 18.6463 6.28099 18.1504 6.28099C16.2771 6.28099 14.8997 7.6584 14.8997 9.53168V15.4821H15.8914V9.53168C15.8914 8.20937 16.8281 7.32782 18.1504 7.32782ZM10.7124 6.1157V4.90358C9.77573 4.40771 8.78399 4.18733 7.46168 4.18733C6.08427 4.18733 4.81705 4.6832 3.82532 5.56474C2.83358 6.44628 2.28262 7.6584 2.28262 8.92562V9.2562C2.28262 11.9008 4.37628 14.0496 6.96581 14.0496C9.05948 14.0496 9.94102 13.3333 10.1614 13.168V10.0826H6.74543V11.0744H9.22477V12.6171C8.89419 12.7273 8.23303 13.0028 6.96581 13.0028C5.97408 13.0028 5.03744 12.6171 4.37628 11.9008C3.66003 11.1846 3.27435 10.2479 3.27435 9.2562V8.92562C3.27435 6.88705 5.14763 5.17906 7.40658 5.17906C9.00438 5.17906 9.94102 5.45455 10.7124 6.1157ZM34.7895 8.04408C35.2303 7.60331 35.8363 7.32782 36.4424 7.32782C37.7096 7.32782 38.7014 8.31956 38.7014 9.58678V10.5234C38.7014 11.7906 37.7096 12.7824 36.4424 12.7824C35.8363 12.7824 35.2303 12.4518 34.7895 11.8457C34.4038 11.2948 34.1283 10.5785 34.0732 9.91736L33.2468 10.9091C33.4121 11.6804 33.7978 12.3967 34.4038 12.9477C35.0099 13.4986 35.7261 13.7741 36.4424 13.7741C38.2606 13.7741 39.6931 12.2865 39.6931 10.5234V9.58678C39.6931 8.76033 39.3625 7.93388 38.7014 7.27273C38.0953 6.66667 37.2688 6.28099 36.3873 6.28099C35.8363 6.28099 35.0099 6.50138 33.9631 7.38292C33.6876 7.6584 33.0264 8.31956 32.6407 8.76033C31.9796 9.47658 31.0429 10.5785 30.2165 11.6253V13.2231C31.098 12.0661 31.649 11.405 32.4755 10.4132C33.3019 9.58678 34.2385 8.48485 34.7895 8.04408ZM19.5278 10.4683C19.5278 11.7906 20.0788 13.0579 21.0154 13.9945C21.952 14.9311 23.2193 15.4821 24.5416 15.4821C25.0925 15.4821 25.6986 15.3719 26.0843 15.1515V14.1598C25.5884 14.3802 25.0374 14.4904 24.5416 14.4904C22.3928 14.4904 20.5195 12.6722 20.5195 10.4683V9.53168C20.5195 7.38292 22.3377 5.50964 24.5416 5.50964C25.6435 5.50964 26.6352 5.95041 27.4066 6.66667C28.1779 7.43802 28.5636 8.42975 28.5636 9.53168V15.4821H29.6104V9.36639C29.5553 8.04408 29.0044 6.83196 28.0677 5.95041C27.1311 5.01377 25.8639 4.51791 24.5967 4.51791C23.2744 4.51791 22.0071 5.06887 21.0705 6.00551C20.1339 6.94215 19.5829 8.20937 19.5829 9.53168V10.4683H19.5278ZM31.3184 6.50138C31.649 6.1157 31.9796 5.73003 32.3102 5.39945V0H31.3184V6.50138ZM33.0815 5.01378V0.0550977H34.0732V4.29752C33.8529 4.46281 33.4672 4.73829 33.0815 5.01378Z" fill="#00AB4E"/>
</g>
<defs>
<clipPath id="clip0_8220_72204">
<rect width="75.482" height="19.9996" fill="white" transform="translate(0.519531)"/>
</clipPath>
</defs>
</svg>
