<svg width="24" height="25" viewBox="0 0 24 25" fill="none" xmlns="http://www.w3.org/2000/svg">
<path fill-rule="evenodd" clip-rule="evenodd" d="M17.8418 3.43828C16.7635 3.43828 15.88 4.32202 15.88 5.42388C15.88 6.52573 16.7635 7.40947 17.8418 7.40947C18.9201 7.40947 19.8036 6.52573 19.8036 5.42388C19.8036 4.32202 18.9201 3.43828 17.8418 3.43828ZM14.68 5.42388C14.68 3.66976 16.0904 2.23828 17.8418 2.23828C19.5932 2.23828 21.0036 3.66976 21.0036 5.42388C21.0036 7.17799 19.5932 8.60947 17.8418 8.60947C16.8905 8.60947 16.0398 8.18714 15.4611 7.52018L8.99856 11.5164C9.20677 11.9414 9.32362 12.4196 9.32362 12.9245C9.32362 13.0021 9.32086 13.0791 9.31543 13.1553L15.4609 16.9555C16.0396 16.2884 16.8904 15.866 17.8418 15.866C19.5932 15.866 21.0036 17.2975 21.0036 19.0516C21.0036 20.8057 19.5932 22.2372 17.8418 22.2372C16.0904 22.2372 14.68 20.8057 14.68 19.0516C14.68 18.6812 14.7429 18.3251 14.8586 17.9939L8.98423 14.3614C8.46369 15.3973 7.39766 16.1101 6.16181 16.1101C4.41038 16.1101 3 14.6786 3 12.9245C3 11.1704 4.41037 9.73887 6.16181 9.73887C6.975 9.73887 7.71467 10.0475 8.27378 10.5537L14.8587 6.48178C14.7429 6.15051 14.68 5.79439 14.68 5.42388ZM15.88 19.0516C15.88 17.9497 16.7635 17.066 17.8418 17.066C18.9201 17.066 19.8036 17.9497 19.8036 19.0516C19.8036 20.1534 18.9201 21.0372 17.8418 21.0372C16.7635 21.0372 15.88 20.1534 15.88 19.0516ZM4.2 12.9245C4.2 11.8226 5.08355 10.9389 6.16181 10.9389C7.24007 10.9389 8.12362 11.8226 8.12362 12.9245C8.12362 14.0263 7.24007 14.9101 6.16181 14.9101C5.08355 14.9101 4.2 14.0263 4.2 12.9245Z" fill="black"/>
</svg>
