<svg width="64" height="64" viewBox="0 0 64 64" fill="none" xmlns="http://www.w3.org/2000/svg">
<g clip-path="url(#clip0_4559_202075)">
<path d="M50.7309 32.3992V18.263L34.925 2.45703H6.26911C5.72739 2.45703 5.20787 2.67222 4.82482 3.05527C4.44177 3.43832 4.22656 3.95785 4.22656 4.49956V47.367C4.22656 49.5178 5.081 51.5806 6.60188 53.1015C8.12277 54.6224 10.1855 55.4768 12.3364 55.4768H28.0031" stroke="black" stroke-width="1.5" stroke-linecap="round" stroke-linejoin="round"/>
<path fill-rule="evenodd" clip-rule="evenodd" d="M37.8541 32.573C37.1055 32.2728 36.3033 32.129 35.497 32.1505C35.3045 32.1557 35.1214 32.2347 34.9855 32.3711L32.5634 34.8037C32.2716 35.0968 32.2721 35.5708 32.5645 35.8632L35.5609 38.8596C35.8538 39.1525 36.3287 39.1525 36.6216 38.8596C36.9145 38.5667 36.9145 38.0918 36.6216 37.7989L34.1544 35.3317L35.8271 33.6518C36.3303 33.6715 36.8271 33.7772 37.2957 33.9652C37.8543 34.1893 38.361 34.5253 38.7847 34.9526L38.7969 34.9647C39.4046 35.5501 39.8291 36.2995 40.0188 37.1217C40.2086 37.9439 40.1554 38.8036 39.8657 39.5961C39.7656 39.8702 39.8335 40.1775 40.0398 40.3839L50.8038 51.1479C51.01 51.354 51.3169 51.422 51.5909 51.3222C52.3855 51.0328 53.2469 50.9797 54.071 51.1696C54.8951 51.3594 55.6465 51.7839 56.2344 52.3918L56.2344 52.3918L56.2413 52.3987C56.6653 52.826 56.9987 53.3344 57.2215 53.8936C57.4443 54.4528 57.5518 55.0513 57.5376 55.653L57.5374 55.6707V56.2971C57.5374 56.7113 57.8732 57.0471 58.2874 57.0471C58.7016 57.0471 59.0374 56.7113 59.0374 56.2971V55.6792C59.055 54.8785 58.9114 54.0825 58.615 53.3385C58.3181 52.5932 57.874 51.9153 57.3093 51.3455C56.5203 50.5311 55.5126 49.9623 54.4077 49.7078C53.46 49.4896 52.4756 49.5104 51.5423 49.765L41.423 39.6457C41.6778 38.7138 41.6988 37.7307 41.4804 36.7844C41.226 35.6818 40.6575 34.6767 39.8439 33.8904C39.2772 33.3205 38.6001 32.8723 37.8541 32.573ZM38.4835 49.2568C38.7458 49.1599 39.0299 49.1376 39.3042 49.1925C39.5784 49.2473 39.8321 49.3771 40.037 49.5676L40.0477 49.5777L40.0545 49.5843L41.2551 50.7745L41.2686 50.7882L41.5032 51.033L42.6982 52.228L42.7056 52.2355L42.7173 52.2478C42.9077 52.4527 43.0375 52.7064 43.0924 52.9806C43.1472 53.2549 43.1249 53.539 43.028 53.8014C43.0248 53.8101 43.0214 53.8187 43.0179 53.8273C42.801 54.3531 42.6529 54.9047 42.5771 55.4684C42.5711 55.5126 42.5613 55.5562 42.5476 55.5986C42.5023 55.7391 42.4386 55.873 42.358 55.9968C42.3295 56.0405 42.2966 56.0811 42.2597 56.118L37.0395 61.3382C37.0207 61.357 37.001 61.3748 36.9803 61.3915C36.5703 61.7224 36.0731 61.9272 35.5491 61.9812C34.8735 62.0642 34.1878 61.9773 33.5542 61.7283C32.9261 61.4815 32.369 61.0832 31.9324 60.5691L31.7041 60.332C31.1965 59.8967 30.8022 59.3443 30.5556 58.7223C30.3039 58.0874 30.2139 57.3999 30.2936 56.7216L30.2941 56.7172C30.3583 56.1983 30.5645 55.7072 30.8901 55.2981C30.9078 55.276 30.9266 55.2549 30.9466 55.2348L36.1668 50.0147C36.2181 49.9634 36.2766 49.9198 36.3404 49.8853C36.4504 49.8258 36.5657 49.7764 36.6847 49.7377C36.7276 49.7238 36.7717 49.7138 36.8164 49.7077C37.3801 49.6319 37.9317 49.4838 38.4576 49.267C38.4661 49.2634 38.4748 49.2601 38.4835 49.2568ZM39.0063 50.6632C38.4017 50.9103 37.7695 51.0835 37.1236 51.1792L32.0407 56.2621C31.9009 56.4482 31.812 56.6678 31.7831 56.8991C31.7328 57.3298 31.7902 57.7663 31.95 58.1694C32.1101 58.5733 32.3681 58.931 32.7007 59.2105C32.7209 59.2275 32.7402 59.2455 32.7585 59.2645L33.0299 59.5464C33.0419 59.5588 33.0534 59.5717 33.0645 59.5849C33.3427 59.9169 33.6997 60.1738 34.1028 60.3322C34.5059 60.4907 34.9423 60.5455 35.3721 60.4917L35.391 60.4896C35.6162 60.4672 35.8306 60.3827 36.0105 60.2459L41.1074 55.149C41.2035 54.5073 41.3761 53.8793 41.6217 53.2785C41.6218 53.2773 41.6217 53.276 41.6215 53.2748C41.6212 53.2736 41.6208 53.2725 41.6203 53.2714L40.4369 52.0881L40.4257 52.0766L40.1923 51.833L39.0137 50.6647C39.0126 50.6641 39.0113 50.6636 39.01 50.6633C39.0088 50.6631 39.0075 50.663 39.0063 50.6632ZM33.713 57.5518L38.7348 52.53L39.7955 53.5907L34.7737 58.6125L33.713 57.5518ZM30.1197 37.0477C30.5339 37.0477 30.8697 37.3835 30.8697 37.7977V38.4241C30.8697 38.4319 30.8696 38.4398 30.8693 38.4476C30.8505 39.0481 30.9555 39.6461 31.1779 40.2042C31.4002 40.7624 31.7351 41.2688 32.1617 41.6919L32.171 41.7011L32.1709 41.7012C32.7597 42.3059 33.5101 42.7283 34.3325 42.9181C35.1549 43.1079 36.0146 43.057 36.8088 42.7715C37.0821 42.6732 37.3875 42.7416 37.5929 42.9469L48.3569 53.7109C48.5622 53.9162 48.6306 54.2217 48.5323 54.495C48.2468 55.2892 48.1959 56.1488 48.3856 56.9712C48.5754 57.7936 48.9979 58.5441 49.6026 59.1329L49.6115 59.1416L49.6115 59.1416C50.036 59.569 50.5441 59.9044 51.104 60.1268C51.575 60.3139 52.0741 60.4177 52.5791 60.4344L54.2507 58.7628L51.776 56.2968C51.4826 56.0044 51.4818 55.5295 51.7742 55.2361C52.0666 54.9427 52.5414 54.9419 52.8348 55.2343L55.8417 58.2306C55.9827 58.3712 56.0621 58.5621 56.0623 58.7612C56.0624 58.9604 55.9834 59.1514 55.8426 59.2922L53.4204 61.7144C53.2857 61.8491 53.1048 61.9275 52.9144 61.9337C52.1064 61.9599 51.3016 61.8194 50.5502 61.5209C49.8008 61.2232 49.1206 60.7747 48.5517 60.2032C47.7431 59.4142 47.1781 58.4095 46.924 57.3085C46.706 56.3638 46.7249 55.3823 46.9754 54.4508L36.853 44.3283C35.9214 44.5789 34.94 44.5977 33.9952 44.3797C32.8944 44.1257 31.8897 43.5608 31.1008 42.7523C30.5302 42.1851 30.0821 41.5068 29.7844 40.7594C29.4873 40.0137 29.3462 39.215 29.3697 38.4128V37.7977C29.3697 37.3835 29.7055 37.0477 30.1197 37.0477ZM56.5876 33.0064C56.3403 32.7594 55.9551 32.7159 55.659 32.9017L52.3786 34.9592C52.2669 35.0293 52.1756 35.1276 52.114 35.2443L50.8008 37.7304L46.5217 41.8672C46.3771 42.0069 46.2947 42.1989 46.293 42.3999C46.2912 42.6009 46.3703 42.7942 46.5123 42.9365L47.4307 43.8559L47.4313 43.8565L48.3507 44.7749C48.493 44.9169 48.6863 44.996 48.8873 44.9942C49.0883 44.9925 49.2802 44.9101 49.42 44.7655L53.5568 40.4864L56.0429 39.1732C56.1595 39.1116 56.2579 39.0203 56.328 38.9086L58.3855 35.6282C58.5713 35.3321 58.5278 34.9469 58.2808 34.6996L57.435 33.8528L57.4344 33.8522L56.5876 33.0064ZM52.0713 38.5367L53.3463 36.1229L55.9501 34.4897L56.3737 34.9128L56.3744 34.9135L56.7975 35.3371L55.1643 37.9409L52.7505 39.2159C52.6804 39.2529 52.6166 39.3008 52.5615 39.3578L48.8714 43.1748L48.492 42.7958L48.4914 42.7952L48.1124 42.4158L51.9294 38.7257C51.9864 38.6706 52.0343 38.6068 52.0713 38.5367Z" fill="black"/>
<path d="M14.4844 16.8164H24.9384" stroke="black" stroke-width="1.5" stroke-linecap="round" stroke-linejoin="round"/>
<path d="M14.4844 23.2188H24.9384" stroke="black" stroke-width="1.5" stroke-linecap="round" stroke-linejoin="round"/>
<path d="M14.4844 29.6172H32.0054" stroke="black" stroke-width="1.5" stroke-linecap="round" stroke-linejoin="round"/>
<path d="M14.3984 36H27.1984" stroke="black" stroke-width="1.5" stroke-linecap="round" stroke-linejoin="round"/>
<path d="M50.7278 18.263H38.9811C38.4484 18.2641 37.9208 18.1602 37.4283 17.9571C36.9359 17.7541 36.4884 17.4559 36.1113 17.0796C35.7343 16.7034 35.4351 16.2565 35.231 15.7645C35.0269 15.2725 34.9219 14.7451 34.9219 14.2124V2.45703" stroke="black" stroke-width="1.5" stroke-linecap="round" stroke-linejoin="round"/>
</g>
<defs>
<clipPath id="clip0_4559_202075">
<rect width="56.424" height="61.0003" fill="white" transform="translate(3.57812 1.8125)"/>
</clipPath>
</defs>
</svg>
