<svg width="60" height="60" viewBox="0 0 60 60" fill="none" xmlns="http://www.w3.org/2000/svg">
<path fill-rule="evenodd" clip-rule="evenodd" d="M47.1263 19.0021V4.50024H45.1263V19.642L38.0387 13.3761L36.714 14.8745L45.339 22.4995L46.0822 23.1565L46.7452 22.4186L54.4952 13.7936L53.0075 12.4569L47.1263 19.0021ZM30.0015 6.22927C16.9245 6.22927 6.23047 16.9233 6.23047 30.0003C6.23047 43.0772 16.9245 53.7713 30.0015 53.7713C43.0784 53.7713 53.7725 43.0772 53.7725 30.0003C53.7725 29.2983 53.2034 28.7293 52.5015 28.7293H46.7515H45.4805V31.2713H46.7515H51.1925C50.5292 42.359 41.2479 51.2293 30.0015 51.2293C18.3284 51.2293 8.77247 41.6733 8.77247 30.0003C8.77247 18.3272 18.3284 8.77127 30.0015 8.77127H31.2725V6.22927H30.0015ZM24.1472 30.0003C24.1472 26.7673 26.7682 24.1463 30.0012 24.1463C33.2343 24.1463 35.8552 26.7673 35.8552 30.0003C35.8552 33.2334 33.2343 35.8543 30.0012 35.8543C26.7682 35.8543 24.1472 33.2334 24.1472 30.0003ZM30.0012 21.6043C25.3642 21.6043 21.6052 25.3634 21.6052 30.0003C21.6052 34.6373 25.3642 38.3963 30.0012 38.3963C34.6382 38.3963 38.3972 34.6373 38.3972 30.0003C38.3972 25.3634 34.6382 21.6043 30.0012 21.6043Z" fill="#1D1D1B"/>
<path d="M47.1263 4.50024H47.5263V4.10024H47.1263V4.50024ZM47.1263 19.0021H46.7263V20.0457L47.4239 19.2694L47.1263 19.0021ZM45.1263 4.50024V4.10024H44.7263V4.50024H45.1263ZM45.1263 19.642L44.8614 19.9417L45.5263 20.5295V19.642H45.1263ZM38.0387 13.3761L38.3036 13.0764L38.0039 12.8115L37.739 13.1111L38.0387 13.3761ZM36.714 14.8745L36.4143 14.6095L36.1494 14.9092L36.4491 15.1742L36.714 14.8745ZM45.339 22.4995L45.0741 22.7992L45.339 22.4995ZM46.0822 23.1565L45.8172 23.4562L46.1145 23.719L46.3797 23.4238L46.0822 23.1565ZM46.7452 22.4186L47.0427 22.686L46.7452 22.4186ZM54.4952 13.7936L54.7927 14.061L55.0601 13.7635L54.7625 13.4961L54.4952 13.7936ZM53.0075 12.4569L53.2749 12.1594L52.9773 11.892L52.71 12.1896L53.0075 12.4569ZM45.4805 28.7293V28.3293H45.0805V28.7293H45.4805ZM45.4805 31.2713H45.0805V31.6713H45.4805V31.2713ZM51.1925 31.2713L51.5918 31.2952L51.6172 30.8713H51.1925V31.2713ZM31.2725 8.77127V9.17127H31.6725V8.77127H31.2725ZM31.2725 6.22927H31.6725V5.82927H31.2725V6.22927ZM46.7263 4.50024V19.0021H47.5263V4.50024H46.7263ZM45.1263 4.90024H47.1263V4.10024H45.1263V4.90024ZM45.5263 19.642V4.50024H44.7263V19.642H45.5263ZM45.3913 19.3423L38.3036 13.0764L37.7737 13.6758L44.8614 19.9417L45.3913 19.3423ZM37.739 13.1111L36.4143 14.6095L37.0137 15.1394L38.3384 13.641L37.739 13.1111ZM36.4491 15.1742L45.0741 22.7992L45.6039 22.1998L36.9789 14.5748L36.4491 15.1742ZM45.0741 22.7992L45.8172 23.4562L46.3471 22.8568L45.6039 22.1998L45.0741 22.7992ZM46.3797 23.4238L47.0427 22.686L46.4476 22.1513L45.7847 22.8891L46.3797 23.4238ZM47.0427 22.686L54.7927 14.061L54.1976 13.5263L46.4476 22.1513L47.0427 22.686ZM54.7625 13.4961L53.2749 12.1594L52.7402 12.7544L54.2278 14.0912L54.7625 13.4961ZM52.71 12.1896L46.8288 18.7347L47.4239 19.2694L53.305 12.7243L52.71 12.1896ZM6.63047 30.0003C6.63047 17.1442 17.1454 6.62927 30.0015 6.62927V5.82927C16.7036 5.82927 5.83047 16.7024 5.83047 30.0003H6.63047ZM30.0015 53.3713C17.1454 53.3713 6.63047 42.8563 6.63047 30.0003H5.83047C5.83047 43.2981 16.7036 54.1713 30.0015 54.1713V53.3713ZM53.3725 30.0003C53.3725 42.8563 42.8575 53.3713 30.0015 53.3713V54.1713C43.2993 54.1713 54.1725 43.2981 54.1725 30.0003H53.3725ZM52.5015 29.1293C52.9825 29.1293 53.3725 29.5192 53.3725 30.0003H54.1725C54.1725 29.0774 53.4243 28.3293 52.5015 28.3293V29.1293ZM46.7515 29.1293H52.5015V28.3293H46.7515V29.1293ZM45.4805 29.1293H46.7515V28.3293H45.4805V29.1293ZM45.8805 31.2713V28.7293H45.0805V31.2713H45.8805ZM46.7515 30.8713H45.4805V31.6713H46.7515V30.8713ZM51.1925 30.8713H46.7515V31.6713H51.1925V30.8713ZM30.0015 51.6293C41.4611 51.6293 50.9159 42.5926 51.5918 31.2952L50.7933 31.2474C50.1424 42.1255 41.0347 50.8293 30.0015 50.8293V51.6293ZM8.37247 30.0003C8.37247 41.8942 18.1075 51.6293 30.0015 51.6293V50.8293C18.5493 50.8293 9.17247 41.4524 9.17247 30.0003H8.37247ZM30.0015 8.37127C18.1075 8.37127 8.37247 18.1063 8.37247 30.0003H9.17247C9.17247 18.5481 18.5493 9.17127 30.0015 9.17127V8.37127ZM31.2725 8.37127H30.0015V9.17127H31.2725V8.37127ZM30.8725 6.22927V8.77127H31.6725V6.22927H30.8725ZM30.0015 6.62927H31.2725V5.82927H30.0015V6.62927ZM30.0012 23.7463C26.5472 23.7463 23.7472 26.5463 23.7472 30.0003H24.5472C24.5472 26.9882 26.9891 24.5463 30.0012 24.5463V23.7463ZM36.2552 30.0003C36.2552 26.5463 33.4552 23.7463 30.0012 23.7463V24.5463C33.0134 24.5463 35.4552 26.9882 35.4552 30.0003H36.2552ZM30.0012 36.2543C33.4552 36.2543 36.2552 33.4543 36.2552 30.0003H35.4552C35.4552 33.0125 33.0134 35.4543 30.0012 35.4543V36.2543ZM23.7472 30.0003C23.7472 33.4543 26.5472 36.2543 30.0012 36.2543V35.4543C26.9891 35.4543 24.5472 33.0125 24.5472 30.0003H23.7472ZM22.0052 30.0003C22.0052 25.5843 25.5852 22.0043 30.0012 22.0043V21.2043C25.1433 21.2043 21.2052 25.1424 21.2052 30.0003H22.0052ZM30.0012 37.9963C25.5852 37.9963 22.0052 34.4164 22.0052 30.0003H21.2052C21.2052 34.8582 25.1433 38.7963 30.0012 38.7963V37.9963ZM37.9972 30.0003C37.9972 34.4164 34.4173 37.9963 30.0012 37.9963V38.7963C34.8591 38.7963 38.7972 34.8582 38.7972 30.0003H37.9972ZM30.0012 22.0043C34.4173 22.0043 37.9972 25.5843 37.9972 30.0003H38.7972C38.7972 25.1424 34.8591 21.2043 30.0012 21.2043V22.0043Z" fill="white"/>
</svg>
