<svg width="98" height="43" viewBox="0 0 98 43" fill="none" xmlns="http://www.w3.org/2000/svg">
<path d="M59.2707 7.48348H52.8226V35.2803H72.6268V29.8674H59.2707V7.48348Z" fill="#6B6B6B"/>
<path d="M86.8101 24.6854H92.0585V29.5455C91.0919 29.9141 89.2057 30.2812 87.4096 30.2812C81.6054 30.2812 79.671 27.343 79.671 21.3812C79.671 15.6933 81.5126 12.3441 87.3154 12.3441C90.5411 12.3441 92.3813 13.3534 93.9006 15.2806L97.9097 11.6106C95.4667 8.12604 91.1836 7.07014 87.1769 7.07014C78.1516 7.07014 73.4073 11.9776 73.4073 21.3348C73.4073 30.6482 77.6903 35.6934 87.1313 35.6934C91.4604 35.6934 95.6981 34.592 98 32.9877V19.5013H86.8101V24.6854Z" fill="#6B6B6B"/>
<path d="M0 21.5004C0 33.3768 9.66712 43 21.5734 43C33.4533 43 43.0819 33.4682 43.1748 21.6675V21.3312C43.0819 9.53286 33.4533 0 21.5734 0C9.66712 0 0 9.62387 0 21.5004Z" fill="url(#paint0_radial_2369_46968)"/>
<path d="M6.97036 6.94746C-0.24277 14.1334 -0.972805 25.0824 5.36124 31.3928C11.6948 37.6988 22.679 36.977 29.8942 29.7868C37.1208 22.5859 37.8485 11.6397 31.5188 5.33041C28.6275 2.44964 24.7661 1.03334 20.7289 1.03334C15.9337 1.03334 10.8944 3.03694 6.97036 6.94746Z" fill="url(#paint1_linear_2369_46968)"/>
<path d="M20.9064 30.7163L20.467 31.1338H26.9415L26.5197 30.7041L20.9064 30.7163Z" fill="#626D77"/>
<path d="M26.5197 29.4189L26.9414 29.0111H22.7037L22.202 29.4189H26.5197Z" fill="#8699A3"/>
<path d="M22.7043 11.8379H20.4674L20.8869 12.2373L22.2252 12.2351L22.7043 11.8379Z" fill="#8D9AA1"/>
<path d="M22.2253 12.2344L22.2381 29.3877L22.7044 29.0115V11.8372L22.2253 12.2344Z" fill="url(#paint2_linear_2369_46968)"/>
<path d="M26.5202 29.4199V30.7041L26.9418 31.1338V29.012L26.5202 29.4199Z" fill="url(#paint3_linear_2369_46968)"/>
<path d="M20.467 11.8377V31.1338L20.9063 30.7163L20.8865 12.2372L20.467 11.8377Z" fill="#B4BDC3"/>
<path d="M11.8711 14.6361C11.8711 16.1808 13.1338 17.4326 14.6897 17.4326C16.2473 17.4326 17.506 16.1808 17.506 14.6361C17.506 13.0895 16.2473 11.8314 14.6897 11.8314C13.1338 11.8314 11.8711 13.0895 11.8711 14.6361ZM12.2878 14.6361C12.2878 13.3191 13.3652 12.2527 14.6897 12.2527C16.0097 12.2527 17.0872 13.3191 17.0872 14.6361C17.0872 15.9489 16.0097 17.0125 14.6897 17.0125C13.3652 17.0125 12.2878 15.9489 12.2878 14.6361Z" fill="url(#paint4_linear_2369_46968)"/>
<path d="M38.1179 22.1568L26.9287 22.1434L26.5134 22.5791H37.6882L37.9107 22.3486L38.1179 22.1568Z" fill="#505C61"/>
<path d="M26.929 20.8877L39.4429 20.8672L39.8664 20.4428L26.5137 20.4461L26.929 20.8877Z" fill="#8F9CA4"/>
<path d="M3.28741 21.4936C3.28741 26.3577 5.19152 30.9359 8.64342 34.379C12.0922 37.8202 16.6828 39.7197 21.5645 39.7197C26.4618 39.7197 31.064 37.8202 34.5114 34.379C37.9679 30.9359 39.8662 26.3577 39.8662 21.4936V20.4417L39.4427 20.8661V21.4936C39.4427 26.249 37.5882 30.7172 34.2155 34.0822C30.8465 37.4467 26.3499 39.3002 21.5645 39.3002C16.7987 39.3002 12.3119 37.4467 8.94168 34.0822C5.56767 30.7145 3.70934 26.2449 3.70934 21.4936C3.70934 11.6728 11.7202 3.688 21.5645 3.688L22.2469 3.6794L22.6647 3.276L21.5645 3.26585C11.4902 3.26585 3.28741 11.4419 3.28741 21.4936Z" fill="url(#paint5_linear_2369_46968)"/>
<path d="M21.3294 4.99309C17.0039 5.05554 12.9429 6.76686 9.85505 9.82137C6.73388 12.9368 5.01337 17.0819 5.01337 21.4946C5.01337 25.9054 6.73388 30.0466 9.85505 33.1639C12.9441 36.2333 17.0217 37.9493 21.3599 38.002H21.7869C30.3765 37.8932 37.5259 31.1708 38.1062 22.6131L38.1212 22.1574L37.9105 22.3494L37.688 22.5797C37.1141 30.9951 30.0345 37.5832 21.5758 37.5832C17.2647 37.5832 13.2113 35.9049 10.1559 32.8671C7.1109 29.8293 5.43684 25.792 5.43684 21.4946C5.43684 17.1939 7.1109 13.1508 10.1559 10.1169C13.2175 7.08838 17.2697 5.41301 21.5758 5.41301L22.6644 5.4235L22.2452 5.00358L21.7738 4.99309H21.3294Z" fill="url(#paint6_linear_2369_46968)"/>
<path d="M26.9286 20.8867L26.5132 20.4451V22.5791L26.9286 22.1434V20.8867Z" fill="#B4BDC3"/>
<path d="M22.2465 3.67873V5.00437L22.6642 5.42188V3.27532L22.2465 3.67873Z" fill="url(#paint7_linear_2369_46968)"/>
<path d="M21.3333 3.49252C11.4961 3.61019 3.50439 11.6382 3.50439 21.4919C3.50439 26.3012 5.38483 30.8152 8.79425 34.2158C12.1999 37.6165 16.745 39.4883 21.5532 39.4883C26.3916 39.4883 30.9326 37.6165 34.3396 34.2158C37.7518 30.8152 39.6269 26.3012 39.6269 21.4919V20.6737L38.9129 20.6765H26.7334V22.3467H37.9105C37.9093 22.3857 37.9093 22.5581 37.9055 22.5908C37.3247 31.0726 30.2278 37.8086 21.5642 37.8086C17.1961 37.8086 13.0855 36.11 9.98196 33.0256C6.89775 29.9485 5.19382 25.8522 5.19382 21.4919C5.19382 17.1277 6.89775 13.0283 9.98196 9.95368C13.0855 6.88162 17.1961 5.18234 21.5642 5.18234C21.7523 5.18234 22.2212 5.18234 22.4281 5.18716V3.50198C22.2577 3.50198 21.9748 3.49614 21.7523 3.49252H21.3333ZM20.7045 12.0643V30.9069H26.719V29.2274H22.4281V12.0643H20.7045Z" fill="url(#paint8_radial_2369_46968)"/>
<path d="M12.0845 14.636C12.0845 16.0578 13.2532 17.2061 14.6785 17.2061C16.1025 17.2061 17.2685 16.0578 17.2685 14.636C17.2685 13.2037 16.1025 12.0563 14.6785 12.0563C13.2532 12.0563 12.0845 13.2037 12.0845 14.636Z" fill="url(#paint9_radial_2369_46968)"/>
<defs>
<radialGradient id="paint0_radial_2369_46968" cx="0" cy="0" r="1" gradientUnits="userSpaceOnUse" gradientTransform="translate(20.7804 20.8487) scale(22.5067 22.418)">
<stop stop-color="#BF0C3F"/>
<stop offset="0.5" stop-color="#BF0C3F"/>
<stop offset="0.883847" stop-color="#BF0C3F"/>
<stop offset="1" stop-color="#99002C"/>
</radialGradient>
<linearGradient id="paint1_linear_2369_46968" x1="12.745" y1="2.77893" x2="24.0543" y2="33.9739" gradientUnits="userSpaceOnUse">
<stop stop-color="#F38895"/>
<stop offset="0.547622" stop-color="#BF0C3F"/>
<stop offset="0.8011" stop-color="#BF0C3F"/>
<stop offset="1" stop-color="#BF0C3F"/>
</linearGradient>
<linearGradient id="paint2_linear_2369_46968" x1="22.2252" y1="20.6124" x2="22.7044" y2="20.6124" gradientUnits="userSpaceOnUse">
<stop stop-color="#B4BDC3"/>
<stop offset="0.844281" stop-color="#333940"/>
<stop offset="1" stop-color="#333940"/>
</linearGradient>
<linearGradient id="paint3_linear_2369_46968" x1="26.5201" y1="30.0729" x2="26.9419" y2="30.0729" gradientUnits="userSpaceOnUse">
<stop stop-color="#B3BBC1"/>
<stop offset="0.844281" stop-color="#2A3236"/>
<stop offset="1" stop-color="#2A3236"/>
</linearGradient>
<linearGradient id="paint4_linear_2369_46968" x1="12.694" y1="12.6439" x2="16.6585" y2="16.6241" gradientUnits="userSpaceOnUse">
<stop stop-color="#ABBAC2"/>
<stop offset="1" stop-color="#262A30"/>
</linearGradient>
<linearGradient id="paint5_linear_2369_46968" x1="6.98233" y1="10.1909" x2="32.9618" y2="36.2732" gradientUnits="userSpaceOnUse">
<stop stop-color="#B4BDC3"/>
<stop offset="1" stop-color="#3E454D"/>
</linearGradient>
<linearGradient id="paint6_linear_2369_46968" x1="38.1238" y1="21.487" x2="5.01299" y2="21.487" gradientUnits="userSpaceOnUse">
<stop stop-color="#B4BDC3"/>
<stop offset="1" stop-color="#485159"/>
</linearGradient>
<linearGradient id="paint7_linear_2369_46968" x1="22.2464" y1="4.34849" x2="22.6642" y2="4.34849" gradientUnits="userSpaceOnUse">
<stop stop-color="#B3BBC1"/>
<stop offset="0.844281" stop-color="#2A3236"/>
<stop offset="1" stop-color="#2A3236"/>
</linearGradient>
<radialGradient id="paint8_radial_2369_46968" cx="0" cy="0" r="1" gradientUnits="userSpaceOnUse" gradientTransform="translate(14.285 13.8704) scale(27.6262 27.5173)">
<stop stop-color="white"/>
<stop offset="0.350006" stop-color="white"/>
<stop offset="0.666526" stop-color="white"/>
<stop offset="1" stop-color="#C0CCD2"/>
</radialGradient>
<radialGradient id="paint9_radial_2369_46968" cx="0" cy="0" r="1" gradientUnits="userSpaceOnUse" gradientTransform="translate(13.6054 13.6843) scale(4.034 4.01811)">
<stop stop-color="white"/>
<stop offset="0.350006" stop-color="white"/>
<stop offset="0.665531" stop-color="white"/>
<stop offset="1" stop-color="#D0DADF"/>
</radialGradient>
</defs>
</svg>
