<svg width="32" height="32" viewBox="0 0 32 32" fill="none" xmlns="http://www.w3.org/2000/svg">
<path fill-rule="evenodd" clip-rule="evenodd" d="M16 32C24.8366 32 32 24.8366 32 16C32 7.16344 24.8366 0 16 0C7.16344 0 0 7.16344 0 16C0 24.8366 7.16344 32 16 32ZM22.1329 14.9202C22.223 14.8298 22.2735 14.7075 22.2735 14.5799C22.2735 14.315 22.059 14.0987 21.7932 14.0987H20.4521V13.2388H21.7932C21.9157 13.2315 22.0308 13.1777 22.115 13.0885C22.1993 12.9992 22.2463 12.8812 22.2465 12.7584C22.2468 12.6357 22.2002 12.5175 22.1163 12.4279C22.0324 12.3383 21.9175 12.2841 21.795 12.2763H19.9727C19.7068 12.2763 19.4914 12.4945 19.4914 12.7576V16.4023C19.4917 16.5293 19.5421 16.6512 19.6317 16.7413C19.7213 16.8314 19.8428 16.8825 19.9699 16.8835H21.7932C21.9208 16.8835 22.0432 16.8328 22.1335 16.7425C22.2237 16.6523 22.2744 16.5299 22.2744 16.4023C22.2744 16.2746 22.2237 16.1522 22.1335 16.062C22.0432 15.9717 21.9208 15.921 21.7932 15.921H20.4521V15.0621H21.7932C21.9207 15.0616 22.0429 15.0106 22.1329 14.9202ZM18.3658 16.8817C18.4174 16.8817 18.4688 16.8737 18.5179 16.8578C18.6138 16.8261 18.6972 16.765 18.7564 16.6833C18.8156 16.6015 18.8476 16.5032 18.8479 16.4023V12.7576C18.8479 12.4945 18.6298 12.2763 18.3667 12.2763C18.1008 12.2763 17.8854 12.4945 17.8854 12.7576V15.0163L16.0044 12.4725C15.9598 12.4141 15.9028 12.3664 15.8375 12.3328C15.7722 12.2992 15.7002 12.2805 15.6267 12.2782C15.5 12.2787 15.3786 12.3294 15.2893 12.4193C15.1999 12.5092 15.1498 12.6308 15.1501 12.7576V16.4023C15.1593 16.5232 15.2138 16.6363 15.3028 16.7188C15.3918 16.8013 15.5086 16.8471 15.63 16.8471C15.7513 16.8471 15.8682 16.8013 15.9571 16.7188C16.0461 16.6363 16.1007 16.5232 16.1098 16.4023V14.1564L17.9762 16.6901C18.021 16.7509 18.0798 16.8 18.1476 16.8333C18.2154 16.8667 18.2902 16.8832 18.3658 16.8817ZM13.6419 16.741C13.7317 16.831 13.8533 16.8819 13.9804 16.8826C14.1079 16.8823 14.2301 16.8317 14.3204 16.7417C14.4108 16.6518 14.4619 16.5297 14.4626 16.4023V12.7576C14.4626 12.4945 14.2472 12.2763 13.9823 12.2763C13.7164 12.2763 13.501 12.4945 13.501 12.7576V16.4023C13.5015 16.5293 13.5521 16.6511 13.6419 16.741ZM10.7565 16.8826H12.5779L12.5798 16.8835C12.7074 16.8835 12.8298 16.8328 12.92 16.7425C13.0103 16.6523 13.061 16.5299 13.061 16.4023C13.061 16.2746 13.0103 16.1522 12.92 16.062C12.8298 15.9717 12.7074 15.921 12.5798 15.921H11.2378V12.7576C11.2378 12.4945 11.0223 12.2763 10.7565 12.2763C10.4934 12.2763 10.2753 12.4945 10.2753 12.7576V16.4023C10.2762 16.5295 10.3273 16.6513 10.4173 16.7412C10.5074 16.8311 10.6292 16.8819 10.7565 16.8826ZM7 14.4433C7 10.3403 11.1131 7.00092 16.1667 7.00092L16.1658 7C21.2184 7 25.3324 10.3394 25.3324 14.4424C25.3324 16.0805 24.7036 17.5591 23.3873 19.0019C21.4623 21.2148 17.1649 23.918 16.1786 24.3296C15.2383 24.7244 15.3324 24.1251 15.3723 23.8708C15.3741 23.8588 15.3759 23.8476 15.3774 23.8373L15.503 23.0582C15.5342 22.818 15.5653 22.4623 15.4737 22.2332C15.371 21.9793 14.964 21.8454 14.6661 21.7822C10.2615 21.1973 7 18.1182 7 14.4433Z" fill="#333333"/>
</svg>
