<svg width="20" height="20" viewBox="0 0 20 20" fill="none" xmlns="http://www.w3.org/2000/svg">
<g clip-path="url(#clip0_7252_269282)">
<path fill-rule="evenodd" clip-rule="evenodd" d="M10.75 3.5C10.75 3.08579 10.4142 2.75 10 2.75C9.58579 2.75 9.25 3.08579 9.25 3.5V9.25H3.5C3.08579 9.25 2.75 9.58579 2.75 10C2.75 10.4142 3.08579 10.75 3.5 10.75H9.25V16.5C9.25 16.9142 9.58579 17.25 10 17.25C10.4142 17.25 10.75 16.9142 10.75 16.5V10.75H16.5C16.9142 10.75 17.25 10.4142 17.25 10C17.25 9.58579 16.9142 9.25 16.5 9.25H10.75V3.5Z" fill="white"/>
</g>
<defs>
<clipPath id="clip0_7252_269282">
<rect width="20" height="20" fill="white"/>
</clipPath>
</defs>
</svg>
