<svg width="33" height="32" viewBox="0 0 33 32" fill="none" xmlns="http://www.w3.org/2000/svg">
<path fill-rule="evenodd" clip-rule="evenodd" d="M12.5 16.5C12.5 17.3284 11.8284 18 11 18C10.1716 18 9.5 17.3284 9.5 16.5C9.5 15.6716 10.1716 15 11 15C11.8284 15 12.5 15.6716 12.5 16.5ZM18.5 16.5C18.5 17.3284 17.8284 18 17 18C16.1716 18 15.5 17.3284 15.5 16.5C15.5 15.6716 16.1716 15 17 15C17.8284 15 18.5 15.6716 18.5 16.5ZM23 18C23.8284 18 24.5 17.3284 24.5 16.5C24.5 15.6716 23.8284 15 23 15C22.1716 15 21.5 15.6716 21.5 16.5C21.5 17.3284 22.1716 18 23 18Z" fill="#333333"/>
</svg>
