<?xml version="1.0" encoding="utf-8"?>
<svg version="1.1" xmlns:xlink="http://www.w3.org/1999/xlink" width="22px" height="22px" xmlns="http://www.w3.org/2000/svg">
  <g transform="matrix(1 0 0 1 -689 -298 )">
    <path d="M 17.9733 9.3615  C 17.9733 4.60551  14.1178 0.75  9.3618 0.75  C 4.60575 0.75  0.75024 4.60551  0.75024 9.3615  C 0.75024 14.1175  4.60575 17.973  9.3618 17.973  C 11.4916 17.973  13.440800000000001 17.1998  14.9441 15.918800000000001  L 19.9661 21.0256  C 20.2565 21.321  20.7314 21.325  21.0267 21.0345  C 21.322 20.7441  21.326 20.2692  21.0356 19.9739  L 15.997399999999999 14.8506  C 17.2315 13.3604  17.9733 11.4476  17.9733 9.3615  Z M 9.3618 16.473  C 5.43418 16.473  2.25024 13.2891  2.25024 9.3615  C 2.25024 5.43394  5.43418 2.25  9.3618 2.25  C 13.2893 2.25  16.4733 5.43394  16.4733 9.3615  C 16.4733 13.2891  13.2893 16.473  9.3618 16.473  Z " fill-rule="nonzero" fill="#ffffff" stroke="none" transform="matrix(1 0 0 1 689 298 )" />
  </g>
</svg>