<svg width="16" height="16" viewBox="0 0 16 16" fill="none" xmlns="http://www.w3.org/2000/svg">
<g clip-path="url(#clip0_1396_110451)">
<path d="M12.2333 15.3596C11.3661 16.2012 10.4093 16.07 9.49728 15.6732C8.52768 15.2684 7.64128 15.2428 6.61728 15.6732C5.34208 16.2236 4.66528 16.0636 3.89728 15.3596C-0.438718 10.8956 0.201282 4.09562 5.12928 3.83962C6.32448 3.90362 7.16128 4.50042 7.86528 4.55001C8.91168 4.33722 9.91328 3.72762 11.0333 3.80762C12.3789 3.91642 13.3853 4.44762 14.0573 5.40281C11.2893 7.06681 11.9453 10.7148 14.4877 11.7388C13.9789 13.0748 13.3261 14.3948 12.2317 15.3708L12.2333 15.3596ZM7.76928 3.79162C7.63968 1.80762 9.24768 0.175625 11.0973 0.015625C11.3517 2.30362 9.01728 4.01562 7.76928 3.79162Z" fill="black"/>
</g>
<defs>
<clipPath id="clip0_1396_110451">
<rect width="13.472" height="16" fill="white" transform="translate(1)"/>
</clipPath>
</defs>
</svg>
