<svg width="64" height="64" viewBox="0 0 64 64" fill="none" xmlns="http://www.w3.org/2000/svg">
<g id="Icon_Guide_64">
<rect width="64" height="64" fill="white"/>
<path id="Union" fill-rule="evenodd" clip-rule="evenodd" d="M31.9832 5C20.0914 5 10.4511 14.6403 10.4511 26.5321V28.1672H9.75C7.12665 28.1672 5 30.2938 5 32.9172V40.5891C5 43.2125 7.12665 45.3391 9.75 45.3391H15.9708H16.7208V44.5891V28.9172V28.1672H15.9708H11.9511V26.5321C11.9511 15.4687 20.9198 6.5 31.9832 6.5C43.0468 6.5 52.0157 15.4661 52.0158 26.5294L52.0158 28.1672H47.9961H47.2461V28.9172V44.5891V45.3391H47.9961H52.0156C51.9786 52.0434 46.5324 57.4669 39.8194 57.4669H33.0055H32.2555V58.9669H33.0055H39.8194C47.3608 58.9669 53.4787 52.8718 53.5156 45.3391H54.2169C56.8402 45.3391 58.9669 43.2125 58.9669 40.5891V32.9172C58.9669 30.2938 56.8402 28.1672 54.2169 28.1672H53.5158L53.5158 26.5294C53.5157 14.6374 43.8749 5 31.9832 5ZM15.2208 29.6672V43.8391H9.75C7.95507 43.8391 6.5 42.384 6.5 40.5891V32.9172C6.5 31.1223 7.95507 29.6672 9.75 29.6672H15.2208ZM48.7461 43.8391V29.6672H54.2169C56.0118 29.6672 57.4669 31.1223 57.4669 32.9172V40.5891C57.4669 42.384 56.0118 43.8391 54.2169 43.8391H48.7461Z" fill="black"/>
</g>
</svg>
