<svg width="72" height="72" viewBox="0 0 72 72" fill="none" xmlns="http://www.w3.org/2000/svg">
<path fill-rule="evenodd" clip-rule="evenodd" d="M16.8926 13.3999C14.2692 13.3999 12.1426 15.5265 12.1426 18.1499V41.3318V42.274C12.1426 44.8974 14.2692 47.024 16.8926 47.024H22.0269V52.753C22.0269 53.7514 23.1396 54.3469 23.9703 53.7931L34.1239 47.024H48.43C51.0533 47.024 53.18 44.8974 53.18 42.274V18.1499C53.18 15.5265 51.0533 13.3999 48.43 13.3999H16.8926ZM13.6426 18.1499C13.6426 16.355 15.0977 14.8999 16.8926 14.8999H48.43C50.2249 14.8999 51.68 16.355 51.68 18.1499V42.274C51.68 44.0689 50.2249 45.524 48.43 45.524H33.8968C33.7487 45.524 33.604 45.5678 33.4808 45.65L23.5269 52.2859V46.274C23.5269 45.8598 23.1911 45.524 22.7769 45.524H16.8926C15.0977 45.524 13.6426 44.0689 13.6426 42.274V41.3318V18.1499ZM40.6009 52.581H31.632V51.081H40.828H41.0551L41.244 51.2069L49.7546 56.8806V51.831V51.081H50.5046H55.106C56.9009 51.081 58.356 49.6259 58.356 47.831V47.5303V27.8764C58.356 26.2001 57.0869 24.8202 55.457 24.6451V23.1392C57.9165 23.3188 59.856 25.3711 59.856 27.8764V47.5303V47.831C59.856 50.4543 57.7293 52.581 55.106 52.581H51.2546V57.3478C51.2546 58.3461 50.1419 58.9416 49.3112 58.3878L40.6009 52.581ZM22.0429 24.0508C22.0429 23.6366 22.3787 23.3008 22.7929 23.3008H43.1984C43.6126 23.3008 43.9484 23.6366 43.9484 24.0508C43.9484 24.465 43.6126 24.8008 43.1984 24.8008H22.7929C22.3787 24.8008 22.0429 24.465 22.0429 24.0508ZM22.7929 31.7071C22.3787 31.7071 22.0429 32.0428 22.0429 32.4571C22.0429 32.8713 22.3787 33.2071 22.7929 33.2071H32.9957C33.4099 33.2071 33.7457 32.8713 33.7457 32.4571C33.7457 32.0428 33.4099 31.7071 32.9957 31.7071H22.7929Z" fill="#EA1917"/>
</svg>
