<svg width="32" height="33" viewBox="0 0 32 33" fill="none" xmlns="http://www.w3.org/2000/svg">
<g clip-path="url(#clip0_431_10069)">
<path fill-rule="evenodd" clip-rule="evenodd" d="M16 32.6387C12.8355 32.6387 9.74198 31.7003 7.11079 29.9422C4.4796 28.1841 2.42894 25.6852 1.21793 22.7616C0.00693185 19.838 -0.309921 16.6209 0.307443 13.5172C0.924806 10.4135 2.4486 7.56261 4.68624 5.32497C6.92388 3.08732 9.77484 1.56348 12.8785 0.946115C15.9822 0.328751 19.1992 0.645604 22.1228 1.85661C25.0465 3.06761 27.5453 5.11837 29.3034 7.74956C31.0615 10.3807 32 13.4742 32 16.6387C32 20.8821 30.3143 24.9518 27.3137 27.9524C24.3131 30.953 20.2434 32.6387 16 32.6387ZM19.4011 16.1258L19.6846 13.3738H17.2617V11.7527C17.2481 11.6566 17.2559 11.5586 17.2846 11.4658C17.3133 11.3731 17.3622 11.2878 17.4278 11.2161C17.4933 11.1445 17.5738 11.0882 17.6637 11.0514C17.7535 11.0145 17.8504 10.998 17.9474 11.003H19.6937V8.32783L17.2891 8.31867C16.8512 8.28432 16.411 8.34541 15.999 8.4977C15.5869 8.65 15.2128 8.8899 14.9025 9.20082C14.5922 9.51173 14.3531 9.88627 14.2016 10.2986C14.0501 10.7109 13.9899 11.1512 14.0251 11.5891V13.3719H12.48V16.1258H14.0251V23.963H17.2617V16.1258H19.4011Z" fill="#646464"/>
</g>
<defs>
<clipPath id="clip0_431_10069">
<rect width="32" height="32" fill="white" transform="translate(0 0.638672)"/>
</clipPath>
</defs>
</svg>
