<svg width="20" height="20" viewBox="0 0 20 20" fill="none" xmlns="http://www.w3.org/2000/svg">
<g clip-path="url(#clip0_1887_42519)">
<path d="M16.2495 5.76465C16.8964 6.24979 17.4214 6.87887 17.783 7.60208C18.1446 8.32528 18.3328 9.12275 18.3328 9.93131C18.3328 10.7399 18.1446 11.5373 17.783 12.2606C17.4214 12.9838 16.8964 13.6128 16.2495 14.098" stroke="black" stroke-width="1.5" stroke-linecap="round" stroke-linejoin="round"/>
<path d="M5.83342 14.098H2.70841C2.43215 14.098 2.1672 13.9883 1.97185 13.7929C1.77649 13.5976 1.66675 13.3326 1.66675 13.0564V6.80638C1.66675 6.53011 1.77649 6.26516 1.97185 6.06981C2.1672 5.87446 2.43215 5.76471 2.70841 5.76471H5.83342L10.5209 2.11888C10.612 1.94204 10.7633 1.80359 10.9475 1.72856C11.1317 1.65353 11.3366 1.64686 11.5253 1.70976C11.714 1.77266 11.874 1.90097 11.9764 2.07152C12.0787 2.24208 12.1167 2.44361 12.0834 2.63971V17.223C12.1167 17.4191 12.0787 17.6207 11.9764 17.7912C11.874 17.9618 11.714 18.0901 11.5253 18.153C11.3366 18.2159 11.1317 18.2092 10.9475 18.1342C10.7633 18.0592 10.612 17.9207 10.5209 17.7439L5.83342 14.098Z" stroke="black" stroke-width="1.5" stroke-linecap="round" stroke-linejoin="round"/>
</g>
<defs>
<clipPath id="clip0_1887_42519">
<rect width="20" height="20" fill="white"/>
</clipPath>
</defs>
</svg>
