<svg width="64" height="64" viewBox="0 0 64 64" fill="none" xmlns="http://www.w3.org/2000/svg">
<g clip-path="url(#clip0_4559_202071)">
<path d="M50.7309 30.8371V18.263L34.925 2.45703H6.26911C5.72739 2.45703 5.20787 2.67222 4.82482 3.05527C4.44177 3.43832 4.22656 3.95785 4.22656 4.49956V47.367C4.22656 49.5178 5.081 51.5806 6.60188 53.1015C8.12277 54.6224 10.1855 55.4768 12.3364 55.4768H26.8841" stroke="black" stroke-width="1.5" stroke-linecap="round" stroke-linejoin="round"/>
<path d="M44.2984 51.6516C49.7531 51.6516 54.175 47.2297 54.175 41.775C54.175 36.3203 49.7531 31.8984 44.2984 31.8984C38.8438 31.8984 34.4219 36.3203 34.4219 41.775C34.4219 47.2297 38.8438 51.6516 44.2984 51.6516Z" stroke="black" stroke-width="1.5" stroke-linecap="round" stroke-linejoin="round"/>
<path d="M44.9375 51.6266L38.448 62.1668L35.8194 56.4787L29.5625 56.6941L35.7246 46.6797" stroke="black" stroke-width="1.5" stroke-linecap="round" stroke-linejoin="round"/>
<path d="M44.3047 51.6531L50.303 62.0726L53.0954 56.4621L59.3522 56.8672L53.1902 46.1719" stroke="black" stroke-width="1.5" stroke-linecap="round" stroke-linejoin="round"/>
<path d="M14.4844 16.8164H24.9384" stroke="black" stroke-width="1.5" stroke-linecap="round" stroke-linejoin="round"/>
<path d="M14.4844 23.2188H24.9384" stroke="black" stroke-width="1.5" stroke-linecap="round" stroke-linejoin="round"/>
<path d="M14.4844 29.6172H32.0054" stroke="black" stroke-width="1.5" stroke-linecap="round" stroke-linejoin="round"/>
<path d="M14.4844 36.0156H32.0054" stroke="black" stroke-width="1.5" stroke-linecap="round" stroke-linejoin="round"/>
<path d="M50.7278 18.263H38.9811C38.4484 18.2641 37.9208 18.1602 37.4283 17.9571C36.9359 17.7541 36.4884 17.4559 36.1113 17.0796C35.7343 16.7034 35.4351 16.2565 35.231 15.7645C35.0269 15.2725 34.9219 14.7451 34.9219 14.2124V2.45703" stroke="black" stroke-width="1.5" stroke-linecap="round" stroke-linejoin="round"/>
</g>
<defs>
<clipPath id="clip0_4559_202071">
<rect width="56.424" height="61.0003" fill="white" transform="translate(3.57812 1.8125)"/>
</clipPath>
</defs>
</svg>
