<svg width="60" height="60" viewBox="0 0 60 60" fill="none" xmlns="http://www.w3.org/2000/svg">
<path fill-rule="evenodd" clip-rule="evenodd" d="M47.1263 19.0023V4.50049H45.1263V19.6422L38.0387 13.3763L36.714 14.8747L45.339 22.4997L46.0822 23.1567L46.7452 22.4189L54.4952 13.7939L53.0075 12.4571L47.1263 19.0023ZM30.0015 6.22952C16.9245 6.22952 6.23047 16.9236 6.23047 30.0005C6.23047 43.0775 16.9245 53.7715 30.0015 53.7715C43.0784 53.7715 53.7725 43.0775 53.7725 30.0005C53.7725 29.2986 53.2034 28.7295 52.5015 28.7295H46.7515H45.4805V31.2715H46.7515H51.1925C50.5292 42.3593 41.2479 51.2295 30.0015 51.2295C18.3284 51.2295 8.77247 41.6736 8.77247 30.0005C8.77247 18.3275 18.3284 8.77152 30.0015 8.77152H31.2725V6.22952H30.0015ZM24.1472 30.0006C24.1472 26.7675 26.7682 24.1466 30.0012 24.1466C33.2343 24.1466 35.8552 26.7675 35.8552 30.0006C35.8552 33.2337 33.2343 35.8546 30.0012 35.8546C26.7682 35.8546 24.1472 33.2337 24.1472 30.0006ZM30.0012 21.6046C25.3642 21.6046 21.6052 25.3636 21.6052 30.0006C21.6052 34.6376 25.3642 38.3966 30.0012 38.3966C34.6382 38.3966 38.3972 34.6376 38.3972 30.0006C38.3972 25.3636 34.6382 21.6046 30.0012 21.6046Z" fill="#1D1D1B"/>
<path d="M47.1263 4.50049H47.5263V4.10049H47.1263V4.50049ZM47.1263 19.0023H46.7263V20.046L47.4239 19.2697L47.1263 19.0023ZM45.1263 4.50049V4.10049H44.7263V4.50049H45.1263ZM45.1263 19.6422L44.8614 19.9419L45.5263 20.5297V19.6422H45.1263ZM38.0387 13.3763L38.3036 13.0766L38.0039 12.8117L37.739 13.1114L38.0387 13.3763ZM36.714 14.8747L36.4143 14.6098L36.1494 14.9095L36.4491 15.1744L36.714 14.8747ZM45.339 22.4997L45.0741 22.7994L45.339 22.4997ZM46.0822 23.1567L45.8172 23.4564L46.1145 23.7192L46.3797 23.4241L46.0822 23.1567ZM46.7452 22.4189L47.0427 22.6862L46.7452 22.4189ZM54.4952 13.7939L54.7927 14.0612L55.0601 13.7637L54.7625 13.4964L54.4952 13.7939ZM53.0075 12.4571L53.2749 12.1596L52.9773 11.8923L52.71 12.1898L53.0075 12.4571ZM45.4805 28.7295V28.3295H45.0805V28.7295H45.4805ZM45.4805 31.2715H45.0805V31.6715H45.4805V31.2715ZM51.1925 31.2715L51.5918 31.2954L51.6172 30.8715H51.1925V31.2715ZM31.2725 8.77152V9.17152H31.6725V8.77152H31.2725ZM31.2725 6.22952H31.6725V5.82952H31.2725V6.22952ZM46.7263 4.50049V19.0023H47.5263V4.50049H46.7263ZM45.1263 4.90049H47.1263V4.10049H45.1263V4.90049ZM45.5263 19.6422V4.50049H44.7263V19.6422H45.5263ZM45.3913 19.3425L38.3036 13.0766L37.7737 13.676L44.8614 19.9419L45.3913 19.3425ZM37.739 13.1114L36.4143 14.6098L37.0137 15.1397L38.3384 13.6413L37.739 13.1114ZM36.4491 15.1744L45.0741 22.7994L45.6039 22.2L36.9789 14.575L36.4491 15.1744ZM45.0741 22.7994L45.8172 23.4564L46.3471 22.8571L45.6039 22.2L45.0741 22.7994ZM46.3797 23.4241L47.0427 22.6862L46.4476 22.1515L45.7847 22.8894L46.3797 23.4241ZM47.0427 22.6862L54.7927 14.0612L54.1976 13.5265L46.4476 22.1515L47.0427 22.6862ZM54.7625 13.4964L53.2749 12.1596L52.7402 12.7547L54.2278 14.0914L54.7625 13.4964ZM52.71 12.1898L46.8288 18.735L47.4239 19.2697L53.305 12.7245L52.71 12.1898ZM6.63047 30.0005C6.63047 17.1445 17.1454 6.62952 30.0015 6.62952V5.82952C16.7036 5.82952 5.83047 16.7027 5.83047 30.0005H6.63047ZM30.0015 53.3715C17.1454 53.3715 6.63047 42.8566 6.63047 30.0005H5.83047C5.83047 43.2984 16.7036 54.1715 30.0015 54.1715V53.3715ZM53.3725 30.0005C53.3725 42.8566 42.8575 53.3715 30.0015 53.3715V54.1715C43.2993 54.1715 54.1725 43.2984 54.1725 30.0005H53.3725ZM52.5015 29.1295C52.9825 29.1295 53.3725 29.5195 53.3725 30.0005H54.1725C54.1725 29.0777 53.4243 28.3295 52.5015 28.3295V29.1295ZM46.7515 29.1295H52.5015V28.3295H46.7515V29.1295ZM45.4805 29.1295H46.7515V28.3295H45.4805V29.1295ZM45.8805 31.2715V28.7295H45.0805V31.2715H45.8805ZM46.7515 30.8715H45.4805V31.6715H46.7515V30.8715ZM51.1925 30.8715H46.7515V31.6715H51.1925V30.8715ZM30.0015 51.6295C41.4611 51.6295 50.9159 42.5928 51.5918 31.2954L50.7933 31.2476C50.1424 42.1257 41.0347 50.8295 30.0015 50.8295V51.6295ZM8.37247 30.0005C8.37247 41.8945 18.1075 51.6295 30.0015 51.6295V50.8295C18.5493 50.8295 9.17247 41.4527 9.17247 30.0005H8.37247ZM30.0015 8.37152C18.1075 8.37152 8.37247 18.1066 8.37247 30.0005H9.17247C9.17247 18.5484 18.5493 9.17152 30.0015 9.17152V8.37152ZM31.2725 8.37152H30.0015V9.17152H31.2725V8.37152ZM30.8725 6.22952V8.77152H31.6725V6.22952H30.8725ZM30.0015 6.62952H31.2725V5.82952H30.0015V6.62952ZM30.0012 23.7466C26.5472 23.7466 23.7472 26.5466 23.7472 30.0006H24.5472C24.5472 26.9884 26.9891 24.5466 30.0012 24.5466V23.7466ZM36.2552 30.0006C36.2552 26.5466 33.4552 23.7466 30.0012 23.7466V24.5466C33.0134 24.5466 35.4552 26.9884 35.4552 30.0006H36.2552ZM30.0012 36.2546C33.4552 36.2546 36.2552 33.4546 36.2552 30.0006H35.4552C35.4552 33.0127 33.0134 35.4546 30.0012 35.4546V36.2546ZM23.7472 30.0006C23.7472 33.4546 26.5472 36.2546 30.0012 36.2546V35.4546C26.9891 35.4546 24.5472 33.0127 24.5472 30.0006H23.7472ZM22.0052 30.0006C22.0052 25.5845 25.5852 22.0046 30.0012 22.0046V21.2046C25.1433 21.2046 21.2052 25.1427 21.2052 30.0006H22.0052ZM30.0012 37.9966C25.5852 37.9966 22.0052 34.4166 22.0052 30.0006H21.2052C21.2052 34.8585 25.1433 38.7966 30.0012 38.7966V37.9966ZM37.9972 30.0006C37.9972 34.4166 34.4173 37.9966 30.0012 37.9966V38.7966C34.8591 38.7966 38.7972 34.8585 38.7972 30.0006H37.9972ZM30.0012 22.0046C34.4173 22.0046 37.9972 25.5845 37.9972 30.0006H38.7972C38.7972 25.1427 34.8591 21.2046 30.0012 21.2046V22.0046Z" fill="white"/>
</svg>
