<svg width="48" height="48" viewBox="0 0 48 48" fill="none" xmlns="http://www.w3.org/2000/svg">
<g clip-path="url(#clip0_2696_102712)">
<path d="M37.4516 25.0483V14.0126C37.4502 13.2889 37.241 12.5809 36.8493 11.9735C36.4557 11.3669 35.8986 10.8851 35.2429 10.5843L21.6894 4.45581C21.203 4.23141 20.6741 4.11523 20.1388 4.11523C19.6036 4.11523 19.0746 4.23141 18.5882 4.45581L5.30242 10.5731C4.63987 10.8661 4.07632 11.346 3.68026 11.9546C3.28419 12.5633 3.07266 13.2743 3.07138 14.0014V28.1181C3.06663 28.8081 3.25024 29.4863 3.60228 30.0788C3.95431 30.6714 4.4613 31.1558 5.06816 31.4793L18.4544 38.5712C18.9935 38.853 19.5924 39.0002 20.2002 39.0002C20.808 39.0002 21.4068 38.853 21.9459 38.5712L26.1626 36.3305" stroke="#333333" stroke-width="2" stroke-linejoin="round"/>
<path d="M29.8656 27.1666V17.4306C29.8652 16.699 29.6544 15.9832 29.2586 15.369C28.8628 14.7549 28.2989 14.2686 27.6345 13.9686L13.1328 6.95508" stroke="#333333" stroke-width="2" stroke-linejoin="round"/>
<path d="M3.56152 11.7051C8.38056 14.0355 15.4306 17.307 20.2943 19.6261L36.6589 12.03" stroke="#333333" stroke-width="2" stroke-linejoin="round"/>
<path d="M20.2607 38.8295V19.7383" stroke="#333333" stroke-width="2" stroke-linejoin="round"/>
<path d="M36.012 44.8677C41.4643 44.8677 45.8843 40.4285 45.8843 34.9524C45.8843 29.4763 41.4643 25.0371 36.012 25.0371C30.5596 25.0371 26.1396 29.4763 26.1396 34.9524C26.1396 40.4285 30.5596 44.8677 36.012 44.8677Z" stroke="#333333" stroke-width="2" stroke-linejoin="round"/>
<path d="M32 35H40" stroke="#333333" stroke-width="2" stroke-linecap="round" stroke-linejoin="round"/>
<path d="M36 31V39" stroke="#333333" stroke-width="2" stroke-linecap="round" stroke-linejoin="round"/>
</g>
<defs>
<clipPath id="clip0_2696_102712">
<rect width="45" height="43" fill="white" transform="translate(2 3)"/>
</clipPath>
</defs>
</svg>
