<svg width="80" height="80" viewBox="0 0 80 80" fill="none" xmlns="http://www.w3.org/2000/svg">
<rect x="3" y="12" width="74" height="32" rx="3" stroke="black" stroke-width="1.5"/>
<path d="M11 36C11 34.8954 11.8954 34 13 34H67C68.1046 34 69 34.8954 69 36V44H11V36Z" stroke="black" stroke-width="1.5"/>
<path d="M11 37.5H69" stroke="black" stroke-width="1.5" stroke-linecap="round" stroke-linejoin="round"/>
<path d="M11 40.5H69" stroke="black" stroke-width="1.5" stroke-linecap="round" stroke-linejoin="round"/>
<path d="M34 48V61C34 63.7614 31.7614 66 29 66V66C26.2386 66 24 63.7614 24 61V61" stroke="black" stroke-width="1.5" stroke-linecap="round" stroke-linejoin="round"/>
<path d="M45.25 48C45.25 47.5858 45.5858 47.25 46 47.25C46.4142 47.25 46.75 47.5858 46.75 48H45.25ZM46.75 48V62H45.25V48H46.75ZM53.25 62V61.9375H54.75V62H53.25ZM50 65.25C51.7949 65.25 53.25 63.7949 53.25 62H54.75C54.75 64.6234 52.6234 66.75 50 66.75V65.25ZM46.75 62C46.75 63.7949 48.2051 65.25 50 65.25V66.75C47.3766 66.75 45.25 64.6234 45.25 62H46.75Z" fill="black"/>
<path d="M40 48L40 62" stroke="black" stroke-width="1.5" stroke-linecap="round" stroke-linejoin="round"/>
</svg>
