<svg width="80" height="80" viewBox="0 0 80 80" fill="none" xmlns="http://www.w3.org/2000/svg">
<path fill-rule="evenodd" clip-rule="evenodd" d="M13.75 11C11.6789 11 10 12.6789 10 14.75V64.75C10 66.8211 11.6789 68.5 13.75 68.5H47.75C48.9769 68.5 50.0661 67.9108 50.7503 67H48V66.9863C47.9179 66.9953 47.8345 67 47.75 67H13.75C12.5074 67 11.5 65.9926 11.5 64.75V14.75C11.5 13.5074 12.5074 12.5 13.75 12.5H47.75C48.9926 12.5 50 13.5074 50 14.75V24H51.5V14.75C51.5 12.6789 49.8211 11 47.75 11H13.75Z" fill="white"/>
<circle cx="30.75" cy="60.75" r="2" stroke="white" stroke-width="1.5"/>
<path d="M29.75 16.75H36.25" stroke="white" stroke-width="1.5" stroke-linecap="round"/>
<path d="M26.75 16.75L25.75 16.75" stroke="white" stroke-width="1.5" stroke-linecap="round"/>
<path d="M57.75 27.75L60.75 27.75" stroke="white" stroke-width="1.5" stroke-linecap="round"/>
<path d="M53.75 27.75L54.75 27.75" stroke="white" stroke-width="1.5" stroke-linecap="round"/>
<rect x="44.75" y="23.75" width="26" height="44" rx="3" stroke="white" stroke-width="1.5"/>
</svg>
