<svg width="32" height="32" viewBox="0 0 32 32" fill="none" xmlns="http://www.w3.org/2000/svg">
<ellipse cx="16.0001" cy="15.9998" rx="13.3333" ry="13.3333" fill="black" fill-opacity="0.7"/>
<circle cx="16.0001" cy="16.0006" r="12.8333" stroke="white"/>
<path fill-rule="evenodd" clip-rule="evenodd" d="M9.33325 15.8967C9.33325 16.3662 9.46637 16.8268 9.71838 17.2295C9.79587 17.3534 9.89885 17.4604 10.0221 17.5437C10.1453 17.6269 10.2854 17.6846 10.4332 17.7129L11.6532 17.947C11.7257 17.9609 11.791 17.9982 11.8384 18.0526L13.3307 19.768C14.1825 20.7479 14.6091 21.2375 14.9888 21.1063C15.3693 20.9737 15.3693 20.3363 15.3693 19.0609V12.7338C15.3693 11.4576 15.3693 10.8196 14.9881 10.6877C14.6084 10.5558 14.1818 11.0454 13.33 12.026L11.8398 13.7407C11.7923 13.7952 11.7267 13.8325 11.6539 13.8463L10.4339 14.0804C10.2861 14.1087 10.146 14.1664 10.0228 14.2496C9.89957 14.3329 9.79587 14.4399 9.71838 14.5638C9.46637 14.9665 9.33325 15.4271 9.33325 15.8967ZM20.5699 11.5689C20.3373 11.346 19.968 11.3539 19.7451 11.5865C19.5222 11.8191 19.5301 12.1884 19.7627 12.4113C20.727 13.3353 21.2663 14.5818 21.2716 15.8776C21.2769 17.1733 20.7478 18.4237 19.7911 19.3548C19.5603 19.5795 19.5553 19.9488 19.78 20.1797C20.0047 20.4106 20.374 20.4156 20.6049 20.1909C21.7828 19.0443 22.4449 17.4927 22.4383 15.8728C22.4317 14.2529 21.757 12.7064 20.5699 11.5689ZM17.6003 13.0336C17.3677 12.8107 16.9984 12.8186 16.7755 13.0512C16.5526 13.2838 16.5605 13.653 16.7931 13.8759C17.354 14.4135 17.6657 15.1364 17.6687 15.8855C17.6717 16.6346 17.3658 17.3596 16.8093 17.9011C16.5785 18.1258 16.5734 18.4951 16.7981 18.726C17.0228 18.9569 17.3921 18.9619 17.623 18.7372C18.4008 17.9803 18.8396 16.9541 18.8353 15.8808C18.8311 14.8075 18.384 13.7847 17.6003 13.0336Z" fill="white"/>
</svg>
