<svg xmlns="http://www.w3.org/2000/svg" width="35" height="35" viewBox="0 0 35 35"><path fill="#333" fill-rule="evenodd" d="M17.5 34.998C7.835 34.998 0 27.163 0 17.499 0 7.834 7.835-.002 17.5-.002S35 7.834 35 17.499c0 9.664-7.835 17.499-17.5 17.499Zm2.966-8.102a3.011 3.011 0 0 0 3.688-2.129l.49-1.831a9 9 0 0 1-6.008 3.469l1.83.491Zm-12.362-6.43a3.012 3.012 0 0 0 2.129 3.688l1.83.49a9.007 9.007 0 0 1-3.469-6.008l-.49 1.83Zm6.43-12.362a3.01 3.01 0 0 0-3.688 2.128l-.491 1.831a9.008 9.008 0 0 1 6.009-3.469l-1.83-.49Zm4.906 2.155a7.496 7.496 0 1 0-3.88 14.482 7.496 7.496 0 0 0 3.88-14.482Zm5.327.586-1.83-.49a9.007 9.007 0 0 1 3.468 6.008l.491-1.83a3.012 3.012 0 0 0-2.129-3.688Zm-4.623 6.894a2.163 2.163 0 1 1 1.119-4.179 2.163 2.163 0 0 1-1.119 4.179Zm-2.891.684a.956.956 0 1 1 .495-1.847.956.956 0 0 1-.495 1.847Zm-2.163-2.038a2.162 2.162 0 1 1 1.12-4.179 2.163 2.163 0 1 1-1.12 4.179Zm-.234.875a2.163 2.163 0 1 1-1.119 4.179 2.163 2.163 0 0 1 1.119-4.179Zm5.054 1.354a2.162 2.162 0 1 1-1.12 4.179 2.163 2.163 0 1 1 1.12-4.179Z"/></svg>