<svg width="12" height="12" viewBox="0 0 12 12" fill="none" xmlns="http://www.w3.org/2000/svg">
<g clip-path="url(#clip0_3762_62214)">
<path fill-rule="evenodd" clip-rule="evenodd" d="M8.8608 5.63631C8.94825 5.78976 8.94825 5.97796 8.8608 6.13141L7.64483 8.26526C7.55589 8.42134 7.39006 8.51771 7.21041 8.51771H4.77847C4.59883 8.51771 4.43299 8.42134 4.34405 8.26526L3.12808 6.13141C3.04064 5.97796 3.04064 5.78976 3.12808 5.63631L4.34405 3.50245C4.433 3.34637 4.59883 3.25 4.77847 3.25L7.21041 3.25C7.39006 3.25 7.55589 3.34637 7.64483 3.50245L8.8608 5.63631ZM6.91985 4.25L5.06903 4.25L4.13798 5.88386L5.06903 7.51771H6.91985L7.8509 5.88386L6.91985 4.25Z" fill="black"/>
<path fill-rule="evenodd" clip-rule="evenodd" d="M0.5 0C0.223858 0 0 0.223858 0 0.5C0 0.760669 0.199473 0.974748 0.454102 0.997921V11.498C0.454102 11.7742 0.677959 11.998 0.954102 11.998H11.046C11.3221 11.998 11.546 11.7742 11.546 11.498V0.997823C11.8001 0.974147 11.999 0.760303 11.999 0.5C11.999 0.223858 11.7751 0 11.499 0H0.5ZM10.546 1H1.4541V10.998H10.546V1Z" fill="black"/>
</g>
<defs>
<clipPath id="clip0_3762_62214">
<rect width="12" height="12" fill="white"/>
</clipPath>
</defs>
</svg>
