<svg width="18" height="19" viewBox="0 0 18 19" fill="none" xmlns="http://www.w3.org/2000/svg">
<path d="M5 3.5H13.5C14.6046 3.5 15.5 4.39543 15.5 5.5V11.6562C15.5 12.7608 14.6046 13.6562 13.5 13.6562H9.64063L6.90235 15.4818C6.57007 15.7033 6.125 15.4651 6.125 15.0657V13.6562H4.5625C3.69956 13.6562 3 12.9567 3 12.0938V5.5C3 4.39543 3.89543 3.5 5 3.5Z" stroke="#DAA40D" stroke-linejoin="round"/>
<path fill-rule="evenodd" clip-rule="evenodd" d="M7.2002 10.8984H10.2002C11.3048 10.8984 12.2002 10.003 12.2002 8.89844C12.2002 7.79387 11.3048 6.89844 10.2002 6.89844H7.2002V7.89844H10.2002C10.7525 7.89844 11.2002 8.34615 11.2002 8.89844C11.2002 9.45072 10.7525 9.89844 10.2002 9.89844H7.2002V10.8984Z" fill="#DAA40D"/>
<path d="M8.2002 6.39844L7.2002 7.39844L8.2002 8.39844" stroke="#DAA40D" stroke-linecap="round" stroke-linejoin="round"/>
</svg>
