<svg width="16" height="16" viewBox="0 0 16 16" fill="none" xmlns="http://www.w3.org/2000/svg">
<g clip-path="url(#clip0_1396_110473)">
<path d="M15.8319 8.17935C15.8319 7.65268 15.7852 7.15268 15.7052 6.66602H8.17188V9.67268H12.4852C12.2919 10.6594 11.7252 11.4927 10.8852 12.0593V14.0593H13.4585C14.9652 12.666 15.8319 10.6127 15.8319 8.17935Z" fill="#4285F4"/>
<path d="M8.17125 16.0007C10.3313 16.0007 12.1379 15.2807 13.4579 14.0607L10.8846 12.0607C10.1646 12.5407 9.25125 12.834 8.17125 12.834C6.08458 12.834 4.31792 11.4273 3.68458 9.52734H1.03125V11.5873C2.34458 14.2007 5.04458 16.0007 8.17125 16.0007Z" fill="#34A853"/>
<path d="M3.68521 9.52739C3.51854 9.04739 3.43187 8.53406 3.43187 8.00073C3.43187 7.46739 3.52521 6.95406 3.68521 6.47406V4.41406H1.03187C0.485208 5.49406 0.171875 6.70739 0.171875 8.00073C0.171875 9.29406 0.485208 10.5074 1.03187 11.5874L3.68521 9.52739Z" fill="#FBBC05"/>
<path d="M8.17125 3.16667C9.35125 3.16667 10.4046 3.57334 11.2379 4.36667L13.5179 2.08667C12.1379 0.793334 10.3313 0 8.17125 0C5.04458 0 2.34458 1.8 1.03125 4.41334L3.68458 6.47334C4.31792 4.57334 6.08458 3.16667 8.17125 3.16667Z" fill="#EA4335"/>
</g>
<defs>
<clipPath id="clip0_1396_110473">
<rect width="16" height="16" fill="white"/>
</clipPath>
</defs>
</svg>
