<svg width="64" height="64" viewBox="0 0 64 64" fill="none" xmlns="http://www.w3.org/2000/svg">
<path d="M43.5671 36.2682C43.5671 36.2682 39.7128 34.3529 39.0403 34.1199C38.7717 33.9967 38.4819 33.9264 38.1867 33.9128C37.9256 33.9184 37.6707 33.9932 37.448 34.1296C37.2253 34.266 37.0428 34.4592 36.9192 34.6893C36.5312 35.2329 35.5945 36.3659 35.2582 36.7542C35.2145 36.8046 35.0031 37.0965 34.9016 37.0965L34.2031 36.8894C31.1703 35.3227 28.588 33.0061 26.7017 30.1598C26.6885 30.1089 26.6885 30.0554 26.7017 30.0045L26.9345 29.7457C27.1541 29.5153 27.3613 29.2733 27.5553 29.021L27.8657 28.6586C28.1211 28.364 28.3305 28.0324 28.4865 27.675L28.5395 27.4939C28.6732 27.2383 28.69 26.9541 28.69 26.6656C28.69 26.3771 28.6202 26.0929 28.4865 25.8374C28.4865 25.6562 26.8051 21.7996 26.6499 21.3855C26.2361 20.4278 25.6929 19.9619 24.9686 19.9619H24.5547C23.4698 20.0269 22.4073 20.2993 21.4248 20.7643C20.6079 21.4213 19.9607 22.2649 19.5376 23.2243C19.1145 24.1837 18.9278 25.2308 18.9933 26.2774C19.157 28.7068 20.3426 31.107 21.4982 32.9293L21.58 33.0846C24.1086 37.0984 27.7482 40.2906 32.0562 42.273C34.0406 43.2292 36.1944 43.7834 38.3936 43.9037H39.4283H39.6094C40.5788 43.7307 41.4974 43.3435 42.2984 42.7704C43.0994 42.1973 43.7625 41.4526 44.2396 40.5907C44.7342 39.5127 44.8438 38.2974 44.55 37.1482C44.3039 36.7748 43.9652 36.4716 43.5671 36.2682Z" stroke="black" stroke-width="1.5" stroke-linecap="round" stroke-linejoin="round"/>
<path d="M27.6047 57.4915C31.1689 58.0889 34.948 57.9841 38.4481 57.0837C43.8017 55.7048 48.5731 52.646 52.0626 48.3557C55.5521 44.0654 57.5762 38.7693 57.8381 33.244C58.1 27.7187 56.5859 22.2547 53.5179 17.6532C50.4499 13.0517 45.9893 9.55477 40.7901 7.67504C35.5909 5.79532 29.9267 5.63171 24.6278 7.20822C19.3289 8.78472 14.6741 12.0184 11.3459 16.4352C8.01776 20.8519 6.19124 26.2194 6.13419 31.7506C6.07714 37.2819 7.79254 42.6859 11.0289 47.1705C11.1199 47.2806 11.1799 47.413 11.2026 47.5541C11.2254 47.6951 11.21 47.8397 11.1582 47.9729L8.57153 55.246C8.55872 55.3367 8.56902 55.4291 8.60147 55.5147C8.63392 55.6004 8.68747 55.6764 8.75714 55.7358C8.82681 55.7952 8.91035 55.836 9 55.8544C9.08965 55.8729 9.1825 55.8684 9.26994 55.8413L17.1336 53.4083C17.3095 53.4081 17.4811 53.4624 17.625 53.5636C20.6408 55.5561 24.0404 56.8941 27.6047 57.4915Z" stroke="black" stroke-width="1.5" stroke-miterlimit="10"/>
</svg>
