<svg width="64" height="64" viewBox="0 0 64 64" fill="none" xmlns="http://www.w3.org/2000/svg">
<mask id="path-1-inside-1_2896_22251" fill="white">
<path fill-rule="evenodd" clip-rule="evenodd" d="M4.66602 8.58301C3.14723 8.58301 1.91602 9.81422 1.91602 11.333V33.333V44.6663C1.91602 46.1851 3.14723 47.4163 4.66602 47.4163H37.9172V47.4165H38.6671H59.8326C61.0752 47.4165 62.0826 46.4091 62.0826 45.1665V37.2066C62.0826 35.332 60.98 33.6327 59.2681 32.8689L56.6973 31.7218L56.6779 31.6806L51.4004 20.4602C50.2873 18.0937 47.9075 16.5831 45.2923 16.5831H39.416V11.333C39.416 9.81422 38.1848 8.58301 36.666 8.58301H4.66602ZM37.9159 16.5831H37.916V11.333C37.916 10.6427 37.3564 10.083 36.666 10.083H4.66602C3.97566 10.083 3.41602 10.6427 3.41602 11.333V32.583L37.9159 32.583V31.9999V31.9998L37.9158 31.2498H37.9159V17.3331V16.5831ZM3.41602 34.083L37.916 34.083V45.9163H4.66602C3.97566 45.9163 3.41602 45.3567 3.41602 44.6663V34.083ZM39.4171 45.9165L39.416 33.5587V33.333V32.7498H55.0537C55.2292 32.7498 55.4028 32.7868 55.5631 32.8583L58.6568 34.2387C59.8282 34.7613 60.5826 35.924 60.5826 37.2066V45.1665C60.5826 45.5807 60.2468 45.9165 59.8326 45.9165H39.4171ZM54.8176 31.2498H39.416V18.0831H45.2923C47.3263 18.0831 49.1773 19.258 50.043 21.0986L54.8176 31.2498ZM9.42126 24.333H10.6093V21.66H13.0753V20.697H10.6093V19.248H13.2643V18.285H9.42126V24.333ZM15.4872 20.994V19.248H16.6302C16.9422 19.248 17.1822 19.32 17.3502 19.464C17.5242 19.608 17.6112 19.827 17.6112 20.121C17.6112 20.415 17.5242 20.634 17.3502 20.778C17.1822 20.922 16.9422 20.994 16.6302 20.994H15.4872ZM14.2992 18.285V24.333H15.4872V21.957H16.5852L17.8182 24.333H19.0782L17.7462 21.768C18.0882 21.63 18.3552 21.417 18.5472 21.129C18.7452 20.835 18.8442 20.499 18.8442 20.121C18.8442 19.503 18.6582 19.044 18.2862 18.744C17.9142 18.438 17.3652 18.285 16.6392 18.285H14.2992ZM24.1855 24.333V23.37H21.3055V21.651H23.9965V20.706H21.3055V19.248H24.0955V18.285H20.1175V24.333H24.1855ZM29.4238 24.333V23.37H26.5438V21.651H29.2348V20.706H26.5438V19.248H29.3338V18.285H25.3558V24.333H29.4238Z"/>
</mask>
<path fill-rule="evenodd" clip-rule="evenodd" d="M4.66602 8.58301C3.14723 8.58301 1.91602 9.81422 1.91602 11.333V33.333V44.6663C1.91602 46.1851 3.14723 47.4163 4.66602 47.4163H37.9172V47.4165H38.6671H59.8326C61.0752 47.4165 62.0826 46.4091 62.0826 45.1665V37.2066C62.0826 35.332 60.98 33.6327 59.2681 32.8689L56.6973 31.7218L56.6779 31.6806L51.4004 20.4602C50.2873 18.0937 47.9075 16.5831 45.2923 16.5831H39.416V11.333C39.416 9.81422 38.1848 8.58301 36.666 8.58301H4.66602ZM37.9159 16.5831H37.916V11.333C37.916 10.6427 37.3564 10.083 36.666 10.083H4.66602C3.97566 10.083 3.41602 10.6427 3.41602 11.333V32.583L37.9159 32.583V31.9999V31.9998L37.9158 31.2498H37.9159V17.3331V16.5831ZM3.41602 34.083L37.916 34.083V45.9163H4.66602C3.97566 45.9163 3.41602 45.3567 3.41602 44.6663V34.083ZM39.4171 45.9165L39.416 33.5587V33.333V32.7498H55.0537C55.2292 32.7498 55.4028 32.7868 55.5631 32.8583L58.6568 34.2387C59.8282 34.7613 60.5826 35.924 60.5826 37.2066V45.1665C60.5826 45.5807 60.2468 45.9165 59.8326 45.9165H39.4171ZM54.8176 31.2498H39.416V18.0831H45.2923C47.3263 18.0831 49.1773 19.258 50.043 21.0986L54.8176 31.2498ZM9.42126 24.333H10.6093V21.66H13.0753V20.697H10.6093V19.248H13.2643V18.285H9.42126V24.333ZM15.4872 20.994V19.248H16.6302C16.9422 19.248 17.1822 19.32 17.3502 19.464C17.5242 19.608 17.6112 19.827 17.6112 20.121C17.6112 20.415 17.5242 20.634 17.3502 20.778C17.1822 20.922 16.9422 20.994 16.6302 20.994H15.4872ZM14.2992 18.285V24.333H15.4872V21.957H16.5852L17.8182 24.333H19.0782L17.7462 21.768C18.0882 21.63 18.3552 21.417 18.5472 21.129C18.7452 20.835 18.8442 20.499 18.8442 20.121C18.8442 19.503 18.6582 19.044 18.2862 18.744C17.9142 18.438 17.3652 18.285 16.6392 18.285H14.2992ZM24.1855 24.333V23.37H21.3055V21.651H23.9965V20.706H21.3055V19.248H24.0955V18.285H20.1175V24.333H24.1855ZM29.4238 24.333V23.37H26.5438V21.651H29.2348V20.706H26.5438V19.248H29.3338V18.285H25.3558V24.333H29.4238Z" fill="white"/>
<path d="M37.9172 47.4163H39.9172V45.4163H37.9172V47.4163ZM37.9172 47.4165H35.9172V49.4165H37.9172V47.4165ZM59.2681 32.8689L58.4531 34.6953L59.2681 32.8689ZM56.6973 31.7218L54.8875 32.5731L55.2038 33.2455L55.8823 33.5482L56.6973 31.7218ZM56.6779 31.6806L54.8681 32.5318L54.8681 32.5318L56.6779 31.6806ZM51.4004 20.4602L49.5906 21.3114V21.3114L51.4004 20.4602ZM39.416 16.5831H37.416V18.5831H39.416V16.5831ZM37.916 16.5831V18.5831H39.916V16.5831H37.916ZM37.9159 16.5831V14.5831H35.9159V16.5831H37.9159ZM3.41602 32.583H1.41602V34.583H3.41602L3.41602 32.583ZM37.9159 32.583V34.583H39.9159V32.583H37.9159ZM37.9159 31.9998H39.9159V31.9996L37.9159 31.9998ZM37.9158 31.2498V29.2498H35.9156L35.9158 31.25L37.9158 31.2498ZM37.9159 31.2498V33.2498H39.9159V31.2498H37.9159ZM37.916 34.083H39.916V32.083H37.916V34.083ZM3.41602 34.083L3.41602 32.083H1.41602V34.083H3.41602ZM37.916 45.9163V47.9163H39.916V45.9163H37.916ZM39.416 33.5587H37.416V33.5588L39.416 33.5587ZM39.4171 45.9165L37.4171 45.9166L37.4172 47.9165H39.4171V45.9165ZM39.416 32.7498V30.7498H37.416V32.7498H39.416ZM55.5631 32.8583L54.7481 34.6847L54.7481 34.6847L55.5631 32.8583ZM58.6568 34.2387L57.8419 36.0651L58.6568 34.2387ZM39.416 31.2498H37.416V33.2498H39.416V31.2498ZM54.8176 31.2498V33.2498H57.9685L56.6274 30.3986L54.8176 31.2498ZM39.416 18.0831V16.0831H37.416V18.0831H39.416ZM50.043 21.0986L48.2332 21.9499V21.9499L50.043 21.0986ZM10.6093 24.333V26.333H12.6093V24.333H10.6093ZM9.42126 24.333H7.42126V26.333H9.42126V24.333ZM10.6093 21.66V19.66H8.60926V21.66H10.6093ZM13.0753 21.66V23.66H15.0753V21.66H13.0753ZM13.0753 20.697H15.0753V18.697H13.0753V20.697ZM10.6093 20.697H8.60926V22.697H10.6093V20.697ZM10.6093 19.248V17.248H8.60926V19.248H10.6093ZM13.2643 19.248V21.248H15.2643V19.248H13.2643ZM13.2643 18.285H15.2643V16.285H13.2643V18.285ZM9.42126 18.285V16.285H7.42126V18.285H9.42126ZM15.4872 19.248V17.248H13.4872V19.248H15.4872ZM15.4872 20.994H13.4872V22.994H15.4872V20.994ZM17.3502 19.464L16.0486 20.9825L16.0617 20.9938L16.0751 21.0048L17.3502 19.464ZM17.3502 20.778L16.0751 19.2372L16.0617 19.2482L16.0486 19.2595L17.3502 20.778ZM14.2992 24.333H12.2992V26.333H14.2992V24.333ZM14.2992 18.285V16.285H12.2992V18.285H14.2992ZM15.4872 24.333V26.333H17.4872V24.333H15.4872ZM15.4872 21.957V19.957H13.4872V21.957H15.4872ZM16.5852 21.957L18.3604 21.0358L17.8006 19.957H16.5852V21.957ZM17.8182 24.333L16.043 25.2542L16.6028 26.333H17.8182V24.333ZM19.0782 24.333V26.333H22.3704L20.8531 23.4113L19.0782 24.333ZM17.7462 21.768L16.9978 19.9133L14.9571 20.7368L15.9712 22.6897L17.7462 21.768ZM18.5472 21.129L16.8883 20.0118L16.8831 20.0196L18.5472 21.129ZM18.2862 18.744L17.0156 20.2886L17.0231 20.2947L17.0307 20.3008L18.2862 18.744ZM24.1855 23.37H26.1855V21.37H24.1855V23.37ZM24.1855 24.333V26.333H26.1855V24.333H24.1855ZM21.3055 23.37H19.3055V25.37H21.3055V23.37ZM21.3055 21.651V19.651H19.3055V21.651H21.3055ZM23.9965 21.651V23.651H25.9965V21.651H23.9965ZM23.9965 20.706H25.9965V18.706H23.9965V20.706ZM21.3055 20.706H19.3055V22.706H21.3055V20.706ZM21.3055 19.248V17.248H19.3055V19.248H21.3055ZM24.0955 19.248V21.248H26.0955V19.248H24.0955ZM24.0955 18.285H26.0955V16.285H24.0955V18.285ZM20.1175 18.285V16.285H18.1175V18.285H20.1175ZM20.1175 24.333H18.1175V26.333H20.1175V24.333ZM29.4238 23.37H31.4238V21.37H29.4238V23.37ZM29.4238 24.333V26.333H31.4238V24.333H29.4238ZM26.5438 23.37H24.5438V25.37H26.5438V23.37ZM26.5438 21.651V19.651H24.5438V21.651H26.5438ZM29.2348 21.651V23.651H31.2348V21.651H29.2348ZM29.2348 20.706H31.2348V18.706H29.2348V20.706ZM26.5438 20.706H24.5438V22.706H26.5438V20.706ZM26.5438 19.248V17.248H24.5438V19.248H26.5438ZM29.3338 19.248V21.248H31.3338V19.248H29.3338ZM29.3338 18.285H31.3338V16.285H29.3338V18.285ZM25.3558 18.285V16.285H23.3558V18.285H25.3558ZM25.3558 24.333H23.3558V26.333H25.3558V24.333ZM3.91602 11.333C3.91602 10.9188 4.2518 10.583 4.66602 10.583V6.58301C2.04267 6.58301 -0.0839844 8.70965 -0.0839844 11.333H3.91602ZM3.91602 33.333V11.333H-0.0839844V33.333H3.91602ZM3.91602 44.6663V33.333H-0.0839844V44.6663H3.91602ZM4.66602 45.4163C4.2518 45.4163 3.91602 45.0806 3.91602 44.6663H-0.0839844C-0.0839844 47.2897 2.04267 49.4163 4.66602 49.4163V45.4163ZM37.9172 45.4163H4.66602V49.4163H37.9172V45.4163ZM39.9172 47.4165V47.4163H35.9172V47.4165H39.9172ZM38.6671 45.4165H37.9172V49.4165H38.6671V45.4165ZM59.8326 45.4165H38.6671V49.4165H59.8326V45.4165ZM60.0826 45.1665C60.0826 45.3045 59.9706 45.4165 59.8326 45.4165V49.4165C62.1798 49.4165 64.0826 47.5137 64.0826 45.1665H60.0826ZM60.0826 37.2066V45.1665H64.0826V37.2066H60.0826ZM58.4531 34.6953C59.4442 35.1375 60.0826 36.1213 60.0826 37.2066H64.0826C64.0826 34.5427 62.5158 32.1279 60.083 31.0424L58.4531 34.6953ZM55.8823 33.5482L58.4531 34.6953L60.083 31.0424L57.5122 29.8954L55.8823 33.5482ZM54.8681 32.5318L54.8875 32.5731L58.5071 30.8705L58.4877 30.8293L54.8681 32.5318ZM49.5906 21.3114L54.8681 32.5318L58.4877 30.8293L53.2102 19.6089L49.5906 21.3114ZM45.2923 18.5831C47.1326 18.5831 48.8073 19.6461 49.5906 21.3114L53.2102 19.6089C51.7673 16.5413 48.6823 14.5831 45.2923 14.5831V18.5831ZM39.416 18.5831H45.2923V14.5831H39.416V18.5831ZM37.416 11.333V16.5831H41.416V11.333H37.416ZM36.666 10.583C37.0802 10.583 37.416 10.9188 37.416 11.333H41.416C41.416 8.70965 39.2894 6.58301 36.666 6.58301V10.583ZM4.66602 10.583H36.666V6.58301H4.66602V10.583ZM37.916 14.5831H37.9159V18.5831H37.916V14.5831ZM35.916 11.333V16.5831H39.916V11.333H35.916ZM36.666 12.083C36.2518 12.083 35.916 11.7472 35.916 11.333H39.916C39.916 9.53808 38.4609 8.08301 36.666 8.08301V12.083ZM4.66602 12.083H36.666V8.08301H4.66602V12.083ZM5.41602 11.333C5.41602 11.7472 5.08022 12.083 4.66602 12.083V8.08301C2.87109 8.08301 1.41602 9.53808 1.41602 11.333H5.41602ZM5.41602 32.583V11.333H1.41602V32.583H5.41602ZM37.9159 30.583L3.41602 30.583L3.41602 34.583L37.9159 34.583V30.583ZM35.9159 31.9999V32.583H39.9159V31.9999H35.9159ZM35.9159 31.9998V31.9999H39.9159V31.9998H35.9159ZM35.9158 31.25L35.9159 32L39.9159 31.9996L39.9158 31.2496L35.9158 31.25ZM37.9159 29.2498H37.9158V33.2498H37.9159V29.2498ZM35.9159 17.3331V31.2498H39.9159V17.3331H35.9159ZM35.9159 16.5831V17.3331H39.9159V16.5831H35.9159ZM37.916 32.083L3.41602 32.083L3.41602 36.083L37.916 36.083V32.083ZM39.916 45.9163V34.083H35.916V45.9163H39.916ZM4.66602 47.9163H37.916V43.9163H4.66602V47.9163ZM1.41602 44.6663C1.41602 46.4613 2.87109 47.9163 4.66602 47.9163V43.9163C5.08023 43.9163 5.41602 44.2521 5.41602 44.6663H1.41602ZM1.41602 34.083V44.6663H5.41602V34.083H1.41602ZM37.416 33.5588L37.4171 45.9166L41.4171 45.9163L41.416 33.5585L37.416 33.5588ZM37.416 33.333V33.5587H41.416V33.333H37.416ZM37.416 32.7498V33.333H41.416V32.7498H37.416ZM55.0537 30.7498H39.416V34.7498H55.0537V30.7498ZM56.378 31.0318C55.9613 30.8459 55.5101 30.7498 55.0537 30.7498V34.7498C54.9484 34.7498 54.8443 34.7276 54.7481 34.6847L56.378 31.0318ZM59.4718 32.4123L56.378 31.0318L54.7481 34.6847L57.8419 36.0651L59.4718 32.4123ZM62.5826 37.2066C62.5826 35.1347 61.3639 33.2565 59.4718 32.4123L57.8419 36.0651C58.2924 36.2661 58.5826 36.7133 58.5826 37.2066H62.5826ZM62.5826 45.1665V37.2066H58.5826V45.1665H62.5826ZM59.8326 47.9165C61.3513 47.9165 62.5826 46.6852 62.5826 45.1665H58.5826C58.5826 44.4761 59.1422 43.9165 59.8326 43.9165V47.9165ZM39.4171 47.9165H59.8326V43.9165H39.4171V47.9165ZM39.416 33.2498H54.8176V29.2498H39.416V33.2498ZM37.416 18.0831V31.2498H41.416V18.0831H37.416ZM45.2923 16.0831H39.416V20.0831H45.2923V16.0831ZM51.8528 20.2474C50.6573 17.7056 48.1012 16.0831 45.2923 16.0831V20.0831C46.5515 20.0831 47.6973 20.8104 48.2332 21.9499L51.8528 20.2474ZM56.6274 30.3986L51.8528 20.2474L48.2332 21.9499L53.0078 32.101L56.6274 30.3986ZM10.6093 22.333H9.42126V26.333H10.6093V22.333ZM8.60926 21.66V24.333H12.6093V21.66H8.60926ZM13.0753 19.66H10.6093V23.66H13.0753V19.66ZM11.0753 20.697V21.66H15.0753V20.697H11.0753ZM10.6093 22.697H13.0753V18.697H10.6093V22.697ZM8.60926 19.248V20.697H12.6093V19.248H8.60926ZM13.2643 17.248H10.6093V21.248H13.2643V17.248ZM11.2643 18.285V19.248H15.2643V18.285H11.2643ZM9.42126 20.285H13.2643V16.285H9.42126V20.285ZM11.4213 24.333V18.285H7.42126V24.333H11.4213ZM13.4872 19.248V20.994H17.4872V19.248H13.4872ZM16.6302 17.248H15.4872V21.248H16.6302V17.248ZM18.6518 17.9455C17.9972 17.3844 17.2258 17.248 16.6302 17.248V21.248C16.6585 21.248 16.3672 21.2556 16.0486 20.9825L18.6518 17.9455ZM19.6112 20.121C19.6112 19.4243 19.389 18.5552 18.6253 17.9232L16.0751 21.0048C15.8918 20.8532 15.7622 20.6633 15.6872 20.4746C15.6174 20.2989 15.6112 20.1665 15.6112 20.121H19.6112ZM18.6253 22.3188C19.389 21.6868 19.6112 20.8177 19.6112 20.121H15.6112C15.6112 20.0755 15.6174 19.9431 15.6872 19.7674C15.7622 19.5787 15.8918 19.3889 16.0751 19.2372L18.6253 22.3188ZM16.6302 22.994C17.2258 22.994 17.9972 22.8576 18.6518 22.2965L16.0486 19.2595C16.3672 18.9864 16.6585 18.994 16.6302 18.994V22.994ZM15.4872 22.994H16.6302V18.994H15.4872V22.994ZM16.2992 24.333V18.285H12.2992V24.333H16.2992ZM15.4872 22.333H14.2992V26.333H15.4872V22.333ZM13.4872 21.957V24.333H17.4872V21.957H13.4872ZM16.5852 19.957H15.4872V23.957H16.5852V19.957ZM19.5934 23.4118L18.3604 21.0358L14.81 22.8782L16.043 25.2542L19.5934 23.4118ZM19.0782 22.333H17.8182V26.333H19.0782V22.333ZM15.9712 22.6897L17.3032 25.2547L20.8531 23.4113L19.5211 20.8463L15.9712 22.6897ZM16.8831 20.0196C16.9002 19.994 16.9254 19.9654 16.9557 19.9413C16.9851 19.9179 17.0035 19.911 16.9978 19.9133L18.4946 23.6227C19.1841 23.3445 19.7811 22.8837 20.2113 22.2384L16.8831 20.0196ZM16.8442 20.121C16.8442 20.1337 16.8428 20.1207 16.8515 20.0913C16.8605 20.0607 16.8745 20.0324 16.8883 20.0118L20.2061 22.2462C20.6415 21.5997 20.8442 20.8692 20.8442 20.121H16.8442ZM17.0307 20.3008C16.9915 20.2692 16.9528 20.2295 16.9189 20.1835C16.8853 20.1378 16.8638 20.0957 16.8511 20.0644C16.8267 20.0041 16.8442 20.0079 16.8442 20.121H20.8442C20.8442 19.0901 20.5159 17.9729 19.5417 17.1872L17.0307 20.3008ZM16.6392 20.285C16.8677 20.285 16.999 20.3097 17.0585 20.3263C17.113 20.3415 17.0807 20.3421 17.0156 20.2886L19.5567 17.1994C18.6845 16.482 17.6031 16.285 16.6392 16.285V20.285ZM14.2992 20.285H16.6392V16.285H14.2992V20.285ZM22.1855 23.37V24.333H26.1855V23.37H22.1855ZM21.3055 25.37H24.1855V21.37H21.3055V25.37ZM19.3055 21.651V23.37H23.3055V21.651H19.3055ZM23.9965 19.651H21.3055V23.651H23.9965V19.651ZM21.9965 20.706V21.651H25.9965V20.706H21.9965ZM21.3055 22.706H23.9965V18.706H21.3055V22.706ZM19.3055 19.248V20.706H23.3055V19.248H19.3055ZM24.0955 17.248H21.3055V21.248H24.0955V17.248ZM22.0955 18.285V19.248H26.0955V18.285H22.0955ZM20.1175 20.285H24.0955V16.285H20.1175V20.285ZM22.1175 24.333V18.285H18.1175V24.333H22.1175ZM24.1855 22.333H20.1175V26.333H24.1855V22.333ZM27.4238 23.37V24.333H31.4238V23.37H27.4238ZM26.5438 25.37H29.4238V21.37H26.5438V25.37ZM24.5438 21.651V23.37H28.5438V21.651H24.5438ZM29.2348 19.651H26.5438V23.651H29.2348V19.651ZM27.2348 20.706V21.651H31.2348V20.706H27.2348ZM26.5438 22.706H29.2348V18.706H26.5438V22.706ZM24.5438 19.248V20.706H28.5438V19.248H24.5438ZM29.3338 17.248H26.5438V21.248H29.3338V17.248ZM27.3338 18.285V19.248H31.3338V18.285H27.3338ZM25.3558 20.285H29.3338V16.285H25.3558V20.285ZM27.3558 24.333V18.285H23.3558V24.333H27.3558ZM29.4238 22.333H25.3558V26.333H29.4238V22.333Z" fill="#FD312E" mask="url(#path-1-inside-1_2896_22251)"/>
<path d="M20.1621 47.0215C20.1621 50.4791 17.3747 53.2754 13.9443 53.2754C10.514 53.2754 7.72656 50.4791 7.72656 47.0215C7.72656 43.5639 10.514 40.7676 13.9443 40.7676C17.3747 40.7676 20.1621 43.5639 20.1621 47.0215Z" fill="white" stroke="#FD312E" stroke-width="1.5"/>
<path d="M55.9961 47.0215C55.9961 50.4791 53.2086 53.2754 49.7783 53.2754C46.348 53.2754 43.5605 50.4791 43.5605 47.0215C43.5605 43.5639 46.348 40.7676 49.7783 40.7676C53.2086 40.7676 55.9961 43.5639 55.9961 47.0215Z" fill="white" stroke="#FD312E" stroke-width="1.5"/>
</svg>
