<svg width="32" height="32" viewBox="0 0 32 32" fill="none" xmlns="http://www.w3.org/2000/svg">
<g clip-path="url(#clip0_1571_39380)">
<path d="M23.9756 29.8696C22.3412 31.4557 20.538 31.2085 18.8192 30.4606C16.9919 29.6977 15.3214 29.6495 13.3916 30.4606C10.9883 31.4979 9.71279 31.1964 8.2654 29.8696C0.0937073 21.4567 1.29986 8.64136 10.5872 8.1589C12.8397 8.27952 14.4168 9.40425 15.7436 9.49773C17.7156 9.09668 19.6032 7.94783 21.714 8.09859C24.25 8.30364 26.1466 9.30475 27.4131 11.1049C22.1965 14.2409 23.4328 21.116 28.2242 23.0458C27.2653 25.5637 26.0351 28.0513 23.9725 29.8907L23.9756 29.8696ZM15.5626 8.06844C15.3184 4.32937 18.3488 1.25369 21.8346 0.952148C22.3141 5.26414 17.9146 8.49059 15.5626 8.06844Z" fill="black"/>
</g>
<defs>
<clipPath id="clip0_1571_39380">
<rect width="25.3895" height="30.1538" fill="white" transform="translate(2.80469 0.922852)"/>
</clipPath>
</defs>
</svg>
