<svg width="100" height="100" viewBox="0 0 100 100" fill="none" xmlns="http://www.w3.org/2000/svg">
<path fill-rule="evenodd" clip-rule="evenodd" d="M0 14C0 12.3431 1.34314 11 3 11H97.0002C98.6571 11 100 12.3431 100 14V59.1285C100 60.7854 98.6571 62.1285 97.0002 62.1285H54.502V72.5336V83.6397L74.6668 87.0088C75.2116 87.0998 75.5794 87.6152 75.4884 88.1599C75.3974 88.7046 74.882 89.0724 74.3372 88.9814L50.877 85.0618L27.4167 88.9814C26.872 89.0724 26.3566 88.7046 26.2656 88.1599C26.1746 87.6152 26.5424 87.0998 27.0872 87.0088L47.252 83.6397V72.5336V62.1285H3C1.34314 62.1285 0 60.7854 0 59.1285V14ZM49.252 62.1285V72.5336V83.3056L50.7122 83.0616L50.877 83.0341L51.0418 83.0616L52.502 83.3056V72.5336V62.1285H49.252ZM3 13C2.44772 13 2 13.4477 2 14V59.1285C2 59.6808 2.44771 60.1285 3 60.1285H97.0002C97.5525 60.1285 98.0002 59.6808 98.0002 59.1285V14C98.0002 13.4477 97.5525 13 97.0002 13H3ZM40.6335 39.6704V29.4464H35.8095L30.0015 40.2224V41.9984H37.4655V45.2624H40.6335V41.9984H42.7215V39.6704H40.6335ZM37.4655 31.8944V39.6704H33.2415L37.2495 31.8944H37.4655ZM47.101 44.9504C47.885 45.3344 48.821 45.5264 49.909 45.5264C50.981 45.5264 51.901 45.3344 52.669 44.9504C53.437 44.5504 54.069 43.9984 54.565 43.2944C55.077 42.5744 55.453 41.7184 55.693 40.7264C55.933 39.7184 56.053 38.5984 56.053 37.3664C56.053 36.1344 55.933 35.0144 55.693 34.0064C55.453 32.9984 55.077 32.1424 54.565 31.4384C54.069 30.7184 53.437 30.1664 52.669 29.7824C51.901 29.3984 50.981 29.2064 49.909 29.2064C48.821 29.2064 47.885 29.3984 47.101 29.7824C46.333 30.1664 45.693 30.7184 45.181 31.4384C44.685 32.1424 44.317 32.9984 44.077 34.0064C43.837 35.0144 43.717 36.1344 43.717 37.3664C43.717 38.5984 43.837 39.7184 44.077 40.7264C44.317 41.7184 44.685 42.5744 45.181 43.2944C45.693 43.9984 46.333 44.5504 47.101 44.9504ZM48.493 32.0144C48.893 31.7424 49.365 31.6064 49.909 31.6064C50.437 31.6064 50.885 31.7424 51.253 32.0144C51.637 32.2864 51.949 32.6704 52.189 33.1664C52.445 33.6624 52.629 34.2704 52.741 34.9904C52.869 35.6944 52.933 36.4864 52.933 37.3664C52.933 39.1264 52.685 40.5264 52.189 41.5664C51.709 42.5904 50.949 43.1024 49.909 43.1024C49.365 43.1024 48.893 42.9664 48.493 42.6944C48.109 42.4224 47.789 42.0384 47.533 41.5424C47.293 41.0464 47.109 40.4464 46.981 39.7424C46.869 39.0224 46.813 38.2304 46.813 37.3664C46.813 36.5024 46.869 35.7184 46.981 35.0144C47.109 34.2944 47.293 33.6864 47.533 33.1904C47.789 32.6784 48.109 32.2864 48.493 32.0144ZM67.6804 39.6704V29.4464H62.8564L57.0484 40.2224V41.9984H64.5124V45.2624H67.6804V41.9984H69.7684V39.6704H67.6804ZM64.5124 31.8944V39.6704H60.2884L64.2964 31.8944H64.5124Z" fill="#666666"/>
</svg>
