<svg width="49" height="48" viewBox="0 0 49 48" fill="none" xmlns="http://www.w3.org/2000/svg">
<path fill-rule="evenodd" clip-rule="evenodd" d="M2.5 7.07422C2.5 6.66001 2.83579 6.32422 3.25 6.32422H7.21665C7.99085 6.32422 8.67878 6.8308 8.89537 7.58425C9.35605 9.18679 9.83089 10.9003 10.3068 12.6621H40.5967C42.4758 12.6621 43.8014 14.5047 43.2041 16.2863L38.8553 29.2572C38.2064 31.1929 36.3932 32.4973 34.3517 32.4973H15.3306C15.5198 33.2831 15.6818 33.9603 15.8118 34.5059C15.9458 35.0684 16.4462 35.4631 17.0306 35.4631H37.5277C37.9419 35.4631 38.2777 35.7989 38.2777 36.2131C38.2777 36.6273 37.9419 36.9631 37.5277 36.9631H36.6747C37.0009 37.4444 37.1917 38.0246 37.1917 38.6504C37.1917 40.3274 35.8223 41.6759 34.1466 41.6759C32.471 41.6759 31.1016 40.3274 31.1016 38.6504C31.1016 38.0246 31.2923 37.4444 31.6185 36.9631H22.6005C22.9267 37.4444 23.1174 38.0246 23.1174 38.6504C23.1174 40.3274 21.748 41.6759 20.0724 41.6759C18.3967 41.6759 17.0273 40.3274 17.0273 38.6504C17.0273 38.0246 17.2181 37.4444 17.5443 36.9631H17.0306C15.7578 36.9631 14.649 36.0976 14.3526 34.8536C13.2956 30.4177 10.1318 17.3145 7.45376 7.99867C7.42464 7.89736 7.33181 7.82422 7.21665 7.82422H3.25C2.83579 7.82422 2.5 7.48843 2.5 7.07422ZM14.9681 30.9973C13.9247 26.6934 12.332 20.25 10.7093 14.1621H40.5967C41.4509 14.1621 42.0534 14.9996 41.7819 15.8095L37.4331 28.7804C36.9891 30.1048 35.7485 30.9973 34.3517 30.9973H14.9681ZM18.5273 38.6504C18.5273 37.814 19.213 37.125 20.0724 37.125C20.9318 37.125 21.6174 37.814 21.6174 38.6504C21.6174 39.4869 20.9318 40.1759 20.0724 40.1759C19.213 40.1759 18.5273 39.4869 18.5273 38.6504ZM34.1466 37.125C33.2872 37.125 32.6016 37.814 32.6016 38.6504C32.6016 39.4869 33.2872 40.1759 34.1466 40.1759C35.006 40.1759 35.6917 39.4869 35.6917 38.6504C35.6917 37.814 35.006 37.125 34.1466 37.125ZM22.4102 21.4282C22.4102 20.1151 23.4085 19.1211 24.5555 19.1211C25.2147 19.1211 25.7201 19.4414 26.0496 19.9829C26.1856 20.2066 26.4285 20.3431 26.6903 20.3431C26.9521 20.3431 27.195 20.2066 27.3311 19.9829C27.6605 19.4414 28.1659 19.1211 28.8251 19.1211C29.9721 19.1211 30.9705 20.1151 30.9705 21.4282C30.9705 22.0163 30.7669 22.5466 30.4373 22.9504L30.4143 22.9767C30.4042 22.9884 30.3943 23.0004 30.3849 23.0127C30.3632 23.0409 30.3332 23.0754 30.2928 23.1157L30.292 23.1165C29.5709 23.8384 28.3493 25.0024 26.8521 26.3609C26.7602 26.4443 26.6204 26.4443 26.5285 26.3609C25.0313 25.0024 23.8098 23.8384 23.0886 23.1165L23.0878 23.1157C23.0474 23.0754 23.0174 23.0409 22.9957 23.0127C22.9863 23.0004 22.9765 22.9884 22.9663 22.9767L22.9433 22.9504C22.6137 22.5466 22.4102 22.0163 22.4102 21.4282ZM24.5555 17.6211C22.5042 17.6211 20.9102 19.3646 20.9102 21.4282C20.9102 22.3728 21.2403 23.2422 21.7918 23.9117C21.7963 23.9172 21.8009 23.9227 21.8056 23.928L21.8224 23.9473C21.8853 24.0272 21.9543 24.1036 22.0274 24.1766C22.7709 24.9209 24.0114 26.1024 25.5205 27.4717C26.1843 28.074 27.1963 28.074 27.8601 27.4717C29.3689 26.1027 30.6092 24.9213 31.3528 24.177C31.4261 24.1039 31.4952 24.0273 31.5582 23.9473L31.575 23.928C31.5797 23.9227 31.5843 23.9172 31.5888 23.9117C32.1403 23.2422 32.4705 22.3728 32.4705 21.4282C32.4705 19.3646 30.8764 17.6211 28.8251 17.6211C27.9721 17.6211 27.2465 17.9263 26.6903 18.4262C26.1341 17.9263 25.4085 17.6211 24.5555 17.6211Z" fill="black"/>
</svg>
