<svg width="36" height="36" viewBox="0 0 36 36" fill="none" xmlns="http://www.w3.org/2000/svg">
<path fill-rule="evenodd" clip-rule="evenodd" d="M30.1854 16.951C30.1854 16.4567 30.1532 15.9704 30.0908 15.4938C30.0371 15.0831 30.3264 14.7066 30.7371 14.6528C31.1479 14.599 31.5244 14.8884 31.5781 15.2991C31.649 15.8401 31.6854 16.3915 31.6854 16.951C31.6854 17.3652 31.3497 17.701 30.9354 17.701C30.5212 17.701 30.1854 17.3652 30.1854 16.951ZM30.3175 13.0881C29.9351 13.2472 29.496 13.0662 29.3369 12.6838C28.9601 11.7784 28.4668 10.933 27.8755 10.1661C27.6225 9.83812 27.6834 9.36716 28.0114 9.11421C28.3394 8.86126 28.8103 8.9221 29.0633 9.25011C29.7339 10.1197 30.2938 11.0791 30.7218 12.1075C30.8809 12.4899 30.6999 12.9289 30.3175 13.0881ZM26.8637 7.97055C26.6118 8.29941 26.1411 8.36186 25.8122 8.11003C25.0437 7.52155 24.1966 7.03071 23.2895 6.65587C22.9067 6.49768 22.7246 6.05911 22.8828 5.67629C23.0409 5.29347 23.4795 5.11138 23.8623 5.26957C24.892 5.69505 25.8529 6.25194 26.7242 6.9191C27.053 7.17093 27.1155 7.64168 26.8637 7.97055ZM21.3173 5.25942C21.264 5.67018 20.8877 5.95989 20.4769 5.9065C20.0001 5.84451 19.5135 5.8125 19.019 5.8125C18.6048 5.8125 18.269 5.47671 18.269 5.0625C18.269 4.64829 18.6048 4.3125 19.019 4.3125C19.5783 4.3125 20.1295 4.34872 20.6703 4.41901C21.081 4.4724 21.3707 4.84867 21.3173 5.25942ZM19.3509 8.94286C23.6035 8.94286 27.048 12.3818 27.048 16.6201C27.048 17.0344 27.3838 17.3701 27.798 17.3701C28.2122 17.3701 28.548 17.0344 28.548 16.6201C28.548 11.55 24.4287 7.44286 19.3509 7.44286C18.9367 7.44286 18.6009 7.77865 18.6009 8.19286C18.6009 8.60708 18.9367 8.94286 19.3509 8.94286ZM19.9541 11.9525C22.2074 11.9525 24.0311 13.7744 24.0311 16.0181C24.0311 16.4323 24.3668 16.7681 24.7811 16.7681C25.1953 16.7681 25.5311 16.4323 25.5311 16.0181C25.5311 12.9427 23.0325 10.4525 19.9541 10.4525C19.5399 10.4525 19.2041 10.7883 19.2041 11.2025C19.2041 11.6167 19.5399 11.9525 19.9541 11.9525ZM2.85518 11.3003C3.05037 9.65056 3.87507 8.32847 4.52129 7.68226L6.87881 5.32474C7.95276 4.25079 9.69396 4.2508 10.7679 5.32474L14.2392 8.79609C15.3132 9.87003 15.3132 11.6112 14.2392 12.6852L13.3557 13.5687C12.8675 14.0569 12.8675 14.8483 13.3557 15.3365L19.3144 21.2952C19.8026 21.7834 20.5941 21.7834 21.0822 21.2952L21.9545 20.4229C23.0345 19.3429 24.7875 19.3499 25.8589 20.4383L28.8211 23.4478C29.8806 24.5241 29.8738 26.2535 28.8058 27.3214L25.8508 30.2764C24.3125 31.8148 22.4741 31.9039 20.903 31.4346C19.3674 30.9759 18.0246 29.9767 17.2467 29.1988L17.2447 29.1968L5.01258 16.8727L5.01157 16.8717C3.12636 14.986 2.6546 12.9957 2.85518 11.3003ZM4.34479 11.4766C4.19835 12.7143 4.51085 14.2497 6.07324 15.8121L6.07523 15.8141L18.3074 28.1381L18.3083 28.1391C18.9674 28.7979 20.1026 29.63 21.3324 29.9974C22.5273 30.3543 23.7422 30.2637 24.7902 29.2158L26.6186 27.3873L21.8453 22.614C20.7682 23.4215 19.2334 23.3355 18.2538 22.3559L12.295 16.3971C11.3154 15.4175 11.2294 13.8827 12.0369 12.8056L6.7781 7.54676L5.58195 8.74292C5.15053 9.17434 4.49666 10.193 4.34479 11.4766ZM27.7452 26.2608L27.6793 26.3266L22.9257 21.573L23.0152 21.4836C23.5061 20.9927 24.3029 20.9958 24.7899 21.4906L27.7521 24.5C28.2337 24.9893 28.2306 25.7753 27.7452 26.2608ZM13.1786 11.6245L13.0779 11.7252L7.83876 6.4861L7.93947 6.3854C8.42763 5.89724 9.21908 5.89724 9.70724 6.3854L13.1786 9.85674C13.6667 10.3449 13.6667 11.1364 13.1786 11.6245Z" fill="black"/>
</svg>
