<svg width="59" height="13" viewBox="0 0 59 13" fill="none" xmlns="http://www.w3.org/2000/svg">
<g clip-path="url(#clip0_3023_47722)">
<path fill-rule="evenodd" clip-rule="evenodd" d="M57.2237 10.976L59 12.9961L56.8913 12.994L55.7338 11.6764C55.3994 11.7478 55.0582 11.783 54.7163 11.7815C54.1443 11.8125 53.5733 11.7081 53.0494 11.4768C52.5255 11.2454 52.0637 10.8937 51.7016 10.4502C50.9503 9.19404 50.5885 7.74344 50.662 6.2818C50.5839 4.88737 50.9477 3.50382 51.7016 2.32786C52.0837 1.90835 52.5493 1.5732 53.0685 1.34387C53.5877 1.11454 54.1492 0.996094 54.7168 0.996094C55.2845 0.996094 55.8459 1.11454 56.3651 1.34387C56.8843 1.5732 57.3499 1.90835 57.732 2.32786C58.4856 3.50389 58.8487 4.88755 58.7695 6.2818C58.844 7.74326 58.4829 9.19393 57.732 10.4502C57.5831 10.6442 57.4125 10.8206 57.2237 10.976ZM52.4676 6.33331C52.4173 7.37124 52.6164 8.40615 53.0485 9.35136C53.2188 9.64262 53.4625 9.88421 53.7553 10.0521C54.0481 10.22 54.3798 10.3084 54.7173 10.3084C55.0549 10.3084 55.3866 10.22 55.6794 10.0521C55.9721 9.88421 56.2159 9.64262 56.3862 9.35136C56.8168 8.40573 57.0155 7.37107 56.9659 6.33331C57.0181 5.33334 56.8188 4.33624 56.3862 3.43306C56.2161 3.14154 55.9724 2.89967 55.6796 2.73157C55.3868 2.56347 55.055 2.475 54.7173 2.475C54.3797 2.475 54.0478 2.56347 53.755 2.73157C53.4622 2.89967 53.2186 3.14154 53.0485 3.43306C52.6144 4.33579 52.4147 5.33316 52.4676 6.33331ZM2.46086 1.23376H0V11.893H7.56531V9.82035H2.46086V1.23376ZM12.9842 7.83085H14.9879V9.69615C14.4146 9.88304 13.8153 9.97781 13.2123 9.97695C10.9946 9.97695 10.2543 8.85043 10.2543 6.56392C10.2543 4.38217 10.961 3.1077 13.1723 3.1077C13.6525 3.06664 14.1353 3.14782 14.5757 3.34367C15.016 3.53953 15.3995 3.84367 15.6904 4.22773L17.2208 2.82364C16.7305 2.22249 16.1012 1.7495 15.3873 1.44544C14.6733 1.14138 13.8961 1.01537 13.1226 1.07825C9.66957 1.07825 7.85819 2.96295 7.85819 6.54988C7.85819 10.1141 9.49339 12.0583 13.1064 12.0583C14.5576 12.1062 15.9933 11.7474 17.2511 11.0225V5.85215H12.981L12.9842 7.83085ZM22.0957 2.64107H25.3061V11.6047H27.0834V2.64107H30.279V1.21094H22.0957V2.64107ZM39.6897 2.19674C39.8627 2.08119 40.0661 2.01953 40.2742 2.01953C40.5533 2.01953 40.821 2.13031 41.0183 2.32751C41.2157 2.52472 41.3265 2.79221 41.3265 3.07111C41.3265 3.27909 41.2648 3.4824 41.1491 3.65533C41.0335 3.82827 40.8692 3.96302 40.6769 4.04262C40.4846 4.12221 40.2731 4.14304 40.069 4.10247C39.8648 4.06189 39.6773 3.96174 39.5302 3.81467C39.383 3.6676 39.2828 3.48022 39.2422 3.27624C39.2016 3.07225 39.2224 2.86083 39.3021 2.66868C39.3817 2.47653 39.5166 2.31229 39.6897 2.19674ZM39.3851 5.09766V11.5996H41.1329V5.09766C40.8563 5.21412 40.5592 5.27413 40.259 5.27413C39.9588 5.27413 39.6617 5.21412 39.3851 5.09766ZM33.0001 4.63065C33.4567 4.44487 33.9455 4.35088 34.4385 4.35408C36.5314 4.35408 37.6658 5.55711 37.6658 6.819V11.6037H35.9085V7.09557C35.9027 6.91703 35.8596 6.74167 35.7818 6.58085C35.704 6.42004 35.5932 6.27733 35.4567 6.16196C35.3203 6.04659 35.1611 5.96113 34.9895 5.9111C34.8179 5.86107 34.6378 5.8476 34.4606 5.87153C34.1161 5.8361 33.7714 5.93566 33.4989 6.14928C33.2265 6.36291 33.0476 6.67389 33.0001 7.01669V11.6047H31.2228V1.21094H33.0001V4.63065ZM45.9964 4.35156C43.9182 4.35998 42.7797 5.55772 42.7797 6.81751V11.6022H44.5359V7.09408C44.5965 6.75114 44.7761 6.44052 45.0431 6.21672C45.3101 5.99293 45.6474 5.87026 45.9958 5.87026C46.3443 5.87026 46.6817 5.99293 46.9487 6.21672C47.2156 6.44052 47.3952 6.75114 47.4558 7.09408V11.6022H49.2142V6.81751C49.2142 5.55772 48.0704 4.35998 45.9964 4.35156Z" fill="#161615"/>
</g>
<defs>
<clipPath id="clip0_3023_47722">
<rect width="59" height="13" fill="white"/>
</clipPath>
</defs>
</svg>
