<svg width="49" height="48" viewBox="0 0 49 48" fill="none" xmlns="http://www.w3.org/2000/svg">
<g id="Product">
<path id="Union" fill-rule="evenodd" clip-rule="evenodd" d="M2.19922 2H2.94922H21.4492H22.1992V2.75V14.25V15H21.4492H2.94922H2.19922V14.25V2.75V2ZM3.69922 3.5V13.5H20.6992V3.5H3.69922ZM24.1992 2H24.9492H45.4492H46.1992V2.75V45.25V46H45.4492H24.9492H24.1992V45.25V2.75V2ZM25.6992 3.5V30H44.6992V3.5H25.6992ZM25.6992 44.5V31.5H44.6992V44.5H25.6992ZM2.94922 19H2.19922V19.75V45.25V46H2.94922H21.4492H22.1992V45.25V19.75V19H21.4492H2.94922ZM3.69922 44.5V20.5H20.6992V44.5H3.69922ZM42.1992 34H28.1992V35.5H42.1992V34ZM11.1992 23H13.1992V24.5H11.1992V23ZM28.1992 11V23.5H29.6992V11H28.1992ZM8.19922 16H16.1992V17.5H8.19922V16ZM6.69922 35C6.69922 31.9624 9.16165 29.5 12.1992 29.5C15.2368 29.5 17.6992 31.9624 17.6992 35C17.6992 38.0376 15.2368 40.5 12.1992 40.5C9.16165 40.5 6.69922 38.0376 6.69922 35ZM12.1992 28C8.33323 28 5.19922 31.134 5.19922 35C5.19922 38.866 8.33323 42 12.1992 42C16.0652 42 19.1992 38.866 19.1992 35C19.1992 31.134 16.0652 28 12.1992 28Z" fill="black"/>
</g>
</svg>
