<svg width="25" height="24" viewBox="0 0 25 24" fill="none" xmlns="http://www.w3.org/2000/svg">
<path d="M20.3838 10.3375L20.0303 9.98393V9.98393L20.3838 10.3375ZM15.2727 11.3382L15.4668 10.8774C15.2795 10.7985 15.0629 10.8409 14.9192 10.9847L15.2727 11.3382ZM21.6322 5.99507L22.1196 5.88361V5.88361L21.6322 5.99507ZM20.8732 5.81012L21.2268 6.16367V6.16367L20.8732 5.81012ZM18.4662 8.21719L18.8197 8.57074V8.57074L18.4662 8.21719ZM17.0519 8.21719L17.4055 7.86363L17.0519 8.21719ZM15.9084 7.07364L16.262 6.72008L16.262 6.72008L15.9084 7.07364ZM15.9084 5.65942L15.5548 5.30587L15.9084 5.65942ZM18.3158 3.25197L17.9623 2.89842L17.9623 2.89842L18.3158 3.25197ZM18.131 2.49301L18.2426 2.00562V2.00562L18.131 2.49301ZM13.7875 3.74115L13.4339 3.38759H13.4339L13.7875 3.74115ZM12.7165 8.67536L13.07 9.02891C13.2085 8.89041 13.2534 8.68378 13.1848 8.50031L12.7165 8.67536ZM6.98748 14.4043L6.86519 14.8892C7.03585 14.9322 7.21657 14.8823 7.34103 14.7579L6.98748 14.4043ZM9.59699 17.0139L9.24344 16.6604C9.11899 16.7848 9.06913 16.9656 9.11217 17.1362L9.59699 17.0139ZM20.0303 9.98393C18.7972 11.217 16.9822 11.5159 15.4668 10.8774L15.0786 11.799C16.9557 12.5898 19.2069 12.2215 20.7374 10.691L20.0303 9.98393ZM21.1448 6.10653C21.454 7.4585 21.0817 8.93245 20.0303 9.98393L20.7374 10.691C22.0422 9.38619 22.5023 7.55689 22.1196 5.88361L21.1448 6.10653ZM21.2268 6.16367C21.2296 6.16082 21.2226 6.16826 21.205 6.16418C21.1958 6.16205 21.1816 6.15616 21.1676 6.14259C21.1521 6.12764 21.1461 6.11213 21.1448 6.10653L22.1196 5.88361C22.0342 5.50988 21.7519 5.26428 21.4303 5.1899C21.1163 5.11728 20.7697 5.20655 20.5197 5.45656L21.2268 6.16367ZM18.8197 8.57074L21.2268 6.16367L20.5197 5.45656L18.1126 7.86363L18.8197 8.57074ZM16.6984 8.57074C17.2842 9.15653 18.2339 9.15653 18.8197 8.57074L18.1126 7.86363C17.9173 8.0589 17.6008 8.0589 17.4055 7.86363L16.6984 8.57074ZM15.5548 7.42719L16.6984 8.57074L17.4055 7.86363L16.262 6.72008L15.5548 7.42719ZM15.5548 5.30587C14.9691 5.89166 14.9691 6.8414 15.5548 7.42719L16.262 6.72008C16.0667 6.52482 16.0667 6.20824 16.262 6.01298L15.5548 5.30587ZM17.9623 2.89842L15.5548 5.30587L16.262 6.01298L18.6694 3.60553L17.9623 2.89842ZM18.0194 2.9804C18.0138 2.97912 17.9983 2.97304 17.9834 2.95762C17.9698 2.94362 17.9639 2.92943 17.9618 2.92022C17.9577 2.90259 17.9651 2.89557 17.9623 2.89842L18.6694 3.60553C18.9194 3.35554 19.0087 3.00893 18.9361 2.69498C18.8617 2.37342 18.6162 2.09116 18.2426 2.00562L18.0194 2.9804ZM14.141 4.0947C15.1928 3.04297 16.6672 2.67083 18.0194 2.9804L18.2426 2.00562C16.569 1.62248 14.7391 2.08243 13.4339 3.38759L14.141 4.0947ZM13.1848 8.50031C12.6308 7.01802 12.9505 5.28522 14.141 4.0947L13.4339 3.38759C11.9563 4.86522 11.562 7.01472 12.2481 8.85041L13.1848 8.50031ZM7.34103 14.7579L13.07 9.02891L12.3629 8.32181L6.63392 14.0508L7.34103 14.7579ZM6.10358 14.7951C6.36698 14.7951 6.62203 14.8278 6.86519 14.8892L7.10976 13.9195C6.78729 13.8382 6.45011 13.7951 6.10358 13.7951V14.7951ZM3.00098 17.8977C3.00098 16.1842 4.39006 14.7951 6.10358 14.7951V13.7951C3.83778 13.7951 2.00098 15.6319 2.00098 17.8977H3.00098ZM6.10358 21.0003C4.39006 21.0003 3.00098 19.6112 3.00098 17.8977H2.00098C2.00098 20.1635 3.83778 22.0003 6.10358 22.0003V21.0003ZM9.20619 17.8977C9.20619 19.6112 7.8171 21.0003 6.10358 21.0003V22.0003C8.36939 22.0003 10.2062 20.1635 10.2062 17.8977H9.20619ZM9.11217 17.1362C9.17349 17.3793 9.20619 17.6344 9.20619 17.8977H10.2062C10.2062 17.5512 10.1631 17.2141 10.0818 16.8917L9.11217 17.1362ZM14.9192 10.9847L9.24344 16.6604L9.95054 17.3675L15.6263 11.6918L14.9192 10.9847ZM7.35059 17.8992C7.35059 18.5896 6.79094 19.1492 6.10059 19.1492V20.1492C7.34323 20.1492 8.35059 19.1419 8.35059 17.8992H7.35059ZM6.10059 16.6492C6.79094 16.6492 7.35059 17.2089 7.35059 17.8992H8.35059C8.35059 16.6566 7.34323 15.6492 6.10059 15.6492V16.6492ZM4.85059 17.8992C4.85059 17.2089 5.41023 16.6492 6.10059 16.6492V15.6492C4.85794 15.6492 3.85059 16.6566 3.85059 17.8992H4.85059ZM6.10059 19.1492C5.41023 19.1492 4.85059 18.5896 4.85059 17.8992H3.85059C3.85059 19.1419 4.85795 20.1492 6.10059 20.1492V19.1492Z" fill="black"/>
</svg>
