<svg width="60" height="60" viewBox="0 0 60 60" fill="none" xmlns="http://www.w3.org/2000/svg">
<g clip-path="url(#clip0_7665_271971)">
<path fill-rule="evenodd" clip-rule="evenodd" d="M23.3024 7.47462C28.1164 6.04326 33.2623 6.1918 37.9857 7.89847C42.7091 9.60513 46.7615 12.7801 49.5488 16.958C52.3361 21.1358 53.7115 26.0967 53.4736 31.1134C53.2357 36.13 51.3968 40.9384 48.2266 44.8337C45.0565 48.729 40.7218 51.5062 35.858 52.7581C32.6859 53.5736 29.2494 53.6706 26.0034 53.1269C22.7683 52.585 19.6825 51.3718 16.9445 49.5656C16.6853 49.3866 16.3776 49.2907 16.0624 49.291L15.9494 49.2911L15.8414 49.3244L8.94069 51.4582L11.1648 45.2085C11.2581 44.9626 11.2852 44.6964 11.2433 44.4367C11.2022 44.1822 11.0964 43.9428 10.9362 43.7413C8.00367 39.6728 6.44949 34.7727 6.50125 29.7575C6.55308 24.7355 8.21245 19.8622 11.2361 15.8521C14.2597 11.8419 18.4885 8.90598 23.3024 7.47462ZM38.4955 6.48773C33.4706 4.67213 27.9962 4.51411 22.8749 6.03683C17.7537 7.55955 13.255 10.6829 10.0384 14.949C6.82175 19.2151 5.05647 24.3994 5.00133 29.742C4.94619 35.0845 6.60409 40.3042 9.73196 44.6358L9.74636 44.6557L9.76204 44.6747L9.76242 44.6755L9.76232 44.6764L9.75834 44.6867L9.75466 44.697L7.32966 51.5113L7.30424 51.5827L7.29363 51.6578C7.26394 51.8679 7.28782 52.0821 7.36305 52.2804C7.43827 52.4788 7.5624 52.655 7.72391 52.7926C7.88543 52.9302 8.07908 53.0247 8.2869 53.0674C8.49469 53.1101 8.70991 53.0997 8.91256 53.037L8.91266 53.037L16.1094 50.8116L16.1105 50.8123C19.0252 52.7369 22.3108 54.0293 25.7556 54.6063C29.1923 55.1819 32.8414 55.0825 36.2317 54.2108L36.232 54.2108C41.4061 52.8789 46.0175 49.9245 49.39 45.7805C52.7626 41.6366 54.7188 36.5213 54.9719 31.1844C55.225 25.8476 53.7618 20.57 50.7966 16.1255C47.8314 11.681 43.5204 8.30333 38.4955 6.48773ZM23.2409 18.1782C23.2259 18.1782 23.211 18.1787 23.196 18.1796C22.0833 18.2462 20.9936 18.5254 19.986 19.002C19.9327 19.0272 19.8826 19.0585 19.8367 19.0954C18.9774 19.7862 18.2964 20.6733 17.8513 21.682C17.4061 22.6907 17.2097 23.7916 17.2786 24.8921L17.2788 24.8957C17.4442 27.3475 18.6247 29.7133 19.7259 31.4536L19.7886 31.5725C19.7976 31.5897 19.8073 31.6065 19.8177 31.6229C22.2645 35.5046 25.7859 38.5921 29.9541 40.5104C31.9018 41.4473 34.0155 41.9903 36.1737 42.1083C36.1873 42.1091 36.201 42.1095 36.2146 42.1095H37.1846H37.3544C37.3985 42.1095 37.4426 42.1056 37.4861 42.0978C38.5047 41.9161 39.4699 41.5096 40.3115 40.9077C41.1532 40.3059 41.85 39.524 42.3512 38.6188C42.3604 38.6023 42.3689 38.5855 42.3767 38.5684C42.9121 37.4022 43.0307 36.0875 42.7127 34.8444C42.6921 34.7636 42.6581 34.6869 42.6122 34.6173C42.3101 34.1592 41.8944 33.7873 41.4057 33.5378L41.4057 33.5377L41.3982 33.534L41.0646 34.2057L41.3982 33.534L41.398 33.5339L41.3975 33.5336L41.3955 33.5326L41.3876 33.5287L41.357 33.5136L41.2407 33.456C41.1403 33.4063 40.9963 33.3351 40.8215 33.2491C40.472 33.077 39.9992 32.8451 39.5062 32.6063C38.5801 32.1575 37.5032 31.6443 37.102 31.497C36.7715 31.3503 36.4165 31.2664 36.055 31.2498C36.0383 31.249 36.0215 31.2488 36.0047 31.2491C35.6272 31.2571 35.2586 31.3652 34.9365 31.5624C34.6299 31.7501 34.376 32.0122 34.1981 32.3239C33.8509 32.803 33.0593 33.7624 32.7354 34.1386L32.5679 34.089C30.0078 32.7547 27.8076 30.8258 26.1506 28.4666C26.3202 28.2808 26.4821 28.0881 26.636 27.889L26.9113 27.5678L26.9129 27.566C27.2014 27.2332 27.4378 26.8586 27.6141 26.455C27.6269 26.4258 27.6378 26.3958 27.6467 26.3652L27.6784 26.2568C27.8592 25.8663 27.8677 25.4716 27.8677 25.209C27.8677 24.8513 27.7885 24.4986 27.6364 24.1758C27.6317 24.1599 27.6271 24.1451 27.6229 24.1321C27.6061 24.08 27.5844 24.0198 27.5612 23.9578C27.5141 23.832 27.4488 23.6677 27.373 23.4815C27.2208 23.1075 27.0174 22.6236 26.8111 22.1367C26.6733 21.8113 26.5358 21.4885 26.411 21.1954L26.4099 21.1928C26.1539 20.5917 25.9513 20.1158 25.9074 19.9986C25.9049 19.9921 25.9024 19.9856 25.8998 19.9792C25.8977 19.9742 25.8957 19.9692 25.8935 19.9643C25.6731 19.4545 25.3907 19.0088 25.0115 18.6868C24.6158 18.351 24.1469 18.1782 23.6289 18.1782H23.2409ZM40.7209 34.8724L40.727 34.8755C40.9476 34.9887 41.1399 35.1494 41.2904 35.3453C41.4814 36.2078 41.3889 37.1101 41.0251 37.9171C40.633 38.6165 40.0915 39.2211 39.439 39.6876C38.7963 40.1472 38.0616 40.4617 37.2859 40.6095H37.1846H36.2353C34.2793 40.4999 32.364 40.006 30.5988 39.156L30.5988 39.1559L30.5867 39.1503C26.6888 37.3577 23.3944 34.4736 21.102 30.8474L21.039 30.7279C21.0296 30.7101 21.0195 30.6926 21.0087 30.6756C19.9481 29.0041 18.9169 26.8845 18.7755 24.7966C18.722 23.9365 18.8756 23.0761 19.2236 22.2876C19.5599 21.5255 20.0683 20.8522 20.7084 20.3202C21.5135 19.9515 22.3797 19.7339 23.2639 19.6782H23.6289C23.7898 19.6782 23.915 19.7237 24.0408 19.8304C24.1811 19.9496 24.3451 20.1668 24.5106 20.5456C24.578 20.7196 24.8035 21.2491 25.0655 21.8644L25.0659 21.8653C25.1836 22.1417 25.3086 22.4354 25.43 22.7219C25.636 23.2081 25.8358 23.6836 25.9836 24.0469C26.0579 24.2294 26.1169 24.3782 26.1565 24.484C26.1734 24.5292 26.1848 24.5612 26.1918 24.582C26.2058 24.651 26.2295 24.718 26.2624 24.7808C26.3316 24.9129 26.3677 25.0598 26.3677 25.209C26.3677 25.4699 26.3457 25.5729 26.312 25.6371C26.2891 25.681 26.2706 25.727 26.2567 25.7745L26.2212 25.8956C26.1074 26.1453 25.9583 26.3773 25.7784 26.5847L25.7784 26.5847L25.7754 26.5881L25.4844 26.9276C25.4758 26.9377 25.4674 26.948 25.4594 26.9585C25.2937 27.1739 25.1167 27.3804 24.9291 27.5771C24.9241 27.5824 24.9192 27.5876 24.9144 27.593L24.6961 27.8355C24.6155 27.9252 24.5576 28.0329 24.5274 28.1497C24.4834 28.3204 24.4834 28.4995 24.5274 28.6702C24.5483 28.751 24.5825 28.8277 24.6286 28.8972C26.4676 31.6705 28.9852 33.9276 31.9421 35.4542C31.984 35.4758 32.0278 35.4934 32.0731 35.5068L32.7278 35.7008C32.797 35.7213 32.8687 35.7317 32.9409 35.7317C33.1218 35.7317 33.2588 35.6706 33.3259 35.6358C33.4009 35.5969 33.46 35.5531 33.4992 35.5214C33.5774 35.4581 33.6432 35.3884 33.6869 35.3397C33.7339 35.2872 33.7756 35.236 33.8047 35.1996C33.8479 35.1457 33.8444 35.1495 33.842 35.1522C34.1609 34.7843 35.0578 33.7012 35.4427 33.1624C35.4611 33.1365 35.4779 33.1095 35.493 33.0816C35.546 32.9829 35.6243 32.9002 35.7197 32.8417C35.8087 32.7872 35.9097 32.7557 36.0136 32.7497C36.1847 32.7609 36.3524 32.8033 36.5084 32.8748C36.5303 32.8848 36.5527 32.8938 36.5755 32.9017C36.8369 32.9922 37.8431 33.4672 38.8521 33.9561C39.3413 34.1932 39.8112 34.4236 40.1589 34.5948C40.2383 34.6339 40.3113 34.6699 40.3767 34.7021C40.4544 34.7405 40.5214 34.7736 40.5755 34.8004L40.6908 34.8575L40.7209 34.8724Z" fill="black"/>
</g>
<defs>
<clipPath id="clip0_7665_271971">
<rect width="60" height="60" fill="white"/>
</clipPath>
</defs>
</svg>
