<svg width="61" height="61" viewBox="0 0 61 61" fill="none" xmlns="http://www.w3.org/2000/svg">
<path fill-rule="evenodd" clip-rule="evenodd" d="M2.56642 30.5C2.56642 45.9638 15.1026 58.5002 30.5665 58.5002C46.0304 58.5002 58.5665 45.9638 58.5665 30.5C58.5665 15.0358 46.0304 2.50006 30.5665 2.50006C15.1025 2.50006 2.56642 15.0358 2.56642 30.5ZM0.566422 30.5C0.566422 47.0683 13.998 60.5002 30.5665 60.5002C47.135 60.5002 60.5665 47.0683 60.5665 30.5C60.5665 13.9312 47.135 0.500056 30.5665 0.500056C13.998 0.500056 0.566422 13.9312 0.566422 30.5Z" fill="#666666"/>
<path d="M17.5664 30.4891L26.2406 39.1633L43.5664 21.8369" stroke="#666666" stroke-width="2" stroke-linecap="round" stroke-linejoin="round"/>
</svg>
