<svg width="60" height="60" viewBox="0 0 60 60" fill="none" xmlns="http://www.w3.org/2000/svg">
<g clip-path="url(#clip0_7801_293043)">
<path d="M27.2604 51.3336L27.2259 52.0828L27.2432 52.0836H27.2604V51.3336ZM24.3604 48.4336H23.6104V48.4508L23.6112 48.4681L24.3604 48.4336ZM22.4271 44.5669L22.3978 45.3164L22.4125 45.3169H22.4271V44.5669ZM17.5938 39.7336H16.8438V39.7482L16.8443 39.7628L17.5938 39.7336ZM17.5938 16.5336V15.7836H16.8438V16.5336H17.5938ZM20.4938 7.83359L19.7445 7.79913L19.7438 7.81635V7.83359H20.4938ZM23.3938 4.93359V4.18359H23.3765L23.3593 4.18439L23.3938 4.93359ZM34.9938 4.93359L35.0282 4.18439L35.011 4.18359H34.9938V4.93359ZM37.8938 7.83359H38.6438V7.81635L38.643 7.79913L37.8938 7.83359ZM40.7938 16.5336H41.5438V15.7836H40.7938V16.5336ZM40.7938 39.7336L41.543 39.7668L41.5438 39.7502V39.7336H40.7938ZM35.9604 44.5669V45.3169H35.977L35.9936 45.3162L35.9604 44.5669ZM34.0271 48.4336L34.7763 48.4681L34.7771 48.4508V48.4336H34.0271ZM31.1271 51.3336V52.0836H31.1443L31.1616 52.0828L31.1271 51.3336ZM44.4438 42.6336C44.4438 42.2194 44.108 41.8836 43.6938 41.8836C43.2795 41.8836 42.9438 42.2194 42.9438 42.6336H44.4438ZM25.497 8.80026C25.497 8.38605 25.1612 8.05026 24.747 8.05026C24.3328 8.05026 23.997 8.38605 23.997 8.80026H25.497ZM23.997 13.6336C23.997 14.0478 24.3328 14.3836 24.747 14.3836C25.1612 14.3836 25.497 14.0478 25.497 13.6336H23.997ZM34.197 8.80026C34.197 8.38605 33.8612 8.05026 33.447 8.05026C33.0328 8.05026 32.697 8.38605 32.697 8.80026H34.197ZM32.697 13.6336C32.697 14.0478 33.0328 14.3836 33.447 14.3836C33.8612 14.3836 34.197 14.0478 34.197 13.6336H32.697ZM28.2271 50.5836H27.2604V52.0836H28.2271V50.5836ZM27.2949 50.5844C26.7238 50.5581 26.1831 50.3194 25.7788 49.9152L24.7182 50.9758C25.3869 51.6446 26.2813 52.0393 27.2259 52.0828L27.2949 50.5844ZM25.7788 49.9152C25.3746 49.5109 25.1359 48.9702 25.1096 48.3991L23.6112 48.4681C23.6547 49.4128 24.0495 50.3071 24.7182 50.9758L25.7788 49.9152ZM25.1104 48.4336V44.5669H23.6104V48.4336H25.1104ZM24.3604 43.8169H22.4271V45.3169H24.3604V43.8169ZM22.4563 43.8175C21.3789 43.7755 20.357 43.3285 19.5945 42.5661L18.5338 43.6267C19.5632 44.6561 20.9431 45.2596 22.3978 45.3164L22.4563 43.8175ZM19.5945 42.5661C18.832 41.8036 18.3852 40.7818 18.3432 39.7043L16.8443 39.7628C16.9011 41.2176 17.5044 42.5973 18.5338 43.6267L19.5945 42.5661ZM18.3438 39.7336V16.5336H16.8438V39.7336H18.3438ZM17.5938 17.2836H20.4938V15.7836H17.5938V17.2836ZM21.2438 16.5336C21.2438 16.527 21.2438 16.5203 21.2438 16.5137C21.2438 16.5071 21.2438 16.5005 21.2438 16.4938C21.2438 16.4872 21.2438 16.4806 21.2438 16.474C21.2438 16.4674 21.2438 16.4608 21.2438 16.4542C21.2438 16.4476 21.2438 16.4411 21.2438 16.4345C21.2438 16.4279 21.2438 16.4213 21.2438 16.4148C21.2438 16.4082 21.2438 16.4016 21.2438 16.3951C21.2438 16.3885 21.2438 16.382 21.2438 16.3754C21.2438 16.3689 21.2438 16.3623 21.2438 16.3558C21.2438 16.3493 21.2438 16.3427 21.2438 16.3362C21.2438 16.3297 21.2438 16.3232 21.2438 16.3166C21.2438 16.3101 21.2438 16.3036 21.2438 16.2971C21.2438 16.2906 21.2438 16.2841 21.2438 16.2776C21.2438 16.2711 21.2438 16.2647 21.2438 16.2582C21.2438 16.2517 21.2438 16.2452 21.2438 16.2387C21.2438 16.2323 21.2438 16.2258 21.2438 16.2194C21.2438 16.2129 21.2438 16.2064 21.2438 16.2C21.2438 16.1935 21.2438 16.1871 21.2438 16.1807C21.2438 16.1742 21.2438 16.1678 21.2438 16.1614C21.2438 16.1549 21.2438 16.1485 21.2438 16.1421C21.2438 16.1357 21.2438 16.1293 21.2438 16.1229C21.2438 16.1165 21.2438 16.1101 21.2438 16.1037C21.2438 16.0973 21.2438 16.0909 21.2438 16.0845C21.2438 16.0781 21.2438 16.0717 21.2438 16.0653C21.2438 16.059 21.2438 16.0526 21.2438 16.0462C21.2438 16.0399 21.2438 16.0335 21.2438 16.0272C21.2438 16.0208 21.2438 16.0144 21.2438 16.0081C21.2438 16.0018 21.2438 15.9954 21.2438 15.9891C21.2438 15.9828 21.2438 15.9764 21.2438 15.9701C21.2438 15.9638 21.2438 15.9575 21.2438 15.9511C21.2438 15.9448 21.2438 15.9385 21.2438 15.9322C21.2438 15.9259 21.2438 15.9196 21.2438 15.9133C21.2438 15.907 21.2438 15.9007 21.2438 15.8944C21.2438 15.8882 21.2438 15.8819 21.2438 15.8756C21.2438 15.8693 21.2438 15.8631 21.2438 15.8568C21.2438 15.8505 21.2438 15.8443 21.2438 15.838C21.2438 15.8318 21.2438 15.8255 21.2438 15.8193C21.2438 15.813 21.2438 15.8068 21.2438 15.8006C21.2438 15.7943 21.2438 15.7881 21.2438 15.7819C21.2438 15.7756 21.2438 15.7694 21.2438 15.7632C21.2438 15.757 21.2438 15.7508 21.2438 15.7446C21.2438 15.7384 21.2438 15.7322 21.2438 15.726C21.2438 15.7198 21.2438 15.7136 21.2438 15.7074C21.2438 15.7012 21.2438 15.695 21.2438 15.6888C21.2438 15.6827 21.2438 15.6765 21.2438 15.6703C21.2438 15.6641 21.2438 15.658 21.2438 15.6518C21.2438 15.6457 21.2438 15.6395 21.2438 15.6334C21.2438 15.6272 21.2438 15.6211 21.2438 15.6149C21.2438 15.6088 21.2438 15.6027 21.2438 15.5965C21.2438 15.5904 21.2438 15.5843 21.2438 15.5781C21.2438 15.572 21.2438 15.5659 21.2438 15.5598C21.2438 15.5537 21.2438 15.5476 21.2438 15.5415C21.2438 15.5354 21.2438 15.5293 21.2438 15.5232C21.2438 15.5171 21.2438 15.511 21.2438 15.5049C21.2438 15.4988 21.2438 15.4927 21.2438 15.4867C21.2438 15.4806 21.2438 15.4745 21.2438 15.4684C21.2438 15.4624 21.2438 15.4563 21.2438 15.4502C21.2438 15.4442 21.2438 15.4381 21.2438 15.4321C21.2438 15.426 21.2438 15.42 21.2438 15.4139C21.2438 15.4079 21.2438 15.4019 21.2438 15.3958C21.2438 15.3898 21.2438 15.3838 21.2438 15.3777C21.2438 15.3717 21.2438 15.3657 21.2438 15.3597C21.2438 15.3537 21.2438 15.3477 21.2438 15.3417C21.2438 15.3356 21.2438 15.3296 21.2438 15.3236C21.2438 15.3176 21.2438 15.3117 21.2438 15.3057C21.2438 15.2997 21.2438 15.2937 21.2438 15.2877C21.2438 15.2817 21.2438 15.2758 21.2438 15.2698C21.2438 15.2638 21.2438 15.2578 21.2438 15.2519C21.2438 15.2459 21.2438 15.2399 21.2438 15.234C21.2438 15.228 21.2438 15.2221 21.2438 15.2161C21.2438 15.2102 21.2438 15.2042 21.2438 15.1983C21.2438 15.1924 21.2438 15.1864 21.2438 15.1805C21.2438 15.1746 21.2438 15.1686 21.2438 15.1627C21.2438 15.1568 21.2438 15.1509 21.2438 15.145C21.2438 15.139 21.2438 15.1331 21.2438 15.1272C21.2438 15.1213 21.2438 15.1154 21.2438 15.1095C21.2438 15.1036 21.2438 15.0977 21.2438 15.0918C21.2438 15.0859 21.2438 15.0801 21.2438 15.0742C21.2438 15.0683 21.2438 15.0624 21.2438 15.0565C21.2438 15.0507 21.2438 15.0448 21.2438 15.0389C21.2438 15.0331 21.2438 15.0272 21.2438 15.0213C21.2438 15.0155 21.2438 15.0096 21.2438 15.0038C21.2438 14.9979 21.2438 14.9921 21.2438 14.9862C21.2438 14.9804 21.2438 14.9745 21.2438 14.9687C21.2438 14.9629 21.2438 14.957 21.2438 14.9512C21.2438 14.9454 21.2438 14.9396 21.2438 14.9337C21.2438 14.9279 21.2438 14.9221 21.2438 14.9163C21.2438 14.9105 21.2438 14.9047 21.2438 14.8989C21.2438 14.893 21.2438 14.8872 21.2438 14.8814C21.2438 14.8756 21.2438 14.8699 21.2438 14.8641C21.2438 14.8583 21.2438 14.8525 21.2438 14.8467C21.2438 14.8409 21.2438 14.8351 21.2438 14.8294C21.2438 14.8236 21.2438 14.8178 21.2438 14.812C21.2438 14.8063 21.2438 14.8005 21.2438 14.7947C21.2438 14.789 21.2438 14.7832 21.2438 14.7775C21.2438 14.7717 21.2438 14.766 21.2438 14.7602C21.2438 14.7545 21.2438 14.7487 21.2438 14.743C21.2438 14.7372 21.2438 14.7315 21.2438 14.7258C21.2438 14.72 21.2438 14.7143 21.2438 14.7086C21.2438 14.7029 21.2438 14.6971 21.2438 14.6914C21.2438 14.6857 21.2438 14.68 21.2438 14.6743C21.2438 14.6686 21.2438 14.6628 21.2438 14.6571C21.2438 14.6514 21.2438 14.6457 21.2438 14.64C21.2438 14.6343 21.2438 14.6286 21.2438 14.6229C21.2438 14.6173 21.2438 14.6116 21.2438 14.6059C21.2438 14.6002 21.2438 14.5945 21.2438 14.5888C21.2438 14.5832 21.2438 14.5775 21.2438 14.5718C21.2438 14.5661 21.2438 14.5605 21.2438 14.5548C21.2438 14.5491 21.2438 14.5435 21.2438 14.5378C21.2438 14.5322 21.2438 14.5265 21.2438 14.5209C21.2438 14.5152 21.2438 14.5096 21.2438 14.5039C21.2438 14.4983 21.2438 14.4926 21.2438 14.487C21.2438 14.4813 21.2438 14.4757 21.2438 14.4701C21.2438 14.4644 21.2438 14.4588 21.2438 14.4532C21.2438 14.4476 21.2438 14.4419 21.2438 14.4363C21.2438 14.4307 21.2438 14.4251 21.2438 14.4195C21.2438 14.4138 21.2438 14.4082 21.2438 14.4026C21.2438 14.397 21.2438 14.3914 21.2438 14.3858C21.2438 14.3802 21.2438 14.3746 21.2438 14.369C21.2438 14.3634 21.2438 14.3578 21.2438 14.3522C21.2438 14.3466 21.2438 14.3411 21.2438 14.3355C21.2438 14.3299 21.2438 14.3243 21.2438 14.3187C21.2438 14.3132 21.2438 14.3076 21.2438 14.302C21.2438 14.2964 21.2438 14.2909 21.2438 14.2853C21.2438 14.2797 21.2438 14.2742 21.2438 14.2686C21.2438 14.2631 21.2438 14.2575 21.2438 14.2519C21.2438 14.2464 21.2438 14.2408 21.2438 14.2353C21.2438 14.2297 21.2438 14.2242 21.2438 14.2187C21.2438 14.2131 21.2438 14.2076 21.2438 14.202C21.2438 14.1965 21.2438 14.191 21.2438 14.1854C21.2438 14.1799 21.2438 14.1744 21.2438 14.1688C21.2438 14.1633 21.2438 14.1578 21.2438 14.1523C21.2438 14.1468 21.2438 14.1412 21.2438 14.1357C21.2438 14.1302 21.2438 14.1247 21.2438 14.1192C21.2438 14.1137 21.2438 14.1082 21.2438 14.1027C21.2438 14.0972 21.2438 14.0917 21.2438 14.0862C21.2438 14.0807 21.2438 14.0752 21.2438 14.0697C21.2438 14.0642 21.2438 14.0587 21.2438 14.0532C21.2438 14.0477 21.2438 14.0422 21.2438 14.0368C21.2438 14.0313 21.2438 14.0258 21.2438 14.0203C21.2438 14.0148 21.2438 14.0094 21.2438 14.0039C21.2438 13.9984 21.2438 13.9929 21.2438 13.9875C21.2438 13.982 21.2438 13.9765 21.2438 13.9711C21.2438 13.9656 21.2438 13.9602 21.2438 13.9547C21.2438 13.9492 21.2438 13.9438 21.2438 13.9383C21.2438 13.9329 21.2438 13.9274 21.2438 13.922C21.2438 13.9165 21.2438 13.9111 21.2438 13.9057C21.2438 13.9002 21.2438 13.8948 21.2438 13.8893C21.2438 13.8839 21.2438 13.8785 21.2438 13.873C21.2438 13.8676 21.2438 13.8622 21.2438 13.8567C21.2438 13.8513 21.2438 13.8459 21.2438 13.8405C21.2438 13.835 21.2438 13.8296 21.2438 13.8242C21.2438 13.8188 21.2438 13.8134 21.2438 13.808C21.2438 13.8025 21.2438 13.7971 21.2438 13.7917C21.2438 13.7863 21.2438 13.7809 21.2438 13.7755C21.2438 13.7701 21.2438 13.7647 21.2438 13.7593C21.2438 13.7539 21.2438 13.7485 21.2438 13.7431C21.2438 13.7377 21.2438 13.7323 21.2438 13.7269C21.2438 13.7215 21.2438 13.7161 21.2438 13.7107C21.2438 13.7054 21.2438 13.7 21.2438 13.6946C21.2438 13.6892 21.2438 13.6838 21.2438 13.6784C21.2438 13.6731 21.2438 13.6677 21.2438 13.6623C21.2438 13.6569 21.2438 13.6516 21.2438 13.6462C21.2438 13.6408 21.2438 13.6355 21.2438 13.6301C21.2438 13.6247 21.2438 13.6194 21.2438 13.614C21.2438 13.6086 21.2438 13.6033 21.2438 13.5979C21.2438 13.5926 21.2438 13.5872 21.2438 13.5818C21.2438 13.5765 21.2438 13.5711 21.2438 13.5658C21.2438 13.5604 21.2438 13.5551 21.2438 13.5497C21.2438 13.5444 21.2438 13.5391 21.2438 13.5337C21.2438 13.5284 21.2438 13.523 21.2438 13.5177C21.2438 13.5123 21.2438 13.507 21.2438 13.5017C21.2438 13.4963 21.2438 13.491 21.2438 13.4857C21.2438 13.4803 21.2438 13.475 21.2438 13.4697C21.2438 13.4644 21.2438 13.459 21.2438 13.4537C21.2438 13.4484 21.2438 13.4431 21.2438 13.4377C21.2438 13.4324 21.2438 13.4271 21.2438 13.4218C21.2438 13.4165 21.2438 13.4112 21.2438 13.4058C21.2438 13.4005 21.2438 13.3952 21.2438 13.3899C21.2438 13.3846 21.2438 13.3793 21.2438 13.374C21.2438 13.3687 21.2438 13.3634 21.2438 13.3581C21.2438 13.3528 21.2438 13.3475 21.2438 13.3422C21.2438 13.3369 21.2438 13.3316 21.2438 13.3263C21.2438 13.321 21.2438 13.3157 21.2438 13.3104C21.2438 13.3051 21.2438 13.2998 21.2438 13.2945C21.2438 13.2892 21.2438 13.2839 21.2438 13.2786C21.2438 13.2734 21.2438 13.2681 21.2438 13.2628C21.2438 13.2575 21.2438 13.2522 21.2438 13.2469C21.2438 13.2417 21.2438 13.2364 21.2438 13.2311C21.2438 13.2258 21.2438 13.2205 21.2438 13.2153C21.2438 13.21 21.2438 13.2047 21.2438 13.1994C21.2438 13.1942 21.2438 13.1889 21.2438 13.1836C21.2438 13.1784 21.2438 13.1731 21.2438 13.1678C21.2438 13.1626 21.2438 13.1573 21.2438 13.152C21.2438 13.1468 21.2438 13.1415 21.2438 13.1362C21.2438 13.131 21.2438 13.1257 21.2438 13.1205C21.2438 13.1152 21.2438 13.11 21.2438 13.1047C21.2438 13.0994 21.2438 13.0942 21.2438 13.0889C21.2438 13.0837 21.2438 13.0784 21.2438 13.0732C21.2438 13.0679 21.2438 13.0627 21.2438 13.0574C21.2438 13.0522 21.2438 13.0469 21.2438 13.0417C21.2438 13.0364 21.2438 13.0312 21.2438 13.026C21.2438 13.0207 21.2438 13.0155 21.2438 13.0102C21.2438 13.005 21.2438 12.9998 21.2438 12.9945C21.2438 12.9893 21.2438 12.984 21.2438 12.9788C21.2438 12.9736 21.2438 12.9683 21.2438 12.9631C21.2438 12.9579 21.2438 12.9526 21.2438 12.9474C21.2438 12.9422 21.2438 12.9369 21.2438 12.9317C21.2438 12.9265 21.2438 12.9213 21.2438 12.916C21.2438 12.9108 21.2438 12.9056 21.2438 12.9003C21.2438 12.8951 21.2438 12.8899 21.2438 12.8847C21.2438 12.8794 21.2438 12.8742 21.2438 12.869C21.2438 12.8638 21.2438 12.8586 21.2438 12.8533C21.2438 12.8481 21.2438 12.8429 21.2438 12.8377C21.2438 12.8325 21.2438 12.8273 21.2438 12.822C21.2438 12.8168 21.2438 12.8116 21.2438 12.8064C21.2438 12.8012 21.2438 12.796 21.2438 12.7908C21.2438 12.7855 21.2438 12.7803 21.2438 12.7751C21.2438 12.7699 21.2438 12.7647 21.2438 12.7595C21.2438 12.7543 21.2438 12.7491 21.2438 12.7439C21.2438 12.7387 21.2438 12.7335 21.2438 12.7283C21.2438 12.723 21.2438 12.7178 21.2438 12.7126C21.2438 12.7074 21.2438 12.7022 21.2438 12.697C21.2438 12.6918 21.2438 12.6866 21.2438 12.6814C21.2438 12.6762 21.2438 12.671 21.2438 12.6658C21.2438 12.6606 21.2438 12.6554 21.2438 12.6502C21.2438 12.645 21.2438 12.6398 21.2438 12.6346C21.2438 12.6294 21.2438 12.6242 21.2438 12.619C21.2438 12.6139 21.2438 12.6087 21.2438 12.6035C21.2438 12.5983 21.2438 12.5931 21.2438 12.5879C21.2438 12.5827 21.2438 12.5775 21.2438 12.5723C21.2438 12.5671 21.2438 12.5619 21.2438 12.5567C21.2438 12.5515 21.2438 12.5463 21.2438 12.5412C21.2438 12.536 21.2438 12.5308 21.2438 12.5256C21.2438 12.5204 21.2438 12.5152 21.2438 12.51C21.2438 12.5048 21.2438 12.4996 21.2438 12.4945C21.2438 12.4893 21.2438 12.4841 21.2438 12.4789C21.2438 12.4737 21.2438 12.4685 21.2438 12.4633C21.2438 12.4582 21.2438 12.453 21.2438 12.4478C21.2438 12.4426 21.2438 12.4374 21.2438 12.4322C21.2438 12.4271 21.2438 12.4219 21.2438 12.4167C21.2438 12.4115 21.2438 12.4063 21.2438 12.4011C21.2438 12.396 21.2438 12.3908 21.2438 12.3856C21.2438 12.3804 21.2438 12.3752 21.2438 12.37C21.2438 12.3649 21.2438 12.3597 21.2438 12.3545C21.2438 12.3493 21.2438 12.3441 21.2438 12.339C21.2438 12.3338 21.2438 12.3286 21.2438 12.3234C21.2438 12.3182 21.2438 12.3131 21.2438 12.3079C21.2438 12.3027 21.2438 12.2975 21.2438 12.2923C21.2438 12.2872 21.2438 12.282 21.2438 12.2768C21.2438 12.2716 21.2438 12.2664 21.2438 12.2613C21.2438 12.2561 21.2438 12.2509 21.2438 12.2457C21.2438 12.2406 21.2438 12.2354 21.2438 12.2302C21.2438 12.225 21.2438 12.2198 21.2438 12.2147C21.2438 12.2095 21.2438 12.2043 21.2438 12.1991C21.2438 12.194 21.2438 12.1888 21.2438 12.1836C21.2438 12.1784 21.2438 12.1732 21.2438 12.1681C21.2438 12.1629 21.2438 12.1577 21.2438 12.1525C21.2438 12.1473 21.2438 12.1422 21.2438 12.137C21.2438 12.1318 21.2438 12.1266 21.2438 12.1215C21.2438 12.1163 21.2438 12.1111 21.2438 12.1059C21.2438 12.1007 21.2438 12.0956 21.2438 12.0904C21.2438 12.0852 21.2438 12.08 21.2438 12.0748C21.2438 12.0697 21.2438 12.0645 21.2438 12.0593C21.2438 12.0541 21.2438 12.0489 21.2438 12.0438C21.2438 12.0386 21.2438 12.0334 21.2438 12.0282C21.2438 12.023 21.2438 12.0179 21.2438 12.0127C21.2438 12.0075 21.2438 12.0023 21.2438 11.9971C21.2438 11.992 21.2438 11.9868 21.2438 11.9816C21.2438 11.9764 21.2438 11.9712 21.2438 11.9661C21.2438 11.9609 21.2438 11.9557 21.2438 11.9505C21.2438 11.9453 21.2438 11.9401 21.2438 11.935C21.2438 11.9298 21.2438 11.9246 21.2438 11.9194C21.2438 11.9142 21.2438 11.909 21.2438 11.9038C21.2438 11.8987 21.2438 11.8935 21.2438 11.8883C21.2438 11.8831 21.2438 11.8779 21.2438 11.8727C21.2438 11.8675 21.2438 11.8624 21.2438 11.8572C21.2438 11.852 21.2438 11.8468 21.2438 11.8416C21.2438 11.8364 21.2438 11.8312 21.2438 11.826C21.2438 11.8208 21.2438 11.8156 21.2438 11.8105C21.2438 11.8053 21.2438 11.8001 21.2438 11.7949C21.2438 11.7897 21.2438 11.7845 21.2438 11.7793C21.2438 11.7741 21.2438 11.7689 21.2438 11.7637C21.2438 11.7585 21.2438 11.7533 21.2438 11.7481C21.2438 11.7429 21.2438 11.7377 21.2438 11.7326C21.2438 11.7274 21.2438 11.7222 21.2438 11.717C21.2438 11.7118 21.2438 11.7066 21.2438 11.7014C21.2438 11.6962 21.2438 11.691 21.2438 11.6858C21.2438 11.6806 21.2438 11.6754 21.2438 11.6702C21.2438 11.665 21.2438 11.6598 21.2438 11.6545C21.2438 11.6493 21.2438 11.6441 21.2438 11.6389C21.2438 11.6337 21.2438 11.6285 21.2438 11.6233C21.2438 11.6181 21.2438 11.6129 21.2438 11.6077C21.2438 11.6025 21.2438 11.5973 21.2438 11.5921C21.2438 11.5869 21.2438 11.5816 21.2438 11.5764C21.2438 11.5712 21.2438 11.566 21.2438 11.5608C21.2438 11.5556 21.2438 11.5504 21.2438 11.5451C21.2438 11.5399 21.2438 11.5347 21.2438 11.5295C21.2438 11.5243 21.2438 11.5191 21.2438 11.5138C21.2438 11.5086 21.2438 11.5034 21.2438 11.4982C21.2438 11.493 21.2438 11.4877 21.2438 11.4825C21.2438 11.4773 21.2438 11.4721 21.2438 11.4668C21.2438 11.4616 21.2438 11.4564 21.2438 11.4512C21.2438 11.4459 21.2438 11.4407 21.2438 11.4355C21.2438 11.4302 21.2438 11.425 21.2438 11.4198C21.2438 11.4146 21.2438 11.4093 21.2438 11.4041C21.2438 11.3989 21.2438 11.3936 21.2438 11.3884C21.2438 11.3831 21.2438 11.3779 21.2438 11.3727C21.2438 11.3674 21.2438 11.3622 21.2438 11.357C21.2438 11.3517 21.2438 11.3465 21.2438 11.3412C21.2438 11.336 21.2438 11.3307 21.2438 11.3255C21.2438 11.3203 21.2438 11.315 21.2438 11.3098C21.2438 11.3045 21.2438 11.2993 21.2438 11.294C21.2438 11.2888 21.2438 11.2835 21.2438 11.2783C21.2438 11.273 21.2438 11.2677 21.2438 11.2625C21.2438 11.2572 21.2438 11.252 21.2438 11.2467C21.2438 11.2415 21.2438 11.2362 21.2438 11.2309C21.2438 11.2257 21.2438 11.2204 21.2438 11.2152C21.2438 11.2099 21.2438 11.2046 21.2438 11.1994C21.2438 11.1941 21.2438 11.1888 21.2438 11.1836C21.2438 11.1783 21.2438 11.173 21.2438 11.1677C21.2438 11.1625 21.2438 11.1572 21.2438 11.1519C21.2438 11.1466 21.2438 11.1414 21.2438 11.1361C21.2438 11.1308 21.2438 11.1255 21.2438 11.1203C21.2438 11.115 21.2438 11.1097 21.2438 11.1044C21.2438 11.0991 21.2438 11.0938 21.2438 11.0886C21.2438 11.0833 21.2438 11.078 21.2438 11.0727C21.2438 11.0674 21.2438 11.0621 21.2438 11.0568C21.2438 11.0515 21.2438 11.0462 21.2438 11.0409C21.2438 11.0356 21.2438 11.0303 21.2438 11.025C21.2438 11.0197 21.2438 11.0144 21.2438 11.0091C21.2438 11.0038 21.2438 10.9985 21.2438 10.9932C21.2438 10.9879 21.2438 10.9826 21.2438 10.9773C21.2438 10.972 21.2438 10.9667 21.2438 10.9613C21.2438 10.956 21.2438 10.9507 21.2438 10.9454C21.2438 10.9401 21.2438 10.9348 21.2438 10.9294C21.2438 10.9241 21.2438 10.9188 21.2438 10.9135C21.2438 10.9082 21.2438 10.9028 21.2438 10.8975C21.2438 10.8922 21.2438 10.8868 21.2438 10.8815C21.2438 10.8762 21.2438 10.8708 21.2438 10.8655C21.2438 10.8602 21.2438 10.8548 21.2438 10.8495C21.2438 10.8442 21.2438 10.8388 21.2438 10.8335C21.2438 10.8281 21.2438 10.8228 21.2438 10.8174C21.2438 10.8121 21.2438 10.8068 21.2438 10.8014C21.2438 10.7961 21.2438 10.7907 21.2438 10.7853C21.2438 10.78 21.2438 10.7746 21.2438 10.7693C21.2438 10.7639 21.2438 10.7586 21.2438 10.7532C21.2438 10.7478 21.2438 10.7425 21.2438 10.7371C21.2438 10.7317 21.2438 10.7264 21.2438 10.721C21.2438 10.7156 21.2438 10.7103 21.2438 10.7049C21.2438 10.6995 21.2438 10.6941 21.2438 10.6887C21.2438 10.6834 21.2438 10.678 21.2438 10.6726C21.2438 10.6672 21.2438 10.6618 21.2438 10.6564C21.2438 10.6511 21.2438 10.6457 21.2438 10.6403C21.2438 10.6349 21.2438 10.6295 21.2438 10.6241C21.2438 10.6187 21.2438 10.6133 21.2438 10.6079C21.2438 10.6025 21.2438 10.5971 21.2438 10.5917C21.2438 10.5863 21.2438 10.5809 21.2438 10.5755C21.2438 10.5701 21.2438 10.5647 21.2438 10.5592C21.2438 10.5538 21.2438 10.5484 21.2438 10.543C21.2438 10.5376 21.2438 10.5321 21.2438 10.5267C21.2438 10.5213 21.2438 10.5159 21.2438 10.5104C21.2438 10.505 21.2438 10.4996 21.2438 10.4942C21.2438 10.4887 21.2438 10.4833 21.2438 10.4778C21.2438 10.4724 21.2438 10.467 21.2438 10.4615C21.2438 10.4561 21.2438 10.4506 21.2438 10.4452C21.2438 10.4397 21.2438 10.4343 21.2438 10.4288C21.2438 10.4234 21.2438 10.4179 21.2438 10.4125C21.2438 10.407 21.2438 10.4016 21.2438 10.3961C21.2438 10.3906 21.2438 10.3852 21.2438 10.3797C21.2438 10.3742 21.2438 10.3688 21.2438 10.3633C21.2438 10.3578 21.2438 10.3524 21.2438 10.3469C21.2438 10.3414 21.2438 10.3359 21.2438 10.3304C21.2438 10.325 21.2438 10.3195 21.2438 10.314C21.2438 10.3085 21.2438 10.303 21.2438 10.2975C21.2438 10.292 21.2438 10.2865 21.2438 10.281C21.2438 10.2755 21.2438 10.27 21.2438 10.2645C21.2438 10.259 21.2438 10.2535 21.2438 10.248C21.2438 10.2425 21.2438 10.237 21.2438 10.2315C21.2438 10.2259 21.2438 10.2204 21.2438 10.2149C21.2438 10.2094 21.2438 10.2039 21.2438 10.1983C21.2438 10.1928 21.2438 10.1873 21.2438 10.1818C21.2438 10.1762 21.2438 10.1707 21.2438 10.1652C21.2438 10.1596 21.2438 10.1541 21.2438 10.1485C21.2438 10.143 21.2438 10.1374 21.2438 10.1319C21.2438 10.1263 21.2438 10.1208 21.2438 10.1152C21.2438 10.1097 21.2438 10.1041 21.2438 10.0986C21.2438 10.093 21.2438 10.0874 21.2438 10.0819C21.2438 10.0763 21.2438 10.0707 21.2438 10.0652C21.2438 10.0596 21.2438 10.054 21.2438 10.0485C21.2438 10.0429 21.2438 10.0373 21.2438 10.0317C21.2438 10.0261 21.2438 10.0205 21.2438 10.015C21.2438 10.0094 21.2438 10.0038 21.2438 9.99818C21.2438 9.99258 21.2438 9.98698 21.2438 9.98138C21.2438 9.97578 21.2438 9.97017 21.2438 9.96456C21.2438 9.95896 21.2438 9.95335 21.2438 9.94773C21.2438 9.94212 21.2438 9.9365 21.2438 9.93088C21.2438 9.92526 21.2438 9.91964 21.2438 9.91401C21.2438 9.90838 21.2438 9.90275 21.2438 9.89712C21.2438 9.89149 21.2438 9.88585 21.2438 9.88021C21.2438 9.87457 21.2438 9.86893 21.2438 9.86328C21.2438 9.85764 21.2438 9.85199 21.2438 9.84634C21.2438 9.84068 21.2438 9.83503 21.2438 9.82937C21.2438 9.82371 21.2438 9.81805 21.2438 9.81238C21.2438 9.80672 21.2438 9.80105 21.2438 9.79538C21.2438 9.78971 21.2438 9.78403 21.2438 9.77835C21.2438 9.77267 21.2438 9.76699 21.2438 9.76131C21.2438 9.75562 21.2438 9.74993 21.2438 9.74424C21.2438 9.73855 21.2438 9.73285 21.2438 9.72715C21.2438 9.72145 21.2438 9.71575 21.2438 9.71005C21.2438 9.70434 21.2438 9.69863 21.2438 9.69292C21.2438 9.68721 21.2438 9.68149 21.2438 9.67577C21.2438 9.67005 21.2438 9.66433 21.2438 9.6586C21.2438 9.65288 21.2438 9.64715 21.2438 9.64141C21.2438 9.63568 21.2438 9.62994 21.2438 9.6242C21.2438 9.61846 21.2438 9.61272 21.2438 9.60697C21.2438 9.60122 21.2438 9.59547 21.2438 9.58972C21.2438 9.58396 21.2438 9.5782 21.2438 9.57244C21.2438 9.56668 21.2438 9.56091 21.2438 9.55514C21.2438 9.54938 21.2438 9.5436 21.2438 9.53783C21.2438 9.53205 21.2438 9.52627 21.2438 9.52049C21.2438 9.5147 21.2438 9.50891 21.2438 9.50312C21.2438 9.49733 21.2438 9.49154 21.2438 9.48574C21.2438 9.47994 21.2438 9.47414 21.2438 9.46833C21.2438 9.46253 21.2438 9.45672 21.2438 9.4509C21.2438 9.44509 21.2438 9.43927 21.2438 9.43345C21.2438 9.42763 21.2438 9.42181 21.2438 9.41598C21.2438 9.41015 21.2438 9.40432 21.2438 9.39848C21.2438 9.39264 21.2438 9.3868 21.2438 9.38096C21.2438 9.37512 21.2438 9.36927 21.2438 9.36342C21.2438 9.35757 21.2438 9.35171 21.2438 9.34585C21.2438 9.33999 21.2438 9.33413 21.2438 9.32826C21.2438 9.32239 21.2438 9.31652 21.2438 9.31065C21.2438 9.30477 21.2438 9.29889 21.2438 9.29301C21.2438 9.28713 21.2438 9.28124 21.2438 9.27535C21.2438 9.26946 21.2438 9.26357 21.2438 9.25767C21.2438 9.25177 21.2438 9.24586 21.2438 9.23996C21.2438 9.23405 21.2438 9.22814 21.2438 9.22223C21.2438 9.21631 21.2438 9.21039 21.2438 9.20447C21.2438 9.19855 21.2438 9.19262 21.2438 9.18669C21.2438 9.18076 21.2438 9.17482 21.2438 9.16888C21.2438 9.16294 21.2438 9.157 21.2438 9.15105C21.2438 9.1451 21.2438 9.13915 21.2438 9.13319C21.2438 9.12724 21.2438 9.12128 21.2438 9.11531C21.2438 9.10935 21.2438 9.10338 21.2438 9.09741C21.2438 9.09144 21.2438 9.08546 21.2438 9.07948C21.2438 9.0735 21.2438 9.06751 21.2438 9.06152C21.2438 9.05553 21.2438 9.04954 21.2438 9.04354C21.2438 9.03754 21.2438 9.03154 21.2438 9.02553C21.2438 9.01953 21.2438 9.01352 21.2438 9.0075C21.2438 9.00149 21.2438 8.99547 21.2438 8.98944C21.2438 8.98342 21.2438 8.97739 21.2438 8.97136C21.2438 8.96532 21.2438 8.95929 21.2438 8.95325C21.2438 8.9472 21.2438 8.94116 21.2438 8.93511C21.2438 8.92906 21.2438 8.923 21.2438 8.91694C21.2438 8.91089 21.2438 8.90482 21.2438 8.89875C21.2438 8.89269 21.2438 8.88661 21.2438 8.88054C21.2438 8.87446 21.2438 8.86838 21.2438 8.86229C21.2438 8.85621 21.2438 8.85012 21.2438 8.84402C21.2438 8.83793 21.2438 8.83183 21.2438 8.82573C21.2438 8.81962 21.2438 8.81351 21.2438 8.8074C21.2438 8.80129 21.2438 8.79517 21.2438 8.78905C21.2438 8.78293 21.2438 8.7768 21.2438 8.77067C21.2438 8.76454 21.2438 8.7584 21.2438 8.75226C21.2438 8.74612 21.2438 8.73997 21.2438 8.73382C21.2438 8.72767 21.2438 8.72152 21.2438 8.71536C21.2438 8.7092 21.2438 8.70304 21.2438 8.69687C21.2438 8.6907 21.2438 8.68453 21.2438 8.67835C21.2438 8.67217 21.2438 8.66599 21.2438 8.6598C21.2438 8.65362 21.2438 8.64742 21.2438 8.64123C21.2438 8.63503 21.2438 8.62883 21.2438 8.62262C21.2438 8.61642 21.2438 8.6102 21.2438 8.60399C21.2438 8.59777 21.2438 8.59155 21.2438 8.58533C21.2438 8.5791 21.2438 8.57287 21.2438 8.56664C21.2438 8.5604 21.2438 8.55416 21.2438 8.54792C21.2438 8.54167 21.2438 8.53542 21.2438 8.52917C21.2438 8.52291 21.2438 8.51665 21.2438 8.51039C21.2438 8.50412 21.2438 8.49785 21.2438 8.49158C21.2438 8.4853 21.2438 8.47903 21.2438 8.47274C21.2438 8.46646 21.2438 8.46017 21.2438 8.45387C21.2438 8.44758 21.2438 8.44128 21.2438 8.43498C21.2438 8.42867 21.2438 8.42236 21.2438 8.41605C21.2438 8.40973 21.2438 8.40341 21.2438 8.39709C21.2438 8.39077 21.2438 8.38444 21.2438 8.3781C21.2438 8.37177 21.2438 8.36543 21.2438 8.35908C21.2438 8.35274 21.2438 8.34639 21.2438 8.34003C21.2438 8.33368 21.2438 8.32732 21.2438 8.32095C21.2438 8.31459 21.2438 8.30822 21.2438 8.30184C21.2438 8.29547 21.2438 8.28909 21.2438 8.2827C21.2438 8.27632 21.2438 8.26993 21.2438 8.26353C21.2438 8.25713 21.2438 8.25073 21.2438 8.24433C21.2438 8.23792 21.2438 8.23151 21.2438 8.22509C21.2438 8.21867 21.2438 8.21225 21.2438 8.20582C21.2438 8.1994 21.2438 8.19296 21.2438 8.18653C21.2438 8.18009 21.2438 8.17364 21.2438 8.1672C21.2438 8.16075 21.2438 8.15429 21.2438 8.14783C21.2438 8.14137 21.2438 8.13491 21.2438 8.12844C21.2438 8.12197 21.2438 8.11549 21.2438 8.10901C21.2438 8.10253 21.2438 8.09605 21.2438 8.08955C21.2438 8.08306 21.2438 8.07657 21.2438 8.07006C21.2438 8.06356 21.2438 8.05705 21.2438 8.05054C21.2438 8.04403 21.2438 8.03751 21.2438 8.03098C21.2438 8.02446 21.2438 8.01793 21.2438 8.01139C21.2438 8.00486 21.2438 7.99832 21.2438 7.99177C21.2438 7.98523 21.2438 7.97867 21.2438 7.97212C21.2438 7.96556 21.2438 7.959 21.2438 7.95243C21.2438 7.94586 21.2438 7.93929 21.2438 7.93271C21.2438 7.92613 21.2438 7.91954 21.2438 7.91295C21.2438 7.90636 21.2438 7.89977 21.2438 7.89316C21.2438 7.88656 21.2438 7.87995 21.2438 7.87334C21.2438 7.86673 21.2438 7.86011 21.2438 7.85348C21.2438 7.84686 21.2438 7.84023 21.2438 7.83359H19.7438C19.7438 7.84023 19.7438 7.84686 19.7438 7.85348C19.7438 7.86011 19.7438 7.86673 19.7438 7.87334C19.7438 7.87995 19.7438 7.88656 19.7438 7.89316C19.7438 7.89977 19.7438 7.90636 19.7438 7.91295C19.7438 7.91954 19.7438 7.92613 19.7438 7.93271C19.7438 7.93929 19.7438 7.94586 19.7438 7.95243C19.7438 7.959 19.7438 7.96556 19.7438 7.97212C19.7438 7.97867 19.7438 7.98523 19.7438 7.99177C19.7438 7.99832 19.7438 8.00486 19.7438 8.01139C19.7438 8.01793 19.7438 8.02446 19.7438 8.03098C19.7438 8.03751 19.7438 8.04403 19.7438 8.05054C19.7438 8.05705 19.7438 8.06356 19.7438 8.07006C19.7438 8.07657 19.7438 8.08306 19.7438 8.08955C19.7438 8.09605 19.7438 8.10253 19.7438 8.10901C19.7438 8.11549 19.7438 8.12197 19.7438 8.12844C19.7438 8.13491 19.7438 8.14137 19.7438 8.14783C19.7438 8.15429 19.7438 8.16075 19.7438 8.1672C19.7438 8.17364 19.7438 8.18009 19.7438 8.18653C19.7438 8.19296 19.7438 8.1994 19.7438 8.20582C19.7438 8.21225 19.7438 8.21867 19.7438 8.22509C19.7438 8.23151 19.7438 8.23792 19.7438 8.24433C19.7438 8.25073 19.7438 8.25713 19.7438 8.26353C19.7438 8.26993 19.7438 8.27632 19.7438 8.2827C19.7438 8.28909 19.7438 8.29547 19.7438 8.30184C19.7438 8.30822 19.7438 8.31459 19.7438 8.32095C19.7438 8.32732 19.7438 8.33368 19.7438 8.34003C19.7438 8.34639 19.7438 8.35274 19.7438 8.35908C19.7438 8.36543 19.7438 8.37177 19.7438 8.3781C19.7438 8.38444 19.7438 8.39077 19.7438 8.39709C19.7438 8.40341 19.7438 8.40973 19.7438 8.41605C19.7438 8.42236 19.7438 8.42867 19.7438 8.43498C19.7438 8.44128 19.7438 8.44758 19.7438 8.45387C19.7438 8.46017 19.7438 8.46646 19.7438 8.47274C19.7438 8.47903 19.7438 8.4853 19.7438 8.49158C19.7438 8.49785 19.7438 8.50412 19.7438 8.51039C19.7438 8.51665 19.7438 8.52291 19.7438 8.52917C19.7438 8.53542 19.7438 8.54167 19.7438 8.54792C19.7438 8.55416 19.7438 8.5604 19.7438 8.56664C19.7438 8.57287 19.7438 8.5791 19.7438 8.58533C19.7438 8.59155 19.7438 8.59777 19.7438 8.60399C19.7438 8.6102 19.7438 8.61642 19.7438 8.62262C19.7438 8.62883 19.7438 8.63503 19.7438 8.64123C19.7438 8.64742 19.7438 8.65362 19.7438 8.6598C19.7438 8.66599 19.7438 8.67217 19.7438 8.67835C19.7438 8.68453 19.7438 8.6907 19.7438 8.69687C19.7438 8.70304 19.7438 8.7092 19.7438 8.71536C19.7438 8.72152 19.7438 8.72767 19.7438 8.73382C19.7438 8.73997 19.7438 8.74612 19.7438 8.75226C19.7438 8.7584 19.7438 8.76454 19.7438 8.77067C19.7438 8.7768 19.7438 8.78293 19.7438 8.78905C19.7438 8.79517 19.7438 8.80129 19.7438 8.8074C19.7438 8.81351 19.7438 8.81962 19.7438 8.82573C19.7438 8.83183 19.7438 8.83793 19.7438 8.84402C19.7438 8.85012 19.7438 8.85621 19.7438 8.86229C19.7438 8.86838 19.7438 8.87446 19.7438 8.88054C19.7438 8.88661 19.7438 8.89269 19.7438 8.89875C19.7438 8.90482 19.7438 8.91089 19.7438 8.91694C19.7438 8.923 19.7438 8.92906 19.7438 8.93511C19.7438 8.94116 19.7438 8.9472 19.7438 8.95325C19.7438 8.95929 19.7438 8.96532 19.7438 8.97136C19.7438 8.97739 19.7438 8.98342 19.7438 8.98944C19.7438 8.99547 19.7438 9.00149 19.7438 9.0075C19.7438 9.01352 19.7438 9.01953 19.7438 9.02553C19.7438 9.03154 19.7438 9.03754 19.7438 9.04354C19.7438 9.04954 19.7438 9.05553 19.7438 9.06152C19.7438 9.06751 19.7438 9.0735 19.7438 9.07948C19.7438 9.08546 19.7438 9.09144 19.7438 9.09741C19.7438 9.10338 19.7438 9.10935 19.7438 9.11531C19.7438 9.12128 19.7438 9.12724 19.7438 9.13319C19.7438 9.13915 19.7438 9.1451 19.7438 9.15105C19.7438 9.157 19.7438 9.16294 19.7438 9.16888C19.7438 9.17482 19.7438 9.18076 19.7438 9.18669C19.7438 9.19262 19.7438 9.19855 19.7438 9.20447C19.7438 9.21039 19.7438 9.21631 19.7438 9.22223C19.7438 9.22814 19.7438 9.23405 19.7438 9.23996C19.7438 9.24586 19.7438 9.25177 19.7438 9.25767C19.7438 9.26357 19.7438 9.26946 19.7438 9.27535C19.7438 9.28124 19.7438 9.28713 19.7438 9.29301C19.7438 9.29889 19.7438 9.30477 19.7438 9.31065C19.7438 9.31652 19.7438 9.32239 19.7438 9.32826C19.7438 9.33413 19.7438 9.33999 19.7438 9.34585C19.7438 9.35171 19.7438 9.35757 19.7438 9.36342C19.7438 9.36927 19.7438 9.37512 19.7438 9.38096C19.7438 9.3868 19.7438 9.39264 19.7438 9.39848C19.7438 9.40432 19.7438 9.41015 19.7438 9.41598C19.7438 9.42181 19.7438 9.42763 19.7438 9.43345C19.7438 9.43927 19.7438 9.44509 19.7438 9.4509C19.7438 9.45672 19.7438 9.46253 19.7438 9.46833C19.7438 9.47414 19.7438 9.47994 19.7438 9.48574C19.7438 9.49154 19.7438 9.49733 19.7438 9.50312C19.7438 9.50891 19.7438 9.5147 19.7438 9.52049C19.7438 9.52627 19.7438 9.53205 19.7438 9.53783C19.7438 9.5436 19.7438 9.54938 19.7438 9.55514C19.7438 9.56091 19.7438 9.56668 19.7438 9.57244C19.7438 9.5782 19.7438 9.58396 19.7438 9.58972C19.7438 9.59547 19.7438 9.60122 19.7438 9.60697C19.7438 9.61272 19.7438 9.61846 19.7438 9.6242C19.7438 9.62994 19.7438 9.63568 19.7438 9.64141C19.7438 9.64715 19.7438 9.65288 19.7438 9.6586C19.7438 9.66433 19.7438 9.67005 19.7438 9.67577C19.7438 9.68149 19.7438 9.68721 19.7438 9.69292C19.7438 9.69863 19.7438 9.70434 19.7438 9.71005C19.7438 9.71575 19.7438 9.72145 19.7438 9.72715C19.7438 9.73285 19.7438 9.73855 19.7438 9.74424C19.7438 9.74993 19.7438 9.75562 19.7438 9.76131C19.7438 9.76699 19.7438 9.77267 19.7438 9.77835C19.7438 9.78403 19.7438 9.78971 19.7438 9.79538C19.7438 9.80105 19.7438 9.80672 19.7438 9.81238C19.7438 9.81805 19.7438 9.82371 19.7438 9.82937C19.7438 9.83503 19.7438 9.84068 19.7438 9.84634C19.7438 9.85199 19.7438 9.85764 19.7438 9.86328C19.7438 9.86893 19.7438 9.87457 19.7438 9.88021C19.7438 9.88585 19.7438 9.89149 19.7438 9.89712C19.7438 9.90275 19.7438 9.90838 19.7438 9.91401C19.7438 9.91964 19.7438 9.92526 19.7438 9.93088C19.7438 9.9365 19.7438 9.94212 19.7438 9.94773C19.7438 9.95335 19.7438 9.95896 19.7438 9.96456C19.7438 9.97017 19.7438 9.97578 19.7438 9.98138C19.7438 9.98698 19.7438 9.99258 19.7438 9.99818C19.7438 10.0038 19.7438 10.0094 19.7438 10.015C19.7438 10.0205 19.7438 10.0261 19.7438 10.0317C19.7438 10.0373 19.7438 10.0429 19.7438 10.0485C19.7438 10.054 19.7438 10.0596 19.7438 10.0652C19.7438 10.0707 19.7438 10.0763 19.7438 10.0819C19.7438 10.0874 19.7438 10.093 19.7438 10.0986C19.7438 10.1041 19.7438 10.1097 19.7438 10.1152C19.7438 10.1208 19.7438 10.1263 19.7438 10.1319C19.7438 10.1374 19.7438 10.143 19.7438 10.1485C19.7438 10.1541 19.7438 10.1596 19.7438 10.1652C19.7438 10.1707 19.7438 10.1762 19.7438 10.1818C19.7438 10.1873 19.7438 10.1928 19.7438 10.1983C19.7438 10.2039 19.7438 10.2094 19.7438 10.2149C19.7438 10.2204 19.7438 10.2259 19.7438 10.2315C19.7438 10.237 19.7438 10.2425 19.7438 10.248C19.7438 10.2535 19.7438 10.259 19.7438 10.2645C19.7438 10.27 19.7438 10.2755 19.7438 10.281C19.7438 10.2865 19.7438 10.292 19.7438 10.2975C19.7438 10.303 19.7438 10.3085 19.7438 10.314C19.7438 10.3195 19.7438 10.325 19.7438 10.3304C19.7438 10.3359 19.7438 10.3414 19.7438 10.3469C19.7438 10.3524 19.7438 10.3578 19.7438 10.3633C19.7438 10.3688 19.7438 10.3742 19.7438 10.3797C19.7438 10.3852 19.7438 10.3906 19.7438 10.3961C19.7438 10.4016 19.7438 10.407 19.7438 10.4125C19.7438 10.4179 19.7438 10.4234 19.7438 10.4288C19.7438 10.4343 19.7438 10.4397 19.7438 10.4452C19.7438 10.4506 19.7438 10.4561 19.7438 10.4615C19.7438 10.467 19.7438 10.4724 19.7438 10.4778C19.7438 10.4833 19.7438 10.4887 19.7438 10.4942C19.7438 10.4996 19.7438 10.505 19.7438 10.5104C19.7438 10.5159 19.7438 10.5213 19.7438 10.5267C19.7438 10.5321 19.7438 10.5376 19.7438 10.543C19.7438 10.5484 19.7438 10.5538 19.7438 10.5592C19.7438 10.5647 19.7438 10.5701 19.7438 10.5755C19.7438 10.5809 19.7438 10.5863 19.7438 10.5917C19.7438 10.5971 19.7438 10.6025 19.7438 10.6079C19.7438 10.6133 19.7438 10.6187 19.7438 10.6241C19.7438 10.6295 19.7438 10.6349 19.7438 10.6403C19.7438 10.6457 19.7438 10.6511 19.7438 10.6564C19.7438 10.6618 19.7438 10.6672 19.7438 10.6726C19.7438 10.678 19.7438 10.6834 19.7438 10.6887C19.7438 10.6941 19.7438 10.6995 19.7438 10.7049C19.7438 10.7103 19.7438 10.7156 19.7438 10.721C19.7438 10.7264 19.7438 10.7317 19.7438 10.7371C19.7438 10.7425 19.7438 10.7478 19.7438 10.7532C19.7438 10.7586 19.7438 10.7639 19.7438 10.7693C19.7438 10.7746 19.7438 10.78 19.7438 10.7853C19.7438 10.7907 19.7438 10.7961 19.7438 10.8014C19.7438 10.8068 19.7438 10.8121 19.7438 10.8174C19.7438 10.8228 19.7438 10.8281 19.7438 10.8335C19.7438 10.8388 19.7438 10.8442 19.7438 10.8495C19.7438 10.8548 19.7438 10.8602 19.7438 10.8655C19.7438 10.8708 19.7438 10.8762 19.7438 10.8815C19.7438 10.8868 19.7438 10.8922 19.7438 10.8975C19.7438 10.9028 19.7438 10.9082 19.7438 10.9135C19.7438 10.9188 19.7438 10.9241 19.7438 10.9294C19.7438 10.9348 19.7438 10.9401 19.7438 10.9454C19.7438 10.9507 19.7438 10.956 19.7438 10.9613C19.7438 10.9667 19.7438 10.972 19.7438 10.9773C19.7438 10.9826 19.7438 10.9879 19.7438 10.9932C19.7438 10.9985 19.7438 11.0038 19.7438 11.0091C19.7438 11.0144 19.7438 11.0197 19.7438 11.025C19.7438 11.0303 19.7438 11.0356 19.7438 11.0409C19.7438 11.0462 19.7438 11.0515 19.7438 11.0568C19.7438 11.0621 19.7438 11.0674 19.7438 11.0727C19.7438 11.078 19.7438 11.0833 19.7438 11.0886C19.7438 11.0938 19.7438 11.0991 19.7438 11.1044C19.7438 11.1097 19.7438 11.115 19.7438 11.1203C19.7438 11.1255 19.7438 11.1308 19.7438 11.1361C19.7438 11.1414 19.7438 11.1466 19.7438 11.1519C19.7438 11.1572 19.7438 11.1625 19.7438 11.1677C19.7438 11.173 19.7438 11.1783 19.7438 11.1836C19.7438 11.1888 19.7438 11.1941 19.7438 11.1994C19.7438 11.2046 19.7438 11.2099 19.7438 11.2152C19.7438 11.2204 19.7438 11.2257 19.7438 11.2309C19.7438 11.2362 19.7438 11.2415 19.7438 11.2467C19.7438 11.252 19.7438 11.2572 19.7438 11.2625C19.7438 11.2677 19.7438 11.273 19.7438 11.2783C19.7438 11.2835 19.7438 11.2888 19.7438 11.294C19.7438 11.2993 19.7438 11.3045 19.7438 11.3098C19.7438 11.315 19.7438 11.3203 19.7438 11.3255C19.7438 11.3307 19.7438 11.336 19.7438 11.3412C19.7438 11.3465 19.7438 11.3517 19.7438 11.357C19.7438 11.3622 19.7438 11.3674 19.7438 11.3727C19.7438 11.3779 19.7438 11.3831 19.7438 11.3884C19.7438 11.3936 19.7438 11.3989 19.7438 11.4041C19.7438 11.4093 19.7438 11.4146 19.7438 11.4198C19.7438 11.425 19.7438 11.4302 19.7438 11.4355C19.7438 11.4407 19.7438 11.4459 19.7438 11.4512C19.7438 11.4564 19.7438 11.4616 19.7438 11.4668C19.7438 11.4721 19.7438 11.4773 19.7438 11.4825C19.7438 11.4877 19.7438 11.493 19.7438 11.4982C19.7438 11.5034 19.7438 11.5086 19.7438 11.5138C19.7438 11.5191 19.7438 11.5243 19.7438 11.5295C19.7438 11.5347 19.7438 11.5399 19.7438 11.5451C19.7438 11.5504 19.7438 11.5556 19.7438 11.5608C19.7438 11.566 19.7438 11.5712 19.7438 11.5764C19.7438 11.5816 19.7438 11.5869 19.7438 11.5921C19.7438 11.5973 19.7438 11.6025 19.7438 11.6077C19.7438 11.6129 19.7438 11.6181 19.7438 11.6233C19.7438 11.6285 19.7438 11.6337 19.7438 11.6389C19.7438 11.6441 19.7438 11.6493 19.7438 11.6545C19.7438 11.6598 19.7438 11.665 19.7438 11.6702C19.7438 11.6754 19.7438 11.6806 19.7438 11.6858C19.7438 11.691 19.7438 11.6962 19.7438 11.7014C19.7438 11.7066 19.7438 11.7118 19.7438 11.717C19.7438 11.7222 19.7438 11.7274 19.7438 11.7326C19.7438 11.7377 19.7438 11.7429 19.7438 11.7481C19.7438 11.7533 19.7438 11.7585 19.7438 11.7637C19.7438 11.7689 19.7438 11.7741 19.7438 11.7793C19.7438 11.7845 19.7438 11.7897 19.7438 11.7949C19.7438 11.8001 19.7438 11.8053 19.7438 11.8105C19.7438 11.8156 19.7438 11.8208 19.7438 11.826C19.7438 11.8312 19.7438 11.8364 19.7438 11.8416C19.7438 11.8468 19.7438 11.852 19.7438 11.8572C19.7438 11.8624 19.7438 11.8675 19.7438 11.8727C19.7438 11.8779 19.7438 11.8831 19.7438 11.8883C19.7438 11.8935 19.7438 11.8987 19.7438 11.9038C19.7438 11.909 19.7438 11.9142 19.7438 11.9194C19.7438 11.9246 19.7438 11.9298 19.7438 11.935C19.7438 11.9401 19.7438 11.9453 19.7438 11.9505C19.7438 11.9557 19.7438 11.9609 19.7438 11.9661C19.7438 11.9712 19.7438 11.9764 19.7438 11.9816C19.7438 11.9868 19.7438 11.992 19.7438 11.9971C19.7438 12.0023 19.7438 12.0075 19.7438 12.0127C19.7438 12.0179 19.7438 12.023 19.7438 12.0282C19.7438 12.0334 19.7438 12.0386 19.7438 12.0438C19.7438 12.0489 19.7438 12.0541 19.7438 12.0593C19.7438 12.0645 19.7438 12.0697 19.7438 12.0748C19.7438 12.08 19.7438 12.0852 19.7438 12.0904C19.7438 12.0956 19.7438 12.1007 19.7438 12.1059C19.7438 12.1111 19.7438 12.1163 19.7438 12.1215C19.7438 12.1266 19.7438 12.1318 19.7438 12.137C19.7438 12.1422 19.7438 12.1473 19.7438 12.1525C19.7438 12.1577 19.7438 12.1629 19.7438 12.1681C19.7438 12.1732 19.7438 12.1784 19.7438 12.1836C19.7438 12.1888 19.7438 12.194 19.7438 12.1991C19.7438 12.2043 19.7438 12.2095 19.7438 12.2147C19.7438 12.2198 19.7438 12.225 19.7438 12.2302C19.7438 12.2354 19.7438 12.2406 19.7438 12.2457C19.7438 12.2509 19.7438 12.2561 19.7438 12.2613C19.7438 12.2664 19.7438 12.2716 19.7438 12.2768C19.7438 12.282 19.7438 12.2872 19.7438 12.2923C19.7438 12.2975 19.7438 12.3027 19.7438 12.3079C19.7438 12.3131 19.7438 12.3182 19.7438 12.3234C19.7438 12.3286 19.7438 12.3338 19.7438 12.339C19.7438 12.3441 19.7438 12.3493 19.7438 12.3545C19.7438 12.3597 19.7438 12.3649 19.7438 12.37C19.7438 12.3752 19.7438 12.3804 19.7438 12.3856C19.7438 12.3908 19.7438 12.396 19.7438 12.4011C19.7438 12.4063 19.7438 12.4115 19.7438 12.4167C19.7438 12.4219 19.7438 12.4271 19.7438 12.4322C19.7438 12.4374 19.7438 12.4426 19.7438 12.4478C19.7438 12.453 19.7438 12.4582 19.7438 12.4633C19.7438 12.4685 19.7438 12.4737 19.7438 12.4789C19.7438 12.4841 19.7438 12.4893 19.7438 12.4945C19.7438 12.4996 19.7438 12.5048 19.7438 12.51C19.7438 12.5152 19.7438 12.5204 19.7438 12.5256C19.7438 12.5308 19.7438 12.536 19.7438 12.5412C19.7438 12.5463 19.7438 12.5515 19.7438 12.5567C19.7438 12.5619 19.7438 12.5671 19.7438 12.5723C19.7438 12.5775 19.7438 12.5827 19.7438 12.5879C19.7438 12.5931 19.7438 12.5983 19.7438 12.6035C19.7438 12.6087 19.7438 12.6139 19.7438 12.619C19.7438 12.6242 19.7438 12.6294 19.7438 12.6346C19.7438 12.6398 19.7438 12.645 19.7438 12.6502C19.7438 12.6554 19.7438 12.6606 19.7438 12.6658C19.7438 12.671 19.7438 12.6762 19.7438 12.6814C19.7438 12.6866 19.7438 12.6918 19.7438 12.697C19.7438 12.7022 19.7438 12.7074 19.7438 12.7126C19.7438 12.7178 19.7438 12.723 19.7438 12.7283C19.7438 12.7335 19.7438 12.7387 19.7438 12.7439C19.7438 12.7491 19.7438 12.7543 19.7438 12.7595C19.7438 12.7647 19.7438 12.7699 19.7438 12.7751C19.7438 12.7803 19.7438 12.7855 19.7438 12.7908C19.7438 12.796 19.7438 12.8012 19.7438 12.8064C19.7438 12.8116 19.7438 12.8168 19.7438 12.822C19.7438 12.8273 19.7438 12.8325 19.7438 12.8377C19.7438 12.8429 19.7438 12.8481 19.7438 12.8533C19.7438 12.8586 19.7438 12.8638 19.7438 12.869C19.7438 12.8742 19.7438 12.8794 19.7438 12.8847C19.7438 12.8899 19.7438 12.8951 19.7438 12.9003C19.7438 12.9056 19.7438 12.9108 19.7438 12.916C19.7438 12.9213 19.7438 12.9265 19.7438 12.9317C19.7438 12.9369 19.7438 12.9422 19.7438 12.9474C19.7438 12.9526 19.7438 12.9579 19.7438 12.9631C19.7438 12.9683 19.7438 12.9736 19.7438 12.9788C19.7438 12.984 19.7438 12.9893 19.7438 12.9945C19.7438 12.9998 19.7438 13.005 19.7438 13.0102C19.7438 13.0155 19.7438 13.0207 19.7438 13.026C19.7438 13.0312 19.7438 13.0364 19.7438 13.0417C19.7438 13.0469 19.7438 13.0522 19.7438 13.0574C19.7438 13.0627 19.7438 13.0679 19.7438 13.0732C19.7438 13.0784 19.7438 13.0837 19.7438 13.0889C19.7438 13.0942 19.7438 13.0994 19.7438 13.1047C19.7438 13.11 19.7438 13.1152 19.7438 13.1205C19.7438 13.1257 19.7438 13.131 19.7438 13.1362C19.7438 13.1415 19.7438 13.1468 19.7438 13.152C19.7438 13.1573 19.7438 13.1626 19.7438 13.1678C19.7438 13.1731 19.7438 13.1784 19.7438 13.1836C19.7438 13.1889 19.7438 13.1942 19.7438 13.1994C19.7438 13.2047 19.7438 13.21 19.7438 13.2153C19.7438 13.2205 19.7438 13.2258 19.7438 13.2311C19.7438 13.2364 19.7438 13.2417 19.7438 13.2469C19.7438 13.2522 19.7438 13.2575 19.7438 13.2628C19.7438 13.2681 19.7438 13.2734 19.7438 13.2786C19.7438 13.2839 19.7438 13.2892 19.7438 13.2945C19.7438 13.2998 19.7438 13.3051 19.7438 13.3104C19.7438 13.3157 19.7438 13.321 19.7438 13.3263C19.7438 13.3316 19.7438 13.3369 19.7438 13.3422C19.7438 13.3475 19.7438 13.3528 19.7438 13.3581C19.7438 13.3634 19.7438 13.3687 19.7438 13.374C19.7438 13.3793 19.7438 13.3846 19.7438 13.3899C19.7438 13.3952 19.7438 13.4005 19.7438 13.4058C19.7438 13.4112 19.7438 13.4165 19.7438 13.4218C19.7438 13.4271 19.7438 13.4324 19.7438 13.4377C19.7438 13.4431 19.7438 13.4484 19.7438 13.4537C19.7438 13.459 19.7438 13.4644 19.7438 13.4697C19.7438 13.475 19.7438 13.4803 19.7438 13.4857C19.7438 13.491 19.7438 13.4963 19.7438 13.5017C19.7438 13.507 19.7438 13.5123 19.7438 13.5177C19.7438 13.523 19.7438 13.5284 19.7438 13.5337C19.7438 13.5391 19.7438 13.5444 19.7438 13.5497C19.7438 13.5551 19.7438 13.5604 19.7438 13.5658C19.7438 13.5711 19.7438 13.5765 19.7438 13.5818C19.7438 13.5872 19.7438 13.5926 19.7438 13.5979C19.7438 13.6033 19.7438 13.6086 19.7438 13.614C19.7438 13.6194 19.7438 13.6247 19.7438 13.6301C19.7438 13.6355 19.7438 13.6408 19.7438 13.6462C19.7438 13.6516 19.7438 13.6569 19.7438 13.6623C19.7438 13.6677 19.7438 13.6731 19.7438 13.6784C19.7438 13.6838 19.7438 13.6892 19.7438 13.6946C19.7438 13.7 19.7438 13.7054 19.7438 13.7107C19.7438 13.7161 19.7438 13.7215 19.7438 13.7269C19.7438 13.7323 19.7438 13.7377 19.7438 13.7431C19.7438 13.7485 19.7438 13.7539 19.7438 13.7593C19.7438 13.7647 19.7438 13.7701 19.7438 13.7755C19.7438 13.7809 19.7438 13.7863 19.7438 13.7917C19.7438 13.7971 19.7438 13.8025 19.7438 13.808C19.7438 13.8134 19.7438 13.8188 19.7438 13.8242C19.7438 13.8296 19.7438 13.835 19.7438 13.8405C19.7438 13.8459 19.7438 13.8513 19.7438 13.8567C19.7438 13.8622 19.7438 13.8676 19.7438 13.873C19.7438 13.8785 19.7438 13.8839 19.7438 13.8893C19.7438 13.8948 19.7438 13.9002 19.7438 13.9057C19.7438 13.9111 19.7438 13.9165 19.7438 13.922C19.7438 13.9274 19.7438 13.9329 19.7438 13.9383C19.7438 13.9438 19.7438 13.9492 19.7438 13.9547C19.7438 13.9602 19.7438 13.9656 19.7438 13.9711C19.7438 13.9765 19.7438 13.982 19.7438 13.9875C19.7438 13.9929 19.7438 13.9984 19.7438 14.0039C19.7438 14.0094 19.7438 14.0148 19.7438 14.0203C19.7438 14.0258 19.7438 14.0313 19.7438 14.0368C19.7438 14.0422 19.7438 14.0477 19.7438 14.0532C19.7438 14.0587 19.7438 14.0642 19.7438 14.0697C19.7438 14.0752 19.7438 14.0807 19.7438 14.0862C19.7438 14.0917 19.7438 14.0972 19.7438 14.1027C19.7438 14.1082 19.7438 14.1137 19.7438 14.1192C19.7438 14.1247 19.7438 14.1302 19.7438 14.1357C19.7438 14.1412 19.7438 14.1468 19.7438 14.1523C19.7438 14.1578 19.7438 14.1633 19.7438 14.1688C19.7438 14.1744 19.7438 14.1799 19.7438 14.1854C19.7438 14.191 19.7438 14.1965 19.7438 14.202C19.7438 14.2076 19.7438 14.2131 19.7438 14.2187C19.7438 14.2242 19.7438 14.2297 19.7438 14.2353C19.7438 14.2408 19.7438 14.2464 19.7438 14.2519C19.7438 14.2575 19.7438 14.2631 19.7438 14.2686C19.7438 14.2742 19.7438 14.2797 19.7438 14.2853C19.7438 14.2909 19.7438 14.2964 19.7438 14.302C19.7438 14.3076 19.7438 14.3132 19.7438 14.3187C19.7438 14.3243 19.7438 14.3299 19.7438 14.3355C19.7438 14.3411 19.7438 14.3466 19.7438 14.3522C19.7438 14.3578 19.7438 14.3634 19.7438 14.369C19.7438 14.3746 19.7438 14.3802 19.7438 14.3858C19.7438 14.3914 19.7438 14.397 19.7438 14.4026C19.7438 14.4082 19.7438 14.4138 19.7438 14.4195C19.7438 14.4251 19.7438 14.4307 19.7438 14.4363C19.7438 14.4419 19.7438 14.4476 19.7438 14.4532C19.7438 14.4588 19.7438 14.4644 19.7438 14.4701C19.7438 14.4757 19.7438 14.4813 19.7438 14.487C19.7438 14.4926 19.7438 14.4983 19.7438 14.5039C19.7438 14.5096 19.7438 14.5152 19.7438 14.5209C19.7438 14.5265 19.7438 14.5322 19.7438 14.5378C19.7438 14.5435 19.7438 14.5491 19.7438 14.5548C19.7438 14.5605 19.7438 14.5661 19.7438 14.5718C19.7438 14.5775 19.7438 14.5832 19.7438 14.5888C19.7438 14.5945 19.7438 14.6002 19.7438 14.6059C19.7438 14.6116 19.7438 14.6173 19.7438 14.6229C19.7438 14.6286 19.7438 14.6343 19.7438 14.64C19.7438 14.6457 19.7438 14.6514 19.7438 14.6571C19.7438 14.6628 19.7438 14.6686 19.7438 14.6743C19.7438 14.68 19.7438 14.6857 19.7438 14.6914C19.7438 14.6971 19.7438 14.7029 19.7438 14.7086C19.7438 14.7143 19.7438 14.72 19.7438 14.7258C19.7438 14.7315 19.7438 14.7372 19.7438 14.743C19.7438 14.7487 19.7438 14.7545 19.7438 14.7602C19.7438 14.766 19.7438 14.7717 19.7438 14.7775C19.7438 14.7832 19.7438 14.789 19.7438 14.7947C19.7438 14.8005 19.7438 14.8063 19.7438 14.812C19.7438 14.8178 19.7438 14.8236 19.7438 14.8294C19.7438 14.8351 19.7438 14.8409 19.7438 14.8467C19.7438 14.8525 19.7438 14.8583 19.7438 14.8641C19.7438 14.8699 19.7438 14.8756 19.7438 14.8814C19.7438 14.8872 19.7438 14.893 19.7438 14.8989C19.7438 14.9047 19.7438 14.9105 19.7438 14.9163C19.7438 14.9221 19.7438 14.9279 19.7438 14.9337C19.7438 14.9396 19.7438 14.9454 19.7438 14.9512C19.7438 14.957 19.7438 14.9629 19.7438 14.9687C19.7438 14.9745 19.7438 14.9804 19.7438 14.9862C19.7438 14.9921 19.7438 14.9979 19.7438 15.0038C19.7438 15.0096 19.7438 15.0155 19.7438 15.0213C19.7438 15.0272 19.7438 15.0331 19.7438 15.0389C19.7438 15.0448 19.7438 15.0507 19.7438 15.0565C19.7438 15.0624 19.7438 15.0683 19.7438 15.0742C19.7438 15.0801 19.7438 15.0859 19.7438 15.0918C19.7438 15.0977 19.7438 15.1036 19.7438 15.1095C19.7438 15.1154 19.7438 15.1213 19.7438 15.1272C19.7438 15.1331 19.7438 15.139 19.7438 15.145C19.7438 15.1509 19.7438 15.1568 19.7438 15.1627C19.7438 15.1686 19.7438 15.1746 19.7438 15.1805C19.7438 15.1864 19.7438 15.1924 19.7438 15.1983C19.7438 15.2042 19.7438 15.2102 19.7438 15.2161C19.7438 15.2221 19.7438 15.228 19.7438 15.234C19.7438 15.2399 19.7438 15.2459 19.7438 15.2519C19.7438 15.2578 19.7438 15.2638 19.7438 15.2698C19.7438 15.2758 19.7438 15.2817 19.7438 15.2877C19.7438 15.2937 19.7438 15.2997 19.7438 15.3057C19.7438 15.3117 19.7438 15.3176 19.7438 15.3236C19.7438 15.3296 19.7438 15.3356 19.7438 15.3417C19.7438 15.3477 19.7438 15.3537 19.7438 15.3597C19.7438 15.3657 19.7438 15.3717 19.7438 15.3777C19.7438 15.3838 19.7438 15.3898 19.7438 15.3958C19.7438 15.4019 19.7438 15.4079 19.7438 15.4139C19.7438 15.42 19.7438 15.426 19.7438 15.4321C19.7438 15.4381 19.7438 15.4442 19.7438 15.4502C19.7438 15.4563 19.7438 15.4624 19.7438 15.4684C19.7438 15.4745 19.7438 15.4806 19.7438 15.4867C19.7438 15.4927 19.7438 15.4988 19.7438 15.5049C19.7438 15.511 19.7438 15.5171 19.7438 15.5232C19.7438 15.5293 19.7438 15.5354 19.7438 15.5415C19.7438 15.5476 19.7438 15.5537 19.7438 15.5598C19.7438 15.5659 19.7438 15.572 19.7438 15.5781C19.7438 15.5843 19.7438 15.5904 19.7438 15.5965C19.7438 15.6027 19.7438 15.6088 19.7438 15.6149C19.7438 15.6211 19.7438 15.6272 19.7438 15.6334C19.7438 15.6395 19.7438 15.6457 19.7438 15.6518C19.7438 15.658 19.7438 15.6641 19.7438 15.6703C19.7438 15.6765 19.7438 15.6827 19.7438 15.6888C19.7438 15.695 19.7438 15.7012 19.7438 15.7074C19.7438 15.7136 19.7438 15.7198 19.7438 15.726C19.7438 15.7322 19.7438 15.7384 19.7438 15.7446C19.7438 15.7508 19.7438 15.757 19.7438 15.7632C19.7438 15.7694 19.7438 15.7756 19.7438 15.7819C19.7438 15.7881 19.7438 15.7943 19.7438 15.8006C19.7438 15.8068 19.7438 15.813 19.7438 15.8193C19.7438 15.8255 19.7438 15.8318 19.7438 15.838C19.7438 15.8443 19.7438 15.8505 19.7438 15.8568C19.7438 15.8631 19.7438 15.8693 19.7438 15.8756C19.7438 15.8819 19.7438 15.8882 19.7438 15.8944C19.7438 15.9007 19.7438 15.907 19.7438 15.9133C19.7438 15.9196 19.7438 15.9259 19.7438 15.9322C19.7438 15.9385 19.7438 15.9448 19.7438 15.9511C19.7438 15.9575 19.7438 15.9638 19.7438 15.9701C19.7438 15.9764 19.7438 15.9828 19.7438 15.9891C19.7438 15.9954 19.7438 16.0018 19.7438 16.0081C19.7438 16.0144 19.7438 16.0208 19.7438 16.0272C19.7438 16.0335 19.7438 16.0399 19.7438 16.0462C19.7438 16.0526 19.7438 16.059 19.7438 16.0653C19.7438 16.0717 19.7438 16.0781 19.7438 16.0845C19.7438 16.0909 19.7438 16.0973 19.7438 16.1037C19.7438 16.1101 19.7438 16.1165 19.7438 16.1229C19.7438 16.1293 19.7438 16.1357 19.7438 16.1421C19.7438 16.1485 19.7438 16.1549 19.7438 16.1614C19.7438 16.1678 19.7438 16.1742 19.7438 16.1807C19.7438 16.1871 19.7438 16.1935 19.7438 16.2C19.7438 16.2064 19.7438 16.2129 19.7438 16.2194C19.7438 16.2258 19.7438 16.2323 19.7438 16.2387C19.7438 16.2452 19.7438 16.2517 19.7438 16.2582C19.7438 16.2647 19.7438 16.2711 19.7438 16.2776C19.7438 16.2841 19.7438 16.2906 19.7438 16.2971C19.7438 16.3036 19.7438 16.3101 19.7438 16.3166C19.7438 16.3232 19.7438 16.3297 19.7438 16.3362C19.7438 16.3427 19.7438 16.3493 19.7438 16.3558C19.7438 16.3623 19.7438 16.3689 19.7438 16.3754C19.7438 16.382 19.7438 16.3885 19.7438 16.3951C19.7438 16.4016 19.7438 16.4082 19.7438 16.4148C19.7438 16.4213 19.7438 16.4279 19.7438 16.4345C19.7438 16.4411 19.7438 16.4476 19.7438 16.4542C19.7438 16.4608 19.7438 16.4674 19.7438 16.474C19.7438 16.4806 19.7438 16.4872 19.7438 16.4938C19.7438 16.5005 19.7438 16.5071 19.7438 16.5137C19.7438 16.5203 19.7438 16.527 19.7438 16.5336H21.2438ZM21.243 7.86806C21.2692 7.29696 21.5079 6.75626 21.9122 6.352L20.8515 5.29134C20.1828 5.96005 19.788 6.85443 19.7445 7.79913L21.243 7.86806ZM21.9122 6.352C22.3164 5.94774 22.8571 5.70908 23.4282 5.6828L23.3593 4.18439C22.4146 4.22785 21.5202 4.62264 20.8515 5.29134L21.9122 6.352ZM23.3938 5.68359H34.9938V4.18359H23.3938V5.68359ZM34.9593 5.6828C35.5304 5.70908 36.0711 5.94774 36.4753 6.352L37.536 5.29134C36.8673 4.62264 35.9729 4.22785 35.0282 4.18439L34.9593 5.6828ZM36.4753 6.352C36.8796 6.75626 37.1183 7.29696 37.1445 7.86806L38.643 7.79913C38.5995 6.85443 38.2047 5.96005 37.536 5.29134L36.4753 6.352ZM37.1438 7.83359V16.5336H38.6438V7.83359H37.1438ZM37.8938 17.2836H40.7938V15.7836H37.8938V17.2836ZM40.0438 16.5336V39.7336H41.5438V16.5336H40.0438ZM40.0445 39.7004C39.9968 40.777 39.5477 41.7967 38.7857 42.5588L39.8463 43.6194C40.8735 42.5923 41.4787 41.2179 41.543 39.7668L40.0445 39.7004ZM38.7857 42.5588C38.0236 43.3208 37.0038 43.77 35.9272 43.8177L35.9936 45.3162C37.4448 45.2519 38.8193 44.6465 39.8463 43.6194L38.7857 42.5588ZM35.9604 43.8169H34.0271V45.3169H35.9604V43.8169ZM33.2771 44.5669V48.4336H34.7771V44.5669H33.2771ZM33.2779 48.3991C33.2516 48.9702 33.0129 49.5109 32.6087 49.9152L33.6693 50.9758C34.338 50.3071 34.7328 49.4128 34.7763 48.4681L33.2779 48.3991ZM32.6087 49.9152C32.2044 50.3194 31.6637 50.5581 31.0926 50.5844L31.1616 52.0828C32.1062 52.0393 33.0006 51.6446 33.6693 50.9758L32.6087 49.9152ZM31.1271 50.5836H29.1938V52.0836H31.1271V50.5836ZM28.4438 51.3336V54.2336H29.9438V51.3336H28.4438ZM28.4438 54.2336C28.4438 54.8958 28.6051 55.4885 28.9275 55.9949C29.2478 56.498 29.7007 56.8748 30.2228 57.1512C31.246 57.6929 32.6 57.8836 34.0271 57.8836V56.3836C32.6895 56.3836 31.6268 56.1973 30.9246 55.8255C30.5839 55.6451 30.3468 55.4311 30.1928 55.1893C30.041 54.9507 29.9438 54.6444 29.9438 54.2336H28.4438ZM34.0271 57.8836H38.8604V56.3836H34.0271V57.8836ZM38.8604 57.8836C40.5471 57.8836 41.957 57.0023 42.9219 55.7734C43.8833 54.5489 44.4438 52.9355 44.4438 51.3336H42.9438C42.9438 52.6027 42.4941 53.8893 41.7421 54.8471C40.9935 55.8004 39.9867 56.3836 38.8604 56.3836V57.8836ZM44.4438 51.3336V42.6336H42.9438V51.3336H44.4438ZM20.4938 17.2836H37.8938V15.7836H20.4938V17.2836ZM24.3604 45.3169H34.0271V43.8169H24.3604V45.3169ZM28.2271 52.0836H29.1938V50.5836H28.2271V52.0836ZM23.997 8.80026V13.6336H25.497V8.80026H23.997ZM32.697 8.80026V13.6336H34.197V8.80026H32.697Z" fill="black"/>
</g>
<defs>
<clipPath id="clip0_7801_293043">
<rect width="60" height="60" fill="white"/>
</clipPath>
</defs>
</svg>
