<svg width="24" height="24" viewBox="0 0 24 24" fill="none" xmlns="http://www.w3.org/2000/svg">
<path fill-rule="evenodd" clip-rule="evenodd" d="M7.6 2.5V3.1V4.00081H16.4V3.1V2.5H17.6V3.1V4.00081H20.8H22V5.20081V19.8008V21.0008H20.8H3.2H2V19.8008V5.20081V4.00081H3.2H6.4V3.1V2.5H7.6ZM6.4 5.20081H3.2V8.80039H20.8V5.20081H17.6V5.9V6.5H16.4V5.9V5.20081H7.6V5.9V6.5H6.4V5.9V5.20081ZM20.8 10.0004H3.2V19.8008H20.8V10.0004ZM8.59844 15.2004H7.39844V14.0004H8.59844V15.2004ZM12.5984 15.2004H11.3984V14.0004H12.5984V15.2004ZM15.3984 15.2004H16.5984V14.0004H15.3984V15.2004Z" fill="black"/>
</svg>
