<svg width="36" height="36" viewBox="0 0 36 36" fill="none" xmlns="http://www.w3.org/2000/svg">
<g clip-path="url(#clip0_1709_35509)">
<path fill-rule="evenodd" clip-rule="evenodd" d="M35.5305 1.53033C35.8234 1.23744 35.8234 0.762563 35.5305 0.46967C35.2376 0.176777 34.7627 0.176777 34.4698 0.46967L18 16.9395L1.53043 0.469863C1.23754 0.17697 0.762665 0.17697 0.469771 0.469863C0.176878 0.762757 0.176878 1.23763 0.469771 1.53052L16.9394 18.0001L0.469425 34.4701C0.176534 34.7629 0.176532 35.2378 0.469425 35.5307C0.762318 35.8236 1.23719 35.8236 1.53009 35.5307L18 19.0608L34.4702 35.5309C34.7631 35.8238 35.2379 35.8238 35.5308 35.5309C35.8237 35.238 35.8237 34.7631 35.5308 34.4702L19.0607 18.0001L35.5305 1.53033Z" fill="white"/>
</g>
<defs>
<clipPath id="clip0_1709_35509">
<rect width="35.9997" height="36" fill="white"/>
</clipPath>
</defs>
</svg>
