<svg width="32" height="32" viewBox="0 0 32 32" fill="none" xmlns="http://www.w3.org/2000/svg">
<g clip-path="url(#clip0_1571_39394)">
<path d="M30.7565 16.3398C30.7565 15.3473 30.6685 14.405 30.5177 13.4878H16.3203V19.1542H24.4493C24.0849 21.0137 23.017 22.5842 21.4339 23.6522V27.4214H26.2836C29.1231 24.7955 30.7565 20.9257 30.7565 16.3398Z" fill="#4285F4"/>
<path d="M16.3233 31.0762C20.3941 31.0762 23.799 29.7193 26.2867 27.4201L21.4369 23.6508C20.08 24.5554 18.3587 25.1083 16.3233 25.1083C12.3908 25.1083 9.06129 22.4572 7.8677 18.8765H2.86719V22.7588C5.34232 27.6839 10.4308 31.0762 16.3233 31.0762Z" fill="#34A853"/>
<path d="M7.86347 18.8769C7.54937 17.9723 7.38603 17.0048 7.38603 15.9997C7.38603 14.9946 7.56193 14.0272 7.86347 13.1225V9.24023H2.86296C1.8327 11.2756 1.24219 13.5623 1.24219 15.9997C1.24219 18.4372 1.8327 20.7238 2.86296 22.7592L7.86347 18.8769Z" fill="#FBBC05"/>
<path d="M16.3233 6.8908C18.5472 6.8908 20.5323 7.65721 22.1028 9.15234L26.3998 4.85542C23.799 2.41798 20.3941 0.922852 16.3233 0.922852C10.4308 0.922852 5.34232 4.31516 2.86719 9.24029L7.8677 13.1226C9.06129 9.54183 12.3908 6.8908 16.3233 6.8908Z" fill="#EA4335"/>
</g>
<defs>
<clipPath id="clip0_1571_39394">
<rect width="30.1538" height="30.1538" fill="white" transform="translate(0.921875 0.922852)"/>
</clipPath>
</defs>
</svg>
