<svg width="62" height="57" viewBox="0 0 62 57" fill="none" xmlns="http://www.w3.org/2000/svg">
<path d="M30.8711 10.3151L30.8711 19.1571" stroke="black" stroke-width="1.5" stroke-linecap="round"/>
<mask id="path-2-inside-1_1702_354471" fill="white">
<path d="M14.6562 22.6841C14.6562 19.9227 16.8948 17.6841 19.6563 17.6841H42.077C44.8385 17.6841 47.077 19.9227 47.077 22.6841V35.3682H14.6562V22.6841Z"/>
</mask>
<path d="M14.6562 22.6841C14.6562 19.9227 16.8948 17.6841 19.6563 17.6841H42.077C44.8385 17.6841 47.077 19.9227 47.077 22.6841V35.3682H14.6562V22.6841Z" fill="white"/>
<path d="M13.1562 22.6841C13.1562 19.0942 16.0664 16.1841 19.6562 16.1841H42.077C45.6669 16.1841 48.577 19.0942 48.577 22.6841H45.577C45.577 20.7511 44.01 19.1841 42.077 19.1841H19.6562C17.7233 19.1841 16.1562 20.7511 16.1562 22.6841H13.1562ZM47.077 35.3682H14.6562H47.077ZM13.1562 35.3682V22.6841C13.1562 19.0942 16.0664 16.1841 19.6562 16.1841V19.1841C17.7233 19.1841 16.1562 20.7511 16.1562 22.6841V35.3682H13.1562ZM42.077 16.1841C45.6669 16.1841 48.577 19.0942 48.577 22.6841V35.3682H45.577V22.6841C45.577 20.7511 44.01 19.1841 42.077 19.1841V16.1841Z" fill="black" mask="url(#path-2-inside-1_1702_354471)"/>
<mask id="path-4-inside-2_1702_354471" fill="white">
<path d="M7.29297 37.421C7.29297 34.6596 9.53155 32.421 12.293 32.421H49.4505C52.2119 32.421 54.4505 34.6596 54.4505 37.421V55.9998H7.29297V37.421Z"/>
</mask>
<path d="M7.29297 37.421C7.29297 34.6596 9.53155 32.421 12.293 32.421H49.4505C52.2119 32.421 54.4505 34.6596 54.4505 37.421V55.9998H7.29297V37.421Z" fill="white"/>
<path d="M5.79297 37.421C5.79297 33.8312 8.70312 30.921 12.293 30.921H49.4505C53.0404 30.921 55.9505 33.8312 55.9505 37.421H52.9505C52.9505 35.488 51.3835 33.921 49.4505 33.921H12.293C10.36 33.921 8.79297 35.488 8.79297 37.421H5.79297ZM54.4505 55.9998H7.29297H54.4505ZM5.79297 55.9998V37.421C5.79297 33.8312 8.70312 30.921 12.293 30.921V33.921C10.36 33.921 8.79297 35.488 8.79297 37.421V55.9998H5.79297ZM49.4505 30.921C53.0404 30.921 55.9505 33.8312 55.9505 37.421V55.9998H52.9505V37.421C52.9505 35.488 51.3835 33.921 49.4505 33.921V30.921Z" fill="black" mask="url(#path-4-inside-2_1702_354471)"/>
<path d="M1.39844 55.9995H60.3453" stroke="black" stroke-width="1.5" stroke-linecap="round"/>
<path d="M8.76562 51.5781H52.9758" stroke="black" stroke-width="1.5" stroke-linecap="round"/>
<path d="M34.1024 6.45469C34.1024 7.76731 33.7052 8.75101 33.1279 9.39668C32.5533 10.0393 31.7636 10.391 30.8734 10.391C29.9833 10.391 29.1936 10.0393 28.619 9.39668C28.0417 8.75101 27.6445 7.76731 27.6445 6.45469C27.6445 5.12447 28.0537 3.63972 28.7095 2.50353C29.3896 1.32531 30.1887 0.75 30.8734 0.75C31.5582 0.75 32.3573 1.32531 33.0374 2.50353C33.6932 3.63972 34.1024 5.12447 34.1024 6.45469Z" fill="white" stroke="black" stroke-width="1.5"/>
</svg>
