<svg width="65" height="64" viewBox="0 0 65 64" fill="none" xmlns="http://www.w3.org/2000/svg">
<g clip-path="url(#clip0_57_40259)">
<path d="M31.3424 49.25H34.3724C35.1974 49.25 35.8574 49.69 35.8574 50.24V55.26H29.8574V50.24C29.8574 49.69 30.5174 49.25 31.3424 49.25V49.25Z" stroke="black" stroke-width="1.5" stroke-miterlimit="10"/>
<path d="M32.7974 2.91016C33.9374 2.91016 34.8574 3.83016 34.8574 4.97016V11.4502C34.8574 12.5502 33.9574 13.4502 32.8574 13.4502C31.7574 13.4502 30.8574 12.5502 30.8574 11.4502V4.85016C30.8574 3.78016 31.7274 2.91016 32.7974 2.91016Z" stroke="black" stroke-width="1.5" stroke-miterlimit="10"/>
<path d="M30.8574 23.2188V49.2488H34.8574V23.2188" stroke="black" stroke-width="1.5" stroke-miterlimit="10" stroke-linecap="round"/>
<path d="M22.5313 55.2695H43.1835C44.3792 55.2695 45.3574 56.1695 45.3574 57.2695V60.0895C45.3574 60.6395 44.8683 61.0895 44.2705 61.0895H21.4444C20.8466 61.0895 20.3574 60.6395 20.3574 60.0895V57.2695C20.3574 56.1695 21.3357 55.2695 22.5313 55.2695Z" stroke="black" stroke-width="1.5" stroke-miterlimit="10" stroke-linecap="round"/>
<path d="M37.8574 12.0476C37.8574 9.15161 34.9469 6.87617 31.6617 7.57719C29.8879 7.95643 28.4514 9.26653 28.0142 10.8869C27.652 12.2315 27.9393 13.4956 28.6513 14.4954C29.6756 15.9549 30.3626 17.5753 30.3626 19.3106V21.6205C30.3626 22.7697 31.212 23.827 32.4362 24.0109C33.9976 24.2407 35.3591 23.1375 35.3591 21.7469V19.0923C35.3591 17.4604 36.0212 15.9319 37.008 14.5874C37.5451 13.8634 37.8574 12.99 37.8574 12.0476Z" stroke="black" stroke-width="1.5" stroke-miterlimit="10"/>
<path d="M32.8618 16.6429C35.6213 16.6429 37.8583 14.5848 37.8583 12.0461C37.8583 9.50729 35.6213 7.44922 32.8618 7.44922C30.1023 7.44922 27.8652 9.50729 27.8652 12.0461C27.8652 14.5848 30.1023 16.6429 32.8618 16.6429Z" stroke="black" stroke-width="1.5" stroke-miterlimit="10"/>
</g>
<defs>
<clipPath id="clip0_57_40259">
<rect width="54.04" height="59.68" fill="white" transform="translate(5.83789 2.16016)"/>
</clipPath>
</defs>
</svg>
