<svg width="75" height="45" viewBox="0 0 75 45" fill="none" xmlns="http://www.w3.org/2000/svg">
<g clip-path="url(#clip0_5511_343875)">
<path d="M20 0H59.5V45H20L-3.8147e-06 22.6731L20 0Z" fill="#009944"/>
<path d="M59.5 0H75V45H59.5V0Z" fill="white"/>
<path d="M0.166666 22.3269L19.5 0.173077C19.5 0.173077 19.6667 0 19.8333 0H74.5C74.6667 0 75 0.173077 75 0.519231V44.4808C75 44.6538 74.8333 45 74.5 45H19.8333C19.6667 45 19.6667 45 19.5 44.8269L0.166666 23.0192C-7.57476e-07 22.6731 -7.57476e-07 22.5 0.166666 22.3269ZM74 1.03846H60V44.1346H74V1.03846ZM20.1667 44.1346H59V1.03846H20.1667L1.16667 22.6731L20.1667 44.1346Z" fill="black"/>
<path d="M42.2779 25.6307H33.9655L38.1045 12.1733L42.2779 25.6307ZM42.5302 7.30571C42.4613 7.04444 42.3489 6.79678 42.1977 6.57264C42.0384 6.3724 41.8162 6.23129 41.5669 6.17177C41.1628 6.06441 40.7472 6.00669 40.3288 6C39.8016 6 39.0906 6 38.1962 6C37.4319 6 36.8127 6 36.3388 6C35.9505 6.00344 35.5644 6.06122 35.1924 6.17177C34.9656 6.23929 34.7654 6.37542 34.6191 6.56112C34.4796 6.76947 34.3714 6.99714 34.2979 7.23686L25.3663 35.3885C25.213 35.8361 25.098 36.296 25.0224 36.7628C24.9636 37.0371 25.0217 37.3236 25.1831 37.5532C25.3956 37.7762 25.6887 37.9039 25.9971 37.9082C26.538 37.9623 27.0814 37.9851 27.625 37.9769C28.2671 37.9769 28.7718 37.9769 29.196 37.9769C29.5129 37.9617 29.8256 37.8999 30.1248 37.7938C30.3156 37.7229 30.4798 37.5949 30.5947 37.4273C30.7032 37.2494 30.7843 37.0563 30.8355 36.8547L32.6929 30.6584H43.7114L45.6834 37.0265C45.73 37.2099 45.8077 37.3841 45.9125 37.542C46.0314 37.6934 46.1965 37.802 46.3827 37.851C46.7042 37.9398 47.0352 37.9897 47.3686 38C47.7967 38 48.3968 38 49.1687 38C49.9141 38 50.4873 38 50.9115 37.9425C51.2342 37.9407 51.546 37.8273 51.7943 37.622C51.9714 37.4085 52.039 37.125 51.9781 36.8547C51.8995 36.3805 51.7843 35.9137 51.634 35.4572L42.5302 7.30571Z" fill="white" stroke="black" stroke-miterlimit="10" stroke-linecap="round" stroke-linejoin="round"/>
<path d="M66.8327 27.5193C67.3327 27.5193 67.666 27.1731 67.666 26.6539V20.4231L68.8327 21.4616C68.9993 21.6346 69.166 21.6346 69.3327 21.6346C69.4993 21.6346 69.8327 21.4616 69.8327 21.4616C70.166 21.1154 70.166 20.5962 69.8327 20.25L67.3327 17.6539C66.9993 17.3077 66.4993 17.3077 66.166 17.6539L63.666 20.25C63.3327 20.5962 63.3327 21.1154 63.666 21.4616C63.9993 21.8077 64.4993 21.8077 64.8327 21.4616L65.9993 20.4231V26.6539C65.8327 27.1731 65.9993 27.5193 66.8327 27.5193Z" fill="black"/>
<path d="M68.3327 13.6731H65.3327L64.8327 15.4039H63.166L65.8327 6.9231H67.4993L70.3327 15.4039H68.666C68.9993 15.4039 68.3327 13.6731 68.3327 13.6731ZM67.8327 12.2885L66.8327 8.48079L65.666 12.2885H67.8327Z" fill="#231C1E"/>
<path d="M70.1654 33.0577V37.3846C69.832 37.5577 69.4987 37.7308 68.9987 37.9039C68.4987 38.0769 67.832 38.0769 67.6654 38.0769C66.4987 38.0769 65.4987 37.7308 64.832 36.8654C64.1654 36 63.832 34.9616 63.832 33.5769C63.832 32.1923 64.1654 30.9808 64.832 30.2885C65.4987 29.5962 66.4987 29.0769 67.6654 29.0769C68.1654 29.0769 68.6654 29.0769 68.9987 29.25C69.4987 29.4231 69.832 29.5962 69.9987 29.7692L69.4987 31.1539C68.832 30.8077 68.1654 30.6346 67.4987 30.6346C65.9987 30.6346 65.332 31.6731 65.332 33.5769C65.332 35.4808 65.9987 36.6923 67.6654 36.6923C67.9987 36.6923 68.332 36.6923 68.6654 36.5192V34.4423H67.1654V33.0577H70.1654Z" fill="black"/>
</g>
<defs>
<clipPath id="clip0_5511_343875">
<rect width="75" height="45" fill="white"/>
</clipPath>
</defs>
</svg>
