<svg width="22" height="22" viewBox="0 0 22 22" fill="none" xmlns="http://www.w3.org/2000/svg">
<g clip-path="url(#clip0_10705_407455)">
<rect width="22" height="22" rx="8" fill="#424242"/>
<path d="M16.3654 6.75948C16.0859 6.75948 15.8318 6.83115 15.6031 6.95658L11.36 4.10751C11.1482 3.96416 10.8857 3.96416 10.6739 4.10751L5.27889 7.73604C5.09256 7.86147 4.98246 8.0765 4.98246 8.30944V13.685C4.39806 13.9538 4 14.5631 4 15.2708C4 16.2295 4.73684 17 5.6346 17C6.53237 17 7.27768 16.2295 7.27768 15.2708C7.27768 14.5451 6.86267 13.9359 6.26981 13.6761V8.67677L11.0212 5.47829L14.7901 8.02274C14.7477 8.17505 14.7308 8.32736 14.7308 8.49759C14.7308 9.23225 15.1627 9.85941 15.7725 10.1103V15.4948H9.96249V11.6513H12.0629V14.6347C12.0629 14.6974 12.1137 14.7512 12.173 14.7512H13.2317C13.291 14.7512 13.3418 14.6974 13.3418 14.6347V10.9704C13.3418 10.5941 13.0538 10.2895 12.6981 10.2895H9.31881C8.9631 10.2895 8.68361 10.5941 8.68361 10.9704V16.1757C8.68361 16.552 8.97157 16.8567 9.31881 16.8567H16.4162C16.7635 16.8567 17.0514 16.552 17.0514 16.1757V10.0744C17.6104 9.79669 18 9.19642 18 8.50655C18 7.5479 17.2632 6.77739 16.3654 6.77739V6.75948ZM5.6346 15.9249C5.29583 15.9249 5.0248 15.6382 5.0248 15.2798C5.0248 14.9214 5.29583 14.6258 5.6346 14.6258C5.97338 14.6258 6.25287 14.9214 6.25287 15.2798C6.25287 15.6382 5.98185 15.9249 5.6346 15.9249ZM16.3569 9.14266C16.0181 9.14266 15.7387 8.85596 15.7387 8.49759C15.7387 8.13921 16.0181 7.84356 16.3569 7.84356C16.6957 7.84356 16.9667 8.13921 16.9667 8.49759C16.9667 8.85596 16.6957 9.14266 16.3569 9.14266Z" fill="white"/>
</g>
<defs>
<clipPath id="clip0_10705_407455">
<rect width="22" height="22" fill="white"/>
</clipPath>
</defs>
</svg>
