<svg width="16" height="16" viewBox="0 0 16 16" fill="none" xmlns="http://www.w3.org/2000/svg">
<path d="M6.33184 14.8543L4.69141 14.2741V6.04526C5.13615 5.906 5.52603 5.64775 5.85495 5.35478C6.2907 4.96666 6.6504 4.49045 6.92619 4.05808L6.92724 4.05642C7.57833 3.02677 7.8575 1.87303 8.116 0.804749C8.13222 0.7377 8.14836 0.670988 8.16451 0.604664L8.16453 0.604669L8.16549 0.600558C8.17759 0.548964 8.1903 0.542734 8.21582 0.531499C8.26824 0.508423 8.37454 0.489595 8.54471 0.506492C8.88635 0.540413 9.27016 0.695105 9.43801 0.799091L9.43801 0.799095L9.43996 0.800293C10.0711 1.18732 10.33 1.88772 10.342 2.796C10.354 3.7028 10.114 4.70177 9.87362 5.49835C9.82791 5.6498 9.85657 5.81395 9.9509 5.94095C10.0452 6.06795 10.1941 6.14281 10.3523 6.14281H12.3284H13.4211C14.4399 6.14281 15.246 6.94598 15.246 7.88962V13.3943C15.246 14.338 14.4399 15.1411 13.4211 15.1411H12.3284H7.98093C7.42552 15.1411 6.86531 15.0398 6.33302 14.8547C6.33262 14.8546 6.33223 14.8545 6.33184 14.8543Z" stroke="black" stroke-linecap="round" stroke-linejoin="round"/>
<path d="M0.757812 15.5022V4.67969H3.23049C4.04656 4.67969 4.70527 5.33837 4.70527 6.15537V14.0266C4.70527 14.8436 4.04656 15.5022 3.23049 15.5022H0.757812Z" stroke="black" stroke-linecap="round" stroke-linejoin="round"/>
</svg>
