<svg width="14" height="14" viewBox="0 0 14 14" fill="none" xmlns="http://www.w3.org/2000/svg">
<path fill-rule="evenodd" clip-rule="evenodd" d="M7.00001 1.61133C4.78031 1.61133 2.98088 3.41075 2.98088 5.63045V8.05041L2.25522 8.83623L2.12256 8.9799V9.17544V10.1049V10.6049H2.62256H11.3775H11.8775V10.1049V9.17544V8.9799L11.7448 8.83623L11.0191 8.05041V5.63045C11.0191 3.41075 9.21971 1.61133 7.00001 1.61133ZM3.98088 5.63045C3.98088 3.96304 5.33259 2.61133 7.00001 2.61133C8.66743 2.61133 10.0191 3.96304 10.0191 5.63045V8.24595V8.4415L10.1518 8.58517L10.8775 9.37099V9.60493H3.12256V9.37099L3.84822 8.58517L3.98088 8.4415V8.24595V5.63045ZM7.00219 11.3879C7.33001 11.3879 7.60615 11.1666 7.68942 10.8653H8.70465C8.60997 11.7217 7.88387 12.3879 7.00219 12.3879C6.1205 12.3879 5.3944 11.7217 5.29973 10.8653H6.31496C6.39823 11.1666 6.67437 11.3879 7.00219 11.3879Z" fill="black"/>
</svg>
