<svg width="65" height="64" viewBox="0 0 65 64" fill="none" xmlns="http://www.w3.org/2000/svg">
<g clip-path="url(#clip0_453_128035)">
<path d="M59.8223 19.75H5.32227C4.2177 19.75 3.32227 20.6454 3.32227 21.75V41.75C3.32227 42.8546 4.2177 43.75 5.32227 43.75H59.8223C60.9268 43.75 61.8223 42.8546 61.8223 41.75V21.75C61.8223 20.6454 60.9268 19.75 59.8223 19.75Z" stroke="#EA1917" stroke-width="1.5"/>
<path d="M18.1113 40.01C18.6636 40.01 19.1113 39.5623 19.1113 39.01C19.1113 38.4577 18.6636 38.01 18.1113 38.01C17.559 38.01 17.1113 38.4577 17.1113 39.01C17.1113 39.5623 17.559 40.01 18.1113 40.01Z" fill="#EA1917"/>
<path d="M37.4031 40.4501C42.208 40.4501 46.1031 36.5549 46.1031 31.75C46.1031 26.9452 42.208 23.05 37.4031 23.05C32.5983 23.05 28.7031 26.9452 28.7031 31.75C28.7031 36.5549 32.5983 40.4501 37.4031 40.4501Z" stroke="#EA1917" stroke-width="1.5"/>
<path d="M37.4027 36.4301C39.9874 36.4301 42.0827 34.3348 42.0827 31.7501C42.0827 29.1654 39.9874 27.0701 37.4027 27.0701C34.818 27.0701 32.7227 29.1654 32.7227 31.7501C32.7227 34.3348 34.818 36.4301 37.4027 36.4301Z" stroke="#EA1917" stroke-width="1.5"/>
</g>
<defs>
<clipPath id="clip0_453_128035">
<rect width="60" height="25.5" fill="white" transform="translate(2.57227 19)"/>
</clipPath>
</defs>
</svg>
