<svg width="226" height="50" viewBox="0 0 226 50" fill="none" xmlns="http://www.w3.org/2000/svg">
<path d="M20.125 10H3.125C2.29657 10 1.625 10.6716 1.625 11.5V34.5C1.625 35.3284 2.29657 36 3.125 36H20.125C20.9534 36 21.625 35.3284 21.625 34.5V11.5C21.625 10.6716 20.9534 10 20.125 10Z" stroke="black" stroke-width="1.5"/>
<circle cx="11.625" cy="13" r="1" fill="black"/>
<path d="M24.625 15.5C24.625 14.6716 25.2966 14 26.125 14H36.125C36.9534 14 37.625 14.6716 37.625 15.5V34.5C37.625 35.3284 36.9534 36 36.125 36H26.125C25.2966 36 24.625 35.3284 24.625 34.5V15.5Z" stroke="black" stroke-width="1.5"/>
<circle cx="31.125" cy="17" r="1" fill="black"/>
<path d="M32.4798 27.1918C32.1276 26.7532 31.5865 26.4723 30.9798 26.4723C30.373 26.4723 29.8319 26.7532 29.4798 27.1918M34.1248 25.9926C33.4206 25.1153 32.3384 24.5535 31.1248 24.5535C29.9113 24.5535 28.8291 25.1153 28.1248 25.9926M35.625 24.7934C34.5686 23.4774 32.9453 22.6348 31.125 22.6348C29.3047 22.6348 27.6814 23.4774 26.625 24.7934" stroke="black" stroke-width="1.2" stroke-linecap="round" stroke-linejoin="round"/>
<circle cx="30.9632" cy="28.5813" r="0.642857" fill="black"/>
<path d="M94.6925 9.72656H66.5635C65.9934 9.72656 65.5312 10.1743 65.5312 10.7266V26.7266C65.5312 27.2788 65.9934 27.7266 66.5635 27.7266H94.6925C95.2626 27.7266 95.7248 27.2788 95.7248 26.7266V10.7266C95.7248 10.1743 95.2626 9.72656 94.6925 9.72656Z" stroke="black" stroke-width="1.5" stroke-miterlimit="10"/>
<path d="M92.7361 31H68.5139C68.023 31 67.625 31.3582 67.625 31.8V34.2C67.625 34.6418 68.023 35 68.5139 35H92.7361C93.227 35 93.625 34.6418 93.625 34.2V31.8C93.625 31.3582 93.227 31 92.7361 31Z" stroke="black" stroke-width="1.5"/>
<path d="M95.7218 31.6408C96.1116 31.9816 96.3612 32.5052 96.3612 33.0924C96.3612 33.6796 96.1116 34.2033 95.7218 34.5441M97.3461 30.0488C98.1258 30.7304 98.625 31.7776 98.625 32.9521C98.625 34.1265 98.1258 35.1737 97.3461 35.8553" stroke="black" stroke-width="1.2" stroke-linecap="round" stroke-linejoin="round"/>
<path d="M65.5282 34.2635C65.1384 33.9227 64.8888 33.3991 64.8888 32.8119C64.8888 32.2246 65.1384 31.701 65.5282 31.3602M63.9039 35.8555C63.1242 35.1739 62.625 34.1267 62.625 32.9522C62.625 31.7778 63.1242 30.7306 63.9039 30.049" stroke="black" stroke-width="1.2" stroke-linecap="round" stroke-linejoin="round"/>
<path d="M69.625 33L78.625 33" stroke="black" stroke-width="1.2" stroke-linecap="round"/>
<path d="M84.9791 33.5324C85.2998 33.5324 85.5597 33.2724 85.5597 32.9517C85.5597 32.6311 85.2998 32.3711 84.9791 32.3711C84.6584 32.3711 84.3984 32.6311 84.3984 32.9517C84.3984 33.2724 84.6584 33.5324 84.9791 33.5324Z" fill="black"/>
<path d="M87.5924 33.5324C87.913 33.5324 88.173 33.2724 88.173 32.9517C88.173 32.6311 87.913 32.3711 87.5924 32.3711C87.2717 32.3711 87.0117 32.6311 87.0117 32.9517C87.0117 33.2724 87.2717 33.5324 87.5924 33.5324Z" fill="black"/>
<path d="M89.625 33H90.625" stroke="black" stroke-width="1.2" stroke-linecap="round"/>
<path fill-rule="evenodd" clip-rule="evenodd" d="M125.625 11.5C125.625 10.6716 126.297 10 127.125 10H142.125C142.953 10 143.625 10.6716 143.625 11.5V36C143.625 36.8284 142.953 37.5 142.125 37.5H127.125C126.297 37.5 125.625 36.8284 125.625 36V11.5Z" stroke="black" stroke-width="1.5" stroke-linecap="round" stroke-linejoin="round"/>
<path fill-rule="evenodd" clip-rule="evenodd" d="M137.125 13.25C137.125 12.9739 137.349 12.75 137.625 12.75H140.625C140.901 12.75 141.125 12.9739 141.125 13.25V21.75C141.125 22.0261 140.901 22.25 140.625 22.25H137.625C137.349 22.25 137.125 22.0261 137.125 21.75V13.25Z" stroke="black" stroke-width="1.5" stroke-linecap="round" stroke-linejoin="round"/>
<path d="M134.625 37.5L134.625 10" stroke="black" stroke-width="1.5" stroke-linecap="round"/>
<path d="M125.625 25H143.625" stroke="black" stroke-width="1.5"/>
<path fill-rule="evenodd" clip-rule="evenodd" d="M148.125 16.75C146.882 16.75 145.875 17.7574 145.875 19V36C145.875 37.2426 146.882 38.25 148.125 38.25H160.625C161.868 38.25 162.875 37.2426 162.875 36V19C162.875 17.7574 161.868 16.75 160.625 16.75H148.125ZM147.375 19C147.375 18.5858 147.711 18.25 148.125 18.25H160.625C161.039 18.25 161.375 18.5858 161.375 19V22.25H147.375V19ZM147.375 23.75V36C147.375 36.4142 147.711 36.75 148.125 36.75H160.625C161.039 36.75 161.375 36.4142 161.375 36V23.75H147.375ZM154.375 26.25C152.166 26.25 150.375 28.0409 150.375 30.25C150.375 32.4591 152.166 34.25 154.375 34.25C156.584 34.25 158.375 32.4591 158.375 30.25C158.375 28.0409 156.584 26.25 154.375 26.25ZM148.875 30.25C148.875 27.2124 151.337 24.75 154.375 24.75C157.413 24.75 159.875 27.2124 159.875 30.25C159.875 33.2876 157.413 35.75 154.375 35.75C151.337 35.75 148.875 33.2876 148.875 30.25ZM156.3 31.9647C156.507 32.2231 156.885 32.2644 157.143 32.057C157.402 31.8495 157.443 31.4718 157.235 31.2134C157.049 30.9809 156.812 30.7934 156.543 30.6647C156.274 30.5361 155.979 30.4693 155.681 30.4693C155.382 30.4693 155.088 30.5361 154.819 30.6647C154.561 30.7878 154.334 30.9645 154.151 31.183C153.943 31.3824 153.761 31.4548 153.615 31.4781C153.458 31.5033 153.296 31.4783 153.135 31.418C152.972 31.3572 152.827 31.267 152.72 31.1874C152.668 31.1485 152.628 31.1144 152.602 31.0916C152.589 31.0803 152.581 31.0719 152.576 31.0674L152.572 31.0638C152.34 30.83 151.962 30.8276 151.726 31.059C151.49 31.2913 151.487 31.6711 151.719 31.9075L152.144 31.4893C151.719 31.9075 151.719 31.9077 151.719 31.9079L151.72 31.9083L151.721 31.9093L151.723 31.9116L151.729 31.9175L151.746 31.9347C151.761 31.9483 151.78 31.9663 151.804 31.9877C151.852 32.0304 151.919 32.0872 152.004 32.15C152.17 32.2737 152.415 32.4301 152.715 32.5422C153.017 32.6549 153.392 32.7291 153.805 32.663C154.225 32.5957 154.638 32.3901 155.016 32.0149L155.04 31.9911L155.062 31.9647C155.135 31.873 155.229 31.7986 155.336 31.7473C155.443 31.6961 155.561 31.6693 155.681 31.6693C155.8 31.6693 155.918 31.6961 156.025 31.7473C156.132 31.7986 156.226 31.873 156.3 31.9647ZM157.143 29.6541C156.885 29.8616 156.507 29.8203 156.3 29.5619C156.226 29.4702 156.132 29.3958 156.025 29.3445C155.918 29.2932 155.8 29.2665 155.681 29.2665C155.561 29.2665 155.443 29.2932 155.336 29.3445C155.229 29.3958 155.135 29.4702 155.062 29.5619L155.04 29.5883L155.016 29.6121C154.638 29.9872 154.225 30.1928 153.805 30.2601C153.392 30.3263 153.017 30.2521 152.715 30.1394C152.415 30.0273 152.17 29.8709 152.004 29.7471C151.919 29.6844 151.852 29.6275 151.804 29.5849C151.78 29.5635 151.761 29.5455 151.746 29.5318L151.729 29.5147L151.723 29.5087L151.721 29.5064L151.72 29.5055L151.719 29.5051C151.719 29.5049 151.719 29.5047 152.144 29.0865L151.719 29.5047C151.487 29.2683 151.49 28.8884 151.726 28.6562C151.962 28.4247 152.34 28.4272 152.572 28.6609L152.576 28.6645C152.581 28.6691 152.589 28.6774 152.602 28.6888C152.628 28.7116 152.668 28.7456 152.72 28.7846C152.827 28.8642 152.972 28.9544 153.135 29.0152C153.296 29.0754 153.458 29.1005 153.615 29.0753C153.761 29.0519 153.943 28.9795 154.151 28.7802C154.334 28.5617 154.561 28.385 154.819 28.2619C155.088 28.1332 155.382 28.0665 155.681 28.0665C155.979 28.0665 156.274 28.1332 156.543 28.2619C156.812 28.3906 157.049 28.5781 157.235 28.8106C157.443 29.069 157.402 29.4467 157.143 29.6541ZM149.124 19.4999C148.71 19.4999 148.374 19.8357 148.374 20.2499C148.374 20.6641 148.71 20.9999 149.124 20.9999H151.877C152.291 20.9999 152.627 20.6641 152.627 20.2499C152.627 19.8357 152.291 19.4999 151.877 19.4999H149.124ZM156.874 19.4999C156.46 19.4999 156.124 19.8357 156.124 20.2499C156.124 20.6641 156.46 20.9999 156.874 20.9999H159.627C160.041 20.9999 160.377 20.6641 160.377 20.2499C160.377 19.8357 160.041 19.4999 159.627 19.4999H156.874ZM154.376 19.4999C154.044 19.4999 153.774 19.7696 153.774 20.1019C153.774 20.4343 154.044 20.704 154.376 20.704C154.709 20.704 154.978 20.4343 154.978 20.1019C154.978 19.7696 154.709 19.4999 154.376 19.4999Z" fill="black"/>
<path d="M204.875 32V40M206.875 32V40" stroke="black" stroke-width="1.5" stroke-linecap="round"/>
<path d="M220.625 28L220.625 31" stroke="black" stroke-width="1.5" stroke-miterlimit="10" stroke-linecap="round"/>
<path d="M224.371 37.8681V30.3819C224.371 29.0664 223.28 28 221.934 28H219.308C217.962 28 216.871 29.0664 216.871 30.3819V37.8681C216.871 39.1836 217.962 40.25 219.308 40.25H221.934C223.28 40.25 224.371 39.1836 224.371 37.8681Z" stroke="black" stroke-width="1.5" stroke-miterlimit="10" stroke-linecap="round"/>
<line x1="199.625" y1="40.25" x2="212.125" y2="40.25" stroke="black" stroke-width="1.5" stroke-linecap="round"/>
<path fill-rule="evenodd" clip-rule="evenodd" d="M190.875 12.25C189.632 12.25 188.625 13.2574 188.625 14.5V30.5C188.625 31.7426 189.632 32.75 190.875 32.75H216.876V31.25H190.875C190.461 31.25 190.125 30.9142 190.125 30.5V14.5C190.125 14.0858 190.461 13.75 190.875 13.75H220.875C221.289 13.75 221.625 14.0858 221.625 14.5V28H221.983C222.395 28 222.784 28.0992 223.125 28.2744V14.5C223.125 13.2574 222.118 12.25 220.875 12.25H190.875Z" fill="black"/>
</svg>
