<svg width="64" height="64" viewBox="0 0 64 64" fill="none" xmlns="http://www.w3.org/2000/svg">
<path d="M51.0531 14.5619C50.8896 14.9574 50.6898 14.5259 50.2901 14.3641C49.8904 14.2023 49.6906 13.7529 49.8541 13.3574L50.7988 11.0203C50.9623 10.6248 51.4165 10.427 51.8344 10.5888C52.234 10.7506 52.4339 11.2001 52.2704 11.6136L51.0713 14.5978L51.0531 14.5619Z" fill="#1D1D1B"/>
<path d="M26.2559 32.2517C17.7535 31.6584 11.0859 24.5933 11.0859 16.1438C11.0859 7.24494 18.4075 0 27.4005 0C34.1225 0 40.0633 3.99101 42.5523 10.1573L40.6992 10.8944C38.5191 5.48315 33.2868 1.97753 27.3823 1.97753C19.4794 1.97753 13.0662 8.34157 13.0662 16.1438C13.0662 23.5506 18.9162 29.7708 26.3831 30.2921L26.2377 32.2517H26.2559Z" fill="#1D1D1B"/>
<path d="M29.7082 23.8563H24.4941C23.949 23.8563 23.4948 23.4248 23.4948 22.8675V19.308H19.8977C19.3526 19.308 18.8984 18.8765 18.8984 18.3192V13.1417C18.8984 12.6023 19.3345 12.1529 19.8977 12.1529H23.4948V8.61132C23.4948 8.072 23.9309 7.62256 24.4941 7.62256H29.7082C30.2532 7.62256 30.7074 8.05402 30.7074 8.61132V12.1529H34.3046C34.8496 12.1529 35.3038 12.6023 35.3038 13.1417V18.3192C35.3038 18.8585 34.8678 19.308 34.3046 19.308H30.7074V22.8675C30.7074 23.4068 30.2714 23.8563 29.7082 23.8563ZM25.4751 21.8967H28.709V18.3372C28.709 17.7978 29.1631 17.3484 29.7082 17.3484H33.3054V14.1304H29.7082C29.1631 14.1304 28.709 13.699 28.709 13.1417V9.58211H25.4751V13.1417C25.4751 13.681 25.0209 14.1304 24.4759 14.1304H20.8787V17.3484H24.4759C25.0209 17.3484 25.4751 17.7799 25.4751 18.3372V21.8967Z" fill="#1D1D1B"/>
<path d="M46.0964 27.5417C46.0055 27.5417 45.9147 27.5417 45.842 27.4878L38.0845 24.4676C37.9028 24.3957 37.7756 24.2698 37.7029 24.09C37.6303 23.9282 37.6303 23.7305 37.7029 23.5507L42.0995 12.9619C42.0995 12.9619 42.7172 11.0923 45.1517 11.0923C45.5695 11.0923 46.0237 11.1462 46.5142 11.2721L46.6777 11.308C48.44 11.7395 50.2749 12.1709 51.0198 13.6271C51.4922 14.526 51.4377 15.6406 50.8745 17.0069L46.7686 27.0923C46.6596 27.3619 46.3871 27.5237 46.1145 27.5237L46.0964 27.5417ZM39.2472 23.4249L45.6967 25.9417L49.5482 16.4855C49.9479 15.5148 50.0206 14.7597 49.7481 14.2563C49.2757 13.3754 47.786 12.9979 46.3144 12.6563L46.1509 12.6204C45.7694 12.5305 45.4423 12.4945 45.1335 12.4945C43.7164 12.4945 43.4076 13.4294 43.4076 13.4473L39.2472 23.4428V23.4249Z" fill="#1D1D1B"/>
<path d="M45.2407 24.1619C45.2407 24.1619 45.1135 24.1619 45.059 24.1259L40.7169 22.5439C40.5897 22.49 40.4807 22.4001 40.4081 22.2563C40.3536 22.1304 40.3536 21.9686 40.4081 21.8428L43.7327 14.0046C43.8417 13.7529 44.1143 13.6271 44.3868 13.7169L48.6743 15.1012C48.8197 15.1552 48.9287 15.245 48.9832 15.3709C49.0377 15.4967 49.0559 15.6405 48.9832 15.7844L45.7312 23.8023C45.6585 24.0001 45.4587 24.1259 45.2407 24.1259V24.1619ZM41.589 21.7529L44.9318 22.9754L47.7841 15.9282L44.4958 14.8675L41.5708 21.7529H41.589Z" fill="#1D1D1B"/>
<path d="M38.3365 25.6899L37.2101 26.6427L38.3184 27.1102L39.4447 26.1394L38.8816 25.9057L38.3365 25.6899ZM32.3594 30.7416L33.4676 31.3169L34.7393 30.2203L33.6311 29.681L32.3594 30.7596V30.7416ZM34.8665 28.6203L35.9747 29.1416L37.1556 28.1169L36.0474 27.6315L34.8483 28.6383L34.8665 28.6203ZM35.8112 32.4854L37.0285 33.0967L38.3002 31.9102L37.083 31.3169L35.8112 32.4675V32.4854ZM42.3516 27.3259L41.752 27.0922L40.6438 28.0989L41.8429 28.6023L42.9511 27.5776L42.3516 27.3259ZM38.3184 30.2203L39.5356 30.7776L40.7165 29.681L39.4993 29.1416L38.3184 30.2203ZM40.0261 26.3731L38.8997 27.3439L40.0443 27.8293L41.1707 26.8405L40.5893 26.6068L40.0261 26.3731ZM34.049 31.6045L35.2117 32.1798L36.4834 31.0472L35.3207 30.4899L34.049 31.6045ZM36.5561 29.4113L37.7188 29.9506L38.8997 28.8899L37.737 28.3686L36.5379 29.4113H36.5561Z" fill="#1D1D1B"/>
<path d="M35.5394 35.811C33.7408 35.811 31.6696 35.02 30.4888 33.8694C29.7439 33.1324 29.3805 32.3414 29.435 31.5144C29.5077 30.256 30.5069 29.447 30.6159 29.3571L37.8648 23.2807C38.0647 23.1189 38.3372 23.065 38.5733 23.1728L46.3309 26.193C46.5489 26.2829 46.7124 26.4807 46.7669 26.7144C46.8033 26.9481 46.7306 27.1818 46.5489 27.3436L38.5188 34.7863C37.7558 35.4515 36.7384 35.811 35.5394 35.811ZM38.4462 24.629L31.5061 30.4537C31.5061 30.4537 30.8703 30.9571 30.8339 31.6223C30.8158 32.0357 31.0338 32.4672 31.488 32.8987C32.251 33.6357 33.9224 34.4267 35.5394 34.4267C36.1207 34.4267 36.9564 34.3189 37.5741 33.7796L44.7867 27.1099L38.4643 24.629H38.4462Z" fill="#1D1D1B"/>
<path d="M14.192 48.1077V48.3235C14.192 48.8628 14.3737 49.2943 14.7189 49.5819C15.064 49.8695 15.5364 50.0134 16.1541 50.0134C16.7173 50.0134 17.1715 49.8875 17.5167 49.6179C17.8618 49.3482 18.0435 48.9347 18.0435 48.3594C18.0435 48.1257 17.989 47.928 17.8982 47.7482C17.8073 47.5864 17.662 47.4246 17.4985 47.3167C17.335 47.1909 17.1533 47.083 16.9535 46.9931C16.7355 46.9032 16.5356 46.8313 16.3176 46.7414C16.1359 46.6695 15.9542 46.6156 15.7907 46.5437C15.6091 46.4718 15.4274 46.4179 15.2275 46.3459C14.6098 46.1122 14.1193 45.7886 13.7741 45.3931C13.4289 44.9976 13.2473 44.5122 13.2473 43.919C13.2473 43.2179 13.4835 42.6606 13.9558 42.265C14.4282 41.8516 15.1185 41.6538 15.9906 41.6538C16.8626 41.6538 17.5893 41.8336 18.0799 42.2111C18.5522 42.5707 18.7884 43.11 18.7884 43.7931V43.9909H17.8073V43.8111C17.8073 43.4156 17.6438 43.092 17.2987 42.8583C16.9716 42.6246 16.5356 42.4988 16.0088 42.4988C15.7726 42.4988 15.5364 42.5347 15.3365 42.5886C15.1185 42.6426 14.9369 42.7325 14.7734 42.8583C14.6098 42.9841 14.4827 43.128 14.3918 43.3077C14.301 43.4875 14.2465 43.7032 14.2465 43.937C14.2465 44.3504 14.41 44.692 14.737 44.9617C15.064 45.2313 15.5001 45.465 16.0633 45.6808L17.1533 46.0943C17.6983 46.31 18.1707 46.5797 18.5341 46.9212C18.8792 47.2628 19.0609 47.7122 19.0609 48.2695C19.0609 49.1325 18.8066 49.7797 18.316 50.2291C17.8255 50.6785 17.0988 50.8943 16.1359 50.8943C15.5909 50.8943 15.1185 50.8223 14.737 50.6965C14.3555 50.5707 14.0648 50.3729 13.8286 50.1392C13.6106 49.9055 13.4471 49.6358 13.3563 49.3302C13.2654 49.0246 13.2109 48.719 13.2109 48.3774V48.1617H14.192V48.1077Z" fill="#1D1D1B"/>
<path d="M20.1016 43.9907H21.1371V44.6559C21.3733 44.3862 21.6458 44.1885 21.9547 44.0267C22.2453 43.8649 22.5542 43.793 22.8812 43.793C23.2446 43.793 23.5534 43.8649 23.8259 44.0447C24.1166 44.2065 24.3165 44.4581 24.4436 44.8177C24.698 44.4941 24.9887 44.2604 25.3157 44.0806C25.6427 43.9008 25.9697 43.8109 26.3331 43.8109C26.5511 43.8109 26.7691 43.8469 26.9871 43.9188C27.1869 43.9907 27.3686 44.0986 27.514 44.2424C27.6593 44.3862 27.7865 44.584 27.8773 44.7997C27.9681 45.0154 28.0045 45.2851 28.0045 45.5727V50.6963H27.0053V45.7166C27.0053 45.393 26.9326 45.1413 26.8054 44.9615C26.6782 44.7638 26.4239 44.6739 26.0605 44.6739C25.788 44.6739 25.5155 44.7458 25.2612 44.8716C25.0068 44.9975 24.7706 45.1593 24.5708 45.357C24.5708 45.393 24.5708 45.4289 24.5708 45.4649C24.5708 45.5008 24.5708 45.5368 24.5708 45.5727V50.6963H23.5534V45.7166C23.5534 45.4109 23.4807 45.1593 23.3536 44.9615C23.2264 44.7638 22.972 44.6739 22.6087 44.6739C22.3362 44.6739 22.0818 44.7458 21.8457 44.8716C21.5913 44.9975 21.3733 45.1593 21.1553 45.339V50.7143H20.1197V44.0267L20.1016 43.9907Z" fill="#1D1D1B"/>
<path d="M33.9576 50.6788H32.9402V50.1035C32.704 50.3372 32.3952 50.517 32.0137 50.6428C31.6321 50.7686 31.2324 50.8406 30.8146 50.8406C30.4876 50.8406 30.2332 50.7866 30.0152 50.6967C29.7972 50.6069 29.6337 50.463 29.4884 50.2833C29.343 50.1035 29.2522 49.8878 29.1977 49.654C29.1432 49.4024 29.125 49.1327 29.125 48.8271C29.125 48.4136 29.234 48.054 29.4157 47.7664C29.5974 47.4788 29.8517 47.2451 30.1969 47.0653C30.5421 46.8855 30.9236 46.7597 31.396 46.6698C31.8683 46.5799 32.377 46.5439 32.9402 46.526V45.8428C32.9402 45.4113 32.8675 45.0878 32.704 44.854C32.5405 44.6203 32.2135 44.5125 31.723 44.5125C31.3415 44.5125 31.0326 44.6024 30.7964 44.7642C30.5602 44.926 30.4149 45.1776 30.3786 45.4833H29.3612C29.3975 45.1776 29.4702 44.926 29.5974 44.7102C29.7245 44.4945 29.9062 44.3147 30.1061 44.1709C30.3241 44.0271 30.5602 43.9192 30.8509 43.8653C31.1416 43.7934 31.4323 43.7754 31.7593 43.7754C32.1772 43.7754 32.5042 43.8293 32.7949 43.9192C33.0674 44.0091 33.3036 44.1349 33.4671 44.2967C33.6306 44.4406 33.7577 44.6203 33.8304 44.8181C33.9031 45.0338 33.9394 45.2316 33.9394 45.4293V50.6428L33.9576 50.6788ZM31.0508 50.1035C31.3778 50.1035 31.723 50.0316 32.05 49.9057C32.377 49.7799 32.6859 49.6361 32.9402 49.4563V47.317C32.5405 47.317 32.1772 47.3529 31.832 47.3889C31.505 47.4428 31.1961 47.5147 30.9599 47.6406C30.7056 47.7484 30.5057 47.9102 30.3604 48.108C30.2151 48.2878 30.1424 48.5394 30.1424 48.8451C30.1424 49.2945 30.2151 49.6181 30.3786 49.8158C30.5421 50.0136 30.7601 50.1035 31.0689 50.1035H31.0508Z" fill="#1D1D1B"/>
<path d="M35.5391 43.9909H36.5746V44.7639C36.829 44.4943 37.1742 44.2785 37.5738 44.0988C37.9735 43.919 38.355 43.8291 38.7366 43.8291C38.8092 43.8291 38.8819 43.8291 38.9546 43.8471C39.0272 43.8471 39.0818 43.8651 39.1181 43.883V44.7819C39.1181 44.7819 39.0091 44.7819 38.9546 44.7819H38.7729C38.3914 44.7819 37.9917 44.8538 37.6102 44.9976C37.2287 45.1415 36.8835 45.3212 36.5928 45.519V50.6785H35.5572V43.9909H35.5391Z" fill="#1D1D1B"/>
<path d="M39.5547 43.9908H40.8264V42.7684C40.9899 42.6965 41.1534 42.6246 41.3351 42.5526C41.4986 42.4807 41.6621 42.4088 41.8438 42.3369V43.9908H43.3517V44.7639H41.8438V49.2223C41.8438 49.5459 41.9165 49.7796 42.0255 49.9055C42.1527 50.0313 42.3707 50.0852 42.6977 50.0852H43.0247C43.1155 50.0852 43.2245 50.0852 43.3517 50.0673V50.8043C43.0065 50.8583 42.6795 50.8762 42.3707 50.8762C41.8256 50.8762 41.426 50.7504 41.2079 50.4987C40.9718 50.2291 40.8628 49.8156 40.8628 49.2403V44.7819H39.591V44.0088L39.5547 43.9908Z" fill="#1D1D1B"/>
<path d="M4.54688 52.7642H7.27202C7.94422 52.7642 8.50742 52.872 8.9071 53.0878C9.30679 53.3035 9.63381 53.6091 9.85182 54.0226C10.0698 54.4181 10.2152 54.8855 10.2878 55.4428C10.3605 55.9821 10.3969 56.5934 10.3969 57.2406C10.3969 57.8878 10.3605 58.499 10.2878 59.0383C10.2152 59.5776 10.0698 60.063 9.85182 60.4585C9.63381 60.854 9.32496 61.1597 8.9071 61.3754C8.48925 61.5911 7.94422 61.699 7.27202 61.699H4.54688V52.7642ZM5.54609 60.872H7.39919C7.78071 60.872 8.08956 60.8001 8.34391 60.6743C8.59826 60.5484 8.7981 60.3327 8.96161 60.0271C9.12512 59.7394 9.23412 59.3619 9.30679 58.8945C9.37946 58.4271 9.39763 57.8698 9.39763 57.2226C9.39763 56.5754 9.3613 56.0181 9.28862 55.5687C9.21595 55.1192 9.08878 54.7417 8.92527 54.4361C8.76176 54.1484 8.54375 53.9327 8.27124 53.7889C7.99872 53.6451 7.67171 53.5731 7.27202 53.5731H5.54609V60.8361V60.872Z" fill="#1D1D1B"/>
<path d="M11.7266 52.7642H12.7439V53.9327H11.7266V52.7642ZM11.7266 55.0114H12.7439V61.699H11.7266V55.0114Z" fill="#1D1D1B"/>
<path d="M18.9185 61.6987H17.9011V61.1234C17.665 61.3571 17.3561 61.5369 16.9746 61.6627C16.5931 61.7886 16.1934 61.8605 15.7755 61.8605C15.4667 61.8605 15.1942 61.8066 14.9762 61.7167C14.7581 61.6268 14.5765 61.483 14.4493 61.3032C14.3221 61.1234 14.2313 60.9077 14.1586 60.656C14.1041 60.4043 14.0859 60.1346 14.0859 59.829C14.0859 59.4155 14.1768 59.056 14.3766 58.7684C14.5583 58.4807 14.8126 58.247 15.1578 58.0672C15.503 57.8875 15.8845 57.7616 16.3569 57.6717C16.8111 57.5818 17.3379 57.5459 17.9011 57.5279V56.8448C17.9011 56.4133 17.8285 56.0897 17.665 55.856C17.5015 55.6223 17.1744 55.5144 16.6839 55.5144C16.3024 55.5144 15.9935 55.5863 15.7574 55.7661C15.5212 55.9279 15.3758 56.1616 15.3395 56.4852H14.3221C14.3403 56.1796 14.4311 55.9279 14.5583 55.7122C14.6855 55.4964 14.849 55.3167 15.067 55.1729C15.285 55.029 15.5212 54.9212 15.8119 54.8672C16.1025 54.7953 16.3932 54.7773 16.7202 54.7773C17.1381 54.7773 17.4833 54.8313 17.7558 54.9212C18.0283 55.0111 18.2645 55.1369 18.428 55.2987C18.5915 55.4425 18.7187 55.6223 18.7914 55.838C18.864 56.0358 18.9004 56.2515 18.9004 56.4493V61.6807L18.9185 61.6987ZM16.0117 61.1234C16.3387 61.1234 16.6839 61.0515 17.0109 60.9257C17.3561 60.7998 17.6468 60.656 17.9011 60.4762V58.3369C17.5196 58.3369 17.1381 58.3729 16.7929 58.4088C16.4659 58.4448 16.157 58.5346 15.9027 58.6425C15.6484 58.7684 15.4485 58.9122 15.3032 59.1099C15.1578 59.3077 15.0852 59.5414 15.0852 59.847C15.0852 60.2964 15.1578 60.62 15.3213 60.8178C15.4848 61.0156 15.7029 61.1054 16.0117 61.1054V61.1234Z" fill="#1D1D1B"/>
<path d="M24.4078 60.5664C24.208 60.9439 23.9718 61.2136 23.663 61.3754C23.3541 61.5372 22.9908 61.627 22.5729 61.627C22.1914 61.627 21.8644 61.5731 21.5737 61.4473C21.283 61.3394 21.0468 61.1417 20.847 60.89C20.6471 60.6203 20.5018 60.2787 20.411 59.8652C20.3201 59.4518 20.2656 58.9304 20.2656 58.3372C20.2656 57.69 20.3201 57.1327 20.411 56.6832C20.5018 56.2338 20.6653 55.8742 20.847 55.6046C21.0468 55.3349 21.283 55.1372 21.5737 55.0113C21.8644 54.8855 22.2096 54.8315 22.5729 54.8315C22.9908 54.8315 23.3723 54.9035 23.6811 55.0652C23.99 55.227 24.2443 55.4967 24.4078 55.8922V54.9933H25.4434V62.1124C25.4434 62.4181 25.3889 62.6697 25.2617 62.9035C25.1345 63.1372 24.971 63.3349 24.7712 63.4967C24.5532 63.6585 24.2988 63.7664 24.0082 63.8563C23.7175 63.9282 23.3905 63.9821 23.0453 63.9821C22.3004 63.9821 21.719 63.8383 21.3012 63.5506C20.8652 63.263 20.6653 62.8495 20.6653 62.3282V62.2023H21.6827V62.3641C21.6827 62.6338 21.8099 62.8315 22.0461 62.9933C22.2822 63.1551 22.6093 63.227 23.0453 63.227C23.445 63.227 23.772 63.1372 24.0263 62.9394C24.2807 62.7596 24.4078 62.5079 24.4078 62.1844V60.5484V60.5664ZM21.2285 58.3731C21.2285 58.9124 21.2648 59.3439 21.3375 59.6495C21.4102 59.9551 21.5192 60.2068 21.6464 60.3686C21.7735 60.5304 21.9552 60.6383 22.1551 60.6922C22.3549 60.7461 22.5911 60.7641 22.8636 60.7641C23.0998 60.7641 23.3178 60.7102 23.5176 60.6203C23.7175 60.5124 23.8628 60.3866 23.99 60.2248C24.1172 60.063 24.2262 59.8832 24.2807 59.6855C24.3533 59.4877 24.3715 59.272 24.3715 59.0563V57.3844C24.3715 57.1866 24.3352 56.9709 24.2807 56.7731C24.208 56.5754 24.1172 56.3776 23.99 56.2158C23.8628 56.054 23.6993 55.9282 23.5176 55.8203C23.336 55.7124 23.1179 55.6585 22.8636 55.6585C22.5911 55.6585 22.3549 55.6945 22.1551 55.7484C21.937 55.8023 21.7735 55.9282 21.6464 56.1079C21.501 56.2877 21.4102 56.5754 21.3375 56.9169C21.2648 57.2765 21.2285 57.7439 21.2285 58.3372V58.3731Z" fill="#1D1D1B"/>
<path d="M26.8906 55.0109H27.908V55.73C28.453 55.1368 29.1071 54.8491 29.8701 54.8491C30.0881 54.8491 30.3243 54.8851 30.5605 54.957C30.7967 55.0289 30.9965 55.1368 31.1782 55.2806C31.3599 55.4244 31.5234 55.6222 31.6324 55.8379C31.7414 56.0536 31.8141 56.3233 31.8141 56.6109V61.6986H30.8148V56.7547C30.8148 56.4491 30.7058 56.1974 30.4878 55.9997C30.2698 55.8019 29.9791 55.712 29.6158 55.712C29.2888 55.712 28.9799 55.784 28.7074 55.9098C28.4167 56.0356 28.1624 56.1795 27.9262 56.3592V61.6986H26.9088V55.0109H26.8906Z" fill="#1D1D1B"/>
<path d="M35.6528 61.8604C35.2168 61.8604 34.8353 61.8065 34.5264 61.6807C34.1994 61.5548 33.9451 61.3571 33.7271 61.0694C33.5091 60.7818 33.3637 60.4222 33.2547 59.9728C33.1639 59.5234 33.1094 58.984 33.1094 58.3548C33.1094 57.7256 33.1457 57.1683 33.2365 56.7368C33.3274 56.2874 33.4727 55.9279 33.6907 55.6582C33.8906 55.3885 34.1631 55.1728 34.4719 55.047C34.799 54.9211 35.1805 54.8672 35.6347 54.8672C36.0889 54.8672 36.4886 54.9211 36.8156 55.047C37.1426 55.1728 37.3969 55.3706 37.5968 55.6582C37.7966 55.9458 37.942 56.3054 38.051 56.7368C38.1418 57.1863 38.1963 57.7256 38.1963 58.3548C38.1963 58.984 38.1418 59.5413 38.0328 59.9728C37.942 60.4222 37.7785 60.7818 37.5604 61.0694C37.3606 61.3571 37.0881 61.5548 36.7611 61.6807C36.434 61.8065 36.0525 61.8604 35.6347 61.8604H35.6528ZM34.1268 58.3548C34.1268 58.8762 34.1631 59.3076 34.1994 59.6492C34.2539 59.9908 34.3448 60.2604 34.4538 60.4582C34.5628 60.656 34.7263 60.7998 34.9261 60.8897C35.126 60.9795 35.3622 61.0155 35.6528 61.0155C35.9435 61.0155 36.1979 60.9795 36.3977 60.8897C36.5976 60.8177 36.7611 60.656 36.8701 60.4582C36.9791 60.2604 37.0699 59.9908 37.1063 59.6492C37.1608 59.3076 37.1789 58.8762 37.1789 58.3548C37.1789 57.8335 37.1426 57.402 37.1063 57.0604C37.0517 56.7189 36.9791 56.4492 36.8701 56.2515C36.7611 56.0537 36.5976 55.9099 36.3977 55.838C36.1979 55.7661 35.9435 55.7121 35.6528 55.7121C35.3622 55.7121 35.1078 55.7661 34.9261 55.838C34.7263 55.9279 34.581 56.0537 34.4538 56.2515C34.3448 56.4492 34.2539 56.7189 34.1994 57.0604C34.1449 57.402 34.1268 57.8335 34.1268 58.3548Z" fill="#1D1D1B"/>
<path d="M40.1555 59.7574V59.9731C40.1555 60.3327 40.2463 60.6023 40.4643 60.8001C40.6642 60.9799 40.9912 61.0697 41.4454 61.0697C41.8996 61.0697 42.2811 60.9978 42.5536 60.836C42.8261 60.6922 42.9533 60.3866 42.9533 59.9551C42.9533 59.6315 42.8443 59.3799 42.6081 59.2181C42.3719 59.0563 42.0812 58.9124 41.7361 58.7866L40.8277 58.481C39.7376 58.1214 39.2108 57.4922 39.2108 56.5754C39.2108 56.036 39.4106 55.6046 39.8285 55.299C40.2463 54.9754 40.7913 54.8315 41.4817 54.8315C42.2084 54.8315 42.7898 54.9754 43.1895 55.245C43.5892 55.5327 43.8072 55.9282 43.8072 56.4495V56.6832H42.7534V56.4675C42.7534 56.2158 42.6444 56.0181 42.4446 55.8563C42.2447 55.7124 41.9177 55.6405 41.4999 55.6405C41.1184 55.6405 40.8095 55.7124 40.5733 55.8563C40.3371 56.0001 40.21 56.2338 40.21 56.5754C40.21 56.881 40.319 57.0967 40.537 57.2585C40.755 57.4203 41.082 57.5821 41.518 57.7439L42.3901 58.0675C42.6081 58.1394 42.8079 58.2473 42.9896 58.3551C43.1895 58.463 43.353 58.6068 43.4983 58.7506C43.6437 58.9124 43.7527 59.0742 43.8435 59.254C43.9343 59.4338 43.9707 59.6495 43.9707 59.8652C43.9707 60.2068 43.9162 60.4945 43.789 60.7282C43.6618 60.9799 43.4801 61.1776 43.2621 61.3574C43.0441 61.5372 42.7716 61.645 42.4628 61.7349C42.1539 61.8248 41.8087 61.8608 41.4272 61.8608C41.0275 61.8608 40.6823 61.8068 40.3916 61.7169C40.101 61.6091 39.8648 61.4832 39.6831 61.3035C39.5014 61.1237 39.3561 60.9259 39.2834 60.6922C39.1926 60.4585 39.1562 60.2068 39.1562 59.9372V59.7214H40.21L40.1555 59.7574Z" fill="#1D1D1B"/>
<path d="M45.1484 52.7642H46.1658V53.9327H45.1484V52.7642ZM45.1484 55.0114H46.1658V61.699H45.1484V55.0114Z" fill="#1D1D1B"/>
<path d="M48.3871 59.7574V59.9731C48.3871 60.3327 48.478 60.6023 48.696 60.8001C48.8958 60.9799 49.2228 61.0697 49.677 61.0697C50.1312 61.0697 50.5127 60.9978 50.7852 60.836C51.0578 60.6922 51.1849 60.3866 51.1849 59.9551C51.1849 59.6315 51.0759 59.3799 50.8397 59.2181C50.6036 59.0563 50.3129 58.9124 49.9677 58.7866L49.0593 58.481C47.9693 58.1214 47.4242 57.4922 47.4242 56.5754C47.4242 56.036 47.6422 55.6046 48.0601 55.299C48.478 54.9754 49.023 54.8315 49.7134 54.8315C50.4401 54.8315 51.0214 54.9754 51.4211 55.245C51.8208 55.5327 52.0206 55.9282 52.0206 56.4495V56.6832H50.9669V56.4675C50.9669 56.2158 50.8579 56.0181 50.6581 55.8563C50.4401 55.7124 50.1312 55.6405 49.7134 55.6405C49.3318 55.6405 49.0412 55.7124 48.7868 55.8563C48.5506 56.0001 48.4235 56.2338 48.4235 56.5754C48.4235 56.881 48.5325 57.0967 48.7505 57.2585C48.9685 57.4203 49.2955 57.5821 49.7315 57.7439L50.6036 58.0675C50.8216 58.1394 51.0033 58.2473 51.2031 58.3551C51.3848 58.463 51.5665 58.6068 51.7118 58.7506C51.8571 58.9124 51.9661 59.0742 52.057 59.254C52.1296 59.4338 52.1842 59.6495 52.1842 59.8652C52.1842 60.2068 52.1115 60.4945 52.0025 60.7282C51.8753 60.9799 51.7118 61.1776 51.4756 61.3574C51.2394 61.5372 50.9851 61.645 50.6581 61.7349C50.3492 61.8248 50.004 61.8608 49.6225 61.8608C49.241 61.8608 48.8776 61.8068 48.587 61.7169C48.2963 61.6091 48.0601 61.4832 47.8784 61.3035C47.6967 61.1237 47.5514 60.9259 47.4787 60.6922C47.3879 60.4585 47.3516 60.2068 47.3516 59.9372V59.7214H48.4053L48.3871 59.7574Z" fill="#1D1D1B"/>
<path d="M54.9958 55.1368V57.8154H54.6506V55.1368H53.7422V54.8491H55.886V55.1368H54.9776H54.9958Z" fill="#1D1D1B"/>
<path d="M58.3002 54.8491H58.8452V57.8154H58.5182V55.1368L57.7189 57.8154H57.3373L56.538 55.1368V57.8154H56.2109V54.8491H56.756L57.519 57.4738L58.282 54.8491H58.3002Z" fill="#1D1D1B"/>
</svg>
