<svg width="32" height="32" viewBox="0 0 32 32" fill="none" xmlns="http://www.w3.org/2000/svg">
<path fill-rule="evenodd" clip-rule="evenodd" d="M2.4668 17.2666L3.40013 18.1999L14.2001 28.9999L15.1335 29.9333L16.0668 28.9999L29.1335 15.9333L27.8001 4.59993L16.4668 3.2666L3.40013 16.3333L2.4668 17.2666ZM4.33346 17.2666L15.1335 28.0666L27.7335 15.4666L26.6001 5.79993L16.9335 4.6666L4.33346 17.2666ZM21.0668 9.73327C21.5335 9.2666 22.2001 9.2666 22.6668 9.73327C23.1335 10.1999 23.1335 10.8666 22.6668 11.3333C22.2001 11.7999 21.5335 11.7999 21.0668 11.3333C20.6001 10.8666 20.6001 10.1999 21.0668 9.73327ZM23.6001 8.79993C22.6668 7.8666 21.0668 7.8666 20.1335 8.79993C19.2001 9.73327 19.2001 11.3333 20.1335 12.2666C21.0668 13.1999 22.6668 13.1999 23.6001 12.2666C24.5335 11.3333 24.5335 9.73327 23.6001 8.79993Z" fill="black"/>
<path d="M19.7335 14.8665C20.2001 15.3332 20.5335 15.7999 20.7335 16.2665L19.5335 16.7999C19.4001 16.4665 19.1335 16.1332 18.8668 15.8665C18.4668 15.4665 18.1335 15.2665 17.8001 15.2665C17.4668 15.2665 17.1335 15.4665 16.8001 15.7999L15.8001 16.7999L17.6001 18.5999L16.6668 19.5332L14.8668 17.7332C14.4668 18.1332 14.1335 18.3999 13.8001 18.5332C13.4668 18.6665 13.1335 18.7332 12.7335 18.6665L15.4001 21.3332L14.4668 22.3998L10.4668 18.3999L11.3335 17.5332C11.5335 17.5332 11.7335 17.5999 11.9335 17.5332C12.1335 17.5332 12.3335 17.4665 12.5335 17.3999C12.7335 17.3332 12.9335 17.1999 13.0668 17.0665C13.2668 16.9332 13.4668 16.7332 13.6668 16.5332L13.0001 15.8665L13.9335 14.9332L14.6001 15.5999L15.5335 14.5999C15.9335 14.1999 16.2668 13.9999 16.6001 13.8665C16.9335 13.7332 17.3335 13.6665 17.6668 13.7332C18.0001 13.7999 18.3335 13.9332 18.7335 14.1332C19.0668 14.2665 19.4001 14.5332 19.7335 14.8665Z" fill="black"/>
</svg>
