<svg width="65" height="64" viewBox="0 0 65 64" fill="none" xmlns="http://www.w3.org/2000/svg">
<g clip-path="url(#clip0_57_40294)">
<path d="M37.5875 32.0025L36.7175 8.23252C36.6975 7.49252 36.0775 6.91252 35.3375 6.94252L30.6675 7.09252C29.9275 7.11252 29.3475 7.73252 29.3775 8.47252L28.4375 32.0725" stroke="black" stroke-width="1.5" stroke-miterlimit="10" stroke-linecap="round"/>
<path d="M25.227 37.293L4.49697 50.233C3.86697 50.623 3.66697 51.443 4.05697 52.073L6.49697 56.063C6.88697 56.693 7.70697 56.893 8.33697 56.503L29.467 45.403" stroke="black" stroke-width="1.5" stroke-miterlimit="10" stroke-linecap="round"/>
<path d="M36.5684 45.3605L57.6484 56.9005C58.2984 57.2505 59.1084 57.0105 59.4584 56.3605L61.6884 52.2505C62.0384 51.6005 61.7984 50.7905 61.1484 50.4405L40.7684 37.2305" stroke="black" stroke-width="1.5" stroke-miterlimit="10" stroke-linecap="round"/>
<path d="M33.0065 32.0234C36.5165 32.0234 39.3665 34.8734 39.3665 38.3834C39.3665 41.8934 36.5165 44.7434 33.0065 44.7434C29.4965 44.7434 26.6465 41.8934 26.6465 38.3834C26.6465 34.8734 29.4965 32.0234 33.0065 32.0234ZM33.0065 30.5234C28.6665 30.5234 25.1465 34.0434 25.1465 38.3834C25.1465 42.7234 28.6665 46.2434 33.0065 46.2434C37.3465 46.2434 40.8665 42.7234 40.8665 38.3834C40.8665 34.0434 37.3465 30.5234 33.0065 30.5234Z" fill="black"/>
</g>
<defs>
<clipPath id="clip0_57_40294">
<rect width="59.5" height="51.62" fill="white" transform="translate(3.10742 6.19141)"/>
</clipPath>
</defs>
</svg>
