<svg width="36" height="36" viewBox="0 0 36 36" fill="none" xmlns="http://www.w3.org/2000/svg">
<g id="Icon_Guide_36">
<rect width="36" height="36" fill="white"/>
<g id="Group 6340289">
<path id="Ellipse 1341" d="M33 15.1984C33 17.9409 30.7768 20.1641 28.0343 20.1641C25.2918 20.1641 23.0685 17.9409 23.0685 15.1984M33 15.1984L28.0343 6.26005M33 15.1984H23.0685M23.0685 15.1984L28.0343 6.26005M28.0343 6.26005L18 6.13003M7.96574 6L3 14.9383M7.96574 6L12.9315 14.9383M7.96574 6L18 6.13003M12.9315 14.9383C12.9315 17.6808 10.7082 19.9041 7.96574 19.9041C5.22324 19.9041 3 17.6808 3 14.9383M12.9315 14.9383H3M18 6.13003V30.4444M18 30.4444H12.9315M18 30.4444H23.0171" stroke="black" stroke-width="1.5" stroke-linejoin="round"/>
</g>
</g>
</svg>
