<svg width="18" height="18" viewBox="0 0 18 18" fill="none" xmlns="http://www.w3.org/2000/svg">
<path fill-rule="evenodd" clip-rule="evenodd" d="M9.01367 1.44922C9.28981 1.44922 9.51367 1.67308 9.51367 1.94922V2.94959C10.0638 3.15213 10.4561 3.6809 10.4561 4.30131C10.4561 4.39159 10.4478 4.47992 10.4319 4.56559L12.0762 6.62085H13.6565C14.4849 6.62085 15.1565 7.29242 15.1565 8.12085V15.0528C15.1565 15.8812 14.4849 16.5528 13.6565 16.5528H4.37402C3.5456 16.5528 2.87402 15.8812 2.87402 15.0528V8.12085C2.87402 7.29242 3.5456 6.62085 4.37402 6.62085H5.95514L7.60018 4.56455C7.58441 4.47921 7.57617 4.39122 7.57617 4.30131C7.57617 3.68277 7.96616 3.15532 8.51367 2.95143V1.94922C8.51367 1.67308 8.73753 1.44922 9.01367 1.44922ZM11.8224 7.62085C11.8316 7.62111 11.8409 7.62111 11.8502 7.62085H13.6565C13.9326 7.62085 14.1565 7.84471 14.1565 8.12085V15.0528C14.1565 15.329 13.9326 15.5528 13.6565 15.5528H4.37402C4.09788 15.5528 3.87402 15.329 3.87402 15.0528V8.12085C3.87402 7.84471 4.09788 7.62085 4.37402 7.62085H6.18106C6.19035 7.62111 6.19965 7.62111 6.20893 7.62085H7.10449V10.8817V11.3817H7.60449H10.4251H10.9251V10.8817V7.62085H11.8224ZM10.7955 6.62085L9.8685 5.46207C9.62986 5.6376 9.33512 5.7413 9.01616 5.7413C8.69691 5.7413 8.40193 5.63741 8.16317 5.46159L7.23576 6.62085H7.60449H10.4251H10.7955ZM8.57617 4.30131C8.57617 4.05832 8.77316 3.86133 9.01616 3.86133C9.25916 3.86133 9.45614 4.05832 9.45614 4.30131C9.45614 4.54431 9.25916 4.7413 9.01616 4.7413C8.77316 4.7413 8.57617 4.54431 8.57617 4.30131ZM9.92511 7.62085H8.10449V10.3817H9.92511V7.62085Z" fill="#555555"/>
</svg>
