<svg width="226" height="40" viewBox="0 0 226 40" fill="none" xmlns="http://www.w3.org/2000/svg">
<path d="M20.125 5H3.125C2.29657 5 1.625 5.67157 1.625 6.5V29.5C1.625 30.3284 2.29657 31 3.125 31H20.125C20.9534 31 21.625 30.3284 21.625 29.5V6.5C21.625 5.67157 20.9534 5 20.125 5Z" stroke="black" stroke-width="1.5"/>
<circle cx="11.625" cy="8" r="1" fill="black"/>
<path d="M24.625 10.5C24.625 9.67157 25.2966 9 26.125 9H36.125C36.9534 9 37.625 9.67157 37.625 10.5V29.5C37.625 30.3284 36.9534 31 36.125 31H26.125C25.2966 31 24.625 30.3284 24.625 29.5V10.5Z" stroke="black" stroke-width="1.5"/>
<circle cx="31.125" cy="12" r="1" fill="black"/>
<path d="M32.4798 22.1918C32.1276 21.7532 31.5865 21.4723 30.9798 21.4723C30.373 21.4723 29.8319 21.7532 29.4798 22.1918M34.1248 20.9926C33.4206 20.1153 32.3384 19.5535 31.1248 19.5535C29.9113 19.5535 28.8291 20.1153 28.1248 20.9926M35.625 19.7934C34.5686 18.4774 32.9453 17.6348 31.125 17.6348C29.3047 17.6348 27.6814 18.4774 26.625 19.7934" stroke="black" stroke-width="1.2" stroke-linecap="round" stroke-linejoin="round"/>
<circle cx="30.9632" cy="23.5813" r="0.642857" fill="black"/>
<path d="M94.6925 4.72656H66.5635C65.9934 4.72656 65.5312 5.17428 65.5312 5.72656V21.7266C65.5312 22.2788 65.9934 22.7266 66.5635 22.7266H94.6925C95.2626 22.7266 95.7248 22.2788 95.7248 21.7266V5.72656C95.7248 5.17428 95.2626 4.72656 94.6925 4.72656Z" stroke="black" stroke-width="1.5" stroke-miterlimit="10"/>
<path d="M92.7361 26.0005H68.5139C68.023 26.0005 67.625 26.3587 67.625 26.8005V29.2005C67.625 29.6423 68.023 30.0005 68.5139 30.0005H92.7361C93.227 30.0005 93.625 29.6423 93.625 29.2005V26.8005C93.625 26.3587 93.227 26.0005 92.7361 26.0005Z" stroke="black" stroke-width="1.5"/>
<path d="M95.7218 26.641C96.1116 26.9818 96.3612 27.5054 96.3612 28.0927C96.3612 28.6799 96.1116 29.2035 95.7218 29.5443M97.3461 25.049C98.1258 25.7306 98.625 26.7779 98.625 27.9523C98.625 29.1267 98.1258 30.174 97.3461 30.8555" stroke="black" stroke-width="1.2" stroke-linecap="round" stroke-linejoin="round"/>
<path d="M65.5282 29.2633C65.1384 28.9225 64.8888 28.3989 64.8888 27.8117C64.8888 27.2245 65.1384 26.7008 65.5282 26.3601M63.9039 30.8553C63.1242 30.1737 62.625 29.1265 62.625 27.9521C62.625 26.7776 63.1242 25.7304 63.9039 25.0488" stroke="black" stroke-width="1.2" stroke-linecap="round" stroke-linejoin="round"/>
<path d="M69.625 28.0005L78.625 28.0005" stroke="black" stroke-width="1.2" stroke-linecap="round"/>
<path d="M84.9791 28.5328C85.2998 28.5328 85.5597 28.2728 85.5597 27.9521C85.5597 27.6315 85.2998 27.3715 84.9791 27.3715C84.6584 27.3715 84.3984 27.6315 84.3984 27.9521C84.3984 28.2728 84.6584 28.5328 84.9791 28.5328Z" fill="black"/>
<path d="M87.5924 28.5328C87.913 28.5328 88.173 28.2728 88.173 27.9521C88.173 27.6315 87.913 27.3715 87.5924 27.3715C87.2717 27.3715 87.0117 27.6315 87.0117 27.9521C87.0117 28.2728 87.2717 28.5328 87.5924 28.5328Z" fill="black"/>
<path d="M89.625 28.0005H90.625" stroke="black" stroke-width="1.2" stroke-linecap="round"/>
<path fill-rule="evenodd" clip-rule="evenodd" d="M125.625 6.5C125.625 5.67157 126.297 5 127.125 5H142.125C142.953 5 143.625 5.67157 143.625 6.5V31C143.625 31.8284 142.953 32.5 142.125 32.5H127.125C126.297 32.5 125.625 31.8284 125.625 31V6.5Z" stroke="black" stroke-width="1.5" stroke-linecap="round" stroke-linejoin="round"/>
<path fill-rule="evenodd" clip-rule="evenodd" d="M137.125 8.25C137.125 7.97386 137.349 7.75 137.625 7.75H140.625C140.901 7.75 141.125 7.97386 141.125 8.25V16.75C141.125 17.0261 140.901 17.25 140.625 17.25H137.625C137.349 17.25 137.125 17.0261 137.125 16.75V8.25Z" stroke="black" stroke-width="1.5" stroke-linecap="round" stroke-linejoin="round"/>
<path d="M134.625 32.5L134.625 5" stroke="black" stroke-width="1.5" stroke-linecap="round"/>
<path d="M125.625 20H143.625" stroke="black" stroke-width="1.5"/>
<path fill-rule="evenodd" clip-rule="evenodd" d="M148.125 11.75C146.882 11.75 145.875 12.7574 145.875 14V31C145.875 32.2426 146.882 33.25 148.125 33.25H160.625C161.868 33.25 162.875 32.2426 162.875 31V14C162.875 12.7574 161.868 11.75 160.625 11.75H148.125ZM147.375 14C147.375 13.5858 147.711 13.25 148.125 13.25H160.625C161.039 13.25 161.375 13.5858 161.375 14V17.25H147.375V14ZM147.375 18.75V31C147.375 31.4142 147.711 31.75 148.125 31.75H160.625C161.039 31.75 161.375 31.4142 161.375 31V18.75H147.375ZM154.375 21.25C152.166 21.25 150.375 23.0409 150.375 25.25C150.375 27.4591 152.166 29.25 154.375 29.25C156.584 29.25 158.375 27.4591 158.375 25.25C158.375 23.0409 156.584 21.25 154.375 21.25ZM148.875 25.25C148.875 22.2124 151.337 19.75 154.375 19.75C157.413 19.75 159.875 22.2124 159.875 25.25C159.875 28.2876 157.413 30.75 154.375 30.75C151.337 30.75 148.875 28.2876 148.875 25.25ZM156.3 26.9647C156.507 27.2231 156.885 27.2644 157.143 27.057C157.402 26.8495 157.443 26.4718 157.235 26.2134C157.049 25.9809 156.812 25.7934 156.543 25.6647C156.274 25.5361 155.979 25.4693 155.681 25.4693C155.382 25.4693 155.088 25.5361 154.819 25.6647C154.561 25.7878 154.334 25.9645 154.151 26.183C153.943 26.3824 153.761 26.4548 153.615 26.4781C153.458 26.5033 153.296 26.4783 153.135 26.418C152.972 26.3572 152.827 26.267 152.72 26.1874C152.668 26.1485 152.628 26.1144 152.602 26.0916C152.589 26.0803 152.581 26.0719 152.576 26.0674L152.572 26.0638C152.34 25.83 151.962 25.8276 151.726 26.059C151.49 26.2913 151.487 26.6711 151.719 26.9075L152.144 26.4893C151.719 26.9075 151.719 26.9077 151.719 26.9079L151.72 26.9083L151.721 26.9093L151.723 26.9116L151.729 26.9175L151.746 26.9347C151.761 26.9483 151.78 26.9663 151.804 26.9877C151.852 27.0304 151.919 27.0872 152.004 27.15C152.17 27.2737 152.415 27.4301 152.715 27.5422C153.017 27.6549 153.392 27.7291 153.805 27.663C154.225 27.5957 154.638 27.3901 155.016 27.0149L155.04 26.9911L155.062 26.9647C155.135 26.873 155.229 26.7986 155.336 26.7473C155.443 26.6961 155.561 26.6693 155.681 26.6693C155.8 26.6693 155.918 26.6961 156.025 26.7473C156.132 26.7986 156.226 26.873 156.3 26.9647ZM157.143 24.6541C156.885 24.8616 156.507 24.8203 156.3 24.5619C156.226 24.4702 156.132 24.3958 156.025 24.3445C155.918 24.2932 155.8 24.2665 155.681 24.2665C155.561 24.2665 155.443 24.2932 155.336 24.3445C155.229 24.3958 155.135 24.4702 155.062 24.5619L155.04 24.5883L155.016 24.6121C154.638 24.9872 154.225 25.1928 153.805 25.2601C153.392 25.3263 153.017 25.2521 152.715 25.1394C152.415 25.0273 152.17 24.8709 152.004 24.7471C151.919 24.6844 151.852 24.6275 151.804 24.5849C151.78 24.5635 151.761 24.5455 151.746 24.5318L151.729 24.5147L151.723 24.5087L151.721 24.5064L151.72 24.5055L151.719 24.5051C151.719 24.5049 151.719 24.5047 152.144 24.0865L151.719 24.5047C151.487 24.2683 151.49 23.8884 151.726 23.6562C151.962 23.4247 152.34 23.4272 152.572 23.6609L152.576 23.6645C152.581 23.6691 152.589 23.6774 152.602 23.6888C152.628 23.7116 152.668 23.7456 152.72 23.7846C152.827 23.8642 152.972 23.9544 153.135 24.0152C153.296 24.0754 153.458 24.1005 153.615 24.0753C153.761 24.0519 153.943 23.9795 154.151 23.7802C154.334 23.5617 154.561 23.385 154.819 23.2619C155.088 23.1332 155.382 23.0665 155.681 23.0665C155.979 23.0665 156.274 23.1332 156.543 23.2619C156.812 23.3906 157.049 23.5781 157.235 23.8106C157.443 24.069 157.402 24.4467 157.143 24.6541ZM149.124 14.4999C148.71 14.4999 148.374 14.8357 148.374 15.2499C148.374 15.6641 148.71 15.9999 149.124 15.9999H151.877C152.291 15.9999 152.627 15.6641 152.627 15.2499C152.627 14.8357 152.291 14.4999 151.877 14.4999H149.124ZM156.874 14.4999C156.46 14.4999 156.124 14.8357 156.124 15.2499C156.124 15.6641 156.46 15.9999 156.874 15.9999H159.627C160.041 15.9999 160.377 15.6641 160.377 15.2499C160.377 14.8357 160.041 14.4999 159.627 14.4999H156.874ZM154.376 14.4999C154.044 14.4999 153.774 14.7696 153.774 15.1019C153.774 15.4343 154.044 15.704 154.376 15.704C154.709 15.704 154.978 15.4343 154.978 15.1019C154.978 14.7696 154.709 14.4999 154.376 14.4999Z" fill="black"/>
<path d="M204.875 27V35M206.875 27V35" stroke="black" stroke-width="1.5" stroke-linecap="round"/>
<path d="M220.625 23L220.625 26" stroke="black" stroke-width="1.5" stroke-miterlimit="10" stroke-linecap="round"/>
<path d="M224.371 32.8681V25.382C224.371 24.0665 223.28 23 221.934 23H219.308C217.962 23 216.871 24.0665 216.871 25.382V32.8681C216.871 34.1836 217.962 35.25 219.308 35.25H221.934C223.28 35.25 224.371 34.1836 224.371 32.8681Z" stroke="black" stroke-width="1.5" stroke-miterlimit="10" stroke-linecap="round"/>
<line x1="199.625" y1="35.25" x2="212.125" y2="35.25" stroke="black" stroke-width="1.5" stroke-linecap="round"/>
<path fill-rule="evenodd" clip-rule="evenodd" d="M190.875 7.25C189.632 7.25 188.625 8.25736 188.625 9.5V25.5C188.625 26.7426 189.632 27.75 190.875 27.75H216.876V26.25H190.875C190.461 26.25 190.125 25.9142 190.125 25.5V9.5C190.125 9.08579 190.461 8.75 190.875 8.75H220.875C221.289 8.75 221.625 9.08579 221.625 9.5V23H221.983C222.395 23 222.784 23.0992 223.125 23.2744V9.5C223.125 8.25736 222.118 7.25 220.875 7.25H190.875Z" fill="black"/>
</svg>
