<svg width="32" height="32" viewBox="0 0 32 32" fill="none" xmlns="http://www.w3.org/2000/svg">
<path fill-rule="evenodd" clip-rule="evenodd" d="M16.0129 22.9803C11.0321 22.9803 6.69151 20.1374 4.58514 16.0023C6.69063 11.8421 11.0072 9 16.0129 9C21.0171 9 25.3094 11.8407 27.4144 16.0023C25.3086 20.1388 20.9922 22.9803 16.0129 22.9803ZM16.0129 7.5C10.2811 7.5 5.35401 10.8404 3.07156 15.6836C2.9759 15.8866 2.97616 16.1218 3.07228 16.3246C5.35539 21.1414 10.3088 24.4803 16.0129 24.4803C21.7187 24.4803 26.6448 21.1398 28.9272 16.3246C29.0233 16.1218 29.0236 15.8866 28.9279 15.6836C26.6462 10.8419 21.7465 7.5 16.0129 7.5ZM12.5039 15.8453C12.5039 13.8133 14.1512 12.166 16.1832 12.166C18.2152 12.166 19.8624 13.8133 19.8624 15.8453C19.8624 17.8773 18.2152 19.5246 16.1832 19.5246C14.1512 19.5246 12.5039 17.8773 12.5039 15.8453ZM16.1832 10.666C13.3227 10.666 11.0039 12.9849 11.0039 15.8453C11.0039 18.7057 13.3227 21.0246 16.1832 21.0246C19.0436 21.0246 21.3624 18.7057 21.3624 15.8453C21.3624 12.9849 19.0436 10.666 16.1832 10.666Z" fill="black"/>
</svg>
