<svg width="18" height="19" viewBox="0 0 18 19" fill="none" xmlns="http://www.w3.org/2000/svg">
<path fill-rule="evenodd" clip-rule="evenodd" d="M2 5.40039C2 4.57196 2.67157 3.90039 3.5 3.90039H13.6898C14.5183 3.90039 15.1898 4.57196 15.1898 5.40039V9.0022H14.1898V5.40039C14.1898 5.12425 13.966 4.90039 13.6898 4.90039H10.8855V8.54662V9.04662H10.3855H7.30762H6.80762V8.54662V4.90039H3.5C3.22386 4.90039 3 5.12425 3 5.40039V13.6023C3 13.8784 3.22386 14.1023 3.5 14.1023H9.08154V15.1023H3.5C2.67157 15.1023 2 14.4307 2 13.6023V5.40039ZM7.80762 4.90039V8.04662H9.8855V4.90039H7.80762Z" fill="#DAA40D"/>
<path fill-rule="evenodd" clip-rule="evenodd" d="M10.7998 15.0742H13.7998C14.9044 15.0742 15.7998 14.1788 15.7998 13.0742C15.7998 11.9696 14.9044 11.0742 13.7998 11.0742H10.7998V12.0742H13.7998C14.3521 12.0742 14.7998 12.5219 14.7998 13.0742C14.7998 13.6265 14.3521 14.0742 13.7998 14.0742H10.7998V15.0742Z" fill="#DAA40D"/>
<path d="M11.7998 10.5742L10.7998 11.5742L11.7998 12.5742" stroke="#DAA40D" stroke-linecap="round" stroke-linejoin="round"/>
</svg>
