<svg width="12" height="12" viewBox="0 0 12 12" fill="none" xmlns="http://www.w3.org/2000/svg">
<path d="M9.74788 4.57447V7.99428C9.74788 8.31133 9.60339 8.60962 9.35848 8.79833C7.54428 10.196 5.06478 10.196 3.25061 8.79833C3.00567 8.60962 2.86122 8.31133 2.86122 7.99428V4.80237M7.24365 3.33727L10.5569 4.39024C10.8201 4.47392 11 4.72664 11 5.01295V8.45354M11 9.64731V10.5M6.61196 5.71607L10.5638 4.27746C11.1228 4.07397 11.1228 3.25175 10.5638 3.04826L6.61196 1.60967C6.21028 1.46344 5.77273 1.46344 5.37105 1.60967L1.41924 3.04826C0.860254 3.25175 0.860254 4.07397 1.41924 4.27746L5.37105 5.71607C5.77273 5.86226 6.21028 5.86226 6.61196 5.71607Z" stroke="black" stroke-linecap="round"/>
</svg>
