<svg width="58" height="15" viewBox="0 0 58 15" fill="none" xmlns="http://www.w3.org/2000/svg">
<g clip-path="url(#clip0_3715_258734)">
<path d="M23.3218 5.12782L22.6279 5.86415C22.1465 5.39686 21.6367 5.12782 20.9429 5.12782C19.7393 5.12782 18.833 6.07655 18.833 7.40761C18.833 8.73866 19.7393 9.68739 20.9429 9.68739C21.5942 9.68739 22.2173 9.41835 22.6704 8.95106L23.3218 9.68739C22.7554 10.3388 21.9482 10.6786 20.9995 10.6786C19.0171 10.6786 17.7285 9.26259 17.7285 7.40761C17.7285 5.51015 19.0171 4.09413 20.9995 4.09413C21.8916 4.07997 22.7412 4.46229 23.3218 5.12782ZM31.0674 7.40761C31.0674 9.26259 29.6514 10.6786 27.7539 10.6786C25.814 10.6786 24.398 9.26259 24.398 7.40761C24.398 5.51015 25.814 4.09413 27.7539 4.09413C29.6514 4.09413 31.0674 5.51015 31.0674 7.40761ZM25.5166 7.40761C25.5166 8.73866 26.4653 9.68739 27.7539 9.68739C29 9.68739 29.9487 8.73866 29.9487 7.40761C29.9487 6.07655 29 5.12782 27.7539 5.12782C26.4653 5.12782 25.5166 6.07655 25.5166 7.40761ZM35.7261 10.5512H34.4233L31.7612 4.26405H32.9648L35.0747 9.47499L37.1846 4.26405H38.3457L35.7261 10.5512ZM45.1426 7.36513V7.78993H40.1865C40.314 9.07851 41.2202 9.72987 42.2964 9.72987C43.0186 9.74403 43.7266 9.47499 44.2788 8.99354L44.8452 9.72987C44.0664 10.4662 43.2026 10.6928 42.2539 10.6928C40.3564 10.6928 39.0254 9.40419 39.0254 7.42177C39.0254 5.48183 40.3564 4.10829 42.1689 4.10829C43.8965 4.09413 45.1426 5.46767 45.1426 7.36513ZM40.2007 6.88368H44.0806C43.9531 5.80751 43.2168 5.07118 42.1831 5.07118C41.0645 5.08534 40.3706 5.80751 40.2007 6.88368ZM53.2422 7.40761C53.2422 9.26259 51.8262 10.6786 49.9287 10.6786C47.9888 10.6786 46.5728 9.26259 46.5728 7.40761C46.5728 5.51015 47.9888 4.09413 49.9287 4.09413C51.812 4.09413 53.2422 5.51015 53.2422 7.40761ZM47.6914 7.40761C47.6914 8.73866 48.6401 9.68739 49.9287 9.68739C51.1748 9.68739 52.1235 8.73866 52.1235 7.40761C52.1235 6.07655 51.1748 5.12782 49.9287 5.12782C48.626 5.12782 47.6914 6.07655 47.6914 7.40761Z" fill="#323256"/>
<path opacity="0.87" d="M55.3379 4.5166V6.08838H55.0688V4.5166H54.5732V4.26172H55.8477V4.5166H55.3379ZM57.731 6.08838V4.87061L57.3062 5.74853H57.1079L56.6831 4.87061V6.08838H56.3999V4.27588H56.6831L57.207 5.40869L57.731 4.27588H58V6.08838H57.731Z" fill="#323256"/>
<path d="M12.4751 2.10986C11.2573 0.90625 9.67139 0.169922 7.95801 0C7.83057 0 7.73145 0.113281 7.73145 0.254883C7.73145 0.311523 7.74561 0.354004 7.78809 0.396484L10.4502 3.01611C10.4502 3.05859 10.4502 3.05859 10.4077 3.05859C9.67139 2.52051 8.80762 2.19482 7.91553 2.10986C7.83057 2.0957 7.75977 2.15234 7.74561 2.2373C7.74561 2.27979 7.75977 2.32227 7.78809 2.36475L9.60059 4.17725C9.60059 4.17725 9.60059 4.21973 9.55811 4.17725C9.0625 3.86572 8.51025 3.66748 7.91553 3.61084C7.83057 3.61084 7.78809 3.6958 7.83057 3.78076L10.8892 6.83936C10.9741 6.92432 11.1016 6.83936 11.0591 6.75439C11.0166 6.17383 10.8184 5.60742 10.4927 5.11182C10.4927 5.06934 10.4502 5.11182 10.4927 5.11182L12.2627 6.83936C12.3477 6.92432 12.5176 6.83936 12.5176 6.71191C12.4185 5.80566 12.0928 4.92773 11.5688 4.17725C11.5688 4.13477 11.5264 4.17725 11.5688 4.17725L14.2451 6.79688C14.3159 6.88184 14.4292 6.896 14.5142 6.83936C14.585 6.79687 14.6133 6.71191 14.585 6.62695C14.4292 4.91357 13.6787 3.31348 12.4751 2.10986Z" fill="#00ADFF"/>
<path d="M2.10986 2.10986C3.3418 0.92041 4.92773 0.169922 6.62695 0C6.75439 0 6.85352 0.0849609 6.86768 0.212402C6.86768 0.269043 6.85352 0.339844 6.79688 0.382324L4.17725 3.01611C4.13477 3.05859 4.17725 3.05859 4.17725 3.05859C4.92773 2.52051 5.80566 2.19482 6.71191 2.10986C6.83936 2.10986 6.92432 2.27979 6.83936 2.36475L5.04102 4.17725C5.04102 4.21973 4.99853 4.17725 5.04102 4.17725C5.53662 3.86572 6.08887 3.68164 6.68359 3.61084C6.76855 3.61084 6.85352 3.6958 6.76855 3.78076L3.6958 6.83936C3.61084 6.92432 3.52588 6.83936 3.52588 6.75439C3.58252 6.17383 3.79492 5.60742 4.13477 5.11182C4.13477 5.11182 4.09229 5.06934 4.09229 5.11182L2.36475 6.83936C2.2373 6.92432 2.06738 6.83936 2.10986 6.71191C2.19482 5.7915 2.52051 4.91357 3.05859 4.17725C3.05859 4.17725 3.01611 4.13477 3.01611 4.17725L0.382324 6.79688C0.212402 6.9668 0 6.83936 0 6.62695C0.169922 4.92773 0.92041 3.3418 2.10986 2.10986Z" fill="#F05245"/>
<path d="M2.10986 12.5757C3.31348 13.7935 4.91357 14.544 6.62695 14.6856C6.74023 14.6997 6.83936 14.6289 6.85352 14.5156C6.86768 14.4448 6.83936 14.3882 6.79688 14.3316L4.17725 11.6694C4.17725 11.627 4.13477 11.6694 4.17725 11.6694C4.92773 12.2075 5.80566 12.5332 6.71191 12.604C6.83936 12.604 6.92432 12.4341 6.83936 12.3491L5.04102 10.5508C4.99853 10.5083 5.04102 10.5083 5.04102 10.5083C5.52246 10.834 6.08887 11.0464 6.66943 11.103C6.75439 11.103 6.83936 10.9756 6.75439 10.9331L3.6958 7.87453C3.61084 7.78956 3.52588 7.83205 3.52588 7.95949C3.58252 8.54005 3.79492 9.10646 4.13477 9.60207C4.13477 9.60207 4.09229 9.64455 4.09229 9.60207L2.36475 7.87453C2.2373 7.78956 2.06738 7.83205 2.10986 8.00197C2.19482 8.90822 2.52051 9.77199 3.05859 10.4942C3.05859 10.5225 3.04443 10.5366 3.01611 10.5366L0.382324 7.87453C0.283203 7.78956 0.127441 7.81789 0.0566406 7.91701C0.0283203 7.95949 0.0141602 8.00197 0 8.05861C0.155762 9.75783 0.90625 11.3579 2.10986 12.5757Z" fill="#1CEBCF"/>
<path d="M12.4751 12.5733C11.2715 13.8052 9.6714 14.5557 7.95802 14.6831C7.7881 14.7256 7.66066 14.4707 7.7881 14.3433L10.4502 11.6812C10.4502 11.6812 10.4502 11.6387 10.4077 11.6812C9.6714 12.2193 8.80763 12.5449 7.91554 12.6299C7.83058 12.6441 7.75978 12.5733 7.74562 12.4883C7.74562 12.4458 7.75978 12.4033 7.7881 12.3609L9.6006 10.5484C9.6006 10.5059 9.6006 10.5059 9.55812 10.5059C9.07667 10.8457 8.51027 11.0581 7.9297 11.1006C7.8589 11.0864 7.81642 11.0298 7.83058 10.9732C7.83058 10.959 7.83058 10.9448 7.84474 10.9307L10.9033 7.87208C10.9883 7.78712 11.1157 7.8296 11.0733 7.95705C11.0308 8.53761 10.8325 9.10402 10.5068 9.59962C10.5068 9.6421 10.4644 9.59962 10.5068 9.59962L12.2769 7.87208C12.3335 7.81544 12.4326 7.81544 12.4893 7.87208C12.5176 7.9004 12.5318 7.95705 12.5318 7.99953C12.4326 8.89162 12.1069 9.75539 11.583 10.4917C11.5405 10.5342 11.583 10.5342 11.583 10.5342L14.2451 7.87208C14.3726 7.74464 14.6275 7.87208 14.585 8.04201C14.4434 9.75539 13.6929 11.3555 12.4751 12.5733Z" fill="#FFE300"/>
</g>
<defs>
<clipPath id="clip0_3715_258734">
<rect width="58" height="14.6841" fill="white"/>
</clipPath>
</defs>
</svg>
