<svg xmlns="http://www.w3.org/2000/svg" width="35" height="35" viewBox="0 0 35 35"><path fill="#333" fill-rule="evenodd" d="M17.5 34.998C7.835 34.998 0 27.163 0 17.499 0 7.834 7.835-.002 17.5-.002S35 7.834 35 17.499c0 9.664-7.835 17.499-17.5 17.499Zm1.226-24.857c-.933-.16-2.182-.236-3.114-.056-1.462.283-2.276 1.133-2.518 2.588-.085.507-.136.937-.121 1.448.006.182-.042.244-.234.239-.506-.013-1.03-.001-1.537-.007-.143-.002-.205.026-.203.188.01.65.009 1.617.001 2.268-.002.155.051.194.199.192.474-.008 1.027.011 1.5-.009.236-.01.285.068.284.289-.008 2.24-.002 4.244-.009 6.484-.001.182.043.236.232.234.931-.01 1.625-.011 2.556 0 .195.003.229-.059.228-.236-.008-1.128-.004-2.257-.004-3.385 0-1.129.004-2.02-.004-3.149-.002-.184.047-.239.235-.236.607.012.938-.001 1.544.008.183.003.263-.028.259-.238a61.718 61.718 0 0 1-.002-2.194c.003-.177-.056-.22-.226-.217-.623.009-.97.004-1.594.002-.091 0-.215.037-.212-.126.006-.37-.028-.663.062-1.029.135-.544.5-.843 1.066-.865.292-.012 1.133.006 1.414.087.149.043.199.026.211-.141.047-.64.104-1.28.17-1.919.017-.161-.05-.197-.183-.22Zm7.085 3.993c-.132-.149-.422-.095-.644-.124-1.278-.17-2.23.253-2.9 1.321-.103.165-.113.337-.239.561-.007-.137-.014-.214-.014-.292-.001-.42-.007-.998.003-1.418.004-.162-.044-.211-.209-.209-.84.008-1.759.009-2.598-.001-.188-.002-.211.068-.21.228.004 3.047.004 6.53-.001 9.578 0 .173.045.219.22.218.914-.009 1.631-.01 2.545 0 .192.002.252-.042.251-.242-.01-1.227-.005-2.455-.006-3.682 0-.388-.014-.774.057-1.156.241-1.302 1.266-1.964 2.599-1.983.275-.004.55.016.817.077.154.035.201-.004.208-.163.029-.626.076-1.447.108-2.073.012-.218.148-.489.013-.64Z"/></svg>