<svg width="72" height="72" viewBox="0 0 72 72" fill="none" xmlns="http://www.w3.org/2000/svg">
<g filter="url(#filter0_d_145_130551)">
<circle cx="36" cy="28" r="23.25" fill="white" fill-opacity="0.7" stroke="white" stroke-width="1.5"/>
<g clip-path="url(#clip0_145_130551)">
<path fill-rule="evenodd" clip-rule="evenodd" d="M36.9998 19C36.9998 18.4477 36.5521 18 35.9998 18C35.4476 18 34.9998 18.4477 34.9998 19L34.9998 27.0003H27C26.4477 27.0003 26 27.448 26 28.0003C26 28.5526 26.4477 29.0003 27 29.0003H34.9998L34.9998 36.9995C34.9998 37.5518 35.4475 37.9995 35.9998 37.9995C36.5521 37.9995 36.9998 37.5518 36.9998 36.9995L36.9998 29.0003H44.9995C45.5518 29.0003 45.9995 28.5526 45.9995 28.0003C45.9995 27.448 45.5518 27.0003 44.9995 27.0003H36.9998L36.9998 19Z" fill="black"/>
</g>
</g>
<defs>
<filter id="filter0_d_145_130551" x="0" y="0" width="72" height="72" filterUnits="userSpaceOnUse" color-interpolation-filters="sRGB">
<feFlood flood-opacity="0" result="BackgroundImageFix"/>
<feColorMatrix in="SourceAlpha" type="matrix" values="0 0 0 0 0 0 0 0 0 0 0 0 0 0 0 0 0 0 127 0" result="hardAlpha"/>
<feOffset dy="8"/>
<feGaussianBlur stdDeviation="6"/>
<feComposite in2="hardAlpha" operator="out"/>
<feColorMatrix type="matrix" values="0 0 0 0 0 0 0 0 0 0 0 0 0 0 0 0 0 0 0.06 0"/>
<feBlend mode="normal" in2="BackgroundImageFix" result="effect1_dropShadow_145_130551"/>
<feBlend mode="normal" in="SourceGraphic" in2="effect1_dropShadow_145_130551" result="shape"/>
</filter>
<clipPath id="clip0_145_130551">
<rect width="20" height="20.0001" fill="white" transform="translate(26 18)"/>
</clipPath>
</defs>
</svg>
