<svg width="24" height="24" viewBox="0 0 24 24" fill="none" xmlns="http://www.w3.org/2000/svg">
<path fill-rule="evenodd" clip-rule="evenodd" d="M3.20986 7.90566C3.20986 7.13246 3.83666 6.50566 4.60986 6.50566H9.02964H13.4092H14.3986C15.1718 6.50566 15.7986 7.13247 15.7986 7.90566V8.75269V12.6102V14.3614V16.0941C15.7986 16.8673 15.1718 17.4941 14.3986 17.4941H9.58138H5.21385H4.6C3.8268 17.4941 3.2 16.8673 3.2 16.0941V15.4938C3.20647 15.4585 3.20986 15.4221 3.20986 15.3849V7.90566ZM16.9986 14.8766V16.0941C16.9986 17.5301 15.8346 18.6941 14.3986 18.6941H9.58138H5.21385H4.6C3.16406 18.6941 2 17.5301 2 16.0941V15.047C2 15.0098 2.00338 14.9735 2.00986 14.9382V7.90566C2.00986 6.46972 3.17392 5.30566 4.60986 5.30566H9.02964H13.4092H14.3986C15.8346 5.30566 16.9986 6.46972 16.9986 7.90566V8.75269V9.05808L21.1236 6.89766C21.3096 6.80025 21.533 6.80715 21.7126 6.91584C21.8922 7.02454 22.002 7.21922 22.002 7.42918V16.5705C22.002 16.7818 21.8909 16.9775 21.7094 17.0858C21.528 17.194 21.303 17.1989 21.1171 17.0986L16.9986 14.8766ZM17.0785 13.5562V10.3709L20.802 8.42073V15.5651L17.0785 13.5562Z" fill="white"/>
</svg>
