<svg width="32" height="32" viewBox="0 0 32 32" fill="none" xmlns="http://www.w3.org/2000/svg">
<path fill-rule="evenodd" clip-rule="evenodd" d="M11.3685 5.82683L14.0489 4.60494C14.7246 4.32798 15.3616 4.33882 15.9406 4.6001L15.9415 4.60053L25.3064 8.86966L25.3083 8.87057C25.4276 8.92604 25.54 8.99103 25.6448 9.06435L21.8495 10.8326L21.5409 10.6852L11.3685 5.82683ZM26.5908 10.8963C26.5908 10.6634 26.5551 10.4351 26.4873 10.2187L22.5041 12.0745V16.499V19.1119H21.7995H21.0949V16.499V12.7311L15.7398 15.2261V27.4375C15.7999 27.4137 15.8594 27.3872 15.918 27.3581L16.5482 27.0449L17.1784 28.2977L16.5482 28.6109C15.5043 29.1297 14.2843 29.1297 13.2405 28.6109L13.2272 28.6042L4.00308 23.7751C2.78863 23.1684 2 21.9515 2 20.5609V10.8963C2 9.49226 2.87223 8.2091 4.08056 7.60863C4.08762 7.60513 4.09474 7.6017 4.10192 7.59841L13.4732 3.32639C13.4807 3.32296 13.4883 3.31966 13.4959 3.3165C14.5068 2.89787 15.5569 2.88816 16.5246 3.3254L16.5268 3.32638L25.8981 7.59841L25.9023 7.60037C27.2175 8.21043 28 9.51502 28 10.8963V17.0593V17.7596H27.2592H26.5908V17.0593V10.8963ZM14.3306 27.5288V15.1618L3.54448 10.1631C3.45704 10.3984 3.40921 10.6465 3.40921 10.8963V20.5609C3.40921 21.4088 3.88583 22.1508 4.64031 22.5258L4.65356 22.5325L13.8769 27.3612C14.0236 27.4336 14.1756 27.4894 14.3306 27.5288ZM15.1048 13.975L4.42936 9.02773C4.516 8.96778 4.60671 8.91378 4.70092 8.86637L9.70375 6.58572L10.0796 6.76522L20.2025 11.6L15.1048 13.975ZM26.0483 19.2006C26.3158 18.9331 26.7494 18.9331 27.0168 19.2006L29.2994 21.4832C29.4952 21.679 29.5539 21.9736 29.4479 22.2294C29.3419 22.4853 29.0921 22.6521 28.8152 22.6521H19.6848C19.3066 22.6521 19 22.3455 19 21.9674C19 21.5892 19.3066 21.2826 19.6848 21.2826H27.162L26.0483 20.1689C25.781 19.9015 25.781 19.468 26.0483 19.2006ZM21.4831 28.3863C21.7506 28.6537 22.1842 28.6537 22.4516 28.3863C22.719 28.1189 22.719 27.6854 22.4516 27.4179L21.338 26.3043H28.8152C29.1934 26.3043 29.5 25.9977 29.5 25.6195C29.5 25.2413 29.1934 24.9347 28.8152 24.9347H19.6848C19.4078 24.9347 19.1582 25.1015 19.0522 25.3575C18.9462 25.6133 19.0047 25.9079 19.2005 26.1037L21.4831 28.3863Z" fill="black"/>
</svg>
