<svg width="64" height="64" viewBox="0 0 64 64" fill="none" xmlns="http://www.w3.org/2000/svg">
<g clip-path="url(#clip0_1_21048)">
<path d="M6.64988 53.4001C7.14693 53.4001 7.54988 52.9972 7.54988 52.5001C7.54988 52.003 7.14693 51.6001 6.64988 51.6001C6.15282 51.6001 5.74988 52.003 5.74988 52.5001C5.74988 52.9972 6.15282 53.4001 6.64988 53.4001Z" fill="#EA1917"/>
<path d="M10.1694 53.4001C10.6665 53.4001 11.0694 52.9972 11.0694 52.5001C11.0694 52.003 10.6665 51.6001 10.1694 51.6001C9.67235 51.6001 9.26941 52.003 9.26941 52.5001C9.26941 52.9972 9.67235 53.4001 10.1694 53.4001Z" fill="#EA1917"/>
<path d="M13.6811 53.4001C14.1782 53.4001 14.5811 52.9972 14.5811 52.5001C14.5811 52.003 14.1782 51.6001 13.6811 51.6001C13.1841 51.6001 12.7811 52.003 12.7811 52.5001C12.7811 52.9972 13.1841 53.4001 13.6811 53.4001Z" fill="#EA1917"/>
<path d="M17.2007 53.4001C17.6977 53.4001 18.1007 52.9972 18.1007 52.5001C18.1007 52.003 17.6977 51.6001 17.2007 51.6001C16.7036 51.6001 16.3007 52.003 16.3007 52.5001C16.3007 52.9972 16.7036 53.4001 17.2007 53.4001Z" fill="#EA1917"/>
<path d="M59.2499 49.5H4.74988C3.64531 49.5 2.74988 50.3954 2.74988 51.5V53.5C2.74988 54.6046 3.64531 55.5 4.74988 55.5H59.2499C60.3544 55.5 61.2499 54.6046 61.2499 53.5V51.5C61.2499 50.3954 60.3544 49.5 59.2499 49.5Z" stroke="#EA1917" stroke-width="1.5" stroke-miterlimit="10"/>
<path d="M46.8003 53.4001C47.2973 53.4001 47.7003 52.9972 47.7003 52.5001C47.7003 52.003 47.2973 51.6001 46.8003 51.6001C46.3032 51.6001 45.9003 52.003 45.9003 52.5001C45.9003 52.9972 46.3032 53.4001 46.8003 53.4001Z" fill="#EA1917"/>
<path d="M50.3198 53.4001C50.8169 53.4001 51.2198 52.9972 51.2198 52.5001C51.2198 52.003 50.8169 51.6001 50.3198 51.6001C49.8227 51.6001 49.4198 52.003 49.4198 52.5001C49.4198 52.9972 49.8227 53.4001 50.3198 53.4001Z" fill="#EA1917"/>
<path d="M53.8296 53.4001C54.3266 53.4001 54.7296 52.9972 54.7296 52.5001C54.7296 52.003 54.3266 51.6001 53.8296 51.6001C53.3325 51.6001 52.9296 52.003 52.9296 52.5001C52.9296 52.9972 53.3325 53.4001 53.8296 53.4001Z" fill="#EA1917"/>
<path d="M57.351 53.4001C57.8481 53.4001 58.251 52.9972 58.251 52.5001C58.251 52.003 57.8481 51.6001 57.351 51.6001C56.854 51.6001 56.451 52.003 56.451 52.5001C56.451 52.9972 56.854 53.4001 57.351 53.4001Z" fill="#EA1917"/>
<path d="M59.2499 8.5H4.74988C3.64531 8.5 2.74988 9.39543 2.74988 10.5V42.5C2.74988 43.6046 3.64531 44.5 4.74988 44.5H59.2499C60.3544 44.5 61.2499 43.6046 61.2499 42.5V10.5C61.2499 9.39543 60.3544 8.5 59.2499 8.5Z" stroke="#EA1917" stroke-width="1.5" stroke-miterlimit="10"/>
</g>
<defs>
<clipPath id="clip0_1_21048">
<rect width="60" height="48.5" fill="white" transform="translate(1.99988 7.75)"/>
</clipPath>
</defs>
</svg>
