<svg width="60" height="60" viewBox="0 0 60 60" fill="none" xmlns="http://www.w3.org/2000/svg">
<path fill-rule="evenodd" clip-rule="evenodd" d="M16.5 8C13.4658 8 11 10.4658 11 13.5V14.75V49.25C11 50.7688 12.2312 52 13.75 52H30.15C30.5642 52 30.9 51.6642 30.9 51.25C30.9 50.8358 30.5642 50.5 30.15 50.5H13.75C13.0596 50.5 12.5 49.9404 12.5 49.25V14.75V13.5C12.5 11.2942 14.2942 9.5 16.5 9.5C18.7058 9.5 20.5 11.2942 20.5 13.5V14.75C20.5 15.1642 20.8358 15.5 21.25 15.5H45.5V27.5V32.25C45.5 32.6642 45.8358 33 46.25 33C46.6642 33 47 32.6642 47 32.25V27.5V15.5H53.75C54.1642 15.5 54.5 15.1642 54.5 14.75V13.5C54.5 10.5496 52.1685 8.1366 49.25 8.0056V8H49H16.75V8.0056C16.6671 8.00188 16.5838 8 16.5 8ZM20.2724 9.5C21.3357 10.5033 22 11.9251 22 13.5V14H53V13.5C53 11.2942 51.2058 9.5 49 9.5H20.2724ZM17 20.75C17 20.3358 17.3358 20 17.75 20H40.25C40.6642 20 41 20.3358 41 20.75C41 21.1642 40.6642 21.5 40.25 21.5H17.75C17.3358 21.5 17 21.1642 17 20.75ZM17.75 25.5C17.3358 25.5 17 25.8358 17 26.25C17 26.6642 17.3358 27 17.75 27H40.25C40.6642 27 41 26.6642 41 26.25C41 25.8358 40.6642 25.5 40.25 25.5H17.75ZM17 31.75C17 31.3358 17.3358 31 17.75 31H29.25C29.6642 31 30 31.3358 30 31.75C30 32.1642 29.6642 32.5 29.25 32.5H17.75C17.3358 32.5 17 32.1642 17 31.75ZM17.75 36.5C17.3358 36.5 17 36.8358 17 37.25C17 37.6642 17.3358 38 17.75 38H29.25C29.6642 38 30 37.6642 30 37.25C30 36.8358 29.6642 36.5 29.25 36.5H17.75Z" fill="black"/>
<path d="M41.9074 36.3834C42.5034 36.6162 43.4966 36.6162 44.0926 36.3834L45.5182 35.8362C46.1141 35.6034 46.897 35.8595 47.2476 36.395L48.0773 37.664C48.4278 38.1995 49.2224 38.7699 49.8417 38.9446L51.3141 39.3404C51.9334 39.5034 52.4125 40.1669 52.3891 40.8072L52.3073 42.3323C52.2723 42.9726 52.5761 43.9039 52.9851 44.4045L53.9433 45.5919C54.3522 46.0925 54.3522 46.9075 53.9433 47.4081L52.9851 48.5955C52.5761 49.0961 52.284 50.0274 52.3073 50.6677L52.3891 52.1928C52.4242 52.8331 51.9451 53.4966 51.3141 53.6596L49.8417 54.0554C49.2224 54.2184 48.4278 54.8005 48.0773 55.336L47.2476 56.605C46.897 57.1405 46.1141 57.3966 45.5182 57.1638L44.0926 56.6166C43.4966 56.3838 42.5034 56.3838 41.9074 56.6166L40.4818 57.1638C39.8859 57.3966 39.103 57.1405 38.7524 56.605L37.9227 55.336C37.5722 54.8005 36.7776 54.2301 36.1583 54.0554L34.6859 53.6596C34.0666 53.4966 33.5875 52.8331 33.6109 52.1928L33.6927 50.6677C33.7277 50.0274 33.4239 49.0961 33.0149 48.5955L32.0567 47.4081C31.6478 46.9075 31.6478 46.0925 32.0567 45.5919L33.0149 44.4045C33.4239 43.9039 33.716 42.9726 33.6927 42.3323L33.6109 40.8072C33.5758 40.1669 34.0549 39.5034 34.6859 39.3404L36.1583 38.9446C36.7776 38.7816 37.5722 38.1995 37.9227 37.664L38.7524 36.395C39.103 35.8595 39.8859 35.6034 40.4818 35.8362L41.9074 36.3834Z" stroke="black" stroke-width="1.5"/>
<path d="M38.25 46.5656L41.4647 49.7996L47.75 43.5996" stroke="black" stroke-width="1.5" stroke-linecap="round" stroke-linejoin="round"/>
</svg>
