<svg width="38" height="20" viewBox="0 0 38 20" fill="none" xmlns="http://www.w3.org/2000/svg">
<g clip-path="url(#clip0_7637_200790)">
<mask id="mask0_7637_200790" style="mask-type:luminance" maskUnits="userSpaceOnUse" x="1" y="0" width="37" height="20">
<path d="M1.33325 0H37.3333V20H1.33325V0Z" fill="white"/>
</mask>
<g mask="url(#mask0_7637_200790)">
<path d="M34.6633 17.3294H1.33325L3.86325 2.66943H37.3333L34.6633 17.3294Z" fill="#EDEDED"/>
<path d="M12.3925 7.729C10.8925 7.729 9.75255 8.859 9.75255 10.199C9.75255 11.419 10.6925 12.269 11.9525 12.269C13.4525 12.269 14.5825 11.109 14.5825 9.769C14.5925 8.539 13.6625 7.729 12.3825 7.729H12.3925ZM12.0525 11.129C11.4825 11.129 11.0825 10.739 11.0825 10.149C11.0825 9.489 11.5825 8.869 12.2825 8.869C12.8625 8.869 13.2625 9.269 13.2625 9.859C13.2625 10.519 12.7625 11.119 12.0625 11.119L12.0525 11.129ZM21.4025 7.729C19.9025 7.729 18.7725 8.859 18.7725 10.199C18.7725 11.419 19.7025 12.269 20.9725 12.269C22.4725 12.269 23.6025 11.109 23.6025 9.769C23.6025 8.539 22.6825 7.729 21.4025 7.729ZM21.0725 11.129C20.5025 11.129 20.1025 10.739 20.1025 10.149C20.1025 9.489 20.5925 8.869 21.3025 8.869C21.8825 8.869 22.2825 9.269 22.2825 9.859C22.2825 10.519 21.7825 11.119 21.0725 11.119V11.129ZM28.0125 9.159C28.0125 8.349 27.3925 7.829 26.2625 7.829H24.6825L23.9825 12.169H25.3125L25.5325 10.799H25.5925L26.2925 12.169H27.8325L26.8525 10.649C27.5825 10.399 28.0125 9.849 28.0125 9.159ZM25.8725 9.879H25.6725L25.8325 8.979H26.0125C26.4225 8.979 26.6425 9.099 26.6425 9.379C26.6425 9.709 26.3325 9.879 25.8725 9.879ZM8.23255 9.559C7.71255 9.299 7.60255 9.239 7.60255 9.089C7.60255 8.919 7.80255 8.829 8.08255 8.829C8.40255 8.829 8.89255 8.869 9.37255 9.329C9.49322 8.96278 9.68335 8.62325 9.93255 8.329C9.37256 7.9686 8.72769 7.76169 8.06255 7.729C6.92255 7.729 6.26255 8.359 6.26255 9.109C6.26255 9.759 6.74255 10.089 7.31255 10.389C7.81255 10.649 7.94255 10.739 7.94255 10.889C7.94255 11.079 7.73255 11.169 7.44255 11.169C6.96255 11.169 6.40255 10.859 6.06255 10.539L5.86255 11.739C6.21255 11.999 6.71255 12.269 7.47255 12.269C8.65255 12.269 9.28255 11.659 9.28255 10.879C9.28255 10.239 8.88255 9.899 8.22255 9.559H8.23255ZM18.1025 9.729H16.5425L16.6625 8.969H18.3425C18.5625 8.519 18.9025 8.129 19.3125 7.829H16.5725C16.2827 7.82014 15.9994 7.91654 15.7751 8.10037C15.5509 8.28421 15.4007 8.54304 15.3525 8.829L14.8225 12.179H16.1525L16.3725 10.809H17.9525L18.0725 10.069L18.1025 9.729ZM28.0325 7.829C28.4025 8.109 28.6225 8.499 28.6725 8.969H29.7825L29.2725 12.169H30.6025L31.1125 8.969H32.3525L32.5325 7.829H28.0325Z" fill="#393A41"/>
</g>
</g>
<defs>
<clipPath id="clip0_7637_200790">
<rect width="37.5" height="20" fill="white" transform="translate(0.5)"/>
</clipPath>
</defs>
</svg>
