<svg width="14" height="14" viewBox="0 0 14 14" fill="none" xmlns="http://www.w3.org/2000/svg">
<path d="M12.4822 3.54721C12.2226 3.54721 11.9867 3.61337 11.7743 3.72915L7.83424 1.09924C7.63763 0.966919 7.39383 0.966919 7.19722 1.09924L2.18754 4.44866C2.01452 4.56444 1.91228 4.76292 1.91228 4.97795V9.94004C1.36963 10.1881 1 10.7505 1 11.4039C1 12.2888 1.68421 13 2.51785 13C3.35148 13 4.04356 12.2888 4.04356 11.4039C4.04356 10.734 3.6582 10.1716 3.10768 9.93177V5.31702L7.51966 2.36458L11.0194 4.7133C10.98 4.85389 10.9643 4.99449 10.9643 5.15162C10.9643 5.82977 11.3654 6.40868 11.9316 6.64025V11.6106H6.5366V8.06272H8.48699V10.8167C8.48699 10.8746 8.53418 10.9242 8.58923 10.9242H9.57229C9.62734 10.9242 9.67453 10.8746 9.67453 10.8167V7.43418C9.67453 7.08684 9.40714 6.80565 9.07683 6.80565H5.9389C5.60859 6.80565 5.34906 7.08684 5.34906 7.43418V12.2391C5.34906 12.5865 5.61645 12.8677 5.9389 12.8677H12.5293C12.8518 12.8677 13.1192 12.5865 13.1192 12.2391V6.60717C13.6382 6.35079 14 5.79669 14 5.15989C14 4.27498 13.3158 3.56375 12.4822 3.56375V3.54721ZM2.51785 12.0076C2.20327 12.0076 1.9516 11.7429 1.9516 11.4121C1.9516 11.0813 2.20327 10.8084 2.51785 10.8084C2.83243 10.8084 3.09195 11.0813 3.09195 11.4121C3.09195 11.7429 2.84029 12.0076 2.51785 12.0076ZM12.4743 5.74707C12.1597 5.74707 11.9002 5.48243 11.9002 5.15162C11.9002 4.82081 12.1597 4.5479 12.4743 4.5479C12.7889 4.5479 13.0405 4.82081 13.0405 5.15162C13.0405 5.48243 12.7889 5.74707 12.4743 5.74707Z" fill="white"/>
</svg>
