<svg width="48" height="48" viewBox="0 0 48 48" fill="none" xmlns="http://www.w3.org/2000/svg">
<path fill-rule="evenodd" clip-rule="evenodd" d="M45.5 10.5H5.5V9H45.5H47V10.5V34H45.5V10.5ZM41.7493 14.5011H4.25V35.8007H41.7493V14.5011ZM4.25 13.0011H2.75V14.5011V35.8007V37.3007H4.25H41.7493H43.2493V35.8007V14.5011V13.0011H41.7493H4.25Z" fill="black"/>
<path d="M22.3234 32.2C21.3234 32.2 20.43 32.04 19.6434 31.72C18.87 31.4 18.2634 30.9467 17.8234 30.36L18.8434 29.42C19.23 29.8867 19.7234 30.2533 20.3234 30.52C20.9234 30.7867 21.6034 30.92 22.3634 30.92C22.91 30.92 23.39 30.8533 23.8034 30.72C24.23 30.5733 24.5834 30.3733 24.8634 30.12C25.1567 29.8667 25.3767 29.58 25.5234 29.26C25.67 28.9267 25.7434 28.5667 25.7434 28.18C25.7434 27.3933 25.4434 26.7733 24.8434 26.32C24.2567 25.8533 23.4034 25.62 22.2834 25.62H20.9234V24.36H22.2834C22.7634 24.36 23.19 24.3 23.5634 24.18C23.9367 24.06 24.2567 23.8933 24.5234 23.68C24.79 23.4667 24.99 23.22 25.1234 22.94C25.27 22.66 25.3434 22.36 25.3434 22.04C25.3434 21.72 25.2767 21.4133 25.1434 21.12C25.01 20.8267 24.8167 20.5733 24.5634 20.36C24.3234 20.1467 24.0234 19.98 23.6634 19.86C23.3167 19.7267 22.9167 19.66 22.4634 19.66C21.8234 19.66 21.25 19.78 20.7434 20.02C20.2367 20.26 19.79 20.5933 19.4034 21.02L18.4034 20.04C18.87 19.5067 19.45 19.0933 20.1434 18.8C20.85 18.5067 21.6234 18.36 22.4634 18.36C23.85 18.36 24.93 18.6667 25.7034 19.28C26.49 19.8933 26.8834 20.7267 26.8834 21.78C26.8834 22.1267 26.8234 22.4667 26.7034 22.8C26.5834 23.1333 26.4167 23.44 26.2034 23.72C26.0034 24 25.77 24.2467 25.5034 24.46C25.2367 24.66 24.9634 24.8 24.6834 24.88C25.0434 24.9867 25.3767 25.1467 25.6834 25.36C26.0034 25.56 26.2767 25.8067 26.5034 26.1C26.7434 26.38 26.93 26.7 27.0634 27.06C27.21 27.4067 27.2834 27.78 27.2834 28.18C27.2834 28.7667 27.1767 29.3067 26.9634 29.8C26.75 30.2933 26.43 30.72 26.0034 31.08C25.59 31.4267 25.0767 31.7 24.4634 31.9C23.85 32.1 23.1367 32.2 22.3234 32.2Z" fill="black"/>
</svg>
