<svg width="16" height="16" viewBox="0 0 16 16" fill="none" xmlns="http://www.w3.org/2000/svg">
<path fill-rule="evenodd" clip-rule="evenodd" d="M9.33043 2.00031C9.64044 1.99425 10.091 2.07682 10.479 2.35811C10.7344 2.54329 10.9458 2.80297 11.0712 3.14215H11.5886C13.4065 3.14215 14.7459 4.80809 14.7459 6.70646V7.20646H14.7458V11.7622V12.2622L14.2458 12.2622L13.3778 12.2622C13.1683 13.044 12.4549 13.6196 11.607 13.6196C10.7679 13.6196 10.0605 13.0559 9.84289 12.2865H5.67354C5.4559 13.0559 4.74849 13.6196 3.90942 13.6196C2.897 13.6196 2.07628 12.7989 2.07628 11.7865C2.07628 11.5945 2.10579 11.4094 2.16051 11.2356C1.50303 10.6221 1.07155 9.77025 1.07155 8.79131V5.2809V4.7809H1.57155H5.12192V5.7809H2.07155V8.79131C2.07155 9.40404 2.31627 9.95607 2.72479 10.3875C3.04429 10.1167 3.45778 9.95333 3.90942 9.95333C4.7485 9.95333 5.4559 10.5171 5.67354 11.2865H9.84289C10.0605 10.5171 10.7679 9.95333 11.607 9.95333C12.4372 9.95333 13.1386 10.5052 13.3641 11.2622L13.7458 11.2622V6.91233H13.7459V6.70646C13.7459 5.21959 12.7232 4.14215 11.5886 4.14215H11.1954V7.05293H12.9299V8.05293H10.6954H10.1954V7.55293V3.88173H10.1954C10.1954 3.47166 10.0417 3.27621 9.89205 3.16774C9.71628 3.04032 9.49061 2.99678 9.3476 3.00017L9.3476 3.00031H9.33578H1.00388V2.00031H9.33043ZM3.90942 12.6196C4.36955 12.6196 4.74256 12.2466 4.74256 11.7865C4.74256 11.3263 4.36955 10.9533 3.90942 10.9533C3.44929 10.9533 3.07628 11.3263 3.07628 11.7865C3.07628 12.2466 3.44929 12.6196 3.90942 12.6196ZM6.30858 4.43978L1 4.43978V3.43978L6.30858 3.43978V4.43978ZM12.4402 11.7865C12.4402 12.2466 12.0671 12.6196 11.607 12.6196C11.1469 12.6196 10.7739 12.2466 10.7739 11.7865C10.7739 11.3263 11.1469 10.9533 11.607 10.9533C12.0671 10.9533 12.4402 11.3263 12.4402 11.7865Z" fill="#1D1D1B"/>
</svg>
