<svg width="65" height="64" viewBox="0 0 65 64" fill="none" xmlns="http://www.w3.org/2000/svg">
<path fill-rule="evenodd" clip-rule="evenodd" d="M8.49902 26.6423H10.9155V37.156H8.49902V26.6423ZM14.583 26.6423H16.9465C16.9465 28.921 16.0562 31.0407 14.477 32.6092L17.8155 37.156H14.8374L11.2127 32.2171L12.1454 31.5176C13.6927 30.3518 14.583 28.5818 14.583 26.6423ZM20.7918 26.6423H18.5132V37.156H20.7918V26.6423ZM38.534 30.7013C39.0851 29.9489 39.9118 29.6839 40.7809 29.6839C42.5296 29.6839 43.8756 30.8391 43.8756 32.5349V37.1664H41.7029V33.3298C41.7029 32.2699 41.1518 31.6976 40.1979 31.6976C39.3077 31.6976 38.5658 32.2381 38.5658 33.3404V37.1558H36.3719V29.8853H38.534V30.7013ZM27.679 29.8853V30.3516C27.0643 29.9277 26.3224 29.6839 25.5169 29.6839C23.3973 29.6839 21.6803 31.4008 21.6803 33.5205C21.6803 35.6402 23.3973 37.3572 25.5169 37.3572C26.3224 37.3572 27.0643 37.1134 27.679 36.6895V37.1558H29.8517V29.8853H27.679ZM25.6971 35.3858C24.6055 35.3858 23.7258 34.5486 23.7258 33.5205C23.7258 32.4925 24.6055 31.6552 25.6971 31.6552C26.7887 31.6552 27.6684 32.4925 27.6684 33.5205C27.6684 34.5486 26.7887 35.3858 25.6971 35.3858ZM33.226 29.8862V30.8295C33.6605 30.2677 34.4766 29.8862 35.3563 29.8862V32.0059H35.3351C34.4766 32.0059 33.2366 32.6206 33.2366 33.7652V37.1567H31.0003V29.8862H33.226ZM50.6373 29.8853V30.3516C50.0225 29.9277 49.2807 29.6839 48.4752 29.6839C46.3555 29.6839 44.6386 31.4008 44.6386 33.5205C44.6386 35.6402 46.3555 37.3572 48.4752 37.3572C49.2807 37.3572 50.0225 37.1134 50.6373 36.6895V37.1558H52.8099V29.8853H50.6373ZM48.6553 35.3858C47.5637 35.3858 46.684 34.5486 46.684 33.5205C46.684 32.4925 47.5637 31.6552 48.6553 31.6552C49.747 31.6552 50.6267 32.4925 50.6267 33.5205C50.6373 34.5486 49.747 35.3858 48.6553 35.3858ZM54.3036 29.9221C54.4201 29.9221 54.4943 29.9857 54.4943 30.0917C54.4943 30.1659 54.4625 30.2189 54.3989 30.2507L54.4943 30.4733H54.3883L54.3036 30.2719H54.1976V30.4733H54.1022V29.9221H54.3036ZM54.1976 30.1765H54.3036C54.3777 30.1765 54.3989 30.1447 54.3989 30.0917C54.3989 30.0387 54.3671 30.0069 54.3036 30.0069H54.1976V30.1765ZM54.2727 29.6919C53.9865 29.6919 53.7534 29.9251 53.7534 30.2112C53.764 30.4974 53.9865 30.7306 54.2727 30.7306C54.5588 30.7306 54.792 30.4974 54.792 30.2112C54.792 29.9251 54.5588 29.6919 54.2727 29.6919ZM54.2727 30.6352C54.0395 30.6352 53.8594 30.4444 53.8594 30.2112C53.8594 29.9781 54.0501 29.7873 54.2727 29.7873C54.5059 29.7873 54.686 29.9781 54.686 30.2112C54.686 30.4444 54.4953 30.6352 54.2727 30.6352ZM53.7667 35.95C53.7667 35.1976 54.3815 34.5828 55.1339 34.5828C55.8864 34.5828 56.5011 35.187 56.5011 35.95C56.5011 36.7025 55.8864 37.3172 55.1339 37.3172C54.3815 37.3172 53.7667 36.7025 53.7667 35.95Z" fill="black"/>
<rect x="3.25" y="18.75" width="58.5" height="26.5" rx="1.25" stroke="black" stroke-width="1.5"/>
</svg>
