<svg width="24" height="24" viewBox="0 0 24 24" fill="none" xmlns="http://www.w3.org/2000/svg">
<path fill-rule="evenodd" clip-rule="evenodd" d="M13.999 12.0003C13.999 11.2313 13.9663 10.4883 13.9054 9.78515L13.0149 11.0261C12.8217 11.2953 12.4469 11.3569 12.1776 11.1637C11.9084 10.9706 11.8468 10.5957 12.04 10.3265L13.8339 7.82646C13.9333 7.68793 14.087 7.59823 14.2565 7.57979C14.426 7.56135 14.5954 7.6159 14.7223 7.72983L16.8212 9.61444C17.0678 9.83583 17.0882 10.2152 16.8668 10.4617C16.6454 10.7083 16.266 10.7287 16.0195 10.5073L15.101 9.68264C15.1649 10.4214 15.199 11.1987 15.199 12.0003C15.199 12.6186 15.1787 13.2232 15.14 13.8075C16.1354 13.6797 17.0245 13.4935 17.7611 13.2655C18.4888 13.0403 19.0341 12.7844 19.3842 12.5281C19.747 12.2627 19.7986 12.077 19.7986 12.0004C19.7986 11.9345 19.7631 11.7887 19.5109 11.5726C19.2616 11.3589 18.8634 11.1348 18.3117 10.9242C18.0021 10.8061 17.8469 10.4594 17.965 10.1498C18.0831 9.84017 18.4298 9.68495 18.7394 9.80308C19.359 10.0394 19.8974 10.3235 20.2917 10.6614C20.6833 10.9969 20.9986 11.446 20.9986 12.0004C20.9986 12.6417 20.5802 13.1399 20.0929 13.4965C19.593 13.8623 18.9082 14.1666 18.1159 14.4119C17.2393 14.6832 16.1897 14.8948 15.0288 15.0301C14.8935 16.1908 14.682 17.2404 14.4107 18.1169C14.1654 18.9092 13.8611 19.594 13.4953 20.0939C13.1387 20.5812 12.6405 20.9996 11.9992 20.9996C11.3222 20.9996 10.805 20.535 10.4406 20.006C10.0639 19.4591 9.75221 18.7088 9.50554 17.8399C9.41504 17.5212 9.6001 17.1894 9.91887 17.0989C10.2376 17.0084 10.5694 17.1934 10.6599 17.5122C10.8885 18.3174 11.1558 18.9289 11.4288 19.3252C11.7142 19.7395 11.9175 19.7996 11.9992 19.7996C12.0758 19.7996 12.2614 19.748 12.5269 19.3852C12.7832 19.035 13.0391 18.4898 13.2643 17.7621C13.4923 17.0255 13.6784 16.1365 13.8063 15.1412C13.2221 15.1799 12.6176 15.2002 11.9993 15.2002C11.668 15.2002 11.3993 14.9315 11.3993 14.6002C11.3993 14.2688 11.668 14.0002 11.9993 14.0002C12.6658 14.0002 13.3117 13.9756 13.9284 13.9296C13.9744 13.3129 13.999 12.6669 13.999 12.0003ZM13.8789 6.13282C13.5679 6.24725 13.2231 6.08791 13.1086 5.77693C12.8949 5.19617 12.6649 4.77417 12.4437 4.5086C12.2191 4.23887 12.0668 4.20098 11.9992 4.20098C11.9285 4.20098 11.7645 4.24333 11.5251 4.54485C11.2911 4.83955 11.0514 5.30424 10.8328 5.9364C10.5603 6.72469 10.3382 7.72157 10.192 8.85957C10.5067 8.83871 10.8272 8.82321 11.1525 8.81335C11.4837 8.80331 11.7604 9.06368 11.7704 9.3949C11.7804 9.72612 11.5201 10.0028 11.1888 10.0128C10.8067 10.0244 10.4331 10.044 10.0699 10.0711C10.0466 10.3834 10.0288 10.7034 10.0169 11.0299C10.0049 11.3611 9.72663 11.6198 9.39548 11.6077C9.06433 11.5956 8.80565 11.3174 8.81772 10.9863C8.82747 10.7184 8.84107 10.4538 8.85834 10.1933C7.74433 10.3364 6.76519 10.5523 5.98447 10.8172C5.33664 11.0371 4.85885 11.2797 4.55516 11.5174C4.24378 11.7612 4.2 11.9287 4.2 12.0004C4.2 12.1015 4.29798 12.3682 4.90709 12.7162C5.47373 13.0399 6.32514 13.3369 7.40199 13.5638L8.01147 13.6706L7.18409 12.7491C6.9627 12.5025 6.98311 12.1232 7.22967 11.9018C7.47624 11.6804 7.85559 11.7008 8.07698 11.9474L9.96159 14.0463C10.0755 14.1732 10.1301 14.3425 10.1116 14.5121C10.0988 14.6297 10.0517 14.7397 9.97776 14.8293C9.91514 14.9174 9.82958 14.9872 9.7307 15.031L7.36495 16.7286C7.09573 16.9218 6.72086 16.8602 6.52767 16.5909C6.33448 16.3217 6.39612 15.9468 6.66534 15.7537L7.89818 14.869L7.18493 14.7441C7.17829 14.7429 7.17168 14.7416 7.16508 14.7403C6.02062 14.4998 5.03125 14.1691 4.31188 13.7581C3.63326 13.3705 3 12.7947 3 12.0004C3 11.3974 3.37132 10.9203 3.8154 10.5726C4.26717 10.2189 4.8852 9.92308 5.59881 9.68089C6.53062 9.36464 7.6827 9.12073 8.96946 8.97071C9.12241 7.65867 9.37303 6.48616 9.69868 5.54428C9.94009 4.84606 10.2341 4.24107 10.5853 3.79868C10.9311 3.36311 11.4039 3.00098 11.9992 3.00098C12.5685 3.00098 13.0265 3.33316 13.3658 3.74065C13.7087 4.1523 13.9964 4.71468 14.2348 5.36254C14.3492 5.67352 14.1899 6.01839 13.8789 6.13282Z" fill="black"/>
</svg>
