<svg width="12" height="12" viewBox="0 0 12 12" fill="none" xmlns="http://www.w3.org/2000/svg">
<path fill-rule="evenodd" clip-rule="evenodd" d="M6.48479 4.40889C5.81414 4.40889 5.28213 3.87761 5.28213 3.20444C5.28213 2.53127 5.81414 2 6.48479 2C7.15543 2 7.68744 2.53127 7.68744 3.20444C7.68744 3.87761 7.15543 4.40889 6.48479 4.40889ZM6.48479 5.40889C5.26109 5.40889 4.28213 4.42913 4.28213 3.20444C4.28213 1.97975 5.26109 1 6.48479 1C7.70848 1 8.68744 1.97975 8.68744 3.20444C8.68744 4.42913 7.70848 5.40889 6.48479 5.40889ZM2.09951 5.7901H2.59951H10.3638H10.8638V6.2901V10.2828V10.7828H9.86381V10.2828V6.7901H7.54501L7.92078 9.24515L7.96134 9.51018L7.76303 9.69062L6.82022 10.5485L6.48373 10.8546L6.14723 10.5485L5.20442 9.69062L5.00611 9.51018L5.04667 9.24515L5.42244 6.7901H3.09951V10.2828V10.7828H2.09951V10.2828V6.2901V5.7901ZM6.53337 6.7901H6.43408L6.07573 9.13141L6.48372 9.50264L6.89172 9.13141L6.53337 6.7901Z" fill="black"/>
</svg>
