<svg width="65" height="64" viewBox="0 0 65 64" fill="none" xmlns="http://www.w3.org/2000/svg">
<path fill-rule="evenodd" clip-rule="evenodd" d="M29.1073 3.75C29.1073 2.7835 29.8908 2 30.8573 2H34.8573C35.8238 2 36.6073 2.7835 36.6073 3.75V5.92903H37.3999C40.0233 5.92903 42.1499 8.05568 42.1499 10.679V28.188C43.5098 28.3491 44.6074 29.4997 44.6074 30.9426V36.0155C44.6074 37.3917 43.5883 38.5646 42.2073 38.7246L42.1499 38.7313V52.6792C42.1499 54.4089 41.2073 56.112 39.4959 56.777C38.6526 57.1047 37.8216 57.3615 37.0078 57.5568V59.2499C37.0078 60.7687 35.7766 61.9999 34.2578 61.9999H31.4578C29.939 61.9999 28.7078 60.7687 28.7078 59.2499V57.633C27.659 57.3987 26.7199 57.0898 25.9168 56.7553C24.3386 56.098 23.5664 54.4977 23.5664 52.9404V38.7314L23.5076 38.7246C22.1266 38.5646 21.1074 37.3917 21.1074 36.0155V30.9426C21.1074 29.4992 22.2058 28.3482 23.5664 28.1878V10.679C23.5664 8.05568 25.6931 5.92903 28.3164 5.92903H29.1073V3.75ZM30.2078 57.9021V59.2499C30.2078 59.9403 30.7675 60.4999 31.4578 60.4999H34.2578C34.9482 60.4999 35.5078 59.9403 35.5078 59.2499V57.8527C33.5976 58.1487 31.8071 58.1204 30.2078 57.9021ZM35.1073 3.75V5.92903H30.6073V3.75C30.6073 3.61193 30.7192 3.5 30.8573 3.5H34.8573C34.9954 3.5 35.1073 3.61193 35.1073 3.75ZM25.0664 28.2803C27.3707 28.5251 30.4891 28.8 32.8574 28.8C35.2263 28.8 38.3455 28.5249 40.6499 28.2801V10.679C40.6499 8.88411 39.1948 7.42903 37.3999 7.42903H28.3164C26.5215 7.42903 25.0664 8.88411 25.0664 10.679V28.2803ZM25.0664 38.897V52.9404C25.0664 54.0516 25.6082 55.0019 26.4934 55.3706C29.261 56.5231 33.8567 57.3592 38.9526 55.3789C39.9913 54.9753 40.6499 53.8999 40.6499 52.6792V38.8968C38.3431 39.1394 35.2488 39.4083 32.8574 39.4083C30.4665 39.4083 27.3731 39.1395 25.0664 38.897ZM22.6074 30.9426C22.6074 30.1879 23.2748 29.5912 24.0399 29.677C26.3762 29.9393 30.0873 30.3 32.8574 30.3C35.6276 30.3 39.3386 29.9393 41.675 29.677C42.44 29.5912 43.1074 30.1879 43.1074 30.9426V36.0155C43.1074 36.6442 42.6451 37.1638 42.0346 37.2346C39.7581 37.4984 35.7498 37.9083 32.8574 37.9083C29.9651 37.9083 25.9567 37.4984 23.6803 37.2346C23.0697 37.1638 22.6074 36.6442 22.6074 36.0155V30.9426Z" fill="black"/>
</svg>
