<svg width="32" height="33" viewBox="0 0 32 33" fill="none" xmlns="http://www.w3.org/2000/svg">
<g clip-path="url(#clip0_431_10077)">
<path fill-rule="evenodd" clip-rule="evenodd" d="M16 0.638672C7.13143 0.638672 0 7.7701 0 16.6387C0 25.5072 7.13143 32.6387 16 32.6387C24.8686 32.6387 32 25.5072 32 16.6387C32 7.7701 24.8686 0.638672 16 0.638672ZM18.0114 20.5701L14.9943 23.4958C13.3486 25.1415 10.6971 25.1415 9.05143 23.4958C7.40571 21.8501 7.40571 19.1987 9.05143 17.553L10.4229 16.1815C10.6057 15.9987 10.88 15.9072 11.1543 15.9072C11.4286 15.9072 11.7029 15.9987 11.8857 16.1815C12.2514 16.5472 12.2514 17.1872 11.8857 17.553L10.5143 18.9244C10.1486 19.2901 9.87429 19.9301 9.87429 20.4787C9.87429 21.6672 10.88 22.673 12.0686 22.673C12.6171 22.673 13.1657 22.4901 13.6229 22.033L16.5486 19.1072C17.0057 18.7415 17.1886 18.1015 17.1886 17.553C17.1886 16.8215 16.8229 16.0901 16.1829 15.7244C16 15.5415 15.8171 15.3587 15.7257 15.0844C15.6343 14.8101 15.7257 14.5358 15.8171 14.353C16 14.1701 16.1829 13.9872 16.4571 13.8958C16.7314 13.8044 17.0057 13.8958 17.1886 13.9872C17.4629 14.1701 17.6457 14.353 17.8286 14.5358C19.5657 16.273 19.5657 18.9244 18.0114 20.5701ZM22.8571 15.633L21.4857 17.0958C21.3029 17.2787 21.0286 17.3701 20.7543 17.3701C20.48 17.3701 20.2057 17.2787 20.0229 17.0958C19.6571 16.7301 19.6571 16.0901 20.0229 15.7244L21.3943 14.353C21.76 13.9872 22.0343 13.3472 22.0343 12.7987C22.0343 11.6101 21.0286 10.6044 19.84 10.6044C19.2914 10.6044 18.7429 10.7872 18.2857 11.2444L15.36 14.1701C14.9029 14.5358 14.72 15.1758 14.72 15.7244C14.72 16.4558 15.0857 17.1872 15.7257 17.553C15.9086 17.7358 16.0914 17.9187 16.1829 18.193C16.2743 18.4672 16.1829 18.7415 16.0914 18.9244C15.8171 19.3815 15.1771 19.473 14.72 19.1987C14.4457 19.0158 14.2629 18.833 13.9886 18.6501C12.3429 17.0044 12.3429 14.353 13.9886 12.7072L16.9143 9.78153C17.7371 8.95867 18.7429 8.59296 19.84 8.59296C20.9371 8.59296 22.0343 9.0501 22.7657 9.78153C24.5029 11.4272 24.5029 14.0787 22.8571 15.633Z" fill="#646464"/>
</g>
<defs>
<clipPath id="clip0_431_10077">
<rect width="32" height="32" fill="white" transform="translate(0 0.638672)"/>
</clipPath>
</defs>
</svg>
