<svg width="65" height="64" viewBox="0 0 65 64" fill="none" xmlns="http://www.w3.org/2000/svg">
<path fill-rule="evenodd" clip-rule="evenodd" d="M62.8594 11.75C62.8594 10.2312 61.6282 9 60.1094 9L5.60938 9C4.09059 9 2.85937 10.2312 2.85937 11.75L2.85938 52.25C2.85938 53.7688 4.09059 55 5.60938 55L60.1094 55C61.6282 55 62.8594 53.7688 62.8594 52.25L62.8594 11.75ZM60.1094 10.5C60.7997 10.5 61.3594 11.0596 61.3594 11.75L61.3594 23.25L43.6094 23.25L43.6094 10.5L60.1094 10.5ZM42.1094 10.5L23.6094 10.5L23.6094 23.25L42.1094 23.25L42.1094 10.5ZM22.1094 10.5L5.60937 10.5C4.91902 10.5 4.35937 11.0596 4.35937 11.75L4.35937 23.25L22.1094 23.25L22.1094 10.5ZM4.35937 24.75L4.35938 39.25L22.1094 39.25L22.1094 24.75L4.35937 24.75ZM4.35938 40.75L4.35938 52.25C4.35938 52.9404 4.91902 53.5 5.60938 53.5L22.1094 53.5L22.1094 40.75L4.35938 40.75ZM23.6094 53.5L42.1094 53.5L42.1094 40.75L23.6094 40.75L23.6094 53.5ZM43.6094 53.5L60.1094 53.5C60.7997 53.5 61.3594 52.9404 61.3594 52.25L61.3594 40.75L43.6094 40.75L43.6094 53.5ZM61.3594 39.25L61.3594 24.75L43.6094 24.75L43.6094 39.25L61.3594 39.25ZM42.1094 24.75L42.1094 39.25L23.6094 39.25L23.6094 24.75L42.1094 24.75Z" fill="black"/>
</svg>
