<svg width="64" height="64" viewBox="0 0 64 64" fill="none" xmlns="http://www.w3.org/2000/svg">
<g clip-path="url(#clip0_734_106706)">
<path d="M52.4 13.3398H11.6C10.5783 13.3398 9.75 14.1681 9.75 15.1898V40.7498C9.75 41.7716 10.5783 42.5998 11.6 42.5998H52.4C53.4217 42.5998 54.25 41.7716 54.25 40.7498V15.1898C54.25 14.1681 53.4217 13.3398 52.4 13.3398Z" stroke="black" stroke-width="1.5" stroke-linecap="round"/>
<path d="M60.1794 48.7852L55.1294 44.1518C54.3094 43.506 53.8094 43.1209 53.8094 43.1209C52.8394 42.5771 52.0194 42.5997 50.9394 42.5997H13.0794C11.9994 42.5997 10.6494 42.7017 8.95937 44.1291L3.85938 48.7852" stroke="black" stroke-width="1.5" stroke-linecap="round" stroke-linejoin="round"/>
<path d="M4.49219 48.625H59.7212" stroke="black" stroke-width="1.5"/>
<path d="M24.9733 25.3634V30.9914C24.9733 31.4714 24.9013 31.8754 24.7573 32.2034C24.6133 32.5394 24.4133 32.8114 24.1573 33.0194C23.9093 33.2274 23.6093 33.3754 23.2573 33.4634C22.9133 33.5594 22.5373 33.6074 22.1293 33.6074C21.7373 33.6074 21.3813 33.5754 21.0613 33.5114C20.7413 33.4474 20.4613 33.3674 20.2213 33.2714L20.6293 32.2274C20.7733 32.2754 20.9653 32.3234 21.2053 32.3714C21.4533 32.4274 21.7333 32.4554 22.0453 32.4554C22.4613 32.4554 22.7933 32.3674 23.0413 32.1914C23.2893 32.0154 23.4133 31.7074 23.4133 31.2674V30.7994C23.2373 30.8554 23.0453 30.8994 22.8373 30.9314C22.6373 30.9714 22.4293 30.9914 22.2133 30.9914C21.3573 30.9914 20.7373 30.7554 20.3533 30.2834C19.9693 29.8114 19.7773 29.1554 19.7773 28.3154C19.7773 27.8594 19.8213 27.4434 19.9093 27.0674C19.9973 26.6914 20.1453 26.3674 20.3533 26.0954C20.5613 25.8234 20.8373 25.6114 21.1813 25.4594C21.5333 25.3074 21.9693 25.2314 22.4893 25.2314C22.7373 25.2314 22.9613 25.2634 23.1613 25.3274C23.3693 25.3834 23.5533 25.4474 23.7133 25.5194L23.7613 25.3634H24.9733ZM23.4133 26.3954C23.2133 26.3394 23.0013 26.3114 22.7773 26.3114C22.2733 26.3114 21.9133 26.4594 21.6973 26.7554C21.4813 27.0514 21.3733 27.5394 21.3733 28.2194C21.3733 28.7234 21.4733 29.1354 21.6733 29.4554C21.8733 29.7674 22.2213 29.9234 22.7173 29.9234C22.8213 29.9234 22.9293 29.9194 23.0413 29.9114C23.1613 29.9034 23.2853 29.8754 23.4133 29.8274V26.3954ZM27.452 25.3634L27.536 25.9514C27.664 25.7834 27.816 25.6474 27.992 25.5434C28.344 25.3354 28.716 25.2314 29.108 25.2314C29.316 25.2314 29.496 25.2514 29.648 25.2914C29.808 25.3314 29.94 25.3714 30.044 25.4114L29.684 26.6354C29.484 26.5234 29.248 26.4674 28.976 26.4674C28.68 26.4674 28.4 26.5394 28.136 26.6834C28 26.7554 27.868 26.8594 27.74 26.9954V30.8594H26.18V26.9234L26.012 25.3634H27.452ZM35.4839 30.8594C35.3479 30.8914 35.1559 30.9074 34.9079 30.9074C34.2999 30.9074 33.8799 30.7234 33.6479 30.3554C33.4479 30.5474 33.1919 30.7034 32.8799 30.8234C32.5759 30.9354 32.2879 30.9914 32.0159 30.9914C31.6159 30.9914 31.2919 30.9434 31.0439 30.8474C30.7959 30.7514 30.6039 30.6234 30.4679 30.4634C30.3319 30.2954 30.2399 30.1074 30.1919 29.8994C30.1519 29.6914 30.1319 29.4754 30.1319 29.2514C30.1319 28.8914 30.1879 28.5954 30.2999 28.3634C30.4199 28.1314 30.5879 27.9514 30.8039 27.8234C31.0199 27.6874 31.2799 27.5954 31.5839 27.5474C31.8879 27.4914 32.2279 27.4634 32.6039 27.4634C32.7239 27.4634 32.8559 27.4674 32.9999 27.4754C33.1519 27.4754 33.2839 27.4794 33.3959 27.4874V27.2354C33.3959 26.9394 33.3119 26.7154 33.1439 26.5634C32.9839 26.4034 32.7119 26.3234 32.3279 26.3234C32.0159 26.3234 31.7159 26.3634 31.4279 26.4434C31.1479 26.5154 30.8919 26.6154 30.6599 26.7434L30.3479 25.7954C30.6439 25.6354 31.0039 25.5034 31.4279 25.3994C31.8519 25.2874 32.2839 25.2314 32.7239 25.2314C33.1559 25.2314 33.5119 25.2714 33.7919 25.3514C34.0799 25.4234 34.3119 25.5514 34.4879 25.7354C34.6639 25.9114 34.7879 26.1474 34.8599 26.4434C34.9319 26.7394 34.9679 27.1074 34.9679 27.5474V29.2394C34.9679 29.4634 35.0119 29.6154 35.0999 29.6954C35.1879 29.7754 35.3159 29.8154 35.4839 29.8154V30.8594ZM32.6159 28.4834C32.2799 28.4834 32.0479 28.5474 31.9199 28.6754C31.7999 28.7954 31.7399 28.9674 31.7399 29.1914C31.7399 29.4314 31.7839 29.6154 31.8719 29.7434C31.9679 29.8714 32.1439 29.9354 32.3999 29.9354C32.5359 29.9354 32.6999 29.9074 32.8919 29.8514C33.0839 29.7954 33.2519 29.6994 33.3959 29.5634V28.5194C33.2599 28.5034 33.1239 28.4954 32.9879 28.4954C32.8599 28.4874 32.7359 28.4834 32.6159 28.4834ZM37.5287 25.3634L37.5527 25.7354C37.6967 25.6234 37.8687 25.5274 38.0687 25.4474C38.4287 25.3034 38.7927 25.2314 39.1607 25.2314C39.5127 25.2314 39.8047 25.2794 40.0367 25.3754C40.2527 25.4634 40.4167 25.5754 40.5287 25.7114C40.6167 25.6554 40.7047 25.6074 40.7927 25.5674C40.8887 25.5274 40.9807 25.4874 41.0687 25.4474C41.2687 25.3754 41.4727 25.3234 41.6807 25.2914C41.8887 25.2514 42.0847 25.2314 42.2687 25.2314C42.6207 25.2314 42.9127 25.2754 43.1447 25.3634C43.3767 25.4514 43.5567 25.5794 43.6847 25.7474C43.8207 25.9154 43.9127 26.1194 43.9607 26.3594C44.0167 26.5914 44.0447 26.8554 44.0447 27.1514V30.8594H42.5087V27.4874C42.5087 27.3514 42.5047 27.2194 42.4967 27.0914C42.4887 26.9634 42.4607 26.8514 42.4127 26.7554C42.3727 26.6594 42.3047 26.5834 42.2087 26.5274C42.1127 26.4714 41.9807 26.4434 41.8127 26.4434C41.5727 26.4434 41.3567 26.4754 41.1647 26.5394L40.8647 26.6834C40.8727 26.7634 40.8767 26.8434 40.8767 26.9234C40.8847 26.9954 40.8887 27.0714 40.8887 27.1514V30.8594H39.3407V27.4874C39.3407 27.3514 39.3367 27.2194 39.3287 27.0914C39.3207 26.9634 39.2967 26.8514 39.2567 26.7554C39.2167 26.6594 39.1487 26.5834 39.0527 26.5274C38.9567 26.4714 38.8247 26.4434 38.6567 26.4434C38.4167 26.4434 38.2007 26.4754 38.0087 26.5394L37.7327 26.6834V30.8594H36.1847V26.8394L36.0767 25.3634H37.5287Z" fill="black"/>
</g>
<defs>
<clipPath id="clip0_734_106706">
<rect width="58.5" height="38.83" fill="white" transform="translate(2.75 12.5898)"/>
</clipPath>
</defs>
</svg>
