<svg width="18" height="19" viewBox="0 0 18 19" fill="none" xmlns="http://www.w3.org/2000/svg">
<path fill-rule="evenodd" clip-rule="evenodd" d="M2.19995 5.17578C2.19995 4.34735 2.87152 3.67578 3.69995 3.67578H13.8898C14.7182 3.67578 15.3898 4.34735 15.3898 5.17578V8.77759H14.3898V5.17578C14.3898 4.89964 14.1659 4.67578 13.8898 4.67578H11.0854V8.32201V8.82201H10.5854H7.50757H7.00757V8.32201V4.67578H3.69995C3.42381 4.67578 3.19995 4.89964 3.19995 5.17578V13.3777C3.19995 13.6538 3.42381 13.8777 3.69995 13.8777H9.28149V14.8777H3.69995C2.87152 14.8777 2.19995 14.2061 2.19995 13.3777V5.17578ZM8.00757 4.67578V7.82201H10.0854V4.67578H8.00757ZM12.6526 14.2458C13.8125 14.2458 14.7528 13.3056 14.7528 12.1457C14.7528 10.9858 13.8125 10.0455 12.6526 10.0455C11.4928 10.0455 10.5525 10.9858 10.5525 12.1457C10.5525 13.3056 11.4928 14.2458 12.6526 14.2458ZM12.6526 15.2458C14.3648 15.2458 15.7528 13.8578 15.7528 12.1457C15.7528 10.4335 14.3648 9.04551 12.6526 9.04551C10.9405 9.04551 9.55249 10.4335 9.55249 12.1457C9.55249 13.8578 10.9405 15.2458 12.6526 15.2458ZM14.062 11.7033C14.2454 11.4969 14.2268 11.1808 14.0205 10.9974C13.8141 10.8139 13.498 10.8325 13.3146 11.0389L12.31 12.1691L11.9946 11.8142C11.8111 11.6078 11.4951 11.5892 11.2887 11.7727C11.0823 11.9561 11.0637 12.2722 11.2471 12.4786L11.9363 13.2538C12.0312 13.3606 12.1672 13.4217 12.31 13.4217C12.4528 13.4217 12.5888 13.3606 12.6837 13.2538L14.062 11.7033Z" fill="#EA1917"/>
</svg>
