<svg width="48" height="48" viewBox="0 0 48 48" fill="none" xmlns="http://www.w3.org/2000/svg">
<path fill-rule="evenodd" clip-rule="evenodd" d="M3.5 23.9999C3.5 12.6781 12.6781 3.5 23.9999 3.5C29.8216 3.5 35.0763 5.92604 38.8088 9.82442H33.7619C33.3477 9.82442 33.0119 10.1602 33.0119 10.5744C33.0119 10.9886 33.3477 11.3244 33.7619 11.3244H40.4724C40.8866 11.3244 41.2224 10.9886 41.2224 10.5744V3.86392C41.2224 3.44971 40.8866 3.11392 40.4724 3.11392C40.0582 3.11392 39.7224 3.44971 39.7224 3.86392V8.61164C35.7295 4.53272 30.1603 2 23.9999 2C11.8497 2 2 11.8497 2 23.9999C2 36.1501 11.8497 45.9998 23.9999 45.9998C36.1501 45.9998 45.9998 36.1501 45.9998 23.9999C45.9998 23.2473 45.962 22.5032 45.8881 21.7696C45.8466 21.3575 45.4789 21.0571 45.0667 21.0986C44.6546 21.1401 44.3542 21.5078 44.3957 21.92C44.4645 22.6037 44.4998 23.2976 44.4998 23.9999C44.4998 35.3217 35.3217 44.4998 23.9999 44.4998C12.6781 44.4998 3.5 35.3217 3.5 23.9999ZM24.8094 14.4042H23.4014V16.3622C22.9467 16.4062 22.5507 16.4795 22.2134 16.5822C21.2454 16.8022 20.4827 17.2349 19.9254 17.8802C19.3681 18.5109 19.0894 19.2882 19.0894 20.2122C19.0894 20.7255 19.1407 21.1655 19.2434 21.5322C19.3461 21.8989 19.5001 22.2289 19.7054 22.5222C19.9254 22.8009 20.1821 23.0502 20.4754 23.2702C20.7834 23.4755 21.1354 23.6735 21.5314 23.8642C21.8247 24.0109 22.1254 24.1575 22.4334 24.3042C22.7414 24.4362 23.0641 24.5609 23.4014 24.6782V29.2982C22.7707 29.2689 22.1987 29.1955 21.6854 29.0782C21.0401 28.9169 20.4021 28.6895 19.7714 28.3962L18.9134 30.1342C19.6027 30.5009 20.3801 30.7722 21.2454 30.9482C21.9934 31.0949 22.7121 31.1829 23.4014 31.2122V32.9502H24.8094V31.1682C25.9534 31.0362 26.8994 30.7062 27.6474 30.1782C28.6301 29.5035 29.1214 28.5135 29.1214 27.2082C29.1214 26.6802 29.0554 26.2255 28.9234 25.8442C28.8061 25.4629 28.6374 25.1329 28.4174 24.8542C28.2121 24.5755 27.9627 24.3409 27.6694 24.1502C27.3761 23.9449 27.0681 23.7542 26.7454 23.5782C26.5841 23.5049 26.4154 23.4315 26.2394 23.3582L25.7554 23.1382L24.8094 22.7642V18.1442C25.3961 18.1589 25.9534 18.2469 26.4814 18.4082C27.0827 18.5549 27.6254 18.7455 28.1094 18.9802L28.9234 17.2642C28.2781 16.9269 27.5667 16.6922 26.7894 16.5602C26.1147 16.4135 25.4547 16.3329 24.8094 16.3182V14.4042ZM26.8554 27.3402C26.8554 27.9269 26.6061 28.4035 26.1074 28.7702C25.7701 28.9902 25.3374 29.1442 24.8094 29.2322V25.1842C24.9561 25.2429 25.0954 25.3015 25.2274 25.3602C25.3741 25.4189 25.5061 25.4775 25.6234 25.5362C25.9607 25.7122 26.2467 25.9469 26.4814 26.2402C26.7307 26.5335 26.8554 26.9002 26.8554 27.3402ZM21.3994 20.0582C21.3994 19.4569 21.6487 18.9949 22.1474 18.6722C22.4554 18.4522 22.8734 18.2982 23.4014 18.2102V22.2362C23.1521 22.1335 22.9541 22.0382 22.8074 21.9502C22.3821 21.7595 22.0374 21.5175 21.7734 21.2242C21.5241 20.9162 21.3994 20.5275 21.3994 20.0582Z" fill="#333333"/>
</svg>
