<svg width="64" height="64" viewBox="0 0 64 64" fill="none" xmlns="http://www.w3.org/2000/svg">
<path fill-rule="evenodd" clip-rule="evenodd" d="M31.5195 12C28.4899 7.96054 23.7354 5.58325 18.6861 5.58325C17.7089 5.58325 16.9166 6.37546 16.9166 7.3527V14.2501H8.33331C6.81453 14.2501 5.58331 15.4813 5.58331 17.0001V23.0001C5.58331 24.491 6.76975 25.7048 8.24998 25.7488V55.6667C8.24998 57.1855 9.4812 58.4167 11 58.4167H53C54.5188 58.4167 55.75 57.1855 55.75 55.6667V25.7488C57.2305 25.7051 58.4172 24.4912 58.4172 23.0001V17.0001C58.4172 15.4813 57.186 14.2501 55.6672 14.2501H47.1226V7.3527C47.1226 6.37546 46.3304 5.58325 45.3532 5.58325C40.3039 5.58325 35.5493 7.96054 32.5198 12L32.0196 12.6668L31.5195 12ZM31.0972 14.2486C31.1039 14.1643 31.1185 14.0798 31.1416 13.9961L30.3195 12.9C27.5732 9.23825 23.2632 7.08325 18.6861 7.08325C18.5373 7.08325 18.4166 7.20389 18.4166 7.3527V14.2486H31.0972ZM45.6226 14.2486H32.9421C32.9354 14.1643 32.9208 14.0798 32.8977 13.9961L33.7198 12.9C36.4661 9.23825 40.7761 7.08325 45.3532 7.08325C45.502 7.08325 45.6226 7.20389 45.6226 7.3527V14.2486ZM54.25 25.7501H32.75V56.9167H53C53.6903 56.9167 54.25 56.3571 54.25 55.6667V25.7501ZM55 24.2501H32.75V15.7501H55.6672C56.3576 15.7501 56.9172 16.3097 56.9172 17.0001V23.0001C56.9172 23.6904 56.3576 24.2501 55.6672 24.2501H55ZM31.25 24.2501V15.7501H8.33331C7.64296 15.7501 7.08331 16.3097 7.08331 17.0001V23.0001C7.08331 23.6904 7.64296 24.2501 8.33331 24.2501H8.99998H31.25ZM31.25 56.9167V25.7501H9.74998V55.6667C9.74998 56.3571 10.3096 56.9167 11 56.9167H31.25Z" fill="black"/>
</svg>
