<svg width="49" height="48" viewBox="0 0 49 48" fill="none" xmlns="http://www.w3.org/2000/svg">
<path fill-rule="evenodd" clip-rule="evenodd" d="M24.5 5.75C14.4208 5.75 6.25 13.9208 6.25 24C6.25 34.0792 14.4208 42.25 24.5 42.25C34.5792 42.25 42.75 34.0792 42.75 24C42.75 13.9208 34.5792 5.75 24.5 5.75ZM4.75 24C4.75 13.0924 13.5924 4.25 24.5 4.25C35.4076 4.25 44.25 13.0924 44.25 24C44.25 34.9076 35.4076 43.75 24.5 43.75C13.5924 43.75 4.75 34.9076 4.75 24Z" fill="#EA1917"/>
<path d="M31.625 23.7835C31.7917 23.8797 31.7917 24.1203 31.625 24.2165L21.125 30.2787C20.9583 30.3749 20.75 30.2546 20.75 30.0622L20.75 17.9378C20.75 17.7454 20.9583 17.6251 21.125 17.7213L31.625 23.7835Z" stroke="#EA1917" stroke-width="1.5"/>
</svg>
