<svg width="24" height="24" viewBox="0 0 24 24" fill="none" xmlns="http://www.w3.org/2000/svg">
<path fill-rule="evenodd" clip-rule="evenodd" d="M19.7474 13.7254C20.1799 11.8351 19.8438 9.85051 18.8131 8.20809C17.7823 6.56567 16.1413 5.39998 14.2511 4.96747C13.9281 4.89356 13.6063 5.0955 13.5324 5.41853C13.4585 5.74155 13.6604 6.06333 13.9834 6.13724C15.5634 6.49876 16.9351 7.47312 17.7967 8.84598C18.6582 10.2188 18.9392 11.8777 18.5777 13.4577C18.2161 15.0377 17.2418 16.4093 15.8689 17.2709C15.3787 17.5786 14.8519 17.8122 14.3053 17.969L14.9176 16.8707C15.0789 16.5813 14.9751 16.2159 14.6857 16.0545C14.3962 15.8932 14.0308 15.997 13.8694 16.2864L12.501 18.7412C12.3396 19.0306 12.4434 19.3961 12.7329 19.5574L15.1876 20.9259C15.4771 21.0873 15.8425 20.9834 16.0039 20.694C16.1652 20.4046 16.0614 20.0391 15.772 19.8778L14.4896 19.1629C15.1959 18.9761 15.8766 18.6829 16.5068 18.2873C18.1492 17.2566 19.3149 15.6156 19.7474 13.7254ZM5.07664 15.6635C4.10711 13.9842 3.84437 11.9885 4.34624 10.1155C4.84811 8.2425 6.07347 6.64558 7.75276 5.67604C8.39736 5.30388 9.08859 5.03586 9.80158 4.87526L8.54549 4.11303C8.2622 3.94112 8.1719 3.57211 8.34381 3.28882C8.51572 3.00553 8.88473 2.91524 9.16803 3.08714L11.5707 4.54515C11.854 4.71706 11.9443 5.08607 11.7724 5.36937L10.3144 7.77205C10.1425 8.05534 9.77345 8.14563 9.49016 7.97372C9.20687 7.80181 9.11658 7.4328 9.28848 7.14951L9.94024 6.07548C9.38851 6.212 8.8538 6.426 8.35276 6.71527C6.94909 7.52568 5.92485 8.8605 5.50535 10.4261C5.08585 11.9917 5.30547 13.6598 6.11587 15.0635C6.92628 16.4671 8.2611 17.4914 9.82669 17.9109C10.1468 17.9966 10.3367 18.3256 10.251 18.6457C10.1652 18.9658 9.83618 19.1557 9.5161 19.07C7.6431 18.5681 6.04618 17.3427 5.07664 15.6635Z" fill="black"/>
</svg>
