<svg width="48" height="48" viewBox="0 0 48 48" fill="none" xmlns="http://www.w3.org/2000/svg">
<path fill-rule="evenodd" clip-rule="evenodd" d="M13.25 3.99988C17.4496 3.99988 21.4114 5.9188 24.0147 9.19639C26.6181 5.9188 30.5799 3.99988 34.7795 3.99988V4.74988H35.5295V10.5H43.2504H44.0004V11.25V18.75V19.5H43.2504H42V43.25V44H41.25H6.75H6V43.25V19.5H4.75H4V18.75V11.25V10.5H4.75H12.5V4.74988H13.25V3.99988ZM14 5.52282C17.5724 5.74166 20.8859 7.5158 23.0484 10.3991L23.1232 10.4989H14V5.52282ZM34.0295 5.52282C30.4571 5.74166 27.1435 7.5158 24.9811 10.3991L24.9062 10.4989H34.0295V5.52282ZM40.5 19.5H24.75V42.5H40.5V19.5ZM41.25 18H24.75V12H42.5004V18H42H41.25ZM23.25 18V12H5.5V18H6H6.75H23.25ZM23.25 42.5V19.5H7.5V42.5H23.25Z" fill="black"/>
</svg>
