<svg width="16" height="16" viewBox="0 0 16 16" fill="none" xmlns="http://www.w3.org/2000/svg">
<path d="M6.33233 14.8543L5.53906 14.5737V5.60975C6.12563 5.18562 6.59243 4.58212 6.92669 4.05808L6.92669 4.05808L6.92774 4.05642C7.57737 3.02907 7.85527 1.8824 8.11268 0.820264L8.12095 0.786145L8.12099 0.785981L8.16508 0.604336L8.1651 0.60434L8.16599 0.600558C8.17809 0.548964 8.1908 0.542734 8.21632 0.531499C8.26873 0.508423 8.37503 0.489595 8.54521 0.506492C8.88685 0.540413 9.27065 0.695105 9.43851 0.799091L9.4385 0.799095L9.44046 0.800293C10.0716 1.18732 10.3305 1.88772 10.3425 2.796C10.3545 3.7028 10.1145 4.70177 9.87411 5.49835C9.8284 5.6498 9.85707 5.81395 9.9514 5.94095C10.0457 6.06795 10.1946 6.14281 10.3528 6.14281H13.4216C14.4404 6.14281 15.2465 6.94598 15.2465 7.88962V13.3943C15.2465 14.338 14.4404 15.1411 13.4216 15.1411H7.98143C7.42602 15.1411 6.86581 15.0398 6.33352 14.8547C6.33312 14.8546 6.33273 14.8545 6.33233 14.8543Z" fill="#EA1917" stroke="#EA1917" stroke-linecap="round" stroke-linejoin="round"/>
<path d="M0.257812 4.17188H2.0332C2.86163 4.17188 3.5332 4.84345 3.5332 5.67188V14.4963C3.5332 15.3248 2.86163 15.9963 2.0332 15.9963H0.257812V4.17188Z" fill="#EA1917"/>
</svg>