<svg width="235" height="43" viewBox="0 0 235 43" fill="none" xmlns="http://www.w3.org/2000/svg">
<path d="M29.5 3H2.5C1.67157 3 1 3.67157 1 4.5V39.5C1 40.3284 1.67157 41 2.5 41H29.5C30.3284 41 31 40.3284 31 39.5V4.5C31 3.67157 30.3284 3 29.5 3Z" stroke="black" stroke-width="1.5"/>
<ellipse cx="15.9484" cy="7.43329" rx="1.3" ry="1.26667" fill="black"/>
<path d="M35.5 10.3462C35.5 9.51776 36.1716 8.84619 37 8.84619H53.5C54.3284 8.84619 55 9.51776 55 10.3462V39.5C55 40.3285 54.3284 41 53.5 41H37C36.1716 41 35.5 40.3285 35.5 39.5V10.3462Z" stroke="black" stroke-width="1.5"/>
<ellipse cx="45.1984" cy="13.1334" rx="1.3" ry="1.26667" fill="black"/>
<path d="M47.2821 28.1265C46.754 27.4854 45.9423 27.0748 45.0321 27.0748C44.122 27.0748 43.3103 27.4854 42.7821 28.1265M49.7497 26.3738C48.6934 25.0916 47.0701 24.2705 45.2497 24.2705C43.4294 24.2705 41.8061 25.0916 40.7498 26.3738M52 24.6212C50.4154 22.6978 47.9805 21.4662 45.25 21.4662C42.5195 21.4662 40.0846 22.6978 38.5 24.6212" stroke="black" stroke-width="1.2" stroke-linecap="round" stroke-linejoin="round"/>
<ellipse cx="45.0073" cy="30.1572" rx="0.964286" ry="0.93956" fill="black"/>
<path d="M109.097 3H66.9039C66.0487 3 65.3555 3.65112 65.3555 4.45433V27.7236C65.3555 28.5268 66.0487 29.1779 66.9039 29.1779H109.097C109.953 29.1779 110.646 28.5268 110.646 27.7236V4.45433C110.646 3.65112 109.953 3 109.097 3Z" stroke="black" stroke-width="1.5" stroke-miterlimit="10"/>
<path d="M106.167 33.9392H69.8333C69.097 33.9392 68.5 34.4601 68.5 35.1027V38.5931C68.5 39.2356 69.097 39.7565 69.8333 39.7565H106.167C106.903 39.7565 107.5 39.2356 107.5 38.5931V35.1027C107.5 34.4601 106.903 33.9392 106.167 33.9392Z" stroke="black" stroke-width="1.5"/>
<path d="M110.645 34.8707C111.23 35.3663 111.604 36.1278 111.604 36.9818C111.604 37.8358 111.23 38.5974 110.645 39.0929M113.082 32.5554C114.251 33.5466 115 35.0697 115 36.7777C115 38.4856 114.251 40.0087 113.082 40.9999" stroke="black" stroke-width="1.2" stroke-linecap="round" stroke-linejoin="round"/>
<path d="M65.3548 38.6843C64.7701 38.1888 64.3957 37.4272 64.3957 36.5732C64.3957 35.7192 64.7701 34.9577 65.3548 34.4621M62.9184 40.9996C61.7489 40.0084 61 38.4854 61 36.7774C61 35.0694 61.7489 33.5463 62.9184 32.5552" stroke="black" stroke-width="1.2" stroke-linecap="round" stroke-linejoin="round"/>
<path d="M71.5 36.8479L85 36.8479" stroke="black" stroke-width="1.2" stroke-linecap="round"/>
<path d="M94.5311 37.622C95.0121 37.622 95.4021 37.2439 95.4021 36.7776C95.4021 36.3112 95.0121 35.9331 94.5311 35.9331C94.0501 35.9331 93.6602 36.3112 93.6602 36.7776C93.6602 37.2439 94.0501 37.622 94.5311 37.622Z" fill="black"/>
<path d="M98.453 37.622C98.934 37.622 99.324 37.2439 99.324 36.7776C99.324 36.3112 98.934 35.9331 98.453 35.9331C97.972 35.9331 97.582 36.3112 97.582 36.7776C97.582 37.2439 97.972 37.622 98.453 37.622Z" fill="black"/>
<path d="M101.5 36.8479H103" stroke="black" stroke-width="1.2" stroke-linecap="round"/>
<path fill-rule="evenodd" clip-rule="evenodd" d="M121 2.59436C121 1.76593 121.672 1.09436 122.5 1.09436H146.376C147.205 1.09436 147.876 1.76593 147.876 2.59436V40.6555C147.876 41.4839 147.205 42.1555 146.376 42.1555H122.5C121.672 42.1555 121 41.4839 121 40.6555V2.59436Z" stroke="black" stroke-width="1.5" stroke-linecap="round" stroke-linejoin="round"/>
<path fill-rule="evenodd" clip-rule="evenodd" d="M138.172 5.70105C138.172 5.42491 138.396 5.20105 138.672 5.20105H143.644C143.921 5.20105 144.144 5.42491 144.144 5.70105V18.8858C144.144 19.1619 143.921 19.3858 143.644 19.3858H138.672C138.396 19.3858 138.172 19.1619 138.172 18.8858V5.70105Z" stroke="black" stroke-width="1.5" stroke-linecap="round" stroke-linejoin="round"/>
<path d="M134.437 42.1555L134.438 1.09436" stroke="black" stroke-width="1.5" stroke-linecap="round"/>
<path d="M121 23.4911H147.876" stroke="black" stroke-width="1.5"/>
<path fill-rule="evenodd" clip-rule="evenodd" d="M153.855 11.5431C152.613 11.5431 151.605 12.5505 151.605 13.7931V40.6557C151.605 41.8984 152.613 42.9057 153.855 42.9057H173.999C175.242 42.9057 176.249 41.8984 176.249 40.6557V13.7931C176.249 12.5505 175.242 11.5431 173.999 11.5431H153.855ZM153.105 13.7931C153.105 13.3789 153.441 13.0431 153.855 13.0431H173.999C174.413 13.0431 174.749 13.3789 174.749 13.7931V19.7553H153.105V13.7931ZM153.105 21.2553V40.6557C153.105 41.0699 153.441 41.4057 153.855 41.4057H173.999C174.413 41.4057 174.749 41.0699 174.749 40.6557V21.2553H153.105ZM163.925 24.9884C160.423 24.9884 157.583 27.828 157.583 31.3308C157.583 34.8336 160.423 37.6732 163.925 37.6732C167.428 37.6732 170.268 34.8336 170.268 31.3308C170.268 27.828 167.428 24.9884 163.925 24.9884ZM156.083 31.3308C156.083 26.9996 159.594 23.4884 163.925 23.4884C168.257 23.4884 171.768 26.9996 171.768 31.3308C171.768 35.662 168.257 39.1732 163.925 39.1732C159.594 39.1732 156.083 35.662 156.083 31.3308ZM167.032 33.7056C167.239 33.964 167.617 34.0053 167.875 33.7978C168.134 33.5903 168.175 33.2127 167.968 32.9543C167.717 32.6418 167.398 32.3898 167.036 32.2167C166.675 32.0436 166.278 31.9539 165.877 31.9539C165.476 31.9539 165.079 32.0436 164.717 32.2167C164.367 32.3844 164.057 32.6261 163.81 32.9252C163.456 33.2696 163.125 33.4106 162.84 33.4563C162.542 33.5041 162.247 33.4546 161.972 33.3517C161.695 33.2483 161.454 33.0973 161.28 32.9675C161.194 32.9035 161.127 32.847 161.084 32.8081C161.062 32.7886 161.046 32.7738 161.036 32.7648L161.028 32.7564L161.028 32.7563L161.027 32.7561L161.027 32.756C160.795 32.5204 160.416 32.5174 160.18 32.7494C159.943 32.9817 159.94 33.3616 160.172 33.5979L160.594 33.1836C160.172 33.5979 160.172 33.5981 160.173 33.5983L160.173 33.5988L160.174 33.5998L160.177 33.6025L160.184 33.6097L160.207 33.6321C160.226 33.6502 160.252 33.6747 160.285 33.7042C160.351 33.763 160.445 33.8422 160.563 33.93C160.797 34.1039 161.138 34.3211 161.552 34.4759C161.968 34.6312 162.476 34.7299 163.03 34.6412C163.59 34.5514 164.152 34.2762 164.677 33.7558L164.701 33.732L164.722 33.7056C164.86 33.5339 165.035 33.3949 165.235 33.2993C165.435 33.2036 165.654 33.1539 165.877 33.1539C166.099 33.1539 166.319 33.2036 166.519 33.2993C166.719 33.3949 166.894 33.5339 167.032 33.7056ZM167.875 30.2098C167.617 30.4172 167.239 30.3759 167.032 30.1175C166.894 29.9459 166.719 29.8069 166.519 29.7113C166.319 29.6156 166.099 29.5658 165.877 29.5658C165.654 29.5658 165.435 29.6156 165.235 29.7113C165.035 29.8069 164.86 29.9459 164.722 30.1175L164.701 30.1439L164.677 30.1677C164.152 30.6882 163.59 30.9633 163.03 31.0532C162.476 31.1418 161.968 31.0432 161.552 30.8879C161.138 30.7331 160.797 30.5159 160.563 30.342C160.445 30.2542 160.351 30.1749 160.285 30.1161C160.252 30.0867 160.226 30.0622 160.207 30.044L160.184 30.0217L160.177 30.0144L160.174 30.0118L160.173 30.0108L160.173 30.0103C160.172 30.0101 160.172 30.0099 160.594 29.5956L160.172 30.0099C159.94 29.7736 159.943 29.3937 160.18 29.1614C160.416 28.9294 160.795 28.9324 161.027 29.168L161.027 29.1681L161.028 29.1682L161.028 29.1684L161.036 29.1767C161.046 29.1857 161.062 29.2006 161.084 29.22C161.127 29.259 161.194 29.3154 161.28 29.3794C161.454 29.5092 161.695 29.6602 161.972 29.7636C162.247 29.8665 162.542 29.916 162.84 29.8683C163.125 29.8226 163.456 29.6815 163.81 29.3371C164.057 29.0381 164.367 28.7963 164.717 28.6287C165.079 28.4556 165.476 28.3658 165.877 28.3658C166.278 28.3658 166.675 28.4556 167.036 28.6287C167.398 28.8017 167.717 29.0538 167.968 29.3663C168.175 29.6246 168.134 30.0023 167.875 30.2098ZM163.93 15.2793C163.434 15.2793 163.032 15.682 163.032 16.1782C163.032 16.6744 163.434 17.0771 163.93 17.0771C164.427 17.0771 164.829 16.6744 164.829 16.1782C164.829 15.682 164.427 15.2793 163.93 15.2793ZM156.087 15.6485C155.673 15.6485 155.337 15.9843 155.337 16.3985C155.337 16.8127 155.673 17.1485 156.087 17.1485H160.196C160.611 17.1485 160.946 16.8127 160.946 16.3985C160.946 15.9843 160.611 15.6485 160.196 15.6485H156.087ZM167.658 15.6485C167.244 15.6485 166.908 15.9843 166.908 16.3985C166.908 16.8127 167.244 17.1485 167.658 17.1485H171.767C172.182 17.1485 172.517 16.8127 172.517 16.3985C172.517 15.9843 172.182 15.6485 171.767 15.6485H167.658Z" fill="black"/>
<path d="M205.887 29.8523V41.5392M208.796 29.8523V41.5392" stroke="black" stroke-width="1.5" stroke-linecap="round"/>
<path d="M228.801 24.0088L228.801 28.3914" stroke="black" stroke-width="1.5" stroke-miterlimit="10" stroke-linecap="round"/>
<path d="M234.25 38.4247V27.4885C234.25 25.5667 232.663 24.0088 230.705 24.0088H226.886C224.928 24.0088 223.34 25.5667 223.34 27.4885V38.4247C223.34 40.3465 224.928 41.9044 226.886 41.9044H230.705C232.663 41.9044 234.25 40.3465 234.25 38.4247Z" stroke="black" stroke-width="1.5" stroke-miterlimit="10" stroke-linecap="round"/>
<line x1="197.91" y1="42.25" x2="216.775" y2="42.25" stroke="black" stroke-width="1.5" stroke-linecap="round"/>
<path fill-rule="evenodd" clip-rule="evenodd" d="M184.84 1.3457C183.597 1.3457 182.59 2.35306 182.59 3.5957V28.3522C182.59 29.5948 183.597 30.6022 184.84 30.6022H223.344V29.1022H184.84C184.426 29.1022 184.09 28.7664 184.09 28.3522V3.5957C184.09 3.18149 184.426 2.8457 184.84 2.8457H229.843C230.257 2.8457 230.593 3.18149 230.593 3.5957V24.0087H230.773C231.239 24.0087 231.684 24.0963 232.093 24.2557V3.5957C232.093 2.35306 231.086 1.3457 229.843 1.3457H184.84Z" fill="black"/>
</svg>
