<svg width="18" height="19" viewBox="0 0 18 19" fill="none" xmlns="http://www.w3.org/2000/svg">
<path fill-rule="evenodd" clip-rule="evenodd" d="M10.4382 3.67608C10.7456 3.6701 11.1923 3.75179 11.5772 4.03035C11.8296 4.21306 12.0387 4.46901 12.1634 4.80297H12.6738C14.4748 4.80297 15.8021 6.45081 15.8021 8.32874V8.53486H15.8025V13.3237V13.8237L15.3025 13.8237L14.4881 13.8237C14.284 14.6121 13.5667 15.1944 12.7132 15.1944C11.8676 15.1944 11.1557 14.6228 10.9441 13.8455H6.86661C6.65503 14.6228 5.94313 15.1944 5.09749 15.1944C4.08509 15.1944 3.26438 14.3751 3.26438 13.3644C3.26438 13.172 3.29414 12.9864 3.34932 12.8122C2.69444 12.2051 2.26389 11.36 2.26389 10.388V7.06284V6.56284H2.76389H6.27558V7.56284H3.26389V10.388C3.26389 10.9942 3.50768 11.5403 3.91473 11.9663C4.23397 11.6968 4.64673 11.5344 5.09749 11.5344C5.92933 11.5344 6.63175 12.0875 6.85585 12.8455H10.9549C11.179 12.0875 11.8814 11.5344 12.7132 11.5344C13.5371 11.5344 14.234 12.077 14.465 12.8237H14.8025V8.82874H14.8021V8.32874C14.8021 6.86401 13.7931 5.80297 12.6738 5.80297H12.2883V8.66576H13.9785V9.66576H11.7883H11.2883V9.16576V5.54013C11.2883 5.13753 11.1374 4.94648 10.9909 4.84045C10.8182 4.71546 10.5961 4.67262 10.4553 4.67594L10.4553 4.67608H10.4435H2.25V3.67608H10.4382ZM5.09749 14.1944C5.55921 14.1944 5.93061 13.8212 5.93061 13.3644C5.93061 12.9076 5.55921 12.5344 5.09749 12.5344C4.63577 12.5344 4.26438 12.9076 4.26438 13.3644C4.26438 13.8212 4.63577 14.1944 5.09749 14.1944ZM7.50803 6.09448L2.25069 6.09448L2.25069 5.09448L7.50803 5.09448V6.09448ZM13.5463 13.3644C13.5463 13.8212 13.1749 14.1944 12.7132 14.1944C12.2515 14.1944 11.8801 13.8212 11.8801 13.3644C11.8801 12.9076 12.2515 12.5344 12.7132 12.5344C13.1749 12.5344 13.5463 12.9076 13.5463 13.3644Z" fill="#555555"/>
</svg>
