<svg width="36" height="36" viewBox="0 0 36 36" fill="none" xmlns="http://www.w3.org/2000/svg">
<path fill-rule="evenodd" clip-rule="evenodd" d="M2.69922 4.45019C2.69922 3.4837 3.48272 2.7002 4.44922 2.7002H31.5492C32.5157 2.7002 33.2992 3.4837 33.2992 4.4502V8.7502C33.2992 9.5359 32.7814 10.2007 32.0685 10.4219C32.0887 10.5282 32.0992 10.638 32.0992 10.7502V31.5502C32.0992 32.5167 31.3157 33.3002 30.3492 33.3002H5.64922C4.68272 33.3002 3.89922 32.5167 3.89922 31.5502V10.7502C3.89922 10.638 3.90978 10.5282 3.92997 10.4219C3.21701 10.2007 2.69922 9.5359 2.69922 8.7502V4.45019ZM5.64922 10.5002H30.3492C30.4873 10.5002 30.5992 10.6121 30.5992 10.7502V31.5502C30.5992 31.6883 30.4873 31.8002 30.3492 31.8002H5.64922C5.51115 31.8002 5.39922 31.6883 5.39922 31.5502V10.7502C5.39922 10.6121 5.51115 10.5002 5.64922 10.5002ZM31.5492 9.0002H30.3492H5.64922H4.44922C4.31115 9.0002 4.19922 8.88827 4.19922 8.7502V4.45019C4.19922 4.31212 4.31115 4.2002 4.44922 4.2002H31.5492C31.6873 4.2002 31.7992 4.31212 31.7992 4.4502V8.7502C31.7992 8.88827 31.6873 9.0002 31.5492 9.0002ZM17.4157 15.602C15.4197 15.602 13.8016 17.2202 13.8016 19.2166C13.8016 21.2129 15.4197 22.8311 17.4157 22.8311C19.4116 22.8311 21.0298 21.2129 21.0298 19.2166C21.0298 17.2202 19.4116 15.602 17.4157 15.602ZM12.3016 19.2166C12.3016 16.3919 14.5911 14.102 17.4157 14.102C20.2402 14.102 22.5298 16.3919 22.5298 19.2166C22.5298 20.3583 22.1557 21.4127 21.5234 22.2638L24.6816 25.4223C24.9745 25.7152 24.9745 26.1901 24.6816 26.4831C24.3887 26.776 23.9139 26.776 23.621 26.4831L20.4628 23.3245C19.6118 23.957 18.5574 24.3311 17.4157 24.3311C14.5911 24.3311 12.3016 22.0412 12.3016 19.2166Z" fill="black"/>
</svg>
