<svg width="65" height="65" viewBox="0 0 65 65" fill="none" xmlns="http://www.w3.org/2000/svg">
<mask id="path-1-inside-1_2504_299323" fill="white">
<path fill-rule="evenodd" clip-rule="evenodd" d="M35.5 11.2607H8.5C6.01472 11.2607 4 13.2755 4 15.7607V34.7725H40V32.7607V31.2607V19.2607V17.7607V15.7607C40 13.2755 37.9853 11.2607 35.5 11.2607ZM41.5 19.2607V31.2607H56.9531L52.0287 21.7002C51.2571 20.2022 49.7133 19.2607 48.0282 19.2607H41.5ZM41.5 17.7607H48.0282C50.2749 17.7607 52.3334 19.016 53.3622 21.0133L58.6404 31.2607L59.0419 32.0402L61.2431 33.106C62.6233 33.7742 63.5 35.1727 63.5 36.7062V46.2607C63.5 47.0892 62.8284 47.7607 62 47.7607H58.383C58.4154 48.0378 58.4321 48.3197 58.4321 48.6055C58.4321 52.5574 55.245 55.7611 51.3135 55.7611C47.382 55.7611 44.1948 52.5574 44.1948 48.6055C44.1948 48.3197 44.2115 48.0378 44.2439 47.7607H41.5H40.0013H40H21.7729C21.8053 48.0378 21.822 48.3196 21.822 48.6054C21.822 52.5573 18.6349 55.7609 14.7034 55.7609C10.7718 55.7609 7.58472 52.5573 7.58472 48.6054C7.58472 48.3196 7.60138 48.0378 7.63379 47.7607H6.5C4.29086 47.7607 2.5 45.9699 2.5 43.7607V15.7607C2.5 12.447 5.18629 9.76074 8.5 9.76074H35.5C38.8137 9.76074 41.5 12.447 41.5 15.7607V17.7607ZM21.4311 46.2607C20.4653 43.4604 17.8179 41.4498 14.7034 41.4498C11.5888 41.4498 8.94142 43.4604 7.97566 46.2607H6.5C5.11929 46.2607 4 45.1415 4 43.7607V36.2725H40V46.2607H21.4311ZM58.0411 46.2607C57.0753 43.4604 54.428 41.45 51.3135 41.45C48.199 41.45 45.5516 43.4604 44.5858 46.2607H41.5012L41.5001 32.7607H56.9733H56.9742C57.0494 32.7609 57.1235 32.778 57.1911 32.8107L60.5894 34.4561C61.4521 34.8737 62 35.7478 62 36.7062V46.2607H58.0411ZM10.9069 27.0927H9.45492V19.7007H14.1519V20.8777H10.9069V22.6487H13.9209V23.8257H10.9069V27.0927ZM16.8688 20.8777V23.0117H18.2658C18.6472 23.0117 18.9405 22.9237 19.1458 22.7477C19.3585 22.5717 19.4648 22.3041 19.4648 21.9447C19.4648 21.5854 19.3585 21.3177 19.1458 21.1417C18.9405 20.9657 18.6472 20.8777 18.2658 20.8777H16.8688ZM15.4168 27.0927V19.7007H18.2768C19.1642 19.7007 19.8352 19.8877 20.2898 20.2617C20.7445 20.6284 20.9718 21.1894 20.9718 21.9447C20.9718 22.4067 20.8508 22.8174 20.6088 23.1767C20.3742 23.5287 20.0478 23.7891 19.6298 23.9577L21.2578 27.0927H19.7178L18.2108 24.1887H16.8688V27.0927H15.4168ZM27.5002 25.9157V27.0927H22.5282V19.7007H27.3902V20.8777H23.9802V22.6597H27.2692V23.8147H23.9802V25.9157H27.5002ZM33.9025 25.9157V27.0927H28.9305V19.7007H33.7925V20.8777H30.3825V22.6597H33.6715V23.8147H30.3825V25.9157H33.9025Z"/>
</mask>
<path fill-rule="evenodd" clip-rule="evenodd" d="M35.5 11.2607H8.5C6.01472 11.2607 4 13.2755 4 15.7607V34.7725H40V32.7607V31.2607V19.2607V17.7607V15.7607C40 13.2755 37.9853 11.2607 35.5 11.2607ZM41.5 19.2607V31.2607H56.9531L52.0287 21.7002C51.2571 20.2022 49.7133 19.2607 48.0282 19.2607H41.5ZM41.5 17.7607H48.0282C50.2749 17.7607 52.3334 19.016 53.3622 21.0133L58.6404 31.2607L59.0419 32.0402L61.2431 33.106C62.6233 33.7742 63.5 35.1727 63.5 36.7062V46.2607C63.5 47.0892 62.8284 47.7607 62 47.7607H58.383C58.4154 48.0378 58.4321 48.3197 58.4321 48.6055C58.4321 52.5574 55.245 55.7611 51.3135 55.7611C47.382 55.7611 44.1948 52.5574 44.1948 48.6055C44.1948 48.3197 44.2115 48.0378 44.2439 47.7607H41.5H40.0013H40H21.7729C21.8053 48.0378 21.822 48.3196 21.822 48.6054C21.822 52.5573 18.6349 55.7609 14.7034 55.7609C10.7718 55.7609 7.58472 52.5573 7.58472 48.6054C7.58472 48.3196 7.60138 48.0378 7.63379 47.7607H6.5C4.29086 47.7607 2.5 45.9699 2.5 43.7607V15.7607C2.5 12.447 5.18629 9.76074 8.5 9.76074H35.5C38.8137 9.76074 41.5 12.447 41.5 15.7607V17.7607ZM21.4311 46.2607C20.4653 43.4604 17.8179 41.4498 14.7034 41.4498C11.5888 41.4498 8.94142 43.4604 7.97566 46.2607H6.5C5.11929 46.2607 4 45.1415 4 43.7607V36.2725H40V46.2607H21.4311ZM58.0411 46.2607C57.0753 43.4604 54.428 41.45 51.3135 41.45C48.199 41.45 45.5516 43.4604 44.5858 46.2607H41.5012L41.5001 32.7607H56.9733H56.9742C57.0494 32.7609 57.1235 32.778 57.1911 32.8107L60.5894 34.4561C61.4521 34.8737 62 35.7478 62 36.7062V46.2607H58.0411ZM10.9069 27.0927H9.45492V19.7007H14.1519V20.8777H10.9069V22.6487H13.9209V23.8257H10.9069V27.0927ZM16.8688 20.8777V23.0117H18.2658C18.6472 23.0117 18.9405 22.9237 19.1458 22.7477C19.3585 22.5717 19.4648 22.3041 19.4648 21.9447C19.4648 21.5854 19.3585 21.3177 19.1458 21.1417C18.9405 20.9657 18.6472 20.8777 18.2658 20.8777H16.8688ZM15.4168 27.0927V19.7007H18.2768C19.1642 19.7007 19.8352 19.8877 20.2898 20.2617C20.7445 20.6284 20.9718 21.1894 20.9718 21.9447C20.9718 22.4067 20.8508 22.8174 20.6088 23.1767C20.3742 23.5287 20.0478 23.7891 19.6298 23.9577L21.2578 27.0927H19.7178L18.2108 24.1887H16.8688V27.0927H15.4168ZM27.5002 25.9157V27.0927H22.5282V19.7007H27.3902V20.8777H23.9802V22.6597H27.2692V23.8147H23.9802V25.9157H27.5002ZM33.9025 25.9157V27.0927H28.9305V19.7007H33.7925V20.8777H30.3825V22.6597H33.6715V23.8147H30.3825V25.9157H33.9025Z" fill="white"/>
<path d="M4 34.7725H2V36.7725H4V34.7725ZM40 34.7725V36.7725H42V34.7725H40ZM41.5 31.2607H39.5V33.2607H41.5V31.2607ZM41.5 19.2607V17.2607H39.5V19.2607H41.5ZM56.9531 31.2607V33.2607H60.233L58.7311 30.3449L56.9531 31.2607ZM52.0287 21.7002L50.2507 22.616V22.616L52.0287 21.7002ZM41.5 17.7607H39.5V19.7607H41.5V17.7607ZM53.3622 21.0133L55.1402 20.0975V20.0975L53.3622 21.0133ZM58.6404 31.2607L56.8624 32.1765V32.1766L58.6404 31.2607ZM59.0419 32.0402L57.2639 32.9561L57.5696 33.5495L58.1704 33.8404L59.0419 32.0402ZM61.2431 33.106L62.1147 31.3059L62.1147 31.3059L61.2431 33.106ZM58.383 47.7607V45.7607H56.1354L56.3966 47.9932L58.383 47.7607ZM44.2439 47.7607L46.2304 47.9932L46.4916 45.7607H44.2439V47.7607ZM21.7729 47.7607V45.7607H19.5253L19.7865 47.9931L21.7729 47.7607ZM7.63379 47.7607L9.62024 47.9931L9.8814 45.7607H7.63379V47.7607ZM21.4311 46.2607L19.5403 46.9128L20.0052 48.2607H21.4311V46.2607ZM7.97566 46.2607V48.2607H9.40152L9.86638 46.9128L7.97566 46.2607ZM4 36.2725V34.2725H2V36.2725H4ZM40 36.2725H42V34.2725H40V36.2725ZM40 46.2607V48.2607H42V46.2607H40ZM58.0411 46.2607L56.1504 46.9128L56.6153 48.2607H58.0411V46.2607ZM44.5858 46.2607V48.2607H46.0116L46.4765 46.9128L44.5858 46.2607ZM41.5012 46.2607L39.5012 46.2609L39.5013 48.2607H41.5012V46.2607ZM41.5001 32.7607V30.7607H39.5L39.5001 32.7609L41.5001 32.7607ZM56.9742 32.7607L56.9782 30.7607H56.9742V32.7607ZM57.1911 32.8107L58.0627 31.0106L58.0627 31.0106L57.1911 32.8107ZM60.5894 34.4561L61.461 32.656L60.5894 34.4561ZM62 46.2607V48.2607H64V46.2607H62ZM9.45492 27.0927H7.45492V29.0927H9.45492V27.0927ZM10.9069 27.0927V29.0927H12.9069V27.0927H10.9069ZM9.45492 19.7007V17.7007H7.45492V19.7007H9.45492ZM14.1519 19.7007H16.1519V17.7007H14.1519V19.7007ZM14.1519 20.8777V22.8777H16.1519V20.8777H14.1519ZM10.9069 20.8777V18.8777H8.90692V20.8777H10.9069ZM10.9069 22.6487H8.90692V24.6487H10.9069V22.6487ZM13.9209 22.6487H15.9209V20.6487H13.9209V22.6487ZM13.9209 23.8257V25.8257H15.9209V23.8257H13.9209ZM10.9069 23.8257V21.8257H8.90692V23.8257H10.9069ZM16.8688 23.0117H14.8688V25.0117H16.8688V23.0117ZM16.8688 20.8777V18.8777H14.8688V20.8777H16.8688ZM19.1458 22.7477L17.8707 21.207L17.8574 21.218L17.8443 21.2292L19.1458 22.7477ZM19.1458 21.1417L17.8443 22.6603L17.8574 22.6715L17.8707 22.6825L19.1458 21.1417ZM15.4168 19.7007V17.7007H13.4168V19.7007H15.4168ZM15.4168 27.0927H13.4168V29.0927H15.4168V27.0927ZM20.2898 20.2617L19.0193 21.8063L19.0268 21.8125L19.0343 21.8186L20.2898 20.2617ZM20.6088 23.1767L18.9499 22.0595L18.9447 22.0673L20.6088 23.1767ZM19.6298 23.9577L18.8814 22.103L16.8407 22.9265L17.8549 24.8795L19.6298 23.9577ZM21.2578 27.0927V29.0927H24.55L23.0328 26.171L21.2578 27.0927ZM19.7178 27.0927L17.9426 28.014L18.5024 29.0927H19.7178V27.0927ZM18.2108 24.1887L19.986 23.2675L19.4262 22.1887H18.2108V24.1887ZM16.8688 24.1887V22.1887H14.8688V24.1887H16.8688ZM16.8688 27.0927V29.0927H18.8688V27.0927H16.8688ZM27.5002 27.0927V29.0927H29.5002V27.0927H27.5002ZM27.5002 25.9157H29.5002V23.9157H27.5002V25.9157ZM22.5282 27.0927H20.5282V29.0927H22.5282V27.0927ZM22.5282 19.7007V17.7007H20.5282V19.7007H22.5282ZM27.3902 19.7007H29.3902V17.7007H27.3902V19.7007ZM27.3902 20.8777V22.8777H29.3902V20.8777H27.3902ZM23.9802 20.8777V18.8777H21.9802V20.8777H23.9802ZM23.9802 22.6597H21.9802V24.6597H23.9802V22.6597ZM27.2692 22.6597H29.2692V20.6597H27.2692V22.6597ZM27.2692 23.8147V25.8147H29.2692V23.8147H27.2692ZM23.9802 23.8147V21.8147H21.9802V23.8147H23.9802ZM23.9802 25.9157H21.9802V27.9157H23.9802V25.9157ZM33.9025 27.0927V29.0927H35.9025V27.0927H33.9025ZM33.9025 25.9157H35.9025V23.9157H33.9025V25.9157ZM28.9305 27.0927H26.9305V29.0927H28.9305V27.0927ZM28.9305 19.7007V17.7007H26.9305V19.7007H28.9305ZM33.7925 19.7007H35.7925V17.7007H33.7925V19.7007ZM33.7925 20.8777V22.8777H35.7925V20.8777H33.7925ZM30.3825 20.8777V18.8777H28.3825V20.8777H30.3825ZM30.3825 22.6597H28.3825V24.6597H30.3825V22.6597ZM33.6715 22.6597H35.6715V20.6597H33.6715V22.6597ZM33.6715 23.8147V25.8147H35.6715V23.8147H33.6715ZM30.3825 23.8147V21.8147H28.3825V23.8147H30.3825ZM30.3825 25.9157H28.3825V27.9157H30.3825V25.9157ZM8.5 13.2607H35.5V9.26074H8.5V13.2607ZM6 15.7607C6 14.38 7.11929 13.2607 8.5 13.2607V9.26074C4.91015 9.26074 2 12.1709 2 15.7607H6ZM6 34.7725V15.7607H2V34.7725H6ZM40 32.7725H4V36.7725H40V32.7725ZM38 32.7607V34.7725H42V32.7607H38ZM38 31.2607V32.7607H42V31.2607H38ZM38 19.2607V31.2607H42V19.2607H38ZM38 17.7607V19.2607H42V17.7607H38ZM38 15.7607V17.7607H42V15.7607H38ZM35.5 13.2607C36.8807 13.2607 38 14.38 38 15.7607H42C42 12.1709 39.0899 9.26074 35.5 9.26074V13.2607ZM43.5 31.2607V19.2607H39.5V31.2607H43.5ZM56.9531 29.2607H41.5V33.2607H56.9531V29.2607ZM50.2507 22.616L55.1751 32.1765L58.7311 30.3449L53.8067 20.7844L50.2507 22.616ZM48.0282 21.2607C48.9643 21.2607 49.822 21.7838 50.2507 22.616L53.8067 20.7844C52.6922 18.6206 50.4622 17.2607 48.0282 17.2607V21.2607ZM41.5 21.2607H48.0282V17.2607H41.5V21.2607ZM48.0282 15.7607H41.5V19.7607H48.0282V15.7607ZM55.1402 20.0975C53.7685 17.4344 51.0239 15.7607 48.0282 15.7607V19.7607C49.526 19.7607 50.8983 20.5976 51.5842 21.9291L55.1402 20.0975ZM60.4184 30.3449L55.1402 20.0975L51.5842 21.9291L56.8624 32.1765L60.4184 30.3449ZM60.8199 31.1244L60.4184 30.3449L56.8624 32.1766L57.2639 32.9561L60.8199 31.1244ZM62.1147 31.3059L59.9135 30.2401L58.1704 33.8404L60.3716 34.9061L62.1147 31.3059ZM65.5 36.7062C65.5 34.406 64.185 32.3083 62.1147 31.3059L60.3716 34.9061C61.0617 35.2402 61.5 35.9395 61.5 36.7062H65.5ZM65.5 46.2607V36.7062H61.5V46.2607H65.5ZM62 49.7607C63.933 49.7607 65.5 48.1937 65.5 46.2607H61.5C61.5 45.9846 61.7239 45.7607 62 45.7607V49.7607ZM58.383 49.7607H62V45.7607H58.383V49.7607ZM60.4321 48.6055C60.4321 48.2419 60.4109 47.8824 60.3695 47.5283L56.3966 47.9932C56.42 48.1932 56.4321 48.3975 56.4321 48.6055H60.4321ZM51.3135 57.7611C56.3593 57.7611 60.4321 53.6522 60.4321 48.6055H56.4321C56.4321 51.4626 54.1307 53.7611 51.3135 53.7611V57.7611ZM42.1948 48.6055C42.1948 53.6522 46.2676 57.7611 51.3135 57.7611V53.7611C48.4963 53.7611 46.1948 51.4626 46.1948 48.6055H42.1948ZM42.2575 47.5283C42.216 47.8824 42.1948 48.2419 42.1948 48.6055H46.1948C46.1948 48.3975 46.207 48.1932 46.2304 47.9932L42.2575 47.5283ZM41.5 49.7607H44.2439V45.7607H41.5V49.7607ZM40.0013 49.7607H41.5V45.7607H40.0013V49.7607ZM40 49.7607H40.0013V45.7607H40V49.7607ZM21.7729 49.7607H40V45.7607H21.7729V49.7607ZM23.822 48.6054C23.822 48.2418 23.8008 47.8823 23.7594 47.5284L19.7865 47.9931C19.8099 48.1932 19.822 48.3974 19.822 48.6054H23.822ZM14.7034 57.7609C19.7492 57.7609 23.822 53.6521 23.822 48.6054H19.822C19.822 51.4625 17.5206 53.7609 14.7034 53.7609V57.7609ZM5.58472 48.6054C5.58472 53.6521 9.65753 57.7609 14.7034 57.7609V53.7609C11.8862 53.7609 9.58472 51.4625 9.58472 48.6054H5.58472ZM5.64734 47.5284C5.60592 47.8823 5.58472 48.2418 5.58472 48.6054H9.58472C9.58472 48.3974 9.59684 48.1932 9.62024 47.9931L5.64734 47.5284ZM6.5 49.7607H7.63379V45.7607H6.5V49.7607ZM0.5 43.7607C0.5 47.0745 3.18629 49.7607 6.5 49.7607V45.7607C5.39543 45.7607 4.5 44.8653 4.5 43.7607H0.5ZM0.5 15.7607V43.7607H4.5V15.7607H0.5ZM8.5 7.76074C4.08172 7.76074 0.5 11.3425 0.5 15.7607H4.5C4.5 13.5516 6.29086 11.7607 8.5 11.7607V7.76074ZM35.5 7.76074H8.5V11.7607H35.5V7.76074ZM43.5 15.7607C43.5 11.3425 39.9183 7.76074 35.5 7.76074V11.7607C37.7091 11.7607 39.5 13.5516 39.5 15.7607H43.5ZM43.5 17.7607V15.7607H39.5V17.7607H43.5ZM23.3218 45.6087C22.0882 42.0318 18.7026 39.4498 14.7034 39.4498V43.4498C16.9332 43.4498 18.8424 44.8889 19.5403 46.9128L23.3218 45.6087ZM14.7034 39.4498C10.7041 39.4498 7.31849 42.0318 6.08494 45.6087L9.86638 46.9128C10.5644 44.8889 12.4735 43.4498 14.7034 43.4498V39.4498ZM6.5 48.2607H7.97566V44.2607H6.5V48.2607ZM2 43.7607C2 46.246 4.01472 48.2607 6.5 48.2607V44.2607C6.22386 44.2607 6 44.0369 6 43.7607H2ZM2 36.2725V43.7607H6V36.2725H2ZM40 34.2725H4V38.2725H40V34.2725ZM42 46.2607V36.2725H38V46.2607H42ZM21.4311 48.2607H40V44.2607H21.4311V48.2607ZM59.9318 45.6087C58.6982 42.0319 55.3127 39.45 51.3135 39.45V43.45C53.5433 43.45 55.4524 44.889 56.1504 46.9128L59.9318 45.6087ZM51.3135 39.45C47.3143 39.45 43.9287 42.0319 42.6951 45.6087L46.4765 46.9128C47.1745 44.889 49.0837 43.45 51.3135 43.45V39.45ZM41.5012 48.2607H44.5858V44.2607H41.5012V48.2607ZM39.5001 32.7609L39.5012 46.2609L43.5012 46.2606L43.5001 32.7606L39.5001 32.7609ZM56.9733 30.7607H41.5001V34.7607H56.9733V30.7607ZM56.9742 30.7607H56.9733V34.7607H56.9742V30.7607ZM58.0627 31.0106C57.7245 30.8469 57.3538 30.7615 56.9782 30.7607L56.9703 34.7607C56.7449 34.7603 56.5225 34.7091 56.3196 34.6108L58.0627 31.0106ZM61.461 32.656L58.0627 31.0106L56.3196 34.6108L59.7179 36.2562L61.461 32.656ZM64 36.7062C64 34.981 63.0137 33.4077 61.461 32.656L59.7179 36.2562C59.8904 36.3397 60 36.5145 60 36.7062H64ZM64 46.2607V36.7062H60V46.2607H64ZM58.0411 48.2607H62V44.2607H58.0411V48.2607ZM9.45492 29.0927H10.9069V25.0927H9.45492V29.0927ZM7.45492 19.7007V27.0927H11.4549V19.7007H7.45492ZM14.1519 17.7007H9.45492V21.7007H14.1519V17.7007ZM16.1519 20.8777V19.7007H12.1519V20.8777H16.1519ZM10.9069 22.8777H14.1519V18.8777H10.9069V22.8777ZM12.9069 22.6487V20.8777H8.90692V22.6487H12.9069ZM13.9209 20.6487H10.9069V24.6487H13.9209V20.6487ZM15.9209 23.8257V22.6487H11.9209V23.8257H15.9209ZM10.9069 25.8257H13.9209V21.8257H10.9069V25.8257ZM12.9069 27.0927V23.8257H8.90692V27.0927H12.9069ZM18.8688 23.0117V20.8777H14.8688V23.0117H18.8688ZM18.2658 21.0117H16.8688V25.0117H18.2658V21.0117ZM17.8443 21.2292C18.1255 20.9882 18.3635 21.0117 18.2658 21.0117V25.0117C18.9308 25.0117 19.7555 24.8593 20.4474 24.2663L17.8443 21.2292ZM17.4648 21.9447C17.4648 21.9319 17.4662 21.828 17.5264 21.6766C17.5917 21.5122 17.7068 21.3426 17.8707 21.207L20.421 24.2885C21.2233 23.6245 21.4648 22.7068 21.4648 21.9447H17.4648ZM17.8707 22.6825C17.7068 22.5469 17.5917 22.3772 17.5264 22.2129C17.4662 22.0615 17.4648 21.9575 17.4648 21.9447H21.4648C21.4648 21.1827 21.2233 20.265 20.421 19.601L17.8707 22.6825ZM18.2658 22.8777C18.3635 22.8777 18.1255 22.9013 17.8443 22.6603L20.4474 19.6232C19.7555 19.0302 18.9308 18.8777 18.2658 18.8777V22.8777ZM16.8688 22.8777H18.2658V18.8777H16.8688V22.8777ZM13.4168 19.7007V27.0927H17.4168V19.7007H13.4168ZM18.2768 17.7007H15.4168V21.7007H18.2768V17.7007ZM21.5604 18.7172C20.6055 17.9317 19.4021 17.7007 18.2768 17.7007V21.7007C18.9263 21.7007 19.0648 21.8438 19.0193 21.8063L21.5604 18.7172ZM22.9718 21.9447C22.9718 20.7765 22.6022 19.5573 21.5453 18.7049L19.0343 21.8186C19.0158 21.8036 18.9952 21.7828 18.9768 21.7578C18.9587 21.7332 18.9501 21.7145 18.9477 21.7086C18.944 21.6994 18.9718 21.7629 18.9718 21.9447H22.9718ZM22.2677 24.2939C22.7471 23.5821 22.9718 22.777 22.9718 21.9447H18.9718C18.9718 21.9995 18.9649 22.0261 18.9626 22.034C18.9606 22.0408 18.9581 22.0474 18.95 22.0595L22.2677 24.2939ZM20.3782 25.8124C21.1438 25.5035 21.8001 24.9954 22.2729 24.2861L18.9447 22.0673C18.9419 22.0717 18.9406 22.0729 18.941 22.0725C18.9414 22.072 18.9416 22.0719 18.9408 22.0725C18.9405 22.0728 18.9252 22.0854 18.8814 22.103L20.3782 25.8124ZM23.0328 26.171L21.4048 23.036L17.8549 24.8795L19.4829 28.0145L23.0328 26.171ZM19.7178 29.0927H21.2578V25.0927H19.7178V29.0927ZM16.4356 25.11L17.9426 28.014L21.493 26.1715L19.986 23.2675L16.4356 25.11ZM16.8688 26.1887H18.2108V22.1887H16.8688V26.1887ZM18.8688 27.0927V24.1887H14.8688V27.0927H18.8688ZM15.4168 29.0927H16.8688V25.0927H15.4168V29.0927ZM29.5002 27.0927V25.9157H25.5002V27.0927H29.5002ZM22.5282 29.0927H27.5002V25.0927H22.5282V29.0927ZM20.5282 19.7007V27.0927H24.5282V19.7007H20.5282ZM27.3902 17.7007H22.5282V21.7007H27.3902V17.7007ZM29.3902 20.8777V19.7007H25.3902V20.8777H29.3902ZM23.9802 22.8777H27.3902V18.8777H23.9802V22.8777ZM25.9802 22.6597V20.8777H21.9802V22.6597H25.9802ZM27.2692 20.6597H23.9802V24.6597H27.2692V20.6597ZM29.2692 23.8147V22.6597H25.2692V23.8147H29.2692ZM23.9802 25.8147H27.2692V21.8147H23.9802V25.8147ZM25.9802 25.9157V23.8147H21.9802V25.9157H25.9802ZM27.5002 23.9157H23.9802V27.9157H27.5002V23.9157ZM35.9025 27.0927V25.9157H31.9025V27.0927H35.9025ZM28.9305 29.0927H33.9025V25.0927H28.9305V29.0927ZM26.9305 19.7007V27.0927H30.9305V19.7007H26.9305ZM33.7925 17.7007H28.9305V21.7007H33.7925V17.7007ZM35.7925 20.8777V19.7007H31.7925V20.8777H35.7925ZM30.3825 22.8777H33.7925V18.8777H30.3825V22.8777ZM32.3825 22.6597V20.8777H28.3825V22.6597H32.3825ZM33.6715 20.6597H30.3825V24.6597H33.6715V20.6597ZM35.6715 23.8147V22.6597H31.6715V23.8147H35.6715ZM30.3825 25.8147H33.6715V21.8147H30.3825V25.8147ZM32.3825 25.9157V23.8147H28.3825V25.9157H32.3825ZM33.9025 23.9157H30.3825V27.9157H33.9025V23.9157Z" fill="black" mask="url(#path-1-inside-1_2504_299323)"/>
</svg>
