<svg xmlns="http://www.w3.org/2000/svg" width="35" height="35" viewBox="0 0 35 35" fill="none"><circle cx="17.5" cy="17.5" r="17.5" fill="#333"/><path fill="#fff" d="M11.538 7.972a1.54 1.54 0 0 0-.97.184l-.015.003A7.27 7.27 0 0 0 8.75 9.63c-.004.007-.01.007-.013.013-.42.51-.66 1.006-.724 1.495a.942.942 0 0 0-.01.221c0 .215.034.426.101.631l.02.016c.213.757.745 2.013 1.897 4.108a24.49 24.49 0 0 0 2.275 3.448c.425.542.882 1.061 1.37 1.552l.207.208c.488.486 1.007.947 1.549 1.372 1.08.857 2.23 1.62 3.44 2.283 2.09 1.156 3.345 1.688 4.097 1.902l.016.023c.273.09.563.119.85.086.487-.056.986-.3 1.491-.725.007 0 .005-.003.013-.008a7.344 7.344 0 0 0 1.463-1.811l.005-.016c.354-.681.236-1.328-.283-1.767-.007 0-1.099-.915-1.632-1.309a20.981 20.981 0 0 0-1.752-1.12c-.802-.45-1.623-.167-1.963.275l-.704.89c-.362.446-1.034.387-1.034.387-4.91-1.255-6.223-6.238-6.223-6.238s-.058-.672.39-1.035l.886-.707c.436-.339.718-1.162.268-1.968a20.07 20.07 0 0 0-1.118-1.76 44.716 44.716 0 0 0-1.306-1.632 1.293 1.293 0 0 0-.79-.468l.002-.003ZM17.919 8a.45.45 0 0 0-.297.13.414.414 0 0 0-.004.58.449.449 0 0 0 .295.134c2.354.014 4.27.747 5.84 2.213 1.555 1.455 2.348 3.432 2.367 6.026a.435.435 0 0 0 .445.417.45.45 0 0 0 .308-.126.414.414 0 0 0 .127-.297c-.02-2.758-.896-5-2.633-6.623C22.642 8.84 20.463 8.017 17.92 8Zm.768 2.19a.45.45 0 0 0-.315.114.412.412 0 0 0-.018.596c.08.081.19.129.307.132 1.682.118 2.924.648 3.834 1.6.914.956 1.349 2.118 1.314 3.572a.418.418 0 0 0 .135.282.454.454 0 0 0 .602.012.42.42 0 0 0 .147-.276c.037-1.633-.484-3.049-1.547-4.162-1.072-1.126-2.576-1.742-4.421-1.872h-.035l-.003.002Zm.671 2.266a.452.452 0 0 0-.299.117.417.417 0 0 0-.136.282.433.433 0 0 0 .418.445c.758.039 1.268.243 1.613.587.348.34.563.862.604 1.618.014.105.07.2.155.268a.453.453 0 0 0 .595-.028.414.414 0 0 0 .127-.282c-.044-.895-.312-1.638-.841-2.164-.532-.526-1.295-.799-2.204-.844h-.032Z"/><path fill="#fff" d="M17.919 8v-.15h-.008l.008.15Zm-.006.844-.01.15h.009v-.15Zm5.84 2.213-.103.11.103-.11Zm2.367 6.026-.15.001.15-.001Zm.445.417v.15h.002l-.002-.15Zm.435-.423h.15H27Zm-2.633-6.623.103-.11-.103.11Zm-5.68-.264-.004.15h.036l.033-.015-.065-.135Zm-.026.842.01-.15h-.006l-.004.15Zm3.834 1.6.109-.104-.108.103Zm1.314 3.572-.15-.003v.012l.15-.009Zm.884.018.15.016v-.012l-.15-.004Zm-1.547-4.162-.108.103.108-.103Zm-4.421-1.872.01-.15h-.01v.15Zm-.035 0v-.15h-.034l-.031.015.065.135Zm.668 2.268.002.15h.017l.016-.004-.035-.146Zm-.435.399-.15-.01v.002l.15.008Zm.418.445-.009.15h.001l.008-.15Zm1.613.587-.105.106.105-.106Zm.604 1.618-.15.008.001.013.149-.021Zm.877-.042.15.006v-.013l-.15.007Zm-.841-2.164.106-.107-.106.107Zm-2.204-.844.008-.15h-.008v.15Zm-.026 0v-.15h-.018l-.017.004.035.146ZM17.911 7.85a.6.6 0 0 0-.395.174l.213.212a.3.3 0 0 1 .197-.086l-.015-.3Zm-.395.174a.564.564 0 0 0-.166.394l.3.002c0-.067.028-.133.079-.184l-.213-.212Zm-.166.394a.563.563 0 0 0 .16.397l.216-.21a.263.263 0 0 1-.076-.185l-.3-.002Zm.16.397c.104.106.245.17.394.179l.018-.3a.299.299 0 0 1-.196-.088l-.215.209Zm.402.179c2.32.014 4.2.734 5.738 2.173l.205-.22c-1.599-1.494-3.553-2.239-5.941-2.253l-.002.3Zm5.738 2.173c1.52 1.42 2.301 3.355 2.32 5.917l.3-.002c-.02-2.627-.824-4.647-2.415-6.134l-.205.219Zm2.32 5.918a.585.585 0 0 0 .595.565v-.3c-.168 0-.293-.127-.295-.269l-.3.004Zm.597.565a.6.6 0 0 0 .41-.168l-.209-.215a.3.3 0 0 1-.205.083l.004.3Zm.41-.168a.564.564 0 0 0 .173-.405h-.3c0 .07-.029.138-.082.19l.21.215Zm.173-.406c-.02-2.791-.908-5.075-2.68-6.732l-.205.22c1.701 1.59 2.565 3.789 2.585 6.514l.3-.002Zm-2.68-6.732c-1.756-1.64-3.972-2.477-6.55-2.494l-.002.3c2.51.016 4.652.829 6.347 2.413l.205-.219Zm-5.779-.304a.6.6 0 0 0-.42.153l.202.223a.3.3 0 0 1 .21-.076l.008-.3Zm-.42.153a.564.564 0 0 0-.186.4l.3.01a.264.264 0 0 1 .088-.187l-.201-.223Zm-.186.4a.562.562 0 0 0 .162.412l.214-.21a.262.262 0 0 1-.076-.192l-.3-.01Zm.162.412c.108.11.255.173.41.177l.008-.3a.298.298 0 0 1-.204-.087l-.214.21Zm.403.177c1.654.116 2.858.635 3.737 1.553l.217-.208c-.942-.984-2.223-1.524-3.933-1.644l-.02.299Zm3.737 1.553c.884.925 1.306 2.048 1.272 3.466l.3.007c.036-1.49-.412-2.693-1.355-3.68l-.217.207Zm1.272 3.478a.568.568 0 0 0 .183.383l.204-.22a.268.268 0 0 1-.087-.18l-.3.017Zm.183.383c.108.1.25.156.397.16l.007-.3a.304.304 0 0 1-.2-.08l-.204.22Zm.397.16a.605.605 0 0 0 .404-.143l-.194-.229a.305.305 0 0 1-.203.072l-.007.3Zm.404-.143a.57.57 0 0 0 .2-.375l-.299-.031a.27.27 0 0 1-.095.177l.194.229Zm.2-.387c.037-1.67-.496-3.125-1.588-4.27l-.217.207c1.033 1.083 1.54 2.459 1.505 4.056l.3.007Zm-1.588-4.27c-1.104-1.16-2.647-1.786-4.52-1.917l-.02.299c1.817.127 3.282.732 4.323 1.825l.217-.207Zm-4.53-1.918h-.035v.3h.035v-.3Zm-.1.015-.003.002.13.27.003-.001-.13-.27Zm.731 2.253a.602.602 0 0 0-.398.157l.202.221a.302.302 0 0 1 .2-.078l-.004-.3Zm-.398.157a.567.567 0 0 0-.184.383l.299.018a.266.266 0 0 1 .087-.18l-.202-.221Zm-.185.385a.583.583 0 0 0 .56.602l.016-.3a.283.283 0 0 1-.276-.287l-.3-.015Zm.56.602c.735.037 1.205.234 1.516.543l.211-.213c-.38-.378-.93-.59-1.711-.63l-.016.3Zm1.517.544c.312.306.518.786.558 1.519l.3-.016c-.043-.78-.265-1.342-.649-1.718l-.21.215Zm.559 1.532c.02.144.096.274.21.364l.187-.234a.269.269 0 0 1-.1-.172l-.297.042Zm.21.364c.114.09.258.137.404.13l-.014-.3a.303.303 0 0 1-.203-.064l-.187.234Zm.404.13a.6.6 0 0 0 .39-.168l-.21-.215c-.05.05-.12.08-.194.083l.014.3Zm.39-.168a.564.564 0 0 0 .171-.383l-.3-.011a.264.264 0 0 1-.08.179l.208.215Zm.171-.396c-.044-.92-.321-1.703-.884-2.264l-.212.213c.495.493.755 1.195.797 2.066l.3-.015Zm-.885-2.264c-.566-.56-1.368-.84-2.301-.887l-.015.3c.884.044 1.607.308 2.105.8l.211-.213Zm-2.309-.887h-.026v.3h.026v-.3Zm-.061.004-.006.001.07.292.006-.002-.07-.291Z"/></svg>