<svg xmlns="http://www.w3.org/2000/svg" width="35" height="35" viewBox="0 0 35 35"><path fill="#333" fill-rule="evenodd" d="M17.5 34.998c-9.666 0-17.5-7.835-17.5-17.5s7.834-17.5 17.5-17.5c9.665 0 17.5 7.835 17.5 17.5s-7.835 17.5-17.5 17.5Zm10.279-8.33a2.048 2.048 0 0 1-.592.776 2.384 2.384 0 0 1-.898.432 4.593 4.593 0 0 1-1.131.132c-.391 0-.746-.031-1.065-.092a4.989 4.989 0 0 1-.838-.23l.407-1.001c.143.046.337.094.58.144.243.05.521.075.832.075.415 0 .559-.085.806-.254.247-.168.371-.463.371-.885v-.448c-.176.053-.178.097-.381.132a3.811 3.811 0 0 1-.628.051c-.854 0-1.285-.225-1.668-.678-.383-.452-.575-1.081-.575-1.886 0-.437.044-.836.132-1.196a2.38 2.38 0 0 1 .443-.932c.207-.26.297-.464.644-.61.347-.145.78-.218 1.299-.218a2.5 2.5 0 0 1 .676.086c.204.058.385.121.545.19l.048-.149h1.208V25.5c0 .46-.071.85-.215 1.168Zm-1.497-5.26c-.199-.053-.255-.081-.478-.081-.503 0-.674.143-.89.426-.215.284-.323.439-.323 1.091 0 .483.1.688.299.991.2.303.359.454.854.454.104 0 .214-.004.329-.011.116-.008.081-.034.209-.081v-2.789Zm-4.442-5.424c-1.34 0-2.322-.502-2.944-1.181-.623-.679-.934-1.643-.934-2.892 0-.645.09-1.212.269-1.703a3.2 3.2 0 0 1 .778-1.225 3.286 3.286 0 0 1 1.239-.736 5.146 5.146 0 0 1 1.664-.288c.582 0 1.125.127 1.628.3.503.172 1.056.458 1.415.857l-.97 1.332c-.223-.237-.615-.348-.93-.493-.315-.146-.688-.096-1.119-.096-.774 0-1.114.259-1.346.491-.445.445-.592.736-.592 1.664 0 .874.19 1.265.61 1.685.23.229.578.446 1.328.446.223 0 .463-.094.718-.116l.531-.39.041-.935h-2.23v-1.733h3.99v3.884c-.382.168-1.06.664-1.543.915-.435.227-1.044.214-1.603.214Zm-5.772 9.987a.554.554 0 0 1-.146.013h-.134c-.68 0-1.149-.097-1.408-.417-.26-.319-.389-.769-.389-1.351v-6.261l1.973-.393v6.43c0 .162.01.293.03.394.02.101.055.178.103.23a.353.353 0 0 0 .201.103c.085.017.188.024.31.024l-.407 1.217a.552.552 0 0 1-.133.011ZM12 8h2v6h3v2h-5V8Zm.266 10.452c.23.158.406.366.528.624.121.259.182.57.182.934 0 .388-.105.729-.316 1.024-.21.295-.373.523-.737.685.413.146.626.378.889.697.263.319.395.721.395 1.206 0 .42-.071.78-.213 1.079a1.977 1.977 0 0 1-.583.733c-.247.19-.63.329-.962.418a4.063 4.063 0 0 1-1.056.133H7.004v-7.987h3.194c.421 0 .798.036 1.13.109.332.073.707.188.938.345Zm-1.139 1.582a.74.74 0 0 0-.243-.301.91.91 0 0 0-.352-.151 2.032 2.032 0 0 0-.419-.042H8.621v1.632h1.504c.324 0 .587-.085.79-.253.202-.169.303-.352.303-.673 0-.2-.03-.084-.091-.212Zm-.085 2.635a1.046 1.046 0 0 0-.406-.193 2.13 2.13 0 0 0-.486-.054H8.621v1.991h1.517c.17 0 .333-.017.491-.049a.89.89 0 0 0 .68-.518c.069-.145.104-.017.104-.243a1.47 1.47 0 0 0-.097-.566.91.91 0 0 0-.274-.368Zm8.869-2.712c.51 0 .937.067 1.281.2.344.133.619.327.826.582.206.254.354.563.443.927.089.364.134 1.119.134 1.58 0 .97-.235 1.566-.705 2.039-.469.473-1.214.709-2.234.709-.519 0-.948-.069-1.288-.206a1.933 1.933 0 0 1-.813-.588 2.324 2.324 0 0 1-.432-.921 4.25 4.25 0 0 1-.127-1.093c0-.97.231-2.037.692-2.514.462-.476 1.203-.715 2.223-.715Zm-1.269 3.573c.028.214.082.277.164.439.08.161.188.289.321.381.134.093.31.14.529.14.518 0 .87-.162 1.056-.485.186-.323.28-.238.28-.868 0-.242-.017-.314-.049-.529a2.11 2.11 0 0 0-.164-.569.907.907 0 0 0-.328-.388.967.967 0 0 0-.54-.139c-.51 0-.857.163-1.039.491-.182.327-.273.649-.273 1.279 0 .243.014.034.043.248Z"/></svg>