<svg width="20" height="20" viewBox="0 0 20 20" fill="none" xmlns="http://www.w3.org/2000/svg">
<circle cx="10" cy="10" r="10" fill="white"/>
<path d="M9.99714 6.42578C9.29652 6.42578 8.6246 6.7041 8.1292 7.19951C7.63379 7.69492 7.35547 8.36683 7.35547 9.06745V9.90078L6.10547 12.9341H13.8888L12.6138 9.91745V9.08411C12.6182 8.38493 12.3453 7.7125 11.8548 7.2142C11.3643 6.7159 10.6963 6.43238 9.99714 6.42578Z" stroke="#DB1400" stroke-miterlimit="10"/>
<path d="M10.9016 13.957C10.9016 14.1957 10.8067 14.4246 10.638 14.5934C10.4692 14.7622 10.2403 14.857 10.0016 14.857C9.76287 14.857 9.53395 14.7622 9.36517 14.5934C9.19638 14.4246 9.10156 14.1957 9.10156 13.957" stroke="#DB1400" stroke-miterlimit="10"/>
<path d="M10.631 6.21224V6.02057C10.631 5.85039 10.5634 5.68718 10.4431 5.56685C10.3227 5.44651 10.1595 5.37891 9.98932 5.37891C9.81914 5.37891 9.65593 5.44651 9.5356 5.56685C9.41526 5.68718 9.34766 5.85039 9.34766 6.02057V6.19557" stroke="#DB1400" stroke-miterlimit="10"/>
</svg>
