<svg width="18" height="18" viewBox="0 0 18 18" fill="none" xmlns="http://www.w3.org/2000/svg">
<rect x="7.5" y="2.5" width="3" height="3" rx="0.5" stroke="#646464"/>
<rect x="7.5" y="7.5" width="3" height="3" rx="0.5" stroke="#646464"/>
<rect x="7.5" y="12.5" width="3" height="3" rx="0.5" stroke="#646464"/>
<path d="M11 14L14 14C14.5523 14 15 13.5523 15 13L15 5C15 4.44772 14.5523 4 14 4L12.3333 4" stroke="#646464" stroke-linecap="round" stroke-linejoin="round"/>
<path d="M13 3L12 4L13 5" stroke="#646464" stroke-linecap="round" stroke-linejoin="round"/>
<path d="M7 4H4C3.44772 4 3 4.44772 3 5V13C3 13.5523 3.44772 14 4 14H5.66667" stroke="#646464" stroke-linecap="round" stroke-linejoin="round"/>
<path d="M5 15L6 14L5 13" stroke="#646464" stroke-linecap="round" stroke-linejoin="round"/>
</svg>
