<svg width="24" height="24" viewBox="0 0 24 24" fill="none" xmlns="http://www.w3.org/2000/svg">
<path fill-rule="evenodd" clip-rule="evenodd" d="M3 7.25C3 4.88579 4.88579 3 7.25 3H19.5C20.3142 3 21 3.68579 21 4.5V19.5C21 20.3142 20.3142 21 19.5 21H4.5C3.68579 21 3 20.3142 3 19.5V7.25ZM7.25 4.5C5.71421 4.5 4.5 5.71421 4.5 7.25V18.1857L7.35371 14.4451C7.49558 14.2591 7.71609 14.15 7.95 14.15H11.9692L14.5522 9.72207C14.6925 9.48151 14.9546 9.33851 15.2328 9.35069C15.511 9.36287 15.7596 9.52822 15.8784 9.78012L19.5 17.4611V4.51162C19.4988 4.5099 19.4971 4.50771 19.4947 4.50533C19.4923 4.50295 19.4901 4.50121 19.4884 4.5H7.25ZM18.8029 19.5H5.38403L8.32117 15.65H12.4C12.6667 15.65 12.9134 15.5083 13.0478 15.2779L15.1296 11.7092L18.8029 19.5ZM7.8501 8.9C7.8501 8.40294 8.25304 8 8.7501 8C9.24715 8 9.6501 8.40294 9.6501 8.9C9.6501 9.39706 9.24715 9.8 8.7501 9.8C8.25304 9.8 7.8501 9.39706 7.8501 8.9ZM8.7501 6.5C7.42461 6.5 6.3501 7.57452 6.3501 8.9C6.3501 10.2255 7.42461 11.3 8.7501 11.3C10.0756 11.3 11.1501 10.2255 11.1501 8.9C11.1501 7.57452 10.0756 6.5 8.7501 6.5Z" fill="white"/>
</svg>
