<svg width="24" height="24" viewBox="0 0 24 24" fill="none" xmlns="http://www.w3.org/2000/svg">
<path fill-rule="evenodd" clip-rule="evenodd" d="M4 5.71327C4 4.87762 4.67743 4.2002 5.51308 4.2002C6.34873 4.2002 7.02616 4.87762 7.02616 5.71327C7.02616 6.54892 6.34873 7.22635 5.51308 7.22635C4.67743 7.22635 4 6.54892 4 5.71327ZM5.51308 3.2002C4.12514 3.2002 3 4.32534 3 5.71327C3 7.10121 4.12514 8.22635 5.51308 8.22635C6.72967 8.22635 7.74435 7.36187 7.97633 6.21367H20.2755C20.5517 6.21367 20.7755 5.98981 20.7755 5.71367C20.7755 5.43753 20.5517 5.21367 20.2755 5.21367H7.9765C7.74481 4.06508 6.72995 3.2002 5.51308 3.2002ZM7.97634 17.7381C7.74435 16.5899 6.72967 15.7254 5.51308 15.7254C4.12514 15.7254 3 16.8505 3 18.2385C3 19.6264 4.12514 20.7515 5.51308 20.7515C6.72994 20.7515 7.74481 19.8867 7.97649 18.7381H20.2755C20.5517 18.7381 20.7755 18.5142 20.7755 18.2381C20.7755 17.9619 20.5517 17.7381 20.2755 17.7381H7.97634ZM4 18.2385C4 17.4028 4.67743 16.7254 5.51308 16.7254C6.34873 16.7254 7.02616 17.4028 7.02616 18.2385C7.02616 19.0741 6.34873 19.7515 5.51308 19.7515C4.67743 19.7515 4 19.0741 4 18.2385ZM3.22351 11.9763C3.22351 11.7001 3.44737 11.4763 3.72351 11.4763H16.0229C16.2544 10.3275 17.2694 9.46246 18.4864 9.46246C19.8743 9.46246 20.9994 10.5876 20.9994 11.9755C20.9994 13.3635 19.8743 14.4886 18.4864 14.4886C17.2699 14.4886 16.2553 13.6243 16.0232 12.4763H3.72351C3.44737 12.4763 3.22351 12.2524 3.22351 11.9763ZM16.9763 12.0723C17.0262 12.8629 17.6832 13.4886 18.4864 13.4886C19.322 13.4886 19.9994 12.8112 19.9994 11.9755C19.9994 11.1399 19.322 10.4625 18.4864 10.4625C17.6828 10.4625 17.0256 11.0888 16.9762 11.8799C16.9823 11.9111 16.9855 11.9433 16.9855 11.9763C16.9855 12.0091 16.9824 12.0412 16.9763 12.0723Z" fill="black"/>
</svg>
