<svg width="32" height="32" viewBox="0 0 32 32" fill="none" xmlns="http://www.w3.org/2000/svg">
<path fill-rule="evenodd" clip-rule="evenodd" d="M15.6385 3.00195C16.0528 3.00195 16.3885 3.33774 16.3885 3.75195V19.7999L23.0359 13.2152C23.3301 12.9237 23.805 12.926 24.0965 13.2202C24.388 13.5145 24.3858 13.9894 24.0915 14.2809L16.1658 22.1319C15.8735 22.4215 15.4024 22.4215 15.1101 22.1319L7.1844 14.2809C6.89012 13.9894 6.88787 13.5145 7.17938 13.2202C7.47088 12.926 7.94575 12.9237 8.24003 13.2152L14.8885 19.8011V3.75195C14.8885 3.33774 15.2243 3.00195 15.6385 3.00195ZM3.75 27.4991C3.33579 27.4991 3 27.8349 3 28.2491C3 28.6633 3.33579 28.9991 3.75 28.9991H28.2477C28.6619 28.9991 28.9977 28.6633 28.9977 28.2491C28.9977 27.8349 28.6619 27.4991 28.2477 27.4991H3.75Z" fill="white"/>
</svg>
