<svg width="68" height="20" viewBox="0 0 68 20" fill="none" xmlns="http://www.w3.org/2000/svg">
<path d="M53.4668 12.0066C53.4668 12.762 53.4663 13.5174 53.4675 14.2727C53.4678 14.3973 53.4558 14.5195 53.4318 14.6418C53.34 15.1118 52.8997 15.411 52.4056 15.36C52.0602 15.3245 51.8441 15.1183 51.6978 14.8404C51.6031 14.6604 51.5881 14.4453 51.5883 14.2364C51.5893 13.1564 51.5887 12.0765 51.5887 10.9965C51.5887 10.6188 51.5956 10.241 51.5868 9.86353C51.5785 9.50191 51.6295 9.14515 51.671 8.7892C51.6958 8.57677 51.7998 8.37407 51.8617 8.16515C51.9368 7.91137 52.091 7.70164 52.2286 7.48231C52.5121 7.03015 52.8896 6.67664 53.3397 6.39042C53.5818 6.2365 53.8455 6.14501 54.1054 6.0342C54.4686 5.87934 54.8567 5.90123 55.2287 5.81907C55.3663 5.78866 55.5214 5.8292 55.6673 5.84772C56.0783 5.89961 56.4768 5.99528 56.8498 6.18528C57.0386 6.28136 57.2332 6.36637 57.4128 6.47961C57.5936 6.59366 57.7317 6.75866 57.8951 6.89393C58.0627 7.03272 58.0967 7.0465 58.2446 6.88583C58.4755 6.63488 58.7552 6.45637 59.0416 6.27745C59.1806 6.19042 59.3343 6.17028 59.4736 6.09934C59.6146 6.02758 59.7659 5.96542 59.9198 5.93218C60.2186 5.86758 60.5232 5.83245 60.8287 5.81137C60.8635 5.80893 60.899 5.81785 60.934 5.82258C61.1617 5.85299 61.3851 5.90731 61.6163 5.92082C61.8113 5.93218 61.9916 6.02258 62.1741 6.08569C62.5394 6.21204 62.8609 6.42474 63.1621 6.66312C63.4737 6.90988 63.7141 7.21663 63.9375 7.54826C64.1673 7.88961 64.2627 8.27799 64.4213 8.6438C64.4513 8.71299 64.4602 8.79177 64.4759 8.86677C64.489 8.92893 64.481 8.99799 64.5529 9.03474C64.5898 9.05353 64.5816 9.09528 64.5879 9.1292C64.6182 9.29258 64.619 9.45758 64.6182 9.62299C64.6167 9.94164 64.625 10.2606 64.6163 10.5789C64.5981 11.2506 64.637 11.9222 64.6154 12.5935C64.6029 12.9818 64.6204 13.3699 64.6037 13.7585C64.5941 13.9858 64.6113 14.2176 64.6194 14.4473C64.624 14.5787 64.586 14.6893 64.5097 14.7929C64.397 14.9457 64.2673 15.0816 64.1208 15.202C63.9454 15.3462 63.7359 15.3619 63.5206 15.3707C63.2985 15.3797 63.124 15.2843 62.9723 15.1408C62.8873 15.0606 62.819 14.9622 62.7458 14.8699C62.7089 14.8234 62.6791 14.7704 62.6774 14.7092C62.6696 14.4273 62.6028 14.1468 62.6612 13.863C62.674 13.8003 62.669 13.7337 62.669 13.6688C62.6694 12.6065 62.6741 11.5443 62.6663 10.482C62.664 10.1701 62.6609 9.85528 62.6301 9.54623C62.5841 9.08434 62.4423 8.64596 62.1197 8.2911C61.9954 8.15434 61.8256 8.07474 61.6704 7.98069C61.4075 7.8215 61.1048 7.79272 60.8075 7.75488C60.7377 7.74596 60.6663 7.75745 60.6001 7.78853C60.5189 7.82677 60.4296 7.85042 60.3432 7.8488C60.152 7.84542 60.0043 7.93893 59.8591 8.04055C59.6366 8.19623 59.4548 8.37731 59.3124 8.62393C59.1281 8.94285 59.0241 9.25542 59.0882 9.61893C59.0913 9.63623 59.0964 9.65569 59.0918 9.67163C59.0283 9.89393 59.0558 10.1185 59.069 10.3434C59.0721 10.3958 59.0659 10.4489 59.0755 10.5016C59.0828 10.5422 59.0975 10.5853 59.0904 10.6239C59.0309 10.946 59.1351 11.2693 59.0763 11.593C59.0571 11.6988 59.0779 11.815 59.0804 11.9261C59.0827 12.0341 59.0851 12.136 59.0418 12.2369C59.0204 12.2872 59.0298 12.3412 59.0478 12.3928C59.1181 12.595 59.1143 12.7965 59.0474 12.9993C59.0135 13.1023 59.0047 13.2139 59.0435 13.3131C59.1248 13.5208 59.0886 13.7319 59.0855 13.9426C59.0852 13.96 59.0735 13.9791 59.0775 13.9946C59.1506 14.2757 58.9586 14.508 58.9348 14.7712C58.9271 14.856 58.8832 14.9257 58.8223 14.9864C58.7344 15.0739 58.6441 15.1577 58.5455 15.2337C58.3813 15.36 58.1947 15.3889 57.9966 15.3756C57.9031 15.3692 57.8136 15.3269 57.7168 15.3429C57.6797 15.3491 57.6489 15.3346 57.6213 15.3081C57.5363 15.2265 57.4506 15.1458 57.3641 15.066C57.2471 14.9577 57.1821 14.8249 57.1509 14.6683C57.1091 14.4596 57.0346 14.2649 57.1025 14.0368C57.1509 13.8741 57.1127 13.6854 57.1127 13.5084C57.1127 12.4461 57.1128 11.3839 57.1125 10.3216C57.1125 10.2216 57.1196 10.1212 57.0673 10.0281C57.0396 9.9788 57.0458 9.9238 57.072 9.87474C57.1237 9.77839 57.1091 9.68096 57.0843 9.58191C57.0224 9.33529 56.9233 9.10339 56.8146 8.87434C56.7467 8.73164 56.7131 8.57488 56.6389 8.43299C56.5887 8.33691 56.5255 8.26069 56.4464 8.18582C56.1608 7.91569 55.8046 7.82461 55.4352 7.76339C55.3009 7.7411 55.1655 7.74339 55.0341 7.79582C54.9801 7.81745 54.9204 7.83231 54.8624 7.83555C54.7067 7.84434 54.5802 7.91177 54.4709 8.01637C54.1983 8.27731 53.9198 8.53231 53.6793 8.82488C53.6129 8.90555 53.5737 8.99285 53.5712 9.09853C53.57 9.15096 53.5652 9.20704 53.5458 9.25474C53.4656 9.45177 53.4655 9.65704 53.4662 9.86434C53.4681 10.5785 53.4668 11.2926 53.4668 12.0066Z" fill="#309935"/>
<path d="M33.2624 11.4727C32.3362 11.4728 31.4099 11.4727 30.4837 11.4728C30.4482 11.4728 30.4128 11.4716 30.3774 11.4733C30.1758 11.4831 30.123 11.5579 30.1914 11.7421C30.2509 11.9024 30.3127 12.0617 30.3769 12.2201C30.3966 12.2689 30.4193 12.3206 30.4545 12.3582C30.6872 12.6074 30.8749 12.9147 31.1732 13.0825C31.6273 13.3378 32.085 13.6164 32.6454 13.5627C32.7273 13.5548 32.8108 13.556 32.8869 13.5993C32.9018 13.6077 32.9237 13.6177 32.937 13.6127C33.1365 13.5395 33.3434 13.6078 33.5482 13.575C33.8959 13.5191 34.2247 13.4163 34.5401 13.2672C34.7316 13.1767 34.9172 13.0733 35.1038 12.9731C35.5601 12.7278 36.0742 12.8754 36.3359 13.3625C36.4058 13.4925 36.4312 13.6524 36.3912 13.7945C36.2999 14.119 36.1819 14.4248 35.8495 14.6024C35.5366 14.7694 35.2164 14.9213 34.8872 15.0445C34.7116 15.1104 34.5327 15.2068 34.3305 15.1959C34.2908 15.1937 34.2457 15.2028 34.2104 15.2209C34.0865 15.285 33.953 15.3043 33.8174 15.3123C33.4472 15.3337 33.0835 15.4217 32.7088 15.4041C32.4662 15.3928 32.2299 15.3412 31.9889 15.3217C31.8639 15.3117 31.7396 15.3113 31.6223 15.2293C31.5242 15.1606 31.3838 15.181 31.2658 15.1368C30.9838 15.0312 30.7093 14.9058 30.4435 14.7691C30.2097 14.6489 29.9905 14.4894 29.79 14.3178C29.5219 14.0883 29.2624 13.845 29.0512 13.5586C28.7053 13.0897 28.4414 12.5794 28.2904 12.0139C28.2858 11.9968 28.2853 11.9767 28.2757 11.9632C28.1123 11.7343 28.1637 11.459 28.1153 11.2058C28.0846 11.045 28.0719 10.8823 28.0301 10.721C27.9832 10.54 27.9745 10.346 28.0709 10.1694C28.1174 10.0841 28.1423 9.99387 28.1428 9.8986C28.1446 9.56185 28.2693 9.25658 28.372 8.9436C28.4927 8.5759 28.6735 8.23901 28.8884 7.9236C29.2765 7.3536 29.7493 6.85941 30.3434 6.50131C30.6746 6.30171 31.0237 6.13671 31.4032 6.02847C31.8365 5.90495 32.2791 5.85455 32.7191 5.77995C32.8805 5.75252 33.0373 5.79158 33.1938 5.81171C33.6685 5.87266 34.1332 5.97833 34.5703 6.18117C35.1411 6.44604 35.6649 6.78212 36.1057 7.23482C36.4739 7.61306 36.7943 8.03185 36.998 8.52036C37.1859 8.97104 37.3405 9.43671 37.3204 9.9386C37.3159 10.0505 37.3142 10.1632 37.3222 10.2748C37.3395 10.5183 37.2361 10.7168 37.1174 10.919C36.9947 11.1283 36.8188 11.2621 36.6095 11.3667C36.4295 11.4567 36.2359 11.4716 36.0411 11.472C35.115 11.4736 34.1888 11.4725 33.2624 11.4727ZM34.5393 9.73577C34.7634 9.73577 34.9873 9.73685 35.2114 9.73549C35.4322 9.73414 35.4718 9.66712 35.3768 9.46266C35.342 9.38793 35.2942 9.31509 35.2796 9.2363C35.2512 9.08401 35.1661 8.96928 35.0774 8.84995C35.0068 8.75495 34.9005 8.69158 34.8455 8.58739C34.7288 8.36631 34.5562 8.20658 34.3411 8.08414C34.2288 8.02023 34.1241 7.94279 34.018 7.86833C33.9503 7.82077 33.8843 7.76941 33.8049 7.74441C33.5535 7.66522 33.2872 7.6432 33.0408 7.54414C33.0357 7.54212 33.0292 7.54279 33.0232 7.54293C32.8173 7.54468 32.6043 7.50482 32.4072 7.5632C32.2053 7.62306 32.0039 7.67414 31.7962 7.70428C31.7793 7.70671 31.763 7.71631 31.7476 7.72482C31.5516 7.83225 31.3555 7.93955 31.1603 8.0482C31.0981 8.08279 31.0439 8.1282 30.9941 8.17901C30.8949 8.27982 30.7881 8.37414 30.6966 8.48158C30.5338 8.67279 30.3459 8.84468 30.2677 9.09996C30.2201 9.25509 30.1992 9.41995 30.1112 9.56374C30.0805 9.61387 30.1187 9.66725 30.1753 9.68968C30.2526 9.72036 30.3338 9.73509 30.4172 9.73509C31.042 9.73536 31.6672 9.74698 32.2915 9.72847C32.4696 9.7232 32.6432 9.70901 32.8224 9.73117C32.9908 9.75198 33.1651 9.74914 33.3343 9.73225C33.5311 9.71266 33.7238 9.71428 33.9208 9.73185C34.1255 9.74982 34.3331 9.73563 34.5393 9.73577Z" fill="#309935"/>
<path d="M47.8893 11.4686C47.4767 11.4686 47.064 11.4685 46.6515 11.4686C45.8383 11.4689 45.0252 11.4708 44.2123 11.4691C43.9833 11.4685 43.7546 11.4582 43.5256 11.4515C43.3373 11.4459 43.2767 11.5316 43.3494 11.7032C43.4228 11.8766 43.4735 12.0649 43.575 12.2199C43.7885 12.5455 44.047 12.8369 44.359 13.0754C44.4585 13.1515 44.5804 13.185 44.6896 13.2434C44.9616 13.3886 45.2465 13.4989 45.5548 13.5384C45.6248 13.5473 45.6961 13.5634 45.7655 13.5585C46.0642 13.5373 46.3623 13.5801 46.6606 13.5605C46.7019 13.5578 46.745 13.5627 46.7839 13.552C46.9938 13.4949 47.2055 13.4423 47.4113 13.3724C47.7247 13.2661 48.0123 13.105 48.2983 12.9396C48.5648 12.7855 48.8493 12.8159 49.1163 12.9336C49.3779 13.0489 49.5497 13.2536 49.5938 13.5478C49.5973 13.5712 49.6052 13.5951 49.6027 13.6178C49.5604 13.9943 49.4446 14.3293 49.0981 14.5415C48.8666 14.6832 48.6283 14.8142 48.3742 14.9055C48.207 14.9655 48.0483 15.0446 47.874 15.0943C47.6427 15.1603 47.4004 15.1797 47.1752 15.2699C47.1006 15.2997 47.0138 15.3019 46.9319 15.3099C46.4865 15.3532 46.0436 15.3813 45.5924 15.3465C45.2813 15.3224 44.9888 15.2395 44.6947 15.1669C44.501 15.119 44.3051 15.0472 44.1163 14.962C43.7489 14.7963 43.3943 14.6113 43.0846 14.3555C42.7112 14.0473 42.3725 13.7042 42.1039 13.2947C41.9444 13.0518 41.8215 12.7947 41.7046 12.53C41.6308 12.3628 41.5458 12.1992 41.5069 12.0223C41.4162 11.6096 41.292 11.203 41.3154 10.7695C41.3331 10.4403 41.317 10.1095 41.3565 9.78054C41.3728 9.64432 41.4246 9.51811 41.4604 9.38811C41.5429 9.08824 41.621 8.78797 41.7733 8.50878C41.8832 8.30729 41.9933 8.10554 42.114 7.91108C42.2161 7.74675 42.3446 7.59865 42.4629 7.44473C42.6878 7.15229 42.9781 6.92675 43.2592 6.69567C43.4673 6.52459 43.7135 6.40473 43.956 6.2827C44.1578 6.18121 44.369 6.11419 44.5801 6.03946C44.9679 5.90216 45.3743 5.86932 45.7742 5.80162C46.0067 5.76229 46.2471 5.76797 46.4762 5.81905C46.7342 5.87648 46.9944 5.92351 47.251 5.99216C47.5808 6.08054 47.8732 6.23865 48.1765 6.38081C48.4198 6.49486 48.617 6.67513 48.8377 6.82108C49.1332 7.01662 49.3521 7.28675 49.5865 7.54216C49.734 7.7031 49.8339 7.9004 49.956 8.08067C50.1428 8.35635 50.2396 8.67135 50.3559 8.98027C50.4986 9.35959 50.4823 9.75419 50.5263 10.1428C50.5463 10.3192 50.5212 10.5073 50.4469 10.6635C50.2835 11.007 50.0486 11.2935 49.6523 11.3876C49.4342 11.4393 49.2133 11.4739 48.9869 11.4709C48.621 11.4659 48.2552 11.4696 47.8894 11.4696C47.8893 11.4692 47.8893 11.4689 47.8893 11.4686ZM47.8296 9.73567C48.0065 9.73567 48.1835 9.73675 48.3604 9.735C48.4131 9.73446 48.4677 9.73351 48.5181 9.72C48.6289 9.69054 48.651 9.63094 48.6233 9.52081C48.582 9.35567 48.4479 9.22878 48.4369 9.05216C48.4359 9.03608 48.4252 9.01162 48.4128 9.00662C48.3016 8.96135 48.2916 8.84148 48.2281 8.76175C48.0154 8.49513 47.8193 8.21202 47.5105 8.0404C47.4386 8.00054 47.37 7.95459 47.3016 7.90878C47.0992 7.77337 46.8913 7.65324 46.6379 7.64459C46.5979 7.64324 46.557 7.62878 46.519 7.61392C46.2042 7.49054 45.8823 7.53108 45.5615 7.57621C45.4993 7.585 45.4344 7.61284 45.3829 7.64919C45.299 7.70824 45.2111 7.72513 45.1148 7.70689C45.0398 7.6927 44.9778 7.71256 44.9146 7.75216C44.8 7.82392 44.6846 7.89594 44.5636 7.95594C44.404 8.035 44.2567 8.12756 44.1285 8.25243C44.0308 8.34743 43.9601 8.46878 43.8578 8.555C43.5496 8.81446 43.4638 9.18675 43.3343 9.53824C43.3096 9.60527 43.3383 9.6527 43.3897 9.69094C43.4516 9.73702 43.5219 9.74621 43.5905 9.715C43.6488 9.68851 43.7001 9.6827 43.7581 9.71378C43.806 9.73946 43.8613 9.7354 43.9144 9.7354C44.5161 9.73567 45.1179 9.74459 45.7192 9.73C45.8859 9.72594 46.0493 9.71337 46.2175 9.73108C46.4043 9.75081 46.5974 9.75621 46.7825 9.73027C46.9697 9.70405 47.15 9.72121 47.3343 9.73364C47.4986 9.74459 47.6644 9.73581 47.8296 9.73567Z" fill="#309935"/>
<path d="M18.1722 11.4729C17.2221 11.4729 16.2718 11.4728 15.3217 11.4731C15.0267 11.4731 15.0075 11.5058 15.1317 11.772C15.1864 11.8894 15.24 12.0086 15.2791 12.1317C15.3194 12.2588 15.3835 12.3682 15.4708 12.4658C15.6319 12.6458 15.7934 12.8255 15.9564 13.0038C16.0627 13.12 16.2088 13.1797 16.3446 13.2457C16.4768 13.3098 16.6121 13.3671 16.7394 13.4421C16.8907 13.5312 17.056 13.5636 17.2317 13.5617C17.4125 13.5598 17.5956 13.5357 17.7652 13.64C17.8346 13.6828 17.9272 13.6706 18.0087 13.6548C18.1466 13.6281 18.2923 13.6405 18.4226 13.5716C18.4468 13.5588 18.4807 13.5596 18.5096 13.5615C18.7539 13.5781 18.9734 13.4905 19.1915 13.3996C19.4804 13.2792 19.7608 13.1397 20.0288 12.9788C20.4115 12.7489 20.9389 12.8907 21.2068 13.2246C21.3972 13.4619 21.3825 13.7121 21.2935 13.969C21.2499 14.095 21.201 14.2229 21.1222 14.3363C21.0737 14.4059 21.0199 14.4619 20.9469 14.5059C20.6437 14.6889 20.3238 14.8366 20.0027 14.985C19.8341 15.0629 19.6564 15.1017 19.4842 15.1424C19.1538 15.2205 18.8306 15.3298 18.4814 15.3442C18.2495 15.3536 18.0171 15.4056 17.7802 15.404C17.608 15.4028 17.4384 15.3852 17.2696 15.3593C17.1525 15.3412 17.0358 15.3309 16.9177 15.3274C16.8069 15.3242 16.6927 15.3304 16.6068 15.2351C16.5892 15.2155 16.5539 15.2038 16.5262 15.2027C16.2248 15.1912 15.9852 15.0182 15.7252 14.8986C15.3691 14.7347 15.0494 14.512 14.7529 14.2598C14.5062 14.0501 14.2715 13.8254 14.0764 13.5632C13.971 13.4216 13.8489 13.2912 13.7673 13.1334C13.5942 12.7986 13.4192 12.4627 13.3049 12.1032C13.0872 11.4192 13.0567 10.7174 13.1172 10.0043C13.1533 9.58024 13.3022 9.18944 13.4104 8.78619C13.4314 8.70795 13.475 8.63403 13.5179 8.56389C13.6746 8.30768 13.7611 8.01268 13.955 7.777C14.2435 7.42633 14.5434 7.09038 14.8989 6.80065C15.1592 6.58862 15.4488 6.44079 15.7387 6.28403C16.0471 6.11714 16.3796 6.01038 16.715 5.93579C17.321 5.80106 17.9369 5.73646 18.5553 5.87781C18.5783 5.88308 18.6012 5.89106 18.6245 5.89227C18.8308 5.90349 19.0214 5.96727 19.2092 6.05052C19.3973 6.13376 19.59 6.2043 19.7767 6.29416C20.1907 6.49335 20.5646 6.75173 20.8961 7.06065C21.1744 7.31997 21.4419 7.59714 21.6311 7.93876C21.7364 8.12876 21.8377 8.32322 21.9729 8.49538C22.0083 8.54038 22.0189 8.58943 22.0192 8.64376C22.0195 8.71498 22.0244 8.78646 22.0535 8.85214C22.27 9.34065 22.298 9.85768 22.2648 10.3779C22.2458 10.6744 22.1027 10.9252 21.8891 11.1371C21.6321 11.3921 21.3189 11.4743 20.9695 11.4735C20.0372 11.4713 19.1046 11.4729 18.1722 11.4729ZM20.2231 9.72011C20.3502 9.73619 20.3976 9.6847 20.3825 9.56065C20.3696 9.45551 20.2711 9.38943 20.2512 9.30079C20.2284 9.19903 20.235 9.09335 20.1645 9.00376C20.0807 8.89754 20.0041 8.78552 19.9219 8.67808C19.7319 8.42943 19.5345 8.1893 19.2489 8.03984C19.1608 7.99376 19.0839 7.92633 18.9975 7.87633C18.8522 7.79241 18.7284 7.66078 18.5381 7.67403C18.4092 7.68295 18.2875 7.6597 18.1727 7.58849C18.1091 7.54889 18.0276 7.54092 17.9499 7.5416C17.6744 7.54416 17.3948 7.50741 17.1323 7.63335C17.0911 7.65308 17.0407 7.66173 16.9945 7.66187C16.7884 7.662 16.6248 7.76538 16.4599 7.86984C16.4004 7.90754 16.3353 7.93646 16.2734 7.97065C16.1134 8.05903 15.951 8.14498 15.8341 8.2916C15.72 8.4347 15.5898 8.56281 15.4673 8.69795C15.3819 8.79227 15.2875 8.88916 15.3048 9.037C15.3072 9.05781 15.2991 9.08903 15.2842 9.10146C15.1572 9.20768 15.1534 9.37443 15.0833 9.50835C15.0227 9.62403 15.0702 9.70092 15.201 9.71741C15.2581 9.72457 15.3191 9.70254 15.376 9.71052C15.7342 9.76106 16.0939 9.72592 16.4529 9.7343C16.5694 9.737 16.6894 9.75295 16.7999 9.69335C16.8269 9.67876 16.8587 9.68106 16.8856 9.69484C16.991 9.74849 17.1044 9.73484 17.2156 9.73511C17.693 9.73605 18.1704 9.73727 18.6479 9.73443C18.7938 9.73362 18.9431 9.75849 19.0844 9.69592C19.1125 9.68349 19.1429 9.69011 19.1702 9.70281C19.2596 9.74443 19.3549 9.7316 19.4487 9.73579C19.7072 9.74795 19.9649 9.71687 20.2231 9.72011Z" fill="#309935"/>
<path d="M5.87313 10.5896C5.81367 10.9916 5.95137 11.36 6.07394 11.7294C6.13583 11.9157 6.25705 12.0718 6.36962 12.2306C6.43435 12.3219 6.50664 12.4085 6.56462 12.5039C6.62191 12.5983 6.7184 12.6522 6.79678 12.7146C7.01164 12.8857 7.20286 13.0973 7.47246 13.1898C7.72894 13.2777 7.98732 13.36 8.24637 13.4399C8.34962 13.4718 8.45651 13.4345 8.56273 13.4384C8.87408 13.4498 9.17759 13.4235 9.48219 13.3218C9.84719 13.1999 10.1734 13.0295 10.4661 12.7833C10.5875 12.6812 10.7239 12.5971 10.8542 12.5057C11.1464 12.301 11.6271 12.2946 11.9408 12.5629C12.1583 12.7488 12.281 12.9814 12.3038 13.2662C12.3066 13.3011 12.3098 13.3387 12.3002 13.3714C12.2184 13.6512 12.1179 13.9252 11.8808 14.113C11.5581 14.3688 11.2326 14.6173 10.8689 14.8214C10.6193 14.9614 10.3648 15.075 10.0964 15.1502C9.79894 15.2333 9.50773 15.3396 9.18529 15.3419C8.93989 15.3435 8.69164 15.3756 8.44462 15.3661C8.19178 15.3564 7.93908 15.3334 7.68908 15.2915C7.55529 15.2691 7.43435 15.2035 7.30259 15.1688C7.0007 15.0895 6.72394 14.9477 6.44583 14.8058C6.00854 14.5829 5.64975 14.2599 5.29056 13.9381C5.13854 13.8019 5.02975 13.6189 4.88948 13.4681C4.62313 13.1817 4.47921 12.8219 4.30921 12.4821C4.22043 12.3048 4.15327 12.1034 4.12678 11.895C4.10908 11.7566 4.06056 11.6203 4.01219 11.488C3.92043 11.2373 3.88989 10.973 3.83543 10.7146C3.798 10.5375 3.81219 10.3506 3.83691 10.1684C3.84002 10.1452 3.84232 10.1183 3.85529 10.1006C3.98435 9.92287 3.98827 9.69989 4.07219 9.50611C4.0861 9.47381 4.09894 9.43949 4.10354 9.40503C4.15232 9.03084 4.32232 8.70679 4.48691 8.37219C4.71273 7.91287 5.0311 7.5307 5.38056 7.17435C5.67273 6.87638 6.00394 6.61787 6.37691 6.41706C6.70435 6.2407 7.03692 6.09205 7.40043 5.99665C7.73408 5.90908 8.07178 5.88462 8.4084 5.83408C8.69529 5.79098 8.97191 5.8357 9.25164 5.8726C9.3861 5.8903 9.52043 5.90422 9.65556 5.91597C9.86813 5.93435 10.0699 6.01354 10.2662 6.08787C10.7418 6.26773 11.1935 6.49895 11.5796 6.83719C11.7606 6.9957 11.9531 7.13962 12.1065 7.33219C12.3152 7.59408 12.3466 7.87476 12.258 8.18003C12.1718 8.47746 11.9606 8.65003 11.6839 8.77787C11.3576 8.92868 11.0812 8.84043 10.8104 8.65989C10.6633 8.56178 10.5292 8.44692 10.3941 8.33233C10.2008 8.16841 9.9857 8.03381 9.73921 7.95719C9.64381 7.92746 9.55354 7.87989 9.45719 7.85503C9.07638 7.75665 8.693 7.72841 8.30286 7.80773C8.07232 7.85462 7.84232 7.90057 7.61773 7.97179C7.55448 7.99192 7.49637 8.02043 7.4461 8.06097C7.26759 8.20462 7.04948 8.2853 6.87056 8.42895C6.70908 8.55868 6.55002 8.6857 6.46151 8.88354C6.42124 8.97368 6.32151 9.02206 6.26394 9.10638C6.17692 9.23422 6.09935 9.36152 6.06556 9.51625C6.03746 9.64476 6.01435 9.77233 5.93583 9.89178C5.8711 9.9903 5.87246 10.1284 5.8734 10.2534C5.87394 10.3654 5.87313 10.4776 5.87313 10.5896Z" fill="#309935"/>
<path d="M25.2432 9.88668C25.2432 10.4945 25.2431 11.1024 25.2433 11.7103C25.2433 11.8349 25.2429 11.9594 25.3383 12.059C25.3787 12.1011 25.3832 12.1549 25.3677 12.2084C25.3351 12.3209 25.3796 12.4145 25.4291 12.5111C25.5878 12.8198 25.831 13.046 26.1181 13.2306C26.1525 13.2528 26.1947 13.2871 26.2283 13.2821C26.4116 13.2545 26.5478 13.3868 26.7141 13.4151C26.8825 13.4436 27.0514 13.4763 27.2151 13.5244C27.5286 13.6167 27.7383 13.8129 27.8448 14.1345C27.9594 14.4809 27.8691 14.7699 27.6635 15.0448C27.5785 15.1583 27.461 15.2287 27.3343 15.2757C27.1306 15.3513 26.9259 15.4187 26.6983 15.3549C26.564 15.3174 26.4186 15.3188 26.2783 15.3025C26.0718 15.2783 25.8774 15.2276 25.6955 15.1151C25.5929 15.0515 25.469 15.0183 25.3567 14.966C24.906 14.756 24.517 14.4682 24.2113 14.0724C24.1431 13.984 24.0682 13.9005 24.0012 13.8111C23.7528 13.4797 23.6124 13.0936 23.4981 12.7052C23.3837 12.3168 23.3328 11.9102 23.3327 11.5018C23.3316 9.07628 23.3323 6.65074 23.3321 4.2252C23.3321 4.02304 23.36 3.82925 23.441 3.63952C23.5932 3.28358 24.0182 3.01425 24.3956 3.08857C24.7268 3.15384 24.9829 3.33844 25.1233 3.66695C25.2164 3.88493 25.2439 4.1079 25.2431 4.33979C25.2414 4.80006 25.2424 5.26047 25.2427 5.72074C25.2427 5.77384 25.2429 5.82695 25.2462 5.87993C25.2513 5.9633 25.297 6.00939 25.3809 6.01412C25.4279 6.01682 25.4752 6.01722 25.5224 6.01722C25.965 6.01709 26.4077 6.01641 26.8502 6.01641C26.9387 6.01641 27.0273 6.01709 27.1158 6.01993C27.667 6.03776 28.0843 6.60385 27.889 7.16993C27.7733 7.50533 27.4494 7.73506 27.094 7.75074C26.9409 7.75749 26.7871 7.75074 26.6337 7.7552C26.2458 7.76641 25.8578 7.76547 25.4698 7.75614C25.2947 7.75195 25.2437 7.80344 25.2432 7.99195C25.2413 8.62344 25.2425 9.25493 25.2425 9.88641C25.2428 9.88668 25.2429 9.88668 25.2432 9.88668Z" fill="#309935"/>
<path d="M40.1874 8.53121C40.1874 10.3836 40.1865 12.2362 40.1889 14.0886C40.1892 14.2785 40.1682 14.4653 40.1405 14.6518C40.1311 14.715 40.1176 14.7839 40.0841 14.8363C39.943 15.0565 39.7842 15.2524 39.5166 15.3411C39.3258 15.4043 39.1493 15.4066 38.9655 15.3359C38.6446 15.2124 38.4159 15.0034 38.3281 14.6604C38.3135 14.6036 38.312 14.5415 38.2734 14.4938C38.1803 14.3785 38.1938 14.252 38.2346 14.1249C38.2939 13.9395 38.2949 13.755 38.2365 13.5703C38.1945 13.4369 38.1943 13.3059 38.2387 13.1719C38.2974 12.994 38.2938 12.8118 38.2418 12.6338C38.2199 12.5588 38.2062 12.4857 38.2064 12.4085C38.2066 12.0663 38.198 11.7238 38.21 11.382C38.2165 11.1977 38.2555 11.0161 38.2095 10.8303C38.1914 10.7576 38.2097 10.6789 38.2461 10.6072C38.2857 10.5289 38.2781 10.4478 38.2458 10.3673C38.1887 10.2243 38.1895 10.0815 38.245 9.93702C38.2911 9.81729 38.2927 9.69094 38.2497 9.5731C38.2141 9.4754 38.2059 9.37891 38.2064 9.27837C38.207 9.13094 38.2057 8.98337 38.2068 8.83594C38.2072 8.78891 38.2003 8.73702 38.2173 8.69567C38.3158 8.45594 38.2604 8.20581 38.2732 7.96067C38.2745 7.93743 38.2749 7.91162 38.2666 7.89053C38.1923 7.70189 38.1797 7.5154 38.2646 7.32472C38.2884 7.27121 38.2716 7.20851 38.2488 7.15202C38.1887 7.00337 38.1984 6.85837 38.2459 6.70459C38.2987 6.53418 38.2969 6.355 38.2405 6.18297C38.1966 6.04891 38.1885 5.91716 38.242 5.78594C38.2797 5.69337 38.2812 5.60432 38.2432 5.51148C38.1897 5.3804 38.1965 5.24905 38.2391 5.11445C38.2953 4.93648 38.2927 4.75621 38.238 4.57648C38.1869 4.40891 38.1866 4.23743 38.2353 4.07162C38.2607 3.98486 38.275 3.90067 38.2749 3.81175C38.2745 3.47553 38.2747 3.13918 38.2747 2.80297C38.2747 2.78526 38.2765 2.76729 38.2742 2.74986C38.2223 2.35026 38.4238 2.05648 38.7074 1.82702C38.9374 1.64094 39.2139 1.54405 39.5145 1.69797C39.5511 1.71675 39.592 1.72662 39.6295 1.74391C39.9441 1.88959 40.108 2.13837 40.1551 2.48026C40.1965 2.7804 40.1858 3.08053 40.1861 3.3808C40.1876 5.09756 40.1868 6.81445 40.1868 8.53121C40.1868 8.53121 40.1872 8.53121 40.1874 8.53121Z" fill="#309935"/>
<path d="M10.7687 18.4463C10.5032 18.4463 10.2372 18.4555 9.97209 18.4444C9.37155 18.4194 8.77142 18.4642 8.17142 18.4456C7.68817 18.4306 7.20493 18.4453 6.72155 18.4398C6.27399 18.4345 5.82493 18.4346 5.37682 18.4476C4.98953 18.4588 4.75439 18.2206 4.56169 17.9396C4.48804 17.8322 4.44682 17.6617 4.4725 17.5368C4.50885 17.3601 4.53588 17.1638 4.68939 17.0248C4.81331 16.9125 4.95074 16.8305 5.09736 16.751C5.42763 16.5721 5.77696 16.6618 6.11858 16.6463C6.32899 16.6367 6.53966 16.6845 6.75061 16.6448C6.79061 16.6372 6.83317 16.6392 6.87426 16.6421C7.33223 16.6745 7.79074 16.6446 8.24885 16.6487C8.67871 16.6525 9.10993 16.6498 9.54034 16.6414C9.65236 16.6392 9.76399 16.6417 9.8752 16.6638C9.93209 16.6752 9.99344 16.6763 10.0511 16.6691C10.4629 16.6188 10.8752 16.6395 11.2878 16.6538C11.364 16.6565 11.4407 16.6528 11.5167 16.6461C11.7033 16.6298 11.8506 16.7291 12.0036 16.8095C12.1572 16.8902 12.2679 17.0101 12.374 17.1519C12.4849 17.3005 12.4888 17.4542 12.4879 17.6119C12.4868 17.7925 12.4129 17.9572 12.2949 18.0963C12.2302 18.1726 12.1548 18.239 12.0776 18.3037C11.9536 18.4078 11.8153 18.4517 11.6537 18.4486C11.3587 18.443 11.0636 18.4469 10.7686 18.4469C10.7686 18.4469 10.7687 18.4465 10.7687 18.4463Z" fill="#309935"/>
</svg>
