<svg width="77" height="16" viewBox="0 0 77 16" fill="none" xmlns="http://www.w3.org/2000/svg">
<g clip-path="url(#clip0_133_292479)">
<mask id="mask0_133_292479" style="mask-type:luminance" maskUnits="userSpaceOnUse" x="1" y="0" width="76" height="16">
<path d="M76.9994 0.5H1.32495V15.5H76.9994V0.5Z" fill="white"/>
</mask>
<g mask="url(#mask0_133_292479)">
<path d="M9.80169 3.34157C7.14495 3.34157 4.48828 3.33137 1.83157 3.35346C1.40691 3.35346 1.28036 3.23115 1.33812 2.83706C1.35018 2.66741 1.35018 2.49712 1.33812 2.32747C1.33812 1.22929 2.0524 0.521792 3.18031 0.519244C5.79454 0.513299 8.40879 0.519244 11.0239 0.519244C12.804 0.519244 14.5845 0.519244 16.3653 0.519244C17.6011 0.519244 18.3043 1.22674 18.3043 2.45741C18.3043 3.33986 18.3043 3.33987 17.4295 3.33987L9.80169 3.34157Z" fill="#EF3B49"/>
<path d="M26.7962 7.89044C26.7962 9.31226 26.7886 10.734 26.803 12.1558C26.803 12.4361 26.7257 12.5151 26.448 12.5066C25.7838 12.487 25.1188 12.4811 24.4555 12.5066C24.1318 12.5202 24.0614 12.4216 24.0622 12.1108C24.075 9.33686 24.0715 6.56384 24.069 3.78736C24.069 3.15801 24.1539 3.24294 23.4974 3.23869C22.7908 3.23359 22.0842 3.22341 21.3741 3.24464C21.087 3.25313 21.0174 3.1597 21.0276 2.88707C21.0471 2.31123 21.0437 1.73283 21.0276 1.15614C21.0208 0.914079 21.0649 0.816406 21.3444 0.816406C24.0583 0.828296 26.7721 0.828296 29.486 0.816406C29.7273 0.816406 29.802 0.885202 29.796 1.12471C29.7807 1.72944 29.779 2.33586 29.796 2.94058C29.8037 3.19538 29.6975 3.24209 29.4716 3.23954C28.6945 3.2285 27.9165 3.24634 27.1393 3.2285C26.8667 3.22255 26.7826 3.29305 26.7852 3.57503C26.8039 5.01804 26.7962 6.45426 26.7962 7.89044Z" fill="#2E2F3F"/>
<path d="M40.0389 10.1165C40.0389 10.7671 40.0338 11.3854 40.0389 12.0037C40.0441 12.0341 40.0431 12.0651 40.0361 12.0951C40.0291 12.125 40.0161 12.1533 39.998 12.1781C39.9799 12.203 39.9569 12.224 39.9306 12.2398C39.9042 12.2556 39.8749 12.2661 39.8444 12.2704C39.0741 12.4836 38.2901 12.5846 37.5011 12.4479C36.5821 12.2891 36.0139 11.6759 35.8687 10.7492C35.8291 10.514 35.8081 10.276 35.8059 10.0375C35.8059 6.99862 35.8059 3.95885 35.7957 0.919952C35.7957 0.591262 35.8738 0.481698 36.2143 0.495287C36.8199 0.523315 37.4298 0.524164 38.0353 0.495287C38.3946 0.478301 38.5135 0.557289 38.5101 0.949679C38.4897 3.62252 38.5271 6.29621 38.4872 8.96902C38.4727 10.1649 38.8983 10.4146 40.0389 10.1165Z" fill="#2E2F3F"/>
<path d="M73.0076 10.0086C73.649 8.03299 74.4584 6.07955 75.1574 4.08617C75.2576 3.79995 75.395 3.68444 75.7028 3.71162C76.0268 3.7354 76.352 3.7354 76.676 3.71162C76.9826 3.69293 77.0726 3.74984 76.9412 4.07513C75.8954 6.66217 74.8652 9.25603 73.8308 11.8474C73.5914 12.4419 73.3706 13.0517 73.1102 13.642C72.3866 15.2897 70.7036 15.9352 69.1652 15.1852C68.8772 15.0451 68.7728 14.9041 68.9684 14.6238C68.9966 14.5756 69.0212 14.525 69.0416 14.4726C69.1484 14.245 69.1994 13.9384 69.3812 13.8127C69.563 13.687 69.7844 13.9673 70.013 14.0233C70.5974 14.1669 71.1416 13.9681 71.5496 13.4008C71.8466 12.9863 71.9972 12.4988 72.2024 12.0418C72.278 11.872 72.1712 11.7446 72.1178 11.6087C71.06 9.11761 70.0046 6.62569 68.9324 4.14053C68.786 3.8008 68.8076 3.67255 69.212 3.71587C69.671 3.76428 70.2374 3.53581 70.571 3.8059C70.874 4.05475 70.9382 4.59832 71.0984 5.01534C71.7326 6.68935 72.3752 8.36425 73.0076 10.0086Z" fill="#2E2F3F"/>
<path d="M35.0342 10.1182C35.0342 10.7696 35.0291 11.3922 35.0342 12.0054C35.0388 12.0356 35.0373 12.0665 35.0299 12.0962C35.0224 12.1258 35.009 12.1536 34.9905 12.1781C34.9721 12.2025 34.949 12.2229 34.9224 12.2382C34.8959 12.2535 34.8666 12.2633 34.8363 12.267C34.0532 12.4878 33.2556 12.5974 32.4581 12.4368C31.4211 12.2296 30.8164 11.4848 30.807 10.3883C30.7892 8.32102 30.807 6.25288 30.7952 4.18817C30.7952 3.91213 30.8928 3.86373 31.1349 3.86882C31.7982 3.88326 32.4624 3.88836 33.1257 3.86882C33.4094 3.85948 33.4841 3.94866 33.4816 4.22299C33.4706 5.7985 33.5011 7.37398 33.4671 8.94868C33.4485 9.9823 33.6684 10.4655 35.0342 10.1182Z" fill="#2E2F3F"/>
<path d="M32.267 3.42974C31.9794 3.42838 31.6986 3.34209 31.4598 3.18169C31.221 3.0213 31.035 2.79396 30.925 2.5282C30.815 2.26243 30.7859 1.9701 30.8414 1.68788C30.897 1.40566 31.0346 1.14613 31.2371 0.941863C31.4396 0.737599 31.698 0.5977 31.9797 0.539728C32.2614 0.481755 32.554 0.508292 32.8207 0.616006C33.0874 0.72372 33.3164 0.907813 33.4788 1.14518C33.6413 1.38254 33.7299 1.66261 33.7338 1.95021C33.7364 2.14415 33.7004 2.33667 33.6277 2.51651C33.5551 2.69635 33.4473 2.85992 33.3108 2.99766C33.1742 3.1354 33.0116 3.24456 32.8324 3.31874C32.6532 3.39293 32.461 3.43066 32.267 3.42974Z" fill="#2F2F40"/>
<path d="M53.012 4.86428C52.9704 4.94072 52.9024 5.10379 52.8642 4.88891C52.8345 4.63754 52.8345 4.38353 52.8642 4.13216C52.8786 3.89264 52.8167 3.78478 52.5423 3.77714C51.4849 3.74741 51.4849 3.73637 51.4849 4.78953C51.4849 8.12232 51.4917 11.4551 51.4755 14.7878C51.4755 15.1853 51.5919 15.2974 51.9732 15.2702C52.3232 15.2414 52.6782 15.2702 53.0315 15.2762C52.5525 15.4291 52.0607 15.3127 51.5767 15.3424C51.4543 15.3501 51.4025 15.2728 51.4068 15.1547C51.4068 15.0562 51.4068 14.9577 51.4068 14.8592C51.4068 11.303 51.4144 7.7469 51.3958 4.18991C51.3958 3.76949 51.5189 3.64379 51.9164 3.6956C52.2358 3.73722 52.6391 3.56905 52.8608 3.7593C53.0825 3.94955 52.9118 4.36827 52.9457 4.68337C52.9432 4.75131 52.933 4.82775 53.012 4.86428Z" fill="#6C6774"/>
<path d="M18.3168 6.08691C18.321 5.74208 18.2378 5.63846 17.8777 5.64016C15.1938 5.6563 12.5099 5.6495 9.82601 5.6495C7.14215 5.6495 4.45742 5.6563 1.77355 5.64016C1.41598 5.64016 1.32934 5.73953 1.33444 6.08521C1.35312 7.56217 1.34208 9.04003 1.34293 10.517C1.34293 11.6211 2.04278 12.3728 3.14181 12.3753C7.59119 12.3889 12.0411 12.3889 16.4916 12.3753C17.5915 12.3753 18.3066 11.611 18.3083 10.5196C18.31 9.04171 18.2972 7.56475 18.3168 6.08691ZM12.3367 10.9723H9.79715C8.73803 10.9723 7.67975 10.9646 6.62066 10.9773C6.36586 10.9773 6.28858 10.9069 6.28093 10.647C6.26649 9.56833 6.25715 9.56833 7.35107 9.56833C9.20093 9.56833 11.0499 9.57427 12.8998 9.56323C13.2047 9.56323 13.3457 9.60313 13.3388 9.96409C13.3219 10.9723 13.3406 10.9723 12.3367 10.9723ZM15.148 8.29261C11.4338 8.29261 7.71971 8.28667 4.00473 8.30113C3.61234 8.30113 3.46626 8.23063 3.48239 7.80253C3.51806 6.89035 3.49259 6.88867 4.41665 6.88867H9.83963C11.8024 6.88867 13.7661 6.89461 15.7289 6.88273C16.0381 6.88273 16.1722 6.92941 16.1654 7.28701C16.145 8.29261 16.1671 8.29261 15.148 8.29261Z" fill="#EF3B49"/>
<path d="M49.4484 7.0367C48.9957 5.11385 47.2775 3.76171 45.1839 3.70226C43.6551 3.65894 42.2817 4.07342 41.3093 5.30409C40.1075 6.82352 39.9656 8.53154 40.7801 10.2574C41.5946 11.9832 43.1175 12.6355 44.5664 12.6686C48.1396 12.6644 50.1729 10.1155 49.4484 7.0367ZM46.8375 8.19944C46.8036 9.09212 46.5207 9.8582 45.6578 10.2718C44.7236 10.7194 43.5923 10.2259 43.2143 9.20336C42.9408 8.46446 42.9595 7.71704 43.3196 7.0019C43.6797 6.28677 44.2641 5.93684 45.0608 5.97591C45.8252 6.01498 46.3347 6.45324 46.638 7.12928C46.788 7.46648 46.8564 7.83428 46.8375 8.20286V8.19944Z" fill="#2E2F3F"/>
<path d="M58.4802 4.85547C57.1 3.06338 54.2335 3.06763 53.0113 4.86481C52.8415 4.87245 52.9035 4.73911 52.8907 4.65672C52.8441 4.35946 53.0403 3.96197 52.7914 3.78276C52.568 3.62139 52.1884 3.76663 51.8818 3.73266C51.5225 3.69274 51.4418 3.83712 51.4426 4.17855C51.4545 7.56312 51.4503 10.9494 51.4503 14.3348C51.4503 14.5735 51.4503 14.8121 51.4503 15.0508C51.4461 15.2156 51.4817 15.3226 51.6813 15.3116C52.1306 15.2878 52.5816 15.3498 53.0301 15.2767C53.0518 15.2272 53.0667 15.1749 53.0742 15.1213C53.0742 13.9535 53.0742 12.7856 53.0742 11.6187C53.0742 11.4259 52.9757 11.2288 53.0827 11.0242C54.5266 12.8833 57.2444 12.4425 58.4335 10.9154C59.665 9.3348 59.7007 6.44202 58.4802 4.85547ZM57.2911 9.68814C56.841 10.4525 56.1734 10.8772 55.2757 10.85C54.4026 10.8263 53.7859 10.36 53.4072 9.6024C52.867 8.52288 52.8534 7.4043 53.3222 6.30103C53.7214 5.35827 54.5784 4.88094 55.5984 4.96248C56.5412 5.03723 57.3226 5.76425 57.5943 6.82164C57.6858 7.17096 57.7238 7.53204 57.7073 7.8927C57.7328 8.53818 57.6181 9.1395 57.2954 9.68814H57.2911Z" fill="#2E2F3F"/>
<path d="M67.5969 6.26023C67.5579 4.88771 66.6261 3.86512 65.2953 3.61881C63.9975 3.37845 62.7795 3.61202 61.6185 4.23033C61.2495 4.42738 61.1541 4.62017 61.4319 4.95821C61.5339 5.09292 61.6173 5.24058 61.6809 5.39731C61.7913 5.64276 61.8939 5.72345 62.1639 5.5366C62.7129 5.15894 63.3567 4.94214 64.0221 4.91064C64.9785 4.85969 65.7411 5.16545 65.9475 6.14302C66.0903 6.81654 66.0945 6.80892 65.4237 6.83016C64.2345 6.86838 63.0531 6.9465 61.9743 7.51722C61.0023 8.03106 60.5519 8.84304 60.6428 9.94038C60.7277 11.0148 61.3437 11.6959 62.3259 12.0484C63.7767 12.569 65.1027 12.1333 66.0081 10.8814C66.2127 10.8746 66.1131 11.03 66.1233 11.1142C66.1629 11.4224 66.0615 11.741 66.1827 12.0484C66.5787 12.0484 66.9747 12.0399 67.3719 12.0544C67.5783 12.062 67.6377 11.9881 67.6371 11.7885C67.6209 9.94374 67.6479 8.10072 67.5969 6.26023ZM66.0081 8.46846C65.9757 9.69324 65.0841 10.7761 64.0035 10.9231C62.9097 11.0725 62.0295 10.1935 62.3289 9.25494C62.4135 8.96772 62.6055 8.72424 62.8653 8.5755C63.7995 8.03616 64.8375 8.0574 65.8671 8.0829C66.1455 8.0931 65.9385 8.36232 66.0081 8.4702V8.46846Z" fill="#2E2F3F"/>
</g>
</g>
<defs>
<clipPath id="clip0_133_292479">
<rect width="76.2" height="15" fill="white" transform="translate(0.800049 0.5)"/>
</clipPath>
</defs>
</svg>
