<svg width="64" height="64" viewBox="0 0 64 64" fill="none" xmlns="http://www.w3.org/2000/svg">
<path fill-rule="evenodd" clip-rule="evenodd" d="M51.7838 8.22032C52.0776 7.92656 52.5539 7.92656 52.8476 8.22032L55.7786 11.1512C55.9198 11.2925 55.9991 11.4841 55.9989 11.6839C55.9987 11.8836 55.9191 12.0751 55.7776 12.216L49.9375 18.0342C49.6444 18.3262 49.1704 18.3266 48.8767 18.0352L47.9826 17.1477L38.1455 27.0066L37.0805 25.944L46.9148 16.0878L45.9458 15.1261C45.8039 14.9852 45.7239 14.7936 45.7235 14.5936C45.7231 14.3936 45.8024 14.2017 45.9438 14.0603L51.7838 8.22032ZM49.4057 16.4404L49.0452 16.0827L49.0508 16.0771L47.9858 15.0145L47.9774 15.0229L47.5415 14.5902L52.3157 9.81601L54.1819 11.6821L49.4057 16.4404Z" fill="black"/>
<path d="M23.329 34.4752L10.7422 47.0391C9.09498 48.6678 9.09064 51.317 10.7452 52.9715L11.0296 53.2559C12.6825 54.9088 15.334 54.9088 16.9869 53.2559L29.5488 40.694L30.6126 41.7579L18.0507 54.3197C15.8103 56.5601 12.2062 56.5601 9.96576 54.3197L9.68142 54.0353C7.4431 51.797 7.43832 48.1916 9.68312 45.9706L9.68443 45.9693L22.2661 33.4105L23.329 34.4752Z" fill="black"/>
<path d="M26.959 38.1057L25.8952 37.0419L14.1575 48.7795L15.2213 49.8433L26.959 38.1057Z" fill="black"/>
<path fill-rule="evenodd" clip-rule="evenodd" d="M25.5966 11.02C22.4108 7.83416 17.6682 7.17453 13.8458 9.01494C13.6261 9.12069 13.4714 9.32633 13.4305 9.56666C13.3897 9.80699 13.4678 10.0522 13.6402 10.2246L19.4733 16.0576L16.0331 19.4977L10.2219 13.6465C10.0498 13.4732 9.8043 13.3943 9.56345 13.4348C9.3226 13.4753 9.11641 13.6302 9.01045 13.8502C7.16917 17.6744 7.85294 22.4166 11.0155 25.5792C13.8902 28.4539 17.999 29.2416 21.5898 28.0387L35.9399 42.3888C34.7376 45.9623 35.5264 50.09 38.4001 52.9637C41.5622 56.1258 46.327 56.8107 50.1307 54.9679C50.3498 54.8617 50.5039 54.6561 50.5444 54.4161C50.5849 54.176 50.5067 53.9312 50.3346 53.759L44.5015 47.926L47.9435 44.484L53.7766 50.3171C53.9489 50.4895 54.1942 50.5676 54.4345 50.5268C54.6748 50.4859 54.8805 50.3311 54.9862 50.1115C56.8275 46.2873 56.1437 41.5451 52.9812 38.3826C50.1021 35.5035 45.9852 34.7177 42.3905 35.9286L28.0561 21.5942C29.2591 18.0035 28.4713 13.8947 25.5966 11.02ZM42.5007 37.5097C42.5485 37.4899 42.5933 37.4656 42.635 37.4374C45.7726 36.282 49.4019 36.9309 51.9174 39.4464C54.3451 41.8741 55.0625 45.3949 54.0394 48.4524L48.4754 42.8884C48.1817 42.5946 47.7054 42.5946 47.4116 42.8884L42.9058 47.3941C42.7648 47.5352 42.6855 47.7265 42.6855 47.926C42.6855 48.1255 42.7648 48.3168 42.9058 48.4579L48.4712 54.0232C45.4278 55.044 41.8912 54.3272 39.4639 51.8999C36.908 49.344 36.2798 45.6176 37.5109 42.4693C37.6197 42.1911 37.5535 41.8748 37.3422 41.6635L22.3157 26.637C22.1048 26.4261 21.7893 26.3598 21.5114 26.4677C18.34 27.6999 14.6349 27.071 12.0793 24.5154C9.65262 22.0887 8.93484 18.57 9.95585 15.5135L15.4976 21.0934C15.6385 21.2353 15.83 21.3152 16.03 21.3156C16.2299 21.3159 16.4218 21.2367 16.5632 21.0953L21.0689 16.5895C21.21 16.4484 21.2893 16.2571 21.2893 16.0576C21.2893 15.8581 21.21 15.6668 21.0689 15.5257L15.5045 9.96127C18.5636 8.93412 22.0864 9.63734 24.5328 12.0838C27.0884 14.6394 27.7174 18.3445 26.4852 21.5158C26.3772 21.7938 26.4436 22.1093 26.6544 22.3201L41.681 37.3466C41.8961 37.5618 42.2197 37.6261 42.5007 37.5097Z" fill="black"/>
</svg>
