<svg width="32" height="32" viewBox="0 0 32 32" fill="none" xmlns="http://www.w3.org/2000/svg">
<path fill-rule="evenodd" clip-rule="evenodd" d="M15.9882 4L16.306 4.14866L29.9764 10.5437L29.3409 11.9024L15.9882 5.65601L2.63559 11.9024L2 10.5437L15.6704 4.14866L15.9882 4ZM27.1106 17.7628H26.8186V18.5128V20.1326V20.8826H27.5686H28.2286H28.9786V20.1326V18.5128V17.7628H28.6106V15.8531L29.6294 15.3937L28.1134 14.71L16.2966 9.38083L15.9852 9.24039L15.6748 9.38315L4.08969 14.7123L2.60846 15.3937L4.08969 16.075L6.30028 17.0919V22.2783V22.7538L6.73044 22.9566L15.6699 27.1713L15.9927 27.3235L16.3145 27.1689L24.5998 23.1884L25.025 22.9841V22.5124V17.4701L27.1106 16.5296V17.7628ZM7.80028 21.8027V17.7819L15.6748 21.4042L15.9852 21.5469L16.2966 21.4065L23.525 18.1466V22.0407L15.9867 25.6623L7.80028 21.8027ZM6.19779 15.3937L15.9913 10.8886L25.9807 15.3937L15.9913 19.8987L6.19779 15.3937Z" fill="black"/>
</svg>
