<svg width="60" height="60" viewBox="0 0 60 60" fill="none" xmlns="http://www.w3.org/2000/svg">
<path fill-rule="evenodd" clip-rule="evenodd" d="M12.9258 7.00195C12.3735 7.00195 11.9258 7.44967 11.9258 8.00195V51.9986C11.9258 52.5509 12.3735 52.9986 12.9258 52.9986H35.4661C36.2831 53.7929 37.2158 54.4688 38.2365 54.9986H36.1138H12.9258C11.2689 54.9986 9.92578 53.6555 9.92578 51.9986V8.00195C9.92578 6.3451 11.2689 5.00195 12.9258 5.00195H34.3838C34.6437 5.00195 34.8934 5.10313 35.08 5.28404L49.7708 19.5291C49.9651 19.7175 50.0747 19.9765 50.0747 20.247V34.8687C49.4479 34.4525 48.7786 34.0951 48.0747 33.8044V21.0906H38.5962C35.8348 21.0906 33.5962 18.852 33.5962 16.0906V7.00195H12.9258ZM35.5962 8.57045L46.4455 19.0906H38.5962C36.9393 19.0906 35.5962 17.7475 35.5962 16.0906V8.57045Z" fill="#ffffff"/>
<path fill-rule="evenodd" clip-rule="evenodd" d="M35.9238 44.6152C35.9238 40.3674 39.3674 36.9238 43.6152 36.9238C47.8631 36.9238 51.3066 40.3674 51.3066 44.6152C51.3066 48.8631 47.8631 52.3066 43.6152 52.3066C39.3674 52.3066 35.9238 48.8631 35.9238 44.6152ZM43.6152 34.9238C38.2628 34.9238 33.9238 39.2628 33.9238 44.6152C33.9238 49.9677 38.2628 54.3066 43.6152 54.3066C45.9318 54.3066 48.0586 53.4938 49.7259 52.1378L56.3715 58.7835C56.762 59.174 57.3952 59.174 57.7857 58.7835C58.1762 58.3929 58.1762 57.7598 57.7857 57.3693L51.1399 50.7234C52.4946 49.0565 53.3066 46.9307 53.3066 44.6152C53.3066 39.2628 48.9677 34.9238 43.6152 34.9238Z" fill="#ffffff"/>
<path fill-rule="evenodd" clip-rule="evenodd" d="M29.0022 32.4842C29.0022 33.0722 29.4499 33.5493 30.0022 33.5493C30.5545 33.5493 31.0022 33.0722 31.0022 32.4842V23.7641C31.0022 23.1761 30.5545 22.6992 30.0022 22.6992C29.4499 22.6992 29.0022 23.1761 29.0022 23.7641V32.4842ZM28.9985 36.2961C28.9985 36.8515 29.4462 37.3018 29.9986 37.3018C30.5508 37.3018 30.9985 36.8515 30.9985 36.2961C30.9985 35.7406 30.5508 35.2902 29.9986 35.2902C29.4462 35.2902 28.9985 35.7406 28.9985 36.2961Z" fill="#ffffff"/>
</svg>