<svg width="48" height="49" viewBox="0 0 48 49" fill="none" xmlns="http://www.w3.org/2000/svg">
<path fill-rule="evenodd" clip-rule="evenodd" d="M39.304 5.48082C39.5966 5.77408 39.596 6.24895 39.3027 6.54148C34.0228 11.8084 34.0228 20.3778 39.3027 25.6448C39.596 25.9373 39.5966 26.4122 39.304 26.7054C39.0115 26.9987 38.5366 26.9993 38.2434 26.7067C32.3759 20.8537 32.3759 11.3325 38.2434 5.47951C38.5366 5.18698 39.0115 5.18757 39.304 5.48082ZM43.7796 10.8714C44.0721 11.1647 44.0715 11.6396 43.7783 11.9321C41.4932 14.2116 41.4932 17.8849 43.7783 20.1644C44.0715 20.4569 44.0721 20.9318 43.7796 21.2251C43.4871 21.5183 43.0122 21.5189 42.7189 21.2264C39.8463 18.3608 39.8463 13.7357 42.7189 10.8701C43.0122 10.5776 43.4871 10.5782 43.7796 10.8714ZM18.975 22.7648C15.2245 22.7648 12.2393 19.7816 12.2393 16.0494C12.2393 12.3171 15.2245 9.33388 18.975 9.33388C22.7255 9.33388 25.7108 12.3171 25.7108 16.0494C25.7108 19.7816 22.7255 22.7648 18.975 22.7648ZM18.975 24.2648C14.3996 24.2648 10.7393 20.6135 10.7393 16.0494C10.7393 11.4852 14.3996 7.83388 18.975 7.83388C23.5505 7.83388 27.2108 11.4852 27.2108 16.0494C27.2108 20.6135 23.5505 24.2648 18.975 24.2648ZM31.7854 42.7595H6.16293C5.78521 42.7595 5.5 42.4773 5.5 42.1019V35.2142C5.5 31.1478 9.22607 27.6688 14.1491 27.6688H16.3291C16.3811 27.8168 16.4587 27.9557 16.562 28.0793L18.2258 30.1539C18.2377 30.1683 18.2499 30.1822 18.2623 30.1957L16.4794 35.7947C16.3962 35.9607 16.3962 36.0437 16.4794 36.2096L18.6423 41.1887C18.8087 41.5206 19.2246 41.5206 19.391 41.2717L21.6371 36.2926C21.7203 36.1266 21.7203 36.0437 21.6371 35.8777L19.7571 29.9042L21.2206 28.0793C21.3137 27.9493 21.386 27.8109 21.4374 27.6688H23.9655C28.8792 27.6688 32.6147 31.2224 32.6147 35.2142V42.0335C32.566 42.4191 32.2081 42.7595 31.7854 42.7595ZM34.1147 35.2142V42.1019C34.0315 43.2637 33.0332 44.2595 31.7854 44.2595H6.16293C4.99828 44.2595 4 43.3466 4 42.1019V35.2142C4 30.1521 8.57544 26.1688 14.1491 26.1688H23.9655C29.5393 26.1688 34.1147 30.2351 34.1147 35.2142Z" fill="black"/>
</svg>
