<svg width="16" height="16" viewBox="0 0 16 16" fill="none" xmlns="http://www.w3.org/2000/svg">
<path fill-rule="evenodd" clip-rule="evenodd" d="M7.77859 0C6.24591 0 4.77601 0.608852 3.69225 1.69262C2.60849 2.77638 1.99963 4.24628 1.99963 5.77895C1.99963 8.30477 3.38936 10.8391 4.70003 12.6834C5.36421 13.618 6.02724 14.4017 6.52411 14.9518C6.77285 15.2272 6.98072 15.4449 7.12732 15.5946C7.20063 15.6695 7.25868 15.7275 7.29891 15.7672C7.31903 15.7871 7.3347 15.8024 7.34561 15.813L7.35835 15.8253L7.36197 15.8288L7.36308 15.8298L7.36345 15.8302C7.36359 15.8303 7.36371 15.8305 7.77859 15.397L7.36371 15.8305C7.59572 16.0525 7.96145 16.0525 8.19346 15.8305L7.77859 15.397C8.19346 15.8305 8.19358 15.8303 8.19372 15.8302L8.1941 15.8298L8.1952 15.8288L8.19882 15.8253L8.21157 15.813C8.22247 15.8024 8.23814 15.7871 8.25826 15.7672C8.29849 15.7275 8.35654 15.6695 8.42986 15.5946C8.57645 15.4449 8.78432 15.2272 9.03306 14.9518C9.52993 14.4017 10.193 13.618 10.8571 12.6834C12.1678 10.8391 13.5575 8.30477 13.5575 5.77895C13.5575 4.24628 12.9487 2.77638 11.8649 1.69262C10.7812 0.608852 9.31126 0 7.77859 0ZM8.14254 14.1475C8.0068 14.2978 7.88422 14.4296 7.77859 14.541C7.67295 14.4296 7.55038 14.2978 7.41464 14.1475C6.94045 13.6225 6.30875 12.8756 5.67819 11.9883C4.39938 10.1888 3.19963 7.91419 3.19963 5.77895C3.19963 4.56454 3.68206 3.39986 4.54078 2.54114C5.3995 1.68242 6.56417 1.2 7.77859 1.2C8.993 1.2 10.1577 1.68242 11.0164 2.54114C11.8751 3.39986 12.3575 4.56454 12.3575 5.77895C12.3575 7.91419 11.1578 10.1888 9.87899 11.9883C9.24842 12.8756 8.61672 13.6225 8.14254 14.1475ZM9.99967 6.15158C9.99967 7.37741 9.00595 8.37113 7.78012 8.37113C6.5543 8.37113 5.56057 7.37741 5.56057 6.15158C5.56057 4.92576 6.5543 3.93203 7.78012 3.93203C9.00595 3.93203 9.99967 4.92576 9.99967 6.15158Z" fill="black"/>
</svg>
