<svg width="64" height="64" viewBox="0 0 64 64" fill="none" xmlns="http://www.w3.org/2000/svg">
<path fill-rule="evenodd" clip-rule="evenodd" d="M5.06651 19.1955C5.37196 16.6138 6.66641 14.5481 7.65499 13.5595L12.4091 8.80546C13.483 7.73151 15.2242 7.73151 16.2982 8.80546L23.7724 16.2797C24.8463 17.3536 24.8463 19.0948 23.7724 20.1688L20.5302 23.4109C20.0421 23.899 20.0421 24.6905 20.5302 25.1786L32.0723 36.7207C32.5605 37.2089 33.3519 37.2089 33.8401 36.7207L37.071 33.4898C38.1509 32.4099 39.904 32.4168 40.9754 33.5053L47.6028 40.2383C48.6622 41.3146 48.6554 43.044 47.5875 44.1119L41.8633 49.8361C39.5033 52.1961 36.6948 52.3423 34.2451 51.6105C31.8307 50.8893 29.7005 49.3081 28.4661 48.0737L28.4641 48.0717L8.45845 27.9157L8.45744 27.9147C5.47667 24.9334 4.75567 21.8228 5.06651 19.1955ZM6.55612 19.3718C6.29943 21.5415 6.86115 24.1971 9.51911 26.855L9.52109 26.857L29.5267 47.0131L29.5277 47.014C30.6433 48.1293 32.566 49.5435 34.6744 50.1733C36.7481 50.7927 38.933 50.6451 40.8027 48.7754L44.1296 45.4485L35.6816 37.0005L34.9008 37.7814C33.8268 38.8553 32.0856 38.8553 31.0117 37.7814L19.4696 26.2393C18.3956 25.1654 18.3956 23.4242 19.4696 22.3502L20.2505 21.5693L11.0085 12.3274L8.71565 14.6202C7.94186 15.394 6.81825 17.1562 6.55612 19.3718ZM46.5268 43.0513L45.1903 44.3878L36.7423 35.9398L38.1316 34.5505C38.6225 34.0596 39.4194 34.0628 39.9064 34.5575L46.5337 41.2905C47.0153 41.7798 47.0122 42.5658 46.5268 43.0513ZM22.7117 19.1081L21.3111 20.5087L12.0691 11.2667L13.4697 9.86612C13.9579 9.37796 14.7493 9.37796 15.2375 9.86612L22.7117 17.3403C23.1999 17.8285 23.1999 18.6199 22.7117 19.1081ZM53.9128 30.399C53.9128 29.9513 53.8983 29.5071 53.8697 29.0668C53.8429 28.6535 54.1563 28.2966 54.5696 28.2698C54.983 28.243 55.3398 28.5564 55.3666 28.9697C55.3973 29.4423 55.4128 29.9189 55.4128 30.399C55.4128 30.8132 55.077 31.149 54.6628 31.149C54.2486 31.149 53.9128 30.8132 53.9128 30.399ZM54.406 27.0186C53.9997 27.0993 53.605 26.8353 53.5243 26.429C53.35 25.5508 53.1189 24.693 52.835 23.8595C52.7015 23.4674 52.9111 23.0413 53.3032 22.9078C53.6953 22.7742 54.1214 22.9838 54.2549 23.3759C54.56 24.2716 54.8083 25.1933 54.9956 26.1369C55.0763 26.5432 54.8123 26.938 54.406 27.0186ZM52.8182 21.7426C52.4471 21.9266 51.9971 21.7749 51.8131 21.4038C51.4174 20.6058 50.9707 19.8374 50.4772 19.1028C50.2462 18.759 50.3376 18.293 50.6815 18.062C51.0253 17.831 51.4913 17.9225 51.7223 18.2663C52.2522 19.055 52.7319 19.8803 53.157 20.7375C53.341 21.1086 53.1893 21.5586 52.8182 21.7426ZM49.9105 17.0623C49.5996 17.3361 49.1257 17.306 48.8519 16.9952C48.2651 16.3289 47.6352 15.7012 46.9666 15.1165C46.6548 14.8438 46.6231 14.3699 46.8958 14.0582C47.1685 13.7464 47.6423 13.7147 47.9541 13.9874C48.6717 14.6149 49.3477 15.2886 49.9776 16.0038C50.2514 16.3146 50.2213 16.7885 49.9105 17.0623ZM45.8935 13.2906C45.6636 13.6352 45.1979 13.7281 44.8533 13.4983C44.1173 13.0072 43.3474 12.5628 42.548 12.1692C42.1763 11.9862 42.0234 11.5366 42.2064 11.165C42.3893 10.7934 42.8389 10.6405 43.2105 10.8234C44.069 11.2461 44.8956 11.7233 45.6858 12.2505C46.0304 12.4803 46.1233 12.946 45.8935 13.2906ZM41.04 10.683C40.9073 11.0754 40.4816 11.2859 40.0892 11.1532C39.2551 10.8711 38.3967 10.6415 37.518 10.4683C37.1116 10.3881 36.8471 9.99376 36.9272 9.58737C37.0073 9.18097 37.4017 8.91647 37.8081 8.99659C38.7518 9.18263 39.6738 9.42926 40.5698 9.73226C40.9622 9.86496 41.1727 10.2906 41.04 10.683ZM35.6758 9.42487C35.6492 9.83823 35.2925 10.1517 34.8791 10.1251C34.4387 10.0968 33.9944 10.0824 33.5466 10.0824C33.1324 10.0824 32.7966 9.74657 32.7966 9.33236C32.7966 8.91814 33.1324 8.58236 33.5466 8.58236C34.0266 8.58236 34.503 8.5978 34.9755 8.62822C35.3889 8.65484 35.7024 9.01151 35.6758 9.42487ZM34.1347 15.6292C41.989 15.6292 48.3531 21.981 48.3531 29.8126C48.3531 30.2268 48.6889 30.5626 49.1031 30.5626C49.5174 30.5626 49.8531 30.2268 49.8531 29.8126C49.8531 21.1492 42.8141 14.1292 34.1347 14.1292C33.7205 14.1292 33.3847 14.465 33.3847 14.8792C33.3847 15.2934 33.7205 15.6292 34.1347 15.6292ZM35.2038 20.9626C39.5152 20.9626 43.0073 24.4489 43.0073 28.7459C43.0073 29.1601 43.343 29.4959 43.7573 29.4959C44.1715 29.4959 44.5073 29.1601 44.5073 28.7459C44.5073 23.6172 40.3403 19.4626 35.2038 19.4626C34.7896 19.4626 34.4538 19.7984 34.4538 20.2126C34.4538 20.6268 34.7896 20.9626 35.2038 20.9626Z" fill="#1A1A1A"/>
</svg>
