<svg width="80" height="80" viewBox="0 0 80 80" fill="none" xmlns="http://www.w3.org/2000/svg">
<path fill-rule="evenodd" clip-rule="evenodd" d="M7.75 11C5.67893 11 4 12.6789 4 14.75V48.75C4 50.8211 5.67893 52.5 7.75 52.5H52V51H7.75C6.50736 51 5.5 49.9926 5.5 48.75V14.75C5.5 13.5074 6.50736 12.5 7.75 12.5H61.75C62.9926 12.5 64 13.5074 64 14.75V30H65.5V14.75C65.5 12.6789 63.8211 11 61.75 11H7.75Z" fill="black"/>
<path d="M34 52L34 60" stroke="black" stroke-width="1.5" stroke-linecap="round" stroke-linejoin="round"/>
<path d="M42 60H26" stroke="black" stroke-width="1.5" stroke-linecap="round" stroke-linejoin="round"/>
<path d="M75 35H53" stroke="black" stroke-width="1.5" stroke-linecap="round" stroke-linejoin="round"/>
<path d="M75 40H53" stroke="black" stroke-width="1.5" stroke-linecap="round" stroke-linejoin="round"/>
<rect x="52" y="30" width="23" height="38" rx="3" stroke="black" stroke-width="1.5"/>
<circle cx="64" cy="48" r="2" stroke="black" stroke-width="1.5"/>
</svg>
