<svg width="76" height="76" viewBox="0 0 76 76" fill="none" xmlns="http://www.w3.org/2000/svg">
<circle cx="38" cy="38" r="32" fill="#CACACA"/>
<rect x="22" y="34.0008" width="3" height="9.6" rx="1.5" transform="rotate(-45 22 34.0008)" fill="#333333"/>
<rect x="34" y="22.8004" width="3" height="8" rx="1.5" fill="#B3B3B3"/>
<rect x="39" y="19.6004" width="3" height="11.2" rx="1.5" fill="#B3B3B3"/>
<rect x="51.6001" y="31.9998" width="3" height="9.6" rx="1.5" transform="rotate(45 51.6001 31.9998)" fill="#333333"/>
<path fill-rule="evenodd" clip-rule="evenodd" d="M37.9354 45.0713C37.597 45.0076 37.2346 45.0616 36.9122 45.2503L27.3686 50.8379C26.6537 51.2565 26.4064 52.1794 26.8163 52.8994C27.2262 53.6193 28.138 53.8636 28.8529 53.445L37.8063 48.203L46.9368 53.5487C47.6517 53.9673 48.5635 53.723 48.9734 53.0031C49.3832 52.2831 49.136 51.3602 48.421 50.9416L38.7421 45.2748C38.4876 45.1258 38.2082 45.0608 37.9354 45.0713Z" fill="#333333"/>
</svg>
