<svg width="64" height="64" viewBox="0 0 64 64" fill="none" xmlns="http://www.w3.org/2000/svg">
<path fill-rule="evenodd" clip-rule="evenodd" d="M51.7847 8.22032C52.0784 7.92656 52.5547 7.92656 52.8485 8.22032L55.7794 11.1512C55.9206 11.2925 55.9999 11.4841 55.9997 11.6839C55.9995 11.8836 55.9199 12.0751 55.7784 12.216L49.9384 18.0342C49.6453 18.3262 49.1713 18.3266 48.8776 18.0352L47.9834 17.1477L38.1463 27.0066L37.0813 25.944L46.9157 16.0878L45.9467 15.1261C45.8047 14.9852 45.7247 14.7936 45.7243 14.5936C45.724 14.3936 45.8033 14.2017 45.9447 14.0603L51.7847 8.22032ZM49.4065 16.4404L49.0461 16.0827L49.0516 16.0771L47.9867 15.0145L47.9783 15.0229L47.5424 14.5902L52.3166 9.81601L54.1827 11.6821L49.4065 16.4404Z" fill="#EA1917"/>
<path d="M23.3298 34.4752L10.7431 47.0391C9.09584 48.6678 9.09149 51.317 10.7461 52.9715L11.0304 53.2559C12.6833 54.9088 15.3348 54.9088 16.9878 53.2559L29.5496 40.6941L30.6134 41.7578L18.0515 54.3197C15.8111 56.5601 12.207 56.5601 9.96662 54.3197L9.68228 54.0353C7.44395 51.797 7.43917 48.1916 9.68398 45.9706L9.68529 45.9693L22.267 33.4105L23.3298 34.4752Z" fill="#EA1917"/>
<path d="M26.9599 38.1057L25.8961 37.0419L14.1584 48.7795L15.2222 49.8433L26.9599 38.1057Z" fill="#EA1917"/>
<path fill-rule="evenodd" clip-rule="evenodd" d="M25.5974 11.02C22.4116 7.83416 17.669 7.17453 13.8466 9.01494C13.627 9.12069 13.4722 9.32633 13.4314 9.56666C13.3905 9.80699 13.4687 10.0522 13.6411 10.2246L19.4741 16.0576L16.034 19.4977L10.2228 13.6465C10.0507 13.4732 9.80515 13.3943 9.5643 13.4348C9.32345 13.4753 9.11726 13.6302 9.01131 13.8502C7.17002 17.6744 7.85379 22.4166 11.0163 25.5792C13.8911 28.4539 17.9999 29.2416 21.5906 28.0387L35.9408 42.3888C34.7384 45.9623 35.5273 50.09 38.4009 52.9637C41.5631 56.1258 46.3278 56.8107 50.1315 54.9679C50.3506 54.8617 50.5048 54.6561 50.5453 54.4161C50.5858 54.176 50.5076 53.9312 50.3354 53.759L44.5024 47.926L47.9444 44.484L53.7774 50.3171C53.9498 50.4895 54.195 50.5676 54.4353 50.5268C54.6757 50.4859 54.8813 50.3311 54.9871 50.1115C56.8284 46.2873 56.1446 41.5451 52.982 38.3826C50.1029 35.5035 45.986 34.7177 42.3914 35.9286L28.057 21.5942C29.2599 18.0035 28.4722 13.8947 25.5974 11.02ZM42.5016 37.5097C42.5493 37.4899 42.5942 37.4656 42.6359 37.4374C45.7735 36.282 49.4027 36.9309 51.9182 39.4464C54.346 41.8741 55.0633 45.3949 54.0403 48.4523L48.4763 42.8883C48.1825 42.5946 47.7062 42.5946 47.4125 42.8883L42.9067 47.3941C42.7656 47.5352 42.6864 47.7265 42.6864 47.926C42.6864 48.1255 42.7656 48.3168 42.9067 48.4579L48.4721 54.0232C45.4287 55.044 41.8921 54.3272 39.4647 51.8999C36.9089 49.344 36.2807 45.6176 37.5117 42.4693C37.6206 42.191 37.5544 41.8748 37.3431 41.6635L22.3165 26.637C22.1057 26.4261 21.7902 26.3598 21.5122 26.4677C18.3409 27.6999 14.6357 27.071 12.0801 24.5154C9.65348 22.0887 8.93569 18.57 9.95671 15.5135L15.4984 21.0934C15.6393 21.2353 15.8309 21.3152 16.0308 21.3156C16.2308 21.3159 16.4226 21.2367 16.564 21.0953L21.0698 16.5895C21.2109 16.4484 21.2901 16.2571 21.2901 16.0576C21.2901 15.8581 21.2109 15.6668 21.0698 15.5257L15.5053 9.96127C18.5644 8.93412 22.0872 9.63734 24.5337 12.0838C27.0893 14.6394 27.7182 18.3445 26.486 21.5158C26.3781 21.7938 26.4444 22.1093 26.6553 22.3201L41.6818 37.3466C41.897 37.5618 42.2205 37.6261 42.5016 37.5097Z" fill="#EA1917"/>
</svg>
