<svg width="20" height="20" viewBox="0 0 20 20" fill="none" xmlns="http://www.w3.org/2000/svg">
<path fill-rule="evenodd" clip-rule="evenodd" d="M2.625 6.04167C2.625 4.14052 4.14052 2.625 6.04167 2.625H16.25C16.8595 2.625 17.375 3.14052 17.375 3.75V16.25C17.375 16.8595 16.8595 17.375 16.25 17.375H3.75C3.14052 17.375 2.625 16.8595 2.625 16.25V6.04167ZM6.04167 3.625C4.69281 3.625 3.625 4.69281 3.625 6.04167V15.5247L6.22747 12.1134C6.32205 11.9894 6.46906 11.9166 6.625 11.9166H10.0461L12.2348 8.16471C12.3283 8.00434 12.503 7.90901 12.6885 7.91712C12.874 7.92524 13.0397 8.03547 13.1189 8.20341L16.375 15.1092V3.75C16.375 3.73046 16.3656 3.69766 16.3339 3.66605C16.3023 3.63445 16.2695 3.625 16.25 3.625H6.04167ZM15.8663 16.375H4.23411L6.87244 12.9166H10.3333C10.5112 12.9166 10.6756 12.8222 10.7652 12.6686L12.6197 9.48946L15.8663 16.375ZM6.41675 7.41667C6.41675 6.93342 6.8085 6.54167 7.29175 6.54167C7.775 6.54167 8.16675 6.93342 8.16675 7.41667C8.16675 7.89992 7.775 8.29167 7.29175 8.29167C6.8085 8.29167 6.41675 7.89992 6.41675 7.41667ZM7.29175 5.54167C6.25621 5.54167 5.41675 6.38113 5.41675 7.41667C5.41675 8.4522 6.25621 9.29167 7.29175 9.29167C8.32728 9.29167 9.16675 8.4522 9.16675 7.41667C9.16675 6.38113 8.32728 5.54167 7.29175 5.54167Z" fill="#666666"/>
</svg>
