<svg width="60" height="60" viewBox="0 0 60 60" fill="none" xmlns="http://www.w3.org/2000/svg">
<path fill-rule="evenodd" clip-rule="evenodd" d="M7.75 13C6.23122 13 5 14.2312 5 15.75V44.25C5 45.7688 6.23122 47 7.75 47H52.25C53.7688 47 55 45.7688 55 44.25V15.75C55 14.2312 53.7688 13 52.25 13H7.75ZM7.44405 14.5377C7.54195 14.5131 7.64445 14.5 7.75 14.5H52.25C52.3467 14.5 52.4408 14.511 52.5311 14.5317L30.8261 33.6792C30.3539 34.0958 29.6455 34.096 29.1729 33.6797L7.44405 14.5377ZM6.50077 15.7058C6.50026 15.7205 6.5 15.7352 6.5 15.75V44.25C6.5 44.3605 6.51434 44.4677 6.54127 44.5698L22.8962 30.1493L6.50077 15.7058ZM24.0307 31.1488L7.75432 45.5H52.2413L35.9529 31.1567L31.8184 34.804C30.7795 35.7205 29.221 35.7211 28.1814 34.8053L24.0307 31.1488ZM37.0868 30.1565L53.458 44.5727C53.4854 44.4697 53.5 44.3616 53.5 44.25V15.75C53.5 15.7262 53.4993 15.7025 53.498 15.679L37.0868 30.1565Z" fill="black"/>
</svg>
