<svg width="32" height="32" viewBox="0 0 32 32" fill="none" xmlns="http://www.w3.org/2000/svg">
<path fill-rule="evenodd" clip-rule="evenodd" d="M20.145 3.85156C19.7308 3.85156 19.395 4.18735 19.395 4.60156C19.395 5.01578 19.7308 5.35156 20.145 5.35156H25.6652L15.4344 16.2507C15.1509 16.5527 15.1659 17.0274 15.4679 17.3109C15.7699 17.5944 16.2445 17.5793 16.528 17.2773L26.6479 6.49644L26.6478 11.9392C26.6478 12.3534 26.9836 12.6892 27.3978 12.6892C27.812 12.6892 28.1478 12.3535 28.1478 11.9393L28.1479 4.60158C28.1479 4.40266 28.0689 4.21189 27.9282 4.07124C27.7876 3.93058 27.5968 3.85156 27.3979 3.85156H20.145ZM25.0343 16.9192C25.0343 16.505 24.6985 16.1692 24.2843 16.1692C23.8701 16.1692 23.5343 16.505 23.5343 16.9192V25.4027C23.5343 26.093 22.9747 26.6526 22.2843 26.6527L6.5977 26.6532C5.90733 26.6533 5.34766 26.0936 5.34766 25.4032L5.34766 8.23047H14.9615C15.3758 8.23047 15.7115 7.89468 15.7115 7.48047C15.7115 7.06626 15.3758 6.73047 14.9615 6.73047H4.60019C4.32945 6.73047 4.09221 6.87392 3.96035 7.08897C3.88892 7.20381 3.84766 7.33937 3.84766 7.48457V25.4032C3.84766 26.9221 5.07894 28.1533 6.59776 28.1532L22.2844 28.1527C23.8031 28.1526 25.0343 26.9214 25.0343 25.4027V16.9192Z" fill="#EA1917"/>
</svg>
