<svg width="151" height="67" viewBox="0 0 151 67" fill="none" xmlns="http://www.w3.org/2000/svg">
<path d="M91.6585 11.5086H81.7891V54.25H112.102V45.927H91.6585V11.5086Z" fill="white"/>
<path d="M133.811 37.9565H141.845V45.4296C140.365 45.9964 137.478 46.5609 134.729 46.5609C125.845 46.5609 122.884 42.043 122.884 32.8759C122.884 24.13 125.703 18.9802 134.585 18.9802C139.522 18.9802 142.339 20.5321 144.664 23.4954L150.801 17.8523C147.061 12.4943 140.505 10.8707 134.373 10.8707C120.559 10.8707 113.297 18.4165 113.297 32.8045C113.297 47.1251 119.852 54.8828 134.303 54.8828C140.929 54.8828 147.416 53.1894 150.939 50.7225V29.9853H133.811V37.9565Z" fill="white"/>
<path d="M0.9375 33.0586C0.9375 51.3202 15.7341 66.1172 33.958 66.1172C52.1415 66.1172 66.8791 51.4607 67.0214 33.3155V32.7984C66.8791 14.6569 52.1415 -0.00123596 33.958 -0.00123596C15.7341 -0.00123596 0.9375 14.7968 0.9375 33.0586Z" fill="url(#paint0_radial_4559_201971)"/>
<path d="M11.6042 10.6817C0.563714 21.731 -0.553685 38.5666 9.14128 48.2698C18.8355 57.9662 35.648 56.8563 46.6917 45.8003C57.7528 34.728 58.8668 17.8966 49.1784 8.19528C44.7529 3.76571 38.8426 1.58796 32.6632 1.58796C25.3236 1.58796 17.6105 4.66876 11.6042 10.6817Z" fill="url(#paint1_linear_4559_201971)"/>
<path d="M32.9381 47.2291L32.2656 47.8711H42.1755L41.53 47.2103L32.9381 47.2291Z" fill="#626D77"/>
<path d="M41.5306 45.2344L42.1761 44.6072H35.6898L34.9219 45.2344H41.5306Z" fill="#8699A3"/>
<path d="M35.6895 18.2022H32.2656L32.9077 18.8164L34.9562 18.813L35.6895 18.2022Z" fill="#8D9AA1"/>
<path d="M34.9531 18.8119L34.9727 45.1875L35.6864 44.609V18.2012L34.9531 18.8119Z" fill="url(#paint2_linear_4559_201971)"/>
<path d="M41.5312 45.2357V47.2103L42.1765 47.8711V44.6086L41.5312 45.2357Z" fill="url(#paint3_linear_4559_201971)"/>
<path d="M32.2656 18.2007V47.8711L32.9381 47.2291L32.9077 18.8149L32.2656 18.2007Z" fill="#B4BDC3"/>
<path d="M19.1094 22.5047C19.1094 24.8798 21.042 26.8047 23.4235 26.8047C25.8077 26.8047 27.7343 24.8798 27.7343 22.5047C27.7343 20.1265 25.8077 18.1921 23.4235 18.1921C21.042 18.1921 19.1094 20.1265 19.1094 22.5047ZM19.7472 22.5047C19.7472 20.4796 21.3963 18.8399 23.4235 18.8399C25.444 18.8399 27.0932 20.4796 27.0932 22.5047C27.0932 24.5232 25.444 26.1587 23.4235 26.1587C21.3963 26.1587 19.7472 24.5232 19.7472 22.5047Z" fill="url(#paint4_linear_4559_201971)"/>
<path d="M59.2777 34.0694L42.1514 34.0487L41.5156 34.7188H58.62L58.9605 34.3643L59.2777 34.0694Z" fill="#505C61"/>
<path d="M42.1592 32.1172L61.3131 32.0857L61.9613 31.4331L41.5234 31.4382L42.1592 32.1172Z" fill="#8F9CA4"/>
<path d="M5.96875 33.0491C5.96875 40.5283 8.88319 47.5678 14.1667 52.8621C19.4455 58.1534 26.4719 61.0742 33.9439 61.0742C41.4398 61.0742 48.4839 58.1534 53.7605 52.8621C59.0512 47.5678 61.9566 40.5283 61.9566 33.0491V31.4316L61.3085 32.0842V33.0491C61.3085 40.3611 58.4699 47.2316 53.3077 52.4058C48.1511 57.5792 41.2685 60.4291 33.9439 60.4291C26.6492 60.4291 19.7817 57.5792 14.6232 52.4058C9.45894 47.2274 6.61455 40.3548 6.61455 33.0491C6.61455 17.9482 18.8761 5.67048 33.9439 5.67048L34.9884 5.65726L35.6278 5.03698L33.9439 5.02137C18.524 5.02137 5.96875 17.5932 5.96875 33.0491Z" fill="url(#paint5_linear_4559_201971)"/>
<path d="M33.5829 7.67793C26.9623 7.77394 20.7464 10.4053 16.0201 15.1021C11.2428 19.8924 8.60938 26.2662 8.60938 33.0513C8.60938 39.8334 11.2428 46.2011 16.0201 50.9944C20.7482 55.7141 26.9895 58.3527 33.6297 58.4336H34.2831C47.4305 58.2664 58.3734 47.9297 59.2616 34.7711L59.2846 34.0704L58.9621 34.3656L58.6216 34.7198C57.7432 47.6596 46.9071 57.7898 33.9601 57.7898C27.3614 57.7898 21.1572 55.2092 16.4806 50.5381C11.8199 45.867 9.25756 39.6591 9.25756 33.0513C9.25756 26.4384 11.8199 20.2215 16.4806 15.5565C21.1667 10.8997 27.3691 8.3236 33.9601 8.3236L35.6263 8.33974L34.9847 7.69406L34.263 7.67793H33.5829Z" fill="url(#paint6_linear_4559_201971)"/>
<path d="M42.1514 32.1164L41.5156 31.4374V34.7188L42.1514 34.0487V32.1164Z" fill="#B4BDC3"/>
<path d="M34.9844 5.65561V7.69396L35.6238 8.33594V5.03532L34.9844 5.65561Z" fill="url(#paint7_linear_4559_201971)"/>
<path d="M33.5939 5.37031C18.5369 5.55124 6.30469 17.8954 6.30469 33.0468C6.30469 40.4418 9.18291 47.3827 14.4014 52.6116C19.6141 57.8406 26.5709 60.7188 33.9304 60.7188C41.3361 60.7188 48.2866 57.8406 53.5014 52.6116C58.7241 47.3827 61.5942 40.4418 61.5942 33.0468V31.7887L60.5013 31.793H41.8592V34.3611H58.9671C58.9652 34.4212 58.9652 34.6862 58.9594 34.7365C58.0704 47.7784 47.2078 58.136 33.9473 58.136C27.2614 58.136 20.9697 55.5242 16.2193 50.7814C11.4986 46.0501 8.89054 39.7514 8.89054 33.0468C8.89054 26.3363 11.4986 20.0329 16.2193 15.3052C20.9697 10.5815 27.2614 7.96864 33.9473 7.96864C34.2352 7.96864 34.9529 7.96863 35.2696 7.97604V5.38486C35.0087 5.38486 34.5757 5.37586 34.2352 5.37031H33.5939ZM32.6314 18.5506V47.5237H41.8373V44.9412H35.2696V18.5506H32.6314Z" fill="url(#paint8_radial_4559_201971)"/>
<path d="M19.4375 22.5052C19.4375 24.6914 21.2263 26.457 23.408 26.457C25.5876 26.457 27.3722 24.6914 27.3722 22.5052C27.3722 20.3028 25.5876 18.5385 23.408 18.5385C21.2263 18.5385 19.4375 20.3028 19.4375 22.5052Z" fill="url(#paint9_radial_4559_201971)"/>
<defs>
<radialGradient id="paint0_radial_4559_201971" cx="0" cy="0" r="1" gradientUnits="userSpaceOnUse" gradientTransform="translate(32.7442 32.0565) scale(34.4491 34.4708)">
<stop stop-color="#BF0C3F"/>
<stop offset="0.5" stop-color="#BF0C3F"/>
<stop offset="0.883847" stop-color="#BF0C3F"/>
<stop offset="1" stop-color="#99002C"/>
</radialGradient>
<linearGradient id="paint1_linear_4559_201971" x1="20.4429" y1="4.27204" x2="37.8937" y2="52.1873" gradientUnits="userSpaceOnUse">
<stop stop-color="#F38895"/>
<stop offset="0.547622" stop-color="#BF0C3F"/>
<stop offset="0.8011" stop-color="#BF0C3F"/>
<stop offset="1" stop-color="#BF0C3F"/>
</linearGradient>
<linearGradient id="paint2_linear_4559_201971" x1="34.953" y1="31.6943" x2="35.6864" y2="31.6943" gradientUnits="userSpaceOnUse">
<stop stop-color="#B4BDC3"/>
<stop offset="0.844281" stop-color="#333940"/>
<stop offset="1" stop-color="#333940"/>
</linearGradient>
<linearGradient id="paint3_linear_4559_201971" x1="41.5311" y1="46.2398" x2="42.1766" y2="46.2398" gradientUnits="userSpaceOnUse">
<stop stop-color="#B3BBC1"/>
<stop offset="0.844281" stop-color="#2A3236"/>
<stop offset="1" stop-color="#2A3236"/>
</linearGradient>
<linearGradient id="paint4_linear_4559_201971" x1="20.3689" y1="19.4413" x2="26.465" y2="25.5335" gradientUnits="userSpaceOnUse">
<stop stop-color="#ABBAC2"/>
<stop offset="1" stop-color="#262A30"/>
</linearGradient>
<linearGradient id="paint5_linear_4559_201971" x1="11.6242" y1="15.6697" x2="51.5716" y2="55.5918" gradientUnits="userSpaceOnUse">
<stop stop-color="#B4BDC3"/>
<stop offset="1" stop-color="#3E454D"/>
</linearGradient>
<linearGradient id="paint6_linear_4559_201971" x1="59.2886" y1="33.0395" x2="8.6088" y2="33.0395" gradientUnits="userSpaceOnUse">
<stop stop-color="#B4BDC3"/>
<stop offset="1" stop-color="#485159"/>
</linearGradient>
<linearGradient id="paint7_linear_4559_201971" x1="34.9843" y1="6.68546" x2="35.6238" y2="6.68546" gradientUnits="userSpaceOnUse">
<stop stop-color="#B3BBC1"/>
<stop offset="0.844281" stop-color="#2A3236"/>
<stop offset="1" stop-color="#2A3236"/>
</linearGradient>
<radialGradient id="paint8_radial_4559_201971" cx="0" cy="0" r="1" gradientUnits="userSpaceOnUse" gradientTransform="translate(22.8056 21.3278) scale(42.285 42.3117)">
<stop stop-color="white"/>
<stop offset="0.350006" stop-color="white"/>
<stop offset="0.666526" stop-color="white"/>
<stop offset="1" stop-color="#C0CCD2"/>
</radialGradient>
<radialGradient id="paint9_radial_4559_201971" cx="0" cy="0" r="1" gradientUnits="userSpaceOnUse" gradientTransform="translate(21.7654 21.0418) scale(6.1745 6.17839)">
<stop stop-color="white"/>
<stop offset="0.350006" stop-color="white"/>
<stop offset="0.665531" stop-color="white"/>
<stop offset="1" stop-color="#D0DADF"/>
</radialGradient>
</defs>
</svg>
