<svg width="24" height="24" viewBox="0 0 24 24" fill="none" xmlns="http://www.w3.org/2000/svg">
<path fill-rule="evenodd" clip-rule="evenodd" d="M10.5266 18.0745H3.20001H2.00001V16.8745V9.54791L1.99927 9.54717L2.00001 9.54643V7.27451V6.07451H3.20001H5.47193L8.69791 2.84853L9.54644 2L10.395 2.84853L13.6209 6.07451H20.8H22V7.27451V16.8745V18.0745H20.8H18.3776L15.3006 21.1515L14.4521 22L13.6036 21.1515L10.5266 18.0745ZM12.2237 18.0745L14.4521 20.3029L16.6805 18.0745H12.2237ZM11.9239 6.07451L9.54644 3.69706L7.16899 6.07451H11.9239ZM3.20001 7.27451H16.1379V8.55581C15.9201 8.32655 15.6692 8.12466 15.3911 7.99463C14.9736 7.79942 14.4655 7.76023 13.9974 8.07233C13.4253 8.45384 13.1795 9.11832 13.3242 9.77725H3.20001V7.27451ZM14.2071 12.9592L15.5056 11.6607C14.9321 11.4977 14.4665 11.2642 14.1108 10.9772H3.20001V16.8745H16.1379V12.7254L15.0557 13.8077L14.6314 14.2319L13.7829 13.3834L14.2071 12.9592ZM17.3379 12.4284L18.7173 13.8077L19.1415 14.2319L19.99 13.3834L19.5658 12.9592L18.2682 11.6615C18.843 11.4985 19.3097 11.2647 19.6659 10.9772H19.6687H19.6735H19.6783H19.6831H19.688H19.6928H19.6977H19.7025H19.7074H19.7123H19.7172H19.7221H19.727H19.7319H19.7368H19.7418H19.7467H19.7516H19.7566H19.7616H19.7665H19.7715H19.7765H19.7815H19.7865H19.7915H19.7965H19.8015H19.8065H19.8116H19.8166H19.8217H19.8267H19.8318H19.8368H19.8419H19.847H19.8521H19.8572H19.8622H19.8673H19.8725H19.8776H19.8827H19.8878H19.8929H19.8981H19.9032H19.9084H19.9135H19.9187H19.9238H19.929H19.9342H19.9393H19.9445H19.9497H19.9549H19.9601H19.9653H19.9705H19.9757H19.9809H19.9861H19.9914H19.9966H20.0018H20.007H20.0123H20.0175H20.0227H20.028H20.0332H20.0385H20.0437H20.049H20.0543H20.0595H20.0648H20.0701H20.0753H20.0806H20.0859H20.0912H20.0965H20.1017H20.107H20.1123H20.1176H20.1229H20.1282H20.1335H20.1388H20.1441H20.1494H20.1547H20.16H20.1653H20.1706H20.1759H20.1812H20.1865H20.1919H20.1972H20.2025H20.2078H20.2131H20.2184H20.2237H20.2291H20.2344H20.2397H20.245H20.2503H20.2557H20.261H20.2663H20.2716H20.2769H20.2822H20.2876H20.2929H20.2982H20.3035H20.3088H20.3141H20.3194H20.3248H20.3301H20.3354H20.3407H20.346H20.3513H20.3566H20.3619H20.3672H20.3725H20.3778H20.3831H20.3884H20.3937H20.399H20.4042H20.4095H20.4148H20.4201H20.4254H20.4306H20.4359H20.4412H20.4465H20.4517H20.457H20.4622H20.4675H20.4727H20.478H20.4832H20.4885H20.4937H20.4989H20.5042H20.5094H20.5146H20.5198H20.5251H20.5303H20.5355H20.5407H20.5459H20.5511H20.5563H20.5614H20.5666H20.5718H20.577H20.5821H20.5873H20.5924H20.5976H20.6027H20.6079H20.613H20.6181H20.6233H20.6284H20.6335H20.6386H20.6437H20.6488H20.6539H20.659H20.664H20.6691H20.6742H20.6792H20.6843H20.6893H20.6944H20.6994H20.7044H20.7094H20.7145H20.7195H20.7245H20.7294H20.7344H20.7394H20.7444H20.7493H20.7543H20.7592H20.7642H20.7691H20.774H20.7789H20.7838H20.7887H20.7936H20.7985H20.8V16.8745H17.3379V12.4284ZM20.4526 9.77725H20.457H20.4622H20.4675H20.4727H20.478H20.4832H20.4885H20.4937H20.4989H20.5042H20.5094H20.5146H20.5198H20.5251H20.5303H20.5355H20.5407H20.5459H20.5511H20.5563H20.5614H20.5666H20.5718H20.577H20.5821H20.5873H20.5924H20.5976H20.6027H20.6079H20.613H20.6181H20.6233H20.6284H20.6335H20.6386H20.6437H20.6488H20.6539H20.659H20.664H20.6691H20.6742H20.6792H20.6843H20.6893H20.6944H20.6994H20.7044H20.7094H20.7145H20.7195H20.7245H20.7294H20.7344H20.7394H20.7444H20.7493H20.7543H20.7592H20.7642H20.7691H20.774H20.7789H20.7838H20.7887H20.7936H20.7985H20.8V7.27451H17.3379V8.91444C17.3539 8.89303 17.37 8.87187 17.3862 8.851C17.6539 8.50572 17.9926 8.17841 18.3857 7.99463C18.8032 7.79942 19.3113 7.76023 19.7794 8.07233C20.3515 8.45384 20.5973 9.11832 20.4526 9.77725ZM14.8828 9.08167C14.7534 9.02114 14.7054 9.04254 14.6631 9.07073C14.5003 9.1793 14.3944 9.41691 14.5821 9.72966C14.7384 9.99015 15.1394 10.3371 15.9744 10.5446C15.8529 10.2226 15.669 9.87874 15.4422 9.58626C15.2358 9.32001 15.0367 9.15363 14.8828 9.08167ZM19.1136 9.07073C19.0714 9.04254 19.0234 9.02114 18.894 9.08167C18.7401 9.15363 18.5409 9.32001 18.3345 9.58626C18.1078 9.87874 17.9239 10.2226 17.8024 10.5446C18.6374 10.3371 19.0384 9.99015 19.1947 9.72966C19.3824 9.41691 19.2764 9.1793 19.1136 9.07073Z" fill="#EA1917"/>
</svg>
