<svg width="48" height="48" viewBox="0 0 48 48" fill="none" xmlns="http://www.w3.org/2000/svg">
<path fill-rule="evenodd" clip-rule="evenodd" d="M16 2H16.75H31.25H32V2.75V3.55902H32H41.25H42V4.30902V24.7796C42 25.1938 41.6642 25.5296 41.25 25.5296C40.8358 25.5296 40.5 25.1938 40.5 24.7796V5.05902H32H32V7.25V8H31.25H16.75H16V7.25V5.05902H7.5V44.5002H24C24.4142 44.5002 24.75 44.836 24.75 45.2502C24.75 45.6644 24.4142 46.0002 24 46.0002H6.75H6V45.2502V4.30902V3.55902H6.75H16V2.75V2ZM17.5 3.5V6.5H30.5V3.5H17.5ZM13 16H13.75H34.25H35V17.5H34.25H13.75H13V16ZM13.75 23H13V24.5H13.75H34.25H35V23H34.25H13.75ZM13.75 30H13V31.5H13.75H27.25H28V30H27.25H13.75Z" fill="black"/>
<path fill-rule="evenodd" clip-rule="evenodd" d="M42.7232 27.5301L42.1928 26.9998L41.6625 27.5301L27.7938 41.3988L27.63 41.5626L27.5871 41.7901L26.7037 46.4724L26.5 47.5522L27.5798 47.3485L32.2621 46.4651L32.4896 46.4222L32.6534 46.2584L46.5221 32.3897L47.0524 31.8593L46.5221 31.329L42.7232 27.5301ZM39.7407 31.5732L42.1928 29.1211L44.9311 31.8593L42.479 34.3115L39.7407 31.5732ZM38.6801 32.6339L29.0182 42.2958L28.3814 45.6708L31.7564 45.034L41.4183 35.3721L38.6801 32.6339Z" fill="black"/>
</svg>
