<svg width="48" height="48" viewBox="0 0 48 48" fill="none" xmlns="http://www.w3.org/2000/svg">
<path fill-rule="evenodd" clip-rule="evenodd" d="M21.0574 2.60059C20.8254 2.46654 20.5395 2.46646 20.3074 2.6004L2.39494 12.937C2.27605 13.0007 2.17291 13.0974 2.10052 13.2228C2.02892 13.3469 1.9968 13.4829 2.00025 13.6163V34.2721C2.00025 34.5402 2.14326 34.7878 2.37539 34.9217L20.3074 45.2696C20.3779 45.3103 20.4533 45.3386 20.5307 45.3545C20.5807 45.365 20.6326 45.3706 20.6857 45.3706C20.8433 45.3706 20.9896 45.3219 21.1103 45.2389L31.7366 39.0995C31.5125 38.6489 31.3321 38.1727 31.2013 37.6765L21.4357 43.3185V24.3763L37.8428 14.8971V28.2576C38.0512 28.2403 38.262 28.2314 38.4748 28.2314C38.7684 28.2314 39.058 28.2483 39.3428 28.281V13.5979C39.3428 13.5884 39.3426 13.5789 39.3423 13.5695C39.3383 13.4624 39.3114 13.3591 39.2653 13.2658L39.2641 13.2633C39.2548 13.2447 39.2447 13.2264 39.2339 13.2086C39.1629 13.0915 39.0647 13.0006 38.9521 12.9393L21.0574 2.60059ZM19.9357 24.3807L11.4231 19.4684C11.3755 19.4472 11.33 19.421 11.2874 19.3901L3.50025 14.8964V33.839L19.9357 43.3233V24.3807ZM37.0934 13.5977L29.6484 9.2964L13.2325 18.7807L20.6819 23.0795L37.0934 13.5977ZM20.682 4.11605L28.1492 8.43022L11.7324 17.9151L4.25093 13.5978L20.682 4.11605ZM44.4987 35.7559C44.4987 39.0816 41.8027 41.7776 38.477 41.7776C35.1513 41.7776 32.4553 39.0816 32.4553 35.7559C32.4553 32.4301 35.1513 29.7341 38.477 29.7341C41.8027 29.7341 44.4987 32.4301 44.4987 35.7559ZM45.9987 35.7559C45.9987 39.91 42.6312 43.2776 38.477 43.2776C34.3229 43.2776 30.9553 39.91 30.9553 35.7559C30.9553 31.6017 34.3229 28.2341 38.477 28.2341C42.6312 28.2341 45.9987 31.6017 45.9987 35.7559ZM35.8655 35.0056C35.4513 35.0056 35.1155 35.3414 35.1155 35.7556C35.1155 36.1698 35.4513 36.5056 35.8655 36.5056H37.803V38.4417C37.803 38.856 38.1388 39.1917 38.553 39.1917C38.9672 39.1918 39.303 38.856 39.303 38.4418V36.5056H41.2381C41.6523 36.5056 41.9881 36.1698 41.9881 35.7556C41.9881 35.3414 41.6523 35.0056 41.2381 35.0056H39.303V33.0691C39.303 32.6549 38.9672 32.3191 38.553 32.3191C38.1388 32.3191 37.803 32.6549 37.803 33.0691V35.0056H35.8655Z" fill="black"/>
</svg>
