<svg width="60" height="60" viewBox="0 0 60 60" fill="none" xmlns="http://www.w3.org/2000/svg">
<path fill-rule="evenodd" clip-rule="evenodd" d="M12.7448 5.35503C12.8815 5.1343 13.1227 5 13.3824 5H41.115C41.3571 5 41.5844 5.11689 41.7252 5.31386L49.7137 16.4897L49.725 16.5055C49.8161 16.633 49.8632 16.783 49.8648 16.934L49.8648 16.9443V34.2269C49.3833 33.9834 48.8823 33.7727 48.3648 33.5979V17.6916H7.19922V48.1674H33.7806C33.9548 48.6849 34.1648 49.1859 34.4077 49.6674H6.44922C6.03501 49.6674 5.69922 49.3316 5.69922 48.9174V16.9423V16.9413C5.69922 16.7892 5.74451 16.6476 5.82234 16.5294L12.7448 5.35503ZM40.7292 6.5L47.6566 16.1913H28.532V6.5H40.7292ZM27.032 6.5V16.1913H7.79631L13.8 6.5H27.032ZM23.5138 21.521C21.9223 21.521 20.6321 22.8112 20.6321 24.4027C20.6321 25.9943 21.9223 27.2845 23.5138 27.2845H32.05C33.6416 27.2845 34.9318 25.9943 34.9318 24.4027C34.9318 22.8112 33.6416 21.521 32.05 21.521H23.5138ZM22.1321 24.4027C22.1321 23.6396 22.7507 23.021 23.5138 23.021H32.05C32.8132 23.021 33.4318 23.6396 33.4318 24.4027C33.4318 25.1659 32.8132 25.7845 32.05 25.7845H23.5138C22.7507 25.7845 22.1321 25.1659 22.1321 24.4027ZM37.0652 45.1873C37.0652 40.5984 40.7881 36.8774 45.3817 36.8774C49.9752 36.8774 53.6981 40.5984 53.6981 45.1873C53.6981 49.7763 49.9752 53.4972 45.3817 53.4972C40.7881 53.4972 37.0652 49.7763 37.0652 45.1873ZM45.3817 35.3774C39.9607 35.3774 35.5652 39.769 35.5652 45.1873C35.5652 50.6057 39.9607 54.9972 45.3817 54.9972C50.8026 54.9972 55.1981 50.6057 55.1981 45.1873C55.1981 39.769 50.8026 35.3774 45.3817 35.3774ZM45.2493 40.5C45.6635 40.5 45.9993 40.8358 45.9993 41.25V44.5H49.2493C49.6635 44.5 49.9993 44.8358 49.9993 45.25C49.9993 45.6642 49.6635 46 49.2493 46H45.9993V49.25C45.9993 49.6642 45.6635 50 45.2493 50C44.8351 50 44.4993 49.6642 44.4993 49.25V46H41.2493C40.8351 46 40.4993 45.6642 40.4993 45.25C40.4993 44.8358 40.8351 44.5 41.2493 44.5H44.4993V41.25C44.4993 40.8358 44.8351 40.5 45.2493 40.5Z" fill="black"/>
</svg>
