<svg width="48" height="48" viewBox="0 0 48 48" fill="none" xmlns="http://www.w3.org/2000/svg">
<path fill-rule="evenodd" clip-rule="evenodd" d="M15.1239 6.32422C15.1239 5.91001 14.7881 5.57422 14.3739 5.57422C13.9597 5.57422 13.6239 5.91001 13.6239 6.32422V8.94141H6.75C5.23122 8.94141 4 10.1726 4 11.6914V39.677C4 41.1958 5.23122 42.427 6.75 42.427H41.2488C42.7676 42.427 43.9988 41.1958 43.9988 39.677V11.6914C43.9988 10.1726 42.7676 8.94141 41.2488 8.94141H34.373V6.32422C34.373 5.91001 34.0372 5.57422 33.623 5.57422C33.2088 5.57422 32.873 5.91001 32.873 6.32422V8.94141H15.1239V6.32422ZM32.873 13.8997V10.4414H15.1239V13.8997C15.1239 14.314 14.7881 14.6497 14.3739 14.6497C13.9597 14.6497 13.6239 14.314 13.6239 13.8997V10.4414H6.75C6.05964 10.4414 5.5 11.001 5.5 11.6914V17.3555H42.4988V11.6914C42.4988 11.0011 41.9392 10.4414 41.2488 10.4414H34.373V13.8997C34.373 14.314 34.0372 14.6497 33.623 14.6497C33.2088 14.6497 32.873 14.314 32.873 13.8997ZM5.5 39.677V18.8555H42.4988V39.677C42.4988 40.3673 41.9392 40.927 41.2488 40.927H6.75C6.05965 40.927 5.5 40.3673 5.5 39.677ZM30.8056 25.6431C31.1047 25.3566 31.1149 24.8818 30.8283 24.5827C30.5418 24.2836 30.067 24.2734 29.7679 24.56L22.0847 31.9205L18.2336 28.2327C17.9344 27.9463 17.4596 27.9566 17.1731 28.2557C16.8867 28.5549 16.897 29.0297 17.1961 29.3161L21.5661 33.5007L22.0849 33.9975L22.6036 33.5006L30.8056 25.6431Z" fill="#333333"/>
</svg>
