<svg width="17" height="17" viewBox="0 0 17 17" fill="none" xmlns="http://www.w3.org/2000/svg">
<path fill-rule="evenodd" clip-rule="evenodd" d="M8.75117 0.75C8.75117 0.335786 8.41538 0 8.00117 0C7.58695 0 7.25117 0.335786 7.25117 0.75V7.25117H0.75C0.335786 7.25117 0 7.58695 0 8.00117C0 8.41538 0.335786 8.75117 0.75 8.75117H7.25117V15.2526C7.25117 15.6668 7.58695 16.0026 8.00117 16.0026C8.41538 16.0026 8.75117 15.6668 8.75117 15.2526V8.75117H15.2526C15.6668 8.75117 16.0026 8.41538 16.0026 8.00117C16.0026 7.58695 15.6668 7.25117 15.2526 7.25117H8.75117V0.75Z" fill="white"/>
</svg>
