<svg width="64" height="64" viewBox="0 0 64 64" fill="none" xmlns="http://www.w3.org/2000/svg">
<rect width="64" height="64" fill="white"/>
<path fill-rule="evenodd" clip-rule="evenodd" d="M5.75 7H5V7.75V25.0538V47.6034V48.3534H5.75H18.5027V56.3712V57.798L19.678 56.989L32.2222 48.3534H57.8162H58.5662V47.6034V21.8915V21.1415H57.0662V21.8915V46.8534H31.989H31.7558L31.5638 46.9857L20.0027 54.9443V47.6034V46.8534H19.2527H6.5V25.0538V8.5H23.8836H43.675H44.425V7H43.675H23.8836H5.75ZM52.5379 7.09116L53.0683 7.62149L57.9522 12.5054L58.4825 13.0357L57.9522 13.566L40.1226 31.3956L39.9588 31.5594L39.7313 31.6023L33.7117 32.738L32.632 32.9417L32.8357 31.8619L33.9714 25.8424L34.0143 25.6148L34.178 25.4511L52.0076 7.62149L52.5379 7.09116ZM52.5379 9.21248L49.0826 12.6678L52.9058 16.4911L56.3612 13.0357L52.5379 9.21248ZM35.4024 26.348L48.0219 13.7285L51.8452 17.5517L39.2257 30.1712L34.5134 31.0603L35.4024 26.348Z" fill="black"/>
</svg>
