<svg width="48" height="49" viewBox="0 0 48 49" fill="none" xmlns="http://www.w3.org/2000/svg">
<path fill-rule="evenodd" clip-rule="evenodd" d="M15 7.25024V6.50024H13.5V7.25024V9.50024H4.75H4V10.2502V41.7502V42.5002H4.75H43.2488H43.9988V41.7502V10.2502V9.50024H43.2488H34.5V7.25024V6.50024H33V7.25024V9.50024H15V7.25024ZM33 13.7502V11.0002H15V13.7502V14.5002H13.5V13.7502V11.0002H5.5V18.0002H42.4988V11.0002H34.5V13.7502V14.5002H33V13.7502ZM5.5 41.0002V19.5002H42.4988V41.0002H5.5ZM16 30.2502H18V28.7502H16V30.2502ZM23 30.2502H25V28.7502H23V30.2502ZM32 30.2502H30V28.7502H32V30.2502Z" fill="black"/>
</svg>
