<svg width="24" height="24" viewBox="0 0 24 24" fill="none" xmlns="http://www.w3.org/2000/svg">
<path fill-rule="evenodd" clip-rule="evenodd" d="M21.3056 5.867H18.1946V5.62582C18.1946 5.40675 18.0861 5.20088 17.9034 5.0738L16.6052 4.16951C16.4876 4.08723 16.3466 4.04327 16.2019 4.04327H15.0896C14.6271 3.41426 13.8765 3 13.0248 3H4.546C3.14185 3 2 4.11545 2 5.4871V7.60246C2 8.79201 2.86006 9.7864 4.00398 10.03C4.03503 10.049 4.06113 10.0736 4.09571 10.0879C4.26481 10.1585 4.39687 10.2892 4.46647 10.4578C4.53688 10.6266 4.53516 10.8113 4.46371 10.9772L3.07588 14.1885C3.03712 14.2578 2.26905 15.6554 2.73026 16.8681C2.32802 17.2393 2.07319 17.7614 2.07319 18.3432V18.9651C2.07319 20.0867 3.00815 21 4.15634 21H10.4254C11.5737 21 12.5086 20.0867 12.5086 18.9651V18.3432C12.5086 17.2216 11.5737 16.3084 10.4254 16.3084H10.402C9.75996 16.2986 9.30883 16.1519 9.05928 15.8729C8.76101 15.5381 8.81712 15.0675 8.8224 15.0233C8.88482 14.2459 9.17418 13.4182 9.53184 12.6564H12.1306C12.4399 12.6564 12.6985 12.4497 12.7843 12.1599C12.8711 11.8693 12.7373 11.5515 12.4769 11.3897C12.4462 11.3712 12.1822 11.1937 12.1822 10.6945C12.1822 10.343 12.291 10.1693 12.3602 10.0895H13.0248C13.8765 10.0895 14.6271 9.67554 15.0896 9.04652H16.2019C16.3466 9.04652 16.4876 9.00244 16.6052 8.92018L17.9034 8.01574C18.0861 7.88868 18.1946 7.68281 18.1946 7.46385V7.22363H21.3056C21.689 7.22363 22 6.91963 22 6.54537C22 6.17088 21.689 5.867 21.3056 5.867ZM11.1199 18.9651C11.1199 19.3387 10.808 19.6434 10.4254 19.6434H4.15634C3.77386 19.6434 3.46198 19.3387 3.46198 18.9651V18.3432C3.46198 18.0812 3.62004 17.8597 3.84348 17.7466L10.3993 17.665H10.4254C10.808 17.665 11.1199 17.9697 11.1199 18.3432V18.9651ZM4.15634 16.3084C4.10899 16.3084 4.06469 16.319 4.01812 16.322C3.87305 15.8087 4.15764 15.085 4.3236 14.7794L5.74222 11.5064C5.93296 11.0666 5.95914 10.5851 5.8199 10.1311L9.38938 10.0993C8.63174 11.2502 7.58196 13.1279 7.44366 14.8698C7.42944 14.9584 7.34429 15.6293 7.69963 16.3084H4.15634ZM10.2664 11.2996C10.2675 11.2981 10.2685 11.2963 10.2695 11.2947C10.4521 10.9947 10.6271 10.7312 10.7788 10.5104C10.7867 10.4991 10.7939 10.4887 10.8016 10.4776C10.7963 10.5479 10.7935 10.6198 10.7935 10.6945C10.7935 10.9154 10.8207 11.1168 10.8667 11.2996H10.2664ZM13.0247 8.73256H12.1305H10.7183H10.7128H8.51581H4.54585C3.90758 8.73256 3.38856 8.22558 3.38856 7.60198V5.48662C3.38856 4.86326 3.90758 4.35615 4.54585 4.35615H13.0247C13.663 4.35615 14.1819 4.86326 14.1819 5.48662V7.60198C14.1819 8.22558 13.663 8.73256 13.0247 8.73256ZM16.8059 7.11421L15.9795 7.69002H15.5708V7.60246V5.4871V5.39991H15.9795L16.8059 5.97558V7.11421Z" fill="white"/>
</svg>
