<svg width="32" height="32" viewBox="0 0 32 32" fill="none" xmlns="http://www.w3.org/2000/svg">
<path d="M29.5346 15.0663C29.068 14.4663 28.268 14.1996 27.5346 14.3329L22.868 15.3329C22.468 14.4663 21.5346 13.7996 20.468 13.7996H16.2013C15.868 13.7996 15.5346 13.6663 15.268 13.4663L13.668 12.1329C12.9346 11.5329 12.068 11.1996 11.1346 11.1996H8.6013V9.59961H2.66797V10.9329H7.2013V20.1996H2.66797V21.5329H8.53464V20.2663C12.668 22.1329 15.4013 22.5996 17.1346 22.5996C18.6013 22.5996 19.3346 22.2663 19.6013 22.1329L28.068 18.6663C28.8013 18.3329 29.4013 17.8663 29.7346 17.1996L29.8013 17.1329C30.068 16.3996 30.0013 15.5996 29.5346 15.0663ZM28.5346 16.5329C28.3346 16.8663 28.0013 17.1996 27.6013 17.3996L19.068 20.8663L19.0013 20.9329C19.0013 20.9329 16.3346 22.3329 8.6013 18.7996V12.5329H11.1346C11.7346 12.5329 12.3346 12.7329 12.8013 13.1329L14.4013 14.4663C14.9346 14.8663 15.5346 15.1329 16.2013 15.1329H20.468C21.068 15.1329 21.6013 15.5329 21.668 16.0663C21.7346 16.2663 21.668 16.4663 21.5346 16.6663C21.4013 16.9329 21.068 17.0663 20.668 17.0663H15.068V18.3996H20.668C21.5346 18.3996 22.268 17.9996 22.668 17.3329C22.8013 17.1329 22.868 16.8663 22.9346 16.6663L27.7346 15.6663C28.1346 15.5996 28.3346 15.7996 28.4013 15.9329C28.5346 15.9329 28.7346 16.1996 28.5346 16.5329Z" fill="#1D1D1B"/>
</svg>
