<svg width="40" height="40" viewBox="0 0 40 40" fill="none" xmlns="http://www.w3.org/2000/svg">
<circle cx="20" cy="20" r="20" fill="#EA1917"/>
<g clip-path="url(#clip0_4027_52549)">
<path fill-rule="evenodd" clip-rule="evenodd" d="M20.9999 13.0024C20.9999 12.4502 20.5521 12.0024 19.9999 12.0024C19.4476 12.0024 18.9999 12.4502 18.9999 13.0024L18.9999 19.5027H12.5C11.9477 19.5027 11.5 19.9504 11.5 20.5027C11.5 21.055 11.9477 21.5027 12.5 21.5027H18.9999L18.9999 28.002C18.9999 28.5543 19.4476 29.002 19.9999 29.002C20.5521 29.002 20.9999 28.5543 20.9999 28.002L20.9999 21.5027H27.4996C28.0519 21.5027 28.4996 21.055 28.4996 20.5027C28.4996 19.9504 28.0519 19.5027 27.4996 19.5027H20.9999L20.9999 13.0024Z" fill="white"/>
</g>
<defs>
<clipPath id="clip0_4027_52549">
<rect width="16.6667" height="16.6668" fill="white" transform="translate(11.666 12.1689)"/>
</clipPath>
</defs>
</svg>
