<svg width="24" height="24" viewBox="0 0 24 24" fill="none" xmlns="http://www.w3.org/2000/svg">
<path fill-rule="evenodd" clip-rule="evenodd" d="M19.2849 6.53033C19.5778 6.23744 19.5778 5.76256 19.2849 5.46967C18.992 5.17678 18.5171 5.17678 18.2242 5.46967L12.3773 11.3166L6.53033 5.46967C6.23744 5.17678 5.76256 5.17678 5.46967 5.46967C5.17678 5.76256 5.17678 6.23744 5.46967 6.53033L11.3166 12.3773L5.46983 18.2241C5.17694 18.517 5.17694 18.9918 5.46983 19.2847C5.76273 19.5776 6.2376 19.5776 6.53049 19.2847L12.3773 13.4379L18.2241 19.2847C18.517 19.5776 18.9918 19.5776 19.2847 19.2847C19.5776 18.9918 19.5776 18.517 19.2847 18.2241L13.4379 12.3773L19.2849 6.53033Z" fill="black"/>
</svg>
