<svg width="65" height="46" viewBox="0 0 65 46" fill="none" xmlns="http://www.w3.org/2000/svg">
<rect x="1.74609" y="1.3501" width="62.5" height="43.3" rx="4.25" fill="white" stroke="black" stroke-width="1.5"/>
<path fill-rule="evenodd" clip-rule="evenodd" d="M14.9371 20.2665C14.9371 18.2055 16.5842 16.5511 18.5959 16.5511C20.6076 16.5511 22.2546 18.2055 22.2546 20.2665C22.2546 22.3275 20.6076 23.9819 18.5959 23.9819C16.5842 23.9819 14.9371 22.3275 14.9371 20.2665ZM18.5959 15.0511C15.7378 15.0511 13.4371 17.3952 13.4371 20.2665C13.4371 22.1184 14.3941 23.7509 15.8404 24.6767C12.1859 25.8569 9.54688 29.3218 9.54688 33.4003C9.54688 33.8145 9.88266 34.1503 10.2969 34.1503H26.8946C27.3088 34.1503 27.6446 33.8145 27.6446 33.4003C27.6446 29.3219 25.0057 25.857 21.3513 24.6768C22.7976 23.751 23.7546 22.1184 23.7546 20.2665C23.7546 17.3952 21.454 15.0511 18.5959 15.0511ZM18.5957 25.7449C22.5076 25.7449 25.737 28.7669 26.1089 32.6503H11.0826C11.4544 28.7669 14.6839 25.7449 18.5957 25.7449Z" fill="black"/>
<path d="M19.3477 1.3501H46.6477V5.6001C46.6477 6.84274 45.6403 7.85009 44.3977 7.85009H21.5977C20.355 7.85009 19.3477 6.84274 19.3477 5.60009V1.3501Z" fill="white" stroke="black" stroke-width="1.5"/>
<path d="M32.9922 18.2H55.3922" stroke="black" stroke-width="1.5" stroke-linecap="round"/>
<path d="M32.9922 24.5996H55.3922" stroke="black" stroke-width="1.5" stroke-linecap="round"/>
<path d="M32.9922 31.0007H55.3922" stroke="black" stroke-width="1.5" stroke-linecap="round"/>
</svg>