<svg width="32" height="33" viewBox="0 0 32 33" fill="none" xmlns="http://www.w3.org/2000/svg">
<g clip-path="url(#clip0_431_10073)">
<path fill-rule="evenodd" clip-rule="evenodd" d="M16 32.6387C12.8355 32.6387 9.74198 31.7003 7.11079 29.9422C4.4796 28.1841 2.42894 25.6852 1.21793 22.7616C0.00693185 19.838 -0.309921 16.6209 0.307443 13.5172C0.924806 10.4135 2.4486 7.56261 4.68624 5.32497C6.92388 3.08732 9.77484 1.56348 12.8785 0.946115C15.9822 0.328751 19.1992 0.645604 22.1228 1.85661C25.0465 3.06761 27.5453 5.11837 29.3034 7.74956C31.0615 10.3807 32 13.4742 32 16.6387C32 20.8821 30.3143 24.9518 27.3137 27.9524C24.3131 30.953 20.2434 32.6387 16 32.6387ZM17.5269 20.8014C21.2206 21.0848 23.2869 17.1159 22.784 13.4515C22.336 10.2049 19.0902 8.55182 15.6342 8.93765C14.1866 9.07405 12.8339 9.71778 11.815 10.7551C10.7961 11.7924 10.1767 13.1564 10.0663 14.6062C9.99312 16.5335 10.5417 17.979 12.3794 18.385C13.1749 16.9815 12.1234 16.6725 11.9588 15.6558C11.2822 11.4949 16.7588 8.65514 19.6297 11.5607C21.6137 13.5722 20.3062 19.7628 17.1062 19.121C14.0434 18.5047 18.6057 13.5777 16.1646 12.6113C14.1714 11.825 13.12 15.014 14.0617 16.6012C13.504 19.3267 12.3154 21.8949 12.8 25.3134C14.3634 24.1815 14.8845 22.0119 15.3234 19.75C15.9447 20.3 16.7083 20.6641 17.5269 20.8005V20.8014Z" fill="#646464"/>
</g>
<defs>
<clipPath id="clip0_431_10073">
<rect width="32" height="32" fill="white" transform="translate(0 0.638672)"/>
</clipPath>
</defs>
</svg>
