<svg width="64" height="64" viewBox="0 0 64 64" fill="none" xmlns="http://www.w3.org/2000/svg">
<g clip-path="url(#clip0_11687_144698)">
<path d="M36.3031 31.4404C35.2231 32.5804 33.6931 33.2904 32.0031 33.2904C30.3131 33.2904 28.7831 32.5804 27.7031 31.4404" stroke="black" stroke-width="1.5" stroke-miterlimit="10"/>
<path d="M27.7031 23.2904C28.7831 22.1504 30.3131 21.4404 32.0031 21.4404C33.6931 21.4404 35.2231 22.1504 36.3031 23.2904" stroke="black" stroke-width="1.5" stroke-miterlimit="10"/>
<path d="M32.0003 30.0504C33.4804 30.0504 34.6803 28.8506 34.6803 27.3704C34.6803 25.8903 33.4804 24.6904 32.0003 24.6904C30.5202 24.6904 29.3203 25.8903 29.3203 27.3704C29.3203 28.8506 30.5202 30.0504 32.0003 30.0504Z" stroke="black" stroke-width="1.5" stroke-miterlimit="10"/>
<path d="M40.6097 33.3004C43.8847 33.3004 46.5397 30.6455 46.5397 27.3704C46.5397 24.0954 43.8847 21.4404 40.6097 21.4404C37.3346 21.4404 34.6797 24.0954 34.6797 27.3704C34.6797 30.6455 37.3346 33.3004 40.6097 33.3004Z" stroke="black" stroke-width="1.5" stroke-miterlimit="10"/>
<path d="M40.6097 30.0504C42.0898 30.0504 43.2897 28.8506 43.2897 27.3704C43.2897 25.8903 42.0898 24.6904 40.6097 24.6904C39.1296 24.6904 37.9297 25.8903 37.9297 27.3704C37.9297 28.8506 39.1296 30.0504 40.6097 30.0504Z" stroke="black" stroke-width="1.5" stroke-miterlimit="10"/>
<path d="M23.3909 33.3004C26.666 33.3004 29.3209 30.6455 29.3209 27.3704C29.3209 24.0954 26.666 21.4404 23.3909 21.4404C20.1159 21.4404 17.4609 24.0954 17.4609 27.3704C17.4609 30.6455 20.1159 33.3004 23.3909 33.3004Z" stroke="black" stroke-width="1.5" stroke-miterlimit="10"/>
<path d="M23.3909 30.0504C24.8711 30.0504 26.0709 28.8506 26.0709 27.3704C26.0709 25.8903 24.8711 24.6904 23.3909 24.6904C21.9108 24.6904 20.7109 25.8903 20.7109 27.3704C20.7109 28.8506 21.9108 30.0504 23.3909 30.0504Z" stroke="black" stroke-width="1.5" stroke-miterlimit="10"/>
<path d="M52.5 2.75H11.5C10.3954 2.75 9.5 3.64543 9.5 4.75V59.25C9.5 60.3546 10.3954 61.25 11.5 61.25H52.5C53.6046 61.25 54.5 60.3546 54.5 59.25V4.75C54.5 3.64543 53.6046 2.75 52.5 2.75Z" stroke="black" stroke-width="1.5"/>
<path d="M9.5 11.5195H54.5" stroke="black" stroke-width="1.5"/>
<path d="M35 7.15039H29" stroke="black" stroke-width="1.5" stroke-linecap="round"/>
<path d="M49 15.3701H15C13.8954 15.3701 13 16.2655 13 17.3701V55.3701C13 56.4747 13.8954 57.3701 15 57.3701H49C50.1046 57.3701 51 56.4747 51 55.3701V17.3701C51 16.2655 50.1046 15.3701 49 15.3701Z" stroke="black" stroke-width="1.5"/>
<path d="M50.2787 30.6504H13.7188" stroke="black" stroke-width="1.5" stroke-miterlimit="10" stroke-linecap="round"/>
<path d="M50.2787 42.0908H13.7188" stroke="black" stroke-width="1.5" stroke-miterlimit="10" stroke-linecap="round"/>
<path d="M22.9453 44.66V39.25" stroke="black" stroke-width="1.5" stroke-linecap="round" stroke-linejoin="round"/>
<path d="M21.0156 39.1504H25.0556" stroke="black" stroke-width="1.5" stroke-linecap="round" stroke-linejoin="round"/>
<path d="M25.9184 53.6899C26.7484 50.2799 26.7484 48.4699 26.7484 48.4699C26.7484 46.3699 25.0484 44.6699 22.9484 44.6699C20.8484 44.6699 19.1484 46.3699 19.1484 48.4699C19.1484 48.4699 19.1484 50.2799 19.9784 53.6899H25.9284H25.9184Z" stroke="black" stroke-width="1.5" stroke-linecap="round" stroke-linejoin="round"/>
<path d="M32.0078 44.66V39.25" stroke="black" stroke-width="1.5" stroke-linecap="round" stroke-linejoin="round"/>
<path d="M30.0781 39.1504H34.1181" stroke="black" stroke-width="1.5" stroke-linecap="round" stroke-linejoin="round"/>
<path d="M34.9809 53.6899C35.8109 50.2799 35.8109 48.4699 35.8109 48.4699C35.8109 46.3699 34.1109 44.6699 32.0109 44.6699C29.9109 44.6699 28.2109 46.3699 28.2109 48.4699C28.2109 48.4699 28.2109 50.2799 29.0409 53.6899H34.9909H34.9809Z" stroke="black" stroke-width="1.5" stroke-linecap="round" stroke-linejoin="round"/>
<path d="M41.0469 44.66V39.25" stroke="black" stroke-width="1.5" stroke-linecap="round" stroke-linejoin="round"/>
<path d="M39.125 39.1504H43.165" stroke="black" stroke-width="1.5" stroke-linecap="round" stroke-linejoin="round"/>
<path d="M44.0278 53.6899C44.8578 50.2799 44.8578 48.4699 44.8578 48.4699C44.8578 46.3699 43.1578 44.6699 41.0578 44.6699C38.9578 44.6699 37.2578 46.3699 37.2578 48.4699C37.2578 48.4699 37.2578 50.2799 38.0878 53.6899H44.0378H44.0278Z" stroke="black" stroke-width="1.5" stroke-linecap="round" stroke-linejoin="round"/>
</g>
<defs>
<clipPath id="clip0_11687_144698">
<rect width="46.5" height="60" fill="white" transform="translate(8.75 2)"/>
</clipPath>
</defs>
</svg>
