<svg width="18" height="19" viewBox="0 0 18 19" fill="none" xmlns="http://www.w3.org/2000/svg">
<path fill-rule="evenodd" clip-rule="evenodd" d="M9.01343 1.94922C9.28957 1.94922 9.51343 2.17308 9.51343 2.44922V3.44959C10.0635 3.65213 10.4559 4.1809 10.4559 4.80131C10.4559 4.89159 10.4476 4.97992 10.4317 5.06559L12.0759 7.12085H13.6563C14.4847 7.12085 15.1563 7.79242 15.1563 8.62085V15.5528C15.1563 16.3812 14.4847 17.0528 13.6563 17.0528H4.37378C3.54535 17.0528 2.87378 16.3812 2.87378 15.5528V8.62085C2.87378 7.79242 3.54535 7.12085 4.37378 7.12085H5.9549L7.59993 5.06455C7.58417 4.97921 7.57593 4.89122 7.57593 4.80131C7.57593 4.18277 7.96592 3.65532 8.51343 3.45143V2.44922C8.51343 2.17308 8.73729 1.94922 9.01343 1.94922ZM11.8221 8.12085C11.8314 8.12111 11.8407 8.12111 11.85 8.12085H13.6563C13.9324 8.12085 14.1563 8.34471 14.1563 8.62085V15.5528C14.1563 15.829 13.9324 16.0528 13.6563 16.0528H4.37378C4.09764 16.0528 3.87378 15.829 3.87378 15.5528V8.62085C3.87378 8.34471 4.09764 8.12085 4.37378 8.12085H6.18082C6.19011 8.12111 6.19941 8.12111 6.20869 8.12085H7.10425V11.3817V11.8817H7.60425H10.4249H10.9249V11.3817V8.12085H11.8221ZM10.7953 7.12085L9.86826 5.96207C9.62962 6.1376 9.33488 6.2413 9.01591 6.2413C8.69667 6.2413 8.40168 6.13741 8.16293 5.96159L7.23552 7.12085H7.60425H10.4249H10.7953ZM8.57593 4.80131C8.57593 4.55832 8.77292 4.36133 9.01591 4.36133C9.25891 4.36133 9.4559 4.55832 9.4559 4.80131C9.4559 5.04431 9.25891 5.2413 9.01591 5.2413C8.77292 5.2413 8.57593 5.04431 8.57593 4.80131ZM9.92487 8.12085H8.10425V10.8817H9.92487V8.12085Z" fill="#555555"/>
</svg>
