<svg width="49" height="48" viewBox="0 0 49 48" fill="none" xmlns="http://www.w3.org/2000/svg">
<path fill-rule="evenodd" clip-rule="evenodd" d="M15.625 6.32422C15.625 5.91001 15.2892 5.57422 14.875 5.57422C14.4608 5.57422 14.125 5.91001 14.125 6.32422V8.94043H7.25C5.73122 8.94043 4.5 10.1716 4.5 11.6904V39.676C4.5 41.1948 5.73122 42.426 7.25 42.426H41.7488C43.2676 42.426 44.4988 41.1948 44.4988 39.676V11.6904C44.4988 10.1716 43.2676 8.94043 41.7488 8.94043H34.8711V6.32422C34.8711 5.91001 34.5353 5.57422 34.1211 5.57422C33.7069 5.57422 33.3711 5.91001 33.3711 6.32422V8.94043H15.625V6.32422ZM33.3711 13.8997V10.4404H15.625V13.8997C15.625 14.314 15.2892 14.6497 14.875 14.6497C14.4608 14.6497 14.125 14.314 14.125 13.8997V10.4404H7.25C6.55964 10.4404 6 11.0001 6 11.6904V17.3564H42.9988V11.6904C42.9988 11.0001 42.4392 10.4404 41.7488 10.4404H34.8711V13.8997C34.8711 14.314 34.5353 14.6497 34.1211 14.6497C33.7069 14.6497 33.3711 14.314 33.3711 13.8997ZM6 39.676V18.8564H42.9988V39.676C42.9988 40.3664 42.4392 40.926 41.7488 40.926H7.25C6.55965 40.926 6 40.3664 6 39.676ZM31.3055 25.645C31.6046 25.3584 31.6148 24.8837 31.3282 24.5845C31.0417 24.2854 30.5669 24.2753 30.2678 24.5618L22.5846 31.9223L18.7334 28.2346C18.4343 27.9481 17.9595 27.9584 17.673 28.2575C17.3866 28.5567 17.3968 29.0315 17.696 29.318L22.066 33.5025L22.5848 33.9993L23.1035 33.5024L31.3055 25.645Z" fill="black"/>
</svg>
