<svg width="48" height="48" viewBox="0 0 48 48" fill="none" xmlns="http://www.w3.org/2000/svg">
<path fill-rule="evenodd" clip-rule="evenodd" d="M3.5 23.9999C3.5 12.6781 12.6781 3.5 23.9999 3.5C29.8216 3.5 35.0763 5.92604 38.8088 9.82442H33.7619C33.3477 9.82442 33.0119 10.1602 33.0119 10.5744C33.0119 10.9886 33.3477 11.3244 33.7619 11.3244H40.4724H41.2224V10.5744V3.86392C41.2224 3.44971 40.8866 3.11392 40.4724 3.11392C40.0582 3.11392 39.7224 3.44971 39.7224 3.86392V8.61164C35.7295 4.53272 30.1603 2 23.9999 2C11.8497 2 2 11.8497 2 23.9999C2 36.1501 11.8497 45.9998 23.9999 45.9998C36.1501 45.9998 45.9998 36.1501 45.9998 23.9999C45.9998 23.2473 45.962 22.5032 45.8881 21.7696C45.8466 21.3575 45.4789 21.0571 45.0667 21.0986C44.6546 21.1401 44.3542 21.5078 44.3957 21.92C44.4645 22.6037 44.4998 23.2976 44.4998 23.9999C44.4998 35.3217 35.3217 44.4998 23.9999 44.4998C12.6781 44.4998 3.5 35.3217 3.5 23.9999ZM25.7351 27.4485C25.6445 24.2868 28.1342 21.6505 31.2958 21.5599C34.4574 21.4694 37.0938 23.959 37.1843 27.1207C37.2748 30.2823 34.7852 32.9187 31.6236 33.0092C28.462 33.0997 25.8256 30.6101 25.7351 27.4485ZM31.2529 20.0605C27.2631 20.1748 24.1214 23.5017 24.2357 27.4914C24.3499 31.4811 27.6768 34.6228 31.6665 34.5086C35.6562 34.3943 38.7979 31.0674 38.6837 27.0777C38.5695 23.088 35.2426 19.9463 31.2529 20.0605ZM14.1275 16.0928C13.8311 16.3801 13.75 16.6135 13.75 16.7839C13.75 16.9543 13.8311 17.1877 14.1275 17.475C14.4261 17.7645 14.8975 18.0597 15.5411 18.3236C16.8248 18.8499 18.6499 19.1928 20.7044 19.1928C22.759 19.1928 24.5841 18.8499 25.8678 18.3236C26.5114 18.0597 26.9828 17.7645 27.2814 17.475C27.5778 17.1877 27.6589 16.9543 27.6589 16.7839C27.6589 16.6135 27.5778 16.3801 27.2814 16.0928C26.9828 15.8033 26.5114 15.5081 25.8678 15.2442C24.5841 14.7178 22.759 14.375 20.7044 14.375C18.6499 14.375 16.8248 14.7178 15.5411 15.2442C14.8975 15.5081 14.4261 15.8033 14.1275 16.0928ZM14.9721 13.8563C16.4769 13.2393 18.504 12.875 20.7044 12.875C22.9049 12.875 24.932 13.2393 26.4368 13.8563C27.1874 14.164 27.8444 14.5494 28.3255 15.0158C28.8088 15.4843 29.1589 16.082 29.1589 16.7839C29.1589 17.4858 28.8088 18.0834 28.3255 18.552C27.8444 19.0183 27.1874 19.4038 26.4368 19.7115C24.932 20.3285 22.9049 20.6928 20.7044 20.6928C18.504 20.6928 16.4769 20.3285 14.9721 19.7115C14.5259 19.5286 14.1127 19.3182 13.75 19.0796V19.437V20.187C13.75 20.3572 13.831 20.5905 14.1274 20.8778C14.426 21.1673 14.8974 21.4626 15.541 21.7265C16.8246 22.2529 18.6497 22.5959 20.7044 22.5959H22.5H23.25V24.0959H22.5H20.7044C18.5037 24.0959 16.4766 23.7314 14.9719 23.1144C14.5257 22.9314 14.1127 22.721 13.75 22.4825V22.8433V23.5933C13.75 23.7635 13.831 23.9967 14.1274 24.284C14.426 24.5735 14.8974 24.8688 15.541 25.1328C16.8246 25.6592 18.6497 26.0022 20.7044 26.0022H21.6303H22.3803V27.5022H21.6303H20.7044C18.5037 27.5022 16.4766 27.1377 14.9719 26.5206C14.5257 26.3377 14.1127 26.1273 13.75 25.8888V26.2461H13.7537V26.9961C13.7537 27.1663 13.8347 27.3996 14.1311 27.6869C14.4297 27.9764 14.901 28.2717 15.5446 28.5356C16.8264 29.0612 18.6483 29.404 20.6995 29.405L20.6997 29.405L20.7255 29.4044L20.8216 29.4022L21.1475 29.3946L21.9826 29.3752L22.7324 29.3578L22.7672 30.8574L22.0174 30.8748L21.1823 30.8942L20.8564 30.9017L20.7603 30.904L20.7345 30.9046L20.7278 30.9047L20.7268 30.9048L20.7264 30.9048L20.7262 30.9048L20.7261 30.9048L20.7257 30.9048L20.7256 30.9048H20.7255L20.7081 30.155L20.7255 30.9048L20.7081 30.905C18.5074 30.905 16.4803 30.5405 14.9755 29.9234C14.5279 29.7399 14.1136 29.5287 13.75 29.2892V30.0029H13.7537V30.7529C13.7537 30.9232 13.8347 31.1564 14.1311 31.4437C14.4297 31.7332 14.901 32.0285 15.5446 32.2924C16.8282 32.8188 18.6534 33.1618 20.7081 33.1618C21.5849 33.1618 23.0771 33.0047 23.8891 32.8833L24.6308 32.7723L24.8527 34.2558L24.1109 34.3667C23.2674 34.4929 21.692 34.6618 20.7081 34.6618C18.5074 34.6618 16.4803 34.2973 14.9755 33.6803C14.225 33.3725 13.5681 32.987 13.087 32.5207C12.6267 32.0745 12.2873 31.5112 12.256 30.8523C12.252 30.8211 12.25 30.7892 12.25 30.7569V23.5933V22.8433V20.187V19.437V16.7842C12.25 16.7841 12.25 16.7841 12.25 16.7841C12.25 16.784 12.25 16.784 12.25 16.7839C12.25 16.082 12.6001 15.4843 13.0834 15.0158C13.5645 14.5494 14.2215 14.164 14.9721 13.8563Z" fill="black"/>
</svg>
