<svg width="24" height="25" viewBox="0 0 24 25" fill="none" xmlns="http://www.w3.org/2000/svg">
<path fill-rule="evenodd" clip-rule="evenodd" d="M13.9168 5.27384C14.3155 5.26595 14.8964 5.37221 15.3957 5.73353C15.7321 5.97701 16.0101 6.3217 16.1697 6.77636L16.8969 6.77636C19.2529 6.77636 21.0013 8.93436 21.0013 11.4107V11.6855H21.0018V18.0707V18.6707L20.4018 18.6707L19.3323 18.6707C19.084 19.7555 18.1114 20.5649 16.9495 20.5649C15.7979 20.5649 14.8324 19.7699 14.5735 18.6997H9.17115C8.91231 19.7699 7.94675 20.5649 6.79519 20.5649C5.44533 20.5649 4.35104 19.4725 4.35104 18.1249C4.35104 17.8426 4.39909 17.5714 4.48748 17.3191C3.63875 16.5224 3.08373 15.4207 3.08373 14.1564V9.72286V9.12286H3.68373H8.36598V10.3229H4.28373V14.1564C4.28373 14.9825 4.6158 15.7257 5.16776 16.3045C5.59994 15.9192 6.17017 15.685 6.79519 15.685C7.92855 15.685 8.88174 16.455 9.15835 17.4997H14.5863C14.8629 16.455 15.8161 15.685 16.9495 15.685C18.0723 15.685 19.0184 16.4408 19.3048 17.4707L19.8018 17.4707V12.0107H19.8013V11.4107C19.8013 9.4302 18.4347 7.97636 16.8969 7.97636H16.3163V11.9268L18.6366 11.9267V13.1267H15.7163H15.1163V12.5268V7.69258C15.1163 7.13501 14.9053 6.85993 14.6921 6.70566C14.4475 6.52863 14.1362 6.46898 13.9374 6.47367L13.9303 6.47384H13.9232H2.99854V5.27384H13.9168ZM6.79519 19.3649C7.48424 19.3649 8.03934 18.8078 8.03934 18.1249C8.03934 17.442 7.48424 16.885 6.79519 16.885C6.10614 16.885 5.55104 17.442 5.55104 18.1249C5.55104 18.8078 6.10614 19.3649 6.79519 19.3649ZM10.0092 8.36503L2.99945 8.36503L2.99945 7.16503L10.0092 7.16503V8.36503ZM18.1936 18.1249C18.1936 18.8078 17.6385 19.3649 16.9495 19.3649C16.2604 19.3649 15.7053 18.8078 15.7053 18.1249C15.7053 17.442 16.2604 16.885 16.9495 16.885C17.6385 16.885 18.1936 17.442 18.1936 18.1249Z" fill="#555555"/>
</svg>
