<svg width="18" height="19" viewBox="0 0 18 19" fill="none" xmlns="http://www.w3.org/2000/svg">
<path d="M8.4695 15.9688H4.5C3.67157 15.9688 3 15.2972 3 14.4688V5.0004C3 4.17198 3.67157 3.5004 4.5 3.5004H12.4098C13.2382 3.5004 13.9098 4.17198 13.9098 5.0004V10.4185" stroke="#DAA40D"/>
<path d="M5.59863 6.7793H11.3133" stroke="#DAA40D" stroke-linecap="round" stroke-linejoin="round"/>
<path d="M5.59863 8.83594H11.3133" stroke="#DAA40D" stroke-linecap="round" stroke-linejoin="round"/>
<path fill-rule="evenodd" clip-rule="evenodd" d="M9.70117 16.459H12.7012C13.8057 16.459 14.7012 15.5636 14.7012 14.459C14.7012 13.3544 13.8057 12.459 12.7012 12.459H9.70117V13.459H12.7012C13.2535 13.459 13.7012 13.9067 13.7012 14.459C13.7012 15.0113 13.2535 15.459 12.7012 15.459H9.70117V16.459Z" fill="#DAA40D"/>
<path d="M10.7012 11.959L9.70117 12.959L10.7012 13.959" stroke="#DAA40D" stroke-linecap="round" stroke-linejoin="round"/>
</svg>
