<svg width="370" height="56" viewBox="0 0 370 56" fill="none" xmlns="http://www.w3.org/2000/svg">
<mask id="path-1-inside-1_1329_333711" fill="white">
<path fill-rule="evenodd" clip-rule="evenodd" d="M347.887 6.15771C350.648 6.15771 352.887 3.91914 352.887 1.15771C352.887 1.10495 352.886 1.05237 352.884 1H362C366.418 1 370 4.58172 370 9V47C370 51.4183 366.418 55 362 55H352.833C352.478 52.5865 350.399 50.7339 347.887 50.7339C345.375 50.7339 343.295 52.5865 342.94 55H8.00001C3.58173 55 0 51.4183 0 47V9C0 4.58172 3.58172 1 8 1H342.889C342.888 1.05237 342.887 1.10495 342.887 1.15771C342.887 3.91914 345.125 6.15771 347.887 6.15771Z"/>
</mask>
<path fill-rule="evenodd" clip-rule="evenodd" d="M347.887 6.15771C350.648 6.15771 352.887 3.91914 352.887 1.15771C352.887 1.10495 352.886 1.05237 352.884 1H362C366.418 1 370 4.58172 370 9V47C370 51.4183 366.418 55 362 55H352.833C352.478 52.5865 350.399 50.7339 347.887 50.7339C345.375 50.7339 343.295 52.5865 342.94 55H8.00001C3.58173 55 0 51.4183 0 47V9C0 4.58172 3.58172 1 8 1H342.889C342.888 1.05237 342.887 1.10495 342.887 1.15771C342.887 3.91914 345.125 6.15771 347.887 6.15771Z" fill="white"/>
<path d="M352.884 1V0H351.853L351.885 1.03087L352.884 1ZM352.833 55L351.844 55.1455L351.97 56H352.833V55ZM342.94 55V56H343.804L343.93 55.1455L342.94 55ZM342.889 1L343.889 1.03087L343.921 0H342.889V1ZM351.887 1.15771C351.887 3.36685 350.096 5.15771 347.887 5.15771V7.15771C351.2 7.15771 353.887 4.47142 353.887 1.15771H351.887ZM351.885 1.03087C351.886 1.07308 351.887 1.11536 351.887 1.15771H353.887C353.887 1.09454 353.886 1.03167 353.884 0.969132L351.885 1.03087ZM362 0H352.884V2H362V0ZM371 9C371 4.02944 366.971 0 362 0V2C365.866 2 369 5.13401 369 9H371ZM371 47V9H369V47H371ZM362 56C366.971 56 371 51.9706 371 47H369C369 50.866 365.866 54 362 54V56ZM352.833 56H362V54H352.833V56ZM347.887 51.7339C349.896 51.7339 351.56 53.2156 351.844 55.1455L353.823 54.8545C353.396 51.9574 350.902 49.7339 347.887 49.7339V51.7339ZM343.93 55.1455C344.213 53.2156 345.878 51.7339 347.887 51.7339V49.7339C344.871 49.7339 342.377 51.9574 341.951 54.8545L343.93 55.1455ZM8.00001 56H342.94V54H8.00001V56ZM-1 47C-1 51.9706 3.02945 56 8.00001 56V54C4.13401 54 1 50.866 1 47H-1ZM-1 9V47H1V9H-1ZM8 0C3.02944 0 -1 4.02944 -1 9H1C1 5.13401 4.13401 2 8 2V0ZM342.889 0H8V2H342.889V0ZM343.887 1.15771C343.887 1.11536 343.887 1.07308 343.889 1.03087L341.89 0.969132C341.888 1.03167 341.887 1.09454 341.887 1.15771H343.887ZM347.887 5.15771C345.678 5.15771 343.887 3.36685 343.887 1.15771H341.887C341.887 4.47142 344.573 7.15771 347.887 7.15771V5.15771Z" fill="#E6E6E6" mask="url(#path-1-inside-1_1329_333711)"/>
<path d="M348 9L348 49" stroke="#E6E6E6" stroke-dasharray="2 2"/>
</svg>
