<svg width="48" height="48" viewBox="0 0 48 48" fill="none" xmlns="http://www.w3.org/2000/svg">
<path fill-rule="evenodd" clip-rule="evenodd" d="M28.6478 6.93782L25.2361 8.24229L25.2154 8.24916C24.4601 8.50094 23.7226 8.50067 23.237 8.50049C23.2242 8.50048 23.2116 8.50048 23.1992 8.50048H23.0146L19.4505 7.13775C18.7093 6.87117 18.0613 7.1074 17.7567 7.61497L17.7445 7.63538L15.7431 10.6375C15.2696 11.4105 14.5221 11.8136 13.8154 12.0492L13.7948 12.056L10.2624 13.0653C9.5987 13.2463 9.1419 13.9246 9.19511 14.5099L9.1967 14.5275L9.39494 18.0957C9.53248 19.0376 9.18145 19.7985 8.68009 20.4252L8.67201 20.4353L6.38141 23.2237C5.97182 23.7582 5.97182 24.4428 6.38141 24.9773L8.68597 27.7828L8.69922 27.8005C9.14035 28.3887 9.39922 29.2038 9.39922 30.0005V30.0421L9.09955 33.6381C9.11334 34.422 9.55777 34.9708 10.1623 35.1357L10.174 35.1389L13.6254 36.1251C14.5266 36.296 15.2292 36.8861 15.6432 37.5637L17.6313 40.5458C17.9617 41.0414 18.6557 41.3018 19.3298 41.0705L22.7116 39.5785L22.7278 39.572C23.4846 39.2693 24.3322 39.2907 25.1154 39.5518L25.1361 39.5587L28.548 40.8632C29.2891 41.1298 29.9372 40.8936 30.2417 40.386L30.254 40.3656L32.2554 37.3635C32.7288 36.5904 33.4763 36.1874 34.183 35.9518L34.2036 35.9449L37.7361 34.9356C38.3997 34.7546 38.8565 34.0763 38.8033 33.491L38.8017 33.4735L38.6035 29.9052C38.466 28.9634 38.817 28.2025 39.3183 27.5758L39.3264 27.5657L41.617 24.7773C42.0266 24.2428 42.0266 23.5582 41.617 23.0237L39.3125 20.2181L39.2992 20.2005C38.8581 19.6123 38.5992 18.7972 38.5992 18.0005V17.9589L38.8989 14.3629C38.8851 13.579 38.4407 13.0301 37.8361 12.8652L37.8245 12.8621L34.373 11.8759C33.4718 11.7049 32.7692 11.1149 32.3552 10.4372L30.3672 7.45518C30.0333 6.9544 29.3284 6.69374 28.6478 6.93782ZM27.9575 5.06068C29.4748 4.50895 31.1662 5.04822 32.0313 6.34578L34.0445 9.36558L34.0567 9.38598C34.2353 9.68355 34.5044 9.87088 34.7636 9.91408L34.8195 9.92339L38.3686 10.9374C39.9506 11.372 40.8992 12.8065 40.8992 14.4005V14.4421L40.5996 18.0374C40.6077 18.4181 40.7389 18.7781 40.8885 18.986L43.1804 21.776L43.1886 21.7865C44.1694 23.0476 44.1694 24.7533 43.1886 26.0144L43.1804 26.0249L40.8764 28.8298C40.5916 29.1872 40.5473 29.4065 40.5856 29.6361L40.5946 29.6902L40.7968 33.3292C40.9326 34.9345 39.7957 36.4438 38.2685 36.8635L34.7961 37.8557C34.3224 38.0164 34.0824 38.2056 33.9567 38.415L33.9445 38.4354L31.9433 41.4371C31.0449 42.9094 29.3062 43.2671 27.8575 42.7403L27.8498 42.7375L24.4643 41.443C24.0632 41.3133 23.7229 41.3324 23.4839 41.4237L20.0723 42.9289L20.041 42.9403C18.5237 43.492 16.8322 42.9527 15.9672 41.6552L13.954 38.6354L13.9417 38.615C13.7632 38.3174 13.494 38.1301 13.2348 38.0869L13.179 38.0776L9.62988 37.0635C8.04781 36.629 7.09922 35.1945 7.09922 33.6005V33.5589L7.39883 29.9636C7.39077 29.5829 7.25953 29.2229 7.10989 29.015L4.81804 26.2249L4.80987 26.2144C3.829 24.9533 3.829 23.2476 4.80987 21.9865L4.81804 21.976L7.1221 19.1711C7.40684 18.8137 7.45109 18.5945 7.41282 18.3649L7.4038 18.3107L7.20164 14.6718C7.0658 13.0665 8.20269 11.5572 9.72974 11.1375L13.2024 10.1453C13.676 9.98451 13.9161 9.79539 14.0417 9.58598L14.054 9.56558L16.0551 6.56388C16.9536 5.09156 18.6923 4.73389 20.141 5.26068L20.1487 5.26349L23.3825 6.49995C23.8139 6.49687 24.1964 6.47702 24.5642 6.35796L27.9498 5.06349L27.9575 5.06068Z" fill="#1D1D1B"/>
<path d="M18 24.0633L22.3133 28.4333L30.7467 20" stroke="#1D1D1B" stroke-width="2"/>
</svg>
