<svg width="85" height="20" viewBox="0 0 85 20" fill="none" xmlns="http://www.w3.org/2000/svg">
<path d="M7.85089 0.68504C9.02939 0.300034 10.283 0.140397 11.5225 0.220216C13.3396 0.318815 15.1144 0.962057 16.5933 2.01848C16.753 2.13586 16.9267 2.24385 17.0629 2.39409C17.2976 2.66172 17.3915 3.04203 17.307 3.38947C17.2225 3.76509 16.9267 4.08436 16.5605 4.19705C16.2036 4.30973 15.7952 4.23461 15.5088 3.99515C14.4054 3.14532 13.0626 2.61007 11.6775 2.47861C11.1704 2.42226 10.6539 2.42226 10.1468 2.47861C8.68664 2.62416 7.27338 3.21106 6.13714 4.1454C4.85536 5.19243 3.92101 6.66672 3.55479 8.28187C3.21673 9.74677 3.32003 11.315 3.86467 12.7188C4.43748 14.2119 5.50329 15.5031 6.84612 16.367C7.85089 17.0102 9.0106 17.4093 10.1938 17.522C10.6539 17.5784 11.1234 17.5784 11.5789 17.5267C13.0109 17.4046 14.396 16.8553 15.5322 15.9773C15.8186 15.7519 16.2271 15.6862 16.5746 15.8036C17.0535 15.9679 17.3962 16.4797 17.3352 16.9868C17.307 17.2826 17.1521 17.5643 16.9173 17.7427C16.0158 18.447 14.9923 18.9869 13.903 19.3344C12.4991 19.7851 10.9873 19.9025 9.52708 19.7006C7.90723 19.4752 6.34843 18.8273 5.04316 17.8413C3.77546 16.8929 2.74252 15.6299 2.06171 14.1978C1.395 12.794 1.07103 11.2258 1.12737 9.67165C1.17902 7.7607 1.81287 5.87323 2.93032 4.31912C4.1323 2.62885 5.87421 1.32828 7.85089 0.68504Z" fill="#007CFF" stroke="#007CFF" stroke-width="0.0340402"/>
<path opacity="0.4" d="M10.1445 2.47878C10.6516 2.42244 11.1681 2.42244 11.6752 2.47878C11.1634 2.46469 10.6563 2.46469 10.1445 2.47878Z" fill="#001934" stroke="#001934" stroke-width="0.0340402"/>
<path d="M21.5893 3.35202C22.0776 3.20647 22.6504 3.43653 22.8852 3.89666C24.012 6.09871 24.505 8.61533 24.3031 11.0803C24.1623 12.8363 23.6787 14.5688 22.8664 16.1323C22.5706 16.6911 21.7771 16.8695 21.2653 16.5033C20.7911 16.1981 20.6362 15.5173 20.9179 15.0243C22.4861 11.9442 22.5002 8.12703 20.9507 5.03759C20.8099 4.78405 20.7348 4.48356 20.8052 4.19715C20.885 3.79806 21.1996 3.46001 21.5893 3.35202Z" fill="#6FBAF7" stroke="#6FBAF7" stroke-width="0.0340402"/>
<path d="M76.0703 3.65208C76.122 3.44549 76.3285 3.29055 76.5492 3.29994C76.9718 3.29994 77.3944 3.29524 77.8169 3.29994C78.0611 3.29055 78.2864 3.50653 78.2864 3.75068C78.2958 4.99021 78.2817 6.22974 78.2911 7.46458C78.9062 6.91054 79.7044 6.59127 80.5214 6.51145C81.4463 6.41755 82.4229 6.57719 83.207 7.09835C84.1883 7.7369 84.7283 8.89661 84.8175 10.0375C84.8456 11.1362 84.8269 12.2349 84.8315 13.3336C84.8269 14.1318 84.8409 14.9346 84.8222 15.7328C84.7611 15.9347 84.5545 16.0662 84.3479 16.0568C83.9395 16.0568 83.5263 16.0615 83.1178 16.0568C82.8971 16.0662 82.6905 15.9018 82.6436 15.6906C82.6483 14.2632 82.6436 12.8359 82.6436 11.4085C82.6436 11.1221 82.653 10.8357 82.6248 10.5493C82.5685 9.84974 82.3055 9.1079 81.7139 8.68063C81.235 8.3238 80.5965 8.24398 80.019 8.34258C79.5682 8.4224 79.1457 8.66185 78.8546 9.01869C78.4508 9.51638 78.2958 10.169 78.2911 10.7982C78.2864 12.3945 78.2911 13.9956 78.2864 15.592C78.2911 15.8267 78.0939 16.038 77.8592 16.0521C77.5305 16.0662 77.2065 16.0521 76.8779 16.0568C76.7229 16.0568 76.5727 16.0662 76.4225 16.0427C76.2487 16.0051 76.1079 15.8596 76.0703 15.6906C76.0703 11.6762 76.0703 7.66647 76.0703 3.65208Z" fill="#002CB8" stroke="#002CB8" stroke-width="0.0340402"/>
<path opacity="0.52" d="M76.043 3.84485C76.0477 3.78381 76.0571 3.71808 76.0711 3.65234C76.0711 7.66674 76.0711 11.6764 76.0711 15.6908C76.0289 15.4842 76.0477 15.2777 76.0477 15.0711C76.043 11.329 76.0524 7.58692 76.043 3.84485Z" fill="#000B31" stroke="#000B31" stroke-width="0.0340402"/>
<path d="M7.69828 4.67052C9.68905 3.46855 12.3794 3.50142 14.3138 4.81138C14.7927 5.16352 14.8913 5.91475 14.5204 6.37958C14.187 6.83501 13.4969 6.97117 13.0226 6.66598C12.2714 6.18707 11.3605 5.98048 10.4778 6.08378C9.59514 6.17768 8.75001 6.58616 8.13024 7.22002C7.51048 7.83509 7.10669 8.66144 7.00809 9.53005C6.91888 10.2343 7.03626 10.9621 7.32736 11.61C7.71237 12.4646 8.41195 13.1735 9.26648 13.5679C10.1398 13.9811 11.1633 14.0468 12.0836 13.7604C13.3137 13.3848 14.3326 12.366 14.6847 11.1311C13.802 11.1358 12.9193 11.1311 12.0366 11.1311C11.6141 11.1311 11.2056 10.8682 11.0319 10.4879C10.8159 10.0512 10.9286 9.4831 11.2948 9.16383C11.4826 8.9948 11.7315 8.88212 11.985 8.87273C13.3184 8.86333 14.6472 8.86803 15.9806 8.86803C16.4173 8.85394 16.8398 9.12627 17.0136 9.52536C17.1638 9.83524 17.1168 10.1874 17.0981 10.5207C16.9807 11.9669 16.3281 13.3613 15.2951 14.3849C14.3044 15.3803 12.9663 16.0235 11.5671 16.1644C10.1914 16.3146 8.76879 15.9813 7.59968 15.2347C6.42119 14.4882 5.50093 13.3285 5.05019 12.0044C4.59006 10.6663 4.61354 9.16852 5.09245 7.83978C5.56197 6.52513 6.50101 5.38889 7.69828 4.67052Z" fill="#002CB8" stroke="#002CB8" stroke-width="0.0340402"/>
<path d="M34.8012 3.87256C35.7684 3.76457 36.7638 3.84439 37.6841 4.16366C38.7828 4.54397 39.7781 5.23417 40.473 6.16851C40.6233 6.34223 40.6937 6.60047 40.5904 6.81645C40.4683 7.09816 40.1444 7.18737 39.9049 7.347C39.6326 7.48317 39.3697 7.7461 39.0363 7.66628C38.7781 7.63341 38.6513 7.38457 38.4917 7.20615C37.8766 6.52535 36.9939 6.11217 36.083 6.01826C35.36 5.94784 34.6134 6.02765 33.9373 6.30937C33.1438 6.64272 32.4818 7.2578 32.0686 8.00903C31.6601 8.75556 31.5287 9.62887 31.6085 10.4693C31.6648 11.136 31.8902 11.7934 32.2799 12.3427C32.8152 13.0986 33.6133 13.6667 34.5148 13.9062C35.1534 14.0658 35.8342 14.1222 36.4821 13.9578C37.3038 13.7606 38.0879 13.3522 38.6701 12.7277C39.0832 12.2864 39.365 11.7229 39.4823 11.1313C39.487 11.1079 39.4964 11.0562 39.5011 11.0327C38.3555 11.0374 37.2099 11.0327 36.0689 11.0374C35.8201 10.9905 35.6041 10.7745 35.59 10.5163C35.5759 10.2815 35.59 10.0467 35.5853 9.81198C35.5853 9.64296 35.5665 9.45515 35.6651 9.3049C35.7778 9.1124 35.9985 9.0091 36.2145 9.02319C37.7827 9.02319 39.3509 9.02319 40.9191 9.02319C41.3369 9.0091 41.7079 9.39411 41.675 9.81198C41.6562 10.4036 41.6703 11.0093 41.5248 11.5868C41.351 12.3239 41.0552 13.0329 40.6327 13.662C40.2805 14.1926 39.8063 14.6293 39.2851 14.9908C38.6043 15.4556 37.8437 15.7984 37.0455 15.9956C35.975 16.2679 34.8388 16.2021 33.7777 15.9157C32.3175 15.5166 31.0451 14.526 30.2516 13.2442C29.3971 11.8732 29.1858 10.1641 29.5144 8.60062C29.8337 7.0606 30.8244 5.69899 32.125 4.82568C32.9185 4.29513 33.8481 3.97585 34.8012 3.87256Z" fill="#002CB8" stroke="#002CB8" stroke-width="0.0340402"/>
<path d="M48.4873 3.85891C49.3418 3.77909 50.2198 3.84013 51.0415 4.09837C52.2904 4.48337 53.4314 5.28625 54.1544 6.38493C54.2953 6.59152 54.2295 6.91079 54.0089 7.03756C53.699 7.22537 53.375 7.40378 53.0604 7.59159C52.9196 7.67141 52.774 7.77471 52.605 7.75123C52.4454 7.74653 52.3186 7.63385 52.2341 7.50708C51.7364 6.76524 50.9241 6.26285 50.0602 6.07974C49.3559 5.93888 48.6141 5.97175 47.9239 6.16425C47.1586 6.38023 46.4778 6.85445 46.0036 7.4836C45.5481 8.0705 45.2899 8.79356 45.2289 9.53071C45.149 10.3711 45.2711 11.2492 45.6749 12.0004C46.0646 12.7281 46.6891 13.3291 47.445 13.6578C48.1493 13.9677 48.9381 14.0475 49.694 13.9724C50.6096 13.8738 51.4969 13.4324 52.0792 12.7141C52.1918 12.5779 52.267 12.4042 52.4172 12.3056C52.5674 12.2117 52.7693 12.2258 52.9196 12.3197C53.2764 12.5262 53.638 12.7281 53.9948 12.9347C54.1779 13.0333 54.2718 13.2681 54.2155 13.47C54.1591 13.6249 54.0464 13.7517 53.9525 13.8832C52.8585 15.3387 51.0368 16.1885 49.2245 16.165C47.8112 16.1885 46.3698 15.7518 45.2664 14.8504C44.6232 14.3292 44.0785 13.686 43.6888 12.9535C43.2803 12.1882 43.0597 11.3337 43.008 10.4651C42.947 9.53071 43.0597 8.57289 43.393 7.69019C43.8813 6.4131 44.8345 5.31912 46.0176 4.63362C46.7689 4.19697 47.6234 3.94342 48.4873 3.85891Z" fill="#002CB8" stroke="#002CB8" stroke-width="0.0340402"/>
<path d="M18.5358 5.28593C19.0194 5.15916 19.5687 5.40801 19.7941 5.85405C21.0148 8.43641 21.0148 11.5634 19.7941 14.1458C19.6391 14.451 19.3293 14.6763 18.9865 14.7327C18.5874 14.8031 18.1601 14.6341 17.9113 14.3148C17.6531 13.9814 17.6061 13.5025 17.7939 13.1269C18.7048 11.1502 18.6907 8.77916 17.7704 6.80718C17.4934 6.2015 17.8878 5.42679 18.5358 5.28593Z" fill="#6FBAF7" stroke="#6FBAF7" stroke-width="0.0340402"/>
<path d="M58.8789 6.42256C59.7663 6.24414 60.7242 6.29579 61.5411 6.70427C62.1515 7.00476 62.668 7.52593 62.8886 8.17856C62.9168 7.75599 62.8839 7.32873 62.9027 6.90147C62.9074 6.6714 63.1281 6.4789 63.3582 6.4789C63.7995 6.47421 64.2362 6.47421 64.6775 6.4789C64.9264 6.47421 65.147 6.69488 65.1376 6.94842C65.1376 9.73267 65.1376 12.5169 65.1376 15.3059C65.1376 15.4279 65.1423 15.5547 65.1282 15.6815C65.0954 15.8975 64.8888 16.0571 64.6728 16.0571C64.3113 16.0618 63.9544 16.0524 63.5929 16.0571C63.4708 16.0571 63.3488 16.0665 63.2361 16.0383C63.053 15.9867 62.9121 15.8223 62.9027 15.6345C62.8886 15.3481 62.9074 15.0617 62.8933 14.78C62.6492 14.996 62.4238 15.2307 62.1562 15.4186C61.4895 15.9162 60.6678 16.2073 59.8368 16.2073C58.9212 16.2167 58.0056 15.9303 57.2685 15.3857C56.5501 14.8645 56.0102 14.118 55.6909 13.2963C55.3059 12.315 55.2261 11.2304 55.3998 10.1975C55.5641 9.23498 56.0008 8.30533 56.691 7.60575C57.2826 7.00476 58.0573 6.59159 58.8789 6.42256ZM59.8086 8.3335C59.1372 8.4321 58.5221 8.8218 58.1418 9.38523C57.4469 10.3947 57.4187 11.7986 58.0056 12.8644C58.3249 13.4654 58.8789 13.9583 59.5457 14.1368C60.3955 14.3809 61.3674 14.1462 62.0059 13.5311C62.5647 13.0146 62.8511 12.254 62.8886 11.5028C62.945 10.6342 62.7102 9.69981 62.0811 9.07065C61.5036 8.46966 60.6256 8.20204 59.8086 8.3335Z" fill="#002CB8" stroke="#002CB8" stroke-width="0.0340402"/>
<path d="M69.9912 6.35231C70.9772 6.2631 72.0195 6.38987 72.8693 6.92512C73.63 7.39464 74.1324 8.22569 74.2403 9.10839C74.2685 9.36663 74.0431 9.62017 73.7849 9.61078C73.3764 9.61547 72.9632 9.61078 72.5595 9.61547C72.4186 9.62017 72.2684 9.60139 72.1651 9.50279C72.0195 9.38541 72.0101 9.18821 71.935 9.02857C71.7941 8.69991 71.4937 8.46045 71.1556 8.35246C70.7988 8.23978 70.4185 8.23508 70.0522 8.28204C69.7517 8.32429 69.4418 8.4182 69.2353 8.65296C69.0099 8.9018 69.0005 9.32437 69.2212 9.57791C69.4512 9.84554 69.794 9.977 70.118 10.0944C71.0429 10.4043 72.0195 10.5686 72.8928 11.024C73.3999 11.287 73.8694 11.672 74.1277 12.1884C74.5361 13.0007 74.4657 14.0243 73.9492 14.7708C73.5126 15.4187 72.8036 15.8272 72.0618 16.0291C71.1556 16.2733 70.179 16.2686 69.2775 16.015C68.5873 15.8178 67.9347 15.4516 67.4511 14.921C67.0708 14.5079 66.7985 13.9867 66.7092 13.428C66.6623 13.165 66.8924 12.9021 67.16 12.9021C67.6154 12.8974 68.0709 12.9021 68.5216 12.9021C68.7376 12.8927 68.9395 13.0383 68.9958 13.2449C69.0662 13.4843 69.2071 13.705 69.3996 13.8646C69.7893 14.1933 70.3199 14.3107 70.8222 14.2778C71.2119 14.259 71.6204 14.1792 71.9256 13.921C72.1885 13.7003 72.2871 13.2871 72.0993 12.9913C71.935 12.7425 71.6439 12.611 71.3716 12.4983C70.5828 12.2025 69.747 12.0664 68.9582 11.7706C68.3807 11.5593 67.8079 11.2682 67.3947 10.7987C66.7938 10.1226 66.667 9.1037 66.9816 8.27265C67.2445 7.58715 67.822 7.06598 68.4746 6.76079C68.9489 6.53073 69.47 6.40396 69.9912 6.35231Z" fill="#002CB8" stroke="#002CB8" stroke-width="0.0340402"/>
<path opacity="0.75" d="M84.8164 10.0371C84.8821 10.4597 84.8352 10.8869 84.8493 11.3142C84.8493 12.6148 84.8493 13.9106 84.8493 15.2112C84.8493 15.3849 84.8681 15.5634 84.8211 15.7324C84.8399 14.9342 84.8258 14.1313 84.8305 13.3331C84.8258 12.2345 84.8446 11.1358 84.8164 10.0371Z" fill="#001966" stroke="#001966" stroke-width="0.0340402"/>
<path opacity="0.48" d="M82.626 10.5498C82.6542 10.8362 82.6448 11.1226 82.6448 11.409C82.6448 12.8364 82.6495 14.2637 82.6448 15.691C82.5979 15.4563 82.626 15.2168 82.6213 14.9774C82.6213 13.5031 82.6166 12.0288 82.626 10.5498Z" fill="#000A2B" stroke="#000A2B" stroke-width="0.0340402"/>
<path opacity="0.27" d="M36.0664 11.0379C37.2073 11.0332 38.353 11.0379 39.4986 11.0332C39.4939 11.0567 39.4845 11.1083 39.4798 11.1318C39.3859 11.0802 39.2779 11.0614 39.1746 11.0614C38.2215 11.0708 37.2637 11.0567 36.3106 11.0708C36.226 11.0708 36.1462 11.052 36.0664 11.0379Z" fill="#00030E" stroke="#00030E" stroke-width="0.0340402"/>
<path opacity="0.46" d="M10.1914 17.5215C10.6562 17.5309 11.1164 17.5309 11.5765 17.5262C11.1211 17.5778 10.6515 17.5778 10.1914 17.5215Z" fill="#001E3E" stroke="#001E3E" stroke-width="0.0340402"/>
</svg>
