<svg width="64" height="64" viewBox="0 0 64 64" fill="none" xmlns="http://www.w3.org/2000/svg">
<path fill-rule="evenodd" clip-rule="evenodd" d="M5.45576 18.9641C5.82712 15.8689 7.40238 13.3935 8.59593 12.2166L14.7697 6.12889C15.8512 5.06251 17.6045 5.06251 18.686 6.12889L28.5283 15.834C29.6097 16.9004 29.6097 18.6293 28.5283 19.6957L23.899 24.2605C23.4074 24.7452 23.4074 25.5311 23.899 26.0158L38.7519 40.6617C39.2435 41.1464 40.0405 41.1464 40.5321 40.6617L45.15 36.1081C46.2375 35.0358 48.0029 35.0427 49.0817 36.1235L57.8759 44.9333C58.9427 46.002 58.9359 47.7192 57.8605 48.7796L50.4943 56.0431C47.6424 58.8553 44.2532 59.0329 41.2779 58.1566C38.3383 57.2908 35.7376 55.3886 34.2305 53.9025L34.2285 53.9006L9.58566 29.4185C9.58532 29.4182 9.58498 29.4179 9.58464 29.4175C5.9492 25.8322 5.07897 22.1045 5.45576 18.9641ZM6.95579 19.1391C6.63352 21.8251 7.34336 25.1011 10.6537 28.3654L10.6557 28.3673L35.2985 52.8493C35.2989 52.8497 35.2992 52.85 35.2995 52.8503C36.687 54.2182 39.0787 55.9544 41.7102 56.7295C44.3068 57.4943 47.0682 57.3152 49.4262 54.99L56.7924 47.7264C57.2812 47.2444 57.2843 46.4639 56.7994 45.9781L48.0052 37.1683C47.5149 36.677 46.7124 36.6739 46.2181 37.1613L41.6002 41.7149C40.5187 42.7813 38.7653 42.7813 37.6839 41.7149L22.8309 27.069C21.7495 26.0026 21.7495 24.2736 22.8309 23.2073L27.4602 18.6425C27.9517 18.1578 27.9517 17.3719 27.4602 16.8872L17.6179 7.18208C17.1263 6.69736 16.3294 6.69736 15.8378 7.18208L9.66401 13.2698C8.68675 14.2335 7.28353 16.4075 6.95579 19.1391Z" fill="black"/>
</svg>
