<svg width="17" height="16" viewBox="0 0 17 16" fill="none" xmlns="http://www.w3.org/2000/svg">
<path d="M8.8734 12H7.53325V10.5411H8.8734V12ZM7.5844 9.75187V9.01046C7.5844 8.73941 7.62191 8.50025 7.69693 8.29297C7.77195 8.07773 7.86402 7.89038 7.97315 7.73094C8.08227 7.56353 8.20162 7.41604 8.3312 7.28849C8.46078 7.15296 8.58014 7.02143 8.68926 6.89387C8.79838 6.76632 8.89045 6.63876 8.96547 6.51121C9.04049 6.38366 9.07801 6.24016 9.07801 6.08072C9.07801 5.83358 9.00298 5.64225 8.85294 5.50673C8.70972 5.36323 8.47442 5.29148 8.14706 5.29148C7.91517 5.29148 7.67647 5.33931 7.43095 5.43498C7.19224 5.52267 7.00128 5.62232 6.85806 5.73393L6.5 4.57399C6.72506 4.42252 7.01151 4.29098 7.35934 4.17937C7.70716 4.05979 8.06522 4 8.4335 4C8.72677 4 8.99957 4.03189 9.25192 4.09567C9.50426 4.15944 9.72251 4.26308 9.90665 4.40658C10.0908 4.55007 10.234 4.74141 10.3363 4.98057C10.4454 5.21176 10.5 5.49875 10.5 5.84155C10.5 6.16841 10.4557 6.44345 10.367 6.66667C10.2852 6.88989 10.1795 7.08919 10.0499 7.26457C9.92711 7.43199 9.79071 7.58744 9.64066 7.73094C9.49744 7.86647 9.36104 8.00996 9.23146 8.16144C9.1087 8.3129 9.00298 8.48032 8.91432 8.66368C8.83248 8.83906 8.79156 9.05431 8.79156 9.30942V9.75187H7.5844Z" fill="#666666"/>
<rect x="1" y="0.5" width="15" height="15" rx="7.5" stroke="#666666"/>
</svg>
