<svg width="20" height="20" viewBox="0 0 20 20" fill="none" xmlns="http://www.w3.org/2000/svg">
<path fill-rule="evenodd" clip-rule="evenodd" d="M13.277 4.43103C13.9429 3.78057 15.0082 3.78684 15.6664 4.44509C16.3357 5.11438 16.3293 6.20147 15.6522 6.86284L14.5813 7.90884L12.1774 5.50498L13.277 4.43103ZM11.462 6.20377L3.83496 13.6535V16.0539H6.24231L13.8659 8.60763L11.462 6.20377ZM16.3735 3.73798C15.328 2.69245 13.636 2.6825 12.5782 3.71566L2.98559 13.0852L2.83496 13.2323V13.4429V16.5539V17.0539H3.33496H6.44598H6.64965L6.79535 16.9116L16.351 7.57822C17.4265 6.52773 17.4366 4.80105 16.3735 3.73798Z" fill="black"/>
</svg>
