<svg width="54" height="22" viewBox="0 0 54 22" fill="none" xmlns="http://www.w3.org/2000/svg">
<path d="M9.46028 3H6.81346C6.81346 5.17206 5.81645 7.15421 4.08355 8.45982L3.03906 9.24318L7.09832 14.7742H10.4336L6.69477 9.68234C8.46327 7.9257 9.46028 5.55187 9.46028 3Z" fill="black"/>
<path d="M2.70617 3H0V14.7742H2.70617V3Z" fill="black"/>
<path d="M13.7677 3H11.2158V14.7742H13.7677V3Z" fill="black"/>
<path d="M36.1524 6.40723C35.1791 6.40723 34.2534 6.70396 33.6362 7.54667V6.63274H31.2148V14.775H33.6718V10.5021C33.6718 9.2677 34.5026 8.66237 35.4996 8.66237C36.5678 8.66237 37.185 9.3033 37.185 10.4902V14.7869H39.6182V9.60003C39.6182 7.70097 38.1108 6.40723 36.1524 6.40723Z" fill="black"/>
<path d="M21.4816 6.63274V7.15498C20.7932 6.68022 19.9624 6.40723 19.0603 6.40723C16.6865 6.40723 14.7637 8.33003 14.7637 10.7039C14.7637 13.0777 16.6865 15.0005 19.0603 15.0005C19.9624 15.0005 20.7932 14.7275 21.4816 14.2527V14.775H23.9148V6.63274H21.4816ZM19.2621 12.7928C18.0396 12.7928 17.0544 11.8552 17.0544 10.7039C17.0544 9.55256 18.0396 8.61489 19.2621 8.61489C20.4846 8.61489 21.4697 9.55256 21.4697 10.7039C21.4697 11.8552 20.4846 12.7928 19.2621 12.7928Z" fill="black"/>
<path d="M27.6917 7.69014V6.63379H25.1992V14.776H27.7036V10.9779C27.7036 9.69603 29.0923 9.00762 30.0537 9.00762C30.0656 9.00762 30.0774 9.00762 30.0774 9.00762V6.63379C29.0923 6.63379 28.1784 7.06108 27.6917 7.69014Z" fill="black"/>
<path d="M47.1926 6.63274V7.15498C46.5041 6.68022 45.6733 6.40723 44.7712 6.40723C42.3974 6.40723 40.4746 8.33003 40.4746 10.7039C40.4746 13.0777 42.3974 15.0005 44.7712 15.0005C45.6733 15.0005 46.5041 14.7275 47.1926 14.2527V14.775H49.6257V6.63274H47.1926ZM44.973 12.7928C43.7505 12.7928 42.7654 11.8552 42.7654 10.7039C42.7654 9.55256 43.7505 8.61489 44.973 8.61489C46.1955 8.61489 47.1807 9.55256 47.1807 10.7039C47.1926 11.8552 46.1955 12.7928 44.973 12.7928Z" fill="black"/>
<path d="M51.5105 6.86373C51.5105 6.74504 51.4274 6.67383 51.2968 6.67383H51.0713V7.29102H51.1781V7.06551H51.2968L51.3918 7.29102H51.5105L51.4036 7.04177C51.4748 7.00616 51.5105 6.94682 51.5105 6.86373ZM51.2968 6.95869H51.1781V6.76878H51.2968C51.368 6.76878 51.4036 6.80439 51.4036 6.86373C51.4036 6.92308 51.3799 6.95869 51.2968 6.95869Z" fill="black"/>
<path d="M51.2623 6.41602C50.9418 6.41602 50.6807 6.67714 50.6807 6.9976C50.6925 7.31807 50.9418 7.57919 51.2623 7.57919C51.5827 7.57919 51.8438 7.31807 51.8438 6.9976C51.8438 6.67714 51.5827 6.41602 51.2623 6.41602ZM51.2623 7.47237C51.0011 7.47237 50.7994 7.25873 50.7994 6.9976C50.7994 6.73648 51.013 6.52284 51.2623 6.52284C51.5234 6.52284 51.7251 6.73648 51.7251 6.9976C51.7251 7.25873 51.5115 7.47237 51.2623 7.47237Z" fill="black"/>
<path d="M52.2255 11.8916C51.3827 11.8916 50.6943 12.58 50.6943 13.4227C50.6943 14.2654 51.3827 14.9538 52.2255 14.9538C53.0682 14.9538 53.7566 14.2654 53.7566 13.4227C53.7566 12.5681 53.0682 11.8916 52.2255 11.8916Z" fill="black"/>
</svg>
