<svg width="64" height="64" viewBox="0 0 64 64" fill="none" xmlns="http://www.w3.org/2000/svg">
<g id="Icon_Guide_64">
<rect width="64" height="64" fill="white"/>
<path id="Union" fill-rule="evenodd" clip-rule="evenodd" d="M5.75 6H5V6.75V24.1978V46.9352V47.6852H5.75H18.6151V55.776V57.2028L19.7904 56.3938L32.4407 47.6852H58.2497H58.9997V46.9352V6.75V6H58.2497H24.0346H5.75ZM6.5 24.1978V7.5H24.0346H57.4997V46.1852H32.2075H31.9743L31.7822 46.3175L20.1151 54.3491V46.9352V46.1852H19.3651H6.5V24.1978ZM32.9999 15.1481V16.1481V30.4074V31.4074H30.9999V30.4074V16.1481V15.1481H32.9999ZM30.7038 35.5928H33.2959V38.1848H30.7038V35.5928Z" fill="black"/>
</g>
</svg>
