<svg width="60" height="60" viewBox="0 0 60 60" fill="none" xmlns="http://www.w3.org/2000/svg">
<path fill-rule="evenodd" clip-rule="evenodd" d="M57.4094 10.7039L57.4103 10.7031C57.422 10.6915 57.4411 10.6678 57.4594 10.6176C57.4794 10.563 57.4913 10.4945 57.4913 10.4274C57.4913 10.3603 57.4794 10.2917 57.4594 10.2371C57.4411 10.187 57.422 10.1633 57.4102 10.1517L52.302 5.08755C52.29 5.0756 52.2635 5.05446 52.2077 5.03439C52.1476 5.0128 52.0727 5 51.9993 5C51.9259 5 51.8511 5.01278 51.791 5.03435C51.7355 5.05426 51.709 5.07524 51.6968 5.08723L51.6966 5.08749L51.6963 5.08782L51.693 5.09106L45.7652 10.9385L51.4592 16.6323L57.4067 10.7067L57.4084 10.705L57.4094 10.7039ZM29.1245 27.3535L44.3413 12.343L50.0424 18.044L34.9447 33.0862L28.7895 33.4143L29.1245 27.3535ZM35.4815 35.0604L28.0359 35.4573C27.6796 35.5105 27.3189 35.3928 27.0641 35.1402C26.8093 34.8876 26.6906 34.53 26.7443 34.1768L27.1519 26.8027C27.1882 26.5638 27.301 26.3429 27.4737 26.1726L50.2884 3.66722L50.2894 3.66625C50.7774 3.1831 51.4338 3 51.9993 3C52.5651 3 53.222 3.18334 53.7101 3.66722L58.8183 8.73138C59.3064 9.21526 59.4913 9.86646 59.4913 10.4274C59.4913 10.988 59.3067 11.6386 58.8194 12.1224L58.8183 12.1235L36.1171 34.7414C35.9452 34.9126 35.7224 35.0244 35.4815 35.0604ZM48.0748 52.0003V25.651L50.0748 23.6583V52.0003C50.0748 53.6572 48.7316 55.0003 47.0748 55.0003H12.9258C11.2689 55.0003 9.92578 53.6572 9.92578 52.0003V8.003C9.92578 6.34614 11.2689 5.003 12.9258 5.003L44.2347 5.00296H45.0748C45.3909 5.00296 45.7001 5.0323 46 5.0884L44.0591 7.00296L12.9258 7.003C12.3735 7.003 11.9258 7.45071 11.9258 8.003V52.0003C11.9258 52.5526 12.3735 53.0003 12.9258 53.0003H47.0748C47.627 53.0003 48.0748 52.5526 48.0748 52.0003Z" fill="#646464"/>
</svg>
