<svg width="60" height="60" viewBox="0 0 60 60" fill="none" xmlns="http://www.w3.org/2000/svg">
<path fill-rule="evenodd" clip-rule="evenodd" d="M50.4964 28.5C50.4964 27.9968 50.4768 27.4984 50.4383 27.0054C50.4062 26.5924 50.7148 26.2316 51.1278 26.1994C51.5407 26.1672 51.9016 26.4758 51.9338 26.8888C51.9753 27.4206 51.9964 27.9579 51.9964 28.5C51.9964 28.9142 51.6606 29.25 51.2464 29.25C50.8322 29.25 50.4964 28.9142 50.4964 28.5ZM50.8774 24.6116C50.4747 24.7083 50.0698 24.4602 49.9731 24.0574C49.7385 23.0803 49.4281 22.1325 49.0486 21.2205C48.8895 20.8381 49.0705 20.3991 49.4529 20.2399C49.8353 20.0808 50.2743 20.2618 50.4335 20.6442C50.8432 21.6288 51.1783 22.6522 51.4316 23.7072C51.5283 24.11 51.2802 24.5149 50.8774 24.6116ZM48.7198 18.8091C48.3671 19.0264 47.9051 18.9167 47.6878 18.5641C47.1638 17.7139 46.5746 16.9078 45.9269 16.1529C45.6572 15.8385 45.6934 15.365 46.0078 15.0953C46.3222 14.8256 46.7957 14.8618 47.0654 15.1762C47.7638 15.9903 48.3994 16.8598 48.9648 17.7771C49.1821 18.1298 49.0724 18.5918 48.7198 18.8091ZM44.869 13.9605C44.6004 14.2759 44.1271 14.3137 43.8117 14.0451C43.0548 13.4003 42.2467 12.8137 41.3944 12.2921C41.0411 12.0759 40.93 11.6142 41.1462 11.2609C41.3624 10.9076 41.8241 10.7965 42.1774 11.0127C43.0968 11.5753 43.9683 12.208 44.7845 12.9033C45.0998 13.1719 45.1376 13.6452 44.869 13.9605ZM39.7133 10.5319C39.5551 10.9147 39.1166 11.0968 38.7337 10.9387C37.8209 10.5614 36.8722 10.253 35.8942 10.0199C35.4913 9.92379 35.2426 9.51929 35.3386 9.11637C35.4347 8.71345 35.8392 8.46469 36.2421 8.56075C37.2976 8.81238 38.3214 9.14525 39.3066 9.55235C39.6894 9.71054 39.8715 10.1491 39.7133 10.5319ZM33.7506 8.86776C33.7186 9.28074 33.3579 9.58961 32.945 9.55763C32.4518 9.51946 31.9532 9.5 31.4499 9.5C31.0357 9.5 30.6999 9.16421 30.6999 8.75C30.6999 8.33579 31.0357 8 31.4499 8C31.9919 8 32.5291 8.02095 33.0607 8.06211C33.4737 8.09408 33.7826 8.45478 33.7506 8.86776ZM32.0013 14.7002C39.3389 14.7002 45.2842 20.6341 45.2842 27.9502C45.2842 28.3644 45.62 28.7002 46.0342 28.7002C46.4484 28.7002 46.7842 28.3644 46.7842 27.9502C46.7842 19.8023 40.164 13.2002 32.0013 13.2002C31.587 13.2002 31.2513 13.536 31.2513 13.9502C31.2513 14.3644 31.587 14.7002 32.0013 14.7002ZM33.0036 19.7002C37.0197 19.7002 40.2724 22.9478 40.2724 26.9502C40.2724 27.3644 40.6082 27.7002 41.0224 27.7002C41.4366 27.7002 41.7724 27.3644 41.7724 26.9502C41.7724 22.116 37.8448 18.2002 33.0036 18.2002C32.5894 18.2002 32.2536 18.536 32.2536 18.9502C32.2536 19.3644 32.5894 19.7002 33.0036 19.7002ZM5.06651 19.1965C5.37196 16.6148 6.66641 14.5491 7.65499 13.5605L12.4091 8.80643C13.483 7.73249 15.2242 7.73249 16.2982 8.80643L23.7724 16.2806C24.8463 17.3546 24.8463 19.0958 23.7724 20.1697L20.5302 23.4119C20.0421 23.9 20.0421 24.6915 20.5302 25.1796L32.0723 36.7217C32.5605 37.2099 33.3519 37.2099 33.8401 36.7217L37.071 33.4908C38.1509 32.4109 39.904 32.4178 40.9754 33.5062L47.6028 40.2393C48.6622 41.3156 48.6554 43.045 47.5875 44.1129L41.8633 49.8371C39.5033 52.1971 36.6948 52.3432 34.2451 51.6115C31.8307 50.8903 29.7005 49.3091 28.4661 48.0747L28.4641 48.0727L8.45845 27.9167L8.45744 27.9157C5.47667 24.9344 4.75567 21.8238 5.06651 19.1965ZM6.55612 19.3728C6.29943 21.5424 6.86115 24.1981 9.51911 26.856L9.52109 26.858L29.5267 47.014L29.5277 47.015C30.6433 48.1303 32.566 49.5444 34.6744 50.1742C36.7481 50.7936 38.933 50.646 40.8027 48.7764L44.1296 45.4494L35.6816 37.0015L34.9008 37.7824C33.8268 38.8563 32.0856 38.8563 31.0117 37.7824L19.4696 26.2403C18.3956 25.1663 18.3956 23.4251 19.4696 22.3512L20.2505 21.5703L11.0085 12.3283L8.71565 14.6212C7.94186 15.395 6.81825 17.1572 6.55612 19.3728ZM46.5268 43.0522L45.1903 44.3888L36.7423 35.9408L38.1316 34.5515C38.6225 34.0606 39.4194 34.0637 39.9064 34.5585L46.5337 41.2915C47.0153 41.7808 47.0122 42.5668 46.5268 43.0522ZM22.7117 19.1091L21.3111 20.5096L12.0691 11.2677L13.4697 9.86709C13.9579 9.37894 14.7493 9.37894 15.2375 9.86709L22.7117 17.3413C23.1999 17.8295 23.1999 18.6209 22.7117 19.1091Z" fill="black"/>
</svg>
