<svg width="16" height="16" viewBox="0 0 16 16" fill="none" xmlns="http://www.w3.org/2000/svg">
<path d="M8.72024 1.06445H2C1.44772 1.06445 1 1.51217 1 2.06445V13.9999C1 14.5522 1.44772 14.9999 2 14.9999H12.0013C12.5536 14.9999 13.0013 14.5522 13.0013 13.9999V8.03253" stroke="#333333" stroke-width="1.5"/>
<path d="M10.1777 3.32422L12.3208 5.44881" stroke="#333333" stroke-width="1.5"/>
<path d="M14.3156 3.09912L14.315 3.09979L14.3146 3.10015L14.3144 3.10039L6.60584 10.7806L4.36089 11.116L4.69722 8.90318L12.4425 1.26297L12.4428 1.26262C12.4441 1.26184 12.4472 1.26014 12.453 1.25806C12.4661 1.25334 12.4845 1.25 12.503 1.25C12.5216 1.25 12.54 1.25335 12.5531 1.25807C12.5589 1.26014 12.562 1.26184 12.5632 1.26262L14.3144 2.99871C14.3151 2.99981 14.3162 3.00208 14.3176 3.00598C14.3194 3.01095 14.3213 3.01764 14.3227 3.02583C14.3241 3.03407 14.3247 3.04226 14.3247 3.04952C14.3247 3.05677 14.3241 3.06494 14.3227 3.07318C14.3213 3.08137 14.3194 3.08806 14.3176 3.09303C14.3162 3.09706 14.315 3.09935 14.3144 3.10041C14.314 3.10096 14.3139 3.10118 14.3139 3.10112C14.3139 3.10107 14.3141 3.10083 14.3144 3.10045C14.3145 3.10037 14.3145 3.10028 14.3146 3.10019C14.3147 3.10007 14.3148 3.09994 14.315 3.0998C14.3152 3.0996 14.3154 3.09936 14.3156 3.09912Z" stroke="#333333" stroke-width="1.5" stroke-miterlimit="10" stroke-linecap="round" stroke-linejoin="round"/>
</svg>
