<svg width="80" height="80" viewBox="0 0 80 80" fill="none" xmlns="http://www.w3.org/2000/svg" aria-labeledby="washing machines" role="icon" class="c-hidden-mo">
<title>washing machines</title>
<desc>product category washing machines</desc>
<g id="Icon36_washing machines" role="icon" class="c-hidden-mo">
<path fill-rule="evenodd" clip-rule="evenodd" d="M15.1425 2.41406C13.4062 2.41406 12 3.82029 12 5.55653V74.4926C12 76.2289 13.4062 77.6351 15.1425 77.6351H66.0265C67.7628 77.6351 69.169 76.2289 69.169 74.4926V5.55653C69.169 3.82029 67.7628 2.41406 66.0265 2.41406H15.1425ZM10.5 5.55653C10.5 2.99187 12.5778 0.914062 15.1425 0.914062H66.0265C68.5912 0.914062 70.669 2.99187 70.669 5.55653V74.4926C70.669 77.0573 68.5912 79.1351 66.0265 79.1351H15.1425C12.5778 79.1351 10.5 77.0573 10.5 74.4926V5.55653ZM12.7565 23.1008C12.7565 22.6866 13.0923 22.3508 13.5065 22.3508H67.6625C68.0767 22.3508 68.4125 22.6866 68.4125 23.1008C68.4125 23.515 68.0767 23.8508 67.6625 23.8508H13.5065C13.0923 23.8508 12.7565 23.515 12.7565 23.1008ZM38.5781 12.2344C38.5781 11.0269 39.5581 10.0469 40.7656 10.0469C41.9731 10.0469 42.9531 11.0269 42.9531 12.2344C42.9531 13.4419 41.9731 14.4219 40.7656 14.4219C39.5581 14.4219 38.5781 13.4419 38.5781 12.2344ZM18.9375 12.2344C18.9375 11.8202 19.2733 11.4844 19.6875 11.4844H30.6174C31.0316 11.4844 31.3674 11.8202 31.3674 12.2344C31.3674 12.6486 31.0316 12.9844 30.6174 12.9844H19.6875C19.2733 12.9844 18.9375 12.6486 18.9375 12.2344ZM49.5391 12.2344C49.5391 11.8202 49.8748 11.4844 50.2891 11.4844H61.219C61.6332 11.4844 61.969 11.8202 61.969 12.2344C61.969 12.6486 61.6332 12.9844 61.219 12.9844H50.2891C49.8748 12.9844 49.5391 12.6486 49.5391 12.2344ZM25.75 48.8516C25.75 40.6363 32.4098 33.9766 40.625 33.9766C48.8402 33.9766 55.5 40.6363 55.5 48.8516C55.5 57.0668 48.8402 63.7266 40.625 63.7266C32.4098 63.7266 25.75 57.0668 25.75 48.8516ZM40.625 32.4766C31.5813 32.4766 24.25 39.8079 24.25 48.8516C24.25 57.8952 31.5813 65.2266 40.625 65.2266C49.6687 65.2266 57 57.8952 57 48.8516C57 39.8079 49.6687 32.4766 40.625 32.4766Z" fill="black"/>
</g>
</svg>
