<svg width="32" height="32" viewBox="0 0 32 32" fill="none" xmlns="http://www.w3.org/2000/svg">
<path fill-rule="evenodd" clip-rule="evenodd" d="M21.9796 3.69882C22.4551 4.48176 23.2151 5.37782 24.0581 6.15641C24.8915 6.92602 25.9277 7.69421 26.9911 8.09957L26.9978 8.10226C26.9958 9.29758 26.993 11.0581 26.993 11.8025C26.993 21.6317 20.1723 25.8015 16.7234 27.91C16.5549 28.013 16.3944 28.1112 16.2431 28.2048C16.0923 28.1115 15.9324 28.0137 15.7645 27.911C12.3178 25.803 5.5 21.6334 5.5 11.8025V8.0987C5.50492 8.09647 5.50988 8.09438 5.51482 8.09247C6.5703 7.68247 7.60009 6.91004 8.42818 6.1418C9.26739 5.36325 10.023 4.47336 10.4996 3.70645C10.522 3.6703 10.5523 3.62973 10.5884 3.59067C10.6244 3.55152 10.6589 3.52186 10.6867 3.50202L10.6895 3.5H21.8051C21.8293 3.5184 21.8594 3.54536 21.8915 3.58104C21.9264 3.61979 21.9566 3.66093 21.9796 3.69882ZM23.2617 2.92022C24.034 4.1919 25.9059 6.08058 27.5254 6.69796C28.0421 6.89495 28.4992 7.34894 28.4982 7.90196C28.4961 9.09213 28.493 11.0164 28.493 11.8025C28.493 22.499 20.9728 27.0792 17.5162 29.1845L17.5159 29.1847C17.2753 29.3312 17.0545 29.4656 16.8573 29.5894C16.4832 29.824 16.0027 29.824 15.6287 29.5893C15.4318 29.4658 15.2115 29.3315 14.9715 29.1853L14.9714 29.1852C11.5169 27.0804 4 22.5003 4 11.8025V7.90006C4 7.34778 4.45688 6.89422 4.97169 6.69425C6.57833 6.07016 8.44396 4.17254 9.22551 2.91477C9.517 2.44567 10.0473 2 10.5996 2H21.9036C22.4559 2 22.975 2.44816 23.2617 2.92022ZM22.0768 11.3788C22.341 11.0598 22.2966 10.587 21.9776 10.3228C21.6586 10.0586 21.1858 10.103 20.9216 10.422L15.5202 16.9437L12.1779 14.173C11.859 13.9086 11.3862 13.9528 11.1218 14.2717C10.8575 14.5906 10.9017 15.0634 11.2206 15.3278L15.1406 18.5774C15.2937 18.7044 15.4911 18.7653 15.6892 18.7467C15.8873 18.7282 16.0699 18.6316 16.1968 18.4784L22.0768 11.3788Z" fill="black"/>
</svg>
