<svg width="64" height="64" viewBox="0 0 64 64" fill="none" xmlns="http://www.w3.org/2000/svg">
<path fill-rule="evenodd" clip-rule="evenodd" d="M24.8412 7.92448C29.9863 6.39465 35.4862 6.55341 40.5346 8.37748C45.5829 10.2016 49.9141 13.595 52.8931 18.0602C55.8721 22.5255 57.3422 27.8277 57.0879 33.1894C56.8336 38.5512 54.8683 43.6904 51.48 47.8537C48.0918 52.0169 43.459 54.9851 38.2607 56.3232C34.8698 57.195 31.197 57.2985 27.7282 56.7174C24.2703 56.1383 20.9721 54.8416 18.0457 52.9108C17.7774 52.7255 17.459 52.6263 17.1327 52.6265L17.0197 52.6266L16.9118 52.66L9.45565 54.9655L11.8617 48.2046C11.9582 47.9504 11.9863 47.6752 11.9429 47.4066C11.9005 47.1432 11.7909 46.8954 11.6249 46.687C8.49017 42.3385 6.82882 37.1009 6.88415 31.7403C6.93955 26.3728 8.71307 21.1642 11.9447 16.8782C15.1763 12.5923 19.696 9.45431 24.8412 7.92448ZM41.0443 6.96675C35.6945 5.03374 29.8661 4.8655 24.4137 6.48669C18.9612 8.10788 14.1716 11.4332 10.747 15.9752C7.32237 20.5171 5.44294 26.0367 5.38423 31.7248C5.32552 37.4128 7.09064 42.9701 10.4208 47.5817L10.4352 47.6017L10.4509 47.6206C10.4567 47.6277 10.4606 47.6363 10.4621 47.6454C10.4636 47.6545 10.4626 47.6639 10.4592 47.6725L10.4552 47.6827L10.4516 47.6931L7.86489 54.9616L7.83947 55.033L7.82886 55.1081C7.79837 55.3239 7.8229 55.5438 7.90015 55.7475C7.9774 55.9513 8.10487 56.1322 8.27074 56.2735C8.43661 56.4148 8.63549 56.5119 8.84891 56.5557C9.06234 56.5996 9.28339 56.5889 9.49154 56.5245L17.1911 54.1437L17.1936 54.1453L17.2025 54.1516L17.2116 54.1576C20.3148 56.2065 23.8128 57.5825 27.4804 58.1968C31.1398 58.8098 35.0251 58.7038 38.6342 57.776L38.6344 57.7759C44.1432 56.3579 49.0528 53.2124 52.6434 48.8005C56.234 44.3886 58.3167 38.9424 58.5862 33.2605C58.8557 27.5785 57.2978 21.9597 54.1409 17.2278C50.984 12.4958 46.3942 8.89975 41.0443 6.96675ZM24.7897 19.4396C24.7748 19.4396 24.7598 19.44 24.7449 19.4409C23.5644 19.5116 22.4083 19.8078 21.3392 20.3135C21.286 20.3386 21.2359 20.37 21.19 20.4069C20.2796 21.1387 19.5582 22.0785 19.0866 23.1471C18.615 24.2158 18.4069 25.3821 18.4799 26.5479L18.4801 26.5515C18.6557 29.1551 19.9104 31.6709 21.0837 33.5249L21.1515 33.6535C21.1606 33.6707 21.1703 33.6875 21.1806 33.7039C23.7855 37.8362 27.5343 41.1231 31.9717 43.1653C34.0435 44.1619 36.2918 44.7396 38.5875 44.8651C38.6011 44.8659 38.6147 44.8662 38.6284 44.8662H39.6631H39.8441C39.8883 44.8662 39.9324 44.8623 39.9758 44.8546C41.055 44.6621 42.0777 44.2314 42.9694 43.5937C43.861 42.9561 44.5993 42.1276 45.1304 41.1687C45.1395 41.1522 45.148 41.1353 45.1559 41.1182C45.7221 39.8847 45.8476 38.4941 45.5113 37.1792C45.4906 37.0984 45.4566 37.0217 45.4107 36.9521C45.0932 36.4707 44.6564 36.0799 44.1428 35.8176L44.1428 35.8176L44.1353 35.8139L43.8017 36.4856L44.1353 35.8138L44.1351 35.8138L44.1346 35.8135L44.1324 35.8124L44.124 35.8083L44.0914 35.7921L43.9674 35.7307C43.8604 35.6777 43.7067 35.6018 43.5203 35.51C43.1476 35.3265 42.6433 35.0792 42.1177 34.8245C41.1264 34.3441 39.9788 33.7975 39.5561 33.6427C39.2089 33.4882 38.8357 33.4 38.4559 33.3825C38.4391 33.3817 38.4224 33.3815 38.4056 33.3819C38.0117 33.3902 37.6272 33.503 37.2912 33.7087C36.9706 33.905 36.7052 34.1792 36.5195 34.5054C36.1409 35.0283 35.2656 36.0877 34.934 36.4711L34.7197 36.4076C31.9681 34.9744 29.6051 32.8989 27.8295 30.3597C28.0196 30.1531 28.2008 29.9384 28.3724 29.7162L28.6671 29.3723L28.6688 29.3705C28.9732 29.0193 29.2227 28.624 29.4087 28.1981C29.4215 28.1689 29.4324 28.1389 29.4413 28.1084L29.4762 27.9891C29.6655 27.5823 29.675 27.1694 29.675 26.889C29.675 26.5137 29.5917 26.1434 29.4315 25.8049C29.4263 25.7871 29.4211 25.7704 29.4163 25.7557C29.3987 25.7012 29.3759 25.6378 29.3513 25.572C29.3012 25.4385 29.2318 25.2638 29.151 25.0652C28.9888 24.6667 28.772 24.1508 28.552 23.6315C28.4055 23.2858 28.2594 22.9426 28.1265 22.6305L28.1254 22.6279C27.8517 21.985 27.6344 21.4749 27.5872 21.3489C27.5829 21.3373 27.5782 21.3259 27.5733 21.3146C27.34 20.7749 27.0427 20.3069 26.646 19.9702C26.233 19.6196 25.7443 19.4396 25.2036 19.4396H24.7897ZM43.4573 37.1519L43.4641 37.1553C43.7095 37.2813 43.9229 37.4606 44.0889 37.6796C44.2984 38.614 44.1991 39.5924 43.8043 40.4669C43.3823 41.2202 42.7994 41.8712 42.0969 42.3736C41.4041 42.869 40.612 43.2076 39.7758 43.3662H39.6631H38.6491C36.5556 43.2491 34.5057 42.7206 32.6165 41.8109L32.6165 41.8108L32.6045 41.8052C28.4373 39.8888 24.9154 36.8053 22.465 32.9285L22.3969 32.7992C22.3875 32.7814 22.3774 32.764 22.3666 32.7469C21.2337 30.9616 20.1284 28.692 19.9768 26.4524C19.9192 25.5269 20.0845 24.6011 20.4589 23.7528C20.8217 22.9307 21.3705 22.2047 22.0616 21.6317C22.9281 21.234 23.8607 20.9993 24.8127 20.9396H25.2036C25.3872 20.9396 25.5322 20.9923 25.6753 21.1138C25.833 21.2476 26.0119 21.487 26.1904 21.8957C26.2611 22.0787 26.5012 22.6425 26.7809 23.2993L26.7809 23.2994C26.9068 23.595 27.0407 23.9096 27.1708 24.2167C27.3906 24.7353 27.6038 25.2427 27.7617 25.6307C27.8409 25.8254 27.9041 25.9847 27.9466 26.0983C27.9655 26.1487 27.9782 26.1844 27.9858 26.2073C27.9997 26.2774 28.0236 26.3454 28.057 26.4091C28.1345 26.5572 28.175 26.7219 28.175 26.889C28.175 27.168 28.1519 27.2888 28.11 27.369C28.087 27.4128 28.0685 27.4588 28.0546 27.5063L28.0158 27.6389C27.8922 27.9108 27.7301 28.1635 27.5342 28.3892L27.5312 28.3927L27.2208 28.7548C27.2122 28.7649 27.2039 28.7752 27.1958 28.7857C27.018 29.0169 26.828 29.2385 26.6267 29.4496C26.6217 29.4548 26.6168 29.4601 26.612 29.4655L26.3792 29.7241C26.2985 29.8138 26.2406 29.9216 26.2105 30.0383C26.1656 30.2122 26.1656 30.3947 26.2105 30.5685C26.2313 30.6493 26.2655 30.726 26.3116 30.7955C28.2686 33.7466 30.9475 36.1484 34.094 37.7728C34.1359 37.7944 34.1797 37.8121 34.2249 37.8255L34.9233 38.0324C34.9925 38.0529 35.0643 38.0633 35.1364 38.0633C35.3181 38.0633 35.4561 38.0019 35.5241 37.9666C35.6001 37.9272 35.6602 37.8827 35.7005 37.8501C35.7809 37.785 35.8491 37.7129 35.8949 37.6618C35.9442 37.6068 35.988 37.5531 36.0188 37.5145C36.0637 37.4584 36.0615 37.4605 36.0598 37.4625C36.3997 37.0702 37.3552 35.9164 37.7643 35.3436C37.7828 35.3178 37.7996 35.2908 37.8146 35.2628C37.8754 35.1498 37.965 35.055 38.0744 34.988C38.1772 34.925 38.294 34.8888 38.4142 34.8824C38.6038 34.8944 38.7897 34.9412 38.9626 35.0204C38.9845 35.0305 39.0069 35.0395 39.0297 35.0474C39.3122 35.1451 40.3891 35.6537 41.4636 36.1743C41.9855 36.4273 42.4868 36.6731 42.8577 36.8557C43.0431 36.947 43.1959 37.0225 43.3022 37.0751L43.4252 37.136L43.4573 37.1519Z" fill="#1A1A1A"/>
</svg>
