<svg width="50" height="50" viewBox="0 0 50 50" fill="none" xmlns="http://www.w3.org/2000/svg">
<path d="M25 13L25 19" stroke="black" stroke-width="1.5" stroke-linecap="round"/>
<mask id="path-2-inside-1_2885_461318" fill="white">
<path d="M14 20C14 18.8954 14.8954 18 16 18H34C35.1046 18 36 18.8954 36 20V30H14V20Z"/>
</mask>
<path d="M14 20C14 18.8954 14.8954 18 16 18H34C35.1046 18 36 18.8954 36 20V30H14V20Z" fill="white"/>
<path d="M12.5 20C12.5 18.067 14.067 16.5 16 16.5H34C35.933 16.5 37.5 18.067 37.5 20H34.5C34.5 19.7239 34.2761 19.5 34 19.5H16C15.7239 19.5 15.5 19.7239 15.5 20H12.5ZM36 30H14H36ZM12.5 30V20C12.5 18.067 14.067 16.5 16 16.5V19.5C15.7239 19.5 15.5 19.7239 15.5 20V30H12.5ZM34 16.5C35.933 16.5 37.5 18.067 37.5 20V30H34.5V20C34.5 19.7239 34.2761 19.5 34 19.5V16.5Z" fill="black" mask="url(#path-2-inside-1_2885_461318)"/>
<mask id="path-4-inside-2_2885_461318" fill="white">
<path d="M9 30C9 28.8954 9.89543 28 11 28H39C40.1046 28 41 28.8954 41 30V44H9V30Z"/>
</mask>
<path d="M9 30C9 28.8954 9.89543 28 11 28H39C40.1046 28 41 28.8954 41 30V44H9V30Z" fill="white"/>
<path d="M7.5 30C7.5 28.067 9.067 26.5 11 26.5H39C40.933 26.5 42.5 28.067 42.5 30H39.5C39.5 29.7239 39.2761 29.5 39 29.5H11C10.7239 29.5 10.5 29.7239 10.5 30H7.5ZM41 44H9H41ZM7.5 44V30C7.5 28.067 9.067 26.5 11 26.5V29.5C10.7239 29.5 10.5 29.7239 10.5 30V44H7.5ZM39 26.5C40.933 26.5 42.5 28.067 42.5 30V44H39.5V30C39.5 29.7239 39.2761 29.5 39 29.5V26.5Z" fill="black" mask="url(#path-4-inside-2_2885_461318)"/>
<path d="M5 44H45" stroke="black" stroke-width="1.5" stroke-linecap="round"/>
<path d="M10 41H40" stroke="black" stroke-width="1.5" stroke-linecap="round"/>
<path d="M26.9508 10.38C26.9508 11.2217 26.6967 11.8289 26.3509 12.2157C26.0077 12.5994 25.5377 12.81 25.0008 12.81C24.4638 12.81 23.9938 12.5994 23.6507 12.2157C23.3048 11.8289 23.0508 11.2217 23.0508 10.38C23.0508 9.52067 23.3168 8.55459 23.7411 7.81935C24.1898 7.04208 24.6692 6.75 25.0008 6.75C25.3324 6.75 25.8118 7.04208 26.2604 7.81935C26.6848 8.55459 26.9508 9.52067 26.9508 10.38Z" fill="white" stroke="black" stroke-width="1.5"/>
</svg>
