<svg width="64" height="64" viewBox="0 0 64 64" fill="none" xmlns="http://www.w3.org/2000/svg">
<path d="M2.75 48.5V13.5C2.75 13.2239 2.97984 13 3.25598 13H60.744C61.0202 13 61.25 13.2239 61.25 13.5V48.5C61.25 48.7761 61.0261 49 60.75 49H3.25C2.97386 49 2.75 48.7761 2.75 48.5Z" stroke="black" stroke-width="1.5"/>
<path d="M20 52.5H32.1562L44 52.5001" stroke="black" stroke-width="1.5" stroke-linecap="round"/>
<path d="M31 39.75C35.0803 39.75 38.4471 36.6953 38.9384 32.748C39.0066 32.2 38.5523 31.75 38 31.75H32C31.4477 31.75 31 31.3023 31 30.75V24.75C31 24.1977 30.55 23.7434 30.002 23.8116C26.0547 24.3029 23 27.6697 23 31.75C23 36.1683 26.5817 39.75 31 39.75Z" stroke="black" stroke-width="1.5" stroke-linecap="round"/>
<path d="M41.6884 28.002C41.2378 24.3817 38.3683 21.5122 34.748 21.0616C34.2 20.9934 33.75 21.4477 33.75 22L33.75 28C33.75 28.5523 34.1977 29 34.75 29L40.75 29C41.3023 29 41.7566 28.55 41.6884 28.002Z" stroke="black" stroke-width="1.5" stroke-linecap="round"/>
</svg>
