<svg width="48" height="48" viewBox="0 0 48 48" fill="none" xmlns="http://www.w3.org/2000/svg">
<path fill-rule="evenodd" clip-rule="evenodd" d="M22.6001 8.21647L18.796 9.96119L33.233 16.8984L33.671 17.1089L39.0574 14.584C38.9087 14.4793 38.7492 14.3865 38.5798 14.3073L38.5771 14.306L25.2862 8.21017L25.2849 8.20957C24.4632 7.83649 23.5592 7.821 22.6001 8.21647ZM40.2531 16.2323C40.3494 16.5413 40.4 16.8672 40.4 17.1998V25.9998V26.9998H42.4V25.9998V17.1998C42.4 15.2275 41.2894 13.3647 39.4229 12.4936L39.4169 12.4908L26.1169 6.39084L26.1138 6.38944C24.7403 5.76511 23.25 5.77898 21.8154 6.37673C21.8045 6.38124 21.7938 6.38595 21.7831 6.39085L8.48311 12.4908C8.47292 12.4955 8.46281 12.5004 8.45279 12.5054C6.73789 13.3628 5.5 15.195 5.5 17.1998V30.9998C5.5 32.9853 6.61925 34.7229 8.34283 35.5892L21.434 42.4846L21.4528 42.4942C22.9343 43.235 24.6657 43.235 26.1472 42.4942L27.0416 42.047L26.1472 40.2582L25.2528 40.7054C25.1697 40.7469 25.0853 40.7847 25 40.8188V23.3822L32.6001 19.8197V25.1998V26.1998H34.6001V25.1998V18.8822L40.2531 16.2323ZM23 23.2904V40.9491C22.78 40.8929 22.5642 40.8131 22.3561 40.7098L9.26602 33.815L9.24721 33.8054C8.17643 33.27 7.5 32.2105 7.5 30.9998V17.1998C7.5 16.8431 7.56788 16.4888 7.69198 16.1529L23 23.2904ZM8.94782 14.5317L24.0987 21.5959L31.3335 18.2046L16.9668 11.3011L16.4334 11.0448L9.33323 14.3013C9.19953 14.369 9.07078 14.4461 8.94782 14.5317ZM36.3313 29.9998C33.2639 29.9998 30.7773 32.4864 30.7773 35.5538C30.7773 38.6211 33.2639 41.1077 36.3313 41.1077C39.3986 41.1077 41.8852 38.6211 41.8852 35.5538C41.8852 32.4864 39.3986 29.9998 36.3313 29.9998ZM28.7773 35.5538C28.7773 31.3818 32.1594 27.9998 36.3313 27.9998C40.5032 27.9998 43.8852 31.3818 43.8852 35.5538C43.8852 37.3757 43.2402 39.047 42.1661 40.3517L44.2172 42.4027L42.8029 43.8169L40.7017 41.7158C39.4681 42.5923 37.9599 43.1077 36.3313 43.1077C32.1594 43.1077 28.7773 39.7257 28.7773 35.5538Z" fill="#1D1D1B"/>
</svg>
