<svg width="64" height="64" viewBox="0 0 64 64" fill="none" xmlns="http://www.w3.org/2000/svg">
<g id="Icon_Guide_64">
<rect width="64" height="64" fill="white"/>
<path id="Union" fill-rule="evenodd" clip-rule="evenodd" d="M25.4663 8H24.7163V8.00041H5.75H5V8.75041V55.809V56.559H5.75H38.9457V55.059H6.5V9.50041H24.7163V27.1919V27.9419H25.4663H39.4567H40.2067V27.1919V9.50041H58.4178V38.6382H59.9178V8.75041V8.00041H59.1678H40.2067V8H39.4567H25.4663ZM26.2163 9.50041H38.7067V26.4419H26.2163V9.50041ZM49.4125 37.5C44.4902 37.5 40.5 41.4902 40.5 46.4125C40.5 51.3347 44.4902 55.3249 49.4125 55.3249C54.3347 55.3249 58.3249 51.3347 58.3249 46.4125C58.3249 41.4902 54.3347 37.5 49.4125 37.5ZM39 46.4125C39 40.6618 43.6618 36 49.4125 36C55.1631 36 59.8249 40.6618 59.8249 46.4125C59.8249 52.1631 55.1631 56.8249 49.4125 56.8249C43.6618 56.8249 39 52.1631 39 46.4125ZM50.1628 41.5814C50.1628 41.1672 49.8271 40.8314 49.4128 40.8314C48.9986 40.8314 48.6628 41.1672 48.6628 41.5814V47.6205C48.6628 48.0347 48.9986 48.3705 49.4128 48.3705H54.2441C54.6583 48.3705 54.9941 48.0347 54.9941 47.6205C54.9941 47.2062 54.6583 46.8705 54.2441 46.8705H50.1628V41.5814Z" fill="black"/>
</g>
</svg>
