<svg width="65" height="64" viewBox="0 0 65 64" fill="none" xmlns="http://www.w3.org/2000/svg">
<line x1="22.4648" y1="14" x2="22.4648" y2="48" stroke="black" stroke-width="1.5"/>
<line x1="62.7148" y1="37.75" x2="59.7148" y2="37.75" stroke="black" stroke-width="1.5"/>
<line x1="45.7148" y1="37.75" x2="2.71484" y2="37.75" stroke="black" stroke-width="1.5"/>
<path d="M63.2148 25.75L2.71484 25.75" stroke="black" stroke-width="1.5"/>
<path d="M43.4648 14V40.5" stroke="black" stroke-width="1.5"/>
<path fill-rule="evenodd" clip-rule="evenodd" d="M3.46484 48.1807V13.8202L6.03236 14.0489C23.7855 15.6302 41.6441 15.6302 59.3973 14.0489L61.9648 13.8202V39.0451C62.6665 40.1327 63.1816 41.352 63.4648 42.6577V13.547C63.4648 12.8128 62.8352 12.2368 62.1039 12.3019L59.2642 12.5548C41.5996 14.1282 23.8301 14.1282 6.16544 12.5548L3.32574 12.3019C2.59451 12.2368 1.96484 12.8128 1.96484 13.547V48.4539C1.96484 49.1881 2.5945 49.7641 3.32574 49.699L6.16545 49.4461C18.1692 48.3769 30.2214 48.0343 42.2561 48.4182C42.0961 47.9282 41.9696 47.4232 41.8792 46.9057C29.9253 46.5413 17.9551 46.89 6.03237 47.952L3.46484 48.1807ZM62.7088 49.6026C63.1508 49.412 63.4648 48.9724 63.4648 48.4539V47.3432C63.2939 48.1311 63.0386 48.8876 62.7088 49.6026Z" fill="black"/>
<path d="M20.2148 52.5L20.539 52.4741C28.6438 51.8257 36.7869 51.8132 44.8936 52.4368V52.4368" stroke="black" stroke-width="1.5" stroke-linecap="round"/>
<path fill-rule="evenodd" clip-rule="evenodd" d="M53.4648 50H51.9648V43.0002H53.4648V50ZM53.4648 41.5002H51.9648V40.0002H53.4648V41.5002Z" fill="black"/>
<rect x="42.4648" y="34.75" width="20.5" height="20.5" rx="10.25" stroke="black" stroke-width="1.5"/>
</svg>
