<svg width="65" height="64" viewBox="0 0 65 64" fill="none" xmlns="http://www.w3.org/2000/svg">
<g clip-path="url(#clip0_653_188740)">
<path d="M53.2555 13.3301H12.4555C11.4337 13.3301 10.6055 14.1584 10.6055 15.1801V40.7401C10.6055 41.7618 11.4337 42.5901 12.4555 42.5901H53.2555C54.2772 42.5901 55.1055 41.7618 55.1055 40.7401V15.1801C55.1055 14.1584 54.2772 13.3301 53.2555 13.3301Z" stroke="black" stroke-width="1.5" stroke-linecap="round"/>
<path d="M61.0348 48.05L55.9848 43.96C55.1648 43.39 54.6648 43.05 54.6648 43.05C53.6948 42.57 52.8748 42.59 51.7948 42.59H13.9348C12.8548 42.59 11.5048 42.68 9.81484 43.94L4.71484 48.05" stroke="black" stroke-width="1.5" stroke-linecap="round"/>
<path d="M41.2855 47.6602H59.9755C60.7355 47.6602 61.3555 48.1602 61.3555 48.7902C61.3555 49.8302 60.3255 50.6602 59.0555 50.6602H6.65547C5.38547 50.6602 4.35547 49.8202 4.35547 48.7902C4.35547 48.1702 4.97547 47.6602 5.73547 47.6602H24.4255L24.7255 48.1202H40.9855L41.2855 47.6602Z" stroke="black" stroke-width="1.5" stroke-linecap="round" stroke-linejoin="round"/>
</g>
<defs>
<clipPath id="clip0_653_188740">
<rect width="58.5" height="38.83" fill="white" transform="translate(3.60547 12.5801)"/>
</clipPath>
</defs>
</svg>
