<svg width="14" height="10" viewBox="0 0 14 10" fill="none" xmlns="http://www.w3.org/2000/svg">
<path d="M13.0233 1.49961C12.5201 1.49961 12.1057 1.89961 12.1057 2.38532C12.1057 2.52818 12.1353 2.61389 12.1649 2.75675L9.53065 4.98532L7.57717 1.69961C7.75476 1.52818 7.87315 1.27104 7.87315 1.01389C7.87315 0.442466 7.45878 0.0996094 6.9556 0.0996094C6.45243 0.0996094 6.03806 0.528181 6.03806 1.01389C6.03806 1.29961 6.18605 1.58532 6.42283 1.72818L4.52854 4.98532L1.8055 2.64247C1.86469 2.55675 1.86469 2.4139 1.86469 2.27104C1.86469 1.78532 1.42072 1.38532 0.947146 1.38532C0.473573 1.38532 0 1.78532 0 2.27104C0 2.75675 0.443975 3.15675 0.917548 3.15675H1.06554L2.45666 8.52818C2.45666 8.58532 2.48626 8.61389 2.54545 8.67104C2.57505 8.69961 4.32135 9.89961 6.9852 9.89961C8.31713 9.89961 9.85624 9.61389 11.5137 8.72818C11.5729 8.69961 11.6025 8.64247 11.6617 8.55675L13.0233 3.29961H13.0825C13.5856 3.29961 14 2.87104 14 2.4139C14 1.87104 13.556 1.47104 13.0233 1.49961Z" fill="#EA1917"/>
</svg>
