<svg width="24" height="25" viewBox="0 0 24 25" fill="none" xmlns="http://www.w3.org/2000/svg">
<path fill-rule="evenodd" clip-rule="evenodd" d="M3.36719 6.93359C3.36719 6.10517 4.03876 5.43359 4.86719 5.43359H19.1203C19.9487 5.43359 20.6203 6.10517 20.6203 6.93359V12.069H19.6203V6.93359C19.6203 6.65745 19.3965 6.43359 19.1203 6.43359H14.8812V11.4611V11.9611H14.3812H10.2773H9.77734V11.4611V6.43359H4.86719C4.59105 6.43359 4.36719 6.65745 4.36719 6.93359V18.5361C4.36719 18.8122 4.59105 19.0361 4.86719 19.0361H12.6432V20.0361H4.86719C4.03876 20.0361 3.36719 19.3645 3.36719 18.5361V6.93359ZM10.7773 6.43359V10.9611H13.8812V6.43359H10.7773Z" fill="#EA1917"/>
<path d="M15.2031 14.0664L20.5365 19.3997" stroke="#EA1917" stroke-linecap="round"/>
<path d="M20.5352 14.0664L15.2018 19.3997" stroke="#EA1917" stroke-linecap="round"/>
</svg>
