<svg width="12" height="12" viewBox="0 0 12 12" fill="none" xmlns="http://www.w3.org/2000/svg">
<path fill-rule="evenodd" clip-rule="evenodd" d="M6 12C2.688 12 0 9.312 0 6C0 2.688 2.682 0 5.994 0H6C9.312 0 12 2.688 12 6C12 9.312 9.312 12 6 12ZM6 1.2C3.444 1.104 1.296 3.09 1.2 5.646C1.2 5.766 1.2 5.88 1.2 6C1.104 8.55 3.09 10.704 5.646 10.8C5.766 10.8 5.88 10.8 6 10.8C8.556 10.896 10.704 8.91 10.8 6.354C10.8 6.234 10.8 6.12 10.8 6C10.896 3.45 8.91 1.296 6.354 1.2C6.234 1.2 6.12 1.2 6 1.2ZM7.326 8.214L5.586 6.636C5.466 6.534 5.406 6.378 5.412 6.222V3.54C5.43 3.228 5.694 2.994 6.006 3.006C6.318 2.994 6.582 3.228 6.6 3.54V5.976L8.202 7.422C8.418 7.614 8.442 7.944 8.256 8.16C8.238 8.178 8.22 8.196 8.202 8.214C7.95 8.43 7.578 8.43 7.332 8.214H7.326Z" fill="black"/>
</svg>
