<svg width="12" height="12" viewBox="0 0 12 12" fill="none" xmlns="http://www.w3.org/2000/svg">
<path fill-rule="evenodd" clip-rule="evenodd" d="M6.00011 1.62305C4.163 1.62305 2.67373 3.11232 2.67373 4.94942V6.85451L2.11704 7.45736L1.98438 7.60102V7.79657V8.54309V9.04309H2.48438H9.51584H10.0158V8.54309V7.79657V7.60102L9.88318 7.45736L9.32648 6.85451V4.94942C9.32648 3.11232 7.83722 1.62305 6.00011 1.62305ZM3.67373 4.94942C3.67373 3.6646 4.71529 2.62305 6.00011 2.62305C7.28493 2.62305 8.32648 3.6646 8.32648 4.94942V7.05005V7.2456L8.45915 7.38926L9.01584 7.99212V8.04309H2.98438V7.99212L3.54107 7.38926L3.67373 7.2456V7.05005V4.94942ZM6.00191 9.37739C6.15498 9.37739 6.28668 9.28585 6.34523 9.15452H7.36924C7.2932 9.84238 6.71003 10.3774 6.00191 10.3774C5.29379 10.3774 4.71062 9.84238 4.63458 9.15452H5.65858C5.71714 9.28585 5.84884 9.37739 6.00191 9.37739Z" fill="black"/>
</svg>
