<svg width="74" height="20" viewBox="0 0 74 20" fill="none" xmlns="http://www.w3.org/2000/svg">
<path d="M4.53933 17.9754L4.84403 16.04L4.1653 16.0242H0.924316L3.17663 1.74305C3.18363 1.69994 3.20635 1.65974 3.23955 1.63119C3.27276 1.60264 3.31529 1.58691 3.35957 1.58691H8.82433C10.6385 1.58691 11.8905 1.96444 12.5442 2.70958C12.8506 3.05914 13.0458 3.42442 13.1402 3.82641C13.2392 4.24821 13.241 4.75216 13.1443 5.3668L13.1373 5.41166V5.8055L13.4437 5.97911C13.7018 6.11602 13.9069 6.27274 14.0642 6.45218C14.3264 6.75105 14.4959 7.1309 14.5676 7.58125C14.6416 8.04441 14.6171 8.59555 14.4959 9.21951C14.3561 9.93727 14.13 10.5624 13.8247 11.0739C13.5439 11.5452 13.1862 11.9362 12.7615 12.2391C12.356 12.5269 11.8742 12.7454 11.3295 12.8852C10.8017 13.0227 10.1998 13.092 9.53975 13.092H9.11446C8.81034 13.092 8.51497 13.2016 8.28309 13.3979C8.05064 13.5983 7.89683 13.8721 7.84964 14.1716L7.8176 14.3458L7.27928 17.7569L7.25481 17.8821C7.2484 17.9218 7.23733 17.9416 7.22102 17.955C7.20645 17.9672 7.18548 17.9754 7.16509 17.9754H4.53933Z" fill="#253B80"/>
<path d="M13.7325 5.46143C13.7162 5.56571 13.6976 5.67233 13.6766 5.78185C12.9559 9.48192 10.4904 10.7601 7.34145 10.7601H5.73815C5.35305 10.7601 5.02855 11.0398 4.96854 11.4196L4.14766 16.6257L3.91521 18.1014C3.87617 18.3508 4.06843 18.5757 4.32011 18.5757H7.16376C7.5005 18.5757 7.78656 18.331 7.83957 17.9989L7.86754 17.8544L8.40295 14.4567L8.43732 14.2703C8.48975 13.937 8.77639 13.6923 9.11313 13.6923H9.53843C12.2935 13.6923 14.4503 12.5738 15.0807 9.33686C15.344 7.98465 15.2077 6.85558 14.5109 6.0615C14.3 5.82205 14.0384 5.62339 13.7325 5.46143Z" fill="#179BD7"/>
<path d="M27.8623 5.03125H23.784C23.5049 5.03125 23.2676 5.234 23.224 5.50951L21.5746 15.9674C21.5418 16.1737 21.7016 16.3597 21.9109 16.3597H23.8579C24.137 16.3597 24.3744 16.157 24.4179 15.8809L24.8628 13.0602C24.9057 12.7841 25.1436 12.5814 25.4221 12.5814H26.7132C29.3996 12.5814 30.9501 11.2814 31.355 8.70524C31.5375 7.57818 31.3628 6.69263 30.835 6.07244C30.2554 5.39143 29.2273 5.03125 27.8623 5.03125ZM28.3328 8.85075C28.1098 10.3141 26.9917 10.3141 25.9105 10.3141H25.2951L25.7268 7.58116C25.7525 7.41598 25.8956 7.29432 26.0626 7.29432H26.3446C27.0811 7.29432 27.7758 7.29432 28.1348 7.71414C28.3489 7.9646 28.4145 8.33671 28.3328 8.85075Z" fill="#253B80"/>
<path d="M40.0535 8.80672H38.1006C37.9342 8.80672 37.7905 8.92837 37.7648 9.09355L37.6784 9.63979L37.5418 9.44181C37.119 8.82818 36.1762 8.62305 35.2352 8.62305C33.0771 8.62305 31.2338 10.2576 30.8748 12.5505C30.6882 13.6942 30.9535 14.7879 31.6024 15.5506C32.1975 16.2519 33.049 16.5441 34.0622 16.5441C35.8011 16.5441 36.7654 15.426 36.7654 15.426L36.6783 15.9686C36.6455 16.1762 36.8053 16.3622 37.0134 16.3622H38.7726C39.0523 16.3622 39.2884 16.1595 39.3326 15.8834L40.3881 9.1991C40.4215 8.99337 40.2623 8.80672 40.0535 8.80672ZM37.3313 12.6077C37.1429 13.7235 36.2573 14.4725 35.1279 14.4725C34.5607 14.4725 34.1075 14.2906 33.8165 13.9459C33.5279 13.6036 33.4182 13.1164 33.51 12.5737C33.6859 11.4675 34.5864 10.6941 35.6985 10.6941C36.2531 10.6941 36.704 10.8784 37.0009 11.226C37.2985 11.5773 37.4166 12.0675 37.3313 12.6077Z" fill="#253B80"/>
<path d="M50.4591 8.80127H48.4965C48.3093 8.80127 48.1334 8.8943 48.0272 9.04994L45.3205 13.037L44.1731 9.20558C44.101 8.96586 43.8797 8.80127 43.6293 8.80127H41.7007C41.4664 8.80127 41.3036 9.03026 41.3781 9.2509L43.5398 15.5947L41.5075 18.4636C41.3477 18.6896 41.5087 19.0003 41.7848 19.0003H43.745C43.931 19.0003 44.1051 18.9097 44.2107 18.757L50.7381 9.33499C50.8944 9.10957 50.734 8.80127 50.4591 8.80127Z" fill="#253B80"/>
<path d="M56.9531 5.03125H52.8742C52.5957 5.03125 52.3584 5.234 52.3149 5.50951L50.6654 15.9674C50.6326 16.1737 50.7924 16.3597 51.0006 16.3597H53.0937C53.2881 16.3597 53.4545 16.2178 53.4849 16.0246L53.953 13.0602C53.9959 12.7841 54.2339 12.5814 54.5123 12.5814H55.8028C58.4899 12.5814 60.0397 11.2814 60.4452 8.70524C60.6283 7.57818 60.4524 6.69263 59.9246 6.07244C59.3456 5.39143 58.3181 5.03125 56.9531 5.03125ZM57.4236 8.85075C57.2012 10.3141 56.0831 10.3141 55.0013 10.3141H54.3865L54.8189 7.58116C54.8445 7.41598 54.9864 7.29432 55.154 7.29432H55.4361C56.1719 7.29432 56.8672 7.29432 57.2262 7.71414C57.4403 7.9646 57.5053 8.33671 57.4236 8.85075Z" fill="#179BD7"/>
<path d="M69.1394 8.80672H67.1876C67.02 8.80672 66.8775 8.92837 66.8524 9.09355L66.766 9.63979L66.6288 9.44181C66.206 8.82818 65.2638 8.62305 64.3228 8.62305C62.1647 8.62305 60.322 10.2576 59.963 12.5505C59.777 13.6942 60.0412 14.7879 60.69 15.5506C61.2863 16.2519 62.1367 16.5441 63.1498 16.5441C64.8887 16.5441 65.853 15.426 65.853 15.426L65.7659 15.9686C65.7331 16.1762 65.893 16.3622 66.1023 16.3622H67.8608C68.1393 16.3622 68.3767 16.1595 68.4202 15.8834L69.4763 9.1991C69.5085 8.99337 69.3487 8.80672 69.1394 8.80672ZM66.4171 12.6077C66.2299 13.7235 65.3431 14.4725 64.2137 14.4725C63.6478 14.4725 63.1934 14.2906 62.9024 13.9459C62.6137 13.6036 62.5052 13.1164 62.5958 12.5737C62.773 11.4675 63.6722 10.6941 64.7844 10.6941C65.339 10.6941 65.7898 10.8784 66.0868 11.226C66.3855 11.5773 66.5036 12.0675 66.4171 12.6077Z" fill="#179BD7"/>
<path d="M71.4409 5.31868L69.767 15.968C69.7342 16.1743 69.894 16.3603 70.1021 16.3603H71.785C72.0646 16.3603 72.302 16.1576 72.3449 15.8815L73.9956 5.42423C74.0284 5.2179 73.8685 5.03125 73.6604 5.03125H71.776C71.6096 5.03185 71.4665 5.1535 71.4409 5.31868Z" fill="#179BD7"/>
<path d="M13.2776 5.25891C13.1649 5.22611 13.0486 5.1963 12.9293 5.16946C12.8094 5.14322 12.6866 5.11997 12.5602 5.09969C12.1177 5.02813 11.6329 4.99414 11.1135 4.99414H6.72926C6.62132 4.99414 6.51875 5.01859 6.42692 5.06272C6.22476 5.15992 6.07449 5.35134 6.03811 5.5857L5.10545 11.4929L5.07861 11.6653C5.14004 11.2765 5.47219 10.9902 5.86637 10.9902H7.50747C10.7306 10.9902 13.2543 9.6813 13.992 5.8946C14.014 5.78249 14.0325 5.67336 14.0492 5.56662C13.8626 5.46763 13.6604 5.38295 13.4427 5.31079C13.3891 5.2929 13.3336 5.27561 13.2776 5.25891Z" fill="#222D65"/>
<path d="M6.03829 5.59115C6.07467 5.35679 6.22494 5.16537 6.4271 5.06876C6.51953 5.02464 6.6215 5.00019 6.72944 5.00019H11.1137C11.6331 5.00019 12.1179 5.03418 12.5604 5.10574C12.6868 5.12601 12.8096 5.14927 12.9295 5.17551C13.0488 5.20234 13.165 5.23216 13.2777 5.26496C13.3338 5.28165 13.3893 5.29895 13.4435 5.31624C13.6612 5.3884 13.8633 5.47367 14.05 5.57207C14.2694 4.17248 14.0482 3.21954 13.2915 2.35665C12.4572 1.4067 10.9515 1 9.02471 1H3.43113C3.03756 1 2.70182 1.28624 2.641 1.67564L0.311132 16.4438C0.265215 16.736 0.490628 16.9995 0.785215 16.9995H4.23857L5.10563 11.4984L6.03829 5.59115Z" fill="#253B80"/>
</svg>
