<svg width="48" height="16" viewBox="0 0 48 16" fill="none" xmlns="http://www.w3.org/2000/svg">
<g clip-path="url(#clip0_28488_222656)">
<path d="M20.8251 8.20505C20.8251 10.4259 19.0877 12.0624 16.9555 12.0624C14.8233 12.0624 13.0859 10.4259 13.0859 8.20505C13.0859 5.96853 14.8233 4.34766 16.9555 4.34766C19.0877 4.34766 20.8251 5.96853 20.8251 8.20505ZM19.1312 8.20505C19.1312 6.81722 18.1242 5.86766 16.9555 5.86766C15.7868 5.86766 14.7799 6.81722 14.7799 8.20505C14.7799 9.57896 15.7868 10.5424 16.9555 10.5424C18.1242 10.5424 19.1312 9.57722 19.1312 8.20505Z" fill="#EA4335"/>
<path d="M29.1727 8.20505C29.1727 10.4259 27.4353 12.0624 25.3032 12.0624C23.171 12.0624 21.4336 10.4259 21.4336 8.20505C21.4336 5.97026 23.171 4.34766 25.3032 4.34766C27.4353 4.34766 29.1727 5.96853 29.1727 8.20505ZM27.4788 8.20505C27.4788 6.81722 26.4719 5.86766 25.3032 5.86766C24.1345 5.86766 23.1275 6.81722 23.1275 8.20505C23.1275 9.57896 24.1345 10.5424 25.3032 10.5424C26.4719 10.5424 27.4788 9.57722 27.4788 8.20505Z" fill="#FBBC05"/>
<path d="M37.1741 4.5807V11.5059C37.1741 14.3546 35.4941 15.5181 33.508 15.5181C31.6384 15.5181 30.5132 14.2677 30.0889 13.245L31.5636 12.6311C31.8263 13.259 32.4697 13.9998 33.5063 13.9998C34.7776 13.9998 35.5654 13.2155 35.5654 11.739V11.1842H35.5063C35.1271 11.652 34.3967 12.0607 33.4749 12.0607C31.5463 12.0607 29.7793 10.3807 29.7793 8.21896C29.7793 6.04157 31.5463 4.34766 33.4749 4.34766C34.3949 4.34766 35.1254 4.75635 35.5063 5.21026H35.5654V4.58244H37.1741V4.5807ZM35.6854 8.21896C35.6854 6.8607 34.7793 5.86766 33.6263 5.86766C32.4576 5.86766 31.4784 6.8607 31.4784 8.21896C31.4784 9.56331 32.4576 10.5424 33.6263 10.5424C34.7793 10.5424 35.6854 9.56331 35.6854 8.21896Z" fill="#4285F4"/>
<path d="M39.826 0.523438V11.8278H38.1738V0.523438H39.826Z" fill="#34A853"/>
<path d="M46.2641 9.47635L47.5788 10.3529C47.1545 10.9807 46.1319 12.0624 44.3649 12.0624C42.1736 12.0624 40.5371 10.3685 40.5371 8.20505C40.5371 5.91113 42.1875 4.34766 44.1754 4.34766C46.1771 4.34766 47.1562 5.9407 47.4762 6.80157L47.6519 7.23983L42.4954 9.37548C42.8902 10.1494 43.5041 10.5442 44.3649 10.5442C45.2275 10.5442 45.8258 10.1198 46.2641 9.47635ZM42.2171 8.08853L45.6641 6.65722C45.4745 6.17548 44.9041 5.83983 44.2328 5.83983C43.3719 5.83983 42.1736 6.59983 42.2171 8.08853Z" fill="#EA4335"/>
<path d="M6.8326 7.20203V5.56551H12.3474C12.4013 5.85073 12.4291 6.18812 12.4291 6.55334C12.4291 7.78116 12.0935 9.29942 11.0117 10.3812C9.95955 11.4768 8.6152 12.0612 6.83433 12.0612C3.53346 12.0612 0.757812 9.37247 0.757812 6.0716C0.757812 2.77073 3.53346 0.0820312 6.83433 0.0820312C8.66042 0.0820312 9.96129 0.798553 10.9387 1.73247L9.7839 2.88725C9.08303 2.22986 8.13346 1.71855 6.8326 1.71855C4.42216 1.71855 2.53694 3.66116 2.53694 6.0716C2.53694 8.48203 4.42216 10.4246 6.8326 10.4246C8.39607 10.4246 9.28651 9.79681 9.85694 9.22638C10.3196 8.76377 10.6239 8.1029 10.7439 7.20029L6.8326 7.20203Z" fill="#4285F4"/>
</g>
<defs>
<clipPath id="clip0_28488_222656">
<rect width="47.3043" height="16" fill="white" transform="translate(0.695312)"/>
</clipPath>
</defs>
</svg>
