<svg width="40" height="40" viewBox="0 0 40 40" fill="none" xmlns="http://www.w3.org/2000/svg">
<g clip-path="url(#clip0_9331_339484)">
<circle cx="20" cy="20" r="19" fill="black" fill-opacity="0.7" stroke="white" stroke-width="2"/>
<path fill-rule="evenodd" clip-rule="evenodd" d="M16.6668 14.6665C15.9304 14.6665 15.3335 15.2635 15.3335 15.9998V23.9998C15.3335 24.7362 15.9304 25.3332 16.6668 25.3332C17.4032 25.3332 18.0002 24.7362 18.0002 23.9998V15.9998C18.0002 15.2635 17.4032 14.6665 16.6668 14.6665ZM23.3335 14.6665C22.5971 14.6665 22.0002 15.2635 22.0002 15.9998V23.9998C22.0002 24.7362 22.5971 25.3332 23.3335 25.3332C24.0699 25.3332 24.6668 24.7362 24.6668 23.9998V15.9998C24.6668 15.2635 24.0699 14.6665 23.3335 14.6665Z" fill="white"/>
</g>
<defs>
<clipPath id="clip0_9331_339484">
<rect width="40" height="40" fill="white"/>
</clipPath>
</defs>
</svg>
