<svg width="80" height="20" viewBox="0 0 80 20" fill="none" xmlns="http://www.w3.org/2000/svg">
<g clip-path="url(#clip0_8220_72215)">
<path d="M17.3386 0H3.86032C2.10505 0 0.683594 1.434 0.683594 3.20407V16.7965C0.683594 18.5654 2.10505 20 3.86032 20H17.3386C19.0935 20 20.5142 18.5654 20.5142 16.7965V3.20407C20.5142 1.434 19.0935 0 17.3386 0Z" fill="#1677FF"/>
<path d="M6.04336 15.38C2.95824 15.38 2.04613 12.9292 3.57081 11.5883C4.07959 11.1351 5.00931 10.9139 5.50498 10.8643C7.33762 10.6816 9.03407 11.3867 11.0361 12.3723C9.62884 14.2236 7.83648 15.38 6.04336 15.38ZM17.0122 12.5581C16.2187 12.29 15.1539 11.8801 13.9679 11.4474C14.6802 10.1987 15.2491 8.77667 15.623 7.2312H11.714V5.81125H16.5025V5.01866H11.714V2.65157H9.75978C9.41697 2.65157 9.41697 2.99288 9.41697 2.99288V5.01866H4.57395V5.81125H9.41697V7.2312H5.41843V8.0236H13.1735C12.8897 9.0097 12.5087 9.93548 12.0564 10.7766C9.54005 9.93923 6.85487 9.26054 5.16797 9.67828C4.08914 9.94635 3.39434 10.4248 2.98615 10.9261C1.11267 13.225 2.45638 16.7168 6.41296 16.7168C8.75233 16.7168 11.0059 15.4014 12.7526 13.2336C15.3577 14.4966 20.5157 16.6651 20.5157 16.6651V13.5745C20.5157 13.5745 19.8679 13.5225 17.0122 12.5581Z" fill="white"/>
<path d="M43.7461 2.92807C43.7461 3.96269 44.5022 4.65918 45.5568 4.65918C46.6115 4.65918 47.3675 3.96269 47.3675 2.92807C47.3675 1.91331 46.6115 1.19678 45.5568 1.19678C44.5022 1.19678 43.7461 1.91331 43.7461 2.92807Z" fill="#1677FF"/>
<path d="M38.6914 16.1607H41.8353V1.63477H38.6914V16.1607Z" fill="black"/>
<path d="M28.6 11.1257L30.4703 4.65871H30.5501L32.3211 11.1257H28.6ZM33.1768 2.13165H28.9582L24.2422 16.1602H27.1475L27.9434 13.4141H32.938L33.6939 16.1602H37.4152L33.1768 2.13165Z" fill="black"/>
<path d="M43.9844 16.1607H47.1283V5.49512H43.9844V16.1607Z" fill="black"/>
<path d="M79.9809 5.51446L80.0005 5.4946H77.0357L75.1654 11.9814H75.0659L72.9169 5.4946H69.3945L73.6332 16.2001L71.8622 19.4634V19.543H74.6281L79.9809 5.51446Z" fill="black"/>
<path d="M52.9569 14.3296C52.5989 14.3296 52.2604 14.2899 51.8826 14.1704V8.39989C52.5392 7.94224 53.0764 7.72325 53.7529 7.72325C54.9271 7.72325 55.8622 8.65859 55.8622 10.6484C55.8622 13.1953 54.4893 14.3296 52.9569 14.3296ZM54.9469 5.2758C53.7928 5.2758 52.8974 5.71359 51.8826 6.54926V5.4946H48.7383V19.543H51.8826V16.0607C52.4794 16.2199 53.0365 16.2996 53.7132 16.2996C56.5188 16.2996 59.0461 14.2301 59.0461 10.5489C59.0461 7.24575 57.2151 5.2758 54.9469 5.2758Z" fill="black"/>
<path d="M65.6329 13.5731C64.7972 14.0307 64.3193 14.2098 63.7626 14.2098C63.0063 14.2098 62.5288 13.7125 62.5288 12.9165C62.5288 12.6179 62.5884 12.3195 62.8271 12.0808C63.2053 11.7026 63.9417 11.4241 65.6329 11.0262V13.5731ZM68.7768 13.4935V9.03636C68.7768 6.60857 67.3443 5.27554 64.8173 5.27554C63.2053 5.27554 62.0911 5.55391 60.0613 6.17078L60.6183 8.61843C62.4689 7.78256 63.2849 7.42439 64.1406 7.42439C65.1754 7.42439 65.6329 8.16059 65.6329 9.29487V9.37449C62.0311 10.0511 60.9169 10.4291 60.2204 11.1256C59.7032 11.643 59.4844 12.3792 59.4844 13.2348C59.4844 15.2843 61.0763 16.3789 62.5687 16.3789C63.683 16.3789 64.5782 15.961 65.7923 15.0455L66.0111 16.1599H69.1551L68.7768 13.4935Z" fill="black"/>
</g>
<defs>
<clipPath id="clip0_8220_72215">
<rect width="79.3167" height="20" fill="white" transform="translate(0.683594)"/>
</clipPath>
</defs>
</svg>
