<svg width="90" height="90" viewBox="0 0 90 90" fill="none" xmlns="http://www.w3.org/2000/svg">
<path fill-rule="evenodd" clip-rule="evenodd" d="M3 44.9999C3 68.1956 21.8042 87.0002 45.0001 87.0002C68.196 87.0002 87.0001 68.1956 87.0001 44.9999C87.0001 21.8036 68.196 3 45.0001 3C21.8041 3 3 21.8037 3 44.9999ZM0 44.9999C0 69.8524 20.1473 90.0002 45.0001 90.0002C69.8529 90.0002 90.0001 69.8524 90.0001 44.9999C90.0001 20.1468 69.8529 0 45.0001 0C20.1473 0 0 20.1468 0 44.9999ZM45 24.5C45.8284 24.5 46.5 25.1716 46.5 26V55.5C46.5 56.3284 45.8284 57 45 57C44.1716 57 43.5 56.3284 43.5 55.5V26C43.5 25.1716 44.1716 24.5 45 24.5ZM45 66C46.1046 66 47 65.1046 47 64C47 62.8954 46.1046 62 45 62C43.8954 62 43 62.8954 43 64C43 65.1046 43.8954 66 45 66Z" fill="black"/>
</svg>
