<svg width="65" height="64" viewBox="0 0 65 64" fill="none" xmlns="http://www.w3.org/2000/svg">
<path fill-rule="evenodd" clip-rule="evenodd" d="M4.89282 9C3.37404 9 2.14282 10.2312 2.14282 11.75V19.75V37V46.25V47.75V52.25C2.14282 53.7688 3.37404 55 4.89282 55H59.3928C60.9116 55 62.1428 53.7688 62.1428 52.25V11.75C62.1428 10.2312 60.9116 9 59.3928 9H50.8928H11.8928H4.89282ZM3.64282 36.25V20.5H5.86839C6.20761 23.2528 8.38993 25.4351 11.1428 25.7742V26V27.7501V30.9758C8.38993 31.3149 6.2076 33.4971 5.86839 36.25H3.64282ZM3.64282 46.25V37.75H5.86839C6.20761 40.5028 8.38993 42.6851 11.1428 43.0242V46.25L3.64282 46.25ZM11.8928 47.7501L11.8804 47.75L3.64282 47.75V52.25C3.64282 52.9404 4.20247 53.5 4.89282 53.5H59.3928C60.0832 53.5 60.6428 52.9404 60.6428 52.25V47.75L50.9069 47.75L50.8928 47.7501L50.8787 47.75L11.9053 47.75L11.8928 47.7501ZM12.6428 43.0241V46.25L21.3928 46.25V37.75H17.9166C17.5774 40.5026 15.3954 42.6847 12.6428 43.0241ZM21.3928 20.5V36.25H17.9166C17.5774 33.4974 15.3954 31.3152 12.6428 30.9759V27.7501V26V25.7741C15.3954 25.4347 17.5774 23.2526 17.9166 20.5H21.3928ZM21.3928 10.5V19H17.9166C17.5774 16.2474 15.3954 14.0652 12.6428 13.7259V10.5H21.3928ZM11.1428 13.7258V10.5H4.89282C4.20247 10.5 3.64282 11.0596 3.64282 11.75V19H5.86839C6.2076 16.2471 8.38993 14.0649 11.1428 13.7258ZM50.1428 10.5H41.8928V19H44.8684C45.2076 16.2471 47.3899 14.0649 50.1428 13.7258V10.5ZM41.8928 20.5V36.25H44.8684C45.2076 33.4971 47.3899 31.3149 50.1428 30.9758V27.7501V26V25.7742C47.3899 25.4351 45.2076 23.2528 44.8684 20.5H41.8928ZM41.8928 37.75V46.25L50.1428 46.25V43.0242C47.3899 42.6851 45.2076 40.5028 44.8684 37.75H41.8928ZM51.6428 46.25V43.0241C54.3954 42.6847 56.5774 40.5026 56.9166 37.75H60.6428V46.25L51.6428 46.25ZM60.6428 36.25V20.5H56.9166C56.5774 23.2526 54.3954 25.4347 51.6428 25.7741V26V27.7501V30.9759C54.3954 31.3152 56.5774 33.4974 56.9166 36.25H60.6428ZM60.6428 19H56.9166C56.5774 16.2474 54.3954 14.0652 51.6428 13.7259V10.5H59.3928C60.0832 10.5 60.6428 11.0596 60.6428 11.75V19ZM22.8928 29.7497V46.25L40.3928 46.25V29.7501H37.7921C37.4524 32.5775 35.2165 34.8216 32.3929 35.1739V37.2285C32.3929 37.6427 32.0571 37.9785 31.6429 37.9785C31.2287 37.9785 30.8929 37.6427 30.8929 37.2285V35.1806C28.0429 34.8514 25.7795 32.5962 25.4376 29.7501H22.9163C22.9084 29.7501 22.9006 29.7499 22.8928 29.7497ZM22.8928 10.5V28.2504C22.9006 28.2502 22.9084 28.2501 22.9163 28.2501H25.4376C25.7795 25.4039 28.0429 23.1488 30.8929 22.8195V20.7715C30.8929 20.3573 31.2287 20.0215 31.6429 20.0215C32.0571 20.0215 32.3929 20.3573 32.3929 20.7715V22.8263C35.2165 23.1785 37.4524 25.4227 37.7921 28.2501H40.3928V10.5H22.8928ZM27.1428 51C27.1428 51.5523 26.6951 52 26.1428 52C25.5905 52 25.1428 51.5523 25.1428 51C25.1428 50.4477 25.5905 50 26.1428 50C26.6951 50 27.1428 50.4477 27.1428 51ZM32.1428 52C32.6951 52 33.1428 51.5523 33.1428 51C33.1428 50.4477 32.6951 50 32.1428 50C31.5905 50 31.1428 50.4477 31.1428 51C31.1428 51.5523 31.5905 52 32.1428 52ZM39.1428 51C39.1428 51.5523 38.6951 52 38.1428 52C37.5905 52 37.1428 51.5523 37.1428 51C37.1428 50.4477 37.5905 50 38.1428 50C38.6951 50 39.1428 50.4477 39.1428 51ZM46.3838 36.25C46.7013 34.3268 48.2196 32.8086 50.1428 32.4912V33.37C50.1428 33.7842 50.4786 34.12 50.8928 34.12C51.307 34.12 51.6428 33.7842 51.6428 33.37V32.4913C53.5658 32.8089 55.0838 34.327 55.4013 36.25H54.5334C54.1192 36.25 53.7834 36.5858 53.7834 37C53.7834 37.4142 54.1192 37.75 54.5334 37.75H55.4013C55.0838 39.673 53.5658 41.1911 51.6428 41.5087V40.6401C51.6428 40.2259 51.307 39.8901 50.8928 39.8901C50.4786 39.8901 50.1428 40.2259 50.1428 40.6401V41.5088C48.2196 41.1914 46.7013 39.6732 46.3838 37.75H47.2628C47.677 37.75 48.0128 37.4142 48.0128 37C48.0128 36.5858 47.677 36.25 47.2628 36.25H46.3838ZM50.1428 15.2412V16.12C50.1428 16.5342 50.4786 16.87 50.8928 16.87C51.307 16.87 51.6428 16.5342 51.6428 16.12V15.2413C53.5658 15.5589 55.0838 17.077 55.4013 19H54.5334C54.1192 19 53.7834 19.3358 53.7834 19.75C53.7834 20.1642 54.1192 20.5 54.5334 20.5H55.4013C55.0838 22.423 53.5658 23.9411 51.6428 24.2587V23.3901C51.6428 22.9759 51.307 22.6401 50.8928 22.6401C50.4786 22.6401 50.1428 22.9759 50.1428 23.3901V24.2588C48.2196 23.9414 46.7013 22.4232 46.3838 20.5H47.2628C47.677 20.5 48.0128 20.1642 48.0128 19.75C48.0128 19.3358 47.677 19 47.2628 19H46.3838C46.7013 17.0768 48.2196 15.5586 50.1428 15.2412ZM11.1428 32.4912C9.21956 32.8086 7.70127 34.3268 7.38375 36.25H8.26282C8.67703 36.25 9.01282 36.5858 9.01282 37C9.01282 37.4142 8.67703 37.75 8.26282 37.75H7.38376C7.70128 39.6732 9.21957 41.1914 11.1428 41.5088V40.6401C11.1428 40.2259 11.4786 39.8901 11.8928 39.8901C12.307 39.8901 12.6428 40.2259 12.6428 40.6401V41.5087C14.5658 41.1911 16.0838 39.673 16.4013 37.75H15.5334C15.1192 37.75 14.7834 37.4142 14.7834 37C14.7834 36.5858 15.1192 36.25 15.5334 36.25H16.4013C16.0838 34.327 14.5658 32.8089 12.6428 32.4913V33.37C12.6428 33.7842 12.307 34.12 11.8928 34.12C11.4786 34.12 11.1428 33.7842 11.1428 33.37V32.4912ZM11.1428 16.12V15.2412C9.21956 15.5586 7.70127 17.0768 7.38375 19H8.26282C8.67704 19 9.01282 19.3358 9.01282 19.75C9.01282 20.1642 8.67704 20.5 8.26282 20.5H7.38376C7.70128 22.4232 9.21957 23.9414 11.1428 24.2588V23.3901C11.1428 22.9759 11.4786 22.6401 11.8928 22.6401C12.307 22.6401 12.6428 22.9759 12.6428 23.3901V24.2587C14.5658 23.9411 16.0838 22.423 16.4013 20.5H15.5334C15.1192 20.5 14.7834 20.1642 14.7834 19.75C14.7834 19.3358 15.1192 19 15.5334 19H16.4013C16.0838 17.077 14.5658 15.5589 12.6428 15.2413V16.12C12.6428 16.5342 12.307 16.87 11.8928 16.87C11.4786 16.87 11.1428 16.5342 11.1428 16.12ZM30.8929 25.2949V24.3329C28.8724 24.6429 27.2739 26.2335 26.9521 28.2501H27.7163C28.1305 28.2501 28.4663 28.5858 28.4663 29.0001C28.4663 29.4143 28.1305 29.7501 27.7163 29.7501H26.9521C27.2739 31.7666 28.8724 33.3573 30.8929 33.6672V32.7153C30.8929 32.3011 31.2287 31.9653 31.6429 31.9653C32.0571 31.9653 32.3929 32.3011 32.3929 32.7153V33.6583C34.3868 33.3277 35.9588 31.7479 36.2776 29.7501H35.5428C35.1286 29.7501 34.7928 29.4143 34.7928 29.0001C34.7928 28.5858 35.1286 28.2501 35.5428 28.2501H36.2776C35.9587 26.2522 34.3868 24.6725 32.3929 24.3419V25.2949C32.3929 25.7091 32.0571 26.0449 31.6429 26.0449C31.2287 26.0449 30.8929 25.7091 30.8929 25.2949Z" fill="black"/>
</svg>
