<svg width="64" height="64" viewBox="0 0 64 64" fill="none" xmlns="http://www.w3.org/2000/svg">
<path fill-rule="evenodd" clip-rule="evenodd" d="M12.8926 9.40039C10.2692 9.40039 8.14258 11.527 8.14258 14.1504V37.3323V38.2745C8.14258 40.8979 10.2692 43.0245 12.8926 43.0245H18.0269V48.7535C18.0269 49.7519 19.1396 50.3474 19.9703 49.7936L30.1239 43.0245H44.43C47.0533 43.0245 49.18 40.8979 49.18 38.2745V14.1504C49.18 11.527 47.0533 9.40039 44.43 9.40039H12.8926ZM9.64258 14.1504C9.64258 12.3555 11.0977 10.9004 12.8926 10.9004H44.43C46.2249 10.9004 47.68 12.3555 47.68 14.1504V38.2745C47.68 40.0694 46.2249 41.5245 44.43 41.5245H29.8968C29.7487 41.5245 29.604 41.5683 29.4808 41.6505L19.5269 48.2864V42.2745C19.5269 41.8603 19.1911 41.5245 18.7769 41.5245H12.8926C11.0977 41.5245 9.64258 40.0694 9.64258 38.2745V37.3323V14.1504ZM36.6009 48.5815H27.632V47.0815H36.828H37.0551L37.244 47.2074L45.7546 52.8811V47.8315V47.0815H46.5046H51.106C52.9009 47.0815 54.356 45.6264 54.356 43.8315V43.5308V23.8769C54.356 22.2006 53.0869 20.8207 51.457 20.6456V19.1397C53.9165 19.3193 55.856 21.3716 55.856 23.8769V43.5308V43.8315C55.856 46.4548 53.7293 48.5815 51.106 48.5815H47.2546V53.3483C47.2546 54.3466 46.1419 54.9421 45.3112 54.3883L36.6009 48.5815ZM18.0429 20.0513C18.0429 19.6371 18.3787 19.3013 18.7929 19.3013H39.1984C39.6126 19.3013 39.9484 19.6371 39.9484 20.0513C39.9484 20.4655 39.6126 20.8013 39.1984 20.8013H18.7929C18.3787 20.8013 18.0429 20.4655 18.0429 20.0513ZM18.7929 27.7075C18.3787 27.7075 18.0429 28.0433 18.0429 28.4575C18.0429 28.8718 18.3787 29.2075 18.7929 29.2075H28.9957C29.4099 29.2075 29.7457 28.8718 29.7457 28.4575C29.7457 28.0433 29.4099 27.7075 28.9957 27.7075H18.7929Z" fill="#1A1A1A"/>
</svg>
