<?xml version="1.0" encoding="UTF-8"?>
<svg width="30" height="20" id="_Ñëîé_1" data-name="Ñëîé 1" xmlns="http://www.w3.org/2000/svg" viewBox="0 0 30 20">
  <defs>
    <style>
      .cls-1 {
        fill: #4873bd;
      }

      .cls-1, .cls-2, .cls-3 {
        stroke-width: 0px;
      }

      .cls-2 {
        fill: #f21f25;
      }

      .cls-3 {
        fill: #fff;
      }
    </style>
  </defs>
  <rect class="cls-1" width="2500" height="2000"/>
  <g>
    <rect class="cls-2" width="30" height="10"/>
    <rect class="cls-3" y="10" width="30" height="10"/>
    <path class="cls-3" d="m4.64,4.81c0-1.88,1.25-3.45,2.91-3.81-.24-.05-.48-.08-.73-.08-2.01,0-3.65,1.74-3.65,3.89s1.63,3.89,3.65,3.89c.25,0,.5-.03.73-.08-1.66-.36-2.91-1.93-2.91-3.81Z"/>
    <polygon class="cls-3" points="8.72 1.74 8.93 2.4 9.55 2.42 9.06 2.84 9.24 3.51 8.72 3.12 8.21 3.51 8.39 2.84 7.9 2.42 8.52 2.4 8.72 1.74"/>
    <g>
      <polygon class="cls-3" points="10.72 3.23 10.92 3.89 11.55 3.91 11.05 4.33 11.23 5 10.72 4.61 10.21 5 10.38 4.33 9.89 3.91 10.51 3.89 10.72 3.23"/>
      <polygon class="cls-3" points="6.73 3.23 6.94 3.89 7.56 3.91 7.07 4.33 7.24 5 6.73 4.61 6.22 5 6.4 4.33 5.9 3.91 6.52 3.89 6.73 3.23"/>
    </g>
    <g>
      <polygon class="cls-3" points="7.56 5.69 7.77 6.35 8.39 6.36 7.89 6.79 8.07 7.46 7.56 7.06 7.05 7.46 7.22 6.79 6.73 6.36 7.35 6.35 7.56 5.69"/>
      <polygon class="cls-3" points="9.89 5.69 10.1 6.35 10.72 6.36 10.23 6.79 10.4 7.46 9.89 7.06 9.38 7.46 9.55 6.79 9.06 6.36 9.68 6.35 9.89 5.69"/>
    </g>
  </g>
</svg>