<svg width="36" height="36" viewBox="0 0 36 36" fill="none" xmlns="http://www.w3.org/2000/svg">
<g id="Icon_Guide_36">
<rect width="36" height="36" fill="white"/>
<path id="Union" fill-rule="evenodd" clip-rule="evenodd" d="M5 3.75024C5 3.33603 5.33579 3.00024 5.75 3.00024H23.343C23.5406 3.00024 23.7301 3.07819 23.8706 3.21716L29.9543 9.23781C30.0967 9.37868 30.1768 9.57063 30.1768 9.7709V32.917C30.1768 33.3312 29.841 33.667 29.4268 33.667H5.75C5.33579 33.667 5 33.3312 5 32.917V3.75024ZM6.5 4.50024V32.167H28.6768V11.0218H22.9067H22.1567V10.2718V4.50024H6.5ZM23.6567 5.11587V9.52179H28.1088L23.6567 5.11587ZM10.0187 11.5138C10.0187 11.0995 10.3545 10.7638 10.7687 10.7638H18.5091C18.9233 10.7638 19.2591 11.0995 19.2591 11.5138C19.2591 11.928 18.9233 12.2638 18.5091 12.2638H10.7687C10.3545 12.2638 10.0187 11.928 10.0187 11.5138ZM10.7687 17.4143C10.3545 17.4143 10.0187 17.7501 10.0187 18.1643C10.0187 18.5785 10.3545 18.9143 10.7687 18.9143H24.3493C24.7636 18.9143 25.0993 18.5785 25.0993 18.1643C25.0993 17.7501 24.7636 17.4143 24.3493 17.4143H10.7687ZM10.0187 24.8146C10.0187 24.4004 10.3545 24.0646 10.7687 24.0646H24.3493C24.7636 24.0646 25.0993 24.4004 25.0993 24.8146C25.0993 25.2288 24.7636 25.5646 24.3493 25.5646H10.7687C10.3545 25.5646 10.0187 25.2288 10.0187 24.8146Z" fill="black"/>
</g>
</svg>
