<svg width="120" height="22" viewBox="0 0 120 22" fill="none" xmlns="http://www.w3.org/2000/svg">
<path fill-rule="evenodd" clip-rule="evenodd" d="M35.7788 14.1425V13.2535C35.7788 13.2244 35.7753 13.1975 35.7741 13.173L35.7729 13.1497C35.7322 11.4592 34.778 10.5282 33.0852 10.5282H27.9799C27.2762 10.5049 26.858 10.0685 26.8557 9.35571V8.04555L26.858 8.01755C26.8731 7.37821 27.3881 6.93721 28.1116 6.93721H35.0856V5.56055H28.1733C26.7543 5.56055 25.8281 6.25705 25.5613 7.52055C25.5065 7.77255 25.4797 8.02338 25.4797 8.28938V9.17838C25.4797 9.19588 25.4797 9.21338 25.4821 9.23088V9.28571C25.5228 10.9727 26.4782 11.9025 28.1733 11.9025L33.2774 11.9037C33.9881 11.9294 34.3959 12.3529 34.4017 13.0762V14.3864C34.4017 14.4004 34.3993 14.412 34.3982 14.4179C34.3819 15.0525 33.8692 15.4947 33.1446 15.4947H25.7605V16.869H33.0887C34.5042 16.869 35.4304 16.1714 35.6949 14.909C35.7496 14.6664 35.7776 14.4085 35.7776 14.1425H35.7788ZM38.4828 16.8912H39.8355V5.56055H38.4828V16.8912ZM52.1081 10.604H46.8281V11.9609H50.696V13.747C50.696 14.9265 50.1077 15.5005 48.8984 15.5005H44.9442C43.8386 15.5005 43.15 14.8274 43.15 13.747V8.68605C43.15 7.58238 43.8386 6.89521 44.9442 6.89521H51.4953V5.56055H45.0001C42.9263 5.56055 41.7345 6.77388 41.7345 8.89021V13.5405C41.7345 15.658 42.9263 16.8737 45.0001 16.8737H48.839C50.9477 16.8737 52.1081 15.6907 52.1081 13.5405V10.604ZM74.3605 14.1064L75.6071 16.89H77.1718L72.0071 5.56171H70.305L65.1403 16.89H66.6863L67.9388 14.1052H74.3605V14.1064ZM71.1566 6.95121L73.7454 12.7309H68.5586L71.1566 6.95121ZM64.1617 16.8807V5.56055H62.7858V15.2065L55.8782 5.57105H54.0875V16.8912H55.4331V7.25105L62.3174 16.8807H64.1617ZM85.1384 5.56055H75.543V6.89871H79.6137V16.8515H81.0677V6.89871H85.1384V5.56055ZM96.3741 5.56055H94.9213V13.446C94.9213 14.7924 94.2502 15.504 92.9792 15.504H89.9896C88.7197 15.504 88.0475 14.7924 88.0475 13.4437V5.56055H86.5959V13.2757C86.5959 15.6674 87.7446 16.8772 90.0106 16.8772H92.8859C95.1997 16.8772 96.3741 15.6674 96.3741 13.2757V5.56055ZM106.884 16.883H108.305C108.187 15.056 107.559 13.6922 106.432 12.83L106.32 12.7449L106.452 12.7087C107.299 12.4754 108.308 11.8069 108.308 9.95538V8.47838C108.308 6.56855 107.314 5.56171 105.431 5.56171H98.2988V16.8539H99.7155V12.802H103.059C105.901 12.802 106.851 15.5052 106.884 16.8842V16.883ZM99.7155 6.89988H105.382C106.313 6.89988 106.891 7.43655 106.891 8.30571L106.892 10.0592C106.892 10.9529 106.366 11.465 105.448 11.465H99.7155V6.89988ZM119.116 6.88938V5.56055H110.002V16.8737H119.116V15.539H111.414V11.871H118.962V10.5352H111.414V6.88938H119.116Z" fill="white"/>
<path fill-rule="evenodd" clip-rule="evenodd" d="M2.68544 4.84259H0V16.4824H8.24854V14.2156H2.68544V4.84259ZM14.1565 12.0456H16.3433V14.0803C15.9402 14.2366 15.155 14.3883 14.4058 14.3883C11.9895 14.3883 11.1833 13.1586 11.1833 10.6619C11.1833 8.28192 11.9499 6.87726 14.3674 6.87726C15.7107 6.87726 16.4761 7.29959 17.1099 8.10926L18.7794 6.56926C17.7623 5.11092 15.9786 4.66992 14.3068 4.66992C10.5483 4.66992 8.57476 6.72326 8.57476 10.6433C8.57476 14.5434 10.3573 16.6551 14.2905 16.6551C16.094 16.6551 17.8579 16.1943 18.8179 15.5211V9.87442H14.1577V12.0444L14.1565 12.0456Z" fill="white"/>
</svg>
