<svg width="36" height="36" viewBox="0 0 36 36" fill="none" xmlns="http://www.w3.org/2000/svg">
<path fill-rule="evenodd" clip-rule="evenodd" d="M5.5625 7.3125C4.04372 7.3125 2.8125 8.54372 2.8125 10.0625V25.9375C2.8125 27.4563 4.04372 28.6875 5.5625 28.6875H30.4375C31.9563 28.6875 33.1875 27.4563 33.1875 25.9375V10.0625C33.1875 8.54372 31.9563 7.3125 30.4375 7.3125H5.5625ZM5.33292 8.83354C5.40734 8.81972 5.48408 8.8125 5.5625 8.8125H30.4375C30.5106 8.8125 30.5822 8.81877 30.6519 8.83081L18.8384 19.5354C18.3623 19.9668 17.6367 19.9671 17.1604 19.536L5.33292 8.83354ZM4.31856 9.93861C4.31455 9.97936 4.3125 10.0207 4.3125 10.0625V25.9375C4.3125 26.037 4.32413 26.1338 4.34609 26.2266L13.3284 18.0915L4.31856 9.93861ZM14.4461 19.1029L5.52038 27.1868C5.53436 27.1873 5.5484 27.1875 5.5625 27.1875H30.4375C30.4505 27.1875 30.4634 27.1873 30.4763 27.1869L21.5443 19.1078L19.8456 20.647C18.7982 21.5961 17.2019 21.5966 16.1539 20.6482L14.4461 19.1029ZM22.6613 18.0956L31.6533 26.2289C31.6757 26.1354 31.6875 26.0378 31.6875 25.9375V10.0625C31.6875 10.0155 31.6849 9.96915 31.6799 9.92352L22.6613 18.0956Z" fill="black"/>
</svg>
