<svg width="24" height="24" viewBox="0 0 24 24" fill="none" xmlns="http://www.w3.org/2000/svg">
<path fill-rule="evenodd" clip-rule="evenodd" d="M14.9988 18.0305L17.1458 14.2628C17.3207 13.9559 17.3207 13.5795 17.1458 13.2726L14.9988 9.5049C14.8209 9.19274 14.4893 9 14.13 9H9.84721C9.48793 9 9.15626 9.19274 8.97838 9.5049L6.83136 13.2726C6.65647 13.5795 6.65647 13.9559 6.83136 14.2628L8.97838 18.0305C9.15626 18.3427 9.48793 18.5354 9.84721 18.5354H14.13C14.4893 18.5354 14.8209 18.3427 14.9988 18.0305ZM14.13 10L16.277 13.7677L14.13 17.5354H9.84721L7.7002 13.7677L9.84721 10L14.13 10ZM13.1296 13.7678C13.1296 14.4254 12.6068 14.9361 11.9895 14.9361C11.3721 14.9361 10.8494 14.4254 10.8494 13.7678C10.8494 13.1102 11.3721 12.5995 11.9895 12.5995C12.6068 12.5995 13.1296 13.1102 13.1296 13.7678ZM11.9895 15.9361C13.1714 15.9361 14.1296 14.9654 14.1296 13.7678C14.1296 12.5703 13.1714 11.5995 11.9895 11.5995C10.8075 11.5995 9.84936 12.5703 9.84936 13.7678C9.84936 14.9654 10.8075 15.9361 11.9895 15.9361Z" fill="black"/>
<path fill-rule="evenodd" clip-rule="evenodd" d="M2.99805 1.99805C2.44576 1.99805 1.99805 2.44576 1.99805 2.99805V5.87673C1.99805 6.35523 2.33413 6.75524 2.78312 6.85358V21.0024C2.78312 21.5547 3.23083 22.0024 3.78311 22.0024H20.2196C20.7719 22.0024 21.2196 21.5547 21.2196 21.0024V6.85296C21.6672 6.75357 22.0019 6.35423 22.0019 5.87673V2.99805C22.0019 2.44576 21.5542 1.99805 21.0019 1.99805H2.99805ZM20.2196 6.87673H3.78312V21.0024L20.2196 21.0024V6.87673ZM2.99805 2.99805L21.0019 2.99805V5.87673L2.99805 5.87673V2.99805Z" fill="black"/>
</svg>
