<svg width="24" height="25" viewBox="0 0 24 25" fill="none" xmlns="http://www.w3.org/2000/svg">
<path fill-rule="evenodd" clip-rule="evenodd" d="M1.99805 3.35742C1.99805 2.80514 2.44576 2.35742 2.99805 2.35742H21.0019C21.5542 2.35742 22.0019 2.80514 22.0019 3.35742V6.23611C22.0019 6.71361 21.6672 7.11294 21.2196 7.21233V21.3618C21.2196 21.9141 20.7719 22.3618 20.2196 22.3618H3.78311C3.23083 22.3618 2.78312 21.9141 2.78312 21.3618V7.21295C2.33413 7.11461 1.99805 6.71461 1.99805 6.23611V3.35742ZM3.78312 7.23611H20.2196V21.3618L3.78312 21.3618V7.23611ZM21.0019 3.35742L2.99805 3.35742V6.23611L21.0019 6.23611V3.35742ZM12.0008 10.4034C12.277 10.4034 12.5008 10.6272 12.5008 10.9034V13.7762H15.3682C15.6443 13.7762 15.8682 14 15.8682 14.2762C15.8682 14.5523 15.6443 14.7762 15.3682 14.7762H12.5008V17.6434C12.5008 17.9196 12.277 18.1434 12.0008 18.1434C11.7247 18.1434 11.5008 17.9196 11.5008 17.6434V14.7762H8.62807C8.35192 14.7762 8.12807 14.5523 8.12807 14.2762C8.12807 14 8.35192 13.7762 8.62807 13.7762H11.5008V10.9034C11.5008 10.6272 11.7247 10.4034 12.0008 10.4034Z" fill="black"/>
</svg>
