<svg width="64" height="64" viewBox="0 0 64 64" fill="none" xmlns="http://www.w3.org/2000/svg">
<circle cx="32" cy="32" r="32" fill="#CACACA"/>
<path d="M31.9998 49.8466C41.8058 49.8466 49.8949 43.6263 51.0566 35.5945C51.2147 34.5013 50.3044 33.6004 49.1998 33.6004H14.7998C13.6952 33.6004 12.7849 34.5013 12.943 35.5945C14.1047 43.6263 22.1938 49.8466 31.9998 49.8466Z" fill="url(#paint0_linear_3272_385914)"/>
<path d="M24.3999 24.8004C24.0666 22.8804 22.3999 21.6004 20.3999 21.6004C18.3999 21.6004 16.7332 22.8804 16.3999 24.8004" stroke="#333333" stroke-width="2.4" stroke-linecap="round"/>
<path d="M47.5996 24.8004C47.2663 22.8804 45.5996 21.6004 43.5996 21.6004C41.5996 21.6004 39.9329 22.8804 39.5996 24.8004" stroke="#333333" stroke-width="2.4" stroke-linecap="round"/>
<defs>
<linearGradient id="paint0_linear_3272_385914" x1="31.9998" y1="33.6004" x2="31.9998" y2="49.8466" gradientUnits="userSpaceOnUse">
<stop stop-color="#696969"/>
<stop offset="1" stop-color="#696969"/>
</linearGradient>
</defs>
</svg>
