<svg width="61" height="61" viewBox="0 0 61 61" fill="none" xmlns="http://www.w3.org/2000/svg">
<path fill-rule="evenodd" clip-rule="evenodd" d="M17 2C14.2386 2 12 4.23857 12 7V53.0047C12 55.7662 14.2386 58.0047 17 58.0047H40.0047C39.4231 57.3914 38.9002 56.7217 38.4451 56.0047H17C15.3431 56.0047 14 54.6616 14 53.0047V45.3184H36.9421C37.1449 44.6262 37.4034 43.9578 37.7123 43.3184H14V14.4316H45.8398C45.8944 14.4316 45.9479 14.4273 46 14.4189V36.3931C46.6479 36.2137 47.3159 36.0829 48 36.0049V7C48 4.23858 45.7614 2 43 2H17ZM14 7C14 5.34314 15.3431 4 17 4H43C44.6569 4 46 5.34315 46 7V12.4444C45.9479 12.436 45.8944 12.4316 45.8398 12.4316H14V7ZM30 48.9863C30.8284 48.9863 31.5 49.6579 31.5 50.4863V50.5137C31.5 51.3421 30.8284 52.0137 30 52.0137C29.1716 52.0137 28.5 51.3421 28.5 50.5137V50.4863C28.5 49.6579 29.1716 48.9863 30 48.9863Z" fill="#646464"/>
<path fill-rule="evenodd" clip-rule="evenodd" d="M40.416 48.9974C40.416 43.9808 44.4828 39.9141 49.4993 39.9141C54.5159 39.9141 58.5827 43.9808 58.5827 48.9974C58.5827 54.014 54.5159 58.0807 49.4993 58.0807C44.4828 58.0807 40.416 54.014 40.416 48.9974ZM49.4993 37.9141C43.3782 37.9141 38.416 42.8762 38.416 48.9974C38.416 55.1186 43.3782 60.0807 49.4993 60.0807C55.6205 60.0807 60.5827 55.1186 60.5827 48.9974C60.5827 42.8762 55.6205 37.9141 49.4993 37.9141ZM54.7526 46.5413C55.1195 46.1285 55.0823 45.4965 54.6695 45.1295C54.2567 44.7626 53.6247 44.7998 53.2577 45.2126L48.4165 50.659L45.7003 47.9428C45.3097 47.5522 44.6766 47.5522 44.2861 47.9428C43.8955 48.3333 43.8955 48.9665 44.2861 49.357L47.7522 52.8231C47.9469 53.0179 48.2134 53.1237 48.4887 53.1156C48.764 53.1075 49.0237 52.9862 49.2067 52.7804L54.7526 46.5413Z" fill="#646464"/>
</svg>
