<svg width="16" height="16" viewBox="0 0 16 16" fill="none" xmlns="http://www.w3.org/2000/svg">
<path fill-rule="evenodd" clip-rule="evenodd" d="M6.09818 1.09811C6.16068 1.0356 6.24546 1.00049 6.33386 1.00049H9.66709C9.75549 1.00049 9.84027 1.0356 9.90277 1.09811C9.96528 1.16062 10.0004 1.2454 10.0004 1.3338V3.23324H6.00055V1.3338C6.00055 1.2454 6.03567 1.16062 6.09818 1.09811ZM5.00055 3.23324V1.3338C5.00055 0.98018 5.14103 0.641048 5.39107 0.391005C5.64111 0.140961 5.98025 0.000488281 6.33386 0.000488281H9.66709C10.0207 0.000488281 10.3598 0.140961 10.6099 0.391005C10.8599 0.641048 11.0004 0.98018 11.0004 1.3338V3.23324H14.6673C14.9987 3.23324 15.2673 3.50186 15.2673 3.83324C15.2673 4.16461 14.9987 4.43324 14.6673 4.43324H14.2863L13.4996 13.8744L13.4989 13.8819L13.4989 13.8819L13.4915 13.9571C13.3835 15.0553 12.5026 15.9062 11.4196 15.9924C11.392 15.9971 11.3636 15.9995 11.3347 15.9995H11.2382H4.66822C3.55351 15.9995 2.62211 15.1508 2.5188 14.0409L2.50375 13.8793L2.50331 13.8744L2.50333 13.8744L1.71656 4.43324H1.33438C1.003 4.43324 0.734375 4.16461 0.734375 3.83324C0.734375 3.50186 1.003 3.23324 1.33438 3.23324H5.00055ZM2.72003 4.43324H13.2829L12.5033 13.7877L12.4963 13.8592C12.4326 14.5063 11.8885 14.9995 11.2382 14.9995H4.66822C4.06989 14.9995 3.56995 14.544 3.5145 13.9482L3.49967 13.789L2.72003 4.43324ZM6.33521 6.66647C6.61135 6.66647 6.83521 6.89033 6.83521 7.16647V12.1663C6.83521 12.4425 6.61135 12.6663 6.33521 12.6663C6.05906 12.6663 5.83521 12.4425 5.83521 12.1663V7.16647C5.83521 6.89033 6.05906 6.66647 6.33521 6.66647ZM10.1672 7.16647C10.1672 6.89033 9.94336 6.66647 9.66722 6.66647C9.39108 6.66647 9.16722 6.89033 9.16722 7.16647V12.1663C9.16722 12.4425 9.39108 12.6663 9.66722 12.6663C9.94336 12.6663 10.1672 12.4425 10.1672 12.1663V7.16647Z" fill="black"/>
</svg>
