<svg width="40" height="40" viewBox="0 0 40 40" fill="none" xmlns="http://www.w3.org/2000/svg">
<path fill-rule="evenodd" clip-rule="evenodd" d="M21.0905 8.19097C21.6757 7.73576 22.53 8.15043 22.53 8.89895V30.099C22.53 30.838 21.6818 31.2595 21.0885 30.8055L21.087 30.8043L14.8207 25.9271L14.6175 25.769H14.36H9.75C9.06421 25.769 8.5 25.2047 8.5 24.519V14.459C8.5 13.7732 9.06421 13.209 9.75 13.209H14.36H14.6166L14.8195 13.0517L21.0895 8.19173L21.0905 8.19097ZM24.03 8.89895C24.03 6.90759 21.7445 5.78227 20.1698 7.00675L20.1695 7.00694L14.1034 11.709H9.75C8.23579 11.709 7 12.9447 7 14.459V24.519C7 26.0332 8.23579 27.269 9.75 27.269H14.1025L20.1693 31.9908L20.173 31.9936C21.7397 33.1977 24.03 32.0993 24.03 30.099V8.89895ZM29.6111 12.718C29.2796 12.4695 28.8096 12.5368 28.5611 12.8682C28.3126 13.1996 28.3799 13.6697 28.7113 13.9182C29.5771 14.5672 30.2797 15.4089 30.7637 16.3764C31.2476 17.3439 31.4996 18.4108 31.4996 19.4925C31.4996 20.5742 31.2476 21.6411 30.7637 22.6086C30.2797 23.5761 29.5771 24.4178 28.7113 25.0669C28.3799 25.3153 28.3126 25.7854 28.5611 26.1168C28.8096 26.4482 29.2796 26.5155 29.6111 26.267C30.6631 25.4783 31.5171 24.4555 32.1052 23.2796C32.6934 22.1038 32.9996 20.8072 32.9996 19.4925C32.9996 18.1778 32.6934 16.8812 32.1052 15.7054C31.5171 14.5295 30.6631 13.5067 29.6111 12.718Z" fill="black"/>
</svg>
