<svg width="28" height="28" viewBox="0 0 28 28" fill="none" xmlns="http://www.w3.org/2000/svg">
<path fill-rule="evenodd" clip-rule="evenodd" d="M12.0358 22.0987H1.867H0.667001V20.8987V10.7299L0.666016 10.7289L0.667001 10.7279V7.29869V6.09869H1.867H5.29623L9.88038 1.51454L10.7289 0.666016L11.5774 1.51454L16.1616 6.09869H26.1337H27.3337V7.29869V20.8987V22.0987H26.1337H22.5038L18.1183 26.4842L17.2698 27.3327L16.4213 26.4842L12.0358 22.0987ZM13.7329 22.0987L17.2698 25.6356L20.8067 22.0987H13.7329ZM6.99329 6.09869L10.7289 2.36307L14.4645 6.09869H6.99329ZM1.867 7.29869H19.7176V9.95068L19.6964 9.92322C19.3497 9.47603 18.9213 9.06643 18.437 8.84003C17.9284 8.60219 17.3276 8.56004 16.7745 8.92886C16.0171 9.43392 15.7274 10.3541 16.0292 11.2357H1.867V7.29869ZM17.0846 15.4196L19.0631 13.4411C18.1298 13.222 17.4061 12.872 16.8868 12.4357H1.867V20.8987H19.7176V14.4837L17.9331 16.2682L17.5089 16.6924L16.6603 15.8439L17.0846 15.4196ZM20.9176 10.547C21.0486 10.3259 21.1907 10.1157 21.3399 9.92322C21.6867 9.47603 22.1151 9.06643 22.5993 8.84003C23.108 8.60219 23.7087 8.56004 24.2619 8.92886C25.0193 9.43392 25.309 10.3541 25.0072 11.2357H25.0079H25.015H25.022H25.0291H25.0362H25.0433H25.0504H25.0575H25.0646H25.0717H25.0787H25.0858H25.0929H25.1H25.1071H25.1142H25.1212H25.1283H25.1354H25.1424H25.1495H25.1566H25.1636H25.1707H25.1778H25.1848H25.1919H25.1989H25.206H25.213H25.2201H25.2271H25.2341H25.2412H25.2482H25.2552H25.2623H25.2693H25.2763H25.2833H25.2903H25.2973H25.3043H25.3113H25.3183H25.3253H25.3322H25.3392H25.3462H25.3532H25.3601H25.3671H25.374H25.381H25.3879H25.3948H25.4017H25.4087H25.4156H25.4225H25.4294H25.4363H25.4432H25.45H25.4569H25.4638H25.4706H25.4775H25.4843H25.4912H25.498H25.5048H25.5117H25.5185H25.5253H25.5321H25.5388H25.5456H25.5524H25.5591H25.5659H25.5726H25.5794H25.5861H25.5928H25.5995H25.6062H25.6129H25.6196H25.6263H25.6329H25.6396H25.6462H25.6529H25.6595H25.6661H25.6727H25.6793H25.6859H25.6925H25.699H25.7056H25.7121H25.7186H25.7252H25.7317H25.7382H25.7446H25.7511H25.7576H25.764H25.7705H25.7769H25.7833H25.7897H25.7961H25.8025H25.8089H25.8152H25.8216H25.8279H25.8342H25.8405H25.8468H25.8531H25.8593H25.8656H25.8718H25.8781H25.8843H25.8905H25.8967H25.9028H25.909H25.9151H25.9212H25.9274H25.9335H25.9395H25.9456H25.9517H25.9577H25.9637H25.9697H25.9757H25.9817H25.9877H25.9936H25.9996H26.0055H26.0114H26.0173H26.0231H26.029H26.0348H26.0407H26.0465H26.0522H26.058H26.0638H26.0695H26.0752H26.0809H26.0866H26.0923H26.098H26.1036H26.1092H26.1148H26.1204H26.1259H26.1315H26.1337V7.29869H20.9176V10.547ZM24.1495 12.4357C23.6295 12.8726 22.9044 13.223 21.9691 13.4421L23.9466 15.4196L24.3709 15.8439L23.5223 16.6924L23.0981 16.2682L20.9176 14.0876V20.8987H26.1337V12.4357H26.1315H26.1259H26.1204H26.1148H26.1092H26.1036H26.098H26.0923H26.0866H26.0809H26.0752H26.0695H26.0638H26.058H26.0522H26.0465H26.0407H26.0348H26.029H26.0231H26.0173H26.0114H26.0055H25.9996H25.9936H25.9877H25.9817H25.9757H25.9697H25.9637H25.9577H25.9517H25.9456H25.9395H25.9335H25.9274H25.9212H25.9151H25.909H25.9028H25.8967H25.8905H25.8843H25.8781H25.8718H25.8656H25.8593H25.8531H25.8468H25.8405H25.8342H25.8279H25.8216H25.8152H25.8089H25.8025H25.7961H25.7897H25.7833H25.7769H25.7705H25.764H25.7576H25.7511H25.7446H25.7382H25.7317H25.7252H25.7186H25.7121H25.7056H25.699H25.6925H25.6859H25.6793H25.6727H25.6661H25.6595H25.6529H25.6462H25.6396H25.6329H25.6263H25.6196H25.6129H25.6062H25.5995H25.5928H25.5861H25.5794H25.5726H25.5659H25.5591H25.5524H25.5456H25.5388H25.5321H25.5253H25.5185H25.5117H25.5048H25.498H25.4912H25.4843H25.4775H25.4706H25.4638H25.4569H25.45H25.4432H25.4363H25.4294H25.4225H25.4156H25.4087H25.4017H25.3948H25.3879H25.381H25.374H25.3671H25.3601H25.3532H25.3462H25.3392H25.3322H25.3253H25.3183H25.3113H25.3043H25.2973H25.2903H25.2833H25.2763H25.2693H25.2623H25.2552H25.2482H25.2412H25.2341H25.2271H25.2201H25.213H25.206H25.1989H25.1919H25.1848H25.1778H25.1707H25.1636H25.1566H25.1495H25.1424H25.1354H25.1283H25.1212H25.1142H25.1071H25.1H25.0929H25.0858H25.0787H25.0717H25.0646H25.0575H25.0504H25.0433H25.0362H25.0291H25.022H25.015H25.0079H25.0008H24.9937H24.9866H24.9795H24.9724H24.9653H24.9582H24.9511H24.9441H24.937H24.9299H24.9228H24.9157H24.9086H24.9016H24.8945H24.8874H24.8803H24.8733H24.8662H24.8591H24.852H24.845H24.8379H24.8309H24.8238H24.8167H24.8097H24.8026H24.7956H24.7885H24.7815H24.7745H24.7674H24.7604H24.7534H24.7464H24.7393H24.7323H24.7253H24.7183H24.7113H24.7043H24.6973H24.6903H24.6833H24.6764H24.6694H24.6624H24.6555H24.6485H24.6415H24.6346H24.6277H24.6207H24.6138H24.6069H24.5999H24.593H24.5861H24.5792H24.5723H24.5654H24.5586H24.5517H24.5448H24.5379H24.5311H24.5242H24.5174H24.5106H24.5037H24.4969H24.4901H24.4833H24.4765H24.4697H24.463H24.4562H24.4494H24.4427H24.4359H24.4292H24.4225H24.4157H24.409H24.4023H24.3956H24.389H24.3823H24.3756H24.369H24.3623H24.3557H24.3491H24.3424H24.3358H24.3293H24.3227H24.3161H24.3095H24.303H24.2964H24.2899H24.2834H24.2769H24.2704H24.2639H24.2574H24.2509H24.2445H24.238H24.2316H24.2252H24.2188H24.2124H24.206H24.1997H24.1933H24.187H24.1806H24.1743H24.168H24.1617H24.1554H24.1495ZM17.9288 9.92707C17.7082 9.82392 17.5676 9.84235 17.4402 9.92726C17.127 10.1361 16.971 10.5743 17.2716 11.0752C17.5393 11.5211 18.2195 12.0619 19.6004 12.3297C19.4441 11.7853 19.1396 11.1635 18.748 10.6585C18.4626 10.2903 18.1738 10.0417 17.9288 9.92707ZM23.5961 9.92726C23.4688 9.84235 23.3282 9.82392 23.1076 9.92707C22.8625 10.0417 22.5737 10.2903 22.2883 10.6585C21.8968 11.1635 21.5923 11.7853 21.436 12.3297C22.8169 12.0619 23.4971 11.5211 23.7648 11.0752C24.0653 10.5743 23.9093 10.1361 23.5961 9.92726Z" fill="black"/>
</svg>
