<svg width="64" height="64" viewBox="0 0 64 64" fill="none" xmlns="http://www.w3.org/2000/svg">
<g clip-path="url(#clip0_734_106875)">
<path d="M59.25 19.75H4.75C3.64543 19.75 2.75 20.6454 2.75 21.75V41.75C2.75 42.8546 3.64543 43.75 4.75 43.75H59.25C60.3546 43.75 61.25 42.8546 61.25 41.75V21.75C61.25 20.6454 60.3546 19.75 59.25 19.75Z" stroke="#EA1917" stroke-width="1.5"/>
<path d="M17.5391 40.0098C18.0913 40.0098 18.5391 39.5621 18.5391 39.0098C18.5391 38.4575 18.0913 38.0098 17.5391 38.0098C16.9868 38.0098 16.5391 38.4575 16.5391 39.0098C16.5391 39.5621 16.9868 40.0098 17.5391 40.0098Z" fill="#EA1917"/>
<path d="M36.8289 40.4508C41.6338 40.4508 45.5289 36.5557 45.5289 31.7508C45.5289 26.9459 41.6338 23.0508 36.8289 23.0508C32.024 23.0508 28.1289 26.9459 28.1289 31.7508C28.1289 36.5557 32.024 40.4508 36.8289 40.4508Z" stroke="#EA1917" stroke-width="1.5"/>
<path d="M36.8284 36.4303C39.4131 36.4303 41.5084 34.335 41.5084 31.7503C41.5084 29.1656 39.4131 27.0703 36.8284 27.0703C34.2437 27.0703 32.1484 29.1656 32.1484 31.7503C32.1484 34.335 34.2437 36.4303 36.8284 36.4303Z" stroke="#EA1917" stroke-width="1.5"/>
</g>
<defs>
<clipPath id="clip0_734_106875">
<rect width="60" height="25.5" fill="white" transform="translate(2 19)"/>
</clipPath>
</defs>
</svg>
