<svg width="20" height="20" viewBox="0 0 20 20" fill="none" xmlns="http://www.w3.org/2000/svg">
<path fill-rule="evenodd" clip-rule="evenodd" d="M13.2209 3.5C15.584 3.5 17.5 5.44308 17.5 7.83955C17.5 9.11405 16.9586 10.2597 16.0966 11.0537L16.451 10.6845C14.4246 12.7969 12.6085 14.6564 11.0019 16.2617C10.6694 16.5939 10.1469 16.5653 9.79188 16.2596C7.17142 14.0031 5.02133 12.0301 3.80426 10.86C3.71707 10.7765 3.64114 10.6943 3.57645 10.6135L3.53216 10.5647C2.88952 9.81537 2.5 8.83687 2.5 7.76504C2.5 5.40966 4.38291 3.5 6.70596 3.5C8.08123 3.5 9.16612 4.16928 9.82212 5.2049C10.6026 4.16789 11.8351 3.5 13.2209 3.5V3.5Z" stroke="#333333"/>
</svg>
