<svg width="42" height="42" viewBox="0 0 42 42" fill="none" xmlns="http://www.w3.org/2000/svg">
<circle cx="21" cy="21" r="16" fill="#B7B7B7"/>
<rect x="13" y="19.0018" width="1.8" height="4.8" rx="0.9" transform="rotate(-45 13 19.0018)" fill="#333333"/>
<rect x="18.5" y="13.4003" width="1.7" height="4" rx="0.85" fill="#989898"/>
<rect x="22" y="11.8007" width="1.7" height="5.6" rx="0.85" fill="#989898"/>
<rect x="27.7969" y="17.6998" width="1.8" height="4.8" rx="0.9" transform="rotate(45 27.7969 17.6998)" fill="#333333"/>
<path fill-rule="evenodd" clip-rule="evenodd" d="M20.9556 24.5757C20.7617 24.5373 20.5532 24.5672 20.3681 24.6756L15.7689 27.3683C15.3638 27.6055 15.2236 28.1285 15.4559 28.5365C15.6882 28.9444 16.2049 29.0829 16.61 28.8457L20.9009 26.3334L25.281 28.898C25.6862 29.1351 26.2029 28.9967 26.4351 28.5888C26.6674 28.1808 26.5273 27.6578 26.1221 27.4206L21.4552 24.6882C21.2978 24.5961 21.1235 24.5606 20.9556 24.5757Z" fill="#333333"/>
</svg>
