<svg width="32" height="32" viewBox="0 0 32 32" fill="none" xmlns="http://www.w3.org/2000/svg">
<path fill-rule="evenodd" clip-rule="evenodd" d="M16.0018 4.5C9.64955 4.5 4.5 9.64955 4.5 16.0018C4.5 22.3541 9.64955 27.5037 16.0018 27.5037C22.3541 27.5037 27.5037 22.3541 27.5037 16.0018C27.5037 9.64955 22.3541 4.5 16.0018 4.5ZM3 16.0018C3 8.82113 8.82113 3 16.0018 3C23.1826 3 29.0037 8.82113 29.0037 16.0018C29.0037 23.1826 23.1826 29.0037 16.0018 29.0037C8.82113 29.0037 3 23.1826 3 16.0018ZM14.462 17.5348H16.7689C18.4605 17.5348 19.8319 16.1634 19.8319 14.4718C19.8319 12.7802 18.4605 11.4088 16.7689 11.4088H13.2078C13.06 11.4088 12.9402 11.5287 12.9402 11.6765V17.2671C12.9402 17.3055 12.9483 17.3421 12.9629 17.3751L12.9445 20.6133C12.9422 21.0275 13.276 21.3652 13.6903 21.3675C14.1045 21.3699 14.4421 21.036 14.4445 20.6218L14.462 17.5348ZM14.4705 16.0348L14.4882 12.9088H16.7689C17.6321 12.9088 18.3319 13.6086 18.3319 14.4718C18.3319 15.335 17.6321 16.0348 16.7689 16.0348H14.4705Z" fill="black"/>
</svg>
