<svg width="75" height="45" viewBox="0 0 75 45" fill="none" xmlns="http://www.w3.org/2000/svg">
<g clip-path="url(#clip0_5520_345996)">
<path d="M20 0H59.5V45H20L-3.8147e-06 22.6731L20 0Z" fill="#ED1C24"/>
<path d="M59.5 0H75V45H59.5V0Z" fill="white"/>
<path d="M0.166664 22.3269L19.5 0.173077C19.5 0.173077 19.6667 0 19.8333 0H74.5C74.6667 0 75 0.173077 75 0.519231V44.4808C75 44.6539 74.8333 45 74.5 45H19.8333C19.6667 45 19.6667 45 19.5 44.8269L0.166664 23.0192C0 22.6731 0 22.5 0.166664 22.3269ZM74 1.03846H60V44.1346H74V1.03846ZM20.1667 44.1346H59V1.03846H20.1667L1.16667 22.6731L20.1667 44.1346Z" fill="black"/>
<path d="M47.8288 11.1909C47.7747 10.8795 47.6434 10.5869 47.4468 10.3404C47.1651 10.0621 46.847 9.8237 46.5016 9.63168C45.963 9.31739 45.3936 9.05958 44.8026 8.86215C44.0214 8.59906 43.2215 8.396 42.4097 8.25462C41.4139 8.08091 40.4044 7.99622 39.3936 8.00155C37.5092 7.97388 35.6376 8.31784 33.884 9.014C32.2764 9.66282 30.8336 10.6661 29.6617 11.9502C28.4535 13.2965 27.533 14.8783 26.9572 16.5977C26.2945 18.5873 25.9714 20.6756 26.0021 22.774C25.9717 24.7979 26.274 26.813 26.8967 28.7376C27.435 30.39 28.3158 31.9086 29.4805 33.1926C30.6264 34.427 32.0359 35.3824 33.6028 35.9871C35.3596 36.6707 37.2288 37.0145 39.1121 36.9995C39.8107 36.999 40.5088 36.9618 41.2035 36.8881C41.9031 36.8043 42.5978 36.6825 43.2844 36.5237C43.9681 36.382 44.6217 36.1997 45.2953 36.0074C45.9689 35.8149 46.4616 35.6125 46.8939 35.4199C47.2665 35.2839 47.5726 35.0084 47.7483 34.6506C47.8943 34.291 47.9662 33.9051 47.9596 33.5166V22.379C47.9636 22.1189 47.9297 21.8597 47.8591 21.6095C47.8003 21.3997 47.7012 21.2036 47.5675 21.0324C47.4514 20.8834 47.3036 20.7623 47.1352 20.678C46.9586 20.5964 46.7663 20.5549 46.5722 20.5565H37.8254C37.7069 20.5558 37.5923 20.599 37.5037 20.678C37.3953 20.7782 37.3124 20.9032 37.2623 21.0424C37.1851 21.2547 37.1345 21.4758 37.1116 21.7006C37.0922 22.0378 37.0922 22.3759 37.1116 22.7131C37.0826 23.2708 37.1507 23.8293 37.3127 24.3635C37.4432 24.6875 37.6344 24.8495 37.8656 24.8495H42.7315V31.3396C42.2355 31.6306 41.7005 31.8489 41.143 31.9876C40.5775 32.1303 39.9969 32.2018 39.4139 32.2002C38.2939 32.2144 37.1824 32.0007 36.1464 31.5725C35.1683 31.1604 34.3006 30.522 33.6129 29.7096C32.8711 28.8171 32.3139 27.7843 31.9741 26.6721C31.5612 25.3006 31.3647 23.8726 31.3908 22.4398C31.3751 21.0881 31.5684 19.7422 31.9639 18.4505C32.3083 17.3227 32.8685 16.2737 33.6129 15.3624C34.3123 14.5008 35.1955 13.8087 36.1967 13.3374C37.2573 12.854 38.4106 12.612 39.5748 12.6286C40.6103 12.6139 41.6427 12.7468 42.6412 13.0235C43.4189 13.2437 44.1788 13.5247 44.9134 13.8638C45.4421 14.1065 45.9529 14.3874 46.4414 14.7042C46.6832 14.901 46.9701 15.0334 47.2759 15.0889C47.3898 15.0918 47.5009 15.0521 47.5877 14.9776C47.6935 14.8751 47.7699 14.7457 47.8088 14.603C47.8799 14.3654 47.9271 14.1211 47.9494 13.874C47.9854 13.514 48.0022 13.1523 47.9998 12.7906C47.9944 12.2531 47.9372 11.7173 47.8288 11.1909Z" fill="white" stroke="black" stroke-miterlimit="10" stroke-linecap="round" stroke-linejoin="round"/>
<path d="M66.8327 27.5192C67.3327 27.5192 67.666 27.1731 67.666 26.6538V20.4231L68.8327 21.4615C68.9993 21.6346 69.166 21.6346 69.3327 21.6346C69.4993 21.6346 69.8327 21.4615 69.8327 21.4615C70.166 21.1154 70.166 20.5961 69.8327 20.25L67.3327 17.6538C66.9993 17.3077 66.4993 17.3077 66.166 17.6538L63.666 20.25C63.3327 20.5961 63.3327 21.1154 63.666 21.4615C63.9993 21.8077 64.4993 21.8077 64.8327 21.4615L65.9993 20.4231V26.6538C65.8327 27.1731 65.9993 27.5192 66.8327 27.5192Z" fill="black"/>
<path d="M68.3327 13.6731H65.3327L64.8327 15.4039H63.166L65.8327 6.9231H67.4993L70.3327 15.4039H68.666C68.9993 15.4039 68.3327 13.6731 68.3327 13.6731ZM67.8327 12.2885L66.8327 8.48079L65.666 12.2885H67.8327Z" fill="#231C1E"/>
<path d="M70.1654 33.0577V37.3847C69.832 37.5577 69.4987 37.7308 68.9987 37.9039C68.4987 38.077 67.832 38.077 67.6654 38.077C66.4987 38.077 65.4987 37.7308 64.832 36.8654C64.1654 36 63.832 34.9616 63.832 33.577C63.832 32.1924 64.1654 30.9808 64.832 30.2885C65.4987 29.5962 66.4987 29.077 67.6654 29.077C68.1654 29.077 68.6654 29.077 68.9987 29.25C69.4987 29.4231 69.832 29.5962 69.9987 29.7693L69.4987 31.1539C68.832 30.8077 68.1654 30.6347 67.4987 30.6347C65.9987 30.6347 65.332 31.6731 65.332 33.577C65.332 35.4808 65.9987 36.6924 67.6654 36.6924C67.9987 36.6924 68.332 36.6924 68.6654 36.5193V34.4424H67.1654V33.0577H70.1654Z" fill="black"/>
</g>
<defs>
<clipPath id="clip0_5520_345996">
<rect width="75" height="45" fill="white"/>
</clipPath>
</defs>
</svg>
