<svg width="65" height="64" viewBox="0 0 65 64" fill="none" xmlns="http://www.w3.org/2000/svg">
<path d="M59.9648 14.5H5.46484C4.36027 14.5 3.46484 15.3954 3.46484 16.5V47.5C3.46484 48.6046 4.36027 49.5 5.46484 49.5H59.9648C61.0694 49.5 61.9648 48.6046 61.9648 47.5V16.5C61.9648 15.3954 61.0694 14.5 59.9648 14.5Z" stroke="black" stroke-width="1.5"/>
<path d="M56.9141 29.0508C57.4663 29.0508 57.9141 28.6031 57.9141 28.0508C57.9141 27.4985 57.4663 27.0508 56.9141 27.0508C56.3618 27.0508 55.9141 27.4985 55.9141 28.0508C55.9141 28.6031 56.3618 29.0508 56.9141 29.0508Z" fill="black"/>
<path d="M56.9141 33C57.4663 33 57.9141 32.5523 57.9141 32C57.9141 31.4477 57.4663 31 56.9141 31C56.3618 31 55.9141 31.4477 55.9141 32C55.9141 32.5523 56.3618 33 56.9141 33Z" fill="black"/>
<path d="M56.9141 36.9492C57.4663 36.9492 57.9141 36.5015 57.9141 35.9492C57.9141 35.3969 57.4663 34.9492 56.9141 34.9492C56.3618 34.9492 55.9141 35.3969 55.9141 35.9492C55.9141 36.5015 56.3618 36.9492 56.9141 36.9492Z" fill="black"/>
<path d="M3.64453 41.1289H61.6445" stroke="black" stroke-width="1.5" stroke-miterlimit="10" stroke-linecap="round"/>
<path d="M51.5352 14.5V41.13" stroke="black" stroke-width="1.5" stroke-miterlimit="10" stroke-linecap="round"/>
<path d="M46.5645 21.3203V34.3203" stroke="black" stroke-width="1.5" stroke-miterlimit="10" stroke-linecap="round"/>
<path d="M55.1055 21.3516H58.5155" stroke="black" stroke-width="1.5" stroke-miterlimit="10" stroke-linecap="round"/>
</svg>
