<svg width="14" height="10" viewBox="0 0 14 10" fill="none" xmlns="http://www.w3.org/2000/svg">
<path d="M13.0233 2.1501H13.0407L13.0581 2.14916C13.1498 2.14425 13.222 2.17566 13.27 2.2201C13.3165 2.26314 13.35 2.32673 13.35 2.41438C13.35 2.44678 13.3329 2.50725 13.2734 2.566C13.2161 2.62249 13.1465 2.6501 13.0825 2.6501H13.0233H12.8065L12.8014 2.62537C12.793 2.58509 12.7847 2.54872 12.7783 2.52062L12.7768 2.51422C12.7697 2.48304 12.7655 2.46427 12.7623 2.44758C12.7573 2.42199 12.7557 2.40714 12.7557 2.38581C12.7557 2.28053 12.8572 2.1501 13.0233 2.1501ZM9.95047 5.48205L12.3019 3.49273L11.0766 8.22412C9.5713 9.00132 8.18442 9.2501 6.9852 9.2501C5.75095 9.2501 4.72952 8.97199 4.01502 8.69148C3.65812 8.55137 3.37998 8.41149 3.19298 8.30749C3.13631 8.27597 3.08829 8.2479 3.04929 8.22433L1.8317 3.52297L4.10461 5.47854L4.69733 5.9885L5.09043 5.31259L6.98472 2.05545L7.00821 2.01505L7.01846 2.03227L8.97194 5.31799L9.36431 5.97794L9.95047 5.48205ZM1.21412 2.35543L1.10928 2.50724H1.06554H0.917548C0.861684 2.50724 0.788336 2.48143 0.727459 2.42394C0.66829 2.36806 0.65 2.31097 0.65 2.27153C0.65 2.24648 0.663131 2.19092 0.732133 2.12847C0.802956 2.06438 0.887957 2.03581 0.947146 2.03581C1.00301 2.03581 1.07636 2.06163 1.13724 2.11911C1.1964 2.17499 1.21469 2.23208 1.21469 2.27153C1.21469 2.30629 1.21466 2.33209 1.21412 2.35543ZM7.12573 1.23244L7.02299 1.33162L6.75861 1.17211C6.73722 1.15921 6.68806 1.0972 6.68806 1.01438C6.68806 0.882635 6.81642 0.750098 6.9556 0.750098C7.06016 0.750098 7.12411 0.7847 7.15691 0.815652C7.18411 0.841326 7.22315 0.894537 7.22315 1.01438C7.22315 1.08351 7.18506 1.17517 7.12573 1.23244Z" stroke="#A50034" stroke-width="1.3"/>
</svg>
