<svg width="60" height="60" viewBox="0 0 60 60" fill="none" xmlns="http://www.w3.org/2000/svg">
<path fill-rule="evenodd" clip-rule="evenodd" d="M20.4751 8.96083C19.4078 8.53272 18.2641 8.32773 17.1145 8.35848C16.922 8.36363 16.7389 8.44259 16.6031 8.57902L12.9998 12.1978C12.708 12.4909 12.7085 12.9649 13.0009 13.2574L17.4584 17.7149L18.5191 16.6542L14.5908 12.7259L17.448 9.85632C18.2935 9.86955 19.1304 10.0376 19.9167 10.353C20.794 10.7049 21.5899 11.2327 22.2554 11.9039L22.2676 11.9159C23.2226 12.836 23.8897 14.0138 24.1879 15.3059C24.4861 16.5981 24.4025 17.9491 23.9473 19.1947C23.8471 19.4688 23.9151 19.7761 24.1214 19.9824L40.1343 35.9953C40.3404 36.2015 40.6474 36.2695 40.9213 36.1697C42.1698 35.7149 43.5233 35.6316 44.8181 35.9298C46.1129 36.228 47.2936 36.895 48.2173 37.8502L48.2173 37.8502L48.2242 37.8571C48.8897 38.5276 49.413 39.3256 49.7626 40.2032C50.1122 41.0809 50.281 42.0201 50.2587 42.9645L50.2585 42.9822V43.9141H51.7585V42.9909C51.7842 41.8475 51.5793 40.7106 51.1561 39.6481C50.7323 38.5843 50.0984 37.617 49.2922 36.8038C48.1674 35.6422 46.7305 34.831 45.1548 34.4681C43.7353 34.1411 42.2579 34.1906 40.8679 34.6076L25.5094 19.2491C25.9269 17.8615 25.9766 16.3861 25.6495 14.9686C25.2866 13.3961 24.4755 11.9625 23.3145 10.8417C22.506 10.0279 21.5398 9.38789 20.4751 8.96083ZM21.6743 33.7838C22.0011 33.663 22.3551 33.6353 22.6967 33.7036C23.0384 33.7719 23.3544 33.9337 23.6097 34.1709C23.6156 34.1764 23.6214 34.182 23.6271 34.1877L25.4132 35.9582L25.4267 35.972L25.7784 36.339L27.5589 38.1194L27.5679 38.1285L27.5779 38.1392C27.8152 38.3944 27.9769 38.7105 28.0452 39.0521C28.1136 39.3938 28.0858 39.7477 27.965 40.0746C27.9618 40.0833 27.9584 40.0919 27.9549 40.1005C27.6204 40.9118 27.3918 41.7628 27.2749 42.6326C27.2689 42.6767 27.259 42.7203 27.2454 42.7627C27.1879 42.941 27.107 43.1108 27.0048 43.2679C26.9764 43.3116 26.9435 43.3522 26.9066 43.3891L19.1409 51.1548C19.1221 51.1736 19.1023 51.1914 19.0816 51.2081C18.5258 51.6567 17.8517 51.9341 17.1412 52.0066C16.1954 52.1233 15.2353 52.0019 14.3483 51.6534C13.4666 51.3069 12.685 50.7469 12.0734 50.0239L11.7134 49.6501C10.997 49.0394 10.4409 48.2625 10.0938 47.3871C9.74162 46.4989 9.61567 45.5372 9.72722 44.5884L9.72775 44.5839C9.81494 43.8788 10.0952 43.2116 10.5376 42.6557C10.5552 42.6336 10.5741 42.6125 10.5941 42.5925L18.3598 34.8268C18.4111 34.7755 18.4696 34.7319 18.5334 34.6974C18.6776 34.6194 18.8286 34.5547 18.9846 34.504C19.0275 34.4901 19.0716 34.48 19.1163 34.474C19.986 34.357 20.8371 34.1285 21.6484 33.7939C21.657 33.7904 21.6656 33.787 21.6743 33.7838ZM22.2037 35.1875C21.302 35.5576 20.3577 35.8138 19.3927 35.9501C19.3728 35.9576 19.353 35.9657 19.3335 35.9743L11.6869 43.621C11.4311 43.9537 11.2686 44.3489 11.2167 44.7658C11.1346 45.4671 11.2279 46.1778 11.4882 46.8342C11.7487 47.4913 12.1684 48.0734 12.7096 48.5282C12.7298 48.5451 12.7491 48.5631 12.7674 48.5821L13.1712 49.0015C13.1832 49.0139 13.1947 49.0268 13.2058 49.04C13.6589 49.5807 14.2403 49.9993 14.8969 50.2573C15.5535 50.5153 16.2643 50.6046 16.9643 50.517L16.9832 50.5149C17.3943 50.474 17.7851 50.3175 18.1105 50.0638L25.7794 42.395C25.7866 42.3809 25.7932 42.3666 25.7994 42.352C25.9358 41.3885 26.1917 40.4456 26.5614 39.5452C26.5831 39.4813 26.5876 39.4127 26.5744 39.3463C26.5611 39.28 26.5306 39.2184 26.486 39.1678L24.7121 37.394L24.7009 37.3826L24.3504 37.0167L22.582 35.2637C22.5312 35.2187 22.4693 35.1878 22.4025 35.1745C22.3362 35.1612 22.2676 35.1657 22.2037 35.1875ZM14.7095 46.0393L22.1801 38.5687L23.2407 39.6293L15.7701 47.0999L14.7095 46.0393ZM8.35531 17.3133V16.3929H9.85531V17.3248C9.85531 17.3326 9.85518 17.3404 9.85494 17.3483C9.82536 18.2918 9.99039 19.2313 10.3397 20.1083C10.6891 20.9853 11.2153 21.7809 11.8855 22.4457L11.8948 22.4549L11.8947 22.455C12.8196 23.4049 13.9984 24.0685 15.2902 24.3666C16.582 24.6647 17.9324 24.5847 19.18 24.1362C19.4532 24.0379 19.7587 24.1063 19.964 24.3116L35.9769 40.3245C36.1822 40.5299 36.2506 40.8353 36.1523 41.1086C35.7038 42.3562 35.6238 43.7065 35.9219 44.9983C36.2201 46.2902 36.8837 47.4689 37.8335 48.3938L37.8425 48.4025L37.8424 48.4026C38.5094 49.0741 39.3076 49.6009 40.1872 49.9504C40.9769 50.2641 41.8169 50.4287 42.6649 50.4369L45.521 47.5808L41.5801 43.6537L42.6389 42.5912L47.112 47.0487C47.253 47.1892 47.3324 47.3801 47.3326 47.5793C47.3327 47.7784 47.2537 47.9694 47.1129 48.1103L43.5096 51.7135C43.3749 51.8482 43.194 51.9266 43.0036 51.9328C41.8517 51.9702 40.7045 51.7699 39.6334 51.3444C38.5643 50.9197 37.5939 50.2796 36.7826 49.4641C35.6288 48.339 34.8227 46.906 34.4604 45.3356C34.1337 43.9203 34.18 42.4472 34.5907 41.0596L19.2289 25.6979C17.8413 26.1085 16.3683 26.1548 14.9529 25.8282C13.3826 25.4658 11.9496 24.6598 10.8246 23.5061C10.0103 22.6973 9.37098 21.7297 8.94624 20.6634C8.52217 19.5989 8.32105 18.4586 8.35531 17.3133ZM48.2213 9.52479C47.974 9.27779 47.5889 9.23435 47.2928 9.42007L42.4127 12.481C42.301 12.5511 42.2097 12.6494 42.1481 12.7661L40.1673 16.516L33.7596 22.7107C33.6151 22.8504 33.5327 23.0423 33.5309 23.2433C33.5292 23.4444 33.6082 23.6377 33.7503 23.7799L35.1165 25.1477L35.1171 25.1482L36.4848 26.5145C36.6271 26.6566 36.8204 26.7356 37.0214 26.7338C37.2224 26.7321 37.4144 26.6497 37.5541 26.5051L43.7487 20.0974L47.4987 18.1167C47.6153 18.0551 47.7137 17.9638 47.7838 17.852L50.8447 12.972C51.0304 12.6759 50.987 12.2907 50.74 12.0434L49.4817 10.7837L49.4811 10.783L48.2213 9.52479ZM41.4378 17.3224L43.3804 13.6447L47.5839 11.0081L48.4204 11.8437L48.421 11.8443L49.2566 12.6809L46.62 16.8844L42.9424 18.8269C42.8723 18.864 42.8085 18.9118 42.7534 18.9688L37.0055 24.9144L36.1778 24.0876L36.1772 24.087L35.3503 23.2592L41.2959 17.5113C41.3529 17.4562 41.4008 17.3925 41.4378 17.3224Z" fill="black"/>
</svg>
