<svg width="32" height="32" viewBox="0 0 32 32" fill="none" xmlns="http://www.w3.org/2000/svg">
<rect x="3.75" y="5.53198" width="21.1452" height="20.3065" rx="1.25" fill="white" stroke="black" stroke-width="1.5"/>
<path d="M8.03223 3.73364V7.08848" stroke="black" stroke-width="1.5" stroke-linecap="round"/>
<path d="M20.6133 3.73364V7.08848" stroke="black" stroke-width="1.5" stroke-linecap="round"/>
<mask id="path-4-inside-1_2003_339848" fill="white">
<rect x="6.35449" y="10.2336" width="3.35484" height="3.35484" rx="1"/>
</mask>
<rect x="6.35449" y="10.2336" width="3.35484" height="3.35484" rx="1" fill="white" stroke="black" stroke-width="3" mask="url(#path-4-inside-1_2003_339848)"/>
<mask id="path-5-inside-2_2003_339848" fill="white">
<rect x="10.5479" y="10.2336" width="3.35484" height="3.35484" rx="1"/>
</mask>
<rect x="10.5479" y="10.2336" width="3.35484" height="3.35484" rx="1" fill="white" stroke="black" stroke-width="3" mask="url(#path-5-inside-2_2003_339848)"/>
<mask id="path-6-inside-3_2003_339848" fill="white">
<rect x="14.7412" y="10.2336" width="3.35484" height="3.35484" rx="1"/>
</mask>
<rect x="14.7412" y="10.2336" width="3.35484" height="3.35484" rx="1" fill="white" stroke="black" stroke-width="3" mask="url(#path-6-inside-3_2003_339848)"/>
<mask id="path-7-inside-4_2003_339848" fill="white">
<rect x="18.9355" y="10.2336" width="3.35484" height="3.35484" rx="1"/>
</mask>
<rect x="18.9355" y="10.2336" width="3.35484" height="3.35484" rx="1" fill="white" stroke="black" stroke-width="3" mask="url(#path-7-inside-4_2003_339848)"/>
<mask id="path-8-inside-5_2003_339848" fill="white">
<rect x="6.35449" y="14.4274" width="3.35484" height="3.35484" rx="1"/>
</mask>
<rect x="6.35449" y="14.4274" width="3.35484" height="3.35484" rx="1" fill="white" stroke="black" stroke-width="3" mask="url(#path-8-inside-5_2003_339848)"/>
<mask id="path-9-inside-6_2003_339848" fill="white">
<rect x="10.5479" y="14.4274" width="3.35484" height="3.35484" rx="1"/>
</mask>
<rect x="10.5479" y="14.4274" width="3.35484" height="3.35484" rx="1" fill="white" stroke="black" stroke-width="3" mask="url(#path-9-inside-6_2003_339848)"/>
<mask id="path-10-inside-7_2003_339848" fill="white">
<rect x="14.7412" y="14.4274" width="3.35484" height="3.35484" rx="1"/>
</mask>
<rect x="14.7412" y="14.4274" width="3.35484" height="3.35484" rx="1" fill="white" stroke="black" stroke-width="3" mask="url(#path-10-inside-7_2003_339848)"/>
<mask id="path-11-inside-8_2003_339848" fill="white">
<rect x="18.9355" y="14.4274" width="3.35484" height="3.35484" rx="1"/>
</mask>
<rect x="18.9355" y="14.4274" width="3.35484" height="3.35484" rx="1" fill="white" stroke="black" stroke-width="3" mask="url(#path-11-inside-8_2003_339848)"/>
<mask id="path-12-inside-9_2003_339848" fill="white">
<rect x="6.35449" y="18.6211" width="3.35484" height="3.35484" rx="1"/>
</mask>
<rect x="6.35449" y="18.6211" width="3.35484" height="3.35484" rx="1" fill="white" stroke="black" stroke-width="3" mask="url(#path-12-inside-9_2003_339848)"/>
<mask id="path-13-inside-10_2003_339848" fill="white">
<rect x="10.5479" y="18.6211" width="3.35484" height="3.35484" rx="1"/>
</mask>
<rect x="10.5479" y="18.6211" width="3.35484" height="3.35484" rx="1" fill="white" stroke="black" stroke-width="3" mask="url(#path-13-inside-10_2003_339848)"/>
<mask id="path-14-inside-11_2003_339848" fill="white">
<rect x="14.7412" y="18.6211" width="3.35484" height="3.35484" rx="1"/>
</mask>
<rect x="14.7412" y="18.6211" width="3.35484" height="3.35484" rx="1" fill="white" stroke="black" stroke-width="3" mask="url(#path-14-inside-11_2003_339848)"/>
<rect x="19.6855" y="19.3711" width="1.85484" height="1.85484" rx="0.927419" fill="white" stroke="black" stroke-width="1.5"/>
<circle cx="22.7093" cy="21.976" r="5.54032" fill="white" stroke="black" stroke-width="1.5"/>
<path d="M20.6123 21.9358L24.8059 21.9358" stroke="black" stroke-width="1.2" stroke-linecap="round"/>
<path d="M22.709 19.839V24.0325" stroke="black" stroke-width="1.2" stroke-linecap="round"/>
</svg>
