<svg width="64" height="64" viewBox="0 0 64 64" fill="none" xmlns="http://www.w3.org/2000/svg">
<mask id="path-1-inside-1_4749_12990" fill="white">
<path fill-rule="evenodd" clip-rule="evenodd" d="M4 10.5H38.48C38.7561 10.5 38.98 10.7239 38.98 11V33.4942C38.9147 33.4756 38.8458 33.4657 38.7746 33.4657H3.5V11C3.5 10.7239 3.72386 10.5 4 10.5ZM3.5 34.9657V44.1946C3.5 44.4707 3.72386 44.6946 4 44.6946H38.98V34.9372C38.9147 34.9558 38.8458 34.9657 38.7746 34.9657H3.5ZM2 11C2 9.89543 2.89543 9 4 9H38.48C39.5846 9 40.48 9.89543 40.48 11V16.8009H40.4973H46.7778C49.0246 16.8009 51.0831 18.0561 52.1119 20.0535L57.2263 29.983L57.6565 30.8182L59.7424 31.8281C61.1226 32.4964 61.9993 33.8949 61.9993 35.4283V44.6954C61.9993 45.5239 61.3277 46.1954 60.4993 46.1954H39.0108H38.9986V46.1946H38.98H4C2.89543 46.1946 2 45.2992 2 44.1946V11ZM40.4973 18.3009H46.7778C48.4629 18.3009 50.0068 19.2423 50.7784 20.7403L55.539 29.983H40.4973V18.3009ZM60.4993 35.4283V44.6954H40.4985L40.4975 31.5452H55.6011C55.6766 31.5452 55.7511 31.5622 55.819 31.5951L59.0887 33.1782C59.9513 33.5959 60.4993 34.4699 60.4993 35.4283ZM8.76299 26.1758H10.215V22.9088H13.229V21.7318H10.215V19.9608H13.46V18.7838H8.76299V26.1758ZM16.1769 22.0948V19.9608H17.5739C17.9552 19.9608 18.2486 20.0488 18.4539 20.2248C18.6666 20.4008 18.7729 20.6684 18.7729 21.0278C18.7729 21.3871 18.6666 21.6548 18.4539 21.8308C18.2486 22.0068 17.9552 22.0948 17.5739 22.0948H16.1769ZM14.7249 18.7838V26.1758H16.1769V23.2718H17.5189L19.0259 26.1758H20.5659L18.9379 23.0408C19.3559 22.8721 19.6822 22.6118 19.9169 22.2598C20.1589 21.9004 20.2799 21.4898 20.2799 21.0278C20.2799 20.2724 20.0526 19.7114 19.5979 19.3448C19.1432 18.9708 18.4722 18.7838 17.5849 18.7838H14.7249ZM26.8082 26.1758V24.9988H23.2882V22.8978H26.5772V21.7428H23.2882V19.9608H26.6982V18.7838H21.8362V26.1758H26.8082ZM33.2106 26.1758V24.9988H29.6906V22.8978H32.9796V21.7428H29.6906V19.9608H33.1006V18.7838H28.2386V26.1758H33.2106Z"/>
</mask>
<path fill-rule="evenodd" clip-rule="evenodd" d="M4 10.5H38.48C38.7561 10.5 38.98 10.7239 38.98 11V33.4942C38.9147 33.4756 38.8458 33.4657 38.7746 33.4657H3.5V11C3.5 10.7239 3.72386 10.5 4 10.5ZM3.5 34.9657V44.1946C3.5 44.4707 3.72386 44.6946 4 44.6946H38.98V34.9372C38.9147 34.9558 38.8458 34.9657 38.7746 34.9657H3.5ZM2 11C2 9.89543 2.89543 9 4 9H38.48C39.5846 9 40.48 9.89543 40.48 11V16.8009H40.4973H46.7778C49.0246 16.8009 51.0831 18.0561 52.1119 20.0535L57.2263 29.983L57.6565 30.8182L59.7424 31.8281C61.1226 32.4964 61.9993 33.8949 61.9993 35.4283V44.6954C61.9993 45.5239 61.3277 46.1954 60.4993 46.1954H39.0108H38.9986V46.1946H38.98H4C2.89543 46.1946 2 45.2992 2 44.1946V11ZM40.4973 18.3009H46.7778C48.4629 18.3009 50.0068 19.2423 50.7784 20.7403L55.539 29.983H40.4973V18.3009ZM60.4993 35.4283V44.6954H40.4985L40.4975 31.5452H55.6011C55.6766 31.5452 55.7511 31.5622 55.819 31.5951L59.0887 33.1782C59.9513 33.5959 60.4993 34.4699 60.4993 35.4283ZM8.76299 26.1758H10.215V22.9088H13.229V21.7318H10.215V19.9608H13.46V18.7838H8.76299V26.1758ZM16.1769 22.0948V19.9608H17.5739C17.9552 19.9608 18.2486 20.0488 18.4539 20.2248C18.6666 20.4008 18.7729 20.6684 18.7729 21.0278C18.7729 21.3871 18.6666 21.6548 18.4539 21.8308C18.2486 22.0068 17.9552 22.0948 17.5739 22.0948H16.1769ZM14.7249 18.7838V26.1758H16.1769V23.2718H17.5189L19.0259 26.1758H20.5659L18.9379 23.0408C19.3559 22.8721 19.6822 22.6118 19.9169 22.2598C20.1589 21.9004 20.2799 21.4898 20.2799 21.0278C20.2799 20.2724 20.0526 19.7114 19.5979 19.3448C19.1432 18.9708 18.4722 18.7838 17.5849 18.7838H14.7249ZM26.8082 26.1758V24.9988H23.2882V22.8978H26.5772V21.7428H23.2882V19.9608H26.6982V18.7838H21.8362V26.1758H26.8082ZM33.2106 26.1758V24.9988H29.6906V22.8978H32.9796V21.7428H29.6906V19.9608H33.1006V18.7838H28.2386V26.1758H33.2106Z" fill="white"/>
<path d="M38.98 33.4942L38.4333 35.418L40.98 36.1417V33.4942H38.98ZM3.5 33.4657H1.5V35.4657H3.5V33.4657ZM3.5 34.9657V32.9657H1.5V34.9657H3.5ZM38.98 44.6946V46.6946H40.98V44.6946H38.98ZM38.98 34.9372H40.98V32.2897L38.4333 33.0134L38.98 34.9372ZM40.48 16.8009H38.48V18.8009H40.48V16.8009ZM52.1119 20.0535L53.8899 19.1377V19.1377L52.1119 20.0535ZM57.2263 29.983L55.4483 30.8988L55.4483 30.8988L57.2263 29.983ZM57.6565 30.8182L55.8785 31.734L56.1842 32.3275L56.785 32.6183L57.6565 30.8182ZM59.7424 31.8281L60.6139 30.028L59.7424 31.8281ZM38.9986 46.1954H36.9986V48.1954H38.9986V46.1954ZM38.9986 46.1946H40.9986V44.1946H38.9986V46.1946ZM40.4973 18.3009V16.3009H38.4973V18.3009H40.4973ZM50.7784 20.7403L52.5564 19.8245V19.8245L50.7784 20.7403ZM55.539 29.983V31.983H58.8189L57.317 29.0672L55.539 29.983ZM40.4973 29.983H38.4973V31.983H40.4973V29.983ZM60.4993 44.6954V46.6954H62.4993V44.6954H60.4993ZM40.4985 44.6954L38.4985 44.6956L38.4986 46.6954H40.4985V44.6954ZM40.4975 31.5452V29.5452H38.4973L38.4975 31.5453L40.4975 31.5452ZM55.819 31.5951L56.6906 29.795L56.6906 29.795L55.819 31.5951ZM59.0887 33.1782L58.2172 34.9783L58.2172 34.9783L59.0887 33.1782ZM10.215 26.1758V28.1758H12.215V26.1758H10.215ZM8.76299 26.1758H6.76299V28.1758H8.76299V26.1758ZM10.215 22.9088V20.9088H8.21499V22.9088H10.215ZM13.229 22.9088V24.9088H15.229V22.9088H13.229ZM13.229 21.7318H15.229V19.7318H13.229V21.7318ZM10.215 21.7318H8.21499V23.7318H10.215V21.7318ZM10.215 19.9608V17.9608H8.21499V19.9608H10.215ZM13.46 19.9608V21.9608H15.46V19.9608H13.46ZM13.46 18.7838H15.46V16.7838H13.46V18.7838ZM8.76299 18.7838V16.7838H6.76299V18.7838H8.76299ZM16.1769 19.9608V17.9608H14.1769V19.9608H16.1769ZM16.1769 22.0948H14.1769V24.0948H16.1769V22.0948ZM18.4539 20.2248L17.1523 21.7433L17.1654 21.7545L17.1788 21.7656L18.4539 20.2248ZM18.4539 21.8308L17.1788 20.29L17.1654 20.301L17.1523 20.3123L18.4539 21.8308ZM14.7249 26.1758H12.7249V28.1758H14.7249V26.1758ZM14.7249 18.7838V16.7838H12.7249V18.7838H14.7249ZM16.1769 26.1758V28.1758H18.1769V26.1758H16.1769ZM16.1769 23.2718V21.2718H14.1769V23.2718H16.1769ZM17.5189 23.2718L19.2941 22.3506L18.7343 21.2718H17.5189V23.2718ZM19.0259 26.1758L17.2507 27.097L17.8105 28.1758H19.0259V26.1758ZM20.5659 26.1758V28.1758H23.8581L22.3408 25.2541L20.5659 26.1758ZM18.9379 23.0408L18.1895 21.1861L16.1488 22.0095L17.163 23.9625L18.9379 23.0408ZM19.9169 22.2598L18.258 21.1426L18.2528 21.1504L19.9169 22.2598ZM19.5979 19.3448L18.3274 20.8894L18.3348 20.8955L18.3424 20.9016L19.5979 19.3448ZM26.8082 24.9988H28.8082V22.9988H26.8082V24.9988ZM26.8082 26.1758V28.1758H28.8082V26.1758H26.8082ZM23.2882 24.9988H21.2882V26.9988H23.2882V24.9988ZM23.2882 22.8978V20.8978H21.2882V22.8978H23.2882ZM26.5772 22.8978V24.8978H28.5772V22.8978H26.5772ZM26.5772 21.7428H28.5772V19.7428H26.5772V21.7428ZM23.2882 21.7428H21.2882V23.7428H23.2882V21.7428ZM23.2882 19.9608V17.9608H21.2882V19.9608H23.2882ZM26.6982 19.9608V21.9608H28.6982V19.9608H26.6982ZM26.6982 18.7838H28.6982V16.7838H26.6982V18.7838ZM21.8362 18.7838V16.7838H19.8362V18.7838H21.8362ZM21.8362 26.1758H19.8362V28.1758H21.8362V26.1758ZM33.2106 24.9988H35.2106V22.9988H33.2106V24.9988ZM33.2106 26.1758V28.1758H35.2106V26.1758H33.2106ZM29.6906 24.9988H27.6906V26.9988H29.6906V24.9988ZM29.6906 22.8978V20.8978H27.6906V22.8978H29.6906ZM32.9796 22.8978V24.8978H34.9796V22.8978H32.9796ZM32.9796 21.7428H34.9796V19.7428H32.9796V21.7428ZM29.6906 21.7428H27.6906V23.7428H29.6906V21.7428ZM29.6906 19.9608V17.9608H27.6906V19.9608H29.6906ZM33.1006 19.9608V21.9608H35.1006V19.9608H33.1006ZM33.1006 18.7838H35.1006V16.7838H33.1006V18.7838ZM28.2386 18.7838V16.7838H26.2386V18.7838H28.2386ZM28.2386 26.1758H26.2386V28.1758H28.2386V26.1758ZM38.48 8.5H4V12.5H38.48V8.5ZM40.98 11C40.98 9.61929 39.8607 8.5 38.48 8.5V12.5C37.6516 12.5 36.98 11.8284 36.98 11H40.98ZM40.98 33.4942V11H36.98V33.4942H40.98ZM38.7746 35.4657C38.6591 35.4657 38.5441 35.4495 38.4333 35.418L39.5267 31.5704C39.2853 31.5018 39.0325 31.4657 38.7746 31.4657V35.4657ZM3.5 35.4657H38.7746V31.4657H3.5V35.4657ZM1.5 11V33.4657H5.5V11H1.5ZM4 8.5C2.61929 8.5 1.5 9.61929 1.5 11H5.5C5.5 11.8284 4.82843 12.5 4 12.5V8.5ZM5.5 44.1946V34.9657H1.5V44.1946H5.5ZM4 42.6946C4.82843 42.6946 5.5 43.3662 5.5 44.1946H1.5C1.5 45.5753 2.61929 46.6946 4 46.6946V42.6946ZM38.98 42.6946H4V46.6946H38.98V42.6946ZM36.98 34.9372V44.6946H40.98V34.9372H36.98ZM38.7746 36.9657C39.0325 36.9657 39.2853 36.9296 39.5267 36.8611L38.4333 33.0134C38.5441 32.9819 38.6591 32.9657 38.7746 32.9657V36.9657ZM3.5 36.9657H38.7746V32.9657H3.5V36.9657ZM4 7C1.79086 7 0 8.79086 0 11H4V11V7ZM38.48 7H4V11H38.48V7ZM42.48 11C42.48 8.79086 40.6891 7 38.48 7V11H42.48ZM42.48 16.8009V11H38.48V16.8009H42.48ZM40.4973 14.8009H40.48V18.8009H40.4973V14.8009ZM46.7778 14.8009H40.4973V18.8009H46.7778V14.8009ZM53.8899 19.1377C52.5181 16.4745 49.7735 14.8009 46.7778 14.8009V18.8009C48.2757 18.8009 49.648 19.6377 50.3339 20.9693L53.8899 19.1377ZM59.0043 29.0672L53.8899 19.1377L50.3339 20.9693L55.4483 30.8988L59.0043 29.0672ZM59.4345 29.9024L59.0043 29.0672L55.4483 30.8988L55.8785 31.734L59.4345 29.9024ZM60.6139 30.028L58.5281 29.0181L56.785 32.6183L58.8708 33.6282L60.6139 30.028ZM63.9993 35.4283C63.9993 33.1281 62.6843 31.0304 60.6139 30.028L58.8708 33.6282C59.5609 33.9624 59.9993 34.6616 59.9993 35.4283H63.9993ZM63.9993 44.6954V35.4283H59.9993V44.6954H63.9993ZM60.4993 48.1954C62.4323 48.1954 63.9993 46.6284 63.9993 44.6954H59.9993C59.9993 44.4193 60.2231 44.1954 60.4993 44.1954V48.1954ZM39.0108 48.1954H60.4993V44.1954H39.0108V48.1954ZM38.9986 48.1954H39.0108V44.1954H38.9986V48.1954ZM36.9986 46.1946V46.1954H40.9986V46.1946H36.9986ZM38.98 48.1946H38.9986V44.1946H38.98V48.1946ZM4 48.1946H38.98V44.1946H4V48.1946ZM0 44.1946C0 46.4037 1.79086 48.1946 4 48.1946V44.1946H4H0ZM0 11V44.1946H4V11H0ZM46.7778 16.3009H40.4973V20.3009H46.7778V16.3009ZM52.5564 19.8245C51.4418 17.6607 49.2118 16.3009 46.7778 16.3009V20.3009C47.714 20.3009 48.5717 20.8239 49.0004 21.6561L52.5564 19.8245ZM57.317 29.0672L52.5564 19.8245L49.0004 21.6561L53.761 30.8988L57.317 29.0672ZM40.4973 31.983H55.539V27.983H40.4973V31.983ZM38.4973 18.3009V29.983H42.4973V18.3009H38.4973ZM62.4993 44.6954V35.4283H58.4993V44.6954H62.4993ZM40.4985 46.6954H60.4993V42.6954H40.4985V46.6954ZM38.4975 31.5453L38.4985 44.6956L42.4985 44.6953L42.4975 31.545L38.4975 31.5453ZM55.6011 29.5452H40.4975V33.5452H55.6011V29.5452ZM56.6906 29.795C56.3509 29.6306 55.9785 29.5452 55.6011 29.5452V33.5452C55.3747 33.5452 55.1512 33.4939 54.9475 33.3952L56.6906 29.795ZM59.9603 31.3781L56.6906 29.795L54.9475 33.3952L58.2172 34.9783L59.9603 31.3781ZM62.4993 35.4283C62.4993 33.7032 61.513 32.1299 59.9603 31.3781L58.2172 34.9783C58.3897 35.0618 58.4993 35.2367 58.4993 35.4283H62.4993ZM10.215 24.1758H8.76299V28.1758H10.215V24.1758ZM8.21499 22.9088V26.1758H12.215V22.9088H8.21499ZM13.229 20.9088H10.215V24.9088H13.229V20.9088ZM11.229 21.7318V22.9088H15.229V21.7318H11.229ZM10.215 23.7318H13.229V19.7318H10.215V23.7318ZM8.21499 19.9608V21.7318H12.215V19.9608H8.21499ZM13.46 17.9608H10.215V21.9608H13.46V17.9608ZM11.46 18.7838V19.9608H15.46V18.7838H11.46ZM8.76299 20.7838H13.46V16.7838H8.76299V20.7838ZM10.763 26.1758V18.7838H6.76299V26.1758H10.763ZM14.1769 19.9608V22.0948H18.1769V19.9608H14.1769ZM17.5739 17.9608H16.1769V21.9608H17.5739V17.9608ZM19.7555 18.7063C19.0636 18.1132 18.2389 17.9608 17.5739 17.9608V21.9608C17.6716 21.9608 17.4336 21.9844 17.1523 21.7433L19.7555 18.7063ZM20.7729 21.0278C20.7729 20.2658 20.5314 19.348 19.729 18.684L17.1788 21.7656C17.0149 21.6299 16.8997 21.4603 16.8344 21.2959C16.7743 21.1445 16.7729 21.0406 16.7729 21.0278H20.7729ZM19.729 23.3716C20.5314 22.7075 20.7729 21.7898 20.7729 21.0278H16.7729C16.7729 21.015 16.7743 20.911 16.8344 20.7596C16.8997 20.5953 17.0149 20.4256 17.1788 20.29L19.729 23.3716ZM17.5739 24.0948C18.2389 24.0948 19.0636 23.9423 19.7555 23.3493L17.1523 20.3123C17.4336 20.0712 17.6716 20.0948 17.5739 20.0948V24.0948ZM16.1769 24.0948H17.5739V20.0948H16.1769V24.0948ZM16.7249 26.1758V18.7838H12.7249V26.1758H16.7249ZM16.1769 24.1758H14.7249V28.1758H16.1769V24.1758ZM14.1769 23.2718V26.1758H18.1769V23.2718H14.1769ZM17.5189 21.2718H16.1769V25.2718H17.5189V21.2718ZM20.8011 25.2546L19.2941 22.3506L15.7437 24.193L17.2507 27.097L20.8011 25.2546ZM20.5659 24.1758H19.0259V28.1758H20.5659V24.1758ZM17.163 23.9625L18.791 27.0975L22.3408 25.2541L20.7128 22.1191L17.163 23.9625ZM18.2528 21.1504C18.2499 21.1547 18.2486 21.156 18.249 21.1555C18.2495 21.1551 18.2497 21.1549 18.2489 21.1556C18.2486 21.1558 18.2333 21.1684 18.1895 21.1861L19.6863 24.8955C20.4518 24.5866 21.1081 24.0785 21.581 23.3692L18.2528 21.1504ZM18.2799 21.0278C18.2799 21.0825 18.273 21.1092 18.2707 21.117C18.2687 21.1238 18.2662 21.1305 18.258 21.1426L21.5758 23.377C22.0552 22.6652 22.2799 21.86 22.2799 21.0278H18.2799ZM18.3424 20.9016C18.3239 20.8867 18.3032 20.8658 18.2849 20.8409C18.2668 20.8162 18.2582 20.7975 18.2558 20.7917C18.2521 20.7824 18.2799 20.846 18.2799 21.0278H22.2799C22.2799 19.8595 21.9103 18.6403 20.8534 17.788L18.3424 20.9016ZM17.5849 20.7838C18.2343 20.7838 18.3729 20.9268 18.3274 20.8894L20.8684 17.8002C19.9136 17.0148 18.7101 16.7838 17.5849 16.7838V20.7838ZM14.7249 20.7838H17.5849V16.7838H14.7249V20.7838ZM24.8082 24.9988V26.1758H28.8082V24.9988H24.8082ZM23.2882 26.9988H26.8082V22.9988H23.2882V26.9988ZM21.2882 22.8978V24.9988H25.2882V22.8978H21.2882ZM26.5772 20.8978H23.2882V24.8978H26.5772V20.8978ZM24.5772 21.7428V22.8978H28.5772V21.7428H24.5772ZM23.2882 23.7428H26.5772V19.7428H23.2882V23.7428ZM21.2882 19.9608V21.7428H25.2882V19.9608H21.2882ZM26.6982 17.9608H23.2882V21.9608H26.6982V17.9608ZM24.6982 18.7838V19.9608H28.6982V18.7838H24.6982ZM21.8362 20.7838H26.6982V16.7838H21.8362V20.7838ZM23.8362 26.1758V18.7838H19.8362V26.1758H23.8362ZM26.8082 24.1758H21.8362V28.1758H26.8082V24.1758ZM31.2106 24.9988V26.1758H35.2106V24.9988H31.2106ZM29.6906 26.9988H33.2106V22.9988H29.6906V26.9988ZM27.6906 22.8978V24.9988H31.6906V22.8978H27.6906ZM32.9796 20.8978H29.6906V24.8978H32.9796V20.8978ZM30.9796 21.7428V22.8978H34.9796V21.7428H30.9796ZM29.6906 23.7428H32.9796V19.7428H29.6906V23.7428ZM27.6906 19.9608V21.7428H31.6906V19.9608H27.6906ZM33.1006 17.9608H29.6906V21.9608H33.1006V17.9608ZM31.1006 18.7838V19.9608H35.1006V18.7838H31.1006ZM28.2386 20.7838H33.1006V16.7838H28.2386V20.7838ZM30.2386 26.1758V18.7838H26.2386V26.1758H30.2386ZM33.2106 24.1758H28.2386V28.1758H33.2106V24.1758Z" fill="black" mask="url(#path-1-inside-1_4749_12990)"/>
<path d="M20.164 47.0217C20.164 50.4793 17.3766 53.2756 13.9463 53.2756C10.516 53.2756 7.72852 50.4793 7.72852 47.0217C7.72852 43.5641 10.516 40.7678 13.9463 40.7678C17.3766 40.7678 20.164 43.5641 20.164 47.0217Z" fill="white" stroke="black" stroke-width="1.5"/>
<path d="M55.998 47.0217C55.998 50.4793 53.2106 53.2756 49.7803 53.2756C46.3499 53.2756 43.5625 50.4793 43.5625 47.0217C43.5625 43.5641 46.3499 40.7678 49.7803 40.7678C53.2106 40.7678 55.998 43.5641 55.998 47.0217Z" fill="white" stroke="black" stroke-width="1.5"/>
</svg>
