<svg width="36" height="36" viewBox="0 0 36 36" fill="none" xmlns="http://www.w3.org/2000/svg">
<g id="Icon_Guide_36">
<rect width="36" height="36" fill="white"/>
<path id="Union" fill-rule="evenodd" clip-rule="evenodd" d="M9.32758 21.2323V15.5612C9.32758 14.1934 10.4626 13.121 11.817 13.121C12.167 13.121 12.5023 13.1926 12.8072 13.3224V12.8187C12.8072 11.5038 13.8888 10.4609 15.1943 10.4609C15.6566 10.4609 16.0907 10.5917 16.4588 10.819C16.8979 10.1134 17.6778 9.64224 18.5707 9.64224C19.7885 9.64224 20.796 10.5185 21.0156 11.6707C21.3026 11.5505 21.6175 11.4842 21.9467 11.4842C23.2522 11.4842 24.3338 12.527 24.3338 13.8419V21.6155H27.5301C27.8618 19.2125 29.7636 17.3108 32.1667 16.9793V8.89241C29.8003 8.61359 27.899 6.81536 27.4651 4.5L9.35269 4.5C8.90957 6.86444 6.93621 8.6896 4.5 8.90808L4.5 16.95C6.89285 17.1646 8.83918 18.9291 9.32758 21.2323ZM9.32758 23.1155H3.75H3L3 22.3655V3.75V3H3.75L32.9167 3L33.6667 3V3.75L33.6667 22.3655V23.1155H32.9167H27.8126V25.4532C27.8126 30.0096 24.1189 33.7032 19.5626 33.7032H18.7237V33.7032H17.5776C13.0212 33.7032 9.32758 30.0095 9.32758 25.4532V23.1155ZM26.3126 23.1155H24.3338V24.4519H22.8338V22.4136H22.8338V13.8419C22.8338 13.3809 22.4495 12.9842 21.9467 12.9842C21.4541 12.9842 21.0753 13.365 21.0601 13.814V18.1684H21.0597V20.4195H19.5597V13.8419C19.5597 13.826 19.5598 13.8102 19.5601 13.7945V12.1435C19.5601 11.5857 19.1123 11.1422 18.5707 11.1422C18.0291 11.1422 17.5813 11.5857 17.5813 12.1435V12.8078L17.5814 12.8187V20.4195H16.0814V18.1684H16.0813V12.8123C16.0778 12.354 15.6947 11.9609 15.1943 11.9609C14.6915 11.9609 14.3072 12.3577 14.3072 12.8187V19.1917H14.3064V21.1959H12.8064V15.5612C12.8064 15.0621 12.3838 14.621 11.817 14.621C11.2501 14.621 10.8276 15.0621 10.8276 15.5612V25.4532C10.8276 29.1811 13.8497 32.2032 17.5776 32.2032H18.8257V32.2032H19.5626C23.2905 32.2032 26.3126 29.1811 26.3126 25.4532V23.1155ZM32.1667 7.37778C30.6306 7.12546 29.3939 5.98433 29.002 4.5L32.1667 4.5V7.37778ZM7.81575 4.5L4.5 4.5L4.5 7.3996C6.10564 7.19947 7.41113 6.03271 7.81575 4.5ZM29.0502 21.6155C29.3537 20.0424 30.5934 18.8027 32.1667 18.4993V21.6155H29.0502ZM4.5 18.4584L4.5 21.6155H7.8745C7.55458 19.9573 6.19443 18.6696 4.5 18.4584Z" fill="black"/>
</g>
</svg>
