<svg width="48" height="48" viewBox="0 0 48 48" fill="none" xmlns="http://www.w3.org/2000/svg">
<path fill-rule="evenodd" clip-rule="evenodd" d="M6.75 5C5.23122 5 4 6.23122 4 7.75V28.3955V30.5129C4 32.0317 5.23122 33.2629 6.75 33.2629H12.2347V37.7547C12.2347 38.753 13.3474 39.3485 14.1781 38.7947L22.4759 33.2629H35.6889C37.2077 33.2629 38.4389 32.0317 38.4389 30.5129V7.75C38.4389 6.23122 37.2077 5 35.6889 5H6.75ZM5.5 7.75C5.5 7.05964 6.05964 6.5 6.75 6.5H35.6889C36.3793 6.5 36.9389 7.05964 36.9389 7.75V30.5129C36.9389 31.2032 36.3793 31.7629 35.6889 31.7629H22.2488C22.1007 31.7629 21.956 31.8067 21.8328 31.8888L13.7347 37.2875V32.5129C13.7347 32.0987 13.3989 31.7629 12.9847 31.7629H6.75C6.05964 31.7629 5.5 31.2032 5.5 30.5129V28.3955V7.75ZM27.7945 37.8917H20.3633V36.3917H28.0216H28.2487L28.4376 36.5177L35.3333 41.1148V37.1417V36.3917H36.0833H41.2492C41.9395 36.3917 42.4992 35.8321 42.4992 35.1417V33.5588V15.8525C42.4992 15.1622 41.9395 14.6025 41.2492 14.6025H39.9996V13.1025H41.2492C42.768 13.1025 43.9992 14.3338 43.9992 15.8525V33.5588V35.1417C43.9992 36.6605 42.768 37.8917 41.2492 37.8917H36.8333V41.5819C36.8333 42.5803 35.7206 43.1758 34.8899 42.622L27.7945 37.8917ZM12.25 14C12.25 13.5858 12.5858 13.25 13 13.25H30C30.4142 13.25 30.75 13.5858 30.75 14C30.75 14.4142 30.4142 14.75 30 14.75H13C12.5858 14.75 12.25 14.4142 12.25 14ZM13 20.25C12.5858 20.25 12.25 20.5858 12.25 21C12.25 21.4142 12.5858 21.75 13 21.75H21.5C21.9142 21.75 22.25 21.4142 22.25 21C22.25 20.5858 21.9142 20.25 21.5 20.25H13Z" fill="black"/>
</svg>
