<svg width="30" height="28" viewBox="0 0 30 28" fill="none" xmlns="http://www.w3.org/2000/svg">
<path d="M14.5245 0.701804C14.6741 0.241149 15.3259 0.241151 15.4755 0.701807L18.48 9.94852C18.5469 10.1545 18.7389 10.294 18.9555 10.294H28.6781C29.1624 10.294 29.3638 10.9138 28.972 11.1985L21.1062 16.9133C20.931 17.0406 20.8577 17.2663 20.9246 17.4723L23.929 26.719C24.0787 27.1797 23.5515 27.5627 23.1596 27.278L15.2939 21.5633C15.1186 21.4359 14.8814 21.4359 14.7061 21.5633L6.84038 27.278C6.44853 27.5627 5.92129 27.1797 6.07096 26.719L9.0754 17.4723C9.14234 17.2663 9.06901 17.0406 8.89377 16.9133L1.02804 11.1985C0.636187 10.9138 0.837576 10.294 1.32194 10.294H11.0445C11.2611 10.294 11.4531 10.1545 11.52 9.94852L14.5245 0.701804Z" fill="#EA1917"/>
</svg>
