<svg width="60" height="60" viewBox="0 0 60 60" fill="none" xmlns="http://www.w3.org/2000/svg">
<mask id="path-1-inside-1_7665_267703" fill="white">
<path fill-rule="evenodd" clip-rule="evenodd" d="M4.5 10.5H36.3033C36.5794 10.5 36.8033 10.7239 36.8033 11V31.7712H4V11C4 10.7239 4.22386 10.5 4.5 10.5ZM4 33.2712V41.6951C4 41.9713 4.22386 42.1951 4.5 42.1951H7.57375C8.4968 39.7067 10.8928 37.9333 13.7031 37.9333C16.5134 37.9333 18.9094 39.7067 19.8325 42.1951H36.8033V33.2712H4ZM7.21304 43.6951C7.18328 43.9481 7.16797 44.2055 7.16797 44.4665C7.16797 48.0747 10.0939 50.9998 13.7031 50.9998C17.3124 50.9998 20.2383 48.0747 20.2383 44.4665C20.2383 44.2055 20.2229 43.9481 20.1932 43.6951H36.8033H36.9277H36.9338H38.3033H40.822C40.7922 43.9482 40.7769 44.2057 40.7769 44.4668C40.7769 48.075 43.7028 51 47.3121 51C50.9213 51 53.8472 48.075 53.8472 44.4668C53.8472 44.2057 53.8319 43.9482 53.8021 43.6951H57.0003C57.8287 43.6951 58.5003 43.0236 58.5003 42.1951V33.826C58.5003 32.2895 57.6201 30.8887 56.2357 30.2221L54.4076 29.3418L53.9715 28.4997L49.3338 19.5449C48.3028 17.5542 46.2479 16.3043 44.0059 16.3043H38.4265H38.3033V11C38.3033 9.89543 37.4078 9 36.3033 9H4.5C3.39543 9 2.5 9.89543 2.5 11V41.6951C2.5 42.7997 3.39543 43.6951 4.5 43.6951H7.21304ZM53.4413 42.1951H57.0003V33.826C57.0003 32.8657 56.4502 31.9902 55.5849 31.5736L52.6901 30.1796C52.6224 30.1471 52.5483 30.1301 52.4732 30.1301H38.4266L38.4276 42.1951H41.1828C42.1059 39.7068 44.5018 37.9335 47.3121 37.9335C50.1223 37.9335 52.5182 39.7068 53.4413 42.1951ZM38.4265 17.8043H44.0059C45.6874 17.8043 47.2286 18.7417 48.0018 20.2348L52.2822 28.4997H38.4265V17.8043Z"/>
</mask>
<path fill-rule="evenodd" clip-rule="evenodd" d="M4.5 10.5H36.3033C36.5794 10.5 36.8033 10.7239 36.8033 11V31.7712H4V11C4 10.7239 4.22386 10.5 4.5 10.5ZM4 33.2712V41.6951C4 41.9713 4.22386 42.1951 4.5 42.1951H7.57375C8.4968 39.7067 10.8928 37.9333 13.7031 37.9333C16.5134 37.9333 18.9094 39.7067 19.8325 42.1951H36.8033V33.2712H4ZM7.21304 43.6951C7.18328 43.9481 7.16797 44.2055 7.16797 44.4665C7.16797 48.0747 10.0939 50.9998 13.7031 50.9998C17.3124 50.9998 20.2383 48.0747 20.2383 44.4665C20.2383 44.2055 20.2229 43.9481 20.1932 43.6951H36.8033H36.9277H36.9338H38.3033H40.822C40.7922 43.9482 40.7769 44.2057 40.7769 44.4668C40.7769 48.075 43.7028 51 47.3121 51C50.9213 51 53.8472 48.075 53.8472 44.4668C53.8472 44.2057 53.8319 43.9482 53.8021 43.6951H57.0003C57.8287 43.6951 58.5003 43.0236 58.5003 42.1951V33.826C58.5003 32.2895 57.6201 30.8887 56.2357 30.2221L54.4076 29.3418L53.9715 28.4997L49.3338 19.5449C48.3028 17.5542 46.2479 16.3043 44.0059 16.3043H38.4265H38.3033V11C38.3033 9.89543 37.4078 9 36.3033 9H4.5C3.39543 9 2.5 9.89543 2.5 11V41.6951C2.5 42.7997 3.39543 43.6951 4.5 43.6951H7.21304ZM53.4413 42.1951H57.0003V33.826C57.0003 32.8657 56.4502 31.9902 55.5849 31.5736L52.6901 30.1796C52.6224 30.1471 52.5483 30.1301 52.4732 30.1301H38.4266L38.4276 42.1951H41.1828C42.1059 39.7068 44.5018 37.9335 47.3121 37.9335C50.1223 37.9335 52.5182 39.7068 53.4413 42.1951ZM38.4265 17.8043H44.0059C45.6874 17.8043 47.2286 18.7417 48.0018 20.2348L52.2822 28.4997H38.4265V17.8043Z" fill="white"/>
<path d="M36.8033 31.7712V33.2712H38.3033V31.7712H36.8033ZM4 31.7712H2.5V33.2712H4V31.7712ZM4 33.2712V31.7712H2.5V33.2712H4ZM7.57375 42.1951V43.6951H8.61722L8.98012 42.7168L7.57375 42.1951ZM19.8325 42.1951L18.4261 42.7168L18.789 43.6951H19.8325V42.1951ZM36.8033 42.1951V43.6951H38.3033V42.1951H36.8033ZM36.8033 33.2712H38.3033V31.7712H36.8033V33.2712ZM7.21304 43.6951L8.70277 43.8704L8.89988 42.1951H7.21304V43.6951ZM20.1932 43.6951V42.1951H18.5063L18.7035 43.8704L20.1932 43.6951ZM40.822 43.6951L42.3117 43.8705L42.5089 42.1951H40.822V43.6951ZM53.8021 43.6951V42.1951H52.1152L52.3124 43.8705L53.8021 43.6951ZM56.2357 30.2221L55.5849 31.5736L56.2357 30.2221ZM54.4076 29.3418L53.0756 30.0317L53.3058 30.4761L53.7568 30.6933L54.4076 29.3418ZM53.9715 28.4997L52.6395 29.1895L52.6395 29.1895L53.9715 28.4997ZM49.3338 19.5449L48.0018 20.2348V20.2348L49.3338 19.5449ZM38.3033 16.3043H36.8033V17.8043H38.3033V16.3043ZM53.4413 42.1951L52.035 42.7169L52.3979 43.6951H53.4413V42.1951ZM57.0003 42.1951V43.6951H58.5003V42.1951H57.0003ZM55.5849 31.5736L54.9341 32.9251L55.5849 31.5736ZM52.6901 30.1796L52.0393 31.5311L52.0393 31.5311L52.6901 30.1796ZM38.4266 30.1301V28.6301H36.9265L36.9266 30.1303L38.4266 30.1301ZM38.4276 42.1951L36.9276 42.1952L36.9277 43.6951H38.4276V42.1951ZM41.1828 42.1951V43.6951H42.2262L42.5891 42.7169L41.1828 42.1951ZM38.4265 17.8043V16.3043H36.9265V17.8043H38.4265ZM48.0018 20.2348L49.3338 19.5449L48.0018 20.2348ZM52.2822 28.4997V29.9997H54.7483L53.6142 27.8099L52.2822 28.4997ZM38.4265 28.4997H36.9265V29.9997H38.4265V28.4997ZM36.3033 9H4.5V12H36.3033V9ZM38.3033 11C38.3033 9.89543 37.4078 9 36.3033 9V12C35.751 12 35.3033 11.5523 35.3033 11H38.3033ZM38.3033 31.7712V11H35.3033V31.7712H38.3033ZM4 33.2712H36.8033V30.2712H4V33.2712ZM2.5 11V31.7712H5.5V11H2.5ZM4.5 9C3.39543 9 2.5 9.89543 2.5 11H5.5C5.5 11.5523 5.05228 12 4.5 12V9ZM5.5 41.6951V33.2712H2.5V41.6951H5.5ZM4.5 40.6951C5.05228 40.6951 5.5 41.1428 5.5 41.6951H2.5C2.5 42.7997 3.39543 43.6951 4.5 43.6951V40.6951ZM7.57375 40.6951H4.5V43.6951H7.57375V40.6951ZM13.7031 36.4333C10.2457 36.4333 7.30156 38.6158 6.16738 41.6735L8.98012 42.7168C9.69203 40.7975 11.5399 39.4333 13.7031 39.4333V36.4333ZM21.2388 41.6735C20.1047 38.6158 17.1606 36.4333 13.7031 36.4333V39.4333C15.8663 39.4333 17.7142 40.7975 18.4261 42.7168L21.2388 41.6735ZM36.8033 40.6951H19.8325V43.6951H36.8033V40.6951ZM35.3033 33.2712V42.1951H38.3033V33.2712H35.3033ZM4 34.7712H36.8033V31.7712H4V34.7712ZM5.72332 43.5198C5.68672 43.8309 5.66797 44.1468 5.66797 44.4665H8.66797C8.66797 44.2642 8.67983 44.0653 8.70277 43.8704L5.72332 43.5198ZM5.66797 44.4665C5.66797 48.9036 9.26584 52.4998 13.7031 52.4998V49.4998C10.9219 49.4998 8.66797 47.2459 8.66797 44.4665H5.66797ZM13.7031 52.4998C18.1404 52.4998 21.7383 48.9036 21.7383 44.4665H18.7383C18.7383 47.2459 16.4844 49.4998 13.7031 49.4998V52.4998ZM21.7383 44.4665C21.7383 44.1468 21.7195 43.8309 21.6829 43.5199L18.7035 43.8704C18.7264 44.0654 18.7383 44.2642 18.7383 44.4665H21.7383ZM20.1932 45.1951H36.8033V42.1951H20.1932V45.1951ZM36.8033 45.1951H36.9277V42.1951H36.8033V45.1951ZM36.9277 45.1951H36.9338V42.1951H36.9277V45.1951ZM36.9338 45.1951H38.3033V42.1951H36.9338V45.1951ZM38.3033 45.1951H40.822V42.1951H38.3033V45.1951ZM39.3323 43.5198C39.2957 43.8309 39.2769 44.147 39.2769 44.4668H42.2769C42.2769 44.2644 42.2888 44.0655 42.3117 43.8705L39.3323 43.5198ZM39.2769 44.4668C39.2769 48.9038 42.8748 52.5 47.3121 52.5V49.5C44.5308 49.5 42.2769 47.2461 42.2769 44.4668H39.2769ZM47.3121 52.5C51.7493 52.5 55.3472 48.9038 55.3472 44.4668H52.3472C52.3472 47.2461 50.0933 49.5 47.3121 49.5V52.5ZM55.3472 44.4668C55.3472 44.147 55.3284 43.8309 55.2918 43.5198L52.3124 43.8705C52.3353 44.0655 52.3472 44.2644 52.3472 44.4668H55.3472ZM53.8021 45.1951H57.0003V42.1951H53.8021V45.1951ZM57.0003 45.1951C58.6571 45.1951 60.0003 43.852 60.0003 42.1951H57.0003V42.1951V45.1951ZM60.0003 42.1951V33.826H57.0003V42.1951H60.0003ZM60.0003 33.826C60.0003 31.7133 58.79 29.7873 56.8864 28.8706L55.5849 31.5736C56.4502 31.9902 57.0003 32.8657 57.0003 33.826H60.0003ZM56.8864 28.8706L55.0584 27.9904L53.7568 30.6933L55.5849 31.5736L56.8864 28.8706ZM55.7396 28.652L55.3034 27.8099L52.6395 29.1895L53.0756 30.0317L55.7396 28.652ZM55.3034 27.8099L50.6658 18.8551L48.0018 20.2348L52.6395 29.1895L55.3034 27.8099ZM50.6658 18.8551C49.377 16.3666 46.8084 14.8043 44.0059 14.8043V17.8043C45.6874 17.8043 47.2286 18.7417 48.0018 20.2348L50.6658 18.8551ZM44.0059 14.8043H38.4265V17.8043H44.0059V14.8043ZM38.4265 14.8043H38.3033V17.8043H38.4265V14.8043ZM39.8033 16.3043V11H36.8033V16.3043H39.8033ZM39.8033 11C39.8033 9.067 38.2362 7.5 36.3033 7.5V10.5C36.5794 10.5 36.8033 10.7239 36.8033 11H39.8033ZM36.3033 7.5H4.5V10.5H36.3033V7.5ZM4.5 7.5C2.567 7.5 1 9.067 1 11H4C4 10.7239 4.22386 10.5 4.5 10.5V7.5ZM1 11V41.6951H4V11H1ZM1 41.6951C1 43.6281 2.56701 45.1951 4.5 45.1951V42.1951C4.22386 42.1951 4 41.9713 4 41.6951H1ZM4.5 45.1951H7.21304V42.1951H4.5V45.1951ZM53.4413 43.6951H57.0003V40.6951H53.4413V43.6951ZM58.5003 42.1951V33.826H55.5003V42.1951H58.5003ZM58.5003 33.826C58.5003 32.2895 57.6201 30.8887 56.2357 30.2221L54.9341 32.9251C55.2802 33.0917 55.5003 33.4419 55.5003 33.826H58.5003ZM56.2357 30.2221L53.3409 28.8282L52.0393 31.5311L54.9341 32.9251L56.2357 30.2221ZM53.3409 28.8282C53.0702 28.6978 52.7736 28.6301 52.4732 28.6301V31.6301C52.323 31.6301 52.1747 31.5963 52.0393 31.5311L53.3409 28.8282ZM52.4732 28.6301H38.4266V31.6301H52.4732V28.6301ZM36.9266 30.1303L36.9276 42.1952L39.9276 42.195L39.9266 30.13L36.9266 30.1303ZM38.4276 43.6951H41.1828V40.6951H38.4276V43.6951ZM47.3121 36.4335C43.8547 36.4335 40.9107 38.6159 39.7764 41.6734L42.5891 42.7169C43.3011 40.7977 45.1489 39.4335 47.3121 39.4335V36.4335ZM54.8477 41.6734C53.7134 38.6159 50.7694 36.4335 47.3121 36.4335V39.4335C49.4752 39.4335 51.323 40.7977 52.035 42.7169L54.8477 41.6734ZM44.0059 16.3043H38.4265V19.3043H44.0059V16.3043ZM49.3338 19.5449C48.3028 17.5542 46.2479 16.3043 44.0059 16.3043V19.3043C45.1269 19.3043 46.1544 19.9292 46.6699 20.9246L49.3338 19.5449ZM53.6142 27.8099L49.3338 19.5449L46.6699 20.9246L50.9503 29.1895L53.6142 27.8099ZM38.4265 29.9997H52.2822V26.9997H38.4265V29.9997ZM36.9265 17.8043V28.4997H39.9265V17.8043H36.9265Z" fill="black" mask="url(#path-1-inside-1_7665_267703)"/>
</svg>
