<svg width="40" height="40" viewBox="0 0 40 40" fill="none" xmlns="http://www.w3.org/2000/svg">
<g clip-path="url(#clip0_1396_110595)">
<path d="M20 39.998C31.0457 39.998 40 31.0437 40 19.998C40 8.95235 31.0457 -0.00195312 20 -0.00195312C8.9543 -0.00195312 0 8.95235 0 19.998C0 31.0437 8.9543 39.998 20 39.998Z" fill="#1977F3"/>
<path d="M27.7862 25.7806L28.6721 19.998H23.1258V16.2461C23.1258 14.6655 23.8993 13.1214 26.3855 13.1214H28.9084V8.19953C28.9084 8.19953 26.619 7.80859 24.4308 7.80859C19.8633 7.80859 16.8763 10.5761 16.8763 15.5908V19.998H11.7969V25.7806H16.8763V39.756C17.8945 39.9163 18.9379 39.9979 20.0011 39.9979C21.0642 39.9979 22.1077 39.9135 23.1258 39.756V25.7806H27.7862Z" fill="white"/>
</g>
<defs>
<clipPath id="clip0_1396_110595">
<rect width="40" height="40" fill="white"/>
</clipPath>
</defs>
</svg>
