<svg width="64" height="64" viewBox="0 0 64 64" fill="none" xmlns="http://www.w3.org/2000/svg">
<path fill-rule="evenodd" clip-rule="evenodd" d="M19.3177 9V8.01562H17.349V9V12.0156H5H4.01562V13V55V55.9844H5V55C5 55.9844 5.00007 55.9844 5.0002 55.9844H5.0008H5.00179H5.00318H5.00496H5.00714H5.00971H5.01267H5.01603H5.01977H5.0239H5.02842H5.03333H5.03863H5.04431H5.05037H5.05682H5.06365H5.07087H5.07846H5.08643H5.09479H5.10352H5.11263H5.12211H5.13197H5.14221H5.15281H5.1638H5.17515H5.18687H5.19896H5.21143H5.22425H5.23745H5.25101H5.26494H5.27923H5.29389H5.30891H5.32429H5.34003H5.35613H5.37258H5.3894H5.40657H5.4241H5.44198H5.46022H5.47881H5.49776H5.51705H5.53669H5.55669H5.57703H5.59772H5.61876H5.64014H5.66187H5.68394H5.70635H5.72911H5.75221H5.77564H5.79942H5.82354H5.84799H5.87278H5.8979H5.92336H5.94915H5.97528H6.00174H6.02853H6.05565H6.08309H6.11087H6.13897H6.1674H6.19616H6.22523H6.25464H6.28436H6.31441H6.34478H6.37547H6.40647H6.4378H6.46944H6.5014H6.53367H6.56626H6.59916H6.63237H6.66589H6.69973H6.73387H6.76833H6.80309H6.83816H6.87353H6.90921H6.94519H6.98148H7.01807H7.05496H7.09215H7.12964H7.16743H7.20551H7.24389H7.28257H7.32155H7.36081H7.40037H7.44023H7.48037H7.5208H7.56153H7.60254H7.64384H7.68542H7.72729H7.76945H7.81189H7.85461H7.89761H7.9409H7.98447H8.02831H8.07243H8.11683H8.16151H8.20646H8.25169H8.29719H8.34296H8.389H8.43532H8.4819H8.52876H8.57588H8.62327H8.67092H8.71884H8.76703H8.81547H8.86418H8.91316H8.96239H9.01188H9.06163H9.11164H9.16191H9.21243H9.26321H9.31424H9.36552H9.41706H9.46885H9.52088H9.57317H9.62571H9.67849H9.73152H9.7848H9.83832H9.89209H9.9461H10.0003H10.0548H10.1096H10.1645H10.2198H10.2752H10.3309H10.3868H10.443H10.4993H10.556H10.6128H10.6699H10.7272H10.7848H10.8425H10.9005H10.9588H11.0172H11.0759H11.1348H11.1939H11.2533H11.3128H11.3726H11.4326H11.4928H11.5533H11.6139H11.6748H11.7359H11.7972H11.8587H11.9204H11.9823H12.0445H12.1068H12.1694H12.2322H12.2951H12.3583H12.4217H12.4853H12.5491H12.613H12.6772H12.7416H12.8062H12.871H12.936H13.0011H13.0665H13.1321H13.1978H13.2638H13.3299H13.3963H13.4628H13.5295H13.5964H13.6635H13.7308H13.7982H13.8659H13.9337H14.0017H14.0699H14.1382H14.2068H14.2755H14.3444H14.4135H14.4827H14.5522H14.6218H14.6915H14.7615H14.8316H14.9019H14.9723H15.043H15.1138H15.1847H15.2558H15.3271H15.3986H15.4702H15.542H15.6139H15.686H15.7582H15.8306H15.9032H15.9759H16.0488H16.1219H16.195H16.2684H16.3419H16.4155H16.4893H16.5632H16.6373H16.7116H16.7859H16.8605H16.9351H17.01H17.0849H17.16H17.2352H17.3106H17.3861H17.4618H17.5376H17.6135H17.6896H17.7657H17.8421H17.9185H17.9951H18.0718H18.1487H18.2257H18.3028H18.38H18.4574H18.5348H18.6124H18.6902H18.768H18.846H18.9241H19.0023H19.0806H19.1591H19.2376H19.3163H19.3951H19.474H19.553H19.6321H19.7114H19.7907H19.8702H19.9497H20.0294H20.1092H20.1891H20.2691H20.3492H20.4294H20.5097H20.5901H20.6706H20.7511H20.8318H20.9126H20.9935H21.0745H21.1556H21.2367H21.318H21.3993H21.4808H21.5623H21.6439H21.7256H21.8074H21.8893H21.9713H22.0533H22.1355H22.2177H22.3H22.3824H22.4648H22.5473H22.6299H22.7126H22.7954H22.8782H22.9611H23.0441H23.1272H23.2103H23.2935H23.3768H23.4601H23.5435H23.627H23.7105H23.7941H23.8778H23.9615H24.0453H24.1291H24.213H24.297H24.381H24.4651H24.5492H24.6334H24.7177H24.802H24.8863H24.9707H25.0552H25.1397H25.2242H25.3088H25.3935H25.4782H25.5629H25.6477H25.7325H25.8174H25.9023H25.9873H26.0722H26.1573H26.2423H26.3274H26.4126H26.4977H26.583H26.6682H26.7535H26.8388H26.9241H27.0095H27.0949H27.1803H27.2657H27.3512H27.4367H27.5222H27.6078H27.6933H27.7789H27.8645H27.9501H28.0358H28.1214H28.2071H28.2928H28.3785H28.4642H28.55H28.6357H28.7215H28.8072H28.893H28.9788H29.0646H29.1504H29.2362H29.322H29.4078H29.4936H29.5794H29.6652H29.751H29.8368H29.9227H30.0085H30.0943H30.1801H30.2659H30.3516H30.4374H30.5232H30.609H30.6947H30.7804H30.8662H30.9519H31.0376H31.1233H31.2089H31.2946H31.3802H31.4658H31.5514H31.637H31.7225H31.8081H31.8936H31.9791H32.0645H32.15H32.2354H32.3207H32.4061H32.4914H32.5767H32.6619H32.7472H32.8323H32.9175H33.0026H33.0877H33.1727H33.2577H33.3427H33.4276H33.5125H33.5974H33.6822H33.7669H33.8516H33.9363H34.0209H34.1055H34.19H34.2745H34.3589H34.4433H34.5276H34.6119H34.6961H34.7803H34.8644H34.9484H35.0324H35.1163H35.2002H35.284H35.3678H35.4515H35.5351H35.6187H35.7022H35.7856H35.8689H35.9522H36.0355H36.1186H36.2017H36.2847H36.3677H36.4505H36.5333H59H59.9844V55V13V12.0156H59H45.3177V9V8.01562H43.349V9V12.0156H19.3177V9ZM43.349 17.6667V13.9844H19.3177V17.6667V18.651H17.349V17.6667V13.9844H5.98438V23.1562H58.0156V13.9844H45.3177V17.6667V18.651H43.349V17.6667ZM5.98438 54.0156H6.00174H6.02853H6.05565H6.08309H6.11087H6.13897H6.1674H6.19616H6.22523H6.25464H6.28436H6.31441H6.34478H6.37547H6.40647H6.4378H6.46944H6.5014H6.53367H6.56626H6.59916H6.63237H6.66589H6.69973H6.73387H6.76833H6.80309H6.83816H6.87353H6.90921H6.94519H6.98148H7.01807H7.05496H7.09215H7.12964H7.16743H7.20551H7.24389H7.28257H7.32155H7.36081H7.40037H7.44023H7.48037H7.5208H7.56153H7.60254H7.64384H7.68542H7.72729H7.76945H7.81189H7.85461H7.89761H7.9409H7.98447H8.02831H8.07243H8.11683H8.16151H8.20646H8.25169H8.29719H8.34296H8.389H8.43532H8.4819H8.52876H8.57588H8.62327H8.67092H8.71884H8.76703H8.81547H8.86418H8.91316H8.96239H9.01188H9.06163H9.11164H9.16191H9.21243H9.26321H9.31424H9.36552H9.41706H9.46885H9.52088H9.57317H9.62571H9.67849H9.73152H9.7848H9.83832H9.89209H9.9461H10.0003H10.0548H10.1096H10.1645H10.2198H10.2752H10.3309H10.3868H10.443H10.4993H10.556H10.6128H10.6699H10.7272H10.7848H10.8425H10.9005H10.9588H11.0172H11.0759H11.1348H11.1939H11.2533H11.3128H11.3726H11.4326H11.4928H11.5533H11.6139H11.6748H11.7359H11.7972H11.8587H11.9204H11.9823H12.0445H12.1068H12.1694H12.2322H12.2951H12.3583H12.4217H12.4853H12.5491H12.613H12.6772H12.7416H12.8062H12.871H12.936H13.0011H13.0665H13.1321H13.1978H13.2638H13.3299H13.3963H13.4628H13.5295H13.5964H13.6635H13.7308H13.7982H13.8659H13.9337H14.0017H14.0699H14.1382H14.2068H14.2755H14.3444H14.4135H14.4827H14.5522H14.6218H14.6915H14.7615H14.8316H14.9019H14.9723H15.043H15.1138H15.1847H15.2558H15.3271H15.3986H15.4702H15.542H15.6139H15.686H15.7582H15.8306H15.9032H15.9759H16.0488H16.1219H16.195H16.2684H16.3419H16.4155H16.4893H16.5632H16.6373H16.7116H16.7859H16.8605H16.9351H17.01H17.0849H17.16H17.2352H17.3106H17.3861H17.4618H17.5376H17.6135H17.6896H17.7657H17.8421H17.9185H17.9951H18.0718H18.1487H18.2257H18.3028H18.38H18.4574H18.5348H18.6124H18.6902H18.768H18.846H18.9241H19.0023H19.0806H19.1591H19.2376H19.3163H19.3951H19.474H19.553H19.6321H19.7114H19.7907H19.8702H19.9497H20.0294H20.1092H20.1891H20.2691H20.3492H20.4294H20.5097H20.5901H20.6706H20.7511H20.8318H20.9126H20.9935H21.0745H21.1556H21.2367H21.318H21.3993H21.4808H21.5623H21.6439H21.7256H21.8074H21.8893H21.9713H22.0533H22.1355H22.2177H22.3H22.3824H22.4648H22.5473H22.6299H22.7126H22.7954H22.8782H22.9611H23.0441H23.1272H23.2103H23.2935H23.3768H23.4601H23.5435H23.627H23.7105H23.7941H23.8778H23.9615H24.0453H24.1291H24.213H24.297H24.381H24.4651H24.5492H24.6334H24.7177H24.802H24.8863H24.9707H25.0552H25.1397H25.2242H25.3088H25.3935H25.4782H25.5629H25.6477H25.7325H25.8174H25.9023H25.9873H26.0722H26.1573H26.2423H26.3274H26.4126H26.4977H26.583H26.6682H26.7535H26.8388H26.9241H27.0095H27.0949H27.1803H27.2657H27.3512H27.4367H27.5222H27.6078H27.6933H27.7789H27.8645H27.9501H28.0358H28.1214H28.2071H28.2928H28.3785H28.4642H28.55H28.6357H28.7215H28.8072H28.893H28.9788H29.0646H29.1504H29.2362H29.322H29.4078H29.4936H29.5794H29.6652H29.751H29.8368H29.9227H30.0085H30.0943H30.1801H30.2659H30.3516H30.4374H30.5232H30.609H30.6947H30.7804H30.8662H30.9519H31.0376H31.1233H31.2089H31.2946H31.3802H31.4658H31.5514H31.637H31.7225H31.8081H31.8936H31.9791H32.0645H32.15H32.2354H32.3207H32.4061H32.4914H32.5767H32.6619H32.7472H32.8323H32.9175H33.0026H33.0877H33.1727H33.2577H33.3427H33.4276H33.5125H33.5974H33.6822H33.7669H33.8516H33.9363H34.0209H34.1055H34.19H34.2745H34.3589H34.4433H34.5276H34.6119H34.6961H34.7803H34.8644H34.9484H35.0324H35.1163H35.2002H35.284H35.3678H35.4515H35.5351H35.6187H35.7022H35.7856H35.8689H35.9522H36.0355H36.1186H36.2017H36.2847H36.3677H36.4505H36.5333H58.0156V25.125H5.98438V54.0156ZM22.95 45.3714C23.4068 45.4729 23.8635 45.5236 24.3203 45.5236C25.1069 45.5236 25.8047 45.4285 26.4137 45.2382C27.0227 45.0479 27.5302 44.7814 27.9362 44.4389C28.3549 44.0963 28.6721 43.684 28.8878 43.2018C29.1035 42.7197 29.2113 42.1868 29.2113 41.6032C29.2113 41.1591 29.1415 40.7658 29.002 40.4233C28.8751 40.0807 28.6975 39.7826 28.4691 39.5288C28.2534 39.2751 28.006 39.0657 27.7269 38.9008C27.4478 38.7358 27.1559 38.609 26.8514 38.5201C27.0925 38.4313 27.3336 38.3108 27.5746 38.1586C27.8157 37.9936 28.0314 37.797 28.2217 37.5686C28.412 37.3402 28.5643 37.0801 28.6784 36.7883C28.7926 36.4965 28.8497 36.1666 28.8497 35.7987C28.8497 35.3039 28.7419 34.8471 28.5262 34.4284C28.3232 34.0097 28.025 33.6481 27.6317 33.3436C27.2511 33.0391 26.7817 32.7981 26.2234 32.6205C25.6652 32.4428 25.0435 32.354 24.3584 32.354C23.965 32.354 23.5717 32.3921 23.1784 32.4682C22.7978 32.5443 22.4299 32.6585 22.0746 32.8108C21.732 32.9503 21.4085 33.1343 21.104 33.3627C20.7995 33.5784 20.5331 33.8321 20.3047 34.1239L21.5227 35.2848C21.9287 34.8281 22.3664 34.4982 22.8359 34.2952C23.3053 34.0922 23.8064 33.9907 24.3393 33.9907C25.0879 33.9907 25.6905 34.181 26.1473 34.5616C26.604 34.9296 26.8324 35.3863 26.8324 35.9319C26.8324 36.579 26.5914 37.0674 26.1092 37.3973C25.6398 37.7145 25.0181 37.8731 24.2442 37.8731H22.7788V39.4717H24.2442C25.183 39.4717 25.9126 39.6366 26.4328 39.9665C26.9529 40.2964 27.213 40.8356 27.213 41.5842C27.213 42.2439 26.9466 42.7958 26.4137 43.2399C25.8809 43.6713 25.145 43.887 24.2061 43.887C23.521 43.887 22.9056 43.7411 22.3601 43.4492C21.8272 43.1574 21.3768 42.7958 21.0089 42.3645L19.7528 43.4873C19.9812 43.7918 20.2603 44.0709 20.5902 44.3247C20.92 44.5657 21.2816 44.7751 21.6749 44.9527C22.0809 45.1303 22.506 45.2699 22.95 45.3714ZM34.8098 38.8246L37.4171 45.3333H39.3202L41.9275 38.8246L42.841 36.4267H42.9171L42.86 38.8246V45.3333H44.8963V32.5443H42.5555L39.0728 41.4129L38.4067 43.2018H38.3306L37.6645 41.4129L34.1818 32.5443H31.8409V45.3333H33.8773V38.8246L33.8202 36.4267H33.8963L34.8098 38.8246Z" fill="black"/>
</svg>
