<svg width="73" height="32" viewBox="0 0 73 32" fill="none" xmlns="http://www.w3.org/2000/svg">
<path d="M44.1504 5.56888H39.3473V26.2539H54.0994V22.2259H44.1504V5.56888Z" fill="#6B6B6B"/>
<path d="M64.6644 18.3699H68.5739V21.9866C67.8539 22.2609 66.4489 22.5341 65.1109 22.5341C60.7874 22.5341 59.3466 20.3476 59.3466 15.9111C59.3466 11.6785 60.7184 9.18617 65.0408 9.18617C67.4436 9.18617 68.8144 9.93723 69.9461 11.3714L72.9324 8.64032C71.1127 6.04727 67.9222 5.26152 64.9377 5.26152C58.2147 5.26152 54.6807 8.91338 54.6807 15.8766C54.6807 22.8071 57.8711 26.5615 64.9037 26.5615C68.1284 26.5615 71.2851 25.742 72.9997 24.5481V14.5122H64.6644V18.3699Z" fill="#6B6B6B"/>
<path d="M0 15.9991C0 24.8369 7.20099 31.998 16.0699 31.998C24.9192 31.998 32.0915 24.9049 32.1607 16.1234V15.8731C32.0915 7.09343 24.9192 -0.000459671 16.0699 -0.000459671C7.20099 -0.000459671 0 7.16116 0 15.9991Z" fill="url(#paint0_radial_1112_6340)"/>
<path d="M5.19219 5.16995C-0.18083 10.5174 -0.724629 18.6651 3.99357 23.361C8.71138 28.0536 16.8935 27.5165 22.268 22.1659C27.6511 16.8073 28.1932 8.66166 23.4782 3.96662C21.3245 1.8229 18.4482 0.768955 15.4409 0.768955C11.8689 0.768955 8.11522 2.25994 5.19219 5.16995Z" fill="url(#paint1_linear_1112_6340)"/>
<path d="M15.5731 22.8573L15.2458 23.168H20.0686L19.7544 22.8482L15.5731 22.8573Z" fill="#626D77"/>
<path d="M19.7544 21.8926L20.0685 21.5891H16.9119L16.5381 21.8926H19.7544Z" fill="#8699A3"/>
<path d="M16.9123 8.8092H15.2461L15.5586 9.10645L16.5555 9.10478L16.9123 8.8092Z" fill="#8D9AA1"/>
<path d="M16.5555 9.10351L16.565 21.8682L16.9124 21.5882V8.80792L16.5555 9.10351Z" fill="url(#paint2_linear_1112_6340)"/>
<path d="M19.7547 21.8926V22.8482L20.0688 23.168V21.589L19.7547 21.8926Z" fill="url(#paint3_linear_1112_6340)"/>
<path d="M15.2457 8.80877V23.168L15.573 22.8573L15.5582 9.10602L15.2457 8.80877Z" fill="#B4BDC3"/>
<path d="M8.84271 10.8907C8.84271 12.0401 9.78327 12.9717 10.9423 12.9717C12.1025 12.9717 13.0401 12.0401 13.0401 10.8907C13.0401 9.73971 12.1025 8.80354 10.9423 8.80354C9.78327 8.80354 8.84271 9.73971 8.84271 10.8907ZM9.15314 10.8907C9.15314 9.91061 9.95566 9.11705 10.9423 9.11705C11.9255 9.11705 12.7282 9.91061 12.7282 10.8907C12.7282 11.8676 11.9255 12.6591 10.9423 12.6591C9.95566 12.6591 9.15314 11.8676 9.15314 10.8907Z" fill="url(#paint4_linear_1112_6340)"/>
<path d="M28.3938 16.4885L20.0591 16.4785L19.7497 16.8027H28.0738L28.2395 16.6312L28.3938 16.4885Z" fill="#505C61"/>
<path d="M20.0593 15.5439L29.3808 15.5287L29.6963 15.2129L19.7499 15.2153L20.0593 15.5439Z" fill="#8F9CA4"/>
<path d="M2.44879 15.9947C2.44879 19.6143 3.86715 23.0211 6.43845 25.5833C9.00744 28.1441 12.4269 29.5576 16.0633 29.5576C19.7113 29.5576 23.1394 28.1441 25.7074 25.5833C28.2821 23.0211 29.6961 19.6143 29.6961 15.9947V15.2119L29.3807 15.5277V15.9947C29.3807 19.5333 27.9992 22.8584 25.487 25.3625C22.9774 27.8662 19.6279 29.2454 16.0633 29.2454C12.5133 29.2454 9.17108 27.8662 6.66063 25.3625C4.14734 22.8563 2.76308 19.5303 2.76308 15.9947C2.76308 8.68646 8.73033 2.74456 16.0633 2.74456L16.5716 2.73816L16.8828 2.43797L16.0633 2.43042C8.55897 2.43042 2.44879 8.51467 2.44879 15.9947Z" fill="url(#paint5_linear_1112_6340)"/>
<path d="M15.8881 3.71571C12.6661 3.76218 9.64108 5.03566 7.34096 7.30868C5.01602 9.62701 3.73442 12.7116 3.73442 15.9953C3.73442 19.2776 5.01602 22.3593 7.34096 24.679C9.64198 26.9632 12.6794 28.2401 15.9109 28.2793H16.2289C22.6273 28.1984 27.9528 23.1959 28.3851 16.8277L28.3963 16.4886L28.2393 16.6314L28.0736 16.8028C27.6461 23.0652 22.3726 27.9677 16.0717 27.9677C12.8604 27.9677 9.841 26.7188 7.56507 24.4582C5.29686 22.1976 4.04987 19.1932 4.04987 15.9953C4.04987 12.795 5.29686 9.78626 7.56507 7.52861C9.84563 5.27492 12.8641 4.02819 16.0717 4.02819L16.8826 4.036L16.5704 3.72352L16.2191 3.71571H15.8881Z" fill="url(#paint6_linear_1112_6340)"/>
<path d="M20.059 15.5433L19.7496 15.2147V16.8027L20.059 16.4785V15.5433Z" fill="#B4BDC3"/>
<path d="M16.5713 2.73799V3.72447L16.8825 4.03516V2.4378L16.5713 2.73799Z" fill="url(#paint7_linear_1112_6340)"/>
<path d="M15.8911 2.59945C8.5634 2.68701 2.61043 8.66104 2.61043 15.9937C2.61043 19.5726 4.01116 22.9317 6.55081 25.4622C9.08764 27.9928 12.4733 29.3857 16.0549 29.3857C19.659 29.3857 23.0415 27.9928 25.5794 25.4622C28.1211 22.9317 29.5179 19.5726 29.5179 15.9937V15.3849L28.986 15.3869H19.9136V16.6298H28.2393C28.2384 16.6588 28.2384 16.7871 28.2356 16.8114C27.803 23.1232 22.5165 28.1358 16.0631 28.1358C12.8093 28.1358 9.74735 26.8718 7.43553 24.5765C5.13812 22.2867 3.86887 19.2385 3.86887 15.9937C3.86887 12.7461 5.13812 9.69552 7.43553 7.40753C9.74735 5.12145 12.8093 3.85693 16.0631 3.85693C16.2032 3.85693 16.5525 3.85693 16.7066 3.86051V2.60649C16.5796 2.60649 16.3689 2.60214 16.2032 2.59945H15.8911ZM15.4227 8.97813V22.9999H19.9029V21.7501H16.7066V8.97813H15.4227Z" fill="url(#paint8_radial_1112_6340)"/>
<path d="M9.00168 10.8912C9.00168 11.9492 9.87225 12.8037 10.934 12.8037C11.9947 12.8037 12.8632 11.9492 12.8632 10.8912C12.8632 9.82534 11.9947 8.97149 10.934 8.97149C9.87225 8.97149 9.00168 9.82534 9.00168 10.8912Z" fill="url(#paint9_radial_1112_6340)"/>
<defs>
<radialGradient id="paint0_radial_1112_6340" cx="0" cy="0" r="1" gradientUnits="userSpaceOnUse" gradientTransform="translate(15.4792 15.5141) scale(16.7652 16.6824)">
<stop stop-color="#BF0C3F"/>
<stop offset="0.5" stop-color="#BF0C3F"/>
<stop offset="0.883847" stop-color="#BF0C3F"/>
<stop offset="1" stop-color="#99002C"/>
</radialGradient>
<linearGradient id="paint1_linear_1112_6340" x1="9.49367" y1="2.06793" x2="17.903" y2="25.2871" gradientUnits="userSpaceOnUse">
<stop stop-color="#F38895"/>
<stop offset="0.547622" stop-color="#BF0C3F"/>
<stop offset="0.8011" stop-color="#BF0C3F"/>
<stop offset="1" stop-color="#BF0C3F"/>
</linearGradient>
<linearGradient id="paint2_linear_1112_6340" x1="16.5554" y1="15.338" x2="16.9124" y2="15.338" gradientUnits="userSpaceOnUse">
<stop stop-color="#B4BDC3"/>
<stop offset="0.844281" stop-color="#333940"/>
<stop offset="1" stop-color="#333940"/>
</linearGradient>
<linearGradient id="paint3_linear_1112_6340" x1="19.7547" y1="22.3785" x2="20.0688" y2="22.3785" gradientUnits="userSpaceOnUse">
<stop stop-color="#B3BBC1"/>
<stop offset="0.844281" stop-color="#2A3236"/>
<stop offset="1" stop-color="#2A3236"/>
</linearGradient>
<linearGradient id="paint4_linear_1112_6340" x1="9.4557" y1="9.40813" x2="12.4059" y2="12.3729" gradientUnits="userSpaceOnUse">
<stop stop-color="#ABBAC2"/>
<stop offset="1" stop-color="#262A30"/>
</linearGradient>
<linearGradient id="paint5_linear_1112_6340" x1="5.20111" y1="7.58374" x2="24.5337" y2="27.0122" gradientUnits="userSpaceOnUse">
<stop stop-color="#B4BDC3"/>
<stop offset="1" stop-color="#3E454D"/>
</linearGradient>
<linearGradient id="paint6_linear_1112_6340" x1="28.3982" y1="15.9896" x2="3.73414" y2="15.9896" gradientUnits="userSpaceOnUse">
<stop stop-color="#B4BDC3"/>
<stop offset="1" stop-color="#485159"/>
</linearGradient>
<linearGradient id="paint7_linear_1112_6340" x1="16.5713" y1="3.2364" x2="16.8825" y2="3.2364" gradientUnits="userSpaceOnUse">
<stop stop-color="#B3BBC1"/>
<stop offset="0.844281" stop-color="#2A3236"/>
<stop offset="1" stop-color="#2A3236"/>
</linearGradient>
<radialGradient id="paint8_radial_1112_6340" cx="0" cy="0" r="1" gradientUnits="userSpaceOnUse" gradientTransform="translate(10.6408 10.3222) scale(20.5786 20.4771)">
<stop stop-color="white"/>
<stop offset="0.350006" stop-color="white"/>
<stop offset="0.666526" stop-color="white"/>
<stop offset="1" stop-color="#C0CCD2"/>
</radialGradient>
<radialGradient id="paint9_radial_1112_6340" cx="0" cy="0" r="1" gradientUnits="userSpaceOnUse" gradientTransform="translate(10.1346 10.183) scale(3.00491 2.99008)">
<stop stop-color="white"/>
<stop offset="0.350006" stop-color="white"/>
<stop offset="0.665531" stop-color="white"/>
<stop offset="1" stop-color="#D0DADF"/>
</radialGradient>
</defs>
</svg>
