<svg width="25" height="25" viewBox="0 0 25 25" fill="none" xmlns="http://www.w3.org/2000/svg">
<path d="M20.3828 10.6969L20.0293 10.3433V10.3433L20.3828 10.6969ZM15.2717 11.6976L15.4659 11.2368C15.2785 11.1579 15.062 11.2003 14.9182 11.344L15.2717 11.6976ZM21.6312 6.35445L22.1186 6.24298V6.24298L21.6312 6.35445ZM20.8723 6.16949L21.2258 6.52305V6.52305L20.8723 6.16949ZM18.4652 8.57656L18.8187 8.93012V8.93012L18.4652 8.57656ZM17.051 8.57656L17.4045 8.22301L17.051 8.57656ZM15.9074 7.43301L16.261 7.07946L16.261 7.07946L15.9074 7.43301ZM15.9074 6.0188L15.5539 5.66525L15.9074 6.0188ZM18.3149 3.61135L17.9613 3.2578L17.9613 3.2578L18.3149 3.61135ZM18.13 2.85239L18.2416 2.365V2.365L18.13 2.85239ZM13.7865 4.10052L13.433 3.74697H13.433L13.7865 4.10052ZM12.7155 9.03473L13.069 9.38829C13.2075 9.24978 13.2524 9.04316 13.1838 8.85968L12.7155 9.03473ZM6.9865 14.7637L6.86421 15.2485C7.03487 15.2916 7.2156 15.2417 7.34005 15.1173L6.9865 14.7637ZM9.59601 17.3733L9.24246 17.0198C9.11801 17.1442 9.06816 17.3249 9.11119 17.4956L9.59601 17.3733ZM20.0293 10.3433C18.7962 11.5764 16.9812 11.8752 15.4659 11.2368L15.0776 12.1584C16.9548 12.9492 19.2059 12.5809 20.7364 11.0504L20.0293 10.3433ZM21.1438 6.46591C21.453 7.81787 21.0808 9.29183 20.0293 10.3433L20.7364 11.0504C22.0412 9.74557 22.5013 7.91626 22.1186 6.24298L21.1438 6.46591ZM21.2258 6.52305C21.2287 6.5202 21.2216 6.52763 21.204 6.52355C21.1948 6.52142 21.1806 6.51553 21.1666 6.50196C21.1512 6.48701 21.1451 6.47151 21.1438 6.46591L22.1186 6.24298C22.0332 5.86925 21.7509 5.62366 21.4293 5.54927C21.1154 5.47666 20.7687 5.56592 20.5187 5.81594L21.2258 6.52305ZM18.8187 8.93012L21.2258 6.52305L20.5187 5.81594L18.1116 8.22301L18.8187 8.93012ZM16.6974 8.93012C17.2832 9.5159 18.233 9.5159 18.8187 8.93012L18.1116 8.22301C17.9164 8.41827 17.5998 8.41827 17.4045 8.22301L16.6974 8.93012ZM15.5539 7.78656L16.6974 8.93012L17.4045 8.22301L16.261 7.07946L15.5539 7.78656ZM15.5539 5.66525C14.9681 6.25103 14.9681 7.20078 15.5539 7.78657L16.261 7.07946C16.0657 6.8842 16.0657 6.56761 16.261 6.37235L15.5539 5.66525ZM17.9613 3.2578L15.5539 5.66525L16.261 6.37235L18.6684 3.9649L17.9613 3.2578ZM18.0184 3.33978C18.0128 3.33849 17.9973 3.33242 17.9824 3.317C17.9688 3.30299 17.9629 3.28881 17.9608 3.27959C17.9567 3.26197 17.9642 3.25495 17.9613 3.2578L18.6684 3.9649C18.9184 3.71491 19.0077 3.36831 18.9351 3.05436C18.8608 2.73279 18.6153 2.45054 18.2416 2.365L18.0184 3.33978ZM14.1401 4.45407C15.1918 3.40234 16.6662 3.03021 18.0184 3.33978L18.2416 2.365C16.568 1.98185 14.7381 2.44181 13.433 3.74697L14.1401 4.45407ZM13.1838 8.85968C12.6298 7.37739 12.9495 5.6446 14.1401 4.45407L13.433 3.74697C11.9553 5.22459 11.561 7.3741 12.2471 9.20978L13.1838 8.85968ZM7.34005 15.1173L13.069 9.38829L12.3619 8.68118L6.63295 14.4102L7.34005 15.1173ZM6.10261 15.1545C6.366 15.1545 6.62106 15.1872 6.86421 15.2485L7.10879 14.2789C6.78632 14.1976 6.44914 14.1545 6.10261 14.1545V15.1545ZM3 18.2571C3 16.5436 4.38908 15.1545 6.10261 15.1545V14.1545C3.8368 14.1545 2 15.9913 2 18.2571H3ZM6.10261 21.3597C4.38908 21.3597 3 19.9706 3 18.2571H2C2 20.5229 3.8368 22.3597 6.10261 22.3597V21.3597ZM9.20521 18.2571C9.20521 19.9706 7.81613 21.3597 6.10261 21.3597V22.3597C8.36841 22.3597 10.2052 20.5229 10.2052 18.2571H9.20521ZM9.11119 17.4956C9.17251 17.7387 9.20521 17.9937 9.20521 18.2571H10.2052C10.2052 17.9106 10.1621 17.5735 10.0808 17.251L9.11119 17.4956ZM14.9182 11.344L9.24246 17.0198L9.94957 17.7269L15.6253 12.0512L14.9182 11.344ZM7.34961 18.2586C7.34961 18.9489 6.78997 19.5086 6.09961 19.5086V20.5086C7.34225 20.5086 8.34961 19.5012 8.34961 18.2586H7.34961ZM6.09961 17.0086C6.78997 17.0086 7.34961 17.5682 7.34961 18.2586H8.34961C8.34961 17.0159 7.34225 16.0086 6.09961 16.0086V17.0086ZM4.84961 18.2586C4.84961 17.5682 5.40925 17.0086 6.09961 17.0086V16.0086C4.85697 16.0086 3.84961 17.0159 3.84961 18.2586H4.84961ZM6.09961 19.5086C5.40925 19.5086 4.84961 18.9489 4.84961 18.2586H3.84961C3.84961 19.5012 4.85697 20.5086 6.09961 20.5086V19.5086Z" fill="black"/>
</svg>
