<svg width="48" height="48" viewBox="0 0 48 48" fill="none" xmlns="http://www.w3.org/2000/svg">
<path fill-rule="evenodd" clip-rule="evenodd" d="M6 8.75C6 7.23122 7.23122 6 8.75 6H18.25C18.6642 6 19 6.33579 19 6.75C19 7.16421 18.6642 7.5 18.25 7.5H8.75C8.05964 7.5 7.5 8.05964 7.5 8.75V18.25C7.5 18.6642 7.16421 19 6.75 19C6.33579 19 6 18.6642 6 18.25V8.75ZM29 6.75C29 6.33579 29.3358 6 29.75 6H39.25C40.7688 6 42 7.23122 42 8.75V18.25C42 18.6642 41.6642 19 41.25 19C40.8358 19 40.5 18.6642 40.5 18.25V8.75C40.5 8.05964 39.9404 7.5 39.25 7.5H29.75C29.3358 7.5 29 7.16421 29 6.75ZM7.5 29.75C7.5 29.3358 7.16421 29 6.75 29C6.33579 29 6 29.3358 6 29.75V39.25C6 40.7688 7.23122 42 8.75 42H18.25C18.6642 42 19 41.6642 19 41.25C19 40.8358 18.6642 40.5 18.25 40.5H8.75C8.05964 40.5 7.5 39.9404 7.5 39.25V29.75ZM41.25 29C41.6642 29 42 29.3358 42 29.75V39.25C42 40.7688 40.7688 42 39.25 42H29.75C29.3358 42 29 41.6642 29 41.25C29 40.8358 29.3358 40.5 29.75 40.5H39.25C39.9404 40.5 40.5 39.9404 40.5 39.25V29.75C40.5 29.3358 40.8358 29 41.25 29ZM24 15.5C19.3056 15.5 15.5 19.3056 15.5 24C15.5 28.6944 19.3056 32.5 24 32.5C28.6944 32.5 32.5 28.6944 32.5 24C32.5 19.3056 28.6944 15.5 24 15.5ZM14 24C14 18.4772 18.4772 14 24 14C29.5229 14 34 18.4772 34 24C34 26.4915 33.0889 28.7701 31.5816 30.5209L35.7803 34.7197C36.0732 35.0126 36.0732 35.4874 35.7803 35.7803C35.4874 36.0732 35.0126 36.0732 34.7197 35.7803L30.5209 31.5816C28.7701 33.0889 26.4915 34 24 34C18.4772 34 14 29.5228 14 24Z" fill="white"/>
</svg>
