<svg width="48" height="49" viewBox="0 0 48 49" fill="none" xmlns="http://www.w3.org/2000/svg">
<path fill-rule="evenodd" clip-rule="evenodd" d="M28.7492 24.1359C28.1584 23.8989 27.5253 23.7854 26.8889 23.8024C26.6965 23.8076 26.5134 23.8866 26.3775 24.023L24.5403 25.8682C24.2484 26.1613 24.249 26.6353 24.5414 26.9277L26.8142 29.2005C27.1071 29.4934 27.582 29.4934 27.8749 29.2005C28.1678 28.9076 28.1678 28.4328 27.8749 28.1399L26.1312 26.3962L27.2156 25.3072C27.5497 25.3286 27.8789 25.403 28.1908 25.5281C28.5915 25.6888 28.955 25.9299 29.259 26.2365L29.2712 26.2485C29.7069 26.6682 30.0112 27.2055 30.1473 27.795C30.2833 28.3845 30.2452 29.0008 30.0375 29.569C29.9373 29.8431 30.0052 30.1504 30.2116 30.3567L38.3764 38.5215C38.5825 38.7277 38.8895 38.7957 39.1634 38.6959C39.7332 38.4883 40.351 38.4503 40.942 38.5864C41.533 38.7225 42.0719 39.0269 42.4935 39.4629L42.4935 39.4629L42.5003 39.4699C42.8048 39.7766 43.0442 40.1417 43.2041 40.5432C43.3641 40.9447 43.4413 41.3744 43.4311 41.8065L43.4309 41.8241V42.2993C43.4309 42.7135 43.7667 43.0493 44.1809 43.0493C44.5951 43.0493 44.9309 42.7135 44.9309 42.2993V41.8325C44.9445 41.2016 44.8312 40.5744 44.5976 39.9881C44.3636 39.4004 44.0135 38.866 43.5684 38.4166C42.9457 37.7742 42.1506 37.3255 41.2787 37.1247C40.5652 36.9603 39.8254 36.9677 39.1193 37.1431L31.5903 29.6141C31.7658 28.909 31.7733 28.1701 31.6088 27.4577C31.4081 26.5878 30.9598 25.7948 30.3182 25.1742C29.8712 24.7251 29.3373 24.3718 28.7492 24.1359ZM29.096 36.7898C29.3265 36.7047 29.576 36.6851 29.8169 36.7333C30.0577 36.7814 30.2805 36.8955 30.4605 37.0627C30.4664 37.0682 30.4722 37.0738 30.478 37.0795L31.3887 37.9823L31.4022 37.996L31.5788 38.1803L32.4839 39.0853L32.4931 39.0948L32.5029 39.1051C32.6702 39.2851 32.7842 39.5079 32.8324 39.7488C32.8805 39.9896 32.861 40.2392 32.7758 40.4696C32.7726 40.4783 32.7692 40.4869 32.7657 40.4955C32.6072 40.88 32.4988 41.2833 32.4434 41.6955C32.4375 41.7396 32.4276 41.7832 32.4139 41.8256C32.3747 41.9474 32.3194 42.0636 32.2495 42.1709C32.2211 42.2146 32.1881 42.2553 32.1512 42.2921L28.1916 46.2518C28.1728 46.2706 28.153 46.2884 28.1323 46.3051C27.7945 46.5777 27.385 46.7466 26.9534 46.7915C26.4115 46.8577 25.8617 46.7879 25.3536 46.5882C24.8511 46.3907 24.4053 46.0725 24.0553 45.6619L23.8919 45.4923C23.4878 45.1438 23.1738 44.7026 22.977 44.2062C22.775 43.6968 22.7027 43.1451 22.7667 42.6008L22.7672 42.5963C22.82 42.1696 22.9896 41.7658 23.2574 41.4294C23.275 41.4072 23.2939 41.3861 23.3139 41.3661L27.2735 37.4065C27.3248 37.3552 27.3833 37.3116 27.4471 37.2771C27.5402 37.2267 27.6377 37.1849 27.7384 37.1522C27.7813 37.1383 27.8254 37.1282 27.8702 37.1222C28.2823 37.0668 28.6856 36.9585 29.0701 36.7999C29.0787 36.7964 29.0873 36.793 29.096 36.7898ZM29.5153 38.2373C29.095 38.4001 28.6586 38.5176 28.2134 38.5879L24.4094 42.3919C24.3266 42.5056 24.2738 42.6385 24.2562 42.7783C24.2217 43.075 24.2613 43.3757 24.3714 43.6534C24.4818 43.9318 24.6596 44.1785 24.889 44.3711C24.9091 44.3881 24.9284 44.4061 24.9467 44.4251L25.1526 44.6389C25.1646 44.6514 25.1761 44.6642 25.1872 44.6775C25.3788 44.9061 25.6246 45.083 25.9022 45.1921C26.1798 45.3012 26.4803 45.339 26.7763 45.3019L26.7951 45.2998C26.9288 45.2865 27.0562 45.2374 27.1641 45.158L30.9792 41.3428C31.0496 40.9011 31.1666 40.4681 31.3281 40.0509L30.5125 39.2353L30.5013 39.2239L30.3258 39.0408L29.5153 38.2373ZM25.412 43.1229L29.2211 39.3138L30.2818 40.3744L26.4726 44.1836L25.412 43.1229ZM22.8144 27.5166C23.2286 27.5166 23.5644 27.8524 23.5644 28.2666V28.7418C23.5644 28.7496 23.5643 28.7574 23.564 28.7653C23.5505 29.1959 23.6259 29.6247 23.7853 30.025C23.9448 30.4253 24.1849 30.7885 24.4908 31.0919L24.5001 31.1011L24.5 31.1012C24.9224 31.5349 25.4607 31.838 26.0507 31.9741C26.6406 32.1103 27.2573 32.0737 27.827 31.8689C28.1003 31.7707 28.4057 31.839 28.6111 32.0444L36.7758 40.2091C36.9812 40.4145 37.0495 40.7199 36.9513 40.9932C36.7464 41.5629 36.7099 42.1796 36.8461 42.7695C36.9822 43.3595 37.2852 43.8978 37.719 44.3201L37.728 44.3288L37.7279 44.3289C38.0324 44.6355 38.3968 44.876 38.7984 45.0355C39.1121 45.1601 39.4431 45.2332 39.7788 45.2526L40.862 44.1694L39.1134 42.4269C38.82 42.1345 38.8192 41.6597 39.1116 41.3663C39.404 41.0729 39.8789 41.072 40.1723 41.3644L42.453 43.6372C42.5941 43.7778 42.6734 43.9687 42.6736 44.1678C42.6738 44.367 42.5947 44.558 42.4539 44.6988L40.6167 46.5361C40.482 46.6708 40.301 46.7492 40.1106 46.7554C39.4729 46.7761 38.8377 46.6652 38.2446 46.4296C37.6535 46.1947 37.1169 45.8411 36.6681 45.3905C36.0304 44.7679 35.5849 43.9753 35.3845 43.1068C35.2203 42.3956 35.2263 41.658 35.3988 40.9534L27.8668 33.4214C27.1621 33.5939 26.4246 33.5998 25.7134 33.4357C24.845 33.2353 24.0525 32.7898 23.4299 32.1523C22.98 31.7048 22.6267 31.1697 22.3918 30.5801C22.1577 29.9924 22.0463 29.3629 22.0644 28.7305V28.2666C22.0644 27.8524 22.4002 27.5166 22.8144 27.5166ZM43.018 24.5043C42.7707 24.2573 42.3856 24.2138 42.0895 24.3995L39.6012 25.9603C39.4894 26.0304 39.3981 26.1287 39.3365 26.2453L38.354 28.1056L35.1289 31.2234C34.9844 31.3631 34.902 31.555 34.9002 31.756C34.8985 31.9571 34.9775 32.1504 35.1196 32.2926L35.8162 32.99L35.8168 32.9906L36.5142 33.6872C36.6564 33.8293 36.8497 33.9083 37.0507 33.9066C37.2518 33.9048 37.4437 33.8224 37.5834 33.6779L40.7012 30.4528L42.5615 29.4703C42.6781 29.4086 42.7764 29.3174 42.8465 29.2056L44.4073 26.7173C44.593 26.4212 44.5495 26.0361 44.3025 25.7888L43.661 25.1465L43.6603 25.1458L43.018 24.5043ZM39.6244 28.9119L40.5688 27.124L42.3805 25.9876L42.5997 26.2065L42.6003 26.2071L42.8192 26.4262L41.6828 28.238L39.8949 29.1824C39.8248 29.2194 39.761 29.2673 39.7059 29.3242L37.0349 32.0872L36.8774 31.9299L36.8769 31.9294L36.7196 31.7719L39.4826 29.1008C39.5395 29.0458 39.5874 28.982 39.6244 28.9119Z" fill="black"/>
<g clip-path="url(#clip0_4559_203655)">
<path d="M37.1466 25.1865V13.9766L26.1466 2.97656H6.14656C5.76995 2.97656 5.40877 3.12615 5.14247 3.39246C4.87617 3.65876 4.72656 4.01994 4.72656 4.39655V34.2466C4.72656 35.7451 5.32183 37.1821 6.38141 38.2417C7.44099 39.3013 8.87808 39.8965 10.3766 39.8965H20.9961" stroke="black" stroke-width="1.5" stroke-linecap="round" stroke-linejoin="round"/>
<path d="M12.4531 12.9375H19.7431" stroke="black" stroke-width="1.5" stroke-linecap="round" stroke-linejoin="round"/>
<path d="M12.4531 17.7188H19.7431" stroke="black" stroke-width="1.5" stroke-linecap="round" stroke-linejoin="round"/>
<path d="M12.4531 22.4883H23.4631" stroke="black" stroke-width="1.5" stroke-linecap="round" stroke-linejoin="round"/>
<path d="M12.4531 27.2578H19.7431" stroke="black" stroke-width="1.5" stroke-linecap="round" stroke-linejoin="round"/>
<path d="M37.1506 13.9766H28.9606C28.2118 13.9739 27.4945 13.6746 26.966 13.1442C26.4374 12.6137 26.1406 11.8954 26.1406 11.1465V2.97656" stroke="black" stroke-width="1.5" stroke-linecap="round" stroke-linejoin="round"/>
</g>
<defs>
<clipPath id="clip0_4559_203655">
<rect width="33.9" height="38.42" fill="white" transform="translate(4 2.1875)"/>
</clipPath>
</defs>
</svg>
