<svg width="87" height="10" viewBox="0 0 87 10" fill="none" xmlns="http://www.w3.org/2000/svg">
<g clip-path="url(#clip0_2991_52495)">
<path d="M2.77498 0.875H0.865723V9.12461H6.7187V7.5194H2.77498V0.875Z" fill="#141B23"/>
<path d="M10.9172 5.97739H12.4642V7.42164C12.0232 7.56899 11.561 7.643 11.096 7.64073C9.37455 7.64073 8.80223 6.76882 8.80223 5.00265C8.80223 3.31248 9.3522 2.31985 11.0602 2.31985C11.4325 2.28974 11.8063 2.35334 12.1476 2.50487C12.489 2.65639 12.7869 2.89101 13.0142 3.18729L14.1947 2.09628C13.4748 1.0634 12.2049 0.754883 11.0245 0.754883C8.34167 0.754883 6.95557 2.21254 6.95557 4.98923C6.95557 7.76593 8.22095 9.25041 11.0111 9.25041C12.1365 9.28495 13.2495 9.00632 14.2259 8.44556V4.44373H10.9172V5.97739Z" fill="#141B23"/>
<path d="M26.7903 6.30799C26.759 5.14991 26.0615 4.48369 24.8184 4.48369H21.2101C21.1063 4.49785 21.0006 4.48873 20.9007 4.457C20.8009 4.42528 20.7093 4.37173 20.6327 4.30026C20.5561 4.22878 20.4963 4.14116 20.4578 4.04374C20.4192 3.94631 20.4028 3.84152 20.4097 3.73697V2.82036C20.4097 2.44029 20.7406 2.14072 21.2592 2.14072H26.2984V1.1123H21.2995C20.2443 1.1123 19.5825 1.61756 19.3902 2.48053C19.3485 2.65329 19.3275 2.83042 19.3276 3.00816V3.61178C19.3276 3.63861 19.3276 3.66544 19.3276 3.6878C19.3545 4.84587 20.0565 5.50763 21.2995 5.50763H24.9079C25.0121 5.49432 25.118 5.50414 25.2181 5.5364C25.3181 5.56865 25.4098 5.62256 25.4866 5.69427C25.5635 5.76599 25.6236 5.85375 25.6626 5.95133C25.7017 6.0489 25.7188 6.15388 25.7127 6.25881V7.15308C25.7127 7.15308 25.7127 7.15307 25.7127 7.17543C25.7039 7.27694 25.6746 7.37563 25.6267 7.46554C25.5788 7.55546 25.5132 7.63476 25.4338 7.69866C25.3545 7.76257 25.263 7.80976 25.1649 7.83741C25.0668 7.86506 24.9642 7.87258 24.8631 7.85954H19.5333V8.88348H24.8229C25.8781 8.88348 26.5444 8.37823 26.7322 7.51973C26.7728 7.34534 26.7923 7.16669 26.7903 6.98764V6.30799Z" fill="#141B23"/>
<path d="M29.339 1.10742H28.2793V8.88754H29.339V1.10742Z" fill="#141B23"/>
<path d="M34.5261 5.54745H37.2938V6.71C37.2938 7.51931 36.8467 7.85466 36.0552 7.85466H33.2249C33.0654 7.87511 32.9034 7.86035 32.7502 7.81142C32.5971 7.76249 32.4565 7.68056 32.3384 7.57143C32.2203 7.46231 32.1276 7.32862 32.0668 7.17978C32.006 7.03095 31.9785 6.87059 31.9863 6.71V3.27601C31.9782 3.1144 32.0053 2.95297 32.0657 2.80285C32.1261 2.65274 32.2184 2.51753 32.3362 2.40656C32.454 2.2956 32.5944 2.21151 32.7478 2.16014C32.9013 2.10876 33.064 2.09132 33.2249 2.109H37.96V1.10742H33.2651C31.7136 1.10742 30.8774 2.00168 30.8774 3.41462V6.57139C30.8774 7.98433 31.7136 8.87858 33.2651 8.87858H36.0105C37.5621 8.87858 38.3982 8.0514 38.3982 6.57139V4.53245H34.5261V5.54745Z" fill="#141B23"/>
<path d="M50.2384 5.97222L52.0269 2.20737L53.8155 5.97222H50.2384ZM52.6663 1.10742H51.3875L47.645 8.88754H48.8567L49.751 7.00063H54.2894L55.1837 8.88754H56.3909L52.6663 1.10742Z" fill="#141B23"/>
<path d="M45.8384 7.55955L40.9646 1.11189H39.6143V8.88754H40.6695V2.43988L45.5254 8.88307H46.9159V1.10742H45.8384V7.55955Z" fill="#141B23"/>
<path d="M54.9644 1.10742V2.109H57.8797V8.86071H59.0109V2.109H59.0869H61.9262V1.10742H54.9644Z" fill="#141B23"/>
<path d="M68.7629 6.50431C68.7845 6.68566 68.7646 6.86954 68.7048 7.0421C68.645 7.21467 68.5469 7.37142 68.4177 7.50056C68.2886 7.6297 68.1318 7.72786 67.9593 7.78765C67.7867 7.84743 67.6028 7.86728 67.4215 7.84571H65.2842C65.1028 7.86728 64.9189 7.84743 64.7464 7.78765C64.5738 7.72786 64.4171 7.6297 64.2879 7.50056C64.1588 7.37142 64.0606 7.21467 64.0008 7.0421C63.9411 6.86954 63.9212 6.68566 63.9428 6.50431V1.10742H62.8115V6.38806C62.8115 8.01116 63.6074 8.87858 65.3021 8.87858H67.3589C69.0535 8.87858 69.9031 8.01116 69.9031 6.38806V1.10742H68.7718L68.7629 6.50431Z" fill="#141B23"/>
<path d="M76.2747 5.11811H72.2192V2.11338H76.2434C76.847 2.11338 77.2763 2.4219 77.2763 3.00764V4.197C77.2815 4.32406 77.2587 4.4507 77.2095 4.56795C77.1603 4.68521 77.0859 4.79023 76.9916 4.87555C76.8974 4.96087 76.7855 5.02442 76.6639 5.0617C76.5423 5.09898 76.414 5.10907 76.2881 5.09127L76.2747 5.11811ZM77.017 6.02579C77.7637 5.83352 78.3584 5.27461 78.3584 4.11206V3.11047C78.3584 1.76907 77.5982 1.08496 76.2524 1.08496H71.1104V8.85614H72.2192V6.10627H74.5622C76.5832 6.10627 77.245 7.96635 77.245 8.87403H78.3584C78.3648 8.33066 78.2473 7.79295 78.0149 7.30176C77.7825 6.81057 77.4412 6.3788 77.017 6.0392" fill="#141B23"/>
<path d="M86.1342 2.10941V1.1123H79.5166V8.88348H86.1342V7.88637H80.621V5.48974H86.0224V4.48816H80.621V2.10941H86.1342Z" fill="#141B23"/>
</g>
<defs>
<clipPath id="clip0_2991_52495">
<rect width="85.2683" height="8.5" fill="white" transform="translate(0.865723 0.75)"/>
</clipPath>
</defs>
</svg>
