<svg width="18" height="18" viewBox="0 0 18 18" fill="none" xmlns="http://www.w3.org/2000/svg">
<g clip-path="url(#clip0_5563_26497)">
<path fill-rule="evenodd" clip-rule="evenodd" d="M5.82224 4.04675H3.80688V5.95756L0.587265 9.00615L3.80688 12.0554V13.953H5.82224L6.5683 14.6598L9.05486 17.0025L11.5284 14.6605L12.2875 13.9537H14.2898V12.0562L15.0489 11.3494L17.5225 9.00662L15.0489 6.66388L14.2898 5.95709V4.04628H12.2875L11.5284 3.33948L9.05486 0.996744L5.82224 4.04604M3.06081 3.33925H6.04483L9.05486 0.5L12.0649 3.33996H15.0489V6.15366L18.0589 9.00639L15.0489 11.8463V14.66H12.0649L9.05486 17.5L6.04483 14.66H3.06081V11.8463L0.0507812 9.00639L3.06081 6.15342V3.33972V3.34019V3.33925ZM1.63421 9.00568L9.05486 2.00466L16.4623 9.00639L9.05486 16.0081L1.63445 9.00639L1.63421 9.00568Z" fill="#006D58"/>
<path fill-rule="evenodd" clip-rule="evenodd" d="M14.2846 6.95209C13.4574 7.91175 12.339 8.60932 11.1305 8.98069C10.475 9.17561 9.92697 9.24941 9.24596 9.28181C8.70025 9.27425 8.1342 9.35893 7.64928 9.6222C6.77454 10.0742 6.15361 10.9277 6.10488 11.9257C6.02729 13.9604 7.80966 14.5227 9.04963 16.0089L11.2221 13.9543L14.2846 11.0488L16.457 9.00719L14.2846 6.95256M3.80164 11.0488C4.61086 10.154 5.6474 9.45378 6.79867 9.08572C8.06323 8.57431 9.13786 8.90429 10.1884 8.49672C11.0572 8.17384 11.737 7.39963 11.9421 6.49437C12.3364 4.27132 10.4355 3.49522 9.04986 2.00546L6.87743 4.04708L3.80188 6.95209L1.62945 9.00671L3.80188 11.0483V11.0488H3.80164ZM0.582031 9.00648L3.80164 5.95718V4.04637H5.817L9.04963 0.99707L12.2822 4.04637H14.2846V5.95718L17.5172 9.00648L14.2846 12.0558V13.9533H12.2822L9.04963 17.0026L5.817 13.9533H3.80164V12.0558L0.582031 9.00695V9.00648Z" fill="#F1A400"/>
</g>
<defs>
<clipPath id="clip0_5563_26497">
<rect width="18" height="18" fill="white"/>
</clipPath>
</defs>
</svg>
