<svg width="24" height="24" viewBox="0 0 24 24" fill="none" xmlns="http://www.w3.org/2000/svg">
<path fill-rule="evenodd" clip-rule="evenodd" d="M14.3942 3.8017C14.8164 3.79329 15.4328 3.9055 15.9619 4.2868C16.3242 4.54784 16.6235 4.92012 16.7913 5.41502L17.6135 5.41502C20.1233 5.41502 21.9987 7.70688 21.9987 10.3541V10.6472H21.9996V17.5146C21.9996 17.846 21.731 18.1146 21.3996 18.1146L20.2527 18.1146C20.002 19.3047 18.9403 20.1985 17.6687 20.1985C16.41 20.1985 15.3571 19.3229 15.0926 18.1511H9.2778C9.01335 19.3229 7.96041 20.1985 6.70176 20.1985C5.2437 20.1985 4.06171 19.0235 4.06171 17.5741C4.06171 17.2538 4.11945 16.9469 4.22514 16.6631C3.32655 15.8153 2.74047 14.648 2.74047 13.3099V8.54147C2.74047 8.2101 3.0091 7.94147 3.34047 7.94147H8.398C8.72938 7.94147 8.998 8.2101 8.998 8.54147C8.998 8.87284 8.72938 9.14147 8.398 9.14147H3.94047V13.3099C3.94047 14.2101 4.30382 15.0196 4.90686 15.6497C5.37789 15.2154 6.00863 14.9498 6.70176 14.9498C7.94384 14.9498 8.98559 15.8025 9.26695 16.9511H15.1035C15.3848 15.8025 16.4266 14.9498 17.6687 14.9498C18.8976 14.9498 19.9304 15.7845 20.2247 16.9146L20.7996 16.9146L20.7996 10.9541H20.7987V10.3541C20.7987 8.20784 19.3096 6.61502 17.6135 6.61502H16.9374V10.9581L19.4918 10.9581C19.8232 10.9581 20.0918 11.2267 20.0918 11.5581C20.0918 11.8895 19.8232 12.1581 19.4918 12.1581H16.3374C16.1783 12.1581 16.0257 12.0949 15.9132 11.9824C15.8006 11.8698 15.7374 11.7172 15.7374 11.5581V6.35783C15.7374 5.74509 15.5034 5.43548 15.2604 5.26035C14.9857 5.06243 14.638 4.99629 14.4148 5.00154L14.4148 5.0017H14.4007H2.60037C2.269 5.0017 2.00037 4.73307 2.00037 4.4017C2.00037 4.07033 2.269 3.8017 2.60037 3.8017H14.3942ZM6.70176 18.9985C7.50385 18.9985 8.1418 18.354 8.1418 17.5741C8.1418 16.7943 7.50385 16.1498 6.70176 16.1498C5.89967 16.1498 5.26171 16.7943 5.26171 17.5741C5.26171 18.354 5.89967 18.9985 6.70176 18.9985ZM10.1746 7.0363L2.60302 7.0363C2.27165 7.0363 2.00302 6.76767 2.00302 6.4363C2.00302 6.10493 2.27165 5.8363 2.60302 5.8363L10.1746 5.8363C10.506 5.8363 10.7746 6.10493 10.7746 6.4363C10.7746 6.76767 10.506 7.0363 10.1746 7.0363ZM19.1087 17.5741C19.1087 18.354 18.4708 18.9985 17.6687 18.9985C16.8666 18.9985 16.2286 18.354 16.2286 17.5741C16.2286 16.7943 16.8666 16.1498 17.6687 16.1498C18.4708 16.1498 19.1087 16.7943 19.1087 17.5741Z" fill="black"/>
</svg>
