<svg width="64" height="64" viewBox="0 0 64 64" fill="none" xmlns="http://www.w3.org/2000/svg">
<g clip-path="url(#clip0_653_156901)">
<path d="M59.25 27H4.75C3.64543 27 2.75 27.8954 2.75 29V35C2.75 36.1046 3.64543 37 4.75 37H59.25C60.3546 37 61.25 36.1046 61.25 35V29C61.25 27.8954 60.3546 27 59.25 27Z" stroke="black" stroke-width="1.5"/>
<path d="M7.75 32H31.75" stroke="black" stroke-width="1.5" stroke-linecap="round"/>
<path d="M44.4062 33.0102C44.9585 33.0102 45.4062 32.558 45.4062 32.0002C45.4062 31.4424 44.9585 30.9902 44.4062 30.9902C43.854 30.9902 43.4062 31.4424 43.4062 32.0002C43.4062 32.558 43.854 33.0102 44.4062 33.0102Z" fill="black"/>
<path d="M49.4062 33.0102C49.9585 33.0102 50.4062 32.558 50.4062 32.0002C50.4062 31.4424 49.9585 30.9902 49.4062 30.9902C48.854 30.9902 48.4062 31.4424 48.4062 32.0002C48.4062 32.558 48.854 33.0102 49.4062 33.0102Z" fill="black"/>
<path d="M53.75 32H56.75" stroke="black" stroke-width="1.5" stroke-linecap="round"/>
</g>
<defs>
<clipPath id="clip0_653_156901">
<rect width="60" height="11.5" fill="white" transform="translate(2 26.25)"/>
</clipPath>
</defs>
</svg>
