<svg width="172" height="48" viewBox="0 0 172 48" fill="none" xmlns="http://www.w3.org/2000/svg">
<g clip-path="url(#clip0_3946_47211)">
<mask id="mask0_3946_47211" style="mask-type:luminance" maskUnits="userSpaceOnUse" x="0" y="0" width="172" height="48">
<path d="M0.737305 0.157959H171.264V47.5264H0.737305V0.157959Z" fill="white"/>
</mask>
<g mask="url(#mask0_3946_47211)">
<path fill-rule="evenodd" clip-rule="evenodd" d="M18.9895 11.1368C19.5642 9.7814 20.8425 7.13066 20.8425 7.13066C20.8425 7.13066 21.4425 6.04182 21.8909 6.08034C22.0426 6.08803 22.1911 6.12633 22.3275 6.19294C22.464 6.25955 22.5855 6.3531 22.6848 6.46793C22.7841 6.58277 22.8592 6.71653 22.9054 6.86114C22.9517 7.00576 22.9682 7.15824 22.9539 7.3094L22.9697 9.73276C23.0038 14.7412 23.0373 19.7483 22.9539 24.7561C22.9002 27.914 24.219 29.9332 27.1413 31.0707C30.4078 32.349 33.8486 32.9187 37.3097 33.3071C50.8994 34.8286 67.0735 33.1719 80.8773 29.6262C81.7848 29.3938 82.0609 28.7294 82.1758 27.9235C82.4341 26.1342 84.0187 24.6008 85.5244 23.8334C88.8554 22.1155 92.8432 22.1029 95.3101 23.9281C96.7229 24.9728 97.323 26.0281 98.168 27.5161L98.2912 27.7321C99.536 29.93 103.973 29.966 106.394 29.7772C107.698 29.6755 108.58 29.541 109.555 29.3919C110.564 29.2321 111.577 29.098 112.593 28.9896C111.121 27.5022 110.035 26.4286 108.856 25.3492C108.302 24.8382 108.141 24.3374 108.496 23.6313C108.801 23.0206 109.072 22.3953 109.341 21.7707C109.629 21.105 109.916 20.4412 110.244 19.797C110.453 19.3858 110.965 18.8749 111.307 18.854C112.312 18.7883 112.562 19.1622 112.838 19.574L112.913 19.6846C114.843 22.4995 115.362 25.6719 114.973 29.018C114.948 29.2423 114.927 29.4669 114.911 29.6919C114.861 30.3128 114.815 30.8888 114.523 31.8298C113.894 33.8749 112.348 35.2277 110.252 35.6926C109.812 35.7904 109.443 35.8751 109.119 35.949L109.117 35.9496C107.591 36.2995 107.075 36.4176 104.96 36.6077C102.396 36.8376 101.565 35.6464 100.078 33.302C99.7331 34.3587 98.3796 34.7572 96.8556 35.2069L96.6137 35.2782C94.1928 35.9919 85.7827 36.1909 82.5977 35.3831C82.4259 35.3392 82.2548 35.2931 82.0842 35.2448C81.2777 35.0199 81.1716 34.9902 80.067 35.5902C78.9086 36.2187 72.2316 37.9473 70.0975 38.2258C63.1697 39.6134 56.1478 40.1174 49.0722 40.0561C44.8131 40.0249 40.5555 39.8901 36.303 39.6519C32.9284 39.458 29.6436 38.8138 26.5375 37.3997C22.095 35.378 19.7328 31.8759 19.3804 27.0778C19.0773 22.9688 18.8941 18.8483 18.7109 14.7298C18.6851 14.1279 18.6579 13.5273 18.6314 12.926C18.619 12.3105 18.741 11.6997 18.9888 11.1361L18.9895 11.1368ZM84.1931 31.1471L95.4813 31.2829C95.4813 31.2829 96.2328 26.2744 89.6221 26.5126C85.0286 26.6862 84.1931 31.1471 84.1931 31.1471ZM111.809 9.20855L111.905 9.30582C112.223 9.62225 112.475 9.99827 112.647 10.4123C112.818 10.8263 112.907 11.2702 112.907 11.7184C112.907 12.1668 112.818 12.6107 112.646 13.0248C112.475 13.4389 112.223 13.8151 111.905 14.1317C111.172 14.8656 109.01 16.0593 107.082 14.1317L106.982 14.0326C106.665 13.716 106.413 13.34 106.242 12.9259C106.071 12.5119 105.983 12.0681 105.983 11.6199C105.983 11.172 106.071 10.7285 106.242 10.3147C106.414 9.90088 106.665 9.525 106.982 9.20855C107.299 8.89114 107.675 8.63937 108.089 8.46769C108.503 8.29601 108.947 8.2078 109.396 8.20813C109.844 8.20804 110.288 8.29636 110.702 8.46802C111.116 8.63969 111.492 8.89133 111.809 9.20855ZM11.4914 19.8816C11.7112 19.4723 12.3276 19.0378 12.7514 19.0378C13.1891 19.0454 13.7947 19.5008 14.0095 19.9195C18.1198 27.9184 17.1358 35.654 12.6598 43.1616C12.0977 44.1052 11.4781 45.0147 10.8446 45.9443C10.544 46.3852 10.2415 46.8298 9.93958 47.2852C9.17934 46.9753 8.4185 46.6668 7.65705 46.3599C5.54758 45.5073 3.48484 44.6736 1.44737 43.7881C1.11516 43.6448 0.621896 43.3814 0.760212 42.4921C0.803791 42.2079 1.32232 41.7766 1.65453 41.6483C2.54316 41.3035 3.44505 40.9915 4.34632 40.6801C5.88421 40.1496 7.41895 39.6191 8.87916 38.9262C10.496 38.1278 11.9716 37.0707 13.2478 35.7968C14.9246 34.1483 15.1008 32.0496 13.7872 30.081C12.8196 28.6252 11.6398 27.3147 10.4682 26.0117L10.4669 26.0104L9.99074 25.4799C9.49495 24.9304 9.33642 24.5187 9.68379 23.8258C9.98316 23.2277 10.2484 22.6132 10.5137 21.9987C10.8219 21.2843 11.1301 20.57 11.4914 19.8816ZM97.7183 9.44161C97.3798 9.778 97.112 10.1787 96.9307 10.6201L102.107 15.1069C102.371 14.9538 102.613 14.7672 102.828 14.5517L102.933 14.4469C104.978 12.4018 103.713 10.1168 102.933 9.33424C102.255 8.65666 101.335 8.27577 100.377 8.27508C99.9019 8.27502 99.4318 8.36854 98.9932 8.55027C98.5546 8.73201 98.1562 8.99841 97.8206 9.33424L97.7183 9.44161ZM5.38716 7.67003C5.40162 7.51824 5.385 7.3651 5.33831 7.21995C5.29162 7.0748 5.21584 6.94069 5.11561 6.82579C5.01537 6.7109 4.89277 6.61763 4.7553 6.55169C4.61782 6.48574 4.46835 6.4485 4.316 6.44224C3.85811 6.40434 3.26758 7.49066 3.26758 7.49066C3.26758 7.49066 1.98926 10.1433 1.41453 11.4961C1.16665 12.0595 1.04445 12.67 1.05642 13.2854C1.08295 13.8652 1.10884 14.4443 1.13411 15.0241C1.21179 16.7629 1.28948 18.5022 1.376 20.241C1.52948 23.5353 1.68548 26.8315 1.84337 30.129C1.90274 31.3568 1.96716 32.5846 2.03284 33.8218L2.15853 36.2464H4.03432C4.17958 35.5264 4.35642 34.8083 4.53327 34.0928C4.92232 32.5214 5.30884 30.9576 5.34611 29.3875C5.40927 26.3117 5.40737 11.8334 5.38653 7.6694L5.38716 7.67003ZM160.772 35.7601C166.566 35.7601 171.263 31.0631 171.263 25.2696C171.263 19.4749 166.566 14.7778 160.772 14.7778C154.978 14.7778 150.281 19.4749 150.281 25.269C150.281 31.0631 154.978 35.7601 160.772 35.7601ZM129.513 18.3159C128.565 19.3053 127.822 20.4731 127.328 21.7517L142.471 34.3163C143.219 33.8591 143.906 33.3095 144.516 32.6805L144.811 32.3711C150.537 26.3761 146.774 19.8835 144.486 17.6932C143.502 16.75 142.341 16.01 141.07 15.5155C139.8 15.021 138.444 14.7815 137.081 14.8109C135.718 14.8403 134.374 15.1379 133.126 15.6868C131.878 16.2356 130.751 17.0249 129.808 18.0096L129.513 18.3159Z" fill="black"/>
</g>
</g>
<defs>
<clipPath id="clip0_3946_47211">
<rect width="170.526" height="48" fill="white" transform="translate(0.737305)"/>
</clipPath>
</defs>
</svg>
