<svg width="16" height="16" viewBox="0 0 16 16" fill="none" xmlns="http://www.w3.org/2000/svg">
<path d="M13.247 6.5993V11.159C13.247 11.5818 13.0447 11.9795 12.7019 12.2311C10.162 14.0947 6.69069 14.0947 4.15085 12.2311C3.80794 11.9795 3.60571 11.5818 3.60571 11.159V6.90316M9.74111 4.9497L14.3796 6.35366C14.7482 6.46522 15 6.80218 15 7.18394V11.7714M15 13.3631V14.5M8.85674 8.12143L14.3893 6.20327C15.1719 5.93196 15.1719 4.83566 14.3893 4.56434L8.85674 2.64622C8.29439 2.45126 7.68182 2.45126 7.11947 2.64622L1.58693 4.56434C0.804356 4.83566 0.804356 5.93196 1.58693 6.20327L7.11947 8.12143C7.68182 8.31634 8.29439 8.31634 8.85674 8.12143Z" stroke="black" stroke-width="1.3" stroke-linecap="round"/>
</svg>
