<svg width="64" height="64" viewBox="0 0 64 64" fill="none" xmlns="http://www.w3.org/2000/svg">
<path fill-rule="evenodd" clip-rule="evenodd" d="M3.9375 11.7832C2.971 11.7832 2.1875 12.5667 2.1875 13.5332V50.4672C2.1875 51.4337 2.971 52.2172 3.9375 52.2172H60.0706C61.0371 52.2172 61.8206 51.4337 61.8206 50.4672V13.5332C61.8206 12.5667 61.0371 11.7832 60.0706 11.7832H3.9375ZM3.6875 14.5464V49.8263L23.7134 32.1786L3.6875 14.5464ZM24.8483 33.1778L4.94528 50.7172H59.0566L39.1387 33.1874L33.1604 38.4584C32.4994 39.0413 31.5081 39.0416 30.8466 38.4592L24.8483 33.1778ZM40.2729 32.1874L60.3206 49.8315V14.5117L40.2729 32.1874ZM59.4458 13.2832H4.52265L31.8379 37.3334C31.9324 37.4166 32.074 37.4166 32.1684 37.3333L59.4458 13.2832Z" fill="black"/>
</svg>
