<svg width="64" height="64" viewBox="0 0 64 64" fill="none" xmlns="http://www.w3.org/2000/svg">
<rect x="5.75" y="9.92773" width="45.5323" height="43.7903" rx="1.25" fill="white" stroke="#EA1917" stroke-width="1.5"/>
<path d="M15.4517 7V12.2258" stroke="#EA1917" stroke-width="1.5" stroke-linecap="round"/>
<path d="M41.5806 7V12.2258" stroke="#EA1917" stroke-width="1.5" stroke-linecap="round"/>
<rect x="12.7188" y="21.25" width="5.46774" height="5.46774" rx="1.25" fill="white" stroke="#EA1917" stroke-width="1.5"/>
<rect x="21.4282" y="21.25" width="5.46774" height="5.46774" rx="1.25" fill="white" stroke="#EA1917" stroke-width="1.5"/>
<rect x="30.1382" y="21.25" width="5.46774" height="5.46774" rx="1.25" fill="white" stroke="#EA1917" stroke-width="1.5"/>
<rect x="38.8477" y="21.25" width="5.46774" height="5.46774" rx="1.25" fill="white" stroke="#EA1917" stroke-width="1.5"/>
<rect x="12.7188" y="29.96" width="5.46774" height="5.46774" rx="1.25" fill="white" stroke="#EA1917" stroke-width="1.5"/>
<rect x="21.4282" y="29.96" width="5.46774" height="5.46774" rx="1.25" fill="white" stroke="#EA1917" stroke-width="1.5"/>
<rect x="30.1382" y="29.96" width="5.46774" height="5.46774" rx="1.25" fill="white" stroke="#EA1917" stroke-width="1.5"/>
<rect x="38.8477" y="29.96" width="5.46774" height="5.46774" rx="1.25" fill="white" stroke="#EA1917" stroke-width="1.5"/>
<rect x="12.7188" y="38.6689" width="5.46774" height="5.46774" rx="1.25" fill="white" stroke="#EA1917" stroke-width="1.5"/>
<rect x="21.4282" y="38.6689" width="5.46774" height="5.46774" rx="1.25" fill="white" stroke="#EA1917" stroke-width="1.5"/>
<rect x="30.1382" y="38.6689" width="5.46774" height="5.46774" rx="1.25" fill="white" stroke="#EA1917" stroke-width="1.5"/>
<rect x="38.8477" y="38.6689" width="5.46774" height="5.46774" rx="1.25" fill="white" stroke="#EA1917" stroke-width="1.5"/>
<circle cx="45.9356" cy="44.8868" r="12.3145" fill="white" stroke="#EA1917" stroke-width="1.5"/>
<path d="M41.5811 44.8018H50.2907" stroke="#EA1917" stroke-width="1.5" stroke-linecap="round"/>
<path d="M45.936 40.4473V49.1569" stroke="#EA1917" stroke-width="1.5" stroke-linecap="round"/>
</svg>
