<svg width="64" height="64" viewBox="0 0 64 64" fill="none" xmlns="http://www.w3.org/2000/svg">
<path d="M56.3367 33.5H35.6633C35.0208 33.5 34.5 34.0387 34.5 34.7032V47.2968C34.5 47.9613 35.0208 48.5 35.6633 48.5H56.3367C56.9792 48.5 57.5 47.9613 57.5 47.2968V34.7032C57.5 34.0387 56.9792 33.5 56.3367 33.5Z" stroke="black" stroke-width="1.5" stroke-linecap="round"/>
<path d="M60.4466 51.5C60.9323 51.5 61.1328 50.8772 60.7382 50.5939L58.8708 49.2528C58.3627 48.9396 58.0528 48.7528 58.0528 48.7528C57.4518 48.4891 56.9437 48.5001 56.2745 48.5001H35.7132C35.0439 48.5001 34.2074 48.5495 33.1602 49.2418L31.269 50.5932" stroke="black" stroke-width="1.5" stroke-linecap="round"/>
<path d="M24.5 41.5V51.5" stroke="black" stroke-width="1.5" stroke-linecap="round"/>
<path d="M27.5 41.5V51.5" stroke="black" stroke-width="1.5" stroke-linecap="round"/>
<path d="M16.5 51.5H36.5" stroke="black" stroke-width="1.5" stroke-linecap="round"/>
<path d="M50.25 32.75V13.3182C50.25 12.314 49.4464 11.5 48.4551 11.5H4.54489C3.5536 11.5 2.75 12.314 2.75 13.3182V39.6818C2.75 40.686 3.5536 41.5 4.54489 41.5C21.016 41.5 19.247 41.5 34 41.5" stroke="black" stroke-width="1.5" stroke-miterlimit="10"/>
</svg>
