<svg width="26" height="26" viewBox="0 0 26 26" fill="none" xmlns="http://www.w3.org/2000/svg">
<path fill-rule="evenodd" clip-rule="evenodd" d="M24.5 13C24.5 19.3513 19.3513 24.5 13 24.5C6.64873 24.5 1.5 19.3513 1.5 13C1.5 6.64873 6.64873 1.5 13 1.5C19.3513 1.5 24.5 6.64873 24.5 13ZM26 13C26 20.1797 20.1797 26 13 26C5.8203 26 0 20.1797 0 13C0 5.8203 5.8203 0 13 0C20.1797 0 26 5.8203 26 13ZM13.4249 6.17536C13.4249 5.76115 13.0891 5.42536 12.6749 5.42536C12.2607 5.42536 11.9249 5.76115 11.9249 6.17536V13.3254C11.9249 13.6566 12.1422 13.9486 12.4594 14.0437L18.9594 15.9937C19.3561 16.1128 19.7743 15.8876 19.8933 15.4909C20.0123 15.0941 19.7872 14.676 19.3904 14.557L13.4249 12.7673V6.17536Z" fill="#4A4946"/>
</svg>
