<svg width="23" height="29" viewBox="0 0 23 29" fill="none" xmlns="http://www.w3.org/2000/svg">
<path d="M11.5 28.5C11.3083 28.5 10.925 28.393 10.925 28.393L10.4286 28.1076C6.93069 25.0401 4.3125 22.1928 2.5875 19.5657C0.8625 16.9376 0 14.4822 0 12.1994C0 8.63248 1.15623 5.79087 3.46869 3.67452C5.78019 1.55817 8.45729 0.5 11.5 0.5C14.5427 0.5 17.2198 1.55817 19.5313 3.67452C21.8438 5.79087 23 8.63248 23 12.1994C23 14.4822 22.1375 16.9376 20.4125 19.5657C18.6875 22.1928 16.076 25.0401 12.5781 28.1076L12.075 28.393C12.075 28.393 11.6917 28.5 11.5 28.5Z" fill="#EA1917"/>
<circle cx="11.5" cy="12.2002" r="9" fill="white"/>
</svg>
