<svg width="48" height="48" viewBox="0 0 48 48" fill="none" xmlns="http://www.w3.org/2000/svg">
<path fill-rule="evenodd" clip-rule="evenodd" d="M27.8501 13.4142C27.8501 17.0171 24.9393 19.9301 21.3582 19.9301C17.777 19.9301 14.8663 17.0171 14.8663 13.4142C14.8663 9.81144 17.777 6.89844 21.3582 6.89844C24.9393 6.89844 27.8501 9.81144 27.8501 13.4142ZM21.3582 21.4301C25.772 21.4301 29.3501 17.8413 29.3501 13.4142C29.3501 8.98724 25.772 5.39844 21.3582 5.39844C16.9444 5.39844 13.3663 8.98724 13.3663 13.4142C13.3663 17.8413 16.9444 21.4301 21.3582 21.4301ZM21.3609 24.0625C11.7027 24.0625 4.00098 32.007 4.00098 41.7735C4.00098 42.1877 4.33676 42.5235 4.75098 42.5235C5.16519 42.5235 5.50098 42.1877 5.50098 41.7735C5.50098 32.8026 12.5636 25.5625 21.3609 25.5625C23.7624 25.5625 26.0345 26.102 28.0691 27.0689C28.4226 26.6701 28.8084 26.3008 29.2224 25.965C26.868 24.7485 24.1989 24.0625 21.3609 24.0625ZM24.5821 35.0923C23.4148 35.7657 23.4148 37.4504 24.5821 38.1239L31.9289 42.3625C33.0955 43.0356 34.5534 42.1936 34.5534 40.8467V38.6516H33.0534V40.8467C33.0534 41.0391 32.8451 41.1594 32.6785 41.0632L25.3317 36.8246C25.165 36.7284 25.165 36.4877 25.3317 36.3915L32.6785 32.1529C32.8451 32.0568 33.0534 32.177 33.0534 32.3695V32.6696V35.035C33.0534 36.307 34.4306 37.1001 35.5311 36.4652L43.1731 32.0563C44.2747 31.4208 44.2747 29.8315 43.1731 29.1959L35.5311 24.787C34.4306 24.1521 33.0534 24.9452 33.0534 26.2172V28.7485H34.5534V26.2172C34.5534 26.1015 34.6794 26.0273 34.7815 26.0862L42.4235 30.4952C42.5246 30.5535 42.5246 30.6987 42.4235 30.757L34.7815 35.166C34.6794 35.2249 34.5534 35.1507 34.5534 35.035V32.6696V32.3695C34.5534 31.0225 33.0955 30.1806 31.9289 30.8536L24.5821 35.0923Z" fill="#333333"/>
</svg>
