<svg width="370" height="60" viewBox="0 0 370 60" fill="none" xmlns="http://www.w3.org/2000/svg">
<mask id="path-1-inside-1_1329_333687" fill="white">
<path fill-rule="evenodd" clip-rule="evenodd" d="M347.887 6.15771C350.648 6.15771 352.887 3.91914 352.887 1.15771C352.887 1.10495 352.886 1.05237 352.884 1H362C366.418 1 370 4.58172 370 9V47C370 51.4183 366.418 55 362 55H352.833C352.478 52.5865 350.399 50.7339 347.887 50.7339C345.375 50.7339 343.295 52.5865 342.94 55H8.00001C3.58173 55 0 51.4183 0 47V9C0 4.58172 3.58172 1 8 1H342.889C342.888 1.05237 342.887 1.10495 342.887 1.15771C342.887 3.91914 345.125 6.15771 347.887 6.15771Z"/>
</mask>
<path fill-rule="evenodd" clip-rule="evenodd" d="M347.887 6.15771C350.648 6.15771 352.887 3.91914 352.887 1.15771C352.887 1.10495 352.886 1.05237 352.884 1H362C366.418 1 370 4.58172 370 9V47C370 51.4183 366.418 55 362 55H352.833C352.478 52.5865 350.399 50.7339 347.887 50.7339C345.375 50.7339 343.295 52.5865 342.94 55H8.00001C3.58173 55 0 51.4183 0 47V9C0 4.58172 3.58172 1 8 1H342.889C342.888 1.05237 342.887 1.10495 342.887 1.15771C342.887 3.91914 345.125 6.15771 347.887 6.15771Z" fill="white"/>
<path d="M352.884 1V-1H350.822L350.885 1.06174L352.884 1ZM352.833 55L350.855 55.2911L351.106 57H352.833V55ZM342.94 55V57H344.668L344.919 55.2911L342.94 55ZM342.889 1L344.888 1.06174L344.952 -1H342.889V1ZM350.887 1.15771C350.887 2.81457 349.544 4.15771 347.887 4.15771V8.15771C351.753 8.15771 354.887 5.02371 354.887 1.15771H350.887ZM350.885 1.06174C350.886 1.09378 350.887 1.12577 350.887 1.15771H354.887C354.887 1.08413 354.886 1.01097 354.883 0.938263L350.885 1.06174ZM362 -1H352.884V3H362V-1ZM372 9C372 3.47715 367.523 -1 362 -1V3C365.314 3 368 5.68629 368 9H372ZM372 47V9H368V47H372ZM362 57C367.523 57 372 52.5228 372 47H368C368 50.3137 365.314 53 362 53V57ZM352.833 57H362V53H352.833V57ZM347.887 52.7339C349.392 52.7339 350.642 53.8448 350.855 55.2911L354.812 54.7089C354.315 51.3282 351.405 48.7339 347.887 48.7339V52.7339ZM344.919 55.2911C345.132 53.8448 346.381 52.7339 347.887 52.7339V48.7339C344.368 48.7339 341.459 51.3282 340.961 54.7089L344.919 55.2911ZM8.00001 57H342.94V53H8.00001V57ZM-2 47C-2 52.5229 2.47716 57 8.00001 57V53C4.6863 53 2 50.3137 2 47H-2ZM-2 9V47H2V9H-2ZM8 -1C2.47715 -1 -2 3.47715 -2 9H2C2 5.68629 4.68629 3 8 3V-1ZM342.889 -1H8V3H342.889V-1ZM344.887 1.15771C344.887 1.12577 344.887 1.09378 344.888 1.06174L340.89 0.938263C340.888 1.01097 340.887 1.08413 340.887 1.15771H344.887ZM347.887 4.15771C346.23 4.15771 344.887 2.81457 344.887 1.15771H340.887C340.887 5.02371 344.021 8.15771 347.887 8.15771V4.15771Z" fill="#EA1917" mask="url(#path-1-inside-1_1329_333687)"/>
<path d="M348 9L348 49" stroke="#E6E6E6" stroke-dasharray="2 2"/>
</svg>
