<svg width="64" height="64" viewBox="0 0 64 64" fill="none" xmlns="http://www.w3.org/2000/svg">
<path fill-rule="evenodd" clip-rule="evenodd" d="M9.62891 14.0527C9.21469 14.0527 8.87891 14.3885 8.87891 14.8027C8.87891 15.2169 9.21469 15.5527 9.62891 15.5527H15.325L24.1133 39.1494C24.9468 41.3881 27.0818 42.8737 29.4716 42.8737H49.395C49.8092 42.8737 50.145 42.5379 50.145 42.1237C50.145 41.7094 49.8092 41.3737 49.395 41.3737H29.4716C27.7092 41.3737 26.1343 40.2784 25.5191 38.626L25.5191 38.626L24.3242 35.4179H44.3431C47.8362 35.4179 50.925 33.1762 51.7894 29.9163L51.7895 29.9161L55.0968 17.4561C55.1565 17.231 55.1083 16.991 54.9663 16.8064C54.8244 16.6218 54.6047 16.5137 54.3719 16.5137H44.5952C44.181 16.5137 43.8452 16.8494 43.8452 17.2637C43.8452 17.6779 44.181 18.0137 44.5952 18.0137H53.3968L50.3396 29.5314L50.3396 29.5316C49.6634 32.0822 47.2111 33.9179 44.3431 33.9179H23.7656L16.5488 14.541C16.4395 14.2474 16.1592 14.0527 15.846 14.0527H9.62891ZM23.4382 52.066C23.4382 50.7633 24.4935 49.7081 25.7943 49.7081C27.0951 49.7081 28.1503 50.7633 28.1503 52.066C28.1503 53.3686 27.0951 54.4239 25.7943 54.4239C24.4935 54.4239 23.4382 53.3686 23.4382 52.066ZM25.7943 48.2081C23.6642 48.2081 21.9382 49.9357 21.9382 52.066C21.9382 54.1962 23.6642 55.9239 25.7943 55.9239C27.9243 55.9239 29.6503 54.1962 29.6503 52.066C29.6503 49.9357 27.9243 48.2081 25.7943 48.2081ZM48.1582 49.7081C46.8575 49.7081 45.8022 50.7633 45.8022 52.066C45.8022 53.3686 46.8575 54.4239 48.1582 54.4239C49.459 54.4239 50.5143 53.3686 50.5143 52.066C50.5143 50.7633 49.459 49.7081 48.1582 49.7081ZM44.3022 52.066C44.3022 49.9357 46.0282 48.2081 48.1582 48.2081C50.2883 48.2081 52.0143 49.9357 52.0143 52.066C52.0143 54.1962 50.2883 55.9239 48.1582 55.9239C46.0282 55.9239 44.3022 54.1962 44.3022 52.066Z" fill="#1A1A1A"/>
<path d="M32.5977 17.075L34.9976 19.775L39.7976 14.375" stroke="#1A1A1A" stroke-width="1.5" stroke-linecap="round" stroke-linejoin="round"/>
<rect x="27.9473" y="8.82422" width="16.4999" height="16.4999" rx="8.24996" stroke="#1A1A1A" stroke-width="1.5"/>
</svg>
