<svg width="61" height="60" viewBox="0 0 61 60" fill="none" xmlns="http://www.w3.org/2000/svg">
<path fill-rule="evenodd" clip-rule="evenodd" d="M30.3828 56C44.7422 56 56.3828 44.3594 56.3828 30C56.3828 15.6406 44.7422 4 30.3828 4C16.0234 4 4.38281 15.6406 4.38281 30C4.38281 44.3594 16.0234 56 30.3828 56ZM30.3828 58C45.8468 58 58.3828 45.464 58.3828 30C58.3828 14.536 45.8468 2 30.3828 2C14.9188 2 2.38281 14.536 2.38281 30C2.38281 45.464 14.9188 58 30.3828 58ZM42.3031 23.1541C42.7703 23.6624 42.737 24.4531 42.2287 24.9203L28.0859 37.9203C27.6076 38.3599 26.8723 38.3599 26.394 37.9203L18.5369 30.6981C18.0286 30.2309 17.9953 29.4401 18.4625 28.9319C18.9297 28.4236 19.7205 28.3903 20.2287 28.8575L27.2399 35.3022L40.5369 23.0797C41.0451 22.6125 41.8359 22.6458 42.3031 23.1541Z" fill="#EA1917"/>
</svg>
