<svg width="48" height="48" viewBox="0 0 48 48" fill="none" xmlns="http://www.w3.org/2000/svg">
<path fill-rule="evenodd" clip-rule="evenodd" d="M29.9394 9.78571H35.8788C36.1423 9.78571 36.5 10.0386 36.5 10.5306V43.7551C36.5 44.2471 36.1423 44.5 35.8788 44.5H12.1212C11.8577 44.5 11.5 44.2471 11.5 43.7551V10.5306C11.5 10.0386 11.8577 9.78571 12.1212 9.78571H18.0606C19.2056 9.78571 19.9848 8.83536 19.9848 7.83673V4.2449C19.9848 3.75291 20.3425 3.5 20.6061 3.5H27.3939C27.6575 3.5 28.0152 3.75291 28.0152 4.2449V7.83673C28.0152 8.83536 28.7944 9.78571 29.9394 9.78571ZM35.8788 8.28571H29.9394C29.7018 8.28571 29.5152 8.08816 29.5152 7.83673V4.2449C29.5152 3.00571 28.5648 2 27.3939 2H20.6061C19.4352 2 18.4848 3.00571 18.4848 4.2449V7.83673C18.4848 8.08816 18.2982 8.28571 18.0606 8.28571H12.1212C10.9503 8.28571 10 9.29143 10 10.5306V43.7551C10 44.9943 10.9503 46 12.1212 46H35.8788C37.0497 46 38 44.9943 38 43.7551V10.5306C38 9.29143 37.0497 8.28571 35.8788 8.28571ZM24.2409 18.3046C24.4091 17.9261 24.2387 17.4829 23.8602 17.3146C23.4816 17.1464 23.0384 17.3169 22.8702 17.6954L19.3146 25.6954C19.2115 25.9274 19.2328 26.1958 19.3711 26.4087C19.5095 26.6216 19.7461 26.75 20 26.75H26.8459L23.7591 33.6954C23.5909 34.0739 23.7613 34.5171 24.1398 34.6854C24.5184 34.8536 24.9616 34.6831 25.1298 34.3046L28.6854 26.3046C28.7885 26.0726 28.7672 25.8042 28.6289 25.5913C28.4905 25.3784 28.2539 25.25 28 25.25H21.1541L24.2409 18.3046Z" fill="black"/>
</svg>
