<svg width="64" height="64" viewBox="0 0 64 64" fill="none" xmlns="http://www.w3.org/2000/svg">
<circle cx="32" cy="32" r="32" fill="#CACACA"/>
<rect x="16" y="28.001" width="3" height="9.6" rx="1.5" transform="rotate(-45 16 28.001)" fill="#333333"/>
<rect x="28" y="16.8008" width="3" height="8" rx="1.5" fill="#B3B3B3"/>
<rect x="33" y="13.6006" width="3" height="11.2" rx="1.5" fill="#B3B3B3"/>
<rect x="45.6001" y="26" width="3" height="9.6" rx="1.5" transform="rotate(45 45.6001 26)" fill="#333333"/>
<path fill-rule="evenodd" clip-rule="evenodd" d="M31.9356 39.0714C31.5972 39.0077 31.2348 39.0617 30.9124 39.2505L21.3689 44.838C20.654 45.2566 20.4067 46.1795 20.8166 46.8995C21.2264 47.6194 22.1383 47.8637 22.8532 47.4451L31.8065 42.2031L40.937 47.5488C41.6519 47.9674 42.5637 47.7231 42.9736 47.0032C43.3835 46.2832 43.1362 45.3603 42.4213 44.9417L32.7423 39.2749C32.4878 39.1259 32.2084 39.0609 31.9356 39.0714Z" fill="#333333"/>
</svg>
