<svg width="67" height="64" viewBox="0 0 67 64" fill="none" xmlns="http://www.w3.org/2000/svg">
<path fill-rule="evenodd" clip-rule="evenodd" d="M11.5 15.0742C11.5 14.66 11.8358 14.3242 12.25 14.3242H16.2166C16.9908 14.3242 17.6788 14.8308 17.8954 15.5842C18.3561 17.1868 18.8309 18.9003 19.3068 20.6621H49.5967C51.4758 20.6621 52.8014 22.5047 52.2041 24.2863L47.8553 37.2572C47.2064 39.1929 45.3932 40.4973 43.3517 40.4973H24.3306C24.5198 41.2831 24.6818 41.9603 24.8118 42.5059C24.9458 43.0684 25.4462 43.4631 26.0306 43.4631H46.5277C46.9419 43.4631 47.2777 43.7989 47.2777 44.2131C47.2777 44.6273 46.9419 44.9631 46.5277 44.9631H45.6747C46.0009 45.4444 46.1917 46.0246 46.1917 46.6504C46.1917 48.3274 44.8223 49.6759 43.1466 49.6759C41.471 49.6759 40.1016 48.3274 40.1016 46.6504C40.1016 46.0246 40.2923 45.4444 40.6185 44.9631H31.6005C31.9267 45.4444 32.1174 46.0246 32.1174 46.6504C32.1174 48.3274 30.748 49.6759 29.0724 49.6759C27.3967 49.6759 26.0273 48.3274 26.0273 46.6504C26.0273 46.0246 26.2181 45.4444 26.5443 44.9631H26.0306C24.7578 44.9631 23.649 44.0976 23.3526 42.8536C22.2956 38.4177 19.1318 25.3145 16.4538 15.9987C16.4246 15.8974 16.3318 15.8242 16.2166 15.8242H12.25C11.8358 15.8242 11.5 15.4884 11.5 15.0742ZM23.9681 38.9973C22.9247 34.6934 21.332 28.25 19.7093 22.1621H49.5967C50.4509 22.1621 51.0534 22.9996 50.7819 23.8095L46.4331 36.7804C45.9891 38.1048 44.7485 38.9973 43.3517 38.9973H23.9681ZM27.5273 46.6504C27.5273 45.814 28.213 45.125 29.0724 45.125C29.9318 45.125 30.6174 45.814 30.6174 46.6504C30.6174 47.4869 29.9318 48.1759 29.0724 48.1759C28.213 48.1759 27.5273 47.4869 27.5273 46.6504ZM43.1466 45.125C42.2872 45.125 41.6016 45.814 41.6016 46.6504C41.6016 47.4869 42.2872 48.1759 43.1466 48.1759C44.006 48.1759 44.6917 47.4869 44.6917 46.6504C44.6917 45.814 44.006 45.125 43.1466 45.125ZM31.4102 29.4282C31.4102 28.1151 32.4085 27.1211 33.5555 27.1211C34.2147 27.1211 34.7201 27.4414 35.0496 27.9829C35.1856 28.2066 35.4285 28.3431 35.6903 28.3431C35.9521 28.3431 36.195 28.2066 36.3311 27.9829C36.6605 27.4414 37.1659 27.1211 37.8251 27.1211C38.9721 27.1211 39.9705 28.1151 39.9705 29.4282C39.9705 30.0163 39.7669 30.5466 39.4373 30.9504L39.4143 30.9767C39.4042 30.9884 39.3943 31.0004 39.3849 31.0127C39.3632 31.0409 39.3332 31.0754 39.2928 31.1157L39.292 31.1165C38.5709 31.8384 37.3493 33.0024 35.8521 34.3609C35.7602 34.4443 35.6204 34.4443 35.5285 34.3609C34.0313 33.0024 32.8098 31.8384 32.0886 31.1165L32.0878 31.1157C32.0474 31.0754 32.0174 31.0409 31.9957 31.0127C31.9863 31.0004 31.9765 30.9884 31.9663 30.9767L31.9433 30.9504C31.6137 30.5466 31.4102 30.0163 31.4102 29.4282ZM33.5555 25.6211C31.5042 25.6211 29.9102 27.3646 29.9102 29.4282C29.9102 30.3728 30.2403 31.2422 30.7918 31.9117C30.7963 31.9172 30.8009 31.9227 30.8056 31.928L30.8224 31.9473C30.8853 32.0272 30.9543 32.1036 31.0274 32.1766C31.7709 32.9209 33.0114 34.1024 34.5205 35.4717C35.1843 36.074 36.1963 36.074 36.8601 35.4717C38.3689 34.1027 39.6092 32.9213 40.3528 32.177C40.4261 32.1039 40.4952 32.0273 40.5582 31.9473L40.575 31.928C40.5797 31.9227 40.5843 31.9172 40.5888 31.9117C41.1403 31.2422 41.4705 30.3728 41.4705 29.4282C41.4705 27.3646 39.8764 25.6211 37.8251 25.6211C36.9721 25.6211 36.2465 25.9263 35.6903 26.4262C35.1341 25.9263 34.4085 25.6211 33.5555 25.6211Z" fill="black"/>
</svg>
