<svg width="48" height="49" viewBox="0 0 48 49" fill="none" xmlns="http://www.w3.org/2000/svg">
<path d="M37.1544 22.6895V14.4297L26.1544 3.42969H6.15437C5.77777 3.42969 5.41659 3.57928 5.15028 3.84558C4.88398 4.11188 4.73437 4.47306 4.73438 4.84967V34.6997C4.73437 36.1982 5.32964 37.6352 6.38922 38.6948C7.4488 39.7544 8.8859 40.3497 10.3844 40.3497H21.0039" stroke="black" stroke-width="1.5" stroke-linecap="round" stroke-linejoin="round"/>
<path d="M34.3834 39.548C38.3489 39.548 41.5636 36.3333 41.5636 32.3677C41.5636 28.4022 38.3489 25.1875 34.3834 25.1875C30.4178 25.1875 27.2031 28.4022 27.2031 32.3677C27.2031 36.3333 30.4178 39.548 34.3834 39.548Z" stroke="black" stroke-width="1.5" stroke-linecap="round" stroke-linejoin="round"/>
<path d="M34.8519 39.5263L30.1346 47.1866L28.2143 43.0538L23.6641 43.2104L28.1517 35.9258" stroke="black" stroke-width="1.5" stroke-linecap="round" stroke-linejoin="round"/>
<path d="M34.3906 39.5479L38.753 47.1247L40.7777 43.0441L45.328 43.3363L40.8507 35.5508" stroke="black" stroke-width="1.5" stroke-linecap="round" stroke-linejoin="round"/>
<path d="M12.4531 13.3906H19.7431" stroke="black" stroke-width="1.5" stroke-linecap="round" stroke-linejoin="round"/>
<path d="M12.4531 18.1719H19.7431" stroke="black" stroke-width="1.5" stroke-linecap="round" stroke-linejoin="round"/>
<path d="M12.4531 22.9375H23.4631" stroke="black" stroke-width="1.5" stroke-linecap="round" stroke-linejoin="round"/>
<path d="M12.4531 27.7109H23.4631" stroke="black" stroke-width="1.5" stroke-linecap="round" stroke-linejoin="round"/>
<path d="M37.1506 14.4297H28.9606C28.2118 14.427 27.4945 14.1277 26.966 13.5973C26.4374 13.0668 26.1406 12.3485 26.1406 11.5997V3.42969" stroke="black" stroke-width="1.5" stroke-linecap="round" stroke-linejoin="round"/>
</svg>
