<?xml version="1.0" encoding="utf-8"?>
<!-- Generator: Adobe Illustrator 24.2.3, SVG Export Plug-In . SVG Version: 6.00 Build 0)  -->
<svg version="1.1" id="Layer_1" xmlns="http://www.w3.org/2000/svg" xmlns:xlink="http://www.w3.org/1999/xlink" x="0px" y="0px"
	 width="24px" height="24px" viewBox="0 0 24 24" style="enable-background:new 0 0 24 24;" xml:space="preserve">
<style type="text/css">
	.st0{fill:none;stroke:#EA1917;stroke-width:1.5;stroke-miterlimit:10;}
	.st1{fill:#EA1917;}
</style>
<line class="st0" x1="19.2" y1="5" x2="4.4" y2="18.8"/>
<g>
	<path class="st1" d="M4.9,16l1.1-1c-1-0.8-1.8-1.8-2.4-2.9C5.2,9,8.3,6.9,12,6.9c0.8,0,1.6,0.1,2.4,0.3L15.7,6
		c-1.2-0.4-2.4-0.6-3.7-0.6c-4.4,0-8.2,2.6-9.9,6.3c-0.1,0.2-0.1,0.4,0,0.6C2.7,13.7,3.7,15,4.9,16z"/>
	<path class="st1" d="M14.7,11.9c0,1.4-1.2,2.6-2.6,2.6c-0.9,0-1.6-0.4-2.1-1.1l-1.1,1c0.7,1,1.9,1.6,3.2,1.6c2.3,0,4.1-1.8,4.1-4.1
		c0-1.2-0.5-2.3-1.4-3l-1.1,1C14.4,10.4,14.7,11.1,14.7,11.9z"/>
	<path class="st1" d="M8,11.9c0,0.4,0.1,0.7,0.1,1l1.4-1.3c0.1-1.3,1.2-2.4,2.6-2.4c0,0,0,0,0,0L13.5,8c-0.4-0.2-0.9-0.3-1.4-0.3
		C9.9,7.8,8,9.6,8,11.9z"/>
	<path class="st1" d="M21.9,11.7c-1-2.1-2.7-3.9-4.7-5L16,7.8c1.9,0.9,3.4,2.4,4.4,4.2c-1.6,3-4.7,5.1-8.4,5.1
		c-1.7,0-3.3-0.5-4.6-1.2l-1.2,1.1c1.7,1,3.7,1.6,5.8,1.6c4.4,0,8.2-2.6,9.9-6.3C22,12.1,22,11.9,21.9,11.7z"/>
</g>
</svg>
