<svg width="24" height="25" viewBox="0 0 24 25" fill="none" xmlns="http://www.w3.org/2000/svg">
<path fill-rule="evenodd" clip-rule="evenodd" d="M4 3.35937C4 2.80709 4.44772 2.35938 5 2.35938H19C19.5503 2.35938 20 2.80366 20 3.35789V3.37107V3.38441V3.39791V3.41157V3.42539V3.43937V3.45351V3.4678V3.48226V3.49687V3.51164V3.52656V3.54164V3.55687V3.57226V3.58781V3.60351V3.61936V3.63537V3.65152V3.66784V3.6843V3.70091V3.71768V3.73459V3.75166V3.76887V3.78624V3.80375V3.82142V3.83923V3.85718V3.87529V3.89354V3.91194V3.93048V3.94917V3.968V3.98698V4.0061V4.02537V4.04478V4.06433V4.08402V4.10386V4.12384V4.14395V4.16421V4.18461V4.20515V4.22583V4.24664V4.2676V4.28869V4.30992V4.33128V4.35279V4.37443V4.3962V4.41811V4.44016V4.46234V4.48465V4.5071V4.52968V4.55239V4.57523V4.59821V4.62132V4.64455V4.66792V4.69142V4.71505V4.73881V4.76269V4.78671V4.81085V4.83512V4.85951V4.88404V4.90868V4.93346V4.95836V4.98338V5.00853V5.0338V5.0592V5.08472V5.11036V5.13612V5.162V5.18801V5.21413V5.24038V5.26675V5.29323V5.31984V5.34656V5.3734V5.40036V5.42744V5.45463V5.48194V5.50937V5.53691V5.56456V5.59233V5.62022V5.64822V5.67633V5.70455V5.73289V5.76134V5.7899V5.81857V5.84735V5.87624V5.90525V5.93436V5.96358V5.99291V6.02234V6.05189V6.08154V6.11129V6.14116V6.17113V6.2012V6.23138V6.26167V6.29206V6.32255V6.35315V6.38384V6.41464V6.44555V6.47655V6.50766V6.53886V6.57017V6.60157V6.63308V6.66468V6.69638V6.72818V6.76008V6.79207V6.82416V6.85635V6.88863V6.92101V6.95348V6.98604V7.0187V7.05146V7.08431V7.11725V7.15028V7.1834V7.21662V7.24992V7.28332V7.3168V7.35038V7.38405V7.4178V7.45164V7.48557V7.51959V7.55369V7.58788V7.62216V7.65652V7.69097V7.7255V7.76012V7.79482V7.8296V7.86446V7.89941V7.93444V7.96956V8.00475V8.04003V8.07538V8.11082V8.14633V8.18192V8.2176V8.25335V8.28917V8.32508V8.36106V8.39712V8.43325V8.46946V8.50575V8.5421V8.57854V8.61505V8.65163V8.68828V8.725V8.7618V8.79867V8.83561V8.87262V8.9097V8.94686V8.98408V9.02137V9.05872V9.09615V9.13364V9.1712V9.20883V9.24652V9.28428V9.32211V9.36V9.39795V9.43597V9.47405V9.5122V9.55041V9.58868V9.62701V9.6654V9.70386V9.74237V9.78095V9.81958V9.85827V9.89703V9.93584V9.97471V10.0136V10.0526V10.0917V10.1308V10.1699V10.2091V10.2484V10.2877V10.3271V10.3665V10.406V10.4455V10.4851V10.5247V10.5644V10.6041V10.6439V10.6838V10.7236V10.7636V10.8036V10.8436V10.8837V10.9238V10.964V11.0042V11.0445V11.0848V11.1251V11.1655V11.206V11.2465V11.287V11.3276V11.3682V11.4089V11.4496V11.4903V11.5311V11.5719V11.6128V11.6537V11.6947V11.7356V11.7767V11.8177V11.8588V11.8999V11.9411V11.9823V12.0236V12.0648V12.1062V12.1475V12.1889V12.2303V12.2717V12.3132V12.3547V12.3963V12.4378V12.4794V12.5211V12.5627V12.6044V12.6461V12.6879V12.7297V12.7715V12.8133V12.8552V12.8971V12.939V12.9809V13.0229V13.0649V13.1069V13.1489V13.191V13.233V13.2751V13.3173V13.3594V13.4016V13.4438V13.486V13.5282V13.5705V13.6127V13.655V13.6973V13.7396V13.782V13.8243V13.8667V13.9091V13.9515V13.9939V14.0363V14.0788V14.1212V14.1637V14.2062V14.2487V14.2912V14.3337V14.3762V14.4188V14.4613V14.5039V14.5464V14.589V14.6316V14.6742V14.7168V14.7594V14.802V14.8447V14.8873V14.9299V14.9725V15.0152V15.0578V15.1005V15.1431V15.1858V15.2284V15.2711V15.3138V15.3564V15.3991V15.4417V15.4844V15.5271V15.5697V15.6124V15.655V15.6977V15.7403V15.783V15.8256V15.8683V15.9109V15.9535V15.9961V16.0387V16.0813V16.124V16.1665V16.2091V16.2517V16.2943V16.3368V16.3794V16.4219V16.4644V16.507V16.5495V16.592V16.6344V16.6769V16.7194V16.7618V16.8042V16.8466V16.889V16.9314V16.9738V17.0161V17.0585V17.1008V17.1431V17.1854V17.2276V17.2699V17.3121V17.3543V17.3965V17.4386V17.4808V17.5229V17.565V17.6071V17.6491V17.6912V17.7332V17.7752V17.8171V17.859V17.9009V17.9428V17.9847V18.0265V18.0683V18.1101V18.1518V18.1935V18.2352V18.2769V18.3185V18.3601V18.4017V18.4432V18.4847V18.5262V18.5676V18.609V18.6504V18.6917V18.733V18.7743V18.8155V18.8567V18.8979V18.939V18.9801V19.0212V19.0622V19.1032V19.1441V19.185V19.2259V19.2667V19.3074V19.3482V19.3889V19.4295V19.4701V19.5107V19.5512V19.5917V19.6322V19.6726V19.7129V19.7532V19.7935V19.8337V19.8738V19.914V19.954V19.994V20.034V20.0739V20.1138V20.1537V20.1934V20.2332V20.2728V20.3125V20.352V20.3915V20.431V20.4704V20.5098V20.5491V20.5883V20.6275V20.6667V20.7058V20.7448V20.7838V20.8227V20.8615V20.9003V20.9391V20.9778V21.0164V21.0549V21.0934V21.1319V21.1703V21.2086V21.2468V21.285V21.3232V21.3612C20 21.9166 19.5492 22.3589 19 22.3589H5C4.44772 22.3589 4 21.9112 4 21.3589V3.35937ZM19 3.35938L9 3.35937V21.3589H19V21.3232V21.285V21.2468V21.2086V21.1703V21.1319V21.0934V21.0549V21.0164V20.9778V20.9391V20.9003V20.8615V20.8227V20.7838V20.7448V20.7058V20.6667V20.6275V20.5883V20.5491V20.5098V20.4704V20.431V20.3915V20.352V20.3125V20.2728V20.2332V20.1934V20.1537V20.1138V20.0739V20.034V19.994V19.954V19.914V19.8738V19.8337V19.7935V19.7532V19.7129V19.6726V19.6322V19.5917V19.5512V19.5107V19.4701V19.4295V19.3889V19.3482V19.3074V19.2667V19.2259V19.185V19.1441V19.1032V19.0622V19.0212V18.9801V18.939V18.8979V18.8567V18.8155V18.7743V18.733V18.6917V18.6504V18.609V18.5676V18.5262V18.4847V18.4432V18.4017V18.3601V18.3185V18.2769V18.2352V18.1935V18.1518V18.1101V18.0683V18.0265V17.9847V17.9428V17.9009V17.859V17.8171V17.7752V17.7332V17.6912V17.6491V17.6071V17.565V17.5229V17.4808V17.4386V17.3965V17.3543V17.3121V17.2699V17.2276V17.1854V17.1431V17.1008V17.0585V17.0161V16.9738V16.9314V16.889V16.8466V16.8042V16.7618V16.7194V16.6769V16.6344V16.592V16.5495V16.507V16.4644V16.4219V16.3794V16.3368V16.2943V16.2517V16.2091V16.1665V16.124V16.0813V16.0387V15.9961V15.9535V15.9109V15.8683V15.8256V15.783V15.7403V15.6977V15.655V15.6124V15.5697V15.5271V15.4844V15.4417V15.3991V15.3564V15.3138V15.2711V15.2284V15.1858V15.1431V15.1005V15.0578V15.0152V14.9725V14.9299V14.8873V14.8447V14.802V14.7594V14.7168V14.6742V14.6316V14.589V14.5464V14.5039V14.4613V14.4188V14.3762V14.3337V14.2912V14.2487V14.2062V14.1637V14.1212V14.0788V14.0363V13.9939V13.9515V13.9091V13.8667V13.8243V13.782V13.7396V13.6973V13.655V13.6127V13.5705V13.5282V13.486V13.4438V13.4016V13.3594V13.3173V13.2751V13.233V13.191V13.1489V13.1069V13.0649V13.0229V12.9809V12.939V12.8971V12.8552V12.8133V12.7715V12.7297V12.6879V12.6461V12.6044V12.5627V12.5211V12.4794V12.4378V12.3963V12.3547V12.3132V12.2717V12.2303V12.1889V12.1475V12.1062V12.0648V12.0236V11.9823V11.9411V11.8999V11.8588V11.8177V11.7767V11.7356V11.6947V11.6537V11.6128V11.5719V11.5311V11.4903V11.4496V11.4089V11.3682V11.3276V11.287V11.2465V11.206V11.1655V11.1251V11.0848V11.0445V11.0042V10.964V10.9238V10.8837V10.8436V10.8036V10.7636V10.7236V10.6838V10.6439V10.6041V10.5644V10.5247V10.4851V10.4455V10.406V10.3665V10.3271V10.2877V10.2484V10.2091V10.1699V10.1308V10.0917V10.0526V10.0136V9.97471V9.93584V9.89703V9.85827V9.81958V9.78095V9.74237V9.70386V9.6654V9.62701V9.58868V9.55041V9.5122V9.47405V9.43597V9.39795V9.36V9.32211V9.28428V9.24652V9.20883V9.1712V9.13364V9.09615V9.05872V9.02137V8.98408V8.94686V8.9097V8.87262V8.83561V8.79867V8.7618V8.725V8.68828V8.65163V8.61505V8.57854V8.5421V8.50575V8.46946V8.43325V8.39712V8.36106V8.32508V8.28917V8.25335V8.2176V8.18192V8.14633V8.11082V8.07538V8.04003V8.00475V7.96956V7.93444V7.89941V7.86446V7.8296V7.79482V7.76012V7.7255V7.69097V7.65652V7.62216V7.58788V7.55369V7.51959V7.48557V7.45164V7.4178V7.38405V7.35038V7.3168V7.28332V7.24992V7.21662V7.1834V7.15028V7.11725V7.08431V7.05146V7.0187V6.98604V6.95348V6.92101V6.88863V6.85635V6.82416V6.79207V6.76008V6.72818V6.69638V6.66468V6.63308V6.60157V6.57017V6.53886V6.50766V6.47655V6.44555V6.41464V6.38384V6.35315V6.32255V6.29206V6.26167V6.23138V6.2012V6.17113V6.14116V6.11129V6.08154V6.05189V6.02234V5.99291V5.96358V5.93436V5.90525V5.87624V5.84735V5.81857V5.7899V5.76134V5.73289V5.70455V5.67633V5.64822V5.62022V5.59233V5.56456V5.53691V5.50937V5.48194V5.45463V5.42744V5.40036V5.3734V5.34656V5.31984V5.29323V5.26675V5.24038V5.21413V5.18801V5.162V5.13612V5.11036V5.08472V5.0592V5.0338V5.00853V4.98338V4.95836V4.93346V4.90868V4.88404V4.85951V4.83512V4.81085V4.78671V4.76269V4.73881V4.71505V4.69142V4.66792V4.64455V4.62132V4.59821V4.57523V4.55239V4.52968V4.5071V4.48465V4.46234V4.44016V4.41811V4.3962V4.37443V4.35279V4.33128V4.30992V4.28869V4.2676V4.24664V4.22583V4.20515V4.18461V4.16421V4.14395V4.12384V4.10386V4.08402V4.06433V4.04478V4.02537V4.0061V3.98698V3.968V3.94917V3.93048V3.91194V3.89354V3.87529V3.85718V3.83923V3.82142V3.80375V3.78624V3.76887V3.75166V3.73459V3.71768V3.70091V3.6843V3.66784V3.65152V3.63537V3.61936V3.60351V3.58781V3.57226V3.55687V3.54164V3.52656V3.51164V3.49687V3.48226V3.4678V3.45351V3.43937V3.42539V3.41157V3.39791V3.38441V3.37107V3.35938ZM5 3.35937L8 3.35937V21.3589H5V3.35937ZM19.0008 3.3594L19.0007 3.35936L19.0006 3.35924C19.0006 3.35923 19.0006 3.35926 19.0008 3.35932L19.0011 3.35944L19.0008 3.35941L19.0008 3.3594ZM12 6.60742C11.7239 6.60742 11.5 6.83128 11.5 7.10742C11.5 7.38356 11.7239 7.60742 12 7.60742H16C16.2761 7.60742 16.5 7.38356 16.5 7.10742C16.5 6.83128 16.2761 6.60742 16 6.60742H12Z" fill="black"/>
</svg>
