<svg width="17" height="17" viewBox="0 0 17 17" fill="none" xmlns="http://www.w3.org/2000/svg">
<path fill-rule="evenodd" clip-rule="evenodd" d="M14.5026 6.24707C14.5026 6.66128 14.8384 6.99707 15.2526 6.99707C15.6668 6.99707 16.0026 6.66128 16.0026 6.24707V1.74808V1.74707C16.0026 1.33286 15.6668 0.99707 15.2526 0.99707C15.2395 0.99707 15.2264 0.997409 15.2134 0.998077H10.7526C10.3384 0.998077 10.0026 1.33386 10.0026 1.74808C10.0026 2.16229 10.3384 2.49808 10.7526 2.49808H13.4749L7.07851 9.23292C6.79326 9.53326 6.8055 10.008 7.10584 10.2932C7.40618 10.5785 7.8809 10.5662 8.16615 10.2659L14.5026 3.59416V6.24707ZM1.49969 4.48929H7.24969C7.66391 4.48929 7.99969 4.1535 7.99969 3.73929C7.99969 3.32507 7.66391 2.98929 7.24969 2.98929H0.749695C0.335481 2.98929 -0.000305176 3.32507 -0.000305176 3.73929L-0.000285915 3.74472L-0.000305176 3.75015V16.2502C-0.000305176 16.6644 0.335482 17.0002 0.749695 17.0002H13.2497H13.2502H13.2507C13.6649 17.0002 14.0007 16.6644 14.0007 16.2502V9.75015C14.0007 9.33594 13.6649 9.00015 13.2507 9.00015C12.8365 9.00015 12.5007 9.33594 12.5007 9.75015V15.5002H1.4997L1.49969 4.48929Z" fill="#333333"/>
</svg>
