<svg width="48" height="49" viewBox="0 0 48 49" fill="none" xmlns="http://www.w3.org/2000/svg">
<path fill-rule="evenodd" clip-rule="evenodd" d="M2.75 7.50098H2V8.25098V26.1766V36.063V36.813H2.75H5.93811C6.191 39.4436 8.40751 41.5005 11.1044 41.5005C13.8014 41.5005 16.0179 39.4436 16.2708 36.813H28.6964V36.8131H29.4463H32.7311C32.984 39.4437 35.2005 41.5005 37.8974 41.5005C40.5943 41.5005 42.8108 39.4437 43.0637 36.8131H46.2523H47.0023V36.0631V27.1244V26.6378L46.5579 26.4395L42.9601 24.8342L37.8613 13.9937L37.6587 13.5629H37.1827H30.1934V8.25098V7.50098H29.4434H2.75ZM37.8974 31.1198C35.3719 31.1198 33.2676 32.9236 32.8027 35.3131H30.1962L30.1954 25.938H41.7528L45.5023 27.611V35.3131H42.9921C42.5272 32.9236 40.4229 31.1198 37.8974 31.1198ZM16.1991 35.313H28.6934V26.9266L3.5 26.9266V35.313H6.00975C6.47473 32.9235 8.57894 31.1198 11.1044 31.1198C13.6299 31.1198 15.7342 32.9235 16.1991 35.313ZM28.6934 25.4266V9.00098H3.5V25.4266L28.6934 25.4266ZM30.1954 24.438V15.0629H36.7066L41.1162 24.438H30.1954ZM14.7948 36.3102C14.7948 38.3483 13.1426 40.0005 11.1044 40.0005C9.0663 40.0005 7.41406 38.3483 7.41406 36.3102C7.41406 34.272 9.0663 32.6198 11.1044 32.6198C13.1426 32.6198 14.7948 34.272 14.7948 36.3102ZM37.8974 40.0005C39.9356 40.0005 41.5878 38.3483 41.5878 36.3102C41.5878 34.272 39.9356 32.6198 37.8974 32.6198C35.8593 32.6198 34.207 34.272 34.207 36.3102C34.207 38.3483 35.8593 40.0005 37.8974 40.0005ZM6.16366 20.501H7.35166V17.828H9.81766V16.865H7.35166V15.416H10.0067V14.453H6.16366V20.501ZM12.2296 17.162V15.416H13.3726C13.6846 15.416 13.9246 15.488 14.0926 15.632C14.2666 15.776 14.3536 15.995 14.3536 16.289C14.3536 16.583 14.2666 16.802 14.0926 16.946C13.9246 17.09 13.6846 17.162 13.3726 17.162H12.2296ZM11.0416 14.453V20.501H12.2296V18.125H13.3276L14.5606 20.501H15.8206L14.4886 17.936C14.8306 17.798 15.0976 17.585 15.2896 17.297C15.4876 17.003 15.5866 16.667 15.5866 16.289C15.5866 15.671 15.4006 15.212 15.0286 14.912C14.6566 14.606 14.1076 14.453 13.3816 14.453H11.0416ZM20.9279 20.501V19.538H18.0479V17.819H20.7389V16.874H18.0479V15.416H20.8379V14.453H16.8599V20.501H20.9279ZM26.1662 20.501V19.538H23.2862V17.819H25.9772V16.874H23.2862V15.416H26.0762V14.453H22.0982V20.501H26.1662Z" fill="black"/>
</svg>
