<svg width="64" height="64" viewBox="0 0 64 64" fill="none" xmlns="http://www.w3.org/2000/svg">
<path d="M36.25 9H4.25C3.42157 9 2.75 9.67157 2.75 10.5V53.5C2.75 54.3284 3.42157 55 4.25 55H36.25C37.0784 55 37.75 54.3284 37.75 53.5V10.5C37.75 9.67157 37.0784 9 36.25 9Z" stroke="black" stroke-width="1.5"/>
<circle cx="20.75" cy="13" r="1" fill="black"/>
<path d="M41 18.5C41 17.6716 41.6716 17 42.5 17H59.5C60.3284 17 61 17.6716 61 18.5V53.5C61 54.3284 60.3284 55 59.5 55H42.5C41.6716 55 41 54.3284 41 53.5V18.5Z" stroke="black" stroke-width="1.5"/>
<circle cx="51" cy="20" r="1" fill="black"/>
<path d="M53.1074 38.0888C52.5597 37.4064 51.718 36.9695 50.7741 36.9695C49.8302 36.9695 48.9885 37.4064 48.4407 38.0888M55.6664 36.2233C54.5709 34.8586 52.8875 33.9847 50.9997 33.9847C49.112 33.9847 47.4286 34.8586 46.3331 36.2233M58 34.3579C56.3567 32.3108 53.8316 31 51 31C48.1684 31 45.6433 32.3108 44 34.3579" stroke="black" stroke-width="1.5" stroke-linecap="round" stroke-linejoin="round"/>
<circle cx="50.75" cy="40.25" r="1" fill="black"/>
</svg>
