<svg width="32" height="32" viewBox="0 0 32 32" fill="none" xmlns="http://www.w3.org/2000/svg">
<path fill-rule="evenodd" clip-rule="evenodd" d="M3 6.64844C3 5.68194 3.7835 4.89844 4.75 4.89844H26.3345C27.301 4.89844 28.0845 5.68194 28.0845 6.64844V14.5498H26.5845V6.64844C26.5845 6.51037 26.4726 6.39844 26.3345 6.39844H19.7616V13.6666V14.4166H19.0116H13.0566H12.3066V13.6666V6.39844H4.75C4.61193 6.39844 4.5 6.51037 4.5 6.64844V24.3867C4.5 24.5247 4.61193 24.6367 4.75 24.6367H16.4844V26.1367H4.75C3.7835 26.1367 3 25.3532 3 24.3867V6.64844ZM13.8066 6.39844V12.9166H18.2616V6.39844H13.8066ZM23.0039 25.5639C25.4882 25.5639 27.502 23.5501 27.502 21.0659C27.502 18.5816 25.4882 16.5678 23.0039 16.5678C20.5197 16.5678 18.5059 18.5816 18.5059 21.0659C18.5059 23.5501 20.5197 25.5639 23.0039 25.5639ZM23.0039 27.0639C26.3166 27.0639 29.002 24.3785 29.002 21.0659C29.002 17.7532 26.3166 15.0678 23.0039 15.0678C19.6913 15.0678 17.0059 17.7532 17.0059 21.0659C17.0059 24.3785 19.6913 27.0639 23.0039 27.0639ZM25.5651 20.0641C25.8403 19.7545 25.8124 19.2805 25.5029 19.0053C25.1933 18.7301 24.7192 18.758 24.444 19.0675L22.3388 21.436L21.5664 20.5671C21.2912 20.2575 20.8172 20.2296 20.5076 20.5048C20.198 20.78 20.1701 21.254 20.4453 21.5636L21.7782 23.0631C21.9205 23.2233 22.1245 23.3149 22.3388 23.3149C22.553 23.3149 22.757 23.2233 22.8993 23.0631L25.5651 20.0641Z" fill="black"/>
</svg>
