<svg width="65" height="64" viewBox="0 0 65 64" fill="none" xmlns="http://www.w3.org/2000/svg">
<path fill-rule="evenodd" clip-rule="evenodd" d="M16.8228 16.8516C16.3095 16.8516 15.8484 17.1653 15.66 17.6428L10.4225 30.9176H54.7183L49.4808 17.6428C49.2924 17.1653 48.8313 16.8516 48.318 16.8516H16.8228ZM55.0705 32.4176H10.0703V45.8997C10.0703 46.5901 10.63 47.1497 11.3203 47.1497H53.8205C54.5108 47.1497 55.0705 46.5901 55.0705 45.8997V32.4176ZM14.2647 17.0923C14.6791 16.0419 15.6936 15.3516 16.8228 15.3516H48.318C49.4472 15.3516 50.4617 16.0419 50.8761 17.0923L56.5181 31.3923L56.5705 31.525V31.6676V45.8997C56.5705 47.4185 55.3393 48.6497 53.8205 48.6497H11.3203C9.80153 48.6497 8.57031 47.4185 8.57031 45.8997V31.6676V31.525L8.62265 31.3923L14.2647 17.0923ZM45.375 34.5234C42.4755 34.5234 40.125 36.8739 40.125 39.7734C40.125 42.6729 42.4755 45.0234 45.375 45.0234C48.2745 45.0234 50.625 42.6729 50.625 39.7734C50.625 36.8739 48.2745 34.5234 45.375 34.5234ZM38.625 39.7734C38.625 36.0455 41.6471 33.0234 45.375 33.0234C49.1029 33.0234 52.125 36.0455 52.125 39.7734C52.125 43.5014 49.1029 46.5234 45.375 46.5234C41.6471 46.5234 38.625 43.5014 38.625 39.7734ZM43.125 39.7734C43.125 38.5308 44.1324 37.5234 45.375 37.5234C46.6176 37.5234 47.625 38.5308 47.625 39.7734C47.625 41.0161 46.6176 42.0234 45.375 42.0234C44.1324 42.0234 43.125 41.0161 43.125 39.7734ZM45.375 36.0234C43.3039 36.0234 41.625 37.7024 41.625 39.7734C41.625 41.8445 43.3039 43.5234 45.375 43.5234C47.4461 43.5234 49.125 41.8445 49.125 39.7734C49.125 37.7024 47.4461 36.0234 45.375 36.0234Z" fill="black"/>
</svg>
