<svg width="40" height="40" viewBox="0 0 40 40" fill="none" xmlns="http://www.w3.org/2000/svg">
<path fill-rule="evenodd" clip-rule="evenodd" d="M0.000244141 0.75C0.000244141 0.335786 0.336031 0 0.750244 0H12.3004C12.7146 0 13.0504 0.335786 13.0504 0.75C13.0504 1.16421 12.7146 1.5 12.3004 1.5H1.50024V12.3079C1.50024 12.7221 1.16446 13.0579 0.750244 13.0579C0.336031 13.0579 0.000244141 12.7221 0.000244141 12.3079V0.75ZM26.9498 0.75C26.9498 0.335786 27.2856 0 27.6998 0H39.25C39.6642 0 40 0.335786 40 0.75V12.3079C40 12.7221 39.6642 13.0579 39.25 13.0579C38.8358 13.0579 38.5 12.7221 38.5 12.3079V1.5H27.6998C27.2856 1.5 26.9498 1.16421 26.9498 0.75ZM1.5 27.6914C1.5 27.2772 1.16421 26.9414 0.75 26.9414C0.335786 26.9414 0 27.2772 0 27.6914V39.2493C0 39.6636 0.335786 39.9993 0.75 39.9993H12.3002C12.7144 39.9993 13.0502 39.6636 13.0502 39.2493C13.0502 38.8351 12.7144 38.4993 12.3002 38.4993H1.5V27.6914ZM39.25 26.9414C39.6642 26.9414 40 27.2772 40 27.6914V39.2493C40 39.6636 39.6642 39.9993 39.25 39.9993H27.6998C27.2856 39.9993 26.9498 39.6636 26.9498 39.2493C26.9498 38.8351 27.2856 38.4993 27.6998 38.4993H38.5V27.6914C38.5 27.2772 38.8358 26.9414 39.25 26.9414ZM18.673 9.52051C13.6188 9.52051 9.52075 13.6206 9.52075 18.6794C9.52075 23.7381 13.6188 27.8382 18.673 27.8382C23.7271 27.8382 27.8252 23.7381 27.8252 18.6794C27.8252 13.6206 23.7271 9.52051 18.673 9.52051ZM8.02075 18.6794C8.02075 12.7931 12.7894 8.02051 18.673 8.02051C24.5565 8.02051 29.3252 12.7931 29.3252 18.6794C29.3252 21.3484 28.3447 23.7885 26.7244 25.6585L32.0762 31.0136C32.369 31.3066 32.3689 31.7815 32.0759 32.0743C31.7829 32.3671 31.308 32.3669 31.0152 32.074L25.6652 26.7207C23.7942 28.351 21.3489 29.3382 18.673 29.3382C12.7894 29.3382 8.02075 24.5656 8.02075 18.6794Z" fill="white"/>
</svg>
