<svg width="24" height="24" viewBox="0 0 24 24" fill="none" xmlns="http://www.w3.org/2000/svg">
<g clip-path="url(#clip0_4538_69634)">
<path fill-rule="evenodd" clip-rule="evenodd" d="M12.7943 4.45903C13.1147 4.20731 13.6076 4.43671 13.6076 4.86374V19.1456C13.6076 19.5612 13.1213 19.8013 12.7912 19.5479L12.7901 19.5471L8.57509 16.2596L8.4124 16.1327H8.20608H5.81374C5.0108 16.1327 4.35137 15.4732 4.35137 14.6703V9.32877C4.35137 8.52584 5.0108 7.8664 5.81374 7.8664H8.20608H8.41189L8.57437 7.74007L12.7919 4.46091L12.7919 4.46091L12.7943 4.45903ZM14.8076 4.86374C14.8076 3.4558 13.1775 2.63349 12.0542 3.51442L12.0529 3.51544L8.00027 6.6664H5.81374C4.34806 6.6664 3.15137 7.86309 3.15137 9.32877V14.6703C3.15137 16.136 4.34806 17.3327 5.81374 17.3327H7.99976L12.0546 20.4953L12.0571 20.4972C13.1706 21.3562 14.8076 20.5651 14.8076 19.1456V4.86374ZM18.5289 7.23147C18.2638 7.03264 17.8877 7.08637 17.6889 7.35147C17.4901 7.61656 17.5438 7.99264 17.8089 8.19147C18.3801 8.61985 18.8437 9.17534 19.163 9.81394C19.4823 10.4525 19.6485 11.1567 19.6485 11.8707C19.6485 12.5847 19.4823 13.2888 19.163 13.9274C18.8437 14.566 18.3801 15.1215 17.8089 15.5499C17.5438 15.7487 17.4901 16.1248 17.6889 16.3899C17.8877 16.655 18.2638 16.7087 18.5289 16.5099C19.2491 15.9698 19.8337 15.2693 20.2363 14.4641C20.6389 13.6589 20.8485 12.771 20.8485 11.8707C20.8485 10.9704 20.6389 10.0825 20.2363 9.27729C19.8337 8.47206 19.2491 7.77163 18.5289 7.23147Z" fill="black"/>
</g>
<defs>
<clipPath id="clip0_4538_69634">
<rect width="18" height="18" fill="white" transform="translate(3 3)"/>
</clipPath>
</defs>
</svg>
