<svg width="14" height="13" viewBox="0 0 14 13" fill="none" xmlns="http://www.w3.org/2000/svg">
<path stroke="black" fill-rule="evenodd" clip-rule="evenodd" d="M6.79109 10.7106L3.57551 12.4011C3.35553 12.5168 3.08344 12.4322 2.96779 12.2122C2.92174 12.1246 2.90585 12.0243 2.92258 11.9267L3.5367 8.34613C3.56174 8.20015 3.51334 8.0512 3.40728 7.94782L0.805817 5.41201C0.627849 5.23854 0.624208 4.95364 0.797683 4.77567C0.866762 4.7048 0.957276 4.65868 1.05521 4.64445L4.65035 4.12205C4.79692 4.10075 4.92362 4.00869 4.98917 3.87588L6.59697 0.618133C6.70696 0.395269 6.97679 0.303767 7.19965 0.413757C7.2884 0.457555 7.36023 0.529388 7.40403 0.618133L9.01182 3.87588C9.07737 4.00869 9.20407 4.10075 9.35064 4.12205L12.9458 4.64445C13.1917 4.68019 13.3621 4.90854 13.3264 5.15448C13.3122 5.25242 13.266 5.34294 13.1952 5.41201L10.5937 7.94782C10.4877 8.0512 10.4393 8.20015 10.4643 8.34613L11.0784 11.9267C11.1204 12.1717 10.9559 12.4043 10.711 12.4463C10.6134 12.4631 10.5131 12.4472 10.4255 12.4011L7.2099 10.7106C7.0788 10.6417 6.92219 10.6417 6.79109 10.7106Z" fill="none"/>
</svg>
