<svg width="100" height="100" viewBox="0 0 100 100" fill="none" xmlns="http://www.w3.org/2000/svg">
<g clip-path="url(#clip0_16035_404364)">
<rect width="100" height="100" fill="white"/>
<path fill-rule="evenodd" clip-rule="evenodd" d="M63.8819 29.8006C60.9295 29.0213 57.6569 29.7964 55.3429 32.1251C52.8875 34.5961 52.1676 38.1561 53.1903 41.2672C53.2783 41.5352 53.2086 41.83 53.0098 42.0301L39.3189 55.8078C39.1319 55.996 38.8595 56.0714 38.6024 56.0062C36.1896 55.3938 33.5292 56.0374 31.6423 57.9362C28.7859 60.8108 28.7859 65.4732 31.6423 68.3478C34.4961 71.2197 39.121 71.2197 41.9748 68.3478C43.8614 66.4492 44.5035 63.7695 43.8951 61.3369C43.8314 61.0821 43.9056 60.8125 44.0907 60.6262L57.653 46.9779C57.8623 46.7672 58.1763 46.6999 58.4536 46.8063C61.6237 48.0223 65.3453 47.3445 67.8991 44.7744C70.2102 42.4487 70.9837 39.1579 70.2143 36.1857L63.5453 42.897C63.4045 43.0387 63.213 43.1184 63.0133 43.1184C62.8136 43.1184 62.6221 43.0387 62.4813 42.897L57.2 37.5822C56.9093 37.2897 56.9093 36.8174 57.2 36.5249L63.8819 29.8006ZM54.2789 31.0678C57.3252 28.0021 61.7945 27.2403 65.5478 28.7809C65.7796 28.876 65.9485 29.0805 65.9982 29.326C66.0478 29.5716 65.9716 29.8257 65.7951 30.0033L58.7893 37.0536L63.0133 41.3043L70.0103 34.2629C70.188 34.0841 70.4435 34.0066 70.6906 34.0564C70.9376 34.1062 71.1431 34.2768 71.2376 34.5104C72.7622 38.2805 72.0065 42.769 68.9632 45.8317C66.1008 48.7122 61.9821 49.5588 58.3817 48.3726L45.4444 61.392C46.0038 64.1973 45.2037 67.2264 43.0388 69.4051C39.5985 72.8672 34.0186 72.8672 30.5783 69.4051C27.1406 65.9455 27.1406 60.3385 30.5783 56.8789C32.7431 54.7004 35.7557 53.8929 38.5477 54.4558L51.6299 41.2907C50.6452 37.775 51.5262 33.838 54.2789 31.0678ZM39.1952 60.7342C37.8765 59.4072 35.7406 59.4072 34.4219 60.7342C33.1007 62.0638 33.1007 64.2215 34.4219 65.5512C35.7406 66.8782 37.8765 66.8782 39.1952 65.5512C40.5164 64.2215 40.5164 62.0638 39.1952 60.7342ZM33.3579 59.6769C35.2631 57.7596 38.354 57.7596 40.2592 59.6769C42.1617 61.5915 42.1617 64.6938 40.2592 66.6085C38.354 68.5257 35.2631 68.5257 33.3579 66.6085C31.4554 64.6938 31.4554 61.5915 33.3579 59.6769Z" fill="black"/>
</g>
<defs>
<clipPath id="clip0_16035_404364">
<rect width="100" height="100" rx="50" fill="white"/>
</clipPath>
</defs>
</svg>
