<svg width="81" height="80" viewBox="0 0 81 80" fill="none" xmlns="http://www.w3.org/2000/svg">
<path fill-rule="evenodd" clip-rule="evenodd" d="M3.53516 14.75C3.53516 12.6789 5.21409 11 7.28516 11H73.2852C75.3562 11 77.0352 12.6789 77.0352 14.75V50.75C77.0352 52.8211 75.3562 54.5 73.2852 54.5H7.28516C5.21409 54.5 3.53516 52.8211 3.53516 50.75V14.75ZM7.28516 12.5C6.04252 12.5 5.03516 13.5074 5.03516 14.75V50.75C5.03516 51.9926 6.04252 53 7.28516 53H73.2852C74.5278 53 75.5352 51.9926 75.5352 50.75V14.75C75.5352 13.5074 74.5278 12.5 73.2852 12.5H7.28516Z" fill="black"/>
<rect x="30.2852" y="54" width="20" height="14" stroke="black" stroke-width="1.5"/>
<path d="M25.2852 68H55.2852" stroke="black" stroke-width="1.5" stroke-linecap="round" stroke-linejoin="round"/>
<circle cx="40.2852" cy="33" r="10" stroke="black" stroke-width="1.5"/>
<path d="M40.2852 28V29" stroke="black" stroke-width="1.5" stroke-linecap="round" stroke-linejoin="round"/>
<path d="M40.2852 32V38" stroke="black" stroke-width="1.5" stroke-linecap="round" stroke-linejoin="round"/>
</svg>
