<svg width="24" height="24" viewBox="0 0 24 24" fill="none" xmlns="http://www.w3.org/2000/svg">
<path fill-rule="evenodd" clip-rule="evenodd" d="M20.3097 19.5973C19.9274 19.5973 19.6173 19.2895 19.6173 18.91C19.6173 15.5183 17.0362 12.7442 13.7271 12.345L14.5352 18.3146C14.5695 18.6026 14.4181 18.8811 14.1566 19.0109L12.3103 19.9274C12.2129 19.9758 12.1074 20 12.001 20C11.8946 20 11.7892 19.9758 11.6917 19.9274L9.84536 19.0109C9.58393 18.8811 9.43249 18.6026 9.46675 18.3146L10.275 12.345C6.96578 12.7442 4.38472 15.5183 4.38472 18.91C4.38472 19.2895 4.07468 19.5973 3.6924 19.5973C3.31003 19.5973 3 19.2895 3 18.91C3 14.487 6.62326 10.8895 11.0778 10.8895H12.9242C17.3787 10.8895 21.0021 14.487 21.0021 18.91C21.0021 19.2895 20.692 19.5973 20.3097 19.5973ZM11.6927 12.2644L10.8992 17.9968L12.001 18.5437L13.1027 17.9968L12.3094 12.2644H11.6927ZM12.001 10.2495C9.71013 10.2495 7.84666 8.39924 7.84666 6.12464C7.84666 3.85027 9.71013 2 12.001 2C14.2918 2 16.1553 3.85027 16.1553 6.12464C16.1553 8.39924 14.2918 10.2495 12.001 10.2495ZM12.001 3.37493C10.4738 3.37493 9.23147 4.60839 9.23147 6.12464C9.23147 7.64112 10.4738 8.87448 12.001 8.87448C13.5282 8.87448 14.7705 7.64112 14.7705 6.12464C14.7705 4.60839 13.5282 3.37493 12.001 3.37493Z" fill="#333333"/>
</svg>
