<svg width="72" height="72" viewBox="0 0 72 72" fill="none" xmlns="http://www.w3.org/2000/svg">
<path fill-rule="evenodd" clip-rule="evenodd" d="M55.7847 12.2203C56.0785 11.9266 56.5548 11.9266 56.8486 12.2203L59.7797 15.1512C59.9209 15.2925 60.0002 15.4841 60 15.6839C59.9998 15.8836 59.9202 16.0751 59.7787 16.216L53.9384 22.0342C53.6452 22.3262 53.1712 22.3266 52.8775 22.0352L51.9833 21.1477L42.1458 31.0066L41.0807 29.944L50.9155 20.0878L49.9465 19.1261C49.8045 18.9852 49.7245 18.7936 49.7241 18.5936C49.7238 18.3936 49.803 18.2017 49.9445 18.0603L55.7847 12.2203ZM53.4065 20.4404L53.046 20.0827L53.0516 20.0771L51.9866 19.0145L51.9782 19.0229L51.5422 18.5902L56.3167 13.816L58.1829 15.6821L53.4065 20.4404Z" fill="black"/>
<path d="M27.3286 38.4752L14.7412 51.0391C13.0939 52.6678 13.0896 55.317 14.7442 56.9715L15.0286 57.2559C16.6816 58.9088 19.3332 58.9088 20.9862 57.2559L33.5487 44.6941L34.6125 45.7579L22.0501 58.3197C19.8095 60.5601 16.2053 60.5601 13.9648 58.3197L13.6804 58.0353C11.442 55.797 11.4372 52.1916 13.6821 49.9706L26.2657 37.4105L27.3286 38.4752Z" fill="black"/>
<path d="M30.9588 42.1057L29.8949 41.0419L18.1567 52.7795L19.2206 53.8433L30.9588 42.1057Z" fill="black"/>
<path fill-rule="evenodd" clip-rule="evenodd" d="M29.5963 15.02C26.4104 11.8342 21.6675 11.1745 17.845 13.0149C17.6253 13.1207 17.4705 13.3263 17.4297 13.5667C17.3888 13.807 17.467 14.0522 17.6394 14.2246L23.4727 20.0576L20.0324 23.4977L14.2209 17.6465C14.0488 17.4732 13.8033 17.3943 13.5624 17.4348C13.3216 17.4753 13.1154 17.6302 13.0094 17.8502C11.168 21.6744 11.8518 26.4166 15.0145 29.5792C17.8894 32.4539 21.9984 33.2416 25.5893 32.0387L39.9401 46.3888C38.7377 49.9623 39.5266 54.09 42.4004 56.9637C45.5627 60.1258 50.3276 60.8107 54.1315 58.9679C54.3506 58.8617 54.5048 58.6561 54.5453 58.4161C54.5858 58.176 54.5076 57.9312 54.3355 57.759L48.5021 51.926L51.9443 48.484L57.7776 54.3171C57.95 54.4895 58.1952 54.5676 58.4355 54.5268C58.6759 54.4859 58.8815 54.3311 58.9873 54.1115C60.8287 50.2873 60.1449 45.5451 56.9822 42.3826C54.1029 39.5035 49.9858 38.7177 46.391 39.9286L32.056 25.5942C33.259 22.0035 32.4712 17.8947 29.5963 15.02ZM46.5012 41.5097C46.549 41.4899 46.5938 41.4656 46.6355 41.4374C49.7733 40.282 53.4027 40.9309 55.9183 43.4464C58.3462 45.8741 59.0636 49.3949 58.0405 52.4524L52.4762 46.8883C52.1824 46.5946 51.7061 46.5946 51.4123 46.8883L46.9064 51.3941C46.7653 51.5352 46.686 51.7265 46.686 51.926C46.686 52.1255 46.7653 52.3168 46.9064 52.4579L52.472 58.0232C49.4285 59.044 45.8917 58.3272 43.4642 55.8999C40.9083 53.344 40.2801 49.6176 41.5112 46.4693C41.62 46.1911 41.5538 45.8748 41.3425 45.6635L26.3153 30.637C26.1044 30.4261 25.7889 30.3598 25.5109 30.4677C22.3394 31.6999 18.6341 31.071 16.0784 28.5154C13.6516 26.0887 12.9338 22.57 13.9548 19.5135L19.4968 25.0934C19.6377 25.2353 19.8293 25.3152 20.0293 25.3156C20.2292 25.3159 20.4211 25.2367 20.5625 25.0953L25.0685 20.5895C25.2095 20.4484 25.2888 20.2571 25.2888 20.0576C25.2888 19.8581 25.2095 19.6668 25.0685 19.5257L19.5037 13.9613C22.563 12.9341 26.0859 13.6373 28.5325 16.0838C31.0882 18.6394 31.7172 22.3445 30.4849 25.5158C30.3769 25.7938 30.4433 26.1093 30.6542 26.3201L45.6814 41.3466C45.8966 41.5618 46.2201 41.6261 46.5012 41.5097Z" fill="black"/>
</svg>