<svg width="107" height="20" viewBox="0 0 107 20" fill="none" xmlns="http://www.w3.org/2000/svg">
<path d="M9.77405 6.67131L8.25631 9.69344C7.92485 10.354 7.60211 10.9805 7.35206 11.661H7.33171C7.29101 10.9805 7.24158 10.3625 7.1718 9.69344L7.01479 8.1115L6.87232 6.67414H6.70659H5.34876V6.6543L3.36872 6.67414H3.31348V6.90094H3.41524C5.06964 6.95764 5.49123 7.93006 5.59881 8.40918L5.4011 6.90094L5.60753 8.44887C5.60463 8.43469 5.60172 8.41768 5.59881 8.40351L5.63661 8.68417C5.63661 8.68417 5.63661 8.6785 5.63661 8.65299L6.21812 13.0274H7.89578L11.3936 6.67698H9.77405V6.67131Z" fill="#005596"/>
<path d="M13.653 6.63477L12.365 12.9881H10.917L12.205 6.63477H13.653Z" fill="#005596"/>
<path d="M13.7524 11.5239C14.1537 11.7507 14.7265 11.9293 15.3516 11.9293C15.9156 11.9293 16.4274 11.6855 16.4274 11.1837C16.4274 10.8265 16.1366 10.5912 15.5115 10.2878C14.7875 9.9193 14.1042 9.42884 14.1042 8.60101C14.1042 7.31958 15.2992 6.53711 16.7792 6.53711C17.6049 6.53711 18.0847 6.70721 18.3783 6.85747L17.7329 7.98864C17.5119 7.87524 17.3403 7.64844 16.66 7.65978C15.9854 7.66828 15.6336 8.02833 15.6336 8.37704C15.6336 8.74559 16.0465 8.96956 16.6193 9.27291C17.445 9.67832 17.9655 10.1971 17.9655 10.9512C17.9655 12.3659 16.7181 13.0917 15.212 13.0917C14.2671 13.0917 13.4966 12.7231 13.1738 12.4992L13.7524 11.5239Z" fill="#005596"/>
<path d="M20.0588 11.3381L19.2534 12.9881H17.7153L21.0125 6.63477H22.8733L23.6671 12.9881H22.1493L22.0098 11.3381H20.0588ZM21.9487 10.3033L21.8179 8.93681C21.7888 8.5881 21.7481 8.07779 21.7161 7.69223H21.6958C21.5242 8.07779 21.3352 8.56825 21.1521 8.93681L20.4775 10.3033H21.9487Z" fill="#005596"/>
<path d="M26 5.98425H0.995117V3.10953C0.995117 2.77216 1.27424 2.5 1.62024 2.5H25.3749C25.7209 2.5 26 2.77216 26 3.10953V5.98425Z" fill="#005596"/>
<path d="M25.3749 17.5004H1.62024C1.27424 17.5004 0.995117 17.2282 0.995117 16.8908V14.0161H26V16.8908C26 17.2282 25.7209 17.5004 25.3749 17.5004Z" fill="#F2A713"/>
<path d="M52 2.5H29C28.4477 2.5 28 2.94772 28 3.5V16.5C28 17.0523 28.4477 17.5 29 17.5H52C52.5523 17.5 53 17.0523 53 16.5V3.5C53 2.94772 52.5523 2.5 52 2.5Z" fill="#10427A"/>
<path d="M40.943 5.94727H38.1514V10.9031H40.943V5.94727Z" fill="#FF5F00"/>
<path d="M38.3305 8.41579C38.3305 7.40886 38.8091 6.51576 39.5446 5.93787C39.004 5.51759 38.3216 5.26367 37.5772 5.26367C35.8136 5.26367 34.3867 6.67337 34.3867 8.41579C34.3867 10.1582 35.8136 11.5679 37.5772 11.5679C38.3216 11.5679 39.004 11.314 39.5446 10.8937C38.8091 10.3246 38.3305 9.42271 38.3305 8.41579Z" fill="#EB001B"/>
<path d="M44.7107 8.41579C44.7107 10.1582 43.2838 11.5679 41.5202 11.5679C40.7757 11.5679 40.0933 11.314 39.5527 10.8937C40.2972 10.3158 40.7669 9.42271 40.7669 8.41579C40.7669 7.40886 40.2883 6.51576 39.5527 5.93787C40.0933 5.51759 40.7757 5.26367 41.5202 5.26367C43.2838 5.26367 44.7107 6.68212 44.7107 8.41579Z" fill="#F79E1B"/>
<path d="M35.8927 13.5803V13.055C35.8927 12.8537 35.7549 12.7224 35.5186 12.7224C35.4005 12.7224 35.2726 12.7574 35.184 12.8712C35.1151 12.7749 35.0167 12.7224 34.869 12.7224C34.7706 12.7224 34.6722 12.7486 34.5934 12.8449V12.7399H34.3867V13.5803H34.5934V13.1163C34.5934 12.9675 34.682 12.8975 34.8198 12.8975C34.9576 12.8975 35.0265 12.9763 35.0265 13.1163V13.5803H35.2332V13.1163C35.2332 12.9675 35.3316 12.8975 35.4596 12.8975C35.5974 12.8975 35.6663 12.9763 35.6663 13.1163V13.5803H35.8927ZM38.9538 12.7399H38.6191V12.486H38.4124V12.7399H38.2254V12.9062H38.4124V13.2914C38.4124 13.484 38.501 13.5978 38.7372 13.5978C38.8258 13.5978 38.9242 13.5715 38.9931 13.5365L38.9341 13.379C38.875 13.414 38.8061 13.4227 38.7569 13.4227C38.6585 13.4227 38.6191 13.3702 38.6191 13.2827V12.9062H38.9538V12.7399ZM40.7058 12.7224C40.5877 12.7224 40.5089 12.7749 40.4597 12.8449V12.7399H40.253V13.5803H40.4597V13.1076C40.4597 12.9675 40.5286 12.8887 40.6566 12.8887C40.696 12.8887 40.7452 12.8975 40.7845 12.9062L40.8436 12.7311C40.8042 12.7224 40.7452 12.7224 40.7058 12.7224ZM38.0581 12.8099C37.9597 12.7486 37.8219 12.7224 37.6742 12.7224C37.438 12.7224 37.2805 12.8274 37.2805 12.9938C37.2805 13.1338 37.3986 13.2126 37.6053 13.2389L37.7037 13.2476C37.812 13.2651 37.8711 13.2914 37.8711 13.3352C37.8711 13.3965 37.7923 13.4402 37.6545 13.4402C37.5167 13.4402 37.4085 13.3965 37.3396 13.3527L37.2411 13.4928C37.3494 13.5628 37.497 13.5978 37.6447 13.5978C37.9203 13.5978 38.0778 13.484 38.0778 13.3264C38.0778 13.1776 37.9498 13.0988 37.753 13.0726L37.6545 13.0638C37.5659 13.055 37.497 13.0375 37.497 12.985C37.497 12.9237 37.5659 12.8887 37.6742 12.8887C37.7923 12.8887 37.9104 12.9325 37.9695 12.9587L38.0581 12.8099ZM43.5504 12.7224C43.4323 12.7224 43.3535 12.7749 43.3043 12.8449V12.7399H43.0976V13.5803H43.3043V13.1076C43.3043 12.9675 43.3732 12.8887 43.5012 12.8887C43.5405 12.8887 43.5897 12.8975 43.6291 12.9062L43.6882 12.7311C43.6488 12.7224 43.5897 12.7224 43.5504 12.7224ZM40.9125 13.1601C40.9125 13.414 41.1094 13.5978 41.4145 13.5978C41.5523 13.5978 41.6507 13.5715 41.7491 13.5015L41.6507 13.3527C41.572 13.4052 41.4932 13.4315 41.4046 13.4315C41.2373 13.4315 41.1192 13.3264 41.1192 13.1601C41.1192 13.0025 41.2373 12.8975 41.4046 12.8887C41.4932 12.8887 41.572 12.915 41.6507 12.9675L41.7491 12.8187C41.6507 12.7486 41.5523 12.7224 41.4145 12.7224C41.1094 12.7224 40.9125 12.9062 40.9125 13.1601ZM42.822 13.1601V12.7399H42.6153V12.8449C42.5464 12.7662 42.448 12.7224 42.32 12.7224C42.0543 12.7224 41.8476 12.9062 41.8476 13.1601C41.8476 13.414 42.0543 13.5978 42.32 13.5978C42.4578 13.5978 42.5562 13.554 42.6153 13.4753V13.5803H42.822V13.1601ZM42.0641 13.1601C42.0641 13.0113 42.1724 12.8887 42.3495 12.8887C42.5169 12.8887 42.635 13.0025 42.635 13.1601C42.635 13.3089 42.5169 13.4315 42.3495 13.4315C42.1724 13.4227 42.0641 13.3089 42.0641 13.1601ZM39.5936 12.7224C39.318 12.7224 39.1211 12.8975 39.1211 13.1601C39.1211 13.4227 39.318 13.5978 39.6034 13.5978C39.7412 13.5978 39.879 13.5628 39.9873 13.484L39.8888 13.3527C39.8101 13.4052 39.7117 13.4402 39.6132 13.4402C39.4853 13.4402 39.3573 13.3877 39.3278 13.2389H40.0266V13.1689C40.0365 12.8975 39.8593 12.7224 39.5936 12.7224ZM39.5936 12.88C39.7215 12.88 39.8101 12.95 39.8298 13.0813H39.3376C39.3573 12.9675 39.4459 12.88 39.5936 12.88ZM44.7217 13.1601V12.4072H44.515V12.8449C44.4461 12.7662 44.3476 12.7224 44.2197 12.7224C43.9539 12.7224 43.7472 12.9062 43.7472 13.1601C43.7472 13.414 43.9539 13.5978 44.2197 13.5978C44.3575 13.5978 44.4559 13.554 44.515 13.4753V13.5803H44.7217V13.1601ZM43.9638 13.1601C43.9638 13.0113 44.072 12.8887 44.2492 12.8887C44.4165 12.8887 44.5346 13.0025 44.5346 13.1601C44.5346 13.3089 44.4165 13.4315 44.2492 13.4315C44.072 13.4227 43.9638 13.3089 43.9638 13.1601ZM37.0541 13.1601V12.7399H36.8474V12.8449C36.7785 12.7662 36.6801 12.7224 36.5521 12.7224C36.2864 12.7224 36.0797 12.9062 36.0797 13.1601C36.0797 13.414 36.2864 13.5978 36.5521 13.5978C36.6899 13.5978 36.7884 13.554 36.8474 13.4753V13.5803H37.0541V13.1601ZM36.2864 13.1601C36.2864 13.0113 36.3946 12.8887 36.5718 12.8887C36.7391 12.8887 36.8573 13.0025 36.8573 13.1601C36.8573 13.3089 36.7391 13.4315 36.5718 13.4315C36.3946 13.4227 36.2864 13.3089 36.2864 13.1601Z" fill="white"/>
<g clip-path="url(#clip0_2872_217314)">
<path d="M79 2.5H56C55.4477 2.5 55 2.94772 55 3.5V16.5C55 17.0523 55.4477 17.5 56 17.5H79C79.5523 17.5 80 17.0523 80 16.5V3.5C80 2.94772 79.5523 2.5 79 2.5Z" fill="#13A8E0"/>
<path d="M57.3037 7.8847L56.8246 6.67738L56.3482 7.8847H57.3037ZM67.8594 7.40395C67.7632 7.46433 67.6494 7.46634 67.5131 7.46634H66.6627V6.79366H67.5247C67.6467 6.79366 67.774 6.79933 67.8566 6.84829C67.9475 6.89241 68.0036 6.98631 68.0036 7.11602C68.0036 7.24838 67.9502 7.35489 67.8594 7.40395ZM73.9263 7.8847L73.4419 6.67738L72.9601 7.8847H73.9263ZM62.6172 9.1915H61.8995L61.8968 6.81961L60.8817 9.1915H60.2671L59.2493 6.8175V9.1915H57.8255L57.5565 8.516H56.0989L55.8271 9.1915H55.0668L56.3204 6.16301H57.3605L58.5512 9.03037V6.16301H59.6938L60.6099 8.21748L61.4515 6.16301H62.6171V9.1915H62.6172ZM65.4775 9.1915H63.1389V6.16301H65.4775V6.79366H63.839V7.33955H65.4382V7.96034H63.839V8.56514H65.4775V9.1915ZM68.7748 6.97864C68.7748 7.4615 68.4632 7.71096 68.2816 7.78587C68.4347 7.84615 68.5656 7.95266 68.6279 8.0409C68.7267 8.19153 68.7438 8.32609 68.7438 8.59656V9.1915H68.0377L68.035 8.80958C68.035 8.62735 68.0519 8.36527 67.9245 8.21958C67.8222 8.11307 67.6663 8.08996 67.4142 8.08996H66.6627V9.1915H65.9627V6.16301H67.5729C67.9307 6.16301 68.1943 6.17278 68.4206 6.30807C68.6421 6.44335 68.7748 6.64084 68.7748 6.97864ZM69.8952 9.1915H69.1809V6.16301H69.8952V9.1915ZM78.1821 9.1915H77.19L75.8631 6.91844V9.1915H74.4374L74.165 8.516H72.7107L72.4464 9.1915H71.6272C71.2869 9.1915 70.8561 9.11367 70.6121 8.85653C70.3661 8.59939 70.2381 8.25109 70.2381 7.70037C70.2381 7.25122 70.3146 6.84062 70.6155 6.51615C70.8418 6.27445 71.1962 6.16301 71.6786 6.16301H72.3564V6.81193H71.6929C71.4374 6.81193 71.2931 6.85121 71.1542 6.99134C71.0348 7.11886 70.9529 7.35992 70.9529 7.67735C70.9529 8.00181 71.0153 8.23575 71.1454 8.38857C71.2532 8.50841 71.4491 8.54477 71.6333 8.54477H71.9477L72.9344 6.1631H73.9833L75.1686 9.02762V6.1631H76.2345L77.465 8.27228V6.1631H78.1821V9.1915ZM55.0586 9.78635H56.2548L56.5245 9.11367H57.1283L57.3973 9.78635H59.7507V9.27207L59.9608 9.78854H61.1825L61.3926 9.26439V9.78635H67.2414L67.2386 8.68215H67.3518C67.431 8.68499 67.4542 8.69257 67.4542 8.82785V9.78635H70.4792V9.5293C70.7232 9.66449 71.1027 9.78635 71.6021 9.78635H72.8747L73.147 9.11367H73.7508L74.0172 9.78635H76.4695V9.14738L76.8409 9.78635H78.8061V5.5625H76.8612V6.06134L76.5889 5.5625H74.5932V6.06134L74.3431 5.5625H71.6475C71.1962 5.5625 70.7996 5.62763 70.4792 5.80913V5.5625H68.6189V5.80913C68.415 5.62206 68.1372 5.5625 67.8283 5.5625H61.0321L60.5761 6.65345L60.1078 5.5625H57.9672V6.06134L57.732 5.5625H55.9064L55.0586 7.57075V9.78635Z" fill="white"/>
<path d="M79.9617 12.0285H78.6858C78.5584 12.0285 78.4738 12.0334 78.4025 12.0832C78.3287 12.1323 78.3002 12.2051 78.3002 12.3012C78.3002 12.4154 78.3626 12.4932 78.4533 12.5268C78.5272 12.5534 78.6065 12.5611 78.7231 12.5611L79.1025 12.5716C79.4854 12.5814 79.7409 12.6495 79.8968 12.8154C79.9251 12.8386 79.9422 12.8645 79.9617 12.8904V12.0285ZM79.9617 14.0256C79.7916 14.2827 79.4603 14.4131 79.0117 14.4131H77.6598V13.7635H79.0062C79.1398 13.7635 79.2333 13.7453 79.2895 13.6885C79.3383 13.6417 79.3723 13.5736 79.3723 13.4909C79.3723 13.4027 79.3383 13.3326 79.2868 13.2906C79.236 13.2444 79.1621 13.2234 79.0401 13.2234C78.3828 13.2003 77.5628 13.2444 77.5628 12.2858C77.5628 11.8464 77.8325 11.384 78.5672 11.384H79.9617V10.7812H78.666C78.275 10.7812 77.991 10.8781 77.7899 11.0286V10.7812H75.8735C75.5671 10.7812 75.2074 10.8598 75.0372 11.0286V10.7812H71.6151V11.0286C71.3428 10.8255 70.8833 10.7812 70.6712 10.7812H68.4139V11.0286C68.1984 10.8129 67.7193 10.7812 67.4272 10.7812H64.901L64.3229 11.4282L63.7815 10.7812H60.0078V15.008H63.7105L64.3061 14.3509L64.8673 15.008L67.1496 15.0101V14.0158H67.374C67.6768 14.0207 68.034 14.0081 68.3491 13.8672V15.0079H70.2316V13.9063H70.3224C70.4383 13.9063 70.4497 13.9112 70.4497 14.031V15.0078H76.1684C76.5315 15.0078 76.911 14.9117 77.1211 14.7374V15.0078H78.9351C79.3126 15.0078 79.6812 14.9531 79.9617 14.813V14.0256ZM77.1692 12.8154C77.3055 12.9613 77.3786 13.1455 77.3786 13.4572C77.3786 14.1089 76.9848 14.4131 76.2788 14.4131H74.9153V13.7635H76.2734C76.4061 13.7635 76.5003 13.7453 76.5593 13.6885C76.6075 13.6417 76.642 13.5736 76.642 13.4909C76.642 13.4027 76.6046 13.3326 76.5566 13.2906C76.503 13.2444 76.4292 13.2234 76.3073 13.2234C75.6526 13.2003 74.8327 13.2444 74.8327 12.2858C74.8327 11.8464 75.0997 11.384 75.8336 11.384H77.2371V12.0287H75.9529C75.8256 12.0287 75.7428 12.0336 75.6724 12.0834C75.5957 12.1324 75.5673 12.2052 75.5673 12.3013C75.5673 12.4156 75.6324 12.4934 75.7204 12.527C75.7943 12.5535 75.8736 12.5613 75.9929 12.5613L76.3697 12.5718C76.7498 12.5814 77.0106 12.6494 77.1692 12.8154ZM70.8522 12.6284C70.7586 12.6858 70.6428 12.6908 70.5066 12.6908H69.6561V12.0104H70.5181C70.6428 12.0104 70.7675 12.0131 70.8522 12.0651C70.943 12.1142 70.9972 12.208 70.9972 12.3376C70.9972 12.4672 70.943 12.5716 70.8522 12.6284ZM71.275 13.0053C71.4309 13.0648 71.5583 13.1714 71.618 13.2597C71.7168 13.4075 71.7311 13.5456 71.734 13.8126V14.4131H71.0311V14.0341C71.0311 13.8519 71.0481 13.582 70.918 13.4412C70.8157 13.3326 70.6598 13.3067 70.4044 13.3067H69.6562V14.4131H68.9528V11.3839H70.569C70.9234 11.3839 71.1816 11.4 71.4113 11.5268C71.6323 11.6648 71.7712 11.8539 71.7712 12.1995C71.7711 12.683 71.4593 12.9297 71.275 13.0053ZM72.1594 11.3839H74.4959V12.0103H72.8566V12.561H74.4559V13.1791H72.8566V13.7818L74.4959 13.7845V14.4131H72.1594V11.3839ZM67.4362 12.7818H66.5315V12.0104H67.4443C67.697 12.0104 67.8725 12.1169 67.8725 12.3818C67.8725 12.6438 67.7052 12.7818 67.4362 12.7818ZM65.8342 14.1376L64.7594 12.9037L65.8342 11.709V14.1376ZM63.0585 13.7818H61.3373V13.1791H62.8742V12.561H61.3373V12.0103H63.0924L63.8582 12.8931L63.0585 13.7818ZM68.6241 12.3818C68.6241 13.2233 68.0169 13.397 67.405 13.397H66.5315V14.4131H65.1708L64.3088 13.4103L63.4129 14.4131H60.64V11.3839H63.4556L64.3169 12.3768L65.2074 11.3839H67.4443C67.9999 11.3839 68.6241 11.5429 68.6241 12.3818Z" fill="white"/>
</g>
<path d="M106.899 10.5146C106.899 10.5146 100.14 15.2807 87.7627 17.4178H102.899C105.108 17.4178 106.899 15.627 106.899 13.4178V10.5146Z" fill="#F48120"/>
<path d="M84.3437 6.53027H83.3145V10.1359H84.3437C84.8878 10.1359 85.2812 10.0048 85.6286 9.72291C86.0416 9.38201 86.2842 8.87067 86.2842 8.33965C86.2776 7.27107 85.4844 6.53027 84.3437 6.53027ZM85.1697 9.24434C84.9468 9.44102 84.6649 9.5328 84.206 9.5328H84.0159V7.14651H84.206C84.6584 7.14651 84.9337 7.22518 85.1697 7.43496C85.4123 7.6513 85.5565 7.98564 85.5565 8.3331C85.5565 8.68055 85.4123 9.028 85.1697 9.24434Z" fill="#231F20"/>
<path d="M87.3069 6.53027H86.6055V10.1359H87.3069V6.53027Z" fill="#231F20"/>
<path d="M89.0244 7.92691C88.6049 7.76958 88.4803 7.66469 88.4803 7.47457C88.4803 7.24512 88.7032 7.07467 89.0048 7.07467C89.2145 7.07467 89.3915 7.15989 89.5686 7.36968L89.9357 6.89111C89.6341 6.62888 89.2735 6.49121 88.8736 6.49121C88.2377 6.49121 87.7461 6.937 87.7461 7.52702C87.7461 8.02525 87.9755 8.28092 88.6311 8.51693C88.9064 8.61527 89.0441 8.68082 89.1162 8.72016C89.2539 8.81194 89.326 8.94305 89.326 9.09383C89.326 9.38884 89.0965 9.60518 88.7819 9.60518C88.4475 9.60518 88.1787 9.43473 88.0148 9.12661L87.5625 9.56585C87.8837 10.0444 88.2771 10.2542 88.8081 10.2542C89.5358 10.2542 90.0537 9.76907 90.0537 9.06761C90.0668 8.48415 89.8242 8.22192 89.0244 7.92691Z" fill="#231F20"/>
<path d="M90.2871 8.34996C90.2871 9.41199 91.1197 10.2315 92.1883 10.2315C92.4898 10.2315 92.7521 10.1725 93.0667 10.0217V9.19565C92.7848 9.47755 92.5357 9.58899 92.221 9.58899C91.513 9.58899 91.0082 9.07765 91.0082 8.34341C91.0082 7.6485 91.5261 7.10437 92.1883 7.10437C92.5226 7.10437 92.7783 7.22238 93.0667 7.51083V6.68481C92.7586 6.52747 92.5029 6.46191 92.2014 6.46191C91.1459 6.46191 90.2871 7.30105 90.2871 8.34996Z" fill="#231F20"/>
<path d="M98.6438 8.95589L97.6801 6.53027H96.9131L98.4406 10.2277H98.8208L100.375 6.53027H99.614L98.6438 8.95589Z" fill="#231F20"/>
<path d="M100.692 10.1359H102.685V9.52624H101.394V8.55599H102.639V7.94631H101.394V7.14651H102.685V6.53027H100.692V10.1359Z" fill="#231F20"/>
<path d="M105.479 7.61183C105.479 6.93659 105.013 6.5498 104.201 6.5498H103.158V10.1555H103.86V8.70664H103.951L104.922 10.1555H105.787L104.653 8.63453C105.184 8.52308 105.479 8.16251 105.479 7.61183ZM104.063 8.2084H103.86V7.1136H104.076C104.515 7.1136 104.751 7.29716 104.751 7.65117C104.751 8.01173 104.515 8.2084 104.063 8.2084Z" fill="#231F20"/>
<path d="M95.2157 10.2743C96.2766 10.2743 97.1366 9.41429 97.1366 8.35344C97.1366 7.2926 96.2766 6.43262 95.2157 6.43262C94.1549 6.43262 93.2949 7.2926 93.2949 8.35344C93.2949 9.41429 94.1549 10.2743 95.2157 10.2743Z" fill="url(#paint0_linear_2872_217314)"/>
<path opacity="0.65" d="M95.2157 10.2743C96.2766 10.2743 97.1366 9.41429 97.1366 8.35344C97.1366 7.2926 96.2766 6.43262 95.2157 6.43262C94.1549 6.43262 93.2949 7.2926 93.2949 8.35344C93.2949 9.41429 94.1549 10.2743 95.2157 10.2743Z" fill="url(#paint1_linear_2872_217314)"/>
<path d="M105.924 6.67011C105.924 6.60456 105.878 6.57178 105.806 6.57178H105.701V6.88645H105.78V6.76189L105.872 6.88645H105.963L105.859 6.75534C105.898 6.74878 105.924 6.716 105.924 6.67011ZM105.793 6.716H105.78V6.63078H105.793C105.832 6.63078 105.852 6.64389 105.852 6.67011C105.852 6.70289 105.832 6.716 105.793 6.716Z" fill="#231F20"/>
<path d="M105.825 6.45459C105.674 6.45459 105.55 6.57915 105.55 6.72993C105.55 6.88071 105.674 7.00527 105.825 7.00527C105.976 7.00527 106.1 6.88071 106.1 6.72993C106.1 6.57915 105.976 6.45459 105.825 6.45459ZM105.825 6.95938C105.707 6.95938 105.602 6.86104 105.602 6.72993C105.602 6.60537 105.701 6.50048 105.825 6.50048C105.943 6.50048 106.041 6.60537 106.041 6.72993C106.041 6.85449 105.943 6.95938 105.825 6.95938Z" fill="#231F20"/>
<path d="M83 2.75H106C106.414 2.75 106.75 3.08579 106.75 3.5V16.5C106.75 16.9142 106.414 17.25 106 17.25H83C82.5858 17.25 82.25 16.9142 82.25 16.5V3.5C82.25 3.08579 82.5858 2.75 83 2.75Z" stroke="#DEDEDE" stroke-width="0.5"/>
<defs>
<linearGradient id="paint0_linear_2872_217314" x1="96.1975" y1="9.89056" x2="94.8697" y2="7.81163" gradientUnits="userSpaceOnUse">
<stop stop-color="#F89F20"/>
<stop offset="0.2502" stop-color="#F79A20"/>
<stop offset="0.5331" stop-color="#F68D20"/>
<stop offset="0.6196" stop-color="#F58720"/>
<stop offset="0.7232" stop-color="#F48120"/>
<stop offset="1" stop-color="#F37521"/>
</linearGradient>
<linearGradient id="paint1_linear_2872_217314" x1="95.9879" y1="9.86259" x2="94.0473" y2="6.06956" gradientUnits="userSpaceOnUse">
<stop stop-color="#F58720"/>
<stop offset="0.3587" stop-color="#E16F27"/>
<stop offset="0.703" stop-color="#D4602C"/>
<stop offset="0.9816" stop-color="#D05B2E"/>
</linearGradient>
<clipPath id="clip0_2872_217314">
<rect width="25" height="15" fill="white" transform="translate(55 2.5)"/>
</clipPath>
</defs>
</svg>
