<svg width="12" height="12" viewBox="0 0 12 12" fill="none" xmlns="http://www.w3.org/2000/svg">
<g clip-path="url(#clip0_3762_62200)">
<path fill-rule="evenodd" clip-rule="evenodd" d="M1.4541 0.996889C4.86687 0.987494 7.13188 0.98389 10.546 0.995927V10.9976H1.4541V0.996889ZM2.07099e-06 0.50099C0.000742909 0.761173 0.200083 0.974375 0.454102 0.997489V11.4976C0.454102 11.7737 0.677959 11.9976 0.954102 11.9976H11.046C11.3221 11.9976 11.546 11.7737 11.546 11.4976V0.997391C11.7992 0.973802 11.9979 0.76122 11.999 0.501617C12.0001 0.225477 11.7772 0.000703177 11.501 -0.000429609C7.20263 -0.0180628 4.79302 -0.0126597 0.498576 -0.000431784C0.222435 0.00035449 -0.000784233 0.224849 2.07099e-06 0.50099ZM6 3.5C6.27614 3.5 6.5 3.72386 6.5 4V5.5H8C8.27614 5.5 8.5 5.72386 8.5 6C8.5 6.27614 8.27614 6.5 8 6.5H6.5V8C6.5 8.27614 6.27614 8.5 6 8.5C5.72386 8.5 5.5 8.27614 5.5 8V6.5H4C3.72386 6.5 3.5 6.27614 3.5 6C3.5 5.72386 3.72386 5.5 4 5.5H5.5V4C5.5 3.72386 5.72386 3.5 6 3.5Z" fill="black"/>
</g>
<defs>
<clipPath id="clip0_3762_62200">
<rect width="12" height="12" fill="white"/>
</clipPath>
</defs>
</svg>
