<svg width="13" height="10" viewBox="0 0 13 10" fill="none" xmlns="http://www.w3.org/2000/svg">
<path fill-rule="evenodd" clip-rule="evenodd" d="M0.859427 5.03723C0.858814 5.02487 0.858505 5.01247 0.858505 5.00004C0.858505 4.99996 0.858505 4.99988 0.858505 4.9998C0.858505 4.78695 0.947169 4.59482 1.08958 4.45831L5.06874 0.479148C5.36163 0.186255 5.8365 0.186255 6.1294 0.479148C6.42229 0.772041 6.42229 1.24692 6.1294 1.53981L3.4194 4.2498L12.25 4.2498C12.6642 4.2498 13 4.58559 13 4.9998C13 5.41402 12.6642 5.7498 12.25 5.7498L3.41893 5.7498L6.1294 8.46027C6.42229 8.75316 6.42229 9.22804 6.1294 9.52093C5.8365 9.81382 5.36163 9.81382 5.06874 9.52093L1.07817 5.53037C1.03254 5.48474 0.993397 5.43383 0.961333 5.37908C0.900744 5.27562 0.865441 5.15845 0.859427 5.03723Z" fill="#333333"/>
</svg>
