<svg width="64" height="64" viewBox="0 0 64 64" fill="none" xmlns="http://www.w3.org/2000/svg">
<path fill-rule="evenodd" clip-rule="evenodd" d="M5.75 8C5.33579 8 5 8.33579 5 8.75C5 9.16422 5.33579 9.5 5.75 9.5H12.4344L22.6489 36.9255C23.5975 39.4736 26.0273 41.1642 28.7472 41.1642H51.8379C52.2521 41.1642 52.5879 40.8285 52.5879 40.4142C52.5879 40 52.2521 39.6642 51.8379 39.6642H28.7472C26.6547 39.6642 24.7849 38.3638 24.0546 36.4022L22.5361 32.3251C22.6692 32.4454 22.8456 32.5187 23.0391 32.5187H45.9743C49.9731 32.5187 53.5024 29.9528 54.4892 26.2311L58.3223 11.7901C58.3821 11.565 58.3339 11.325 58.1919 11.1404C58.0499 10.9558 57.8303 10.8477 57.5974 10.8477H30.1797C29.7655 10.8477 29.4297 11.1834 29.4297 11.5977C29.4297 12.0119 29.7655 12.3477 30.1797 12.3477H56.6224L53.0394 25.8463C52.2407 28.8586 49.3479 31.0187 45.9743 31.0187H23.0391C22.656 31.0187 22.34 31.3059 22.2947 31.6767L13.6583 8.48824C13.5489 8.19469 13.2687 8 12.9554 8H5.75ZM21.6259 51.9413C21.6259 50.3658 22.9022 49.0894 24.4757 49.0894C26.0492 49.0894 27.3255 50.3658 27.3255 51.9413C27.3255 53.5169 26.0492 54.7933 24.4757 54.7933C22.9022 54.7933 21.6259 53.5169 21.6259 51.9413ZM24.4757 47.5894C22.073 47.5894 20.1259 49.5382 20.1259 51.9413C20.1259 54.3445 22.073 56.2933 24.4757 56.2933C26.8785 56.2933 28.8255 54.3445 28.8255 51.9413C28.8255 49.5382 26.8785 47.5894 24.4757 47.5894ZM50.3976 49.0894C48.8241 49.0894 47.5478 50.3658 47.5478 51.9413C47.5478 53.5169 48.8241 54.7933 50.3976 54.7933C51.9711 54.7933 53.2474 53.5169 53.2474 51.9413C53.2474 50.3658 51.9711 49.0894 50.3976 49.0894ZM46.0478 51.9413C46.0478 49.5382 47.9948 47.5894 50.3976 47.5894C52.8004 47.5894 54.7474 49.5382 54.7474 51.9413C54.7474 54.3445 52.8004 56.2933 50.3976 56.2933C47.9948 56.2933 46.0478 54.3445 46.0478 51.9413Z" fill="black"/>
</svg>
