<svg width="90" height="100" viewBox="0 0 90 100" fill="none" xmlns="http://www.w3.org/2000/svg">
<path fill-rule="evenodd" clip-rule="evenodd" d="M3 49.9999C3 73.1956 21.8042 92.0002 45.0001 92.0002C68.196 92.0002 87.0001 73.1956 87.0001 49.9999C87.0001 26.8036 68.196 8 45.0001 8C21.8041 8 3 26.8037 3 49.9999ZM0 49.9999C0 74.8524 20.1473 95.0002 45.0001 95.0002C69.8529 95.0002 90.0001 74.8524 90.0001 49.9999C90.0001 25.1468 69.8529 5 45.0001 5C20.1473 5 0 25.1468 0 49.9999ZM45 29.5C45.8284 29.5 46.5 30.1716 46.5 31V60.5C46.5 61.3284 45.8284 62 45 62C44.1716 62 43.5 61.3284 43.5 60.5V31C43.5 30.1716 44.1716 29.5 45 29.5ZM45 71C46.1046 71 47 70.1046 47 69C47 67.8954 46.1046 67 45 67C43.8954 67 43 67.8954 43 69C43 70.1046 43.8954 71 45 71Z" fill="black"/>
</svg>
