<svg width="64" height="64" viewBox="0 0 64 64" fill="none" xmlns="http://www.w3.org/2000/svg">
<g id="Icon_Guide_64">
<rect width="64" height="64" fill="white"/>
<path id="Union" fill-rule="evenodd" clip-rule="evenodd" d="M10 5.75C10 5.33579 10.3358 5 10.75 5H42.4192C42.6167 5 42.8063 5.07795 42.9467 5.21691L53.8981 16.0547C54.0404 16.1956 54.1205 16.3875 54.1205 16.5878V58.253C54.1205 58.6672 53.7847 59.003 53.3705 59.003H10.75C10.3358 59.003 10 58.6672 10 58.253V5.75ZM11.5 6.5V57.503H52.6205V18.2394H41.6341H40.8841V17.4894V6.5H11.5ZM42.3841 6.77051V16.7394H52.4575L42.3841 6.77051ZM19.0337 19.7251C19.0337 19.3109 19.3695 18.9751 19.7837 18.9751H33.7172C34.1314 18.9751 34.4672 19.3109 34.4672 19.7251C34.4672 20.1393 34.1314 20.4751 33.7172 20.4751H19.7837C19.3695 20.4751 19.0337 20.1393 19.0337 19.7251ZM19.7837 30.9468C19.3695 30.9468 19.0337 31.2825 19.0337 31.6968C19.0337 32.111 19.3695 32.4468 19.7837 32.4468H44.2302C44.6444 32.4468 44.9802 32.111 44.9802 31.6968C44.9802 31.2825 44.6444 30.9468 44.2302 30.9468H19.7837ZM19.0337 43.6682C19.0337 43.254 19.3695 42.9182 19.7837 42.9182H44.2302C44.6444 42.9182 44.9802 43.254 44.9802 43.6682C44.9802 44.0824 44.6444 44.4182 44.2302 44.4182H19.7837C19.3695 44.4182 19.0337 44.0824 19.0337 43.6682Z" fill="black"/>
</g>
</svg>
