<svg 
 xmlns="http://www.w3.org/2000/svg"
 xmlns:xlink="http://www.w3.org/1999/xlink"
 width="35" height="35" viewBox="0 0 35 35">
<path fill-rule="evenodd"  fill="#646464"
 d="M17.500,34.998 C7.835,34.998 -0.000,27.162 -0.000,17.497 C-0.000,7.832 7.835,-0.004 17.500,-0.004 C27.165,-0.004 35.000,7.832 35.000,17.497 C35.000,27.162 27.165,34.998 17.500,34.998 ZM14.000,7.000 C9.582,7.000 6.000,10.134 6.000,14.000 C6.000,16.289 7.058,17.723 9.000,19.000 L8.000,22.000 L11.017,20.492 C11.346,20.608 11.697,20.682 12.046,20.760 C12.018,20.510 12.000,20.257 12.000,20.000 C12.000,15.582 16.253,12.000 21.500,12.000 C21.544,12.000 21.587,12.005 21.630,12.006 C20.644,9.118 17.621,7.000 14.000,7.000 ZM22.000,14.000 C17.582,14.000 14.000,16.686 14.000,20.000 C14.000,23.314 17.582,26.000 22.000,26.000 C22.839,26.000 23.633,25.876 24.393,25.696 L27.000,27.000 L27.000,25.000 C29.343,23.954 30.000,22.194 30.000,20.000 C30.000,16.686 26.418,14.000 22.000,14.000 ZM24.500,20.000 C23.672,20.000 23.000,19.328 23.000,18.500 C23.000,17.672 23.672,17.000 24.500,17.000 C25.328,17.000 26.000,17.672 26.000,18.500 C26.000,19.328 25.328,20.000 24.500,20.000 ZM19.500,20.000 C18.672,20.000 18.000,19.328 18.000,18.500 C18.000,17.672 18.672,17.000 19.500,17.000 C20.328,17.000 21.000,17.672 21.000,18.500 C21.000,19.328 20.328,20.000 19.500,20.000 ZM16.500,13.000 C15.672,13.000 15.000,12.328 15.000,11.500 C15.000,10.672 15.672,10.000 16.500,10.000 C17.328,10.000 18.000,10.672 18.000,11.500 C18.000,12.328 17.328,13.000 16.500,13.000 ZM11.500,13.000 C10.672,13.000 10.000,12.328 10.000,11.500 C10.000,10.672 10.672,10.000 11.500,10.000 C12.328,10.000 13.000,10.672 13.000,11.500 C13.000,12.328 12.328,13.000 11.500,13.000 Z"/>
</svg>