<svg width="17" height="16" viewBox="0 0 17 16" fill="none" xmlns="http://www.w3.org/2000/svg">
<path d="M7.83398 4.66659H9.16732V5.99992H7.83398V4.66659ZM7.83398 7.33325H9.16732V11.3333H7.83398V7.33325ZM8.50065 1.33325C4.82065 1.33325 1.83398 4.31992 1.83398 7.99992C1.83398 11.6799 4.82065 14.6666 8.50065 14.6666C12.1807 14.6666 15.1673 11.6799 15.1673 7.99992C15.1673 4.31992 12.1807 1.33325 8.50065 1.33325ZM8.50065 13.3333C5.56065 13.3333 3.16732 10.9399 3.16732 7.99992C3.16732 5.05992 5.56065 2.66659 8.50065 2.66659C11.4407 2.66659 13.834 5.05992 13.834 7.99992C13.834 10.9399 11.4407 13.3333 8.50065 13.3333Z" fill="#137A9C"/>
</svg>
