<svg width="49" height="48" viewBox="0 0 49 48" fill="none" xmlns="http://www.w3.org/2000/svg">
<path fill-rule="evenodd" clip-rule="evenodd" d="M24.4995 7.84961C18.4716 7.84961 12.9775 9.39961 8.96689 11.9455C4.96541 14.4855 2.34961 18.0875 2.34961 22.1859C2.34961 26.2695 4.79267 29.751 8.57927 32.2354C12.101 34.5461 16.8453 36.0437 22.1163 36.4337L17.8032 39.4054C17.4621 39.6404 17.3762 40.1074 17.6112 40.4485C17.8462 40.7896 18.3132 40.8756 18.6543 40.6406L24.7034 36.4728C24.8831 36.3489 25 36.1529 25.0235 35.9359C25.047 35.7189 24.9747 35.5024 24.8256 35.3429L20.2656 30.4666C19.9826 30.1641 19.508 30.1482 19.2055 30.4311C18.903 30.714 18.8871 31.1886 19.17 31.4912L22.405 34.9505C17.2648 34.5965 12.71 33.1516 9.40212 30.9813C5.88688 28.6749 3.84961 25.6066 3.84961 22.1859C3.84961 18.7801 6.02611 15.5889 9.77077 13.2119C13.5063 10.8406 18.7122 9.34961 24.4995 9.34961C30.2864 9.34961 35.4923 10.8451 39.228 13.2187C42.9733 15.5984 45.1495 18.7898 45.1495 22.1859C45.1495 24.7353 43.92 27.1552 41.7277 29.2162C39.533 31.2795 36.4026 32.9501 32.7133 33.9636C32.3139 34.0733 32.079 34.486 32.1887 34.8854C32.2985 35.2849 32.7112 35.5197 33.1106 35.41C36.9831 34.3462 40.3465 32.5735 42.7551 30.3091C45.166 28.0426 46.6495 25.2507 46.6495 22.1859C46.6495 18.0965 44.0333 14.4947 40.0325 11.9527C36.0221 9.40451 30.528 7.84961 24.4995 7.84961Z" fill="black"/>
</svg>
