<svg width="36" height="36" viewBox="0 0 36 36" fill="none" xmlns="http://www.w3.org/2000/svg">
<g id="Icon_Guide_36">
<rect width="36" height="36" fill="white"/>
<path id="Union" fill-rule="evenodd" clip-rule="evenodd" d="M14.5202 4H13.7702V4.00027H3.75H3V4.75027V30.457V31.207H3.75H21.8838V29.707H4.5V5.50027H13.7702V14.8243V15.5743H14.5202H22.1627H22.9127V14.8243V5.50027H32.1806V21.0771H33.6806V4.75027V4.00027H32.9306H22.9127V4H22.1627H14.5202ZM15.2702 5.50027H21.4127V14.0743H15.2702V5.50027ZM27.6015 20.7956C25.1006 20.7956 23.0732 22.823 23.0732 25.3239C23.0732 27.8248 25.1006 29.8522 27.6015 29.8522C30.1024 29.8522 32.1298 27.8248 32.1298 25.3239C32.1298 22.823 30.1024 20.7956 27.6015 20.7956ZM21.5732 25.3239C21.5732 21.9945 24.2722 19.2956 27.6015 19.2956C30.9309 19.2956 33.6298 21.9945 33.6298 25.3239C33.6298 28.6532 30.9309 31.3522 27.6015 31.3522C24.2722 31.3522 21.5732 28.6532 21.5732 25.3239ZM28.3519 22.6849C28.3519 22.2707 28.0161 21.9349 27.6019 21.9349C27.1876 21.9349 26.8519 22.2707 26.8519 22.6849V25.9839C26.8519 26.3981 27.1876 26.7339 27.6019 26.7339H30.241C30.6552 26.7339 30.991 26.3981 30.991 25.9839C30.991 25.5696 30.6552 25.2339 30.241 25.2339H28.3519V22.6849Z" fill="black"/>
</g>
</svg>
