<svg width="18" height="19" viewBox="0 0 18 19" fill="none" xmlns="http://www.w3.org/2000/svg">
<path fill-rule="evenodd" clip-rule="evenodd" d="M11.2099 2.86157C11.3964 2.6579 11.7126 2.64397 11.9163 2.83045L14.8698 5.53478C15.152 5.79315 15.3237 6.1485 15.3526 6.52718C15.3554 6.5488 15.3569 6.57086 15.3569 6.59327C15.3569 6.59917 15.3568 6.60505 15.3566 6.6109C15.3568 6.62095 15.3569 6.63102 15.3569 6.64109V14.7995C15.3569 15.628 14.6853 16.2995 13.8569 16.2995H4.22583C3.3974 16.2995 2.72583 15.628 2.72583 14.7995V6.64047C2.72583 6.63051 2.72593 6.62057 2.72613 6.61064C2.72593 6.60487 2.72583 6.59908 2.72583 6.59326C2.72583 6.57116 2.72726 6.5494 2.73004 6.52805C2.75849 6.14934 2.92984 5.79385 3.21172 5.53521L6.1592 2.8308C6.36268 2.64411 6.67897 2.65771 6.86566 2.86119C7.05235 3.06466 7.03875 3.38095 6.83528 3.56764L4.08265 6.09326L7.08813 6.09326H7.58813H10.4959H10.9959L13.999 6.09327L11.241 3.56799C11.0373 3.38151 11.0234 3.06524 11.2099 2.86157ZM14.3569 7.09327L10.9959 7.09327V10.4703V10.9703H10.4959H7.58813H7.08813V10.4703V7.09327L3.72583 7.09326V14.7995C3.72583 15.0757 3.94969 15.2995 4.22583 15.2995H13.8569C14.133 15.2995 14.3569 15.0757 14.3569 14.7995V7.09327ZM8.08813 7.09326V9.97029H9.9959V7.09326H8.08813Z" fill="#555555"/>
</svg>
