<svg width="32" height="32" viewBox="0 0 32 32" fill="none" xmlns="http://www.w3.org/2000/svg">
<circle cx="16.0001" cy="16.0001" r="13.3333" fill="black" fill-opacity="0.7"/>
<path fill-rule="evenodd" clip-rule="evenodd" d="M28.3334 16.0001C28.3334 22.8116 22.8116 28.3334 16.0001 28.3334C9.18857 28.3334 3.66675 22.8116 3.66675 16.0001C3.66675 9.18857 9.18857 3.66675 16.0001 3.66675C22.8116 3.66675 28.3334 9.18857 28.3334 16.0001ZM29.3334 16.0001C29.3334 23.3639 23.3639 29.3334 16.0001 29.3334C8.63628 29.3334 2.66675 23.3639 2.66675 16.0001C2.66675 8.63628 8.63628 2.66675 16.0001 2.66675C23.3639 2.66675 29.3334 8.63628 29.3334 16.0001ZM12.663 20.9495L21.2345 16.0008L12.663 11.0521V20.9495Z" fill="white"/>
</svg>
