<svg width="24" height="24" viewBox="0 0 24 24" fill="none" xmlns="http://www.w3.org/2000/svg">
<path d="M16.1094 2.74902H7.8894C7.3194 2.74902 6.85938 3.20902 6.85938 3.77902V7.88902H17.1394V3.77902C17.1394 3.20902 16.6794 2.74902 16.1094 2.74902Z" stroke="white" stroke-width="1.5" stroke-linecap="round" stroke-linejoin="round"/>
<path d="M3.5 10.2187C3.5 9.34288 4.20421 8.63867 5.07999 8.63867H18.92C19.7958 8.63867 20.5 9.34288 20.5 10.2187V14.8087C20.5 15.6845 19.7958 16.3887 18.92 16.3887H17.14V17.8887H18.92C20.6242 17.8887 22 16.5129 22 14.8087V10.2187C22 8.51447 20.6242 7.13867 18.92 7.13867H5.07999C3.37577 7.13867 2 8.51447 2 10.2187V14.8087C2 16.5129 3.37577 17.8887 5.07999 17.8887H6.85999V16.3887H5.07999C4.20421 16.3887 3.5 15.6845 3.5 14.8087V10.2187Z" fill="white"/>
<path d="M17.1394 11.999H6.85938V19.869C6.85938 20.629 7.47938 21.249 8.23938 21.249H15.7594C16.5194 21.249 17.1394 20.629 17.1394 19.869V11.999Z" stroke="white" stroke-width="1.5" stroke-linecap="round" stroke-linejoin="round"/>
<path d="M9.93945 18.1689H10.9695" stroke="white" stroke-width="1.5" stroke-linecap="round" stroke-linejoin="round"/>
<path d="M9.93945 15.0791H14.0594" stroke="white" stroke-width="1.5" stroke-linecap="round" stroke-linejoin="round"/>
</svg>
