<svg width="65" height="64" viewBox="0 0 65 64" fill="none" xmlns="http://www.w3.org/2000/svg">
<path d="M53.9644 8.75H39.4644C38.3598 8.75 37.4644 9.64543 37.4644 10.75V25.25C37.4644 26.3546 38.3598 27.25 39.4644 27.25H53.9644C55.0689 27.25 55.9644 26.3546 55.9644 25.25V10.75C55.9644 9.64543 55.0689 8.75 53.9644 8.75Z" stroke="#EA1917" stroke-width="1.5"/>
<path d="M21.4459 9.75C20.6761 8.41667 18.7516 8.41667 17.9818 9.75L9.75457 24C8.98477 25.3333 9.94702 27 11.4866 27H27.9411C29.4807 27 30.443 25.3333 29.6732 24L21.4459 9.75Z" stroke="#EA1917" stroke-width="1.5"/>
<circle cx="19.4644" cy="45.25" r="10" stroke="#EA1917" stroke-width="1.5"/>
<path d="M45.6445 34.6272C46.2633 34.2699 47.0257 34.2699 47.6445 34.6272L54.9543 38.8475C55.5731 39.2047 55.9543 39.865 55.9543 40.5795V49.0201C55.9543 49.7346 55.5731 50.3949 54.9543 50.7522L47.6445 54.9725C47.0257 55.3297 46.2633 55.3297 45.6445 54.9725L38.3348 50.7522C37.716 50.3949 37.3348 49.7346 37.3348 49.0201V40.5795C37.3348 39.865 37.716 39.2047 38.3348 38.8475L45.6445 34.6272Z" stroke="#EA1917" stroke-width="1.5"/>
</svg>
