<svg width="47" height="20" viewBox="0 0 47 20" fill="none" xmlns="http://www.w3.org/2000/svg">
<g id="bankTransfer" clip-path="url(#clip0_133_304213)">
<path id="Vector" d="M1.57617 5.91008V3.90414L10.4698 0L18.8212 3.95826V5.91008H1.57617Z" fill="#020203"/>
<path id="Vector_2" d="M5.58922 17.7302H0.600098V18.7061H5.58922V17.7302Z" fill="#020203"/>
<path id="Vector_3" d="M20.4481 17.7302H15.459V18.7061H20.4481V17.7302Z" fill="#020203"/>
<path id="Vector_4" d="M5.58922 15.9954H1.95581V16.8628H5.58922V15.9954Z" fill="#020203"/>
<path id="Vector_5" d="M18.9452 15.9954H15.3118V16.8628H18.9452V15.9954Z" fill="#020203"/>
<path id="Vector_6" d="M5.91445 6.83179H3.09448V7.31987H5.91445V6.83179Z" fill="#020203"/>
<path id="Vector_7" d="M5.91445 14.6396H3.09448V15.1277H5.91445V14.6396Z" fill="#020203"/>
<path id="Vector_8" d="M5.49588 7.07593H3.6792V14.8837H5.49588V7.07593Z" fill="#020203"/>
<path id="Vector_9" d="M17.4655 6.83569H14.6455V7.32377H17.4655V6.83569Z" fill="#020203"/>
<path id="Vector_10" d="M17.4655 14.6438H14.6455V15.1319H17.4655V14.6438Z" fill="#020203"/>
<path id="Vector_11" d="M17.0469 7.07983H15.2302V14.8876H17.0469V7.07983Z" fill="#020203"/>
<path id="Vector_12" d="M11.7594 6.80908H8.93945V7.29716H11.7594V6.80908Z" fill="#020203"/>
<path id="Vector_13" d="M11.3411 7.05298H9.52441V12.6705H11.3411V7.05298Z" fill="#020203"/>
<path id="Vector_14" d="M9.74878 17.1314C9.77518 17.1528 9.8091 17.1821 9.85002 17.2184C9.89118 17.2549 9.93806 17.2911 9.99114 17.3271C10.0704 17.3797 10.1486 17.4208 10.2263 17.4504C10.304 17.4799 10.3853 17.4946 10.471 17.4946C10.5503 17.4946 10.6166 17.4858 10.6702 17.4677C10.7238 17.4498 10.766 17.4263 10.7971 17.3968C10.8281 17.3675 10.8504 17.3331 10.8634 17.2945C10.8766 17.2554 10.8833 17.2145 10.8833 17.171C10.8833 17.1228 10.8649 17.0798 10.8287 17.0418C10.7922 17.0037 10.7476 16.97 10.6945 16.9405C10.6417 16.911 10.5865 16.8859 10.5291 16.8649C10.4715 16.8437 10.4221 16.8263 10.3801 16.8124C10.1939 16.7474 10.0308 16.6769 9.89094 16.6018C9.75134 16.5262 9.63482 16.4428 9.54158 16.3502C9.44834 16.258 9.37842 16.1562 9.33182 16.0452C9.28518 15.9341 9.2619 15.81 9.2619 15.6736C9.2619 15.5537 9.2821 15.4439 9.3225 15.3429C9.3629 15.242 9.42038 15.1518 9.49498 15.0729C9.56954 14.9934 9.6607 14.9263 9.7687 14.8712C9.8767 14.816 9.99814 14.7754 10.1333 14.749V14.4253C10.1333 14.3973 10.1419 14.3735 10.159 14.3533C10.1761 14.3331 10.2017 14.323 10.2359 14.323H10.6738C10.6971 14.323 10.7215 14.3321 10.7471 14.351C10.7727 14.3694 10.7857 14.3945 10.7857 14.4255V14.7376C10.8727 14.7534 10.9577 14.7756 11.0408 14.8041C11.1239 14.8331 11.2065 14.8699 11.2889 14.9149C11.3417 14.946 11.3917 14.9784 11.4391 15.0118C11.4865 15.0449 11.5282 15.0773 11.5637 15.1081C11.5994 15.1392 11.6276 15.1687 11.6486 15.1966C11.6696 15.2248 11.6802 15.2489 11.6802 15.2691C11.6802 15.2893 11.6753 15.3077 11.6651 15.3248C11.6551 15.3419 11.64 15.3613 11.6198 15.3833L11.2635 15.7629C11.2371 15.7893 11.2107 15.8025 11.1843 15.8025C11.1625 15.8025 11.1425 15.7963 11.1249 15.7836C11.1071 15.7714 11.0874 15.7556 11.0656 15.737L11.0447 15.7186C11.0136 15.6922 10.9791 15.665 10.9411 15.6371C10.903 15.6088 10.8621 15.5837 10.8188 15.5612C10.7753 15.5389 10.7295 15.52 10.6813 15.5055C10.6331 15.4905 10.5845 15.4833 10.5345 15.4833C10.4832 15.4833 10.435 15.4877 10.3902 15.4962C10.3452 15.505 10.3055 15.5185 10.2714 15.5369C10.2372 15.5558 10.21 15.5801 10.1898 15.6104C10.1696 15.6407 10.1595 15.6777 10.1595 15.7212C10.1595 15.7645 10.1704 15.8023 10.1921 15.8341C10.2139 15.866 10.2465 15.8955 10.29 15.9227C10.3335 15.9498 10.3874 15.9755 10.4519 15.9996C10.5163 16.0236 10.5915 16.0498 10.6767 16.0775C10.8414 16.1319 10.9931 16.1888 11.1322 16.2489C11.271 16.3087 11.3912 16.3792 11.4922 16.461C11.5932 16.5426 11.6719 16.6399 11.7286 16.753C11.7853 16.8665 11.8138 17.0037 11.8138 17.1653C11.8138 17.3116 11.7882 17.4452 11.7369 17.5671C11.6856 17.6891 11.6141 17.7973 11.5225 17.8918C11.4308 17.9868 11.3225 18.0656 11.1977 18.1282C11.0726 18.1912 10.9356 18.2357 10.7865 18.2624V18.5956C10.7865 18.664 10.7492 18.6979 10.6746 18.6979H10.2367C10.1683 18.6979 10.1341 18.6637 10.1341 18.5956V18.2538C10.0113 18.2274 9.89274 18.187 9.77778 18.1326C9.66278 18.0783 9.55402 18.0138 9.4517 17.9395C9.38958 17.8947 9.33726 17.8504 9.29454 17.8069C9.25178 17.7634 9.21786 17.7282 9.19326 17.702L9.18602 17.695C9.18446 17.6919 9.1829 17.6899 9.18162 17.6891C9.18006 17.6883 9.1785 17.687 9.17694 17.6857C9.17538 17.6826 9.17386 17.6806 9.1723 17.6798C9.17074 17.679 9.16918 17.6777 9.16762 17.6764C9.1319 17.6378 9.11426 17.6065 9.11426 17.5832C9.11426 17.557 9.13214 17.5275 9.16762 17.4946L9.57058 17.1104C9.60322 17.0871 9.62962 17.0757 9.64982 17.0757C9.66382 17.0757 9.67858 17.0801 9.6941 17.0897C9.70838 17.0987 9.72702 17.1127 9.74878 17.1314Z" fill="#020203"/>
<path id="Vector_15" d="M13.2711 16.0306C12.8199 13.6992 10.6741 13.7401 10.584 13.7398L10.5739 13.7401L10.5635 13.7393C8.32158 13.5609 7.58842 15.7585 7.58142 15.7807L7.22974 15.6676C7.23778 15.6427 8.06158 13.1735 10.5842 13.3706C10.7826 13.3752 13.14 13.4118 13.6336 15.9601L13.2711 16.0306Z" fill="#020203"/>
<path id="Vector_16" d="M12.9915 16.2121L13.9947 15.9954L13.5881 16.8628L12.9915 16.2121Z" fill="#020203"/>
<path id="Vector_17" d="M13.6381 17.1908L12.6379 16.0996L14.3202 15.7361L13.6381 17.1908ZM13.3452 16.3246L13.5379 16.5349L13.6694 16.2545L13.3452 16.3246Z" fill="#020203"/>
<path id="Vector_18" d="M10.6715 20C10.5814 20 10.4889 19.9966 10.3939 19.9891C10.1947 19.9901 7.83808 19.9487 7.34448 17.3995L7.70704 17.3291C8.15844 19.6605 10.304 19.6207 10.3941 19.6199L10.4042 19.6196L10.4146 19.6204C12.656 19.7983 13.3897 17.6013 13.3967 17.579L13.7484 17.6921C13.7406 17.7165 12.9776 20 10.6715 20Z" fill="#020203"/>
<path id="Vector_19" d="M7.98689 17.148L6.98389 17.3647L7.39049 16.4973L7.98689 17.148Z" fill="#020203"/>
<path id="Vector_20" d="M6.6582 17.6239L7.34032 16.1692L8.34048 17.2603L6.6582 17.6239ZM7.44056 16.8251L7.309 17.1055L7.63324 17.0353L7.44056 16.8251Z" fill="#020203"/>
<path id="Vector_21" d="M21.0522 8.0282C21.0522 8.00672 21.0595 7.98988 21.0738 7.97692C21.0882 7.96424 21.1061 7.95776 21.1276 7.95776H22.855C22.8741 7.95776 22.8915 7.96372 22.9065 7.97536C22.9215 7.98704 22.9301 8.00464 22.9322 8.0282V8.42668C22.9322 8.44584 22.9257 8.46424 22.9122 8.48184C22.899 8.49944 22.8798 8.50824 22.8552 8.50824H22.3013V10.2659C22.3013 10.285 22.2943 10.3024 22.2806 10.3182C22.2666 10.3337 22.2487 10.3415 22.2262 10.3415H21.7554C21.7372 10.3415 21.7202 10.3342 21.7041 10.3197C21.688 10.3052 21.68 10.2874 21.68 10.2661V8.50852H21.1279C21.1064 8.50852 21.0885 8.50152 21.074 8.4878C21.0595 8.4738 21.0525 8.45364 21.0525 8.42696L21.0522 8.0282Z" fill="#020203"/>
<path id="Vector_22" d="M23.2549 8.42147C23.2549 8.40127 23.2588 8.38339 23.2663 8.36839C23.2735 8.35335 23.2836 8.34119 23.2961 8.33159C23.3085 8.32203 23.3222 8.31479 23.3378 8.30987C23.353 8.30495 23.3683 8.30259 23.3833 8.30259H23.6257C23.6524 8.30259 23.6739 8.31063 23.69 8.32667C23.706 8.34275 23.7198 8.36319 23.7309 8.38755C23.742 8.41215 23.7521 8.43959 23.7607 8.46935C23.7692 8.49939 23.7793 8.52815 23.7912 8.55611C23.8231 8.52087 23.8552 8.48595 23.8868 8.45175C23.9181 8.41759 23.9523 8.38703 23.9886 8.36035C24.0251 8.33367 24.065 8.31191 24.1082 8.29535C24.1514 8.27879 24.2009 8.27051 24.2566 8.27051C24.3144 8.27051 24.3659 8.27491 24.4114 8.28343C24.457 8.29199 24.5 8.30443 24.5407 8.32099C24.5816 8.33755 24.6218 8.35879 24.6622 8.38443C24.7023 8.41007 24.746 8.44011 24.7929 8.47427C24.839 8.50095 24.8621 8.53255 24.8621 8.56903C24.8621 8.59259 24.8528 8.61979 24.8346 8.65087L24.6886 8.89971C24.6596 8.94139 24.6238 8.96235 24.5811 8.96235C24.5596 8.96235 24.5355 8.95667 24.5088 8.94475C24.4627 8.89995 24.4161 8.86631 24.3682 8.84455C24.3206 8.82279 24.2664 8.81167 24.2053 8.81167C24.1636 8.81167 24.1268 8.81763 24.0952 8.82927C24.0636 8.84091 24.0352 8.85775 24.0093 8.87899C23.9836 8.90047 23.9596 8.92611 23.937 8.95615C23.9145 8.98591 23.8922 9.01931 23.8697 9.05559V10.2177C23.8697 10.2583 23.8598 10.2891 23.8399 10.3098C23.82 10.3308 23.7871 10.3411 23.741 10.3411H23.3802C23.2966 10.3411 23.2549 10.3 23.2549 10.2177V8.42147Z" fill="#020203"/>
<path id="Vector_23" d="M27.1529 10.2226C27.1529 10.2407 27.1498 10.2583 27.1433 10.2748C27.1369 10.2914 27.1263 10.3046 27.1115 10.3142C27.0996 10.3259 27.0856 10.3334 27.0698 10.3367C27.0537 10.3398 27.0397 10.3416 27.0281 10.3416H26.7119C26.6893 10.3416 26.6712 10.3388 26.6575 10.3328C26.6435 10.3269 26.6324 10.3186 26.6239 10.308C26.6153 10.2971 26.6078 10.2842 26.6021 10.2686C26.5961 10.2534 26.5899 10.2363 26.5837 10.2182L26.563 10.1459C26.534 10.1749 26.5011 10.2031 26.4641 10.2311C26.427 10.2588 26.3864 10.2836 26.3421 10.3057C26.2975 10.3277 26.2501 10.3453 26.1991 10.3588C26.1484 10.3722 26.0955 10.3787 26.0409 10.3787C25.9435 10.3787 25.85 10.3665 25.7607 10.3419C25.6713 10.3173 25.5877 10.2821 25.5103 10.2368C25.4326 10.1912 25.3621 10.1366 25.2989 10.0729C25.2357 10.0094 25.1814 9.93852 25.1361 9.86032C25.0905 9.78212 25.0555 9.69796 25.0309 9.6076C25.0063 9.51724 24.9941 9.42272 24.9941 9.32432C24.9941 9.17544 25.0213 9.03716 25.076 8.90924C25.1303 8.78136 25.2049 8.67 25.2989 8.57548C25.3932 8.48072 25.5041 8.4064 25.6315 8.35228C25.7589 8.2982 25.8953 8.27124 26.0409 8.27124C26.1072 8.27124 26.1691 8.27876 26.2261 8.29376C26.2835 8.3088 26.3359 8.329 26.3835 8.35464C26.4312 8.38028 26.4741 8.41108 26.5127 8.44708C26.5513 8.4828 26.585 8.52164 26.614 8.5636L26.6603 8.41756C26.6712 8.39088 26.68 8.36912 26.687 8.35256C26.694 8.336 26.7015 8.32356 26.7096 8.3158C26.7173 8.30776 26.7274 8.30232 26.7393 8.29972C26.751 8.29716 26.7676 8.2956 26.7891 8.2956H27.0283C27.04 8.2956 27.0543 8.29716 27.0701 8.30052C27.0861 8.30388 27.0998 8.3114 27.1117 8.32304C27.1265 8.33468 27.1374 8.34816 27.1436 8.36316C27.1501 8.3782 27.1532 8.39528 27.1532 8.41444L27.1529 10.2226ZM25.5716 9.3238C25.5716 9.39448 25.5825 9.46052 25.6045 9.52188C25.6265 9.58352 25.6579 9.6366 25.6985 9.68164C25.7392 9.72644 25.7881 9.76216 25.8454 9.78832C25.9026 9.81448 25.9661 9.82768 26.0357 9.82768C26.1075 9.82768 26.174 9.81448 26.2354 9.78832C26.297 9.76216 26.3506 9.72644 26.3959 9.68164C26.4415 9.6366 26.477 9.58352 26.5027 9.52188C26.5285 9.46052 26.5412 9.39448 26.5412 9.3238C26.5412 9.2552 26.5285 9.18992 26.5027 9.12804C26.477 9.06616 26.4415 9.01128 26.3959 8.96416C26.3504 8.91728 26.297 8.88 26.2354 8.85256C26.174 8.82512 26.1072 8.81164 26.0357 8.81164C25.9661 8.81164 25.9026 8.82512 25.8454 8.85256C25.7879 8.87972 25.7389 8.91704 25.6985 8.96416C25.6579 9.01128 25.6265 9.06592 25.6045 9.12804C25.5825 9.1902 25.5716 9.2552 25.5716 9.3238Z" fill="#020203"/>
<path id="Vector_24" d="M27.58 8.33149C27.5939 8.31985 27.6087 8.31233 27.624 8.30897C27.6395 8.30561 27.6543 8.30405 27.6683 8.30405H27.9107C27.9298 8.30405 27.9464 8.30741 27.9607 8.31441C27.9747 8.32141 27.9863 8.33073 27.9959 8.34237C28.0055 8.35405 28.0132 8.36749 28.0192 8.38253C28.0249 8.39753 28.0308 8.41305 28.036 8.42885L28.0699 8.56973C28.086 8.53657 28.1119 8.50241 28.1476 8.46717C28.1834 8.43197 28.2279 8.39985 28.281 8.37113C28.3341 8.34237 28.3952 8.31857 28.4646 8.29993C28.534 8.28129 28.6117 8.27197 28.6974 8.27197C28.8194 8.27197 28.9284 8.29553 29.024 8.34237C29.1198 8.38925 29.2011 8.45345 29.2679 8.53449C29.335 8.61557 29.3858 8.71033 29.4205 8.81881C29.4555 8.92729 29.4728 9.04305 29.4728 9.16605V10.2176C29.4728 10.2582 29.464 10.289 29.4464 10.3097C29.4288 10.3307 29.4005 10.3411 29.3619 10.3411H28.9911C28.945 10.3411 28.9134 10.3333 28.8966 10.3178C28.8795 10.3022 28.8707 10.2719 28.8707 10.2271V9.18209C28.8707 9.13601 28.8603 9.09249 28.8396 9.05133C28.8186 9.01017 28.7912 8.97365 28.7567 8.94205C28.7225 8.91049 28.6837 8.88561 28.6405 8.86725C28.5972 8.84909 28.5529 8.84005 28.5079 8.84005C28.4693 8.84005 28.4302 8.84857 28.39 8.86569C28.3499 8.88277 28.3129 8.90657 28.2792 8.93713C28.2455 8.96769 28.2173 9.00369 28.1943 9.04461C28.1712 9.08577 28.158 9.13057 28.1549 9.17873V10.222C28.1549 10.2401 28.1515 10.2585 28.1445 10.2763C28.1375 10.2947 28.1272 10.3085 28.1135 10.318C28.0995 10.3266 28.0863 10.3325 28.0741 10.3356C28.0617 10.3387 28.0477 10.3405 28.0316 10.3405H27.6691C27.6229 10.3405 27.5898 10.3291 27.5696 10.3069C27.5491 10.2844 27.5391 10.2543 27.5391 10.2171V8.42189C27.5391 8.40169 27.5437 8.38277 27.5528 8.36593C27.5618 8.34885 27.5745 8.33537 27.5906 8.32581L27.58 8.33149Z" fill="#020203"/>
<path id="Vector_25" d="M30.1631 9.70735C30.1921 9.73635 30.2234 9.76067 30.2571 9.78035C30.2908 9.80031 30.3231 9.81635 30.3542 9.82851C30.3853 9.84095 30.4125 9.84975 30.436 9.85519C30.4596 9.86063 30.4756 9.86323 30.4842 9.86323C30.5047 9.86323 30.5306 9.86219 30.5622 9.86063C30.5935 9.85907 30.624 9.85415 30.6528 9.84611C30.6818 9.83811 30.7064 9.82491 30.7274 9.80675C30.7484 9.78839 30.7587 9.76275 30.7587 9.72987C30.7587 9.69983 30.7528 9.67599 30.7411 9.65839C30.7294 9.64079 30.7121 9.62579 30.6896 9.61335C30.6673 9.60119 30.6396 9.59031 30.607 9.58071C30.5743 9.57087 30.5376 9.55975 30.4969 9.54679C30.3684 9.51263 30.2625 9.47147 30.1791 9.42331C30.0955 9.37515 30.0294 9.32127 29.9808 9.26199C29.9321 9.20243 29.8982 9.13847 29.879 9.07011C29.8598 9.00151 29.85 8.92927 29.85 8.85339C29.85 8.76459 29.8676 8.68379 29.9031 8.61103C29.9383 8.53827 29.9885 8.47587 30.0538 8.42407C30.119 8.37231 30.1973 8.33215 30.2882 8.30367C30.3793 8.27547 30.4803 8.26123 30.5917 8.26123C30.659 8.26123 30.7222 8.26691 30.781 8.27803C30.84 8.28943 30.8962 8.30703 30.9496 8.33111C31.0032 8.35519 31.0552 8.38627 31.1062 8.42435C31.157 8.46239 31.2075 8.50771 31.2578 8.56003C31.2762 8.58151 31.2852 8.60143 31.286 8.62011C31.2865 8.63899 31.2743 8.65895 31.25 8.68043C31.2083 8.71459 31.1684 8.74851 31.1304 8.78139C31.0923 8.81455 31.0529 8.85159 31.0122 8.89223C30.9993 8.90283 30.9864 8.90959 30.9737 8.91243C30.9607 8.91527 30.9486 8.91475 30.9366 8.91163C30.925 8.90855 30.9136 8.90311 30.903 8.89559C30.8921 8.88807 30.8825 8.87903 30.874 8.86815C30.8364 8.82647 30.7937 8.79823 30.7455 8.78399C30.6973 8.76975 30.6525 8.76223 30.6106 8.76223C30.5583 8.76223 30.5163 8.77131 30.4855 8.78943C30.4544 8.80755 30.4399 8.83551 30.4422 8.87279C30.4443 8.90051 30.4547 8.92227 30.4733 8.93779C30.492 8.95335 30.515 8.96603 30.5425 8.97559C30.5697 8.98519 30.5984 8.99295 30.6292 8.99891C30.6598 9.00459 30.6878 9.01135 30.7134 9.01883C30.81 9.04991 30.898 9.08359 30.9783 9.11983C31.0586 9.15607 31.1283 9.20087 31.1868 9.25395C31.2458 9.30703 31.2917 9.37023 31.324 9.44427C31.3567 9.51807 31.373 9.60791 31.373 9.71383C31.373 9.81999 31.352 9.91447 31.3096 9.99811C31.2673 10.0815 31.2093 10.1517 31.1355 10.2084C31.0614 10.2651 30.9742 10.3086 30.8729 10.3383C30.7719 10.3684 30.6629 10.3834 30.5461 10.3834C30.4798 10.3834 30.4125 10.3774 30.3438 10.3658C30.2752 10.3542 30.2089 10.335 30.1447 10.3088C30.0805 10.2827 30.0196 10.249 29.9616 10.2079C29.9036 10.1667 29.8523 10.1164 29.8075 10.0577C29.7958 10.0429 29.7868 10.0271 29.7808 10.0103C29.7751 9.99371 29.7723 9.97739 29.7731 9.96135C29.7733 9.94531 29.7767 9.93055 29.7826 9.91735C29.7884 9.90387 29.7979 9.89247 29.8109 9.88291L30.0178 9.67575C30.0434 9.65427 30.0662 9.64675 30.0859 9.65347C30.1066 9.65919 30.132 9.67755 30.1631 9.70735Z" fill="#020203"/>
<path id="Vector_26" d="M31.9114 8.33163C31.9114 8.23219 31.9329 8.13847 31.9757 8.05067C32.0187 7.96291 32.0758 7.88627 32.1473 7.82047C32.2191 7.75471 32.3017 7.70267 32.3947 7.66487C32.4879 7.62679 32.5852 7.60791 32.6868 7.60791H32.7189C32.7554 7.60791 32.7834 7.61879 32.8033 7.64079C32.823 7.66255 32.8331 7.69283 32.8331 7.73143V8.03799C32.8331 8.07759 32.8227 8.11047 32.8018 8.13663C32.7811 8.16303 32.7533 8.17599 32.7192 8.17599H32.687C32.6648 8.17599 32.643 8.17987 32.6228 8.18791C32.6024 8.19595 32.5842 8.20679 32.5682 8.22079C32.5521 8.23479 32.5392 8.25107 32.5296 8.26971C32.52 8.28839 32.5151 8.30907 32.5151 8.33163V8.51623H32.7671C32.8036 8.51623 32.8315 8.52607 32.8515 8.54599C32.8712 8.56595 32.8813 8.59703 32.8813 8.63999V8.93363C32.8813 8.97971 32.8712 9.01339 32.8515 9.03459C32.8315 9.05611 32.8036 9.06671 32.7671 9.06671H32.5151V10.2177C32.5151 10.2583 32.5014 10.2891 32.4742 10.3098C32.4467 10.3308 32.4172 10.3412 32.3851 10.3412H32.0383C31.9997 10.3412 31.9689 10.329 31.9458 10.3049C31.9228 10.2808 31.9114 10.2518 31.9114 10.2174V9.06699H31.7459C31.7086 9.06699 31.6783 9.05635 31.6553 9.03487C31.6322 9.01339 31.6208 8.97971 31.6208 8.93387V8.64027C31.6208 8.59755 31.6325 8.56619 31.6553 8.54627C31.6783 8.52659 31.7086 8.51647 31.7459 8.51647H31.9114V8.33163Z" fill="#020203"/>
<path id="Vector_27" d="M34.8173 10.0975C34.7231 10.1842 34.6172 10.2518 34.4993 10.3005C34.3818 10.3492 34.2569 10.3738 34.1254 10.3738C33.9788 10.3738 33.8402 10.3469 33.7094 10.2935C33.5789 10.2399 33.4642 10.1659 33.3658 10.0711C33.2674 9.97631 33.1892 9.86499 33.1314 9.73631C33.0737 9.60787 33.0447 9.46831 33.0447 9.31735C33.0447 9.22311 33.0563 9.13223 33.0791 9.04367C33.1022 8.95535 33.1348 8.87275 33.1773 8.79559C33.2195 8.71871 33.2708 8.64775 33.3314 8.58303C33.392 8.51831 33.4596 8.46287 33.5344 8.41679C33.6092 8.37095 33.6908 8.33499 33.7783 8.30935C33.8661 8.28371 33.9588 8.27075 34.0562 8.27075C34.145 8.27075 34.231 8.28267 34.3147 8.30599C34.3981 8.32955 34.4765 8.36267 34.5498 8.40539C34.6231 8.44811 34.6902 8.49967 34.7513 8.55947C34.8124 8.61955 34.8647 8.68503 34.9088 8.75599C34.9528 8.82719 34.9864 8.90331 35.0105 8.98411C35.0346 9.06491 35.0468 9.14803 35.0468 9.23371C35.0468 9.28939 35.046 9.33471 35.0442 9.37019C35.0426 9.40563 35.0344 9.43363 35.0193 9.45459C35.0043 9.47555 34.9794 9.49007 34.9445 9.49783C34.9098 9.50587 34.8588 9.50999 34.7912 9.50999H33.6354C33.646 9.57835 33.6678 9.63583 33.7004 9.68167C33.733 9.72775 33.7706 9.76427 33.8136 9.79171C33.8563 9.81891 33.9019 9.83859 33.95 9.85023C33.9982 9.86187 34.0438 9.86783 34.0865 9.86783C34.1251 9.86783 34.1647 9.86371 34.2054 9.85567C34.246 9.84763 34.2854 9.83703 34.3232 9.82355C34.3613 9.81035 34.396 9.79455 34.4276 9.77723C34.4592 9.75959 34.4846 9.74095 34.5037 9.72179C34.5208 9.70783 34.5356 9.69747 34.548 9.69071C34.5602 9.68347 34.5731 9.68011 34.5874 9.68011C34.6014 9.68011 34.6156 9.68503 34.6298 9.69463C34.6444 9.70419 34.6604 9.71819 34.6788 9.73631L34.8489 9.92895C34.8608 9.94291 34.8684 9.95563 34.8715 9.96675C34.8748 9.97815 34.8764 9.98955 34.8764 10.0014C34.8764 10.023 34.8707 10.0413 34.8588 10.0566C34.8471 10.0722 34.8334 10.0859 34.8173 10.0975ZM34.0451 8.76015C34.0034 8.76015 33.963 8.76843 33.9239 8.78499C33.8848 8.80155 33.8483 8.82383 33.8138 8.85155C33.7796 8.87951 33.7488 8.91083 33.7214 8.94631C33.6942 8.98151 33.6719 9.01727 33.6548 9.05375H34.475C34.4527 9.01207 34.4281 8.97375 34.402 8.93827C34.3758 8.90307 34.3458 8.87199 34.3121 8.84507C34.2784 8.81839 34.2398 8.79743 34.1966 8.78239C34.1536 8.76763 34.1028 8.76015 34.0451 8.76015Z" fill="#020203"/>
<path id="Vector_28" d="M35.3821 8.42147C35.3821 8.40127 35.386 8.38339 35.3935 8.36839C35.4007 8.35335 35.4108 8.34119 35.4233 8.33159C35.4357 8.32203 35.4494 8.31479 35.465 8.30987C35.4802 8.30495 35.4955 8.30259 35.5106 8.30259H35.753C35.7796 8.30259 35.8011 8.31063 35.8172 8.32667C35.8332 8.34275 35.847 8.36319 35.8581 8.38755C35.8692 8.41215 35.8793 8.43959 35.8879 8.46935C35.8964 8.49939 35.9065 8.52815 35.9184 8.55611C35.9503 8.52087 35.9824 8.48595 36.014 8.45175C36.0453 8.41759 36.0795 8.38703 36.1158 8.36035C36.1523 8.33367 36.1922 8.31191 36.2354 8.29535C36.2786 8.27879 36.3281 8.27051 36.3838 8.27051C36.4416 8.27051 36.4931 8.27491 36.5387 8.28343C36.5842 8.29199 36.6272 8.30443 36.6679 8.32099C36.7088 8.33755 36.749 8.35879 36.7894 8.38443C36.8295 8.41007 36.8733 8.44011 36.9201 8.47427C36.9662 8.50095 36.9893 8.53255 36.9893 8.56903C36.9893 8.59259 36.98 8.61979 36.9618 8.65087L36.8158 8.89971C36.7868 8.94139 36.751 8.96235 36.7083 8.96235C36.6868 8.96235 36.6627 8.95667 36.636 8.94475C36.59 8.89995 36.5433 8.86631 36.4954 8.84455C36.4478 8.82279 36.3936 8.81167 36.3325 8.81167C36.2908 8.81167 36.254 8.81763 36.2225 8.82927C36.1909 8.84091 36.1624 8.85775 36.1365 8.87899C36.1108 8.90047 36.0868 8.92611 36.0642 8.95615C36.0417 8.98591 36.0194 9.01931 35.9969 9.05559V10.2177C35.9969 10.2583 35.987 10.2891 35.9671 10.3098C35.9472 10.3308 35.9143 10.3411 35.8682 10.3411H35.5072C35.4235 10.3411 35.3818 10.3 35.3818 10.2177L35.3821 8.42147Z" fill="#020203"/>
<path id="Vector_29" d="M38.8906 10.0975C38.7963 10.1842 38.6904 10.2518 38.5726 10.3005C38.455 10.3492 38.3302 10.3738 38.1986 10.3738C38.052 10.3738 37.9135 10.3469 37.7827 10.2935C37.6522 10.2399 37.5375 10.1659 37.439 10.0711C37.3406 9.97631 37.2624 9.86499 37.2047 9.73631C37.1469 9.60787 37.1179 9.46831 37.1179 9.31735C37.1179 9.22311 37.1296 9.13223 37.1524 9.04367C37.1754 8.95535 37.208 8.87275 37.2505 8.79559C37.2927 8.71871 37.344 8.64775 37.4046 8.58303C37.4652 8.51831 37.5328 8.46287 37.6076 8.41679C37.6825 8.37095 37.7641 8.33499 37.8516 8.30935C37.9394 8.28371 38.0321 8.27075 38.1295 8.27075C38.2183 8.27075 38.3043 8.28267 38.3879 8.30599C38.4713 8.32955 38.5498 8.36267 38.6231 8.40539C38.6964 8.44811 38.7634 8.49967 38.8246 8.55947C38.8857 8.61955 38.938 8.68503 38.982 8.75599C39.026 8.82719 39.0597 8.90331 39.0838 8.98411C39.1079 9.06491 39.12 9.14803 39.12 9.23371C39.12 9.28939 39.1193 9.33471 39.1174 9.37019C39.1159 9.40563 39.1076 9.43363 39.0926 9.45459C39.0776 9.47555 39.0527 9.49007 39.0178 9.49783C38.983 9.50587 38.932 9.50999 38.8644 9.50999H37.7086C37.7192 9.57835 37.741 9.63583 37.7736 9.68167C37.8063 9.72775 37.8438 9.76427 37.8868 9.79171C37.9296 9.81891 37.9751 9.83859 38.0233 9.85023C38.0715 9.86187 38.117 9.86783 38.1598 9.86783C38.1984 9.86783 38.238 9.86371 38.2786 9.85567C38.3193 9.84763 38.3587 9.83703 38.3965 9.82355C38.4346 9.81035 38.4692 9.79455 38.5008 9.77723C38.5324 9.75959 38.5578 9.74095 38.5772 9.72179C38.5943 9.70783 38.6091 9.69747 38.6215 9.69071C38.6337 9.68347 38.6466 9.68011 38.6609 9.68011C38.6749 9.68011 38.6891 9.68503 38.7034 9.69463C38.7176 9.70419 38.7339 9.71819 38.7523 9.73631L38.9224 9.92895C38.9344 9.94291 38.9419 9.95563 38.945 9.96675C38.9484 9.97815 38.9499 9.98955 38.9499 10.0014C38.9499 10.023 38.9442 10.0413 38.9323 10.0566C38.9204 10.0722 38.9064 10.0859 38.8906 10.0975ZM38.1181 8.76015C38.0764 8.76015 38.036 8.76843 37.9969 8.78499C37.9578 8.80155 37.9212 8.82383 37.8868 8.85155C37.8526 8.87951 37.8218 8.91083 37.7944 8.94631C37.7672 8.98151 37.7449 9.01727 37.7278 9.05375H38.548C38.5257 9.01207 38.5011 8.97375 38.475 8.93827C38.4488 8.90307 38.4188 8.87199 38.3851 8.84507C38.3514 8.81839 38.3128 8.79743 38.2696 8.78239C38.2266 8.76763 38.1758 8.76015 38.1181 8.76015Z" fill="#020203"/>
<path id="Vector_30" d="M39.497 8.33149C39.511 8.31985 39.5257 8.31233 39.541 8.30897C39.5565 8.30561 39.5713 8.30405 39.5853 8.30405H39.8277C39.8469 8.30405 39.8634 8.30741 39.8777 8.31441C39.8917 8.32141 39.9033 8.33073 39.9129 8.34237C39.9225 8.35405 39.9303 8.36749 39.9362 8.38253C39.9419 8.39753 39.9479 8.41305 39.953 8.42885L39.9869 8.56973C40.003 8.53657 40.0289 8.50241 40.0647 8.46717C40.1004 8.43197 40.1449 8.39985 40.198 8.37113C40.2511 8.34237 40.3122 8.31857 40.3816 8.29993C40.451 8.28129 40.5287 8.27197 40.6145 8.27197C40.7365 8.27197 40.8453 8.29553 40.9409 8.34237C41.0369 8.38925 41.1181 8.45345 41.1849 8.53449C41.2521 8.61557 41.3029 8.71033 41.3377 8.81881C41.3725 8.92729 41.3897 9.04305 41.3897 9.16605V10.2176C41.3897 10.2582 41.3809 10.289 41.3633 10.3097C41.3457 10.3307 41.3177 10.3411 41.2789 10.3411H40.9081C40.8621 10.3411 40.8305 10.3333 40.8137 10.3178C40.7965 10.3022 40.7877 10.2719 40.7877 10.2271V9.18209C40.7877 9.13601 40.7773 9.09249 40.7565 9.05133C40.7357 9.01017 40.7081 8.97365 40.6737 8.94205C40.6397 8.91049 40.6009 8.88561 40.5575 8.86725C40.5142 8.84885 40.4699 8.84005 40.4249 8.84005C40.3863 8.84005 40.3472 8.84857 40.3071 8.86569C40.2669 8.88277 40.2299 8.90657 40.1962 8.93713C40.1625 8.96769 40.1343 9.00369 40.1113 9.04461C40.0882 9.08577 40.075 9.13057 40.0719 9.17873V10.222C40.0719 10.2401 40.0685 10.2585 40.0615 10.2763C40.0545 10.2947 40.0442 10.3085 40.0305 10.318C40.0165 10.3266 40.0033 10.3325 39.9911 10.3356C39.9787 10.3387 39.9647 10.3405 39.9486 10.3405H39.5861C39.54 10.3405 39.5068 10.3291 39.4866 10.3069C39.4662 10.2844 39.4561 10.2543 39.4561 10.2171V8.42189C39.4561 8.40169 39.4607 8.38277 39.4698 8.36593C39.4789 8.34885 39.4915 8.33537 39.5076 8.32581L39.497 8.33149Z" fill="#020203"/>
<path id="Vector_31" d="M43.0804 9.71379C43.0952 9.70315 43.1096 9.69643 43.1228 9.69383C43.1364 9.69123 43.1464 9.68971 43.154 9.68971C43.1724 9.68971 43.1888 9.69359 43.204 9.70107C43.2188 9.70859 43.2344 9.72463 43.2504 9.74923L43.4304 10.0206C43.4356 10.0292 43.4408 10.0388 43.4456 10.0496C43.4508 10.0602 43.4528 10.0688 43.4528 10.0752C43.4528 10.0998 43.4452 10.12 43.43 10.1356C43.4144 10.1508 43.3972 10.1646 43.3792 10.1765C43.2912 10.2376 43.1952 10.2865 43.0908 10.3233C42.9864 10.3603 42.876 10.3784 42.7592 10.3784C42.6628 10.3784 42.57 10.3663 42.4808 10.3417C42.3916 10.3171 42.3084 10.2819 42.2312 10.2366C42.1544 10.191 42.0836 10.1364 42.0192 10.0727C41.9548 10.0092 41.9004 9.93827 41.8552 9.86007C41.8104 9.78187 41.7752 9.69771 41.7504 9.60735C41.7252 9.51699 41.7124 9.42247 41.7124 9.32407C41.7124 9.22571 41.7248 9.13091 41.7504 9.03979C41.7752 8.94891 41.8104 8.86447 41.8552 8.78707C41.9004 8.70963 41.9548 8.63895 42.0192 8.57527C42.0832 8.51155 42.154 8.45719 42.2312 8.41215C42.308 8.36735 42.3916 8.33239 42.4808 8.30779C42.57 8.28319 42.6632 8.27075 42.7592 8.27075C42.876 8.27075 42.9836 8.28631 43.0828 8.31735C43.1816 8.34843 43.2744 8.39427 43.3612 8.45539L43.356 8.45047C43.3796 8.46443 43.3984 8.48075 43.4124 8.49939C43.4264 8.51831 43.4332 8.54135 43.4332 8.56931C43.4332 8.58847 43.4264 8.60839 43.414 8.62859L43.2708 8.87095C43.2412 8.92327 43.2048 8.94943 43.162 8.94943C43.1524 8.94943 43.1404 8.94707 43.1264 8.94215C43.1124 8.93723 43.0968 8.92895 43.0796 8.91731C43.0328 8.88623 42.982 8.86087 42.9284 8.84091C42.874 8.82123 42.8168 8.81115 42.756 8.81115C42.6884 8.81115 42.626 8.82459 42.5696 8.85207C42.5128 8.87923 42.4644 8.91651 42.4244 8.96367C42.384 9.01079 42.3528 9.06543 42.3304 9.12755C42.308 9.18943 42.2968 9.25495 42.2968 9.32331C42.2968 9.39399 42.308 9.46003 42.3304 9.52139C42.3528 9.58303 42.384 9.63611 42.4244 9.68115C42.4644 9.72595 42.5128 9.76167 42.5696 9.78783C42.6264 9.81399 42.6884 9.82719 42.756 9.82719C42.8168 9.82719 42.874 9.81655 42.9276 9.79535C42.9812 9.77411 43.032 9.74719 43.0804 9.71379Z" fill="#020203"/>
<path id="Vector_32" d="M43.7565 7.6157C43.7565 7.57066 43.7657 7.53906 43.7853 7.52014C43.8045 7.5015 43.8345 7.49194 43.8753 7.49194H44.2477C44.2849 7.49194 44.3153 7.50126 44.3381 7.52014C44.3613 7.53906 44.3725 7.57066 44.3725 7.6157V7.92874C44.3725 7.94142 44.3697 7.95542 44.3637 7.97042C44.3581 7.98546 44.3497 7.9997 44.3389 8.01366C44.3281 8.02766 44.3153 8.03906 44.2997 8.0481C44.2841 8.05718 44.2669 8.06182 44.2473 8.06182H43.8749C43.7957 8.06182 43.7561 8.01754 43.7561 7.9285L43.7565 7.6157ZM43.7565 8.42798C43.7565 8.39378 43.7657 8.36426 43.7853 8.33966C43.8045 8.31506 43.8345 8.3029 43.8753 8.3029H44.2429C44.2557 8.3029 44.2697 8.30574 44.2845 8.3117C44.2993 8.31766 44.3137 8.32622 44.3265 8.33734C44.3393 8.34874 44.3501 8.36166 44.3593 8.3767C44.3681 8.3917 44.3729 8.40882 44.3729 8.42798V10.2179C44.3729 10.2586 44.3617 10.2894 44.3393 10.3101C44.3169 10.3311 44.2849 10.3415 44.2429 10.3415H43.8753C43.7961 10.3415 43.7565 10.3003 43.7565 10.2179V8.42798Z" fill="#020203"/>
<path id="Vector_33" d="M46.8561 10.2226C46.8561 10.2407 46.8533 10.2583 46.8465 10.2748C46.8401 10.2914 46.8297 10.3046 46.8149 10.3142C46.8029 10.3259 46.7889 10.3334 46.7733 10.3367C46.7569 10.3398 46.7429 10.3416 46.7313 10.3416H46.4153C46.3929 10.3416 46.3745 10.3388 46.3609 10.3328C46.3469 10.3269 46.3357 10.3186 46.3273 10.308C46.3185 10.2971 46.3113 10.2842 46.3053 10.2686C46.2993 10.2534 46.2933 10.2363 46.2869 10.2182L46.2665 10.1459C46.2373 10.1749 46.2045 10.2031 46.1673 10.2311C46.1305 10.2588 46.0897 10.2836 46.0453 10.3057C46.0009 10.3277 45.9533 10.3453 45.9025 10.3588C45.8517 10.3722 45.7989 10.3787 45.7441 10.3787C45.6469 10.3787 45.5533 10.3665 45.4641 10.3419C45.3745 10.3173 45.2909 10.2821 45.2137 10.2368C45.1361 10.1912 45.0653 10.1366 45.0021 10.0729C44.9389 10.0094 44.8849 9.93852 44.8393 9.86032C44.7937 9.78212 44.7589 9.69796 44.7341 9.6076C44.7097 9.51724 44.6973 9.42272 44.6973 9.32432C44.6973 9.17544 44.7245 9.03716 44.7793 8.90924C44.8337 8.78136 44.9081 8.67 45.0021 8.57548C45.0965 8.48072 45.2073 8.4064 45.3349 8.35228C45.4621 8.2982 45.5985 8.27124 45.7441 8.27124C45.8105 8.27124 45.8725 8.27876 45.9293 8.29376C45.9869 8.3088 46.0393 8.329 46.0869 8.35464C46.1345 8.38028 46.1773 8.41108 46.2161 8.44708C46.2545 8.4828 46.2885 8.52164 46.3173 8.5636L46.3637 8.41756C46.3745 8.39088 46.3833 8.36912 46.3905 8.35256C46.3973 8.336 46.4049 8.32356 46.4129 8.3158C46.4205 8.30776 46.4309 8.30232 46.4425 8.29972C46.4545 8.29716 46.4709 8.2956 46.4925 8.2956H46.7317C46.7433 8.2956 46.7577 8.29716 46.7733 8.30052C46.7893 8.30388 46.8033 8.3114 46.8149 8.32304C46.8297 8.33468 46.8409 8.34816 46.8469 8.36316C46.8533 8.3782 46.8565 8.39528 46.8565 8.41444L46.8561 10.2226ZM45.2749 9.3238C45.2749 9.39448 45.2857 9.46052 45.3077 9.52188C45.3297 9.58352 45.3613 9.6366 45.4017 9.68164C45.4425 9.72644 45.4913 9.76216 45.5489 9.78832C45.6061 9.81448 45.6693 9.82768 45.7389 9.82768C45.8109 9.82768 45.8773 9.81448 45.9389 9.78832C46.0005 9.76216 46.0541 9.72644 46.0993 9.68164C46.1449 9.6366 46.1805 9.58352 46.2061 9.52188C46.2317 9.46052 46.2445 9.39448 46.2445 9.3238C46.2445 9.2552 46.2317 9.18992 46.2061 9.12804C46.1805 9.06616 46.1449 9.01128 46.0993 8.96416C46.0537 8.91728 46.0005 8.88 45.9389 8.85256C45.8773 8.82512 45.8105 8.81164 45.7389 8.81164C45.6693 8.81164 45.6061 8.82512 45.5489 8.85256C45.4913 8.87972 45.4421 8.91704 45.4017 8.96416C45.3613 9.01128 45.3297 9.06592 45.3077 9.12804C45.2857 9.1902 45.2749 9.2552 45.2749 9.3238Z" fill="#020203"/>
<path id="Vector_34" d="M21.1807 11.8841C21.1807 11.8615 21.1869 11.8437 21.1991 11.8302C21.2112 11.817 21.2288 11.8103 21.2514 11.8103H22.3173C22.4116 11.8103 22.5004 11.8281 22.5838 11.8639C22.6674 11.8999 22.7405 11.9491 22.8029 12.0115C22.8653 12.0739 22.915 12.1474 22.9513 12.2313C22.9878 12.3155 23.0059 12.4056 23.0059 12.5019C23.0059 12.5821 22.9932 12.6567 22.9681 12.7259C22.943 12.7947 22.9072 12.8566 22.8614 12.9113C22.9383 12.9817 22.9992 13.0658 23.0445 13.1632C23.0893 13.2605 23.1118 13.3639 23.1118 13.4731C23.1118 13.5705 23.0932 13.6629 23.0556 13.7499C23.0183 13.8372 22.9676 13.9136 22.9039 13.9793C22.8404 14.0451 22.7661 14.0974 22.6809 14.136C22.5957 14.1746 22.5061 14.1937 22.4118 14.1937H21.2514C21.2299 14.1937 21.2128 14.188 21.1998 14.1769C21.1869 14.1658 21.1807 14.1484 21.1807 14.1249V11.8841ZM22.3895 12.5164C22.3895 12.4843 22.3836 12.4545 22.3719 12.4265C22.36 12.3988 22.3435 12.3742 22.3219 12.3527C22.3005 12.3313 22.2746 12.3144 22.2445 12.302C22.2145 12.2896 22.1819 12.2836 22.1464 12.2836H21.8019V12.7492H22.1415C22.178 12.7492 22.2116 12.7435 22.2422 12.7323C22.2727 12.7212 22.2989 12.7049 22.3201 12.6842C22.3417 12.6635 22.3587 12.6386 22.3709 12.6104C22.3833 12.5819 22.3895 12.5508 22.3895 12.5164ZM22.4747 13.4491C22.4747 13.4169 22.4683 13.3848 22.4561 13.3527C22.4437 13.3206 22.4266 13.2921 22.4046 13.2668C22.3825 13.2417 22.3561 13.2209 22.3259 13.2049C22.2953 13.1888 22.2621 13.1808 22.2269 13.1808H21.8019V13.7168H22.2269C22.2621 13.7168 22.295 13.7093 22.3251 13.6945C22.3551 13.6795 22.3815 13.6595 22.4041 13.6342C22.4266 13.6088 22.4439 13.5806 22.4564 13.5482C22.4683 13.5164 22.4747 13.4832 22.4747 13.4491Z" fill="#020203"/>
<path id="Vector_35" d="M25.4783 14.0751C25.4783 14.0935 25.4753 14.1108 25.4688 14.1274C25.4623 14.144 25.4517 14.1572 25.4369 14.1668C25.425 14.1787 25.411 14.1859 25.3952 14.1893C25.3792 14.1927 25.3652 14.1942 25.3535 14.1942H25.0373C25.0148 14.1942 24.9967 14.1914 24.9829 14.1854C24.969 14.1797 24.9578 14.1714 24.9493 14.1605C24.9407 14.1497 24.9332 14.1367 24.9275 14.1212C24.9216 14.1057 24.9153 14.0888 24.9091 14.0705L24.8884 13.9982C24.8594 14.0272 24.8265 14.0554 24.7895 14.0834C24.7525 14.1111 24.7118 14.1362 24.6675 14.158C24.623 14.18 24.5756 14.1976 24.5246 14.2111C24.4738 14.2243 24.421 14.231 24.3663 14.231C24.2689 14.231 24.1755 14.2185 24.0861 14.1939C23.9968 14.1693 23.9131 14.1341 23.8357 14.0888C23.758 14.0433 23.6876 13.9886 23.6244 13.9252C23.5612 13.8615 23.5068 13.7905 23.4615 13.7123C23.4159 13.6344 23.3809 13.55 23.3563 13.4596C23.3317 13.3693 23.3196 13.2747 23.3196 13.1763C23.3196 13.0277 23.3467 12.8892 23.4014 12.7613C23.4558 12.6334 23.5304 12.5221 23.6244 12.4273C23.7187 12.3325 23.8295 12.2582 23.9569 12.2043C24.0843 12.1502 24.2208 12.1233 24.3663 12.1233C24.4326 12.1233 24.4945 12.1308 24.5515 12.1455C24.609 12.1606 24.6613 12.181 24.7089 12.2067C24.7566 12.2323 24.7996 12.2631 24.8382 12.2989C24.8768 12.3348 24.9104 12.3737 24.9394 12.4154L24.9858 12.2693C24.9967 12.2427 25.0055 12.2209 25.0125 12.2043C25.0195 12.1875 25.027 12.1753 25.035 12.1673C25.0428 12.1593 25.0529 12.1539 25.0648 12.1513C25.0764 12.1487 25.093 12.1474 25.1145 12.1474H25.3538C25.3655 12.1474 25.3797 12.1489 25.3955 12.1523C25.4115 12.1554 25.4253 12.1629 25.4372 12.1745C25.4519 12.1865 25.4628 12.1997 25.469 12.2147C25.4755 12.2297 25.4786 12.2465 25.4786 12.2662L25.4783 14.0751ZM23.8968 13.1761C23.8968 13.2468 23.9077 13.3128 23.9297 13.3742C23.9517 13.4358 23.9831 13.4891 24.0237 13.5339C24.0644 13.5787 24.1133 13.6145 24.1705 13.6406C24.2278 13.667 24.2912 13.68 24.3609 13.68C24.4326 13.68 24.4992 13.667 24.5606 13.6406C24.6222 13.6145 24.6758 13.5787 24.7211 13.5339C24.7667 13.4891 24.8022 13.4358 24.8278 13.3742C24.8537 13.3128 24.8664 13.2468 24.8664 13.1761C24.8664 13.1075 24.8537 13.0422 24.8278 12.9803C24.8022 12.9185 24.7667 12.8636 24.7211 12.8167C24.6755 12.7696 24.6222 12.7323 24.5606 12.7051C24.4992 12.6779 24.4324 12.6642 24.3609 12.6642C24.2912 12.6642 24.2278 12.6779 24.1705 12.7051C24.1131 12.7325 24.0641 12.7696 24.0237 12.8167C23.9831 12.8636 23.9517 12.9185 23.9297 12.9803C23.9079 13.0422 23.8968 13.1075 23.8968 13.1761Z" fill="#020203"/>
<path id="Vector_36" d="M25.9054 12.184C25.9194 12.1724 25.9341 12.1648 25.9494 12.1618C25.965 12.1584 25.9797 12.1568 25.9937 12.1568H26.2361C26.2553 12.1568 26.2719 12.1602 26.2861 12.1672C26.3001 12.1742 26.3117 12.1835 26.3213 12.1954C26.3309 12.2071 26.3387 12.2205 26.3446 12.2356C26.3503 12.2503 26.3563 12.2658 26.3615 12.2819L26.3954 12.4228C26.4114 12.3896 26.4373 12.3554 26.4731 12.3202C26.5088 12.285 26.5533 12.2529 26.6065 12.2242C26.6595 12.1954 26.7207 12.1716 26.7901 12.153C26.8595 12.1346 26.9371 12.125 27.0229 12.125C27.1449 12.125 27.2539 12.1486 27.3494 12.1954C27.4453 12.2423 27.5266 12.3062 27.5934 12.3873C27.6605 12.4683 27.7112 12.5634 27.7459 12.6716C27.7809 12.7801 27.7982 12.8958 27.7982 13.0188V14.0703C27.7982 14.111 27.7894 14.1418 27.7718 14.1625C27.7542 14.1835 27.726 14.1938 27.6874 14.1938H27.3165C27.2705 14.1938 27.2389 14.1861 27.222 14.1705C27.2049 14.1552 27.1961 14.125 27.1961 14.0799V13.0349C27.1961 12.989 27.1858 12.9453 27.1651 12.9041C27.1441 12.8629 27.1166 12.8264 27.0822 12.7948C27.048 12.7632 27.0091 12.7384 26.9659 12.7203C26.9227 12.7019 26.8784 12.6928 26.8333 12.6928C26.7947 12.6928 26.7556 12.7014 26.7155 12.7184C26.6753 12.7355 26.6383 12.7594 26.6046 12.7899C26.571 12.8205 26.5427 12.8564 26.5197 12.8976C26.4967 12.9388 26.4834 12.9836 26.4803 13.0318V14.075C26.4803 14.0934 26.4769 14.1115 26.47 14.1296C26.463 14.1478 26.4526 14.1615 26.4389 14.1713C26.4249 14.1798 26.4117 14.1858 26.3995 14.1889C26.3871 14.1923 26.3731 14.1938 26.3571 14.1938H25.9945C25.9484 14.1938 25.9153 14.1827 25.8951 14.1602C25.8746 14.1376 25.8645 14.1079 25.8645 14.0703V12.2752C25.8645 12.255 25.8691 12.2363 25.8782 12.2192C25.8873 12.2024 25.9 12.1889 25.916 12.1794L25.9054 12.184Z" fill="#020203"/>
<path id="Vector_37" d="M29.4887 13.5663C29.5038 13.5554 29.518 13.5487 29.5312 13.5461C29.5447 13.5435 29.555 13.5422 29.5625 13.5422C29.5807 13.5422 29.5972 13.5459 29.6122 13.5533C29.6273 13.5609 29.6428 13.5769 29.6589 13.6015L29.8388 13.8729C29.844 13.8814 29.8492 13.891 29.8541 13.9019C29.859 13.9125 29.8614 13.921 29.8614 13.9275C29.8614 13.9521 29.8536 13.9723 29.8384 13.9879C29.8228 14.0031 29.8057 14.0169 29.7876 14.0287C29.6998 14.0899 29.6037 14.1388 29.4994 14.1756C29.395 14.2126 29.2844 14.231 29.1676 14.231C29.0713 14.231 28.9786 14.2185 28.8892 14.1939C28.7998 14.1693 28.7167 14.1341 28.6396 14.0888C28.5624 14.0435 28.4919 13.9886 28.4274 13.9252C28.3632 13.8615 28.3088 13.7905 28.2638 13.7123C28.219 13.6344 28.1838 13.55 28.1586 13.4596C28.1335 13.3693 28.1208 13.2747 28.1208 13.1763C28.1208 13.078 28.1333 12.9832 28.1586 12.8923C28.1838 12.8012 28.219 12.717 28.2638 12.6396C28.3088 12.5619 28.3632 12.4912 28.4274 12.4275C28.4917 12.3641 28.5624 12.3097 28.6396 12.2647C28.7165 12.2199 28.7998 12.1849 28.8892 12.1603C28.9786 12.136 29.0715 12.1235 29.1676 12.1235C29.2844 12.1235 29.3921 12.1388 29.491 12.1699C29.59 12.201 29.683 12.2468 29.7694 12.3079L29.7645 12.303C29.7881 12.317 29.807 12.3333 29.8207 12.3519C29.8347 12.3708 29.8414 12.3941 29.8414 12.4218C29.8414 12.441 29.835 12.4609 29.8223 12.4814L29.6793 12.7237C29.6496 12.7763 29.613 12.8025 29.5703 12.8025C29.5607 12.8025 29.5488 12.7999 29.5348 12.7952C29.5208 12.7903 29.5053 12.782 29.4882 12.7703C29.4413 12.7393 29.3906 12.7139 29.3367 12.694C29.2826 12.674 29.2251 12.6642 29.1642 12.6642C29.0966 12.6642 29.0345 12.6779 28.978 12.7051C28.9213 12.7325 28.8729 12.7696 28.8328 12.8167C28.7926 12.8636 28.7613 12.9185 28.739 12.9803C28.7165 13.0422 28.7053 13.1077 28.7053 13.1761C28.7053 13.2468 28.7165 13.3128 28.739 13.3742C28.7613 13.4358 28.7926 13.4891 28.8328 13.5339C28.8729 13.5787 28.9213 13.6145 28.978 13.6406C29.0348 13.667 29.0966 13.68 29.1642 13.68C29.2251 13.68 29.2826 13.6693 29.3359 13.6481C29.3896 13.6266 29.4406 13.5995 29.4887 13.5663Z" fill="#020203"/>
<path id="Vector_38" d="M32.2645 14.0751C32.2645 14.0935 32.2614 14.1108 32.2549 14.1274C32.2484 14.144 32.2378 14.1572 32.2231 14.1668C32.2112 14.1787 32.1972 14.1859 32.1814 14.1893C32.1653 14.1927 32.1514 14.1942 32.1397 14.1942H31.8235C31.801 14.1942 31.7828 14.1914 31.7691 14.1854C31.7551 14.1797 31.744 14.1714 31.7354 14.1605C31.7269 14.1497 31.7194 14.1367 31.7137 14.1212C31.7077 14.1057 31.7015 14.0888 31.6953 14.0705L31.6746 13.9982C31.6456 14.0272 31.6127 14.0554 31.5756 14.0834C31.5386 14.1111 31.498 14.1362 31.4537 14.158C31.4091 14.18 31.3617 14.1976 31.3107 14.2111C31.26 14.2243 31.2071 14.231 31.1525 14.231C31.0551 14.231 30.9616 14.2185 30.8723 14.1939C30.7829 14.1693 30.6993 14.1341 30.6218 14.0888C30.5442 14.0433 30.4737 13.9886 30.4105 13.9252C30.3473 13.8615 30.293 13.7905 30.2476 13.7123C30.202 13.6344 30.1671 13.55 30.1425 13.4596C30.1179 13.3693 30.1057 13.2747 30.1057 13.1763C30.1057 13.0277 30.1329 12.8892 30.1876 12.7613C30.2419 12.6334 30.3165 12.5221 30.4105 12.4273C30.5045 12.3325 30.6156 12.2582 30.743 12.2043C30.8705 12.1502 31.007 12.1233 31.1525 12.1233C31.2188 12.1233 31.2807 12.1308 31.3376 12.1455C31.3952 12.1606 31.4474 12.181 31.4951 12.2067C31.5428 12.2323 31.5858 12.2631 31.6243 12.2989C31.6629 12.3348 31.6966 12.3737 31.7256 12.4154L31.772 12.2693C31.7828 12.2427 31.7916 12.2209 31.7986 12.2043C31.8056 12.1875 31.8131 12.1753 31.8212 12.1673C31.8289 12.1593 31.839 12.1539 31.8509 12.1513C31.8626 12.1487 31.8792 12.1474 31.9006 12.1474H32.14C32.1516 12.1474 32.1658 12.1489 32.1816 12.1523C32.1977 12.1554 32.2114 12.1629 32.2233 12.1745C32.2381 12.1865 32.249 12.1997 32.2552 12.2147C32.2617 12.2297 32.2648 12.2465 32.2648 12.2662L32.2645 14.0751ZM30.6832 13.1761C30.6832 13.2468 30.6941 13.3128 30.7161 13.3742C30.7381 13.4358 30.7695 13.4891 30.8101 13.5339C30.8508 13.5787 30.8997 13.6145 30.957 13.6406C31.0142 13.667 31.0776 13.68 31.1473 13.68C31.219 13.68 31.2856 13.667 31.347 13.6406C31.4086 13.6145 31.4622 13.5787 31.5075 13.5339C31.5528 13.4891 31.5886 13.4358 31.6142 13.3742C31.6401 13.3128 31.6528 13.2468 31.6528 13.1761C31.6528 13.1075 31.6401 13.0422 31.6142 12.9803C31.5886 12.9185 31.5531 12.8636 31.5075 12.8167C31.462 12.7696 31.4086 12.7323 31.347 12.7051C31.2856 12.6779 31.2188 12.6642 31.1473 12.6642C31.0776 12.6642 31.0142 12.6779 30.957 12.7051C30.8995 12.7325 30.8505 12.7696 30.8101 12.8167C30.7695 12.8636 30.7381 12.9185 30.7161 12.9803C30.6941 13.0422 30.6832 13.1075 30.6832 13.1761Z" fill="#020203"/>
<path id="Vector_39" d="M32.6499 12.274C32.6499 12.2538 32.6538 12.2359 32.6613 12.2209C32.6686 12.2059 32.6787 12.1935 32.6911 12.1839C32.7035 12.1743 32.7173 12.1671 32.7328 12.1624C32.7481 12.1575 32.7634 12.1551 32.7784 12.1551H33.0208C33.0475 12.1551 33.0689 12.1632 33.085 12.1792C33.1011 12.1953 33.1148 12.2157 33.1259 12.2403C33.1371 12.2649 33.1472 12.2924 33.1557 12.3221C33.1643 12.3522 33.1743 12.3812 33.1863 12.4089C33.2181 12.3737 33.2502 12.3387 33.2818 12.3048C33.3132 12.2706 33.3473 12.2398 33.3836 12.2131C33.4201 12.1865 33.4597 12.1647 33.5033 12.1481C33.5465 12.1316 33.596 12.1233 33.6517 12.1233C33.7094 12.1233 33.7609 12.1274 33.8065 12.136C33.8521 12.1445 33.8951 12.1572 33.9357 12.1738C33.9767 12.1903 34.0168 12.2116 34.0572 12.2372C34.0973 12.2631 34.1409 12.2929 34.188 12.3271C34.2341 12.3537 34.2571 12.3853 34.2571 12.4218C34.2571 12.4454 34.2478 12.4726 34.2297 12.5037L34.0836 12.7525C34.0546 12.7942 34.0189 12.8151 33.9761 12.8151C33.9547 12.8151 33.9305 12.8095 33.9039 12.7975C33.8578 12.7525 33.8112 12.7191 33.7633 12.6973C33.7156 12.6753 33.6615 12.6645 33.6004 12.6645C33.5587 12.6645 33.5219 12.6701 33.4903 12.6821C33.4587 12.6937 33.4302 12.7103 33.4043 12.7318C33.3787 12.7533 33.3546 12.7789 33.3321 12.8087C33.3095 12.8387 33.2873 12.8719 33.2647 12.9081V14.0702C33.2647 14.1108 33.2549 14.1417 33.2349 14.1624C33.215 14.1833 33.1821 14.1937 33.136 14.1937H32.775C32.6914 14.1937 32.6497 14.1525 32.6497 14.0702L32.6499 12.274Z" fill="#020203"/>
<path id="Vector_40" d="M34.4964 11.4682C34.4964 11.4232 34.5059 11.3914 34.5254 11.3727C34.5445 11.3538 34.5746 11.3445 34.6153 11.3445H34.9877C35.0249 11.3445 35.0553 11.3538 35.0783 11.3727C35.1013 11.3914 35.1127 11.4232 35.1127 11.4682V11.781C35.1127 11.794 35.1099 11.8077 35.1039 11.8227C35.0982 11.8378 35.0897 11.8522 35.0791 11.866C35.0682 11.88 35.0553 11.8914 35.0397 11.9004C35.0242 11.9095 35.0068 11.9141 34.9874 11.9141H34.615C34.5357 11.9141 34.4961 11.8696 34.4961 11.7808L34.4964 11.4682ZM34.4964 12.2805C34.4964 12.2463 34.5059 12.2168 34.5254 12.1922C34.5445 12.1676 34.5746 12.1552 34.6153 12.1552H34.983C34.9957 12.1552 35.0097 12.1583 35.0247 12.164C35.0395 12.17 35.0537 12.1785 35.0664 12.1899C35.0793 12.201 35.0902 12.2142 35.0993 12.2292C35.1083 12.2443 35.113 12.2614 35.113 12.2808V14.0705C35.113 14.1112 35.1019 14.142 35.0793 14.1627C35.0568 14.1836 35.0249 14.194 34.983 14.194H34.6153C34.536 14.194 34.4964 14.1528 34.4964 14.0705V12.2805Z" fill="#020203"/>
<path id="Vector_41" d="M37.5963 14.0751C37.5963 14.0935 37.5932 14.1108 37.5867 14.1274C37.5802 14.144 37.5696 14.1572 37.5549 14.1668C37.5429 14.1787 37.5289 14.1859 37.5131 14.1893C37.4971 14.1927 37.4831 14.1942 37.4715 14.1942H37.1553C37.1327 14.1942 37.1146 14.1914 37.1009 14.1854C37.0869 14.1797 37.0757 14.1714 37.0672 14.1605C37.0587 14.1497 37.0511 14.1367 37.0455 14.1212C37.0395 14.1057 37.0333 14.0888 37.0271 14.0705L37.0063 13.9982C36.9773 14.0272 36.9445 14.0554 36.9074 14.0834C36.8704 14.1111 36.8297 14.1362 36.7854 14.158C36.7409 14.18 36.6935 14.1976 36.6425 14.2111C36.5917 14.2243 36.5389 14.231 36.4843 14.231C36.3869 14.231 36.2934 14.2185 36.204 14.1939C36.1147 14.1693 36.0311 14.1341 35.9536 14.0888C35.8759 14.0433 35.8055 13.9886 35.7423 13.9252C35.6791 13.8615 35.6247 13.7905 35.5794 13.7123C35.5338 13.6344 35.4989 13.55 35.4743 13.4596C35.4497 13.3693 35.4375 13.2747 35.4375 13.1763C35.4375 13.0277 35.4647 12.8892 35.5193 12.7613C35.5737 12.6334 35.6483 12.5221 35.7423 12.4273C35.8365 12.3325 35.9474 12.2582 36.0748 12.2043C36.2022 12.1502 36.3387 12.1233 36.4843 12.1233C36.5505 12.1233 36.6124 12.1308 36.6694 12.1455C36.7269 12.1606 36.7792 12.181 36.8269 12.2067C36.8745 12.2323 36.9175 12.2631 36.9561 12.2989C36.9947 12.3348 37.0283 12.3737 37.0573 12.4154L37.1037 12.2693C37.1146 12.2427 37.1234 12.2209 37.1304 12.2043C37.1374 12.1875 37.1449 12.1753 37.1529 12.1673C37.1607 12.1593 37.1708 12.1539 37.1827 12.1513C37.1943 12.1487 37.2109 12.1474 37.2324 12.1474H37.4717C37.4834 12.1474 37.4976 12.1489 37.5134 12.1523C37.5295 12.1554 37.5432 12.1629 37.5551 12.1745C37.5699 12.1865 37.5807 12.1997 37.5869 12.2147C37.5934 12.2297 37.5965 12.2465 37.5965 12.2662L37.5963 14.0751ZM36.0147 13.1761C36.0147 13.2468 36.0256 13.3128 36.0476 13.3742C36.0696 13.4358 36.101 13.4891 36.1416 13.5339C36.1823 13.5787 36.2312 13.6145 36.2885 13.6406C36.3457 13.667 36.4091 13.68 36.4788 13.68C36.5505 13.68 36.6171 13.667 36.6785 13.6406C36.7401 13.6145 36.7937 13.5787 36.8391 13.5339C36.8846 13.4891 36.9201 13.4358 36.9457 13.3742C36.9716 13.3128 36.9843 13.2468 36.9843 13.1761C36.9843 13.1075 36.9716 13.0422 36.9457 12.9803C36.9201 12.9185 36.8846 12.8636 36.8391 12.8167C36.7935 12.7696 36.7401 12.7323 36.6785 12.7051C36.6171 12.6779 36.5503 12.6642 36.4788 12.6642C36.4091 12.6642 36.3457 12.6779 36.2885 12.7051C36.231 12.7325 36.182 12.7696 36.1416 12.8167C36.101 12.8636 36.0696 12.9185 36.0476 12.9803C36.0259 13.0422 36.0147 13.1075 36.0147 13.1761Z" fill="#020203"/>
</g>
<defs>
<clipPath id="clip0_133_304213">
<rect width="46.4" height="20" fill="white" transform="translate(0.600098)"/>
</clipPath>
</defs>
</svg>
