<svg width="64" height="64" viewBox="0 0 64 64" fill="none" xmlns="http://www.w3.org/2000/svg">
<g clip-path="url(#clip0_7801_284553)">
<path d="M17.6719 35.9163V3.29102H34.5221V33.2396L33.6883 32.6253L33.6664 4.05893H18.4617V35.1484H28.3349L28.7298 34.9509L28.8395 35.9163H17.6719Z" fill="#1D1D1B"/>
<path d="M54.466 42.3888C48.6957 34.0295 47.1599 31.7257 45.4924 29.0051C44.4173 27.2719 42.7937 26.0871 41.214 25.9116C41.214 25.9116 39.0419 25.7141 37.7694 25.6263V1.75523C37.7694 0.789853 36.9795 0 36.0142 0H16.224C15.2586 0 14.4688 0.789853 14.4688 1.75523V38.2859C14.4688 39.2513 15.2586 40.0411 16.224 40.0411H26.2946L27.1722 41.1382C27.7865 41.9061 28.3789 42.6301 28.7739 43.047C29.2785 43.5955 30.8801 44.495 33.0083 44.495H33.2278C33.3594 44.495 33.4691 44.495 33.5569 44.5609C34.1273 45.6579 34.6319 46.6013 34.961 47.1498C37.7475 51.8889 43.3642 53.7539 43.6055 53.8416C43.6933 53.8416 43.7591 53.8855 43.8469 53.8855C44.176 53.8855 44.4612 53.6661 44.5709 53.3589C44.7026 52.964 44.4831 52.5252 44.0882 52.3936C44.0443 52.3936 38.7567 50.5725 36.2775 46.3819C35.9484 45.8334 35.3779 44.7364 34.7636 43.5516C33.7324 41.5989 32.4598 39.1416 31.7797 38.2201C30.5071 36.5087 27.611 32.9325 27.5671 32.8886C27.1722 32.384 25.8558 30.6507 26.0313 29.1368C26.0971 28.5663 26.3824 28.0178 26.887 27.6229C27.3916 27.228 27.8524 27.1402 28.3131 27.1402C29.454 27.1402 30.4852 28.3031 31.7358 29.8169C32.6792 30.9798 33.2936 31.9671 33.7763 32.7569C34.1273 33.3055 34.3686 33.7004 34.6319 33.9856C35.1804 34.5561 39.5685 38.6589 39.7879 38.8564C39.9196 38.988 40.117 39.0538 40.3145 39.0538C40.5339 39.0538 40.7313 38.9661 40.8849 38.8125C41.0166 38.6589 41.1043 38.4614 41.0824 38.264C41.0824 38.0665 40.9946 37.869 40.7972 37.6935C40.5339 37.4522 38.9981 36.0261 37.7255 34.8852V27.0963C38.9103 27.206 40.0073 27.2938 41.0166 27.4035C41.8284 27.4913 43.1448 28.1495 44.1321 29.7731C45.8435 32.5375 47.3793 34.8632 53.1496 43.2225C53.2812 43.42 53.5226 43.5516 53.7859 43.5516C53.9394 43.5516 54.093 43.5077 54.2247 43.42C54.5757 43.1786 54.6635 42.6959 54.4221 42.3668L54.466 42.3888ZM32.8109 42.9592C31.3409 42.8934 30.178 42.301 29.9148 42.0158C29.5637 41.6208 28.9713 40.8968 28.357 40.1289L28.2034 40.0411H31.1434C31.648 40.8968 32.2624 42.0597 32.8109 42.9592ZM35.7728 32.9544C35.6192 32.7789 35.3998 32.4278 35.0927 31.9452C34.6539 31.2431 33.9957 30.168 32.9425 28.8735C31.7577 27.4254 30.2658 25.6044 28.357 25.6044C27.5671 25.6044 26.7773 25.8238 25.9874 26.4381C25.1318 27.0963 24.6491 27.9959 24.5394 29.0051C24.298 31.0456 25.768 33.108 26.4043 33.8978C27.3477 35.0607 29.0591 37.1889 30.1561 38.5492H16.224C16.0923 38.5492 16.0046 38.4395 16.0046 38.3298V1.75523C16.0046 1.62359 16.1143 1.53582 16.224 1.53582H35.9922C36.1239 1.53582 36.2116 1.62359 36.2116 1.75523V33.4152C35.9703 33.1738 35.8387 33.0422 35.7509 32.9544H35.7728Z" fill="#1D1D1B"/>
<path d="M27.1729 37.9349H24.935C24.54 37.9349 24.2109 37.6058 24.2109 37.2108C24.2109 36.8159 24.54 36.4868 24.935 36.4868H27.1729C27.5678 36.4868 27.8969 36.8159 27.8969 37.2108C27.8969 37.6058 27.5678 37.9349 27.1729 37.9349Z" fill="#1D1D1B"/>
<path d="M15.3454 52.3062V53.6665H12.8003V60.9726H11.067V53.6665H8.5V52.3062H15.3454Z" fill="#1D1D1B"/>
<path d="M20.5206 60.9943C20.3671 61.0163 20.1257 61.0382 19.9063 61.0382C19.1603 61.0382 18.6996 60.7969 18.4802 60.4458C18.0633 60.8846 17.2735 61.1479 16.703 61.1479C14.9258 61.1479 14.6406 60.2264 14.6406 59.2391C14.6406 57.6594 15.7157 57.2864 17.3612 57.2864C17.6245 57.2864 17.9975 57.2864 18.2388 57.3084V57.0231C18.2388 56.3869 17.8878 56.0139 17.076 56.0139C16.3959 56.0139 15.7376 56.2113 15.255 56.4746L14.9039 55.4434C15.5402 55.0924 16.5494 54.8291 17.4929 54.8291C19.4017 54.8291 19.9721 55.4434 19.9721 57.3742V59.2391C19.9721 59.7437 20.1477 59.8754 20.5426 59.8754V61.0163L20.5206 60.9943ZM18.2169 58.4273C17.9097 58.3834 17.5806 58.3834 17.3173 58.3834C16.5933 58.3834 16.4178 58.6906 16.4178 59.1733C16.4178 59.634 16.5494 59.9851 17.1199 59.9851C17.427 59.9851 17.8439 59.9412 18.2388 59.5682V58.4273H18.2169Z" fill="#1D1D1B"/>
<path d="M25.0869 60.9285C24.692 61.0821 24.2532 61.1479 23.7705 61.1479C21.9055 61.1479 21.0938 60.029 21.0938 58.2079C21.0938 56.2333 21.8178 54.8291 24.0776 54.8291C24.5384 54.8291 24.9991 54.9388 25.416 55.1363L25.4818 54.9607H26.8202V61.1479C26.8202 63.2542 25.5038 64.0221 23.6827 64.0221C22.849 64.0221 22.103 63.8685 21.5984 63.6711L22.0372 62.5082C22.3663 62.6179 22.9148 62.7715 23.595 62.7715C24.4726 62.7715 25.0869 62.4205 25.0869 61.4551V60.9505V60.9285ZM25.0869 59.8754V56.1016C24.8456 56.0358 24.6042 55.9919 24.3848 55.9919C23.2878 55.9919 22.849 56.5843 22.849 58.0982C22.849 59.1952 23.2439 59.9631 24.3409 59.9631C24.5823 59.9631 24.8236 59.9631 25.0869 59.8754Z" fill="#1D1D1B"/>
<path d="M35.2684 52.1743C38.0987 52.1743 39.086 53.9076 39.086 56.694C39.086 59.4805 37.7477 61.126 34.9832 61.126C32.2187 61.126 31.1875 59.3707 31.1875 56.6063C31.1875 53.6443 32.5039 52.1743 35.2903 52.1743H35.2684ZM35.2684 53.5127C33.5351 53.5127 32.9208 54.6755 32.9208 56.7598C32.9208 58.4273 33.3815 59.7876 34.9174 59.7876C36.6945 59.7876 37.243 58.6248 37.243 56.5404C37.243 54.8949 36.8262 53.5127 35.2684 53.5127Z" fill="#1D1D1B"/>
<path d="M41.8468 54.9607L41.8907 55.3996C42.4831 55.0046 43.2291 54.8291 43.8653 54.8291C45.4231 54.8291 45.84 55.6409 45.84 56.9354V60.9943H44.1286V57.2864C44.1286 56.6502 44.0628 56.1236 43.3168 56.1236C42.7903 56.1236 42.3953 56.2772 42.1101 56.4966V60.9724H40.3988V56.5624L40.2891 54.9388H41.8688L41.8468 54.9607Z" fill="#1D1D1B"/>
</g>
<defs>
<clipPath id="clip0_7801_284553">
<rect width="64" height="64" fill="white"/>
</clipPath>
</defs>
</svg>
