<svg width="141" height="14" viewBox="0 0 141 14" fill="none" xmlns="http://www.w3.org/2000/svg">
<path fill-rule="evenodd" clip-rule="evenodd" d="M16.5535 8.61482H19.1051V10.9914C18.639 11.172 17.7197 11.3489 16.8483 11.3489C14.0166 11.3489 13.0751 9.91183 13.0751 7.00092C13.0751 4.09001 13.9779 2.58113 16.7948 2.58113C18.3701 2.58113 19.2636 3.07304 20.0079 4.01448L21.9571 2.22003C20.7706 0.519542 18.6814 0 16.7359 0C12.3382 0 10.0279 2.40242 10.0279 6.98066C10.0279 11.5589 12.1153 14 16.7138 14C18.8141 14 20.8812 13.4602 22.005 12.6735V6.08159H16.5535V8.61482ZM3.14673 0.204501H0V13.7955H9.64285V11.1499H3.14673V0.204501ZM39.4614 6.15372C41.5101 6.15372 42.6597 7.2536 42.7076 9.15674H42.7021C42.7027 9.16912 42.7034 9.1815 42.7042 9.194C42.7059 9.22057 42.7076 9.24768 42.7076 9.2765V10.2714C42.7076 10.5809 42.6744 10.872 42.6099 11.1446C42.2967 12.5632 41.2024 13.3941 39.4632 13.3941H30.7471V11.7047H39.5295C40.3862 11.7047 40.9168 11.2073 40.9316 10.579C40.9316 10.5728 40.9329 10.5674 40.9342 10.5619C40.9356 10.5559 40.9371 10.5498 40.9371 10.5422V9.07752C40.9334 8.32216 40.4839 7.84499 39.6143 7.84315H33.6709C31.6203 7.84315 30.4707 6.7488 30.4228 4.84197C30.4228 4.82306 30.4215 4.80372 30.4201 4.78393L30.4201 4.78387C30.4187 4.76318 30.4173 4.74202 30.4173 4.72037V3.7255C30.4173 3.4123 30.4541 3.1249 30.5168 2.85039C30.8337 1.4281 31.9225 0.59904 33.6653 0.59904H41.897V2.29032H33.599C32.7423 2.29032 32.2117 2.78775 32.197 3.41415C32.197 3.42038 32.1961 3.42618 32.1952 3.43218C32.1943 3.43859 32.1933 3.44522 32.1933 3.45284V4.91935C32.1952 5.67471 32.6484 6.15372 33.5161 6.15372H39.4614ZM46.9119 0.587608H45.1635V13.4085H46.9119V0.587608ZM60.0107 7.90077H55.4527H55.4509V6.23161H61.8291V9.59021C61.8291 12.0313 60.4547 13.3928 57.8993 13.3928H53.3745C50.821 13.3928 49.4448 11.9189 49.4448 9.59021V4.3911C49.4448 2.06237 50.8174 0.592181 53.3745 0.592181H61.1069V2.23924H53.3064C52.0867 2.23924 51.2687 2.94302 51.2687 4.16265V9.82234C51.2687 11.0401 52.0867 11.7052 53.3064 11.7052H57.9693C59.3087 11.7052 60.0107 11.1562 60.0107 9.82234V7.90077ZM85.3359 0.589894H83.2337L77.0692 13.4108H79.0627L80.5402 10.2972H88.0146L89.4848 13.4108H91.5004L85.3359 0.589894ZM81.3417 8.60779L84.2839 2.40092L87.2169 8.60779H81.3417ZM66.0628 0.598662L74.0917 11.2216V0.587608H75.8677V13.3993H73.5777L65.5764 2.78184V13.4103H63.8372V0.598662H66.0628ZM89.1312 0.589894V2.2388H93.9305V13.3666H95.7968V2.2388H95.9184H100.596V0.589894H89.1312ZM109.645 11.7062C111.213 11.7062 111.858 10.8145 111.858 9.48062V0.587608H113.722V9.29086C113.722 11.9641 112.324 13.3938 109.535 13.3938H106.143C103.354 13.3938 102.042 11.9641 102.042 9.29086V0.587608H103.906V9.47878C103.906 10.8163 104.549 11.7062 106.119 11.7062H109.645ZM125.438 8.74266C126.663 8.42025 127.682 7.5046 127.682 5.5904V3.93966C127.682 1.73253 126.429 0.601326 124.215 0.601326H115.729V13.3817H117.553V8.84952H121.416C124.742 8.84952 125.851 11.9152 125.851 13.413H127.682C127.557 11.2759 126.767 9.70805 125.438 8.74266ZM124.233 7.20246H117.551V2.24839H124.156C125.145 2.24839 125.858 2.75319 125.858 3.74437L125.862 5.70463C125.862 6.69581 125.223 7.20062 124.235 7.20062L124.233 7.20246ZM140.477 0.59904V2.23873H131.398V6.16109H140.295V7.80815H131.398V11.7563H140.477V13.4015H129.578V0.59904H140.477Z" fill="#001127"/>
</svg>