<svg width="56" height="56" viewBox="0 0 56 56" fill="none" xmlns="http://www.w3.org/2000/svg">
<g filter="url(#filter0_d_145_130938)">
<circle cx="28" cy="20" r="15.25" fill="white" fill-opacity="0.7" stroke="white" stroke-width="1.5"/>
<g clip-path="url(#clip0_145_130938)">
<path fill-rule="evenodd" clip-rule="evenodd" d="M25.1716 15.7582C24.7811 15.3677 24.148 15.3677 23.7574 15.7582C23.3669 16.1487 23.3669 16.7819 23.7574 17.1724L26.5854 20.0003L23.7578 22.8279C23.3672 23.2185 23.3672 23.8516 23.7578 24.2421C24.1483 24.6327 24.7815 24.6327 25.172 24.2421L27.9996 21.4146L30.8276 24.2426C31.2181 24.6331 31.8513 24.6331 32.2418 24.2426C32.6323 23.852 32.6323 23.2189 32.2418 22.8284L29.4138 20.0003L32.2421 17.172C32.6327 16.7815 32.6327 16.1483 32.2421 15.7578C31.8516 15.3673 31.2185 15.3673 30.8279 15.7578L27.9996 18.5861L25.1716 15.7582Z" fill="black"/>
</g>
</g>
<defs>
<filter id="filter0_d_145_130938" x="0" y="0" width="56" height="56" filterUnits="userSpaceOnUse" color-interpolation-filters="sRGB">
<feFlood flood-opacity="0" result="BackgroundImageFix"/>
<feColorMatrix in="SourceAlpha" type="matrix" values="0 0 0 0 0 0 0 0 0 0 0 0 0 0 0 0 0 0 127 0" result="hardAlpha"/>
<feOffset dy="8"/>
<feGaussianBlur stdDeviation="6"/>
<feComposite in2="hardAlpha" operator="out"/>
<feColorMatrix type="matrix" values="0 0 0 0 0 0 0 0 0 0 0 0 0 0 0 0 0 0 0.06 0"/>
<feBlend mode="normal" in2="BackgroundImageFix" result="effect1_dropShadow_145_130938"/>
<feBlend mode="normal" in="SourceGraphic" in2="effect1_dropShadow_145_130938" result="shape"/>
</filter>
<clipPath id="clip0_145_130938">
<rect width="12" height="12.0001" fill="white" transform="translate(22 14)"/>
</clipPath>
</defs>
</svg>
