<svg width="64" height="64" viewBox="0 0 64 64" fill="none" xmlns="http://www.w3.org/2000/svg">
<line x1="21.75" y1="14" x2="21.75" y2="48" stroke="black" stroke-width="1.5"/>
<line x1="62" y1="37.75" x2="59" y2="37.75" stroke="black" stroke-width="1.5"/>
<line x1="45" y1="37.75" x2="2" y2="37.75" stroke="black" stroke-width="1.5"/>
<path d="M62.5 25.75L2 25.75" stroke="black" stroke-width="1.5"/>
<path d="M42.75 14V40.5" stroke="black" stroke-width="1.5"/>
<path fill-rule="evenodd" clip-rule="evenodd" d="M2.75 48.1807V13.8202L5.31752 14.0489C23.0707 15.6302 40.9293 15.6302 58.6825 14.0489L61.25 13.8202V39.0451C61.9517 40.1327 62.4668 41.352 62.75 42.6577V13.547C62.75 12.8128 62.1203 12.2368 61.3891 12.3019L58.5494 12.5548C40.8848 14.1282 23.1152 14.1282 5.4506 12.5548L2.6109 12.3019C1.87966 12.2368 1.25 12.8128 1.25 13.547V48.4539C1.25 49.1881 1.87966 49.7641 2.6109 49.699L5.45061 49.4461C17.4543 48.3769 29.5065 48.0343 41.5413 48.4182C41.3813 47.9282 41.2548 47.4232 41.1644 46.9057C29.2105 46.5413 17.2402 46.89 5.31753 47.952L2.75 48.1807ZM61.9939 49.6026C62.436 49.412 62.75 48.9724 62.75 48.4539V47.3432C62.5791 48.1311 62.3237 48.8876 61.9939 49.6026Z" fill="black"/>
<path d="M19.5 52.5L19.8242 52.4741C27.9289 51.8257 36.072 51.8132 44.1787 52.4368V52.4368" stroke="black" stroke-width="1.5" stroke-linecap="round"/>
<path fill-rule="evenodd" clip-rule="evenodd" d="M52.75 50H51.25V43.0002H52.75V50ZM52.75 41.5002H51.25V40.0002H52.75V41.5002Z" fill="black"/>
<rect x="41.75" y="34.75" width="20.5" height="20.5" rx="10.25" stroke="black" stroke-width="1.5"/>
</svg>

