<svg width="212" height="37" viewBox="0 0 212 37" fill="none" xmlns="http://www.w3.org/2000/svg">
<g clip-path="url(#clip0_2048_39331)">
<path fill-rule="evenodd" clip-rule="evenodd" d="M63.4109 24.9136V23.3473C63.4109 23.2959 63.4047 23.2486 63.4027 23.2055L63.4006 23.1644C63.3289 20.1859 61.6512 18.5455 58.6747 18.5455H49.6979C48.4606 18.5044 47.7252 17.7356 47.7211 16.4797V14.1713L47.7252 14.122C47.7518 12.9955 48.6573 12.2185 49.9294 12.2185H62.192V9.79297H50.038C47.5429 9.79297 45.9143 11.0201 45.4452 13.2463C45.3489 13.6903 45.3018 14.1322 45.3018 14.6009V16.1672C45.3018 16.1981 45.3018 16.2289 45.3059 16.2597V16.3564C45.3776 19.3287 47.0574 20.967 50.038 20.967L59.0127 20.969C60.2623 21.0142 60.9793 21.7604 60.9895 23.0349V25.3432C60.9895 25.3679 60.9854 25.3885 60.9834 25.3987C60.9547 26.517 60.0533 27.296 58.7791 27.296H45.7955V29.7175H58.6808C61.1698 29.7175 62.7984 28.4882 63.2634 26.2641C63.3597 25.8366 63.4088 25.3823 63.4088 24.9136H63.4109ZM68.1655 29.7565H70.5439V9.79297H68.1655V29.7565ZM92.1233 18.6791H82.8393V21.0697H89.6404V24.2168C89.6404 26.295 88.6059 27.3063 86.4795 27.3063H79.5268C77.5827 27.3063 76.372 26.1202 76.372 24.2168V15.2998C76.372 13.3552 77.5827 12.1445 79.5268 12.1445H91.0457V9.79297H79.6251C75.9787 9.79297 73.883 11.9307 73.883 15.6595V23.853C73.883 27.5838 75.9787 29.7257 79.6251 29.7257H86.3751C90.0829 29.7257 92.1233 27.6414 92.1233 23.853V18.6791ZM131.25 24.8499L133.442 29.7545H136.194L127.112 9.79502H124.119L115.038 29.7545H117.757L119.959 24.8479H131.25V24.8499ZM125.617 12.2432L130.169 22.4264H121.049L125.617 12.2432ZM113.318 29.738V9.79297H110.898V26.7883L98.7524 9.81147H95.6037V29.7565H97.9698V12.7715L110.075 29.738H113.318ZM150.202 9.79297H133.33V12.1507H140.487V29.6866H143.044V12.1507H150.202V9.79297ZM169.958 9.79297H167.403V23.6865C167.403 26.0586 166.223 27.3125 163.988 27.3125H158.732C156.499 27.3125 155.317 26.0586 155.317 23.6824V9.79297H152.764V23.3864C152.764 27.6002 154.784 29.7319 158.769 29.7319H163.824C167.893 29.7319 169.958 27.6002 169.958 23.3864V9.79297ZM188.438 29.7421H190.937C190.728 26.5231 189.624 24.1202 187.643 22.6011L187.446 22.4511L187.678 22.3874C189.167 21.9762 190.941 20.7984 190.941 17.5362V14.9339C190.941 11.569 189.194 9.79502 185.883 9.79502H173.342V29.6907H175.833V22.5518H181.712C186.709 22.5518 188.38 27.3145 188.438 29.7442V29.7421ZM175.833 12.1527H185.797C187.434 12.1527 188.45 13.0983 188.45 14.6297L188.452 17.7192C188.452 19.2937 187.526 20.1961 185.912 20.1961H175.833V12.1527ZM209.945 12.1342V9.79297H193.919V29.7257H209.945V27.3741H196.402V20.9115H209.675V18.5579H196.402V12.1342H209.945Z" fill="white"/>
<path fill-rule="evenodd" clip-rule="evenodd" d="M5.22189 8.52688H0.5V29.0352H15.0037V25.0412H5.22189V8.52688ZM25.3919 21.2179H29.237V24.8028C28.5282 25.0782 27.1475 25.3454 25.8302 25.3454C21.5816 25.3454 20.164 23.1789 20.164 18.78C20.164 14.5867 21.5119 12.1118 25.7626 12.1118C28.1246 12.1118 29.4705 12.8559 30.5849 14.2824L33.5205 11.5691C31.7321 8.99966 28.5958 8.22266 25.6561 8.22266C19.0475 8.22266 15.5773 11.8404 15.5773 18.7471C15.5773 25.6188 18.7116 29.3394 25.6274 29.3394C28.7986 29.3394 31.9001 28.5274 33.5881 27.3414V17.3925H25.3939V21.2158L25.3919 21.2179Z" fill="white"/>
</g>
<defs>
<clipPath id="clip0_2048_39331">
<rect width="211" height="37" fill="white" transform="translate(0.5)"/>
</clipPath>
</defs>
</svg>
