<svg width="18" height="18" viewBox="0 0 18 18" fill="none" xmlns="http://www.w3.org/2000/svg">
<path d="M8.4695 15.4683H4.5C3.67157 15.4683 3 14.7967 3 13.9683V4.49992C3 3.67149 3.67157 2.99992 4.5 2.99992H12.4098C13.2382 2.99992 13.9098 3.67149 13.9098 4.49992V9.91801" stroke="#646464"/>
<path d="M5.59863 6.27979H11.3133" stroke="#646464" stroke-linecap="round" stroke-linejoin="round"/>
<path d="M5.59863 8.33643H11.3133" stroke="#646464" stroke-linecap="round" stroke-linejoin="round"/>
<path fill-rule="evenodd" clip-rule="evenodd" d="M9.70117 15.959H12.7012C13.8057 15.959 14.7012 15.0636 14.7012 13.959C14.7012 12.8544 13.8057 11.959 12.7012 11.959H9.70117V12.959H12.7012C13.2535 12.959 13.7012 13.4067 13.7012 13.959C13.7012 14.5113 13.2535 14.959 12.7012 14.959H9.70117V15.959Z" fill="#646464"/>
<path d="M10.7012 11.4595L9.70117 12.4595L10.7012 13.4595" stroke="#646464" stroke-linecap="round" stroke-linejoin="round"/>
</svg>
