<svg width="101" height="20" viewBox="0 0 101 20" fill="none" xmlns="http://www.w3.org/2000/svg">
<g clip-path="url(#clip0_8220_72220)">
<path d="M15.514 -0.000466786C16.1681 0.452363 16.5203 1.58444 16.143 2.26368C16.0675 2.41463 15.8159 2.54041 15.6398 2.61589C15.4134 2.6662 15.1618 2.64104 14.9103 2.64104C11.1618 2.64104 7.4134 2.64104 3.66497 2.64104C3.4134 2.64104 3.16183 2.61589 2.93541 2.6662C2.78447 2.69136 2.55805 2.79199 2.5329 2.89261C2.50774 3.04356 2.55805 3.29513 2.68384 3.42092C2.80963 3.5467 3.01088 3.62217 3.21214 3.64733C3.43856 3.69765 3.69013 3.67249 3.9417 3.67249C8.2939 3.67249 12.6713 3.67249 17.0235 3.67249C17.3253 3.67249 17.6021 3.67249 17.904 3.69765C18.9354 3.82343 19.5392 4.47752 19.6398 5.48381C19.665 5.65991 19.665 5.83601 19.665 5.98695C19.665 9.13161 19.665 12.2511 19.665 15.3958C19.665 15.5467 19.665 15.6976 19.665 15.8486C19.5895 16.8549 18.8599 17.5593 17.8536 17.6348C17.6775 17.6348 17.5014 17.6348 17.3505 17.6348C12.47 17.6348 7.5895 17.6096 2.709 17.6599C1.62724 17.6599 0.872519 17.2826 0.394531 16.3014C0.394531 11.6976 0.394531 7.09387 0.394531 2.46494C0.872519 1.50897 1.65239 1.13161 2.709 1.10645C3.9417 1.05614 5.19956 0.905194 6.43227 0.779407C8.47 0.603307 10.5077 0.427206 12.5706 0.225948C13.426 0.150477 14.2562 0.0498477 15.1115 -0.0507812C15.2373 -0.000466786 15.3631 -0.000466786 15.514 -0.000466786ZM6.709 14.3895C7.18698 14.6662 7.5895 14.9681 8.01717 15.1442C9.22472 15.6473 10.4826 15.8486 11.7153 15.27C12.5706 14.8675 13.0989 14.2134 13.1744 13.2322C13.2499 12.2259 12.8725 11.4461 11.992 10.9681C11.3379 10.6159 10.6587 10.3643 10.0046 10.0624C9.52661 9.83601 8.9983 9.63475 8.57063 9.33287C7.79076 8.77941 7.79076 7.79827 8.52032 7.1945C9.04862 6.74167 9.67755 6.54041 10.382 6.69136C10.9606 6.81714 11.4889 7.04356 12.0423 7.24482C12.2939 7.34544 12.47 7.32029 12.6209 7.09387C12.7719 6.8423 12.6461 6.64104 12.4448 6.56557C11.9669 6.36431 11.4637 6.11274 10.9354 6.01211C10.0298 5.83601 9.14925 5.86117 8.2939 6.314C6.98573 7.04356 6.709 8.93035 7.81591 9.86117C8.14296 10.1379 8.52032 10.3895 8.92283 10.5656C9.52661 10.8423 10.1807 11.0184 10.7593 11.2951C11.1618 11.4964 11.5895 11.748 11.9165 12.0498C12.6209 12.7542 12.4952 13.8109 11.665 14.314C11.3379 14.5153 10.9103 14.6662 10.5077 14.7165C9.55176 14.8675 8.67126 14.5907 7.84107 14.0876C7.66497 13.9618 7.48887 13.8612 7.2373 13.7102C7.03604 13.9366 6.91025 14.1127 6.709 14.3895Z" fill="#EE4D2D"/>
<path d="M49.9526 19.9991C49.9526 16.5777 49.9275 13.1311 49.9275 9.70975C49.9275 9.43302 49.852 9.10597 50.2545 8.98019C50.6822 8.8544 51.0847 8.98019 51.3363 9.33239C51.3866 9.3827 51.4369 9.43302 51.4621 9.48333C53.9526 8.60283 55.4872 8.90472 56.6193 10.4645C57.5501 11.7726 57.5501 13.5085 56.5942 14.7915C55.4369 16.3513 53.9023 16.628 51.3614 15.6972C51.2357 17.1563 51.3614 18.5903 51.286 20.0242C50.8331 19.9991 50.3803 19.9991 49.9526 19.9991ZM55.8394 12.628C55.8394 11.345 54.8835 10.3638 53.6256 10.3387C52.3929 10.3135 51.286 11.4204 51.3111 12.628C51.3363 13.8858 52.3426 14.8418 53.6004 14.867C54.8835 14.8418 55.8394 13.8858 55.8394 12.628Z" fill="#EE4D2D"/>
<path d="M100.998 9.40825C100.746 9.76045 100.495 10.1378 100.268 10.5152C98.4068 13.685 96.52 16.8548 94.6583 20.0246C94.1803 20.0246 93.6772 20.0246 93.1992 20.0246C93.0734 19.6976 93.2244 19.4208 93.3753 19.1189C94.0797 17.9114 94.759 16.6787 95.4885 15.4963C95.7904 14.9932 95.8407 14.6158 95.4885 14.0875C94.608 12.729 93.7778 11.3454 92.9728 9.93655C92.8219 9.68498 92.6206 9.30762 92.6961 9.08121C92.8219 8.70385 93.2747 8.85479 93.6017 8.82963C94.0043 8.80448 94.281 8.95542 94.5074 9.33278C95.1112 10.3642 95.7653 11.3705 96.3942 12.402C96.52 12.6032 96.6709 12.8045 96.847 13.0812C97.0231 12.8296 97.1741 12.6535 97.2998 12.4523C97.8281 11.5466 98.3816 10.641 98.9099 9.73529C99.4382 8.80448 99.6395 8.729 100.696 8.90511C100.797 8.93026 100.897 8.95542 100.973 8.98058C100.998 9.13152 100.998 9.25731 100.998 9.40825Z" fill="#EE4D2D"/>
<path d="M75.8416 10.3891C75.8416 8.87966 75.8416 7.34507 75.8416 5.83564C75.8416 5.60922 75.8416 5.38281 75.8667 5.18155C75.917 4.70356 76.0428 4.55262 76.4957 4.55262C77.829 4.52746 79.1372 4.47715 80.4705 4.57778C82.3573 4.72872 83.9422 6.46457 83.8164 8.62809C83.6906 10.4897 82.1057 12.0495 80.1938 12.0998C79.5145 12.1249 78.8353 12.0998 78.1309 12.0998C77.5271 12.0998 77.4768 12.1753 77.4516 12.779C77.4265 13.6847 77.4516 14.5904 77.4265 15.496C77.4013 16.1753 77.0994 16.4017 76.4202 16.3262C76.068 16.2759 75.8919 16.0998 75.8416 15.7476C75.8164 15.5212 75.8164 15.3199 75.8164 15.0935C75.8416 13.5338 75.8416 11.974 75.8416 10.3891ZM77.4516 8.25073C77.4516 8.67841 77.4516 9.08092 77.4516 9.5086C77.4516 10.5652 77.4516 10.5652 78.4831 10.5904C78.9359 10.5904 79.3636 10.6155 79.8164 10.5904C80.1434 10.5652 80.4957 10.5149 80.8227 10.4143C81.7535 10.0872 82.4328 8.98029 82.2818 8.02432C82.1309 7.01803 81.2755 6.13753 80.2692 6.06206C79.5145 6.01174 78.7598 6.0369 78.0051 6.0369C77.6277 6.0369 77.4768 6.213 77.4768 6.5652C77.4516 7.14382 77.4516 7.69727 77.4516 8.25073Z" fill="#EE4D2D"/>
<path d="M28.2925 4.50293C29.3491 4.5784 30.3303 4.88029 31.2359 5.38343C31.6636 5.60985 31.7139 5.76079 31.5126 6.13815C31.2359 6.69161 30.9843 6.8174 30.5567 6.66645C29.9277 6.44004 29.2737 6.18846 28.6196 6.01236C27.9655 5.83626 27.3617 6.03752 26.8082 6.38972C25.9277 6.94318 25.8523 8.0501 26.6825 8.67903C27.1101 9.00607 27.6133 9.18218 28.1164 9.40859C28.8208 9.71048 29.5252 9.96205 30.2296 10.2639C30.456 10.3646 30.6573 10.4904 30.8586 10.6161C31.89 11.2702 32.4183 12.1759 32.2674 13.3834C32.1416 14.591 31.4875 15.5218 30.3554 15.9746C28.3428 16.7797 26.456 16.352 24.7202 15.1696C24.5189 15.0438 24.2674 14.8426 24.3932 14.591C24.5441 14.2891 24.7705 14.0124 25.0221 13.8111C25.0976 13.7356 25.4246 13.8866 25.6007 14.0124C26.5315 14.6161 27.5126 15.0187 28.6447 14.8929C29.1479 14.8174 29.651 14.6665 30.0787 14.4149C30.934 13.9117 31.0095 12.8803 30.3554 12.1507C29.8271 11.5973 29.173 11.3205 28.4686 11.069C27.6887 10.7922 26.8837 10.5155 26.1542 10.1382C25.2233 9.63501 24.6447 8.85513 24.6196 7.72306C24.5944 6.33941 25.4749 5.18218 26.934 4.77966C27.3869 4.60356 27.8397 4.5784 28.2925 4.50293Z" fill="#EE4D2D"/>
<path d="M34.7857 9.45873C35.5656 9.10653 36.2448 8.90527 36.9996 8.95558C38.7354 9.03105 40.1945 10.4147 40.2448 12.1506C40.27 13.3078 40.27 14.465 40.2448 15.5971C40.2448 16.226 39.5153 16.6034 39.0121 16.226C38.8612 16.1002 38.7857 15.7984 38.7857 15.5719C38.7606 14.6663 38.7857 13.7606 38.7606 12.855C38.7606 12.6034 38.7606 12.3518 38.7606 12.1254C38.6851 11.1443 38.031 10.5153 37.0499 10.4399C35.6159 10.3392 34.8109 11.0688 34.8109 12.5028C34.7857 13.509 34.8109 14.5153 34.8109 15.5216C34.8109 16.226 34.2826 16.5782 33.6285 16.2512C33.5027 16.2009 33.4021 15.9996 33.3518 15.8738C33.3014 15.6977 33.3266 15.4965 33.3266 15.2952C33.3266 12.0499 33.3266 8.8298 33.3266 5.58451C33.3266 5.50904 33.3266 5.43357 33.3266 5.3581C33.3518 4.62854 33.8046 4.32665 34.4838 4.60338C34.8109 4.72917 34.8109 5.0059 34.8109 5.28263C34.8109 6.38955 34.8109 7.49646 34.8109 8.60338C34.7857 8.8298 34.7857 9.10653 34.7857 9.45873Z" fill="#EE4D2D"/>
<path d="M89.8295 9.76059C90.1565 9.00587 90.3829 8.88008 90.9364 8.98071C91.1628 9.03103 91.2886 9.13166 91.3137 9.35807C91.3389 9.53417 91.3389 9.71027 91.3389 9.86122C91.3389 11.6977 91.3389 13.5342 91.3389 15.3706C91.3389 15.4461 91.3389 15.5216 91.3389 15.5971C91.3137 15.8738 91.3892 16.2008 90.9615 16.2763C90.5339 16.3518 90.1817 16.1757 90.0056 15.7983C89.9552 15.6977 89.9301 15.5719 89.9049 15.4461C87.6156 16.6285 85.8546 16.4524 84.4961 14.8927C83.4144 13.6348 83.364 11.7983 84.3955 10.4147C85.0496 9.53417 85.9301 9.08134 87.0118 8.95556C88.0433 8.85493 88.9741 9.18197 89.8295 9.76059ZM89.6785 12.5782C89.6785 11.3203 88.7225 10.4398 87.3892 10.4398C86.1062 10.4398 85.1502 11.3455 85.1502 12.553C85.1502 13.7857 86.232 14.8423 87.4647 14.8423C88.6471 14.8172 89.6785 13.7857 89.6785 12.5782Z" fill="#EE4D2D"/>
<path d="M68.1429 13.1317C68.4197 14.2134 69.1492 14.792 70.1807 14.8675C71.1618 14.943 72.0172 14.6914 72.7216 14.0625C72.8725 14.1128 72.948 14.138 72.9983 14.1631C73.6775 14.943 73.6272 15.3455 72.6964 15.7983C71.036 16.5782 69.3757 16.6034 67.8662 15.3958C66.3065 14.138 66.1052 11.7229 67.4385 10.2134C68.47 9.03104 69.753 8.67884 71.2121 9.10651C72.5958 9.48387 73.6021 10.8424 73.7279 12.3266C73.7782 12.9053 73.6021 13.1065 72.9731 13.1317C71.6398 13.1568 70.3316 13.1317 68.9983 13.1317C68.7467 13.1317 68.47 13.1317 68.1429 13.1317ZM68.2184 11.6474C68.8725 11.8487 69.5014 11.748 70.1052 11.748C70.7341 11.748 71.3882 11.8738 72.0926 11.6222C71.5895 10.792 70.9354 10.3141 70.0297 10.3644C69.275 10.4147 68.6209 10.7417 68.2184 11.6474Z" fill="#EE4D2D"/>
<path d="M60.0164 13.1568C60.2177 14.1128 60.9221 14.7417 61.8278 14.8424C62.6579 14.943 63.4378 14.8424 64.1422 14.3644C64.3435 14.2386 64.5699 14.0122 64.7963 14.2386C65.0227 14.465 65.224 14.7417 65.2743 15.0185C65.2995 15.1694 65.0479 15.4461 64.8718 15.5719C64.1925 16.1002 63.3624 16.2763 62.5322 16.3266C60.3435 16.4273 58.6076 15.0939 58.3812 12.9304C58.1548 10.5908 60.1171 9.00588 61.702 8.93041C63.7397 8.85494 65.1988 10.3895 65.4756 12.0499C65.6013 12.9053 65.4504 13.1065 64.5951 13.1317C63.3372 13.1317 62.1045 13.1317 60.8466 13.1317C60.5951 13.1317 60.3435 13.1568 60.0164 13.1568ZM63.8403 11.5971C63.3875 10.7166 62.5322 10.2386 61.6768 10.3895C60.7712 10.5405 60.2932 10.943 60.2177 11.6222C60.8215 11.7983 63.2114 11.7983 63.8403 11.5971Z" fill="#EE4D2D"/>
<path d="M48.7965 12.7039C48.9223 14.2384 47.5638 16.3013 45.0481 16.3265C43.0103 16.3517 41.2242 14.5655 41.2745 12.6032C41.3499 10.2636 43.3374 8.93027 45.0984 8.95543C46.9852 8.95543 48.9726 10.6158 48.7965 12.7039ZM45.0481 14.8674C46.3562 14.8674 47.3877 13.8611 47.3877 12.6535C47.3877 11.4208 46.3059 10.3642 45.0732 10.3642C43.8154 10.3642 42.7336 11.3957 42.7336 12.6032C42.7587 13.8862 43.7399 14.8674 45.0481 14.8674Z" fill="#EE4D2D"/>
</g>
<defs>
<clipPath id="clip0_8220_72220">
<rect width="100.629" height="20" fill="white" transform="translate(0.371094)"/>
</clipPath>
</defs>
</svg>
