<svg width="40" height="40" viewBox="0 0 40 40" fill="none" xmlns="http://www.w3.org/2000/svg">
<path fill-rule="evenodd" clip-rule="evenodd" d="M32.0951 22.1877C32.7706 19.2352 32.2457 16.1353 30.6357 13.5699C29.0257 11.0045 26.4625 9.18378 23.5101 8.50822C23.1063 8.41583 22.7041 8.66826 22.6117 9.07204C22.5193 9.47582 22.7717 9.87804 23.1755 9.97043C25.7401 10.5573 27.9666 12.1389 29.3651 14.3673C30.7637 16.5957 31.2197 19.2884 30.6329 21.8531C30.046 24.4177 28.4644 26.6442 26.236 28.0428C25.2993 28.6306 24.2806 29.0519 23.2238 29.2993L24.4325 27.1311C24.6342 26.7693 24.5044 26.3126 24.1426 26.1109C23.7809 25.9092 23.3241 26.039 23.1224 26.4008L20.9465 30.3038C20.7448 30.6656 20.8746 31.1224 21.2364 31.3241L25.1394 33.4999C25.5012 33.7016 25.958 33.5718 26.1597 33.21C26.3614 32.8482 26.2316 32.3914 25.8698 32.1898L23.3799 30.8017C24.6628 30.5239 25.9002 30.0244 27.0334 29.3133C29.5988 27.7033 31.4195 25.1401 32.0951 22.1877ZM9.14503 25.2102C7.63065 22.5872 7.22027 19.4701 8.00417 16.5446C8.78808 13.619 10.702 11.1247 13.325 9.61029C14.482 8.94229 15.7352 8.48909 17.0257 8.25846L14.5941 6.78289C14.24 6.56801 14.1271 6.10674 14.342 5.75263C14.5569 5.39851 15.0181 5.28565 15.3722 5.50053L19.1924 7.81873C19.5466 8.03362 19.6594 8.49488 19.4445 8.849L17.1263 12.6692C16.9115 13.0233 16.4502 13.1362 16.0961 12.9213C15.742 12.7064 15.6291 12.2452 15.844 11.891L17.1347 9.76401C16.0684 9.97211 15.0337 10.3558 14.075 10.9093C11.7966 12.2248 10.134 14.3915 9.45306 16.9328C8.77213 19.4741 9.1286 22.1818 10.4441 24.4602C11.7595 26.7387 13.9262 28.4012 16.4675 29.0822C16.8676 29.1894 17.1051 29.6006 16.9978 30.0007C16.8906 30.4008 16.4794 30.6383 16.0793 30.5311C13.1537 29.7472 10.6594 27.8332 9.14503 25.2102Z" fill="black"/>
</svg>
