<svg width="60" height="60" viewBox="0 0 60 60" fill="none" xmlns="http://www.w3.org/2000/svg">
<path fill-rule="evenodd" clip-rule="evenodd" d="M26.4743 6.61984C26.8077 6.46526 27.1923 6.46526 27.5257 6.61984L46.4603 15.3976L38.2935 19.1826L18.8319 10.1627L26.4743 6.61984ZM17.0485 10.9895L36.5099 20.0092L27 24.4168L7.53974 15.3976L17.0485 10.9895ZM47.5 16.6779C47.5 16.642 47.4985 16.6064 47.4954 16.5711L39.1523 20.4378V28.0002C39.1523 28.4144 38.8166 28.7502 38.4023 28.7502C37.9881 28.7502 37.6523 28.4144 37.6523 28.0002V21.133L27.75 25.7224V47.9201L32.9471 45.5108L32.9534 45.5079L32.9534 45.5079L33.9508 45.0567C34.3282 44.886 34.7726 45.0536 34.9433 45.431C35.114 45.8084 34.9464 46.2527 34.569 46.4234L33.5779 46.8717L33.5716 46.8746L28.1566 49.385C27.423 49.725 26.577 49.725 25.8434 49.385L6.59339 40.461C5.62175 40.0105 5 39.037 5 37.966V16.6779C5 15.6069 5.62175 14.6334 6.59339 14.1829L25.8434 5.25896C26.577 4.91889 27.423 4.91889 28.1566 5.25896L47.4066 14.1829C48.3783 14.6334 49 15.6069 49 16.6779V26.5006C49 26.9148 48.6642 27.2506 48.25 27.2506C47.8358 27.2506 47.5 26.9148 47.5 26.5006V16.6779ZM6.50455 16.5711L26.25 25.7224V47.9201L7.22427 39.1001C6.78261 38.8954 6.5 38.4528 6.5 37.966V16.6779C6.5 16.642 6.50153 16.6064 6.50455 16.5711ZM45 30.5029C40.3057 30.5029 36.5 34.3089 36.5 39.004C36.5 43.6991 40.3057 47.5051 45 47.5051C49.6943 47.5051 53.5 43.6991 53.5 39.004C53.5 34.3089 49.6943 30.5029 45 30.5029ZM35 39.004C35 33.4806 39.4771 29.0029 45 29.0029C50.5229 29.0029 55 33.4806 55 39.004C55 41.4958 54.0888 43.7749 52.5814 45.5259L57.7783 50.7235C58.0712 51.0164 58.0712 51.4913 57.7783 51.7842C57.4855 52.0771 57.0106 52.0771 56.7177 51.7842L51.5207 46.5866C49.7699 48.0939 47.4914 49.0051 45 49.0051C39.4771 49.0051 35 44.5274 35 39.004Z" fill="black"/>
</svg>
