<svg width="64" height="64" viewBox="0 0 64 64" fill="none" xmlns="http://www.w3.org/2000/svg">
<path fill-rule="evenodd" clip-rule="evenodd" d="M31.9998 10.9993C26.2929 10.9993 21.6665 15.6257 21.6665 21.3327C21.6665 27.0396 26.2929 31.666 31.9998 31.666C37.7068 31.666 42.3332 27.0396 42.3332 21.3327C42.3332 15.6257 37.7068 10.9993 31.9998 10.9993ZM23.6665 21.3327C23.6665 16.7303 27.3975 12.9993 31.9998 12.9993C36.6022 12.9993 40.3332 16.7303 40.3332 21.3327C40.3332 25.9351 36.6022 29.666 31.9998 29.666C27.3975 29.666 23.6665 25.9351 23.6665 21.3327Z" fill="black"/>
<path fill-rule="evenodd" clip-rule="evenodd" d="M31.9962 2.66602C21.7129 2.66602 13.3906 11.0683 13.3906 21.4158C13.3906 24.0117 13.9144 26.4851 14.8614 28.7341L2.6665 50.0747L15.2912 49.5536L21.1764 60.8591L31.9994 41.9051L42.8224 60.8591L48.7077 49.5536L61.3324 50.0747L49.1337 28.7276C50.079 26.4803 50.6017 24.0091 50.6017 21.4158C50.6017 11.0683 42.2794 2.66602 31.9962 2.66602ZM15.3906 21.4158C15.3906 12.1575 22.8329 4.66602 31.9962 4.66602C41.1595 4.66602 48.6017 12.1575 48.6017 21.4158C48.6017 30.6742 41.1595 38.1657 31.9962 38.1657C22.8329 38.1657 15.3906 30.6742 15.3906 21.4158ZM30.7146 40.1219C24.4037 39.6894 18.9611 36.087 15.9352 30.8862L6.19717 47.9273L16.4784 47.5028L21.2576 56.6836L30.7146 40.1219ZM42.7413 56.6836L33.284 40.1215C39.5945 39.6869 45.0361 36.0827 48.0605 30.8806L57.8017 47.9273L47.5205 47.5028L42.7413 56.6836Z" fill="black"/>
</svg>
