<svg width="168" height="32" viewBox="0 0 168 32" fill="none" xmlns="http://www.w3.org/2000/svg">
<path d="M8.58121 28.8451C8.27859 29.0277 7.90524 28.7568 7.98489 28.4125L9.93854 19.9667L3.38587 14.2857C3.11885 14.0542 3.26123 13.6155 3.6133 13.5849L12.2719 12.8333L15.6368 4.87177C15.7744 4.54606 16.236 4.54606 16.3737 4.87177L19.7385 12.8333L28.3971 13.5849C28.7492 13.6155 28.8916 14.0542 28.6245 14.2857L22.0719 19.9667L24.0255 28.4125C24.1052 28.7568 23.7318 29.0277 23.4292 28.8451L16.0052 24.3667L8.58121 28.8451Z" fill="#FCC436"/>
<path d="M42.5812 28.8451C42.2786 29.0277 41.9052 28.7568 41.9849 28.4125L43.9385 19.9667L37.3859 14.2857C37.1189 14.0542 37.2612 13.6155 37.6133 13.5849L46.2719 12.8333L49.6368 4.87177C49.7744 4.54606 50.236 4.54606 50.3737 4.87177L53.7385 12.8333L62.3971 13.5849C62.7492 13.6155 62.8916 14.0542 62.6245 14.2857L56.0719 19.9667L58.0255 28.4125C58.1052 28.7568 57.7318 29.0277 57.4292 28.8451L50.0052 24.3667L42.5812 28.8451Z" fill="#FCC436"/>
<path d="M76.5812 28.8451C76.2786 29.0277 75.9052 28.7568 75.9849 28.4125L77.9385 19.9667L71.3859 14.2857C71.1189 14.0542 71.2612 13.6155 71.6133 13.5849L80.2719 12.8333L83.6368 4.87177C83.7744 4.54606 84.236 4.54606 84.3737 4.87177L87.7385 12.8333L96.3971 13.5849C96.7492 13.6155 96.8916 14.0542 96.6245 14.2857L90.0719 19.9667L92.0255 28.4125C92.1052 28.7568 91.7318 29.0277 91.4292 28.8451L84.0052 24.3667L76.5812 28.8451Z" fill="#FCC436"/>
<path d="M110.581 28.8451C110.279 29.0277 109.905 28.7568 109.985 28.4125L111.939 19.9667L105.386 14.2857C105.119 14.0542 105.261 13.6155 105.613 13.5849L114.272 12.8333L117.637 4.87177C117.774 4.54606 118.236 4.54606 118.374 4.87177L121.739 12.8333L130.397 13.5849C130.749 13.6155 130.892 14.0542 130.625 14.2857L124.072 19.9667L126.026 28.4125C126.105 28.7568 125.732 29.0277 125.429 28.8451L118.005 24.3667L110.581 28.8451Z" fill="#FCC436"/>
<path d="M144.581 28.8451C144.279 29.0277 143.905 28.7568 143.985 28.4125L145.939 19.9667L139.386 14.2857C139.119 14.0542 139.261 13.6155 139.613 13.5849L148.272 12.8333L151.637 4.87177C151.774 4.54606 152.236 4.54606 152.374 4.87177L155.739 12.8333L164.397 13.5849C164.749 13.6155 164.892 14.0542 164.625 14.2857L158.072 19.9667L160.026 28.4125C160.105 28.7568 159.732 29.0277 159.429 28.8451L152.005 24.3667L144.581 28.8451Z" fill="#FCC436"/>
</svg>
