<svg width="32" height="32" viewBox="0 0 32 32" fill="none" xmlns="http://www.w3.org/2000/svg">
<path fill-rule="evenodd" clip-rule="evenodd" d="M19.3784 4.50208C19.9575 4.49035 20.8053 4.64456 21.5312 5.16706C22.041 5.53397 22.4615 6.0629 22.6874 6.77436H23.9135C27.386 6.77436 30 9.94572 30 13.6349V14.0459H30.0008V23.717C30.0008 24.1312 29.665 24.467 29.2508 24.467L27.6535 24.467C27.3384 26.1911 25.8187 27.4986 23.9914 27.4986C22.1828 27.4986 20.6754 26.2177 20.3393 24.5197H12.1815C11.8454 26.2177 10.3381 27.4986 8.52946 27.4986C6.47384 27.4986 4.80743 25.8439 4.80743 23.8029C4.80743 23.3145 4.90285 22.8482 5.07619 22.4214C3.84349 21.2459 3.04343 19.6374 3.04343 17.797V11.0819C3.04343 10.6677 3.37922 10.3319 3.79343 10.3319H10.9237C11.3379 10.3319 11.6737 10.6677 11.6737 11.0819C11.6737 11.4961 11.3379 11.8319 10.9237 11.8319H4.54343V17.797C4.54343 19.0912 5.06658 20.2535 5.9314 21.1565C6.60211 20.5072 7.51874 20.1072 8.52946 20.1072C10.3144 20.1072 11.8059 21.3548 12.1677 23.0197H20.3531C20.7149 21.3548 22.2064 20.1072 23.9914 20.1072C25.7575 20.1072 27.2363 21.3285 27.6178 22.967L28.5008 22.967V14.3849H28.5V13.6349C28.5 10.5736 26.3704 8.27436 23.9135 8.27436H22.867V14.5801H26.5641C26.9784 14.5801 27.3141 14.9159 27.3141 15.3301C27.3141 15.7443 26.9784 16.0801 26.5641 16.0801H22.117C21.9181 16.0801 21.7273 16.0011 21.5867 15.8604C21.446 15.7197 21.367 15.529 21.367 15.3301V8.00679C21.367 7.11451 21.0232 6.64954 20.6549 6.38447C20.2471 6.0909 19.7349 5.9941 19.4041 6.00187L19.3865 6.00208H2.75C2.33579 6.00208 2 5.66629 2 5.25208C2 4.83786 2.33579 4.50208 2.75 4.50208H19.3784ZM8.52946 25.9986C9.76672 25.9986 10.7515 25.0055 10.7515 23.8029C10.7515 22.6003 9.76672 21.6072 8.52946 21.6072C7.2922 21.6072 6.30743 22.6003 6.30743 23.8029C6.30743 25.0055 7.2922 25.9986 8.52946 25.9986ZM13.4266 8.86636L2.75182 8.86636C2.33761 8.86636 2.00182 8.53057 2.00182 8.11636C2.00182 7.70214 2.33761 7.36636 2.75182 7.36636L13.4266 7.36636C13.8408 7.36636 14.1766 7.70214 14.1766 8.11636C14.1766 8.53057 13.8408 8.86636 13.4266 8.86636ZM26.2134 23.8029C26.2134 25.0055 25.2286 25.9986 23.9914 25.9986C22.7541 25.9986 21.7693 25.0055 21.7693 23.8029C21.7693 22.6003 22.7541 21.6072 23.9914 21.6072C25.2286 21.6072 26.2134 22.6003 26.2134 23.8029Z" fill="black"/>
</svg>
