<svg width="60" height="60" viewBox="0 0 60 60" fill="none" xmlns="http://www.w3.org/2000/svg">
<path fill-rule="evenodd" clip-rule="evenodd" d="M14.75 53.5034C11.8505 53.5034 9.5 51.1529 9.5 48.2534V11.7505C9.5 8.85099 11.8505 6.50049 14.75 6.50049H44.7237C47.6232 6.50049 49.9737 8.85099 49.9737 11.7505V37.6644H51.4737V11.7505C51.4737 8.02256 48.4516 5.00049 44.7237 5.00049H14.75C11.0221 5.00049 8 8.02257 8 11.7505V48.2534C8 51.9813 11.0221 55.0034 14.75 55.0034H35.751V53.5034H14.75ZM34.8668 47.1572C40.2201 47.1572 44.5598 42.8175 44.5598 37.4642C44.5598 32.1109 40.2201 27.7712 34.8668 27.7712C29.5135 27.7712 25.1738 32.1109 25.1738 37.4642C25.1738 42.8175 29.5135 47.1572 34.8668 47.1572ZM43.354 44.7618C45.0404 42.8023 46.0598 40.2523 46.0598 37.4642C46.0598 31.2825 41.0485 26.2712 34.8668 26.2712C28.6851 26.2712 23.6738 31.2825 23.6738 37.4642C23.6738 43.6459 28.6851 48.6572 34.8668 48.6572C37.7206 48.6572 40.3249 47.5892 42.3019 45.8311L50.1003 53.6294C50.3932 53.9223 50.868 53.9223 51.1609 53.6294C51.4538 53.3365 51.4538 52.8617 51.1609 52.5688L43.354 44.7618Z" fill="black"/>
</svg>
