<svg width="32" height="32" viewBox="0 0 32 32" fill="none" xmlns="http://www.w3.org/2000/svg">
<g clip-path="url(#clip0_777_24006)">
<path d="M31.3313 8.50864C30.9633 7.12758 29.8791 6.04005 28.5022 5.67096C26.0067 5.00018 16 5.00018 16 5.00018C16 5.00018 5.99333 5.00018 3.4978 5.67096C2.12102 6.04005 1.03665 7.12758 0.668678 8.50864C0 11.0117 0 16.2342 0 16.2342C0 16.2342 0 21.4567 0.668678 23.96C1.03665 25.3409 2.12102 26.4284 3.4978 26.7976C5.99333 27.4683 16 27.4683 16 27.4683C16 27.4683 26.0067 27.4683 28.5022 26.7976C29.8791 26.4284 30.9633 25.3409 31.3313 23.96C32 21.4567 32 16.2342 32 16.2342C32 16.2342 32 11.0117 31.3313 8.50864Z" fill="#ED1D24"/>
<path d="M12.7275 20.9761L21.0912 16.2347L12.7275 11.4928V20.9761Z" fill="white"/>
</g>
<defs>
<clipPath id="clip0_777_24006">
<rect width="32" height="22.4681" fill="white" transform="translate(0 5)"/>
</clipPath>
</defs>
</svg>
