<svg width="64" height="64" viewBox="0 0 64 64" fill="none" xmlns="http://www.w3.org/2000/svg">
<path d="M38 14C38 12.8954 38.8954 12 40 12H59C60.1046 12 61 12.8954 61 14V53C61 54.1046 60.1046 55 59 55H40C38.8954 55 38 54.1046 38 53V14Z" stroke="#EA1917" stroke-width="1.5"/>
<path d="M49.5 51C53.6421 51 57 47.6421 57 43.5C57 39.3579 53.6421 36 49.5 36C45.3579 36 42 39.3579 42 43.5C42 47.6421 45.3579 51 49.5 51Z" stroke="#EA1917" stroke-width="1.5" stroke-linecap="round" stroke-linejoin="round"/>
<path d="M49.5 46C50.8807 46 52 44.8807 52 43.5C52 42.1193 50.8807 41 49.5 41C48.1193 41 47 42.1193 47 43.5C47 44.8807 48.1193 46 49.5 46Z" stroke="#EA1917" stroke-width="1.5" stroke-linecap="round" stroke-linejoin="round"/>
<path d="M49 22C50.1046 22 51 21.1046 51 20C51 18.8954 50.1046 18 49 18C47.8954 18 47 18.8954 47 20C47 21.1046 47.8954 22 49 22Z" stroke="#EA1917" stroke-width="1.5" stroke-linecap="round" stroke-linejoin="round"/>
<path d="M7.80078 50H22.2008" stroke="#EA1917" stroke-width="1.5" stroke-linecap="round"/>
<path d="M28 51C28.5523 51 29 50.5523 29 50C29 49.4477 28.5523 49 28 49C27.4477 49 27 49.4477 27 50C27 50.5523 27.4477 51 28 51Z" fill="#EA1917"/>
<path d="M3 47C3 46.4477 3.44772 46 4 46H32C32.5523 46 33 46.4477 33 47V54C33 54.5523 32.5523 55 32 55H4C3.44772 55 3 54.5523 3 54V47Z" stroke="#EA1917" stroke-width="1.5"/>
</svg>
