<svg width="235" height="64" viewBox="0 0 235 64" fill="none" xmlns="http://www.w3.org/2000/svg">
<path fill-rule="evenodd" clip-rule="evenodd" d="M122.5 11.8444C122.086 11.8444 121.75 12.1803 121.75 12.5944V32.7411H133.687L133.688 11.8444H122.5ZM133.687 34.2411H121.75V50.6555C121.75 51.0696 122.086 51.4055 122.5 51.4055H133.687L133.687 34.2411ZM135.187 34.2411H147.126V50.6555C147.126 51.0699 146.791 51.4055 146.376 51.4055H135.187L135.187 34.2411ZM147.126 32.7411H135.187L135.188 11.8444H146.376C146.791 11.8444 147.126 12.18 147.126 12.5944V32.7411ZM122.5 52.9055H134.437H146.376C147.619 52.9055 148.626 51.8979 148.626 50.6555V12.5944C148.626 11.3519 147.619 10.3444 146.376 10.3444H134.438H122.5C121.258 10.3444 120.25 11.3516 120.25 12.5944V50.6555C120.25 51.8982 121.258 52.9055 122.5 52.9055ZM2.5 12.25C1.25736 12.25 0.25 13.2574 0.25 14.5V49.5C0.25 50.7426 1.25735 51.75 2.5 51.75H29.5C30.7426 51.75 31.75 50.7426 31.75 49.5V14.5C31.75 13.2573 30.7426 12.25 29.5 12.25H2.5ZM1.75 14.5C1.75 14.0858 2.08578 13.75 2.5 13.75H29.5C29.9142 13.75 30.25 14.0858 30.25 14.5V49.5C30.25 49.9142 29.9142 50.25 29.5 50.25H2.5C2.08579 50.25 1.75 49.9142 1.75 49.5V14.5ZM17.2484 17.4333C17.2484 18.1329 16.6663 18.7 15.9484 18.7C15.2304 18.7 14.6484 18.1329 14.6484 17.4333C14.6484 16.7337 15.2304 16.1666 15.9484 16.1666C16.6663 16.1666 17.2484 16.7337 17.2484 17.4333ZM37 19.5962C36.5858 19.5962 36.25 19.932 36.25 20.3462V49.5C36.25 49.9143 36.5858 50.25 37 50.25H53.5C53.9142 50.25 54.25 49.9143 54.25 49.5V20.3462C54.25 19.932 53.9142 19.5962 53.5 19.5962H37ZM34.75 20.3462C34.75 19.1035 35.7574 18.0962 37 18.0962H53.5C54.7426 18.0962 55.75 19.1035 55.75 20.3462V49.5C55.75 50.7427 54.7426 51.75 53.5 51.75H37C35.7574 51.75 34.75 50.7427 34.75 49.5V20.3462ZM46.4984 23.1334C46.4984 23.833 45.9163 24.4001 45.1984 24.4001C44.4804 24.4001 43.8984 23.833 43.8984 23.1334C43.8984 22.4338 44.4804 21.8667 45.1984 21.8667C45.9163 21.8667 46.4984 22.4338 46.4984 23.1334ZM38.0369 34.2397C39.7328 32.1812 42.3361 30.8662 45.25 30.8662C48.1639 30.8662 50.7672 32.1812 52.4631 34.2397C52.6738 34.4954 52.6373 34.8736 52.3815 35.0843C52.1258 35.295 51.7476 35.2585 51.5369 35.0027C50.0636 33.2144 47.7971 32.0662 45.25 32.0662C42.7029 32.0662 40.4364 33.2144 38.9631 35.0027C38.7524 35.2585 38.3742 35.295 38.1185 35.0843C37.8627 34.8736 37.8262 34.4954 38.0369 34.2397ZM40.2867 35.9923C41.4543 34.575 43.246 33.6705 45.2497 33.6705C47.2535 33.6705 49.0452 34.575 50.2128 35.9923C50.4235 36.248 50.387 36.6262 50.1312 36.8369C49.8754 37.0476 49.4973 37.0111 49.2866 36.7553C48.3416 35.6082 46.8867 34.8705 45.2497 34.8705C43.6128 34.8705 42.1579 35.6082 41.2129 36.7553C41.0022 37.0111 40.6241 37.0476 40.3683 36.8369C40.1125 36.6262 40.076 36.248 40.2867 35.9923ZM42.319 37.745C42.9585 36.9688 43.9386 36.4748 45.0321 36.4748C46.1257 36.4748 47.1058 36.9688 47.7452 37.745C47.9559 38.0008 47.9193 38.3789 47.6636 38.5896C47.4078 38.8003 47.0297 38.7637 46.819 38.508C46.4022 38.002 45.7589 37.6748 45.0321 37.6748C44.3054 37.6748 43.6621 38.002 43.2452 38.508C43.0345 38.7638 42.6563 38.8003 42.4006 38.5896C42.1448 38.3788 42.1083 38.0007 42.319 37.745ZM45.9716 40.1572C45.9716 40.6761 45.5399 41.0968 45.0073 41.0968C44.4748 41.0968 44.043 40.6761 44.043 40.1572C44.043 39.6383 44.4748 39.2177 45.0073 39.2177C45.5399 39.2177 45.9716 39.6383 45.9716 40.1572ZM64.6055 14.4543C64.6055 13.1933 65.6794 12.25 66.9039 12.25H109.097C110.322 12.25 111.396 13.1932 111.396 14.4543V37.7236C111.396 38.9847 110.322 39.9279 109.097 39.9279H66.9039C65.6794 39.9279 64.6055 38.9846 64.6055 37.7236V14.4543ZM66.9039 13.75C66.4179 13.75 66.1055 14.1089 66.1055 14.4543V37.7236C66.1055 38.069 66.4179 38.4279 66.9039 38.4279H109.097C109.584 38.4279 109.896 38.0689 109.896 37.7236V14.4543C109.896 14.109 109.584 13.75 109.097 13.75H66.9039ZM69.8333 43.1892C68.782 43.1892 67.75 43.9532 67.75 45.1027V48.5931C67.75 49.7426 68.7821 50.5065 69.8333 50.5065H106.167C107.218 50.5065 108.25 49.7425 108.25 48.5931V45.1027C108.25 43.9533 107.218 43.1892 106.167 43.1892H69.8333ZM69.25 45.1027C69.25 44.967 69.412 44.6892 69.8333 44.6892H106.167C106.588 44.6892 106.75 44.9669 106.75 45.1027V48.5931C106.75 48.7287 106.588 49.0065 106.167 49.0065H69.8333C69.4119 49.0065 69.25 48.7286 69.25 48.5931V45.1027ZM112.624 42.1674C112.839 41.9146 113.217 41.8834 113.47 42.0978C114.773 43.2025 115.6 44.8927 115.6 46.7777C115.6 48.6626 114.773 50.3528 113.47 51.4575C113.217 51.6718 112.839 51.6407 112.624 51.3879C112.41 51.1352 112.441 50.7566 112.694 50.5423C113.729 49.6646 114.4 48.3086 114.4 46.7777C114.4 45.2467 113.729 43.8907 112.694 43.013C112.441 42.7987 112.41 42.4201 112.624 42.1674ZM110.187 44.4828C110.401 44.23 110.78 44.1987 111.033 44.4129C111.752 45.0222 112.204 45.951 112.204 46.9818C112.204 48.0126 111.752 48.9415 111.033 49.5507C110.78 49.7649 110.401 49.7335 110.187 49.4807C109.973 49.2278 110.004 48.8492 110.257 48.635C110.708 48.2533 111.004 47.659 111.004 46.9818C111.004 46.3046 110.708 45.7104 110.257 45.3285C110.004 45.1143 109.973 44.7357 110.187 44.4828ZM63.3063 43.0129C63.5591 42.7987 63.5904 42.4201 63.3761 42.1673C63.1619 41.9145 62.7833 41.8832 62.5305 42.0975C61.227 43.2021 60.4 44.8924 60.4 46.7774C60.4 48.6624 61.227 50.3526 62.5305 51.4573C62.7833 51.6716 63.1619 51.6403 63.3761 51.3875C63.5904 51.1348 63.5591 50.7561 63.3063 50.5419C62.2708 49.6642 61.6 48.3084 61.6 46.7774C61.6 45.2464 62.2708 43.8905 63.3063 43.0129ZM65.7428 44.9198C65.9955 44.7056 66.0268 44.3269 65.8125 44.0742C65.5982 43.8214 65.2196 43.7901 64.9668 44.0044C64.2482 44.6136 63.7957 45.5422 63.7957 46.5732C63.7957 47.6042 64.2481 48.5329 64.9669 49.142C65.2197 49.3563 65.5983 49.325 65.8125 49.0722C66.0268 48.8194 65.9955 48.4408 65.7427 48.2266C65.2921 47.8447 64.9957 47.2503 64.9957 46.5732C64.9957 45.8962 65.292 45.3018 65.7428 44.9198ZM70.9 46.8479C70.9 46.5165 71.1686 46.2479 71.5 46.2479H85C85.3314 46.2479 85.6 46.5165 85.6 46.8479C85.6 47.1793 85.3314 47.4479 85 47.4479H71.5C71.1686 47.4479 70.9 47.1793 70.9 46.8479ZM95.4021 46.7776C95.4021 47.2439 95.0121 47.622 94.5311 47.622C94.0501 47.622 93.6602 47.2439 93.6602 46.7776C93.6602 46.3112 94.0501 45.9331 94.5311 45.9331C95.0121 45.9331 95.4021 46.3112 95.4021 46.7776ZM98.453 47.622C98.934 47.622 99.324 47.2439 99.324 46.7776C99.324 46.3112 98.934 45.9331 98.453 45.9331C97.972 45.9331 97.582 46.3112 97.582 46.7776C97.582 47.2439 97.972 47.622 98.453 47.622ZM101.5 46.2479C101.169 46.2479 100.9 46.5165 100.9 46.8479C100.9 47.1793 101.169 47.4479 101.5 47.4479H103C103.331 47.4479 103.6 47.1793 103.6 46.8479C103.6 46.5165 103.331 46.2479 103 46.2479H101.5ZM138.922 28.6358V15.951H143.394V28.6358H138.922ZM138.672 14.451C137.982 14.451 137.422 15.0106 137.422 15.701V28.8858C137.422 29.5762 137.982 30.1358 138.672 30.1358H143.644C144.336 30.1358 144.894 29.5752 144.894 28.8858V15.701C144.894 15.0115 144.336 14.451 143.644 14.451H138.672ZM153.855 21.5431C152.613 21.5431 151.605 22.5505 151.605 23.7931V50.6557C151.605 51.8984 152.613 52.9057 153.855 52.9057H173.999C175.242 52.9057 176.249 51.8984 176.249 50.6557V23.7931C176.249 22.5505 175.242 21.5431 173.999 21.5431H153.855ZM153.105 23.7931C153.105 23.3789 153.441 23.0431 153.855 23.0431H173.999C174.413 23.0431 174.749 23.3789 174.749 23.7931V29.7553H153.105V23.7931ZM153.105 31.2553V50.6557C153.105 51.0699 153.441 51.4057 153.855 51.4057H173.999C174.413 51.4057 174.749 51.0699 174.749 50.6557V31.2553H153.105ZM163.925 34.9884C160.423 34.9884 157.583 37.828 157.583 41.3308C157.583 44.8336 160.423 47.6732 163.925 47.6732C167.428 47.6732 170.268 44.8336 170.268 41.3308C170.268 37.828 167.428 34.9884 163.925 34.9884ZM156.083 41.3308C156.083 36.9996 159.594 33.4884 163.925 33.4884C168.257 33.4884 171.768 36.9996 171.768 41.3308C171.768 45.662 168.257 49.1732 163.925 49.1732C159.594 49.1732 156.083 45.662 156.083 41.3308ZM167.032 43.7056C167.239 43.964 167.617 44.0053 167.875 43.7978C168.134 43.5903 168.175 43.2127 167.968 42.9543C167.717 42.6418 167.398 42.3898 167.036 42.2167C166.675 42.0436 166.278 41.9539 165.877 41.9539C165.476 41.9539 165.079 42.0436 164.717 42.2167C164.367 42.3844 164.057 42.6261 163.81 42.9252C163.456 43.2696 163.125 43.4106 162.84 43.4563C162.542 43.5041 162.247 43.4546 161.972 43.3517C161.695 43.2483 161.454 43.0973 161.28 42.9675C161.194 42.9035 161.127 42.847 161.084 42.8081L161.066 42.7917L161.047 42.7746L161.047 42.7745L161.036 42.7648L161.028 42.7564L161.027 42.7561C160.795 42.5205 160.416 42.5174 160.18 42.7494C159.943 42.9817 159.94 43.3616 160.172 43.5979L160.594 43.1836C160.172 43.5979 160.172 43.5981 160.173 43.5983L160.174 43.5998L160.177 43.6025L160.184 43.6097L160.207 43.6321C160.226 43.6502 160.252 43.6747 160.285 43.7042C160.351 43.763 160.445 43.8422 160.563 43.93C160.797 44.1039 161.138 44.3211 161.552 44.4759C161.968 44.6312 162.476 44.7299 163.03 44.6412C163.59 44.5514 164.152 44.2762 164.677 43.7558L164.701 43.732L164.722 43.7056C164.86 43.5339 165.035 43.3949 165.235 43.2993C165.435 43.2036 165.654 43.1539 165.877 43.1539C166.099 43.1539 166.319 43.2036 166.519 43.2993C166.719 43.3949 166.894 43.5339 167.032 43.7056ZM167.875 40.2098C167.617 40.4172 167.239 40.3759 167.032 40.1175C166.894 39.9459 166.719 39.8069 166.519 39.7113C166.319 39.6156 166.099 39.5658 165.877 39.5658C165.654 39.5658 165.435 39.6156 165.235 39.7113C165.035 39.8069 164.86 39.9459 164.722 40.1175L164.701 40.1439L164.677 40.1677C164.152 40.6882 163.59 40.9633 163.03 41.0532C162.476 41.1418 161.968 41.0432 161.552 40.8879C161.138 40.7331 160.797 40.5159 160.563 40.342C160.445 40.2542 160.351 40.1749 160.285 40.1161C160.252 40.0867 160.226 40.0622 160.207 40.044L160.184 40.0217L160.177 40.0144L160.174 40.0118L160.173 40.0108C160.172 40.0106 160.172 40.0099 160.594 39.5956L160.172 40.0099C159.94 39.7736 159.943 39.3937 160.18 39.1614C160.416 38.9294 160.795 38.9324 161.027 39.168L161.028 39.1682L161.036 39.1767C161.046 39.1857 161.062 39.2006 161.084 39.22C161.127 39.259 161.194 39.3154 161.28 39.3794C161.454 39.5092 161.695 39.6602 161.972 39.7636C162.247 39.8665 162.542 39.916 162.84 39.8683C163.125 39.8226 163.456 39.6815 163.81 39.3371C164.057 39.0381 164.367 38.7963 164.717 38.6287C165.079 38.4556 165.476 38.3658 165.877 38.3658C166.278 38.3658 166.675 38.4556 167.036 38.6287C167.398 38.8017 167.717 39.0538 167.968 39.3663C168.175 39.6246 168.134 40.0023 167.875 40.2098ZM163.93 25.2793C163.434 25.2793 163.032 25.682 163.032 26.1782C163.032 26.6744 163.434 27.0771 163.93 27.0771C164.427 27.0771 164.829 26.6744 164.829 26.1782C164.829 25.682 164.427 25.2793 163.93 25.2793ZM156.087 25.6485C155.673 25.6485 155.337 25.9843 155.337 26.3985C155.337 26.8127 155.673 27.1485 156.087 27.1485H160.196C160.611 27.1485 160.946 26.8127 160.946 26.3985C160.946 25.9843 160.611 25.6485 160.196 25.6485H156.087ZM167.658 25.6485C167.244 25.6485 166.908 25.9843 166.908 26.3985C166.908 26.8127 167.244 27.1485 167.658 27.1485H171.767C172.182 27.1485 172.517 26.8127 172.517 26.3985C172.517 25.9843 172.182 25.6485 171.767 25.6485H167.658ZM205.137 40.2565H186.25C185.007 40.2565 184 39.2491 184 38.0065V13.25C184 12.0074 185.007 11 186.25 11H231.253C232.496 11 233.503 12.0074 233.503 13.25V33.91C233.213 33.7971 232.906 33.7202 232.585 33.685C234.011 34.3697 235 35.8094 235 37.4885V48.4247C235 50.7738 233.064 52.6544 230.705 52.6544H226.886C224.527 52.6544 222.59 50.774 222.59 48.4247V40.2565H209.546V51.5H216.775C217.189 51.5 217.525 51.8358 217.525 52.25C217.525 52.6642 217.189 53 216.775 53H197.91C197.496 53 197.16 52.6642 197.16 52.25C197.16 51.8358 197.496 51.5 197.91 51.5H205.137V40.2565ZM206.637 40.2565V51.5H208.046V40.2565H206.637ZM222.59 38.7565H186.25C185.836 38.7565 185.5 38.4207 185.5 38.0065V13.25C185.5 12.8358 185.836 12.5 186.25 12.5H231.253C231.667 12.5 232.003 12.8358 232.003 13.25V33.4557C231.593 33.3277 231.157 33.2588 230.705 33.2588H228.801H226.886C224.527 33.2588 222.59 35.1391 222.59 37.4885V38.7565ZM224.09 40.2565H224.754V38.7565H224.09V37.4885C224.09 35.9942 225.329 34.7588 226.886 34.7588H228.051V38.3914C228.051 38.8056 228.387 39.1414 228.801 39.1414C229.215 39.1414 229.551 38.8056 229.551 38.3914V34.7588H230.705C232.262 34.7588 233.5 35.994 233.5 37.4885V48.4247C233.5 49.9192 232.262 51.1544 230.705 51.1544H226.886C225.329 51.1544 224.09 49.9189 224.09 48.4247V40.2565Z" fill="black"/>
</svg>
