<svg width="64" height="64" viewBox="0 0 64 64" fill="none" xmlns="http://www.w3.org/2000/svg">
<path d="M21.6237 9.00002C18.7634 8.9979 15.9575 9.78162 13.5122 11.2656C11.067 12.7496 9.07644 14.8768 7.75786 17.415C6.43928 19.9533 5.84336 22.805 6.03513 25.6589C6.2269 28.5128 7.19898 31.2591 8.84529 33.5981C9.57783 34.6102 10.4031 35.5518 11.3104 36.4108C13.166 38.2072 14.5174 40.4595 15.2292 42.9422H28.0181C28.733 40.4584 30.088 38.206 31.9475 36.4108C32.8548 35.5518 33.6801 34.6102 34.4126 33.5981C36.0594 31.2583 37.0316 28.511 37.223 25.6562C37.4143 22.8014 36.8175 19.9489 35.4976 17.4103C34.1778 14.8717 32.1857 12.7447 29.7389 11.2615C27.2922 9.77828 24.4849 8.99597 21.6237 9.00002V9.00002Z" stroke="black" stroke-width="1.5" stroke-linecap="round" stroke-linejoin="round"/>
<path d="M15.611 15.0927C15.04 15.2652 12.2258 16.3052 10.8182 20.1672" stroke="black" stroke-width="1.5" stroke-linecap="round"/>
<path d="M27.4886 42.9316H15.7734C15.4973 42.9316 15.2734 43.1555 15.2734 43.4316V49.4792C15.2734 49.7554 15.4973 49.9792 15.7734 49.9792H27.4886C27.7647 49.9792 27.9886 49.7554 27.9886 49.4792V43.4316C27.9886 43.1555 27.7647 42.9316 27.4886 42.9316Z" stroke="black" stroke-width="1.5" stroke-linecap="round" stroke-linejoin="round"/>
<path d="M15.3672 46.4609H27.8927" stroke="black" stroke-width="1.5" stroke-linecap="round" stroke-linejoin="round"/>
<path d="M27.2668 49.9902C26.9369 51.2346 26.2048 52.335 25.1845 53.12C24.1642 53.9051 22.913 54.3308 21.6256 54.3308C20.3382 54.3308 19.087 53.9051 18.0667 53.12C17.0464 52.335 16.3143 51.2346 15.9844 49.9902H27.2668Z" stroke="black" stroke-width="1.5" stroke-linecap="round" stroke-linejoin="round"/>
<path d="M19.5034 42.9318L18.0391 35.0625" stroke="black" stroke-width="1.5" stroke-linecap="round" stroke-linejoin="round"/>
<path d="M23.7422 42.9318L25.217 35.0625" stroke="black" stroke-width="1.5" stroke-linecap="round" stroke-linejoin="round"/>
<path d="M54.3021 43.6094H45.4844C45.2082 43.6094 44.9844 43.8332 44.9844 44.1094V48.551C44.9844 48.8271 45.2082 49.051 45.4844 49.051H54.3021C54.5782 49.051 54.8021 48.8271 54.8021 48.551V44.1094C54.8021 43.8332 54.5782 43.6094 54.3021 43.6094Z" stroke="black" stroke-width="1.5" stroke-linecap="round" stroke-linejoin="round"/>
<path d="M42 35.793H57.7799V38.7293C57.7799 40.0237 57.2657 41.265 56.3505 42.1803C55.4352 43.0955 54.1939 43.6097 52.8995 43.6097H46.8804C45.586 43.6097 44.3447 43.0955 43.4294 42.1803C42.5142 41.265 42 40.0237 42 38.7293V35.793Z" stroke="black" stroke-width="1.5" stroke-linecap="round" stroke-linejoin="round"/>
<path d="M45.0586 46.334H54.7218" stroke="black" stroke-width="1.5" stroke-linecap="round" stroke-linejoin="round"/>
<path d="M54.2506 49.0352C53.9958 49.996 53.4305 50.8456 52.6427 51.4518C51.8549 52.0579 50.8888 52.3866 49.8948 52.3866C48.9008 52.3866 47.9347 52.0579 47.1469 51.4518C46.3591 50.8456 45.7938 49.996 45.5391 49.0352H54.2506Z" stroke="black" stroke-width="1.5" stroke-linecap="round" stroke-linejoin="round"/>
<path d="M49.9212 16.166C51.6471 16.166 53.2696 16.8841 54.49 18.1045C55.7103 19.3248 56.3959 20.9799 56.3959 22.7057V35.7933H43.4141V22.6732C43.4141 20.9474 44.0996 19.2923 45.32 18.0719C46.5403 16.8516 48.1954 16.166 49.9212 16.166Z" stroke="black" stroke-width="1.5" stroke-linecap="round" stroke-linejoin="round"/>
<path d="M47.7891 35.7932V22.5511C47.7891 22.0118 48.0033 21.4945 48.3847 21.1132C48.766 20.7318 49.2832 20.5176 49.8226 20.5176C50.0899 20.5165 50.3548 20.5684 50.602 20.6702C50.8492 20.772 51.0738 20.9218 51.2628 21.1108C51.4519 21.2999 51.6016 21.5244 51.7034 21.7716C51.8053 22.0188 51.8571 22.2837 51.856 22.5511V32.4501" stroke="black" stroke-width="1.5" stroke-linecap="round" stroke-linejoin="round"/>
</svg>
