<svg width="40" height="40" viewBox="0 0 40 40" fill="none" xmlns="http://www.w3.org/2000/svg">
<path fill-rule="evenodd" clip-rule="evenodd" d="M26.1668 23.0503C28.244 22.4569 30.4695 23.0503 32.0274 24.6082C33.2144 25.7952 33.8821 27.3531 33.8821 28.9852V29.727H32.3984V28.9852C32.4725 27.724 31.9532 26.537 31.063 25.6468C29.8019 24.3857 27.9472 23.9406 26.241 24.534C26.0184 24.6824 25.7217 24.6082 25.4991 24.3857L14.8164 13.703C14.6681 13.5546 14.5939 13.2579 14.6681 12.9611C15.2616 11.2549 14.8164 9.40024 13.5553 8.13909C12.6651 7.32305 11.6265 6.87794 10.4395 6.80375L8.73324 8.43583L11.3297 11.0323L10.2911 12.0709L7.17535 8.95513C6.87861 8.65838 6.87861 8.21327 7.17535 7.91653L9.54928 5.5426C9.69765 5.39423 9.84602 5.32005 10.0686 5.32005C11.7748 5.24586 13.3327 5.91353 14.5197 7.10049C16.0776 8.5842 16.6711 10.8839 16.0776 12.9611L26.1668 23.0503ZM23.4977 18.4505C23.6461 18.5989 23.7945 18.6731 24.017 18.6731C24.2396 18.6731 24.3879 18.5989 24.5363 18.4505L28.7649 14.2219L28.7649 14.2219C28.8075 14.1793 28.8257 14.1612 28.8475 14.1535C28.8636 14.1478 28.8817 14.1478 28.9132 14.1478L30.8421 13.2575C31.2872 13.035 31.5839 12.8124 31.8065 12.3673L33.3644 9.69664C33.5869 9.25153 33.5869 8.80641 33.216 8.43549L32.029 7.24852C31.5839 6.8776 31.1388 6.80341 30.6937 7.10015L28.023 8.65804C27.5779 8.8806 27.3554 9.17734 27.1328 9.62245L26.2426 11.5513C26.2426 11.5884 26.224 11.6069 26.2055 11.6255C26.1869 11.644 26.1684 11.6625 26.1684 11.6996L21.9398 15.854C21.6431 16.1508 21.6431 16.5959 21.9398 16.8926L23.4977 18.4505ZM27.207 12.7382C27.3554 12.5899 27.5037 12.3673 27.5779 12.1448L28.4681 10.2159C28.5423 10.0676 28.6165 9.99338 28.7649 9.91919L31.1388 8.50967L31.8807 9.25153L30.4711 11.6255C30.397 11.7738 30.3228 11.848 30.1744 11.9222L28.2456 12.8124C28.0894 12.8645 27.9698 12.953 27.8355 13.0525L27.8355 13.0525C27.7783 13.0948 27.7185 13.1391 27.6521 13.1833L23.9428 16.8926L23.4235 16.3733L27.207 12.7382ZM27.4482 28.6562L26.4096 29.6948L29.006 32.2912L27.374 33.9233C26.187 33.8491 25.1484 33.404 24.2582 32.588C22.997 31.3268 22.5519 29.4722 23.1454 27.7659C23.2196 27.4692 23.1454 27.1725 22.997 27.0241L12.3885 16.3414C12.166 16.1188 11.8692 16.0447 11.6467 16.193C9.94042 16.7865 8.08578 16.3414 6.82463 15.0802C5.93441 14.19 5.4893 13.0031 5.4893 11.7419V11.0001H4.00559V11.7419C3.93141 13.4482 4.59907 15.0061 5.78604 16.193C7.34393 17.7509 9.56949 18.3444 11.6467 17.7509L21.6617 27.7659C21.0682 29.8431 21.6617 32.1429 23.2196 33.6266C24.4066 34.8135 25.8903 35.407 27.5223 35.407H27.6707C27.8933 35.407 28.0416 35.3328 28.19 35.1845L30.5639 32.8105C30.8607 32.5138 30.8607 32.0687 30.5639 31.7719L27.4482 28.6562ZM12.8869 21.3446C13.1837 21.0478 13.6288 21.0478 13.9255 21.3446L17.709 25.0538C17.9315 25.3506 18.0057 25.7957 17.709 26.0924C17.338 26.4634 17.1897 26.9827 17.1155 27.5761C17.1155 27.8729 16.9671 28.1696 16.7445 28.3922L12.1451 32.9917C11.1065 33.9561 10.2162 34.4754 9.17764 34.4754C8.13905 34.4754 7.17464 33.9561 6.21023 32.9917L5.98768 32.7691C3.98467 30.7661 3.98467 28.9115 5.98768 26.9085L10.5872 22.309C10.8097 22.0864 11.0323 21.938 11.4032 21.938C11.9967 21.8639 12.516 21.7155 12.8869 21.3446ZM10.9581 31.9531L15.5576 27.3536C15.6318 26.6859 15.7801 26.0924 16.1511 25.6473L13.332 22.8283C12.8127 23.125 12.2192 23.2734 11.5516 23.3476L6.95209 27.9471C5.54256 29.3566 5.54256 30.321 6.95209 31.7305L7.17464 31.9531C8.58416 33.3626 9.54857 33.3626 10.9581 31.9531ZM13.0355 24.6092L7.84227 29.8024L8.8914 30.8515L14.0846 25.6583L13.0355 24.6092Z" fill="#333333"/>
</svg>
