<svg width="100" height="100" viewBox="0 0 100 100" fill="none" xmlns="http://www.w3.org/2000/svg">
<g clip-path="url(#clip0_16035_404375)">
<rect width="100" height="100" fill="white"/>
<path fill-rule="evenodd" clip-rule="evenodd" d="M32.75 29.5625H32V30.3125V71.2537V72.0037H32.75H67.25H68V71.2537V30.3125V29.5625H67.25H32.75ZM33.5 70.5037V31.0625H66.5V70.5037H33.5ZM39 54.0035H39.75H60.25H61V55.5035H60.25H39.75H39V54.0035ZM39 61.0035H39.75H53.25H54V62.5035H53.25H39.75H39V61.0035Z" fill="black"/>
<path d="M45.4103 40.272V41.5025H43.2023V48H41.6843V41.5025H39.4648V40.272H45.4103ZM50.2237 45.953H47.2567L46.4632 48H44.8762L48.0732 40.272H49.4072L52.6042 48H51.0172L50.2237 45.953ZM49.2117 43.2965L48.7517 42.0315H48.7287L48.2687 43.2965L47.7282 44.7455H49.7522L49.2117 43.2965ZM54.8939 40.272L56.6534 42.8365H56.6994L58.4359 40.272H60.1609L57.5274 43.9865L60.3794 48H58.6544L56.6879 45.125H56.6419L54.6754 48H52.9504L55.8024 43.9865L53.1689 40.272H54.8939Z" fill="black"/>
</g>
<defs>
<clipPath id="clip0_16035_404375">
<rect width="100" height="100" rx="50" fill="white"/>
</clipPath>
</defs>
</svg>
