<svg width="65" height="64" viewBox="0 0 65 64" fill="none" xmlns="http://www.w3.org/2000/svg">
<path d="M10.8571 10.5C10.8571 9.67157 11.5286 9 12.3571 9H27.3571C28.1855 9 28.8571 9.67157 28.8571 10.5V46C28.8571 50.9706 24.8276 55 19.8571 55V55C14.8865 55 10.8571 50.9706 10.8571 46V10.5Z" stroke="black" stroke-width="1.5"/>
<circle cx="16.6071" cy="14" r="1" fill="black"/>
<path fill-rule="evenodd" clip-rule="evenodd" d="M16.6071 38C17.1593 38 17.6071 37.5523 17.6071 37C17.6071 36.4477 17.1593 36 16.6071 36C16.0548 36 15.6071 36.4477 15.6071 37C15.6071 37.5523 16.0548 38 16.6071 38ZM16.6071 44C17.1593 44 17.6071 43.5523 17.6071 43C17.6071 42.4477 17.1593 42 16.6071 42C16.0548 42 15.6071 42.4477 15.6071 43C15.6071 43.5523 16.0548 44 16.6071 44ZM24.1071 37C24.1071 37.5523 23.6593 38 23.1071 38C22.5548 38 22.1071 37.5523 22.1071 37C22.1071 36.4477 22.5548 36 23.1071 36C23.6593 36 24.1071 36.4477 24.1071 37ZM23.1071 44C23.6593 44 24.1071 43.5523 24.1071 43C24.1071 42.4477 23.6593 42 23.1071 42C22.5548 42 22.1071 42.4477 22.1071 43C22.1071 43.5523 22.5548 44 23.1071 44Z" fill="black"/>
<circle cx="19.8571" cy="23" r="4" stroke="black" stroke-width="1.5"/>
<rect x="40.8571" y="8.75" width="11" height="6" rx="1" stroke="black" stroke-width="1.5"/>
<path d="M37.8571 15.75C37.8571 15.1977 38.3048 14.75 38.8571 14.75H53.8571C54.4093 14.75 54.8571 15.1977 54.8571 15.75V37.75C54.8571 38.3023 54.4093 38.75 53.8571 38.75H38.8571C38.3048 38.75 37.8571 38.3023 37.8571 37.75V15.75Z" stroke="black" stroke-width="1.5"/>
<rect x="42.8571" y="38.75" width="7" height="7" rx="1" stroke="black" stroke-width="1.5"/>
<path d="M46.3571 45.75V55.25" stroke="black" stroke-width="1.5" stroke-linecap="round"/>
</svg>
