<svg width="48" height="48" viewBox="0 0 48 48" fill="none" xmlns="http://www.w3.org/2000/svg">
<g clip-path="url(#clip0_4564_141550)">
<path d="M33.1583 27.6C33.1583 27.6 30.1783 26.12 29.6583 25.94C29.4506 25.8448 29.2266 25.7905 28.9983 25.78C28.7965 25.7843 28.5994 25.8421 28.4272 25.9475C28.255 26.0529 28.1139 26.2022 28.0183 26.38C27.7183 26.8 26.8383 27.84 26.5783 28.14C26.3183 28.44 26.5783 28.24 26.4583 28.24L25.9183 28.08C23.5733 26.8694 21.5768 25.0794 20.1183 22.88C20.1082 22.8406 20.1082 22.7994 20.1183 22.76L20.2983 22.56C20.4681 22.3819 20.6283 22.195 20.7783 22L21.0183 21.72C21.2158 21.4924 21.3777 21.2361 21.4983 20.96V20.82C21.6017 20.6225 21.6557 20.4029 21.6557 20.18C21.6557 19.9571 21.6017 19.7375 21.4983 19.54C21.4983 19.4 20.1983 16.42 20.0783 16.1C19.7583 15.36 19.3383 15 18.7783 15H18.4583C17.6195 15.0502 16.798 15.2607 16.0383 15.62C15.4068 16.1277 14.9063 16.7796 14.5792 17.5209C14.252 18.2622 14.1077 19.0713 14.1583 19.88C14.2849 21.7573 14.9828 23.5509 16.1583 25.02V25.14C18.1134 28.2415 20.9274 30.7081 24.2583 32.24C25.7927 32.9788 27.4579 33.407 29.1583 33.5V33.5H29.9583H30.0983C30.8478 33.3663 31.5581 33.0671 32.1774 32.6243C32.7967 32.1814 33.3095 31.606 33.6783 30.94C34.0607 30.107 34.1454 29.168 33.9183 28.28C33.728 27.9915 33.4662 27.7572 33.1583 27.6V27.6Z" stroke="black" stroke-width="1.5" stroke-linecap="round" stroke-linejoin="round"/>
<path d="M28.9168 43.4595C26.2106 44.1552 23.3887 44.2762 20.6329 43.8146C17.8771 43.353 15.2486 42.3191 12.9168 40.7795C12.8055 40.7013 12.6728 40.6594 12.5368 40.6595H12.3368L6.45682 42.5395C6.38921 42.5604 6.31742 42.5639 6.24811 42.5497C6.17879 42.5354 6.1142 42.5039 6.06033 42.458C6.00646 42.4121 5.96506 42.3533 5.93997 42.2872C5.91488 42.221 5.90692 42.1496 5.91682 42.0795L7.91682 36.4595C7.95686 36.3566 7.96871 36.2449 7.95113 36.1359C7.93355 36.0269 7.88718 35.9246 7.81682 35.8395C5.31452 32.3743 3.9882 28.1985 4.03232 23.9245C4.07643 19.6504 5.48865 15.5029 8.06194 12.0901C10.6352 8.67719 14.2342 6.1785 18.3312 4.96033C22.4282 3.74215 26.8077 3.86856 30.8276 5.32104C34.8475 6.77352 38.2964 9.47565 40.6685 13.0313C43.0407 16.5869 44.2113 20.8089 44.0088 25.0784C43.8063 29.3479 42.2413 33.4402 39.5433 36.7553C36.8453 40.0704 33.1562 42.434 29.0168 43.4995L28.9168 43.4595Z" stroke="black" stroke-width="1.5" stroke-miterlimit="10"/>
</g>
<defs>
<clipPath id="clip0_4564_141550">
<rect width="48" height="48" fill="white"/>
</clipPath>
</defs>
</svg>
