<svg width="18" height="19" viewBox="0 0 18 19" fill="none" xmlns="http://www.w3.org/2000/svg">
<path fill-rule="evenodd" clip-rule="evenodd" d="M2.39844 5.40039C2.39844 4.57196 3.07001 3.90039 3.89844 3.90039H14.0883C14.9167 3.90039 15.5883 4.57196 15.5883 5.40039V9.00195H14.5883V5.40039C14.5883 5.12425 14.3644 4.90039 14.0883 4.90039H11.2839V8.54574V9.04574H10.7839H7.70605H7.20605V8.54574V4.90039H3.89844C3.62229 4.90039 3.39844 5.12425 3.39844 5.40039V13.6023C3.39844 13.8784 3.6223 14.1023 3.89844 14.1023H9.48047V15.1023H3.89844C3.07001 15.1023 2.39844 14.4307 2.39844 13.6023V5.40039ZM8.20605 4.90039V8.04574H10.2839V4.90039H8.20605Z" fill="#F04D19"/>
<path d="M11.3997 10.5L15.3997 14.5" stroke="#F04D19" stroke-linecap="round"/>
<path d="M15.3997 10.5L11.3997 14.5" stroke="#F04D19" stroke-linecap="round"/>
</svg>
