<svg width="32" height="33" viewBox="0 0 32 33" fill="none" xmlns="http://www.w3.org/2000/svg">
<path d="M11.4531 12.3171H11.8238L11.9315 11.9623L15.05 1.68901C15.2791 1.18142 15.6323 1 16.0297 1C16.4268 1 16.7796 1.18107 17.0087 1.68755L20.0507 11.9591L20.1567 12.3171H20.5301H30.4462C31.391 12.3171 31.8546 13.5049 31.1921 14.1645L22.9069 20.1533L22.6079 20.3694L22.7262 20.7189L26.0777 30.6172C26.282 31.3773 25.6968 32 25.1067 32C24.9712 32 24.773 31.9491 24.6359 31.8596L16.3347 25.4696L16.0311 25.2359L15.7265 25.4683L7.34809 31.8591C7.21089 31.9489 7.01227 32 6.87643 32C6.27594 32 5.69614 31.3632 5.83369 30.6819L9.18068 20.7969L9.2977 20.4513L9.00425 20.2345L0.80127 14.1725C0.129961 13.4451 0.656592 12.3171 1.53701 12.3171H11.4531Z" stroke="#646464"/>
</svg>
