<svg width="49" height="48" viewBox="0 0 49 48" fill="none" xmlns="http://www.w3.org/2000/svg">
<path fill-rule="evenodd" clip-rule="evenodd" d="M22.9321 8.21647L19.1281 9.96118L34.0029 17.1088L39.3893 14.584C39.2406 14.4793 39.0812 14.3865 38.9119 14.3073L38.9091 14.306L25.6182 8.21017L25.6169 8.20957C24.7952 7.83649 23.8912 7.821 22.9321 8.21647ZM32.9321 19.8196L25.332 23.3821V40.8188C25.4154 40.7855 25.4978 40.7487 25.579 40.7083L31.168 37.814L31.1722 37.8118L33.2785 36.7085L38.9786 33.8085L38.9848 33.8054C40.0556 33.27 40.732 32.2105 40.732 30.9998V17.1998C40.732 16.8672 40.6814 16.5413 40.5851 16.2322L34.9321 18.8821V26.1997H32.9321V19.8196ZM8.02398 16.1529L23.332 23.2904V40.9491C23.1121 40.8929 22.8963 40.8131 22.6881 40.7098L9.59806 33.815L9.57925 33.8054C8.50846 33.27 7.83203 32.2105 7.83203 30.9998V17.1998C7.83203 16.8431 7.89991 16.4889 8.02398 16.1529ZM9.27979 14.5318L24.4305 21.5959L31.6654 18.2045L16.7654 11.0448L9.66526 14.3013C9.53153 14.369 9.40277 14.4462 9.27979 14.5318ZM22.1474 6.37673C23.582 5.77898 25.0723 5.76511 26.4458 6.38944L26.4489 6.39084L39.7549 12.4936C41.6215 13.3647 42.732 15.2275 42.732 17.1998V30.9998C42.732 32.9879 41.6099 34.7274 39.8826 35.5925L39.8792 35.5942L34.1908 38.4884L32.096 39.5856L32.0919 39.5878L26.4919 42.4878L26.4792 42.4942C24.9977 43.235 23.2663 43.235 21.7848 42.4942L21.766 42.4846L8.67486 35.5892C6.95129 34.7229 5.83203 32.9853 5.83203 30.9998V17.1998C5.83203 15.195 7.06992 13.3628 8.78482 12.5054C8.79484 12.5004 8.80495 12.4955 8.81514 12.4908L22.1151 6.39085C22.1258 6.38595 22.1366 6.38124 22.1474 6.37673Z" fill="black"/>
</svg>
