<svg width="12" height="12" viewBox="0 0 12 12" fill="none" xmlns="http://www.w3.org/2000/svg">
<path fill-rule="evenodd" clip-rule="evenodd" d="M9.95781 0.857381C9.98204 1.01481 9.92981 1.17436 9.81718 1.28699L7.91078 3.19339L8.81806 4.10066L10.7131 2.20557C10.8267 2.09206 10.9878 2.03995 11.1462 2.06549C11.3047 2.09103 11.4413 2.19111 11.5134 2.33453C12.3065 3.91194 12.0455 5.88475 10.7278 7.20247C9.59446 8.33583 7.97638 8.68728 6.54276 8.25921L2.94859 11.8534C2.75333 12.0486 2.43675 12.0486 2.24148 11.8534L2.00696 11.6189L0.392585 10.0045L0.164757 9.77665C-0.0289976 9.5829 -0.0307114 9.26929 0.160914 9.07343L3.71834 5.43738C3.28856 4.00284 3.63964 2.38296 4.77397 1.24863C6.10635 -0.0837432 8.10847 -0.335762 9.69451 0.489937C9.8358 0.563489 9.93358 0.699954 9.95781 0.857381ZM1.22157 9.41925L2.59504 10.7927L6.0558 7.33195C6.1958 7.19195 6.40522 7.14775 6.58986 7.21922C7.74023 7.66454 9.09379 7.42228 10.0207 6.49536C10.8425 5.67358 11.126 4.51635 10.8697 3.46325L9.17161 5.16132C8.97635 5.35658 8.65976 5.35658 8.4645 5.16132L6.85012 3.54694C6.65486 3.35168 6.65486 3.0351 6.85012 2.83983L8.56907 1.12089C7.50125 0.840605 6.31744 1.11938 5.48108 1.95574C4.55417 2.88265 4.3119 4.23622 4.75722 5.38659C4.82798 5.56938 4.78541 5.77665 4.64834 5.91676L1.22157 9.41925Z" fill="black"/>
</svg>
