<svg width="172" height="24" viewBox="0 0 172 24" fill="none" xmlns="http://www.w3.org/2000/svg">
<g clip-path="url(#clip0_3946_41990)">
<path d="M84.6609 5.31366C82.5806 4.53203 80.5683 4.15335 78.0341 4.68981C76.0557 5.10733 74.4657 5.90353 73.4219 7.88917C73.8807 8.26299 74.2934 8.6174 74.6963 8.96937C75.359 9.54467 76.046 10.137 76.966 10.8264C77.6942 9.78742 78.9662 8.61739 80.3304 8.59069C81.9131 8.55914 83.4302 9.43058 83.6803 10.7074C83.7822 11.2366 83.8502 13.4237 83.8502 13.4237L83.02 13.6009C82.8556 13.6623 82.6746 13.6623 82.5102 13.6009L82.3792 13.5499L82.2723 13.5087C80.5676 12.8496 78.7595 12.4978 76.932 12.4697C76.3175 12.4695 75.7039 12.5174 75.0969 12.6129C73.2326 12.9067 71.0164 13.9602 71.0552 17.3222C71.0698 18.6014 71.3368 19.5602 71.8999 20.3395C72.3954 21.0504 73.0583 21.6284 73.8301 22.0225C74.6018 22.4167 75.4587 22.6148 76.3251 22.5994C78.4425 22.6642 80.5093 21.945 82.1291 20.5798C82.1631 20.5531 82.5491 20.2157 82.6607 20.1283L83.8041 19.2423V22.5751H88.574V10.9235C88.5764 8.28484 87.1393 6.2458 84.6609 5.31366ZM83.1875 16.2638C82.168 18.0892 80.5052 19.1209 78.5924 19.1209C78.5123 19.1209 78.4297 19.1209 78.3496 19.1209C77.9472 19.1126 77.5468 19.0613 77.1553 18.968C75.7256 18.5917 74.9124 17.4411 74.9706 15.8924L74.9998 15.2151H83.7701L83.1875 16.2638Z" fill="black"/>
<path d="M134.487 5.31366C132.406 4.53203 130.394 4.15335 127.862 4.68981C125.881 5.10733 124.291 5.90353 123.25 7.88917C123.709 8.26299 124.122 8.6174 124.524 8.96937C125.19 9.54467 125.874 10.137 126.794 10.8264C127.522 9.78742 128.797 8.61739 130.159 8.59069C131.744 8.55914 133.258 9.43058 133.508 10.7074C133.61 11.2366 133.678 13.4237 133.678 13.4237L132.851 13.6009C132.686 13.6623 132.505 13.6623 132.341 13.6009C132.3 13.5863 132.253 13.5694 132.21 13.5499L132.1 13.5087C130.396 12.8496 128.588 12.4978 126.76 12.4697C126.146 12.4695 125.532 12.5174 124.925 12.6129C123.061 12.9067 120.844 13.9602 120.883 17.3222C120.898 18.6014 121.167 19.5602 121.728 20.3395C122.224 21.0504 122.886 21.6284 123.658 22.0225C124.43 22.4167 125.287 22.6148 126.153 22.5994C128.271 22.6643 130.339 21.9452 131.96 20.5798C131.991 20.5531 132.38 20.2157 132.489 20.1283L133.632 19.2423V22.5751H138.402V10.9235C138.402 8.28484 136.965 6.2458 134.487 5.31366ZM133.013 16.2638C131.996 18.0892 130.331 19.1209 128.42 19.1209C128.338 19.1209 128.255 19.1209 128.178 19.1209C127.776 19.1126 127.377 19.0613 126.986 18.968C125.554 18.5917 124.74 17.4411 124.801 15.8924L124.83 15.2151H133.598L133.013 16.2638Z" fill="black"/>
<path d="M167.075 5.31366C164.995 4.53203 162.982 4.15335 160.448 4.68981C158.47 5.10733 156.88 5.90353 155.836 7.88917C156.295 8.26299 156.707 8.6174 157.11 8.96937C157.773 9.54467 158.46 10.137 159.38 10.8264C160.108 9.78742 161.38 8.61739 162.744 8.59069C164.33 8.55914 165.844 9.43058 166.094 10.7074C166.196 11.2366 166.264 13.4237 166.264 13.4237L165.434 13.6009C165.27 13.6617 165.09 13.6617 164.927 13.6009C164.885 13.5863 164.839 13.5694 164.796 13.5499L164.686 13.5087C162.982 12.8496 161.174 12.4978 159.346 12.4697C158.732 12.4695 158.118 12.5174 157.511 12.6129C155.647 12.9067 153.43 13.9602 153.469 17.3222C153.484 18.6014 153.751 19.5602 154.314 20.3395C154.809 21.0504 155.472 21.6284 156.244 22.0225C157.016 22.4167 157.873 22.6148 158.739 22.5994C160.857 22.6643 162.925 21.9452 164.546 20.5798C164.577 20.5531 164.966 20.2157 165.075 20.1283L166.218 19.2423V22.5751H170.988V10.9235C170.99 8.28484 169.553 6.2458 167.075 5.31366ZM165.602 16.2638C164.582 18.0892 162.919 19.1209 161.006 19.1209C160.926 19.1209 160.844 19.1209 160.764 19.1209C160.361 19.1126 159.961 19.0613 159.569 18.968C158.14 18.5917 157.326 17.4411 157.385 15.8924L157.414 15.2151H166.179L165.602 16.2638Z" fill="black"/>
<path d="M151.469 5.93748C149.925 6.00788 148.825 6.6827 148.097 8.01051C148.017 8.15615 147.502 9.16596 147.502 9.16596L146.359 8.90137V8.33821V6.17294H141.747V22.6115H146.371V21.1186C146.371 19.5715 146.371 18.0269 146.371 16.4847V16.1909C146.371 15.6448 146.335 15.0792 146.371 14.5136C146.439 13.5239 146.849 12.5887 147.532 11.8691C148.215 11.1495 149.127 10.6906 150.112 10.5714C150.758 10.4792 152.382 10.4719 152.559 10.4695V5.92777C152.173 5.92292 151.818 5.92049 151.469 5.93748Z" fill="black"/>
<path d="M67.4844 18.7713C67.0782 18.7647 66.6728 18.7322 66.2707 18.6742C65.057 18.4752 64.2827 17.878 63.9525 16.8949C63.8044 16.484 63.7225 16.0522 63.7098 15.6157V8.27511L64.4259 8.24355C65.9576 8.1683 67.5815 8.05664 69.123 7.62941L68.1398 4.27713L63.7098 4.93497V0H58.4787V4.93497H54.9443V8.3188H58.4787C58.4787 8.3188 58.4787 15.2977 58.5078 17.0794C58.5108 18.1676 58.8249 19.2322 59.4132 20.1477C60.1172 21.2182 61.1391 21.8881 62.6344 22.2571C64.2438 22.6528 65.8751 22.6334 67.5985 22.6139H68.0112V18.7907H67.8121L67.4844 18.7713Z" fill="black"/>
<path d="M107.539 13.3509C107.539 11.6905 108.656 10.3797 110.173 10.2389C112.003 10.0665 113.29 10.9817 113.618 12.6833C113.667 12.9825 113.687 13.2857 113.678 13.5887C113.678 16.0574 113.678 18.5043 113.678 20.9536V22.5897H118.29V20.0433C118.29 17.1862 118.29 14.3291 118.29 11.472C118.295 10.9367 118.252 10.4021 118.159 9.87477C117.776 7.83573 116.684 6.59289 114.841 6.06856C112.846 5.51026 109.501 5.92777 107.947 8.64407L107.238 10.0617C106.831 8.0275 105.668 6.55405 103.813 6.02244C101.818 5.46413 98.8079 5.93263 97.2592 8.64892L96.565 9.86264V6.17052H91.7393V22.6115H96.5456C96.5456 22.6115 96.5456 16.0939 96.5456 13.6931C96.5453 13.3855 96.5648 13.0782 96.6038 12.7731C96.6592 12.1968 96.8922 11.652 97.2704 11.2137C97.6487 10.7754 98.1537 10.4653 98.7157 10.3263C100.031 9.98644 101.398 10.4088 102.114 11.3822C102.538 12.0111 102.745 12.7611 102.704 13.5183C102.704 15.839 102.704 22.5994 102.704 22.5994H107.539V13.3509Z" fill="black"/>
<path d="M3.20165 6.39142C2.24391 7.39034 1.49392 8.56937 0.995117 9.86022L16.2879 22.5411C17.0404 22.0793 17.7313 21.5238 18.344 20.888L18.6425 20.5773C24.4368 14.5282 20.6306 7.97411 18.3221 5.77C16.3156 3.85019 13.629 2.80534 10.8526 2.86497C8.07626 2.92459 5.43706 4.08381 3.51479 6.088L3.20165 6.39142Z" fill="black"/>
<path d="M34.7506 24C40.5984 24 45.339 19.2594 45.339 13.4116C45.339 7.56373 40.5984 2.82312 34.7506 2.82312C28.9027 2.82312 24.1621 7.56373 24.1621 13.4116C24.1621 19.2594 28.9027 24 34.7506 24Z" fill="black"/>
</g>
<defs>
<clipPath id="clip0_3946_41990">
<rect width="170.01" height="24" fill="white" transform="translate(0.995117)"/>
</clipPath>
</defs>
</svg>
