<svg width="47" height="20" viewBox="0 0 47 20" fill="none" xmlns="http://www.w3.org/2000/svg">
<g clip-path="url(#clip0_133_292391)">
<path d="M1.57617 5.91008V3.90414L10.4698 0L18.8212 3.95826V5.91008H1.57617Z" fill="#020203"/>
<path d="M5.58922 17.7305H0.600098V18.7063H5.58922V17.7305Z" fill="#020203"/>
<path d="M20.4481 17.7305H15.459V18.7063H20.4481V17.7305Z" fill="#020203"/>
<path d="M5.58922 15.9956H1.95581V16.863H5.58922V15.9956Z" fill="#020203"/>
<path d="M18.9452 15.9956H15.3118V16.863H18.9452V15.9956Z" fill="#020203"/>
<path d="M5.91445 6.83203H3.09448V7.32011H5.91445V6.83203Z" fill="#020203"/>
<path d="M5.91445 14.6396H3.09448V15.1277H5.91445V14.6396Z" fill="#020203"/>
<path d="M5.49588 7.07617H3.6792V14.8839H5.49588V7.07617Z" fill="#020203"/>
<path d="M17.4655 6.83594H14.6455V7.32402H17.4655V6.83594Z" fill="#020203"/>
<path d="M17.4655 14.6436H14.6455V15.1316H17.4655V14.6436Z" fill="#020203"/>
<path d="M17.0469 7.08008H15.2302V14.8878H17.0469V7.08008Z" fill="#020203"/>
<path d="M11.7594 6.80908H8.93945V7.29716H11.7594V6.80908Z" fill="#020203"/>
<path d="M11.3411 7.05322H9.52441V12.6707H11.3411V7.05322Z" fill="#020203"/>
<path d="M9.74878 17.1311C9.77518 17.1526 9.8091 17.1819 9.85002 17.2181C9.89118 17.2546 9.93806 17.2909 9.99114 17.3269C10.0704 17.3794 10.1486 17.4206 10.2263 17.4501C10.304 17.4796 10.3853 17.4944 10.471 17.4944C10.5503 17.4944 10.6166 17.4856 10.6702 17.4675C10.7238 17.4496 10.766 17.426 10.7971 17.3965C10.8281 17.3672 10.8504 17.3328 10.8634 17.2942C10.8766 17.2552 10.8833 17.2142 10.8833 17.1707C10.8833 17.1226 10.8649 17.0796 10.8287 17.0415C10.7922 17.0035 10.7476 16.9698 10.6945 16.9403C10.6417 16.9108 10.5865 16.8856 10.5291 16.8647C10.4715 16.8434 10.4221 16.8261 10.3801 16.8121C10.1939 16.7471 10.0308 16.6767 9.89094 16.6016C9.75134 16.526 9.63482 16.4426 9.54158 16.3499C9.44834 16.2578 9.37842 16.156 9.33182 16.0449C9.28518 15.9338 9.2619 15.8098 9.2619 15.6733C9.2619 15.5534 9.2821 15.4437 9.3225 15.3427C9.3629 15.2417 9.42038 15.1516 9.49498 15.0726C9.56954 14.9931 9.6607 14.9261 9.7687 14.8709C9.8767 14.8158 9.99814 14.7751 10.1333 14.7487V14.425C10.1333 14.3971 10.1419 14.3732 10.159 14.353C10.1761 14.3328 10.2017 14.3228 10.2359 14.3228H10.6738C10.6971 14.3228 10.7215 14.3318 10.7471 14.3507C10.7727 14.3691 10.7857 14.3942 10.7857 14.4253V14.7373C10.8727 14.7531 10.9577 14.7754 11.0408 14.8038C11.1239 14.8328 11.2065 14.8696 11.2889 14.9147C11.3417 14.9458 11.3917 14.9781 11.4391 15.0115C11.4865 15.0446 11.5282 15.077 11.5637 15.1078C11.5994 15.1389 11.6276 15.1684 11.6486 15.1964C11.6696 15.2246 11.6802 15.2487 11.6802 15.2689C11.6802 15.2891 11.6753 15.3075 11.6651 15.3246C11.6551 15.3416 11.64 15.3611 11.6198 15.3831L11.2635 15.7627C11.2371 15.7891 11.2107 15.8023 11.1843 15.8023C11.1625 15.8023 11.1425 15.7961 11.1249 15.7834C11.1071 15.7712 11.0874 15.7554 11.0656 15.7368L11.0447 15.7184C11.0136 15.692 10.9791 15.6648 10.9411 15.6368C10.903 15.6086 10.8621 15.5835 10.8188 15.561C10.7753 15.5387 10.7295 15.5198 10.6813 15.5053C10.6331 15.4903 10.5845 15.483 10.5345 15.483C10.4832 15.483 10.435 15.4874 10.3902 15.496C10.3452 15.5048 10.3055 15.5182 10.2714 15.5366C10.2372 15.5555 10.21 15.5799 10.1898 15.6102C10.1696 15.6404 10.1595 15.6775 10.1595 15.721C10.1595 15.7642 10.1704 15.802 10.1921 15.8339C10.2139 15.8657 10.2465 15.8952 10.29 15.9224C10.3335 15.9496 10.3874 15.9752 10.4519 15.9993C10.5163 16.0234 10.5915 16.0496 10.6767 16.0773C10.8414 16.1316 10.9931 16.1886 11.1322 16.2487C11.271 16.3085 11.3912 16.3789 11.4922 16.4608C11.5932 16.5423 11.6719 16.6397 11.7286 16.7528C11.7853 16.8662 11.8138 17.0035 11.8138 17.165C11.8138 17.3113 11.7882 17.4449 11.7369 17.5669C11.6856 17.6888 11.6141 17.7971 11.5225 17.8916C11.4308 17.9866 11.3225 18.0653 11.1977 18.128C11.0726 18.1909 10.9356 18.2354 10.7865 18.2621V18.5954C10.7865 18.6637 10.7492 18.6976 10.6746 18.6976H10.2367C10.1683 18.6976 10.1341 18.6635 10.1341 18.5954V18.2536C10.0113 18.2272 9.89274 18.1868 9.77778 18.1324C9.66278 18.078 9.55402 18.0136 9.4517 17.9392C9.38958 17.8944 9.33726 17.8502 9.29454 17.8067C9.25178 17.7632 9.21786 17.728 9.19326 17.7018L9.18602 17.6948C9.18446 17.6917 9.1829 17.6896 9.18162 17.6888C9.18006 17.6881 9.1785 17.6868 9.17694 17.6855C9.17538 17.6824 9.17386 17.6803 9.1723 17.6795C9.17074 17.6788 9.16918 17.6774 9.16762 17.6762C9.1319 17.6376 9.11426 17.6062 9.11426 17.583C9.11426 17.5568 9.13214 17.5273 9.16762 17.4944L9.57058 17.1102C9.60322 17.0868 9.62962 17.0754 9.64982 17.0754C9.66382 17.0754 9.67858 17.0798 9.6941 17.0894C9.70838 17.0985 9.72702 17.1125 9.74878 17.1311Z" fill="#020203"/>
<path d="M13.2711 16.0306C12.8199 13.6992 10.6741 13.7401 10.584 13.7398L10.5739 13.7401L10.5635 13.7393C8.32158 13.5609 7.58842 15.7585 7.58142 15.7807L7.22974 15.6676C7.23778 15.6427 8.06158 13.1735 10.5842 13.3706C10.7826 13.3752 13.14 13.4118 13.6336 15.9601L13.2711 16.0306Z" fill="#020203"/>
<path d="M12.9915 16.2123L13.9947 15.9956L13.5881 16.863L12.9915 16.2123Z" fill="#020203"/>
<path d="M13.6381 17.191L12.6379 16.0999L14.3202 15.7363L13.6381 17.191ZM13.3452 16.3249L13.5379 16.5351L13.6694 16.2547L13.3452 16.3249Z" fill="#020203"/>
<path d="M10.6715 20C10.5814 20 10.4889 19.9966 10.3939 19.9891C10.1947 19.9901 7.83808 19.9487 7.34448 17.3995L7.70704 17.3291C8.15844 19.6605 10.304 19.6207 10.3941 19.6199L10.4042 19.6196L10.4146 19.6204C12.656 19.7983 13.3897 17.6013 13.3967 17.579L13.7484 17.6921C13.7406 17.7165 12.9776 20 10.6715 20Z" fill="#020203"/>
<path d="M7.98689 17.1478L6.98389 17.3645L7.39049 16.4971L7.98689 17.1478Z" fill="#020203"/>
<path d="M6.6582 17.6236L7.34032 16.1689L8.34048 17.2601L6.6582 17.6236ZM7.44056 16.8248L7.309 17.1052L7.63324 17.0351L7.44056 16.8248Z" fill="#020203"/>
<path d="M21.0522 8.02796C21.0522 8.00648 21.0595 7.98964 21.0738 7.97668C21.0882 7.964 21.1061 7.95752 21.1276 7.95752H22.855C22.8741 7.95752 22.8915 7.96348 22.9065 7.97512C22.9215 7.9868 22.9301 8.0044 22.9322 8.02796V8.42644C22.9322 8.4456 22.9257 8.464 22.9122 8.4816C22.899 8.4992 22.8798 8.508 22.8552 8.508H22.3013V10.2656C22.3013 10.2848 22.2943 10.3021 22.2806 10.3179C22.2666 10.3335 22.2487 10.3412 22.2262 10.3412H21.7554C21.7372 10.3412 21.7202 10.334 21.7041 10.3195C21.688 10.305 21.68 10.2871 21.68 10.2659V8.50828H21.1279C21.1064 8.50828 21.0885 8.50128 21.074 8.48756C21.0595 8.47356 21.0525 8.4534 21.0525 8.42672L21.0522 8.02796Z" fill="#020203"/>
<path d="M23.2549 8.42147C23.2549 8.40127 23.2588 8.38339 23.2663 8.36839C23.2735 8.35335 23.2836 8.34119 23.2961 8.33159C23.3085 8.32203 23.3222 8.31479 23.3378 8.30987C23.353 8.30495 23.3683 8.30259 23.3833 8.30259H23.6257C23.6524 8.30259 23.6739 8.31063 23.69 8.32667C23.706 8.34275 23.7198 8.36319 23.7309 8.38755C23.742 8.41215 23.7521 8.43959 23.7607 8.46935C23.7692 8.49939 23.7793 8.52815 23.7912 8.55611C23.8231 8.52087 23.8552 8.48595 23.8868 8.45175C23.9181 8.41759 23.9523 8.38703 23.9886 8.36035C24.0251 8.33367 24.065 8.31191 24.1082 8.29535C24.1514 8.27879 24.2009 8.27051 24.2566 8.27051C24.3144 8.27051 24.3659 8.27491 24.4114 8.28343C24.457 8.29199 24.5 8.30443 24.5407 8.32099C24.5816 8.33755 24.6218 8.35879 24.6622 8.38443C24.7023 8.41007 24.746 8.44011 24.7929 8.47427C24.839 8.50095 24.8621 8.53255 24.8621 8.56903C24.8621 8.59259 24.8528 8.61979 24.8346 8.65087L24.6886 8.89971C24.6596 8.94139 24.6238 8.96235 24.5811 8.96235C24.5596 8.96235 24.5355 8.95667 24.5088 8.94475C24.4627 8.89995 24.4161 8.86631 24.3682 8.84455C24.3206 8.82279 24.2664 8.81167 24.2053 8.81167C24.1636 8.81167 24.1268 8.81763 24.0952 8.82927C24.0636 8.84091 24.0352 8.85775 24.0093 8.87899C23.9836 8.90047 23.9596 8.92611 23.937 8.95615C23.9145 8.98591 23.8922 9.01931 23.8697 9.05559V10.2177C23.8697 10.2583 23.8598 10.2891 23.8399 10.3098C23.82 10.3308 23.7871 10.3411 23.741 10.3411H23.3802C23.2966 10.3411 23.2549 10.3 23.2549 10.2177V8.42147Z" fill="#020203"/>
<path d="M27.1529 10.2228C27.1529 10.2409 27.1498 10.2585 27.1433 10.2751C27.1369 10.2917 27.1263 10.3049 27.1115 10.3144C27.0996 10.3261 27.0856 10.3336 27.0698 10.337C27.0537 10.3401 27.0397 10.3419 27.0281 10.3419H26.7119C26.6893 10.3419 26.6712 10.339 26.6575 10.3331C26.6435 10.3271 26.6324 10.3188 26.6239 10.3082C26.6153 10.2974 26.6078 10.2844 26.6021 10.2689C26.5961 10.2536 26.5899 10.2365 26.5837 10.2184L26.563 10.1462C26.534 10.1752 26.5011 10.2034 26.4641 10.2313C26.427 10.259 26.3864 10.2839 26.3421 10.3059C26.2975 10.3279 26.2501 10.3455 26.1991 10.359C26.1484 10.3724 26.0955 10.3789 26.0409 10.3789C25.9435 10.3789 25.85 10.3668 25.7607 10.3422C25.6713 10.3176 25.5877 10.2824 25.5103 10.237C25.4326 10.1914 25.3621 10.1368 25.2989 10.0731C25.2357 10.0097 25.1814 9.93876 25.1361 9.86056C25.0905 9.78236 25.0555 9.6982 25.0309 9.60784C25.0063 9.51748 24.9941 9.42296 24.9941 9.32456C24.9941 9.17568 25.0213 9.0374 25.076 8.90948C25.1303 8.7816 25.2049 8.67024 25.2989 8.57572C25.3932 8.48096 25.5041 8.40664 25.6315 8.35252C25.7589 8.29844 25.8953 8.27148 26.0409 8.27148C26.1072 8.27148 26.1691 8.279 26.2261 8.294C26.2835 8.30904 26.3359 8.32924 26.3835 8.35488C26.4312 8.38052 26.4741 8.41132 26.5127 8.44732C26.5513 8.48304 26.585 8.52188 26.614 8.56384L26.6603 8.4178C26.6712 8.39112 26.68 8.36936 26.687 8.3528C26.694 8.33624 26.7015 8.3238 26.7096 8.31604C26.7173 8.308 26.7274 8.30256 26.7393 8.29996C26.751 8.2974 26.7676 8.29584 26.7891 8.29584H27.0283C27.04 8.29584 27.0543 8.2974 27.0701 8.30076C27.0861 8.30412 27.0998 8.31164 27.1117 8.32328C27.1265 8.33492 27.1374 8.3484 27.1436 8.3634C27.1501 8.37844 27.1532 8.39552 27.1532 8.41468L27.1529 10.2228ZM25.5716 9.32404C25.5716 9.39472 25.5825 9.46076 25.6045 9.52212C25.6265 9.58376 25.6579 9.63684 25.6985 9.68188C25.7392 9.72668 25.7881 9.7624 25.8454 9.78856C25.9026 9.81472 25.9661 9.82792 26.0357 9.82792C26.1075 9.82792 26.174 9.81472 26.2354 9.78856C26.297 9.7624 26.3506 9.72668 26.3959 9.68188C26.4415 9.63684 26.477 9.58376 26.5027 9.52212C26.5285 9.46076 26.5412 9.39472 26.5412 9.32404C26.5412 9.25544 26.5285 9.19016 26.5027 9.12828C26.477 9.0664 26.4415 9.01152 26.3959 8.9644C26.3504 8.91752 26.297 8.88024 26.2354 8.8528C26.174 8.82536 26.1072 8.81188 26.0357 8.81188C25.9661 8.81188 25.9026 8.82536 25.8454 8.8528C25.7879 8.87996 25.7389 8.91728 25.6985 8.9644C25.6579 9.01152 25.6265 9.06616 25.6045 9.12828C25.5825 9.19044 25.5716 9.25544 25.5716 9.32404Z" fill="#020203"/>
<path d="M27.58 8.33149C27.5939 8.31985 27.6087 8.31233 27.624 8.30897C27.6395 8.30561 27.6543 8.30405 27.6683 8.30405H27.9107C27.9298 8.30405 27.9464 8.30741 27.9607 8.31441C27.9747 8.32141 27.9863 8.33073 27.9959 8.34237C28.0055 8.35405 28.0132 8.36749 28.0192 8.38253C28.0249 8.39753 28.0308 8.41305 28.036 8.42885L28.0699 8.56973C28.086 8.53657 28.1119 8.50241 28.1476 8.46717C28.1834 8.43197 28.2279 8.39985 28.281 8.37113C28.3341 8.34237 28.3952 8.31857 28.4646 8.29993C28.534 8.28129 28.6117 8.27197 28.6974 8.27197C28.8194 8.27197 28.9284 8.29553 29.024 8.34237C29.1198 8.38925 29.2011 8.45345 29.2679 8.53449C29.335 8.61557 29.3858 8.71033 29.4205 8.81881C29.4555 8.92729 29.4728 9.04305 29.4728 9.16605V10.2176C29.4728 10.2582 29.464 10.289 29.4464 10.3097C29.4288 10.3307 29.4005 10.3411 29.3619 10.3411H28.9911C28.945 10.3411 28.9134 10.3333 28.8966 10.3178C28.8795 10.3022 28.8707 10.2719 28.8707 10.2271V9.18209C28.8707 9.13601 28.8603 9.09249 28.8396 9.05133C28.8186 9.01017 28.7912 8.97365 28.7567 8.94205C28.7225 8.91049 28.6837 8.88561 28.6405 8.86725C28.5972 8.84909 28.5529 8.84005 28.5079 8.84005C28.4693 8.84005 28.4302 8.84857 28.39 8.86569C28.3499 8.88277 28.3129 8.90657 28.2792 8.93713C28.2455 8.96769 28.2173 9.00369 28.1943 9.04461C28.1712 9.08577 28.158 9.13057 28.1549 9.17873V10.222C28.1549 10.2401 28.1515 10.2585 28.1445 10.2763C28.1375 10.2947 28.1272 10.3085 28.1135 10.318C28.0995 10.3266 28.0863 10.3325 28.0741 10.3356C28.0617 10.3387 28.0477 10.3405 28.0316 10.3405H27.6691C27.6229 10.3405 27.5898 10.3291 27.5696 10.3069C27.5491 10.2844 27.5391 10.2543 27.5391 10.2171V8.42189C27.5391 8.40169 27.5437 8.38277 27.5528 8.36593C27.5618 8.34885 27.5745 8.33537 27.5906 8.32581L27.58 8.33149Z" fill="#020203"/>
<path d="M30.1631 9.70735C30.1921 9.73635 30.2234 9.76067 30.2571 9.78035C30.2908 9.80031 30.3231 9.81635 30.3542 9.82851C30.3853 9.84095 30.4125 9.84975 30.436 9.85519C30.4596 9.86063 30.4756 9.86323 30.4842 9.86323C30.5047 9.86323 30.5306 9.86219 30.5622 9.86063C30.5935 9.85907 30.624 9.85415 30.6528 9.84611C30.6818 9.83811 30.7064 9.82491 30.7274 9.80675C30.7484 9.78839 30.7587 9.76275 30.7587 9.72987C30.7587 9.69983 30.7528 9.67599 30.7411 9.65839C30.7294 9.64079 30.7121 9.62579 30.6896 9.61335C30.6673 9.60119 30.6396 9.59031 30.607 9.58071C30.5743 9.57087 30.5376 9.55975 30.4969 9.54679C30.3684 9.51263 30.2625 9.47147 30.1791 9.42331C30.0955 9.37515 30.0294 9.32127 29.9808 9.26199C29.9321 9.20243 29.8982 9.13847 29.879 9.07011C29.8598 9.00151 29.85 8.92927 29.85 8.85339C29.85 8.76459 29.8676 8.68379 29.9031 8.61103C29.9383 8.53827 29.9885 8.47587 30.0538 8.42407C30.119 8.37231 30.1973 8.33215 30.2882 8.30367C30.3793 8.27547 30.4803 8.26123 30.5917 8.26123C30.659 8.26123 30.7222 8.26691 30.781 8.27803C30.84 8.28943 30.8962 8.30703 30.9496 8.33111C31.0032 8.35519 31.0552 8.38627 31.1062 8.42435C31.157 8.46239 31.2075 8.50771 31.2578 8.56003C31.2762 8.58151 31.2852 8.60143 31.286 8.62011C31.2865 8.63899 31.2743 8.65895 31.25 8.68043C31.2083 8.71459 31.1684 8.74851 31.1304 8.78139C31.0923 8.81455 31.0529 8.85159 31.0122 8.89223C30.9993 8.90283 30.9864 8.90959 30.9737 8.91243C30.9607 8.91527 30.9486 8.91475 30.9366 8.91163C30.925 8.90855 30.9136 8.90311 30.903 8.89559C30.8921 8.88807 30.8825 8.87903 30.874 8.86815C30.8364 8.82647 30.7937 8.79823 30.7455 8.78399C30.6973 8.76975 30.6525 8.76223 30.6106 8.76223C30.5583 8.76223 30.5163 8.77131 30.4855 8.78943C30.4544 8.80755 30.4399 8.83551 30.4422 8.87279C30.4443 8.90051 30.4547 8.92227 30.4733 8.93779C30.492 8.95335 30.515 8.96603 30.5425 8.97559C30.5697 8.98519 30.5984 8.99295 30.6292 8.99891C30.6598 9.00459 30.6878 9.01135 30.7134 9.01883C30.81 9.04991 30.898 9.08359 30.9783 9.11983C31.0586 9.15607 31.1283 9.20087 31.1868 9.25395C31.2458 9.30703 31.2917 9.37023 31.324 9.44427C31.3567 9.51807 31.373 9.60791 31.373 9.71383C31.373 9.81999 31.352 9.91447 31.3096 9.99811C31.2673 10.0815 31.2093 10.1517 31.1355 10.2084C31.0614 10.2651 30.9742 10.3086 30.8729 10.3383C30.7719 10.3684 30.6629 10.3834 30.5461 10.3834C30.4798 10.3834 30.4125 10.3774 30.3438 10.3658C30.2752 10.3542 30.2089 10.335 30.1447 10.3088C30.0805 10.2827 30.0196 10.249 29.9616 10.2079C29.9036 10.1667 29.8523 10.1164 29.8075 10.0577C29.7958 10.0429 29.7868 10.0271 29.7808 10.0103C29.7751 9.99371 29.7723 9.97739 29.7731 9.96135C29.7733 9.94531 29.7767 9.93055 29.7826 9.91735C29.7884 9.90387 29.7979 9.89247 29.8109 9.88291L30.0178 9.67575C30.0434 9.65427 30.0662 9.64675 30.0859 9.65347C30.1066 9.65919 30.132 9.67755 30.1631 9.70735Z" fill="#020203"/>
<path d="M31.9114 8.33163C31.9114 8.23219 31.9329 8.13847 31.9757 8.05067C32.0187 7.96291 32.0758 7.88627 32.1473 7.82047C32.2191 7.75471 32.3017 7.70267 32.3947 7.66487C32.4879 7.62679 32.5852 7.60791 32.6868 7.60791H32.7189C32.7554 7.60791 32.7834 7.61879 32.8033 7.64079C32.823 7.66255 32.8331 7.69283 32.8331 7.73143V8.03799C32.8331 8.07759 32.8227 8.11047 32.8018 8.13663C32.7811 8.16303 32.7533 8.17599 32.7192 8.17599H32.687C32.6648 8.17599 32.643 8.17987 32.6228 8.18791C32.6024 8.19595 32.5842 8.20679 32.5682 8.22079C32.5521 8.23479 32.5392 8.25107 32.5296 8.26971C32.52 8.28839 32.5151 8.30907 32.5151 8.33163V8.51623H32.7671C32.8036 8.51623 32.8315 8.52607 32.8515 8.54599C32.8712 8.56595 32.8813 8.59703 32.8813 8.63999V8.93363C32.8813 8.97971 32.8712 9.01339 32.8515 9.03459C32.8315 9.05611 32.8036 9.06671 32.7671 9.06671H32.5151V10.2177C32.5151 10.2583 32.5014 10.2891 32.4742 10.3098C32.4467 10.3308 32.4172 10.3412 32.3851 10.3412H32.0383C31.9997 10.3412 31.9689 10.329 31.9458 10.3049C31.9228 10.2808 31.9114 10.2518 31.9114 10.2174V9.06699H31.7459C31.7086 9.06699 31.6783 9.05635 31.6553 9.03487C31.6322 9.01339 31.6208 8.97971 31.6208 8.93387V8.64027C31.6208 8.59755 31.6325 8.56619 31.6553 8.54627C31.6783 8.52659 31.7086 8.51647 31.7459 8.51647H31.9114V8.33163Z" fill="#020203"/>
<path d="M34.8173 10.0973C34.7231 10.184 34.6172 10.2516 34.4993 10.3003C34.3818 10.3489 34.2569 10.3735 34.1254 10.3735C33.9788 10.3735 33.8402 10.3466 33.7094 10.2933C33.5789 10.2397 33.4642 10.1656 33.3658 10.0709C33.2674 9.97607 33.1892 9.86475 33.1314 9.73607C33.0737 9.60763 33.0447 9.46807 33.0447 9.31711C33.0447 9.22287 33.0563 9.13199 33.0791 9.04343C33.1022 8.95511 33.1348 8.87251 33.1773 8.79535C33.2195 8.71847 33.2708 8.64751 33.3314 8.58279C33.392 8.51807 33.4596 8.46263 33.5344 8.41655C33.6092 8.37071 33.6908 8.33475 33.7783 8.30911C33.8661 8.28347 33.9588 8.27051 34.0562 8.27051C34.145 8.27051 34.231 8.28243 34.3147 8.30575C34.3981 8.32931 34.4765 8.36243 34.5498 8.40515C34.6231 8.44787 34.6902 8.49943 34.7513 8.55923C34.8124 8.61931 34.8647 8.68479 34.9088 8.75575C34.9528 8.82695 34.9864 8.90307 35.0105 8.98387C35.0346 9.06467 35.0468 9.14779 35.0468 9.23347C35.0468 9.28915 35.046 9.33447 35.0442 9.36995C35.0426 9.40539 35.0344 9.43339 35.0193 9.45435C35.0043 9.47531 34.9794 9.48983 34.9445 9.49759C34.9098 9.50563 34.8588 9.50975 34.7912 9.50975H33.6354C33.646 9.57811 33.6678 9.63559 33.7004 9.68143C33.733 9.72751 33.7706 9.76403 33.8136 9.79147C33.8563 9.81867 33.9019 9.83835 33.95 9.84999C33.9982 9.86163 34.0438 9.86759 34.0865 9.86759C34.1251 9.86759 34.1647 9.86347 34.2054 9.85543C34.246 9.84739 34.2854 9.83679 34.3232 9.82331C34.3613 9.81011 34.396 9.79431 34.4276 9.77699C34.4592 9.75935 34.4846 9.74071 34.5037 9.72155C34.5208 9.70759 34.5356 9.69723 34.548 9.69047C34.5602 9.68323 34.5731 9.67987 34.5874 9.67987C34.6014 9.67987 34.6156 9.68479 34.6298 9.69439C34.6444 9.70395 34.6604 9.71795 34.6788 9.73607L34.8489 9.92871C34.8608 9.94267 34.8684 9.95539 34.8715 9.96651C34.8748 9.97791 34.8764 9.98931 34.8764 10.0012C34.8764 10.0227 34.8707 10.0411 34.8588 10.0563C34.8471 10.0719 34.8334 10.0856 34.8173 10.0973ZM34.0451 8.75991C34.0034 8.75991 33.963 8.76819 33.9239 8.78475C33.8848 8.80131 33.8483 8.82359 33.8138 8.85131C33.7796 8.87927 33.7488 8.91059 33.7214 8.94607C33.6942 8.98127 33.6719 9.01703 33.6548 9.05351H34.475C34.4527 9.01183 34.4281 8.97351 34.402 8.93803C34.3758 8.90283 34.3458 8.87175 34.3121 8.84483C34.2784 8.81815 34.2398 8.79719 34.1966 8.78215C34.1536 8.76739 34.1028 8.75991 34.0451 8.75991Z" fill="#020203"/>
<path d="M35.3821 8.42147C35.3821 8.40127 35.386 8.38339 35.3935 8.36839C35.4007 8.35335 35.4108 8.34119 35.4233 8.33159C35.4357 8.32203 35.4494 8.31479 35.465 8.30987C35.4802 8.30495 35.4955 8.30259 35.5106 8.30259H35.753C35.7796 8.30259 35.8011 8.31063 35.8172 8.32667C35.8332 8.34275 35.847 8.36319 35.8581 8.38755C35.8692 8.41215 35.8793 8.43959 35.8879 8.46935C35.8964 8.49939 35.9065 8.52815 35.9184 8.55611C35.9503 8.52087 35.9824 8.48595 36.014 8.45175C36.0453 8.41759 36.0795 8.38703 36.1158 8.36035C36.1523 8.33367 36.1922 8.31191 36.2354 8.29535C36.2786 8.27879 36.3281 8.27051 36.3838 8.27051C36.4416 8.27051 36.4931 8.27491 36.5387 8.28343C36.5842 8.29199 36.6272 8.30443 36.6679 8.32099C36.7088 8.33755 36.749 8.35879 36.7894 8.38443C36.8295 8.41007 36.8733 8.44011 36.9201 8.47427C36.9662 8.50095 36.9893 8.53255 36.9893 8.56903C36.9893 8.59259 36.98 8.61979 36.9618 8.65087L36.8158 8.89971C36.7868 8.94139 36.751 8.96235 36.7083 8.96235C36.6868 8.96235 36.6627 8.95667 36.636 8.94475C36.59 8.89995 36.5433 8.86631 36.4954 8.84455C36.4478 8.82279 36.3936 8.81167 36.3325 8.81167C36.2908 8.81167 36.254 8.81763 36.2225 8.82927C36.1909 8.84091 36.1624 8.85775 36.1365 8.87899C36.1108 8.90047 36.0868 8.92611 36.0642 8.95615C36.0417 8.98591 36.0194 9.01931 35.9969 9.05559V10.2177C35.9969 10.2583 35.987 10.2891 35.9671 10.3098C35.9472 10.3308 35.9143 10.3411 35.8682 10.3411H35.5072C35.4235 10.3411 35.3818 10.3 35.3818 10.2177L35.3821 8.42147Z" fill="#020203"/>
<path d="M38.8906 10.0973C38.7963 10.184 38.6904 10.2516 38.5726 10.3003C38.455 10.3489 38.3302 10.3735 38.1986 10.3735C38.052 10.3735 37.9135 10.3466 37.7827 10.2933C37.6522 10.2397 37.5375 10.1656 37.439 10.0709C37.3406 9.97607 37.2624 9.86475 37.2047 9.73607C37.1469 9.60763 37.1179 9.46807 37.1179 9.31711C37.1179 9.22287 37.1296 9.13199 37.1524 9.04343C37.1754 8.95511 37.208 8.87251 37.2505 8.79535C37.2927 8.71847 37.344 8.64751 37.4046 8.58279C37.4652 8.51807 37.5328 8.46263 37.6076 8.41655C37.6825 8.37071 37.7641 8.33475 37.8516 8.30911C37.9394 8.28347 38.0321 8.27051 38.1295 8.27051C38.2183 8.27051 38.3043 8.28243 38.3879 8.30575C38.4713 8.32931 38.5498 8.36243 38.6231 8.40515C38.6964 8.44787 38.7634 8.49943 38.8246 8.55923C38.8857 8.61931 38.938 8.68479 38.982 8.75575C39.026 8.82695 39.0597 8.90307 39.0838 8.98387C39.1079 9.06467 39.12 9.14779 39.12 9.23347C39.12 9.28915 39.1193 9.33447 39.1174 9.36995C39.1159 9.40539 39.1076 9.43339 39.0926 9.45435C39.0776 9.47531 39.0527 9.48983 39.0178 9.49759C38.983 9.50563 38.932 9.50975 38.8644 9.50975H37.7086C37.7192 9.57811 37.741 9.63559 37.7736 9.68143C37.8063 9.72751 37.8438 9.76403 37.8868 9.79147C37.9296 9.81867 37.9751 9.83835 38.0233 9.84999C38.0715 9.86163 38.117 9.86759 38.1598 9.86759C38.1984 9.86759 38.238 9.86347 38.2786 9.85543C38.3193 9.84739 38.3587 9.83679 38.3965 9.82331C38.4346 9.81011 38.4692 9.79431 38.5008 9.77699C38.5324 9.75935 38.5578 9.74071 38.5772 9.72155C38.5943 9.70759 38.6091 9.69723 38.6215 9.69047C38.6337 9.68323 38.6466 9.67987 38.6609 9.67987C38.6749 9.67987 38.6891 9.68479 38.7034 9.69439C38.7176 9.70395 38.7339 9.71795 38.7523 9.73607L38.9224 9.92871C38.9344 9.94267 38.9419 9.95539 38.945 9.96651C38.9484 9.97791 38.9499 9.98931 38.9499 10.0012C38.9499 10.0227 38.9442 10.0411 38.9323 10.0563C38.9204 10.0719 38.9064 10.0856 38.8906 10.0973ZM38.1181 8.75991C38.0764 8.75991 38.036 8.76819 37.9969 8.78475C37.9578 8.80131 37.9212 8.82359 37.8868 8.85131C37.8526 8.87927 37.8218 8.91059 37.7944 8.94607C37.7672 8.98127 37.7449 9.01703 37.7278 9.05351H38.548C38.5257 9.01183 38.5011 8.97351 38.475 8.93803C38.4488 8.90283 38.4188 8.87175 38.3851 8.84483C38.3514 8.81815 38.3128 8.79719 38.2696 8.78215C38.2266 8.76739 38.1758 8.75991 38.1181 8.75991Z" fill="#020203"/>
<path d="M39.497 8.33149C39.511 8.31985 39.5257 8.31233 39.541 8.30897C39.5565 8.30561 39.5713 8.30405 39.5853 8.30405H39.8277C39.8469 8.30405 39.8634 8.30741 39.8777 8.31441C39.8917 8.32141 39.9033 8.33073 39.9129 8.34237C39.9225 8.35405 39.9303 8.36749 39.9362 8.38253C39.9419 8.39753 39.9479 8.41305 39.953 8.42885L39.9869 8.56973C40.003 8.53657 40.0289 8.50241 40.0647 8.46717C40.1004 8.43197 40.1449 8.39985 40.198 8.37113C40.2511 8.34237 40.3122 8.31857 40.3816 8.29993C40.451 8.28129 40.5287 8.27197 40.6145 8.27197C40.7365 8.27197 40.8453 8.29553 40.9409 8.34237C41.0369 8.38925 41.1181 8.45345 41.1849 8.53449C41.2521 8.61557 41.3029 8.71033 41.3377 8.81881C41.3725 8.92729 41.3897 9.04305 41.3897 9.16605V10.2176C41.3897 10.2582 41.3809 10.289 41.3633 10.3097C41.3457 10.3307 41.3177 10.3411 41.2789 10.3411H40.9081C40.8621 10.3411 40.8305 10.3333 40.8137 10.3178C40.7965 10.3022 40.7877 10.2719 40.7877 10.2271V9.18209C40.7877 9.13601 40.7773 9.09249 40.7565 9.05133C40.7357 9.01017 40.7081 8.97365 40.6737 8.94205C40.6397 8.91049 40.6009 8.88561 40.5575 8.86725C40.5142 8.84885 40.4699 8.84005 40.4249 8.84005C40.3863 8.84005 40.3472 8.84857 40.3071 8.86569C40.2669 8.88277 40.2299 8.90657 40.1962 8.93713C40.1625 8.96769 40.1343 9.00369 40.1113 9.04461C40.0882 9.08577 40.075 9.13057 40.0719 9.17873V10.222C40.0719 10.2401 40.0685 10.2585 40.0615 10.2763C40.0545 10.2947 40.0442 10.3085 40.0305 10.318C40.0165 10.3266 40.0033 10.3325 39.9911 10.3356C39.9787 10.3387 39.9647 10.3405 39.9486 10.3405H39.5861C39.54 10.3405 39.5068 10.3291 39.4866 10.3069C39.4662 10.2844 39.4561 10.2543 39.4561 10.2171V8.42189C39.4561 8.40169 39.4607 8.38277 39.4698 8.36593C39.4789 8.34885 39.4915 8.33537 39.5076 8.32581L39.497 8.33149Z" fill="#020203"/>
<path d="M43.0804 9.71355C43.0952 9.70291 43.1096 9.69619 43.1228 9.69359C43.1364 9.69099 43.1464 9.68947 43.154 9.68947C43.1724 9.68947 43.1888 9.69335 43.204 9.70083C43.2188 9.70835 43.2344 9.72439 43.2504 9.74899L43.4304 10.0203C43.4356 10.0289 43.4408 10.0385 43.4456 10.0493C43.4508 10.06 43.4528 10.0685 43.4528 10.075C43.4528 10.0996 43.4452 10.1198 43.43 10.1353C43.4144 10.1506 43.3972 10.1643 43.3792 10.1762C43.2912 10.2373 43.1952 10.2863 43.0908 10.3231C42.9864 10.3601 42.876 10.3782 42.7592 10.3782C42.6628 10.3782 42.57 10.366 42.4808 10.3414C42.3916 10.3168 42.3084 10.2816 42.2312 10.2363C42.1544 10.1907 42.0836 10.1361 42.0192 10.0724C41.9548 10.009 41.9004 9.93803 41.8552 9.85983C41.8104 9.78163 41.7752 9.69747 41.7504 9.60711C41.7252 9.51675 41.7124 9.42223 41.7124 9.32383C41.7124 9.22547 41.7248 9.13067 41.7504 9.03955C41.7752 8.94867 41.8104 8.86423 41.8552 8.78683C41.9004 8.70939 41.9548 8.63871 42.0192 8.57503C42.0832 8.51131 42.154 8.45695 42.2312 8.41191C42.308 8.36711 42.3916 8.33215 42.4808 8.30755C42.57 8.28295 42.6632 8.27051 42.7592 8.27051C42.876 8.27051 42.9836 8.28607 43.0828 8.31711C43.1816 8.34819 43.2744 8.39403 43.3612 8.45515L43.356 8.45023C43.3796 8.46419 43.3984 8.48051 43.4124 8.49915C43.4264 8.51807 43.4332 8.54111 43.4332 8.56907C43.4332 8.58823 43.4264 8.60815 43.414 8.62835L43.2708 8.87071C43.2412 8.92303 43.2048 8.94919 43.162 8.94919C43.1524 8.94919 43.1404 8.94683 43.1264 8.94191C43.1124 8.93699 43.0968 8.92871 43.0796 8.91707C43.0328 8.88599 42.982 8.86063 42.9284 8.84067C42.874 8.82099 42.8168 8.81091 42.756 8.81091C42.6884 8.81091 42.626 8.82435 42.5696 8.85183C42.5128 8.87899 42.4644 8.91627 42.4244 8.96343C42.384 9.01055 42.3528 9.06519 42.3304 9.12731C42.308 9.18919 42.2968 9.25471 42.2968 9.32307C42.2968 9.39375 42.308 9.45979 42.3304 9.52115C42.3528 9.58279 42.384 9.63587 42.4244 9.68091C42.4644 9.72571 42.5128 9.76143 42.5696 9.78759C42.6264 9.81375 42.6884 9.82695 42.756 9.82695C42.8168 9.82695 42.874 9.81631 42.9276 9.79511C42.9812 9.77387 43.032 9.74695 43.0804 9.71355Z" fill="#020203"/>
<path d="M43.7565 7.61546C43.7565 7.57042 43.7657 7.53882 43.7853 7.5199C43.8045 7.50126 43.8345 7.4917 43.8753 7.4917H44.2477C44.2849 7.4917 44.3153 7.50102 44.3381 7.5199C44.3613 7.53882 44.3725 7.57042 44.3725 7.61546V7.9285C44.3725 7.94118 44.3697 7.95518 44.3637 7.97018C44.3581 7.98522 44.3497 7.99946 44.3389 8.01342C44.3281 8.02742 44.3153 8.03882 44.2997 8.04786C44.2841 8.05694 44.2669 8.06158 44.2473 8.06158H43.8749C43.7957 8.06158 43.7561 8.0173 43.7561 7.92826L43.7565 7.61546ZM43.7565 8.42774C43.7565 8.39354 43.7657 8.36402 43.7853 8.33942C43.8045 8.31482 43.8345 8.30266 43.8753 8.30266H44.2429C44.2557 8.30266 44.2697 8.3055 44.2845 8.31146C44.2993 8.31742 44.3137 8.32598 44.3265 8.3371C44.3393 8.3485 44.3501 8.36142 44.3593 8.37646C44.3681 8.39146 44.3729 8.40858 44.3729 8.42774V10.2177C44.3729 10.2583 44.3617 10.2892 44.3393 10.3099C44.3169 10.3309 44.2849 10.3412 44.2429 10.3412H43.8753C43.7961 10.3412 43.7565 10.3001 43.7565 10.2177V8.42774Z" fill="#020203"/>
<path d="M46.8561 10.2228C46.8561 10.2409 46.8533 10.2585 46.8465 10.2751C46.8401 10.2917 46.8297 10.3049 46.8149 10.3144C46.8029 10.3261 46.7889 10.3336 46.7733 10.337C46.7569 10.3401 46.7429 10.3419 46.7313 10.3419H46.4153C46.3929 10.3419 46.3745 10.339 46.3609 10.3331C46.3469 10.3271 46.3357 10.3188 46.3273 10.3082C46.3185 10.2974 46.3113 10.2844 46.3053 10.2689C46.2993 10.2536 46.2933 10.2365 46.2869 10.2184L46.2665 10.1462C46.2373 10.1752 46.2045 10.2034 46.1673 10.2313C46.1305 10.259 46.0897 10.2839 46.0453 10.3059C46.0009 10.3279 45.9533 10.3455 45.9025 10.359C45.8517 10.3724 45.7989 10.3789 45.7441 10.3789C45.6469 10.3789 45.5533 10.3668 45.4641 10.3422C45.3745 10.3176 45.2909 10.2824 45.2137 10.237C45.1361 10.1914 45.0653 10.1368 45.0021 10.0731C44.9389 10.0097 44.8849 9.93876 44.8393 9.86056C44.7937 9.78236 44.7589 9.6982 44.7341 9.60784C44.7097 9.51748 44.6973 9.42296 44.6973 9.32456C44.6973 9.17568 44.7245 9.0374 44.7793 8.90948C44.8337 8.7816 44.9081 8.67024 45.0021 8.57572C45.0965 8.48096 45.2073 8.40664 45.3349 8.35252C45.4621 8.29844 45.5985 8.27148 45.7441 8.27148C45.8105 8.27148 45.8725 8.279 45.9293 8.294C45.9869 8.30904 46.0393 8.32924 46.0869 8.35488C46.1345 8.38052 46.1773 8.41132 46.2161 8.44732C46.2545 8.48304 46.2885 8.52188 46.3173 8.56384L46.3637 8.4178C46.3745 8.39112 46.3833 8.36936 46.3905 8.3528C46.3973 8.33624 46.4049 8.3238 46.4129 8.31604C46.4205 8.308 46.4309 8.30256 46.4425 8.29996C46.4545 8.2974 46.4709 8.29584 46.4925 8.29584H46.7317C46.7433 8.29584 46.7577 8.2974 46.7733 8.30076C46.7893 8.30412 46.8033 8.31164 46.8149 8.32328C46.8297 8.33492 46.8409 8.3484 46.8469 8.3634C46.8533 8.37844 46.8565 8.39552 46.8565 8.41468L46.8561 10.2228ZM45.2749 9.32404C45.2749 9.39472 45.2857 9.46076 45.3077 9.52212C45.3297 9.58376 45.3613 9.63684 45.4017 9.68188C45.4425 9.72668 45.4913 9.7624 45.5489 9.78856C45.6061 9.81472 45.6693 9.82792 45.7389 9.82792C45.8109 9.82792 45.8773 9.81472 45.9389 9.78856C46.0005 9.7624 46.0541 9.72668 46.0993 9.68188C46.1449 9.63684 46.1805 9.58376 46.2061 9.52212C46.2317 9.46076 46.2445 9.39472 46.2445 9.32404C46.2445 9.25544 46.2317 9.19016 46.2061 9.12828C46.1805 9.0664 46.1449 9.01152 46.0993 8.9644C46.0537 8.91752 46.0005 8.88024 45.9389 8.8528C45.8773 8.82536 45.8105 8.81188 45.7389 8.81188C45.6693 8.81188 45.6061 8.82536 45.5489 8.8528C45.4913 8.87996 45.4421 8.91728 45.4017 8.9644C45.3613 9.01152 45.3297 9.06616 45.3077 9.12828C45.2857 9.19044 45.2749 9.25544 45.2749 9.32404Z" fill="#020203"/>
<path d="M21.1807 11.8843C21.1807 11.8618 21.1869 11.8439 21.1991 11.8305C21.2112 11.8173 21.2288 11.8105 21.2514 11.8105H22.3173C22.4116 11.8105 22.5004 11.8284 22.5838 11.8641C22.6674 11.9001 22.7405 11.9493 22.8029 12.0117C22.8653 12.0741 22.915 12.1477 22.9513 12.2315C22.9878 12.3157 23.0059 12.4058 23.0059 12.5021C23.0059 12.5824 22.9932 12.657 22.9681 12.7261C22.943 12.795 22.9072 12.8569 22.8614 12.9115C22.9383 12.9819 22.9992 13.0661 23.0445 13.1634C23.0893 13.2608 23.1118 13.3641 23.1118 13.4734C23.1118 13.5707 23.0932 13.6632 23.0556 13.7502C23.0183 13.8374 22.9676 13.9138 22.9039 13.9796C22.8404 14.0453 22.7661 14.0977 22.6809 14.1362C22.5957 14.1748 22.5061 14.194 22.4118 14.194H21.2514C21.2299 14.194 21.2128 14.1883 21.1998 14.1771C21.1869 14.166 21.1807 14.1487 21.1807 14.1251V11.8843ZM22.3895 12.5166C22.3895 12.4845 22.3836 12.4547 22.3719 12.4268C22.36 12.3991 22.3435 12.3745 22.3219 12.353C22.3005 12.3315 22.2746 12.3147 22.2445 12.3022C22.2145 12.2898 22.1819 12.2839 22.1464 12.2839H21.8019V12.7494H22.1415C22.178 12.7494 22.2116 12.7437 22.2422 12.7326C22.2727 12.7214 22.2989 12.7051 22.3201 12.6844C22.3417 12.6637 22.3587 12.6389 22.3709 12.6106C22.3833 12.5821 22.3895 12.5511 22.3895 12.5166ZM22.4747 13.4493C22.4747 13.4172 22.4683 13.3851 22.4561 13.353C22.4437 13.3209 22.4266 13.2924 22.4046 13.267C22.3825 13.2419 22.3561 13.2212 22.3259 13.2051C22.2953 13.1891 22.2621 13.181 22.2269 13.181H21.8019V13.717H22.2269C22.2621 13.717 22.295 13.7095 22.3251 13.6947C22.3551 13.6797 22.3815 13.6598 22.4041 13.6344C22.4266 13.6091 22.4439 13.5808 22.4564 13.5485C22.4683 13.5166 22.4747 13.4835 22.4747 13.4493Z" fill="#020203"/>
<path d="M25.4783 14.0753C25.4783 14.0937 25.4753 14.1111 25.4688 14.1277C25.4623 14.1442 25.4517 14.1574 25.4369 14.167C25.425 14.1789 25.411 14.1862 25.3952 14.1895C25.3792 14.1929 25.3652 14.1945 25.3535 14.1945H25.0373C25.0148 14.1945 24.9967 14.1916 24.9829 14.1857C24.969 14.1799 24.9578 14.1717 24.9493 14.1608C24.9407 14.1499 24.9332 14.137 24.9275 14.1214C24.9216 14.1059 24.9153 14.0891 24.9091 14.0707L24.8884 13.9985C24.8594 14.0275 24.8265 14.0557 24.7895 14.0836C24.7525 14.1113 24.7118 14.1365 24.6675 14.1582C24.623 14.1802 24.5756 14.1978 24.5246 14.2113C24.4738 14.2245 24.421 14.2312 24.3663 14.2312C24.2689 14.2312 24.1755 14.2188 24.0861 14.1942C23.9968 14.1696 23.9131 14.1344 23.8357 14.0891C23.758 14.0435 23.6876 13.9889 23.6244 13.9254C23.5612 13.8617 23.5068 13.7908 23.4615 13.7126C23.4159 13.6347 23.3809 13.5502 23.3563 13.4599C23.3317 13.3695 23.3196 13.275 23.3196 13.1766C23.3196 13.028 23.3467 12.8895 23.4014 12.7615C23.4558 12.6336 23.5304 12.5223 23.6244 12.4275C23.7187 12.3327 23.8295 12.2584 23.9569 12.2046C24.0843 12.1505 24.2208 12.1235 24.3663 12.1235C24.4326 12.1235 24.4945 12.1311 24.5515 12.1458C24.609 12.1608 24.6613 12.1813 24.7089 12.2069C24.7566 12.2325 24.7996 12.2633 24.8382 12.2991C24.8768 12.3351 24.9104 12.3739 24.9394 12.4156L24.9858 12.2696C24.9967 12.2429 25.0055 12.2211 25.0125 12.2046C25.0195 12.1877 25.027 12.1756 25.035 12.1675C25.0428 12.1595 25.0529 12.1541 25.0648 12.1515C25.0764 12.1489 25.093 12.1476 25.1145 12.1476H25.3538C25.3655 12.1476 25.3797 12.1492 25.3955 12.1525C25.4115 12.1556 25.4253 12.1631 25.4372 12.1748C25.4519 12.1867 25.4628 12.1999 25.469 12.2149C25.4755 12.2299 25.4786 12.2468 25.4786 12.2665L25.4783 14.0753ZM23.8968 13.1763C23.8968 13.247 23.9077 13.3131 23.9297 13.3744C23.9517 13.4361 23.9831 13.4894 24.0237 13.5342C24.0644 13.579 24.1133 13.6147 24.1705 13.6409C24.2278 13.6673 24.2912 13.6802 24.3609 13.6802C24.4326 13.6802 24.4992 13.6673 24.5606 13.6409C24.6222 13.6147 24.6758 13.579 24.7211 13.5342C24.7667 13.4894 24.8022 13.4361 24.8278 13.3744C24.8537 13.3131 24.8664 13.247 24.8664 13.1763C24.8664 13.1077 24.8537 13.0425 24.8278 12.9806C24.8022 12.9187 24.7667 12.8638 24.7211 12.8169C24.6755 12.7698 24.6222 12.7325 24.5606 12.7053C24.4992 12.6781 24.4324 12.6644 24.3609 12.6644C24.2912 12.6644 24.2278 12.6781 24.1705 12.7053C24.1131 12.7328 24.0641 12.7698 24.0237 12.8169C23.9831 12.8638 23.9517 12.9187 23.9297 12.9806C23.9079 13.0425 23.8968 13.1077 23.8968 13.1763Z" fill="#020203"/>
<path d="M25.9054 12.184C25.9194 12.1724 25.9341 12.1648 25.9494 12.1618C25.965 12.1584 25.9797 12.1568 25.9937 12.1568H26.2361C26.2553 12.1568 26.2719 12.1602 26.2861 12.1672C26.3001 12.1742 26.3117 12.1835 26.3213 12.1954C26.3309 12.2071 26.3387 12.2205 26.3446 12.2356C26.3503 12.2503 26.3563 12.2658 26.3615 12.2819L26.3954 12.4228C26.4114 12.3896 26.4373 12.3554 26.4731 12.3202C26.5088 12.285 26.5533 12.2529 26.6065 12.2242C26.6595 12.1954 26.7207 12.1716 26.7901 12.153C26.8595 12.1346 26.9371 12.125 27.0229 12.125C27.1449 12.125 27.2539 12.1486 27.3494 12.1954C27.4453 12.2423 27.5266 12.3062 27.5934 12.3873C27.6605 12.4683 27.7112 12.5634 27.7459 12.6716C27.7809 12.7801 27.7982 12.8958 27.7982 13.0188V14.0703C27.7982 14.111 27.7894 14.1418 27.7718 14.1625C27.7542 14.1835 27.726 14.1938 27.6874 14.1938H27.3165C27.2705 14.1938 27.2389 14.1861 27.222 14.1705C27.2049 14.1552 27.1961 14.125 27.1961 14.0799V13.0349C27.1961 12.989 27.1858 12.9453 27.1651 12.9041C27.1441 12.8629 27.1166 12.8264 27.0822 12.7948C27.048 12.7632 27.0091 12.7384 26.9659 12.7203C26.9227 12.7019 26.8784 12.6928 26.8333 12.6928C26.7947 12.6928 26.7556 12.7014 26.7155 12.7184C26.6753 12.7355 26.6383 12.7594 26.6046 12.7899C26.571 12.8205 26.5427 12.8564 26.5197 12.8976C26.4967 12.9388 26.4834 12.9836 26.4803 13.0318V14.075C26.4803 14.0934 26.4769 14.1115 26.47 14.1296C26.463 14.1478 26.4526 14.1615 26.4389 14.1713C26.4249 14.1798 26.4117 14.1858 26.3995 14.1889C26.3871 14.1923 26.3731 14.1938 26.3571 14.1938H25.9945C25.9484 14.1938 25.9153 14.1827 25.8951 14.1602C25.8746 14.1376 25.8645 14.1079 25.8645 14.0703V12.2752C25.8645 12.255 25.8691 12.2363 25.8782 12.2192C25.8873 12.2024 25.9 12.1889 25.916 12.1794L25.9054 12.184Z" fill="#020203"/>
<path d="M29.4887 13.5663C29.5038 13.5554 29.518 13.5487 29.5312 13.5461C29.5447 13.5435 29.555 13.5422 29.5625 13.5422C29.5807 13.5422 29.5972 13.5459 29.6122 13.5533C29.6273 13.5609 29.6428 13.5769 29.6589 13.6015L29.8388 13.8729C29.844 13.8814 29.8492 13.891 29.8541 13.9019C29.859 13.9125 29.8614 13.921 29.8614 13.9275C29.8614 13.9521 29.8536 13.9723 29.8384 13.9879C29.8228 14.0031 29.8057 14.0169 29.7876 14.0287C29.6998 14.0899 29.6037 14.1388 29.4994 14.1756C29.395 14.2126 29.2844 14.231 29.1676 14.231C29.0713 14.231 28.9786 14.2185 28.8892 14.1939C28.7998 14.1693 28.7167 14.1341 28.6396 14.0888C28.5624 14.0435 28.4919 13.9886 28.4274 13.9252C28.3632 13.8615 28.3088 13.7905 28.2638 13.7123C28.219 13.6344 28.1838 13.55 28.1586 13.4596C28.1335 13.3693 28.1208 13.2747 28.1208 13.1763C28.1208 13.078 28.1333 12.9832 28.1586 12.8923C28.1838 12.8012 28.219 12.717 28.2638 12.6396C28.3088 12.5619 28.3632 12.4912 28.4274 12.4275C28.4917 12.3641 28.5624 12.3097 28.6396 12.2647C28.7165 12.2199 28.7998 12.1849 28.8892 12.1603C28.9786 12.136 29.0715 12.1235 29.1676 12.1235C29.2844 12.1235 29.3921 12.1388 29.491 12.1699C29.59 12.201 29.683 12.2468 29.7694 12.3079L29.7645 12.303C29.7881 12.317 29.807 12.3333 29.8207 12.3519C29.8347 12.3708 29.8414 12.3941 29.8414 12.4218C29.8414 12.441 29.835 12.4609 29.8223 12.4814L29.6793 12.7237C29.6496 12.7763 29.613 12.8025 29.5703 12.8025C29.5607 12.8025 29.5488 12.7999 29.5348 12.7952C29.5208 12.7903 29.5053 12.782 29.4882 12.7703C29.4413 12.7393 29.3906 12.7139 29.3367 12.694C29.2826 12.674 29.2251 12.6642 29.1642 12.6642C29.0966 12.6642 29.0345 12.6779 28.978 12.7051C28.9213 12.7325 28.8729 12.7696 28.8328 12.8167C28.7926 12.8636 28.7613 12.9185 28.739 12.9803C28.7165 13.0422 28.7053 13.1077 28.7053 13.1761C28.7053 13.2468 28.7165 13.3128 28.739 13.3742C28.7613 13.4358 28.7926 13.4891 28.8328 13.5339C28.8729 13.5787 28.9213 13.6145 28.978 13.6406C29.0348 13.667 29.0966 13.68 29.1642 13.68C29.2251 13.68 29.2826 13.6693 29.3359 13.6481C29.3896 13.6266 29.4406 13.5995 29.4887 13.5663Z" fill="#020203"/>
<path d="M32.2645 14.0753C32.2645 14.0937 32.2614 14.1111 32.2549 14.1277C32.2484 14.1442 32.2378 14.1574 32.2231 14.167C32.2112 14.1789 32.1972 14.1862 32.1814 14.1895C32.1653 14.1929 32.1514 14.1945 32.1397 14.1945H31.8235C31.801 14.1945 31.7828 14.1916 31.7691 14.1857C31.7551 14.1799 31.744 14.1717 31.7354 14.1608C31.7269 14.1499 31.7194 14.137 31.7137 14.1214C31.7077 14.1059 31.7015 14.0891 31.6953 14.0707L31.6746 13.9985C31.6456 14.0275 31.6127 14.0557 31.5756 14.0836C31.5386 14.1113 31.498 14.1365 31.4537 14.1582C31.4091 14.1802 31.3617 14.1978 31.3107 14.2113C31.26 14.2245 31.2071 14.2312 31.1525 14.2312C31.0551 14.2312 30.9616 14.2188 30.8723 14.1942C30.7829 14.1696 30.6993 14.1344 30.6218 14.0891C30.5442 14.0435 30.4737 13.9889 30.4105 13.9254C30.3473 13.8617 30.293 13.7908 30.2476 13.7126C30.202 13.6347 30.1671 13.5502 30.1425 13.4599C30.1179 13.3695 30.1057 13.275 30.1057 13.1766C30.1057 13.028 30.1329 12.8895 30.1876 12.7615C30.2419 12.6336 30.3165 12.5223 30.4105 12.4275C30.5045 12.3327 30.6156 12.2584 30.743 12.2046C30.8705 12.1505 31.007 12.1235 31.1525 12.1235C31.2188 12.1235 31.2807 12.1311 31.3376 12.1458C31.3952 12.1608 31.4474 12.1813 31.4951 12.2069C31.5428 12.2325 31.5858 12.2633 31.6243 12.2991C31.6629 12.3351 31.6966 12.3739 31.7256 12.4156L31.772 12.2696C31.7828 12.2429 31.7916 12.2211 31.7986 12.2046C31.8056 12.1877 31.8131 12.1756 31.8212 12.1675C31.8289 12.1595 31.839 12.1541 31.8509 12.1515C31.8626 12.1489 31.8792 12.1476 31.9006 12.1476H32.14C32.1516 12.1476 32.1658 12.1492 32.1816 12.1525C32.1977 12.1556 32.2114 12.1631 32.2233 12.1748C32.2381 12.1867 32.249 12.1999 32.2552 12.2149C32.2617 12.2299 32.2648 12.2468 32.2648 12.2665L32.2645 14.0753ZM30.6832 13.1763C30.6832 13.247 30.6941 13.3131 30.7161 13.3744C30.7381 13.4361 30.7695 13.4894 30.8101 13.5342C30.8508 13.579 30.8997 13.6147 30.957 13.6409C31.0142 13.6673 31.0776 13.6802 31.1473 13.6802C31.219 13.6802 31.2856 13.6673 31.347 13.6409C31.4086 13.6147 31.4622 13.579 31.5075 13.5342C31.5528 13.4894 31.5886 13.4361 31.6142 13.3744C31.6401 13.3131 31.6528 13.247 31.6528 13.1763C31.6528 13.1077 31.6401 13.0425 31.6142 12.9806C31.5886 12.9187 31.5531 12.8638 31.5075 12.8169C31.462 12.7698 31.4086 12.7325 31.347 12.7053C31.2856 12.6781 31.2188 12.6644 31.1473 12.6644C31.0776 12.6644 31.0142 12.6781 30.957 12.7053C30.8995 12.7328 30.8505 12.7698 30.8101 12.8169C30.7695 12.8638 30.7381 12.9187 30.7161 12.9806C30.6941 13.0425 30.6832 13.1077 30.6832 13.1763Z" fill="#020203"/>
<path d="M32.6499 12.2742C32.6499 12.254 32.6538 12.2362 32.6613 12.2211C32.6686 12.2061 32.6787 12.1937 32.6911 12.1841C32.7035 12.1745 32.7173 12.1673 32.7328 12.1626C32.7481 12.1577 32.7634 12.1554 32.7784 12.1554H33.0208C33.0475 12.1554 33.0689 12.1634 33.085 12.1795C33.1011 12.1955 33.1148 12.216 33.1259 12.2406C33.1371 12.2652 33.1472 12.2926 33.1557 12.3224C33.1643 12.3524 33.1743 12.3814 33.1863 12.4091C33.2181 12.3739 33.2502 12.339 33.2818 12.3051C33.3132 12.2709 33.3473 12.2401 33.3836 12.2134C33.4201 12.1867 33.4597 12.165 33.5033 12.1484C33.5465 12.1318 33.596 12.1235 33.6517 12.1235C33.7094 12.1235 33.7609 12.1277 33.8065 12.1362C33.8521 12.1448 33.8951 12.1575 33.9357 12.174C33.9767 12.1906 34.0168 12.2118 34.0572 12.2375C34.0973 12.2633 34.1409 12.2931 34.188 12.3273C34.2341 12.354 34.2571 12.3856 34.2571 12.4221C34.2571 12.4456 34.2478 12.4728 34.2297 12.5039L34.0836 12.7527C34.0546 12.7944 34.0189 12.8154 33.9761 12.8154C33.9547 12.8154 33.9305 12.8097 33.9039 12.7978C33.8578 12.7527 33.8112 12.7193 33.7633 12.6976C33.7156 12.6756 33.6615 12.6647 33.6004 12.6647C33.5587 12.6647 33.5219 12.6704 33.4903 12.6823C33.4587 12.6939 33.4302 12.7105 33.4043 12.732C33.3787 12.7535 33.3546 12.7791 33.3321 12.8089C33.3095 12.8389 33.2873 12.8721 33.2647 12.9083V14.0704C33.2647 14.1111 33.2549 14.1419 33.2349 14.1626C33.215 14.1836 33.1821 14.1939 33.136 14.1939H32.775C32.6914 14.1939 32.6497 14.1528 32.6497 14.0704L32.6499 12.2742Z" fill="#020203"/>
<path d="M34.4964 11.468C34.4964 11.423 34.5059 11.3911 34.5254 11.3725C34.5445 11.3536 34.5746 11.3442 34.6153 11.3442H34.9877C35.0249 11.3442 35.0553 11.3536 35.0783 11.3725C35.1013 11.3911 35.1127 11.423 35.1127 11.468V11.7808C35.1127 11.7938 35.1099 11.8075 35.1039 11.8225C35.0982 11.8375 35.0897 11.852 35.0791 11.8657C35.0682 11.8797 35.0553 11.8911 35.0397 11.9002C35.0242 11.9092 35.0068 11.9139 34.9874 11.9139H34.615C34.5357 11.9139 34.4961 11.8694 34.4961 11.7806L34.4964 11.468ZM34.4964 12.2803C34.4964 12.2461 34.5059 12.2166 34.5254 12.192C34.5445 12.1674 34.5746 12.155 34.6153 12.155H34.983C34.9957 12.155 35.0097 12.158 35.0247 12.1638C35.0395 12.1697 35.0537 12.1782 35.0664 12.1896C35.0793 12.2008 35.0902 12.214 35.0993 12.229C35.1083 12.244 35.113 12.2611 35.113 12.2805V14.0702C35.113 14.1109 35.1019 14.1417 35.0793 14.1624C35.0568 14.1834 35.0249 14.1938 34.983 14.1938H34.6153C34.536 14.1938 34.4964 14.1526 34.4964 14.0702V12.2803Z" fill="#020203"/>
<path d="M37.5963 14.0753C37.5963 14.0937 37.5932 14.1111 37.5867 14.1277C37.5802 14.1442 37.5696 14.1574 37.5549 14.167C37.5429 14.1789 37.5289 14.1862 37.5131 14.1895C37.4971 14.1929 37.4831 14.1945 37.4715 14.1945H37.1553C37.1327 14.1945 37.1146 14.1916 37.1009 14.1857C37.0869 14.1799 37.0757 14.1717 37.0672 14.1608C37.0587 14.1499 37.0511 14.137 37.0455 14.1214C37.0395 14.1059 37.0333 14.0891 37.0271 14.0707L37.0063 13.9985C36.9773 14.0275 36.9445 14.0557 36.9074 14.0836C36.8704 14.1113 36.8297 14.1365 36.7854 14.1582C36.7409 14.1802 36.6935 14.1978 36.6425 14.2113C36.5917 14.2245 36.5389 14.2312 36.4843 14.2312C36.3869 14.2312 36.2934 14.2188 36.204 14.1942C36.1147 14.1696 36.0311 14.1344 35.9536 14.0891C35.8759 14.0435 35.8055 13.9889 35.7423 13.9254C35.6791 13.8617 35.6247 13.7908 35.5794 13.7126C35.5338 13.6347 35.4989 13.5502 35.4743 13.4599C35.4497 13.3695 35.4375 13.275 35.4375 13.1766C35.4375 13.028 35.4647 12.8895 35.5193 12.7615C35.5737 12.6336 35.6483 12.5223 35.7423 12.4275C35.8365 12.3327 35.9474 12.2584 36.0748 12.2046C36.2022 12.1505 36.3387 12.1235 36.4843 12.1235C36.5505 12.1235 36.6124 12.1311 36.6694 12.1458C36.7269 12.1608 36.7792 12.1813 36.8269 12.2069C36.8745 12.2325 36.9175 12.2633 36.9561 12.2991C36.9947 12.3351 37.0283 12.3739 37.0573 12.4156L37.1037 12.2696C37.1146 12.2429 37.1234 12.2211 37.1304 12.2046C37.1374 12.1877 37.1449 12.1756 37.1529 12.1675C37.1607 12.1595 37.1708 12.1541 37.1827 12.1515C37.1943 12.1489 37.2109 12.1476 37.2324 12.1476H37.4717C37.4834 12.1476 37.4976 12.1492 37.5134 12.1525C37.5295 12.1556 37.5432 12.1631 37.5551 12.1748C37.5699 12.1867 37.5807 12.1999 37.5869 12.2149C37.5934 12.2299 37.5965 12.2468 37.5965 12.2665L37.5963 14.0753ZM36.0147 13.1763C36.0147 13.247 36.0256 13.3131 36.0476 13.3744C36.0696 13.4361 36.101 13.4894 36.1416 13.5342C36.1823 13.579 36.2312 13.6147 36.2885 13.6409C36.3457 13.6673 36.4091 13.6802 36.4788 13.6802C36.5505 13.6802 36.6171 13.6673 36.6785 13.6409C36.7401 13.6147 36.7937 13.579 36.8391 13.5342C36.8846 13.4894 36.9201 13.4361 36.9457 13.3744C36.9716 13.3131 36.9843 13.247 36.9843 13.1763C36.9843 13.1077 36.9716 13.0425 36.9457 12.9806C36.9201 12.9187 36.8846 12.8638 36.8391 12.8169C36.7935 12.7698 36.7401 12.7325 36.6785 12.7053C36.6171 12.6781 36.5503 12.6644 36.4788 12.6644C36.4091 12.6644 36.3457 12.6781 36.2885 12.7053C36.231 12.7328 36.182 12.7698 36.1416 12.8169C36.101 12.8638 36.0696 12.9187 36.0476 12.9806C36.0259 13.0425 36.0147 13.1077 36.0147 13.1763Z" fill="#020203"/>
</g>
<defs>
<clipPath id="clip0_133_292391">
<rect width="46.4" height="20" fill="white" transform="translate(0.600098)"/>
</clipPath>
</defs>
</svg>
