<svg width="25" height="24" viewBox="0 0 25 24" fill="none" xmlns="http://www.w3.org/2000/svg">
<path fill-rule="evenodd" clip-rule="evenodd" d="M8.64502 7.43561C8.64502 5.26345 10.4098 3.5 12.59 3.5C14.7702 3.5 16.535 5.26345 16.535 7.43561C16.535 9.60777 14.7702 11.3712 12.59 11.3712C10.4098 11.3712 8.64502 9.60777 8.64502 7.43561ZM12.59 2C9.58425 2 7.14502 4.43219 7.14502 7.43561C7.14502 9.40008 8.18857 11.1202 9.75164 12.0751C5.62803 13.2422 2.58984 16.8883 2.58984 21.2536C2.58984 21.6678 2.92563 22.0036 3.33984 22.0036H21.8378C22.252 22.0036 22.5878 21.6678 22.5878 21.2536C22.5878 16.8889 19.5504 13.2431 15.4277 12.0756C16.9911 11.1207 18.035 9.4004 18.035 7.43561C18.035 4.43219 15.5958 2 12.59 2ZM12.5888 13.1836C17.0468 13.1836 20.6539 16.4249 21.0514 20.5036H4.12623C4.52379 16.4249 8.13084 13.1836 12.5888 13.1836Z" fill="black"/>
</svg>
