<svg width="48" height="48" viewBox="0 0 48 48" fill="none" xmlns="http://www.w3.org/2000/svg">
<path fill-rule="evenodd" clip-rule="evenodd" d="M16.2822 13.23C16.2822 8.94962 19.752 5.5 24.0122 5.5C26.1477 5.5 28.0599 6.36868 29.4811 7.74622C30.8951 9.16218 31.7651 11.1152 31.7651 13.23V17.3359H16.2822V13.23ZM14.7822 17.3359V13.23C14.7822 8.11857 18.9262 4 24.0122 4C26.5707 4 28.8513 5.04452 30.5299 6.67376L30.5379 6.68155L30.5379 6.68161C32.2218 8.36555 33.2651 10.6965 33.2651 13.23V17.3359H40.0725C41.039 17.3359 41.8225 18.1194 41.8225 19.0859V42.2491C41.8225 43.2156 41.039 43.9991 40.0725 43.9991H7.85059C6.88409 43.9991 6.10059 43.2156 6.10059 42.2491V19.0859C6.10059 18.1194 6.88409 17.3359 7.85059 17.3359H14.7822ZM7.60059 19.0859C7.60059 18.9479 7.71252 18.8359 7.85059 18.8359H40.0725C40.2106 18.8359 40.3225 18.9479 40.3225 19.0859V42.2491C40.3225 42.3872 40.2106 42.4991 40.0725 42.4991H7.85059C7.71251 42.4991 7.60059 42.3872 7.60059 42.2491V19.0859ZM26.0706 25.4697C26.3635 25.1768 26.8384 25.1768 27.1313 25.4697L29.6313 27.9697C29.8458 28.1842 29.91 28.5068 29.7939 28.787C29.6778 29.0673 29.4043 29.25 29.101 29.25H19.101C18.6868 29.25 18.351 28.9142 18.351 28.5C18.351 28.0858 18.6868 27.75 19.101 27.75H27.2903L26.0706 26.5303C25.7778 26.2374 25.7778 25.7626 26.0706 25.4697ZM21.0706 35.5303C21.3635 35.8232 21.8384 35.8232 22.1313 35.5303C22.4242 35.2374 22.4242 34.7626 22.1313 34.4697L20.9116 33.25H29.101C29.5152 33.25 29.851 32.9142 29.851 32.5C29.851 32.0858 29.5152 31.75 29.101 31.75H19.101C18.7976 31.75 18.5242 31.9327 18.4081 32.213C18.292 32.4932 18.3561 32.8158 18.5706 33.0303L21.0706 35.5303Z" fill="black"/>
</svg>
