<svg width="100" height="100" viewBox="0 0 100 100" fill="none" xmlns="http://www.w3.org/2000/svg">
<g clip-path="url(#clip0_16036_401182)">
<rect width="100" height="100" fill="white"/>
<path fill-rule="evenodd" clip-rule="evenodd" d="M46.2227 28H45.5183L45.4742 28.7031L45.2106 32.9085C43.8315 33.2938 42.5197 33.8386 41.2977 34.5257L38.1383 31.7388L37.6098 31.2725L37.1116 31.7711L31.7707 37.1168L31.2729 37.615L31.7388 38.1431L34.5256 41.3023C33.8385 42.5231 33.2908 43.8347 32.9074 45.2148L28.7038 45.4742L28 45.5176V46.2227V53.7785V54.483L28.7031 54.527L32.9085 54.7907C33.2938 56.1698 33.8386 57.4815 34.5257 58.7036L31.7388 61.8629L31.2727 62.3912L31.7709 62.8894L37.1119 68.2304L37.61 68.7285L38.1383 68.2625L41.2976 65.4757C42.5186 66.1629 43.8303 66.7106 45.2107 67.094L45.4742 71.2982L45.5183 72.0012H46.2227H53.7785H54.483L54.527 71.2982L54.7907 67.0928C56.1698 66.7074 57.4815 66.1627 58.7036 65.4756L61.8629 68.2625L62.3912 68.7285L62.8894 68.2304L68.2304 62.8894L68.7285 62.3912L68.2625 61.8629L65.4757 58.7037C66.1629 57.4827 66.7106 56.1709 67.094 54.7906L71.2982 54.527L72.0012 54.483V53.7785V46.2227V45.5183L71.2982 45.4742L67.0928 45.2106C66.7074 43.8315 66.1627 42.5197 65.4756 41.2977L68.2625 38.1383L68.7287 37.6098L68.2301 37.1116L62.8844 31.7707L62.3863 31.2729L61.8582 31.7388L58.699 34.5256C57.4781 33.8385 56.1665 33.2908 54.7864 32.9074L54.5271 28.7038L54.4837 28H53.7785H46.2227ZM46.6738 33.5429L46.9272 29.5H53.0734L53.3227 33.5422L53.3568 34.0938L53.8937 34.2246C55.5035 34.617 57.0195 35.253 58.4009 36.0881L58.8721 36.373L59.2851 36.0088L62.3224 33.3295L66.6713 37.6746L63.9925 40.7114L63.6282 41.1244L63.9131 41.5956C64.7476 42.9759 65.3796 44.4923 65.7771 46.1047L65.9088 46.6393L66.4584 46.6738L70.5012 46.9272V53.0741L66.4584 53.3275L65.9073 53.362L65.7766 53.8984C65.3843 55.5083 64.7483 57.0242 63.9131 58.4056L63.6282 58.8769L63.9925 59.2898L66.6716 62.3269L62.3269 66.6716L59.2898 63.9925L58.8769 63.6282L58.4056 63.9131C57.0254 64.7476 55.5089 65.3796 53.8965 65.7771L53.3619 65.9088L53.3275 66.4584L53.0741 70.5012H46.9272L46.6738 66.4584L46.6392 65.9073L46.1028 65.7766C44.493 65.3843 42.977 64.7483 41.5956 63.9131L41.1244 63.6282L40.7114 63.9925L37.6744 66.6716L33.3297 62.3269L36.0088 59.2898L36.373 58.8769L36.0881 58.4056C35.2536 57.0254 34.6216 55.5089 34.2242 53.8965L34.0924 53.3619L33.5429 53.3275L29.5 53.0741V46.9279L33.5422 46.6785L34.0938 46.6445L34.2246 46.1075C34.617 44.4977 35.253 42.9818 36.0881 41.6003L36.373 41.1291L36.0088 40.7162L33.3295 37.6789L37.6746 33.3299L40.7114 36.0088L41.1244 36.373L41.5956 36.0881C42.9759 35.2536 44.4923 34.6216 46.1047 34.2242L46.6393 34.0924L46.6738 33.5429ZM41.25 50C41.25 45.1675 45.1675 41.25 50 41.25C54.8325 41.25 58.75 45.1675 58.75 50C58.75 54.8325 54.8325 58.75 50 58.75C45.1675 58.75 41.25 54.8325 41.25 50ZM50 39.75C44.3391 39.75 39.75 44.3391 39.75 50C39.75 55.6609 44.3391 60.25 50 60.25C55.6609 60.25 60.25 55.6609 60.25 50C60.25 44.3391 55.6609 39.75 50 39.75Z" fill="black"/>
</g>
<defs>
<clipPath id="clip0_16036_401182">
<rect width="100" height="100" rx="50" fill="white"/>
</clipPath>
</defs>
</svg>
