<svg width="66" height="20" viewBox="0 0 66 20" fill="none" xmlns="http://www.w3.org/2000/svg">
<mask id="mask0_106_48195" style="mask-type:luminance" maskUnits="userSpaceOnUse" x="0" y="0" width="66" height="20">
<path d="M66.0004 0H0.133789V20H66.0004V0Z" fill="white"/>
</mask>
<g mask="url(#mask0_106_48195)">
<path d="M14.5051 6.51373L12.6003 8.41848L12.5051 8.51376L11.9003 9.11848L11.4527 9.57088L10.848 10.1756L10.7527 10.2661L10.4908 10.5328L10.3956 10.6233L9.50514 11.5138L9.40986 11.6042C9.14962 11.8641 8.85482 12.0868 8.5337 12.2661C8.38042 12.3518 8.2213 12.4266 8.05754 12.4899C7.68866 12.6329 7.29996 12.718 6.90513 12.7423C6.66593 12.7637 6.42529 12.7637 6.18609 12.7423C5.66377 12.6855 5.15837 12.5235 4.70037 12.2661C4.49297 12.1587 4.3008 12.0242 4.12894 11.8661L4.01941 11.7566L0.54799 8.25184L0.476558 8.1804C0.414726 8.11352 0.360434 8.04008 0.314654 7.96134C0.195537 7.75942 0.133029 7.52912 0.133701 7.29468C0.131214 7.25822 0.131214 7.22162 0.133701 7.18515C0.133701 7.12801 0.133701 7.07086 0.133701 7.01849V6.95658C0.180247 6.78346 0.261226 6.6215 0.371797 6.48039C0.401014 6.44326 0.432846 6.40825 0.467038 6.37563L0.528942 6.31373L4.26704 2.62325L6.50513 0.389916C6.74327 0.151374 7.06318 0.0122677 7.40005 0.000773425C7.7369 -0.0107209 8.06554 0.106257 8.31938 0.328011L14.5051 6.51373Z" fill="#005BAA"/>
<path d="M7.77836 14.8192C7.47719 14.8181 7.17983 14.7515 6.90696 14.624L6.19743 13.9192L6.02125 13.7477L5.99267 13.7144L5.6641 13.3859L4.01172 11.7144L4.12125 11.824C4.29429 11.9841 4.48809 12.1202 4.69743 12.2287C5.15544 12.4861 5.66084 12.6481 6.18315 12.7049C6.42235 12.7263 6.66299 12.7263 6.9022 12.7049C7.29702 12.6806 7.68572 12.5955 8.0546 12.4525C8.21836 12.3892 8.37748 12.3144 8.53076 12.2287C8.85188 12.0494 9.14668 11.8267 9.40692 11.5668L9.5022 11.4764L10.3927 10.5859L10.4879 10.4954L10.7498 10.2287L10.8451 10.1382L11.4498 9.53348L11.8974 9.08108L12.5165 8.50964L12.6117 8.41444L16.4451 4.6049L18.0165 2.85727L18.1022 2.77632C18.3343 2.54514 18.6484 2.41534 18.976 2.41534C19.3036 2.41534 19.6178 2.54514 19.8498 2.77632L20.7165 3.64299H20.7451C20.5506 3.63487 20.3564 3.66659 20.1747 3.73619C19.9929 3.8058 19.8272 3.91182 19.6879 4.04775L16.7593 6.9049L16.7308 6.93822L11.6451 12.0049L9.76412 13.8477L9.6498 13.9668C9.3938 14.2153 9.09964 14.4211 8.77836 14.5764C8.5998 14.663 8.411 14.727 8.21652 14.7668C8.10508 14.7901 7.99204 14.8044 7.87836 14.8096L7.77836 14.8192Z" fill="#ED1C24"/>
<path d="M25.4106 10.0808L25.3154 10.176L21.1678 14.3855L16.8011 18.8093C16.6654 18.9463 16.5189 19.072 16.363 19.1855L16.3011 19.2284C15.542 19.7708 14.6176 20.0318 13.6869 19.9667C12.7562 19.9015 11.8772 19.5141 11.2011 18.8712L11.0868 18.8045L10.3392 18.0569L8.22968 15.9474L7.52492 15.2379L7.42969 15.1379C7.54298 15.1568 7.65768 15.1664 7.77256 15.1664H7.87256C8.00712 15.1608 8.14104 15.1432 8.27256 15.1141C8.4956 15.0699 8.71176 14.9962 8.91536 14.895C9.26632 14.7208 9.58768 14.4927 9.86776 14.2188L9.99632 14.0808L11.6154 12.4903L17.1821 7.01409L17.2106 6.97599L19.944 4.32837C20.1215 4.15817 20.3518 4.05361 20.5969 4.03197C20.8418 4.01032 21.087 4.07289 21.2916 4.20933L21.9297 4.85218L25.4058 8.33317C25.4369 8.36261 25.4656 8.39445 25.4916 8.42837C25.6853 8.66485 25.7842 8.96485 25.7693 9.27013C25.7543 9.57549 25.6265 9.86437 25.4106 10.0808Z" fill="#ED1C24"/>
<path d="M11.9726 5.47267C11.9233 5.51819 11.8587 5.54346 11.7916 5.54346C11.7246 5.54346 11.6599 5.51819 11.6106 5.47267C11.2195 5.07902 10.7546 4.76626 10.2426 4.55226C9.73065 4.33826 9.18145 4.22721 8.62649 4.22544C7.50577 4.22187 6.4295 4.66366 5.63449 5.45362C4.83947 6.24359 4.39082 7.31702 4.38725 8.43778C4.38368 9.5585 4.82547 10.6348 5.61544 11.4298L6.90115 12.7251C6.90252 12.7345 6.90252 12.7442 6.90115 12.7536C6.66831 12.7751 6.43399 12.7751 6.20115 12.7536L5.24877 11.8012C4.36472 10.9109 3.87057 9.70578 3.87503 8.45106C3.8795 7.19637 4.38221 5.99482 5.27258 5.11077C6.16295 4.22671 7.36805 3.73257 8.62273 3.73703C9.87745 3.74149 11.079 4.24421 11.963 5.13457C12.0062 5.17976 12.031 5.23934 12.0328 5.30179C12.0346 5.36425 12.0131 5.42513 11.9726 5.47267Z" fill="#009EDB"/>
<path d="M13.9427 7.09084L13.5855 7.44323L12.9617 6.81465C12.9383 6.79121 12.9196 6.76338 12.9069 6.73274C12.8942 6.7021 12.8877 6.66925 12.8877 6.63608C12.8877 6.60292 12.8942 6.57007 12.9069 6.53943C12.9196 6.50879 12.9383 6.48096 12.9617 6.45752C12.9851 6.43404 13.013 6.41543 13.0436 6.40272C13.0743 6.39002 13.1071 6.38348 13.1403 6.38348C13.1735 6.38348 13.2063 6.39002 13.2369 6.40272C13.2675 6.41543 13.2954 6.43404 13.3188 6.45752L13.9427 7.09084Z" fill="#009EDB"/>
<path d="M8.5525 12.2577C8.39946 12.3424 8.24026 12.4156 8.07634 12.4768L6.32392 10.7244C5.79258 10.1892 5.46472 9.48523 5.39691 8.73411C5.3291 7.98301 5.5256 7.23178 5.9525 6.61006C5.99099 6.55524 6.04934 6.51761 6.11515 6.50515C6.18096 6.4927 6.24903 6.50642 6.30488 6.54339C6.33215 6.56241 6.35539 6.58663 6.37327 6.61466C6.39114 6.64269 6.40331 6.67398 6.40906 6.70672C6.41481 6.73946 6.41404 6.77302 6.40679 6.80546C6.39953 6.8379 6.38593 6.86859 6.36679 6.89577C6.00692 7.42053 5.84142 8.05435 5.89879 8.68811C5.95616 9.32179 6.23282 9.91563 6.68107 10.3672L8.5525 12.2577Z" fill="#009EDB"/>
<path d="M12.8748 8.14281L12.6129 8.40473L12.5271 8.49041L10.5605 6.50471C10.2006 6.14321 9.7467 5.88963 9.25021 5.77265C8.75365 5.65569 8.23438 5.67998 7.75094 5.84281C7.71862 5.85774 7.68358 5.86569 7.64798 5.86612C7.61246 5.86654 7.57715 5.85945 7.54451 5.84529C7.51187 5.83113 7.48259 5.81022 7.4586 5.78395C7.43461 5.75768 7.41644 5.72663 7.40529 5.69285C7.39414 5.65905 7.39026 5.62329 7.3939 5.5879C7.39755 5.55251 7.40864 5.51829 7.42644 5.48749C7.44424 5.45668 7.46835 5.42998 7.49719 5.40915C7.52604 5.38832 7.55896 5.37382 7.5938 5.36661C8.16381 5.17973 8.7747 5.1556 9.35766 5.29693C9.94062 5.43825 10.4726 5.73945 10.8938 6.16661L12.8748 8.14281Z" fill="#009EDB"/>
<path d="M11.823 9.19992L11.4658 9.55712L9.4896 7.56662C9.2516 7.37149 8.94936 7.27203 8.64192 7.28764C8.33456 7.30326 8.044 7.43283 7.82688 7.65108C7.60984 7.86932 7.48187 8.16056 7.46794 8.46808C7.454 8.7756 7.55511 9.07728 7.75152 9.31424L9.02296 10.5952C9.07032 10.6426 9.09696 10.7068 9.09696 10.7738C9.09696 10.8407 9.07032 10.905 9.02296 10.9523C8.9756 10.9997 8.91136 11.0263 8.8444 11.0263C8.77744 11.0263 8.7132 10.9997 8.66584 10.9523L7.37059 9.67136C7.06836 9.33784 6.90645 8.90064 6.91861 8.45072C6.93075 8.0008 7.11602 7.57288 7.43581 7.25616C7.7556 6.93944 8.18528 6.75832 8.63528 6.75051C9.08528 6.7427 9.52096 6.90881 9.85152 7.21424L11.823 9.19992Z" fill="#009EDB"/>
<path d="M10.7657 10.2512L10.5038 10.5179L10.4181 10.5989L8.4324 8.61795C8.38504 8.57059 8.3584 8.50635 8.3584 8.43931C8.3584 8.37235 8.38504 8.30811 8.4324 8.26075C8.47976 8.21339 8.544 8.18683 8.61096 8.18683C8.67792 8.18683 8.74216 8.21339 8.78952 8.26075L10.7657 10.2512Z" fill="#009EDB"/>
<path fill-rule="evenodd" clip-rule="evenodd" d="M60.4574 10.1415L57.5145 5.92243L57.2193 5.65101H60.1336L62.1002 8.83675L62.2574 8.70811L63.4431 6.94148C63.5917 6.74848 63.6581 6.50461 63.6278 6.26293C63.5974 6.02125 63.4729 5.80132 63.2812 5.65101H66.0193L62.8526 10.1367V13.3939L63.4098 14.0605H59.9907L60.4669 13.4034C60.4669 12.3224 60.4288 11.2224 60.4669 10.1415H60.4574ZM52.4717 5.65101C52.6604 5.84645 52.7778 6.09973 52.805 6.37005C52.8237 6.53145 52.8025 6.69499 52.7431 6.84625L50.5574 13.1891C50.4129 13.5078 50.1999 13.7907 49.9336 14.0177H52.3145C52.1397 13.8743 52.0215 13.6735 51.9812 13.451C51.9382 13.2951 51.9382 13.1307 51.9812 12.9748L52.4574 11.47H55.2336L55.6669 12.6319C55.7106 12.7483 55.7379 12.87 55.7479 12.9939C55.7762 13.1915 55.7498 13.3932 55.6718 13.577C55.5938 13.7608 55.4669 13.9198 55.305 14.0367H59.0431C58.6745 13.7401 58.3713 13.3704 58.1526 12.951L55.4193 5.6272L52.4717 5.65101ZM54.8526 10.4129H52.8669L53.8193 7.67005L54.8431 10.4129H54.8526ZM44.8955 5.65577H49.0621C49.6667 5.65702 50.2462 5.89774 50.6737 6.32523C51.1011 6.75272 51.3418 7.33216 51.3431 7.93672V8.21771C51.3357 8.81643 51.0935 9.38835 50.6687 9.81051C50.2439 10.2326 49.6705 10.4711 49.0717 10.4748L48.0288 10.5081C48.4194 10.2951 48.7336 9.96523 48.9274 9.56475C49.1212 9.16435 49.185 8.71331 49.1098 8.27483C49.0288 7.57005 48.6669 6.89386 48.0621 6.87957H47.6812V13.1224C47.6794 13.2227 47.7094 13.3211 47.7669 13.4034C47.8811 13.5824 48.0085 13.7527 48.1479 13.9129L48.2574 14.0463H45.0193L45.1574 13.8605C45.2589 13.7269 45.3436 13.5814 45.4098 13.4272C45.4516 13.3378 45.4728 13.2402 45.4717 13.1415V6.42243C45.4574 6.07005 45.1097 5.87005 44.8955 5.65577Z" fill="#005BAA"/>
<path fill-rule="evenodd" clip-rule="evenodd" d="M27.3477 5.61414H29.9619L32.1572 11.9046L34.0191 6.69509C34.053 6.54319 34.0257 6.38404 33.9429 6.25223C33.8429 6.03794 33.7333 5.83318 33.6286 5.62366H35.5809C35.4667 6.04747 35.2953 6.51414 35.1477 6.9427L32.6238 14.2856C31.8661 14.1643 31.1571 13.8346 30.5762 13.3332C30.186 12.9134 29.9033 12.4052 29.7524 11.8522L27.6429 6.23794C27.559 6.02342 27.4604 5.81498 27.3477 5.61414ZM37.7857 8.57127V13.0666C37.7857 13.2474 37.8286 13.2808 37.9429 13.4284L38.4572 14.0998H35.9953L36.4096 13.4666C36.5111 13.3434 36.5652 13.188 36.5619 13.0284V6.73794L35.8714 5.61414H38.4238L42.5524 10.9522V6.71414C42.5569 6.55374 42.5046 6.3969 42.4048 6.27128C42.2667 6.05699 42.1191 5.85223 41.9809 5.6427H44.4191L43.9429 6.29509C43.8286 6.43794 43.7857 6.47128 43.7857 6.65699V14.2856C43.2869 14.2597 42.7996 14.1269 42.3567 13.8959C41.9138 13.665 41.5258 13.3416 41.2191 12.9474L37.7857 8.57127Z" fill="#ED1C24"/>
<path d="M29.9606 16.9323C29.9606 17.2656 30.1034 17.4419 30.4701 17.4419C30.6132 17.4419 30.7552 17.416 30.8891 17.3656C30.9558 17.3371 30.9749 17.3656 30.9749 17.4275V17.4656C30.9749 17.5228 30.9749 17.5466 30.8891 17.5799C30.7574 17.6316 30.6164 17.6559 30.4749 17.6514C29.9701 17.6514 29.732 17.4275 29.732 16.9323V16.4561C29.7178 16.3557 29.7272 16.2534 29.7592 16.1571C29.7912 16.0609 29.8451 15.9734 29.9166 15.9014C29.9881 15.8295 30.0752 15.7751 30.1713 15.7424C30.2673 15.7098 30.3696 15.6998 30.4701 15.7133C30.6085 15.7142 30.7456 15.7399 30.8749 15.7895C30.9415 15.8133 30.9558 15.8419 30.9558 15.899V15.9371C30.9558 16.0085 30.9272 16.0275 30.8654 16.0038C30.7374 15.9491 30.5997 15.9215 30.4606 15.9228C30.1082 15.9228 29.9844 16.0942 29.9844 16.4656L29.9606 16.9323Z" fill="#009EDB"/>
<path d="M30.4758 17.6569C29.9663 17.6569 29.7282 17.4235 29.7282 16.933V16.4569C29.7139 16.356 29.7232 16.2531 29.7556 16.1565C29.7878 16.0598 29.8421 15.972 29.9142 15.9C29.9862 15.8279 30.074 15.7736 30.1707 15.7413C30.2673 15.709 30.3702 15.6997 30.4711 15.714C30.6095 15.7149 30.7466 15.7407 30.8758 15.7901C30.9472 15.8187 30.9616 15.8473 30.9616 15.9045V15.9425C30.9616 15.9806 30.9616 16.0045 30.9616 16.014C30.9616 16.0235 30.9235 16.014 30.8901 16.014C30.7612 15.9632 30.6239 15.9373 30.4853 15.9378C30.1425 15.9378 30.0092 16.1045 30.0092 16.4759V16.9521C30.0092 17.2997 30.1616 17.4569 30.514 17.4569C30.6556 17.4587 30.7964 17.4329 30.9282 17.3806C30.9663 17.3806 30.9853 17.3806 30.9996 17.3806C31.014 17.3806 30.9996 17.414 30.9996 17.4521V17.4901C30.9996 17.5521 30.9996 17.5759 30.914 17.6045C30.774 17.656 30.624 17.6739 30.4758 17.6569ZM30.4758 15.7187C30.3747 15.7041 30.2715 15.7133 30.1745 15.7459C30.0776 15.7784 29.9896 15.8333 29.9179 15.906C29.846 15.9788 29.7923 16.0674 29.761 16.1647C29.7297 16.2621 29.7217 16.3653 29.7377 16.4664V16.9425C29.7377 17.4187 29.9758 17.6569 30.4806 17.6569C30.6208 17.6648 30.7609 17.6404 30.8901 17.5854C30.9616 17.5569 30.9758 17.533 30.9758 17.4759V17.4283C30.9758 17.3901 30.9758 17.3711 30.9758 17.3616C30.9758 17.3521 30.9472 17.3616 30.914 17.3616C30.7804 17.4138 30.6382 17.4397 30.4948 17.4378C30.1425 17.4378 29.9806 17.2806 29.9806 16.9283V16.4521C29.9806 16.0759 30.1377 15.9092 30.4853 15.9092C30.6256 15.9069 30.7648 15.9329 30.8948 15.9854C30.9235 15.9854 30.9425 15.9854 30.9568 15.9854C30.9615 15.9749 30.964 15.9636 30.964 15.9521C30.964 15.9405 30.9615 15.9292 30.9568 15.9187V15.8806C30.9568 15.8283 30.9568 15.7997 30.8711 15.7711C30.7424 15.7277 30.6068 15.7083 30.4711 15.714L30.4758 15.7187Z" fill="#009EDB"/>
<path d="M31.2861 15.7137C31.2861 15.6328 31.2861 15.6185 31.3766 15.6185H31.4099C31.4861 15.6185 31.5004 15.6185 31.5004 15.7137V16.3852C31.5557 16.3137 31.6287 16.258 31.7123 16.2237C31.7959 16.1894 31.8871 16.1777 31.9766 16.1899C32.3147 16.1899 32.5147 16.3328 32.5147 16.6661V17.5233C32.5147 17.5994 32.5147 17.6137 32.4242 17.6137H32.3861C32.3099 17.6137 32.2957 17.6137 32.2957 17.5233V16.6994C32.2957 16.4709 32.1957 16.3709 31.9242 16.3709C31.6528 16.3709 31.5242 16.4804 31.5242 16.7471V17.5328C31.5242 17.6089 31.5242 17.6233 31.4337 17.6233H31.4004C31.329 17.6233 31.3099 17.6233 31.3099 17.5328L31.2861 15.7137Z" fill="#009EDB"/>
<path d="M32.3991 17.6189H32.361C32.2848 17.6189 32.2705 17.6189 32.2705 17.5237V16.6998C32.2705 16.4665 32.161 16.3761 31.8991 16.3761C31.6371 16.3761 31.5039 16.4856 31.5039 16.7474V17.5332C31.5039 17.6093 31.5039 17.6284 31.4086 17.6284H31.3752C31.2991 17.6284 31.28 17.6284 31.28 17.5332V15.7141C31.28 15.6284 31.28 15.6141 31.3752 15.6141H31.4086C31.4848 15.6141 31.5039 15.6141 31.5039 15.7141V16.3761C31.5596 16.3054 31.6329 16.2506 31.7165 16.2172C31.8 16.1837 31.8909 16.1729 31.98 16.1856C32.3371 16.1856 32.5181 16.3569 32.5181 16.6998V17.5569C32.5134 17.6189 32.48 17.6189 32.3991 17.6189ZM31.8991 16.3569C32.1657 16.3569 32.2752 16.4569 32.2752 16.6903V17.5237C32.2752 17.5998 32.2752 17.6093 32.361 17.6093H32.3991C32.4752 17.6093 32.4895 17.6093 32.4895 17.5237V16.6665C32.4895 16.3284 32.3086 16.1617 31.9562 16.1617C31.8665 16.1453 31.7739 16.1549 31.6895 16.1895C31.6051 16.2241 31.5323 16.2822 31.48 16.3569V15.7141C31.48 15.6379 31.48 15.6237 31.3943 15.6237H31.361C31.2895 15.6237 31.2705 15.6237 31.2705 15.7141V17.5569C31.2705 17.6332 31.2705 17.6427 31.361 17.6427H31.3943C31.4705 17.6427 31.48 17.6427 31.48 17.5569V16.7474C31.4943 16.4808 31.6181 16.3665 31.8991 16.3665V16.3569Z" fill="#009EDB"/>
<path d="M32.8008 17.0437V16.7771C32.8008 16.3723 33.0151 16.1675 33.4389 16.1675C33.8627 16.1675 34.0722 16.3771 34.0722 16.7771V17.0437C34.0722 17.4532 33.8627 17.6532 33.4389 17.6532C33.0151 17.6532 32.8008 17.4437 32.8008 17.0437ZM33.8532 16.7771C33.8532 16.4961 33.7532 16.3723 33.4389 16.3723C33.1246 16.3723 33.0198 16.4961 33.0198 16.7771V17.0437C33.0198 17.3247 33.1246 17.4485 33.4389 17.4485C33.7532 17.4485 33.8532 17.3247 33.8532 17.0437V16.7771Z" fill="#009EDB"/>
<path d="M33.4397 17.6567C33.0016 17.6567 32.8016 17.4615 32.8016 17.0425V16.7758C32.7935 16.6898 32.8032 16.6032 32.8303 16.5212C32.8573 16.4393 32.9011 16.3638 32.9588 16.2996C33.0927 16.1907 33.2627 16.1362 33.435 16.1472C33.8683 16.1472 34.0683 16.3425 34.0683 16.7615V17.0282C34.0812 17.1137 34.0739 17.201 34.0468 17.2832C34.0198 17.3654 33.9739 17.44 33.9127 17.5011C33.8515 17.5622 33.7769 17.6082 33.6947 17.6353C33.6126 17.6622 33.5252 17.6696 33.4397 17.6567ZM33.4397 16.171C33.2679 16.1573 33.0975 16.2102 32.9635 16.3186C32.9048 16.3822 32.8604 16.4575 32.8333 16.5397C32.8062 16.6218 32.797 16.7089 32.8064 16.7948V17.0615C32.8064 17.4758 33.0064 17.6662 33.4397 17.6662C33.6117 17.6815 33.7827 17.6285 33.9159 17.5186C33.9747 17.4551 34.0191 17.3798 34.0462 17.2976C34.0733 17.2154 34.0824 17.1285 34.0731 17.0425V16.7758C34.0683 16.3615 33.8683 16.1901 33.4397 16.1901V16.171ZM33.4397 17.452C33.135 17.452 33.0159 17.3377 33.0159 17.0425V16.7758C33.0159 16.4806 33.1302 16.3662 33.4397 16.3662C33.7493 16.3662 33.8588 16.4806 33.8588 16.7758V17.0425C33.8588 17.3425 33.7445 17.452 33.4397 17.452ZM33.4397 16.3758C33.135 16.3758 33.0255 16.4806 33.0255 16.7758V17.0425C33.0255 17.333 33.1397 17.4425 33.4397 17.4425C33.7397 17.4425 33.854 17.3377 33.854 17.0425V16.7758C33.854 16.4806 33.7397 16.3758 33.4397 16.3758Z" fill="#009EDB"/>
<path d="M35.125 16.7657C35.125 16.3848 35.3297 16.1657 35.7726 16.1657C35.8584 16.1629 35.9439 16.1759 36.025 16.2038C36.0964 16.2038 36.1155 16.2467 36.1155 16.3133V16.3419C36.1155 16.4133 36.1155 16.4372 36.025 16.4133C35.9459 16.3837 35.8619 16.3692 35.7774 16.3704C35.4536 16.3704 35.344 16.4991 35.344 16.7704V17.0514C35.344 17.3419 35.4726 17.4467 35.8202 17.4467C35.9076 17.4498 35.9947 17.4369 36.0774 17.4086C36.144 17.3848 36.1631 17.4086 36.1631 17.48V17.5086C36.1631 17.5704 36.1631 17.5943 36.0726 17.6133C35.9849 17.6412 35.8932 17.6541 35.8012 17.6514C35.3584 17.6514 35.1488 17.4609 35.1488 17.0514L35.125 16.7657Z" fill="#009EDB"/>
<path d="M35.7767 17.6582C35.6053 17.6682 35.4361 17.6157 35.3004 17.5106C35.2406 17.4476 35.1952 17.3724 35.1672 17.2903C35.1392 17.208 35.1295 17.1207 35.1385 17.0343V16.7487C35.1334 16.6676 35.1451 16.5864 35.173 16.5102C35.2008 16.4339 35.2443 16.3643 35.3004 16.3058C35.4317 16.1913 35.6027 16.1331 35.7767 16.1439C35.8623 16.1431 35.9475 16.1559 36.029 16.1819C36.1052 16.1819 36.1195 16.2296 36.1195 16.2963V16.3248C36.1195 16.3677 36.1195 16.3915 36.1195 16.4011C36.1085 16.4068 36.0963 16.4099 36.0838 16.4099C36.0713 16.4099 36.0591 16.4068 36.048 16.4011C35.968 16.3757 35.8844 16.3628 35.8004 16.3629C35.4909 16.3629 35.3672 16.4772 35.3672 16.7582V17.0391C35.3672 17.3248 35.4909 17.4296 35.8433 17.4296C35.9307 17.4331 36.0179 17.4203 36.1004 17.3915C36.1338 17.3915 36.1528 17.3915 36.1672 17.3915C36.1814 17.3915 36.1909 17.4248 36.1909 17.4677V17.4963C36.1909 17.5629 36.1909 17.5867 36.0957 17.6058C35.9933 17.6422 35.8852 17.6599 35.7767 17.6582ZM35.7767 16.1724C35.3528 16.1724 35.1338 16.3772 35.1338 16.7677V17.0534C35.1338 17.4629 35.3385 17.6487 35.7814 17.6487C35.873 17.6507 35.9644 17.6394 36.0528 17.6153C36.1243 17.6153 36.1433 17.5724 36.1433 17.5106V17.4819C36.1433 17.4439 36.1433 17.4201 36.1433 17.4106C36.1433 17.4011 36.11 17.4106 36.0814 17.4106C35.9966 17.4366 35.9083 17.4495 35.8195 17.4487C35.4909 17.4487 35.3433 17.3343 35.3433 17.0487V16.7677C35.3433 16.4819 35.4719 16.3629 35.7814 16.3629C35.8659 16.362 35.9498 16.3766 36.029 16.4058C36.0624 16.4058 36.0814 16.4058 36.0957 16.4058C36.1099 16.4058 36.0957 16.3724 36.0957 16.3343V16.3058C36.0957 16.2439 36.0957 16.2201 36.01 16.1963C35.9312 16.1832 35.8511 16.1816 35.7719 16.1915L35.7767 16.1724Z" fill="#009EDB"/>
<path d="M36.5613 17.109C36.5613 17.3375 36.6566 17.447 36.947 17.447C37.2375 17.447 37.3328 17.3423 37.3328 17.109V16.2851C37.3328 16.2138 37.3328 16.1946 37.428 16.1946H37.4566C37.5375 16.1946 37.5518 16.1946 37.5518 16.2851V17.109C37.5518 17.4614 37.3756 17.6518 36.947 17.6518C36.5184 17.6518 36.3232 17.4709 36.3232 17.109V16.2851C36.3232 16.2138 36.3232 16.1946 36.4184 16.1946H36.447C36.528 16.1946 36.5423 16.1946 36.5423 16.2851L36.5613 17.109Z" fill="#009EDB"/>
<path d="M36.9475 17.6569C36.5475 17.6569 36.3428 17.4713 36.3428 17.1093V16.2855C36.3428 16.2141 36.3428 16.1903 36.4333 16.1903H36.4666C36.5475 16.1903 36.5618 16.1903 36.5618 16.2855V17.1093C36.5618 17.3522 36.6713 17.4427 36.9475 17.4427C37.2237 17.4427 37.3285 17.3522 37.3285 17.1093V16.2855C37.3285 16.2141 37.3285 16.1903 37.4285 16.1903H37.457C37.5428 16.1903 37.5523 16.1903 37.5523 16.2855V17.1093C37.559 17.1827 37.5502 17.2567 37.5265 17.3265C37.5026 17.3962 37.4644 17.4601 37.4142 17.5141C37.2825 17.6194 37.1156 17.6705 36.9475 17.6569ZM36.4333 16.1903C36.3666 16.1903 36.3475 16.1903 36.3475 16.276V17.0998C36.3411 17.174 36.3509 17.2486 36.3765 17.3185C36.402 17.3885 36.4425 17.452 36.4952 17.5045C36.6305 17.6093 36.8013 17.6572 36.9713 17.6379C37.0559 17.6473 37.1415 17.6399 37.2232 17.6162C37.3049 17.5925 37.3811 17.5529 37.4475 17.4998C37.4979 17.4469 37.5362 17.3838 37.5601 17.3149C37.5839 17.2458 37.5926 17.1725 37.5857 17.0998V16.2855C37.5857 16.2189 37.5857 16.1998 37.4952 16.1998H37.4666C37.3952 16.1998 37.3761 16.1998 37.3761 16.2855V17.1093C37.3761 17.3569 37.2665 17.4522 36.9857 17.4522C36.7047 17.4522 36.5952 17.3569 36.5952 17.1093V16.2855C36.5952 16.2189 36.5952 16.1998 36.5047 16.1998L36.4333 16.1903Z" fill="#009EDB"/>
<path d="M37.8418 17.0423V16.7757C37.8418 16.3709 38.0513 16.1662 38.4799 16.1662C38.9084 16.1662 39.1084 16.3757 39.1084 16.7757V17.0423C39.1084 17.4519 38.8989 17.6519 38.4799 17.6519C38.0608 17.6519 37.8418 17.4423 37.8418 17.0423ZM38.8942 16.7757C38.8942 16.4947 38.7942 16.371 38.4799 16.371C38.1656 16.371 38.056 16.4947 38.056 16.7757V17.0423C38.056 17.3233 38.1656 17.4471 38.4799 17.4471C38.7942 17.4471 38.8942 17.3233 38.8942 17.0423V16.7757ZM38.2752 15.7852C38.3418 15.6805 38.3847 15.6423 38.4799 15.6423C38.5752 15.6423 38.6132 15.671 38.6847 15.7852L38.7942 15.9567C38.8275 16.0091 38.7942 16.0233 38.756 16.0233C38.7316 16.0273 38.7065 16.0229 38.6849 16.0108C38.6632 15.9987 38.6464 15.9796 38.637 15.9567L38.5704 15.8423C38.5275 15.7614 38.4799 15.7614 38.4323 15.8423L38.3704 15.9567C38.3604 15.9791 38.3433 15.9977 38.3219 16.0097C38.3004 16.0217 38.2757 16.0265 38.2513 16.0233H38.2228C38.1656 16.0233 38.156 16.0233 38.1894 15.9567L38.2752 15.7852ZM38.3799 17.9091C38.4 17.8895 38.4255 17.8763 38.4531 17.8711C38.4807 17.8659 38.5092 17.8689 38.5351 17.8798C38.5609 17.8907 38.583 17.9091 38.5986 17.9324C38.6141 17.9559 38.6224 17.9833 38.6224 18.0114C38.6224 18.0395 38.6141 18.067 38.5986 18.0903C38.583 18.1138 38.5609 18.1321 38.5351 18.1431C38.5092 18.1539 38.4807 18.157 38.4531 18.1518C38.4255 18.1466 38.4 18.1334 38.3799 18.1138C38.3662 18.1005 38.3553 18.0846 38.3479 18.067C38.3405 18.0494 38.3367 18.0305 38.3367 18.0114C38.3367 17.9923 38.3405 17.9735 38.3479 17.9559C38.3553 17.9383 38.3662 17.9223 38.3799 17.9091Z" fill="#009EDB"/>
<path d="M38.4831 18.1562C38.4456 18.155 38.41 18.1396 38.3835 18.113C38.3569 18.0866 38.3415 18.0509 38.3403 18.0134C38.3396 17.9939 38.3431 17.9745 38.3505 17.9564C38.3579 17.9383 38.369 17.9221 38.3831 17.9086C38.3957 17.8946 38.4111 17.8835 38.4284 17.8761C38.4457 17.8687 38.4643 17.8652 38.4831 17.8658C38.5223 17.8658 38.5599 17.8813 38.5875 17.909C38.6152 17.9367 38.6307 17.9742 38.6307 18.0134C38.6314 18.0322 38.6279 18.0509 38.6204 18.0682C38.6131 18.0854 38.6019 18.1009 38.5879 18.1134C38.5741 18.127 38.5578 18.1379 38.5398 18.1453C38.5219 18.1526 38.5026 18.1563 38.4831 18.1562ZM38.4831 17.8706C38.4644 17.8706 38.4459 17.8743 38.4287 17.8817C38.4115 17.889 38.396 17.8998 38.3831 17.9134C38.3579 17.9405 38.3443 17.9764 38.3451 18.0134C38.3452 18.0502 38.3591 18.0854 38.3835 18.113C38.4107 18.1382 38.4461 18.1524 38.4831 18.1524C38.5202 18.1524 38.5559 18.1385 38.5831 18.1134C38.5967 18.1005 38.6075 18.085 38.6148 18.0678C38.6222 18.0506 38.626 18.0321 38.626 18.0134C38.6248 17.9758 38.6094 17.9402 38.5828 17.9137C38.5563 17.8871 38.5207 17.8717 38.4831 17.8706ZM38.4831 17.6562C38.0451 17.6562 37.8403 17.461 37.8403 17.0419V16.7753C37.8327 16.689 37.8432 16.6022 37.8711 16.5202C37.899 16.4382 37.9436 16.3629 38.0022 16.2991C38.1356 16.1894 38.306 16.1348 38.4784 16.1467C38.9117 16.1467 39.1117 16.3419 39.1117 16.761V17.0277C39.1246 17.1132 39.1172 17.2006 39.0903 17.2826C39.0632 17.3648 39.0172 17.4394 38.9561 17.5006C38.895 17.5618 38.8203 17.6077 38.7382 17.6347C38.656 17.6618 38.5687 17.6691 38.4831 17.6562ZM38.4831 16.1706C38.3112 16.1558 38.1404 16.2087 38.007 16.3182C37.9483 16.3817 37.9038 16.457 37.8767 16.5392C37.8496 16.6214 37.8404 16.7083 37.8498 16.7943V17.061C37.8498 17.4753 38.0498 17.6658 38.4831 17.6658C38.655 17.68 38.8257 17.6271 38.9593 17.5182C39.0181 17.4546 39.0625 17.3793 39.0896 17.2971C39.1167 17.215 39.1259 17.1279 39.1165 17.0419V16.7753C39.1117 16.361 38.9117 16.1896 38.4831 16.1896V16.1706ZM38.4831 17.4514C38.1784 17.4514 38.0593 17.3372 38.0593 17.0419V16.7753C38.0593 16.4801 38.1736 16.3658 38.4831 16.3658C38.7927 16.3658 38.8975 16.4801 38.8975 16.7753V17.0419C38.8975 17.3419 38.7879 17.4514 38.4831 17.4514ZM38.4831 16.3753C38.1784 16.3753 38.0641 16.4801 38.0641 16.7753V17.0419C38.0641 17.3324 38.1831 17.4419 38.4831 17.4419C38.7831 17.4419 38.8927 17.3372 38.8927 17.0419V16.7753C38.8927 16.4801 38.7831 16.3753 38.4831 16.3753ZM38.7594 16.0277C38.7343 16.0314 38.7087 16.0262 38.6871 16.0132C38.6654 16.0002 38.6488 15.9801 38.6403 15.9562L38.5736 15.8467C38.5736 15.8038 38.526 15.7848 38.507 15.7848C38.507 15.7848 38.4594 15.7848 38.4403 15.8467L38.3736 15.9562C38.3651 15.9801 38.3486 16.0002 38.3269 16.0132C38.3051 16.0262 38.2796 16.0314 38.2546 16.0277H38.226C38.1927 16.0277 38.1784 16.0277 38.1736 16.0277C38.1689 16.0277 38.1736 15.9991 38.1736 15.9753L38.2831 15.8038C38.3546 15.6991 38.3927 15.661 38.4927 15.661C38.5927 15.661 38.626 15.6896 38.6975 15.8038L38.807 15.9753C38.807 15.9991 38.8355 16.0182 38.807 16.0277C38.7784 16.0372 38.7927 16.0277 38.7594 16.0277ZM38.4831 15.7801C38.4831 15.7801 38.5307 15.7801 38.5546 15.8419L38.6212 15.9562C38.6297 15.9788 38.6457 15.9978 38.6665 16.0099C38.6874 16.0221 38.7117 16.0266 38.7355 16.0229C38.7689 16.0229 38.7831 16.0229 38.7879 16.0229C38.7927 16.0229 38.7879 16.0229 38.7879 15.9753L38.707 15.7896C38.6403 15.6753 38.5975 15.6467 38.507 15.6467C38.4165 15.6467 38.3736 15.6801 38.3022 15.7896L38.1927 15.961C38.1927 15.961 38.1927 15.9991 38.1927 16.0086C38.1927 16.0182 38.1927 16.0086 38.2403 16.0086H38.2307C38.2543 16.0107 38.2781 16.0054 38.2985 15.9935C38.319 15.9816 38.3353 15.9635 38.3451 15.9419L38.4117 15.8277C38.4355 15.7991 38.4593 15.7801 38.4831 15.7801Z" fill="#009EDB"/>
<path d="M39.3916 16.7657C39.3916 16.3848 39.5964 16.1657 40.0392 16.1657C40.125 16.1629 40.2105 16.1759 40.2916 16.2038C40.363 16.2038 40.3821 16.2467 40.3821 16.3133V16.3419C40.3821 16.4133 40.3821 16.4372 40.2916 16.4133C40.2126 16.3832 40.1285 16.3687 40.044 16.3704C39.7202 16.3704 39.6106 16.4991 39.6106 16.7704V17.0514C39.6106 17.3419 39.7392 17.4467 40.063 17.4467C40.1519 17.4495 40.2406 17.4365 40.325 17.4086C40.3916 17.3848 40.4106 17.4086 40.4106 17.48V17.5086C40.4106 17.5704 40.4106 17.5943 40.3154 17.6133C40.2294 17.6413 40.1391 17.6542 40.0487 17.6514C39.6011 17.6514 39.3916 17.4609 39.3916 17.0514V16.7657Z" fill="#009EDB"/>
<path d="M40.0472 17.6582C39.8756 17.67 39.7057 17.6173 39.5709 17.5106C39.51 17.4483 39.4638 17.3733 39.4358 17.2909C39.4077 17.2084 39.3986 17.1208 39.409 17.0343V16.7487C39.4033 16.6679 39.4142 16.587 39.4413 16.5107C39.4683 16.4346 39.5109 16.3647 39.5662 16.3058C39.6974 16.1913 39.8685 16.1331 40.0424 16.1439C40.1295 16.1435 40.2162 16.1563 40.2995 16.1819C40.3709 16.1819 40.3853 16.2296 40.3853 16.2963V16.3248C40.3853 16.3677 40.3853 16.3915 40.3853 16.4011C40.3742 16.4068 40.362 16.4099 40.3495 16.4099C40.3371 16.4099 40.3248 16.4068 40.3138 16.4011C40.2337 16.3757 40.1502 16.3628 40.0662 16.3629C39.7614 16.3629 39.6329 16.4772 39.6329 16.7582V17.0391C39.6329 17.3248 39.7567 17.4296 40.0853 17.4296C40.1726 17.4331 40.2598 17.4203 40.3424 17.3915C40.3537 17.3867 40.3658 17.3842 40.3781 17.3842C40.3904 17.3842 40.4025 17.3867 40.4138 17.3915C40.4138 17.3915 40.4138 17.4248 40.4138 17.4677V17.4963C40.4138 17.5629 40.4138 17.5867 40.3233 17.6058C40.2344 17.6368 40.1413 17.6545 40.0472 17.6582ZM40.0472 16.1724C39.6281 16.1724 39.4043 16.3772 39.4043 16.7677V17.0534C39.4043 17.4629 39.609 17.6487 40.0567 17.6487C40.1467 17.6502 40.2365 17.639 40.3233 17.6153C40.3948 17.6153 40.4138 17.5724 40.4138 17.5106V17.4819C40.4138 17.4439 40.4138 17.4201 40.4138 17.4106C40.4138 17.4011 40.3805 17.4106 40.3519 17.4106C40.2671 17.4366 40.1787 17.4495 40.09 17.4487C39.7614 17.4487 39.6138 17.3343 39.6138 17.0487V16.7677C39.6138 16.4819 39.7424 16.3629 40.0519 16.3629C40.1379 16.362 40.2234 16.3765 40.3043 16.4058C40.3376 16.4058 40.3567 16.4058 40.3662 16.4058C40.3757 16.4058 40.3662 16.3724 40.3662 16.3343V16.3058C40.3662 16.2439 40.3662 16.2201 40.2805 16.1963C40.2002 16.1825 40.1184 16.1809 40.0376 16.1915L40.0472 16.1724Z" fill="#009EDB"/>
<path d="M41.3662 17.4665C41.3662 17.3951 41.3662 17.376 41.4614 17.3903C41.5992 17.4306 41.7418 17.4514 41.8853 17.4522C42.109 17.4522 42.1995 17.4094 42.1995 17.2856C42.1995 17.1618 42.1519 17.1427 42.0138 17.076L41.6614 16.9094C41.4757 16.8189 41.39 16.7332 41.39 16.5332C41.39 16.3332 41.5614 16.1903 41.9043 16.1903C42.0269 16.1896 42.1489 16.2073 42.2662 16.2427C42.3329 16.2427 42.3519 16.2856 42.3519 16.3522V16.3808C42.3519 16.4522 42.3519 16.4665 42.2614 16.4474C42.1444 16.4108 42.0222 16.3931 41.8995 16.3951C41.6853 16.3951 41.6043 16.4379 41.6043 16.557C41.6043 16.676 41.6567 16.6998 41.7567 16.7474L42.1281 16.9142C42.3233 17.0094 42.4186 17.0951 42.4186 17.3046C42.4186 17.5142 42.2424 17.676 41.8709 17.676C41.7327 17.6778 41.5949 17.6601 41.4614 17.6237C41.3853 17.5998 41.3662 17.576 41.3662 17.5142V17.4665Z" fill="#009EDB"/>
<path d="M41.8709 17.6565C41.7308 17.6569 41.5914 17.6376 41.4567 17.5994C41.3852 17.5994 41.3662 17.5565 41.3662 17.4899C41.3662 17.4517 41.3662 17.428 41.3662 17.4184C41.3662 17.4089 41.4043 17.4184 41.4424 17.4184C41.5805 17.4564 41.723 17.4756 41.8662 17.4756C42.0948 17.4756 42.1805 17.4327 42.1805 17.3136C42.1805 17.1946 42.1376 17.1756 41.9948 17.1089L41.6376 16.9375C41.4614 16.8517 41.3662 16.766 41.3662 16.5613C41.3662 16.3565 41.5329 16.1899 41.8853 16.1899C42.0083 16.1875 42.1308 16.2068 42.2472 16.247C42.3186 16.247 42.3376 16.2899 42.3376 16.3565V16.3851C42.3464 16.4081 42.3464 16.4336 42.3376 16.4565C42.3132 16.4666 42.2858 16.4666 42.2614 16.4565C42.1465 16.4172 42.0257 16.3979 41.9043 16.3994C41.6948 16.3994 41.6138 16.447 41.6138 16.5613C41.6161 16.6037 41.6316 16.6444 41.658 16.6777C41.6845 16.711 41.7206 16.7352 41.7614 16.747L42.1328 16.9184C42.3233 17.0041 42.4233 17.0946 42.4233 17.3089C42.4233 17.5232 42.2424 17.6565 41.8709 17.6565ZM41.3948 17.3899H41.3662C41.3662 17.3899 41.3662 17.4232 41.3662 17.4565C41.3662 17.5184 41.3662 17.5422 41.4567 17.5613C41.5899 17.5985 41.7279 17.6161 41.8662 17.6136C42.2424 17.6136 42.409 17.5041 42.409 17.247C42.409 16.9899 42.309 16.947 42.1233 16.8613L41.7519 16.6899C41.7089 16.6788 41.6705 16.6544 41.6423 16.6202C41.6141 16.586 41.5974 16.5436 41.5948 16.4994C41.5948 16.3804 41.6804 16.3327 41.8948 16.3327C42.0177 16.3316 42.14 16.3509 42.2567 16.3899C42.29 16.3899 42.309 16.3899 42.3233 16.3899C42.3278 16.3793 42.3301 16.368 42.3301 16.3565C42.3301 16.3451 42.3278 16.3337 42.3233 16.3232V16.2946C42.3233 16.228 42.3233 16.2136 42.2376 16.1899C42.1208 16.1521 41.9984 16.1344 41.8757 16.1375C41.5281 16.1375 41.3662 16.2518 41.3662 16.4994C41.3662 16.747 41.4567 16.7851 41.6328 16.8708L41.9853 17.0422C42.1281 17.1089 42.1757 17.1613 42.1757 17.2517C42.1757 17.3422 42.09 17.4184 41.8567 17.4184C41.7119 17.4182 41.5678 17.399 41.4281 17.3613L41.3948 17.3899Z" fill="#009EDB"/>
<path d="M42.6943 17.044V16.7773C42.6943 16.3726 42.9086 16.1678 43.3324 16.1678C43.7563 16.1678 43.9658 16.3773 43.9658 16.7773V17.044C43.9658 17.4536 43.7563 17.6536 43.3324 17.6536C42.9086 17.6536 42.6943 17.444 42.6943 17.044ZM43.7467 16.7773C43.7467 16.4964 43.6515 16.3726 43.3324 16.3726C43.0134 16.3726 42.9134 16.4964 42.9134 16.7773V17.044C42.9134 17.325 43.0181 17.4488 43.3324 17.4488C43.6467 17.4488 43.7467 17.325 43.7467 17.044V16.7773ZM43.1276 15.7868C43.1991 15.6821 43.2372 15.644 43.3324 15.644C43.4276 15.644 43.4705 15.6726 43.5372 15.7868L43.6515 15.9583C43.6848 16.0107 43.6515 16.025 43.6134 16.025C43.5889 16.029 43.5639 16.0245 43.5422 16.0124C43.5206 16.0004 43.5037 15.9812 43.4943 15.9583L43.4276 15.844C43.38 15.7631 43.3324 15.7631 43.2895 15.844L43.2229 15.9583C43.1943 16.0155 43.1658 16.025 43.1039 16.025C43.0419 16.025 43.0324 16.025 43.0658 15.9583L43.1276 15.7868ZM43.8658 15.6155C43.8538 15.6374 43.8358 15.6554 43.8138 15.6672C43.7918 15.679 43.7668 15.6842 43.7419 15.6821H43.7134C43.6467 15.6821 43.6372 15.6821 43.6705 15.6107L43.7895 15.3773C43.8003 15.348 43.8209 15.3234 43.8479 15.3078C43.8748 15.2921 43.9064 15.2864 43.9372 15.2916H43.9658C44.0419 15.2916 44.0563 15.2916 44.0134 15.3726L43.8658 15.6155Z" fill="#009EDB"/>
<path d="M43.3333 17.6573C42.9 17.6573 42.6952 17.462 42.6952 17.043V16.7763C42.687 16.6904 42.6968 16.6037 42.7238 16.5217C42.7509 16.4398 42.7946 16.3643 42.8524 16.3001C42.9867 16.192 43.1564 16.1377 43.3285 16.1477C43.7619 16.1477 43.9666 16.343 43.9666 16.762V17.0286C43.9714 17.4525 43.7571 17.6573 43.3333 17.6573ZM43.3333 16.1715C43.1615 16.1578 42.991 16.2106 42.8571 16.3191C42.7984 16.3826 42.754 16.4581 42.7269 16.5402C42.6997 16.6223 42.6906 16.7094 42.7 16.7954V17.062C42.7 17.4763 42.9 17.6668 43.3333 17.6668C43.5053 17.682 43.6763 17.629 43.8095 17.5191C43.8682 17.4556 43.9126 17.3802 43.9397 17.2981C43.9669 17.2159 43.9761 17.129 43.9666 17.043V16.7763C43.9429 16.362 43.7619 16.1906 43.3333 16.1906V16.1715ZM43.3333 17.4525C43.0285 17.4525 42.9095 17.3382 42.9095 17.043V16.7763C42.9095 16.481 43.0238 16.3668 43.3333 16.3668C43.6429 16.3668 43.7524 16.481 43.7524 16.7763V17.043C43.7524 17.343 43.6381 17.4525 43.3333 17.4525ZM43.3333 16.3763C43.0285 16.3763 42.919 16.481 42.919 16.7763V17.043C42.919 17.3334 43.0333 17.443 43.3333 17.443C43.6333 17.443 43.7476 17.3382 43.7476 17.043V16.7763C43.7476 16.481 43.6333 16.3763 43.3333 16.3763ZM43.6143 16.0286C43.5886 16.0326 43.5623 16.0277 43.5398 16.0147C43.5173 16.0017 43.4999 15.9814 43.4905 15.9573L43.4238 15.8477C43.3809 15.7668 43.3381 15.7668 43.2905 15.8477L43.2285 15.9573C43.2191 15.9814 43.2017 16.0017 43.1792 16.0147C43.1567 16.0277 43.1305 16.0326 43.1048 16.0286C43.0714 16.0286 43.0524 16.0286 43.0476 16.0286C43.0429 16.0286 43.0476 16.0001 43.0476 15.9763L43.1571 15.8049C43.2238 15.7001 43.2666 15.662 43.3619 15.662C43.4571 15.662 43.5 15.6906 43.5714 15.8049L43.6809 15.9763C43.6809 16.0001 43.6809 16.0191 43.6809 16.0286C43.6809 16.0382 43.6476 16.0286 43.6143 16.0286ZM43.3333 15.781C43.3333 15.781 43.3809 15.781 43.4048 15.843L43.4714 15.9573C43.4814 15.9797 43.4985 15.9983 43.5199 16.0103C43.5413 16.0223 43.5661 16.027 43.5905 16.0239C43.619 16.0239 43.6381 16.0239 43.6429 16.0239C43.6476 16.0239 43.6429 16.0239 43.6429 15.9763L43.5333 15.8049C43.4619 15.6906 43.4238 15.662 43.3285 15.662C43.2333 15.662 43.1952 15.6954 43.1285 15.8049L43.019 15.9763C43.019 15.9763 43.019 16.0144 43.019 16.0239C43.019 16.0334 43.019 16.0239 43.0714 16.0239C43.0957 16.0263 43.1201 16.0213 43.1414 16.0094C43.1627 15.9974 43.1798 15.9792 43.1905 15.9573L43.2524 15.843C43.2857 15.8001 43.3095 15.781 43.3333 15.781ZM43.7429 15.6858H43.7143C43.6761 15.6858 43.6571 15.6858 43.6524 15.6858C43.6446 15.6659 43.6446 15.6438 43.6524 15.6239L43.7761 15.3906C43.7795 15.3723 43.7865 15.355 43.7969 15.3397C43.8073 15.3243 43.8207 15.3113 43.8364 15.3014C43.8521 15.2916 43.8697 15.2851 43.888 15.2824C43.9063 15.2798 43.925 15.2809 43.9429 15.2858H43.9714C44.0143 15.2858 44.0381 15.2858 44.0429 15.2858C44.0476 15.2858 44.0429 15.3191 44.0429 15.3573L43.9 15.5954C43.8876 15.6258 43.8654 15.6512 43.8369 15.6675C43.8085 15.6839 43.7753 15.6904 43.7429 15.6858ZM43.9381 15.2906C43.9081 15.2865 43.8776 15.2928 43.8516 15.3084C43.8257 15.3239 43.8057 15.3479 43.7952 15.3763L43.6714 15.6096C43.6714 15.643 43.6714 15.6573 43.6714 15.6668C43.6714 15.6763 43.6714 15.6668 43.7285 15.6668H43.7571C43.7823 15.6673 43.8072 15.6609 43.829 15.6483C43.8508 15.6358 43.8688 15.6174 43.8809 15.5954L44.0238 15.3573C44.0238 15.3239 44.0524 15.3049 44.0238 15.2954C43.9952 15.2858 43.9952 15.2954 43.9571 15.2954L43.9381 15.2906Z" fill="#009EDB"/>
<path d="M44.4915 17.5342C44.4915 17.6104 44.4915 17.6247 44.401 17.6247H44.3677C44.2963 17.6247 44.2725 17.6247 44.2725 17.5342V16.7104C44.2725 16.3485 44.4772 16.1675 44.882 16.1675C45.2868 16.1675 45.482 16.358 45.482 16.7104V17.5342C45.482 17.6104 45.482 17.6247 45.3915 17.6247H45.3725C45.2915 17.6247 45.2772 17.6247 45.2772 17.5342V16.7104C45.2772 16.4771 45.1868 16.3723 44.8963 16.3723C44.6058 16.3723 44.5058 16.4818 44.5058 16.7104L44.4915 17.5342Z" fill="#009EDB"/>
<path d="M45.3736 17.6194C45.2926 17.6194 45.2736 17.6194 45.2736 17.5242V16.7099C45.2736 16.4671 45.1736 16.3766 44.8974 16.3766C44.6212 16.3766 44.5116 16.4671 44.5116 16.7099V17.5337C44.5116 17.6099 44.5116 17.6289 44.4164 17.6289H44.3831C44.3116 17.6289 44.2879 17.6289 44.2879 17.5337V16.7099C44.2879 16.348 44.4926 16.1623 44.8974 16.1623C44.9823 16.1535 45.068 16.1617 45.1497 16.1862C45.2315 16.2107 45.3076 16.2511 45.3736 16.3051C45.4244 16.3588 45.4633 16.4227 45.488 16.4923C45.5125 16.5621 45.5223 16.6362 45.5164 16.7099V17.5337C45.4879 17.6194 45.4736 17.6194 45.3736 17.6194ZM44.8974 16.3671C45.1784 16.3671 45.2831 16.4623 45.2831 16.7099V17.5337C45.2831 17.6099 45.2831 17.6194 45.3736 17.6194C45.4498 17.6194 45.464 17.6194 45.464 17.5337V16.7099C45.4701 16.6369 45.4604 16.5635 45.4359 16.4944C45.4112 16.4255 45.3721 16.3626 45.3212 16.3099C45.1987 16.2208 45.0484 16.1786 44.8974 16.1908C44.7273 16.1716 44.5565 16.2195 44.4212 16.3242C44.3682 16.3767 44.3272 16.4401 44.3008 16.5099C44.2745 16.5798 44.2636 16.6545 44.2688 16.7289V17.5527C44.2688 17.6289 44.2688 17.6385 44.3593 17.6385H44.4212C44.4974 17.6385 44.5116 17.6385 44.5116 17.5527V16.7099C44.4926 16.4623 44.6021 16.3671 44.8974 16.3671Z" fill="#009EDB"/>
<path d="M46.9867 16.7035C46.9867 17.0369 46.7915 17.2083 46.3867 17.2083C46.2855 17.1972 46.1833 17.1972 46.082 17.2083C46.061 17.2118 46.042 17.223 46.0288 17.2398C46.0156 17.2565 46.0091 17.2775 46.0106 17.2988C46.0106 17.3369 46.0106 17.3655 46.0867 17.3798C46.1867 17.3875 46.2869 17.3875 46.3867 17.3798C46.5507 17.3683 46.7147 17.3994 46.863 17.4702C46.9124 17.5042 46.9518 17.5508 46.977 17.6053C47.0021 17.6598 47.0121 17.7201 47.0059 17.7798C47.0123 17.8443 47.0027 17.9094 46.9778 17.9692C46.9528 18.0291 46.9134 18.0818 46.863 18.1226C46.7167 18.1997 46.5517 18.2343 46.3867 18.2226C46.2219 18.2329 46.0574 18.1983 45.9106 18.1226C45.8638 18.0875 45.8266 18.0412 45.8024 17.9879C45.7783 17.9346 45.768 17.8762 45.7725 17.8179C45.7692 17.7559 45.7831 17.6943 45.8124 17.6397C45.8419 17.5851 45.8857 17.5397 45.9391 17.5083C45.9017 17.4933 45.8699 17.4667 45.8486 17.4325C45.8271 17.3982 45.8172 17.3581 45.8201 17.3179C45.8201 17.1893 45.8963 17.1131 46.0535 17.0893C45.9732 17.055 45.9062 16.9956 45.8624 16.9201C45.8187 16.8446 45.8005 16.7569 45.8106 16.6702V16.6655C45.8106 16.3511 46.0344 16.1893 46.4106 16.1893C46.5135 16.1871 46.6157 16.2065 46.7106 16.2464L46.8772 16.0988C46.9249 16.0559 46.9487 16.0559 46.9963 16.0988C47.0439 16.1416 47.0439 16.1654 46.9963 16.213L46.8677 16.3464C46.9095 16.389 46.9421 16.4397 46.9635 16.4954C46.9847 16.5511 46.9943 16.6106 46.9915 16.6702L46.9867 16.7035ZM46.1059 17.5893C46.0623 17.6113 46.0259 17.6455 46.0015 17.6878C45.977 17.7301 45.9652 17.7786 45.9677 17.8274C45.9677 18.0179 46.0772 18.0655 46.3867 18.0655C46.6963 18.0655 46.8059 18.0178 46.8059 17.8226C46.8059 17.6274 46.7011 17.6083 46.3867 17.6083C46.2928 17.6089 46.1989 17.6025 46.1059 17.5893ZM46.7677 16.6655C46.7677 16.4607 46.6391 16.3606 46.3867 16.3606C46.1344 16.3606 46.0011 16.4607 46.0011 16.6655V16.7035C46.0011 16.9083 46.0963 17.013 46.3867 17.013C46.6772 17.013 46.7677 16.9083 46.7677 16.7035V16.6655Z" fill="#009EDB"/>
<path d="M46.386 18.2583C46.2216 18.2708 46.0569 18.2379 45.9098 18.1631C45.8633 18.1267 45.8264 18.0795 45.8023 18.0255C45.7782 17.9715 45.7678 17.9125 45.7718 17.8536C45.768 17.7927 45.7806 17.7319 45.8082 17.6775C45.8358 17.6231 45.8775 17.577 45.9289 17.5441C45.8927 17.5277 45.8624 17.5007 45.842 17.4667C45.8216 17.4327 45.812 17.3932 45.8146 17.3536C45.8146 17.2266 45.8908 17.1504 46.0432 17.125C45.9643 17.0893 45.8987 17.0295 45.8559 16.9543C45.8132 16.8789 45.7954 16.792 45.805 16.7059V16.6679C45.8031 16.5979 45.8166 16.5283 45.8446 16.4641C45.8726 16.3999 45.9143 16.3427 45.967 16.2964C46.0949 16.2024 46.2513 16.1553 46.4098 16.1631C46.5127 16.1609 46.615 16.1803 46.7098 16.2203L46.8765 16.0774C46.9242 16.0298 46.9479 16.0298 46.9955 16.0774C47.0242 16.1012 47.0337 16.1155 47.0337 16.1346C47.0337 16.1536 47.0337 16.1679 46.9955 16.1964L46.867 16.325C46.9104 16.3666 46.9443 16.4171 46.9665 16.4729C46.9887 16.5288 46.9986 16.5888 46.9955 16.6488V16.6869C46.9955 17.0203 46.7908 17.1917 46.3908 17.1917C46.2895 17.1801 46.1873 17.1801 46.086 17.1917C46.0667 17.1961 46.0495 17.207 46.0374 17.2227C46.0252 17.2383 46.0189 17.2576 46.0194 17.2774C46.0194 17.3155 46.0432 17.3393 46.0908 17.3536C46.1906 17.3622 46.291 17.3622 46.3908 17.3536C46.5626 17.3379 46.7354 17.3692 46.8908 17.4441C46.9402 17.4779 46.9792 17.5247 47.0036 17.5793C47.0279 17.6339 47.0367 17.6943 47.0289 17.7536C47.0372 17.8189 47.0283 17.8853 47.0033 17.9463C46.9782 18.0071 46.9378 18.0606 46.886 18.1012C46.7374 18.1993 46.5641 18.2538 46.386 18.2583ZM46.386 16.1727C46.0146 16.1727 45.7908 16.3583 45.7908 16.6488V16.6869C45.781 16.773 45.7989 16.8599 45.8417 16.9352C45.8845 17.0105 45.95 17.0703 46.0289 17.1059C45.8718 17.1298 45.7955 17.2012 45.7955 17.3298C45.7946 17.3697 45.8054 17.409 45.8266 17.4428C45.8478 17.4767 45.8783 17.5035 45.9146 17.5203C45.8624 17.5515 45.8197 17.5963 45.7911 17.65C45.7626 17.7038 45.7493 17.7643 45.7527 17.825C45.749 17.8827 45.759 17.9406 45.7822 17.9936C45.8054 18.0467 45.841 18.0934 45.886 18.1298C46.0338 18.2022 46.1979 18.235 46.3622 18.225C46.5266 18.2373 46.6914 18.2043 46.8384 18.1298C46.8888 18.089 46.9282 18.0363 46.9532 17.9764C46.9782 17.9166 46.9878 17.8515 46.9813 17.7869C46.9882 17.7283 46.979 17.6691 46.9546 17.6153C46.9303 17.5616 46.8918 17.5155 46.8432 17.4822C46.6949 17.4115 46.5309 17.3803 46.367 17.3917C46.2657 17.4026 46.1635 17.4026 46.0622 17.3917C46.0428 17.3884 46.0252 17.3786 46.0122 17.3639C45.9991 17.3491 45.9916 17.3303 45.9908 17.3107C45.9894 17.2895 45.9958 17.2684 46.009 17.2517C46.0222 17.235 46.0412 17.2238 46.0622 17.2203C46.1634 17.2083 46.2658 17.2083 46.367 17.2203C46.5354 17.2371 46.7043 17.1932 46.8432 17.0964C46.8938 17.0484 46.9334 16.9898 46.9589 16.9248C46.9844 16.8598 46.9953 16.7899 46.9908 16.7203V16.6679C46.9941 16.6085 46.9843 16.5491 46.9621 16.494C46.9398 16.4389 46.9058 16.3893 46.8622 16.3488L46.9908 16.2155C47.0194 16.2155 47.0289 16.1727 47.0289 16.1583C47.0274 16.1478 47.0235 16.1376 47.0178 16.1286C47.0121 16.1196 47.0045 16.1119 46.9955 16.1059H46.9718C46.9289 16.0631 46.905 16.0631 46.8574 16.1059L46.6908 16.2536C46.5948 16.2114 46.4909 16.1903 46.386 16.1917V16.1727ZM46.386 18.0774C46.0622 18.0774 45.967 18.0203 45.967 17.8346C45.9618 17.7854 45.9724 17.7358 45.9972 17.693C46.022 17.6502 46.0598 17.6163 46.105 17.5964C46.1986 17.6023 46.2925 17.6023 46.386 17.5964C46.7003 17.5964 46.8098 17.6298 46.8098 17.8155C46.8098 18.0012 46.705 18.0964 46.386 18.0964V18.0774ZM46.105 17.6012C46.0619 17.6222 46.0262 17.6556 46.0023 17.6973C45.9786 17.7389 45.9679 17.7867 45.9718 17.8346C45.9718 18.0155 46.067 18.0727 46.386 18.0727C46.705 18.0727 46.8003 18.0155 46.8003 17.8298C46.8003 17.6441 46.7003 17.6155 46.386 17.6155C46.2926 17.623 46.1987 17.6246 46.105 17.6203V17.6012ZM46.386 17.025C46.1098 17.025 46.0003 16.9346 46.0003 16.7107V16.6679C46.0003 16.4583 46.1242 16.3583 46.386 16.3583C46.6479 16.3583 46.7718 16.4631 46.7718 16.6679V16.7059C46.7718 16.9298 46.6622 17.0203 46.386 17.0203V17.025ZM46.386 16.3679C46.1289 16.3679 46.005 16.4679 46.005 16.6727V16.7107C46.005 16.9298 46.1146 17.0203 46.386 17.0203C46.6574 17.0203 46.767 16.9298 46.767 16.7107V16.6679C46.767 16.4679 46.6384 16.3631 46.386 16.3631V16.3679Z" fill="#009EDB"/>
<path d="M49.5473 15.9518C49.5473 16.0137 49.5473 16.0328 49.4664 16.0328H49.2949V17.0471C49.2949 17.4518 49.0807 17.6518 48.6569 17.6518C48.2331 17.6518 48.0236 17.4518 48.0236 17.0471V16.7757C48.0149 16.6953 48.0246 16.6141 48.052 16.5382C48.0793 16.4622 48.1235 16.3934 48.1813 16.337C48.239 16.2806 48.3089 16.2381 48.3855 16.2126C48.4621 16.1871 48.5435 16.1793 48.6236 16.1899C48.7147 16.1749 48.8082 16.1867 48.8928 16.2239C48.9773 16.2611 49.0493 16.3221 49.0997 16.3994V16.0566H48.7045C48.6378 16.0566 48.6236 16.0566 48.6236 15.9757C48.6236 15.9137 48.6236 15.8947 48.7045 15.8947H49.0997V15.7137C49.0997 15.6328 49.0997 15.6185 49.1902 15.6185H49.1807C49.2521 15.6185 49.2759 15.6185 49.2759 15.7137V15.8709H49.4473C49.5093 15.8709 49.5283 15.8709 49.5283 15.9518H49.5473ZM48.2283 17.0423C48.2283 17.3233 48.3236 17.4471 48.6426 17.4471C48.9617 17.4471 49.0617 17.3233 49.0617 17.0423V16.7757C49.0617 16.4947 48.9617 16.3709 48.6426 16.3709C48.3236 16.3709 48.2283 16.4947 48.2283 16.7757V17.0423Z" fill="#009EDB"/>
<path d="M48.6574 17.657C48.485 17.6694 48.3144 17.6148 48.1812 17.5046C48.1225 17.4411 48.0781 17.3657 48.051 17.2836C48.0238 17.2014 48.0147 17.1144 48.0241 17.0284V16.7569C48.0153 16.6714 48.0242 16.5849 48.0505 16.5029C48.0767 16.421 48.1196 16.3453 48.1765 16.2808C48.2397 16.2218 48.3151 16.1772 48.3974 16.1501C48.4795 16.1229 48.5666 16.114 48.6526 16.1237C48.7388 16.1137 48.8261 16.1276 48.905 16.1637C48.9838 16.1998 49.0514 16.2568 49.1002 16.3284V15.9998H48.705C48.6384 15.9998 48.6193 15.9998 48.6193 15.9141C48.6193 15.8474 48.6193 15.8284 48.705 15.8284H49.0955V15.7141C49.0955 15.6332 49.0955 15.6141 49.1907 15.6141H49.1812C49.2526 15.6141 49.2765 15.6141 49.2765 15.7141V15.8665H49.4479C49.5098 15.8665 49.5336 15.8665 49.5336 15.9522C49.5336 16.0141 49.5336 16.0379 49.4479 16.0379H49.2765V17.0474C49.2955 17.4522 49.0812 17.657 48.6574 17.657ZM48.6241 16.1903C48.5434 16.1837 48.4622 16.1933 48.3853 16.2187C48.3084 16.2441 48.2373 16.2846 48.1765 16.3379C48.1211 16.4033 48.0796 16.4792 48.0542 16.561C48.0289 16.6429 48.0202 16.7289 48.0288 16.8141V17.0856C48.0178 17.1713 48.0258 17.2583 48.0522 17.3405C48.0785 17.4229 48.1226 17.4984 48.1812 17.5617C48.3144 17.6716 48.4854 17.7246 48.6574 17.7093C48.8292 17.7231 48.9997 17.6702 49.1336 17.5617C49.1925 17.4984 49.2372 17.423 49.2643 17.3409C49.2914 17.2586 49.3005 17.1716 49.2907 17.0856V16.0284H49.467C49.5241 16.0284 49.5479 16.0284 49.5479 15.9522C49.5479 15.8951 49.5479 15.8761 49.467 15.8761H49.2907V15.7141C49.2907 15.6332 49.2907 15.6237 49.2002 15.6237H49.1812C49.105 15.6237 49.0955 15.6237 49.0955 15.7141V15.8761H48.705C48.6384 15.8761 48.6288 15.8761 48.6288 15.9522C48.6288 16.0093 48.6288 16.0284 48.705 16.0284H49.105V16.3903C49.053 16.3139 48.9798 16.2542 48.8943 16.2187C48.8089 16.1832 48.715 16.1733 48.6241 16.1903ZM48.6574 17.4713C48.3526 17.4713 48.2383 17.3617 48.2383 17.0617V16.7951C48.2383 16.4998 48.3574 16.3856 48.6574 16.3856C48.9574 16.3856 49.0812 16.4998 49.0812 16.7951V17.0617C49.0812 17.3379 48.9622 17.4522 48.6574 17.4522V17.4713ZM48.6574 16.3951C48.3622 16.3951 48.2431 16.5046 48.2431 16.7951V17.0617C48.2431 17.357 48.3574 17.4617 48.6574 17.4617C48.9574 17.4617 49.0717 17.357 49.0717 17.0617V16.7951C49.0717 16.4808 48.9622 16.3761 48.6574 16.3761V16.3951Z" fill="#009EDB"/>
<path d="M49.5869 17.0437V16.7771C49.5869 16.3723 49.7964 16.1675 50.225 16.1675C50.544 16.1675 50.7297 16.2771 50.8107 16.4818C50.8536 16.4818 50.8964 16.4056 50.8964 16.2532C50.8964 16.2104 50.8964 16.1961 50.9631 16.1961H51.0107C51.0631 16.1961 51.0726 16.1961 51.0726 16.2532C51.0726 16.4866 50.9821 16.6008 50.844 16.639C50.8491 16.6848 50.8491 16.7311 50.844 16.7771V17.0437C50.844 17.4532 50.6345 17.6532 50.2155 17.6532C49.7964 17.6532 49.5869 17.4437 49.5869 17.0437ZM50.6393 16.7771C50.6393 16.4961 50.5393 16.3723 50.225 16.3723C49.9107 16.3723 49.8012 16.4961 49.8012 16.7771V17.0437C49.8012 17.3247 49.9107 17.4485 50.225 17.4485C50.5393 17.4485 50.6393 17.3247 50.6393 17.0437V16.7771Z" fill="#009EDB"/>
<path d="M50.2253 17.6559C49.7872 17.6559 49.5824 17.4606 49.5824 17.0416V16.7749C49.5749 16.6886 49.5854 16.6017 49.6133 16.5197C49.6412 16.4378 49.6858 16.3625 49.7444 16.2987C49.8778 16.1889 50.0482 16.1345 50.2206 16.1464C50.5348 16.1464 50.6968 16.2464 50.8063 16.4606C50.8634 16.4368 50.8872 16.3606 50.8872 16.2368C50.8872 16.1892 50.8872 16.1749 50.9587 16.1749H51.0063C51.0587 16.1749 51.0729 16.1749 51.0729 16.2368C51.0729 16.4464 50.9968 16.5797 50.8444 16.6273C50.8469 16.6717 50.8469 16.7162 50.8444 16.7606V17.0273C50.8569 17.1119 50.8496 17.1983 50.8231 17.2796C50.7966 17.3609 50.7516 17.4349 50.6915 17.4959C50.6315 17.5569 50.5581 17.603 50.4772 17.6308C50.3964 17.6585 50.3101 17.6671 50.2253 17.6559ZM50.2253 16.1701C50.0534 16.1554 49.8825 16.2084 49.7492 16.3177C49.6904 16.3813 49.646 16.4567 49.6189 16.5388C49.5918 16.6209 49.5826 16.708 49.592 16.794V17.0606C49.592 17.4749 49.792 17.6654 50.2253 17.6654C50.3972 17.6796 50.5679 17.6267 50.7015 17.5177C50.7603 17.4542 50.8047 17.3789 50.8318 17.2967C50.8588 17.2146 50.868 17.1276 50.8587 17.0416V16.7749C50.8613 16.7289 50.8613 16.6828 50.8587 16.6368C51.011 16.5892 51.0872 16.4606 51.0872 16.2511C51.0872 16.2082 51.0872 16.1987 51.0253 16.1987H50.9777C50.9301 16.1987 50.9158 16.1987 50.9158 16.2511C50.9158 16.3797 50.8872 16.4559 50.8253 16.4845C50.7205 16.2701 50.5396 16.1892 50.2253 16.1892V16.1701ZM50.2253 17.4511C49.9206 17.4511 49.8015 17.3368 49.8015 17.0416V16.7749C49.8015 16.4797 49.9158 16.3654 50.2253 16.3654C50.5348 16.3654 50.6396 16.4797 50.6396 16.7749V17.0416C50.6396 17.3416 50.5301 17.4511 50.2253 17.4511ZM50.2253 16.3749C49.9206 16.3749 49.8063 16.4797 49.8063 16.7749V17.0416C49.8063 17.3321 49.9253 17.4416 50.2253 17.4416C50.5253 17.4416 50.6348 17.3368 50.6348 17.0416V16.7749C50.6348 16.4797 50.5253 16.3749 50.2253 16.3749Z" fill="#009EDB"/>
<path d="M51.3811 17.5342C51.3811 17.6104 51.3811 17.6247 51.2859 17.6247H51.2526C51.1811 17.6247 51.1621 17.6247 51.1621 17.5342V16.7104C51.1621 16.3485 51.3668 16.1675 51.7668 16.1675C52.1668 16.1675 52.3716 16.358 52.3716 16.7104V17.5342C52.3716 17.6104 52.3716 17.6247 52.2763 17.6247H52.2431C52.1621 17.6247 52.1478 17.6247 52.1478 17.5342V16.7104C52.1478 16.4771 52.0621 16.3723 51.7668 16.3723C51.4716 16.3723 51.3811 16.4818 51.3811 16.7104V17.5342Z" fill="#009EDB"/>
<path d="M52.2766 17.6194H52.2433C52.1624 17.6194 52.1481 17.6194 52.1481 17.5242V16.7099C52.1481 16.4671 52.0433 16.3766 51.7671 16.3766C51.4909 16.3766 51.3814 16.4671 51.3814 16.7099V17.5337C51.3814 17.6099 51.3814 17.6289 51.2862 17.6289H51.2529C51.1814 17.6289 51.1576 17.6289 51.1576 17.5337V16.7099C51.1576 16.348 51.3624 16.1623 51.7671 16.1623C51.852 16.1535 51.9378 16.1617 52.0195 16.1862C52.1012 16.2107 52.1773 16.2511 52.2433 16.3051C52.2949 16.3583 52.3344 16.422 52.359 16.4919C52.3837 16.5618 52.393 16.6361 52.3862 16.7099V17.5337C52.3719 17.6194 52.3576 17.6194 52.2766 17.6194ZM51.7671 16.3575C52.0481 16.3575 52.1529 16.4527 52.1529 16.7003V17.5242C52.1529 17.6003 52.1529 17.6099 52.2433 17.6099H52.2766C52.3529 17.6099 52.3671 17.6099 52.3671 17.5242V16.7099C52.3729 16.6373 52.3637 16.5643 52.3399 16.4955C52.3161 16.4267 52.2784 16.3635 52.229 16.3099C52.1626 16.2567 52.0864 16.2171 52.0047 16.1935C51.923 16.1698 51.8374 16.1624 51.7529 16.1718C51.5828 16.1526 51.412 16.2003 51.2766 16.3051C51.2237 16.3577 51.1826 16.4211 51.1563 16.4909C51.13 16.5607 51.1191 16.6355 51.1243 16.7099V17.5337C51.1243 17.6099 51.1243 17.6194 51.2148 17.6194H51.2481C51.3243 17.6194 51.3386 17.6194 51.3386 17.5337V16.7099C51.3766 16.4623 51.4862 16.3671 51.7671 16.3671V16.3575Z" fill="#009EDB"/>
<path d="M54.6472 16.7035C54.6472 17.0369 54.452 17.2083 54.052 17.2083C53.9491 17.1971 53.8454 17.1971 53.7425 17.2083C53.7214 17.2118 53.7025 17.223 53.6893 17.2398C53.6761 17.2565 53.6695 17.2775 53.671 17.2988C53.671 17.3369 53.671 17.3655 53.7472 17.3798C53.8486 17.3876 53.9506 17.3876 54.052 17.3798C54.2158 17.3683 54.3799 17.3994 54.5282 17.4702C54.5764 17.505 54.6146 17.5521 54.6388 17.6064C54.663 17.6607 54.6726 17.7206 54.6662 17.7798C54.6728 17.8443 54.6631 17.9094 54.6382 17.9692C54.6133 18.0291 54.5738 18.0818 54.5234 18.1226C54.3773 18.2002 54.2122 18.2349 54.0472 18.2226C53.8729 18.2378 53.6978 18.203 53.5425 18.1226C53.4972 18.0864 53.4614 18.0398 53.4382 17.9866C53.4149 17.9336 53.405 17.8756 53.4091 17.8179C53.4054 17.7564 53.4185 17.695 53.447 17.6406C53.4755 17.586 53.5184 17.5403 53.571 17.5083C53.5335 17.4933 53.5018 17.4667 53.4804 17.4325C53.459 17.3982 53.449 17.3581 53.452 17.3179C53.452 17.1893 53.5282 17.1131 53.6853 17.0893C53.605 17.055 53.5381 16.9956 53.4943 16.9201C53.4506 16.8446 53.4323 16.7569 53.4425 16.6702V16.6655C53.4425 16.3511 53.6662 16.1893 54.0472 16.1893C54.1486 16.1875 54.2491 16.2069 54.3425 16.2464L54.5091 16.0988C54.5567 16.0559 54.5806 16.0559 54.6282 16.0988C54.6758 16.1416 54.6758 16.1654 54.6282 16.213L54.4996 16.3464C54.5414 16.389 54.574 16.4397 54.5953 16.4954C54.6166 16.5511 54.6262 16.6106 54.6234 16.6702L54.6472 16.7035ZM53.7662 17.5893C53.7226 17.6113 53.6864 17.6455 53.6619 17.6878C53.6374 17.7301 53.6257 17.7786 53.6282 17.8274C53.6282 18.0179 53.7377 18.0655 54.052 18.0655C54.3662 18.0655 54.4662 18.0178 54.4662 17.8226C54.4662 17.6274 54.3615 17.6083 54.052 17.6083C53.9564 17.6091 53.8609 17.6027 53.7662 17.5893ZM54.4186 16.6655C54.4186 16.4607 54.2948 16.3606 54.0425 16.3606C53.7901 16.3606 53.6567 16.4607 53.6567 16.6655V16.7035C53.6567 16.9083 53.7472 17.013 54.0425 17.013C54.3377 17.013 54.4186 16.9083 54.4186 16.7035V16.6655Z" fill="#009EDB"/>
<path d="M54.0519 18.2583C53.878 18.2752 53.7029 18.2422 53.5471 18.1631C53.5006 18.1267 53.4637 18.0795 53.4396 18.0255C53.4155 17.9715 53.405 17.9125 53.409 17.8536C53.4053 17.7922 53.4184 17.7308 53.447 17.6763C53.4754 17.6218 53.5183 17.576 53.571 17.5441C53.5334 17.5291 53.5018 17.5025 53.4803 17.4683C53.459 17.434 53.449 17.3939 53.4519 17.3536C53.4519 17.2266 53.5281 17.1504 53.6805 17.125C53.6016 17.0893 53.536 17.0295 53.4933 16.9543C53.4505 16.8789 53.4326 16.792 53.4424 16.7059V16.6679C53.4404 16.5979 53.4538 16.5283 53.4818 16.4641C53.5098 16.3999 53.5516 16.3427 53.6042 16.2964C53.7337 16.2017 53.8918 16.1546 54.0519 16.1631C54.1532 16.1613 54.2538 16.1807 54.3471 16.2203L54.5138 16.0774C54.5614 16.0298 54.5852 16.0298 54.6329 16.0774C54.6614 16.1012 54.671 16.1155 54.671 16.1346C54.671 16.1536 54.671 16.1679 54.6329 16.1964L54.509 16.325C54.5509 16.3675 54.5834 16.4183 54.6047 16.474C54.6261 16.5297 54.6356 16.5892 54.6329 16.6488V16.6869C54.6329 17.0203 54.4281 17.1917 54.0329 17.1917C53.93 17.1799 53.8262 17.1799 53.7234 17.1917C53.704 17.1961 53.6869 17.207 53.6747 17.2227C53.6626 17.2383 53.6562 17.2576 53.6566 17.2774C53.6566 17.3155 53.6566 17.3393 53.7281 17.3536C53.8295 17.3623 53.9314 17.3623 54.0329 17.3536C54.1967 17.3422 54.3608 17.3734 54.509 17.4441C54.5589 17.4776 54.5985 17.5243 54.6237 17.5788C54.6489 17.6335 54.6586 17.6939 54.6519 17.7536C54.6591 17.8193 54.6494 17.8859 54.6235 17.9467C54.5977 18.0075 54.5566 18.0608 54.5042 18.1012C54.3694 18.1913 54.2136 18.2454 54.0519 18.2583ZM54.0519 16.1727C53.6757 16.1727 53.4519 16.3583 53.4519 16.6488V16.6869C53.4422 16.773 53.46 16.8599 53.5028 16.9352C53.5455 17.0105 53.6111 17.0703 53.69 17.1059C53.5329 17.1298 53.4614 17.2012 53.4614 17.3298C53.4595 17.3693 53.4694 17.4084 53.4897 17.4423C53.51 17.4763 53.54 17.5034 53.5757 17.5203C53.5235 17.5515 53.4808 17.5963 53.4522 17.65C53.4237 17.7038 53.4104 17.7643 53.4138 17.825C53.4098 17.8833 53.4202 17.9416 53.4444 17.9948C53.4685 18.048 53.5054 18.0944 53.5519 18.1298C53.8698 18.257 54.2245 18.257 54.5424 18.1298C54.5922 18.0887 54.631 18.0359 54.6552 17.9759C54.6793 17.9161 54.688 17.8511 54.6805 17.7869C54.6873 17.7283 54.6782 17.6691 54.6538 17.6153C54.6295 17.5616 54.5909 17.5155 54.5424 17.4822C54.3946 17.4097 54.2302 17.3784 54.0662 17.3917C53.9649 17.403 53.8627 17.403 53.7614 17.3917C53.709 17.3917 53.6852 17.3488 53.6852 17.3107C53.6838 17.2895 53.6902 17.2684 53.7034 17.2517C53.7166 17.235 53.7356 17.2238 53.7566 17.2203C53.8595 17.2082 53.9634 17.2082 54.0662 17.2203C54.2251 17.2307 54.3829 17.1871 54.5138 17.0964C54.5645 17.0484 54.604 16.9898 54.6295 16.9248C54.655 16.8598 54.6659 16.7899 54.6614 16.7203V16.6679C54.6647 16.6085 54.6549 16.5491 54.6327 16.494C54.6105 16.4389 54.5764 16.3893 54.5329 16.3488L54.6662 16.2155C54.6841 16.2013 54.696 16.1809 54.6995 16.1583C54.6979 16.1478 54.6942 16.1376 54.6884 16.1286C54.6827 16.1196 54.6751 16.1119 54.6662 16.1059C54.6186 16.0583 54.5995 16.0631 54.5471 16.1059L54.3805 16.2536C54.2773 16.2076 54.1647 16.1864 54.0519 16.1917V16.1727ZM54.0519 18.0774C53.7234 18.0774 53.6281 18.0203 53.6281 17.8346C53.6229 17.7854 53.6334 17.7358 53.6583 17.693C53.6831 17.6502 53.7209 17.6163 53.7662 17.5964C53.8614 17.6025 53.9567 17.6025 54.0519 17.5964C54.3614 17.5964 54.471 17.6298 54.471 17.8155C54.471 18.0012 54.3281 18.0964 54.0519 18.0964V18.0774ZM53.7662 17.6012C53.723 17.6222 53.6873 17.6556 53.6634 17.6973C53.6397 17.7389 53.629 17.7867 53.6329 17.8346C53.6329 18.0155 53.7281 18.0727 54.0519 18.0727C54.3757 18.0727 54.4614 18.0155 54.4614 17.8298C54.4614 17.6441 54.3614 17.6155 54.0519 17.6155C53.9569 17.6231 53.8614 17.6247 53.7662 17.6203V17.6012ZM54.0519 17.025C53.7757 17.025 53.6614 16.9346 53.6614 16.7107V16.6679C53.6614 16.4583 53.79 16.3583 54.0519 16.3583C54.3138 16.3583 54.4329 16.4631 54.4329 16.6679V16.7059C54.4186 16.9298 54.3234 17.0203 54.0519 17.0203V17.025ZM54.0519 16.3679C53.79 16.3679 53.6662 16.4679 53.6662 16.6727V16.7107C53.6662 16.9298 53.7757 17.0203 54.0519 17.0203C54.3281 17.0203 54.4281 16.9298 54.4281 16.7107V16.6679C54.4186 16.4679 54.2995 16.3631 54.0519 16.3631V16.3679Z" fill="#009EDB"/>
<path d="M55.2261 15.7472C55.2268 15.7657 55.2237 15.7842 55.217 15.8015C55.2104 15.8189 55.2003 15.8346 55.1874 15.848C55.1745 15.8613 55.1591 15.8719 55.142 15.8791C55.1249 15.8864 55.1066 15.8901 55.088 15.8901C55.0689 15.8907 55.0498 15.8875 55.0319 15.8806C55.014 15.8737 54.9977 15.8633 54.984 15.85C54.9702 15.8366 54.9592 15.8206 54.9517 15.803C54.9443 15.7853 54.9404 15.7664 54.9404 15.7472C54.9416 15.7089 54.9578 15.6725 54.9853 15.6459C55.0128 15.6193 55.0497 15.6043 55.088 15.6044C55.1251 15.6056 55.1602 15.6212 55.186 15.6478C55.2118 15.6745 55.2262 15.7101 55.2261 15.7472ZM54.9785 16.2853C54.9785 16.2139 54.9785 16.1949 55.069 16.1949H55.1023C55.1738 16.1949 55.1928 16.1949 55.1928 16.2853V17.5329C55.1928 17.6091 55.1928 17.6234 55.1023 17.6234H55.069C54.988 17.6234 54.9785 17.6234 54.9785 17.5329V16.2853Z" fill="#009EDB"/>
<path d="M55.1058 17.6195H55.0725C54.9915 17.6195 54.9773 17.6195 54.9773 17.5243V16.2862C54.9773 16.2148 54.9773 16.191 55.0725 16.191H55.1058C55.1773 16.191 55.2011 16.191 55.2011 16.2862V17.5339C55.2011 17.6195 55.1773 17.6195 55.1058 17.6195ZM55.0725 16.191C54.9963 16.191 54.982 16.191 54.982 16.2767V17.5243C54.982 17.6005 54.982 17.61 55.0725 17.61H55.1058C55.1725 17.61 55.1915 17.61 55.1915 17.5243V16.2862C55.1915 16.2195 55.1915 16.2005 55.1058 16.2005L55.0725 16.191ZM55.0725 15.8815C55.0347 15.8815 54.9983 15.8664 54.9715 15.8396C54.9447 15.8128 54.9297 15.7765 54.9297 15.7386C54.9297 15.7007 54.9447 15.6643 54.9715 15.6375C54.9983 15.6108 55.0347 15.5957 55.0725 15.5957C55.1104 15.5957 55.1467 15.6108 55.1735 15.6375C55.2003 15.6643 55.2154 15.7007 55.2154 15.7386C55.2154 15.7765 55.2003 15.8128 55.1735 15.8396C55.1467 15.8664 55.1104 15.8815 55.0725 15.8815ZM55.0725 15.6005C55.0544 15.6005 55.0364 15.6041 55.0197 15.611C55.0029 15.6179 54.9877 15.6281 54.9749 15.641C54.962 15.6538 54.9519 15.669 54.945 15.6858C54.938 15.7025 54.9344 15.7204 54.9344 15.7386C54.9344 15.7567 54.938 15.7747 54.945 15.7915C54.9519 15.8082 54.962 15.8234 54.9749 15.8363C54.9877 15.8491 55.0029 15.8592 55.0197 15.8662C55.0364 15.8731 55.0544 15.8767 55.0725 15.8767C55.1091 15.8767 55.1443 15.8621 55.1702 15.8363C55.1961 15.8103 55.2107 15.7752 55.2107 15.7386C55.2107 15.7019 55.1961 15.6668 55.1702 15.641C55.1443 15.6151 55.1091 15.6005 55.0725 15.6005Z" fill="#009EDB"/>
<path d="M56.6564 17.1953C56.6564 17.5191 56.4707 17.6715 56.0517 17.6715C55.7183 17.6715 55.5088 17.5381 55.5088 17.2381C55.5088 16.9381 55.704 16.8144 56.0993 16.8144H56.4421V16.6191C56.4421 16.4239 56.304 16.3572 56.0612 16.3572C55.9539 16.3565 55.8469 16.3677 55.7421 16.3905C55.6707 16.3905 55.6469 16.3905 55.6469 16.3191V16.2953C55.6469 16.2286 55.6469 16.2096 55.7373 16.1953C55.8409 16.1755 55.9462 16.1659 56.0517 16.1667C56.4564 16.1667 56.6564 16.3191 56.6564 16.6191V17.1953ZM56.4421 16.9667H56.0993C55.8421 16.9667 55.7231 17.0381 55.7231 17.2191C55.7231 17.4001 55.8326 17.4667 56.0517 17.4667C56.2707 17.4667 56.4421 17.4049 56.4421 17.1857V16.9667ZM56.0993 16.0144C56.0469 16.0144 56.0421 16.0144 56.0326 15.9572C56.0231 15.9001 56.0754 15.8429 56.1612 15.7525C56.1815 15.7356 56.195 15.7119 56.1993 15.6857C56.1993 15.6334 56.1993 15.6096 56.1469 15.6096C56.1046 15.5995 56.0606 15.5995 56.0183 15.6096C55.985 15.6096 55.9612 15.6096 55.9421 15.581V15.5572C55.9421 15.5144 55.9421 15.4953 55.9849 15.481C56.039 15.4576 56.0975 15.4462 56.1564 15.4477C56.1847 15.4453 56.2132 15.4493 56.2398 15.4594C56.2664 15.4695 56.2904 15.4853 56.31 15.5059C56.3296 15.5265 56.3444 15.5511 56.3533 15.5781C56.3621 15.6051 56.3648 15.6337 56.3612 15.662C56.3612 15.7857 56.1897 15.8381 56.1849 15.9334C56.183 15.9478 56.1764 15.9613 56.1661 15.9716C56.1558 15.9819 56.1423 15.9886 56.1278 15.9905L56.0993 16.0144Z" fill="#009EDB"/>
<path d="M56.0525 17.6573C55.6954 17.6573 55.5049 17.5049 55.5049 17.2192C55.5049 16.9335 55.6858 16.7906 56.1001 16.7906H56.4382V16.6192C56.4382 16.4383 56.3239 16.362 56.062 16.362C55.955 16.3606 55.848 16.3701 55.743 16.3906C55.7049 16.3906 55.681 16.3906 55.6668 16.3906C55.6525 16.3906 55.6668 16.3573 55.6668 16.324V16.3001C55.6668 16.2335 55.6668 16.2144 55.7573 16.1954C55.8607 16.1752 55.9661 16.1656 56.0715 16.1668C56.4763 16.1668 56.681 16.324 56.681 16.643V17.2192C56.662 17.5144 56.4715 17.6573 56.0525 17.6573ZM56.1001 16.8001C55.6906 16.8001 55.5096 16.9288 55.5096 17.2192C55.5096 17.5097 55.6954 17.6478 56.0525 17.6478C56.2184 17.6652 56.3854 17.6285 56.5286 17.543C56.5803 17.502 56.6209 17.4487 56.6467 17.388C56.6725 17.3272 56.6826 17.2611 56.6763 17.1954V16.6192C56.6801 16.5548 56.6682 16.4903 56.6417 16.4314C56.6151 16.3725 56.5747 16.321 56.5239 16.2811C56.3878 16.1995 56.2299 16.1612 56.0715 16.1716C55.9661 16.1703 55.8607 16.1799 55.7573 16.2002C55.6858 16.2002 55.6715 16.2288 55.6715 16.2954V16.3192C55.6715 16.3525 55.6715 16.3716 55.6715 16.3811C55.6715 16.3906 55.7049 16.3811 55.743 16.3811C55.8478 16.3585 55.9548 16.3474 56.062 16.3478C56.3286 16.3478 56.443 16.4288 56.443 16.6144V16.7954L56.1001 16.8001ZM56.0525 17.4668C55.8286 17.4668 55.7239 17.3859 55.7239 17.2192C55.7239 17.0525 55.8382 16.962 56.1001 16.962H56.443V17.1859C56.443 17.4192 56.2954 17.4668 56.0525 17.4668ZM56.1001 16.9906C55.8382 16.9906 55.7286 17.062 55.7286 17.2383C55.7286 17.4144 55.8334 17.4811 56.0525 17.4811C56.2715 17.4811 56.4382 17.4049 56.4382 17.2049V16.9906H56.1001ZM56.1001 16.0383C56.043 16.0383 56.0382 16.0383 56.0286 15.9811C56.0191 15.924 56.0573 15.8764 56.1191 15.8097L56.162 15.7668C56.1714 15.7592 56.1792 15.7499 56.185 15.7392C56.1906 15.7286 56.1942 15.7169 56.1954 15.7049C56.1954 15.6525 56.1954 15.6335 56.1478 15.6288C56.1095 15.6298 56.0721 15.6396 56.0382 15.6573C56.0001 15.6573 55.9763 15.6573 55.9525 15.624V15.6001C55.9525 15.5525 55.9525 15.5383 55.9954 15.524C56.0494 15.5005 56.1079 15.4892 56.1668 15.4906C56.2222 15.489 56.2764 15.5076 56.3191 15.543C56.3385 15.565 56.3531 15.5907 56.3621 15.6185C56.3711 15.6464 56.3743 15.6758 56.3715 15.7049C56.3672 15.7369 56.3566 15.7676 56.3402 15.7955C56.3238 15.8232 56.3022 15.8475 56.2763 15.8668C56.2367 15.8921 56.2079 15.9311 56.1954 15.9764C56.1942 15.9912 56.1878 16.0051 56.1774 16.0156C56.1669 16.026 56.153 16.0324 56.1382 16.0335L56.1001 16.0383ZM56.1334 15.624C56.162 15.624 56.1906 15.624 56.1906 15.7049C56.1863 15.731 56.1728 15.7547 56.1525 15.7716L56.1096 15.8144C56.0478 15.8764 56.0144 15.9097 56.0191 15.9764C56.0239 16.043 56.0191 16.0288 56.0858 16.0288C56.099 16.0268 56.1113 16.0207 56.1207 16.0112C56.1302 16.0018 56.1363 15.9896 56.1382 15.9764C56.1506 15.9297 56.1793 15.8892 56.2191 15.862C56.2459 15.8461 56.2691 15.8248 56.2871 15.7993C56.3052 15.7739 56.3177 15.745 56.3239 15.7144C56.3263 15.686 56.3229 15.6575 56.3139 15.6304C56.3049 15.6035 56.2905 15.5785 56.2715 15.5573C56.2312 15.521 56.1781 15.5021 56.1239 15.5049C56.065 15.5034 56.0066 15.5148 55.9525 15.5383C55.9191 15.5383 55.9001 15.5668 55.9144 15.6097C55.9144 15.6525 55.9573 15.6525 55.9906 15.643C56.0354 15.6229 56.085 15.6163 56.1334 15.624Z" fill="#009EDB"/>
<path d="M57.1868 17.5342C57.1868 17.6104 57.1868 17.6247 57.0915 17.6247H57.0583C56.9868 17.6247 56.9678 17.6247 56.9678 17.5342V16.7104C56.9678 16.3485 57.1725 16.1675 57.5725 16.1675C57.9725 16.1675 58.1773 16.358 58.1773 16.7104V17.5342C58.1773 17.6104 58.1773 17.6247 58.082 17.6247H58.0487C57.9678 17.6247 57.9535 17.6247 57.9535 17.5342V16.7104C57.9535 16.4771 57.8678 16.3723 57.5725 16.3723C57.2773 16.3723 57.1868 16.4818 57.1868 16.7104V17.5342Z" fill="#009EDB"/>
<path d="M58.0803 17.6194H58.0471C57.9661 17.6194 57.9518 17.6194 57.9518 17.5242V16.7099C57.9518 16.4671 57.8471 16.3766 57.5708 16.3766C57.2947 16.3766 57.1851 16.4671 57.1851 16.7099V17.5337C57.1851 17.6099 57.1851 17.6289 57.0899 17.6289H57.0566C56.9851 17.6289 56.9613 17.6289 56.9613 17.5337V16.7099C56.9613 16.348 57.1661 16.1623 57.5708 16.1623C57.6557 16.1535 57.7415 16.1617 57.8232 16.1862C57.9049 16.2107 57.981 16.2511 58.0471 16.3051C58.0986 16.3583 58.138 16.422 58.1627 16.4919C58.1874 16.5618 58.1967 16.6361 58.1899 16.7099V17.5337C58.1756 17.6194 58.1613 17.6194 58.0803 17.6194ZM57.5708 16.3575C57.8518 16.3575 57.9566 16.4527 57.9566 16.7003V17.5242C57.9566 17.6003 57.9566 17.6099 58.0471 17.6099H58.0803C58.1566 17.6099 58.1708 17.6099 58.1708 17.5242V16.7099C58.1766 16.6373 58.1673 16.5643 58.1435 16.4955C58.1198 16.4267 58.0821 16.3635 58.0327 16.3099C57.9663 16.2567 57.8901 16.2171 57.8084 16.1935C57.7267 16.1698 57.6411 16.1624 57.5566 16.1718C57.3865 16.1526 57.2157 16.2003 57.0803 16.3051C57.0274 16.3577 56.9863 16.4211 56.96 16.4909C56.9337 16.5607 56.9228 16.6355 56.928 16.7099V17.5337C56.928 17.6099 56.9518 17.6194 57.0185 17.6194H57.0518C57.128 17.6194 57.1423 17.6194 57.1423 17.5337V16.7099C57.1803 16.4623 57.2756 16.3671 57.5708 16.3671V16.3575Z" fill="#009EDB"/>
<path d="M59.3154 15.7137C59.3154 15.6328 59.3154 15.6185 59.4106 15.6185H59.444C59.5201 15.6185 59.5345 15.6185 59.5345 15.7137V16.3852C59.5894 16.3133 59.6624 16.2574 59.7461 16.223C59.8297 16.1887 59.9211 16.1773 60.0106 16.1899C60.363 16.1899 60.544 16.3566 60.544 16.6994V17.5566C60.544 17.6328 60.544 17.6471 60.4535 17.6471H60.4154C60.3392 17.6471 60.325 17.6471 60.325 17.5566V16.6994C60.325 16.4709 60.2201 16.3709 59.9535 16.3709C59.6869 16.3709 59.5535 16.4804 59.5535 16.7471V17.5328C59.5535 17.6089 59.5535 17.6233 59.463 17.6233H59.4297C59.3535 17.6233 59.3345 17.6233 59.3345 17.5328L59.3154 15.7137Z" fill="#009EDB"/>
<path d="M60.4345 17.6189H60.3964C60.3202 17.6189 60.3011 17.6189 60.3011 17.5237V16.6998C60.3011 16.4665 60.1964 16.3761 59.9345 16.3761C59.6726 16.3761 59.5392 16.4856 59.5392 16.7474V17.5332C59.5392 17.6093 59.5392 17.6284 59.444 17.6284H59.4106C59.3392 17.6284 59.3154 17.6284 59.3154 17.5332V15.7141C59.3154 15.6284 59.3154 15.6141 59.4106 15.6141H59.444C59.5201 15.6141 59.5392 15.6141 59.5392 15.7141V16.3761C59.595 16.3054 59.6683 16.2506 59.7519 16.2172C59.8354 16.1837 59.9263 16.1729 60.0154 16.1856C60.3725 16.1856 60.5535 16.3569 60.5535 16.6998V17.5569C60.5297 17.6189 60.5106 17.6189 60.4345 17.6189ZM59.9583 16.3569C60.225 16.3569 60.3345 16.4569 60.3345 16.6903V17.5237C60.3345 17.5998 60.3345 17.6093 60.4202 17.6093H60.4583C60.5345 17.6093 60.544 17.6093 60.544 17.5237V16.6665C60.544 16.3284 60.3678 16.1617 60.0154 16.1617C59.9258 16.1491 59.8346 16.1605 59.7509 16.1948C59.6672 16.2291 59.5942 16.2851 59.5392 16.3569V15.7141C59.5392 15.6379 59.5392 15.6237 59.4535 15.6237H59.4202C59.3488 15.6237 59.3297 15.6237 59.3297 15.7141V17.5569C59.3297 17.6332 59.3297 17.6427 59.4202 17.6427H59.4535C59.5249 17.6427 59.5392 17.6427 59.5392 17.5569V16.7474C59.5297 16.4808 59.6583 16.3665 59.9345 16.3665L59.9583 16.3569Z" fill="#009EDB"/>
<path d="M60.833 17.0432V16.7765C60.833 16.3717 61.0425 16.167 61.4711 16.167C61.5896 16.1495 61.7104 16.1706 61.816 16.2272C61.9215 16.2838 62.0059 16.3729 62.0568 16.4812C62.0996 16.4812 62.1425 16.4051 62.1425 16.2527C62.1425 16.2098 62.1425 16.1956 62.2092 16.1956H62.2568C62.3092 16.1956 62.3187 16.1956 62.3187 16.2527C62.3187 16.486 62.2235 16.6003 62.0901 16.6384C62.0952 16.6843 62.0952 16.7306 62.0901 16.7765V17.0432C62.0901 17.4527 61.8806 17.6527 61.4616 17.6527C61.0425 17.6527 60.833 17.4432 60.833 17.0432ZM61.8854 16.7765C61.8854 16.4956 61.7854 16.3717 61.4711 16.3717C61.1568 16.3717 61.0472 16.4956 61.0472 16.7765V17.0432C61.0472 17.3241 61.152 17.4479 61.4711 17.4479C61.7901 17.4479 61.8854 17.3241 61.8854 17.0432V16.7765Z" fill="#009EDB"/>
<path d="M61.4734 17.6559C61.0353 17.6559 60.8305 17.4606 60.8305 17.0416V16.7749C60.823 16.6886 60.8334 16.6017 60.8614 16.5197C60.8892 16.4378 60.9338 16.3625 60.9924 16.2987C61.1258 16.1889 61.2962 16.1345 61.4686 16.1464C61.7829 16.1464 61.9686 16.2464 62.0543 16.4606C62.1114 16.4368 62.1353 16.3606 62.1353 16.2368C62.1353 16.1892 62.1353 16.1749 62.2067 16.1749H62.2543C62.3067 16.1749 62.321 16.1749 62.321 16.2368C62.321 16.4464 62.2448 16.5797 62.0924 16.6273C62.095 16.6717 62.095 16.7162 62.0924 16.7606V17.0273C62.105 17.1119 62.0977 17.1983 62.0711 17.2796C62.0446 17.3609 61.9996 17.4349 61.9396 17.4959C61.8795 17.5569 61.8062 17.603 61.7253 17.6308C61.6444 17.6585 61.5582 17.6671 61.4734 17.6559ZM61.4734 16.1701C61.3014 16.1554 61.1306 16.2084 60.9972 16.3177C60.9385 16.3813 60.894 16.4567 60.867 16.5388C60.8398 16.6209 60.8306 16.708 60.84 16.794V17.0606C60.84 17.4749 61.04 17.6654 61.4734 17.6654C61.6452 17.6796 61.8159 17.6267 61.9495 17.5177C62.0083 17.4542 62.0527 17.3789 62.0798 17.2967C62.1069 17.2146 62.1161 17.1276 62.1067 17.0416V16.7749C62.1092 16.7289 62.1092 16.6828 62.1067 16.6368C62.2591 16.5892 62.3305 16.4606 62.3305 16.2511C62.3305 16.2082 62.3305 16.1987 62.2734 16.1987H62.2258C62.1782 16.1987 62.1638 16.1987 62.1638 16.2511C62.1638 16.3797 62.1353 16.4559 62.0734 16.4845C61.9686 16.2701 61.7877 16.1892 61.4734 16.1892V16.1701ZM61.4734 17.4511C61.1686 17.4511 61.0495 17.3368 61.0495 17.0416V16.7749C61.0495 16.4797 61.1638 16.3654 61.4734 16.3654C61.7829 16.3654 61.8877 16.4797 61.8877 16.7749V17.0416C61.8877 17.3416 61.7782 17.4511 61.4734 17.4511ZM61.4734 16.3749C61.1686 16.3749 61.0543 16.4797 61.0543 16.7749V17.0416C61.0543 17.3321 61.1734 17.4416 61.4734 17.4416C61.7734 17.4416 61.8829 17.3368 61.8829 17.0416V16.7749C61.8829 16.4797 61.7734 16.3749 61.4734 16.3749Z" fill="#009EDB"/>
<path d="M62.6276 17.5342C62.6276 17.6104 62.6276 17.6247 62.5324 17.6247H62.5133C62.4419 17.6247 62.4229 17.6247 62.4229 17.5342V16.7104C62.4229 16.3485 62.6228 16.1675 63.0276 16.1675C63.4324 16.1675 63.6324 16.358 63.6324 16.7104V17.5342C63.6324 17.6104 63.6324 17.6247 63.5371 17.6247H63.5038C63.4228 17.6247 63.4085 17.6247 63.4085 17.5342V16.7104C63.4085 16.4771 63.3228 16.3723 63.0276 16.3723C62.7324 16.3723 62.6419 16.4818 62.6419 16.7104L62.6276 17.5342Z" fill="#009EDB"/>
<path d="M63.5248 17.6194H63.4914C63.4104 17.6194 63.3961 17.6194 63.3961 17.5242V16.7099C63.3961 16.4671 63.2914 16.3766 63.0152 16.3766C62.739 16.3766 62.6295 16.4671 62.6295 16.7099V17.5337C62.6295 17.6099 62.6295 17.6289 62.5343 17.6289H62.5152C62.4438 17.6289 62.42 17.6289 62.42 17.5337V16.7099C62.42 16.348 62.6248 16.1623 63.0295 16.1623C63.1144 16.1535 63.2001 16.1617 63.2819 16.1862C63.3636 16.2107 63.4396 16.2511 63.5057 16.3051C63.5572 16.3583 63.5967 16.422 63.6213 16.4919C63.646 16.5618 63.6553 16.6361 63.6485 16.7099V17.5337C63.62 17.6194 63.6056 17.6194 63.5248 17.6194ZM63.0152 16.3575C63.2961 16.3575 63.4009 16.4527 63.4009 16.7003V17.5242C63.4009 17.6003 63.4009 17.6099 63.4914 17.6099H63.5248C63.6009 17.6099 63.6152 17.6099 63.6152 17.5242V16.7099C63.621 16.6373 63.6117 16.5643 63.588 16.4955C63.5642 16.4267 63.5264 16.3635 63.4771 16.3099C63.4107 16.2567 63.3344 16.2171 63.2528 16.1935C63.1711 16.1698 63.0855 16.1624 63.0009 16.1718C62.8309 16.1526 62.66 16.2003 62.5248 16.3051C62.4717 16.3577 62.4307 16.4211 62.4044 16.4909C62.378 16.5607 62.3672 16.6355 62.3724 16.7099V17.5337C62.3724 17.6099 62.3961 17.6194 62.4628 17.6194H62.5152C62.5914 17.6194 62.6057 17.6194 62.6057 17.5337V16.7099C62.6248 16.4623 62.7343 16.3671 63.0152 16.3671V16.3575Z" fill="#009EDB"/>
</g>
</svg>
