<svg width="24" height="24" viewBox="0 0 24 24" fill="none" xmlns="http://www.w3.org/2000/svg">
<path fill-rule="evenodd" clip-rule="evenodd" d="M12.0006 5.00098C9.3092 5.00098 6.84372 5.6928 5.03231 6.84311C3.22817 7.9888 2 9.64577 2 11.5716C2 13.4856 3.14626 15.0901 4.85861 16.214C6.27892 17.1462 8.12699 17.7793 10.1787 18.0289L8.90597 18.9062C8.63313 19.0942 8.56441 19.4678 8.75247 19.7407C8.94053 20.0135 9.31416 20.0822 9.587 19.8942L12.2442 18.0626C12.388 17.9635 12.4815 17.8067 12.5003 17.6332C12.519 17.4596 12.4613 17.2864 12.3421 17.1589L10.3389 15.0159C10.1126 14.7739 9.73293 14.7611 9.49085 14.9873C9.24877 15.2136 9.23597 15.5933 9.46226 15.8354L10.4086 16.8478C8.47378 16.624 6.77636 16.0373 5.51708 15.2108C4.02188 14.2294 3.2 12.9554 3.2 11.5716C3.2 10.1996 4.077 8.87128 5.6756 7.85611C7.26693 6.84556 9.50175 6.20098 12.0006 6.20098C14.4991 6.20098 16.7339 6.84744 18.3254 7.85906C19.9245 8.87552 20.8012 10.204 20.8012 11.5716C20.8012 12.5991 20.3069 13.5955 19.3832 14.4642C18.4577 15.3346 17.1246 16.0504 15.537 16.4867C15.2175 16.5745 15.0297 16.9047 15.1175 17.2242C15.2053 17.5438 15.5355 17.7316 15.855 17.6438C17.5892 17.1672 19.1087 16.3698 20.2053 15.3384C21.3038 14.3052 22.0012 13.0113 22.0012 11.5716C22.0012 9.64963 20.7727 7.99278 18.9691 6.84633C17.1579 5.69503 14.6924 5.00098 12.0006 5.00098Z" fill="black"/>
</svg>
