<?xml version="1.0" encoding="utf-8"?>
<!-- Generator: Adobe Illustrator 24.2.3, SVG Export Plug-In . SVG Version: 6.00 Build 0)  -->
<svg version="1.1" id="Layer_1" xmlns="http://www.w3.org/2000/svg" xmlns:xlink="http://www.w3.org/1999/xlink" x="0px" y="0px"
	 width="32px" height="32px" viewBox="0 0 32 32" style="enable-background:new 0 0 32 32;" xml:space="preserve">
<style type="text/css">
	.st0{fill:none;stroke:#000000;stroke-width:1.5;stroke-miterlimit:10;}
</style>
<line class="st0" x1="25" y1="7.4" x2="6.5" y2="24.6"/>
<g>
	<path d="M19.9,15.8c0,2-1.6,3.7-3.7,3.7c-1.3,0-2.5-0.7-3.2-1.8l-1.1,1c0.9,1.4,2.5,2.3,4.3,2.3c2.9,0,5.2-2.3,5.2-5.2
		c0-1.6-0.8-3.1-2-4l-1.1,1C19.2,13.5,19.9,14.6,19.9,15.8z"/>
	<path d="M12.5,15.8c0-2,1.6-3.7,3.7-3.7c0.2,0,0.4,0,0.6,0.1L18,11c-0.6-0.2-1.2-0.4-1.8-0.4c-2.9,0-5.2,2.3-5.2,5.2
		c0,0.5,0.1,1,0.3,1.5l1.3-1.2C12.5,16.1,12.5,16,12.5,15.8z"/>
	<path d="M7,21.3l1.1-1c-1.5-1.1-2.7-2.6-3.6-4.3C6.7,11.8,11,9,16,9c1.3,0,2.5,0.2,3.6,0.5l1.2-1.2c-1.5-0.5-3.2-0.9-4.9-0.9
		c-5.7,0-10.7,3.3-12.9,8.2c-0.1,0.2-0.1,0.4,0,0.6C4,18.3,5.4,20,7,21.3z"/>
	<path d="M28.9,15.7c-1.4-2.9-3.7-5.3-6.5-6.7l-1.2,1.1c2.7,1.2,4.9,3.3,6.2,5.9c-2.1,4.1-6.4,7-11.4,7c-2.4,0-4.7-0.7-6.6-1.9
		l-1.1,1.1c2.2,1.5,4.9,2.3,7.8,2.3c5.7,0,10.6-3.3,12.9-8.2C29,16.1,29,15.9,28.9,15.7z"/>
</g>
</svg>
