<svg width="60" height="60" viewBox="0 0 60 60" fill="none" xmlns="http://www.w3.org/2000/svg">
<path fill-rule="evenodd" clip-rule="evenodd" d="M11.1058 8.00098C11.1058 7.31062 11.6655 6.75098 12.3558 6.75098H36.9077V14.5292V15.2792H37.6577H45.4395V33.2914H46.9395V14.5292V14.2185L46.7197 13.9988L38.1879 5.47054L37.9683 5.25098H37.6577H12.3558C10.8371 5.25098 9.60584 6.4822 9.60584 8.00098V48.3479C9.60584 49.8667 10.8371 51.0979 12.3558 51.0979H44.8789V49.5979H12.3558C11.6655 49.5979 11.1058 49.0383 11.1058 48.3479V8.00098ZM44.3783 13.7792L38.4077 7.8111V13.7792H44.3783ZM7.25 11.1704C7.25 10.7562 6.91421 10.4204 6.5 10.4204C6.08579 10.4204 5.75 10.7562 5.75 11.1704V52.0022C5.75 53.521 6.98122 54.7522 8.5 54.7522H39.9619C40.3761 54.7522 40.7119 54.4164 40.7119 54.0022C40.7119 53.588 40.3761 53.2522 39.9619 53.2522H8.5C7.80964 53.2522 7.25 52.6926 7.25 52.0022V11.1704ZM19.7619 20.3286C19.7619 19.9144 20.0977 19.5786 20.5119 19.5786H29.2485C29.6627 19.5786 29.9985 19.9144 29.9985 20.3286C29.9985 20.7428 29.6627 21.0786 29.2485 21.0786H20.5119C20.0977 21.0786 19.7619 20.7428 19.7619 20.3286ZM19.7619 25.1044C19.7619 24.6902 20.0977 24.3544 20.5119 24.3544H35.801C36.2152 24.3544 36.551 24.6902 36.551 25.1044C36.551 25.5187 36.2152 25.8544 35.801 25.8544H20.5119C20.0977 25.8544 19.7619 25.5187 19.7619 25.1044ZM19.7619 29.8803C19.7619 29.4661 20.0977 29.1303 20.5119 29.1303H35.801C36.2152 29.1303 36.551 29.4661 36.551 29.8803C36.551 30.2945 36.2152 30.6303 35.801 30.6303H20.5119C20.0977 30.6303 19.7619 30.2945 19.7619 29.8803ZM19.7619 34.6561C19.7619 34.2419 20.0977 33.9061 20.5119 33.9061H35.801C36.2152 33.9061 36.551 34.2419 36.551 34.6561C36.551 35.0703 36.2152 35.4061 35.801 35.4061H20.5119C20.0977 35.4061 19.7619 35.0703 19.7619 34.6561ZM48.7535 35.0804C48.4606 34.7877 47.9859 34.7877 47.693 35.0804L42.9152 39.8562C42.6222 40.1491 42.6222 40.6239 42.915 40.9169C43.2078 41.2098 43.6827 41.2099 43.9756 40.9171L47.4732 37.421V50.8935C47.4732 51.3077 47.809 51.6435 48.2232 51.6435C48.6375 51.6435 48.9732 51.3077 48.9732 50.8935V37.421L52.4708 40.9171C52.7638 41.2099 53.2387 41.2098 53.5315 40.9169C53.8243 40.6239 53.8242 40.1491 53.5313 39.8562L48.7535 35.0804Z" fill="black"/>
</svg>
