<svg width="12" height="12" viewBox="0 0 12 12" fill="none" xmlns="http://www.w3.org/2000/svg">
<g clip-path="url(#clip0_7555_136687)">
<path fill-rule="evenodd" clip-rule="evenodd" d="M7.30435 8.56335C7.30435 8.56335 8.31644 7.98358 8.58194 7.84339C8.84544 7.70421 9.11992 7.66916 9.28561 7.7713C9.53713 7.9245 11.6511 9.33036 11.8298 9.45553C12.0075 9.57969 12.0933 9.93717 11.8488 10.2856C11.6052 10.6341 10.4804 12.0139 10.0043 11.9999C9.52616 11.9839 7.5419 11.9408 3.80096 8.19786C0.0590262 4.45591 0.0151092 2.47229 0.00013744 1.99365C-0.0158324 1.51802 1.36456 0.392535 1.7139 0.148212C2.06324 -0.0951099 2.41957 -0.00298799 2.54433 0.168239C2.68507 0.363497 4.07445 2.47028 4.22816 2.71261C4.33296 2.87682 4.29403 3.15219 4.1543 3.41654C4.01556 3.68189 3.43565 4.69423 3.43565 4.69423C3.43565 4.69423 3.84488 5.39115 5.22627 6.77098C6.60766 8.15381 7.30435 8.56335 7.30435 8.56335Z" fill="#333333"/>
</g>
<defs>
<clipPath id="clip0_7555_136687">
<rect width="12" height="12" fill="white"/>
</clipPath>
</defs>
</svg>
