<svg width="32" height="32" viewBox="0 0 32 32" fill="none" xmlns="http://www.w3.org/2000/svg">
<g clip-path="url(#clip0_9331_339472)">
<circle cx="16" cy="16" r="15" fill="black" fill-opacity="0.7" stroke="white" stroke-width="2"/>
<path fill-rule="evenodd" clip-rule="evenodd" d="M13.3333 11.7334C12.7442 11.7334 12.2666 12.211 12.2666 12.8001V19.2001C12.2666 19.7892 12.7442 20.2667 13.3333 20.2667C13.9224 20.2667 14.3999 19.7892 14.3999 19.2001V12.8001C14.3999 12.211 13.9224 11.7334 13.3333 11.7334ZM18.6666 11.7334C18.0775 11.7334 17.5999 12.211 17.5999 12.8001V19.2001C17.5999 19.7892 18.0775 20.2667 18.6666 20.2667C19.2557 20.2667 19.7333 19.7892 19.7333 19.2001V12.8001C19.7333 12.211 19.2557 11.7334 18.6666 11.7334Z" fill="white"/>
</g>
<defs>
<clipPath id="clip0_9331_339472">
<rect width="32" height="32" fill="white"/>
</clipPath>
</defs>
</svg>
