<svg width="64" height="64" viewBox="0 0 64 64" fill="none" xmlns="http://www.w3.org/2000/svg">
<path fill-rule="evenodd" clip-rule="evenodd" d="M14.0661 5.38379C13.0996 5.38379 12.3161 6.16729 12.3161 7.13379V12.3171H7.13281C6.16631 12.3171 5.38281 13.1006 5.38281 14.0671V49.4005C5.38281 50.367 6.16632 51.1505 7.13281 51.1505H22.1156L34.5219 58.4268C35.6894 59.1115 37.1541 58.268 37.1541 56.9173V51.1505H49.9328C50.8993 51.1505 51.6828 50.367 51.6828 49.4005V43.1505H56.8661C57.8326 43.1505 58.6161 42.367 58.6161 41.4005V7.13379C58.6161 6.16729 57.8326 5.38379 56.8661 5.38379H14.0661ZM51.6828 41.6505H56.8661C57.0042 41.6505 57.1161 41.5385 57.1161 41.4005V7.13379C57.1161 6.99572 57.0042 6.88379 56.8661 6.88379H14.0661C13.9281 6.88379 13.8161 6.99572 13.8161 7.13379V12.3171H49.9328C50.8993 12.3171 51.6828 13.1006 51.6828 14.0671V41.6505ZM49.9328 13.8171C50.0709 13.8171 50.1828 13.9291 50.1828 14.0671V49.4005C50.1828 49.5385 50.0709 49.6505 49.9328 49.6505H36.4041C35.9899 49.6505 35.6541 49.9862 35.6541 50.4005V56.9173C35.6541 57.1123 35.4452 57.2294 35.2807 57.1329L22.6987 49.7535C22.5837 49.686 22.4527 49.6505 22.3193 49.6505H7.13281C6.99474 49.6505 6.88281 49.5385 6.88281 49.4005V14.0671C6.88281 13.929 6.99474 13.8171 7.13281 13.8171H49.9328ZM15.4661 26.7171C15.0519 26.7171 14.7161 27.0529 14.7161 27.4671C14.7161 27.8813 15.0519 28.2171 15.4661 28.2171H41.5995C42.0137 28.2171 42.3495 27.8813 42.3495 27.4671C42.3495 27.0529 42.0137 26.7171 41.5995 26.7171H15.4661ZM15.4661 34.7171C15.0519 34.7171 14.7161 35.0529 14.7161 35.4671C14.7161 35.8813 15.0519 36.2171 15.4661 36.2171H31.9995C32.4137 36.2171 32.7495 35.8813 32.7495 35.4671C32.7495 35.0529 32.4137 34.7171 31.9995 34.7171H15.4661Z" fill="black"/>
</svg>
