<svg width="60" height="60" viewBox="0 0 60 60" fill="none" xmlns="http://www.w3.org/2000/svg">
<path fill-rule="evenodd" clip-rule="evenodd" d="M11.709 5.00244C11.709 3.34559 13.0521 2.00244 14.709 2.00244H33.8848V11.8848C33.8848 14.6462 36.1234 16.8848 38.8848 16.8848H48.6706V35.0177C46.9487 33.8418 44.8673 33.1543 42.6252 33.1543C36.6925 33.1543 31.8848 37.9683 31.8848 43.9045C31.8848 46.4835 32.7922 48.8507 34.3052 50.7034H14.709C13.0521 50.7034 11.709 49.3602 11.709 47.7034V5.00244ZM50.6706 16.0501V36.7826C52.3477 38.6792 53.3656 41.173 53.3656 43.9045C53.3656 46.5121 52.4379 48.9031 50.8947 50.7647L58.421 58.2985C58.8113 58.6892 58.811 59.3224 58.4202 59.7127C58.0295 60.103 57.3964 60.1027 57.006 59.712L49.4813 52.1798C47.6214 53.7253 45.2319 54.6547 42.6252 54.6547C40.3277 54.6547 38.1989 53.9327 36.4527 52.7032L36.4336 52.7034H14.709C11.9476 52.7034 9.70898 50.4648 9.70898 47.7034V5.00244C9.70898 2.24102 11.9476 0.00244141 14.709 0.00244141H34.6668C34.9325 0.00244141 35.1873 0.108199 35.3749 0.296367L50.3788 15.3441C50.5657 15.5315 50.6706 15.7854 50.6706 16.0501ZM47.0965 14.8848L35.8848 3.6403V11.8848C35.8848 13.5417 37.228 14.8848 38.8848 14.8848H47.0965ZM42.6252 35.1543C37.7989 35.1543 33.8848 39.0709 33.8848 43.9045C33.8848 48.738 37.7989 52.6547 42.6252 52.6547C47.4514 52.6547 51.3656 48.738 51.3656 43.9045C51.3656 39.0709 47.4514 35.1543 42.6252 35.1543Z" fill="#666666"/>
<path fill-rule="evenodd" clip-rule="evenodd" d="M28.6738 28.0825C28.6738 28.7497 29.3569 29.2912 30.1997 29.2912C31.0423 29.2912 31.7254 28.7497 31.7254 28.0825V18.1865C31.7254 17.5192 31.0423 16.978 30.1997 16.978C29.3569 16.978 28.6738 17.5192 28.6738 18.1865V28.0825ZM28.6742 32.7684C28.6742 33.5977 29.3573 34.2701 30.2001 34.2701C31.0427 34.2701 31.7258 33.5977 31.7258 32.7684C31.7258 31.939 31.0427 31.2665 30.2001 31.2665C29.3573 31.2665 28.6742 31.939 28.6742 32.7684Z" fill="#666666"/>
</svg>
