<svg width="20" height="20" viewBox="0 0 20 20" fill="none" xmlns="http://www.w3.org/2000/svg">
<path fill-rule="evenodd" clip-rule="evenodd" d="M10.4216 4.61344C10.2253 4.30398 9.7737 4.30399 9.57732 4.61344L3.08026 14.8512C2.86901 15.1841 3.10816 15.6191 3.50243 15.6191H16.4965C16.8908 15.6191 17.13 15.1841 16.9187 14.8512L10.4216 4.61344ZM8.73299 4.07761C9.32214 3.14926 10.6768 3.14926 11.266 4.07761L17.763 14.3154C18.3968 15.3141 17.6793 16.6191 16.4965 16.6191H3.50243C2.31963 16.6191 1.60216 15.3141 2.23593 14.3154L8.73299 4.07761ZM9.74695 7.55149H10.251V12.5915H9.74695V7.55149ZM10.2518 13.5994H9.74695V14.1042H10.2518V13.5994Z" fill="#262626"/>
</svg>
