<svg width="161" height="160" viewBox="0 0 161 160" fill="none" xmlns="http://www.w3.org/2000/svg">
<path fill-rule="evenodd" clip-rule="evenodd" d="M117.134 48.8901C117.12 48.7259 117.113 48.5599 117.113 48.3923C117.113 27.9574 98.7007 11.2011 76.3853 13.5348L76.379 13.5355C59.5693 15.2755 46.18 28.1852 44.1523 43.9754L44.1522 43.9764C42.9685 53.1812 45.5257 61.7318 50.5435 68.5417C50.6011 68.6198 50.6567 68.6993 50.7104 68.7801L79.3156 111.826C79.578 112.132 79.9839 112.333 80.5012 112.333C81.0185 112.333 81.4244 112.132 81.6868 111.826L110.292 68.7801C110.343 68.7029 110.396 68.627 110.451 68.5523C114.571 62.9352 117.026 56.1797 117.134 48.8901ZM122.683 54.3772C121.684 60.9095 119.077 66.937 115.289 72.1009L86.5612 115.331C83.5852 119.333 77.4172 119.333 74.4412 115.331L45.7132 72.1009C39.8332 64.1209 36.8092 54.0361 38.2012 43.2112C40.6012 24.5219 56.3212 9.57969 75.7612 7.56736C101.417 4.88424 123.113 24.198 123.113 48.3923H123.137C123.137 48.8555 123.129 49.3168 123.113 49.7762C123.059 51.3338 122.914 52.869 122.683 54.3772ZM117.632 87.0489C117.382 87.0032 117.134 86.9898 116.892 87.0059C116.828 87.0019 116.764 86.9999 116.7 86.9999C115.043 86.9999 113.7 88.343 113.7 89.9999V137.67L83.7002 145.159V125C83.7002 123.343 82.357 122 80.7002 122C79.0433 122 77.7002 123.343 77.7002 125V145.093L47.7002 137.078V89.9999C47.7002 88.343 46.357 86.9999 44.7002 86.9999C44.6345 86.9999 44.5694 87.002 44.5047 87.0061C44.2647 86.9899 44.0189 87.0025 43.7714 87.0469L7.17135 93.6015C5.74125 93.8576 4.7002 95.1016 4.7002 96.5545V145.966C4.7002 146.842 5.08305 147.674 5.74824 148.244C6.41343 148.814 7.2945 149.065 8.16011 148.931L46.536 142.977L79.9258 151.898C80.417 152.029 80.9335 152.034 81.4268 151.911L117.211 142.978L152.4 148.924C153.271 149.071 154.162 148.827 154.837 148.257C155.511 147.687 155.9 146.849 155.9 145.966V96.5545C155.9 95.106 154.865 93.8643 153.44 93.6035L117.632 87.0489ZM119.7 137.314V93.5271L149.9 99.0552V142.417L119.7 137.314ZM41.7002 93.5132L10.7002 99.065V142.465L41.7002 137.656V93.5132ZM93.6171 46.6114C93.6171 53.2721 87.9501 59.0462 80.4891 59.0462C73.028 59.0462 67.3611 53.2721 67.3611 46.6114C67.3611 39.9506 73.028 34.1765 80.4891 34.1765C87.9501 34.1765 93.6171 39.9506 93.6171 46.6114ZM80.4891 65.0462C91.0532 65.0462 99.6171 56.7926 99.6171 46.6114C99.6171 36.4301 91.0532 28.1765 80.4891 28.1765C69.925 28.1765 61.3611 36.4301 61.3611 46.6114C61.3611 56.7926 69.925 65.0462 80.4891 65.0462Z" fill="white"/>
</svg>
