<svg width="17" height="17" viewBox="0 0 17 17" fill="none" xmlns="http://www.w3.org/2000/svg">
<path fill-rule="evenodd" clip-rule="evenodd" d="M15.0029 5.25C15.0029 5.66421 15.3387 6 15.7529 6C16.1671 6 16.5029 5.66421 16.5029 5.25V0.751007V0.75C16.5029 0.335786 16.1671 0 15.7529 0C15.7398 0 15.7267 0.000338438 15.7137 0.00100708H11.2529C10.8387 0.00100708 10.5029 0.336794 10.5029 0.751007C10.5029 1.16522 10.8387 1.50101 11.2529 1.50101H13.9752L7.57882 8.23585C7.29357 8.53619 7.3058 9.01091 7.60614 9.29616C7.90649 9.58141 8.3812 9.56917 8.66645 9.26883L15.0029 2.59709V5.25ZM2 3.49222H7.75C8.16421 3.49222 8.5 3.15643 8.5 2.74222C8.5 2.328 8.16421 1.99222 7.75 1.99222H1.25C0.835786 1.99222 0.5 2.328 0.5 2.74222L0.500019 2.74765L0.5 2.75308V15.2531C0.5 15.6673 0.835787 16.0031 1.25 16.0031H13.75H13.7505H13.751C14.1652 16.0031 14.501 15.6673 14.501 15.2531V8.75308C14.501 8.33887 14.1652 8.00308 13.751 8.00308C13.3368 8.00308 13.001 8.33887 13.001 8.75308V14.5031H2L2 3.49222Z" fill="#EA1917"/>
</svg>
