<svg width="60" height="60" viewBox="0 0 60 60" fill="none" xmlns="http://www.w3.org/2000/svg">
<path fill-rule="evenodd" clip-rule="evenodd" d="M19.8523 2.75049C19.8523 2.33627 19.5165 2.00049 19.1023 2.00049C18.6881 2.00049 18.3523 2.33627 18.3523 2.75049V7.11051C18.3523 7.52472 18.6881 7.86051 19.1023 7.86051C19.5165 7.86051 19.8523 7.52472 19.8523 7.11051V2.75049ZM14.3819 9.63041C11.7585 9.63041 9.63188 11.7571 9.63188 14.3804V45.6206C9.63188 48.244 11.7585 50.3706 14.3819 50.3706H45.6221C48.2454 50.3706 50.3721 48.244 50.3721 45.6206V14.3804C50.3721 11.7571 48.2454 9.63041 45.6221 9.63041H14.3819ZM11.1319 14.3804C11.1319 12.5855 12.587 11.1304 14.3819 11.1304H45.6221C47.417 11.1304 48.8721 12.5855 48.8721 14.3804V45.6206C48.8721 47.4156 47.417 48.8706 45.6221 48.8706H14.3819C12.5869 48.8706 11.1319 47.4156 11.1319 45.6206V14.3804ZM52.8904 40.1496C52.4762 40.1496 52.1404 40.4854 52.1404 40.8996C52.1404 41.3139 52.4762 41.6496 52.8904 41.6496H57.2504C57.6646 41.6496 58.0004 41.3139 58.0004 40.8996C58.0004 40.4854 57.6646 40.1496 57.2504 40.1496H52.8904ZM52.1404 19.0995C52.1404 18.6853 52.4762 18.3495 52.8904 18.3495H57.2504C57.6646 18.3495 58.0004 18.6853 58.0004 19.0995C58.0004 19.5138 57.6646 19.8495 57.2504 19.8495H52.8904C52.4762 19.8495 52.1404 19.5138 52.1404 19.0995ZM52.8904 29.2501C52.4762 29.2501 52.1404 29.5859 52.1404 30.0001C52.1404 30.4143 52.4762 30.7501 52.8904 30.7501H57.2504C57.6646 30.7501 58.0004 30.4143 58.0004 30.0001C58.0004 29.5859 57.6646 29.2501 57.2504 29.2501H52.8904ZM2 40.8996C2 40.4854 2.33579 40.1496 2.75 40.1496H7.11002C7.52424 40.1496 7.86002 40.4854 7.86002 40.8996C7.86002 41.3139 7.52424 41.6496 7.11002 41.6496H2.75C2.33579 41.6496 2 41.3139 2 40.8996ZM2.75 18.3495C2.33579 18.3495 2 18.6853 2 19.0995C2 19.5138 2.33579 19.8495 2.75 19.8495H7.11002C7.52424 19.8495 7.86002 19.5138 7.86002 19.0995C7.86002 18.6853 7.52424 18.3495 7.11002 18.3495H2.75ZM2 30.0001C2 29.5859 2.33579 29.2501 2.75 29.2501H7.11002C7.52424 29.2501 7.86002 29.5859 7.86002 30.0001C7.86002 30.4143 7.52424 30.7501 7.11002 30.7501H2.75C2.33579 30.7501 2 30.4143 2 30.0001ZM40.8994 2.00049C41.3136 2.00049 41.6494 2.33627 41.6494 2.75049V7.11051C41.6494 7.52472 41.3136 7.86051 40.8994 7.86051C40.4852 7.86051 40.1494 7.52472 40.1494 7.11051V2.75049C40.1494 2.33627 40.4852 2.00049 40.8994 2.00049ZM30.7548 2.75049C30.7548 2.33627 30.419 2.00049 30.0048 2.00049C29.5905 2.00049 29.2548 2.33627 29.2548 2.75049V7.11051C29.2548 7.52472 29.5905 7.86051 30.0048 7.86051C30.419 7.86051 30.7548 7.52472 30.7548 7.11051V2.75049ZM19.1023 52.1418C19.5165 52.1418 19.8523 52.4776 19.8523 52.8918V57.2519C19.8523 57.6661 19.5165 58.0019 19.1023 58.0019C18.6881 58.0019 18.3523 57.6661 18.3523 57.2519V52.8918C18.3523 52.4776 18.6881 52.1418 19.1023 52.1418ZM41.6494 52.8918C41.6494 52.4776 41.3136 52.1418 40.8994 52.1418C40.4852 52.1418 40.1494 52.4776 40.1494 52.8918V57.2519C40.1494 57.6661 40.4852 58.0019 40.8994 58.0019C41.3136 58.0019 41.6494 57.6661 41.6494 57.2519V52.8918ZM30.0048 52.1418C30.419 52.1418 30.7548 52.4776 30.7548 52.8918V57.2519C30.7548 57.6661 30.419 58.0019 30.0048 58.0019C29.5905 58.0019 29.2548 57.6661 29.2548 57.2519V52.8918C29.2548 52.4776 29.5905 52.1418 30.0048 52.1418ZM30.0487 22.4383C30.4629 22.4383 30.7987 22.7741 30.7987 23.1883V34.4115L35.3084 29.9443C35.6027 29.6528 36.0775 29.6551 36.369 29.9493C36.6605 30.2436 36.6583 30.7185 36.364 31.01L30.5856 36.734C30.2933 37.0235 29.8222 37.0235 29.5299 36.734L23.7515 31.01C23.4572 30.7185 23.455 30.2436 23.7465 29.9493C24.038 29.6551 24.5128 29.6528 24.8071 29.9443L29.2987 34.3936V23.1883C29.2987 22.7741 29.6345 22.4383 30.0487 22.4383Z" fill="black"/>
</svg>
