<svg width="60" height="60" viewBox="0 0 60 60" fill="none" xmlns="http://www.w3.org/2000/svg">
<path d="M53.2234 33.2254C53.2234 33.2254 42.8234 48.3879 29.9984 48.3879C17.1734 48.3879 6.77344 33.2254 6.77344 33.2254C6.77344 33.2254 17.1734 18.0754 29.9984 18.0754C42.8234 18.0754 53.2234 33.2254 53.2234 33.2254Z" stroke="#1D1D1B" stroke-width="2" stroke-miterlimit="10"/>
<path d="M30.0016 40.0505C33.5707 40.0505 36.4641 37.1571 36.4641 33.588C36.4641 30.0188 33.5707 27.1255 30.0016 27.1255C26.4324 27.1255 23.5391 30.0188 23.5391 33.588C23.5391 37.1571 26.4324 40.0505 30.0016 40.0505Z" stroke="#1D1D1B" stroke-width="2" stroke-miterlimit="10"/>
<path d="M30 18.0754V9.13794" stroke="#1D1D1B" stroke-width="2" stroke-miterlimit="10"/>
<path d="M36.6367 19.738L41.0992 12.0005" stroke="#1D1D1B" stroke-width="2" stroke-miterlimit="10"/>
<path d="M22.9117 19.738L18.4492 12.0005" stroke="#1D1D1B" stroke-width="2" stroke-miterlimit="10"/>
</svg>
