<svg width="24" height="24" viewBox="0 0 24 24" fill="none" xmlns="http://www.w3.org/2000/svg">
<path fill-rule="evenodd" clip-rule="evenodd" d="M17.2119 3.5C16.2923 3.5 15.534 4.25508 15.534 5.20253C15.534 6.14998 16.2923 6.90506 17.2119 6.90506C18.1314 6.90506 18.8897 6.14998 18.8897 5.20253C18.8897 4.25508 18.1314 3.5 17.2119 3.5ZM14.034 5.20253C14.034 3.44099 15.4497 2 17.2119 2C18.9741 2 20.3897 3.44099 20.3897 5.20253C20.3897 6.96407 18.9741 8.40506 17.2119 8.40506C16.318 8.40506 15.5134 8.03433 14.9374 7.43908L9.09826 11.0529C9.26403 11.4412 9.35572 11.8688 9.35572 12.3171C9.35572 12.3562 9.35502 12.3952 9.35364 12.434L14.9393 15.8909C15.5151 15.2969 16.3189 14.9271 17.2117 14.9271C18.9739 14.9271 20.3896 16.3681 20.3896 18.1296C20.3896 19.8912 18.9739 21.3321 17.2117 21.3321C15.4495 21.3321 14.0339 19.8912 14.0339 18.1296C14.0339 17.8002 14.0834 17.4819 14.1754 17.1822L8.92281 13.9314C8.37268 14.8797 7.35223 15.5196 6.17786 15.5196C4.41565 15.5196 3 14.0787 3 12.3171C3 10.5556 4.41565 9.11458 6.17786 9.11458C6.94729 9.11458 7.65065 9.3893 8.19895 9.84546L14.1747 6.14707C14.0832 5.8482 14.034 5.53094 14.034 5.20253ZM15.5339 18.1296C15.5339 17.1822 16.2922 16.4271 17.2117 16.4271C18.1312 16.4271 18.8896 17.1822 18.8896 18.1296C18.8896 19.0771 18.1312 19.8321 17.2117 19.8321C16.2922 19.8321 15.5339 19.0771 15.5339 18.1296ZM4.5 12.3171C4.5 11.3697 5.25833 10.6146 6.17786 10.6146C7.09739 10.6146 7.85572 11.3697 7.85572 12.3171C7.85572 13.2646 7.09739 14.0196 6.17786 14.0196C5.25833 14.0196 4.5 13.2646 4.5 12.3171Z" fill="black"/>
</svg>