<svg width="24" height="20" viewBox="0 0 24 20" fill="none" xmlns="http://www.w3.org/2000/svg">
<g id="EMI">
<g id="Group 6340453">
<path id="Union" fill-rule="evenodd" clip-rule="evenodd" d="M7.6 1V1.6V2.47567H16.4V1.6V1H17.6V1.6V2.47567H20.8H22V3.67567V17.8006V19.0006H20.8H3.2H2V17.8006V3.67567V2.47567H3.2H6.4V1.6V1L7.6 1ZM6.4 3.67567H3.2V7.12435H20.8V3.67567H17.6V4.32175V4.92175H16.4V4.32175V3.67567H7.6V4.32175V4.92175L6.4 4.92175V4.32175V3.67567ZM20.8 8.32435H3.2V17.8006H20.8V8.32435ZM8.59844 13.3623H7.39844V12.1623H8.59844V13.3623ZM12.5984 13.3623H11.3984V12.1623H12.5984V13.3623ZM15.3984 13.3623H16.5984V12.1623H15.3984V13.3623Z" fill="black"/>
</g>
</g>
</svg>
