<svg width="60" height="60" viewBox="0 0 60 60" fill="none" xmlns="http://www.w3.org/2000/svg">
<path fill-rule="evenodd" clip-rule="evenodd" d="M2.00002 30C2.00002 45.4638 14.5361 58.0002 30.0001 58.0002C45.464 58.0002 58.0001 45.4638 58.0001 30C58.0001 14.5358 45.464 2.00006 30.0001 2.00006C14.5361 2.00006 2.00002 14.5358 2.00002 30ZM1.6e-05 30C1.6e-05 46.5683 13.4316 60.0002 30.0001 60.0002C46.5686 60.0002 60.0001 46.5683 60.0001 30C60.0001 13.4312 46.5686 5.6e-05 30.0001 5.6e-05C13.4316 5.6e-05 1.6e-05 13.4312 1.6e-05 30ZM29.9938 43.0053C28.8927 43.0053 28.0002 42.1075 28.0002 41.0003C28.0002 39.893 28.8927 38.9952 29.9938 38.9952C31.0946 38.9952 31.9871 39.893 31.9871 41.0003C31.9871 42.1075 31.0946 43.0053 29.9938 43.0053ZM29.9938 36.3573C28.8927 36.3573 28.0002 35.6344 28.0002 34.7436V18.6079C28.0002 17.7169 28.8927 16.9945 29.9938 16.9945C31.0946 16.9945 31.9871 17.7169 31.9871 18.6079V34.7436C31.9871 35.6344 31.0946 36.3573 29.9938 36.3573Z" fill="#EA1917"/>
</svg>
