<svg width="80" height="80" viewBox="0 0 80 80" fill="none" xmlns="http://www.w3.org/2000/svg">
<path fill-rule="evenodd" clip-rule="evenodd" d="M5.00195 15.75C5.00195 13.6789 6.68089 12 8.75195 12H70.752C72.823 12 74.502 13.6789 74.502 15.75V49.75C74.502 51.8211 72.823 53.5 70.752 53.5H8.75195C6.68088 53.5 5.00195 51.8211 5.00195 49.75V15.75ZM8.75195 13.5C7.50931 13.5 6.50195 14.5074 6.50195 15.75V49.75C6.50195 50.9926 7.50931 52 8.75195 52H70.752C71.9946 52 73.002 50.9926 73.002 49.75V15.75C73.002 14.5074 71.9946 13.5 70.752 13.5H8.75195Z" fill="white"/>
<path d="M36.002 55.25H43.002" stroke="white" stroke-width="1.5" stroke-linecap="round"/>
<path d="M13.002 60.75C13.002 59.0931 14.3451 57.75 16.002 57.75H21.002C22.6588 57.75 24.002 59.0931 24.002 60.75V66.75H16.002C14.3451 66.75 13.002 65.4069 13.002 63.75V60.75Z" stroke="white" stroke-width="1.5"/>
<path d="M56.002 60.75C56.002 59.0931 57.3451 57.75 59.002 57.75H64.002C65.6588 57.75 67.002 59.0931 67.002 60.75V63.75C67.002 65.4069 65.6588 66.75 64.002 66.75H56.002V60.75Z" stroke="white" stroke-width="1.5"/>
<rect x="24.002" y="61.75" width="32" height="5" stroke="white" stroke-width="1.5"/>
<path d="M9.48836 60.1504C8.76912 60.7269 8.30859 61.6129 8.30859 62.6064C8.30859 63.5999 8.76912 64.4859 9.48836 65.0624" stroke="white" stroke-width="1.5" stroke-linecap="round" stroke-linejoin="round"/>
<path d="M7.52164 57.457C6.08317 58.6101 5.16211 60.382 5.16211 62.3691C5.16211 64.3561 6.08317 66.128 7.52164 67.2811" stroke="white" stroke-width="1.5" stroke-linecap="round" stroke-linejoin="round"/>
<path d="M5.55491 55C3.39722 56.7297 2.01562 59.3875 2.01562 62.3681C2.01562 65.3486 3.39722 68.0064 5.55491 69.7361" stroke="white" stroke-width="1.5" stroke-linecap="round" stroke-linejoin="round"/>
<path d="M71.0116 60.1504C71.7309 60.7269 72.1914 61.6129 72.1914 62.6064C72.1914 63.5999 71.7309 64.4859 71.0116 65.0624" stroke="white" stroke-width="1.5" stroke-linecap="round" stroke-linejoin="round"/>
<path d="M72.9784 57.457C74.4168 58.6101 75.3379 60.382 75.3379 62.3691C75.3379 64.3561 74.4168 66.128 72.9784 67.2811" stroke="white" stroke-width="1.5" stroke-linecap="round" stroke-linejoin="round"/>
<path d="M74.9451 55C77.1028 56.7297 78.4844 59.3875 78.4844 62.3681C78.4844 65.3486 77.1028 68.0064 74.9451 69.7361" stroke="white" stroke-width="1.5" stroke-linecap="round" stroke-linejoin="round"/>
</svg>
