<svg width="16" height="16" viewBox="0 0 16 16" fill="none" xmlns="http://www.w3.org/2000/svg">
<path d="M13.3654 3.75948C13.0859 3.75948 12.8318 3.83115 12.6031 3.95658L8.35995 1.10751C8.14821 0.964163 7.88566 0.964163 7.67393 1.10751L2.27889 4.73604C2.09256 4.86147 1.98246 5.0765 1.98246 5.30944V10.685C1.39806 10.9538 1 11.5631 1 12.2708C1 13.2295 1.73684 14 2.6346 14C3.53237 14 4.27768 13.2295 4.27768 12.2708C4.27768 11.5451 3.86267 10.9359 3.26981 10.6761V5.67677L8.02117 2.47829L11.7901 5.02274C11.7477 5.17505 11.7308 5.32736 11.7308 5.49759C11.7308 6.23225 12.1627 6.85941 12.7725 7.11027V12.4948H6.96249V8.65127H9.06292V11.6347C9.06292 11.6974 9.11373 11.7512 9.17302 11.7512H10.2317C10.291 11.7512 10.3418 11.6974 10.3418 11.6347V7.97036C10.3418 7.59407 10.0538 7.28945 9.69812 7.28945H6.31881C5.9631 7.28945 5.68361 7.59407 5.68361 7.97036V13.1757C5.68361 13.552 5.97157 13.8566 6.31881 13.8566H13.4162C13.7635 13.8566 14.0514 13.552 14.0514 13.1757V7.07443C14.6104 6.79669 15 6.19642 15 5.50655C15 4.5479 14.2632 3.77739 13.3654 3.77739V3.75948ZM2.6346 12.9249C2.29583 12.9249 2.0248 12.6382 2.0248 12.2798C2.0248 11.9214 2.29583 11.6258 2.6346 11.6258C2.97338 11.6258 3.25287 11.9214 3.25287 12.2798C3.25287 12.6382 2.98185 12.9249 2.6346 12.9249ZM13.3569 6.14266C13.0181 6.14266 12.7387 5.85596 12.7387 5.49759C12.7387 5.13921 13.0181 4.84356 13.3569 4.84356C13.6957 4.84356 13.9667 5.13921 13.9667 5.49759C13.9667 5.85596 13.6957 6.14266 13.3569 6.14266Z" fill="black"/>
</svg>
