<svg width="48" height="48" viewBox="0 0 48 48" fill="none" xmlns="http://www.w3.org/2000/svg">
<path fill-rule="evenodd" clip-rule="evenodd" d="M22.0472 7.80557L14.5952 4.02985C13.9872 3.65672 13.2128 3.65672 12.6048 4.02985L5.15008 7.80693C4.36625 8.20021 4 8.97751 4 9.7V14.8C4 20.5181 7.97463 25.9519 13.3621 27.2713L13.6 27.3295L13.8379 27.2713C19.2254 25.9519 23.2 20.5181 23.2 14.8V9.7C23.2 8.97751 22.8338 8.20021 22.0499 7.80693L22.0472 7.80557ZM13.552 5.79204L13.6 5.7677L13.648 5.79204L21.148 9.59204L21.1528 9.59443C21.1625 9.59929 21.1676 9.60352 21.1706 9.60636C21.1738 9.60947 21.1777 9.614 21.1818 9.62114C21.1907 9.63675 21.2 9.66422 21.2 9.7V14.8C21.2 19.5938 17.8971 24.0832 13.6 25.2668C9.30287 24.0832 6 19.5938 6 14.8V9.7C6 9.66422 6.00933 9.63674 6.01824 9.62114C6.02232 9.614 6.02617 9.60946 6.02941 9.60636C6.03237 9.60352 6.03748 9.59929 6.04721 9.59443L6.04722 9.59444L6.05196 9.59204L13.552 5.79204ZM24.6 8.43555H30.0644V17.8C30.0644 19.8942 31.6611 21.5355 33.7 21.5355H41.7645V41.4C41.7645 41.6438 41.6837 41.8205 41.594 41.9236C41.5092 42.0211 41.4108 42.0644 41.3 42.0644H23.2077C17.5131 41.9687 12.9355 37.378 12.9355 31.7V29.2H11.0645V31.7C11.0645 38.2904 16.2767 43.619 22.8 43.9234V43.9356H23.2H41.3C42.7352 43.9356 43.6356 42.6896 43.6356 41.4V19.7C43.6356 18.6598 43.2425 17.7194 42.5615 17.0385L42.5616 17.0384L42.5545 17.0315L32.9578 7.63479C32.3199 6.9983 31.494 6.56445 30.5 6.56445H24.6V8.43555ZM41.2416 18.3646C41.5521 18.6767 41.7556 19.1225 41.7642 19.6644H33.7C32.7389 19.6644 31.9356 18.9057 31.9356 17.8V9.2525L41.2416 18.3646Z" fill="#1D1D1B"/>
<path d="M10 15.4091L12.7071 18L18 13" stroke="#1D1D1B" stroke-width="2"/>
</svg>
