<svg width="64" height="64" viewBox="0 0 64 64" fill="none" xmlns="http://www.w3.org/2000/svg">
<g id="Icon_Guide_64">
<rect width="64" height="64" fill="white"/>
<path id="Union" fill-rule="evenodd" clip-rule="evenodd" d="M16.3911 38.5079V27.0102C16.3911 24.8957 18.1491 23.218 20.272 23.218C21.165 23.218 21.9934 23.5148 22.6536 24.0162V22.0736C22.6536 20.0484 24.3215 18.4297 26.3503 18.4297C27.3041 18.4297 28.1782 18.7875 28.8366 19.377C29.4162 17.9583 30.8032 16.9562 32.4279 16.9562C34.5761 16.9562 36.3088 18.7081 36.3088 20.8584V20.9843C36.9245 20.5357 37.6854 20.2714 38.5052 20.2714C40.534 20.2714 42.2019 21.8901 42.2019 23.9153L42.2019 38.5079H49.0916C49.4535 34.0319 53.0234 30.4622 57.4995 30.1006V14.4577C53.0901 14.1938 49.5186 10.8202 48.9483 6.50025L15.3228 6.50024C14.7409 10.9086 11.0337 14.3314 6.5 14.47L6.5 30.0748C11.1915 30.218 14.998 33.8782 15.3723 38.5079H16.3911ZM16.3911 40.0079H5.75H5L5 39.2579L5 5.75025V5.00024H5.75L58.2495 5.00025L58.9995 5.00025V5.75025V39.2579V40.0079H58.2495H48.4637V46.3155C48.4637 53.3571 42.7553 59.0655 35.7136 59.0655H32.8877V59.0656H29.1411C22.0995 59.0656 16.3911 53.3572 16.3911 46.3156V40.0079ZM46.9637 40.0079H42.2019V43.0132H40.7019L40.7019 39.8067V23.9153C40.7019 22.744 39.7312 21.7714 38.5052 21.7714C37.2928 21.7714 36.3302 22.7223 36.3088 23.876V31.7031H36.3084V35.755H34.8084V23.9153C34.8084 23.898 34.8086 23.8807 34.8088 23.8635V20.8584C34.8088 19.5269 33.7381 18.4562 32.4279 18.4562C31.1178 18.4562 30.0471 19.5269 30.0471 20.8584V31.7031H30.047V35.7549H28.547V22.0736C28.547 20.9023 27.5764 19.9297 26.3503 19.9297C25.1243 19.9297 24.1536 20.9023 24.1536 22.0736V33.5449H24.1529V37.1526H22.6529V27.0102C22.6529 25.7644 21.6074 24.718 20.272 24.718C18.9367 24.718 17.8911 25.7644 17.8911 27.0102V46.3156C17.8911 52.5288 22.9279 57.5656 29.1411 57.5656H32.7039V57.5655H35.7136C41.9269 57.5655 46.9637 52.5287 46.9637 46.3155V40.0079ZM57.4995 12.9544C53.9194 12.6979 51.0177 9.98998 50.4641 6.50025L57.4995 6.50025V12.9544ZM13.807 6.50024L6.5 6.50024L6.5 12.9691C10.2042 12.8337 13.2395 10.0778 13.807 6.50024ZM50.5975 38.5079C50.9509 34.8609 53.8524 31.9596 57.4995 31.6066V38.5079H50.5975ZM6.5 31.5756L6.5 38.5079H13.8664C13.4981 34.7074 10.3627 31.7167 6.5 31.5756Z" fill="black"/>
</g>
</svg>
