<svg width="60" height="60" viewBox="0 0 60 60" fill="none" xmlns="http://www.w3.org/2000/svg">
<path fill-rule="evenodd" clip-rule="evenodd" d="M18.5646 15.5797C18.5646 8.90825 23.9728 3.5 30.6442 3.5C37.3157 3.5 42.7239 8.90825 42.7239 15.5797C42.7239 22.2511 37.3157 27.6593 30.6442 27.6593C23.9728 27.6593 18.5646 22.2511 18.5646 15.5797ZM30.6442 2C23.1444 2 17.0646 8.07983 17.0646 15.5797C17.0646 16.4859 17.1534 17.3715 17.3227 18.228L9.89878 22.5121C9.77828 22.5758 9.67369 22.6732 9.60052 22.7999C9.52892 22.924 9.4968 23.0601 9.50025 23.1935V45.8809C9.50025 46.1489 9.64326 46.3966 9.87539 46.5305L29.5694 57.8951C29.6754 57.9563 29.7926 57.9895 29.9107 57.9948C29.9235 57.9954 29.9364 57.9958 29.9493 57.9958C30.1093 57.9958 30.2576 57.9457 30.3794 57.8603L49.9899 46.5303C50.2218 46.3963 50.3647 46.1488 50.3647 45.8809V23.1752V23.174C50.3647 23.0467 50.3322 22.9177 50.264 22.7996C50.1915 22.6742 50.0884 22.5777 49.9695 22.514L43.8022 18.9508C44.0775 17.8729 44.2239 16.7434 44.2239 15.5797C44.2239 8.07983 38.1441 2 30.6442 2ZM43.3379 20.4149C41.3893 25.5274 36.4409 29.1593 30.6442 29.1593C24.5938 29.1593 19.4675 25.2024 17.7122 19.7351L11.7511 23.175L29.9439 33.6734L48.1151 23.175L43.3379 20.4149ZM31.4469 17.1844H28.9618L28.9433 20.452C28.9409 20.8662 28.6033 21.2001 28.1891 21.1977C27.7748 21.1954 27.441 20.8577 27.4433 20.4435L27.4627 17.0202C27.4466 16.9848 27.4376 16.9455 27.4376 16.9041V11.0498C27.4376 10.895 27.5631 10.7695 27.7179 10.7695H31.4469C33.2183 10.7695 34.6543 12.2055 34.6543 13.9769C34.6543 15.7484 33.2183 17.1844 31.4469 17.1844ZM28.9897 12.2695L28.9703 15.6844H31.4469C32.3899 15.6844 33.1543 14.9199 33.1543 13.9769C33.1543 13.034 32.3899 12.2695 31.4469 12.2695H28.9897ZM30.6993 55.9431L48.8647 45.448V24.4742L30.6993 34.9693V55.9431ZM29.1993 34.9756V55.9498L11.0003 45.4478V24.4736L29.1993 34.9756Z" fill="#666666"/>
</svg>
