<svg width="24" height="24" viewBox="0 0 24 24" fill="none" xmlns="http://www.w3.org/2000/svg">
<path fill-rule="evenodd" clip-rule="evenodd" d="M2.9751 5.80664C2.9751 4.97821 3.64667 4.30664 4.4751 4.30664H18.864C19.6925 4.30664 20.364 4.97821 20.364 5.80664V10.9932H19.364V5.80664C19.364 5.5305 19.1402 5.30664 18.864 5.30664H14.5764V10.3811V10.8811H14.0764H9.93824H9.43824V10.3811V5.30664H4.4751C4.19895 5.30664 3.9751 5.5305 3.9751 5.80664V17.5228C3.9751 17.7989 4.19896 18.0228 4.4751 18.0228H12.3236V19.0228H4.4751C3.64667 19.0228 2.9751 18.3512 2.9751 17.5228V5.80664ZM10.4382 5.30664V9.88109H13.5764V5.30664H10.4382ZM16.8569 18.6916C18.6066 18.6916 20.025 17.2732 20.025 15.5235C20.025 13.7738 18.6066 12.3554 16.8569 12.3554C15.1072 12.3554 13.6888 13.7738 13.6888 15.5235C13.6888 17.2732 15.1072 18.6916 16.8569 18.6916ZM16.8569 19.6916C19.1588 19.6916 21.025 17.8254 21.025 15.5235C21.025 13.2215 19.1588 11.3554 16.8569 11.3554C14.5549 11.3554 12.6888 13.2215 12.6888 15.5235C12.6888 17.8254 14.5549 19.6916 16.8569 19.6916ZM18.623 14.8151C18.8065 14.6087 18.7879 14.2927 18.5815 14.1092C18.3751 13.9258 18.0591 13.9443 17.8756 14.1507L16.3963 15.815L15.8434 15.1931C15.66 14.9867 15.344 14.9681 15.1376 15.1516C14.9312 15.335 14.9126 15.6511 15.096 15.8574L16.0226 16.8998C16.1175 17.0065 16.2535 17.0676 16.3963 17.0676C16.5391 17.0676 16.6751 17.0065 16.77 16.8998L18.623 14.8151Z" fill="#555555"/>
</svg>
