<svg width="64" height="64" viewBox="0 0 64 64" fill="none" xmlns="http://www.w3.org/2000/svg">
<path fill-rule="evenodd" clip-rule="evenodd" d="M7.99902 26.6426H10.4155V37.1562H7.99902V26.6426ZM14.083 26.6426H16.4465C16.4465 28.9212 15.5562 31.0409 13.977 32.6095L17.3155 37.1562H14.3374L10.7127 32.2173L11.6454 31.5178C13.1927 30.352 14.083 28.5821 14.083 26.6426ZM20.2918 26.6426H18.0132V37.1562H20.2918V26.6426ZM38.034 30.7016C38.5851 29.9491 39.4118 29.6841 40.2809 29.6841C42.0296 29.6841 43.3756 30.8394 43.3756 32.5351V37.1666H41.2029V33.33C41.2029 32.2702 40.6518 31.6978 39.6979 31.6978C38.8077 31.6978 38.0658 32.2384 38.0658 33.3406V37.156H35.8719V29.8855H38.034V30.7016ZM27.179 29.8855V30.3518C26.5643 29.9279 25.8224 29.6841 25.0169 29.6841C22.8973 29.6841 21.1803 31.4011 21.1803 33.5208C21.1803 35.6405 22.8973 37.3574 25.0169 37.3574C25.8224 37.3574 26.5643 37.1136 27.179 36.6897V37.156H29.3517V29.8855H27.179ZM25.1971 35.3861C24.1055 35.3861 23.2258 34.5488 23.2258 33.5208C23.2258 32.4927 24.1055 31.6554 25.1971 31.6554C26.2887 31.6554 27.1684 32.4927 27.1684 33.5208C27.1684 34.5488 26.2887 35.3861 25.1971 35.3861ZM32.726 29.8865V30.8297C33.1605 30.268 33.9766 29.8865 34.8563 29.8865V32.0061H34.8351C33.9766 32.0061 32.7366 32.6208 32.7366 33.7655V37.157H30.5003V29.8865H32.726ZM50.1373 29.8855V30.3518C49.5225 29.9279 48.7807 29.6841 47.9752 29.6841C45.8555 29.6841 44.1386 31.4011 44.1386 33.5208C44.1386 35.6405 45.8555 37.3574 47.9752 37.3574C48.7807 37.3574 49.5225 37.1136 50.1373 36.6897V37.156H52.3099V29.8855H50.1373ZM48.1553 35.3861C47.0637 35.3861 46.184 34.5488 46.184 33.5208C46.184 32.4927 47.0637 31.6554 48.1553 31.6554C49.247 31.6554 50.1267 32.4927 50.1267 33.5208C50.1373 34.5488 49.247 35.3861 48.1553 35.3861ZM53.8036 29.9224C53.9201 29.9224 53.9943 29.986 53.9943 30.092C53.9943 30.1661 53.9625 30.2191 53.8989 30.2509L53.9943 30.4735H53.8883L53.8036 30.2721H53.6976V30.4735H53.6022V29.9224H53.8036ZM53.6976 30.1767H53.8036C53.8777 30.1767 53.8989 30.1449 53.8989 30.092C53.8989 30.039 53.8671 30.0072 53.8036 30.0072H53.6976V30.1767ZM53.7727 29.6922C53.4865 29.6922 53.2534 29.9253 53.2534 30.2115C53.264 30.4977 53.4865 30.7308 53.7727 30.7308C54.0588 30.7308 54.292 30.4977 54.292 30.2115C54.292 29.9253 54.0588 29.6922 53.7727 29.6922ZM53.7727 30.6354C53.5395 30.6354 53.3594 30.4447 53.3594 30.2115C53.3594 29.9783 53.5501 29.7876 53.7727 29.7876C54.0059 29.7876 54.186 29.9783 54.186 30.2115C54.186 30.4447 53.9953 30.6354 53.7727 30.6354ZM53.2667 35.9503C53.2667 35.1978 53.8815 34.5831 54.6339 34.5831C55.3864 34.5831 56.0011 35.1872 56.0011 35.9503C56.0011 36.7028 55.3864 37.3175 54.6339 37.3175C53.8815 37.3175 53.2667 36.7028 53.2667 35.9503Z" fill="black"/>
<rect x="2.75" y="16.75" width="58.5" height="30.5" rx="3.25" stroke="black" stroke-width="1.5"/>
</svg>
