<svg width="36" height="36" viewBox="0 0 36 36" fill="none" xmlns="http://www.w3.org/2000/svg">
<path fill-rule="evenodd" clip-rule="evenodd" d="M32.6798 3.07154C31.6529 2.0921 29.9315 2.31958 28.8084 3.86884C28.601 4.155 28.625 4.53843 28.8449 4.79581C28.643 4.7486 28.4326 4.72363 28.2163 4.72363L19.5625 4.72363C18.8332 4.72363 18.1337 5.01336 17.618 5.52909L3.65214 19.4949C2.57819 20.5689 2.57819 22.3101 3.65214 23.384L12.3059 32.0378C13.3798 33.1117 15.121 33.1117 16.195 32.0378L30.1608 18.0719C30.6765 17.5562 30.9663 16.8567 30.9663 16.1274V7.93349C31.2222 7.77076 31.4628 7.61428 31.6809 7.4678C32.1566 7.14826 32.5984 6.82903 32.829 6.58158C33.3795 5.99089 33.5808 5.3033 33.4981 4.64263C33.4187 4.00818 33.0867 3.45964 32.6798 3.07154ZM29.4188 7.13129C29.2699 6.60736 28.7879 6.22363 28.2163 6.22363L19.5625 6.22363C19.231 6.22363 18.9131 6.35533 18.6787 6.58975L4.7128 20.5556C4.22464 21.0438 4.22464 21.8352 4.7128 22.3234L13.3665 30.9771C13.8547 31.4653 14.6461 31.4653 15.1343 30.9771L29.1002 17.0113C29.3346 16.7768 29.4663 16.4589 29.4663 16.1274V8.85731C28.9511 9.16679 28.424 9.47703 27.9234 9.76772C28.149 10.6569 27.9139 11.6388 27.2181 12.3346C26.1673 13.3854 24.4636 13.3854 23.4128 12.3346C22.362 11.2838 22.362 9.58006 23.4128 8.52925C24.4452 7.49682 26.1079 7.47876 27.1624 8.47507C27.8001 8.10482 28.4811 7.70258 29.1234 7.3119C29.223 7.25128 29.3216 7.19102 29.4188 7.13129ZM30.7098 6.31244C30.7557 6.28203 30.8006 6.25208 30.8445 6.22262C31.3467 5.88529 31.6389 5.65848 31.7317 5.5589C31.9897 5.28202 32.0353 5.03342 32.0097 4.82889C31.9809 4.59815 31.8495 4.35248 31.6445 4.15699C31.4477 3.96924 30.7633 3.72785 30.0229 4.74921C29.8984 4.92095 29.7147 5.02435 29.52 5.05173C30.0399 5.33216 30.4591 5.77507 30.7098 6.31244ZM25.7085 9.3076C25.2905 9.1618 24.8075 9.25591 24.4735 9.58991C24.0085 10.0549 24.0085 10.8089 24.4735 11.2739C24.9385 11.7389 25.6925 11.7389 26.1575 11.2739C26.3509 11.0805 26.4638 10.8371 26.4964 10.5853C26.3872 10.647 26.2829 10.7057 26.1841 10.761C25.8228 10.9636 25.3657 10.8348 25.1632 10.4735C24.9607 10.1121 25.0894 9.65505 25.4508 9.45254C25.5329 9.4065 25.619 9.3581 25.7085 9.3076ZM18.2821 13.2178C18.2821 12.8035 17.9463 12.4678 17.5321 12.4678C17.1179 12.4678 16.7821 12.8035 16.7821 13.2178V23.6674C16.7821 24.0816 17.1179 24.4174 17.5321 24.4174C17.9463 24.4174 18.2821 24.0816 18.2821 23.6674V13.2178ZM12.9449 18.4406C12.9449 18.0182 13.2878 17.6749 13.7117 17.6749C14.1356 17.6749 14.4784 18.0182 14.4784 18.4406C14.4784 18.863 14.1356 19.2064 13.7117 19.2064C13.2878 19.2064 12.9449 18.863 12.9449 18.4406ZM13.7117 16.1749C12.4603 16.1749 11.4449 17.1888 11.4449 18.4406C11.4449 19.6924 12.4603 20.7064 13.7117 20.7064C14.9631 20.7064 15.9784 19.6924 15.9784 18.4406C15.9784 17.1888 14.9631 16.1749 13.7117 16.1749ZM21.3522 17.6749C20.9283 17.6749 20.5855 18.0182 20.5855 18.4406C20.5855 18.863 20.9283 19.2064 21.3522 19.2064C21.7762 19.2064 22.119 18.863 22.119 18.4406C22.119 18.0182 21.7762 17.6749 21.3522 17.6749ZM19.0855 18.4406C19.0855 17.1888 20.1008 16.1749 21.3522 16.1749C22.6037 16.1749 23.619 17.1888 23.619 18.4406C23.619 19.6924 22.6037 20.7064 21.3522 20.7064C20.1008 20.7064 19.0855 19.6924 19.0855 18.4406Z" fill="#EA1917"/>
</svg>
