<svg width="18" height="18" viewBox="0 0 18 18" fill="none" xmlns="http://www.w3.org/2000/svg">
<path fill-rule="evenodd" clip-rule="evenodd" d="M0.6 0C0.268629 0 0 0.268629 0 0.6V5.63966C0 5.97103 0.268629 6.23966 0.6 6.23966C0.931371 6.23966 1.2 5.97103 1.2 5.63966V1.2H5.63966C5.97103 1.2 6.23966 0.931371 6.23966 0.6C6.23966 0.268629 5.97103 0 5.63966 0H0.6ZM12.3602 0C12.0289 0 11.7602 0.268629 11.7602 0.6C11.7602 0.931371 12.0289 1.2 12.3602 1.2H16.7999V5.63966C16.7999 5.97103 17.0685 6.23966 17.3999 6.23966C17.7313 6.23966 17.9999 5.97103 17.9999 5.63966V0.6C17.9999 0.268629 17.7313 0 17.3999 0H12.3602ZM0.6 11.7612C0.931371 11.7612 1.2 12.0298 1.2 12.3612V16.8009H5.63966C5.97103 16.8009 6.23966 17.0695 6.23966 17.4009C6.23966 17.7322 5.97103 18.0009 5.63966 18.0009H0.6C0.268629 18.0009 0 17.7322 0 17.4009V12.3612C0 12.0298 0.268629 11.7612 0.6 11.7612ZM17.9999 12.3612C17.9999 12.0298 17.7313 11.7612 17.3999 11.7612C17.0685 11.7612 16.7999 12.0298 16.7999 12.3612V16.8009H12.3602C12.0289 16.8009 11.7602 17.0695 11.7602 17.4009C11.7602 17.7322 12.0289 18.0009 12.3602 18.0009H17.3999C17.7313 18.0009 17.9999 17.7322 17.9999 17.4009V12.3612ZM8.16034 4.55965C6.17227 4.55965 4.56062 6.17129 4.56062 8.15936C4.56062 10.1474 6.17227 11.7591 8.16034 11.7591C10.1484 11.7591 11.7601 10.1474 11.7601 8.15936C11.7601 6.17129 10.1484 4.55965 8.16034 4.55965ZM3.36062 8.15936C3.36062 5.50855 5.50953 3.35965 8.16034 3.35965C10.8111 3.35965 12.9601 5.50855 12.9601 8.15936C12.9601 9.26901 12.5835 10.2907 11.9512 11.1036L14.4651 13.6176C14.6995 13.8519 14.6995 14.2318 14.4651 14.4661C14.2308 14.7004 13.8509 14.7004 13.6166 14.4661L11.1024 11.9519C10.2898 12.5832 9.26899 12.9591 8.16034 12.9591C5.50953 12.9591 3.36062 10.8102 3.36062 8.15936Z" fill="white"/>
</svg>
