<svg width="48" height="48" viewBox="0 0 48 48" fill="none" xmlns="http://www.w3.org/2000/svg">
<path fill-rule="evenodd" clip-rule="evenodd" d="M18.0928 7.0073C17.6833 6.59783 17.0165 6.59783 16.607 7.0073L16.307 7.3073L15.5999 6.6002L16.307 7.3073C15.8975 7.71678 15.8975 8.38361 16.307 8.79309L16.3132 8.79929L16.3193 8.8056L18.921 11.5002H22.5857L18.0928 7.0073ZM24.2 10.286L19.507 5.59309C18.3165 4.40256 16.3833 4.40256 15.1928 5.59309L15.8897 6.28995L15.1928 5.59309L14.8928 5.89309C13.7045 7.08134 13.7023 9.00941 14.886 10.2005L16.1409 11.5002H10C7.24772 11.5002 5 13.748 5 16.5002V18.8002V19.8002H6H6.69995V37.0003C6.69995 40.4526 9.54767 43.3003 13 43.3003H34.9C38.3522 43.3003 41.2 40.4526 41.2 37.0003V19.8002H42H43V18.8002V16.5002C43 13.748 40.7523 11.5002 38 11.5002H32.259L33.5139 10.2005C34.6976 9.00941 34.6954 7.08134 33.5071 5.89309L33.2071 5.59309C32.0166 4.40256 30.0834 4.40256 28.8929 5.59309L24.2 10.286ZM31.7929 7.0073C31.3834 6.59783 30.7166 6.59783 30.3071 7.0073L25.8142 11.5002H29.4789L32.0806 8.8056L32.0867 8.79929L32.0929 8.79309C32.5024 8.38361 32.5024 7.71678 32.0929 7.3073L31.7929 7.0073ZM23 13.5002H10C8.35228 13.5002 7 14.8525 7 16.5002V17.8002H23V13.5002ZM25 17.8002V13.5002H38C39.6477 13.5002 41 14.8525 41 16.5002V17.8002H25ZM23 41.3003V19.8003H8.69995V37.0003C8.69995 39.348 10.6522 41.3003 13 41.3003H23ZM25 41.3003V19.8003H39.2V37.0003C39.2 39.348 37.2477 41.3003 34.9 41.3003H25Z" fill="#1D1D1B"/>
</svg>
