<svg width="18" height="19" viewBox="0 0 18 19" fill="none" xmlns="http://www.w3.org/2000/svg">
<rect x="7.5" y="3" width="3" height="3" rx="0.5" stroke="#DAA40D"/>
<rect x="7.5" y="8" width="3" height="3" rx="0.5" stroke="#DAA40D"/>
<rect x="7.5" y="13" width="3" height="3" rx="0.5" stroke="#DAA40D"/>
<path d="M11 14.5L14 14.5C14.5523 14.5 15 14.0523 15 13.5L15 5.5C15 4.94772 14.5523 4.5 14 4.5L12.3333 4.5" stroke="#DAA40D" stroke-linecap="round" stroke-linejoin="round"/>
<path d="M13 3.5L12 4.5L13 5.5" stroke="#DAA40D" stroke-linecap="round" stroke-linejoin="round"/>
<path d="M7 4.5H4C3.44772 4.5 3 4.94772 3 5.5V13.5C3 14.0523 3.44772 14.5 4 14.5H5.66667" stroke="#DAA40D" stroke-linecap="round" stroke-linejoin="round"/>
<path d="M5 15.5L6 14.5L5 13.5" stroke="#DAA40D" stroke-linecap="round" stroke-linejoin="round"/>
</svg>
