<svg width="65" height="64" viewBox="0 0 65 64" fill="none" xmlns="http://www.w3.org/2000/svg">
<g clip-path="url(#clip0_653_188703)">
<path d="M18.2852 18H4.28516C3.18059 18 2.28516 18.8954 2.28516 20V44C2.28516 45.1046 3.18059 46 4.28516 46H18.2852C19.3897 46 20.2852 45.1046 20.2852 44V20C20.2852 18.8954 19.3897 18 18.2852 18Z" stroke="black" stroke-width="1.5" stroke-linecap="round" stroke-linejoin="round"/>
<path d="M11.2852 42.5C14.3227 42.5 16.7852 40.0376 16.7852 37C16.7852 33.9624 14.3227 31.5 11.2852 31.5C8.24759 31.5 5.78516 33.9624 5.78516 37C5.78516 40.0376 8.24759 42.5 11.2852 42.5Z" stroke="black" stroke-width="1.5" stroke-linecap="round" stroke-linejoin="round"/>
<path d="M11.2852 28C12.942 28 14.2852 26.6569 14.2852 25C14.2852 23.3431 12.942 22 11.2852 22C9.6283 22 8.28516 23.3431 8.28516 25C8.28516 26.6569 9.6283 28 11.2852 28Z" stroke="black" stroke-width="1.5" stroke-linecap="round" stroke-linejoin="round"/>
<path d="M60.2852 18H46.2852C45.1806 18 44.2852 18.8954 44.2852 20V44C44.2852 45.1046 45.1806 46 46.2852 46H60.2852C61.3897 46 62.2852 45.1046 62.2852 44V20C62.2852 18.8954 61.3897 18 60.2852 18Z" stroke="black" stroke-width="1.5" stroke-linecap="round" stroke-linejoin="round"/>
<path d="M53.2852 42.5C56.3227 42.5 58.7852 40.0376 58.7852 37C58.7852 33.9624 56.3227 31.5 53.2852 31.5C50.2476 31.5 47.7852 33.9624 47.7852 37C47.7852 40.0376 50.2476 42.5 53.2852 42.5Z" stroke="black" stroke-width="1.5" stroke-linecap="round" stroke-linejoin="round"/>
<path d="M53.2852 28C54.942 28 56.2852 26.6569 56.2852 25C56.2852 23.3431 54.942 22 53.2852 22C51.6283 22 50.2852 23.3431 50.2852 25C50.2852 26.6569 51.6283 28 53.2852 28Z" stroke="black" stroke-width="1.5" stroke-linecap="round" stroke-linejoin="round"/>
<path d="M39.2852 32H25.2852C24.1806 32 23.2852 32.8954 23.2852 34V44C23.2852 45.1046 24.1806 46 25.2852 46H39.2852C40.3897 46 41.2852 45.1046 41.2852 44V34C41.2852 32.8954 40.3897 32 39.2852 32Z" stroke="black" stroke-width="1.5" stroke-miterlimit="10"/>
<path d="M35.9453 39C37.0499 39 37.9453 38.1046 37.9453 37C37.9453 35.8954 37.0499 35 35.9453 35C34.8407 35 33.9453 35.8954 33.9453 37C33.9453 38.1046 34.8407 39 35.9453 39Z" stroke="black" stroke-width="1.5" stroke-miterlimit="10"/>
<path d="M28.2852 42.3101H36.2852" stroke="black" stroke-width="1.5" stroke-miterlimit="10" stroke-linecap="round"/>
</g>
<defs>
<clipPath id="clip0_653_188703">
<rect width="61.5" height="29.5" fill="white" transform="translate(1.53516 17.25)"/>
</clipPath>
</defs>
</svg>
