<?xml version="1.0" encoding="utf-8"?>
<!-- Generator: Adobe Illustrator 27.9.0, SVG Export Plug-In . SVG Version: 6.00 Build 0)  -->
<svg version="1.1" id="Layer_1" xmlns="http://www.w3.org/2000/svg" xmlns:xlink="http://www.w3.org/1999/xlink" x="0px" y="0px"
	 viewBox="0 0 270 60" style="enable-background:new 0 0 270 60;" xml:space="preserve">
<style type="text/css">
	.st0{filter:url(#Adobe_OpacityMaskFilter);}
	.st1{fill-rule:evenodd;clip-rule:evenodd;fill:#FFFFFF;}
	
		.st2{mask:url(#m8k87zy5ub_00000135654412208932195390000017644430920425957042_);fill-rule:evenodd;clip-rule:evenodd;fill:#F0FF5F;}
	.st3{fill-rule:evenodd;clip-rule:evenodd;}
</style>
<defs>
	<filter id="Adobe_OpacityMaskFilter" filterUnits="userSpaceOnUse" x="205.2" y="0.2" width="63.8" height="59">
		<feColorMatrix  type="matrix" values="1 0 0 0 0  0 1 0 0 0  0 0 1 0 0  0 0 0 1 0"/>
	</filter>
</defs>
<mask maskUnits="userSpaceOnUse" x="205.2" y="0.2" width="63.8" height="59" id="m8k87zy5ub_00000135654412208932195390000017644430920425957042_">
	<g class="st0">
		<path id="l5svkyyina_00000092448773228190098120000014917040755431663028_" class="st1" d="M205.2,0.2H269v59h-63.8V0.2z"/>
	</g>
</mask>
<path class="st2" d="M257.8,59.2h-41.5c-6.2,0-11.2-5-11.2-11.2V11.4c0-6.2,5-11.2,11.2-11.2h41.5c6.2,0,11.2,5,11.2,11.2v36.6
	C269,54.1,264,59.2,257.8,59.2"/>
<path class="st3" d="M254.6,36.1c1.8-2.1,3.6-4.6,5.4-7.4h-9.8c-4.4,5.7-8.8,8.6-13.1,8.5c-2.5-0.1-5-1.2-7.2-2.7l7.2-12.1l1.5,2.5
	c2.2,3.1,4.7,1.5,5.8,0.8c1.5-1,2.8-2.1,2.8-2.1l-10.1-17l-26.2,44.1h9.4l5.5-9.2c3.2,2.2,6.9,3.8,11.1,3.9l0.5,0
	c3.9,0,7.6-1.3,11.2-3.7l5.4,9h9.4L254.6,36.1z M141.5,18.7c-4.2,0-7.5,1.6-9.6,4.7l-0.3,0.4l-0.3-0.4c-2.1-3.1-5.2-4.7-9.2-4.7
	c-3.8,0-6.9,1.5-9,4.3l-0.3,0.3l-1.7-3.9l-9.6,0l2.6,5.8v25.4h9.3v-18c0-3.9,2-6.2,5.4-6.2c3.3,0,5.3,2.3,5.3,6.2v18h9.3v-18
	c0-3.9,2-6.2,5.4-6.2c3.3,0,5.3,2.3,5.3,6.2v18h9.3V31.4C153.5,23.7,148.8,18.7,141.5,18.7z M180.9,31.9l-0.1-0.4
	c-0.7-3.5-3.3-5.7-7-5.7c-3.7,0-6.3,2.1-7,5.7l-0.1,0.4C166.7,31.9,180.9,31.9,180.9,31.9z M189,30.8v7.8h-22.1l0.1,0.5
	c0.7,2.3,2.4,4,4.9,4.8c2.1,0.6,4.8,0.6,6.9-0.1c1.9-0.6,3-1.2,3-1.2l4.9,5.5c-3.1,2.1-7.3,3.4-11.2,3.4c-10.4,0-17.4-6.6-17.4-16.4
	c0-9.5,6.6-16.4,15.7-16.4C181.7,18.7,187.3,23.1,189,30.8z M89.5,35.1c0-4.5-3.2-7.8-7.5-7.8c-4.4,0-7.5,3.3-7.5,7.8
	s3.2,7.8,7.5,7.8C86.3,42.9,89.5,39.6,89.5,35.1z M98.8,35.1c0,4.6-1.8,8.9-5.1,11.9c-3.1,2.9-7.3,4.5-11.8,4.5s-8.6-1.6-11.8-4.5
	c-3.3-3-5.1-7.3-5.1-11.9s1.8-8.9,5.1-11.9c3.1-2.9,7.3-4.5,11.8-4.5c4.4,0,8.6,1.6,11.8,4.5C97,26.3,98.8,30.5,98.8,35.1z
	 M25.3,34.8c-0.2-4.3-3.4-7.4-7.5-7.4c-4.4,0-7.5,3.3-7.5,7.8c0,4.5,3.2,7.8,7.5,7.8c4.2,0,7.3-3.1,7.5-7.4V34.8z M34.7,43.9
	l1.8,6.8h-8.4l-1.2-4.4l-0.4,0.5c-2.8,3-6.5,4.7-10.6,4.7c-3.9,0-7.6-1.6-10.4-4.5C2.6,44,1,39.8,1,35.1c0-4.6,1.6-8.9,4.5-11.9
	c2.8-2.9,6.5-4.5,10.4-4.5c3.8,0,7.4,1.5,10.1,4.2l0.6,0.6v-4h8C34.7,19.5,34.7,43.9,34.7,43.9z M54.1,19.5H64l-3.4,7.8h-6.5v11.4
	c0,2.9,1.2,4.2,3.7,4.2l2.7,0v7.8H56c-7.9,0-11.2-3.1-11.2-10.3V27.3h-4.4v-7.8h4.4v-7.7h9.3L54.1,19.5L54.1,19.5z"/>
</svg>
