<svg width="42" height="42" viewBox="0 0 42 42" fill="none" xmlns="http://www.w3.org/2000/svg">
<circle cx="21" cy="21" r="16" fill="#CACACA"/>
<rect x="13" y="19.0017" width="1.8" height="4.8" rx="0.9" transform="rotate(-45 13 19.0017)" fill="#333333"/>
<rect x="18.5" y="13.4001" width="1.7" height="4" rx="0.85" fill="#B3B3B3"/>
<rect x="22" y="11.8005" width="1.7" height="5.6" rx="0.85" fill="#B3B3B3"/>
<rect x="27.7969" y="17.6997" width="1.8" height="4.8" rx="0.9" transform="rotate(45 27.7969 17.6997)" fill="#333333"/>
<path fill-rule="evenodd" clip-rule="evenodd" d="M20.9556 24.5755C20.7617 24.5371 20.5532 24.5671 20.3681 24.6755L15.7689 27.3682C15.3638 27.6054 15.2236 28.1284 15.4559 28.5364C15.6882 28.9443 16.2049 29.0828 16.61 28.8456L20.9009 26.3333L25.281 28.8978C25.6862 29.135 26.2029 28.9966 26.4351 28.5886C26.6674 28.1807 26.5273 27.6577 26.1221 27.4205L21.4552 24.6881C21.2978 24.5959 21.1235 24.5605 20.9556 24.5755Z" fill="#333333"/>
</svg>
