<svg width="24" height="25" viewBox="0 0 24 25" fill="none" xmlns="http://www.w3.org/2000/svg">
<path fill-rule="evenodd" clip-rule="evenodd" d="M5.80225 20.7045C5.24996 20.7045 4.80225 20.2568 4.80225 19.7045V5.84961C4.80225 5.29733 5.24996 4.84961 5.80225 4.84961H17.5503C18.1026 4.84961 18.5503 5.29733 18.5503 5.84961V13.7016H19.5503V5.84961C19.5503 4.74504 18.6549 3.84961 17.5503 3.84961H5.80225C4.69768 3.84961 3.80225 4.74504 3.80225 5.84961V19.7045C3.80225 20.8091 4.69768 21.7045 5.80225 21.7045H11.696V20.7045H5.80225ZM16.0054 20.9913C17.7684 20.9913 19.1977 19.562 19.1977 17.799C19.1977 16.0359 17.7684 14.6066 16.0054 14.6066C14.2423 14.6066 12.813 16.0359 12.813 17.799C12.813 19.562 14.2423 20.9913 16.0054 20.9913ZM16.0054 21.9913C18.3207 21.9913 20.1977 20.1143 20.1977 17.799C20.1977 15.4836 18.3207 13.6066 16.0054 13.6066C13.69 13.6066 11.813 15.4836 11.813 17.799C11.813 20.1143 13.69 21.9913 16.0054 21.9913ZM17.7777 17.0823C17.9612 16.8759 17.9426 16.5599 17.7362 16.3765C17.5298 16.193 17.2138 16.2116 17.0303 16.418L15.5408 18.0937L14.9828 17.4661C14.7994 17.2597 14.4833 17.2411 14.277 17.4245C14.0706 17.608 14.052 17.924 14.2354 18.1304L15.1671 19.1785C15.2619 19.2852 15.3979 19.3463 15.5408 19.3463C15.6836 19.3463 15.8196 19.2852 15.9145 19.1785L17.7777 17.0823ZM7.31508 8.78208C7.31508 8.50594 7.53894 8.28208 7.81508 8.28208H15.5402C15.8164 8.28208 16.0402 8.50594 16.0402 8.78208C16.0402 9.05822 15.8164 9.28208 15.5402 9.28208H7.81508C7.53894 9.28208 7.31508 9.05822 7.31508 8.78208ZM7.81508 11.0635C7.53894 11.0635 7.31508 11.2874 7.31508 11.5635C7.31508 11.8397 7.53894 12.0635 7.81508 12.0635H15.5402C15.8164 12.0635 16.0402 11.8397 16.0402 11.5635C16.0402 11.2874 15.8164 11.0635 15.5402 11.0635H7.81508Z" fill="#555555"/>
</svg>
