<svg width="100" height="100" viewBox="0 0 100 100" fill="none" xmlns="http://www.w3.org/2000/svg" aria-labeledby="washing machines" role="icon"  class="c-hidden-pc">
<title>washing machines</title>
<desc>product category washing machines</desc>
<g id="Icon36_washing machines" role="icon" class="c-hidden-pc">
<path id="Union" fill-rule="evenodd" clip-rule="evenodd" d="M25.1425 12.4141C23.4062 12.4141 22 13.8203 22 15.5565V84.4926C22 86.2289 23.4062 87.6351 25.1425 87.6351H76.0265C77.7628 87.6351 79.169 86.2289 79.169 84.4926V15.5565C79.169 13.8203 77.7628 12.4141 76.0265 12.4141H25.1425ZM20.5 15.5565C20.5 12.9919 22.5778 10.9141 25.1425 10.9141H76.0265C78.5912 10.9141 80.669 12.9919 80.669 15.5565V84.4926C80.669 87.0573 78.5912 89.1351 76.0265 89.1351H25.1425C22.5778 89.1351 20.5 87.0573 20.5 84.4926V15.5565ZM22.7565 33.1008C22.7565 32.6866 23.0923 32.3508 23.5065 32.3508H77.6625C78.0767 32.3508 78.4125 32.6866 78.4125 33.1008C78.4125 33.515 78.0767 33.8508 77.6625 33.8508H23.5065C23.0923 33.8508 22.7565 33.515 22.7565 33.1008ZM48.5781 22.2344C48.5781 21.0269 49.5581 20.0469 50.7656 20.0469C51.9731 20.0469 52.9531 21.0269 52.9531 22.2344C52.9531 23.4419 51.9731 24.4219 50.7656 24.4219C49.5581 24.4219 48.5781 23.4419 48.5781 22.2344ZM28.9375 22.2344C28.9375 21.8202 29.2733 21.4844 29.6875 21.4844H40.6174C41.0316 21.4844 41.3674 21.8202 41.3674 22.2344C41.3674 22.6486 41.0316 22.9844 40.6174 22.9844H29.6875C29.2733 22.9844 28.9375 22.6486 28.9375 22.2344ZM59.5391 22.2344C59.5391 21.8202 59.8748 21.4844 60.2891 21.4844H71.219C71.6332 21.4844 71.969 21.8202 71.969 22.2344C71.969 22.6486 71.6332 22.9844 71.219 22.9844H60.2891C59.8748 22.9844 59.5391 22.6486 59.5391 22.2344ZM35.75 58.8516C35.75 50.6363 42.4098 43.9766 50.625 43.9766C58.8402 43.9766 65.5 50.6363 65.5 58.8516C65.5 67.0668 58.8402 73.7266 50.625 73.7266C42.4098 73.7266 35.75 67.0668 35.75 58.8516ZM50.625 42.4766C41.5813 42.4766 34.25 49.8079 34.25 58.8516C34.25 67.8952 41.5813 75.2266 50.625 75.2266C59.6687 75.2266 67 67.8952 67 58.8516C67 49.8079 59.6687 42.4766 50.625 42.4766Z" fill="black"/>
</g>
</svg>
