<svg width="16" height="16" viewBox="0 0 16 16" fill="none" xmlns="http://www.w3.org/2000/svg">
<path fill-rule="evenodd" clip-rule="evenodd" d="M1.00787 5.13623C1.00787 4.3078 1.67944 3.63623 2.50787 3.63623H5.63124H9.12644H9.51214C10.3406 3.63623 11.0121 4.3078 11.0121 5.13623V5.40833V8.48686V9.88446V10.8634C11.0121 11.6918 10.3406 12.3634 9.51214 12.3634H6.07156H2.58601H2.5C1.67157 12.3634 1 11.6918 1 10.8634V10.79C1.00517 10.7612 1.00787 10.7315 1.00787 10.7012V5.13623ZM12.0121 10.3333V10.8634C12.0121 12.2441 10.8928 13.3634 9.51214 13.3634H6.07156H2.58601H2.5C1.11929 13.3634 0 12.2441 0 10.8634V10.4316C0 10.4013 0.00269717 10.3716 0.00786582 10.3428V5.13623C0.00786582 3.75552 1.12715 2.63623 2.50787 2.63623H5.63124H9.12644H9.51214C10.8928 2.63623 12.0121 3.75552 12.0121 5.13623V5.40833V5.61502L15.2691 3.90922C15.4241 3.82804 15.6102 3.83379 15.7599 3.92437C15.9096 4.01495 16.0011 4.17718 16.0011 4.35215V11.6475C16.0011 11.8236 15.9085 11.9866 15.7573 12.0769C15.6061 12.1671 15.4186 12.1711 15.2637 12.0875L12.0121 10.3333ZM12.0718 9.22922V6.7126L15.0011 5.17844V10.8096L12.0718 9.22922Z" fill="white"/>
</svg>
