<svg width="24" height="24" viewBox="0 0 24 24" fill="none" xmlns="http://www.w3.org/2000/svg">
<path fill-rule="evenodd" clip-rule="evenodd" d="M16.1184 12.7189C17.3901 12.7119 18.6363 12.2213 19.5661 11.3018C20.9332 9.94821 21.3685 7.91419 20.6735 6.11961C20.5884 5.89968 20.3964 5.73772 20.1642 5.68868C19.9301 5.63953 19.6887 5.71089 19.5212 5.877L18.1048 7.27964C17.7115 7.66961 17.0696 7.66937 16.6764 7.28001C16.2831 6.89038 16.2831 6.25583 16.6764 5.86657L18.0938 4.46419C18.2621 4.29745 18.3334 4.05802 18.284 3.82778C18.2346 3.59754 18.0708 3.40776 17.8487 3.32366C16.0363 2.63479 13.9823 3.06633 12.6134 4.42017C11.2966 5.72412 10.8549 7.67011 11.441 9.404L10.7329 10.0143L9.48664 8.78071L9.78039 6.1635C9.80419 5.9535 9.73014 5.74423 9.57926 5.59514L7.59301 3.62868C7.46126 3.49836 7.28298 3.42492 7.09646 3.42492C6.90987 3.42492 6.7315 3.49836 6.59983 3.62868L3.28948 6.90584C3.01512 7.17739 3.01512 7.61726 3.28948 7.88883L5.27576 9.85492C5.40837 9.98622 5.58667 10.0585 5.7723 10.0585C5.79787 10.0585 5.82344 10.0572 5.84997 10.0546L8.49355 9.7637L9.67111 10.9294L3.50891 16.2397C2.83036 16.9121 2.83036 18.0065 3.50891 18.6792L5.34795 20.5003C5.68355 20.8322 6.12259 21 6.5678 21C7.0233 21 7.48507 20.8232 7.84632 20.4646L11.9474 15.8003L16.2063 20.0157C16.691 20.496 17.3375 20.7602 18.027 20.7602C18.7166 20.7602 19.3631 20.496 19.8478 20.0157C20.3333 19.5359 20.6004 18.8955 20.6004 18.2131C20.6004 17.5309 20.3333 16.8905 19.8478 16.4107L16.1184 12.7189ZM4.77921 7.3972L7.09646 5.10304L8.34737 6.34176L8.1161 8.40618L6.03012 8.63545L4.77921 7.3972ZM6.82032 19.5164C6.68849 19.6456 6.46914 19.6451 6.34113 19.5168L4.50209 17.696C4.37317 17.568 4.37317 17.3509 4.46643 17.2558L12.7378 10.1305C12.9738 9.92786 13.045 9.59501 12.9142 9.31463C12.2988 7.99413 12.5768 6.42244 13.6065 5.40315C14.274 4.74285 15.1703 4.39076 16.0847 4.39076C16.1167 4.39076 16.1487 4.39112 16.1798 4.39197L15.6833 4.88409C14.7432 5.81595 14.7432 7.33173 15.6841 8.26226C16.5913 9.16286 18.1889 9.16236 19.0978 8.26275L19.5945 7.77113C19.62 8.70875 19.2635 9.6356 18.573 10.3187C17.5954 11.286 16.1286 11.592 14.83 11.0995C14.5575 10.995 14.2411 11.0723 14.0491 11.2924L6.82032 19.5164ZM18.8546 19.0327C18.4157 19.4672 17.6384 19.4672 17.1995 19.0327L12.9454 14.8222L14.4341 13.0176L18.8546 17.3938C19.0741 17.6114 19.1957 17.9026 19.1957 18.2131C19.1957 18.5239 19.0741 18.8149 18.8546 19.0327Z" fill="white"/>
</svg>
