<svg width="69" height="72" viewBox="0 0 69 72" fill="none" xmlns="http://www.w3.org/2000/svg">
<path fill-rule="evenodd" clip-rule="evenodd" d="M25.625 18.3242C25.625 17.91 25.2892 17.5742 24.875 17.5742C24.4608 17.5742 24.125 17.91 24.125 18.3242V20.9404H17.25C15.7312 20.9404 14.5 22.1716 14.5 23.6904V51.676C14.5 53.1948 15.7312 54.426 17.25 54.426H51.7488C53.2676 54.426 54.4988 53.1948 54.4988 51.676V23.6904C54.4988 22.1716 53.2676 20.9404 51.7488 20.9404H44.8711V18.3242C44.8711 17.91 44.5353 17.5742 44.1211 17.5742C43.7069 17.5742 43.3711 17.91 43.3711 18.3242V20.9404H25.625V18.3242ZM43.3711 25.8997V22.4404H25.625V25.8997C25.625 26.314 25.2892 26.6497 24.875 26.6497C24.4608 26.6497 24.125 26.314 24.125 25.8997V22.4404H17.25C16.5596 22.4404 16 23.0001 16 23.6904V29.3564H52.9988V23.6904C52.9988 23.0001 52.4392 22.4404 51.7488 22.4404H44.8711V25.8997C44.8711 26.314 44.5353 26.6497 44.1211 26.6497C43.7069 26.6497 43.3711 26.314 43.3711 25.8997ZM16 51.676V30.8564H52.9988V51.676C52.9988 52.3664 52.4392 52.926 51.7488 52.926H17.25C16.5596 52.926 16 52.3664 16 51.676ZM41.3055 37.645C41.6046 37.3584 41.6148 36.8837 41.3282 36.5845C41.0417 36.2854 40.5669 36.2753 40.2678 36.5618L32.5846 43.9223L28.7334 40.2346C28.4343 39.9481 27.9595 39.9584 27.673 40.2575C27.3866 40.5567 27.3968 41.0315 27.696 41.318L32.066 45.5025L32.5848 45.9993L33.1035 45.5024L41.3055 37.645Z" fill="black"/>
</svg>
