<svg width="140" height="64" viewBox="0 0 140 64" fill="none" xmlns="http://www.w3.org/2000/svg">
<g clip-path="url(#clip0_4352_71151)">
<path d="M84.6724 11.7203H75.4609V51.9412H103.753V44.109H84.6724V11.7203Z" fill="#6B6B6B"/>
<path d="M124.014 36.6104H131.512V43.6428C130.131 44.1762 127.436 44.7074 124.87 44.7074C116.579 44.7074 113.815 40.4559 113.815 31.8295C113.815 23.5993 116.446 18.7532 124.736 18.7532C129.344 18.7532 131.973 20.2136 134.143 23.0022L139.87 17.6918C136.381 12.6498 130.262 11.1219 124.538 11.1219C111.645 11.1219 104.867 18.2227 104.867 31.7623C104.867 45.2384 110.986 52.5386 124.473 52.5386C130.657 52.5386 136.711 50.945 139.999 48.6236V29.1093H124.014V36.6104Z" fill="#6B6B6B"/>
<path d="M0 32.0021C0 49.1867 13.8101 63.1111 30.819 63.1111C47.7902 63.1111 61.5453 49.3189 61.678 32.2437V31.7571C61.5453 14.6855 47.7902 0.891769 30.819 0.891769C13.8101 0.891769 0 14.8171 0 32.0021Z" fill="url(#paint0_radial_4352_71151)"/>
<path d="M9.95687 10.9439C-0.347557 21.3416 -1.39046 37.1844 7.65814 46.3154C16.706 55.4399 32.3976 54.3954 42.705 43.9915C53.0287 33.5721 54.0684 17.7333 45.026 8.60407C40.8956 4.43572 35.3793 2.38639 29.6119 2.38639C22.7616 2.38639 15.5627 5.28552 9.95687 10.9439Z" fill="url(#paint1_linear_4352_71151)"/>
<path d="M29.8659 45.337L29.2383 45.9412H38.4875L37.885 45.3194L29.8659 45.337Z" fill="#626D77"/>
<path d="M37.8849 43.4602L38.4874 42.87H32.4335L31.7168 43.4602H37.8849Z" fill="#8699A3"/>
<path d="M32.4338 18.0206H29.2383L29.8376 18.5986L31.7494 18.5954L32.4338 18.0206Z" fill="#8D9AA1"/>
<path d="M31.75 18.5939L31.7683 43.4141L32.4344 42.8697V18.0191L31.75 18.5939Z" fill="url(#paint2_linear_4352_71151)"/>
<path d="M37.8867 43.4612V45.3194L38.489 45.9412V42.871L37.8867 43.4612Z" fill="url(#paint3_linear_4352_71151)"/>
<path d="M29.2383 18.0205V45.9412L29.8659 45.337L29.8376 18.5985L29.2383 18.0205Z" fill="#B4BDC3"/>
<path d="M16.959 22.0691C16.959 24.3041 18.7628 26.1155 20.9855 26.1155C23.2107 26.1155 25.0088 24.3041 25.0088 22.0691C25.0088 19.8311 23.2107 18.0108 20.9855 18.0108C18.7628 18.0108 16.959 19.8311 16.959 22.0691ZM17.5543 22.0691C17.5543 20.1634 19.0934 18.6204 20.9855 18.6204C22.8712 18.6204 24.4105 20.1634 24.4105 22.0691C24.4105 23.9686 22.8712 25.5076 20.9855 25.5076C19.0934 25.5076 17.5543 23.9686 17.5543 22.0691Z" fill="url(#paint4_linear_4352_71151)"/>
<path d="M54.4548 32.9524L38.4703 32.933L37.877 33.5635H53.841L54.1588 33.2299L54.4548 32.9524Z" fill="#505C61"/>
<path d="M38.4703 31.1162L56.3472 31.0866L56.9522 30.4725L37.877 30.4772L38.4703 31.1162Z" fill="#8F9CA4"/>
<path d="M4.69727 31.9918C4.69727 39.0299 7.4174 45.6544 12.3487 50.6364C17.2755 55.6157 23.8334 58.3643 30.8073 58.3643C37.8034 58.3643 44.3779 55.6157 49.3027 50.6364C54.2407 45.6544 56.9524 39.0299 56.9524 31.9918V30.4697L56.3474 31.0838V31.9918C56.3474 38.8726 53.6981 45.338 48.8801 50.207C44.0673 55.0753 37.6436 57.7572 30.8073 57.7572C23.999 57.7572 17.5893 55.0753 12.7748 50.207C7.95476 45.334 5.30001 38.8667 5.30001 31.9918C5.30001 17.7815 16.7441 6.22778 30.8073 6.22778L31.7821 6.21533L32.379 5.63162L30.8073 5.61694C16.4154 5.61694 4.69727 17.4474 4.69727 31.9918Z" fill="url(#paint5_linear_4352_71151)"/>
<path d="M30.4706 8.11613C24.2914 8.20649 18.4899 10.6827 14.0788 15.1025C9.61997 19.6103 7.16211 25.6082 7.16211 31.9932C7.16211 38.3754 9.61997 44.3675 14.0788 48.8781C18.4917 53.3196 24.3168 55.8025 30.5143 55.8787H31.1242C43.395 55.7213 53.6084 45.9942 54.4374 33.6116L54.4588 32.9522L54.1578 33.23L53.8401 33.5633C53.0202 45.7401 42.9065 55.2728 30.8227 55.2728C24.664 55.2728 18.8734 52.8444 14.5086 48.4488C10.1586 44.0532 7.76708 38.2113 7.76708 31.9932C7.76708 25.7703 10.1586 19.92 14.5086 15.5301C18.8822 11.1479 24.6711 8.72373 30.8227 8.72373L32.3778 8.73891L31.779 8.13131L31.1054 8.11613H30.4706Z" fill="url(#paint6_linear_4352_71151)"/>
<path d="M38.4684 31.1146L37.875 30.4757V33.5635L38.4684 32.933V31.1146Z" fill="#B4BDC3"/>
<path d="M31.7812 6.21553V8.13367L32.3781 8.73779V5.63182L31.7812 6.21553Z" fill="url(#paint7_linear_4352_71151)"/>
<path d="M30.4757 5.94557C16.4225 6.11583 5.00586 17.732 5.00586 31.9899C5.00586 38.9489 7.69219 45.4804 12.5628 50.401C17.4279 55.3216 23.9209 58.03 30.7897 58.03C37.7017 58.03 44.1888 55.3216 49.056 50.401C53.9305 45.4804 56.6092 38.9489 56.6092 31.9899V30.8061L55.5892 30.8101H38.19V33.2268H54.1572C54.1555 33.2833 54.1555 33.5327 54.1501 33.58C53.3203 45.8528 43.1819 55.5996 30.8055 55.5996C24.5654 55.5996 18.6931 53.1418 14.2595 48.6787C9.85349 44.2264 7.41931 38.2992 7.41931 31.9899C7.41931 25.6752 9.85349 19.7435 14.2595 15.2946C18.6931 10.8495 24.5654 8.39067 30.8055 8.39067C31.0742 8.39067 31.7441 8.39067 32.0396 8.39764V5.95926C31.7961 5.95926 31.392 5.9508 31.0742 5.94557H30.4757ZM29.5773 18.3486V45.6131H38.1695V43.1829H32.0396V18.3486H29.5773Z" fill="url(#paint8_radial_4352_71151)"/>
<path d="M17.2637 22.0698C17.2637 24.1271 18.9333 25.7886 20.9695 25.7886C23.0037 25.7886 24.6693 24.1271 24.6693 22.0698C24.6693 19.9973 23.0037 18.337 20.9695 18.337C18.9333 18.337 17.2637 19.9973 17.2637 22.0698Z" fill="url(#paint9_radial_4352_71151)"/>
<path d="M21.6354 19.0037C22.4848 19.0037 23.2578 19.3096 23.8835 19.7972C23.2105 18.9116 22.1545 18.3336 20.9714 18.3336C18.9315 18.3336 17.2637 19.9934 17.2637 22.0661C17.2637 23.2569 17.8356 24.3048 18.7028 24.9836C18.2274 24.3589 17.9279 23.5905 17.9279 22.7372C17.9279 20.6704 19.5952 19.0037 21.6354 19.0037Z" fill="white"/>
<path d="M32.0379 5.95856C31.7149 5.95334 31.1021 5.9404 30.7912 5.9404C16.5878 5.9404 5.00781 17.6285 5.00781 31.9892C5.00781 38.9551 7.69439 45.4792 12.5613 50.4028C12.7169 50.5599 12.879 50.708 13.0367 50.8628C8.44369 45.9942 5.91033 39.6581 5.91033 32.9017C5.91033 18.5746 15.9673 6.67768 32.0379 5.95856Z" fill="white"/>
<path d="M32.0371 43.1841C32.0371 43.1841 33.8083 43.7029 38.164 43.7029V43.1841H32.0371Z" fill="white"/>
<path d="M32.0385 19.1166V18.3472H29.5781V45.6143C29.5781 45.6143 30.3474 41.4671 30.3474 19.1166H32.0385Z" fill="white"/>
<path d="M56.6086 30.8063L38.1895 30.8106V33.2271H38.8588V31.4826C54.908 31.4826 56.6086 30.8063 56.6086 30.8063Z" fill="white"/>
</g>
<defs>
<radialGradient id="paint0_radial_4352_71151" cx="0" cy="0" r="1" gradientUnits="userSpaceOnUse" gradientTransform="translate(29.6861 31.059) scale(32.1524 32.438)">
<stop stop-color="#BF0C3F"/>
<stop offset="0.5" stop-color="#BF0C3F"/>
<stop offset="0.883847" stop-color="#BF0C3F"/>
<stop offset="1" stop-color="#99002C"/>
</radialGradient>
<linearGradient id="paint1_linear_4352_71151" x1="18.2063" y1="4.91219" x2="34.7313" y2="49.9145" gradientUnits="userSpaceOnUse">
<stop stop-color="#F38895"/>
<stop offset="0.547622" stop-color="#BF0C3F"/>
<stop offset="0.8011" stop-color="#BF0C3F"/>
<stop offset="1" stop-color="#BF0C3F"/>
</linearGradient>
<linearGradient id="paint2_linear_4352_71151" x1="31.7498" y1="30.7165" x2="32.4343" y2="30.7165" gradientUnits="userSpaceOnUse">
<stop stop-color="#B4BDC3"/>
<stop offset="0.844281" stop-color="#333940"/>
<stop offset="1" stop-color="#333940"/>
</linearGradient>
<linearGradient id="paint3_linear_4352_71151" x1="37.8866" y1="44.4061" x2="38.4891" y2="44.4061" gradientUnits="userSpaceOnUse">
<stop stop-color="#B3BBC1"/>
<stop offset="0.844281" stop-color="#2A3236"/>
<stop offset="1" stop-color="#2A3236"/>
</linearGradient>
<linearGradient id="paint4_linear_4352_71151" x1="18.1346" y1="19.1864" x2="23.8709" y2="24.8721" gradientUnits="userSpaceOnUse">
<stop stop-color="#ABBAC2"/>
<stop offset="1" stop-color="#262A30"/>
</linearGradient>
<linearGradient id="paint5_linear_4352_71151" x1="9.97569" y1="15.6373" x2="47.5658" y2="52.8964" gradientUnits="userSpaceOnUse">
<stop stop-color="#B4BDC3"/>
<stop offset="1" stop-color="#3E454D"/>
</linearGradient>
<linearGradient id="paint6_linear_4352_71151" x1="54.4625" y1="31.9821" x2="7.16157" y2="31.9821" gradientUnits="userSpaceOnUse">
<stop stop-color="#B4BDC3"/>
<stop offset="1" stop-color="#485159"/>
</linearGradient>
<linearGradient id="paint7_linear_4352_71151" x1="31.7812" y1="7.18465" x2="32.378" y2="7.18465" gradientUnits="userSpaceOnUse">
<stop stop-color="#B3BBC1"/>
<stop offset="0.844281" stop-color="#2A3236"/>
<stop offset="1" stop-color="#2A3236"/>
</linearGradient>
<radialGradient id="paint8_radial_4352_71151" cx="0" cy="0" r="1" gradientUnits="userSpaceOnUse" gradientTransform="translate(20.4067 20.962) scale(39.4658 39.8165)">
<stop stop-color="white"/>
<stop offset="0.350006" stop-color="white"/>
<stop offset="0.666526" stop-color="white"/>
<stop offset="1" stop-color="#C0CCD2"/>
</radialGradient>
<radialGradient id="paint9_radial_4352_71151" cx="0" cy="0" r="1" gradientUnits="userSpaceOnUse" gradientTransform="translate(19.4364 20.6927) scale(5.76284 5.81404)">
<stop stop-color="white"/>
<stop offset="0.350006" stop-color="white"/>
<stop offset="0.665531" stop-color="white"/>
<stop offset="1" stop-color="#D0DADF"/>
</radialGradient>
<clipPath id="clip0_4352_71151">
<rect width="140" height="64" fill="white"/>
</clipPath>
</defs>
</svg>
