<svg width="48" height="48" viewBox="0 0 48 48" fill="none" xmlns="http://www.w3.org/2000/svg">
<path fill-rule="evenodd" clip-rule="evenodd" d="M5.75 12C5.75 11.7226 5.97413 11.5 6.24773 11.5H15.25V12.9615C15.25 13.5411 15.5686 14.0055 15.9638 14.2984C16.359 14.5913 16.8697 14.75 17.4011 14.75H31.5989C32.1303 14.75 32.6409 14.5913 33.0362 14.2984C33.4314 14.0055 33.75 13.5412 33.75 12.9615V11.5H42.1823C42.4559 11.5 42.68 11.7226 42.68 12V36C42.68 36.2774 42.4559 36.5 42.1823 36.5H6.24773C5.97413 36.5 5.75 36.2774 5.75 36V12ZM6.24773 10C5.14313 10 4.25 10.8967 4.25 12V36C4.25 37.1033 5.14313 38 6.24773 38H42.1823C43.2869 38 44.18 37.1033 44.18 36V12C44.18 10.8967 43.2869 10 42.1823 10H6.24773ZM15.9369 20.25C14.8383 20.25 13.9314 21.1547 13.9314 22.2909C13.9314 23.427 14.8383 24.3317 15.9369 24.3317C17.0355 24.3317 17.9423 23.427 17.9423 22.2909C17.9423 21.1547 17.0355 20.25 15.9369 20.25ZM12.4314 22.2909C12.4314 20.3443 13.9919 18.75 15.9369 18.75C17.8819 18.75 19.4423 20.3443 19.4423 22.2909C19.4423 23.3541 18.9767 24.3123 18.2371 24.963C20.3769 25.873 21.8736 28.0139 21.8736 30.4995C21.8736 30.9137 21.5378 31.2495 21.1236 31.2495H10.75C10.3358 31.2495 10 30.9137 10 30.4995C10 28.0139 11.4967 25.8729 13.6365 24.9629C12.897 24.3123 12.4314 23.3541 12.4314 22.2909ZM20.3124 29.7495C19.9602 27.6131 18.1282 25.9961 15.9368 25.9961C13.7453 25.9961 11.9134 27.6131 11.5611 29.7495H20.3124ZM24.1875 21C24.1875 20.5858 24.5233 20.25 24.9375 20.25H38.9375C39.3517 20.25 39.6875 20.5858 39.6875 21C39.6875 21.4142 39.3517 21.75 38.9375 21.75H24.9375C24.5233 21.75 24.1875 21.4142 24.1875 21ZM24.9375 24.25C24.5233 24.25 24.1875 24.5858 24.1875 25C24.1875 25.4142 24.5233 25.75 24.9375 25.75H38.9375C39.3517 25.75 39.6875 25.4142 39.6875 25C39.6875 24.5858 39.3517 24.25 38.9375 24.25H24.9375ZM24.1875 29C24.1875 28.5858 24.5233 28.25 24.9375 28.25H38.9375C39.3517 28.25 39.6875 28.5858 39.6875 29C39.6875 29.4142 39.3517 29.75 38.9375 29.75H24.9375C24.5233 29.75 24.1875 29.4142 24.1875 29ZM16.75 12.9615V11.75H32.25V12.9615V12.9616C32.25 12.9644 32.25 12.9739 32.2385 12.994C32.2257 13.0165 32.1976 13.0529 32.143 13.0933C32.0312 13.1762 31.8413 13.25 31.5989 13.25H17.4011C17.1587 13.25 16.9688 13.1762 16.857 13.0933C16.8024 13.0529 16.7743 13.0165 16.7615 12.994C16.75 12.9739 16.75 12.9644 16.75 12.9616V12.9615Z" fill="black"/>
</svg>
