<svg width="80" height="80" viewBox="0 0 80 80" fill="none" xmlns="http://www.w3.org/2000/svg">
<path d="M39.9979 36.5661C46.8831 36.5661 52.4646 30.9846 52.4646 24.0995C52.4646 17.2143 46.8831 11.6328 39.9979 11.6328C33.1128 11.6328 27.5312 17.2143 27.5312 24.0995C27.5312 30.9846 33.1128 36.5661 39.9979 36.5661Z" stroke="#1D1D1B" stroke-width="2"/>
<path d="M35 23C36.5 23 38 23 38 25C38.0792 25.3085 38 26.6416 38 27C37.8333 28.6667 38.5 32 42.5 32" stroke="#1D1D1B" stroke-width="2" stroke-linecap="round"/>
<path d="M40 40.2148C54.702 40.2148 66.8103 51.1348 69.4606 65.5956C70.0579 68.855 67.3137 71.5648 64 71.5648H16C12.6863 71.5648 9.94206 68.855 10.5394 65.5956C13.1897 51.1348 25.2979 40.2148 40 40.2148Z" stroke="#1D1D1B" stroke-width="2" stroke-miterlimit="10" stroke-linecap="square"/>
<path d="M34.5 41L40 46.5L45.5 41" stroke="#1D1D1B" stroke-width="2"/>
<path fill-rule="evenodd" clip-rule="evenodd" d="M39.2645 46L39.0452 46.7017L34.4062 61.5467C34.0733 62.6118 34.3592 63.7737 35.1483 64.5628L37.8784 67.2929C39.0499 68.4645 40.9494 68.4645 42.121 67.2929L44.8511 64.5628C45.6402 63.7737 45.9261 62.6118 45.5932 61.5467L40.9542 46.7017L40.7349 46H39.2645ZM43.4369 63.1486L40.7068 65.8787C40.3163 66.2692 39.6831 66.2692 39.2926 65.8787L36.5625 63.1486C36.2995 62.8856 36.2042 62.4983 36.3151 62.1432L39.9997 50.3526L43.6843 62.1432C43.7952 62.4983 43.6999 62.8856 43.4369 63.1486Z" fill="#1D1D1B"/>
<path d="M40 11H34C30.6863 11 28 13.6863 28 17V20H31C35.9706 20 40 15.9706 40 11Z" fill="white" stroke="#1D1D1B" stroke-width="2"/>
<path d="M35 11H46C49.3137 11 52 13.6863 52 17V20H44C39.0294 20 35 15.9706 35 11Z" fill="white" stroke="#1D1D1B" stroke-width="2"/>
</svg>
