<svg width="32" height="32" viewBox="0 0 32 32" fill="none" xmlns="http://www.w3.org/2000/svg">
<path fill-rule="evenodd" clip-rule="evenodd" d="M12 16.5C12 17.3284 11.3284 18 10.5 18C9.67157 18 9 17.3284 9 16.5C9 15.6716 9.67157 15 10.5 15C11.3284 15 12 15.6716 12 16.5ZM18 16.5C18 17.3284 17.3284 18 16.5 18C15.6716 18 15 17.3284 15 16.5C15 15.6716 15.6716 15 16.5 15C17.3284 15 18 15.6716 18 16.5ZM22.5 18C23.3284 18 24 17.3284 24 16.5C24 15.6716 23.3284 15 22.5 15C21.6716 15 21 15.6716 21 16.5C21 17.3284 21.6716 18 22.5 18Z" fill="#CBC8C2"/>
</svg>
