<svg width="32" height="32" viewBox="0 0 32 32" fill="none" xmlns="http://www.w3.org/2000/svg">
<path d="M27.4202 13.7534V11.0867C27.414 10.6137 27.2755 10.1518 27.0202 9.7534C26.7556 9.35231 26.3838 9.03355 25.9469 8.8334L16.9136 4.72673C16.59 4.57611 16.2372 4.49871 15.8802 4.50007C15.5232 4.49737 15.1701 4.57483 14.8469 4.72673L5.98691 8.80007C5.54287 9.0076 5.16794 9.33855 4.90691 9.7534C4.64598 10.1495 4.50478 10.6124 4.50024 11.0867V20.5001C4.49381 20.9685 4.61602 21.4297 4.85357 21.8334C5.08767 22.2291 5.4269 22.5522 5.83357 22.7667L14.7536 27.4934C15.1162 27.6719 15.5162 27.761 15.9202 27.7534C16.3245 27.7535 16.7226 27.6552 17.0802 27.4667L19.8936 25.9734L26.0869 22.7401C26.4927 22.5243 26.8316 22.2014 27.0667 21.8064C27.3018 21.4115 27.4241 20.9597 27.4202 20.5001V13.7534Z" stroke="black" stroke-width="1.5" stroke-linejoin="round"/>
<path d="M22.3631 24.7799V13.3733C22.3606 12.8862 22.2196 12.4098 21.9565 11.9999C21.6901 11.5969 21.3127 11.2796 20.8698 11.0866L11.2031 6.41992" stroke="black" stroke-width="1.4" stroke-linejoin="round"/>
<path d="M4.82812 9.56055C8.04146 11.0872 12.7415 13.2939 15.9881 14.8405L26.8948 9.75388" stroke="black" stroke-width="1.5" stroke-linejoin="round"/>
<path d="M15.9609 27.6407V14.9141" stroke="black" stroke-width="1.5" stroke-linejoin="round"/>
</svg>
