<svg width="48" height="48" viewBox="0 0 48 48" fill="none" xmlns="http://www.w3.org/2000/svg">
<path fill-rule="evenodd" clip-rule="evenodd" d="M18.3175 6.31788C23.7469 3.20535 30.7017 5.01985 33.8229 10.4858C35.9175 14.1497 35.7804 18.4523 33.8212 21.8447L32.4218 24.2681V24.2434L24.6478 37.7106L23.998 38.8362L23.3486 37.7104L14.2299 21.9016L14.1559 21.7784L14.1518 21.7716L14.1479 21.7646C11.059 16.3616 12.9028 9.41093 18.3175 6.31788ZM32.7636 20.6508C34.2294 17.7819 34.2524 14.2595 32.5206 11.2303L32.5204 11.2299C29.818 6.49681 23.7861 4.91155 19.063 7.61947L19.062 7.62008C14.3781 10.2953 12.7685 16.3211 15.4462 21.0134L15.5193 21.1352L15.5261 21.1464L15.526 21.1465L23.9985 35.835L32.5222 21.069L32.7636 20.6508ZM5.51323 39.0564C5.52368 39.0414 5.53987 39.0209 5.56452 38.9947C5.6619 38.8914 5.8431 38.7544 6.14267 38.5982C6.73969 38.2868 7.65758 37.9748 8.87248 37.6875C11.2901 37.1156 14.724 36.6777 18.7195 36.4752L18.6435 34.9771C14.5966 35.1823 11.0647 35.6276 8.52723 36.2277C7.26456 36.5264 6.20752 36.8726 5.449 37.2682C5.07081 37.4654 4.72909 37.6942 4.47299 37.9658C4.2141 38.2405 4 38.6075 4 39.0553C4 39.5979 4.30926 40.0185 4.64633 40.3142C4.98754 40.6134 5.44707 40.8677 5.96853 41.0894C7.01753 41.5354 8.48975 41.921 10.253 42.2392C13.7916 42.8777 18.6507 43.2702 23.9999 43.2702C29.349 43.2702 34.2081 42.8777 37.7467 42.2392C39.51 41.921 40.9822 41.5354 42.0312 41.0894C42.5527 40.8677 43.0122 40.6134 43.3534 40.3142C43.6905 40.0185 43.9997 39.5979 43.9997 39.0553C43.9997 38.6075 43.7856 38.2405 43.5267 37.9658C43.2706 37.6942 42.9289 37.4654 42.5507 37.2682C41.7922 36.8726 40.7352 36.5264 39.4725 36.2277C36.935 35.6276 33.4031 35.1823 29.3562 34.9771L29.2803 36.4752C33.2757 36.6777 36.7096 37.1156 39.1273 37.6875C40.3422 37.9748 41.26 38.2868 41.8571 38.5982C42.1566 38.7544 42.3378 38.8914 42.4352 38.9947C42.4599 39.0209 42.476 39.0414 42.4865 39.0564C42.4685 39.083 42.4328 39.1264 42.3643 39.1865C42.1929 39.3368 41.8965 39.5167 41.4443 39.709C40.5459 40.091 39.2 40.4527 37.4804 40.763C34.0533 41.3814 29.2874 41.7702 23.9999 41.7702C18.7123 41.7702 13.9464 41.3814 10.5193 40.763C8.7997 40.4527 7.45384 40.091 6.55548 39.709C6.10326 39.5167 5.80678 39.3368 5.63541 39.1865C5.5669 39.1264 5.53124 39.083 5.51323 39.0564ZM5.49549 39.0874C5.49552 39.0873 5.49561 39.087 5.49574 39.0866L5.49674 39.0841C5.49609 39.0865 5.49557 39.0876 5.49548 39.0876C5.49545 39.0876 5.49545 39.0876 5.49549 39.0874ZM42.5043 39.0876C42.5042 39.0876 42.5036 39.0865 42.503 39.0841C42.504 39.0865 42.5044 39.0877 42.5043 39.0876ZM42.5025 39.0285C42.5031 39.0261 42.5036 39.0249 42.5037 39.0249C42.5038 39.0249 42.5035 39.0261 42.5025 39.0285ZM5.49727 39.0285C5.49628 39.0261 5.49598 39.0249 5.49607 39.0249C5.49617 39.0249 5.49666 39.0261 5.49727 39.0285ZM20.9979 14.4039C21.9567 12.7316 24.067 12.1575 25.7331 13.135L25.733 13.135L25.7395 13.1387C27.3868 14.0832 27.9655 16.1672 27.0554 17.7928L27.0274 17.8208L26.9777 17.9074C26.0225 19.5735 23.8899 20.1289 22.2463 19.1516L22.2464 19.1515L22.236 19.1456C20.5712 18.1911 20.0123 16.0839 20.9941 14.4104L20.9942 14.4104L20.9979 14.4039ZM19.6984 13.6546C21.0677 11.2705 24.0964 10.4381 26.4888 11.8393C28.8729 13.2085 29.7085 16.268 28.3001 18.6367L28.2521 18.7174L28.2264 18.7431C26.8305 21.0656 23.8168 21.8268 21.4848 20.4439C19.0947 19.0699 18.3019 16.039 19.6984 13.6546Z" fill="black"/>
</svg>
