<svg width="61" height="60" viewBox="0 0 61 60" fill="none" xmlns="http://www.w3.org/2000/svg">
<path fill-rule="evenodd" clip-rule="evenodd" d="M30.7003 58.0001C15.2363 58.0001 2.7002 45.4637 2.7002 29.9999C2.7002 14.5358 15.2363 2 30.7003 2C46.1642 2 58.7003 14.5358 58.7003 29.9999C58.7003 45.4637 46.1642 58.0001 30.7003 58.0001ZM30.7003 4.56872C16.6549 4.56872 5.26903 15.9549 5.26903 29.9999C5.26903 44.0453 16.6549 55.4311 30.7003 55.4311C44.7455 55.4311 56.1314 44.0453 56.1314 29.9999C56.1314 15.9549 44.7455 4.56872 30.7003 4.56872ZM30.6944 42.1383C29.6667 42.1383 28.8337 41.3004 28.8337 40.267C28.8337 39.2335 29.6667 38.3955 30.6944 38.3955C31.7219 38.3955 32.5549 39.2335 32.5549 40.267C32.5549 41.3004 31.7219 42.1383 30.6944 42.1383ZM30.6944 35.9335C29.6667 35.9335 28.8337 35.2588 28.8337 34.4274V19.3673C28.8337 18.5358 29.6667 17.8615 30.6944 17.8615C31.7219 17.8615 32.5549 18.5358 32.5549 19.3673V34.4274C32.5549 35.2588 31.7219 35.9335 30.6944 35.9335Z" fill="#BBBBBB"/>
</svg>
