<svg width="24" height="24" viewBox="0 0 24 24" fill="none" xmlns="http://www.w3.org/2000/svg">
<g clip-path="url(#clip0_2076_38156)">
<path d="M6.34863 17.4941H19.744" stroke="black" stroke-width="1.5" stroke-linecap="round" stroke-linejoin="round"/>
<path d="M6.34863 5.21484H19.744" stroke="black" stroke-width="1.5" stroke-linecap="round" stroke-linejoin="round"/>
<path d="M13.0464 20.2852V20.2963" stroke="black" stroke-width="2" stroke-linecap="round" stroke-linejoin="round"/>
<path d="M3.00022 11.3548L8.58161 11.3548L11.9304 11.3548" stroke="black" stroke-width="1.5" stroke-linecap="round" stroke-linejoin="round"/>
<path d="M9.58301 9.00781L11.9301 11.3549L9.58301 13.7021" stroke="black" stroke-width="1.5" stroke-linecap="round" stroke-linejoin="round"/>
<path fill-rule="evenodd" clip-rule="evenodd" d="M7.09863 3.23062C7.09863 2.19854 7.83477 1.5 8.58119 1.5H17.5114C18.2578 1.5 18.994 2.19854 18.994 3.23062V20.595C18.994 21.627 18.2578 22.3256 17.5114 22.3256H8.58119C7.83477 22.3256 7.09863 21.627 7.09863 20.595V13.5872H5.59863V20.595C5.59863 22.3029 6.86159 23.8256 8.58119 23.8256H17.5114C19.231 23.8256 20.494 22.3029 20.494 20.595V3.23062C20.494 1.52268 19.231 0 17.5114 0H8.58119C6.86159 0 5.59863 1.52268 5.59863 3.23062V9.12209H7.09863V3.23062Z" fill="black"/>
</g>
<defs>
<clipPath id="clip0_2076_38156">
<rect width="24" height="24" fill="white"/>
</clipPath>
</defs>
</svg>
