<svg width="49" height="48" viewBox="0 0 49 48" fill="none" xmlns="http://www.w3.org/2000/svg">
<path fill-rule="evenodd" clip-rule="evenodd" d="M28.0217 9.33868C28.3143 9.6318 28.7892 9.63216 29.0823 9.33949C29.3754 9.04682 29.3758 8.57195 29.0831 8.27883L25.0306 4.22007C24.8899 4.07917 24.6989 4 24.4998 4C24.3007 4 24.1098 4.07917 23.9691 4.22007L19.9165 8.27883C19.6238 8.57195 19.6242 9.04682 19.9173 9.33949C20.2104 9.63216 20.6853 9.6318 20.978 9.33868L24.4998 5.81147L28.0217 9.33868ZM9.83331 20.4674C10.126 20.1743 10.1256 19.6994 9.8325 19.4068C9.53938 19.1141 9.06451 19.1145 8.77184 19.4076L4.71927 23.4663C4.42691 23.7591 4.42691 24.2334 4.71927 24.5262L8.77184 28.5849C9.06451 28.8781 9.53938 28.8784 9.8325 28.5857C10.1256 28.2931 10.126 27.8182 9.83331 27.5251L6.30985 23.9963L9.83331 20.4674ZM39.1661 27.5287C38.8735 27.8218 38.8738 28.2967 39.1669 28.5893C39.4601 28.882 39.9349 28.8816 40.2276 28.5885L44.2802 24.5298C44.5725 24.237 44.5725 23.7627 44.2802 23.4699L40.2276 19.4112C39.9349 19.118 39.4601 19.1177 39.1669 19.4103C38.8738 19.703 38.8735 20.1779 39.1661 20.471L42.6896 23.9998L39.1661 27.5287ZM19.9172 38.6607C20.2104 38.368 20.6852 38.3684 20.9779 38.6615L24.4997 42.1887L28.0216 38.6615C28.3142 38.3684 28.7891 38.368 29.0822 38.6607C29.3754 38.9533 29.3757 39.4282 29.083 39.7213L25.0305 43.7801C24.8898 43.921 24.6989 44.0002 24.4997 44.0002C24.3006 44.0002 24.1097 43.921 23.969 43.7801L19.9164 39.7213C19.6238 39.4282 19.6241 38.9533 19.9172 38.6607ZM24.4854 18.9258C24.8996 18.9258 25.2354 19.2616 25.2354 19.6758V23.2617H28.8156C29.2298 23.2617 29.5656 23.5975 29.5656 24.0117C29.5656 24.4259 29.2298 24.7617 28.8156 24.7617H25.2354V28.3266C25.2354 28.7408 24.8996 29.0766 24.4854 29.0766C24.0712 29.0766 23.7354 28.7408 23.7354 28.3266V24.7617H20.1842C19.77 24.7617 19.4342 24.4259 19.4342 24.0117C19.4342 23.5975 19.77 23.2617 20.1842 23.2617H23.7354V19.6758C23.7354 19.2616 24.0712 18.9258 24.4854 18.9258Z" fill="black"/>
</svg>
