<svg width="12" height="12" viewBox="0 0 12 12" fill="none" xmlns="http://www.w3.org/2000/svg">
<path fill-rule="evenodd" clip-rule="evenodd" d="M10.41 1.86644C9.94 2.14032 9.37 2.37363 8.73 2.54607C8.34 1.34911 7.74 0.456467 7.04 0C8.36 0.233305 9.54 0.90279 10.41 1.86644ZM3.74 2.65765C4.2 1.27811 4.94 0.314455 5.76 0.162299V2.88081C5.05 2.87067 4.37 2.78952 3.74 2.65765ZM3.24022 5.76162H3.24V5.77177L3.24022 5.76162ZM3.24022 5.76162H5.77V3.36771C5 3.35757 4.27 3.27642 3.61 3.1344C3.39078 3.92281 3.26092 4.81193 3.24022 5.76162ZM6.24 0.162299V2.88081C6.95 2.87067 7.63 2.78952 8.26 2.65765C7.79 1.27811 7.06 0.324598 6.24 0.162299ZM3.60679 8.8743L3.6 8.87574L3.61 8.88588L3.60679 8.8743ZM5.76 8.64244C5.00257 8.65254 4.27493 8.73318 3.60679 8.8743C3.38874 8.08597 3.2599 7.19738 3.24 6.24852H5.76V8.64244ZM12 5.76162C11.95 4.4328 11.48 3.2257 10.73 2.24176C10.21 2.55621 9.59 2.81995 8.87 3.01268C9.09 3.83432 9.22 4.76754 9.24 5.76162H12ZM10.73 9.75824C11.49 8.78445 11.95 7.5672 12 6.23838H9.24C9.22 7.23246 9.09 8.16568 8.87 8.98732C9.58 9.18005 10.21 9.44379 10.73 9.75824ZM5.76 9.11919V11.8377C4.94 11.6754 4.2 10.7219 3.74 9.34235C4.37 9.21048 5.05 9.12933 5.76 9.11919ZM8.73 9.45393C8.34 10.6509 7.75 11.5435 7.04 12C8.36 11.7667 9.53 11.0871 10.41 10.1336C9.94 9.85968 9.37 9.62637 8.73 9.45393ZM0 6.23838H2.76C2.78 7.23246 2.91 8.16568 3.13 8.98732C2.41 9.18005 1.79 9.44379 1.27 9.75824C0.52 8.7743 0.05 7.5672 0 6.23838ZM3.27 9.45393C2.63 9.62637 2.06 9.85968 1.59 10.1336C2.46 11.0972 3.63 11.7667 4.96 12C4.26 11.5435 3.66 10.6509 3.27 9.45393ZM3.13 3.01268C2.91 3.83432 2.78 4.76754 2.76 5.76162H0C0.05 4.4328 0.52 3.2257 1.27 2.24176C1.79 2.55621 2.42 2.81995 3.13 3.01268ZM8.4 3.12426C7.73 3.26627 7 3.34742 6.24 3.35757V5.75148H8.77C8.75 4.79797 8.62 3.90533 8.4 3.11412V3.12426ZM4.96 0C4.25 0.456467 3.66 1.34911 3.27 2.54607C2.63 2.37363 2.06 2.14032 1.59 1.86644C2.47 0.912933 3.64 0.233305 4.96 0ZM8.76 6.23838H8.75978L8.76 6.22823V6.23838ZM8.75978 6.23838H6.23V8.63229C7 8.64244 7.73 8.72358 8.39 8.8656C8.60922 8.07719 8.73908 7.18807 8.75978 6.23838ZM6.24 9.11919C6.95 9.12933 7.63 9.21048 8.26 9.34235C7.8 10.7219 7.06 11.6855 6.24 11.8377V9.11919Z" fill="#333333"/>
</svg>
