<svg width="48" height="48" viewBox="0 0 48 48" fill="none" xmlns="http://www.w3.org/2000/svg">
<path fill-rule="evenodd" clip-rule="evenodd" d="M4.75 6C4.33579 6 4 6.33579 4 6.75C4 7.16421 4.33579 7.5 4.75 7.5H9.57972L17.1181 27.7404C17.8507 29.7081 19.7271 31.0138 21.8276 31.0138H38.9747C39.3889 31.0138 39.7247 30.678 39.7247 30.2638C39.7247 29.8496 39.3889 29.5138 38.9747 29.5138H21.8276C20.3545 29.5138 19.0381 28.5983 18.5238 27.2171L17.547 24.5942H34.6191C37.669 24.5942 40.3717 22.6366 41.1288 19.7815L43.9753 9.0576C44.035 8.83258 43.9868 8.59254 43.8449 8.40796C43.7029 8.22339 43.4832 8.11523 43.2504 8.11523H22.8901C22.4759 8.11523 22.1401 8.45102 22.1401 8.86523C22.1401 9.2794 22.4759 9.6152 22.8901 9.6152H42.2753L39.679 19.3967C39.1101 21.5424 37.0439 23.0942 34.6191 23.0942H16.9883L10.8036 6.48823C10.6942 6.19468 10.414 6 10.1007 6H4.75ZM16.7324 38.8233C16.7324 37.7598 17.5939 36.8984 18.6556 36.8984C19.7174 36.8984 20.5789 37.7598 20.5789 38.8233C20.5789 39.8867 19.7174 40.7481 18.6556 40.7481C17.5939 40.7481 16.7324 39.8867 16.7324 38.8233ZM18.6556 35.3984C16.7646 35.3984 15.2324 36.9322 15.2324 38.8233C15.2324 40.7143 16.7646 42.2481 18.6556 42.2481C20.5467 42.2481 22.0789 40.7143 22.0789 38.8233C22.0789 36.9322 20.5467 35.3984 18.6556 35.3984ZM37.9056 36.8984C36.8439 36.8984 35.9824 37.7598 35.9824 38.8233C35.9824 39.8867 36.8439 40.7481 37.9056 40.7481C38.9674 40.7481 39.8289 39.8867 39.8289 38.8233C39.8289 37.7598 38.9674 36.8984 37.9056 36.8984ZM34.4824 38.8233C34.4824 36.9322 36.0146 35.3984 37.9056 35.3984C39.7967 35.3984 41.3289 36.9322 41.3289 38.8233C41.3289 40.7143 39.7967 42.2481 37.9056 42.2481C36.0146 42.2481 34.4824 40.7143 34.4824 38.8233Z" fill="black"/>
</svg>
