<svg width="40" height="40" viewBox="0 0 40 40" fill="none" xmlns="http://www.w3.org/2000/svg">
<mask id="path-1-inside-1_2371_136500" fill="white">
<path fill-rule="evenodd" clip-rule="evenodd" d="M27.1111 3H8V35H34V9.2L27.1111 3Z"/>
</mask>
<path fill-rule="evenodd" clip-rule="evenodd" d="M27.1111 3H8V35H34V9.2L27.1111 3Z" fill="white"/>
<path d="M8 3V1.5H6.5V3H8ZM27.1111 3L28.1146 1.88506L27.6867 1.5H27.1111V3ZM8 35H6.5V36.5H8V35ZM34 35V36.5H35.5V35H34ZM34 9.2H35.5V8.53196L35.0034 8.08506L34 9.2ZM8 4.5H27.1111V1.5H8V4.5ZM9.5 35V3H6.5V35H9.5ZM34 33.5H8V36.5H34V33.5ZM32.5 9.2V35H35.5V9.2H32.5ZM35.0034 8.08506L28.1146 1.88506L26.1077 4.11494L32.9966 10.3149L35.0034 8.08506Z" fill="#333333" mask="url(#path-1-inside-1_2371_136500)"/>
<path d="M5 7V38H30" stroke="#333333" stroke-width="1.5" stroke-linecap="round" stroke-linejoin="round"/>
<path d="M27 4V10H33" stroke="#333333" stroke-width="1.5" stroke-linecap="round" stroke-linejoin="round"/>
<path d="M14 13H23" stroke="#333333" stroke-width="1.5" stroke-linecap="round" stroke-linejoin="round"/>
<path d="M14 17H28" stroke="#333333" stroke-width="1.5" stroke-linecap="round" stroke-linejoin="round"/>
<path d="M14 21H28" stroke="#333333" stroke-width="1.5" stroke-linecap="round" stroke-linejoin="round"/>
<path d="M14 25H28" stroke="#333333" stroke-width="1.5" stroke-linecap="round" stroke-linejoin="round"/>
</svg>
