<svg width="64" height="64" viewBox="0 0 64 64" fill="none" xmlns="http://www.w3.org/2000/svg">
<g id="Icon_Guide_64">
<rect width="64" height="64" fill="white"/>
<g id="Group 6340288">
<path id="Ellipse 1341" d="M59 26.5571C59 31.4936 54.9982 35.4954 50.0617 35.4954C45.1252 35.4954 41.1233 31.4936 41.1233 26.5571M59 26.5571L50.0617 10.4681M59 26.5571H41.1233M41.1233 26.5571L50.0617 10.4681M50.0617 10.4681L32 10.234M13.9383 10L5 26.089M13.9383 10L22.8767 26.089M13.9383 10L32 10.234M22.8767 26.089C22.8767 31.0255 18.8748 35.0273 13.9383 35.0273C9.00183 35.0273 5 31.0255 5 26.089M22.8767 26.089H5M32 10.234V54M32 54H22.8767M32 54H41.0308" stroke="black" stroke-width="1.5" stroke-linejoin="round"/>
</g>
</g>
</svg>
