<svg width="48" height="49" viewBox="0 0 48 49" fill="none" xmlns="http://www.w3.org/2000/svg">
<path fill-rule="evenodd" clip-rule="evenodd" d="M2 7.50098H2.75H29.4434H30.1934V8.25098V13.5629H37.1827H37.6587L37.8613 13.9937L42.9601 24.8342L46.5579 26.4395L47.0023 26.6378V27.1244V36.0631V36.8131H46.2523H43.0637C42.8108 39.4437 40.5943 41.5005 37.8974 41.5005C35.2005 41.5005 32.984 39.4437 32.7311 36.8131H29.4463H28.6964V36.813H16.2708C16.0179 39.4436 13.8014 41.5005 11.1044 41.5005C8.40751 41.5005 6.191 39.4436 5.93811 36.813H2.75H2V36.063V26.1766V8.25098V7.50098ZM32.8027 35.3131C33.2676 32.9236 35.3719 31.1198 37.8974 31.1198C40.4229 31.1198 42.5272 32.9236 42.9921 35.3131H45.5023V27.611L41.7528 25.938H30.1954L30.1962 35.3131H32.8027ZM28.6934 35.313H16.1991C15.7342 32.9235 13.6299 31.1198 11.1044 31.1198C8.57894 31.1198 6.47473 32.9235 6.00975 35.313H3.5V26.9266L28.6934 26.9266V35.313ZM28.6934 9.00098V25.4266L3.5 25.4266V9.00098H28.6934ZM30.1954 15.0629V24.438H41.1162L36.7066 15.0629H30.1954ZM11.1044 40.0005C13.1426 40.0005 14.7948 38.3483 14.7948 36.3102C14.7948 34.272 13.1426 32.6198 11.1044 32.6198C9.0663 32.6198 7.41406 34.272 7.41406 36.3102C7.41406 38.3483 9.0663 40.0005 11.1044 40.0005ZM41.5878 36.3102C41.5878 38.3483 39.9356 40.0005 37.8974 40.0005C35.8593 40.0005 34.207 38.3483 34.207 36.3102C34.207 34.272 35.8593 32.6198 37.8974 32.6198C39.9356 32.6198 41.5878 34.272 41.5878 36.3102Z" fill="black"/>
</svg>
