<svg width="24" height="24" viewBox="0 0 24 24" fill="none" xmlns="http://www.w3.org/2000/svg">
<path fill-rule="evenodd" clip-rule="evenodd" d="M12.0001 3.59941C7.36095 3.59941 3.60015 7.36022 3.60015 11.9994C3.60015 16.6386 7.36095 20.3994 12.0001 20.3994C16.6393 20.3994 20.4001 16.6386 20.4001 11.9994C20.4001 7.36022 16.6393 3.59941 12.0001 3.59941ZM2.40015 11.9994C2.40015 6.69748 6.69821 2.39941 12.0001 2.39941C17.3021 2.39941 21.6001 6.69748 21.6001 11.9994C21.6001 17.3013 17.3021 21.5994 12.0001 21.5994C6.69821 21.5994 2.40015 17.3013 2.40015 11.9994Z" fill="#EA1917"/>
<path d="M15.2 11.6536C15.4667 11.8075 15.4667 12.1925 15.2 12.3464L10.7 14.9445C10.4333 15.0984 10.1 14.906 10.1 14.5981L10.1 9.40192C10.1 9.094 10.4333 8.90155 10.7 9.05551L15.2 11.6536Z" stroke="#EA1917" stroke-width="1.2"/>
</svg>
