<svg width="56" height="56" viewBox="0 0 56 56" fill="none" xmlns="http://www.w3.org/2000/svg">
<g filter="url(#filter0_d_2368_454540)">
<circle cx="28" cy="20" r="15.25" fill="black" fill-opacity="0.7" stroke="white" stroke-width="1.5"/>
<g clip-path="url(#clip0_2368_454540)">
<path fill-rule="evenodd" clip-rule="evenodd" d="M28.9988 15C28.9988 14.4477 28.5511 14 27.9988 14C27.4465 14 26.9988 14.4477 26.9988 15L26.9988 18.9993H23C22.4477 18.9993 22 19.447 22 19.9993C22 20.5516 22.4477 20.9993 23 20.9993H26.9988L26.9988 24.9987C26.9988 25.551 27.4465 25.9987 27.9988 25.9987C28.5511 25.9987 28.9988 25.551 28.9988 24.9987L28.9988 20.9993H32.9987C33.551 20.9993 33.9987 20.5516 33.9987 19.9993C33.9987 19.447 33.551 18.9993 32.9987 18.9993H28.9988L28.9988 15Z" fill="white"/>
</g>
</g>
<defs>
<filter id="filter0_d_2368_454540" x="0" y="0" width="56" height="56" filterUnits="userSpaceOnUse" color-interpolation-filters="sRGB">
<feFlood flood-opacity="0" result="BackgroundImageFix"/>
<feColorMatrix in="SourceAlpha" type="matrix" values="0 0 0 0 0 0 0 0 0 0 0 0 0 0 0 0 0 0 127 0" result="hardAlpha"/>
<feOffset dy="8"/>
<feGaussianBlur stdDeviation="6"/>
<feComposite in2="hardAlpha" operator="out"/>
<feColorMatrix type="matrix" values="0 0 0 0 0 0 0 0 0 0 0 0 0 0 0 0 0 0 0.06 0"/>
<feBlend mode="normal" in2="BackgroundImageFix" result="effect1_dropShadow_2368_454540"/>
<feBlend mode="normal" in="SourceGraphic" in2="effect1_dropShadow_2368_454540" result="shape"/>
</filter>
<clipPath id="clip0_2368_454540">
<rect width="12" height="12.0001" fill="white" transform="translate(22 14)"/>
</clipPath>
</defs>
</svg>
