<svg width="75" height="45" viewBox="0 0 75 45" fill="none" xmlns="http://www.w3.org/2000/svg">
<g clip-path="url(#clip0_5520_344586)">
<path d="M20 0H59.5V45H20L-3.8147e-06 22.6731L20 0Z" fill="#7AC143"/>
<path d="M59.5 0H75V45H59.5V0Z" fill="white"/>
<path d="M0.166664 22.3269L19.5 0.173077C19.5 0.173077 19.6667 0 19.8333 0H74.5C74.6667 0 75 0.173077 75 0.519231V44.4808C75 44.6539 74.8333 45 74.5 45H19.8333C19.6667 45 19.6667 45 19.5 44.8269L0.166664 23.0192C0 22.6731 0 22.5 0.166664 22.3269ZM74 1.03846H60V44.1346H74V1.03846ZM20.1667 44.1346H59V1.03846H20.1667L1.16667 22.6731L20.1667 44.1346Z" fill="black"/>
<path d="M41.5897 31.5204C41.373 32.0504 41.0431 32.5243 40.6231 32.9075C40.199 33.2859 39.7035 33.573 39.1671 33.7512C38.4928 33.9591 37.7902 34.0567 37.0858 34.0401H32.8093V24.9432H36.3126C37.1992 24.9204 38.0842 25.0294 38.9399 25.2669C39.5509 25.4476 40.1171 25.7591 40.6004 26.1801C41.0402 26.583 41.3794 27.0859 41.59 27.6484C41.8242 28.2838 41.94 28.9581 41.9312 29.6362C41.9441 30.2812 41.828 30.9225 41.5897 31.5204ZM40.1795 17.5915C40.0109 18.0944 39.7397 18.5552 39.3832 18.9439C39.0347 19.3398 38.6033 19.652 38.1209 19.8572C37.467 20.1056 36.7711 20.2194 36.0737 20.1924H32.7752V11.8928H35.7666C36.508 11.8704 37.2482 11.9639 37.9617 12.1702C38.4668 12.3238 38.9329 12.5882 39.3264 12.9447C39.6936 13.2954 39.9707 13.732 40.134 14.2162C40.3227 14.7739 40.4146 15.3605 40.407 15.9501C40.4155 16.5059 40.3387 17.0597 40.1795 17.5915ZM47.6179 26.4691C47.344 25.6317 46.9281 24.8493 46.3894 24.1572C45.8836 23.5171 45.267 22.9765 44.5697 22.562C43.8641 22.1462 43.0956 21.8531 42.295 21.695C42.9177 21.4419 43.4972 21.0909 44.0126 20.6549C44.5073 20.2322 44.9331 19.7325 45.2749 19.1755C45.6267 18.5986 45.8915 17.971 46.0598 17.3141C46.2438 16.601 46.3357 15.8669 46.3328 15.1297C46.3631 13.8928 46.1345 12.6634 45.662 11.5232C45.2318 10.5274 44.563 9.65713 43.7168 8.99169C42.7847 8.28417 41.7204 7.77681 40.5893 7.50057C39.0994 7.14017 37.5705 6.97314 36.0396 7.00351H28.7718C28.308 6.99055 27.858 7.16514 27.5205 7.48898C27.142 7.9178 26.9565 8.48747 27.0087 9.06088V36.9418C26.9565 37.5154 27.142 38.0855 27.5205 38.5137C27.8577 38.8376 28.3077 39.0123 28.7718 38.9992H36.4946C37.5603 39.0087 38.6252 38.9316 39.6793 38.7682C40.5969 38.6226 41.4967 38.3785 42.3635 38.0398C43.1711 37.7195 43.9356 37.2963 44.6382 36.7799C45.3306 36.2742 45.9379 35.6574 46.4352 34.9536C46.9401 34.2032 47.3239 33.3761 47.5724 32.5029C47.8643 31.5017 48.0064 30.461 47.9933 29.4164C48.0318 28.4196 47.9049 27.4232 47.6179 26.4691Z" fill="white" stroke="black" stroke-miterlimit="10" stroke-linecap="round" stroke-linejoin="round"/>
<path d="M66.8327 27.5193C67.3327 27.5193 67.666 27.1731 67.666 26.6539V20.4231L68.8327 21.4616C68.9993 21.6346 69.166 21.6346 69.3327 21.6346C69.4993 21.6346 69.8327 21.4616 69.8327 21.4616C70.166 21.1154 70.166 20.5962 69.8327 20.25L67.3327 17.6539C66.9993 17.3077 66.4993 17.3077 66.166 17.6539L63.666 20.25C63.3327 20.5962 63.3327 21.1154 63.666 21.4616C63.9993 21.8077 64.4993 21.8077 64.8327 21.4616L65.9993 20.4231V26.6539C65.8327 27.1731 65.9993 27.5193 66.8327 27.5193Z" fill="black"/>
<path d="M68.3327 13.6731H65.3327L64.8327 15.4039H63.166L65.8327 6.9231H67.4993L70.3327 15.4039H68.666C68.9993 15.4039 68.3327 13.6731 68.3327 13.6731ZM67.8327 12.2885L66.8327 8.48079L65.666 12.2885H67.8327Z" fill="#231C1E"/>
<path d="M70.1654 33.0577V37.3846C69.832 37.5577 69.4987 37.7308 68.9987 37.9039C68.4987 38.0769 67.832 38.0769 67.6654 38.0769C66.4987 38.0769 65.4987 37.7308 64.832 36.8654C64.1654 36 63.832 34.9616 63.832 33.5769C63.832 32.1923 64.1654 30.9808 64.832 30.2885C65.4987 29.5962 66.4987 29.0769 67.6654 29.0769C68.1654 29.0769 68.6654 29.0769 68.9987 29.25C69.4987 29.4231 69.832 29.5962 69.9987 29.7692L69.4987 31.1539C68.832 30.8077 68.1654 30.6346 67.4987 30.6346C65.9987 30.6346 65.332 31.6731 65.332 33.5769C65.332 35.4808 65.9987 36.6923 67.6654 36.6923C67.9987 36.6923 68.332 36.6923 68.6654 36.5192V34.4423H67.1654V33.0577H70.1654Z" fill="black"/>
</g>
<defs>
<clipPath id="clip0_5520_344586">
<rect width="75" height="45" fill="white"/>
</clipPath>
</defs>
</svg>
