<svg width="24" height="24" viewBox="0 0 24 24" fill="none" xmlns="http://www.w3.org/2000/svg">
<path fill-rule="evenodd" clip-rule="evenodd" d="M20.5456 13.897C21.0232 11.8096 20.6521 9.61796 19.5138 7.80422C18.3755 5.99049 16.5634 4.70322 14.476 4.22559C14.153 4.15168 13.8312 4.35363 13.7573 4.67665C13.6834 4.99967 13.8853 5.32145 14.2083 5.39536C15.9855 5.802 17.5283 6.89795 18.4974 8.44211C19.4665 9.98628 19.7825 11.8522 19.3758 13.6293C18.9692 15.4065 17.8732 16.9493 16.3291 17.9184C15.7293 18.2948 15.081 18.5727 14.4082 18.7479L15.1703 17.3809C15.3316 17.0915 15.2278 16.7261 14.9384 16.5647C14.6489 16.4034 14.2835 16.5072 14.1221 16.7966L12.5977 19.5311C12.4364 19.8205 12.5402 20.186 12.8296 20.3473L15.5641 21.8717C15.8536 22.0331 16.219 21.9292 16.3803 21.6398C16.5417 21.3504 16.4379 20.9849 16.1484 20.8236L14.5711 19.9442C15.4112 19.7413 16.2211 19.4029 16.967 18.9348C18.7807 17.7965 20.068 15.9844 20.5456 13.897ZM4.33263 16.0353C3.26197 14.1809 2.97183 11.977 3.52605 9.90867C4.08026 7.8403 5.43344 6.07681 7.28788 5.00615C8.04899 4.56672 8.86897 4.25877 9.71426 4.08671L8.17489 3.15258C7.8916 2.98068 7.8013 2.61166 7.97321 2.32837C8.14512 2.04508 8.51413 1.95479 8.79742 2.12669L11.4739 3.75083C11.7572 3.92274 11.8474 4.29175 11.6755 4.57504L10.0514 7.25148C9.8795 7.53477 9.51049 7.62506 9.2272 7.45316C8.9439 7.28125 8.85361 6.91223 9.02552 6.62894L9.84001 5.28672C9.16051 5.43703 8.50172 5.69098 7.88788 6.04538C6.30906 6.95691 5.157 8.4583 4.68516 10.2193C4.21331 11.9802 4.46033 13.8565 5.37186 15.4353C6.2834 17.0141 7.78479 18.1662 9.54574 18.638C9.86582 18.7238 10.0558 19.0528 9.97 19.3729C9.88424 19.693 9.55523 19.8829 9.23515 19.7971C7.16679 19.2429 5.4033 17.8897 4.33263 16.0353Z" fill="black"/>
</svg>
