<svg width="20" height="20" viewBox="0 0 20 20" fill="none" xmlns="http://www.w3.org/2000/svg">
<g clip-path="url(#clip0_1246_17816)">
<path fill-rule="evenodd" clip-rule="evenodd" d="M1.27027 0.221383C0.979675 -0.0737944 0.508534 -0.0737944 0.217943 0.221383C-0.0726477 0.516561 -0.0726477 0.995138 0.217943 1.29032L8.94687 10.157L0.526965 18.7098C0.236375 19.005 0.236375 19.4836 0.526965 19.7788C0.817556 20.0739 1.2887 20.0739 1.57929 19.7788L9.99919 11.226L18.4189 19.7785C18.7095 20.0737 19.1806 20.0737 19.4712 19.7785C19.7618 19.4834 19.7618 19.0048 19.4712 18.7096L11.0515 10.157L19.7802 1.29052C20.0708 0.995347 20.0708 0.516769 19.7802 0.221591C19.4896 -0.0735863 19.0185 -0.073586 18.7279 0.221591L9.99919 9.08809L1.27027 0.221383Z" fill="black"/>
</g>
<defs>
<clipPath id="clip0_1246_17816">
<rect width="20" height="20.0001" fill="white"/>
</clipPath>
</defs>
</svg>
