<svg width="32" height="32" viewBox="0 0 32 32" fill="none" xmlns="http://www.w3.org/2000/svg">
<path fill-rule="evenodd" clip-rule="evenodd" d="M18.8459 5.00058C19.4031 4.98941 20.2184 5.13703 20.9174 5.63836C21.4034 5.98691 21.8051 6.48762 22.0248 7.15826H23.1667C26.4974 7.15826 29.0022 10.1887 29.0022 13.7102V14.1006H29.0042V23.2832V24.0332L28.2542 24.0332L26.7243 24.0332C26.4085 25.6511 24.9694 26.873 23.2418 26.873C21.5319 26.873 20.1046 25.676 19.7694 24.0828H11.9781C11.6429 25.676 10.2156 26.873 8.50571 26.873C6.54681 26.873 4.95881 25.3019 4.95881 23.364C4.95881 22.9137 5.04454 22.4832 5.20073 22.0877C4.01572 20.9649 3.24464 19.4253 3.24464 17.6618V11.2859V10.5359H3.99464H10.7894V12.0359H4.74464V17.6618C4.74464 18.8793 5.23855 19.9738 6.05727 20.8252C6.69388 20.2241 7.55623 19.855 8.50571 19.855C10.1932 19.855 11.6054 21.0208 11.9644 22.5828H19.7831C20.142 21.0208 21.5543 19.855 23.2418 19.855C24.9114 19.855 26.3115 20.9962 26.6887 22.5332L27.5042 22.5332V14.4602H27.5022V13.7102C27.5022 10.822 25.4865 8.65826 23.1667 8.65826H22.2061V14.57H25.694V16.07H21.4561H20.7061V15.32V8.36614C20.7061 7.53196 20.3846 7.10213 20.0432 6.85728C19.662 6.58388 19.1816 6.49312 18.8716 6.50038L18.8628 6.50058H18.854H3.00031V5.00058H18.8459ZM8.50571 25.373C9.65142 25.373 10.5526 24.4584 10.5526 23.364C10.5526 22.2696 9.65142 21.355 8.50571 21.355C7.36 21.355 6.45881 22.2696 6.45881 23.364C6.45881 24.4584 7.36 25.373 8.50571 25.373ZM13.1725 9.2204L3 9.2204V7.7204L13.1725 7.7204V9.2204ZM25.2887 23.364C25.2887 24.4584 24.3875 25.373 23.2418 25.373C22.0961 25.373 21.1949 24.4584 21.1949 23.364C21.1949 22.2696 22.0961 21.355 23.2418 21.355C24.3875 21.355 25.2887 22.2696 25.2887 23.364Z" fill="black"/>
</svg>
