<svg width="60" height="60" viewBox="0 0 60 60" fill="none" xmlns="http://www.w3.org/2000/svg">
<path fill-rule="evenodd" clip-rule="evenodd" d="M42.1267 34.8747C45.6267 33.8747 49.3767 34.8747 52.0017 37.4997C54.0017 39.4997 55.1267 42.1247 55.1267 44.8747V46.1247H52.6267V44.8747C52.7517 42.7497 51.8767 40.7497 50.3767 39.2497C48.2517 37.1247 45.1267 36.3747 42.2517 37.3747C41.8767 37.6247 41.3767 37.4997 41.0017 37.1247L23.0017 19.1247C22.7517 18.8747 22.6267 18.3747 22.7517 17.8747C23.7517 14.9997 23.0017 11.8747 20.8767 9.74966C19.3767 8.37466 17.6267 7.62466 15.6267 7.49966L12.7517 10.2497L17.1267 14.6247L15.3767 16.3747L10.1267 11.1247C9.62671 10.6247 9.62671 9.87466 10.1267 9.37466L14.1267 5.37466C14.3767 5.12466 14.6267 4.99966 15.0017 4.99966C17.8767 4.87466 20.5017 5.99966 22.5017 7.99966C25.1267 10.4997 26.1267 14.3747 25.1267 17.8747L42.1267 34.8747ZM37.6266 27.1247C37.8766 27.3747 38.1266 27.4997 38.5016 27.4997C38.8766 27.4997 39.1266 27.3747 39.3766 27.1247L46.5016 19.9997C46.5735 19.9278 46.604 19.8973 46.6408 19.8843C46.6679 19.8747 46.6985 19.8747 46.7516 19.8747L50.0016 18.3747C50.7516 17.9997 51.2516 17.6247 51.6266 16.8747L54.2516 12.3747C54.6266 11.6247 54.6266 10.8747 54.0016 10.2497L52.0016 8.24971C51.2516 7.62471 50.5016 7.49972 49.7516 7.99972L45.2516 10.6247C44.5016 10.9997 44.1266 11.4997 43.7516 12.2497L42.2516 15.4997C42.2516 15.5622 42.2203 15.5935 42.1891 15.6247C42.1578 15.656 42.1266 15.6872 42.1266 15.7497L35.0016 22.7497C34.5016 23.2497 34.5016 23.9997 35.0016 24.4997L37.6266 27.1247ZM43.8766 17.4997C44.1266 17.2497 44.3766 16.8747 44.5016 16.4997L46.0016 13.2497C46.1266 12.9997 46.2516 12.8747 46.5016 12.7497L50.5016 10.3747L51.7516 11.6247L49.3766 15.6247C49.2516 15.8747 49.1266 15.9997 48.8766 16.1247L45.6266 17.6247C45.3635 17.7124 45.1619 17.8616 44.9356 18.0292L44.9355 18.0293C44.8392 18.1005 44.7385 18.1751 44.6266 18.2497L38.3766 24.4997L37.5016 23.6247L43.8766 17.4997ZM44.5016 43.6247L42.7516 45.3747L47.1266 49.7497L44.3766 52.4997C42.3766 52.3747 40.6266 51.6247 39.1266 50.2497C37.0016 48.1247 36.2516 44.9997 37.2516 42.1247C37.3766 41.6247 37.2516 41.1247 37.0016 40.8747L19.1266 22.8747C18.7516 22.4997 18.2516 22.3747 17.8766 22.6247C15.0016 23.6247 11.8766 22.8747 9.75161 20.7497C8.25161 19.2497 7.50161 17.2497 7.50161 15.1247V13.8747H5.00161V15.1247C4.87661 17.9997 6.00161 20.6247 8.00161 22.6247C10.6266 25.2497 14.3766 26.2497 17.8766 25.2497L34.7516 42.1247C33.7516 45.6247 34.7516 49.4997 37.3766 51.9997C39.3766 53.9997 41.8766 54.9997 44.6266 54.9997H44.8766C45.2516 54.9997 45.5016 54.8747 45.7516 54.6247L49.7516 50.6247C50.2516 50.1247 50.2516 49.3747 49.7516 48.8747L44.5016 43.6247ZM19.7515 31.9996C20.2515 31.4996 21.0015 31.4996 21.5015 31.9996L27.8765 38.2496C28.2515 38.7496 28.3765 39.4996 27.8765 39.9996C27.2515 40.6246 27.0015 41.4996 26.8765 42.4996C26.8765 42.9996 26.6265 43.4996 26.2515 43.8746L18.5015 51.6246C16.7515 53.2496 15.2515 54.1246 13.5015 54.1246C11.7515 54.1246 10.1265 53.2496 8.50147 51.6246L8.12646 51.2496C4.75146 47.8746 4.75146 44.7496 8.12646 41.3746L15.8765 33.6246C16.2515 33.2496 16.6265 32.9996 17.2515 32.9996C18.2515 32.8746 19.1265 32.6246 19.7515 31.9996ZM16.5015 49.8746L24.2515 42.1246C24.3765 40.9996 24.6265 39.9996 25.2515 39.2496L20.5015 34.4996C19.6265 34.9996 18.6265 35.2496 17.5015 35.3746L9.75147 43.1246C7.37647 45.4996 7.37647 47.1246 9.75147 49.4996L10.1265 49.8746C12.5015 52.2496 14.1265 52.2496 16.5015 49.8746ZM20.0017 37.4996L11.2513 46.25L13.0191 48.0177L21.7695 39.2674L20.0017 37.4996Z" fill="#1D1D1B"/>
</svg>
