<svg width="65" height="64" viewBox="0 0 65 64" fill="none" xmlns="http://www.w3.org/2000/svg">
<path d="M36.5354 9H4.5354C3.70697 9 3.0354 9.67157 3.0354 10.5V53.5C3.0354 54.3284 3.70697 55 4.5354 55H36.5354C37.3638 55 38.0354 54.3284 38.0354 53.5V10.5C38.0354 9.67157 37.3638 9 36.5354 9Z" stroke="black" stroke-width="1.5"/>
<circle cx="21.0354" cy="13" r="1" fill="black"/>
<path d="M41.2854 18.5C41.2854 17.6716 41.957 17 42.7854 17H59.7854C60.6138 17 61.2854 17.6716 61.2854 18.5V53.5C61.2854 54.3284 60.6138 55 59.7854 55H42.7854C41.957 55 41.2854 54.3284 41.2854 53.5V18.5Z" stroke="black" stroke-width="1.5"/>
<circle cx="51.2854" cy="20" r="1" fill="black"/>
<path d="M53.3928 38.0888C52.8451 37.4064 52.0034 36.9695 51.0595 36.9695C50.1156 36.9695 49.2739 37.4064 48.7261 38.0888M55.9518 36.2233C54.8563 34.8586 53.1729 33.9847 51.2851 33.9847C49.3974 33.9847 47.714 34.8586 46.6185 36.2233M58.2854 34.3579C56.6421 32.3108 54.117 31 51.2854 31C48.4538 31 45.9287 32.3108 44.2854 34.3579" stroke="black" stroke-width="1.5" stroke-linecap="round" stroke-linejoin="round"/>
<circle cx="51.0354" cy="40.25" r="1" fill="black"/>
</svg>
