<svg width="64" height="64" viewBox="0 0 64 64" fill="none" xmlns="http://www.w3.org/2000/svg">
<path fill-rule="evenodd" clip-rule="evenodd" d="M16.75 2C15.2312 2 14 3.23122 14 4.75V59.25C14 60.7688 15.2312 62 16.75 62H47.25C48.7688 62 50 60.7688 50 59.25V4.75C50 3.23122 48.7688 2 47.25 2H31.7482H16.75ZM16.75 3.5H30.9982V34H15.5V4.75C15.5 4.05964 16.0596 3.5 16.75 3.5ZM15.5 35.5V59.25C15.5 59.9404 16.0596 60.5 16.75 60.5H30.9982V35.5H15.5ZM32.4982 35.5V60.5H47.25C47.9404 60.5 48.5 59.9404 48.5 59.25V35.5H32.4982ZM48.5 34V4.75C48.5 4.05964 47.9404 3.5 47.25 3.5H32.4982V34H48.5ZM37.5 7C36.5335 7 35.75 7.7835 35.75 8.75V28.75C35.75 29.7165 36.5335 30.5 37.5 30.5H43.5C44.4665 30.5 45.25 29.7165 45.25 28.75V8.75C45.25 7.7835 44.4665 7 43.5 7H37.5ZM37.25 8.75C37.25 8.61193 37.3619 8.5 37.5 8.5H43.5C43.6381 8.5 43.75 8.61193 43.75 8.75V28.75C43.75 28.8881 43.6381 29 43.5 29H37.5C37.3619 29 37.25 28.8881 37.25 28.75V8.75Z" fill="black"/>
</svg>
