<svg width="48" height="48" viewBox="0 0 48 48" fill="none" xmlns="http://www.w3.org/2000/svg">
<path fill-rule="evenodd" clip-rule="evenodd" d="M45.5 10.5H5.5V9H45.5H47V10.5V34H45.5V10.5ZM41.7493 14.5011H4.25V35.8007H41.7493V14.5011ZM4.25 13.0011H2.75V14.5011V35.8007V37.3007H4.25H41.7493H43.2493V35.8007V14.5011V13.0011H41.7493H4.25Z" fill="black"/>
<path d="M27.4815 32H18.6015V30.98L22.6615 26.78C23.1948 26.22 23.6482 25.7267 24.0215 25.3C24.3948 24.8733 24.6948 24.48 24.9215 24.12C25.1482 23.76 25.3148 23.4267 25.4215 23.12C25.5282 22.8133 25.5815 22.5067 25.5815 22.2C25.5815 21.44 25.3348 20.8267 24.8415 20.36C24.3482 19.8933 23.6948 19.66 22.8815 19.66C22.5348 19.66 22.2082 19.72 21.9015 19.84C21.5948 19.9467 21.3082 20.0867 21.0415 20.26C20.7882 20.42 20.5548 20.6067 20.3415 20.82C20.1415 21.02 19.9682 21.2133 19.8215 21.4L18.7815 20.44C18.9682 20.1867 19.2015 19.94 19.4815 19.7C19.7615 19.4467 20.0682 19.22 20.4015 19.02C20.7482 18.82 21.1215 18.66 21.5215 18.54C21.9348 18.42 22.3682 18.36 22.8215 18.36C24.1282 18.36 25.1615 18.6933 25.9215 19.36C26.6948 20.0133 27.0815 20.9667 27.0815 22.22C27.0815 22.58 27.0215 22.96 26.9015 23.36C26.7948 23.7467 26.6148 24.16 26.3615 24.6C26.1082 25.0267 25.7748 25.4933 25.3615 26C24.9615 26.4933 24.4682 27.0333 23.8815 27.62L20.8015 30.72H27.4815V32Z" fill="black"/>
</svg>
