<svg width="60" height="60" viewBox="0 0 60 60" fill="none" xmlns="http://www.w3.org/2000/svg">
<path fill-rule="evenodd" clip-rule="evenodd" d="M13 7.75C13 6.23122 14.2312 5 15.75 5H40.25C41.7688 5 43 6.23122 43 7.75V34.75C43 35.1642 42.6642 35.5 42.25 35.5C41.8358 35.5 41.5 35.1642 41.5 34.75V7.75C41.5 7.05964 40.9404 6.5 40.25 6.5H15.75C15.0596 6.5 14.5 7.05964 14.5 7.75V52.25C14.5 52.9404 15.0596 53.5 15.75 53.5H28H38.5C38.9142 53.5 39.25 53.8358 39.25 54.25C39.25 54.6642 38.9142 55 38.5 55H28H15.75C14.2312 55 13 53.7688 13 52.25V7.75ZM23.25 10C22.8358 10 22.5 10.3358 22.5 10.75C22.5 11.1642 22.8358 11.5 23.25 11.5H24.75C25.1642 11.5 25.5 11.1642 25.5 10.75C25.5 10.3358 25.1642 10 24.75 10H23.25ZM28.25 10C27.8358 10 27.5 10.3358 27.5 10.75C27.5 11.1642 27.8358 11.5 28.25 11.5L32.75 11.5C33.1642 11.5 33.5 11.1642 33.5 10.75C33.5 10.3358 33.1642 10 32.75 10H28.25ZM41.9946 38.1958C42.0515 38.1439 42.1144 38.1023 42.181 38.071C42.2778 38.0255 42.3859 38 42.5 38C42.6141 38 42.7222 38.0255 42.819 38.071C42.8856 38.1023 42.9485 38.1439 43.0054 38.1958C43.0107 38.2007 43.0159 38.2055 43.021 38.2105L49.7702 44.7098C50.0686 44.9971 50.0776 45.4719 49.7902 45.7702C49.5029 46.0686 49.0281 46.0776 48.7298 45.7902L43.25 40.5134V57.25C43.25 57.6642 42.9142 58 42.5 58C42.0858 58 41.75 57.6642 41.75 57.25V40.5134L36.2702 45.7902C35.9719 46.0776 35.4971 46.0686 35.2098 45.7702C34.9224 45.4719 34.9314 44.9971 35.2298 44.7098L41.979 38.2105C41.9841 38.2055 41.9893 38.2007 41.9946 38.1958Z" fill="black"/>
</svg>
