<svg width="49" height="48" viewBox="0 0 49 48" fill="none" xmlns="http://www.w3.org/2000/svg">
<g id="Communication_Chat / Inquiry">
<path id="Union" fill-rule="evenodd" clip-rule="evenodd" d="M4.04688 4H3.29688V4.75V18.2097V35.75V36.5H4.04688H13.8V42.57V43.9968L14.9752 43.1878L24.6901 36.5H44.5466H45.2966V35.75V4.75V4H44.5466H18.1521H4.04688ZM4.79688 18.2097V5.5H18.1521H43.7966V35H24.4569H24.2237L24.0316 35.1322L15.3 41.1432V35.75V35H14.55H4.79688V18.2097ZM24.2934 13.8C22.4162 13.8 20.943 15.2677 20.943 17.019V17.919H19.143V17.019C19.143 14.2207 21.4758 12 24.2934 12C27.1111 12 29.4438 14.2207 29.4438 17.019L29.4439 17.0536C29.4444 17.6139 29.4458 19.0458 28.3201 20.1368C27.5892 20.845 26.2384 21.8668 25.6726 22.278L25.6355 22.3049L25.5971 22.3273L25.5966 22.3276L25.5963 22.3278L25.5961 22.3279L25.5959 22.328L25.5938 22.3292L25.5752 22.3405C25.5577 22.3511 25.5313 22.3674 25.4991 22.3883C25.433 22.431 25.3494 22.4879 25.2699 22.5496C25.2406 22.5722 25.2152 22.5931 25.1934 22.6117V22.6133V22.6168V22.6203V22.6238V22.6274V22.6309V22.6345V22.6381V22.6417V22.6453V22.6489V22.6525V22.6562V22.6598V22.6635V22.6672V22.6709V22.6746V22.6784V22.6821V22.6859V22.6896V22.6934V22.6972V22.701V22.7049V22.7087V22.7125V22.7164V22.7203V22.7242V22.7281V22.732V22.7359V22.7399V22.7438V22.7478V22.7517V22.7557V22.7597V22.7637V22.7678V22.7718V22.7758V22.7799V22.784V22.788V22.7921V22.7962V22.8004V22.8045V22.8086V22.8128V22.8169V22.8211V22.8253V22.8295V22.8337V22.8379V22.8421V22.8463V22.8506V22.8548V22.8591V22.8634V22.8677V22.872V22.8763V22.8806V22.8849V22.8892V22.8936V22.8979V22.9023V22.9067V22.911V22.9154V22.9198V22.9242V22.9287V22.9331V22.9375V22.942V22.9464V22.9509V22.9554V22.9598V22.9643V22.9688V22.9733V22.9778V22.9824V22.9869V22.9914V22.996V23.0005V23.0051V23.0097V23.0142V23.0188V23.0234V23.028V23.0326V23.0372V23.0419V23.0465V23.0511V23.0558V23.0604V23.0651V23.0698V23.0744V23.0791V23.0838V23.0885V23.0932V23.0979V23.1026V23.1073V23.112V23.1168V23.1215V23.1262V23.131V23.1357V23.1405V23.1453V23.15V23.1548V23.1596V23.1644V23.1692V23.174V23.1788V23.1836V23.1884V23.1932V23.198V23.2028V23.2077V23.2125V23.2174V23.2222V23.227V23.2319V23.2368V23.2416V23.2465V23.2514V23.2562V23.2611V23.266V23.2709V23.2758V23.2807V23.2856V23.2905V23.2954V23.3003V23.3052V23.3101V23.315V23.32V23.3249V23.3298V23.3347V23.3397V23.3446V23.3495V23.3545V23.3594V23.3644V23.3693V23.3743V23.3792V23.3842V23.3891V23.3941V23.399V23.404V23.409V23.4139V23.4189V23.4239V23.4288V23.4338V23.4388V23.4438V23.4487V23.4537V23.4587V23.4637V23.4687V23.4736V23.4786V23.4836V23.4886V23.4936V23.4986V23.5035V23.5085V23.5135V23.5185V23.5235V23.5285V23.5335V23.5384V23.5434V23.5484V23.5534V23.5584V23.5634V23.5683V23.5733V23.5783V23.5833V23.5883V23.5933V23.5982V23.6032V23.6082V23.6132V23.6181V23.6231V23.6281V23.6331V23.638V23.643V23.648V23.6529V23.6579V23.6628V23.6678V23.6728V23.6777V23.6827V23.6876V23.6926V23.6975V23.7024V23.7074V23.7123V23.7173V23.7222V23.7271V23.732V23.737V23.7419V23.7468V23.7517V23.7566V23.7615V23.7664V23.7713V23.7762V23.7811V23.786V23.7909V23.7958V23.8007V23.8055V23.8104V23.8153V23.8201V23.825V23.8298V23.8347V23.8395V23.8444V23.8492V23.854V23.8589V23.8637V23.8685V23.8733V23.8781V23.8829V23.8877V23.8925V23.8973V23.9021V23.9068V23.9116V23.9164V23.9211V23.9259V23.9306V23.9353V23.9401V23.9448V23.9495V23.9542V23.9589V23.9636V23.9683V23.973V23.9777V23.9824V23.9871V23.9917V23.9964V24.001V24.0057V24.0103V24.0149V24.0195V24.0242V24.0288V24.0334V24.0379V24.0425V24.0471V24.0517V24.0562V24.0608V24.0653V24.0699V24.0744V24.0789V24.0834V24.0879V24.0924V24.0969V24.1014V24.1058V24.1103V24.1147V24.1192V24.1236V24.128V24.1325V24.1369V24.1413V24.1456V24.15V24.1544V24.1588V24.1631V24.1674V24.1718V24.1761V24.1804V24.1847V24.189V24.1933V24.1975V24.2018V24.2061V24.2103V24.2145V24.2187V24.223V24.2271V24.2313V24.2355V24.2397V24.2438V24.248V24.2521V24.2562V24.2603V24.2644V24.2685V24.2726V24.2767V24.2807V24.2848V24.2888V24.2928V24.2968V24.3008V24.3048V24.3088V24.3127V24.3167V24.3206V24.3245V24.3284V24.3323V24.3362V24.3401V24.3439V24.3478V24.3516V24.3554V24.3592V24.363V24.3668V24.3706V24.3743V24.3781V24.3818V24.3855V24.3892V24.3929V24.3966V24.4002V24.4039V24.4075V24.4111V24.4147V24.4183V24.4219V24.4254V24.429V24.4325V24.436V24.4395V24.443V24.4465V24.4499V24.4534V24.4568V24.4602V24.4636V24.467V24.4704V24.4737V24.4771V24.4804V24.4837V24.487V24.4902V24.4935V24.4967V24.5V25.4H23.3934V24.5V24.4967V24.4935V24.4902V24.487V24.4837V24.4804V24.4771V24.4737V24.4704V24.467V24.4636V24.4602V24.4568V24.4534V24.4499V24.4465V24.443V24.4395V24.436V24.4325V24.429V24.4254V24.4219V24.4183V24.4147V24.4111V24.4075V24.4039V24.4002V24.3966V24.3929V24.3892V24.3855V24.3818V24.3781V24.3743V24.3706V24.3668V24.363V24.3592V24.3554V24.3516V24.3478V24.3439V24.3401V24.3362V24.3323V24.3284V24.3245V24.3206V24.3167V24.3127V24.3088V24.3048V24.3008V24.2968V24.2928V24.2888V24.2848V24.2807V24.2767V24.2726V24.2685V24.2644V24.2603V24.2562V24.2521V24.248V24.2438V24.2397V24.2355V24.2313V24.2271V24.223V24.2187V24.2145V24.2103V24.2061V24.2018V24.1975V24.1933V24.189V24.1847V24.1804V24.1761V24.1718V24.1674V24.1631V24.1588V24.1544V24.15V24.1456V24.1413V24.1369V24.1325V24.128V24.1236V24.1192V24.1147V24.1103V24.1058V24.1014V24.0969V24.0924V24.0879V24.0834V24.0789V24.0744V24.0699V24.0653V24.0608V24.0562V24.0517V24.0471V24.0425V24.0379V24.0334V24.0288V24.0242V24.0195V24.0149V24.0103V24.0057V24.001V23.9964V23.9917V23.9871V23.9824V23.9777V23.973V23.9683V23.9636V23.9589V23.9542V23.9495V23.9448V23.9401V23.9353V23.9306V23.9259V23.9211V23.9164V23.9116V23.9068V23.9021V23.8973V23.8925V23.8877V23.8829V23.8781V23.8733V23.8685V23.8637V23.8589V23.854V23.8492V23.8444V23.8395V23.8347V23.8298V23.825V23.8201V23.8153V23.8104V23.8055V23.8007V23.7958V23.7909V23.786V23.7811V23.7762V23.7713V23.7664V23.7615V23.7566V23.7517V23.7468V23.7419V23.737V23.732V23.7271V23.7222V23.7173V23.7123V23.7074V23.7024V23.6975V23.6926V23.6876V23.6827V23.6777V23.6728V23.6678V23.6628V23.6579V23.6529V23.648V23.643V23.638V23.6331V23.6281V23.6231V23.6181V23.6132V23.6082V23.6032V23.5982V23.5933V23.5883V23.5833V23.5783V23.5733V23.5683V23.5634V23.5584V23.5534V23.5484V23.5434V23.5384V23.5335V23.5285V23.5235V23.5185V23.5135V23.5085V23.5035V23.4986V23.4936V23.4886V23.4836V23.4786V23.4736V23.4687V23.4637V23.4587V23.4537V23.4487V23.4438V23.4388V23.4338V23.4288V23.4239V23.4189V23.4139V23.409V23.404V23.399V23.3941V23.3891V23.3842V23.3792V23.3743V23.3693V23.3644V23.3594V23.3545V23.3495V23.3446V23.3397V23.3347V23.3298V23.3249V23.32V23.315V23.3101V23.3052V23.3003V23.2954V23.2905V23.2856V23.2807V23.2758V23.2709V23.266V23.2611V23.2562V23.2514V23.2465V23.2416V23.2368V23.2319V23.227V23.2222V23.2174V23.2125V23.2077V23.2028V23.198V23.1932V23.1884V23.1836V23.1788V23.174V23.1692V23.1644V23.1596V23.1548V23.15V23.1453V23.1405V23.1357V23.131V23.1262V23.1215V23.1168V23.112V23.1073V23.1026V23.0979V23.0932V23.0885V23.0838V23.0791V23.0744V23.0698V23.0651V23.0604V23.0558V23.0511V23.0465V23.0419V23.0372V23.0326V23.028V23.0234V23.0188V23.0142V23.0097V23.0051V23.0005V22.996V22.9914V22.9869V22.9824V22.9778V22.9733V22.9688V22.9643V22.9598V22.9554V22.9509V22.9464V22.942V22.9375V22.9331V22.9287V22.9242V22.9198V22.9154V22.911V22.9067V22.9023V22.8979V22.8936V22.8892V22.8849V22.8806V22.8763V22.872V22.8677V22.8634V22.8591V22.8548V22.8506V22.8463V22.8421V22.8379V22.8337V22.8295V22.8253V22.8211V22.8169V22.8128V22.8086V22.8045V22.8004V22.7962V22.7921V22.788V22.784V22.7799V22.7758V22.7718V22.7678V22.7637V22.7597V22.7557V22.7517V22.7478V22.7438V22.7399V22.7359V22.732V22.7281V22.7242V22.7203V22.7164V22.7125V22.7087V22.7049V22.701V22.6972V22.6934V22.6896V22.6859V22.6821V22.6784V22.6746V22.6709V22.6672V22.6635V22.6598V22.6562V22.6525V22.6489V22.6453V22.6417V22.6381V22.6345V22.6309V22.6274V22.6238V22.6203V22.6168V22.6133V22.6098V22.6064V22.6029V22.5995V22.5961V22.5927V22.5893V22.5859V22.5826V22.5792V22.5759V22.5726V22.5693V22.566V22.5627V22.5595V22.5563V22.553V22.5498V22.5466V22.5435V22.5403V22.5372V22.5341V22.531V22.5279V22.5248V22.5218V22.5187V22.5157V22.5127V22.5097V22.5068V22.5038V22.5009V22.4979V22.495V22.4922V22.4893V22.4865V22.4836V22.4808V22.478V22.4752V22.4725V22.4697V22.467V22.4643V22.4616V22.459V22.4563V22.4537V22.4511V22.4485V22.4459V22.4433V22.4408V22.4383V22.4358V22.4333V22.4308V22.4284V22.426V22.4236V22.4212V22.4188V22.4165V22.4141V22.4118V22.4095V22.4073V22.405V22.4028V22.4006V22.3984V22.3962V22.3941V22.392V22.3899V22.3878V22.3857V22.3837V22.3816V22.3796V22.3777V22.3757V22.3738C23.3934 21.9466 23.6412 21.6386 23.7438 21.5192C23.88 21.3609 24.0395 21.2258 24.167 21.127C24.3 21.0239 24.429 20.9367 24.5223 20.8764C24.5697 20.8457 24.6097 20.8209 24.6388 20.8032L24.6463 20.7987C25.228 20.3744 26.4497 19.4428 27.0674 18.8441C27.6179 18.3107 27.6438 17.5837 27.6438 17.019C27.6438 15.2677 26.1707 13.8 24.2934 13.8ZM23.3984 27.6H25.1984V29.4H23.3984V27.6Z" fill="black"/>
</g>
</svg>
