<svg width="60" height="60" viewBox="0 0 60 60" fill="none" xmlns="http://www.w3.org/2000/svg">
<circle cx="30" cy="30" r="27.5" fill="black" fill-opacity="0.7"/>
<circle cx="30" cy="30.0005" r="26.75" stroke="white" stroke-width="1.5"/>
<path fill-rule="evenodd" clip-rule="evenodd" d="M16.25 29.4858C16.25 30.5617 16.5424 31.6174 17.0958 32.5401C17.266 32.8242 17.4922 33.0695 17.7628 33.2602C18.0334 33.451 18.341 33.5831 18.6657 33.6479L21.345 34.1844C21.5042 34.2164 21.6477 34.3018 21.7517 34.4265L25.0292 38.3576C26.8998 40.6033 27.8367 41.7253 28.6707 41.4246C29.5063 41.1208 29.5063 39.6601 29.5063 36.7371V22.2376C29.5063 19.313 29.5063 17.8507 28.6691 17.5485C27.8351 17.2462 26.8982 18.3682 25.0276 20.6155L21.7549 24.545C21.6505 24.67 21.5064 24.7555 21.3466 24.7871L18.6673 25.3236C18.3426 25.3885 18.035 25.5205 17.7644 25.7113C17.4937 25.9021 17.266 26.1474 17.0958 26.4314C16.5424 27.3541 16.25 28.4098 16.25 29.4858ZM40.4538 20.1203C40.226 19.8925 39.8566 19.8926 39.6288 20.1204C39.401 20.3482 39.4011 20.7175 39.6289 20.9453C41.8825 23.1987 43.1542 26.2516 43.1666 29.4385C43.179 32.6255 41.9313 35.6881 39.6953 37.9591C39.4693 38.1886 39.4721 38.558 39.7017 38.784C39.9313 39.01 40.3006 39.0072 40.5266 38.7776C42.9786 36.2873 44.3469 32.9288 44.3333 29.434C44.3196 25.9392 42.9252 22.5914 40.4538 20.1203ZM33.9321 23.477C33.7043 23.2492 33.3349 23.2492 33.1071 23.477C32.8793 23.7048 32.8793 24.0741 33.1071 24.3019C34.4748 25.6696 35.2465 27.5225 35.2539 29.4567C35.2613 31.3909 34.5039 33.2496 33.1467 34.6277C32.9206 34.8573 32.9235 35.2266 33.153 35.4527C33.3825 35.6787 33.7519 35.6759 33.9779 35.4464C35.5512 33.8489 36.4292 31.6943 36.4206 29.4522C36.412 27.2101 35.5175 25.0623 33.9321 23.477Z" fill="white"/>
</svg>
