<svg width="48" height="48" viewBox="0 0 48 48" fill="none" xmlns="http://www.w3.org/2000/svg">
<path fill-rule="evenodd" clip-rule="evenodd" d="M22.0015 4.72852C11.3995 4.72852 2.73047 13.3976 2.73047 23.9995C2.73047 34.6015 11.3995 43.2705 22.0015 43.2705C32.6034 43.2705 41.2725 34.6015 41.2725 23.9995V22.7285H38.7305V23.9995C38.7305 33.1976 31.1995 40.7285 22.0015 40.7285C12.8034 40.7285 5.27247 33.1976 5.27247 23.9995C5.27247 14.8015 12.8034 7.27052 22.0015 7.27052L23.2725 7.27052V4.72852H22.0015ZM21.0017 28.2705H29.0015C29.7034 28.2705 30.2725 27.7015 30.2725 26.9995C30.2725 26.2976 29.7034 25.7285 29.0015 25.7285H22.2727L22.2727 14.9996C22.2727 14.2976 21.7036 13.7286 21.0017 13.7286C20.2997 13.7286 19.7307 14.2976 19.7307 14.9996L19.7307 26.9995C19.7307 27.3366 19.8646 27.6599 20.1029 27.8982C20.3413 28.1366 20.6646 28.2705 21.0017 28.2705Z" fill="#1D1D1B"/>
<circle cx="41" cy="7" r="4" fill="#EA1917"/>
</svg>
