<svg width="36" height="35" viewBox="0 0 36 35" fill="none" xmlns="http://www.w3.org/2000/svg">
<path d="M17.5245 0.463525C17.6741 0.00286961 18.3259 0.00287008 18.4755 0.463525L22.378 12.4742C22.445 12.6802 22.6369 12.8197 22.8536 12.8197H35.4823C35.9667 12.8197 36.168 13.4395 35.7762 13.7242L25.5593 21.1472C25.3841 21.2745 25.3107 21.5002 25.3777 21.7062L29.2802 33.7168C29.4299 34.1775 28.9026 34.5605 28.5108 34.2758L18.2939 26.8528C18.1186 26.7255 17.8814 26.7255 17.7061 26.8528L7.48924 34.2758C7.09739 34.5605 6.57015 34.1775 6.71982 33.7168L10.6223 21.7062C10.6893 21.5002 10.6159 21.2745 10.4407 21.1472L0.22382 13.7242C-0.168037 13.4395 0.0333505 12.8197 0.517712 12.8197H13.1464C13.3631 12.8197 13.555 12.6802 13.622 12.4742L17.5245 0.463525Z" fill="#EA1917"/>
</svg>
