<svg width="24" height="24" viewBox="0 0 24 24" fill="none" xmlns="http://www.w3.org/2000/svg">
<path fill-rule="evenodd" clip-rule="evenodd" d="M3 7.5C3 7.22386 3.22386 7 3.5 7H16V7.14444C16 7.47582 16.2686 7.74444 16.6 7.74444C16.9314 7.74444 17.2 7.47582 17.2 7.14444V7H20.5C20.7761 7 21 7.22386 21 7.5V9.05001C19.8589 9.28164 19 10.2905 19 11.5C19 12.7095 19.8589 13.7184 21 13.95V15.5C21 15.7761 20.7761 16 20.5 16H17.2V15.8556C17.2 15.5242 16.9314 15.2556 16.6 15.2556C16.2686 15.2556 16 15.5242 16 15.8556V16H3.5C3.22386 16 3 15.7761 3 15.5V7.5ZM16.6 17H3.5C2.67157 17 2 16.3284 2 15.5V7.5C2 6.67157 2.67157 6 3.5 6H16.6H20.5C21.3284 6 22 6.67157 22 7.5V9.05021V10.0854C21.8436 10.0301 21.6753 10 21.5 10C21.3247 10 21.1564 10.0301 21 10.0854C20.4174 10.2913 20 10.8469 20 11.5C20 12.1531 20.4174 12.7087 21 12.9146C21.1564 12.9699 21.3247 13 21.5 13C21.6753 13 21.8436 12.9699 22 12.9146V13.9498V15.5C22 16.3284 21.3284 17 20.5 17H16.6ZM16.6 8.72222C16.9314 8.72222 17.2 8.99085 17.2 9.32222V10.4111C17.2 10.7425 16.9314 11.0111 16.6 11.0111C16.2686 11.0111 16 10.7425 16 10.4111V9.32222C16 8.99085 16.2686 8.72222 16.6 8.72222ZM16.6 11.9889C16.9314 11.9889 17.2 12.2575 17.2 12.5889V13.6778C17.2 14.0091 16.9314 14.2778 16.6 14.2778C16.2686 14.2778 16 14.0091 16 13.6778V12.5889C16 12.2575 16.2686 11.9889 16.6 11.9889ZM7.6 10C7.82091 10 8 9.82091 8 9.6C8 9.37909 7.82091 9.2 7.6 9.2C7.37909 9.2 7.2 9.37909 7.2 9.6C7.2 9.82091 7.37909 10 7.6 10ZM7.6 11.2C8.48366 11.2 9.2 10.4837 9.2 9.6C9.2 8.71634 8.48366 8 7.6 8C6.71634 8 6 8.71634 6 9.6C6 10.4837 6.71634 11.2 7.6 11.2ZM12 13.6C12 13.8209 11.8209 14 11.6 14C11.3791 14 11.2 13.8209 11.2 13.6C11.2 13.3791 11.3791 13.2 11.6 13.2C11.8209 13.2 12 13.3791 12 13.6ZM13.2 13.6C13.2 14.4837 12.4837 15.2 11.6 15.2C10.7163 15.2 10 14.4837 10 13.6C10 12.7163 10.7163 12 11.6 12C12.4837 12 13.2 12.7163 13.2 13.6ZM12.4243 8.57574C12.6586 8.81005 12.6586 9.18995 12.4243 9.42426L7.42426 14.4243C7.18995 14.6586 6.81005 14.6586 6.57574 14.4243C6.34142 14.1899 6.34142 13.8101 6.57574 13.5757L11.5757 8.57574C11.8101 8.34142 12.1899 8.34142 12.4243 8.57574Z" fill="#EA1917"/>
</svg>
