<svg width="75" height="45" viewBox="0 0 75 45" fill="none" xmlns="http://www.w3.org/2000/svg">
<g clip-path="url(#clip0_5520_345174)">
<path d="M20 0H59.5V45H20L-3.8147e-06 22.6731L20 0Z" fill="#FFF200"/>
<path d="M59.5 0H75V45H59.5V0Z" fill="white"/>
<path d="M0.166664 22.3269L19.5 0.173077C19.5 0.173077 19.6667 0 19.8333 0H74.5C74.6667 0 75 0.173077 75 0.519231V44.4808C75 44.6539 74.8333 45 74.5 45H19.8333C19.6667 45 19.6667 45 19.5 44.8269L0.166664 23.0192C0 22.6731 0 22.5 0.166664 22.3269ZM74 1.03846H60V44.1346H74V1.03846ZM20.1667 44.1346H59V1.03846H20.1667L1.16667 22.6731L20.1667 44.1346Z" fill="black"/>
<path d="M43.9288 26.9088C43.649 28.1299 43.1339 29.2734 42.4175 30.265C41.7486 31.1613 40.8792 31.8582 39.8918 32.2901C38.701 32.7708 37.4357 32.9987 36.1653 32.9612H33.3703V11.9174H36.0928C37.4615 11.8613 38.825 12.1286 40.0883 12.7005C41.0711 13.1883 41.9279 13.9297 42.5831 14.8597C43.2499 15.8276 43.7289 16.9311 43.991 18.1041C44.3067 19.4499 44.4665 20.8328 44.4671 22.2212C44.4788 23.8025 44.2978 25.3785 43.9288 26.9088ZM49.1048 15.531C48.5812 13.7787 47.7046 12.1738 46.5376 10.8322C45.3809 9.54425 43.9635 8.56387 42.3969 7.96819C40.4616 7.27623 38.4306 6.95078 36.393 7.00602H29.6125C29.1903 6.99342 28.7807 7.16242 28.4739 7.47588C28.1293 7.89088 27.9605 8.44223 28.0078 8.99739V36.0042C27.9605 36.5593 28.1293 37.1107 28.4739 37.5258C28.7807 37.8391 29.1903 38.0082 29.6125 37.9955H35.9269C37.9797 38.0413 40.0267 37.7391 41.993 37.1008C43.6215 36.5494 45.1048 35.5869 46.3202 34.2925C47.578 32.8795 48.5107 31.1662 49.0424 29.2917C49.7239 26.936 50.0453 24.476 49.9949 22.0085C50.0307 19.8119 49.7333 17.6238 49.1152 15.5309L49.1048 15.531Z" fill="white" stroke="black" stroke-miterlimit="10" stroke-linecap="round" stroke-linejoin="round"/>
<path d="M66.8327 27.5193C67.3327 27.5193 67.666 27.1731 67.666 26.6539V20.4231L68.8327 21.4616C68.9993 21.6346 69.166 21.6346 69.3327 21.6346C69.4993 21.6346 69.8327 21.4616 69.8327 21.4616C70.166 21.1154 70.166 20.5962 69.8327 20.25L67.3327 17.6539C66.9993 17.3077 66.4993 17.3077 66.166 17.6539L63.666 20.25C63.3327 20.5962 63.3327 21.1154 63.666 21.4616C63.9993 21.8077 64.4993 21.8077 64.8327 21.4616L65.9993 20.4231V26.6539C65.8327 27.1731 65.9993 27.5193 66.8327 27.5193Z" fill="black"/>
<path d="M68.3327 13.6731H65.3327L64.8327 15.4039H63.166L65.8327 6.9231H67.4993L70.3327 15.4039H68.666C68.9993 15.4039 68.3327 13.6731 68.3327 13.6731ZM67.8327 12.2885L66.8327 8.48079L65.666 12.2885H67.8327Z" fill="#231C1E"/>
<path d="M70.1654 33.0577V37.3846C69.832 37.5577 69.4987 37.7308 68.9987 37.9039C68.4987 38.0769 67.832 38.0769 67.6654 38.0769C66.4987 38.0769 65.4987 37.7308 64.832 36.8654C64.1654 36 63.832 34.9616 63.832 33.5769C63.832 32.1923 64.1654 30.9808 64.832 30.2885C65.4987 29.5962 66.4987 29.0769 67.6654 29.0769C68.1654 29.0769 68.6654 29.0769 68.9987 29.25C69.4987 29.4231 69.832 29.5962 69.9987 29.7692L69.4987 31.1539C68.832 30.8077 68.1654 30.6346 67.4987 30.6346C65.9987 30.6346 65.332 31.6731 65.332 33.5769C65.332 35.4808 65.9987 36.6923 67.6654 36.6923C67.9987 36.6923 68.332 36.6923 68.6654 36.5192V34.4423H67.1654V33.0577H70.1654Z" fill="black"/>
</g>
<defs>
<clipPath id="clip0_5520_345174">
<rect width="75" height="45" fill="white"/>
</clipPath>
</defs>
</svg>
