<svg width="24" height="24" viewBox="0 0 24 24" fill="none" xmlns="http://www.w3.org/2000/svg">
<path fill-rule="evenodd" clip-rule="evenodd" d="M2 4.75098C2 4.33676 2.33579 4.00098 2.75 4.00098H21.249C21.6632 4.00098 21.999 4.33676 21.999 4.75098C21.999 5.16519 21.6632 5.50098 21.249 5.50098H2.75C2.33579 5.50098 2 5.16519 2 4.75098ZM5.37231 12.0008C5.37231 11.5866 5.7081 11.2508 6.12231 11.2508H21.1527C21.5669 11.2508 21.9027 11.5866 21.9027 12.0008C21.9027 12.415 21.5669 12.7508 21.1527 12.7508H6.12231C5.7081 12.7508 5.37231 12.415 5.37231 12.0008ZM2.75 18.501C2.33579 18.501 2 18.8368 2 19.251C2 19.6652 2.33579 20.001 2.75 20.001H21.249C21.6632 20.001 21.999 19.6652 21.999 19.251C21.999 18.8368 21.6632 18.501 21.249 18.501H2.75Z" fill="black"/>
</svg>
