<svg width="16" height="16" viewBox="0 0 16 16" fill="none" xmlns="http://www.w3.org/2000/svg">
<g clip-path="url(#clip0_1396_110461)">
<path d="M13.7743 12.9183C7.2975 16.0007 3.27795 13.4217 0.704904 11.8554C0.545685 11.7566 0.275068 11.8784 0.509865 12.1481C1.36707 13.1875 4.17633 15.6927 7.84323 15.6927C11.5126 15.6927 13.6956 13.6905 13.9687 13.3412C14.2399 12.9949 14.0483 12.8039 13.7742 12.9183H13.7743ZM15.5933 11.9138C15.4193 11.6873 14.5357 11.645 13.9795 11.7134C13.4225 11.7797 12.5865 12.1201 12.6592 12.3245C12.6965 12.4011 12.7726 12.3667 13.1552 12.3323C13.5389 12.294 14.6138 12.1584 14.8377 12.4512C15.0627 12.746 14.4949 14.1503 14.3912 14.3768C14.291 14.6033 14.4295 14.6617 14.6177 14.5109C14.8033 14.3601 15.1394 13.9696 15.3649 13.4169C15.5888 12.8613 15.7254 12.0862 15.5932 11.9138H15.5933Z" fill="#FF9900"/>
<path fill-rule="evenodd" clip-rule="evenodd" d="M9.41782 6.62799C9.41782 7.43676 9.43826 8.11124 9.02947 8.82948C8.69952 9.41349 8.17687 9.77261 7.59293 9.77261C6.79579 9.77261 6.33155 9.16528 6.33155 8.26892C6.33155 6.49948 7.91697 6.17834 9.41782 6.17834V6.62799ZM11.5113 11.688C11.3741 11.8106 11.1755 11.8194 11.0208 11.7376C10.3317 11.1654 10.2091 10.8997 9.8295 10.3537C8.69078 11.5158 7.8849 11.8632 6.40749 11.8632C4.66144 11.8632 3.30078 10.7858 3.30078 8.62804C3.30078 6.94335 4.21474 5.79583 5.51397 5.23527C6.64106 4.73884 8.21485 4.65126 9.41782 4.51408V4.24543C9.41782 3.75195 9.45574 3.16801 9.16672 2.74174C8.91265 2.35924 8.42798 2.20155 8.00165 2.20155C7.21042 2.20155 6.50381 2.60739 6.33155 3.44829C6.29646 3.6352 6.15928 3.81916 5.97242 3.8279L3.95772 3.61188C3.78841 3.57384 3.60156 3.43666 3.64827 3.17675C4.11251 0.735842 6.3169 0 8.29067 0C9.30095 0 10.6207 0.268647 11.4178 1.03366C12.4281 1.97673 12.3317 3.23515 12.3317 4.60455V7.8397C12.3317 8.812 12.7347 9.23827 13.1142 9.76387C13.2485 9.95072 13.2777 10.1756 13.1084 10.3157C12.685 10.669 11.9317 11.326 11.5171 11.6939L11.5112 11.688" fill="black"/>
<path d="M13.7743 12.9183C7.2975 16.0007 3.27795 13.4217 0.704904 11.8554C0.545685 11.7566 0.275068 11.8784 0.509865 12.1481C1.36707 13.1875 4.17633 15.6927 7.84323 15.6927C11.5126 15.6927 13.6956 13.6905 13.9687 13.3412C14.2399 12.9949 14.0483 12.8039 13.7742 12.9183H13.7743ZM15.5933 11.9138C15.4193 11.6873 14.5357 11.645 13.9795 11.7134C13.4225 11.7797 12.5865 12.1201 12.6592 12.3245C12.6965 12.4011 12.7726 12.3667 13.1552 12.3323C13.5389 12.294 14.6138 12.1584 14.8377 12.4512C15.0627 12.746 14.4949 14.1503 14.3912 14.3768C14.291 14.6033 14.4295 14.6617 14.6177 14.5109C14.8033 14.3601 15.1394 13.9696 15.3649 13.4169C15.5888 12.8613 15.7254 12.0862 15.5932 11.9138H15.5933Z" fill="#FF9900"/>
<path fill-rule="evenodd" clip-rule="evenodd" d="M9.41782 6.62799C9.41782 7.43676 9.43826 8.11124 9.02947 8.82948C8.69952 9.41349 8.17687 9.77261 7.59293 9.77261C6.79579 9.77261 6.33155 9.16528 6.33155 8.26892C6.33155 6.49948 7.91697 6.17834 9.41782 6.17834V6.62799ZM11.5113 11.688C11.3741 11.8106 11.1755 11.8194 11.0208 11.7376C10.3317 11.1654 10.2091 10.8997 9.8295 10.3537C8.69078 11.5158 7.8849 11.8632 6.40749 11.8632C4.66144 11.8632 3.30078 10.7858 3.30078 8.62804C3.30078 6.94335 4.21474 5.79583 5.51397 5.23527C6.64106 4.73884 8.21485 4.65126 9.41782 4.51408V4.24543C9.41782 3.75195 9.45574 3.16801 9.16672 2.74174C8.91265 2.35924 8.42798 2.20155 8.00165 2.20155C7.21042 2.20155 6.50381 2.60739 6.33155 3.44829C6.29646 3.6352 6.15928 3.81916 5.97242 3.8279L3.95772 3.61188C3.78841 3.57384 3.60156 3.43666 3.64827 3.17675C4.11251 0.735842 6.3169 0 8.29067 0C9.30095 0 10.6207 0.268647 11.4178 1.03366C12.4281 1.97673 12.3317 3.23515 12.3317 4.60455V7.8397C12.3317 8.812 12.7347 9.23827 13.1142 9.76387C13.2485 9.95072 13.2777 10.1756 13.1084 10.3157C12.685 10.669 11.9317 11.326 11.5171 11.6939L11.5112 11.688" fill="black"/>
</g>
<defs>
<clipPath id="clip0_1396_110461">
<rect width="16" height="16" fill="white"/>
</clipPath>
</defs>
</svg>
