<svg width="68" height="20" viewBox="0 0 68 20" fill="none" xmlns="http://www.w3.org/2000/svg">
<g clip-path="url(#clip0_1861_408007)">
<path fill-rule="evenodd" clip-rule="evenodd" d="M33.4796 7.12539C32.9048 7.12539 32.4405 7.58972 32.4405 8.1425V15.8154C32.4405 16.3903 32.9048 16.8547 33.4796 16.8547C34.0544 16.8547 34.5187 16.3903 34.5187 15.8154V8.1425C34.5187 7.58972 34.0544 7.12539 33.4796 7.12539ZM33.4795 3.30005C32.8384 3.30005 32.3078 3.83074 32.3078 4.47199C32.3078 5.11324 32.8384 5.66606 33.4795 5.66606C34.1207 5.66606 34.6513 5.13536 34.6513 4.47199C34.6513 3.83074 34.1207 3.30005 33.4795 3.30005ZM43.6054 8.14256C43.6054 7.50128 43.0969 7.25806 42.6327 7.25806H37.4813C36.9728 7.25806 36.5748 7.65606 36.5748 8.14256C36.5748 8.65111 36.9728 9.04917 37.4813 9.04917H40.8639L36.4864 15.1521C36.3537 15.329 36.2874 15.5722 36.2874 15.7712C36.2874 16.4125 36.7959 16.7663 37.2381 16.7663H42.699C43.2075 16.7663 43.6054 16.3683 43.6054 15.8597C43.6054 15.3511 43.2075 14.9531 42.699 14.9531H39.0289L43.318 8.98278C43.5391 8.67322 43.6054 8.40789 43.6054 8.14256ZM28.4388 12.9631C28.4388 14.2234 27.886 14.9974 26.6258 14.9974C25.3657 14.9974 24.835 14.2234 24.835 12.9631V9.04917H26.7143C28.2398 9.04917 28.4388 9.88945 28.4388 10.8182V12.9631ZM30.517 10.7739C30.517 8.62906 29.3894 7.236 26.7585 7.236H24.8572V4.33932C24.8572 3.76441 24.3929 3.30005 23.8402 3.30005C23.2653 3.30005 22.801 3.76441 22.801 4.33932V12.9631C22.801 15.1079 23.9507 16.8548 26.67 16.8548C29.3673 16.8548 30.5391 15.0858 30.5391 12.9631V10.7739H30.517ZM51.7193 7.12539C51.1445 7.12539 50.6802 7.58972 50.6802 8.16461V12.963C50.6802 14.2234 50.1275 14.9973 48.8673 14.9973C47.6071 14.9973 47.0765 14.2234 47.0765 12.963V8.16461C47.0765 7.58972 46.6122 7.12539 46.0595 7.12539C45.4847 7.12539 45.0204 7.58972 45.0204 8.16461V12.963C45.0204 15.1078 46.17 16.8547 48.8894 16.8547C51.5867 16.8547 52.7584 15.0857 52.7584 12.963V8.16461C52.7364 7.58972 52.272 7.12539 51.7193 7.12539ZM67.4827 11.0393C67.4827 8.89444 66.4882 7.14756 63.791 7.14756C62.5749 7.14756 61.7127 7.50139 61.1154 8.09839C60.5188 7.5235 59.6565 7.14756 58.4404 7.14756C55.7431 7.14756 54.7482 8.91656 54.7482 11.0393V15.8377C54.7482 16.4126 55.2125 16.8769 55.7652 16.8769C56.3399 16.8769 56.8043 16.4126 56.8043 15.8377V11.0393C56.8043 9.77894 57.2021 9.005 58.4404 9.005C59.7004 9.005 60.0765 9.77894 60.0765 11.0393V15.8377C60.0765 16.4126 60.541 16.8769 61.0932 16.8769C61.6682 16.8769 62.1327 16.4126 62.1327 15.8377V11.0393C62.1327 9.77894 62.5304 9.005 63.7688 9.005C65.0288 9.005 65.4049 9.77894 65.4049 11.0393V15.8377C65.4049 16.4126 65.8688 16.8769 66.4215 16.8769C66.9965 16.8769 67.461 16.4126 67.461 15.8377L67.4827 11.0393ZM3.89803 7.1475C4.62762 7.67822 5.64462 7.52344 6.17521 6.79372L8.0766 4.16237C8.60721 3.43267 8.45243 2.41552 7.72288 1.88482C6.99327 1.35413 5.97627 1.50892 5.44564 2.23862L3.52218 4.86996C3.01368 5.59967 3.16844 6.61683 3.89803 7.1475ZM12.6089 3.43267C11.8793 2.90198 10.8623 3.05677 10.3317 3.78647L2.68202 14.3118C2.15141 15.0416 2.30617 16.0587 3.03576 16.5894C3.76535 17.1201 4.78235 16.9653 5.31296 16.2356L12.9626 5.71022C13.5153 4.98053 13.3384 3.96337 12.6089 3.43267ZM3.16843 2.59243C3.69905 1.86273 3.54428 0.845567 2.81469 0.314877C2.0851 -0.215815 1.06809 -0.0610297 0.537485 0.668672C0.00687422 1.39837 0.161636 2.41553 0.891228 2.94622C1.62082 3.47692 2.63782 3.32213 3.16843 2.59243ZM14.7755 17.0538C14.046 16.5231 13.029 16.6779 12.4984 17.4076C11.9678 18.1373 12.1225 19.1544 12.8521 19.6851C13.5817 20.2158 14.5987 20.061 15.1293 19.3313C15.6599 18.6016 15.5052 17.5844 14.7755 17.0538ZM11.7909 12.8746C11.0613 12.3439 10.0443 12.4987 9.51371 13.2284L7.59021 15.8597C7.0596 16.5894 7.21438 17.6066 7.94393 18.1373C8.67354 18.6679 9.69055 18.5132 10.2212 17.7834L12.1447 15.1521C12.6753 14.4224 12.5205 13.4053 11.7909 12.8746Z" fill="#05C0C7"/>
</g>
<defs>
<clipPath id="clip0_1861_408007">
<rect width="67.7778" height="20" fill="white" transform="translate(0.222656)"/>
</clipPath>
</defs>
</svg>
