<svg width="32" height="32" viewBox="0 0 32 32" fill="none" xmlns="http://www.w3.org/2000/svg">
<rect x="16" y="1.09375" width="15" height="30" stroke="white" stroke-width="1.5"/>
<rect x="1" y="10.1992" width="15" height="20.8929" stroke="white" stroke-width="1.5"/>
<rect x="21.3594" y="25.1992" width="4.28571" height="5.89286" stroke="white" stroke-width="1.5"/>
<path d="M18.6797 4.30859L28.3225 4.30859" stroke="white" stroke-width="1.5"/>
<path d="M18.6797 7.52344L28.3225 7.52344" stroke="white" stroke-width="1.5"/>
<path d="M18.6797 10.7383L28.3225 10.7383" stroke="white" stroke-width="1.5"/>
<path d="M18.6797 13.9492L28.3225 13.9492" stroke="white" stroke-width="1.5"/>
<path d="M18.6797 17.1641L28.3225 17.1641" stroke="white" stroke-width="1.5"/>
<path d="M18.6797 20.3789L28.3225 20.3789" stroke="white" stroke-width="1.5"/>
<path d="M7.42522 13.4141H4.21094V16.6283" stroke="white" stroke-width="1.5"/>
<path d="M7.42522 19.3086H4.21094V22.5229" stroke="white" stroke-width="1.5"/>
<path d="M7.42522 25.2031H4.21094V28.4174" stroke="white" stroke-width="1.5"/>
<path d="M13.3237 13.4141H10.1094V16.6283" stroke="white" stroke-width="1.5"/>
<path d="M13.3237 19.3086H10.1094V22.5229" stroke="white" stroke-width="1.5"/>
<path d="M13.3237 25.1992H10.1094V28.4135" stroke="white" stroke-width="1.5"/>
</svg>
