<svg width="61" height="60" viewBox="0 0 61 60" fill="none" xmlns="http://www.w3.org/2000/svg">
<path fill-rule="evenodd" clip-rule="evenodd" d="M27.1739 35.4595L27.8547 36.0883L28.5333 35.4572L36.2347 28.2955L40.5572 33.83C41.1119 33.452 41.695 33.1126 42.3027 32.8157L37.7048 26.9285L53.5158 12.2254V32.3237C54.2106 32.5903 54.879 32.9104 55.5158 33.279V11V10.3656V9H54.0473H53.5158H2.00002H1.47385H0L0.00678006 10.3675L0.00991573 11L0.127155 34.6472L0.0155402 49.0118L0.0124413 49.4106L0 51.0118H1.28844H2.00006H35.5392C35.2626 50.3685 35.0326 49.7004 34.8536 49.0118H2.91336L19.6042 28.4681L27.1739 35.4595ZM3.63925 11H51.8966L27.85 33.3615L20.1785 26.2759L3.63925 11ZM18.1321 27.1084L2.01601 12.2233L2.12713 34.6373L2.12719 34.65L2.12709 34.6627L2.03181 46.9251L18.1321 27.1084ZM48.4634 55.0001C53.7396 55.0001 58.0167 50.723 58.0167 45.4468C58.0167 40.1707 53.7396 35.8936 48.4634 35.8936C43.1873 35.8936 38.9102 40.1707 38.9102 45.4468C38.9102 50.723 43.1873 55.0001 48.4634 55.0001ZM48.4634 57.0001C54.8441 57.0001 60.0167 51.8275 60.0167 45.4468C60.0167 39.0661 54.8441 33.8936 48.4634 33.8936C42.0827 33.8936 36.9102 39.0661 36.9102 45.4468C36.9102 51.8275 42.0827 57.0001 48.4634 57.0001ZM47.4609 47.044C47.4609 47.4877 47.9085 47.8478 48.4607 47.8478C49.0128 47.8478 49.4604 47.4877 49.4604 47.044V40.4628C49.4604 40.019 49.0128 39.6592 48.4607 39.6592C47.9085 39.6592 47.4609 40.019 47.4609 40.4628V47.044ZM47.4603 50.1606C47.4603 50.7121 47.9079 51.1593 48.4601 51.1593C49.0122 51.1593 49.4598 50.7121 49.4598 50.1606C49.4598 49.609 49.0122 49.1618 48.4601 49.1618C47.9079 49.1618 47.4603 49.609 47.4603 50.1606Z" fill="#666666"/>
</svg>
