<svg width="20" height="20" viewBox="0 0 20 20" fill="none" xmlns="http://www.w3.org/2000/svg">
<path fill-rule="evenodd" clip-rule="evenodd" d="M17.0262 12.9998L17.0262 4C17.0262 2.89543 16.1307 2 15.0262 2H7H5.99492H5V3H7L15.0262 3C15.5785 3 16.0262 3.44771 16.0262 4L16.0262 12.9998H17.0262ZM3.82617 4V3.9998L4.82617 3.9998V4L4.82617 13.2C4.82617 13.7523 5.27389 14.2 5.82617 14.2L14.9949 14.2V15.2L5.82617 15.2C4.7216 15.2 3.82617 14.3046 3.82617 13.2V4Z" fill="black" fill-opacity="0.5"/>
<rect x="15" y="4" width="13" height="13" rx="2" transform="rotate(90 15 4)" fill="white"/>
<rect x="14.5" y="4.5" width="12" height="12" rx="1.5" transform="rotate(90 14.5 4.5)" stroke="black" stroke-opacity="0.5"/>
</svg>
