<svg width="27" height="20" viewBox="0 0 27 20" fill="none" xmlns="http://www.w3.org/2000/svg">
<g clip-path="url(#clip0_857_452528)">
<path d="M25.5984 19.7269V19.7783H25.6458C25.6547 19.7785 25.6635 19.7762 25.6713 19.7718C25.6744 19.7696 25.6769 19.7666 25.6785 19.7632C25.6802 19.7597 25.681 19.7559 25.6808 19.7521C25.681 19.7484 25.6802 19.7446 25.6785 19.7413C25.6768 19.7379 25.6744 19.7351 25.6713 19.733C25.6636 19.7283 25.6548 19.726 25.6458 19.7264H25.5984V19.7269ZM25.6463 19.6906C25.6667 19.6893 25.6868 19.6952 25.7033 19.7073C25.71 19.7127 25.7152 19.7197 25.7187 19.7276C25.7222 19.7355 25.7237 19.7441 25.7233 19.7528C25.7236 19.7602 25.7223 19.7676 25.7196 19.7745C25.7168 19.7814 25.7126 19.7876 25.7073 19.7927C25.6945 19.8039 25.6786 19.8106 25.6617 19.8119L25.7254 19.8851H25.6764L25.6178 19.8124H25.5989V19.8851H25.5579V19.6907H25.647L25.6463 19.6906ZM25.6336 19.9522C25.6551 19.9524 25.6764 19.9481 25.6961 19.9394C25.7151 19.9311 25.7324 19.9193 25.747 19.9045C25.7617 19.8898 25.7734 19.8724 25.7815 19.8531C25.7982 19.8124 25.7982 19.7666 25.7815 19.7259C25.7732 19.7068 25.7615 19.6893 25.747 19.6745C25.7323 19.6597 25.7151 19.6479 25.6961 19.6397C25.6763 19.6315 25.655 19.6274 25.6336 19.6276C25.6118 19.6274 25.5902 19.6315 25.57 19.6397C25.5506 19.6478 25.5329 19.6596 25.5179 19.6745C25.4954 19.6978 25.4802 19.7273 25.4742 19.7593C25.4681 19.7913 25.4715 19.8244 25.484 19.8544C25.4917 19.8737 25.5033 19.8912 25.5179 19.9058C25.5329 19.9207 25.5506 19.9325 25.57 19.9407C25.5901 19.9493 25.6117 19.9537 25.6336 19.9535M25.6336 19.5808C25.6895 19.5807 25.7432 19.6029 25.7831 19.6425C25.8024 19.6615 25.8177 19.6842 25.8282 19.7092C25.839 19.7349 25.8447 19.7625 25.8447 19.7905C25.8447 19.8184 25.839 19.8461 25.8282 19.8718C25.8174 19.8967 25.8021 19.9193 25.7831 19.9385C25.7636 19.9574 25.7409 19.9726 25.7161 19.9835C25.69 19.9946 25.6619 20.0003 25.6336 20.0002C25.6049 20.0004 25.5765 19.9947 25.5501 19.9835C25.525 19.9729 25.5021 19.9576 25.4826 19.9385C25.4635 19.9186 25.4485 19.8952 25.4382 19.8696C25.4273 19.8439 25.4217 19.8162 25.4217 19.7883C25.4217 19.7604 25.4273 19.7327 25.4382 19.707C25.4487 19.682 25.464 19.6593 25.4832 19.6403C25.5025 19.6208 25.5255 19.6055 25.5508 19.5953C25.5772 19.5841 25.6056 19.5784 25.6342 19.5786M6.14919 18.8299C6.14919 18.4591 6.38969 18.1545 6.78276 18.1545C7.1584 18.1545 7.41188 18.446 7.41188 18.8299C7.41188 19.2137 7.1584 19.5052 6.78276 19.5052C6.38969 19.5052 6.14919 19.2006 6.14919 18.8299ZM7.84008 18.8299V17.7747H7.38592V18.0317C7.24188 17.8418 7.02339 17.7226 6.72626 17.7226C6.14092 17.7226 5.68155 18.1863 5.68155 18.8304C5.68155 19.4744 6.14066 19.9381 6.72626 19.9381C7.02326 19.9381 7.24188 19.8188 7.38592 19.629V19.8851H7.83957V18.8299H7.84008ZM23.1853 18.8299C23.1853 18.4591 23.4258 18.1545 23.819 18.1545C24.1951 18.1545 24.4482 18.446 24.4482 18.8299C24.4482 19.2137 24.1951 19.5052 23.819 19.5052C23.426 19.5052 23.1853 19.2006 23.1853 18.8299ZM24.8767 18.8299V16.9277H24.4222V18.0317C24.2781 17.8418 24.0597 17.7226 23.7625 17.7226C23.1772 17.7226 22.7178 18.1863 22.7178 18.8304C22.7178 19.4744 23.1769 19.9381 23.7625 19.9381C24.0597 19.9381 24.2781 19.8188 24.4222 19.629V19.8851H24.8767V18.8299ZM13.4767 18.1328C13.7694 18.1328 13.9573 18.3181 14.0053 18.6444H12.9217C12.9701 18.3398 13.1532 18.1328 13.4768 18.1328M13.4859 17.7215C12.8738 17.7215 12.4456 18.1713 12.4456 18.8292C12.4456 19.5 12.891 19.9369 13.5163 19.9369C13.8308 19.9369 14.1189 19.8576 14.3724 19.6413L14.1499 19.3014C13.9748 19.4428 13.7518 19.5221 13.5422 19.5221C13.2496 19.5221 12.9831 19.3852 12.9176 19.0054H14.4684C14.4728 18.9483 14.4774 18.8908 14.4774 18.8291C14.4728 18.1714 14.0702 17.7214 13.4856 17.7214M18.9688 18.8291C18.9688 18.4583 19.2093 18.1537 19.6024 18.1537C19.978 18.1537 20.2315 18.4452 20.2315 18.8291C20.2315 19.213 19.978 19.5045 19.6024 19.5045C19.2093 19.5045 18.9687 19.1999 18.9687 18.8291M20.6596 18.8291V17.7747H20.2057V18.0317C20.0611 17.8418 19.8431 17.7226 19.546 17.7226C18.9607 17.7226 18.5013 18.1863 18.5013 18.8304C18.5013 19.4744 18.9604 19.9381 19.546 19.9381C19.8431 19.9381 20.0611 19.8188 20.2057 19.629V19.8851H20.6597V18.8299L20.6596 18.8291ZM16.4041 18.8291C16.4041 19.469 16.8451 19.9368 17.5183 19.9368C17.8328 19.9368 18.0424 19.8661 18.2691 19.6853L18.0509 19.3145C17.8804 19.4383 17.7014 19.5045 17.5038 19.5045C17.1412 19.5 16.8747 19.2352 16.8747 18.8291C16.8747 18.423 17.1412 18.1583 17.5038 18.1537C17.7009 18.1537 17.8799 18.2199 18.0509 18.3437L18.2691 17.9729C18.042 17.792 17.8325 17.7214 17.5183 17.7214C16.8451 17.7214 16.4041 18.189 16.4041 18.8291ZM22.2588 17.7214C21.9968 17.7214 21.8262 17.8451 21.7082 18.0304V17.7747H21.2581V19.884H21.7128V18.7016C21.7128 18.3525 21.8613 18.1586 22.1582 18.1586C22.2554 18.1572 22.3519 18.1752 22.4422 18.2117L22.5822 17.7793C22.4816 17.7393 22.3506 17.7217 22.2586 17.7217M10.0854 17.9424C9.8669 17.7969 9.56583 17.7217 9.23371 17.7217C8.70461 17.7217 8.36396 17.9779 8.36396 18.397C8.36396 18.7409 8.61757 18.9531 9.08458 19.0193L9.29912 19.0501C9.54814 19.0855 9.66572 19.1517 9.66572 19.2708C9.66572 19.4339 9.5003 19.527 9.18968 19.527C8.87512 19.527 8.64811 19.4254 8.49503 19.3063L8.28163 19.664C8.53066 19.8493 8.84522 19.9377 9.18587 19.9377C9.78903 19.9377 10.1386 19.6508 10.1386 19.2492C10.1386 18.8784 9.86347 18.6845 9.40893 18.6183L9.1949 18.5869C8.9983 18.5612 8.84077 18.5213 8.84077 18.3799C8.84077 18.2257 8.98927 18.1329 9.23842 18.1329C9.50501 18.1329 9.76307 18.2344 9.88955 18.3137L10.0862 17.9429L10.0854 17.9424ZM15.9454 17.7221C15.6833 17.7221 15.5127 17.8459 15.3953 18.0312V17.7747H14.9452V19.884H15.3993V18.7016C15.3993 18.3525 15.5478 18.1586 15.8447 18.1586C15.9419 18.1572 16.0384 18.1752 16.1287 18.2117L16.2687 17.7793C16.1682 17.7393 16.0371 17.7217 15.9451 17.7217M12.0698 17.7747H11.3272V17.1348H10.8681V17.7747H10.4445V18.1939H10.8681V19.1562C10.8681 19.6456 11.0562 19.9371 11.5934 19.9371C11.7905 19.9371 12.0175 19.8754 12.1616 19.774L12.0304 19.3812C11.8949 19.4605 11.7464 19.5005 11.6283 19.5005C11.4013 19.5005 11.3272 19.3591 11.3272 19.1474V18.1943H12.0698V17.7747ZM5.27995 19.8845V18.5607C5.27995 18.0622 4.96539 17.7268 4.4583 17.7223C4.19171 17.7178 3.91672 17.8016 3.7242 18.0975C3.58015 17.8636 3.35314 17.7223 3.034 17.7223C2.81093 17.7223 2.59295 17.7884 2.42231 18.0355V17.7747H1.96777V19.884H2.42587V18.7144C2.42587 18.3483 2.62693 18.1537 2.93741 18.1537C3.23899 18.1537 3.39157 18.3523 3.39157 18.7098V19.8837H3.85068V18.7142C3.85068 18.348 4.06026 18.1534 4.36172 18.1534C4.67182 18.1534 4.81981 18.352 4.81981 18.7096V19.8835L5.27995 19.8845Z" fill="#231F20"/>
<path d="M25.8572 12.867V12.5586H25.7776L25.6856 12.7703L25.5942 12.5586H25.5144V12.867H25.5709V12.6347L25.6569 12.8352H25.7154L25.8014 12.6342V12.867H25.8574H25.8572ZM25.3526 12.867V12.6114H25.4544V12.5594H25.1943V12.6114H25.2961V12.867H25.3521H25.3526Z" fill="#F79410"/>
<path d="M16.818 14.1915H9.93555V1.69922H16.8181L16.818 14.1915Z" fill="#FF5F00"/>
<path d="M10.3722 7.94482C10.3722 5.41076 11.547 3.15341 13.3763 1.69868C11.9916 0.595894 10.279 -0.00262296 8.51555 8.6411e-06C4.17164 8.6411e-06 0.650391 3.55697 0.650391 7.94482C0.650391 12.3327 4.17164 15.8896 8.51555 15.8896C10.279 15.8923 11.9917 15.2938 13.3765 14.191C11.5473 12.7365 10.3722 10.479 10.3722 7.94482Z" fill="#EB001B"/>
<path d="M26.1027 7.94482C26.1027 12.3327 22.5815 15.8896 18.2375 15.8896C16.4739 15.8922 14.761 15.2937 13.376 14.191C15.2058 12.7362 16.3806 10.479 16.3806 7.94482C16.3806 5.41063 15.2058 3.15341 13.376 1.69868C14.761 0.595927 16.4738 -0.00257683 18.2374 8.33969e-06C22.5813 8.33969e-06 26.1026 3.55697 26.1026 7.94482" fill="#F79E1B"/>
</g>
<defs>
<clipPath id="clip0_857_452528">
<rect width="27" height="20" fill="white"/>
</clipPath>
</defs>
</svg>
