<svg width="32" height="32" viewBox="0 0 32 32" fill="none" xmlns="http://www.w3.org/2000/svg">
<path d="M25.2622 17.782V10.5886L18.6736 4H6.69428C6.4687 4 6.25237 4.0896 6.09286 4.24911C5.93336 4.40861 5.84375 4.62494 5.84375 4.85052V22.7296C5.84375 23.6271 6.20029 24.4879 6.83494 25.1225C7.46959 25.7572 8.33036 26.1137 9.22789 26.1137H20.9787" stroke="black" stroke-width="1.2" stroke-linecap="round" stroke-linejoin="round"/>
<path d="M24.5703 29.012V21.375" stroke="black" stroke-width="1.2" stroke-linecap="round" stroke-linejoin="round"/>
<path d="M27.2657 23.6211L24.5782 20.9258L21.875 23.6211" stroke="black" stroke-width="1.2" stroke-linecap="round" stroke-linejoin="round"/>
<path d="M10.4688 10.8633H14.8352" stroke="black" stroke-width="1.2" stroke-linecap="round" stroke-linejoin="round"/>
<path d="M10.4688 13.7285H14.8352" stroke="black" stroke-width="1.2" stroke-linecap="round" stroke-linejoin="round"/>
<path d="M10.4688 16.584H18.4232" stroke="black" stroke-width="1.2" stroke-linecap="round" stroke-linejoin="round"/>
<path d="M10.4688 19.4414H18.4232" stroke="black" stroke-width="1.2" stroke-linecap="round" stroke-linejoin="round"/>
<path d="M25.2665 10.5886H20.3609C19.9124 10.587 19.4828 10.4077 19.1662 10.09C18.8496 9.77231 18.6719 9.34205 18.6719 8.89352V4" stroke="black" stroke-width="1.2" stroke-linecap="round" stroke-linejoin="round"/>
</svg>
