<svg width="60" height="60" viewBox="0 0 60 60" fill="none" xmlns="http://www.w3.org/2000/svg">
<path fill-rule="evenodd" clip-rule="evenodd" d="M11.25 4.50024C9.18693 4.50024 7.625 6.26254 7.625 8.37524V38.6252C7.625 47.644 14.8384 55.1175 23.8607 55.3753H48.75C50.8131 55.3753 52.375 53.613 52.375 51.5002V22.5002C52.375 21.0067 51.831 19.6158 50.7152 18.6336L37.8518 6.01993C36.8896 5.05855 35.6404 4.50024 34.25 4.50024H11.25ZM11.125 8.37524C11.125 8.25072 11.1723 8.13998 11.2342 8.06259C11.2589 8.03174 11.2816 8.01168 11.2973 8.00024H33.125V20.1252C33.125 23.1347 35.4575 25.6252 38.5 25.6252H49V51.0002H48.875V51.5002C48.875 51.6248 48.8277 51.7355 48.7658 51.8129C48.7411 51.8437 48.7184 51.8638 48.7027 51.8752H24.375C17.0261 51.8752 11.125 45.9741 11.125 38.6252V8.37524ZM36.75 20.1252V9.69874L48.272 21.1044C48.5412 21.3737 48.7173 21.6819 48.8062 22.0002H38.5C37.5604 22.0002 36.75 21.1346 36.75 20.1252Z" fill="#1D1D1B"/>
<path d="M23.8607 55.3753L23.8393 56.1249L23.85 56.1253H23.8607V55.3753ZM50.7152 18.6336L50.1901 19.1691L50.2045 19.1832L50.2196 19.1965L50.7152 18.6336ZM37.8518 6.01993L37.3217 6.55052L37.3267 6.55543L37.8518 6.01993ZM11.2342 8.06259L10.6485 7.59406L10.6485 7.59407L11.2342 8.06259ZM11.2973 8.00024V7.25024H11.0532L10.8558 7.39392L11.2973 8.00024ZM33.125 8.00024H33.875V7.25024H33.125V8.00024ZM49 25.6252H49.75V24.8752H49V25.6252ZM49 51.0002V51.7502H49.75V51.0002H49ZM48.875 51.0002V50.2502H48.125V51.0002H48.875ZM48.7658 51.8129L49.3514 52.2815L49.3515 52.2814L48.7658 51.8129ZM48.7027 51.8752V52.6252H48.9468L49.1441 52.4817L48.7027 51.8752ZM36.75 9.69874L37.2776 9.16572L36 7.901V9.69874H36.75ZM48.272 21.1044L48.8026 20.5743L48.7997 20.5714L48.272 21.1044ZM48.8062 22.0002V22.7502H49.7943L49.5285 21.7985L48.8062 22.0002ZM8.375 8.37524C8.375 6.61674 9.65871 5.25024 11.25 5.25024V3.75024C8.71515 3.75024 6.875 5.90834 6.875 8.37524H8.375ZM8.375 38.6252V8.37524H6.875V38.6252H8.375ZM23.8821 54.6256C15.2683 54.3794 8.375 47.2409 8.375 38.6252H6.875C6.875 48.0472 14.4086 55.8555 23.8393 56.1249L23.8821 54.6256ZM48.75 54.6253H23.8607V56.1253H48.75V54.6253ZM51.625 51.5002C51.625 53.2588 50.3413 54.6253 48.75 54.6253V56.1253C51.2849 56.1253 53.125 53.9672 53.125 51.5002H51.625ZM51.625 22.5002V51.5002H53.125V22.5002H51.625ZM50.2196 19.1965C51.1517 20.017 51.625 21.191 51.625 22.5002H53.125C53.125 20.8223 52.5103 19.2146 51.2108 18.0706L50.2196 19.1965ZM37.3267 6.55543L50.1901 19.1691L51.2403 18.0981L38.3769 5.48443L37.3267 6.55543ZM34.25 5.25024C35.4286 5.25024 36.4906 5.72012 37.3217 6.55049L38.3819 5.48937C37.2885 4.39698 35.8523 3.75024 34.25 3.75024V5.25024ZM11.25 5.25024H34.25V3.75024H11.25V5.25024ZM10.6485 7.59407C10.4915 7.79039 10.375 8.06325 10.375 8.37524H11.875C11.875 8.40814 11.8688 8.43717 11.8599 8.46121C11.8513 8.48435 11.8386 8.50763 11.8198 8.53111L10.6485 7.59407ZM10.8558 7.39392C10.7841 7.44618 10.7133 7.51312 10.6485 7.59406L11.8198 8.53112C11.8044 8.55037 11.7791 8.57718 11.7387 8.60656L10.8558 7.39392ZM33.125 7.25024H11.2973V8.75024H33.125V7.25024ZM33.875 20.1252V8.00024H32.375V20.1252H33.875ZM38.5 24.8752C35.8969 24.8752 33.875 22.7462 33.875 20.1252H32.375C32.375 23.5232 35.018 26.3752 38.5 26.3752V24.8752ZM49 24.8752H38.5V26.3752H49V24.8752ZM49.75 51.0002V25.6252H48.25V51.0002H49.75ZM48.875 51.7502H49V50.2502H48.875V51.7502ZM49.625 51.5002V51.0002H48.125V51.5002H49.625ZM49.3515 52.2814C49.5085 52.0851 49.625 51.8122 49.625 51.5002H48.125C48.125 51.4674 48.1312 51.4383 48.1401 51.4143C48.1487 51.3911 48.1614 51.3679 48.1802 51.3444L49.3515 52.2814ZM49.1441 52.4817C49.216 52.4293 49.2868 52.3623 49.3514 52.2815L48.1802 51.3443C48.1955 51.3252 48.2209 51.2983 48.2614 51.2688L49.1441 52.4817ZM24.375 52.6252H48.7027V51.1252H24.375V52.6252ZM10.375 38.6252C10.375 46.3883 16.6119 52.6252 24.375 52.6252V51.1252C17.4404 51.1252 11.875 45.5599 11.875 38.6252H10.375ZM10.375 8.37524V38.6252H11.875V8.37524H10.375ZM36 9.69874V20.1252H37.5V9.69874H36ZM48.7997 20.5714L37.2776 9.16572L36.2224 10.2318L47.7444 21.6374L48.7997 20.5714ZM49.5285 21.7985C49.4038 21.3518 49.1597 20.9316 48.8026 20.5743L47.7415 21.6345C47.9227 21.8158 48.0307 22.012 48.0838 22.202L49.5285 21.7985ZM38.5 22.7502H48.8062V21.2502H38.5V22.7502ZM36 20.1252C36 21.5 37.0989 22.7502 38.5 22.7502V21.2502C38.0218 21.2502 37.5 20.7693 37.5 20.1252H36Z" fill="white"/>
</svg>
