<svg width="36" height="36" viewBox="0 0 36 36" fill="none" xmlns="http://www.w3.org/2000/svg">
<g clip-path="url(#clip0_11629_183425)">
<path fill-rule="evenodd" clip-rule="evenodd" d="M30.5148 2.04321C30.5646 2.28969 30.4876 2.54473 30.3097 2.72244L25.0863 7.93981L28.0577 10.9111L33.2753 5.69347C33.4529 5.5159 33.7076 5.43898 33.9538 5.48857C34.1999 5.53816 34.405 5.70766 34.4999 5.94013C35.6964 8.86855 35.1025 12.3536 32.728 14.7281C30.5646 16.8915 27.4798 17.573 24.7366 16.7773L14.5816 26.9323C14.6584 27.3446 14.6984 27.7692 14.6984 28.2027C14.6984 32.0134 11.6092 35.1027 7.79844 35.1027C3.98767 35.1027 0.898437 32.0134 0.898438 28.2027C0.898435 24.3919 3.98767 21.3027 7.79843 21.3027C8.23034 21.3027 8.65355 21.3424 9.0644 21.4187L19.2239 11.2591C18.4317 8.51811 19.1139 5.43715 21.275 3.27584C23.6504 0.89406 27.1355 0.307891 30.062 1.49697C30.295 1.59163 30.465 1.79674 30.5148 2.04321ZM21.275 3.27584C21.2751 3.27572 21.2752 3.2756 21.2753 3.27547L21.8057 3.8058L21.2746 3.27621C21.2747 3.27609 21.2748 3.27597 21.275 3.27584ZM28.368 2.54179C26.2563 2.09838 23.9721 2.69552 22.3367 4.3354L22.336 4.33614C20.4783 6.19384 19.9594 8.88872 20.7847 11.2151C20.8814 11.4877 20.8127 11.7917 20.6082 11.9962L9.83549 22.7689C9.64888 22.9555 9.37792 23.0303 9.122 22.9659C8.69926 22.8594 8.25601 22.8027 7.79844 22.8027C4.8161 22.8027 2.39843 25.2203 2.39844 28.2027C2.39844 31.185 4.8161 33.6027 7.79844 33.6027C10.7808 33.6027 13.1984 31.185 13.1984 28.2027C13.1984 27.7438 13.1414 27.2993 13.0343 26.8755C12.9696 26.6194 13.0444 26.3482 13.2311 26.1615L24 15.3927C24.2047 15.1879 24.509 15.1193 24.7818 15.2164C27.1097 16.045 29.8079 15.5269 31.6673 13.6675C33.3043 12.0305 33.9038 9.74458 33.4571 7.63299L29.11 11.9801C28.634 12.4561 27.7232 12.698 27.1013 12.0761L23.9213 8.89613C23.2995 8.27431 23.5414 7.36343 24.0173 6.88747L24.0176 6.88717L28.368 2.54179ZM10.1985 28.2028C10.1985 26.8773 9.12401 25.8028 7.79853 25.8028C6.47305 25.8028 5.39853 26.8773 5.39853 28.2028C5.39853 29.5282 6.47305 30.6028 7.79853 30.6028C9.12401 30.6028 10.1985 29.5282 10.1985 28.2028ZM7.79853 24.3028C9.95244 24.3028 11.6985 26.0488 11.6985 28.2028C11.6985 30.3567 9.95244 32.1028 7.79853 32.1028C5.64462 32.1028 3.89853 30.3567 3.89853 28.2028C3.89853 26.0488 5.64462 24.3028 7.79853 24.3028Z" fill="black"/>
</g>
<defs>
<clipPath id="clip0_11629_183425">
<rect width="36" height="36" fill="white"/>
</clipPath>
</defs>
</svg>
