<svg width="12" height="12" viewBox="0 0 12 12" fill="none" xmlns="http://www.w3.org/2000/svg">
<path d="M5.99989 10.875C6.54989 10.875 6.99989 10.425 6.99989 9.875H4.99989C4.99989 10.425 5.44989 10.875 5.99989 10.875ZM8.99989 7.875V5.375C8.99989 3.84 8.18489 2.555 6.74989 2.215V1.875C6.74989 1.46 6.41489 1.125 5.99989 1.125C5.58489 1.125 5.24989 1.46 5.24989 1.875V2.215C3.81989 2.555 2.99989 3.835 2.99989 5.375V7.875L1.99989 8.875V9.375H9.99989V8.875L8.99989 7.875ZM7.99989 8.375H3.99989V5.375C3.99989 4.135 4.75489 3.125 5.99989 3.125C7.24489 3.125 7.99989 4.135 7.99989 5.375V8.375ZM3.78989 1.915L3.07489 1.2C1.87489 2.115 1.08489 3.525 1.01489 5.125H2.01489C2.08989 3.8 2.76989 2.64 3.78989 1.915ZM9.98489 5.125H10.9849C10.9099 3.525 10.1199 2.115 8.92489 1.2L8.21489 1.915C9.22489 2.64 9.90989 3.8 9.98489 5.125Z" fill="black"/>
</svg>
