<svg width="48" height="48" viewBox="0 0 48 48" fill="none" xmlns="http://www.w3.org/2000/svg">
<path fill-rule="evenodd" clip-rule="evenodd" d="M37 18C40.866 18 44 14.866 44 11C44 7.13401 40.866 4 37 4C33.134 4 30 7.13401 30 11C30 14.866 33.134 18 37 18ZM37 20C41.9706 20 46 15.9706 46 11C46 6.02944 41.9706 2 37 2C32.0294 2 28 6.02944 28 11C28 15.9706 32.0294 20 37 20ZM25.8604 10.8199H25.8618C25.8608 10.8798 25.8604 10.9399 25.8604 11C25.8604 11.62 25.9116 12.2279 26.0102 12.8199H25.8604H22.95V16.0999V17.0999H20.95V16.0999V11.8199V10.8199H21.95H25.8604ZM41.5479 20.9541C40.8003 21.3068 40.0065 21.5777 39.1781 21.7554C39.0215 22.2186 38.8593 22.68 38.6917 23.1394L36.9416 27.4257C36.3057 28.8296 35.6164 30.2109 34.8747 31.5664L34.4825 32.2699H16.6031L9.55746 8.89138L9.34306 8.17993H8.6H5H4V10.1799H5H7.85694L14.9025 33.5585L15.1169 34.2699H15.86H35.07H35.6575L35.9435 33.7568L36.6235 32.5368L36.6272 32.53C37.3969 31.1236 38.112 29.6903 38.7714 28.2334C39.4238 26.7921 40.0216 25.3276 40.5639 23.8431C40.8098 23.1698 41.0444 22.4923 41.2674 21.8111L41.5479 20.9541ZM16.5698 41.2C17.1221 41.2 17.5698 40.7522 17.5698 40.2C17.5698 39.6477 17.1221 39.2 16.5698 39.2C16.0175 39.2 15.5698 39.6477 15.5698 40.2C15.5698 40.7522 16.0175 41.2 16.5698 41.2ZM19.5698 40.2C19.5698 41.8568 18.2267 43.2 16.5698 43.2C14.913 43.2 13.5698 41.8568 13.5698 40.2C13.5698 38.5431 14.913 37.2 16.5698 37.2C18.2267 37.2 19.5698 38.5431 19.5698 40.2ZM33.1597 41.2C33.712 41.2 34.1597 40.7522 34.1597 40.2C34.1597 39.6477 33.712 39.2 33.1597 39.2C32.6074 39.2 32.1597 39.6477 32.1597 40.2C32.1597 40.7522 32.6074 41.2 33.1597 41.2ZM36.1597 40.2C36.1597 41.8568 34.8165 43.2 33.1597 43.2C31.5028 43.2 30.1597 41.8568 30.1597 40.2C30.1597 38.5431 31.5028 37.2 33.1597 37.2C34.8165 37.2 36.1597 38.5431 36.1597 40.2ZM36.6883 14.4277L42.4076 9.24093L41.0641 7.75942L36.0209 12.3329L33.7679 10.2629L32.4147 11.7356L35.34 14.4233L36.0121 15.0409L36.6883 14.4277Z" fill="black"/>
</svg>
