<svg width="16" height="16" viewBox="0 0 16 16" fill="none" xmlns="http://www.w3.org/2000/svg">
<path fill-rule="evenodd" clip-rule="evenodd" d="M7.98889 5.77488C7.00768 5.77488 6.23924 5.00202 6.23924 4.03744C6.23924 3.07286 7.00768 2.3 7.98889 2.3C8.9701 2.3 9.73855 3.07286 9.73855 4.03744C9.73855 5.00202 8.9701 5.77488 7.98889 5.77488ZM7.98889 7.07488C6.29464 7.07488 4.93924 5.7249 4.93924 4.03744C4.93924 2.34997 6.29464 1 7.98889 1C9.68315 1 11.0386 2.34997 11.0386 4.03744C11.0386 5.7249 9.68315 7.07488 7.98889 7.07488ZM1.84961 10.6899C1.84961 9.22636 3.03605 8.03992 4.49961 8.03992H11.4831C12.9466 8.03992 14.1331 9.22636 14.1331 10.6899V14.4938C14.1331 14.8528 13.842 15.1438 13.4831 15.1438C13.1241 15.1438 12.8331 14.8528 12.8331 14.4938V10.6899C12.8331 9.94433 12.2286 9.33992 11.4831 9.33992H9.42377L9.95339 12.8956C9.99456 13.172 9.89727 13.4509 9.69318 13.6417L8.57276 14.6893C8.24603 14.9948 7.73847 14.9948 7.41174 14.6893L6.29132 13.6417C6.08722 13.4509 5.98994 13.172 6.03111 12.8956L6.56073 9.33992H4.49961C3.75403 9.33992 3.14961 9.94433 3.14961 10.6899V14.4938C3.14961 14.8528 2.85859 15.1438 2.49961 15.1438C2.14062 15.1438 1.84961 14.8528 1.84961 14.4938V10.6899ZM7.87507 9.33992H8.10942L8.63277 12.8535L7.99225 13.4523L7.35173 12.8535L7.87507 9.33992Z" fill="black"/>
</svg>
