<svg width="16" height="16" viewBox="0 0 16 16" fill="none" xmlns="http://www.w3.org/2000/svg">
<path fill-rule="evenodd" clip-rule="evenodd" d="M4.20189 1.37644C3.79392 1.08068 3.32094 0.994017 2.995 1.00032H2V2.10032H3.00085H3.01386L3.01385 2.10016C3.1561 2.0968 3.38175 2.14052 3.55626 2.26704C3.70201 2.3727 3.85601 2.56456 3.85601 2.97805V10.0948C3.0183 10.3587 2.41082 11.1417 2.41082 12.0665C2.41082 13.208 3.33616 14.1334 4.47764 14.1334C5.37704 14.1334 6.14226 13.5589 6.42637 12.7568H14.0002V11.6568H6.50386C6.47583 11.5174 6.43377 11.3831 6.37922 11.2554H12.7191H13.2691V10.7054V6.57176V6.02176H12.7191H10.9727V3.81602V3.26602H10.4227H5.82973H5.27973V3.81602V6.02176V6.57176V6.57178V7.12178V10.1611C5.17588 10.1174 5.0677 10.0818 4.95601 10.0554V2.97805C4.95601 2.22276 4.64162 1.69522 4.20189 1.37644ZM6.37973 6.02176H9.87267V4.36602H6.37973V6.02176ZM6.37973 10.1554V7.12178H10.4227H10.9727V7.12176H12.1691V10.1554H6.37973ZM5.44446 12.0665C5.44446 12.6005 5.0116 13.0334 4.47764 13.0334C3.94368 13.0334 3.51082 12.6005 3.51082 12.0665C3.51082 11.5326 3.94368 11.0997 4.47764 11.0997C5.0116 11.0997 5.44446 11.5326 5.44446 12.0665Z" fill="#1D1D1B"/>
</svg>
