<svg width="64" height="64" viewBox="0 0 64 64" fill="none" xmlns="http://www.w3.org/2000/svg">
<path fill-rule="evenodd" clip-rule="evenodd" d="M3 16.8104H3.75H60.2867H61.0367V17.5604V30.8758V31.685L60.2298 31.6236C60.139 31.6167 60.047 31.6132 59.9542 31.6132C57.9806 31.6132 56.3808 33.2131 56.3808 35.1866C56.3808 37.1601 57.9806 38.76 59.9542 38.76C60.0471 38.76 60.139 38.7565 60.2298 38.7495L61.0367 38.6882V39.4974V52.8127V53.5627H60.2867H3.75H3V52.8127V39.4974V38.6882L3.80688 38.7495C3.89771 38.7565 3.98962 38.76 4.0825 38.76C6.05603 38.76 7.65589 37.1601 7.65589 35.1866C7.65589 33.2131 6.05603 31.6132 4.0825 31.6132C3.98962 31.6132 3.89771 31.6167 3.80688 31.6236L3 31.685V30.8758V17.5604V16.8104ZM4.5 18.3104V30.1301C7.10666 30.3425 9.15589 32.5252 9.15589 35.1866C9.15589 37.848 7.10666 40.0307 4.5 40.2431V52.0627H46.6514V51.3976V50.2159V49.4659H48.1514V50.2159V51.3976V52.0627H59.5367V40.2431C56.93 40.0308 54.8808 37.848 54.8808 35.1866C54.8808 32.5252 56.93 30.3424 59.5367 30.1301V18.3104H48.1514V19.4921V20.2421H46.6514V19.4921V18.3104H4.5ZM23.5046 28.9526C22.5597 28.9526 21.7936 29.7187 21.7936 30.6636C21.7936 31.6086 22.5597 32.3746 23.5046 32.3746C24.4496 32.3746 25.2156 31.6086 25.2156 30.6636C25.2156 29.7187 24.4496 28.9526 23.5046 28.9526ZM20.2936 30.6636C20.2936 28.8902 21.7312 27.4526 23.5046 27.4526C25.278 27.4526 26.7156 28.8902 26.7156 30.6636C26.7156 32.437 25.278 33.8746 23.5046 33.8746C21.7312 33.8746 20.2936 32.437 20.2936 30.6636ZM35.2117 29.071L34.6814 29.6014L22.4516 41.8312L21.9213 42.3615L20.8606 41.3008L21.3909 40.7705L33.6207 28.5407L34.1511 28.0104L35.2117 29.071ZM30.8405 39.7078C30.8405 38.7643 31.6061 37.9985 32.5516 37.9985C33.497 37.9985 34.2626 38.7643 34.2626 39.7078C34.2626 40.6514 33.497 41.4172 32.5516 41.4172C31.6061 41.4172 30.8405 40.6514 30.8405 39.7078ZM32.5516 36.4985C30.7786 36.4985 29.3405 37.9349 29.3405 39.7078C29.3405 41.4808 30.7786 42.9172 32.5516 42.9172C34.3245 42.9172 35.7626 41.4808 35.7626 39.7078C35.7626 37.9349 34.3245 36.4985 32.5516 36.4985ZM48.1514 21.8555V21.1055H46.6514V21.8555V24.2188V24.9688H48.1514V24.2188V21.8555ZM48.1514 26.5822V25.8322H46.6514V26.5822V28.9456V29.6956H48.1514V28.9456V26.5822ZM48.1514 31.309V30.559H46.6514V31.309V33.6723V34.4223H48.1514V33.6723V31.309ZM48.1514 36.0357V35.2857H46.6514V36.0357V38.3991V39.1491H48.1514V38.3991V36.0357ZM48.1514 40.7624V40.0124H46.6514V40.7624V43.1258V43.8758H48.1514V43.1258V40.7624ZM48.1514 45.4892V44.7392H46.6514V45.4892V47.8525V48.6025H48.1514V47.8525V45.4892Z" fill="black"/>
<path d="M46.6319 17.4689L41.087 23.0137" stroke="black" stroke-width="1.5" stroke-linecap="round"/>
<path d="M47.4202 17.4689L52.965 23.0137" stroke="black" stroke-width="1.5" stroke-linecap="round"/>
<path d="M46.6305 17.4715C46.6307 14.2988 42.9798 8.54619 40.2914 10.3388C37.9145 11.9237 38.7104 16.6793 46.6305 17.4715Z" stroke="black" stroke-width="1.5"/>
<path d="M47.4216 17.4715C47.4213 14.2988 51.0722 8.54619 53.7606 10.3388C56.1375 11.9237 55.3416 16.6793 47.4216 17.4715Z" stroke="black" stroke-width="1.5"/>
</svg>
