<svg width="48" height="48" viewBox="0 0 48 48" fill="none" xmlns="http://www.w3.org/2000/svg">
<path fill-rule="evenodd" clip-rule="evenodd" d="M8.70071 6.17313C8.57786 6.31274 8.5 6.50579 8.5 6.7V30.9C8.5 36.9477 13.4523 41.9 19.5 41.9H39C39.0579 41.9 39.1747 41.8684 39.2993 41.7269C39.4221 41.5873 39.5 41.3942 39.5 41.2V21H41.5V41.2C41.5 42.5283 40.4686 43.9 39 43.9H19.5H19.1V43.8939C12.131 43.6808 6.5 37.9185 6.5 30.9V6.7C6.5 5.37166 7.53143 4 9 4H27.4V6H9C8.94207 6 8.82526 6.0316 8.70071 6.17313ZM33.4917 9.80593L16.9395 26.2758L16.0906 31.9093L21.7241 31.0604L38.194 14.5082L33.4917 9.80593ZM34.9094 8.39524L39.6047 13.0905L41.4819 11.2039L41.4832 11.2008L41.4851 11.1958C41.4926 11.175 41.4999 11.1414 41.4999 11.1C41.4999 11.0586 41.4926 11.025 41.4851 11.0042C41.4839 11.0009 41.4828 10.9982 41.4819 10.9962L37.0037 6.51798L37.001 6.51687L36.9957 6.51479C36.9749 6.50726 36.9413 6.5 36.8999 6.5C36.8585 6.5 36.8249 6.50726 36.8041 6.51479C36.8008 6.51603 36.7981 6.51713 36.796 6.51802L34.9094 8.39524ZM36.8999 4.5C37.3984 4.5 37.977 4.66292 38.407 5.09289L42.907 9.59289C43.337 10.0229 43.4999 10.6015 43.4999 11.1C43.4999 11.5981 43.3372 12.1763 42.908 12.6062L42.907 12.6071L22.9088 32.7053C22.7574 32.8575 22.5611 32.9569 22.3489 32.9888L15.0489 34.0888C14.735 34.1361 14.4173 34.0316 14.1928 33.8071C13.9683 33.5826 13.8638 33.2649 13.9111 32.951L15.0111 25.651C15.043 25.4388 15.1424 25.2425 15.2946 25.0911L35.3928 5.09289L35.3937 5.09203C35.8235 4.6627 36.4018 4.5 36.8999 4.5Z" fill="#1D1D1B"/>
</svg>
