<svg width="60" height="60" viewBox="0 0 60 60" fill="none" xmlns="http://www.w3.org/2000/svg">
<path fill-rule="evenodd" clip-rule="evenodd" d="M30.125 8.75049C22.5355 8.75049 17 14.286 17 21.8755C17 25.9527 18.7614 29.5679 21.4887 31.9679L21.5218 31.9977C23.4582 33.7852 24.7775 36.284 25.2215 38.7996L25.3231 39.3755H28.1255V24.7505H21.8755V21.0005H30.0005C31.036 21.0005 31.8755 21.84 31.8755 22.8755V39.3755H34.8471L35.0455 38.7006C35.5107 36.0712 36.8376 33.743 38.7282 31.9977L38.7305 31.9956C41.5051 29.443 43.25 25.9297 43.25 21.8755C43.25 14.4007 37.7042 8.75049 30.125 8.75049ZM13.25 21.8755C13.25 12.215 20.4645 5.00049 30.125 5.00049C39.7958 5.00049 47 12.3503 47 21.8755C47 27.0705 44.7455 31.5567 41.271 34.7539C39.94 35.9829 39.0282 37.6112 38.7245 39.4337C38.7121 39.5083 38.6951 39.582 38.6738 39.6545L38.0488 41.7796C37.8141 42.5775 37.0818 43.1255 36.25 43.1255H23.75C22.8402 43.1255 22.0616 42.4723 21.9035 41.5763L21.5285 39.4513C21.2236 37.7235 20.2989 35.9791 18.9931 34.7671C15.4809 31.6671 13.25 27.0393 13.25 21.8755ZM38.7505 46.3756H21.8755V50.1256H38.7505V46.3756ZM36.2505 56.2505V52.5005H23.7505V56.2505H36.2505Z" fill="#1D1D1B"/>
<path d="M21.4887 31.9679L21.9908 31.4108L21.9841 31.4049L21.4887 31.9679ZM21.5218 31.9977L22.0305 31.4466L22.0239 31.4406L21.5218 31.9977ZM25.2215 38.7996L25.9601 38.6693V38.6693L25.2215 38.7996ZM25.3231 39.3755L24.5845 39.5058C24.6477 39.8642 24.9592 40.1255 25.3231 40.1255V39.3755ZM28.1255 39.3755V40.1255C28.5397 40.1255 28.8755 39.7897 28.8755 39.3755H28.1255ZM28.1255 24.7505H28.8755C28.8755 24.3363 28.5397 24.0005 28.1255 24.0005V24.7505ZM21.8755 24.7505H21.1255C21.1255 25.1648 21.4613 25.5005 21.8755 25.5005V24.7505ZM21.8755 21.0005V20.2505C21.4613 20.2505 21.1255 20.5863 21.1255 21.0005H21.8755ZM31.8755 39.3755H31.1255C31.1255 39.7897 31.4613 40.1255 31.8755 40.1255V39.3755ZM34.8471 39.3755V40.1255C35.1798 40.1255 35.4727 39.9063 35.5666 39.5871L34.8471 39.3755ZM35.0455 38.7006L35.7651 38.9122C35.7729 38.8856 35.7792 38.8586 35.7841 38.8313L35.0455 38.7006ZM38.7282 31.9977L38.2196 31.4465L38.2195 31.4466L38.7282 31.9977ZM38.7305 31.9956L38.2227 31.4437L38.2219 31.4444L38.7305 31.9956ZM41.271 34.7539L40.7632 34.202L40.7623 34.2029L41.271 34.7539ZM38.7245 39.4337L39.4643 39.5571L39.4643 39.557L38.7245 39.4337ZM38.6738 39.6545L39.3933 39.8662L39.3933 39.8662L38.6738 39.6545ZM38.0488 41.7796L38.7683 41.9912L38.7683 41.9912L38.0488 41.7796ZM21.9035 41.5763L22.6421 41.446L22.6421 41.446L21.9035 41.5763ZM21.5285 39.4513L22.2671 39.321L21.5285 39.4513ZM18.9931 34.7671L19.5034 34.2174C19.4988 34.2131 19.4941 34.2089 19.4894 34.2048L18.9931 34.7671ZM21.8755 46.3756V45.6256C21.4613 45.6256 21.1255 45.9614 21.1255 46.3756H21.8755ZM38.7505 46.3756H39.5005C39.5005 45.9614 39.1647 45.6256 38.7505 45.6256V46.3756ZM21.8755 50.1256H21.1255C21.1255 50.5398 21.4613 50.8756 21.8755 50.8756V50.1256ZM38.7505 50.1256V50.8756C39.1647 50.8756 39.5005 50.5398 39.5005 50.1256H38.7505ZM36.2505 52.5005H37.0005C37.0005 52.0863 36.6647 51.7505 36.2505 51.7505V52.5005ZM36.2505 56.2505V57.0005C36.6647 57.0005 37.0005 56.6647 37.0005 56.2505H36.2505ZM23.7505 52.5005V51.7505C23.3363 51.7505 23.0005 52.0863 23.0005 52.5005H23.7505ZM23.7505 56.2505H23.0005C23.0005 56.6647 23.3363 57.0005 23.7505 57.0005V56.2505ZM17.75 21.8755C17.75 14.7002 22.9497 9.50049 30.125 9.50049V8.00049C22.1213 8.00049 16.25 13.8718 16.25 21.8755H17.75ZM21.9841 31.4049C19.416 29.1449 17.75 25.7337 17.75 21.8755H16.25C16.25 26.1718 18.1068 29.9909 20.9932 32.5309L21.9841 31.4049ZM22.0239 31.4406L21.9908 31.4108L20.9865 32.525L21.0196 32.5548L22.0239 31.4406ZM25.9601 38.6693C25.4886 35.9975 24.0914 33.3491 22.0305 31.4466L21.0131 32.5488C22.8249 34.2213 24.0665 36.5706 24.4829 38.93L25.9601 38.6693ZM26.0617 39.2452L25.9601 38.6693L24.4829 38.93L24.5845 39.5058L26.0617 39.2452ZM28.1255 38.6255H25.3231V40.1255H28.1255V38.6255ZM28.8755 39.3755V24.7505H27.3755V39.3755H28.8755ZM28.1255 24.0005H21.8755V25.5005H28.1255V24.0005ZM22.6255 24.7505V21.0005H21.1255V24.7505H22.6255ZM21.8755 21.7505H30.0005V20.2505H21.8755V21.7505ZM30.0005 21.7505C30.6218 21.7505 31.1255 22.2542 31.1255 22.8755H32.6255C32.6255 21.4258 31.4502 20.2505 30.0005 20.2505V21.7505ZM31.1255 22.8755V39.3755H32.6255V22.8755H31.1255ZM34.8471 38.6255H31.8755V40.1255H34.8471V38.6255ZM34.326 38.489L34.1275 39.1639L35.5666 39.5871L35.7651 38.9122L34.326 38.489ZM38.2195 31.4466C36.2132 33.2986 34.8019 35.7727 34.307 38.5699L35.7841 38.8313C36.2196 36.3698 37.4619 34.1873 39.2369 32.5488L38.2195 31.4466ZM38.2219 31.4444L38.2196 31.4465L39.2368 32.549L39.2391 32.5468L38.2219 31.4444ZM42.5 21.8755C42.5 25.7015 40.8571 29.0201 38.2227 31.4437L39.2383 32.5476C42.1532 29.8658 44 26.1578 44 21.8755H42.5ZM30.125 9.50049C37.286 9.50049 42.5 14.811 42.5 21.8755H44C44 13.9904 38.1223 8.00049 30.125 8.00049V9.50049ZM30.125 4.25049C20.0503 4.25049 12.5 11.8007 12.5 21.8755H14C14 12.6292 20.8787 5.75049 30.125 5.75049V4.25049ZM47.75 21.8755C47.75 11.9403 40.2143 4.25049 30.125 4.25049V5.75049C39.3774 5.75049 46.25 12.7602 46.25 21.8755H47.75ZM41.7789 35.3058C45.3934 31.9797 47.75 27.299 47.75 21.8755H46.25C46.25 26.8421 44.0977 31.1336 40.7632 34.202L41.7789 35.3058ZM39.4643 39.557C39.7396 37.9053 40.5662 36.4255 41.7798 35.305L40.7623 34.2029C39.3138 35.5402 38.3169 37.3171 37.9847 39.3104L39.4643 39.557ZM39.3933 39.8662C39.4232 39.7646 39.4469 39.6614 39.4643 39.5571L37.9847 39.3104C37.9772 39.3552 37.9671 39.3994 37.9543 39.4429L39.3933 39.8662ZM38.7683 41.9912L39.3933 39.8662L37.9543 39.4429L37.3293 41.5679L38.7683 41.9912ZM36.25 43.8755C37.4145 43.8755 38.4398 43.1083 38.7683 41.9912L37.3293 41.5679C37.1885 42.0467 36.7491 42.3755 36.25 42.3755V43.8755ZM23.75 43.8755H36.25V42.3755H23.75V43.8755ZM21.1649 41.7067C21.3863 42.9611 22.4762 43.8755 23.75 43.8755V42.3755C23.2041 42.3755 22.737 41.9836 22.6421 41.446L21.1649 41.7067ZM20.7899 39.5817L21.1649 41.7067L22.6421 41.446L22.2671 39.321L20.7899 39.5817ZM18.4829 35.3167C19.6651 36.4141 20.5125 38.0097 20.7899 39.5817L22.2671 39.321C21.9347 37.4374 20.9326 35.544 19.5034 34.2174L18.4829 35.3167ZM12.5 21.8755C12.5 27.2581 14.826 32.0894 18.4968 35.3294L19.4894 34.2048C16.1357 31.2447 14 26.8206 14 21.8755H12.5ZM21.8755 47.1256H38.7505V45.6256H21.8755V47.1256ZM22.6255 50.1256V46.3756H21.1255V50.1256H22.6255ZM38.7505 49.3756H21.8755V50.8756H38.7505V49.3756ZM38.0005 46.3756V50.1256H39.5005V46.3756H38.0005ZM35.5005 52.5005V56.2505H37.0005V52.5005H35.5005ZM23.7505 53.2505H36.2505V51.7505H23.7505V53.2505ZM24.5005 56.2505V52.5005H23.0005V56.2505H24.5005ZM36.2505 55.5005H23.7505V57.0005H36.2505V55.5005Z" fill="white"/>
</svg>
