<svg width="60" height="60" viewBox="0 0 60 60" fill="none" xmlns="http://www.w3.org/2000/svg">
<path fill-rule="evenodd" clip-rule="evenodd" d="M19.0575 10.38L18.1002 7.5H31.5328L30.5755 10.38H19.0575ZM18.6798 11.88C18.2592 11.88 17.8857 11.6101 17.7527 11.2099L16.9217 8.71001H7.64844C6.95808 8.71001 6.39844 9.26965 6.39844 9.96001V50.0601C6.39844 50.7505 6.95808 51.3101 7.64844 51.3101H27.4839C27.5518 51.8251 27.6856 52.3297 27.8826 52.8101H7.64844C6.12965 52.8101 4.89844 51.5789 4.89844 50.0601V9.96001C4.89844 8.44123 6.12965 7.21001 7.64844 7.21001H16.4267C16.2785 6.60151 16.7377 6 17.3768 6H32.2562C32.8953 6 33.3544 6.60151 33.2063 7.21001H41.7629C43.2817 7.21001 44.5129 8.44122 44.5129 9.96001V27.2291C43.9739 27.4892 43.4727 27.8189 43.0129 28.2024V9.96001C43.0129 9.26965 42.4532 8.71001 41.7629 8.71001H32.7113L31.8803 11.2099C31.7473 11.6101 31.3738 11.88 30.9532 11.88H18.6798ZM31.172 38.5996C30.5627 38.0147 30.005 37.4809 29.6029 37.0996H19.8191C19.4049 37.0996 19.0691 37.4354 19.0691 37.8496C19.0691 38.2639 19.4049 38.5996 19.8191 38.5996H31.172ZM26.9296 32.9506L27.9859 31.7096H19.8191C19.4049 31.7096 19.0691 32.0454 19.0691 32.4596C19.0691 32.8738 19.4049 33.2096 19.8191 33.2096H26.7618C26.805 33.1161 26.8613 33.0287 26.9296 32.9506ZM17.3766 21.6801C17.3766 22.2215 16.9389 22.6604 16.399 22.6604C15.859 22.6604 15.4213 22.2215 15.4213 21.6801C15.4213 21.1387 15.859 20.6998 16.399 20.6998C16.9389 20.6998 17.3766 21.1387 17.3766 21.6801ZM19.0691 21.6796C19.0691 21.2654 19.4049 20.9296 19.8191 20.9296H33.9898C34.4041 20.9296 34.7398 21.2654 34.7398 21.6796C34.7398 22.0938 34.4041 22.4296 33.9898 22.4296H19.8191C19.4049 22.4296 19.0691 22.0938 19.0691 21.6796ZM19.0691 27.0696C19.0691 26.6554 19.4049 26.3196 19.8191 26.3196H33.9898C34.4041 26.3196 34.7398 26.6554 34.7398 27.0696C34.7398 27.4838 34.4041 27.8196 33.9898 27.8196H19.8191C19.4049 27.8196 19.0691 27.4838 19.0691 27.0696ZM16.3988 28.0504C16.9387 28.0504 17.3764 27.6115 17.3764 27.0701C17.3764 26.5287 16.9387 26.0897 16.3988 26.0897C15.8588 26.0897 15.4211 26.5287 15.4211 27.0701C15.4211 27.6115 15.8588 28.0504 16.3988 28.0504ZM17.3764 32.46C17.3764 33.0014 16.9387 33.4403 16.3988 33.4403C15.8588 33.4403 15.4211 33.0014 15.4211 32.46C15.4211 31.9186 15.8588 31.4796 16.3988 31.4796C16.9387 31.4796 17.3764 31.9186 17.3764 32.46ZM16.3988 38.8307C16.9387 38.8307 17.3764 38.3918 17.3764 37.8504C17.3764 37.3089 16.9387 36.87 16.3988 36.87C15.8588 36.87 15.4211 37.3089 15.4211 37.8504C15.4211 38.3918 15.8588 38.8307 16.3988 38.8307ZM41.2892 46.286L40.5672 47.2518L40.3056 47.6017L36.8746 52.1912C36.2469 52.896 35.3783 53.3364 34.4432 53.4265C33.3915 53.3555 32.4036 52.8871 31.6803 52.1126L31.6462 52.0761L31.6097 52.0419C31.2537 51.7083 30.9695 51.3048 30.7749 50.8563C30.5818 50.4111 30.481 49.931 30.4789 49.4453C30.4956 48.4541 30.8878 47.5084 31.5729 46.7987L37.3908 42.4237L37.3908 42.4278L39.7954 40.6172L41.0386 39.6811L41.7704 39.1301L41.6144 38.2274C41.5035 37.5858 41.4316 36.9381 41.3991 36.2878C41.4086 34.9436 41.976 33.3523 43 32.1284C44.0131 30.9174 45.3755 30.17 46.9691 30.2443L46.9872 30.2451L47.0053 30.2455C47.1876 30.2496 47.3697 30.2572 47.5515 30.2684L46.9153 30.9045L46.8753 30.9445L46.8384 30.9875C46.1578 31.7792 45.7839 32.7891 45.7839 33.8331C45.7839 34.877 46.1578 35.8869 46.8384 36.6787L46.9194 36.7729L47.0148 36.8525C47.8073 37.5139 48.8067 37.8769 49.8394 37.8769C50.8721 37.8769 51.8715 37.514 52.6641 36.8525L52.7156 36.8094L52.7632 36.7619L53.3976 36.128C53.3838 37.3771 52.8341 38.6766 51.8864 39.7914C50.745 41.1341 49.2049 41.9934 47.8427 42.119C47.6692 42.1224 47.4463 42.1362 47.2488 42.1485L47.1273 42.156L43.8279 42.3553L43.8265 42.3544L43.8259 42.3554L43.8059 42.3567L43.8176 42.3683L41.2892 46.286ZM42.6634 46.9229L42.8308 47.0908L43.0869 47.3476L48.4222 52.6987L48.4414 52.7179L48.4598 52.7378C48.8225 53.1288 49.3005 53.389 49.8202 53.4825C50.3675 53.3683 50.8719 53.0962 51.2701 52.6972C51.6687 52.2978 51.9414 51.7907 52.056 51.2391C51.9626 50.7184 51.7022 50.2411 51.313 49.8813L51.2906 49.8606L51.2691 49.8391L46.1558 44.7126L44.9015 43.4551L42.6634 46.9229ZM53.5734 51.2644C53.44 52.2082 53.0043 53.0829 52.3319 53.7567C51.6595 54.4305 50.7868 54.8669 49.8455 55C48.8944 54.9013 48.0112 54.46 47.36 53.7578L42.8389 49.2234L42.0246 48.4067L41.7686 48.1499L41.507 48.4999L40.861 49.364L38.0407 53.1365C37.1317 54.1849 35.8456 54.8298 34.4638 54.9299C32.9868 54.8621 31.5947 54.2186 30.5841 53.1365C30.0783 52.6626 29.6749 52.0897 29.3988 51.4532C29.1227 50.8167 28.9797 50.13 28.9788 49.4359C28.9987 48.0163 29.5754 46.6618 30.5841 45.6655L36.4781 41.2333L37.3922 40.5459L37.7624 40.2675C37.632 40.2244 37.5127 40.1527 37.4134 40.0576L37.3926 40.0367L36.6125 39.2554L33.9368 36.5757C33.8896 36.5198 33.8497 36.4581 33.8182 36.392C33.4559 36.5136 33.0765 36.5756 32.6945 36.5757C32.0165 36.619 31.3482 36.3963 30.831 35.9546L28.9666 34.0913C28.8118 33.9199 28.7261 33.6969 28.7261 33.4657C28.7261 33.2345 28.8118 33.0115 28.9666 32.8401L31.4521 30.3557C31.6215 30.1995 31.8432 30.1128 32.0733 30.1128C32.3034 30.1128 32.5251 30.1995 32.6945 30.3557L34.5589 32.219C34.9208 32.6221 35.1581 33.1219 35.2421 33.6577C35.326 34.1935 35.2529 34.7422 35.0317 35.2372C35.0842 35.2643 35.1339 35.2966 35.18 35.3335L38.0319 38.1897L38.6566 38.8154C38.7169 38.8804 38.7666 38.9535 38.8046 39.032C38.8624 39.1516 38.8932 39.2838 38.8931 39.419L39.2233 39.1703L40.1363 38.4828C40.1244 38.4137 40.1128 38.3446 40.1017 38.2754C39.9979 37.6286 39.9302 36.9765 39.899 36.322C39.899 32.8751 42.7204 28.5447 47.0389 28.7459C47.5599 28.7576 48.0799 28.7954 48.5971 28.8595C48.7473 28.8964 48.8845 28.9739 48.994 29.0833C49.1035 29.1928 49.181 29.3303 49.2183 29.4808C49.3572 29.8832 49.3572 30.3207 49.2183 30.723L47.9759 31.9653C47.5295 32.4846 47.2839 33.1474 47.2839 33.8331C47.2839 34.5187 47.5295 35.1815 47.9759 35.7009C48.4992 36.1376 49.1586 36.3769 49.8394 36.3769C50.5203 36.3769 51.1796 36.1376 51.7029 35.7009L52.9461 34.4587C53.0863 34.4098 53.2308 34.378 53.3765 34.3632C53.4789 34.3528 53.5819 34.3508 53.6845 34.3571C53.8552 34.3678 54.0248 34.4016 54.1885 34.4587C54.3349 34.5031 54.4682 34.5829 54.5765 34.6912C54.6849 34.7996 54.7649 34.933 54.8096 35.0798C54.8876 35.5137 54.9128 35.9489 54.891 36.3804C54.8844 36.5111 54.8735 36.6415 54.8584 36.7715C54.506 39.8113 51.8838 42.5948 49.0851 43.4013C48.6968 43.5132 48.3052 43.5871 47.9157 43.6183C47.7867 43.6183 47.5882 43.6305 47.3574 43.6447L47.3574 43.6447L47.2178 43.6533L47.9157 44.353L47.9797 44.4172L48.6054 45.0444L52.3311 48.7798C53.0331 49.4286 53.4748 50.3121 53.5734 51.2644ZM33.5376 34.904L33.6623 34.6251C33.7652 34.3949 33.7992 34.1394 33.7601 33.8899C33.7228 33.6512 33.6201 33.4284 33.4644 33.2459L32.0733 31.8556L30.4625 33.4657L31.8411 34.8434C32.0564 35.0124 32.326 35.0962 32.5988 35.0788L32.6463 35.0757L32.6939 35.0757C32.9139 35.0756 33.1324 35.0399 33.341 34.9699L33.5376 34.904ZM34.4792 50.0999C34.4792 50.6413 34.0415 51.0802 33.5015 51.0802C32.9616 51.0802 32.5239 50.6413 32.5239 50.0999C32.5239 49.5584 32.9616 49.1195 33.5015 49.1195C34.0415 49.1195 34.4792 49.5584 34.4792 50.0999Z" fill="black"/>
</svg>
