<svg width="49" height="48" viewBox="0 0 49 48" fill="none" xmlns="http://www.w3.org/2000/svg">
<path fill-rule="evenodd" clip-rule="evenodd" d="M24.5076 3.80078C24.6397 3.80074 24.7717 3.83553 24.8895 3.90514L29.8067 6.81169C30.1633 7.02247 30.2815 7.48239 30.0707 7.83897C29.86 8.19555 29.4 8.31375 29.0435 8.10298L25.2569 5.86474V11.535C25.2569 11.9492 24.9211 12.285 24.5069 12.285C24.0926 12.285 23.7569 11.9492 23.7569 11.535V5.86383L19.956 8.1035C19.5991 8.31378 19.1394 8.19496 18.9291 7.83809C18.7188 7.48122 18.8376 7.02146 19.1945 6.81117L24.1006 3.92023C24.2177 3.84465 24.3571 3.80078 24.5069 3.80078H24.5076ZM18.9299 39.7478C19.1409 39.3913 19.6009 39.2735 19.9574 39.4845L23.7569 41.7343V36.0684V25.3746L19.0642 22.6849C18.7048 22.4789 18.5805 22.0206 18.7865 21.6612C18.9924 21.3018 19.4507 21.1775 19.8101 21.3835L24.5022 24.0729L29.0437 21.3885C29.4002 21.1778 29.8602 21.296 30.0709 21.6525C30.2817 22.0091 30.1635 22.4691 29.8069 22.6798L25.2569 25.3694V36.0684V41.7333L29.0421 39.4851C29.3982 39.2735 29.8584 39.3907 30.0699 39.7469C30.2815 40.103 30.1642 40.5632 29.8081 40.7747L24.8909 43.6954C24.6551 43.8354 24.3617 43.8356 24.1257 43.6959L19.1931 40.7752C18.8367 40.5642 18.7188 40.1042 18.9299 39.7478ZM12.9202 11.3853C13.1313 11.7416 13.0136 12.2017 12.6572 12.4128L8.72083 14.7451L13.1944 17.3889C13.551 17.5997 13.6692 18.0596 13.4585 18.4162C13.2477 18.7728 12.7878 18.891 12.4312 18.6803L8.00012 16.0615V20.8118C8.00012 21.226 7.66433 21.5618 7.25012 21.5618C6.8359 21.5618 6.50012 21.226 6.50012 20.8118V14.7597C6.49974 14.7386 6.50026 14.7174 6.50168 14.6962C6.51757 14.4501 6.65385 14.2262 6.86782 14.0994L11.8926 11.1223C12.249 10.9112 12.709 11.0289 12.9202 11.3853ZM7.25012 25.6885C7.66433 25.6885 8.00012 26.0243 8.00012 26.4385V31.1962L12.43 28.567C12.7862 28.3555 13.2463 28.4729 13.4577 28.8291C13.6692 29.1853 13.5518 29.6455 13.1956 29.8569L8.71793 32.5145L12.6559 34.8366C13.0127 35.047 13.1314 35.5068 12.921 35.8636C12.7106 36.2204 12.2508 36.3391 11.894 36.1287L6.86916 33.1657C6.64433 33.0331 6.50488 32.7934 6.50024 32.5331C6.49997 32.5224 6.49993 32.5117 6.50012 32.501V26.4385C6.50012 26.0243 6.8359 25.6885 7.25012 25.6885ZM36.078 11.3853C36.2891 11.0289 36.7492 10.9112 37.1056 11.1223L42.1304 14.0994C42.2262 14.1562 42.3065 14.2325 42.3674 14.3216C42.3771 14.3358 42.3865 14.3504 42.3953 14.3655C42.4754 14.5009 42.508 14.6513 42.4981 14.7972V20.8118C42.4981 21.226 42.1623 21.5618 41.7481 21.5618C41.3339 21.5618 40.9981 21.226 40.9981 20.8118V16.0625L36.5686 18.6803C36.212 18.891 35.7521 18.7728 35.5413 18.4162C35.3306 18.0596 35.4488 17.5997 35.8054 17.3889L40.2782 14.7455L36.341 12.4128C35.9846 12.2017 35.8669 11.7416 36.078 11.3853ZM41.7481 25.6885C42.1623 25.6885 42.4981 26.0243 42.4981 26.4385V32.4634C42.504 32.5508 42.4947 32.6398 42.4691 32.7262C42.4169 32.9084 42.2967 33.0668 42.129 33.1657L37.1042 36.1287C36.7474 36.3391 36.2876 36.2204 36.0772 35.8636C35.8668 35.5068 35.9855 35.047 36.3423 34.8366L40.2811 32.514L35.8042 29.8569C35.448 29.6455 35.3306 29.1853 35.5421 28.8291C35.7535 28.4729 36.2136 28.3555 36.5698 28.567L40.9981 31.1953V26.4385C40.9981 26.0243 41.3339 25.6885 41.7481 25.6885Z" fill="black"/>
</svg>
