<svg width="16" height="18" viewBox="0 0 16 18" fill="none" xmlns="http://www.w3.org/2000/svg">
<path d="M5.33352 17.0811L5.63822 15.1457L4.95949 15.13H1.71851L3.97082 0.848763C3.97782 0.805651 4.00054 0.765451 4.03374 0.736904C4.06695 0.708357 4.10948 0.692627 4.15376 0.692627H9.61851C11.4327 0.692627 12.6847 1.07015 13.3384 1.81529C13.6448 2.16485 13.84 2.53014 13.9344 2.93213C14.0334 3.35393 14.0352 3.85787 13.9385 4.47251L13.9315 4.51737V4.91121L14.2379 5.08482C14.496 5.22173 14.7011 5.37845 14.8584 5.55789C15.1206 5.85676 15.2901 6.23661 15.3617 6.68696C15.4357 7.15013 15.4113 7.70126 15.2901 8.32522C15.1503 9.04298 14.9242 9.66811 14.6189 10.1796C14.3381 10.6509 13.9804 11.0419 13.5557 11.3448C13.1502 11.6326 12.6684 11.8511 12.1237 11.9909C11.5958 12.1284 10.994 12.1977 10.3339 12.1977H9.90865C9.60453 12.1977 9.30916 12.3073 9.07728 12.5036C8.84483 12.704 8.69102 12.9778 8.64383 13.2773L8.61179 13.4515L8.07347 16.8626L8.049 16.9879C8.04259 17.0275 8.03152 17.0473 8.01521 17.0607C8.00064 17.0729 7.97967 17.0811 7.95928 17.0811H5.33352Z" fill="#253B80"/>
<path d="M14.527 4.5675C14.5107 4.67179 14.492 4.7784 14.471 4.88793C13.7504 8.588 11.2848 9.86622 8.13589 9.86622H6.53258C6.14749 9.86622 5.82298 10.1459 5.76297 10.5257L4.9421 15.7318L4.70964 17.2075C4.67061 17.4569 4.86286 17.6818 5.11454 17.6818H7.9582C8.29494 17.6818 8.58099 17.4371 8.63401 17.105L8.66197 16.9605L9.19738 13.5628L9.23175 13.3764C9.28419 13.0431 9.57082 12.7984 9.90756 12.7984H10.3329C13.088 12.7984 15.2447 11.6798 15.8751 8.44294C16.1384 7.09073 16.0021 5.96166 15.3053 5.16758C15.0944 4.92813 14.8328 4.72947 14.527 4.5675Z" fill="#179BD7"/>
<path d="M6.62732 4.90964C6.6637 4.67527 6.81398 4.48385 7.01614 4.38724C7.10857 4.34311 7.21055 4.31866 7.31849 4.31866H11.7028C12.2222 4.31866 12.7071 4.35265 13.1496 4.42421C13.276 4.44449 13.3988 4.46774 13.5187 4.49398C13.638 4.52082 13.7543 4.55064 13.867 4.58344C13.923 4.60013 13.9785 4.61743 14.0328 4.63472C14.2504 4.70688 14.4526 4.79216 14.6392 4.89055C14.8587 3.49093 14.6375 2.53796 13.8807 1.67505C13.0464 0.725068 11.5406 0.318359 9.61383 0.318359H4.02009C3.6265 0.318359 3.29076 0.604606 3.22993 0.994021L0.9 15.7626C0.854081 16.0548 1.0795 16.3184 1.3741 16.3184H4.82754L5.69463 10.8171L6.62732 4.90964Z" fill="#253B80"/>
</svg>
