<svg width="24" height="24" viewBox="0 0 24 24" fill="none" xmlns="http://www.w3.org/2000/svg">
<path d="M21.2909 13.29C21.2909 13.29 17.1309 19.355 12.0009 19.355C6.87094 19.355 2.71094 13.29 2.71094 13.29C2.71094 13.29 6.87094 7.22998 12.0009 7.22998C17.1309 7.22998 21.2909 13.29 21.2909 13.29Z" stroke="#1D1D1B" stroke-width="1.5" stroke-miterlimit="10"/>
<path d="M11.9991 16.0201C13.4267 16.0201 14.5841 14.8628 14.5841 13.4351C14.5841 12.0074 13.4267 10.8501 11.9991 10.8501C10.5714 10.8501 9.41406 12.0074 9.41406 13.4351C9.41406 14.8628 10.5714 16.0201 11.9991 16.0201Z" stroke="#1D1D1B" stroke-width="1.5" stroke-miterlimit="10"/>
<path d="M12 7.22978V3.65479" stroke="#1D1D1B" stroke-width="1.5" stroke-miterlimit="10"/>
<path d="M14.6562 7.8948L16.4412 4.7998" stroke="#1D1D1B" stroke-width="1.5" stroke-miterlimit="10"/>
<path d="M9.16391 7.8948L7.37891 4.7998" stroke="#1D1D1B" stroke-width="1.5" stroke-miterlimit="10"/>
</svg>
