<svg width="24" height="24" viewBox="0 0 24 24" fill="none" xmlns="http://www.w3.org/2000/svg">
<rect width="24" height="24" fill="#D9D9D9"/>
<path d="M7.929 8.608V9.785H5.817V16H4.365V9.785H2.242V8.608H7.929ZM11.851 14.823C12.291 14.823 12.6247 14.7387 12.852 14.57C13.0793 14.394 13.193 14.141 13.193 13.811C13.193 13.459 13.083 13.1913 12.863 13.008C12.643 12.8247 12.324 12.733 11.906 12.733H10.443V14.823H11.851ZM12.984 10.676C12.984 10.368 12.885 10.1443 12.687 10.005C12.489 9.85833 12.203 9.785 11.829 9.785H10.443V11.6H11.862C12.236 11.6 12.5147 11.5157 12.698 11.347C12.8887 11.1783 12.984 10.9547 12.984 10.676ZM14.436 10.533C14.436 10.907 14.359 11.2223 14.205 11.479C14.051 11.7357 13.8347 11.9337 13.556 12.073C13.908 12.227 14.1757 12.4507 14.359 12.744C14.5497 13.0373 14.645 13.393 14.645 13.811C14.645 14.5223 14.4177 15.065 13.963 15.439C13.5083 15.813 12.8703 16 12.049 16H8.99102V8.608H11.895C12.7383 8.608 13.3727 8.773 13.798 9.103C14.2233 9.433 14.436 9.90967 14.436 10.533ZM22.1879 12.304C22.1879 13.558 21.8543 14.4893 21.1869 15.098C20.5269 15.6993 19.5773 16 18.3379 16H15.9949V8.608H18.3379C19.5699 8.608 20.5196 8.916 21.1869 9.532C21.8543 10.1407 22.1879 11.0647 22.1879 12.304ZM17.4469 9.785V14.823H18.3269C19.0823 14.823 19.6726 14.6213 20.0979 14.218C20.5233 13.8147 20.7359 13.1767 20.7359 12.304C20.7359 11.4313 20.5233 10.7933 20.0979 10.39C19.6726 9.98667 19.0823 9.785 18.3269 9.785H17.4469Z" fill="white"/>
</svg>
