<svg width="91" height="10" viewBox="0 0 91 10" fill="none" xmlns="http://www.w3.org/2000/svg">
<g clip-path="url(#clip0_5512_161608)">
<path fill-rule="evenodd" clip-rule="evenodd" d="M11.122 6.01163H12.759V7.54651C12.4455 7.68605 11.8534 7.75581 11.2961 7.75581C9.51983 7.75581 8.85807 6.81395 8.85807 4.96512C8.85807 3.18605 9.45017 2.13953 11.2613 2.13953C12.2714 2.13953 12.8635 2.45349 13.3163 3.0814L14.5701 1.93023C13.8039 0.813953 12.4804 0.5 11.2613 0.5C8.44011 0.5 6.97726 2.03488 6.97726 5C6.97726 7.89535 8.30079 9.5 11.2265 9.5C12.5848 9.5 13.9432 9.15116 14.605 8.66279V4.37209H11.122V6.01163ZM2.52012 0.638887H0.5V9.35982H6.69969V7.65051H2.52012V0.638887ZM25.7516 4.44187C27.0752 4.44187 27.8066 5.10466 27.8414 6.36048C27.8414 6.43024 27.8414 6.43024 27.7717 6.46513V7.09303C27.7717 7.30234 27.7717 7.47676 27.7369 7.65117C27.5628 8.59303 26.8662 9.11629 25.7516 9.11629H20.353H20.2137V8.0349H20.353H25.8909C26.4482 8.0349 26.7965 7.72094 26.7965 7.33722V7.30234V6.36048C26.7965 5.87211 26.5179 5.55815 25.9606 5.55815H22.1293C20.8058 5.55815 20.0744 4.89536 20.0396 3.63955V3.5349V2.90699C20.0396 2.69769 20.0396 2.52327 20.0744 2.38373C20.2485 1.44187 20.9451 0.918617 22.0597 0.918617H27.319V1.96513H21.99C21.4327 1.96513 21.0844 2.27908 21.0844 2.6628V2.69769V3.63955C21.0844 4.12792 21.3631 4.44187 21.9204 4.44187H25.7516ZM30.5218 0.883406H29.4072V9.08108H30.5218V0.883406ZM38.917 5.55782H36.0261V4.51131H40.1012V6.63922C40.1012 8.24387 39.2304 9.08108 37.5934 9.08108H34.7026C33.1004 9.08108 32.1948 8.13922 32.1948 6.63922V3.32527C32.1948 1.82527 33.0656 0.883406 34.7026 0.883406H39.6484V1.92992H34.6329C33.8318 1.92992 33.3094 2.41829 33.3094 3.18573V6.81364C33.3094 7.5462 33.8666 7.99968 34.6329 7.99968H37.5934C38.4293 7.99968 38.917 7.65085 38.917 6.81364V5.55782ZM55.1822 0.883406H53.8239L49.8533 9.08108H51.142L52.0824 7.09271H56.854L57.7944 9.08108H59.0831L55.1822 0.883406ZM52.6048 6.01131L54.4856 2.03457L56.3664 6.01131H52.6048ZM42.8175 0.883406L47.9375 7.72062V0.883406H49.0869V9.08108H47.624L42.5389 2.24387V9.08108H41.4243V0.883406H42.8175ZM57.6194 0.883406V1.92992H60.6496V9.0462H61.8686V1.92992H61.9383H64.9336V0.883406H57.6194ZM70.716 8.03457C71.6912 8.03457 72.144 7.44155 72.144 6.60434L72.1092 0.883406H73.3631V6.4648C73.3631 8.20899 72.4227 9.11596 70.6463 9.11596H68.4869C66.6758 9.11596 65.8398 8.1741 65.8398 6.4648V0.883406H67.0241V6.60434C67.0241 7.47643 67.442 8.03457 68.4521 8.03457H70.716ZM80.8165 6.11629C81.5827 5.90699 82.2793 5.31397 82.2793 4.12792V3.04652C82.2793 1.61629 81.4782 0.918617 80.0502 0.918617H74.6516V9.11629H75.801V6.22094H78.2739C80.3985 6.22094 81.1648 8.17443 81.1648 9.11629H82.3141C82.2097 7.75583 81.722 6.70931 80.8165 6.11629ZM80.0851 5.13955H75.8358V1.93024H80.0502C80.6772 1.93024 81.1648 2.27908 81.1648 2.87211V4.12792C81.1299 4.79071 80.712 5.13955 80.0851 5.13955ZM90.5 0.883406V1.92992H84.6835V4.44155H90.3607V5.48806H84.6835V8.03457H90.5V9.08108H83.4993V0.883406H90.5Z" fill="white"/>
</g>
<defs>
<clipPath id="clip0_5512_161608">
<rect width="90" height="9" fill="black" transform="translate(0.5 0.5)"/>
</clipPath>
</defs>
</svg>