<svg width="80" height="80" viewBox="0 0 80 80" fill="none" xmlns="http://www.w3.org/2000/svg">
<path fill-rule="evenodd" clip-rule="evenodd" d="M73 16H7V50H73V16ZM7 13H4V16V50V53H7H73H76V50V16V13H73H7Z" fill="#333333"/>
<path fill-rule="evenodd" clip-rule="evenodd" d="M68.0004 21H12V45H68.0004V21ZM12 19H10V21V45V47H12H68.0004H70.0004V45V21V19H68.0004H12Z" fill="#333333"/>
<rect x="14.5" y="59.5" width="8" height="7" stroke="#333333" stroke-width="3"/>
<rect x="57.5" y="59.5" width="8" height="7" stroke="#333333" stroke-width="3"/>
<rect x="22.5" y="60.5" width="35" height="6" stroke="#333333" stroke-width="3"/>
<path fill-rule="evenodd" clip-rule="evenodd" d="M4.41969 54C1.72238 56.2005 0 59.5506 0 63.3031C0 67.3923 2.04538 71.0038 5.16886 73.1703L6.30739 71.5258C3.70448 69.7204 2 66.7108 2 63.3031C2 60.1761 3.43531 57.3842 5.68307 55.5505L4.41969 54ZM6.94646 57.101C5.14825 58.568 4 60.8015 4 63.3031C4 66.0292 5.36358 68.4369 7.44591 69.8812L8.58443 68.2367C7.02269 67.1535 6 65.3477 6 63.3031C6 61.4269 6.86119 59.7518 8.20984 58.6516L6.94646 57.101ZM9.47323 60.2021C8.57413 60.9356 8 62.0523 8 63.3031C8 64.6662 8.68179 65.87 9.72295 66.5922L10.8615 64.9476C10.3409 64.5866 10 63.9846 10 63.3031C10 62.6777 10.2871 62.1193 10.7366 61.7526L9.47323 60.2021Z" fill="#333333"/>
<path fill-rule="evenodd" clip-rule="evenodd" d="M75.4397 54C78.137 56.2005 79.8594 59.5506 79.8594 63.3031C79.8594 67.3923 77.814 71.0038 74.6905 73.1703L73.552 71.5258C76.1549 69.7204 77.8594 66.7108 77.8594 63.3031C77.8594 60.1761 76.4241 57.3842 74.1763 55.5505L75.4397 54ZM72.9129 57.101C74.7111 58.568 75.8594 60.8015 75.8594 63.3031C75.8594 66.0292 74.4958 68.4369 72.4135 69.8812L71.2749 68.2367C72.8367 67.1535 73.8594 65.3477 73.8594 63.3031C73.8594 61.4269 72.9982 59.7518 71.6495 58.6516L72.9129 57.101ZM70.3861 60.2021C71.2852 60.9356 71.8594 62.0523 71.8594 63.3031C71.8594 64.6662 71.1776 65.87 70.1364 66.5922L68.9979 64.9476C69.5185 64.5866 69.8594 63.9846 69.8594 63.3031C69.8594 62.6777 69.5723 62.1193 69.1228 61.7526L70.3861 60.2021Z" fill="#333333"/>
</svg>
