<svg width="12" height="12" viewBox="0 0 12 12" fill="none" xmlns="http://www.w3.org/2000/svg">
<g clip-path="url(#clip0_4115_157139)">
<path d="M11 6.44387C11 7.73304 10.4879 8.96946 9.57629 9.88104C8.66471 10.7926 7.42835 11.3047 6.13918 11.3047C4.84956 11.3047 3.61269 10.7928 2.70033 9.88134C1.78797 8.9699 1.27474 7.73349 1.27344 6.44387C1.27344 5.1534 1.78608 3.91578 2.69859 3.00328C3.61109 2.09077 4.84871 1.57813 6.13918 1.57813C6.84631 1.57774 7.54498 1.73182 8.18637 2.02955C8.82776 2.32728 9.39642 2.76147 9.85253 3.30182" stroke="#333333" stroke-width="1.5" stroke-linejoin="round"/>
<path d="M10.1921 0L10.4 4.00717L6.40002 4.20788" stroke="#333333" stroke-width="1.5" stroke-miterlimit="10"/>
</g>
<defs>
<clipPath id="clip0_4115_157139">
<rect width="12" height="12" fill="white"/>
</clipPath>
</defs>
</svg>
