<svg width="152" height="24" viewBox="0 0 152 24" fill="none" xmlns="http://www.w3.org/2000/svg">
<path d="M8.58981 8.98781H8.96056L9.06825 8.63304L11.4047 0.93597C11.5569 0.604223 11.7769 0.5 12.0223 0.5C12.2674 0.5 12.4871 0.603926 12.6392 0.93455L14.9182 8.62979L15.0242 8.98781H15.3976H22.8346C23.4179 8.98781 23.7281 9.72837 23.3126 10.1531L17.1069 14.6387L16.8079 14.8548L16.9263 15.2043L19.4386 22.6241C19.567 23.1111 19.1915 23.5 18.8301 23.5C18.7971 23.5 18.7443 23.4937 18.6843 23.4762C18.6297 23.4602 18.583 23.439 18.549 23.4174L12.3273 18.6282L12.0237 18.3945L11.7191 18.6268L5.43915 23.4169C5.40502 23.4387 5.35807 23.4601 5.30306 23.4762C5.24305 23.4937 5.19027 23.5 5.15732 23.5C4.78525 23.5 4.4152 23.0968 4.49634 22.6686L7.00391 15.2628L7.12093 14.9172L6.82748 14.7003L0.685096 10.1611C0.26064 9.68844 0.614651 8.98781 1.15276 8.98781H8.58981Z" fill="#F7B500" stroke="#646464"/>
<path d="M40.5898 8.98781H40.9606L41.0683 8.63304L43.4047 0.935975C43.5569 0.604224 43.7769 0.5 44.0223 0.5C44.2674 0.5 44.4871 0.603926 44.6392 0.93455L46.9182 8.62979L47.0242 8.98781H47.3976H54.8346C55.4179 8.98781 55.7281 9.72837 55.3126 10.1531L49.1069 14.6387L48.8079 14.8548L48.9263 15.2043L51.4386 22.6241C51.567 23.1111 51.1915 23.5 50.8301 23.5C50.7971 23.5 50.7443 23.4937 50.6843 23.4762C50.6297 23.4602 50.583 23.439 50.5489 23.4174L44.3273 18.6282L44.0237 18.3945L43.7191 18.6268L37.4391 23.4169C37.405 23.4387 37.3581 23.4601 37.3031 23.4762C37.2431 23.4937 37.1903 23.5 37.1573 23.5C36.7853 23.5 36.4152 23.0968 36.4963 22.6686L39.0039 15.2628L39.1209 14.9172L38.8275 14.7003L32.6851 10.1611C32.2606 9.68844 32.6147 8.98781 33.1528 8.98781H40.5898Z" fill="#F7B500" stroke="#646464"/>
<path d="M72.5898 8.98781H72.9606L73.0683 8.63304L75.4047 0.935975C75.5569 0.604224 75.7769 0.5 76.0223 0.5C76.2674 0.5 76.4871 0.603926 76.6392 0.93455L78.9182 8.62979L79.0242 8.98781H79.3976H86.8346C87.4179 8.98781 87.7281 9.72837 87.3126 10.1531L81.1069 14.6387L80.8079 14.8548L80.9263 15.2043L83.4386 22.6241C83.567 23.1111 83.1915 23.5 82.8301 23.5C82.7971 23.5 82.7443 23.4937 82.6843 23.4762C82.6297 23.4602 82.583 23.439 82.5489 23.4174L76.3273 18.6282L76.0237 18.3945L75.7191 18.6268L69.4391 23.4169C69.405 23.4387 69.3581 23.4601 69.3031 23.4762C69.2431 23.4937 69.1903 23.5 69.1573 23.5C68.7853 23.5 68.4152 23.0968 68.4963 22.6686L71.0039 15.2628L71.1209 14.9172L70.8275 14.7003L64.6851 10.1611C64.2606 9.68844 64.6147 8.98781 65.1528 8.98781H72.5898Z" fill="#F7B500" stroke="#646464"/>
<path d="M104.59 8.98781H104.961L105.068 8.63304L107.405 0.935975C107.557 0.604224 107.777 0.5 108.022 0.5C108.267 0.5 108.487 0.603926 108.639 0.93455L110.918 8.62979L111.024 8.98781H111.398H118.835C119.418 8.98781 119.728 9.72837 119.313 10.1531L113.107 14.6387L112.808 14.8548L112.926 15.2043L115.439 22.6241C115.567 23.1111 115.192 23.5 114.83 23.5C114.797 23.5 114.744 23.4937 114.684 23.4762C114.63 23.4602 114.583 23.439 114.549 23.4174L108.327 18.6282L108.024 18.3945L107.719 18.6268L101.439 23.4169C101.405 23.4387 101.358 23.4601 101.303 23.4762C101.243 23.4937 101.19 23.5 101.157 23.5C100.785 23.5 100.415 23.0968 100.496 22.6686L103.004 15.2628L103.121 14.9172L102.827 14.7003L96.6851 10.1611C96.2606 9.68844 96.6147 8.98781 97.1528 8.98781H104.59Z" fill="#F7B500" stroke="#646464"/>
<path d="M136.59 8.98781H136.961L137.068 8.63304L139.405 0.93597C139.557 0.604223 139.777 0.5 140.022 0.5C140.267 0.5 140.487 0.603926 140.639 0.93455L142.918 8.62979L143.024 8.98781H143.398H150.835C151.418 8.98781 151.728 9.72837 151.313 10.1531L145.107 14.6387L144.808 14.8548L144.926 15.2043L147.439 22.6241C147.567 23.1111 147.192 23.5 146.83 23.5C146.797 23.5 146.744 23.4937 146.684 23.4762C146.63 23.4602 146.583 23.439 146.549 23.4174L140.327 18.6282L140.024 18.3945L139.719 18.6268L133.439 23.4169C133.405 23.4387 133.358 23.4601 133.303 23.4762C133.243 23.4937 133.19 23.5 133.157 23.5C132.785 23.5 132.415 23.0968 132.496 22.6686L135.004 15.2628L135.121 14.9172L134.827 14.7003L128.685 10.1611C128.261 9.68844 128.615 8.98781 129.153 8.98781H136.59Z" fill="#F7B500" stroke="#646464"/>
</svg>
