<svg width="48" height="48" viewBox="0 0 48 48" fill="none" xmlns="http://www.w3.org/2000/svg">
<path fill-rule="evenodd" clip-rule="evenodd" d="M24.0131 5.5C19.7529 5.5 16.2831 8.94962 16.2831 13.23V17.3358H31.7659V13.23C31.7659 11.1152 30.896 9.16218 29.482 7.74622C28.0608 6.36868 26.1486 5.5 24.0131 5.5ZM14.7831 13.23V17.3358H7.85156C6.88506 17.3358 6.10156 18.1193 6.10156 19.0858V42.2489C6.10156 43.2154 6.88507 43.9989 7.85156 43.9989H40.0735C41.04 43.9989 41.8235 43.2154 41.8235 42.2489V19.0858C41.8235 18.1193 41.04 17.3358 40.0735 17.3358H33.2659V13.23C33.2659 10.6965 32.2227 8.36555 30.5387 6.68161L30.5388 6.68155L30.5307 6.67376C28.8521 5.04452 26.5715 4 24.0131 4C18.9271 4 14.7831 8.11857 14.7831 13.23ZM7.85156 18.8358C7.71349 18.8358 7.60156 18.9477 7.60156 19.0858V42.2489C7.60156 42.387 7.71349 42.4989 7.85156 42.4989H40.0735C40.2115 42.4989 40.3235 42.387 40.3235 42.2489V19.0858C40.3235 18.9477 40.2115 18.8358 40.0735 18.8358H7.85156ZM29.3887 27.596C30.209 28.9031 30.4764 30.4824 30.1323 31.9867C29.7881 33.4909 28.8604 34.7968 27.5534 35.6171C27.2516 35.8065 26.9353 35.9664 26.6088 36.0961L26.9847 36.3057C27.3465 36.5074 27.4763 36.9642 27.2746 37.326C27.0729 37.6877 26.6161 37.8175 26.2543 37.6158L24.4008 36.5825C24.039 36.3808 23.9092 35.924 24.1109 35.5623L25.1442 33.7087C25.3459 33.3469 25.8027 33.2171 26.1645 33.4188C26.5263 33.6205 26.6561 34.0773 26.4544 34.4391L26.3919 34.5513C26.5159 34.4892 26.6375 34.4209 26.756 34.3466C27.7261 33.7377 28.4146 32.7685 28.67 31.6521C28.9255 30.5356 28.727 29.3635 28.1182 28.3934C27.5094 27.4233 26.5402 26.7348 25.4237 26.4793C25.0199 26.387 24.7675 25.9847 24.8599 25.581C24.9523 25.1772 25.3545 24.9247 25.7583 25.0171C27.2625 25.3613 28.5684 26.289 29.3887 27.596ZM17.9276 29.1171C17.5282 30.6077 17.7373 32.1958 18.5088 33.5322C19.2804 34.8685 20.5512 35.8437 22.0417 36.2431C22.4418 36.3503 22.8531 36.1128 22.9603 35.7127C23.0675 35.3126 22.8301 34.9014 22.43 34.7942C21.3237 34.4978 20.3805 33.774 19.8079 32.7822C19.2352 31.7903 19.08 30.6116 19.3765 29.5053C19.6729 28.3991 20.3966 27.4559 21.3885 26.8832C21.509 26.8136 21.6323 26.7502 21.7579 26.693L21.6917 26.8022C21.4768 27.1563 21.5896 27.6176 21.9437 27.8325C22.2979 28.0474 22.7591 27.9345 22.974 27.5804L24.0749 25.7662C24.2898 25.4121 24.1769 24.9508 23.8228 24.7359L22.0086 23.635C21.6545 23.4201 21.1932 23.533 20.9784 23.8871C20.7635 24.2412 20.8763 24.7025 21.2304 24.9174L21.5986 25.1408C21.2681 25.2583 20.9466 25.4063 20.6385 25.5842C19.3021 26.3558 18.327 27.6266 17.9276 29.1171Z" fill="black"/>
</svg>
