<svg width="24" height="24" viewBox="0 0 24 24" fill="none" xmlns="http://www.w3.org/2000/svg">
<path fill-rule="evenodd" clip-rule="evenodd" d="M4.79487 5.20195C3.92249 5.20195 3.20002 5.92231 3.20002 6.82988V15.7367L8.25195 9.52042C8.36626 9.37975 8.53805 9.29831 8.71931 9.29883C8.90057 9.29936 9.07188 9.3818 9.18538 9.52312L14.3909 16.0048L17.5055 13.1891C17.7385 12.9785 18.0944 12.9831 18.3218 13.1997L20.801 15.5615V6.82988C20.801 5.92231 20.0785 5.20195 19.2061 5.20195H4.79487ZM2.03711 17.6343C2.00332 17.5426 1.99237 17.4437 2.00523 17.3468C2.00177 17.2894 2.00002 17.2314 2.00002 17.1731V6.82988C2.00002 5.27655 3.24289 4.00195 4.79487 4.00195H19.2061C20.7581 4.00195 22.001 5.27655 22.001 6.82988V16.9609V16.9629V17.1731C22.001 18.7264 20.7581 20.001 19.2061 20.001H4.79487C3.39966 20.001 2.25428 18.971 2.03711 17.6343ZM19.2061 18.801C20.064 18.801 20.7769 18.1045 20.8004 17.2183L17.8972 14.4527L14.7238 17.3216C14.6013 17.4324 14.4384 17.4877 14.2738 17.4746C14.1091 17.4615 13.9571 17.381 13.8536 17.2522L8.71481 10.8536L3.24964 17.5784C3.42682 18.2861 4.05726 18.801 4.79487 18.801H19.2061ZM14.4834 9.14198C14.4834 8.37054 15.0971 7.76055 15.8354 7.76055C16.5737 7.76055 17.1874 8.37054 17.1874 9.14198C17.1874 9.91341 16.5737 10.5234 15.8354 10.5234C15.0971 10.5234 14.4834 9.91341 14.4834 9.14198ZM15.8354 6.56055C14.4175 6.56055 13.2834 7.72478 13.2834 9.14198C13.2834 10.5592 14.4175 11.7234 15.8354 11.7234C17.2533 11.7234 18.3874 10.5592 18.3874 9.14198C18.3874 7.72478 17.2533 6.56055 15.8354 6.56055Z" fill="#EA1917"/>
</svg>
