<svg width="35" height="33" viewBox="0 0 35 33" fill="none" xmlns="http://www.w3.org/2000/svg">
<g clip-path="url(#clip0_7362_114065)">
<path fill-rule="evenodd" clip-rule="evenodd" d="M17.002 32.4619C7.6131 32.4619 0.00195312 25.2984 0.00195312 16.4619C0.00195312 7.62528 7.6131 0.460938 17.002 0.460938C26.3908 0.460938 34.002 7.62528 34.002 16.4619C34.002 25.2984 26.3908 32.4619 17.002 32.4619ZM10.6682 11.5439L10.4215 11.5713C10.2768 11.5979 10.1184 11.6536 10.0028 11.7158C9.32961 12.0779 9.0003 12.7681 8.81378 13.5745C8.54567 14.7284 9.12755 15.7807 9.86001 16.2223C10.1048 16.3695 10.507 16.5405 10.9665 16.4692C11.9612 16.3156 12.5208 15.9005 12.7986 15.0977C12.9404 14.6881 13.0327 13.7857 12.8889 13.2938C12.6441 12.4619 11.8252 11.5284 10.6682 11.5439ZM15.4078 7.86757C15.2272 7.79899 15.0232 7.77522 14.7648 7.77797L14.5559 7.80631C14.3908 7.85019 14.2344 7.90231 14.1003 7.97728C13.4349 8.34757 13.1085 9.01774 12.9336 9.84334C12.8948 10.0235 12.8773 10.2868 12.9113 10.4815C12.9482 10.6973 12.9326 10.8792 12.9861 11.0712C13.1609 11.703 13.4533 12.2095 13.9429 12.5524C14.1664 12.7096 14.5287 12.93 14.9746 12.8614C16.0111 12.7023 16.5026 11.9864 16.7465 11.1051C17.1312 9.71351 16.4201 8.25157 15.4078 7.86757ZM16.7241 14.4596C16.5522 14.5217 16.3443 14.5025 16.1782 14.5483C15.6983 14.6817 15.3292 14.9067 14.9824 15.159C14.619 15.4232 14.4121 15.8219 14.145 16.1748C13.9196 16.4701 13.6311 16.7151 13.3892 16.9903L13.0531 17.313C12.7014 17.5727 12.3954 17.8936 12.0438 18.1496C11.2511 18.7265 10.6945 19.1178 10.1748 19.9608C9.45201 21.132 10.1077 22.882 10.9441 23.5C11.2317 23.7121 11.5804 23.8923 11.9913 23.9873C12.1924 24.034 12.4207 24.0148 12.649 24.0486H13.0084C13.1784 24.0751 13.4261 24.066 13.5913 24.0422L13.9507 24.0285C14.3033 23.9745 14.654 23.9809 14.9892 23.9188C15.3738 23.8475 15.7488 23.788 16.1481 23.7194L16.6348 23.692L17.1059 23.6856C17.4624 23.7396 17.8092 23.7323 18.1376 23.7953L19.1313 24.0422L19.8648 24.1656C20.8488 24.3412 22.0233 24.1729 22.646 23.8292C22.95 23.6609 23.2084 23.4415 23.4085 23.1782C23.9059 22.5226 24.2109 21.1649 23.7748 20.2424C23.4794 19.6171 22.985 19.2522 22.4439 18.8564C22.0262 18.551 21.6648 18.1825 21.2704 17.8552C20.9913 17.632 20.7312 17.3887 20.4923 17.1275C20.1902 16.7828 19.8444 16.4628 19.5724 16.0925C19.2819 15.6948 18.9837 15.2852 18.563 15.0081C18.0773 14.6872 17.5848 14.4468 16.7241 14.4596ZM20.8809 8.40974C20.6594 8.27808 20.4194 8.14368 20.0513 8.14917L19.857 8.16928L19.4908 8.30002C18.7802 8.68789 18.2455 9.30761 17.988 10.0417C17.9287 10.2118 17.9122 10.391 17.8762 10.5912C17.8296 10.8463 17.8588 11.2084 17.9054 11.4278C18.1006 12.3457 18.5009 12.8248 19.4908 13.0123C20.1241 13.132 20.6283 12.8212 20.9557 12.5798C21.5084 12.1739 21.8805 11.4881 22.0398 10.7284C22.2516 9.72265 21.4734 8.75991 20.8809 8.40974ZM25.1658 14.391C24.8521 13.4374 24.2381 12.7627 22.8626 12.7791L22.6081 12.8065L22.2642 12.8952C21.7474 13.0872 21.4239 13.495 21.2471 13.9997C21.1558 14.263 21.1441 14.551 21.0907 14.8573V15.6052C21.1402 15.8959 21.1208 16.1446 21.2024 16.3869C21.4569 17.1329 21.9154 17.4036 22.8257 17.5535C23.1122 17.6001 23.5066 17.5965 23.7748 17.5325C24.6053 17.3341 24.9803 16.8267 25.1726 16.044C25.228 15.8228 25.1892 15.5997 25.2329 15.351C25.2789 15.03 25.2561 14.7036 25.1658 14.391ZM18.5932 18.7613V20.6383C18.5932 20.6383 18.564 21.1695 18.6738 21.313C18.8312 21.5197 19.005 21.4804 19.3888 21.4804L20.0085 21.474V18.7613H21.3384V22.3892H19.6588C18.8195 22.3892 18.2629 22.4678 17.8345 22.082C17.4313 21.7199 17.4624 21.2637 17.4624 20.5377C17.4644 19.8603 17.4624 18.7613 17.4624 18.7613H18.5932ZM14.9377 22.3892C14.5977 22.3892 14.1392 22.4395 13.8545 22.3691C12.9948 22.1588 12.5217 21.6413 12.3362 20.8047C12.2915 20.599 12.2653 20.62 12.307 20.3841C12.3372 20.2196 12.3576 20.087 12.4168 19.9563C12.7014 19.3217 13.2454 18.8491 14.0809 18.7192L15.2097 18.7128L15.231 18.7064L15.2456 16.9693C15.2581 16.9629 15.2704 16.9562 15.2825 16.9492L16.5221 16.9629L16.5192 22.3892H14.9377ZM15.1873 19.6353L14.3072 19.6289C14.0848 19.6637 13.634 19.8603 13.497 20.2635C13.497 20.8367 13.5767 21.2865 14.1693 21.4539C14.3218 21.4968 14.5442 21.4804 14.7385 21.4804C15.1698 21.4758 15.1873 21.4804 15.1873 21.4804V19.6353Z" fill="#646464"/>
</g>
<defs>
<clipPath id="clip0_7362_114065">
<rect width="34" height="32" fill="white" transform="translate(0.00195312 0.464844)"/>
</clipPath>
</defs>
</svg>
