<svg width="60" height="60" viewBox="0 0 60 60" fill="none" xmlns="http://www.w3.org/2000/svg">
<path fill-rule="evenodd" clip-rule="evenodd" d="M10.736 7.72322C10.5833 7.89817 10.4865 8.14008 10.4865 8.38346V38.7093C10.4865 46.2879 16.6434 52.4937 24.1622 52.4937H48.4055C48.4775 52.4937 48.6228 52.4541 48.7776 52.2768C48.9303 52.1018 49.0271 51.8599 49.0271 51.6165V26.3033H51.5136V51.6165C51.5136 53.2811 50.2313 55 48.4055 55H24.1622H23.6649V54.9923C15.0007 54.7253 8 47.5044 8 38.7093V8.38346C8 6.71887 9.28232 5 11.1081 5H33.9839V7.50627H11.1081C11.0361 7.50627 10.8909 7.54586 10.736 7.72322ZM41.5573 12.2756L20.9789 32.9145L19.9235 39.974L26.9273 38.9103L47.4034 18.1682L41.5573 12.2756ZM43.3199 10.5078L49.1572 16.3916L51.4911 14.0274L51.4927 14.0235L51.4951 14.0172C51.5045 13.9913 51.5135 13.9491 51.5135 13.8972C51.5135 13.8453 51.5045 13.8032 51.4951 13.7772C51.4936 13.7731 51.4923 13.7697 51.4911 13.7672L45.9236 8.15537L45.9203 8.15397L45.9136 8.15137C45.8879 8.14193 45.8461 8.13283 45.7946 8.13283C45.7431 8.13283 45.7013 8.14193 45.6755 8.15137C45.6713 8.15292 45.668 8.15429 45.6655 8.15542L43.3199 10.5078ZM45.7946 5.62657C46.4143 5.62657 47.1337 5.83073 47.6683 6.36954L53.2629 12.0086C53.7975 12.5475 54 13.2726 54 13.8972C54 14.5214 53.7977 15.246 53.2641 15.7847L53.2629 15.7858L28.4001 40.9716C28.212 41.1622 27.9679 41.2868 27.7041 41.3269L18.6284 42.7053C18.2381 42.7646 17.8431 42.6336 17.564 42.3523C17.285 42.071 17.155 41.6728 17.2138 41.2794L18.5814 32.1316C18.6211 31.8657 18.7447 31.6197 18.9338 31.43L43.9209 6.36954L43.9219 6.36845C44.4564 5.83045 45.1753 5.62657 45.7946 5.62657Z" fill="#1D1D1B"/>
</svg>
