<svg width="48" height="48" viewBox="0 0 48 48" fill="none" xmlns="http://www.w3.org/2000/svg">
<path fill-rule="evenodd" clip-rule="evenodd" d="M3.5 23.9999C3.5 12.6781 12.6781 3.5 23.9999 3.5C29.8216 3.5 35.0763 5.92604 38.8088 9.82442H33.7619H33.0119V11.3244H33.7619H40.4724H41.2224V10.5744V3.86392V3.11392H39.7224V3.86392V8.61164C35.7295 4.53272 30.1603 2 23.9999 2C11.8497 2 2 11.8497 2 23.9999C2 36.1501 11.8497 45.9998 23.9999 45.9998C36.1501 45.9998 45.9998 36.1501 45.9998 23.9999C45.9998 23.2473 45.962 22.5032 45.8881 21.7696L45.813 21.0234L44.3205 21.1737L44.3957 21.92C44.4645 22.6037 44.4998 23.2976 44.4998 23.9999C44.4998 35.3217 35.3217 44.4998 23.9999 44.4998C12.6781 44.4998 3.5 35.3217 3.5 23.9999ZM21.1 31.7488C21.8395 31.9442 22.6279 32.0558 23.4651 32.0837V33.8H24.7837V32.0419C26.1372 31.9302 27.1488 31.5535 27.8186 30.9116C28.4883 30.2698 28.8232 29.4256 28.8232 28.3791C28.8232 27.9186 28.7604 27.507 28.6348 27.1442C28.5232 26.7674 28.3139 26.4186 28.0069 26.0977C27.7139 25.7628 27.3023 25.4488 26.7721 25.1558C26.2558 24.8628 25.593 24.5628 24.7837 24.2558V19.0233C25.2721 19.0651 25.7535 19.1698 26.2279 19.3372C26.7023 19.5047 27.1558 19.7209 27.5883 19.986L28.2162 18.6884C27.686 18.3953 27.1488 18.1581 26.6046 17.9767C26.0604 17.7953 25.4535 17.6837 24.7837 17.6419V15.8H23.4651V17.6628C22.1535 17.7744 21.1628 18.1512 20.493 18.793C19.8232 19.4209 19.4883 20.2372 19.4883 21.2419C19.4883 21.7442 19.5511 22.1977 19.6767 22.6023C19.8162 22.993 20.0395 23.3488 20.3465 23.6698C20.6674 23.9907 21.079 24.2907 21.5814 24.5698C22.0837 24.8488 22.7116 25.1279 23.4651 25.407V30.7651C22.1395 30.6953 20.9116 30.3465 19.7814 29.7186C19.6697 29.9279 19.5721 30.1372 19.4883 30.3465C19.4046 30.5558 19.3069 30.7651 19.1953 30.9744C19.7255 31.2953 20.3604 31.5535 21.1 31.7488ZM21.2046 21.8907C21.1348 21.6674 21.1 21.4163 21.1 21.1372C21.1 20.5512 21.2953 20.0767 21.686 19.714C22.0767 19.3512 22.6697 19.1279 23.4651 19.0442V23.7535C22.9907 23.5023 22.6 23.2791 22.293 23.0837C21.986 22.8884 21.7418 22.693 21.5604 22.4977C21.393 22.3023 21.2744 22.1 21.2046 21.8907ZM27.086 27.7093C27.1697 27.9465 27.2116 28.2116 27.2116 28.5047C27.2116 29.0907 27.0023 29.5721 26.5837 29.9488C26.179 30.3256 25.579 30.5698 24.7837 30.6814V25.9093C25.2581 26.0907 25.6488 26.2721 25.9558 26.4535C26.2767 26.6349 26.5279 26.8302 26.7093 27.0395C26.8907 27.2488 27.0162 27.4721 27.086 27.7093Z" fill="black"/>
</svg>
