<svg width="64" height="64" viewBox="0 0 64 64" fill="none" xmlns="http://www.w3.org/2000/svg">
<path fill-rule="evenodd" clip-rule="evenodd" d="M3.66406 5.33203H2.66406V6.33203V21.5167V42.638V43.638H3.66406H11.7871V50.332V52.243L13.3572 51.1536L24.1894 43.638H50.3307H51.3307V42.638V6.33203V5.33203H50.3307H19.4528H3.66406ZM4.66406 21.5167V7.33203H19.4528H49.3307V41.638H23.8765H23.5636L23.3064 41.8164L13.7871 48.4211V42.638V41.638H12.7871H4.66406V21.5167ZM11.9922 17.332H12.9922H39.6589H40.6589V19.332H39.6589H12.9922H11.9922V17.332ZM11.9922 28.332H12.9922H30.3255H31.3255V30.332H30.3255H12.9922H11.9922V28.332Z" fill="black"/>
<path fill-rule="evenodd" clip-rule="evenodd" d="M61.3359 25.6641H60.3359H50.6693H49.6693V27.6641H50.6693H59.3359V36.3683V51.4221H53.2943H52.2943V52.4221V56.7683L44.7352 51.5967L44.4799 51.4221H44.1706H29.3359V42.6647V41.6647H27.3359V42.6647V52.4221V53.4221H28.3359H43.8612L52.7296 59.4894L54.2943 60.5599V58.6641V53.4221H60.3359H61.3359V52.4221V36.3683V26.6641V25.6641Z" fill="black"/>
</svg>
