<svg width="16" height="16" viewBox="0 0 16 16" fill="none" xmlns="http://www.w3.org/2000/svg">
<g clip-path="url(#clip0_5329_492177)">
<path d="M11.9051 4.91607C11.7019 4.91607 11.5171 4.9682 11.3508 5.05942L8.2648 2.98737C8.11081 2.88312 7.91986 2.88312 7.76587 2.98737L3.84221 5.6263C3.7067 5.71752 3.62662 5.87391 3.62662 6.04332V9.95285C3.20161 10.1483 2.91211 10.5914 2.91211 11.1062C2.91211 11.8034 3.44799 12.3637 4.10091 12.3637C4.75383 12.3637 5.29587 11.8034 5.29587 11.1062C5.29587 10.5784 4.99405 10.1353 4.56288 9.94633V6.31047L8.01842 3.9843L10.7594 5.83481C10.7286 5.94558 10.7163 6.05635 10.7163 6.18015C10.7163 6.71445 11.0305 7.17057 11.474 7.35301V11.2691H7.24847V8.47374H8.77605V10.6435C8.77605 10.6891 8.81301 10.7282 8.85612 10.7282H9.62607C9.66919 10.7282 9.70615 10.6891 9.70615 10.6435V7.97854C9.70615 7.70487 9.49672 7.48333 9.23802 7.48333H6.78034C6.52163 7.48333 6.31837 7.70487 6.31837 7.97854V11.7643C6.31837 12.0379 6.52779 12.2595 6.78034 12.2595H11.9421C12.1946 12.2595 12.4041 12.0379 12.4041 11.7643V7.32695C12.8106 7.12496 13.0939 6.68839 13.0939 6.18667C13.0939 5.48947 12.558 4.9291 11.9051 4.9291V4.91607ZM4.10091 11.5818C3.85453 11.5818 3.65742 11.3733 3.65742 11.1127C3.65742 10.852 3.85453 10.637 4.10091 10.637C4.3473 10.637 4.55056 10.852 4.55056 11.1127C4.55056 11.3733 4.35346 11.5818 4.10091 11.5818ZM11.899 6.6493C11.6526 6.6493 11.4493 6.44079 11.4493 6.18015C11.4493 5.91952 11.6526 5.70449 11.899 5.70449C12.1453 5.70449 12.3425 5.91952 12.3425 6.18015C12.3425 6.44079 12.1453 6.6493 11.899 6.6493Z" fill="black"/>
</g>
<defs>
<clipPath id="clip0_5329_492177">
<rect width="16" height="16" fill="white"/>
</clipPath>
</defs>
</svg>
