<svg width="48" height="48" viewBox="0 0 48 48" fill="none" xmlns="http://www.w3.org/2000/svg">
<path fill-rule="evenodd" clip-rule="evenodd" d="M8.16406 11.1623C8.16406 10.7798 8.46242 10.5 8.79346 10.5H39.2148C39.5459 10.5 39.8442 10.7798 39.8442 11.1623V30.675C39.8442 31.0575 39.5459 31.3373 39.2148 31.3373H38.6312C38.5042 31.3354 38.3781 31.3356 38.2525 31.3359H38.2523L38.1273 31.336H9.89807C9.84123 31.336 9.78322 31.3364 9.72403 31.3373H8.79346C8.46242 31.3373 8.16406 31.0575 8.16406 30.675V11.1623ZM7.12573 32.0192C6.83576 31.6479 6.66406 31.1791 6.66406 30.675V11.1623C6.66406 9.98486 7.60086 9 8.79346 9H39.2148C40.4074 9 41.3442 9.98486 41.3442 11.1623V30.675C41.3442 31.1596 41.1855 31.6116 40.9157 31.9757L40.9615 32.0079C41.1321 32.1279 41.3794 32.3024 41.6863 32.5208L41.7089 32.5369L41.7302 32.5546L45.4956 35.6769C45.5539 35.7253 45.6031 35.7807 45.6428 35.8408C45.8618 36.0977 46.0004 36.4274 46.0004 36.8197C46.0004 38.1525 44.7599 38.9973 43.5355 38.9973H4.46493C3.23772 38.9973 2 38.1425 2 36.8197C2 36.2297 2.31922 35.7766 2.75536 35.5031L6.34878 32.5381L6.35974 32.5291L6.37103 32.5205C6.63075 32.3222 6.88241 32.1569 7.12573 32.0192ZM40.794 33.7269L42.579 35.207H30.2858C30.0295 35.207 29.7909 35.3379 29.6532 35.5541L29.6506 35.5582H18.3498L18.3472 35.5541C18.2095 35.3379 17.9709 35.207 17.7146 35.207H5.47106L7.29216 33.7044C8.28422 32.9507 9.05766 32.8487 9.72922 32.8373H38.5345C39.0949 32.8434 39.4595 32.879 39.8838 33.0842L39.9051 33.0991C39.9492 33.1299 40.0144 33.1756 40.0986 33.2349C40.2631 33.3505 40.5 33.5177 40.794 33.7269ZM3.50076 36.8327L3.50028 36.8331C3.51069 37.0845 3.81008 37.4973 4.46493 37.4973H43.5355C44.2036 37.4973 44.4992 37.0765 44.5004 36.8213L44.4998 36.8199C44.4974 36.8152 44.4891 36.8015 44.4679 36.7839C44.4239 36.7471 44.3392 36.707 44.2215 36.707H30.6973L30.6947 36.7111C30.557 36.9273 30.3184 37.0582 30.0621 37.0582H17.9383C17.682 37.0582 17.4434 36.9273 17.3057 36.7111L17.3031 36.707H3.77896C3.71509 36.707 3.66039 36.7195 3.61653 36.7372L3.50076 36.8327ZM16.1094 22.169C14.9427 22.8426 14.9427 24.5265 16.1094 25.2001L22.0047 28.6038C23.1714 29.2774 24.6297 28.4354 24.6297 27.0883V25.4425H23.1297V27.0883C23.1297 27.2807 22.9214 27.401 22.7547 27.3048L16.8594 23.9011C16.6927 23.8048 16.6927 23.5643 16.8594 23.4681L22.7547 20.0644C22.9214 19.9681 23.1297 20.0884 23.1297 20.2809V20.2965V22.3314C23.1297 23.5056 24.4009 24.2395 25.4178 23.6524L31.9871 19.8595C33.004 19.2724 33.004 17.8047 31.9871 17.2176L25.4178 13.4248C24.4009 12.8377 23.1297 13.5715 23.1297 14.7458V16.9233H24.6297V14.7458C24.6297 14.7393 24.6306 14.7362 24.6308 14.7354C24.631 14.7345 24.6313 14.734 24.6316 14.7334C24.6326 14.7317 24.6358 14.7276 24.6424 14.7238C24.649 14.72 24.6542 14.7193 24.6561 14.7193L24.6571 14.7193L24.6583 14.7195C24.6587 14.7196 24.6598 14.7199 24.6616 14.7207C24.6632 14.7213 24.6652 14.7223 24.6678 14.7238L31.2371 18.5166C31.2427 18.5199 31.245 18.5221 31.2455 18.5227C31.2462 18.5233 31.2465 18.5238 31.2469 18.5244C31.2478 18.5261 31.2498 18.531 31.2498 18.5386C31.2498 18.5462 31.2478 18.551 31.2469 18.5527C31.2465 18.5533 31.2462 18.5538 31.2455 18.5545C31.245 18.555 31.2427 18.5573 31.2371 18.5605L24.6678 22.3533C24.6621 22.3566 24.659 22.3574 24.6583 22.3576L24.6572 22.3578L24.6561 22.3579C24.6542 22.3578 24.649 22.3571 24.6424 22.3533C24.6358 22.3495 24.6326 22.3454 24.6316 22.3437C24.6313 22.3431 24.631 22.3426 24.6308 22.3417C24.6306 22.341 24.6297 22.3379 24.6297 22.3314V20.2965V20.2809C24.6297 18.9337 23.1714 18.0918 22.0047 18.7653L16.1094 22.169Z" fill="#333333"/>
</svg>
