<svg width="60" height="60" viewBox="0 0 60 60" fill="none" xmlns="http://www.w3.org/2000/svg">
<path fill-rule="evenodd" clip-rule="evenodd" d="M49.2419 7.13004C49.5397 6.92731 49.9395 6.96495 50.1943 7.21968L51.4887 8.51413L52.7832 9.80858C53.0379 10.0633 53.0755 10.4632 52.8728 10.761L48.0416 17.8575C47.9119 18.0479 47.702 18.1682 47.4722 18.1837L45.1866 18.3381L34.2945 29.2487L36.6764 31.6306C36.6924 31.6467 36.7077 31.6633 36.722 31.6805L38.6596 33.618C42.3965 31.9228 46.9513 32.6105 50.0254 35.6846C51.9397 37.5989 52.9292 40.0897 52.9931 42.5974C52.9983 42.8029 52.919 43.0015 52.7737 43.1468L50.6149 45.3056C50.322 45.5985 49.8472 45.5985 49.5543 45.3056L45.6161 41.3675L42.2497 42.2542L41.3629 45.6207L45.301 49.5588C45.5939 49.8517 45.5939 50.3266 45.301 50.6195L43.1423 52.7782C42.9969 52.9236 42.7983 53.0029 42.5928 52.9977C40.0851 52.9338 37.5944 51.9443 35.6801 50.0299C32.606 46.9558 31.9183 42.4011 33.6135 38.6641L29.2479 34.2985L27.5588 35.9858L28.5072 36.9342C29.1906 37.6176 29.1906 38.7257 28.5072 39.4091L27.0089 40.9074C26.7878 41.1285 26.5223 41.278 26.241 41.3561L26.2341 41.3631L15.4028 52.1944C14.3289 53.2683 12.5877 53.2683 11.5137 52.1944L7.87111 48.5518C6.79652 47.4772 6.79726 45.7347 7.87276 44.661L18.693 33.8592C18.7676 33.563 18.9207 33.2825 19.1524 33.0509L20.6507 31.5526C21.3341 30.8691 22.4422 30.8691 23.1256 31.5526L24.0442 32.4712L24.4388 32.0783L24.4388 32.0783L24.6434 31.8746C24.9452 31.5743 25.2945 31.2262 25.7349 30.7855L23.317 28.3676C23.3009 28.3515 23.2857 28.3349 23.2714 28.3178L21.3338 26.3802C17.5968 28.0754 13.0421 27.3877 9.96795 24.3136C8.05364 22.3993 7.06414 19.9085 7.00024 17.4008C6.99501 17.1953 7.07433 16.9967 7.21967 16.8514L9.37843 14.6926C9.67133 14.3997 10.1462 14.3997 10.4391 14.6926L14.3772 18.6307L17.7437 17.744L18.6304 14.3775L14.6923 10.4394C14.3994 10.1465 14.3994 9.67164 14.6923 9.37874L16.8511 7.21998C16.9964 7.07464 17.195 6.99532 17.4005 7.00055C19.9082 7.06445 22.399 8.05395 24.3133 9.96826C27.3874 13.0424 28.0751 17.5971 26.3799 21.3341L30.7798 25.734C33.3533 23.1538 36.0418 20.4655 38.1283 18.3808C39.2362 17.274 40.1744 16.3372 40.8357 15.6772L41.6064 14.908L41.6795 14.8351L41.8188 12.5359C41.8329 12.3041 41.9534 12.0919 42.1454 11.9613L49.2419 7.13004ZM31.8404 26.7947L33.2338 28.1881L44.3241 17.079C44.4524 16.9504 44.6231 16.8728 44.8043 16.8605L47.007 16.7117L51.2834 10.4301L50.4281 9.57479L49.5727 8.71943L43.2938 12.994L43.1595 15.2102C43.1484 15.3934 43.0705 15.5662 42.9405 15.6959L42.4109 15.1649L42.9405 15.6959L42.9403 15.6962L42.9394 15.697L42.9361 15.7003L42.9228 15.7136L42.8702 15.766L42.6659 15.9699L41.8953 16.7389C41.2342 17.3987 40.2962 18.3353 39.1885 19.442C37.1019 21.5267 34.4135 24.215 31.8404 26.7947ZM26.7956 31.8462C26.3541 32.2879 26.004 32.6368 25.7017 32.9377L25.4963 33.1421L25.4963 33.1421L25.1049 33.5318L26.4981 34.9251L28.1872 33.2378L26.7956 31.8462ZM19.1496 35.5229L19.1524 35.5257L24.534 40.9074L24.5514 40.9245L14.3421 51.1337C13.854 51.6219 13.0625 51.6219 12.5744 51.1337L11.2828 49.8421L18.3898 42.7351C18.6826 42.4422 18.6826 41.9674 18.3898 41.6745C18.0969 41.3816 17.622 41.3816 17.3291 41.6745L10.2221 48.7815L8.93177 47.4911C8.44332 47.0027 8.44366 46.2106 8.93252 45.7226L19.1496 35.5229ZM20.2131 34.4651C20.1154 34.3674 20.1154 34.2091 20.2131 34.1115L21.7114 32.6132C21.809 32.5156 21.9673 32.5156 22.0649 32.6132L27.4466 37.9949C27.5442 38.0925 27.5442 38.2508 27.4466 38.3484L25.9483 39.8467C25.8506 39.9443 25.6923 39.9443 25.5947 39.8467L20.2131 34.4651ZM24.9413 22.0168L27.5889 24.6645C27.6032 24.6816 27.6184 24.6982 27.6345 24.7143L37.9768 35.0566C38.2085 35.2883 38.5638 35.3428 38.8542 35.1912C42.1134 33.49 46.2288 34.0093 48.9647 36.7453C50.516 38.2965 51.3541 40.2891 51.4798 42.3194L50.0846 43.7146L46.3721 40.0021C46.1834 39.8135 45.9088 39.7392 45.6507 39.8072L41.4448 40.9151C41.1834 40.9839 40.9794 41.188 40.9105 41.4493L39.8026 45.6553C39.7347 45.9133 39.8089 46.188 39.9976 46.3767L43.7101 50.0891L42.3149 51.4843C40.2845 51.3586 38.2919 50.5205 36.7407 48.9693C34.0048 46.2333 33.4854 42.1179 35.1866 38.8588C35.3382 38.5683 35.2838 38.2131 35.0521 37.9814L32.4045 35.3337C32.3901 35.3166 32.3749 35.3 32.3588 35.2839L22.0165 24.9416C21.7848 24.7099 21.4296 24.6554 21.1391 24.807C17.88 26.5082 13.7646 25.9889 11.0286 23.253C9.4774 21.7017 8.63928 19.7091 8.51357 17.6788L9.90876 16.2836L13.6212 19.9961C13.8099 20.1848 14.0846 20.259 14.3426 20.191L18.5486 19.0831C18.8099 19.0143 19.014 18.8102 19.0828 18.5489L20.1907 14.3429C20.2587 14.0849 20.1844 13.8102 19.9958 13.6216L16.2833 9.90907L17.6785 8.51388C19.7088 8.63959 21.7014 9.47771 23.2526 11.0289C25.9886 13.7649 26.5079 17.8803 24.8067 21.1394C24.6551 21.4299 24.7096 21.7851 24.9413 22.0168Z" fill="black"/>
</svg>
