<svg width="49" height="48" viewBox="0 0 49 48" fill="none" xmlns="http://www.w3.org/2000/svg">
<path fill-rule="evenodd" clip-rule="evenodd" d="M24.4668 4.1004C24.6989 3.96646 24.9848 3.96654 25.2168 4.10059L41.8665 13.72C41.9847 13.7837 42.0872 13.8799 42.1593 14.0047C42.23 14.1271 42.2623 14.2611 42.2599 14.3929V33.6204C42.2599 33.8883 42.1171 34.1358 41.8851 34.2698L25.2678 43.8705C25.1474 43.9529 25.0017 44.001 24.8449 44.001C24.7928 44.001 24.7421 43.9957 24.693 43.9856C24.6146 43.9698 24.5382 43.9413 24.4668 43.9001L7.77859 34.27C7.54646 34.136 7.40345 33.8884 7.40345 33.6204V14.3929C7.40104 14.2613 7.43326 14.1273 7.50385 14.005C7.57601 13.88 7.67874 13.7836 7.79715 13.7198L24.4668 4.1004ZM40.7599 33.1875L25.5949 41.9492V24.441L40.7599 15.6794V33.1875ZM17.583 20.6872L24.0949 24.445V41.9536L8.90345 33.1873V15.6786L16.0732 19.816C16.0764 19.8183 16.0797 19.8206 16.083 19.8229V26C16.083 26.4142 16.4188 26.75 16.833 26.75C17.2472 26.75 17.583 26.4142 17.583 26V20.6872ZM16.5984 18.2874L31.686 9.57053L24.8414 5.61605L9.65421 14.38L16.4975 18.329C16.5299 18.3128 16.5636 18.2989 16.5984 18.2874ZM33.1853 10.4367L40.0105 14.38L24.8414 23.1439L18.0121 19.203L33.1853 10.4367Z" fill="black"/>
</svg>
