<svg width="65" height="64" viewBox="0 0 65 64" fill="none" xmlns="http://www.w3.org/2000/svg">
<g clip-path="url(#clip0_57_40254)">
<path d="M18.8574 18H4.85742C3.75285 18 2.85742 18.8954 2.85742 20V44C2.85742 45.1046 3.75285 46 4.85742 46H18.8574C19.962 46 20.8574 45.1046 20.8574 44V20C20.8574 18.8954 19.962 18 18.8574 18Z" stroke="black" stroke-width="1.5" stroke-linecap="round" stroke-linejoin="round"/>
<path d="M11.8574 42.5C14.895 42.5 17.3574 40.0376 17.3574 37C17.3574 33.9624 14.895 31.5 11.8574 31.5C8.81986 31.5 6.35742 33.9624 6.35742 37C6.35742 40.0376 8.81986 42.5 11.8574 42.5Z" stroke="black" stroke-width="1.5" stroke-linecap="round" stroke-linejoin="round"/>
<path d="M11.8574 28C13.5143 28 14.8574 26.6569 14.8574 25C14.8574 23.3431 13.5143 22 11.8574 22C10.2006 22 8.85742 23.3431 8.85742 25C8.85742 26.6569 10.2006 28 11.8574 28Z" stroke="black" stroke-width="1.5" stroke-linecap="round" stroke-linejoin="round"/>
<path d="M60.8574 18H46.8574C45.7529 18 44.8574 18.8954 44.8574 20V44C44.8574 45.1046 45.7529 46 46.8574 46H60.8574C61.962 46 62.8574 45.1046 62.8574 44V20C62.8574 18.8954 61.962 18 60.8574 18Z" stroke="black" stroke-width="1.5" stroke-linecap="round" stroke-linejoin="round"/>
<path d="M53.8574 42.5C56.895 42.5 59.3574 40.0376 59.3574 37C59.3574 33.9624 56.895 31.5 53.8574 31.5C50.8199 31.5 48.3574 33.9624 48.3574 37C48.3574 40.0376 50.8199 42.5 53.8574 42.5Z" stroke="black" stroke-width="1.5" stroke-linecap="round" stroke-linejoin="round"/>
<path d="M53.8574 28C55.5143 28 56.8574 26.6569 56.8574 25C56.8574 23.3431 55.5143 22 53.8574 22C52.2006 22 50.8574 23.3431 50.8574 25C50.8574 26.6569 52.2006 28 53.8574 28Z" stroke="black" stroke-width="1.5" stroke-linecap="round" stroke-linejoin="round"/>
<path d="M39.8574 32H25.8574C24.7529 32 23.8574 32.8954 23.8574 34V44C23.8574 45.1046 24.7529 46 25.8574 46H39.8574C40.962 46 41.8574 45.1046 41.8574 44V34C41.8574 32.8954 40.962 32 39.8574 32Z" stroke="black" stroke-width="1.5" stroke-miterlimit="10"/>
<path d="M36.5176 39C37.6221 39 38.5176 38.1046 38.5176 37C38.5176 35.8954 37.6221 35 36.5176 35C35.413 35 34.5176 35.8954 34.5176 37C34.5176 38.1046 35.413 39 36.5176 39Z" stroke="black" stroke-width="1.5" stroke-miterlimit="10"/>
<path d="M28.8574 42.3086H36.8574" stroke="black" stroke-width="1.5" stroke-miterlimit="10" stroke-linecap="round"/>
</g>
<defs>
<clipPath id="clip0_57_40254">
<rect width="61.5" height="29.5" fill="white" transform="translate(2.10742 17.25)"/>
</clipPath>
</defs>
</svg>
