<svg width="13" height="12" viewBox="0 0 13 12" fill="none" xmlns="http://www.w3.org/2000/svg">
<path fill-rule="evenodd" clip-rule="evenodd" d="M8.00086 0.000488281C7.72472 0.000488281 7.50086 0.224346 7.50086 0.500488C7.50086 0.776631 7.72472 1.00049 8.00086 1.00049H10.3452L5.62721 6.02397C5.43816 6.22526 5.44809 6.54168 5.64937 6.73073C5.85066 6.91977 6.16709 6.90985 6.35613 6.70856L11.0007 1.76325L11.0006 4.03933C11.0006 4.31547 11.2245 4.53933 11.5006 4.53934C11.7768 4.53934 12.0006 4.31549 12.0006 4.03935L12.0007 0.500497L12.0007 0.000488281H11.5007H8.00086ZM10.4996 6.44326C10.4996 6.16712 10.2757 5.94326 9.99957 5.94326C9.72343 5.94326 9.49957 6.16712 9.49957 6.44326V10.9993L1 10.9996L1 2.39111H5.50098C5.77712 2.39111 6.00098 2.16726 6.00098 1.89111C6.00098 1.61497 5.77712 1.39111 5.50098 1.39111L0.501221 1.39111C0.320665 1.39111 0.162459 1.48681 0.0745697 1.63026C0.0272903 1.70663 0 1.79667 0 1.89309V11.4996V11.9996L0.500019 11.9996L9.99959 11.9992L10.4996 11.9992V11.4992V6.44326Z" fill="white"/>
</svg>
