<svg width="51" height="52" viewBox="0 0 51 52" fill="none" xmlns="http://www.w3.org/2000/svg">
<path fill-rule="evenodd" clip-rule="evenodd" d="M48.409 7.70394L48.4098 7.70309C48.4215 7.69146 48.4407 7.66775 48.459 7.61764C48.4789 7.56303 48.4908 7.49452 48.4908 7.42743C48.4908 7.36027 48.4789 7.29172 48.4589 7.2371C48.4406 7.187 48.4215 7.16332 48.4097 7.15171L43.3015 2.08755C43.2895 2.0756 43.2631 2.05446 43.2072 2.03439C43.1471 2.0128 43.0722 2 42.9988 2C42.9254 2 42.8506 2.01278 42.7905 2.03435C42.735 2.05426 42.7085 2.07524 42.6964 2.08723L42.6961 2.08749L42.6958 2.08782L42.6925 2.09106L36.7647 7.93847L42.4587 13.6323L48.4062 7.70667L48.4079 7.705L48.409 7.70394ZM20.124 24.3535L35.3408 9.34303L41.0419 15.044L25.9442 30.0862L19.789 30.4143L20.124 24.3535ZM26.481 32.0604L19.0354 32.4573C18.6791 32.5105 18.3184 32.3928 18.0636 32.1402C17.8088 31.8876 17.6901 31.53 17.7438 31.1768L18.1514 23.8027C18.1877 23.5638 18.3005 23.3429 18.4732 23.1726L41.288 0.667223L41.2889 0.666247C41.7769 0.183098 42.4333 0 42.9988 0C43.5646 0 44.2215 0.183344 44.7096 0.667223L49.8178 5.73138C50.3059 6.21526 50.4908 6.86646 50.4908 7.42743C50.4908 7.98799 50.3062 8.63865 49.8189 9.12242L49.8178 9.12348L27.1166 31.7414C26.9447 31.9126 26.7219 32.0244 26.481 32.0604ZM39.0743 49.0003V22.651L41.0743 20.6583V49.0003C41.0743 50.6572 39.7311 52.0003 38.0743 52.0003H3.9253C2.26844 52.0003 0.925293 50.6572 0.925293 49.0003V5.003C0.925293 3.34614 2.26844 2.003 3.92529 2.003L35.2343 2.00296H36.0743C36.3904 2.00296 36.6997 2.0323 36.9995 2.0884L35.0586 4.00296L3.92529 4.003C3.37301 4.003 2.92529 4.45071 2.92529 5.003V49.0003C2.92529 49.5526 3.37301 50.0003 3.9253 50.0003H38.0743C38.6266 50.0003 39.0743 49.5526 39.0743 49.0003Z" fill="#646464"/>
</svg>
