<svg width="64" height="64" viewBox="0 0 64 64" fill="none" xmlns="http://www.w3.org/2000/svg">
<path d="M43.9746 22.4985L41.5507 20.4093L30.1564 33.6288L22.5249 27.8432L20.5917 30.3932L30.6181 37.9945L43.9746 22.4985Z" fill="black"/>
<path fill-rule="evenodd" clip-rule="evenodd" d="M55.1982 14.7772L55.2118 14.7772L55.2062 17.9772C55.2025 20.194 55.1983 22.9641 55.1983 24.222C55.1983 44.6462 40.9701 53.0401 34.2302 57.0163C33.1116 57.6762 32.1992 58.2145 31.5924 58.6658C30.9861 58.2148 30.0749 57.677 28.9578 57.0177C22.2217 53.0421 8 44.6485 8 24.222V14.7772C12.1951 14.7772 18.7913 7.35639 18.7913 5.33252H44.4205C44.4205 7.47552 50.9756 14.7616 55.1982 14.7772ZM50.1114 16.3551C50.6865 16.6964 51.3248 17.0287 52.0074 17.3027L52.0051 18.6444C52.0017 20.7214 51.9983 23.0855 51.9983 24.222C51.9983 42.6024 39.7323 49.9574 32.8359 54.0927C32.3983 54.3551 31.9824 54.6045 31.5925 54.8429C31.204 54.6052 30.7896 54.3566 30.3537 54.0951C23.4616 49.9609 11.2 42.6057 11.2 24.222V17.2942C11.8883 17.014 12.5304 16.6744 13.1062 16.3278C14.5781 15.4418 15.9878 14.2835 17.1968 13.1108C18.4086 11.9353 19.5025 10.664 20.3195 9.49306C20.5382 9.17951 20.7482 8.8574 20.9403 8.53252H42.2434C42.4399 8.87197 42.6557 9.20758 42.8809 9.53336C43.7005 10.7186 44.7974 11.9917 46.0114 13.1626C47.2233 14.3315 48.6353 15.4791 50.1114 16.3551Z" fill="black"/>
</svg>
