<svg width="24" height="25" viewBox="0 0 24 25" fill="none" xmlns="http://www.w3.org/2000/svg">
<path fill-rule="evenodd" clip-rule="evenodd" d="M11.7558 3.65039C12.0872 3.65039 12.3558 3.91902 12.3558 4.25039V14.8319L16.6718 10.5565C16.9073 10.3233 17.2872 10.3251 17.5204 10.5606C17.7536 10.796 17.7518 11.1759 17.5163 11.4091L12.1779 16.6972C11.9441 16.9288 11.5673 16.9288 11.3334 16.6972L5.99505 11.4091C5.75963 11.1759 5.75783 10.796 5.99103 10.5606C6.22423 10.3251 6.60413 10.3233 6.83955 10.5565L11.1558 14.8322V4.25039C11.1558 3.91902 11.4245 3.65039 11.7558 3.65039ZM3.74844 20.1504C3.41707 20.1504 3.14844 20.419 3.14844 20.7504C3.14844 21.0818 3.41707 21.3504 3.74844 21.3504H20.2489C20.5803 21.3504 20.8489 21.0818 20.8489 20.7504C20.8489 20.419 20.5803 20.1504 20.2489 20.1504H3.74844Z" fill="white"/>
</svg>
