<svg width="60" height="60" viewBox="0 0 60 60" fill="none" xmlns="http://www.w3.org/2000/svg">
<path fill-rule="evenodd" clip-rule="evenodd" d="M11.25 4.50049C9.18693 4.50049 7.625 6.26278 7.625 8.37549V38.6255C7.625 47.6443 14.8384 55.1177 23.8607 55.3755H48.75C50.8131 55.3755 52.375 53.6132 52.375 51.5005V22.5005C52.375 21.0069 51.831 19.6161 50.7152 18.6338L37.8518 6.02017C36.8896 5.0588 35.6404 4.50049 34.25 4.50049H11.25ZM11.125 8.37549C11.125 8.25097 11.1723 8.14023 11.2342 8.06284C11.2589 8.03199 11.2816 8.01192 11.2973 8.00049H33.125V20.1255C33.125 23.1349 35.4575 25.6255 38.5 25.6255H49V51.0005H48.875V51.5005C48.875 51.625 48.8277 51.7358 48.7658 51.8131C48.7411 51.844 48.7184 51.8641 48.7027 51.8755H24.375C17.0261 51.8755 11.125 45.9743 11.125 38.6255V8.37549ZM36.75 20.1255V9.69898L48.272 21.1046C48.5412 21.374 48.7173 21.6821 48.8062 22.0005H38.5C37.5604 22.0005 36.75 21.1349 36.75 20.1255Z" fill="#1D1D1B"/>
<path d="M23.8607 55.3755L23.8393 56.1252L23.85 56.1255H23.8607V55.3755ZM50.7152 18.6338L50.1901 19.1693L50.2045 19.1834L50.2196 19.1968L50.7152 18.6338ZM37.8518 6.02017L37.3217 6.55076L37.3267 6.55568L37.8518 6.02017ZM11.2342 8.06284L10.6485 7.59431L10.6485 7.59431L11.2342 8.06284ZM11.2973 8.00049V7.25049H11.0532L10.8558 7.39417L11.2973 8.00049ZM33.125 8.00049H33.875V7.25049H33.125V8.00049ZM49 25.6255H49.75V24.8755H49V25.6255ZM49 51.0005V51.7505H49.75V51.0005H49ZM48.875 51.0005V50.2505H48.125V51.0005H48.875ZM48.7658 51.8131L49.3514 52.2817L49.3515 52.2817L48.7658 51.8131ZM48.7027 51.8755V52.6255H48.9468L49.1441 52.4819L48.7027 51.8755ZM36.75 9.69898L37.2776 9.16597L36 7.90124V9.69898H36.75ZM48.272 21.1046L48.8026 20.5745L48.7997 20.5716L48.272 21.1046ZM48.8062 22.0005V22.7505H49.7943L49.5285 21.7987L48.8062 22.0005ZM8.375 8.37549C8.375 6.61698 9.65871 5.25049 11.25 5.25049V3.75049C8.71515 3.75049 6.875 5.90858 6.875 8.37549H8.375ZM8.375 38.6255V8.37549H6.875V38.6255H8.375ZM23.8821 54.6258C15.2683 54.3797 8.375 47.2411 8.375 38.6255H6.875C6.875 48.0474 14.4086 55.8557 23.8393 56.1252L23.8821 54.6258ZM48.75 54.6255H23.8607V56.1255H48.75V54.6255ZM51.625 51.5005C51.625 53.259 50.3413 54.6255 48.75 54.6255V56.1255C51.2849 56.1255 53.125 53.9674 53.125 51.5005H51.625ZM51.625 22.5005V51.5005H53.125V22.5005H51.625ZM50.2196 19.1968C51.1517 20.0173 51.625 21.1912 51.625 22.5005H53.125C53.125 20.8226 52.5103 19.2149 51.2108 18.0709L50.2196 19.1968ZM37.3267 6.55568L50.1901 19.1693L51.2403 18.0983L38.3769 5.48467L37.3267 6.55568ZM34.25 5.25049C35.4286 5.25049 36.4906 5.72037 37.3217 6.55074L38.3819 5.48961C37.2885 4.39723 35.8523 3.75049 34.25 3.75049V5.25049ZM11.25 5.25049H34.25V3.75049H11.25V5.25049ZM10.6485 7.59431C10.4915 7.79064 10.375 8.0635 10.375 8.37549H11.875C11.875 8.40839 11.8688 8.43741 11.8599 8.46145C11.8513 8.4846 11.8386 8.50787 11.8198 8.53136L10.6485 7.59431ZM10.8558 7.39417C10.7841 7.44642 10.7133 7.51336 10.6485 7.59431L11.8198 8.53136C11.8044 8.55061 11.7791 8.57742 11.7387 8.60681L10.8558 7.39417ZM33.125 7.25049H11.2973V8.75049H33.125V7.25049ZM33.875 20.1255V8.00049H32.375V20.1255H33.875ZM38.5 24.8755C35.8969 24.8755 33.875 22.7465 33.875 20.1255H32.375C32.375 23.5234 35.018 26.3755 38.5 26.3755V24.8755ZM49 24.8755H38.5V26.3755H49V24.8755ZM49.75 51.0005V25.6255H48.25V51.0005H49.75ZM48.875 51.7505H49V50.2505H48.875V51.7505ZM49.625 51.5005V51.0005H48.125V51.5005H49.625ZM49.3515 52.2817C49.5085 52.0853 49.625 51.8125 49.625 51.5005H48.125C48.125 51.4676 48.1312 51.4386 48.1401 51.4145C48.1487 51.3914 48.1614 51.3681 48.1802 51.3446L49.3515 52.2817ZM49.1441 52.4819C49.216 52.4295 49.2868 52.3625 49.3514 52.2817L48.1802 51.3446C48.1955 51.3254 48.2209 51.2986 48.2614 51.2691L49.1441 52.4819ZM24.375 52.6255H48.7027V51.1255H24.375V52.6255ZM10.375 38.6255C10.375 46.3886 16.6119 52.6255 24.375 52.6255V51.1255C17.4404 51.1255 11.875 45.5601 11.875 38.6255H10.375ZM10.375 8.37549V38.6255H11.875V8.37549H10.375ZM36 9.69898V20.1255H37.5V9.69898H36ZM48.7997 20.5716L37.2776 9.16597L36.2224 10.232L47.7444 21.6377L48.7997 20.5716ZM49.5285 21.7987C49.4038 21.352 49.1597 20.9319 48.8026 20.5745L47.7415 21.6348C47.9227 21.8161 48.0307 22.0122 48.0838 22.2022L49.5285 21.7987ZM38.5 22.7505H48.8062V21.2505H38.5V22.7505ZM36 20.1255C36 21.5002 37.0989 22.7505 38.5 22.7505V21.2505C38.0218 21.2505 37.5 20.7695 37.5 20.1255H36Z" fill="white"/>
</svg>
