<svg width="42" height="42" viewBox="0 0 42 42" fill="none" xmlns="http://www.w3.org/2000/svg">
<circle cx="21" cy="21" r="16" fill="#FFCD29"/>
<path d="M20.9984 29.9219C25.9014 29.9219 29.946 26.8118 30.5268 22.7959C30.6059 22.2493 30.1507 21.7988 29.5984 21.7988H12.3984C11.8462 21.7988 11.391 22.2493 11.47 22.7959C12.0509 26.8118 16.0954 29.9219 20.9984 29.9219Z" fill="url(#paint0_linear_8186_243205)"/>
<path d="M17.1953 17.3988C17.0286 16.4388 16.1953 15.7988 15.1953 15.7988C14.1953 15.7988 13.362 16.4388 13.1953 17.3988" stroke="#333333" stroke-width="1.7" stroke-linecap="round"/>
<path d="M28.7969 17.3988C28.6302 16.4388 27.7969 15.7988 26.7969 15.7988C25.7969 15.7988 24.9635 16.4388 24.7969 17.3988" stroke="#333333" stroke-width="1.7" stroke-linecap="round"/>
<defs>
<linearGradient id="paint0_linear_8186_243205" x1="20.9984" y1="21.7988" x2="20.9984" y2="29.9219" gradientUnits="userSpaceOnUse">
<stop stop-color="#F85165"/>
<stop offset="1" stop-color="#EF3254"/>
</linearGradient>
</defs>
</svg>
