<svg width="48" height="48" viewBox="0 0 48 48" fill="none" xmlns="http://www.w3.org/2000/svg">
<g id="Support_Service">
<path id="Union" fill-rule="evenodd" clip-rule="evenodd" d="M37.8779 3.79818C34.9256 3.01886 31.653 3.79401 29.339 6.12264C26.8836 8.59362 26.1637 12.1537 27.1863 15.2648C27.2744 15.5328 27.2047 15.8275 27.0059 16.0276L13.315 29.8054C13.128 29.9936 12.8556 30.069 12.5985 30.0037C10.1857 29.3914 7.52525 30.035 5.63839 31.9338C2.78199 34.8083 2.78199 39.4708 5.63839 42.3453C8.49218 45.2172 13.1171 45.2172 15.9709 42.3453C17.8575 40.4468 18.4996 37.767 17.8912 35.3344C17.8275 35.0796 17.9017 34.8101 18.0868 34.6238L31.6491 20.9755C31.8584 20.7648 32.1723 20.6975 32.4497 20.8039C35.6198 22.0198 39.3414 21.3421 41.8952 18.772C44.2063 16.4462 44.9798 13.1554 44.2104 10.1833L37.5414 16.8946C37.4006 17.0363 37.2091 17.1159 37.0094 17.1159C36.8096 17.1159 36.6182 17.0363 36.4774 16.8946L31.1961 11.5798C30.9054 11.2873 30.9054 10.815 31.1961 10.5225L37.8779 3.79818ZM28.275 5.06534C31.3213 1.9997 35.7906 1.23786 39.5439 2.77843C39.7757 2.87354 39.9446 3.07807 39.9943 3.32359C40.0439 3.56912 39.9677 3.82322 39.7911 4.0009L32.7854 11.0511L37.0094 15.3019L44.0064 8.26048C44.184 8.08171 44.4396 8.00411 44.6867 8.05393C44.9337 8.10374 45.1392 8.27431 45.2337 8.50795C46.7583 12.2781 46.0026 16.7666 42.9592 19.8293C40.0969 22.7098 35.9782 23.5563 32.3778 22.3702L19.4405 35.3895C19.9999 38.1949 19.1998 41.224 17.0349 43.4026C13.5946 46.8648 8.01471 46.8648 4.57438 43.4026C1.13666 39.9431 1.13666 34.336 4.57438 30.8765C6.73922 28.6979 9.75182 27.8904 12.5438 28.4534L25.626 15.2882C24.6413 11.7725 25.5223 7.83557 28.275 5.06534ZM13.1912 34.7317C11.8726 33.4047 9.73666 33.4047 8.41803 34.7317C7.09678 36.0614 7.09678 38.2191 8.41803 39.5487C9.73666 40.8757 11.8726 40.8757 13.1913 39.5487C14.5125 38.2191 14.5125 36.0614 13.1912 34.7317ZM7.35402 33.6744C9.2592 31.7572 12.3501 31.7572 14.2553 33.6744C16.1578 35.5891 16.1578 38.6914 14.2553 40.606C12.3501 42.5233 9.2592 42.5233 7.35402 40.606C5.45145 38.6914 5.45145 35.5891 7.35402 33.6744Z" fill="black"/>
</g>
</svg>
