<svg width="24" height="18" viewBox="0 0 24 18" fill="none" xmlns="http://www.w3.org/2000/svg">
<path fill-rule="evenodd" clip-rule="evenodd" d="M0 1.34579C0 0.602533 0.622908 0 1.3913 0H22.6087C23.3771 0 24 0.602533 24 1.34579V3.02804C24 3.58548 23.5328 4.03738 22.9565 4.03738C22.3802 4.03738 21.913 3.58548 21.913 3.02804V2.01869H2.08696V15.9813H21.913V7.06542H4.86957C4.29327 7.06542 3.82609 6.61352 3.82609 6.05608C3.82609 5.49863 4.29327 5.04673 4.86957 5.04673H22.6087C23.3771 5.04673 24 5.64926 24 6.39252V16.6542C24 17.3975 23.3771 18 22.6087 18H1.3913C0.622907 18 0 17.3975 0 16.6542V1.34579Z" fill="white"/>
</svg>
