<svg width="64" height="64" viewBox="0 0 64 64" fill="none" xmlns="http://www.w3.org/2000/svg">
<path fill-rule="evenodd" clip-rule="evenodd" d="M24.0516 18.0711L24.0217 18.0729C22.7055 18.1518 21.4165 18.4822 20.2246 19.0464L20.1177 19.0969L20.0256 19.171C19.0059 19.9912 18.198 21.0445 17.6698 22.2421C17.1416 23.4397 16.9086 24.7467 16.9903 26.0532L16.9907 26.058C17.1858 28.9537 18.5767 31.7395 19.8665 33.7802L19.9556 33.9494L19.9763 33.9822C22.8483 38.5414 26.9816 42.168 31.8741 44.4215C34.1648 45.524 36.6506 46.163 39.1888 46.3019L39.2161 46.3034H40.664L40.7511 46.2878C41.9597 46.0721 43.1049 45.5894 44.1035 44.8749C45.102 44.1604 45.9286 43.2321 46.5233 42.1576L46.5415 42.1247L46.5572 42.0904C47.1946 40.7011 47.3358 39.135 46.9572 37.654L46.9157 37.4914L46.8233 37.3513C46.4586 36.7979 45.9566 36.3485 45.3665 36.0469L45.3565 36.0419L45.1723 35.9506C45.0549 35.8925 44.8865 35.8092 44.6822 35.7085C44.2736 35.5072 43.7207 35.2359 43.1443 34.9564C42.0703 34.4357 40.8088 33.8338 40.3273 33.6559C39.928 33.479 39.4992 33.3778 39.0626 33.3578L39.0291 33.3562L38.9956 33.357C38.5323 33.3668 38.0801 33.4995 37.685 33.7415C37.3108 33.9708 37.0007 34.2903 36.7827 34.6702C36.3959 35.2035 35.5389 36.2457 35.1356 36.7183L35.0284 36.6865C32.0875 35.1506 29.5559 32.9385 27.6396 30.2353C27.8154 30.039 27.9841 29.8363 28.1453 29.6277L28.4667 29.2525C28.8118 28.8539 29.0947 28.4055 29.3057 27.9223L29.3312 27.8639L29.3836 27.6844C29.6033 27.204 29.6122 26.7228 29.6122 26.4161C29.6122 25.983 29.5171 25.5557 29.3342 25.1643C29.3293 25.1479 29.3245 25.1327 29.3202 25.1192C29.2997 25.0556 29.2736 24.9832 29.2462 24.91C29.1905 24.7613 29.1137 24.5679 29.025 24.3498C28.8468 23.9116 28.6088 23.345 28.3678 22.7756C28.2052 22.3917 28.0436 22.0119 27.8973 21.6679L27.8956 21.664C27.5981 20.9648 27.3638 20.4143 27.3135 20.2799L27.3048 20.2568L27.295 20.2342C27.0331 19.628 26.6936 19.0884 26.2309 18.6953C25.7463 18.2837 25.17 18.0711 24.535 18.0711H24.0516ZM21.1885 20.8038C22.1102 20.3836 23.101 20.1352 24.1123 20.0711H24.535C24.6934 20.0711 24.8114 20.1137 24.9361 20.2197C25.0807 20.3424 25.2625 20.5778 25.4512 21.0093C25.5326 21.219 25.7971 21.8407 26.1027 22.5589C26.2399 22.8812 26.3852 23.2228 26.526 23.5553C26.7667 24.1239 26.9999 24.6792 27.1724 25.1033C27.2591 25.3164 27.3275 25.4892 27.3732 25.6113L27.3892 25.6545V25.7544L27.5031 25.9722C27.5748 26.1091 27.6122 26.2615 27.6122 26.4161C27.6122 26.7197 27.5854 26.8136 27.5611 26.8601L27.5152 26.948L27.4484 27.1763C27.3208 27.4546 27.1542 27.7133 26.9535 27.9446L26.5922 28.3664L26.5761 28.3874C26.3851 28.636 26.1811 28.8741 25.9649 29.101L25.9549 29.1115L25.5266 29.5877L25.4655 29.8246C25.4088 30.0443 25.4088 30.2748 25.4655 30.4945L25.5074 30.6571L25.6002 30.797C27.761 34.0578 30.719 36.7116 34.1934 38.5065L34.2774 38.5499L35.2724 38.8449H35.4175C35.657 38.8449 35.8375 38.764 35.9246 38.7188C36.0222 38.6682 36.0984 38.6115 36.1479 38.5714C36.2469 38.4913 36.3289 38.4041 36.3815 38.3453C36.4388 38.2814 36.4891 38.2195 36.5237 38.1763C36.5724 38.1155 36.57 38.1179 36.5655 38.1231C36.9399 37.6906 37.9893 36.4227 38.442 35.7885L38.4789 35.7367L38.509 35.6807C38.5607 35.5845 38.6369 35.5039 38.7299 35.4469C38.8143 35.3952 38.9098 35.3647 39.0082 35.3579C39.1904 35.3707 39.3688 35.4163 39.5351 35.4926L39.579 35.5127L39.6246 35.5285C39.9212 35.6313 41.0881 36.1821 42.2717 36.756C42.8431 37.0331 43.392 37.3024 43.7982 37.5026C44.0012 37.6026 44.1685 37.6853 44.2849 37.7429L44.461 37.8302C44.6942 37.9502 44.8985 38.1186 45.0605 38.3235C45.2699 39.2965 45.1635 40.3125 44.7548 41.2225C44.3055 42.0228 43.6859 42.7144 42.9396 43.2484C42.2061 43.7733 41.3683 44.133 40.4836 44.3034H39.2711C37.0027 44.1757 34.7815 43.6024 32.7342 42.6159L32.7182 42.6083C28.1861 40.5226 24.3553 37.1673 21.689 32.9487L21.5989 32.7776L21.5773 32.7436C20.3415 30.7946 19.1494 28.337 18.9863 25.9259C18.925 24.9397 19.1011 23.9531 19.4997 23.0492C19.8829 22.1802 20.461 21.412 21.1885 20.8038Z" fill="black"/>
<path fill-rule="evenodd" clip-rule="evenodd" d="M41.9708 4.40737C36.0734 2.2751 29.6485 2.08952 23.6381 3.87783C17.6276 5.66615 12.3479 9.33425 8.573 14.3442C4.79806 19.3542 2.72643 25.4424 2.66172 31.7164C2.59703 37.9888 4.54163 44.117 8.2106 49.2031L5.35597 57.23L5.34184 57.3301C5.30427 57.5962 5.33448 57.8674 5.4297 58.1187C5.52493 58.37 5.68209 58.5932 5.88665 58.7676C6.09121 58.942 6.33655 59.0619 6.59994 59.1161C6.86333 59.1703 7.1361 59.1569 7.39293 59.0774L7.40192 59.0746L15.5542 56.4663C15.5947 56.471 15.6374 56.4772 15.6785 56.4845C15.7131 56.4906 15.7409 56.4966 15.7616 56.5016C19.167 58.7393 23.0009 60.2429 27.0194 60.9165C31.0516 61.5923 35.3338 61.4759 39.314 60.4519C45.3865 58.8877 50.7988 55.4179 54.7567 50.5514C58.7146 45.6849 61.0103 39.6776 61.3074 33.4103C61.6044 27.1431 59.8872 20.9454 56.4074 15.7259C52.9275 10.5064 47.8681 6.53964 41.9708 4.40737ZM24.2084 5.79478C29.8089 4.12844 35.7956 4.30136 41.2907 6.28821C46.7859 8.27506 51.5005 11.9714 54.7433 16.8353C57.9861 21.6993 59.5865 27.475 59.3096 33.3156C59.0328 39.1563 56.8933 44.7545 53.2051 49.2894C49.5168 53.8243 44.4739 57.0574 38.8157 58.5149C35.1265 59.4641 31.1279 59.5772 27.35 58.944C23.5858 58.3131 19.9953 56.9004 16.8096 54.797C16.6443 54.6848 16.4725 54.6264 16.3749 54.5967C16.2554 54.5602 16.1341 54.5341 16.028 54.5152C15.8237 54.479 15.5974 54.4563 15.4284 54.4564L15.2727 54.4565L7.59098 56.9143L10.1043 49.8472C10.2205 49.5399 10.2542 49.2075 10.2019 48.883C10.1507 48.5656 10.0191 48.2669 9.8198 48.0152C6.40904 43.2791 4.6014 37.5751 4.66161 31.737C4.72192 25.8901 6.65254 20.2164 10.1703 15.5478C13.6881 10.8791 18.6079 7.46113 24.2084 5.79478Z" fill="black"/>
</svg>
