<svg width="48" height="48" viewBox="0 0 48 48" fill="none" xmlns="http://www.w3.org/2000/svg">
<path d="M21.1539 34.8098C28.6953 34.8098 34.8088 28.6963 34.8088 21.1549C34.8088 13.6135 28.6953 7.5 21.1539 7.5C13.6125 7.5 7.49902 13.6135 7.49902 21.1549C7.49902 28.6963 13.6125 34.8098 21.1539 34.8098Z" fill="white" stroke="black" stroke-width="3"/>
<path d="M31.2812 31.126L40.5008 40.5013" stroke="black" stroke-width="3" stroke-linecap="round"/>
<g clip-path="url(#clip0_1946_498406)">
<path fill-rule="evenodd" clip-rule="evenodd" d="M14.9995 21.0007C14.9995 20.5865 15.3353 20.2507 15.7495 20.2507H26.2502C26.6644 20.2507 27.0002 20.5865 27.0002 21.0007C27.0002 21.4149 26.6644 21.7507 26.2502 21.7507H15.7495C15.3353 21.7507 14.9995 21.4149 14.9995 21.0007Z" fill="black"/>
</g>
<defs>
<clipPath id="clip0_1946_498406">
<rect width="12" height="12" fill="white" transform="translate(15 15)"/>
</clipPath>
</defs>
</svg>
