<svg width="36" height="36" viewBox="0 0 36 36" fill="none" xmlns="http://www.w3.org/2000/svg">
<path d="M24.586 20.5038C24.586 20.5038 22.4349 19.4355 22.0595 19.3055C21.9096 19.2368 21.7478 19.1976 21.583 19.19C21.4373 19.1931 21.2951 19.2348 21.1708 19.3109C21.0465 19.387 20.9446 19.4948 20.8756 19.6231C20.659 19.9263 20.1362 20.5583 19.9485 20.7749C19.9242 20.803 19.8062 20.9658 19.7495 20.9658L19.3597 20.8503C17.6669 19.9764 16.2256 18.6843 15.1728 17.0966C15.1655 17.0682 15.1655 17.0384 15.1728 17.01L15.3027 16.8656C15.4253 16.737 15.541 16.6021 15.6492 16.4613L15.8225 16.2592C15.9651 16.0949 16.0819 15.9099 16.169 15.7106L16.1985 15.6095C16.2732 15.467 16.2826 15.3084 16.2826 15.1475C16.2826 14.9866 16.2436 14.8281 16.169 14.6855C16.169 14.5845 15.2305 12.4333 15.1439 12.2023C14.9129 11.6681 14.6097 11.4082 14.2055 11.4082H13.9745C13.3689 11.4445 12.7759 11.5964 12.2275 11.8558C11.7716 12.2222 11.4104 12.6928 11.1742 13.228C10.9381 13.7631 10.8339 14.3472 10.8704 14.931C10.9618 16.2861 11.6235 17.6249 12.2685 18.6414L12.3142 18.728C13.7255 20.9669 15.7569 22.7475 18.1614 23.8533C19.269 24.3867 20.4711 24.6958 21.6985 24.7629H22.276H22.3771C22.9182 24.6664 23.4309 24.4504 23.878 24.1307C24.325 23.8111 24.6952 23.3957 24.9614 22.9149C25.2375 22.3136 25.2986 21.6357 25.1347 20.9947C24.9973 20.7864 24.8083 20.6173 24.586 20.5038Z" stroke="black" stroke-width="1.5" stroke-linecap="round" stroke-linejoin="round"/>
<path d="M21.599 31.9817C19.6454 32.484 17.5361 32.5424 15.5468 32.2092C13.5575 31.876 11.66 31.1296 9.97677 30.0182C9.89644 29.9618 9.80063 29.9315 9.70246 29.9316H9.55808L5.31346 31.2887C5.26466 31.3038 5.21283 31.3064 5.16279 31.2961C5.11276 31.2858 5.06613 31.263 5.02724 31.2299C4.98836 31.1968 4.95847 31.1543 4.94036 31.1066C4.92225 31.0588 4.9165 31.0073 4.92364 30.9567L6.36739 26.8997C6.3963 26.8255 6.40485 26.7448 6.39216 26.6661C6.37947 26.5875 6.346 26.5136 6.29521 26.4522C4.48886 23.9507 3.53143 20.9363 3.56327 17.851C3.59511 14.7657 4.61456 11.7717 6.47215 9.30804C8.32974 6.84439 10.9278 5.04064 13.8853 4.16127C16.8428 3.2819 20.0043 3.37316 22.9061 4.42166C25.808 5.47017 28.2976 7.42077 30.01 9.98748C31.7224 12.5542 32.5675 15.602 32.4213 18.684C32.2751 21.766 31.1454 24.7202 29.1977 27.1133C27.2501 29.5064 24.587 31.2126 21.599 31.9817Z" stroke="black" stroke-width="1.5" stroke-miterlimit="10"/>
</svg>
