<svg width="24" height="24" viewBox="0 0 24 24" fill="none" xmlns="http://www.w3.org/2000/svg">
<path fill-rule="evenodd" clip-rule="evenodd" d="M12.3737 3.08784C12.1836 2.97348 11.9459 2.97331 11.7557 3.08741L9.63986 4.35651C9.35569 4.52696 9.2635 4.8955 9.43395 5.17967C9.60439 5.46385 9.97294 5.55604 10.2571 5.38559L11.5103 4.63389V7.04601C11.5103 7.37738 11.779 7.64601 12.1103 7.64601C12.4417 7.64601 12.7103 7.37738 12.7103 7.04601V4.69088L13.8642 5.38516C14.1482 5.556 14.5168 5.46432 14.6877 5.18038C14.8585 4.89645 14.7668 4.52778 14.4829 4.35694L12.3737 3.08784ZM9.37264 18.8196C9.54369 18.5358 9.91243 18.4444 10.1962 18.6154L11.4035 19.343V17.3598V12.8428L9.52218 11.7452C9.23596 11.5782 9.13931 11.2108 9.30631 10.9246C9.4733 10.6384 9.8407 10.5417 10.1269 10.7087L11.995 11.7986L13.7996 10.7128C14.0836 10.542 14.4522 10.6337 14.6231 10.9176C14.7939 11.2016 14.7022 11.5702 14.4183 11.7411L12.6035 12.833V17.3598V19.34L13.8012 18.6158C14.0847 18.4444 14.4536 18.5353 14.625 18.8189C14.7965 19.1024 14.7056 19.4713 14.422 19.6427L12.3128 20.918C12.1222 21.0333 11.8834 21.0334 11.6926 20.9184L9.57679 19.6432C9.29298 19.4721 9.20158 19.1034 9.37264 18.8196ZM7.26927 6.44053C7.4404 6.72429 7.3491 7.09305 7.06534 7.26418L5.76222 8.05009L7.29594 8.97275C7.57989 9.14357 7.6716 9.51223 7.50078 9.79618C7.32996 10.0801 6.96129 10.1718 6.67734 10.001L5.20009 9.11233V10.6994C5.20009 11.0307 4.93146 11.2994 4.60009 11.2994C4.26872 11.2994 4.00009 11.0307 4.00009 10.6994V8.061C3.99944 8.02364 4.00228 7.98607 4.00873 7.94879C4.03792 7.77864 4.13958 7.62735 4.29022 7.5365L6.44561 6.2366C6.72937 6.06546 7.09814 6.15677 7.26927 6.44053ZM4.60009 12.5488C4.93146 12.5488 5.20009 12.8175 5.20009 13.1488V14.7459L6.67637 13.854C6.96 13.6827 7.32883 13.7737 7.50019 14.0573C7.67155 14.3409 7.58053 14.7098 7.29691 14.8811L5.76762 15.8051L7.06426 16.5834C7.34838 16.7539 7.44046 17.1225 7.26992 17.4066C7.09938 17.6907 6.73081 17.7828 6.44669 17.6123L4.3577 16.3584C4.24867 16.3103 4.15283 16.2294 4.08654 16.1197C4.02601 16.0195 3.99821 15.9087 4.00009 15.7997V13.1488C4.00009 12.8175 4.26872 12.5488 4.60009 12.5488ZM16.7259 6.44053C16.897 6.15677 17.2657 6.06546 17.5495 6.2366L19.6648 7.5123C19.7652 7.56136 19.853 7.639 19.9149 7.74188C19.9886 7.8644 20.0134 8.00269 19.995 8.13405V10.6994C19.995 11.0307 19.7264 11.2994 19.395 11.2994C19.0637 11.2994 18.795 11.0307 18.795 10.6994V9.11578L17.3235 10.001C17.0396 10.1718 16.6709 10.0801 16.5001 9.79618C16.3293 9.51223 16.421 9.14357 16.7049 8.97275L18.2358 8.05181L16.9298 7.26418C16.646 7.09305 16.5547 6.72429 16.7259 6.44053ZM19.395 12.5488C19.7264 12.5488 19.995 12.8175 19.995 13.1488V15.7266C20.0135 15.8583 19.9885 15.997 19.9143 16.1197C19.8442 16.2358 19.741 16.3196 19.624 16.3664L17.5484 17.6123C17.2643 17.7828 16.8957 17.6907 16.7252 17.4066C16.5547 17.1225 16.6467 16.7539 16.9309 16.5834L18.2304 15.8034L16.7039 14.8811C16.4203 14.7098 16.3293 14.3409 16.5007 14.0573C16.672 13.7737 17.0409 13.6827 17.3245 13.854L18.795 14.7425V13.1488C18.795 12.8175 19.0637 12.5488 19.395 12.5488Z" fill="#EA1917"/>
</svg>
