<svg width="24" height="24" viewBox="0 0 24 24" fill="none" xmlns="http://www.w3.org/2000/svg">
<path d="M14.7659 8.24088H18.2854H18.7956C19.7369 8.24088 20.5 9.00395 20.5 9.94525V16.8831V17.0977C20.5 18.2022 19.6046 19.0977 18.5 19.0977H18.2854H5.7146H5.5C4.39543 19.0977 3.5 18.2022 3.5 17.0977V16.8831V9.94525V9.92672V9.62362V6.79336C3.5 5.7479 4.34751 4.90039 5.39297 4.90039H10.9341C11.3488 4.90039 11.7454 5.03759 12.0675 5.2803C12.2592 5.4248 12.4245 5.6067 12.5514 5.81931L13.1486 7.32196C13.4886 7.89169 14.1043 8.24088 14.7659 8.24088Z" stroke="black" stroke-width="1.2" stroke-linecap="round" stroke-linejoin="round"/>
<path d="M18.2854 8.24023H3.5" stroke="black" stroke-width="1.2" stroke-linecap="round" stroke-linejoin="round"/>
</svg>
