<svg width="60" height="60" viewBox="0 0 60 60" fill="none" xmlns="http://www.w3.org/2000/svg">
<path fill-rule="evenodd" clip-rule="evenodd" d="M30.0808 6.50049C24.4026 6.50049 19.8109 11.0922 19.8109 16.7704C19.8109 20.5706 21.8637 23.8839 24.943 25.6435L25.3209 25.8595V26.2947V27.7487H27.6643V21.8969L26.3099 20.5425C26.017 20.2496 26.017 19.7748 26.3099 19.4819C26.6028 19.189 27.0777 19.189 27.3706 19.4819L28.9446 21.056L29.1643 21.2756V21.5863V27.7487H30.9986V21.5863V21.2756L31.2182 21.056L32.7923 19.4819C33.0852 19.189 33.5601 19.189 33.853 19.4819C34.1459 19.7748 34.1459 20.2496 33.853 20.5425L32.4986 21.8969V27.7487H34.8408V26.2947V25.8605L35.2173 25.6443C38.2836 23.8838 40.3507 20.569 40.3507 16.7704C40.3507 11.0922 35.759 6.50049 30.0808 6.50049ZM18.3109 16.7704C18.3109 10.2637 23.5742 5.00049 30.0808 5.00049C36.5875 5.00049 41.8507 10.2637 41.8507 16.7704C41.8507 20.969 39.6468 24.6519 36.3408 26.7194V28.4987V29.2487H36.3406V32.2996C36.3406 33.2661 35.5571 34.0496 34.5906 34.0496H25.5708C24.6043 34.0496 23.8208 33.2661 23.8208 32.2996V28.5768V27.8268H23.8209V26.7204C20.4992 24.652 18.3109 20.9677 18.3109 16.7704ZM56.1562 24.0524C56.1562 22.862 55.1904 21.8989 54.0027 21.8989C52.8123 21.8989 51.8492 22.8647 51.8492 24.0524V32.0627C51.8492 32.5826 51.59 33.0691 51.1588 33.3598L51.1575 33.3607L47.3018 35.9755C47.2019 36.7482 46.8552 37.4951 46.2616 38.0887L41.0688 43.2815C40.7759 43.5744 40.3011 43.5744 40.0082 43.2815C39.7153 42.9886 39.7153 42.5137 40.0082 42.2208L45.2009 37.0281C46.0424 36.1866 46.0424 34.8227 45.2009 33.9812C44.3594 33.1397 42.9955 33.1397 42.1541 33.9812L34.8031 41.3321C34.5605 41.5748 34.4249 41.9034 34.4249 42.2515V54.9106H32.9249V42.2515C32.9249 41.5103 33.2152 40.7988 33.7425 40.2715L41.0934 32.9206C42.5207 31.4933 44.8343 31.4933 46.2616 32.9206C46.6599 33.3189 46.9471 33.7863 47.1231 34.2842L50.3179 32.1177L50.3202 32.1161C50.3387 32.1037 50.3492 32.0829 50.3492 32.0627V24.0524C50.3492 22.0377 51.9825 20.3989 54.0027 20.3989C56.0175 20.3989 57.6562 22.0322 57.6562 24.0524V37.7674C57.6562 38.4365 57.3754 39.0753 56.8804 39.5286L56.8797 39.5292L42.9763 52.2289L42.9754 52.2298C42.9586 52.2459 42.9503 52.2683 42.9503 52.285V54.9106H41.4503V52.285C41.4503 51.8432 41.6383 51.4239 41.9566 51.1288L41.9607 51.1251L55.8674 38.4223L55.8677 38.4221C56.0523 38.2529 56.1562 38.0155 56.1562 37.7674V24.0524ZM3.89844 24.1403C3.89844 22.9499 4.86424 21.9868 6.05195 21.9868C7.24238 21.9868 8.20547 22.9526 8.20547 24.1403V32.1506C8.20547 32.6705 8.4647 33.157 8.89588 33.4477L8.89722 33.4486L12.7529 36.0634C12.8528 36.8361 13.1995 37.583 13.7931 38.1766L18.9859 43.3694C19.2787 43.6623 19.7536 43.6623 20.0465 43.3694C20.3394 43.0765 20.3394 42.6016 20.0465 42.3087L14.8538 37.116C14.0123 36.2745 14.0123 34.9106 14.8538 34.0691C15.6953 33.2276 17.0591 33.2276 17.9006 34.0691L25.2516 41.42C25.4942 41.6627 25.6298 41.9913 25.6298 42.3394V54.9995H27.1298V42.3394C27.1298 41.5982 26.8395 40.8867 26.3122 40.3594L18.9613 33.0084C17.534 31.5812 15.2204 31.5812 13.7931 33.0084C13.3947 33.4068 13.1076 33.8742 12.9316 34.3721L9.7368 32.2056L9.73448 32.204C9.71599 32.1916 9.70547 32.1707 9.70547 32.1506V24.1403C9.70547 22.1256 8.07218 20.4868 6.05195 20.4868C4.03719 20.4868 2.39844 22.1201 2.39844 24.1403V37.8552C2.39844 38.5243 2.67932 39.1632 3.17433 39.6165L3.175 39.6171L17.0784 52.3168L17.0793 52.3177C17.0961 52.3338 17.1044 52.3562 17.1044 52.3728V54.9995H18.6044V52.3728C18.6044 51.9311 18.4164 51.5117 18.098 51.2167L18.094 51.213L4.18731 38.5102L4.18699 38.5099C4.00239 38.3407 3.89844 38.1033 3.89844 37.8552V24.1403ZM25.3208 32.2996V29.3268H34.8406V32.2996C34.8406 32.4377 34.7287 32.5496 34.5906 32.5496H25.5708C25.4327 32.5496 25.3208 32.4377 25.3208 32.2996Z" fill="black"/>
</svg>
