<svg width="12" height="12" viewBox="0 0 12 12" fill="none" xmlns="http://www.w3.org/2000/svg">
<path fill-rule="evenodd" clip-rule="evenodd" d="M0.853553 0.646447C0.658291 0.451184 0.341709 0.451184 0.146447 0.646447C-0.0488155 0.841709 -0.0488155 1.15829 0.146447 1.35355L4.79289 6L0.146447 10.6464C-0.0488155 10.8417 -0.0488155 11.1583 0.146447 11.3536C0.341709 11.5488 0.658291 11.5488 0.853553 11.3536L5.85355 6.35355C6.04882 6.15829 6.04882 5.84171 5.85355 5.64645L0.853553 0.646447ZM6.85355 0.646447C6.65829 0.451184 6.34171 0.451184 6.14645 0.646447C5.95118 0.841709 5.95118 1.15829 6.14645 1.35355L10.7929 6L6.14645 10.6464C5.95118 10.8417 5.95118 11.1583 6.14645 11.3536C6.34171 11.5488 6.65829 11.5488 6.85355 11.3536L11.8536 6.35355C12.0488 6.15829 12.0488 5.84171 11.8536 5.64645L6.85355 0.646447Z" fill="#666666"/>
</svg>
