<svg width="48" height="48" viewBox="0 0 48 48" fill="none" xmlns="http://www.w3.org/2000/svg">
<path fill-rule="evenodd" clip-rule="evenodd" d="M23.1001 7.29167L19.296 9.03638L34.1709 16.184L39.5573 13.6592C39.4086 13.5545 39.2492 13.4617 39.0798 13.3825L39.0771 13.3812L25.7862 7.28537L25.7849 7.28476C24.9632 6.91168 24.0592 6.8962 23.1001 7.29167ZM33.1001 18.8948L25.5 22.4573V39.894C25.5834 39.8607 25.6658 39.8239 25.747 39.7835L31.336 36.8892L31.3401 36.887L33.4465 35.7837L39.1465 32.8837L39.1528 32.8806C40.2236 32.3452 40.9 31.2857 40.9 30.075V16.275C40.9 15.9424 40.8494 15.6165 40.7531 15.3074L35.1001 17.9573V25.2749H33.1001V18.8948ZM8.19195 15.2281L23.5 22.3656V40.0243C23.28 39.968 23.0642 39.8883 22.8561 39.785L9.76602 32.8902L9.74721 32.8806C8.67643 32.3452 8 31.2857 8 30.075V16.275C8 15.9183 8.06787 15.5641 8.19195 15.2281ZM9.44775 13.6069L24.5985 20.6711L31.8334 17.2797L16.9334 10.12L9.83323 13.3765C9.6995 13.4442 9.57073 13.5214 9.44775 13.6069ZM22.3154 5.45192C23.75 4.85417 25.2403 4.84031 26.6138 5.46463L26.6169 5.46604L39.9229 11.5688C41.7894 12.4399 42.9 14.3027 42.9 16.275V30.075C42.9 32.0631 41.7779 33.8026 40.0506 34.6677L40.0472 34.6694L34.3588 37.5636L32.264 38.6608L32.2599 38.663L26.6599 41.563L26.6472 41.5694C25.1657 42.3102 23.4343 42.3102 21.9528 41.5694L21.934 41.5598L8.84283 34.6644C7.11925 33.7981 6 32.0605 6 30.075V16.275C6 14.2702 7.23789 12.438 8.95279 11.5806C8.96281 11.5756 8.97292 11.5707 8.98311 11.566L22.2831 5.46604C22.2938 5.46115 22.3045 5.45644 22.3154 5.45192Z" fill="#333333"/>
</svg>
