<svg width="60" height="60" viewBox="0 0 60 60" fill="none" xmlns="http://www.w3.org/2000/svg">
<path d="M37.6715 44.1199H21.3593M6.12675 11.8351L35.2377 11.8351C36.8304 11.7978 40.0156 12.7062 40.0156 16.6378M20.4293 21.9992H7.95257V33.7068C7.95257 36.7514 9.38803 39.4046 11.6034 41.2708" stroke="black" stroke-width="1.5" stroke-miterlimit="10"/>
<path d="M22.0024 44.1757C22.0024 47.3125 19.4298 49.869 16.2395 49.869C13.0491 49.869 10.4766 47.3125 10.4766 44.1757C10.4766 41.039 13.0491 38.4824 16.2395 38.4824C19.4298 38.4824 22.0024 41.039 22.0024 44.1757Z" stroke="black" stroke-width="1.5"/>
<path d="M48.2679 44.0293L52.5 44.0293L52.5 27.168" stroke="black" stroke-width="1.5"/>
<path d="M6.12574 16.8281L24.8047 16.8281" stroke="black" stroke-width="1.5"/>
<path d="M49.0649 44.1757C49.0649 47.3125 46.4923 49.869 43.302 49.869C40.1116 49.869 37.5391 47.3125 37.5391 44.1757C37.5391 41.039 40.1116 38.4824 43.302 38.4824C46.4923 38.4824 49.0649 41.039 49.0649 44.1757Z" stroke="black" stroke-width="1.5"/>
<path d="M52.4974 26.4485C52.4974 20.5638 48.3472 15.7949 43.1594 15.7949H40.4141" stroke="black" stroke-width="1.5" stroke-miterlimit="10" stroke-linecap="square"/>
<path d="M47.7974 29.4043L40.0156 29.4043L40.0156 14.6077" stroke="black" stroke-width="1.5"/>
</svg>
