<svg width="32" height="32" viewBox="0 0 32 32" fill="none" xmlns="http://www.w3.org/2000/svg">
<circle cx="16.001" cy="16.0001" r="13.3333" fill="black" fill-opacity="0.7"/>
<path fill-rule="evenodd" clip-rule="evenodd" d="M28.3344 16.0001C28.3344 22.8116 22.8125 28.3334 16.001 28.3334C9.18954 28.3334 3.66772 22.8116 3.66772 16.0001C3.66772 9.18856 9.18954 3.66675 16.001 3.66675C22.8125 3.66675 28.3344 9.18856 28.3344 16.0001ZM29.3344 16.0001C29.3344 23.3639 23.3648 29.3334 16.001 29.3334C8.63725 29.3334 2.66772 23.3639 2.66772 16.0001C2.66772 8.63628 8.63725 2.66675 16.001 2.66675C23.3648 2.66675 29.3344 8.63628 29.3344 16.0001ZM12.6625 12.1902H14.5673V19.8092H12.6625V12.1902ZM17.4244 12.1902H19.3292V19.8092H17.4244V12.1902Z" fill="white"/>
</svg>
