<svg width="16" height="16" viewBox="0 0 16 16" fill="none" xmlns="http://www.w3.org/2000/svg">
<g clip-path="url(#clip0_1396_110483)">
<path d="M8 16C12.4183 16 16 12.4183 16 8C16 3.58172 12.4183 0 8 0C3.58172 0 0 3.58172 0 8C0 12.4183 3.58172 16 8 16Z" fill="#1977F3"/>
<path d="M11.1145 10.3118L11.4689 7.99883H9.25032V6.49807C9.25032 5.86581 9.5597 5.24819 10.5542 5.24819H11.5634V3.27942C11.5634 3.27942 10.6476 3.12305 9.77233 3.12305C7.9453 3.12305 6.75053 4.23005 6.75053 6.23594V7.99883H4.71875V10.3118H6.75053V15.902C7.15779 15.9661 7.57517 15.9988 8.00043 15.9988C8.42568 15.9988 8.84306 15.965 9.25032 15.902V10.3118H11.1145Z" fill="#F6F6F6"/>
</g>
<defs>
<clipPath id="clip0_1396_110483">
<rect width="16" height="16" fill="white"/>
</clipPath>
</defs>
</svg>
