<svg width="32" height="32" viewBox="0 0 32 32" fill="none" xmlns="http://www.w3.org/2000/svg">
<path fill-rule="evenodd" clip-rule="evenodd" d="M3 6.74845C3 5.7828 3.77904 5 4.74005 5H26.2018C27.1628 5 27.9418 5.7828 27.9418 6.74845V14.6428H26.4503V6.74845C26.4503 6.6105 26.3391 6.49867 26.2018 6.49867H19.6663V13.7604V14.5097H18.9205H12.9994H12.2537V13.7604V6.49867H4.74005C4.60276 6.49867 4.49147 6.6105 4.49147 6.74845V25.5013C4.49147 25.6392 4.60276 25.7511 4.74005 25.7511H16.4077V27.2497H4.74005C3.77904 27.2497 3 26.4669 3 25.5013V6.74845ZM13.7451 6.49867V13.011H18.1748V6.49867H13.7451ZM24.7011 19.9758L27.4079 22.7197L27.9346 23.2536L29.0025 22.2002L28.4758 21.6663L24.4851 17.6209L23.9511 17.0796L23.4172 17.6209L19.4265 21.6663L18.8998 22.2002L19.9677 23.2536L20.4944 22.7197L23.2011 19.9759V27.2498V27.9998H24.7011V27.2498V19.9758Z" fill="black"/>
</svg>
