<svg width="32" height="32" viewBox="0 0 32 32" fill="none" xmlns="http://www.w3.org/2000/svg">
<path fill-rule="evenodd" clip-rule="evenodd" d="M28.813 2.21304C28.2852 1.70962 27.5815 1.67699 26.9941 1.83276C26.4089 1.98797 25.8283 2.34843 25.3325 2.82576L24.3962 3.6556L24.3838 3.66663L16.3017 3.66663H15.9911L15.7714 3.8863L1.50982 18.1479L0.979492 18.6782L1.50982 19.2086L11.7663 29.4651L12.2967 29.9954L12.827 29.4651L27.0886 15.2035L27.3082 14.9838L27.3082 14.6731L27.3082 6.65719C27.5231 6.52023 27.7255 6.38836 27.9101 6.26441C28.3336 5.97993 28.7362 5.68984 28.9496 5.46092C29.457 4.91652 29.645 4.27891 29.5681 3.66441C29.4945 3.07614 29.1872 2.56999 28.813 2.21304ZM27.3082 4.85888C27.6132 4.64629 27.791 4.50395 27.8523 4.43823C28.0672 4.20766 28.0996 4.00902 28.0798 3.85067C28.0567 3.66611 27.95 3.46283 27.7777 3.29848C27.759 3.28059 27.6663 3.20636 27.3787 3.28263C27.1692 3.33818 26.9148 3.46418 26.6508 3.66663H27.3082V4.41663V4.85888ZM24.9528 5.16663H25.8082V5.82588C25.7198 5.88024 25.6301 5.93509 25.5393 5.9903C24.9833 6.32849 24.3947 6.67643 23.8405 6.99863C22.8654 6.12058 21.3624 6.15086 20.4238 7.08947C19.4539 8.05938 19.4539 9.63191 20.4238 10.6018C21.3937 11.5717 22.9663 11.5717 23.9362 10.6018C24.563 9.97494 24.7848 9.09632 24.6013 8.29138C24.9941 8.06299 25.4041 7.82177 25.8082 7.57986L25.8082 14.3625L12.2967 27.8741L3.10081 18.6782L16.6124 5.16663L24.7333 5.16663L24.8298 5.27562L24.9528 5.16663ZM22.3143 7.87121C22.2964 7.88125 22.2787 7.89118 22.2612 7.90099L21.607 8.26767L22.3403 9.57618L22.9946 9.2095C23.035 9.18687 23.0764 9.16361 23.1188 9.13975C23.0729 9.28661 22.9918 9.42483 22.8755 9.54116C22.4914 9.92528 21.8686 9.92528 21.4845 9.54116C21.1004 9.15704 21.1004 8.53425 21.4845 8.15013C21.7108 7.92382 22.0199 7.83085 22.3143 7.87121ZM15.9795 11.3341V10.5841H14.4795V11.3341V20.6683V21.4183H15.9795V20.6683V11.3341ZM11.3727 15.4524C11.3727 15.1194 11.643 14.8485 11.9775 14.8485C12.3121 14.8485 12.5824 15.1194 12.5824 15.4524C12.5824 15.7855 12.3121 16.0564 11.9775 16.0564C11.643 16.0564 11.3727 15.7855 11.3727 15.4524ZM11.9775 13.3485C10.8155 13.3485 9.8727 14.29 9.8727 15.4524C9.8727 16.6149 10.8155 17.5564 11.9775 17.5564C13.1395 17.5564 14.0824 16.6149 14.0824 15.4524C14.0824 14.29 13.1395 13.3485 11.9775 13.3485ZM18.6416 15.3955C18.3071 15.3955 18.0368 15.6664 18.0368 15.9995C18.0368 16.3325 18.3071 16.6034 18.6416 16.6034C18.9761 16.6034 19.2465 16.3325 19.2465 15.9995C19.2465 15.6664 18.9761 15.3955 18.6416 15.3955ZM16.5368 15.9995C16.5368 14.837 17.4796 13.8955 18.6416 13.8955C19.8036 13.8955 20.7465 14.837 20.7465 15.9995C20.7465 17.1619 19.8036 18.1034 18.6416 18.1034C17.4796 18.1034 16.5368 17.1619 16.5368 15.9995Z" fill="black"/>
</svg>
