<svg width="80" height="80" viewBox="0 0 80 80" fill="none" xmlns="http://www.w3.org/2000/svg">
<rect x="18" y="19" width="3" height="3" fill="#333333"/>
<rect x="24" y="19" width="3" height="3" fill="#333333"/>
<rect x="18" y="31" width="44" height="3" fill="#333333"/>
<rect x="18" y="37" width="44" height="3" fill="#333333"/>
<rect x="11.5" y="13.5" width="57" height="33" stroke="#333333" stroke-width="3"/>
<path fill-rule="evenodd" clip-rule="evenodd" d="M25 63C25 65.7614 27.2386 68 30 68C32.7614 68 35 65.7614 35 63V55V52H32V55V63C32 64.1046 31.1046 65 30 65C28.8954 65 28 64.1046 28 63H25Z" fill="#333333"/>
<path fill-rule="evenodd" clip-rule="evenodd" d="M55 63C55 65.7614 52.7614 68 50 68C47.2386 68 45 65.7614 45 63V55V52H48V55V63C48 64.1046 48.8954 65 50 65C51.1046 65 52 64.1046 52 63H55Z" fill="#333333"/>
<rect x="40" y="52" width="3" height="11" fill="#333333"/>
</svg>
