<svg width="24" height="24" viewBox="0 0 24 24" fill="none" xmlns="http://www.w3.org/2000/svg">
<path fill-rule="evenodd" clip-rule="evenodd" d="M8.39153 7.86159C8.39153 5.83117 10.0146 4.19829 12.0008 4.19829C13.9869 4.19829 15.61 5.83117 15.61 7.86159C15.61 9.89202 13.9869 11.5249 12.0008 11.5249C10.0146 11.5249 8.39153 9.89202 8.39153 7.86159ZM12.0008 2.99829C9.33751 2.99829 7.19153 5.18291 7.19153 7.86159C7.19153 9.68183 8.18244 11.2739 9.65324 12.1074C6.08334 13.1394 3.47668 16.4667 3.47668 20.4016C3.47668 20.733 3.74531 21.0016 4.07668 21.0016H19.9233C20.2546 21.0016 20.5233 20.733 20.5233 20.4016C20.5233 16.467 17.9171 13.14 14.3478 12.1077C15.8189 11.2743 16.81 9.68205 16.81 7.86159C16.81 5.18291 14.664 2.99829 12.0008 2.99829ZM12 12.9766C15.839 12.9766 18.9983 15.9753 19.2997 19.8016H4.70022C5.00164 15.9753 8.16095 12.9766 12 12.9766Z" fill="black"/>
</svg>
