<svg width="32" height="32" viewBox="0 0 32 32" fill="none" xmlns="http://www.w3.org/2000/svg">
<path fill-rule="evenodd" clip-rule="evenodd" d="M4.5 15.9992C4.5 9.64834 9.64834 4.5 15.9992 4.5C18.9882 4.5 21.7107 5.63986 23.7562 7.51025H21.6263H20.8763V9.01025H21.6263H25.4944H26.2444V8.26025V4.3921V3.6421H24.7444V4.3921V6.38151C22.4359 4.28135 19.367 3 15.9992 3C8.81992 3 3 8.81992 3 15.9992C3 23.1784 8.81992 28.9983 15.9992 28.9983C23.1784 28.9983 28.9983 23.1784 28.9983 15.9992C28.9983 15.5547 28.976 15.1151 28.9323 14.6817L28.8572 13.9355L27.3647 14.0858L27.4399 14.832C27.4785 15.2156 27.4983 15.6049 27.4983 15.9992C27.4983 22.35 22.35 27.4983 15.9992 27.4983C9.64834 27.4983 4.5 22.35 4.5 15.9992ZM17.9442 20.7603C17.5242 21.0963 16.9182 21.2643 16.1262 21.2643H13.5162V17.2863H16.1982C16.9902 17.2863 17.5842 17.4663 17.9802 17.8263C18.3762 18.1743 18.5742 18.6723 18.5742 19.3203C18.5742 19.9323 18.3642 20.4123 17.9442 20.7603ZM16.1082 12.2823C17.5002 12.2823 18.1962 12.8643 18.1962 14.0283C18.1962 14.5683 18.0282 15.0003 17.6922 15.3243C17.3562 15.6363 16.8282 15.7923 16.1082 15.7923H13.5162V12.2823H16.1082ZM19.6722 15.4503C19.9482 15.0063 20.0862 14.4603 20.0862 13.8123C20.0862 12.8283 19.7562 12.0663 19.0962 11.5263C18.4362 10.9863 17.4522 10.7163 16.1442 10.7163H11.6262V22.8123H16.3422C17.6502 22.8123 18.6642 22.5123 19.3842 21.9123C20.1042 21.3123 20.4642 20.4483 20.4642 19.3203C20.4642 18.5883 20.2902 17.9763 19.9422 17.4843C19.6062 16.9923 19.1262 16.6323 18.5022 16.4043C19.0062 16.2003 19.3962 15.8823 19.6722 15.4503Z" fill="black"/>
</svg>
