<svg width="49" height="48" viewBox="0 0 49 48" fill="none" xmlns="http://www.w3.org/2000/svg">
<path fill-rule="evenodd" clip-rule="evenodd" d="M41.768 12H7.56797C5.96797 12 4.66797 13.3 4.66797 14.9V34C4.66797 35.6 5.96797 36.9 7.56797 36.9H35.368C40.468 36.9 44.568 32.8 44.568 27.7V14.9C44.668 13.3 43.368 12 41.768 12ZM42.468 27.8C42.468 31.8 39.468 35 35.468 35H16.168V29.5H14.268V35H7.56797C7.06797 35 6.66797 34.6 6.66797 34.1V14.9C6.66797 14.4 7.06797 14 7.56797 14H14.068V19.4V19.5H15.968V19.4V14H41.568C42.068 14 42.468 14.4 42.468 14.9V27.8ZM26.3681 23.5C26.8681 22.9 27.0681 22 27.0681 21C27.0681 20 26.8681 19.1 26.3681 18.5C25.8681 17.9 25.1681 17.6 24.1681 17.6C23.1681 17.6 22.4681 17.9 21.9681 18.5C21.4681 19.1 21.2681 20 21.2681 21C21.2681 22 21.4681 22.9 21.9681 23.5C22.4681 24.1 23.1681 24.4 24.1681 24.4C25.1681 24.4 25.8681 24.1 26.3681 23.5ZM24.1681 22.7C23.6681 22.7 23.3681 22.1 23.3681 21C23.3681 19.9 23.6681 19.3 24.1681 19.3C24.6681 19.3 24.9681 19.9 24.9681 21C24.9681 22.1 24.6681 22.7 24.1681 22.7ZM35.368 25.3C34.368 25.3 33.668 25.6 33.168 26.2C32.668 26.8 32.468 27.7 32.468 28.7C32.468 29.7 32.668 30.6 33.168 31.2C33.668 31.8 34.368 32.1 35.368 32.1C36.368 32.1 37.068 31.8 37.568 31.2C38.068 30.6 38.268 29.7 38.268 28.7C38.268 27.7 38.068 26.8 37.568 26.2C37.068 25.6 36.268 25.3 35.368 25.3ZM35.368 30.4C34.868 30.4 34.568 29.8 34.568 28.7C34.568 27.6 34.868 27 35.368 27C35.868 27 36.168 27.6 36.168 28.7C36.068 29.9 35.868 30.4 35.368 30.4ZM24.3679 31.7L33.2679 18H35.1679L26.1679 31.7H24.3679ZM14.168 27.4V21.5H16.068V27.4V27.5H14.168V27.4Z" fill="black"/>
</svg>
