<svg width="24" height="24" viewBox="0 0 24 24" fill="none" xmlns="http://www.w3.org/2000/svg">
<path fill-rule="evenodd" clip-rule="evenodd" d="M13.2447 5.69067C13.4792 5.92481 13.8591 5.92454 14.0932 5.69005C14.3273 5.45557 14.3271 5.07567 14.0926 4.84153L12.4241 3.17543C12.1898 2.94152 11.8104 2.94152 11.5762 3.17543L9.90765 4.84153C9.67317 5.07567 9.67289 5.45557 9.90704 5.69005C10.1412 5.92454 10.5211 5.92481 10.7556 5.69067L12.0001 4.44792L13.2447 5.69067ZM5.69442 10.7571C5.9289 10.5229 5.92918 10.143 5.69503 9.90855C5.46089 9.67406 5.08099 9.67379 4.84651 9.90793L3.178 11.574C3.06529 11.6866 3.00195 11.8393 3.00195 11.9986C3.00195 12.1579 3.06529 12.3106 3.178 12.4232L4.84651 14.0893C5.08099 14.3234 5.46089 14.3231 5.69503 14.0887C5.92918 13.8542 5.9289 13.4743 5.69442 13.2401L4.4511 11.9986L5.69442 10.7571ZM18.3055 13.2439C18.071 13.478 18.0707 13.8579 18.3049 14.0924C18.539 14.3269 18.9189 14.3272 19.1534 14.093L20.8219 12.4269C20.9346 12.3144 20.998 12.1616 20.998 12.0023C20.998 11.8431 20.9346 11.6903 20.8219 11.5778L19.1534 9.91168C18.9189 9.67753 18.539 9.67781 18.3049 9.91229C18.0707 10.1468 18.071 10.5267 18.3055 10.7608L19.5488 12.0023L18.3055 13.2439ZM9.90696 17.3109C10.1411 17.0764 10.521 17.0761 10.7555 17.3103L12 18.553L13.2446 17.3103C13.4791 17.0761 13.859 17.0764 14.0931 17.3109C14.3273 17.5454 14.327 17.9253 14.0925 18.1594L12.424 19.8255C12.1898 20.0594 11.8103 20.0594 11.5761 19.8255L9.90757 18.1594C9.67309 17.9253 9.67281 17.5454 9.90696 17.3109ZM12.002 9.00047C12.3333 9.00047 12.602 9.2691 12.602 9.60047V11.3981H14.41C14.7414 11.3981 15.01 11.6668 15.01 11.9981C15.01 12.3295 14.7414 12.5981 14.41 12.5981H12.602V14.4005C12.602 14.7318 12.3333 15.0005 12.002 15.0005C11.6706 15.0005 11.402 14.7318 11.402 14.4005V12.5981H9.59005C9.25868 12.5981 8.99005 12.3295 8.99005 11.9981C8.99005 11.6668 9.25868 11.3981 9.59005 11.3981H11.402V9.60047C11.402 9.2691 11.6706 9.00047 12.002 9.00047Z" fill="#EA1917"/>
</svg>
