<svg width="16" height="16" viewBox="0 0 16 16" fill="none" xmlns="http://www.w3.org/2000/svg">
<path d="M8.01486 0C7.70975 0 7.44278 0.156098 7.29023 0.507317L5.72654 5.65854H0.768504C0.0820075 5.65854 -0.261241 6.51707 0.234562 7.02439L4.35354 10.0683L2.67544 15.0244C2.56102 15.5317 2.98055 16 3.43821 16C3.55263 16 3.70519 15.961 3.8196 15.8829L8.01486 12.6829L12.172 15.8829C12.2864 15.961 12.439 16 12.5534 16C13.011 16 13.4306 15.5317 13.278 14.9854L11.5999 10.0293L15.757 7.02439C16.2528 6.5561 15.9477 5.65854 15.2231 5.65854H10.265L8.7395 0.507317C8.58694 0.156098 8.31997 0 8.01486 0Z" fill="#F7B500"/>
</svg>
