<svg width="110" height="11" viewBox="0 0 110 11" fill="none" xmlns="http://www.w3.org/2000/svg">
<g clip-path="url(#clip0_3023_47717)">
<path fill-rule="evenodd" clip-rule="evenodd" d="M0 0.158474H2.41881V8.76102H7.42959V10.8415H0V0.158474ZM14.7207 6.7694H12.751L12.752 6.76832V4.7767H16.9495V9.95921C16.0848 10.577 14.4961 11 12.8717 11C9.32896 11 7.72341 9.06191 7.72341 5.48233C7.72341 1.88455 9.50106 0 12.8863 0C14.3922 0 15.9988 0.40475 16.9149 1.74321L15.4111 3.15662C14.8403 2.41351 14.1508 2.02589 12.9409 2.02589C10.7635 2.02589 10.073 3.3151 10.073 5.49946C10.073 7.79091 10.7991 8.9195 12.9755 8.9195C13.6503 8.9195 14.3576 8.7803 14.7207 8.63682V6.7694ZM31.2901 7.40369V8.25926H31.289C31.289 8.51525 31.2626 8.76339 31.2108 8.99693C30.9611 10.2118 30.0863 10.8832 28.7493 10.8832H21.8281V9.56057H28.8022C29.4866 9.56057 29.9707 9.13504 29.9861 8.52424C29.9872 8.51862 29.9894 8.50739 29.9894 8.49392V7.23303C29.9839 6.53689 29.5988 6.12932 28.9276 6.10462L24.1069 6.1035C22.5059 6.1035 21.6036 5.20863 21.5651 3.58508V3.5323C21.5629 3.51548 21.5629 3.49865 21.5629 3.48182V3.48178V2.62621C21.5629 2.37021 21.5882 2.12881 21.6399 1.88629C21.8919 0.670307 22.7667 0 24.1069 0H30.6354V1.32489H24.0486C23.3653 1.32489 22.8789 1.74931 22.8646 2.3646L22.8624 2.39155V3.65244C22.8646 4.33847 23.2596 4.75839 23.9243 4.78085H28.746C30.3449 4.78085 31.2461 5.67684 31.2846 7.30376L31.2857 7.32622C31.2861 7.33489 31.2868 7.34387 31.2875 7.35316C31.2888 7.36911 31.2901 7.38595 31.2901 7.40369ZM35.1215 10.9046H33.844V0H35.1215V10.9046ZM41.7259 4.85383H46.7127V7.6799C46.7127 9.7492 45.6168 10.8877 43.6251 10.8877H39.9994C38.0408 10.8877 36.9151 9.71776 36.9151 7.6799V3.20445C36.9151 1.1677 38.0408 0 39.9994 0H46.1339V1.28447H39.9466C38.9024 1.28447 38.2521 1.9458 38.2521 3.00796V7.87863C38.2521 8.91834 38.9024 9.56619 39.9466 9.56619H43.6812C44.8234 9.56619 45.3791 9.01377 45.3791 7.87863V6.15964H41.7259V4.85383ZM68.907 10.9034L67.7296 8.22445V8.22333H61.6644L60.4816 10.9034H59.0214L63.8993 0.00112271H65.5069L70.3848 10.9034H68.907ZM67.1486 6.90068L64.7036 1.33837L62.2498 6.90068H67.1486ZM58.0971 0V10.8945H56.3552L49.8532 1.62693V10.9046H48.5822V0.0101055H50.2735L56.7975 9.28324V0H58.0971ZM68.8465 0H77.9091V1.28784H74.0644V10.8664H72.6912V1.28784H68.8465V0ZM87.1488 0H88.521V7.42502C88.521 9.72675 87.4118 10.8911 85.2265 10.8911H82.5108C80.3706 10.8911 79.2856 9.72675 79.2856 7.42502V0H80.6567V7.58671C80.6567 8.88465 81.2916 9.56956 82.491 9.56956H85.3145C86.515 9.56956 87.1488 8.88465 87.1488 7.58895V0ZM99.7897 10.8967H98.4473V10.8978C98.4165 9.57068 97.5186 6.96917 94.8348 6.96917H91.6768V10.8686H90.3388V0.00112271H97.0752C98.8533 0.00112271 99.7919 0.970092 99.7919 2.8081V4.22956C99.7919 6.01143 98.839 6.65479 98.0391 6.87935L97.9147 6.91415L98.0204 6.99612C99.0844 7.82586 99.6775 9.1384 99.7897 10.8967ZM97.0289 1.28897H91.6768V5.68245H97.0906C97.9577 5.68245 98.455 5.18955 98.455 4.32949L98.4539 2.64193C98.4539 1.80545 97.9081 1.28897 97.0289 1.28897ZM110 0V1.27886H102.726V4.78759H109.855V6.07318H102.726V9.60324H110V10.8877H101.392V0H110Z" fill="#222222"/>
</g>
<defs>
<clipPath id="clip0_3023_47717">
<rect width="110" height="11" fill="white"/>
</clipPath>
</defs>
</svg>
