<svg width="49" height="48" viewBox="0 0 49 48" fill="none" xmlns="http://www.w3.org/2000/svg">
<path fill-rule="evenodd" clip-rule="evenodd" d="M6.91504 23.9999C6.91504 33.8034 14.8625 41.751 24.666 41.751C34.4696 41.751 42.417 33.8034 42.417 23.9999C42.417 14.1962 34.4696 6.24902 24.666 6.24902C14.8625 6.24902 6.91504 14.1962 6.91504 23.9999ZM5.41504 23.9999C5.41504 34.6318 14.034 43.251 24.666 43.251C35.298 43.251 43.917 34.6318 43.917 23.9999C43.917 13.3678 35.298 4.74902 24.666 4.74902C14.034 4.74902 5.41504 13.3678 5.41504 23.9999Z" fill="black"/>
<path fill-rule="evenodd" clip-rule="evenodd" d="M14.6602 27.2805C14.6602 32.2617 19.0781 36.4065 24.6653 36.4065C30.2524 36.4065 34.6703 32.2617 34.6703 27.2805H36.1703C36.1703 33.2079 30.9578 37.9065 24.6653 37.9065C18.3727 37.9065 13.1602 33.2079 13.1602 27.2805H14.6602Z" fill="black"/>
<path fill-rule="evenodd" clip-rule="evenodd" d="M12.291 20.2803C12.291 18.4003 14.172 16.655 16.7913 16.655C19.4106 16.655 21.2915 18.4003 21.2915 20.2803H22.7915C22.7915 17.3274 19.9713 15.155 16.7913 15.155C13.6113 15.155 10.791 17.3274 10.791 20.2803H12.291ZM28.9169 20.2803C28.9169 18.4003 30.7979 16.655 33.4171 16.655C36.0364 16.655 37.9174 18.4003 37.9174 20.2803H39.4174C39.4174 17.3274 36.5971 15.155 33.4171 15.155C30.2371 15.155 27.4169 17.3274 27.4169 20.2803H28.9169Z" fill="black"/>
</svg>
