<svg width="48" height="48" viewBox="0 0 48 48" fill="none" xmlns="http://www.w3.org/2000/svg">
<path fill-rule="evenodd" clip-rule="evenodd" d="M2 10H2.75H45.25H46V10.75V20.7595V21.5687L45.1931 21.5073C45.1295 21.5025 45.0651 21.5 45 21.5C43.6193 21.5 42.5 22.6193 42.5 24C42.5 25.3807 43.6193 26.5 45 26.5C45.0651 26.5 45.1295 26.4975 45.1931 26.4927L46 26.4313V27.2405V37.25V38H45.25H2.75H2V37.25V27.2405V26.4313L2.80689 26.4927C2.87049 26.4975 2.93488 26.5 3 26.5C4.38071 26.5 5.5 25.3807 5.5 24C5.5 22.6193 4.38071 21.5 3 21.5C2.93488 21.5 2.87049 21.5025 2.80689 21.5073L2 21.5687V20.7595V10.75V10ZM3.5 11.5V20.0309C5.47316 20.277 7 21.9602 7 24C7 26.0398 5.47316 27.723 3.5 27.9691V36.5H35V36V34.775V34.025H36.5V34.775V36V36.5H44.5V27.9691C42.5268 27.723 41 26.0398 41 24C41 21.9602 42.5268 20.277 44.5 20.0309V11.5H36.5V12.725V13.475H35V12.725V11.5H3.5ZM17.6 19.5C16.9925 19.5 16.5 19.9925 16.5 20.6C16.5 21.2075 16.9925 21.7 17.6 21.7C18.2075 21.7 18.7 21.2075 18.7 20.6C18.7 19.9925 18.2075 19.5 17.6 19.5ZM15 20.6C15 19.1641 16.1641 18 17.6 18C19.0359 18 20.2 19.1641 20.2 20.6C20.2 22.0359 19.0359 23.2 17.6 23.2C16.1641 23.2 15 22.0359 15 20.6ZM26.6638 19.4029L26.1334 19.9332L16.94 29.1266L16.4097 29.6569L15.349 28.5963L15.8793 28.066L25.0728 18.8725L25.6031 18.3422L26.6638 19.4029ZM23.3008 27.3988C23.3008 26.7924 23.7928 26.3 24.4008 26.3C25.0088 26.3 25.5008 26.7924 25.5008 27.3988C25.5008 28.0051 25.0088 28.4975 24.4008 28.4975C23.7928 28.4975 23.3008 28.0051 23.3008 27.3988ZM24.4008 24.8C22.9653 24.8 21.8008 25.963 21.8008 27.3988C21.8008 28.8345 22.9653 29.9975 24.4008 29.9975C25.8362 29.9975 27.0008 28.8345 27.0008 27.3988C27.0008 25.963 25.8362 24.8 24.4008 24.8ZM36.5 15.175V14.425H35V15.175V17.625V18.375H36.5V17.625V15.175ZM36.5 20.075V19.325H35V20.075V22.525V23.275H36.5V22.525V20.075ZM36.5 24.975V24.225H35V24.975V27.425V28.175H36.5V27.425V24.975ZM36.5 29.875V29.125H35V29.875V32.325V33.075H36.5V32.325V29.875Z" fill="black"/>
</svg>
