<svg width="18" height="18" viewBox="0 0 18 18" fill="none" xmlns="http://www.w3.org/2000/svg">
<path d="M5 3H13.5C14.6046 3 15.5 3.89543 15.5 5V11.1562C15.5 12.2608 14.6046 13.1562 13.5 13.1562H9.64063L6.90235 14.9818C6.57007 15.2033 6.125 14.9651 6.125 14.5657V13.1562H4.5625C3.69956 13.1562 3 12.4567 3 11.5938V5C3 3.89543 3.89543 3 5 3Z" stroke="#646464" stroke-linejoin="round"/>
<path fill-rule="evenodd" clip-rule="evenodd" d="M7.19922 10.3984H10.1992C11.3038 10.3984 12.1992 9.50301 12.1992 8.39844C12.1992 7.29387 11.3038 6.39844 10.1992 6.39844H7.19922V7.39844H10.1992C10.7515 7.39844 11.1992 7.84615 11.1992 8.39844C11.1992 8.95072 10.7515 9.39844 10.1992 9.39844H7.19922V10.3984Z" fill="#646464"/>
<path d="M8.19922 5.89844L7.19922 6.89844L8.19922 7.89844" stroke="#646464" stroke-linecap="round" stroke-linejoin="round"/>
</svg>
