<svg width="71" height="16" viewBox="0 0 71 16" fill="none" xmlns="http://www.w3.org/2000/svg">
<path d="M5.54326 2.99507C5.6315 2.92254 5.72095 2.85122 5.8092 2.77869C5.87931 2.77506 5.94701 2.77023 5.93734 2.67111L5.93129 2.67836C7.07361 2.22384 8.12167 1.58679 9.18548 0.981168L9.33652 0.977539C10.8258 1.68712 12.3477 2.31813 13.8914 2.89716C13.9591 2.9443 14.028 2.99024 14.0957 3.03738C14.9407 4.12411 15.8461 5.15765 16.766 6.18032L16.7841 6.29395C16.3126 7.72158 15.9633 9.18302 15.6019 10.6421C15.5632 10.7146 15.5257 10.786 15.487 10.8585C14.3423 12.1145 13.1964 13.3704 12.0516 14.6264C11.979 14.5974 11.9029 14.5732 11.834 14.5382C10.2226 13.7016 8.61249 12.8639 7.00231 12.0262C6.92253 11.9657 6.84396 11.9053 6.76417 11.8449C6.76054 11.7675 6.7267 11.7191 6.64208 11.7204L6.64692 11.7252C6.63845 11.5282 6.48493 11.4109 6.38581 11.2658C5.32084 9.69803 4.13256 8.21719 3.1377 6.601C3.39518 6.22263 3.66233 5.85152 3.90651 5.4647C4.43355 4.6294 5.13467 3.90894 5.54326 2.99507Z" fill="#231C46"/>
<path d="M53.9078 8.18411C53.9259 9.33976 53.5608 10.3612 52.815 11.2327C52.595 11.4902 52.6119 11.6353 52.8525 11.8493C53.1523 12.1152 53.4291 12.4102 53.6914 12.7148C53.9199 12.9807 53.8485 13.1609 53.4835 13.1657C52.867 13.1753 52.2142 13.2854 51.8056 12.6326C51.6279 12.3473 51.4261 12.4609 51.194 12.577C48.8658 13.7362 46.2728 13.0665 44.8186 10.9391C43.4539 8.94206 43.7815 5.99493 45.5608 4.24939C47.2411 2.60056 49.8389 2.38055 51.7379 3.76828C53.2224 4.8538 53.8909 6.36725 53.9078 8.18411ZM50.6488 11.2255C50.0517 10.6888 49.5246 10.2222 49.006 9.7459C48.8718 9.62263 48.7582 9.46788 48.8561 9.26603C48.9492 9.07383 49.1269 9.07262 49.3143 9.05207C49.8764 8.99038 50.3273 9.13304 50.6899 9.60087C50.9341 9.91518 51.252 10.1727 51.5373 10.4543C52.786 9.17777 52.7811 6.87499 51.5289 5.45459C50.3454 4.11279 48.3146 3.88432 46.8894 4.93359C45.3892 6.03724 44.9564 8.50564 45.9815 10.1001C46.9776 11.6474 48.8827 12.1708 50.6488 11.2255ZM29.8268 9.97195C29.8268 7.69335 29.8462 5.59965 29.8135 3.50596C29.805 2.92936 30.0408 2.84353 30.5315 2.85803C31.0017 2.87133 31.3173 2.8677 31.31 3.51321C31.2774 6.5123 31.2967 9.51262 31.2931 12.5117C31.2931 12.7414 31.3777 13.0267 31.0803 13.1427C30.7769 13.2612 30.5992 13.0363 30.4227 12.8381C28.5733 10.7662 26.7225 8.69425 24.8718 6.62231C24.6893 6.41803 24.5019 6.21736 24.3049 6.00219C24.1272 6.22824 24.2033 6.43492 24.2033 6.62353C24.1997 8.55646 24.1888 10.4893 24.2202 12.421C24.2288 12.9831 24.0885 13.202 23.4817 13.1887C22.922 13.1753 22.7032 13.0544 22.7093 12.4452C22.7383 9.48599 22.7201 6.52683 22.7262 3.56761C22.7262 3.32464 22.6101 3.00068 22.9571 2.8943C23.2919 2.79155 23.5603 2.91727 23.8032 3.19167C25.5596 5.18502 27.3281 7.16747 29.093 9.15358C29.3009 9.38929 29.5125 9.62142 29.8268 9.97195Z" fill="#251D48"/>
<path d="M57.2046 6.61931C57.2046 5.55312 57.2336 4.48453 57.1937 3.41955C57.1683 2.74382 57.6059 2.88404 57.9915 2.8647C58.4122 2.84294 58.724 2.85866 58.718 3.44373C58.6951 5.51565 58.6842 7.59 58.7337 9.66194C58.7724 11.2745 60.3946 12.2016 61.7921 11.4594C62.4001 11.1367 62.7591 10.6265 62.8413 9.93752C62.9997 8.61387 62.8897 7.28414 62.9151 5.95687C62.9308 5.11191 62.9356 4.26573 62.9114 3.42197C62.8993 3.01218 63.0178 2.85503 63.453 2.85745C64.4032 2.86349 64.4043 2.84052 64.4032 3.81121C64.4019 5.68247 64.4164 7.55493 64.3923 9.42622C64.3681 11.3264 63.2305 12.719 61.4427 13.0962C59.5074 13.5035 57.4391 12.0349 57.2819 10.0572C57.1913 8.91851 57.265 7.7653 57.265 6.61931C57.2456 6.62053 57.2251 6.62053 57.2046 6.61931Z" fill="#2A1F4B"/>
<path d="M35.2515 8.02335C35.2503 6.51474 35.2636 5.00492 35.243 3.49631C35.2369 3.05267 35.3252 2.84717 35.8365 2.86047C37.2654 2.89431 38.6954 2.89794 40.123 2.86047C40.7141 2.84475 40.7166 3.15905 40.7153 3.57972C40.7141 4.01248 40.731 4.37875 40.1049 4.35337C39.1402 4.31468 38.1732 4.35941 37.2073 4.33644C36.8531 4.32798 36.7045 4.39689 36.7286 4.79096C36.7649 5.39296 36.7601 5.99857 36.7299 6.60056C36.7117 6.9596 36.8471 7.0309 37.1759 7.02367C38.1212 7.00434 39.0689 7.04901 40.013 7.00671C40.5932 6.98015 40.7383 7.20377 40.7238 7.7429C40.7105 8.23487 40.6718 8.53592 40.0444 8.50085C39.081 8.44645 38.1127 8.49842 37.1469 8.48031C36.835 8.47423 36.7226 8.55884 36.731 8.8828C36.7516 9.68671 36.7576 10.493 36.7299 11.2969C36.7166 11.6716 36.8785 11.7163 37.1916 11.7115C38.178 11.6958 39.1644 11.732 40.1496 11.6958C40.696 11.6752 40.731 11.9665 40.7129 12.3727C40.6948 12.7692 40.806 13.1947 40.1448 13.1814C38.6966 13.1524 37.246 13.1597 35.7978 13.1802C35.3651 13.1862 35.243 13.0207 35.2466 12.6132C35.2623 11.0817 35.2527 9.5525 35.2515 8.02335Z" fill="#251D48"/>
<path d="M68.3377 7.97752C68.3389 6.46769 68.3665 4.95788 68.3255 3.44927C68.3063 2.74331 68.7473 2.88112 69.1549 2.85936C69.5946 2.83519 69.8583 2.89442 69.8532 3.46498C69.8269 6.50398 69.8257 9.54295 69.8545 12.5819C69.8609 13.1658 69.5767 13.1863 69.1473 13.1767C68.7146 13.167 68.3076 13.248 68.3242 12.5663C68.3633 11.037 68.3377 9.50667 68.3377 7.97752Z" fill="#231C46"/>
<path d="M3.13778 6.60254C4.13264 8.21873 5.32212 9.69956 6.3871 11.2662C6.48622 11.4125 6.63974 11.5285 6.6482 11.7255C5.37169 11.2154 4.12297 10.6292 3.03503 9.79019C2.3061 9.22814 2.2094 8.02776 2.67842 7.20696C2.79689 6.99902 2.94194 6.80683 3.07492 6.6074C3.09547 6.60619 3.11602 6.60497 3.13778 6.60254Z" fill="#40BACD"/>
<path d="M7.00391 12.0273C8.61402 12.865 10.2242 13.7027 11.8355 14.5393C11.9044 14.5755 11.9806 14.5985 12.0531 14.6275C12.0592 14.6553 12.0628 14.6819 12.0652 14.7097C11.8138 14.9648 11.5733 15.2331 11.3073 15.4737C10.7416 15.9863 9.82893 16.0007 9.36954 15.406C8.52819 14.3192 7.68807 13.2264 7.00391 12.0273Z" fill="#E73B7B"/>
<path d="M12.0634 14.7099C12.0622 14.6821 12.0573 14.6544 12.0513 14.6277C13.196 13.3718 14.3407 12.1158 15.4867 10.8599C15.2921 11.9998 14.9646 13.107 14.6188 14.2058C14.3686 15.0012 13.5647 15.3228 12.7693 15.0339C12.5276 14.9445 12.2991 14.8187 12.0634 14.7099Z" fill="#40BACD"/>
<path d="M13.8926 2.89866C12.3477 2.31963 10.8258 1.68862 9.33649 0.979044C9.74392 0.644202 10.2299 0.448373 10.6952 0.221114C11.1474 -0.000100859 11.5644 0.117155 11.8859 0.496726C12.5604 1.29213 13.2241 2.09721 13.8926 2.89866ZM15.6018 10.6436C15.9633 9.18578 16.3126 7.72428 16.7841 6.29546C17.1213 6.52511 17.345 6.86482 17.5783 7.18271C17.8938 7.61426 17.8938 8.099 17.536 8.51122C16.9062 9.23532 16.2486 9.93401 15.6018 10.6436ZM3.13767 6.60127C3.11713 6.60249 3.09537 6.60492 3.07482 6.60613C2.64448 5.15916 2.98416 4.32991 4.31145 3.61791C4.7164 3.40032 5.13223 3.20208 5.54323 2.99536C5.13465 3.90924 4.43354 4.6297 3.90649 5.465C3.66231 5.85182 3.39395 6.22293 3.13767 6.60127Z" fill="#E73B7B"/>
<path d="M16.7673 6.18294C15.8474 5.16028 14.942 4.12674 14.097 3.04C14.8186 3.33496 15.5464 3.61903 16.262 3.92849C16.939 4.22102 17.165 4.67555 17.0055 5.37908C16.9425 5.64986 16.8471 5.91459 16.7673 6.18294ZM9.18555 0.983796C8.12181 1.58941 7.07375 2.22646 5.9314 2.68098C6.25053 1.9702 6.74856 1.37666 7.23208 0.781921C7.47867 0.479713 7.87035 0.39026 8.26683 0.569166C8.57391 0.70818 8.8797 0.845984 9.18555 0.983796Z" fill="#40BACD"/>
<path d="M5.93697 2.673C5.94785 2.77212 5.87895 2.77695 5.80884 2.78058C5.81851 2.70443 5.8584 2.66695 5.93697 2.673ZM6.64293 11.721C6.72634 11.721 6.76139 11.7682 6.76502 11.8456C6.69128 11.8359 6.63205 11.8129 6.64293 11.721Z" fill="#40BACD"/>
</svg>
