<svg width="72" height="72" viewBox="0 0 72 72" fill="none" xmlns="http://www.w3.org/2000/svg">
<g filter="url(#filter0_d_145_130589)">
<circle cx="36" cy="28" r="23.25" fill="white" fill-opacity="0.7" stroke="white" stroke-width="1.5"/>
<g clip-path="url(#clip0_145_130589)">
<path fill-rule="evenodd" clip-rule="evenodd" d="M30.3445 20.929C29.954 20.5385 29.3209 20.5385 28.9303 20.929C28.5398 21.3196 28.5398 21.9527 28.9303 22.3433L34.5874 28.0003L28.9307 33.6571C28.5401 34.0476 28.5401 34.6808 28.9307 35.0713C29.3212 35.4618 29.9544 35.4618 30.3449 35.0713L36.0016 29.4146L41.6579 35.0708C42.0484 35.4614 42.6816 35.4614 43.0721 35.0708C43.4626 34.6803 43.4626 34.0471 43.0721 33.6566L37.4158 28.0003L43.0724 22.3437C43.463 21.9532 43.463 21.32 43.0724 20.9295C42.6819 20.539 42.0488 20.539 41.6582 20.9295L36.0016 26.5861L30.3445 20.929Z" fill="black"/>
</g>
</g>
<defs>
<filter id="filter0_d_145_130589" x="0" y="0" width="72" height="72" filterUnits="userSpaceOnUse" color-interpolation-filters="sRGB">
<feFlood flood-opacity="0" result="BackgroundImageFix"/>
<feColorMatrix in="SourceAlpha" type="matrix" values="0 0 0 0 0 0 0 0 0 0 0 0 0 0 0 0 0 0 127 0" result="hardAlpha"/>
<feOffset dy="8"/>
<feGaussianBlur stdDeviation="6"/>
<feComposite in2="hardAlpha" operator="out"/>
<feColorMatrix type="matrix" values="0 0 0 0 0 0 0 0 0 0 0 0 0 0 0 0 0 0 0.06 0"/>
<feBlend mode="normal" in2="BackgroundImageFix" result="effect1_dropShadow_145_130589"/>
<feBlend mode="normal" in="SourceGraphic" in2="effect1_dropShadow_145_130589" result="shape"/>
</filter>
<clipPath id="clip0_145_130589">
<rect width="20" height="20.0001" fill="white" transform="translate(26 18)"/>
</clipPath>
</defs>
</svg>
