<svg width="48" height="48" viewBox="0 0 48 48" fill="none" xmlns="http://www.w3.org/2000/svg">
<path fill-rule="evenodd" clip-rule="evenodd" d="M41.216 16.3759C43.4577 14.135 43.9215 10.7991 42.6266 8.1105C42.5211 7.89156 42.3161 7.73728 42.0765 7.69656C41.8369 7.65584 41.5925 7.73372 41.4206 7.90553L37.6197 11.7051L35.6163 9.70246L39.4281 5.91809C39.6009 5.7465 39.6797 5.50166 39.6393 5.26148C39.5989 5.02129 39.4444 4.81568 39.225 4.71005C36.5339 3.4148 33.1976 3.89553 30.9722 6.1201C28.9862 8.1054 28.4165 10.9265 29.1953 13.4163L19.6368 22.9714C17.1569 22.1933 14.3227 22.7637 12.3377 24.7481C10.1127 26.9723 9.63058 30.3233 10.9279 33.0002C11.0338 33.2186 11.2388 33.3723 11.4781 33.4127C11.7174 33.453 11.9614 33.3751 12.1331 33.2035L15.934 29.4039L17.9392 31.4084L14.1387 35.2077C13.9667 35.3795 13.8888 35.6241 13.9295 35.8637C13.9702 36.1034 14.1246 36.3085 14.3436 36.4139C17.0347 37.7091 20.371 37.2284 22.5964 35.0039C24.5854 33.0155 25.1539 30.1889 24.3697 27.6963L33.9174 18.1519C36.4079 18.9307 39.2299 18.3613 41.216 16.3759ZM22.802 27.7972C22.8176 27.8347 22.8359 27.8705 22.8568 27.9043C23.6002 29.9505 23.1718 32.3077 21.5359 33.943C20.0484 35.43 17.9323 35.9346 16.0274 35.4406L19.5303 31.9389C19.671 31.7982 19.7501 31.6074 19.7501 31.4084C19.7501 31.2095 19.671 31.0187 19.5303 30.878L16.4643 27.813C16.1714 27.5203 15.6967 27.5203 15.4038 27.813L11.8993 31.3163C11.4069 29.4195 11.9111 27.2955 13.3982 25.8089C15.0671 24.1406 17.5017 23.729 19.5605 24.5338C19.8379 24.6422 20.1532 24.5762 20.3638 24.3657L30.589 14.1441C30.7993 13.9339 30.8655 13.6192 30.7578 13.342C29.9517 11.2681 30.3641 8.84898 32.0327 7.18095C33.519 5.69515 35.6329 5.1901 37.5367 5.6822L34.0252 9.16839C33.8837 9.30888 33.804 9.49994 33.8036 9.69934C33.8033 9.89875 33.8824 10.0901 34.0234 10.2311L37.0894 13.296C37.3823 13.5888 37.857 13.5888 38.1499 13.296L41.6542 9.79302C42.1522 11.6988 41.6548 13.8163 40.1555 15.3151C38.4868 16.9831 36.0666 17.3955 33.9917 16.5896C33.7146 16.482 33.4001 16.5481 33.1899 16.7583L22.9647 26.9798C22.7502 27.1943 22.686 27.5169 22.802 27.7972ZM6.18066 11.8632C6.18066 8.9637 8.53117 6.61319 11.4307 6.61319H26.1438V5.11319H11.4307C7.70274 5.11319 4.68066 8.13527 4.68066 11.8632V37.2514C4.68066 40.9793 7.70274 44.0014 11.4307 44.0014H31.6297C35.3576 44.0014 38.3797 40.9793 38.3797 37.2514V24.5583H36.8797V37.2514C36.8797 40.1509 34.5292 42.5014 31.6297 42.5014H11.4307C8.53117 42.5014 6.18066 40.1509 6.18066 37.2514V11.8632Z" fill="black"/>
</svg>
