<svg width="60" height="60" viewBox="0 0 60 60" fill="none" xmlns="http://www.w3.org/2000/svg">
<path fill-rule="evenodd" clip-rule="evenodd" d="M1.5 29.9999C1.5 45.7399 14.26 58.5001 30.0001 58.5001C45.7401 58.5001 58.5001 45.7399 58.5001 29.9999C58.5001 14.2596 45.7402 1.5 30.0001 1.5C14.26 1.5 1.5 14.2596 1.5 29.9999ZM0 29.9999C0 46.5683 13.4315 60.0001 30.0001 60.0001C46.5686 60.0001 60.0001 46.5683 60.0001 29.9999C60.0001 13.4312 46.5686 0 30.0001 0C13.4315 0 0 13.4312 0 29.9999ZM30 16.5833C30.4142 16.5833 30.75 16.9191 30.75 17.3333V37C30.75 37.4142 30.4142 37.75 30 37.75C29.5858 37.75 29.25 37.4142 29.25 37V17.3333C29.25 16.9191 29.5858 16.5833 30 16.5833ZM30 44C30.7364 44 31.3333 43.403 31.3333 42.6667C31.3333 41.9303 30.7364 41.3333 30 41.3333C29.2636 41.3333 28.6667 41.9303 28.6667 42.6667C28.6667 43.403 29.2636 44 30 44Z" fill="black"/>
</svg>
