<svg width="75" height="45" viewBox="0 0 75 45" fill="none" xmlns="http://www.w3.org/2000/svg">
<g clip-path="url(#clip0_5974_345590)">
<g clip-path="url(#clip1_5974_345590)">
<path d="M56 0H0V45H56L75 22.5L56 0Z" fill="#FFF100"/>
<path d="M40.9999 38.5961C39.8332 38.5961 39.4999 37.7308 39.4999 37.3846L37.6665 31.5H27.3332L25.6665 37.3846C25.6665 37.7308 25.3332 38.5961 24.3332 38.5961H18.9999C18.4999 38.5961 18.1665 38.4231 17.9999 38.25C17.8332 37.9038 17.9999 37.3846 17.9999 37.2115L28.3332 8.13461C28.4999 7.61538 28.9999 6.57692 30.6665 6.57692H34.1665C36.1665 6.57692 36.8332 7.78846 36.8332 8.30769L46.8332 37.0385C47.1665 37.7308 46.6665 38.4231 46.3332 38.5961H46.1665H40.9999ZM35.9999 24.9231L32.6665 14.3654L28.8332 24.9231C28.9999 24.9231 35.9999 24.9231 35.9999 24.9231Z" fill="white"/>
<path d="M34.168 6.92308C36.0013 6.92308 36.5013 7.96154 36.5013 8.13462L46.5013 37.0385C46.8346 37.7308 46.168 38.0769 46.168 38.0769C46.168 38.0769 42.0013 38.0769 41.0013 38.0769C40.0013 38.0769 39.8346 37.2115 39.8346 37.2115L38.0013 30.9808H27.0013L25.168 37.2115C25.168 37.2115 25.0013 38.0769 24.3346 38.0769C23.5013 38.0769 19.8346 38.0769 19.0013 38.0769C18.168 38.0769 18.3346 37.5577 18.5013 37.2115L28.668 8.13462C29.0013 7.78846 29.168 6.92308 30.8346 6.92308C31.0013 6.92308 33.5013 6.92308 34.168 6.92308ZM28.3346 25.2692H36.668L32.8346 12.9808L28.3346 25.2692ZM34.168 6.05769H30.668C28.8346 6.05769 28.3346 6.92308 28.0013 7.61539L17.668 36.6923C17.3346 37.2115 17.3346 37.7308 17.668 38.0769C17.8346 38.4231 18.3346 38.7692 19.0013 38.7692H24.3346C25.3346 38.7692 25.8346 37.9038 26.0013 37.2115L27.668 31.6731H37.5013L39.168 37.2115C39.3346 37.9038 39.8346 38.7692 41.0013 38.7692H46.168H46.3346L46.5013 38.5962C47.0013 38.25 47.668 37.3846 47.168 36.3462L37.168 7.61539C37.3346 7.26923 36.5013 6.05769 34.168 6.05769ZM29.668 24.4038L32.668 15.5769L35.5013 24.4038H29.668Z" fill="#6B6100"/>
</g>
</g>
<defs>
<clipPath id="clip0_5974_345590">
<rect width="75" height="45" fill="white"/>
</clipPath>
<clipPath id="clip1_5974_345590">
<rect width="75" height="45" fill="white"/>
</clipPath>
</defs>
</svg>
