<svg width="75" height="45" viewBox="0 0 75 45" fill="none" xmlns="http://www.w3.org/2000/svg">
<g clip-path="url(#clip0_5974_345510)">
<g clip-path="url(#clip1_5974_345510)">
<path d="M56 0H0V45H56L75 22.5L56 0Z" fill="#009944"/>
<path d="M32.168 21.1154C31.668 21.1154 31.168 20.5961 31.168 19.9038V16.9615H28.168C27.668 16.9615 27.168 16.4423 27.168 15.9231V14.1923C27.168 13.6731 27.668 13.1538 28.168 13.1538H31.168V9.86537C31.168 9.34613 31.668 8.8269 32.168 8.8269H33.8346C34.3346 8.8269 35.0013 9.34613 35.0013 9.86537V12.9808H38.0013C38.668 12.9808 38.8346 13.5 39.0013 14.0192V15.9231C39.0013 16.4423 38.5013 16.9615 38.0013 16.9615H35.0013V20.0769C35.0013 20.5961 34.5013 21.2884 33.8346 21.2884H32.168V21.1154Z" fill="white"/>
<path d="M33.8346 9.17306C34.168 9.17306 34.5013 9.51922 34.5013 9.86537V13.3269H37.8346C38.168 13.3269 38.3346 13.5 38.5013 14.0192V15.75C38.5013 16.0961 38.168 16.4423 37.8346 16.4423H34.5013V19.9038C34.5013 20.25 34.168 20.5961 33.8346 20.5961H32.168C31.8346 20.5961 31.5013 20.25 31.5013 19.9038V16.4423H28.168C27.8346 16.4423 27.5013 16.0961 27.5013 15.75V14.0192C27.5013 13.6731 27.8346 13.3269 28.168 13.3269H31.5013V9.86537C31.5013 9.51922 31.8346 9.17306 32.168 9.17306H33.8346ZM33.8346 8.30768H32.168C31.3346 8.30768 30.668 8.99999 30.668 9.86537V12.4615H28.168C27.3346 12.4615 26.668 13.1538 26.668 14.0192V15.75C26.668 16.6154 27.3346 17.3077 28.168 17.3077H30.668V19.9038C30.668 20.7692 31.3346 21.4615 32.168 21.4615H33.8346C34.668 21.4615 35.3346 20.7692 35.3346 19.9038V17.3077H37.8346C38.668 17.3077 39.3346 16.6154 39.3346 15.75V14.0192C39.3346 13.8461 39.3346 13.8461 39.3346 13.6731C39.168 13.3269 39.0013 12.4615 37.8346 12.4615H35.3346V9.86537C35.3346 8.99999 34.668 8.30768 33.8346 8.30768Z" fill="#28561D"/>
<path d="M44.4987 21.1154C43.9987 21.1154 43.4987 20.5961 43.4987 19.9038V16.9615H40.4987C39.9987 16.9615 39.332 16.4423 39.332 15.9231V14.1923C39.332 13.6731 39.832 13.1538 40.4987 13.1538H43.4987V9.86537C43.4987 9.34613 43.9987 8.8269 44.4987 8.8269H46.1654C46.6654 8.8269 47.332 9.34613 47.332 9.86537V12.9808H50.332C50.9987 12.9808 51.1654 13.5 51.332 14.0192V15.9231C51.332 16.4423 50.832 16.9615 50.1654 16.9615H47.1654V20.0769C47.1654 20.5961 46.6654 21.2884 45.9987 21.2884H44.4987V21.1154Z" fill="white"/>
<path d="M46.1667 9.17306C46.5 9.17306 46.8333 9.51922 46.8333 9.86537V13.3269H50.1667C50.5 13.3269 50.6667 13.5 50.8333 14.0192V15.75C50.8333 16.0961 50.5 16.4423 50.1667 16.4423H46.8333V19.9038C46.8333 20.25 46.5 20.5961 46.1667 20.5961H44.5C44.1667 20.5961 43.8333 20.25 43.8333 19.9038V16.4423H40.5C40.1667 16.4423 39.8333 16.0961 39.8333 15.75V14.0192C39.8333 13.6731 40.1667 13.3269 40.5 13.3269H43.8333V9.86537C43.8333 9.51922 44.1667 9.17306 44.5 9.17306H46.1667ZM46.1667 8.30768H44.5C43.6667 8.30768 43 8.99999 43 9.86537V12.4615H40.5C39.6667 12.4615 39 13.1538 39 14.0192V15.75C39 16.6154 39.6667 17.3077 40.5 17.3077H43V19.9038C43 20.7692 43.6667 21.4615 44.5 21.4615H46.1667C47 21.4615 47.6667 20.7692 47.6667 19.9038V17.3077H50.1667C51 17.3077 51.6667 16.6154 51.6667 15.75V14.0192C51.6667 13.8461 51.6667 13.8461 51.6667 13.6731C51.5 13.3269 51.3333 12.4615 50.1667 12.4615H47.6667V9.86537C47.6667 8.99999 47 8.30768 46.1667 8.30768Z" fill="#28561D"/>
<path d="M56.8307 21.1154C56.3307 21.1154 55.8307 20.5961 55.8307 19.9038V16.9615H52.8307C52.3307 16.9615 51.6641 16.4423 51.6641 15.9231V14.1923C51.6641 13.6731 52.1641 13.1538 52.8307 13.1538H55.8307V9.86537C55.8307 9.34613 56.3307 8.8269 56.8307 8.8269H58.4974C58.9974 8.8269 59.6641 9.34613 59.6641 9.86537V12.9808H62.6641C63.3307 12.9808 63.4974 13.5 63.6641 14.0192V15.9231C63.6641 16.4423 63.1641 16.9615 62.6641 16.9615H59.6641V20.0769C59.6641 20.5961 59.1641 21.2884 58.4974 21.2884H56.8307V21.1154Z" fill="white"/>
<path d="M58.4987 9.17306C58.832 9.17306 59.1654 9.51922 59.1654 9.86537V13.3269H62.4987C62.832 13.3269 62.9987 13.5 63.1654 14.0192V15.75C63.1654 16.0961 62.832 16.4423 62.4987 16.4423H59.1654V19.9038C59.1654 20.25 58.832 20.5961 58.4987 20.5961H56.832C56.4987 20.5961 56.1654 20.25 56.1654 19.9038V16.4423H52.832C52.4987 16.4423 52.1654 16.0961 52.1654 15.75V14.0192C52.1654 13.6731 52.4987 13.3269 52.832 13.3269H56.1654V9.86537C56.1654 9.51922 56.4987 9.17306 56.832 9.17306H58.4987ZM58.4987 8.30768H56.832C55.9987 8.30768 55.332 8.99999 55.332 9.86537V12.4615H52.832C51.9987 12.4615 51.332 13.1538 51.332 14.0192V15.75C51.332 16.6154 51.9987 17.3077 52.832 17.3077H55.332V19.9038C55.332 20.7692 55.9987 21.4615 56.832 21.4615H58.4987C59.332 21.4615 59.9987 20.7692 59.9987 19.9038V17.3077H62.4987C63.332 17.3077 63.9987 16.6154 63.9987 15.75V14.0192C63.9987 13.8461 63.9987 13.8461 63.9987 13.6731C63.832 13.3269 63.6654 12.4615 62.4987 12.4615H59.9987V9.86537C59.9987 8.99999 59.332 8.30768 58.4987 8.30768Z" fill="#28561D"/>
<path d="M25.4999 38.7692C24.3332 38.7692 23.9999 37.9038 23.9999 37.5577L22.1665 31.6731H11.8332L10.1665 37.5577C10.1665 37.9038 9.83319 38.7692 8.83319 38.7692H3.49986C2.99986 38.7692 2.66652 38.5962 2.49986 38.4231C2.33319 38.0769 2.49986 37.5577 2.49986 37.3846L12.8332 8.30769C12.9999 7.78846 13.4999 6.75 15.1665 6.75H18.6665C20.6665 6.75 21.3332 7.96154 21.3332 8.48077L31.3332 37.2115C31.6665 37.9038 31.1665 38.5962 30.8332 38.7692H30.6665H25.4999ZM20.4999 25.0962L17.1665 14.5385L13.3332 25.0962H20.4999Z" fill="white"/>
<path d="M18.668 7.09616C20.5013 7.09616 21.0013 8.13462 21.0013 8.3077L31.0013 37.2115C31.3346 37.9038 30.668 38.25 30.668 38.25C30.668 38.25 26.5013 38.25 25.5013 38.25C24.5013 38.25 24.3346 37.3846 24.3346 37.3846L22.5013 31.1538H11.5013L9.66797 37.3846C9.66797 37.3846 9.5013 38.25 8.83464 38.25C8.0013 38.25 4.33464 38.25 3.5013 38.25C2.66797 38.25 2.83464 37.7308 3.0013 37.3846L13.168 8.3077C13.3346 7.96154 13.5013 7.09616 15.168 7.09616C15.5013 7.09616 18.0013 7.09616 18.668 7.09616ZM12.8346 25.4423H21.168L17.3346 13.1539L12.8346 25.4423ZM18.668 6.23077H15.168C13.3346 6.23077 12.8346 7.09616 12.5013 7.78847L2.16797 36.6923C1.83464 37.2115 1.83464 37.7308 2.16797 38.0769C2.33464 38.4231 2.83464 38.7692 3.5013 38.7692H8.83464C9.83464 38.7692 10.3346 37.9038 10.5013 37.2115L12.168 31.6731H22.0013L23.668 37.2115C23.8346 37.9038 24.3346 38.7692 25.5013 38.7692H30.668H30.8346L31.0013 38.5962C31.5013 38.25 32.168 37.3846 31.668 36.3462L21.668 7.61539C21.668 7.44231 20.8346 6.23077 18.668 6.23077ZM14.0013 24.5769L17.168 15.75L20.0013 24.5769H14.0013Z" fill="#28561D"/>
</g>
</g>
<defs>
<clipPath id="clip0_5974_345510">
<rect width="75" height="45" fill="white"/>
</clipPath>
<clipPath id="clip1_5974_345510">
<rect width="75" height="45" fill="white"/>
</clipPath>
</defs>
</svg>
