<svg width="75" height="45" viewBox="0 0 75 45" fill="none" xmlns="http://www.w3.org/2000/svg">
<g clip-path="url(#clip0_5974_345616)">
<g clip-path="url(#clip1_5974_345616)">
<path d="M56 0H0V45H56L75 22.5L56 0Z" fill="#FABE00"/>
<path d="M20.9987 7.09617C20.9987 6.75001 21.1654 6.57693 21.4987 6.57693H32.1654C38.4987 6.57693 42.832 9.34616 42.9987 15.0577C42.9987 17.8269 41.9987 20.4231 39.4987 21.4615V21.6346C42.6654 22.5 44.9987 24.75 44.9987 29.0769C44.9987 35.6539 39.4987 38.5962 32.6654 38.5962H21.4987C21.1654 38.5962 20.832 38.25 20.832 37.9039L20.9987 7.09617ZM31.832 19.3846C35.1654 19.3846 36.1654 17.3077 36.1654 15.5769C36.1654 13.6731 34.832 12.4615 31.6654 12.4615H28.332V19.3846H31.832ZM32.1654 32.5385C35.832 32.5385 37.6654 31.5 37.6654 28.5577C37.6654 25.9615 35.832 24.5769 32.1654 24.5769H28.332V32.3654H32.1654V32.5385Z" fill="white" stroke="#684D00" stroke-width="0.5" stroke-miterlimit="10"/>
</g>
</g>
<defs>
<clipPath id="clip0_5974_345616">
<rect width="75" height="45" fill="white"/>
</clipPath>
<clipPath id="clip1_5974_345616">
<rect width="75" height="45" fill="white"/>
</clipPath>
</defs>
</svg>
