<svg width="54" height="32" viewBox="0 0 54 32" fill="none" xmlns="http://www.w3.org/2000/svg">
<g clip-path="url(#clip0_16741_95396)">
<path d="M39.8222 0H0V32H39.8222L53.3333 16L39.8222 0Z" fill="#009944"/>
<path d="M22.8739 15.0153C22.5184 15.0153 22.1628 14.6461 22.1628 14.1538V12.0615H20.0295C19.6739 12.0615 19.3184 11.6922 19.3184 11.323V10.0922C19.3184 9.72301 19.6739 9.35378 20.0295 9.35378H22.1628V7.01532C22.1628 6.64609 22.5184 6.27686 22.8739 6.27686H24.0591C24.4147 6.27686 24.8887 6.64609 24.8887 7.01532V9.2307H27.0221C27.4961 9.2307 27.6147 9.59993 27.7332 9.96916V11.323C27.7332 11.6922 27.3776 12.0615 27.0221 12.0615H24.8887V14.2769C24.8887 14.6461 24.5332 15.1384 24.0591 15.1384H22.8739V15.0153Z" fill="white"/>
<path d="M24.0592 6.5231C24.2962 6.5231 24.5333 6.76925 24.5333 7.01541V9.47695H26.9036C27.1407 9.47695 27.2592 9.60002 27.3777 9.96925V11.2C27.3777 11.4462 27.1407 11.6923 26.9036 11.6923H24.5333V14.1539C24.5333 14.4 24.2962 14.6462 24.0592 14.6462H22.874C22.637 14.6462 22.3999 14.4 22.3999 14.1539V11.6923H20.0296C19.7925 11.6923 19.5555 11.4462 19.5555 11.2V9.96925C19.5555 9.7231 19.7925 9.47695 20.0296 9.47695H22.3999V7.01541C22.3999 6.76925 22.637 6.5231 22.874 6.5231H24.0592ZM24.0592 5.90771H22.874C22.2814 5.90771 21.8073 6.40002 21.8073 7.01541V8.86156H20.0296C19.437 8.86156 18.9629 9.35387 18.9629 9.96925V11.2C18.9629 11.8154 19.437 12.3077 20.0296 12.3077H21.8073V14.1539C21.8073 14.7693 22.2814 15.2616 22.874 15.2616H24.0592C24.6518 15.2616 25.1259 14.7693 25.1259 14.1539V12.3077H26.9036C27.4962 12.3077 27.9703 11.8154 27.9703 11.2V9.96925C27.9703 9.84618 27.9703 9.84618 27.9703 9.7231C27.8518 9.47695 27.7333 8.86156 26.9036 8.86156H25.1259V7.01541C25.1259 6.40002 24.6518 5.90771 24.0592 5.90771Z" fill="#28561D"/>
<path d="M31.6448 15.0153C31.2892 15.0153 30.9337 14.6461 30.9337 14.1538V12.0615H28.8003C28.4448 12.0615 27.9707 11.6922 27.9707 11.323V10.0922C27.9707 9.72301 28.3263 9.35378 28.8003 9.35378H30.9337V7.01532C30.9337 6.64609 31.2892 6.27686 31.6448 6.27686H32.83C33.1855 6.27686 33.6596 6.64609 33.6596 7.01532V9.2307H35.7929C36.267 9.2307 36.3855 9.59993 36.504 9.96916V11.323C36.504 11.6922 36.1485 12.0615 35.6744 12.0615H33.5411V14.2769C33.5411 14.6461 33.1855 15.1384 32.7114 15.1384H31.6448V15.0153Z" fill="white"/>
<path d="M32.8297 6.5231C33.0667 6.5231 33.3038 6.76925 33.3038 7.01541V9.47695H35.6741C35.9112 9.47695 36.0297 9.60002 36.1482 9.96925V11.2C36.1482 11.4462 35.9112 11.6923 35.6741 11.6923H33.3038V14.1539C33.3038 14.4 33.0667 14.6462 32.8297 14.6462H31.6445C31.4075 14.6462 31.1704 14.4 31.1704 14.1539V11.6923H28.8001C28.563 11.6923 28.326 11.4462 28.326 11.2V9.96925C28.326 9.7231 28.563 9.47695 28.8001 9.47695H31.1704V7.01541C31.1704 6.76925 31.4075 6.5231 31.6445 6.5231H32.8297ZM32.8297 5.90771H31.6445C31.0519 5.90771 30.5778 6.40002 30.5778 7.01541V8.86156H28.8001C28.2075 8.86156 27.7334 9.35387 27.7334 9.96925V11.2C27.7334 11.8154 28.2075 12.3077 28.8001 12.3077H30.5778V14.1539C30.5778 14.7693 31.0519 15.2616 31.6445 15.2616H32.8297C33.4223 15.2616 33.8964 14.7693 33.8964 14.1539V12.3077H35.6741C36.2667 12.3077 36.7408 11.8154 36.7408 11.2V9.96925C36.7408 9.84618 36.7408 9.84618 36.7408 9.7231C36.6223 9.47695 36.5038 8.86156 35.6741 8.86156H33.8964V7.01541C33.8964 6.40002 33.4223 5.90771 32.8297 5.90771Z" fill="#28561D"/>
<path d="M40.4153 15.0153C40.0597 15.0153 39.7042 14.6461 39.7042 14.1538V12.0615H37.5708C37.2153 12.0615 36.7412 11.6922 36.7412 11.323V10.0922C36.7412 9.72301 37.0968 9.35378 37.5708 9.35378H39.7042V7.01532C39.7042 6.64609 40.0597 6.27686 40.4153 6.27686H41.6005C41.956 6.27686 42.4301 6.64609 42.4301 7.01532V9.2307H44.5634C45.0375 9.2307 45.156 9.59993 45.2745 9.96916V11.323C45.2745 11.6922 44.919 12.0615 44.5634 12.0615H42.4301V14.2769C42.4301 14.6461 42.0745 15.1384 41.6005 15.1384H40.4153V15.0153Z" fill="white"/>
<path d="M41.6002 6.5231C41.8372 6.5231 42.0743 6.76925 42.0743 7.01541V9.47695H44.4446C44.6817 9.47695 44.8002 9.60002 44.9187 9.96925V11.2C44.9187 11.4462 44.6817 11.6923 44.4446 11.6923H42.0743V14.1539C42.0743 14.4 41.8372 14.6462 41.6002 14.6462H40.415C40.178 14.6462 39.9409 14.4 39.9409 14.1539V11.6923H37.5706C37.3335 11.6923 37.0965 11.4462 37.0965 11.2V9.96925C37.0965 9.7231 37.3335 9.47695 37.5706 9.47695H39.9409V7.01541C39.9409 6.76925 40.178 6.5231 40.415 6.5231H41.6002ZM41.6002 5.90771H40.415C39.8224 5.90771 39.3484 6.40002 39.3484 7.01541V8.86156H37.5706C36.978 8.86156 36.5039 9.35387 36.5039 9.96925V11.2C36.5039 11.8154 36.978 12.3077 37.5706 12.3077H39.3484V14.1539C39.3484 14.7693 39.8224 15.2616 40.415 15.2616H41.6002C42.1928 15.2616 42.6669 14.7693 42.6669 14.1539V12.3077H44.4446C45.0372 12.3077 45.5113 11.8154 45.5113 11.2V9.96925C45.5113 9.84618 45.5113 9.84618 45.5113 9.7231C45.3928 9.47695 45.2743 8.86156 44.4446 8.86156H42.6669V7.01541C42.6669 6.40002 42.1928 5.90771 41.6002 5.90771Z" fill="#28561D"/>
<path d="M18.1338 27.569C17.3042 27.569 17.0671 26.9537 17.0671 26.7075L15.7634 22.5229H8.4153L7.23011 26.7075C7.23011 26.9537 6.99308 27.569 6.28196 27.569H2.48937C2.13382 27.569 1.89678 27.446 1.77826 27.3229C1.65974 27.0767 1.77826 26.7075 1.77826 26.5844L9.12641 5.9075C9.24493 5.53827 9.60048 4.7998 10.7857 4.7998H13.2746C14.6968 4.7998 15.1709 5.66134 15.1709 6.03057L22.282 26.4613C22.519 26.9536 22.1634 27.446 21.9264 27.569H21.8079H18.1338ZM14.5783 17.846L12.2079 10.3383L9.48196 17.846H14.5783Z" fill="white"/>
<path d="M13.2744 5.04605C14.5781 5.04605 14.9337 5.78451 14.9337 5.90759L22.0448 26.4614C22.2818 26.9537 21.8077 27.1999 21.8077 27.1999C21.8077 27.1999 18.8448 27.1999 18.1336 27.1999C17.4225 27.1999 17.304 26.5845 17.304 26.5845L16.0003 22.1537H8.1781L6.87439 26.5845C6.87439 26.5845 6.75587 27.1999 6.2818 27.1999C5.68921 27.1999 3.0818 27.1999 2.48921 27.1999C1.89661 27.1999 2.01513 26.8307 2.13365 26.5845L9.36328 5.90759C9.4818 5.66143 9.60032 5.04605 10.7855 5.04605C11.0225 5.04605 12.8003 5.04605 13.2744 5.04605ZM9.12624 18.0922H15.0522L12.3262 9.35374L9.12624 18.0922ZM13.2744 4.43066H10.7855C9.4818 4.43066 9.12624 5.04605 8.88921 5.53836L1.54106 26.0922C1.30402 26.4614 1.30402 26.8307 1.54106 27.0768C1.65958 27.323 2.01513 27.5691 2.48921 27.5691H6.2818C6.99291 27.5691 7.34847 26.9537 7.46698 26.4614L8.65217 22.523H15.6448L16.8299 26.4614C16.9485 26.9537 17.304 27.5691 18.1336 27.5691H21.8077H21.9262L22.0448 27.446C22.4003 27.1999 22.8744 26.5845 22.5188 25.846L15.4077 5.41528C15.4077 5.2922 14.8151 4.43066 13.2744 4.43066ZM9.95587 17.4768L12.2077 11.1999L14.2225 17.4768H9.95587Z" fill="#28561D"/>
</g>
<defs>
<clipPath id="clip0_16741_95396">
<rect width="53.3333" height="32" fill="white"/>
</clipPath>
</defs>
</svg>
