<svg width="75" height="45" viewBox="0 0 75 45" fill="none" xmlns="http://www.w3.org/2000/svg">
<g clip-path="url(#clip0_5974_345564)">
<g clip-path="url(#clip1_5974_345564)">
<path d="M56 0H0V45H56L75 22.5L56 0Z" fill="#C4D700"/>
<path d="M40.668 21.1154C40.168 21.1154 39.5013 20.5962 39.5013 20.0769V17.1346H36.668C36.168 17.1346 35.668 16.6154 35.668 16.0962V14.3654C35.668 13.8462 36.168 13.1538 36.668 13.1538H39.668V10.0385C39.668 9.51923 40.168 9 40.8346 9H42.5013C43.0013 9 43.5013 9.51923 43.5013 10.0385V13.1538H46.5013C47.168 13.1538 47.3346 13.6731 47.5013 14.1923V16.0962C47.5013 16.6154 47.0013 17.1346 46.3346 17.1346H43.3346V20.25C43.3346 20.7692 42.8346 21.2885 42.3346 21.2885H40.668V21.1154Z" fill="white"/>
<path d="M42.3346 9.34615C42.668 9.34615 43.0013 9.69231 43.0013 10.0385V13.5H46.3346C46.668 13.5 46.8346 13.6731 47.0013 14.1923V15.9231C47.0013 16.2692 46.668 16.6154 46.3346 16.6154H43.0013V20.0769C43.0013 20.4231 42.668 20.7692 42.3346 20.7692H40.668C40.3346 20.7692 40.0013 20.4231 40.0013 20.0769V16.6154H36.668C36.3346 16.6154 36.0013 16.2692 36.0013 15.9231V14.1923C36.0013 13.8462 36.3346 13.5 36.668 13.5H40.0013V10.0385C40.0013 9.69231 40.3346 9.34615 40.668 9.34615H42.3346ZM42.3346 8.48077H40.668C39.8346 8.48077 39.168 9.17308 39.168 10.0385V12.6346H36.668C35.8346 12.6346 35.168 13.3269 35.168 14.1923V15.9231C35.168 16.7885 35.8346 17.4808 36.668 17.4808H39.168V20.0769C39.168 20.9423 39.8346 21.6346 40.668 21.6346H42.3346C43.168 21.6346 43.8346 20.9423 43.8346 20.0769V17.4808H46.3346C47.168 17.4808 47.8346 16.7885 47.8346 15.9231V14.1923C47.8346 14.0192 47.8346 14.0192 47.8346 13.8462C47.668 13.5 47.5013 12.6346 46.3346 12.6346H43.8346V10.0385C43.8346 9.17308 43.168 8.48077 42.3346 8.48077Z" fill="#686D00"/>
<path d="M33.6639 38.7692C32.4973 38.7692 32.1639 37.9038 32.1639 37.5577L30.3306 31.6731H19.9973L18.3306 37.5577C18.3306 37.9038 17.9973 38.7692 16.9973 38.7692H11.6639C11.1639 38.7692 10.8306 38.5962 10.6639 38.4231C10.4973 38.0769 10.6639 37.5577 10.6639 37.3846L20.9973 8.30769C21.1639 7.78846 21.6639 6.75 23.3306 6.75H26.8306C28.8306 6.75 29.4973 7.96154 29.4973 8.48077L39.4973 37.2115C39.8306 37.9038 39.3306 38.5962 38.9973 38.7692H38.8306H33.6639ZM28.6639 25.0962L25.3306 14.5385L21.4973 25.0962H28.6639Z" fill="white"/>
<path d="M26.832 7.09615C28.6654 7.09615 29.1654 8.13461 29.1654 8.30769L39.1654 37.2115C39.4987 37.9038 38.832 38.25 38.832 38.25C38.832 38.25 34.6654 38.25 33.6654 38.25C32.6654 38.25 32.4987 37.3846 32.4987 37.3846L30.6654 31.1538H19.6654L17.832 37.3846C17.832 37.3846 17.6654 38.25 16.9987 38.25C16.1654 38.25 12.4987 38.25 11.6654 38.25C10.832 38.25 10.9987 37.7308 11.1654 37.3846L21.332 8.30769C21.4987 7.96154 21.6654 7.09615 23.332 7.09615C23.6654 7.09615 26.1654 7.09615 26.832 7.09615ZM20.9987 25.4423H29.332L25.4987 13.1538L20.9987 25.4423ZM26.832 6.23077H23.332C21.4987 6.23077 20.9987 7.09615 20.6654 7.78846L10.332 36.6923C9.9987 37.2115 9.9987 37.9038 10.332 38.0769C10.4987 38.4231 10.9987 38.7692 11.6654 38.7692H16.9987C17.9987 38.7692 18.4987 37.9038 18.6654 37.2115L20.332 31.6731H30.1654L31.832 37.2115C31.9987 37.9038 32.4987 38.7692 33.6654 38.7692H38.832H38.9987L39.1654 38.5961C39.6654 38.25 40.332 37.3846 39.832 36.3461L29.832 7.61538C29.832 7.44231 28.9987 6.23077 26.832 6.23077ZM22.1654 24.5769L25.332 15.75L28.1654 24.5769H22.1654Z" fill="#686D00"/>
</g>
</g>
<defs>
<clipPath id="clip0_5974_345564">
<rect width="75" height="45" fill="white"/>
</clipPath>
<clipPath id="clip1_5974_345564">
<rect width="75" height="45" fill="white"/>
</clipPath>
</defs>
</svg>
