<svg width="75" height="45" viewBox="0 0 75 45" fill="none" xmlns="http://www.w3.org/2000/svg">
<g clip-path="url(#clip0_5520_345460)">
<path d="M55 0H15.5V45H55L75 22.6731L55 0Z" fill="#FDB913"/>
<path d="M15.5 0H0V45H15.5V0Z" fill="white"/>
<path d="M7.83268 27.5192C8.33268 27.5192 8.66602 27.1731 8.66602 26.6538V20.4231L9.83268 21.4615C9.99935 21.6346 10.166 21.6346 10.3327 21.6346C10.4993 21.6346 10.8327 21.4615 10.8327 21.4615C11.166 21.1154 11.166 20.5961 10.8327 20.25L8.33268 17.6538C7.99935 17.3077 7.49935 17.3077 7.16602 17.6538L4.66602 20.25C4.33268 20.5961 4.33268 21.1154 4.66602 21.4615C4.99935 21.8077 5.49935 21.8077 5.83268 21.4615L6.99935 20.4231V26.6538C6.83268 27.1731 6.99935 27.5192 7.83268 27.5192Z" fill="black"/>
<path d="M9.33268 13.6731H6.33268L5.83268 15.4038H4.16602L6.83268 6.92307H8.49935L11.3327 15.4038H9.66602C9.99935 15.4038 9.33268 13.6731 9.33268 13.6731ZM8.83268 12.2885L7.83268 8.48076L6.66602 12.2885H8.83268Z" fill="#231C1E"/>
<path d="M11.1654 33.0577V37.3846C10.832 37.5577 10.4987 37.7308 9.9987 37.9038C9.4987 38.0769 8.83203 38.0769 8.66536 38.0769C7.4987 38.0769 6.4987 37.7308 5.83203 36.8654C5.16536 36 4.83203 34.9615 4.83203 33.5769C4.83203 32.1923 5.16536 30.9808 5.83203 30.2884C6.4987 29.5961 7.4987 29.0769 8.66536 29.0769C9.16536 29.0769 9.66537 29.0769 9.9987 29.25C10.4987 29.4231 10.832 29.5961 10.9987 29.7692L10.4987 31.1538C9.83203 30.8077 9.16536 30.6346 8.4987 30.6346C6.9987 30.6346 6.33203 31.6731 6.33203 33.5769C6.33203 35.4808 6.9987 36.6923 8.66536 36.6923C8.9987 36.6923 9.33203 36.6923 9.66537 36.5192V34.4423H8.16536V33.0577H11.1654Z" fill="black"/>
<path d="M74.8333 22.3269L55.5 0.173077C55.5 0.173077 55.3333 0 55.1667 0H0.5C0.333333 0 0 0.173077 0 0.519231V44.4808C0 44.6539 0.166667 45 0.5 45H55.1667C55.3333 45 55.3333 45 55.5 44.8269L74.8333 23.0192C75 22.6731 75 22.5 74.8333 22.3269ZM1 1.03846H15V44.1346H1V1.03846ZM54.8333 44.1346H16V1.03846H54.8333L73.8333 22.6731L54.8333 44.1346Z" fill="black"/>
<path d="M44.9424 34.442C44.9191 34.1942 44.8694 33.9504 44.7941 33.7153C44.7449 33.5602 44.6597 33.4219 44.5471 33.314C44.4553 33.2305 44.3399 33.1846 44.2209 33.1841H35.1374V24.7245H42.7679C42.8855 24.7252 43.0003 24.6833 43.0941 24.6052C43.208 24.5073 43.2939 24.3756 43.3412 24.2256C43.4174 23.9984 43.4674 23.7615 43.4894 23.5206C43.5508 22.7991 43.5508 22.073 43.4894 21.3515C43.4676 21.107 43.4179 20.8665 43.3412 20.6357C43.2914 20.4841 43.206 20.3494 43.0941 20.2452C43.0028 20.1608 42.8872 20.1147 42.7679 20.1151H35.1374V12.751H44.1614C44.278 12.7527 44.3909 12.7062 44.4778 12.6208C44.5847 12.5096 44.6662 12.3721 44.7149 12.2195C44.7907 11.9846 44.8404 11.7408 44.8632 11.4929C44.8983 11.1327 44.9147 10.7706 44.9127 10.4084C44.9159 10.0244 44.8996 9.64056 44.8632 9.25871C44.8295 9.00629 44.7699 8.75888 44.6855 8.52124C44.6407 8.36646 44.5587 8.22781 44.4481 8.11997C44.3585 8.04109 44.2466 7.9989 44.1317 8.00064H31.5397C31.1365 7.98843 30.7454 8.1523 30.4523 8.45613C30.1236 8.85843 29.9622 9.39294 30.0075 9.93114V36.0687C29.9622 36.607 30.1236 37.1414 30.4523 37.5438C30.7454 37.8475 31.1365 38.0116 31.5397 37.9994H44.2308C44.3501 37.9996 44.4657 37.9535 44.5567 37.8689C44.6696 37.7613 44.7548 37.623 44.804 37.4679C44.8795 37.2331 44.9293 36.989 44.9523 36.7412C45.0159 35.9944 45.0159 35.2427 44.9523 34.4962L44.9424 34.442Z" fill="white" stroke="black" stroke-miterlimit="10" stroke-linecap="round" stroke-linejoin="round"/>
</g>
<defs>
<clipPath id="clip0_5520_345460">
<rect width="75" height="45" fill="white"/>
</clipPath>
</defs>
</svg>
