<svg width="75" height="45" viewBox="0 0 75 45" fill="none" xmlns="http://www.w3.org/2000/svg">
<g clip-path="url(#clip0_5974_345668)">
<g clip-path="url(#clip1_5974_345668)">
<path d="M56 0H0V45H56L75 22.5L56 0Z" fill="#E60012"/>
<path d="M45.8333 22.3269C45.8333 25.2693 45.3333 27.8654 44.1667 30.2885C43 32.7116 41.5 34.4423 39.8333 35.6539C38.6667 36.5193 37 37.2116 35.5 37.5577C34 37.9039 32.1667 38.0769 30 38.0769H21V6.40387H30.5C32.6667 6.40387 34.5 6.57695 36 7.09618C37.5 7.44233 39 8.13464 40 8.82695C41.8333 10.0385 43.3333 11.9423 44.3333 14.1923C45.3333 16.4423 45.8333 19.2116 45.8333 22.3269ZM38.8333 22.3269C38.8333 20.4231 38.5 18.8654 38 17.6539C37.5 16.4423 36.5 15.2308 35 14.3654C34.3333 14.0193 33.8333 13.6731 33.1667 13.6731C32.5 13.5 31.5 13.5 30 13.5H28.3333V30.8077H29.8333C31.1667 30.8077 32.5 30.8077 33.3333 30.6346C34.1667 30.4616 34.6667 30.1154 35.5 29.9423C36.6667 29.25 37.3333 28.2116 38.1667 26.8269C38.6667 25.7885 38.8333 24.2308 38.8333 22.3269Z" fill="white" stroke="#6B000D" stroke-width="0.5" stroke-miterlimit="10"/>
</g>
</g>
<defs>
<clipPath id="clip0_5974_345668">
<rect width="75" height="45" fill="white"/>
</clipPath>
<clipPath id="clip1_5974_345668">
<rect width="75" height="45" fill="white"/>
</clipPath>
</defs>
</svg>
