<svg width="75" height="45" viewBox="0 0 75 45" fill="none" xmlns="http://www.w3.org/2000/svg">
<g clip-path="url(#clip0_5520_344900)">
<path d="M55 0H15.5V45H55L75 22.6731L55 0Z" fill="#BFD730"/>
<path d="M15.5 0H0V45H15.5V0Z" fill="white"/>
<path d="M7.83268 27.5192C8.33268 27.5192 8.66602 27.1731 8.66602 26.6538V20.4231L9.83268 21.4615C9.99935 21.6346 10.166 21.6346 10.3327 21.6346C10.4993 21.6346 10.8327 21.4615 10.8327 21.4615C11.166 21.1154 11.166 20.5962 10.8327 20.25L8.33268 17.6538C7.99935 17.3077 7.49935 17.3077 7.16602 17.6538L4.66602 20.25C4.33268 20.5962 4.33268 21.1154 4.66602 21.4615C4.99935 21.8077 5.49935 21.8077 5.83268 21.4615L6.99935 20.4231V26.6538C6.83268 27.1731 6.99935 27.5192 7.83268 27.5192Z" fill="black"/>
<path d="M9.33268 13.6731H6.33268L5.83268 15.4038H4.16602L6.83268 6.92308H8.49935L11.3327 15.4038H9.66602C9.99935 15.4038 9.33268 13.6731 9.33268 13.6731ZM8.83268 12.2885L7.83268 8.48077L6.66602 12.2885H8.83268Z" fill="#231C1E"/>
<path d="M11.1654 33.0577V37.3846C10.832 37.5577 10.4987 37.7308 9.9987 37.9039C9.4987 38.0769 8.83203 38.0769 8.66536 38.0769C7.4987 38.0769 6.4987 37.7308 5.83203 36.8654C5.16536 36 4.83203 34.9615 4.83203 33.5769C4.83203 32.1923 5.16536 30.9808 5.83203 30.2885C6.4987 29.5962 7.4987 29.0769 8.66536 29.0769C9.16536 29.0769 9.66537 29.0769 9.9987 29.25C10.4987 29.4231 10.832 29.5962 10.9987 29.7692L10.4987 31.1539C9.83203 30.8077 9.16536 30.6346 8.4987 30.6346C6.9987 30.6346 6.33203 31.6731 6.33203 33.5769C6.33203 35.4808 6.9987 36.6923 8.66536 36.6923C8.9987 36.6923 9.33203 36.6923 9.66537 36.5192V34.4423H8.16536V33.0577H11.1654Z" fill="black"/>
<path d="M74.8333 22.3269L55.5 0.173077C55.5 0.173077 55.3333 0 55.1667 0H0.5C0.333333 0 0 0.173077 0 0.519231V44.4808C0 44.6539 0.166667 45 0.5 45H55.1667C55.3333 45 55.3333 45 55.5 44.8269L74.8333 23.0192C75 22.6731 75 22.5 74.8333 22.3269ZM1 1.03846H15V44.1346H1V1.03846ZM54.8333 44.1346H16V1.03846H54.8333L73.8333 22.6731L54.8333 44.1346Z" fill="black"/>
<path d="M46.9893 31.4109C46.9732 31.1382 46.9305 30.8679 46.8622 30.6043C46.8307 30.4569 46.7568 30.3239 46.6505 30.2233C46.5508 30.152 46.4318 30.1167 46.3115 30.1225C46.0281 30.1693 45.7633 30.3016 45.549 30.5035C45.2242 30.7572 44.8039 31.0448 44.2885 31.366C43.7065 31.7205 43.0927 32.0131 42.4563 32.2401C41.6388 32.5189 40.7833 32.6514 39.9247 32.6321C38.9247 32.6486 37.9336 32.4304 37.0227 31.9935C36.1503 31.5566 35.3958 30.8938 34.8302 30.0663C34.1685 29.0845 33.6904 27.9779 33.4216 26.806C33.0682 25.2584 32.901 23.6698 32.924 22.0779C32.9063 20.5702 33.0591 19.0657 33.3794 17.5963C33.638 16.4012 34.0935 15.2635 34.7245 14.2352C35.2622 13.353 35.9875 12.6163 36.8427 12.084C37.7247 11.572 38.718 11.3132 39.7237 11.3333C40.5805 11.311 41.4344 11.4514 42.2445 11.7478C42.8805 11.9905 43.4909 12.3021 44.0661 12.6777C44.4997 12.9612 44.9172 13.2717 45.3159 13.6076C45.5312 13.8332 45.8102 13.9788 46.1104 14.0222C46.2372 14.0232 46.3591 13.9708 46.4492 13.8766C46.5677 13.7472 46.6547 13.5897 46.7034 13.4172C46.7846 13.1521 46.8346 12.8773 46.8518 12.5993C46.8518 12.2632 46.8518 11.8599 46.8518 11.3781C46.8518 10.8963 46.8518 10.5602 46.8518 10.2577C46.8341 9.99461 46.8021 9.73275 46.7565 9.47342C46.7227 9.28348 46.6656 9.09891 46.587 8.92445C46.4779 8.72872 46.3464 8.54804 46.1951 8.38664C45.8964 8.08122 45.5617 7.81759 45.1995 7.60236C44.6911 7.28154 44.1557 7.01144 43.6 6.79569C42.9693 6.55413 42.3211 6.36678 41.662 6.23548C40.9747 6.08877 40.2763 6.01001 39.5753 6.00015C37.8216 5.99141 36.0859 6.37317 34.4807 7.12056C32.9466 7.83475 31.5906 8.91641 30.5195 10.2801C29.3471 11.7872 28.4654 13.5229 27.9247 15.3891C27.2787 17.663 26.968 20.0287 27.0031 22.4028C26.9667 24.7008 27.2484 26.9921 27.8399 29.2035C28.3154 30.9861 29.1339 32.6453 30.2443 34.0772C31.2698 35.3651 32.5742 36.3722 34.0466 37.0127C35.6419 37.6893 37.3482 38.0245 39.0669 37.9986C39.9557 38.0036 40.843 37.9135 41.7148 37.7297C42.4583 37.5752 43.1883 37.354 43.8966 37.0689C44.4549 36.8422 44.9935 36.5648 45.5065 36.2397C45.8313 36.0469 46.1302 35.8094 46.3964 35.5339C46.5273 35.3844 46.6409 35.2188 46.7352 35.0408C46.8112 34.8769 46.8682 34.7039 46.9047 34.5254C46.951 34.2888 46.9828 34.0494 47 33.8084C47 33.5285 47 33.1921 47 32.7888C46.9893 32.2175 46.9893 31.7583 46.9893 31.4109Z" fill="white" stroke="black" stroke-miterlimit="10" stroke-linecap="round" stroke-linejoin="round"/>
</g>
<defs>
<clipPath id="clip0_5520_344900">
<rect width="75" height="45" fill="white"/>
</clipPath>
</defs>
</svg>
