<svg width="75" height="45" viewBox="0 0 75 45" fill="none" xmlns="http://www.w3.org/2000/svg">
<g clip-path="url(#clip0_5520_345722)">
<path d="M55 0H15.5V45H55L75 22.6731L55 0Z" fill="#F37021"/>
<path d="M15.5 0H0V45H15.5V0Z" fill="white"/>
<path d="M7.83268 27.5192C8.33268 27.5192 8.66602 27.1731 8.66602 26.6538V20.4231L9.83268 21.4615C9.99935 21.6346 10.166 21.6346 10.3327 21.6346C10.4993 21.6346 10.8327 21.4615 10.8327 21.4615C11.166 21.1154 11.166 20.5961 10.8327 20.25L8.33268 17.6538C7.99935 17.3077 7.49935 17.3077 7.16602 17.6538L4.66602 20.25C4.33268 20.5961 4.33268 21.1154 4.66602 21.4615C4.99935 21.8077 5.49935 21.8077 5.83268 21.4615L6.99935 20.4231V26.6538C6.83268 27.1731 6.99935 27.5192 7.83268 27.5192Z" fill="black"/>
<path d="M9.33268 13.6731H6.33268L5.83268 15.4039H4.16602L6.83268 6.9231H8.49935L11.3327 15.4039H9.66602C9.99935 15.4039 9.33268 13.6731 9.33268 13.6731ZM8.83268 12.2885L7.83268 8.48079L6.66602 12.2885H8.83268Z" fill="#231C1E"/>
<path d="M11.1654 33.0577V37.3847C10.832 37.5577 10.4987 37.7308 9.9987 37.9039C9.4987 38.077 8.83203 38.077 8.66536 38.077C7.4987 38.077 6.4987 37.7308 5.83203 36.8654C5.16536 36 4.83203 34.9616 4.83203 33.577C4.83203 32.1924 5.16536 30.9808 5.83203 30.2885C6.4987 29.5962 7.4987 29.077 8.66536 29.077C9.16536 29.077 9.66537 29.077 9.9987 29.25C10.4987 29.4231 10.832 29.5962 10.9987 29.7693L10.4987 31.1539C9.83203 30.8077 9.16536 30.6347 8.4987 30.6347C6.9987 30.6347 6.33203 31.6731 6.33203 33.577C6.33203 35.4808 6.9987 36.6924 8.66536 36.6924C8.9987 36.6924 9.33203 36.6924 9.66537 36.5193V34.4424H8.16536V33.0577H11.1654Z" fill="black"/>
<path d="M74.8333 22.3269L55.5 0.173077C55.5 0.173077 55.3333 0 55.1667 0H0.5C0.333333 0 0 0.173077 0 0.519231V44.4808C0 44.6539 0.166667 45 0.5 45H55.1667C55.3333 45 55.3333 45 55.5 44.8269L74.8333 23.0192C75 22.6731 75 22.5 74.8333 22.3269ZM1 1.03846H15V44.1346H1V1.03846ZM54.8333 44.1346H16V1.03846H54.8333L73.8333 22.6731L54.8333 44.1346Z" fill="black"/>
<path d="M44.9615 8.41467C44.9392 8.13162 44.8791 7.85311 44.7827 7.58696C44.725 7.41706 44.6293 7.26349 44.5033 7.13863C44.4045 7.04906 44.2771 6.99997 44.1456 7.00068H30.731C30.2752 6.98771 29.833 7.16142 29.5015 7.48347C29.1334 7.91177 28.9553 8.47804 29.0096 9.04682V37.9128C29.0056 38.0821 29.0566 38.2481 29.1549 38.3841C29.2785 38.5378 29.4409 38.6532 29.6243 38.7175C29.913 38.8241 30.2133 38.8936 30.5187 38.9245C31.455 39.0252 32.3991 39.0252 33.3357 38.9245C33.6405 38.892 33.9409 38.8222 34.2298 38.7175C34.4153 38.6573 34.5788 38.5411 34.6994 38.3841C34.7906 38.2454 34.8376 38.0805 34.8334 37.9128V26.0722H43.5978C43.7294 26.073 43.8567 26.0239 43.9553 25.9343C44.0813 25.8094 44.1769 25.6558 44.2349 25.486C44.3282 25.223 44.3882 24.9486 44.4137 24.6698C44.4892 23.8517 44.4892 23.0279 44.4137 22.2097C44.3896 21.9418 44.3295 21.6787 44.2349 21.428C44.1759 21.2686 44.0799 21.1267 43.9553 21.0141C43.8535 20.9313 43.7272 20.8867 43.5978 20.8876H34.8225V12.3462H44.1679C44.3013 12.3461 44.4297 12.2925 44.5254 12.1969C44.6468 12.0724 44.742 11.9237 44.805 11.76C44.9012 11.5017 44.9613 11.2308 44.9839 10.9552C45.0054 10.5417 45.0054 10.1272 44.9839 9.71368C44.9995 9.28061 44.9921 8.84689 44.9615 8.41467Z" fill="white" stroke="black" stroke-miterlimit="10" stroke-linecap="round" stroke-linejoin="round"/>
</g>
<defs>
<clipPath id="clip0_5520_345722">
<rect width="75" height="45" fill="white"/>
</clipPath>
</defs>
</svg>
