<svg width="75" height="45" viewBox="0 0 75 45" fill="none" xmlns="http://www.w3.org/2000/svg">
<g clip-path="url(#clip0_5974_345538)">
<g clip-path="url(#clip1_5974_345538)">
<path d="M56 0H0V45H56L75 22.5L56 0Z" fill="#45B035"/>
<path d="M37.832 21.1154C37.332 21.1154 36.832 20.5962 36.832 20.0769V17.1346H33.832C33.332 17.1346 32.832 16.6154 32.832 16.0962V14.3654C32.832 13.8462 33.332 13.1538 33.832 13.1538H36.832V10.0385C36.832 9.51923 37.332 9 37.832 9H39.4987C39.9987 9 40.6654 9.51923 40.6654 10.0385V13.1538H43.6654C44.332 13.1538 44.4987 13.6731 44.6654 14.1923V16.0962C44.6654 16.6154 44.1654 17.1346 43.6654 17.1346H40.6654V20.25C40.6654 20.7692 40.1654 21.2885 39.4987 21.2885H37.832V21.1154Z" fill="white"/>
<path d="M39.4987 9.34616C39.832 9.34616 40.1654 9.69231 40.1654 10.0385V13.5H43.4987C43.832 13.5 43.9987 13.6731 44.1654 14.1923V15.9231C44.1654 16.2692 43.832 16.6154 43.4987 16.6154H40.1654V20.0769C40.1654 20.4231 39.832 20.7692 39.4987 20.7692H37.832C37.4987 20.7692 37.1654 20.4231 37.1654 20.0769V16.6154H33.832C33.4987 16.6154 33.1654 16.2692 33.1654 15.9231V14.1923C33.1654 13.8462 33.4987 13.5 33.832 13.5H37.1654V10.0385C37.1654 9.69231 37.4987 9.34616 37.832 9.34616H39.4987ZM39.4987 8.48077H37.832C36.9987 8.48077 36.332 9.17308 36.332 10.0385V12.6346H33.832C32.9987 12.6346 32.332 13.3269 32.332 14.1923V15.9231C32.332 16.7885 32.9987 17.4808 33.832 17.4808H36.332V20.0769C36.332 20.9423 36.9987 21.6346 37.832 21.6346H39.4987C40.332 21.6346 40.9987 20.9423 40.9987 20.0769V17.4808H43.4987C44.332 17.4808 44.9987 16.7885 44.9987 15.9231V14.1923C44.9987 14.0192 44.9987 14.0192 44.9987 13.8462C44.832 13.5 44.6654 12.6346 43.4987 12.6346H40.9987V10.0385C40.9987 9.17308 40.332 8.48077 39.4987 8.48077Z" fill="#2D6D22"/>
<path d="M50.8307 21.1154C50.3307 21.1154 49.8307 20.5962 49.8307 20.0769V16.9615H46.8307C46.3307 16.9615 45.6641 16.4423 45.6641 15.75V14.0192C45.6641 13.5 46.1641 12.9808 46.8307 12.9808H49.8307V10.0385C49.8307 9.51923 50.3307 9 50.8307 9H52.4974C52.9974 9 53.6641 9.51923 53.6641 10.0385V13.1538H56.6641C57.3307 13.1538 57.4974 13.6731 57.6641 14.1923V16.0962C57.6641 16.6154 57.1641 17.3077 56.4974 17.3077H53.4974V20.4231C53.4974 20.9423 52.9974 21.4615 52.3307 21.4615H50.8307V21.1154Z" fill="white"/>
<path d="M52.4987 9.34616C52.832 9.34616 53.1654 9.69231 53.1654 10.0385V13.5H56.4987C56.832 13.5 56.9987 13.6731 57.1654 14.1923V15.9231C57.1654 16.2692 56.832 16.6154 56.4987 16.6154H53.1654V20.0769C53.1654 20.4231 52.832 20.7692 52.4987 20.7692H50.832C50.4987 20.7692 50.1654 20.4231 50.1654 20.0769V16.6154H46.832C46.4987 16.6154 46.1654 16.2692 46.1654 15.9231V14.1923C46.1654 13.8462 46.4987 13.5 46.832 13.5H50.1654V10.0385C50.1654 9.69231 50.4987 9.34616 50.832 9.34616H52.4987ZM52.4987 8.48077H50.832C49.9987 8.48077 49.332 9.17308 49.332 10.0385V12.6346H46.832C45.9987 12.6346 45.332 13.3269 45.332 14.1923V15.9231C45.332 16.7885 45.9987 17.4808 46.832 17.4808H49.332V20.0769C49.332 20.9423 49.9987 21.6346 50.832 21.6346H52.4987C53.332 21.6346 53.9987 20.9423 53.9987 20.0769V17.4808H56.4987C57.332 17.4808 57.9987 16.7885 57.9987 15.9231V14.1923C57.9987 14.0192 57.9987 14.0192 57.9987 13.8462C57.832 13.5 57.6654 12.6346 56.4987 12.6346H53.9987V10.0385C53.9987 9.17308 53.332 8.48077 52.4987 8.48077Z" fill="#2D6D22"/>
<path d="M31.4999 38.7692C30.3332 38.7692 29.9999 37.9038 29.9999 37.5577L28.1665 31.6731H17.8332L16.1665 37.5577C16.1665 37.9038 15.8332 38.7692 14.8332 38.7692H9.49986C8.99986 38.7692 8.66652 38.5962 8.49986 38.4231C8.33319 38.0769 8.49986 37.5577 8.49986 37.3846L18.8332 8.30769C18.9999 7.78846 19.4999 6.75 21.1665 6.75H24.6665C26.6665 6.75 27.3332 7.96154 27.3332 8.48077L37.3332 37.2115C37.6665 37.9038 37.1665 38.5962 36.8332 38.7692H36.6665H31.4999ZM26.4999 25.0962L23.1665 14.5385L19.3332 25.0962H26.4999Z" fill="white"/>
<path d="M24.668 7.09616C26.5013 7.09616 27.0013 8.13462 27.0013 8.3077L37.0013 37.2115C37.3346 37.9038 36.668 38.25 36.668 38.25C36.668 38.25 32.5013 38.25 31.5013 38.25C30.5013 38.25 30.3346 37.3846 30.3346 37.3846L28.5013 31.1538H17.5013L15.668 37.3846C15.668 37.3846 15.5013 38.25 14.8346 38.25C14.0013 38.25 10.3346 38.25 9.5013 38.25C8.66797 38.25 8.83464 37.7308 9.0013 37.3846L19.168 8.3077C19.3346 7.96154 19.5013 7.09616 21.168 7.09616C21.5013 7.09616 24.0013 7.09616 24.668 7.09616ZM18.8346 25.4423H27.168L23.3346 13.1539L18.8346 25.4423ZM24.668 6.23077H21.168C19.3346 6.23077 18.8346 7.09616 18.5013 7.78847L8.16797 36.6923C7.83464 37.2115 7.83464 37.7308 8.16797 38.0769C8.33464 38.4231 8.83463 38.7692 9.5013 38.7692H14.8346C15.8346 38.7692 16.3346 37.9038 16.5013 37.2115L18.168 31.6731H28.0013L29.668 37.2115C29.8346 37.9038 30.3346 38.7692 31.5013 38.7692H36.668H36.8346L37.0013 38.5962C37.5013 38.25 38.168 37.3846 37.668 36.3462L27.668 7.61539C27.668 7.44231 26.8346 6.23077 24.668 6.23077ZM20.0013 24.5769L23.168 15.75L26.0013 24.5769H20.0013Z" fill="#2D6D22"/>
</g>
</g>
<defs>
<clipPath id="clip0_5974_345538">
<rect width="75" height="45" fill="white"/>
</clipPath>
<clipPath id="clip1_5974_345538">
<rect width="75" height="45" fill="white"/>
</clipPath>
</defs>
</svg>
