<svg width="75" height="45" viewBox="0 0 75 45" fill="none" xmlns="http://www.w3.org/2000/svg">
<g clip-path="url(#clip0_5974_345642)">
<g clip-path="url(#clip1_5974_345642)">
<path d="M56 0H0V45H56L75 22.5L56 0Z" fill="#ED6C00"/>
<path d="M20 22.3269C20 12.2885 27.1667 6.23077 35 6.23077C40.1667 6.23077 43.5 8.48077 46.5 12.9808L41.6667 17.4808C41.5 16.0962 39.1667 13.6731 34.5 13.6731C30.5 13.6731 27.1667 17.6539 27.1667 22.6731C27.1667 27.6923 30.1667 30.4615 35.3333 30.6346C38.8333 30.8077 41 28.7308 42.6667 27.3462L46.1667 33.5769C43.1667 36.3462 39.6667 38.25 34.5 38.25C26.3333 38.4231 20 32.5385 20 22.3269Z" fill="white" stroke="#6B2E00" stroke-width="0.4" stroke-miterlimit="10"/>
</g>
</g>
<defs>
<clipPath id="clip0_5974_345642">
<rect width="75" height="45" fill="white"/>
</clipPath>
<clipPath id="clip1_5974_345642">
<rect width="75" height="45" fill="white"/>
</clipPath>
</defs>
</svg>
