<svg width="75" height="45" viewBox="0 0 75 45" fill="none" xmlns="http://www.w3.org/2000/svg">
<g clip-path="url(#clip0_5520_345162)">
<path d="M55 0H15.5V45H55L75 22.6731L55 0Z" fill="#FFF200"/>
<path d="M15.5 0H0V45H15.5V0Z" fill="white"/>
<path d="M7.83268 27.5192C8.33268 27.5192 8.66602 27.1731 8.66602 26.6538V20.4231L9.83268 21.4615C9.99935 21.6346 10.166 21.6346 10.3327 21.6346C10.4993 21.6346 10.8327 21.4615 10.8327 21.4615C11.166 21.1154 11.166 20.5961 10.8327 20.25L8.33268 17.6538C7.99935 17.3077 7.49935 17.3077 7.16602 17.6538L4.66602 20.25C4.33268 20.5961 4.33268 21.1154 4.66602 21.4615C4.99935 21.8077 5.49935 21.8077 5.83268 21.4615L6.99935 20.4231V26.6538C6.83268 27.1731 6.99935 27.5192 7.83268 27.5192Z" fill="black"/>
<path d="M9.33268 13.6731H6.33268L5.83268 15.4038H4.16602L6.83268 6.92308H8.49935L11.3327 15.4038H9.66602C9.99935 15.4038 9.33268 13.6731 9.33268 13.6731ZM8.83268 12.2885L7.83268 8.48077L6.66602 12.2885H8.83268Z" fill="#231C1E"/>
<path d="M11.1654 33.0577V37.3846C10.832 37.5577 10.4987 37.7308 9.9987 37.9038C9.4987 38.0769 8.83203 38.0769 8.66536 38.0769C7.4987 38.0769 6.4987 37.7308 5.83203 36.8654C5.16536 36 4.83203 34.9615 4.83203 33.5769C4.83203 32.1923 5.16536 30.9808 5.83203 30.2885C6.4987 29.5962 7.4987 29.0769 8.66536 29.0769C9.16536 29.0769 9.66537 29.0769 9.9987 29.25C10.4987 29.4231 10.832 29.5962 10.9987 29.7692L10.4987 31.1538C9.83203 30.8077 9.16536 30.6346 8.4987 30.6346C6.9987 30.6346 6.33203 31.6731 6.33203 33.5769C6.33203 35.4808 6.9987 36.6923 8.66536 36.6923C8.9987 36.6923 9.33203 36.6923 9.66537 36.5192V34.4423H8.16536V33.0577H11.1654Z" fill="black"/>
<path d="M74.8333 22.3269L55.5 0.173077C55.5 0.173077 55.3333 0 55.1667 0H0.5C0.333333 0 0 0.173077 0 0.519231V44.4808C0 44.6539 0.166667 45 0.5 45H55.1667C55.3333 45 55.3333 45 55.5 44.8269L74.8333 23.0192C75 22.6731 75 22.5 74.8333 22.3269ZM1 1.03846H15V44.1346H1V1.03846ZM54.8333 44.1346H16V1.03846H54.8333L73.8333 22.6731L54.8333 44.1346Z" fill="black"/>
<path d="M43.9288 26.9088C43.649 28.1299 43.1339 29.2734 42.4175 30.265C41.7486 31.1613 40.8792 31.8582 39.8918 32.2901C38.701 32.7708 37.4357 32.9987 36.1653 32.9612H33.3703V11.9174H36.0928C37.4615 11.8613 38.825 12.1286 40.0883 12.7005C41.0711 13.1883 41.9279 13.9297 42.5831 14.8597C43.2499 15.8276 43.7289 16.9311 43.991 18.1041C44.3067 19.4499 44.4665 20.8328 44.4671 22.2212C44.4788 23.8025 44.2978 25.3785 43.9288 26.9088ZM49.1048 15.531C48.5812 13.7787 47.7046 12.1738 46.5376 10.8322C45.3809 9.54425 43.9635 8.56387 42.3969 7.96819C40.4616 7.27623 38.4306 6.95078 36.393 7.00602H29.6125C29.1903 6.99342 28.7807 7.16242 28.4739 7.47588C28.1293 7.89088 27.9605 8.44223 28.0078 8.99739V36.0042C27.9605 36.5593 28.1293 37.1107 28.4739 37.5258C28.7807 37.8391 29.1903 38.0082 29.6125 37.9955H35.9269C37.9797 38.0413 40.0267 37.7391 41.993 37.1008C43.6215 36.5494 45.1048 35.5869 46.3202 34.2925C47.578 32.8795 48.5107 31.1662 49.0424 29.2917C49.7239 26.936 50.0453 24.476 49.9949 22.0085C50.0307 19.8119 49.7333 17.6238 49.1152 15.5309L49.1048 15.531Z" fill="white" stroke="black" stroke-miterlimit="10" stroke-linecap="round" stroke-linejoin="round"/>
</g>
<defs>
<clipPath id="clip0_5520_345162">
<rect width="75" height="45" fill="white"/>
</clipPath>
</defs>
</svg>
