<svg width="75" height="45" viewBox="0 0 75 45" fill="none" xmlns="http://www.w3.org/2000/svg">
<g clip-path="url(#clip0_5520_344574)">
<path d="M55 0H15.5V45H55L75 22.6731L55 0Z" fill="#7AC143"/>
<path d="M15.5 0H0V45H15.5V0Z" fill="white"/>
<path d="M7.83268 27.5192C8.33268 27.5192 8.66602 27.1731 8.66602 26.6538V20.4231L9.83268 21.4615C9.99935 21.6346 10.166 21.6346 10.3327 21.6346C10.4993 21.6346 10.8327 21.4615 10.8327 21.4615C11.166 21.1154 11.166 20.5961 10.8327 20.25L8.33268 17.6538C7.99935 17.3077 7.49935 17.3077 7.16602 17.6538L4.66602 20.25C4.33268 20.5961 4.33268 21.1154 4.66602 21.4615C4.99935 21.8077 5.49935 21.8077 5.83268 21.4615L6.99935 20.4231V26.6538C6.83268 27.1731 6.99935 27.5192 7.83268 27.5192Z" fill="black"/>
<path d="M9.33268 13.6731H6.33268L5.83268 15.4038H4.16602L6.83268 6.92307H8.49935L11.3327 15.4038H9.66602C9.99935 15.4038 9.33268 13.6731 9.33268 13.6731ZM8.83268 12.2885L7.83268 8.48076L6.66602 12.2885H8.83268Z" fill="#231C1E"/>
<path d="M11.1654 33.0577V37.3846C10.832 37.5577 10.4987 37.7308 9.9987 37.9038C9.4987 38.0769 8.83203 38.0769 8.66536 38.0769C7.4987 38.0769 6.4987 37.7308 5.83203 36.8654C5.16536 36 4.83203 34.9615 4.83203 33.5769C4.83203 32.1923 5.16536 30.9808 5.83203 30.2884C6.4987 29.5961 7.4987 29.0769 8.66536 29.0769C9.16536 29.0769 9.66537 29.0769 9.9987 29.25C10.4987 29.4231 10.832 29.5961 10.9987 29.7692L10.4987 31.1538C9.83203 30.8077 9.16536 30.6346 8.4987 30.6346C6.9987 30.6346 6.33203 31.6731 6.33203 33.5769C6.33203 35.4808 6.9987 36.6923 8.66536 36.6923C8.9987 36.6923 9.33203 36.6923 9.66537 36.5192V34.4423H8.16536V33.0577H11.1654Z" fill="black"/>
<path d="M74.8333 22.3269L55.5 0.173077C55.5 0.173077 55.3333 0 55.1667 0H0.5C0.333333 0 0 0.173077 0 0.519231V44.4808C0 44.6539 0.166667 45 0.5 45H55.1667C55.3333 45 55.3333 45 55.5 44.8269L74.8333 23.0192C75 22.6731 75 22.5 74.8333 22.3269ZM1 1.03846H15V44.1346H1V1.03846ZM54.8333 44.1346H16V1.03846H54.8333L73.8333 22.6731L54.8333 44.1346Z" fill="black"/>
<path d="M41.5897 31.5204C41.373 32.0504 41.0431 32.5243 40.6231 32.9075C40.199 33.2859 39.7035 33.573 39.1671 33.7512C38.4928 33.9591 37.7902 34.0567 37.0858 34.0401H32.8093V24.9432H36.3126C37.1992 24.9204 38.0842 25.0294 38.9399 25.2669C39.5509 25.4476 40.1171 25.7591 40.6004 26.1801C41.0402 26.583 41.3794 27.0859 41.59 27.6484C41.8242 28.2838 41.94 28.9581 41.9312 29.6362C41.9441 30.2812 41.828 30.9225 41.5897 31.5204ZM40.1795 17.5915C40.0109 18.0944 39.7397 18.5552 39.3832 18.9439C39.0347 19.3398 38.6033 19.652 38.1209 19.8572C37.467 20.1056 36.7711 20.2194 36.0737 20.1924H32.7752V11.8928H35.7666C36.508 11.8704 37.2482 11.9639 37.9617 12.1702C38.4668 12.3238 38.9329 12.5882 39.3264 12.9447C39.6936 13.2954 39.9707 13.732 40.134 14.2162C40.3227 14.7739 40.4146 15.3605 40.407 15.9501C40.4155 16.5059 40.3387 17.0597 40.1795 17.5915ZM47.6179 26.4691C47.344 25.6317 46.9281 24.8493 46.3894 24.1572C45.8836 23.5171 45.267 22.9765 44.5697 22.562C43.8641 22.1462 43.0956 21.8531 42.295 21.695C42.9177 21.4419 43.4972 21.0909 44.0126 20.6549C44.5073 20.2322 44.9331 19.7325 45.2749 19.1755C45.6267 18.5986 45.8915 17.971 46.0598 17.3141C46.2438 16.601 46.3357 15.8669 46.3328 15.1297C46.3631 13.8928 46.1345 12.6634 45.662 11.5232C45.2318 10.5274 44.563 9.65713 43.7168 8.99169C42.7847 8.28417 41.7204 7.77681 40.5893 7.50057C39.0994 7.14017 37.5705 6.97314 36.0396 7.00351H28.7718C28.308 6.99055 27.858 7.16514 27.5205 7.48898C27.142 7.9178 26.9565 8.48747 27.0087 9.06088V36.9418C26.9565 37.5154 27.142 38.0855 27.5205 38.5137C27.8577 38.8376 28.3077 39.0123 28.7718 38.9992H36.4946C37.5603 39.0087 38.6252 38.9316 39.6793 38.7682C40.5969 38.6226 41.4967 38.3785 42.3635 38.0398C43.1711 37.7195 43.9356 37.2963 44.6382 36.7799C45.3306 36.2742 45.9379 35.6574 46.4352 34.9536C46.9401 34.2032 47.3239 33.3761 47.5724 32.5029C47.8643 31.5017 48.0064 30.461 47.9933 29.4164C48.0318 28.4196 47.9049 27.4232 47.6179 26.4691Z" fill="white" stroke="black" stroke-miterlimit="10" stroke-linecap="round" stroke-linejoin="round"/>
</g>
<defs>
<clipPath id="clip0_5520_344574">
<rect width="75" height="45" fill="white"/>
</clipPath>
</defs>
</svg>
