<svg width="65" height="64" viewBox="0 0 65 64" fill="none" xmlns="http://www.w3.org/2000/svg">
<g clip-path="url(#clip0_642_110421)">
<path d="M18.8594 18H4.85938C3.75481 18 2.85938 18.8954 2.85938 20V44C2.85938 45.1046 3.75481 46 4.85938 46H18.8594C19.9639 46 20.8594 45.1046 20.8594 44V20C20.8594 18.8954 19.9639 18 18.8594 18Z" stroke="black" stroke-width="1.5" stroke-linecap="round" stroke-linejoin="round"/>
<path d="M11.8594 42.5C14.8969 42.5 17.3594 40.0376 17.3594 37C17.3594 33.9624 14.8969 31.5 11.8594 31.5C8.82181 31.5 6.35938 33.9624 6.35938 37C6.35938 40.0376 8.82181 42.5 11.8594 42.5Z" stroke="black" stroke-width="1.5" stroke-linecap="round" stroke-linejoin="round"/>
<path d="M11.8594 28C13.5162 28 14.8594 26.6569 14.8594 25C14.8594 23.3431 13.5162 22 11.8594 22C10.2025 22 8.85938 23.3431 8.85938 25C8.85938 26.6569 10.2025 28 11.8594 28Z" stroke="black" stroke-width="1.5" stroke-linecap="round" stroke-linejoin="round"/>
<path d="M60.8594 18H46.8594C45.7548 18 44.8594 18.8954 44.8594 20V44C44.8594 45.1046 45.7548 46 46.8594 46H60.8594C61.9639 46 62.8594 45.1046 62.8594 44V20C62.8594 18.8954 61.9639 18 60.8594 18Z" stroke="black" stroke-width="1.5" stroke-linecap="round" stroke-linejoin="round"/>
<path d="M53.8594 42.5C56.8969 42.5 59.3594 40.0376 59.3594 37C59.3594 33.9624 56.8969 31.5 53.8594 31.5C50.8218 31.5 48.3594 33.9624 48.3594 37C48.3594 40.0376 50.8218 42.5 53.8594 42.5Z" stroke="black" stroke-width="1.5" stroke-linecap="round" stroke-linejoin="round"/>
<path d="M53.8594 28C55.5162 28 56.8594 26.6569 56.8594 25C56.8594 23.3431 55.5162 22 53.8594 22C52.2025 22 50.8594 23.3431 50.8594 25C50.8594 26.6569 52.2025 28 53.8594 28Z" stroke="black" stroke-width="1.5" stroke-linecap="round" stroke-linejoin="round"/>
<path d="M39.8594 32H25.8594C24.7548 32 23.8594 32.8954 23.8594 34V44C23.8594 45.1046 24.7548 46 25.8594 46H39.8594C40.9639 46 41.8594 45.1046 41.8594 44V34C41.8594 32.8954 40.9639 32 39.8594 32Z" stroke="black" stroke-width="1.5" stroke-miterlimit="10"/>
<path d="M36.5156 39C37.6202 39 38.5156 38.1046 38.5156 37C38.5156 35.8954 37.6202 35 36.5156 35C35.4111 35 34.5156 35.8954 34.5156 37C34.5156 38.1046 35.4111 39 36.5156 39Z" stroke="black" stroke-width="1.5" stroke-miterlimit="10"/>
<path d="M28.8594 42.3086H36.8594" stroke="black" stroke-width="1.5" stroke-miterlimit="10" stroke-linecap="round"/>
</g>
<defs>
<clipPath id="clip0_642_110421">
<rect width="61.5" height="29.5" fill="white" transform="translate(2.10938 17.25)"/>
</clipPath>
</defs>
</svg>
