<svg width="65" height="64" viewBox="0 0 65 64" fill="none" xmlns="http://www.w3.org/2000/svg">
<path d="M21.2459 47C21.1993 48.5963 20.8019 50.1569 20.0872 51.5495C19.3726 52.9421 18.3619 54.1256 17.1406 55" stroke="#040000" stroke-width="1.5" stroke-linecap="round" stroke-linejoin="round"/>
<path d="M43.1406 47V55" stroke="#040000" stroke-width="1.5" stroke-linecap="round" stroke-linejoin="round"/>
<path d="M32.1966 47C32.0957 49.7214 31.6351 52.4143 30.8281 55" stroke="#040000" stroke-width="1.5" stroke-linecap="round" stroke-linejoin="round"/>
<path fill-rule="evenodd" clip-rule="evenodd" d="M4.89062 10.25C3.37184 10.25 2.14062 11.4812 2.14062 13V39C2.14062 40.5188 3.37184 41.75 4.89062 41.75H8.89062H40.1406H55.3906H59.3906C60.9094 41.75 62.1406 40.5188 62.1406 39V13C62.1406 11.4812 60.9094 10.25 59.3906 10.25H4.89062ZM56.1406 40.25H59.3906C60.081 40.25 60.6406 39.6904 60.6406 39V36.5H56.1406V40.25ZM60.6406 35V13C60.6406 12.3096 60.081 11.75 59.3906 11.75H4.89062C4.20027 11.75 3.64062 12.3096 3.64062 13V35H60.6406ZM3.64062 36.5V39C3.64062 39.6904 4.20027 40.25 4.89062 40.25H8.14062V36.5H3.64062ZM9.64062 40.25V36.5H54.6406V40.25H40.1406H9.64062Z" fill="black"/>
</svg>
