<svg width="65" height="64" viewBox="0 0 65 64" fill="none" xmlns="http://www.w3.org/2000/svg">
<path fill-rule="evenodd" clip-rule="evenodd" d="M28.5389 3.75C28.5389 2.7835 29.3224 2 30.2889 2H34.2889C35.2554 2 36.0389 2.7835 36.0389 3.75V5.92903H36.8316C39.4549 5.92903 41.5816 8.05568 41.5816 10.679V28.188C42.9414 28.3491 44.0391 29.4997 44.0391 30.9426V36.0155C44.0391 37.3917 43.0199 38.5646 41.6389 38.7246L41.5816 38.7313V52.6792C41.5816 54.4089 40.639 56.112 38.9275 56.777C38.0843 57.1047 37.2532 57.3615 36.4395 57.5568V59.2499C36.4395 60.7687 35.2082 61.9999 33.6895 61.9999H30.8895C29.3707 61.9999 28.1395 60.7687 28.1395 59.2499V57.633C27.0906 57.3987 26.1515 57.0898 25.3484 56.7553C23.7702 56.098 22.998 54.4977 22.998 52.9404V38.7314L22.9392 38.7246C21.5582 38.5646 20.5391 37.3917 20.5391 36.0155V30.9426C20.5391 29.4992 21.6375 28.3482 22.998 28.1878V10.679C22.998 8.05568 25.1247 5.92903 27.748 5.92903H28.5389V3.75ZM29.6395 57.9021V59.2499C29.6395 59.9403 30.1991 60.4999 30.8895 60.4999H33.6895C34.3798 60.4999 34.9395 59.9403 34.9395 59.2499V57.8527C33.0293 58.1487 31.2387 58.1204 29.6395 57.9021ZM34.5389 3.75V5.92903H30.0389V3.75C30.0389 3.61193 30.1509 3.5 30.2889 3.5H34.2889C34.427 3.5 34.5389 3.61193 34.5389 3.75ZM24.498 28.2803C26.8023 28.5251 29.9207 28.8 32.2891 28.8C34.6579 28.8 37.7771 28.5249 40.0816 28.2801V10.679C40.0816 8.88411 38.6265 7.42903 36.8316 7.42903H27.748C25.9531 7.42903 24.498 8.88411 24.498 10.679V28.2803ZM24.498 38.897V52.9404C24.498 54.0516 25.0398 55.0019 25.9251 55.3706C28.6926 56.5231 33.2883 57.3592 38.3842 55.3789C39.4229 54.9753 40.0816 53.8999 40.0816 52.6792V38.8968C37.7747 39.1394 34.6805 39.4083 32.2891 39.4083C29.8982 39.4083 26.8047 39.1395 24.498 38.897ZM22.0391 30.9426C22.0391 30.1879 22.7065 29.5912 23.4715 29.677C25.8079 29.9393 29.5189 30.3 32.2891 30.3C35.0592 30.3 38.7703 29.9393 41.1066 29.677C41.8717 29.5912 42.5391 30.1879 42.5391 30.9426V36.0155C42.5391 36.6442 42.0768 37.1638 41.4662 37.2346C39.1898 37.4984 35.1814 37.9083 32.2891 37.9083C29.3967 37.9083 25.3884 37.4984 23.1119 37.2346C22.5014 37.1638 22.0391 36.6442 22.0391 36.0155V30.9426Z" fill="black"/>
</svg>
