<svg width="65" height="64" viewBox="0 0 65 64" fill="none" xmlns="http://www.w3.org/2000/svg">
<path fill-rule="evenodd" clip-rule="evenodd" d="M3.32227 10.75C3.32227 9.64543 4.2177 8.75 5.32227 8.75H30.3223C31.4268 8.75 32.3223 9.64543 32.3223 10.75V53.25C32.3223 54.3546 31.4268 55.25 30.3223 55.25H5.32226C4.2177 55.25 3.32227 54.3546 3.32227 53.25V10.75Z" stroke="black" stroke-width="1.5" stroke-linecap="round" stroke-linejoin="round"/>
<path d="M17.8223 55V9" stroke="black" stroke-width="1.5" stroke-linecap="round"/>
<path d="M3.57227 32H32.5723" stroke="black" stroke-width="1.5"/>
<path fill-rule="evenodd" clip-rule="evenodd" d="M21.5723 13.75C21.5723 13.1977 22.02 12.75 22.5723 12.75H27.5723C28.1246 12.75 28.5723 13.1977 28.5723 13.75V27C28.5723 27.5523 28.1246 28 27.5723 28H22.5723C22.02 28 21.5723 27.5523 21.5723 27V13.75Z" stroke="black" stroke-width="1.5" stroke-linecap="round" stroke-linejoin="round"/>
<path fill-rule="evenodd" clip-rule="evenodd" d="M37.8223 20C36.3035 20 35.0723 21.2312 35.0723 22.75V53.251C35.0723 54.7698 36.3035 56.001 37.8223 56.001H60.3223C61.8411 56.001 63.0723 54.7698 63.0723 53.251V22.75C63.0723 21.2312 61.841 20 60.3223 20H37.8223ZM36.5723 22.75C36.5723 22.0596 37.1319 21.5 37.8223 21.5H60.3223C61.0126 21.5 61.5723 22.0596 61.5723 22.75V29.2505H36.5723V22.75ZM36.5723 30.7505V53.251C36.5723 53.9414 37.1319 54.501 37.8223 54.501H60.3223C61.0126 54.501 61.5723 53.9414 61.5723 53.251V30.7505H36.5723ZM49.0723 35.3916C45.0682 35.3916 41.8223 38.6375 41.8223 42.6416C41.8223 46.6457 45.0682 49.8916 49.0723 49.8916C53.0763 49.8916 56.3223 46.6457 56.3223 42.6416C56.3223 38.6375 53.0763 35.3916 49.0723 35.3916ZM40.3223 42.6416C40.3223 37.8091 44.2398 33.8916 49.0723 33.8916C53.9048 33.8916 57.8223 37.8091 57.8223 42.6416C57.8223 47.4741 53.9048 51.3916 49.0723 51.3916C44.2398 51.3916 40.3223 47.4741 40.3223 42.6416ZM49.0711 24.521C48.5014 24.521 48.0391 24.9834 48.0391 25.5531C48.0391 26.1228 48.5014 26.5852 49.0711 26.5852C49.6409 26.5852 50.1032 26.1228 50.1032 25.5531C50.1032 24.9834 49.6409 24.521 49.0711 24.521ZM53.4512 24.7546C53.037 24.7546 52.7012 25.0904 52.7012 25.5046C52.7012 25.9189 53.037 26.2546 53.4512 26.2546H58.1693C58.5835 26.2546 58.9193 25.9189 58.9193 25.5046C58.9193 25.0904 58.5835 24.7546 58.1693 24.7546H53.4512ZM39.9746 24.7547C39.5604 24.7547 39.2246 25.0905 39.2246 25.5047C39.2246 25.9189 39.5604 26.2547 39.9746 26.2547H44.6927C45.1069 26.2547 45.4427 25.9189 45.4427 25.5047C45.4427 25.0905 45.1069 24.7547 44.6927 24.7547H39.9746Z" fill="black"/>
<path d="M53.0332 45.0101C52.81 44.7322 52.5266 44.5077 52.2041 44.3535C51.8815 44.1992 51.528 44.1191 51.1699 44.1191C50.8118 44.1191 50.4584 44.1992 50.1358 44.3535C49.8132 44.5077 49.5298 44.7322 49.3066 45.0101C47.2703 47.0313 45.1117 44.835 45.1117 44.835" stroke="black" stroke-width="1.3" stroke-linecap="round"/>
<path d="M53.0332 40.891C52.81 40.6131 52.5266 40.3886 52.2041 40.2343C51.8815 40.0801 51.528 40 51.1699 40C50.8118 40 50.4584 40.0801 50.1358 40.2343C49.8132 40.3886 49.5298 40.6131 49.3066 40.891C47.2703 42.9122 45.1117 40.7158 45.1117 40.7158" stroke="black" stroke-width="1.3" stroke-linecap="round"/>
</svg>
