<svg width="65" height="64" viewBox="0 0 65 64" fill="none" xmlns="http://www.w3.org/2000/svg">
<g clip-path="url(#clip0_642_110431)">
<path d="M6.79063 53.4016C7.28768 53.4016 7.69063 52.9986 7.69063 52.5016C7.69063 52.0045 7.28768 51.6016 6.79063 51.6016C6.29357 51.6016 5.89062 52.0045 5.89062 52.5016C5.89062 52.9986 6.29357 53.4016 6.79063 53.4016Z" fill="black"/>
<path d="M10.3063 53.4016C10.8033 53.4016 11.2062 52.9986 11.2062 52.5016C11.2062 52.0045 10.8033 51.6016 10.3063 51.6016C9.80919 51.6016 9.40625 52.0045 9.40625 52.5016C9.40625 52.9986 9.80919 53.4016 10.3063 53.4016Z" fill="black"/>
<path d="M13.8219 53.4016C14.3189 53.4016 14.7219 52.9986 14.7219 52.5016C14.7219 52.0045 14.3189 51.6016 13.8219 51.6016C13.3248 51.6016 12.9219 52.0045 12.9219 52.5016C12.9219 52.9986 13.3248 53.4016 13.8219 53.4016Z" fill="black"/>
<path d="M17.3375 53.4016C17.8346 53.4016 18.2375 52.9986 18.2375 52.5016C18.2375 52.0045 17.8346 51.6016 17.3375 51.6016C16.8404 51.6016 16.4375 52.0045 16.4375 52.5016C16.4375 52.9986 16.8404 53.4016 17.3375 53.4016Z" fill="black"/>
<path d="M59.3906 49.5H4.89062C3.78606 49.5 2.89062 50.3954 2.89062 51.5V53.5C2.89062 54.6046 3.78606 55.5 4.89062 55.5H59.3906C60.4952 55.5 61.3906 54.6046 61.3906 53.5V51.5C61.3906 50.3954 60.4952 49.5 59.3906 49.5Z" stroke="black" stroke-width="1.5" stroke-miterlimit="10"/>
<path d="M46.9391 53.4016C47.4361 53.4016 47.8391 52.9986 47.8391 52.5016C47.8391 52.0045 47.4361 51.6016 46.9391 51.6016C46.442 51.6016 46.0391 52.0045 46.0391 52.5016C46.0391 52.9986 46.442 53.4016 46.9391 53.4016Z" fill="black"/>
<path d="M50.4625 53.4016C50.9596 53.4016 51.3625 52.9986 51.3625 52.5016C51.3625 52.0045 50.9596 51.6016 50.4625 51.6016C49.9654 51.6016 49.5625 52.0045 49.5625 52.5016C49.5625 52.9986 49.9654 53.4016 50.4625 53.4016Z" fill="black"/>
<path d="M53.9703 53.4016C54.4674 53.4016 54.8703 52.9986 54.8703 52.5016C54.8703 52.0045 54.4674 51.6016 53.9703 51.6016C53.4733 51.6016 53.0703 52.0045 53.0703 52.5016C53.0703 52.9986 53.4733 53.4016 53.9703 53.4016Z" fill="black"/>
<path d="M57.4937 53.4016C57.9908 53.4016 58.3937 52.9986 58.3937 52.5016C58.3937 52.0045 57.9908 51.6016 57.4937 51.6016C56.9967 51.6016 56.5938 52.0045 56.5938 52.5016C56.5938 52.9986 56.9967 53.4016 57.4937 53.4016Z" fill="black"/>
<path d="M59.3906 8.5H4.89062C3.78606 8.5 2.89062 9.39543 2.89062 10.5V42.5C2.89062 43.6046 3.78606 44.5 4.89062 44.5H59.3906C60.4952 44.5 61.3906 43.6046 61.3906 42.5V10.5C61.3906 9.39543 60.4952 8.5 59.3906 8.5Z" stroke="black" stroke-width="1.5" stroke-miterlimit="10"/>
</g>
<defs>
<clipPath id="clip0_642_110431">
<rect width="60" height="48.5" fill="white" transform="translate(2.14062 7.75)"/>
</clipPath>
</defs>
</svg>
