<svg width="65" height="64" viewBox="0 0 65 64" fill="none" xmlns="http://www.w3.org/2000/svg">
<path d="M36.9609 9H4.96094C4.13251 9 3.46094 9.67157 3.46094 10.5V53.5C3.46094 54.3284 4.13251 55 4.96094 55H36.9609C37.7894 55 38.4609 54.3284 38.4609 53.5V10.5C38.4609 9.67157 37.7894 9 36.9609 9Z" stroke="black" stroke-width="1.5"/>
<circle cx="21.4609" cy="13" r="1" fill="black"/>
<path d="M41.7109 18.5C41.7109 17.6716 42.3825 17 43.2109 17H60.2109C61.0394 17 61.7109 17.6716 61.7109 18.5V53.5C61.7109 54.3284 61.0394 55 60.2109 55H43.2109C42.3825 55 41.7109 54.3284 41.7109 53.5V18.5Z" stroke="black" stroke-width="1.5"/>
<circle cx="51.7109" cy="20" r="1" fill="black"/>
<path d="M53.8238 38.0884C53.2761 37.406 52.4344 36.9691 51.4905 36.9691C50.5466 36.9691 49.7049 37.406 49.1572 38.0884M56.3828 36.223C55.2873 34.8582 53.6039 33.9844 51.7161 33.9844C49.8284 33.9844 48.145 34.8582 47.0495 36.223" stroke="black" stroke-width="1.5" stroke-linecap="round" stroke-linejoin="round"/>
<circle cx="51.4609" cy="40.25" r="1" fill="black"/>
</svg>
