<svg width="64" height="64" viewBox="0 0 64 64" fill="none" xmlns="http://www.w3.org/2000/svg">
<g clip-path="url(#clip0_974_119478)">
<path d="M36.7281 32.0025L35.8581 8.23252C35.8381 7.49252 35.2181 6.91252 34.4781 6.94252L29.8081 7.09252C29.0681 7.11252 28.4881 7.73252 28.5181 8.47252L27.5781 32.0725" stroke="black" stroke-width="1.5" stroke-miterlimit="10" stroke-linecap="round"/>
<path d="M24.3696 37.293L3.63955 50.233C3.00955 50.623 2.80955 51.443 3.19955 52.073L5.63955 56.063C6.02955 56.693 6.84955 56.893 7.47955 56.503L28.6096 45.403" stroke="black" stroke-width="1.5" stroke-miterlimit="10" stroke-linecap="round"/>
<path d="M35.7109 45.3605L56.7909 56.9005C57.4409 57.2505 58.2509 57.0105 58.6009 56.3605L60.8309 52.2505C61.1809 51.6005 60.9409 50.7905 60.2909 50.4405L39.9109 37.2305" stroke="black" stroke-width="1.5" stroke-miterlimit="10" stroke-linecap="round"/>
<path d="M32.1491 32.0234C35.6591 32.0234 38.5091 34.8734 38.5091 38.3834C38.5091 41.8934 35.6591 44.7434 32.1491 44.7434C28.6391 44.7434 25.7891 41.8934 25.7891 38.3834C25.7891 34.8734 28.6391 32.0234 32.1491 32.0234ZM32.1491 30.5234C27.8091 30.5234 24.2891 34.0434 24.2891 38.3834C24.2891 42.7234 27.8091 46.2434 32.1491 46.2434C36.4891 46.2434 40.0091 42.7234 40.0091 38.3834C40.0091 34.0434 36.4891 30.5234 32.1491 30.5234Z" fill="black"/>
</g>
<defs>
<clipPath id="clip0_974_119478">
<rect width="59.5" height="51.62" fill="white" transform="translate(2.25 6.19141)"/>
</clipPath>
</defs>
</svg>
