<svg width="64" height="64" viewBox="0 0 64 64" fill="none" xmlns="http://www.w3.org/2000/svg">
<path fill-rule="evenodd" clip-rule="evenodd" d="M25.3387 22.6608C26.3361 22.6608 27.2258 22.7977 28.0081 23.0715C28.7903 23.3257 29.4552 23.6973 30.0027 24.1861C30.5698 24.6555 31.0001 25.2226 31.2934 25.8875C31.5867 26.5328 31.7334 27.2466 31.7334 28.0288C31.7334 29.1435 31.4498 30.0626 30.8827 30.7861C30.3352 31.5097 29.6214 32.067 28.7414 32.4581C29.8365 32.8493 30.6969 33.475 31.3227 34.3355C31.9681 35.1959 32.2907 36.1835 32.2907 37.2981C32.2907 38.1195 32.1343 38.8724 31.8214 39.5568C31.5085 40.2412 31.0489 40.8377 30.4427 41.3461C29.8561 41.835 29.1325 42.2164 28.2721 42.4901C27.4116 42.7639 26.4338 42.9008 25.3387 42.9008C24.2436 42.9008 23.2658 42.7639 22.4054 42.4901C21.5449 42.2164 20.8116 41.835 20.2054 41.3461C19.6187 40.8377 19.1689 40.2412 18.8561 39.5568C18.5432 38.8724 18.3867 38.1195 18.3867 37.2981C18.3867 36.1835 18.6996 35.1959 19.3254 34.3355C19.9707 33.475 20.8409 32.8493 21.9361 32.4581C21.0561 32.067 20.3325 31.5097 19.7654 30.7861C19.2178 30.0626 18.9441 29.1435 18.9441 28.0288C18.9441 27.2466 19.0907 26.5328 19.3841 25.8875C19.6774 25.2226 20.0978 24.6555 20.6454 24.1861C21.2125 23.6973 21.8872 23.3257 22.6694 23.0715C23.4516 22.7977 24.3414 22.6608 25.3387 22.6608ZM25.3387 33.4555C23.8134 33.4555 22.6498 33.827 21.8481 34.5701C21.0463 35.2937 20.6454 36.2128 20.6454 37.3275C20.6454 37.8359 20.7432 38.315 20.9387 38.7648C21.1538 39.2146 21.4569 39.6057 21.8481 39.9381C22.2587 40.2706 22.7476 40.5346 23.3147 40.7301C23.9014 40.9257 24.5761 41.0235 25.3387 41.0235C26.1014 41.0235 26.7663 40.9257 27.3334 40.7301C27.9201 40.5346 28.4089 40.2706 28.8001 39.9381C29.2107 39.6057 29.5138 39.2146 29.7094 38.7648C29.9245 38.315 30.0321 37.8359 30.0321 37.3275C30.0321 36.2128 29.6312 35.2937 28.8294 34.5701C28.0276 33.827 26.864 33.4555 25.3387 33.4555ZM25.3387 31.6661C26.6098 31.6661 27.6169 31.3337 28.3601 30.6688C29.1032 29.9844 29.4747 29.1337 29.4747 28.1168C29.4747 27.0999 29.1032 26.259 28.3601 25.5941C27.6365 24.9097 26.6294 24.5675 25.3387 24.5675C24.0481 24.5675 23.0312 24.9097 22.2881 25.5941C21.5645 26.259 21.2027 27.0999 21.2027 28.1168C21.2027 29.1337 21.5743 29.9844 22.3174 30.6688C23.0605 31.3337 24.0676 31.6661 25.3387 31.6661Z" fill="black"/>
<path d="M40.5068 36.3305L44.9588 40.5599L46.3363 39.1099L41.9587 34.9512L46.3466 30.7827L44.9691 29.3327L40.5068 33.5719L36.0445 29.3327L34.667 30.7827L39.0549 34.9512L34.6772 39.1099L36.0547 40.5599L40.5068 36.3305Z" fill="black"/>
<path fill-rule="evenodd" clip-rule="evenodd" d="M32.0013 61.3327C15.801 61.3327 2.66797 48.1993 2.66797 31.9992C2.66797 15.7987 15.801 2.66602 32.0013 2.66602C48.2016 2.66602 61.3346 15.7987 61.3346 31.9992C61.3346 48.1993 48.2016 61.3327 32.0013 61.3327ZM32.0013 59.3327C16.9056 59.3327 4.66797 47.0948 4.66797 31.9992C4.66797 16.9033 16.9056 4.66602 32.0013 4.66602C47.0971 4.66602 59.3346 16.9033 59.3346 31.9992C59.3346 47.0948 47.0971 59.3327 32.0013 59.3327Z" fill="black"/>
</svg>
