<svg width="64" height="64" viewBox="0 0 64 64" fill="none" xmlns="http://www.w3.org/2000/svg">
<path fill-rule="evenodd" clip-rule="evenodd" d="M17.6654 5.33398C23.2648 5.33398 28.5472 7.89255 32.0184 12.2627C35.4895 7.89255 40.7719 5.33398 46.3713 5.33398H47.3713V14.0008H58.6659V26.0008H55.9987V58.6675H7.9987V26.0008H5.33203V14.0008H16.6654V5.33398H17.6654ZM18.6654 7.36457C23.4285 7.65637 27.8466 10.0219 30.7299 13.8662L30.8297 13.9993H18.6654V7.36457ZM45.3713 7.36457C40.6082 7.65637 36.1901 10.0219 33.3068 13.8662L33.207 13.9993H45.3713V7.36457ZM53.9987 26.0008H32.9987V56.6675H53.9987V26.0008ZM32.9987 24.0008V16.0008H56.6659V24.0008H32.9987ZM30.9987 24.0008V16.0008H7.33203V24.0008H30.9987ZM30.9987 56.6675V26.0008H9.9987V56.6675H30.9987Z" fill="black"/>
</svg>
