<svg width="64" height="64" viewBox="0 0 64 64" fill="none" xmlns="http://www.w3.org/2000/svg">
<path fill-rule="evenodd" clip-rule="evenodd" d="M32.0013 10.9993C26.2944 10.9993 21.668 15.6257 21.668 21.3327C21.668 27.0396 26.2944 31.666 32.0013 31.666C37.7082 31.666 42.3346 27.0396 42.3346 21.3327C42.3346 15.6257 37.7082 10.9993 32.0013 10.9993ZM23.668 21.3327C23.668 16.7303 27.3989 12.9993 32.0013 12.9993C36.6037 12.9993 40.3346 16.7303 40.3346 21.3327C40.3346 25.9351 36.6037 29.666 32.0013 29.666C27.3989 29.666 23.668 25.9351 23.668 21.3327Z" fill="black"/>
<path fill-rule="evenodd" clip-rule="evenodd" d="M31.9976 2.66602C21.7144 2.66602 13.3921 11.0683 13.3921 21.4158C13.3921 24.0117 13.9158 26.4851 14.8629 28.7341L2.66797 50.0747L15.2926 49.5536L21.1779 60.8591L32.0009 41.9051L42.8239 60.8591L48.7092 49.5536L61.3338 50.0747L49.1351 28.7276C50.0804 26.4803 50.6032 24.0091 50.6032 21.4158C50.6032 11.0683 42.2809 2.66602 31.9976 2.66602ZM15.3921 21.4158C15.3921 12.1575 22.8343 4.66602 31.9976 4.66602C41.1609 4.66602 48.6032 12.1575 48.6032 21.4158C48.6032 30.6742 41.1609 38.1657 31.9976 38.1657C22.8343 38.1657 15.3921 30.6742 15.3921 21.4158ZM30.716 40.1219C24.4052 39.6894 18.9626 36.087 15.9366 30.8862L6.19863 47.9273L16.4799 47.5028L21.259 56.6836L30.716 40.1219ZM42.7427 56.6836L33.2855 40.1215C39.596 39.6869 45.0376 36.0827 48.0619 30.8806L57.8032 47.9273L47.5219 47.5028L42.7427 56.6836Z" fill="black"/>
</svg>
