<svg width="65" height="64" viewBox="0 0 65 64" fill="none" xmlns="http://www.w3.org/2000/svg">
<g clip-path="url(#clip0_642_110411)">
<path d="M53.0703 2.75H12.0706C10.9661 2.75 10.0706 3.64542 10.0706 4.74999L10.0703 59.25C10.0703 60.3546 10.9658 61.25 12.0703 61.25H53.0703C54.1749 61.25 55.0703 60.3546 55.0703 59.25V4.75C55.0703 3.64543 54.1749 2.75 53.0703 2.75Z" stroke="black" stroke-width="1.5"/>
<path d="M10.0703 11.5195H55.0703" stroke="black" stroke-width="1.5"/>
<path d="M35.5703 7H29.5703" stroke="black" stroke-width="1.5" stroke-linecap="round"/>
<path d="M49.5718 22L15.5703 22C14.4657 22 13.5703 22.8955 13.5703 24V55C13.5703 56.1046 14.4657 57 15.5703 57H49.5719C50.6764 57 51.5718 56.1046 51.5718 55V24C51.5718 22.8954 50.6764 22 49.5718 22Z" stroke="black" stroke-width="1.5"/>
<path d="M51.5703 50H20.0703H13.5703" stroke="black" stroke-width="1.5" stroke-miterlimit="10" stroke-linecap="round"/>
<path d="M28.5798 52.8627C33.7886 52.8627 38.0111 48.6401 38.0111 43.4313C38.0111 38.2226 33.7886 34 28.5798 34C23.371 34 19.1484 38.2226 19.1484 43.4313C19.1484 48.6401 23.371 52.8627 28.5798 52.8627Z" stroke="black" stroke-width="1.5" stroke-miterlimit="10"/>
<path d="M32.8203 34.7714C33.9675 34.2751 35.2327 34 36.5621 34C41.7709 34 45.9935 38.2226 45.9935 43.4313C45.9935 48.6401 41.7709 52.8627 36.5621 52.8627C35.2327 52.8627 33.9675 52.5876 32.8203 52.0913" stroke="black" stroke-width="1.5" stroke-miterlimit="10"/>
<path d="M28.5827 47.6928C30.9368 47.6928 32.8451 45.7844 32.8451 43.4304C32.8451 41.0763 30.9368 39.168 28.5827 39.168C26.2287 39.168 24.3203 41.0763 24.3203 43.4304C24.3203 45.7844 26.2287 47.6928 28.5827 47.6928Z" stroke="black" stroke-width="1.5" stroke-miterlimit="10"/>
</g>
<defs>
<clipPath id="clip0_642_110411">
<rect width="46.5" height="60" fill="white" transform="translate(9.32031 2)"/>
</clipPath>
</defs>
</svg>
