<svg width="64" height="64" viewBox="0 0 64 64" fill="none" xmlns="http://www.w3.org/2000/svg">
<path d="M43.9746 22.498L41.5507 20.4088L30.1564 33.6283L22.5249 27.8427L20.5917 30.3927L30.6181 37.994L43.9746 22.498Z" fill="black"/>
<path fill-rule="evenodd" clip-rule="evenodd" d="M55.1982 14.7767L55.2118 14.7768L55.2062 17.9768C55.2025 20.1935 55.1983 22.9636 55.1983 24.2215C55.1983 44.6457 40.9701 53.0396 34.2302 57.0158C33.1116 57.6757 32.1992 58.214 31.5924 58.6654C30.9861 58.2143 30.0749 57.6766 28.9578 57.0173C22.2217 53.0417 8 44.6481 8 24.2215V14.7768C12.1951 14.7768 18.7913 7.3559 18.7913 5.33203H44.4205C44.4205 7.47503 50.9756 14.7611 55.1982 14.7767ZM50.1114 16.3546C50.6865 16.6959 51.3248 17.0282 52.0074 17.3022L52.0051 18.6439C52.0017 20.7209 51.9983 23.085 51.9983 24.2215C51.9983 42.6019 39.7323 49.9569 32.8359 54.0922C32.3983 54.3546 31.9824 54.604 31.5925 54.8424C31.204 54.6048 30.7896 54.3561 30.3537 54.0946C23.4616 49.9604 11.2 42.6052 11.2 24.2215V17.2937C11.8883 17.0135 12.5304 16.6739 13.1062 16.3273C14.5781 15.4413 15.9878 14.2831 17.1968 13.1103C18.4086 11.9348 19.5025 10.6635 20.3195 9.49257C20.5382 9.17902 20.7482 8.85691 20.9403 8.53203H42.2434C42.4399 8.87148 42.6557 9.20709 42.8809 9.53287C43.7005 10.7181 44.7974 11.9912 46.0114 13.1621C47.2233 14.331 48.6353 15.4786 50.1114 16.3546Z" fill="black"/>
</svg>
