<svg width="65" height="64" viewBox="0 0 65 64" fill="none" xmlns="http://www.w3.org/2000/svg">
<path fill-rule="evenodd" clip-rule="evenodd" d="M17.0391 2C15.5203 2 14.2891 3.23122 14.2891 4.75V59.25C14.2891 60.7688 15.5203 62 17.0391 62H47.5391C49.0578 62 50.2891 60.7688 50.2891 59.25V4.75C50.2891 3.23122 49.0578 2 47.5391 2H32.0372H17.0391ZM17.0391 3.5H31.2872V34H15.7891V4.75C15.7891 4.05964 16.3487 3.5 17.0391 3.5ZM15.7891 35.5V59.25C15.7891 59.9404 16.3487 60.5 17.0391 60.5H31.2872V35.5H15.7891ZM32.7872 35.5V60.5H47.5391C48.2294 60.5 48.7891 59.9404 48.7891 59.25V35.5H32.7872ZM48.7891 34V4.75C48.7891 4.05964 48.2294 3.5 47.5391 3.5H32.7872V34H48.7891ZM37.7891 7C36.8226 7 36.0391 7.7835 36.0391 8.75V28.75C36.0391 29.7165 36.8226 30.5 37.7891 30.5H43.7891C44.7556 30.5 45.5391 29.7165 45.5391 28.75V8.75C45.5391 7.7835 44.7556 7 43.7891 7H37.7891ZM37.5391 8.75C37.5391 8.61193 37.651 8.5 37.7891 8.5H43.7891C43.9271 8.5 44.0391 8.61193 44.0391 8.75V28.75C44.0391 28.8881 43.9271 29 43.7891 29H37.7891C37.651 29 37.5391 28.8881 37.5391 28.75V8.75Z" fill="black"/>
</svg>
