<svg width="64" height="64" viewBox="0 0 64 64" fill="none" xmlns="http://www.w3.org/2000/svg">
<g clip-path="url(#clip0_642_110426)">
<path d="M30.485 49.25H33.515C34.34 49.25 35 49.69 35 50.24V55.26H29V50.24C29 49.69 29.66 49.25 30.485 49.25V49.25Z" stroke="black" stroke-width="1.5" stroke-miterlimit="10"/>
<path d="M31.94 2.91016C33.08 2.91016 34 3.83016 34 4.97016V11.4502C34 12.5502 33.1 13.4502 32 13.4502C30.9 13.4502 30 12.5502 30 11.4502V4.85016C30 3.78016 30.87 2.91016 31.94 2.91016Z" stroke="black" stroke-width="1.5" stroke-miterlimit="10"/>
<path d="M30 23.2188V49.2488H34V23.2188" stroke="black" stroke-width="1.5" stroke-miterlimit="10" stroke-linecap="round"/>
<path d="M21.6739 55.2695H42.3261C43.5217 55.2695 44.5 56.1695 44.5 57.2695V60.0895C44.5 60.6395 44.0109 61.0895 43.413 61.0895H20.587C19.9891 61.0895 19.5 60.6395 19.5 60.0895V57.2695C19.5 56.1695 20.4783 55.2695 21.6739 55.2695Z" stroke="black" stroke-width="1.5" stroke-miterlimit="10" stroke-linecap="round"/>
<path d="M37 12.0476C37 9.15161 34.0895 6.87617 30.8043 7.57719C29.0305 7.95643 27.594 9.26653 27.1568 10.8869C26.7945 12.2315 27.0818 13.4956 27.7938 14.4954C28.8181 15.9549 29.5052 17.5753 29.5052 19.3106V21.6205C29.5052 22.7697 30.3546 23.827 31.5787 24.0109C33.1402 24.2407 34.5017 23.1375 34.5017 21.7469V19.0923C34.5017 17.4604 35.1638 15.9319 36.1506 14.5874C36.6877 13.8634 37 12.99 37 12.0476Z" stroke="black" stroke-width="1.5" stroke-miterlimit="10"/>
<path d="M32.0044 16.6429C34.7639 16.6429 37.0009 14.5848 37.0009 12.0461C37.0009 9.50729 34.7639 7.44922 32.0044 7.44922C29.2448 7.44922 27.0078 9.50729 27.0078 12.0461C27.0078 14.5848 29.2448 16.6429 32.0044 16.6429Z" stroke="black" stroke-width="1.5" stroke-miterlimit="10"/>
</g>
<defs>
<clipPath id="clip0_642_110426">
<rect width="54.04" height="59.68" fill="white" transform="translate(4.98438 2.16016)"/>
</clipPath>
</defs>
</svg>
