<svg width="65" height="64" viewBox="0 0 65 64" fill="none" xmlns="http://www.w3.org/2000/svg">
<path d="M59.9609 14.5H5.46094C4.35637 14.5 3.46094 15.3954 3.46094 16.5V47.5C3.46094 48.6046 4.35637 49.5 5.46094 49.5H59.9609C61.0655 49.5 61.9609 48.6046 61.9609 47.5V16.5C61.9609 15.3954 61.0655 14.5 59.9609 14.5Z" stroke="black" stroke-width="1.5"/>
<path d="M56.9062 29.0508C57.4585 29.0508 57.9062 28.6031 57.9062 28.0508C57.9062 27.4985 57.4585 27.0508 56.9062 27.0508C56.354 27.0508 55.9062 27.4985 55.9062 28.0508C55.9062 28.6031 56.354 29.0508 56.9062 29.0508Z" fill="black"/>
<path d="M56.9062 33C57.4585 33 57.9062 32.5523 57.9062 32C57.9062 31.4477 57.4585 31 56.9062 31C56.354 31 55.9062 31.4477 55.9062 32C55.9062 32.5523 56.354 33 56.9062 33Z" fill="black"/>
<path d="M56.9062 36.9492C57.4585 36.9492 57.9062 36.5015 57.9062 35.9492C57.9062 35.3969 57.4585 34.9492 56.9062 34.9492C56.354 34.9492 55.9062 35.3969 55.9062 35.9492C55.9062 36.5015 56.354 36.9492 56.9062 36.9492Z" fill="black"/>
<path d="M3.64062 41.1289H61.6406" stroke="black" stroke-width="1.5" stroke-miterlimit="10" stroke-linecap="round"/>
<path d="M51.5312 14.5V41.13" stroke="black" stroke-width="1.5" stroke-miterlimit="10" stroke-linecap="round"/>
<path d="M46.5625 21.3203V34.3203" stroke="black" stroke-width="1.5" stroke-miterlimit="10" stroke-linecap="round"/>
<path d="M55.1016 21.3516H58.5116" stroke="black" stroke-width="1.5" stroke-miterlimit="10" stroke-linecap="round"/>
</svg>
