<svg width="65" height="64" viewBox="0 0 65 64" fill="none" xmlns="http://www.w3.org/2000/svg">
<path d="M59.1094 36V14.5682C59.1094 13.564 58.3058 12.75 57.3145 12.75H8.40426C7.41297 12.75 6.60938 13.564 6.60938 14.5682V40.9318C6.60938 41.936 7.41297 42.75 8.40426 42.75C24.8754 42.75 35.1063 42.75 49.8594 42.75" stroke="black" stroke-width="1.5" stroke-miterlimit="10"/>
<path d="M31.3594 43.25V55.25" stroke="black" stroke-width="1.5" stroke-linecap="round"/>
<path d="M34.3594 43.25V55.25" stroke="black" stroke-width="1.5" stroke-linecap="round"/>
<path d="M23.3594 55.25H42.3594" stroke="black" stroke-width="1.5" stroke-linecap="round"/>
<path d="M56.1094 36L56.1094 41" stroke="black" stroke-width="1.5" stroke-miterlimit="10" stroke-linecap="round"/>
<path d="M62.1094 51.4583V39.5417C62.1094 37.4476 60.3634 35.75 58.2097 35.75H54.0091C51.8553 35.75 50.1094 37.4476 50.1094 39.5417V51.4583C50.1094 53.5524 51.8553 55.25 54.0091 55.25H58.2097C60.3634 55.25 62.1094 53.5524 62.1094 51.4583Z" stroke="black" stroke-width="1.5" stroke-miterlimit="10" stroke-linecap="round"/>
</svg>
