<svg width="65" height="64" viewBox="0 0 65 64" fill="none" xmlns="http://www.w3.org/2000/svg">
<path fill-rule="evenodd" clip-rule="evenodd" d="M9.42969 4.75C9.42969 3.23122 10.6609 2 12.1797 2H52.6797C54.1985 2 55.4297 3.23122 55.4297 4.75V14.9804L55.4299 15L55.4297 15.0196V59.25C55.4297 60.7688 54.1985 62 52.6797 62H12.1797C10.6609 62 9.42969 60.7688 9.42969 59.25V15V4.75ZM53.9297 4.75V14.25H10.9297V4.75C10.9297 4.05964 11.4893 3.5 12.1797 3.5H52.6797C53.37 3.5 53.9297 4.05964 53.9297 4.75ZM10.9297 59.25V15.75H53.9297V59.25C53.9297 59.9404 53.37 60.5 52.6797 60.5H12.1797C11.4893 60.5 10.9297 59.9404 10.9297 59.25ZM30.6797 8.89404C30.6797 7.92804 31.4637 7.14404 32.4297 7.14404C33.3957 7.14404 34.1797 7.92804 34.1797 8.89404C34.1797 9.86004 33.3957 10.644 32.4297 10.644C31.4637 10.644 30.6797 9.86004 30.6797 8.89404ZM32.4297 22.75C23.4551 22.75 16.1797 30.0254 16.1797 39C16.1797 47.9746 23.4551 55.25 32.4297 55.25C41.4043 55.25 48.6797 47.9746 48.6797 39C48.6797 30.0254 41.4043 22.75 32.4297 22.75ZM14.6797 39C14.6797 29.1969 22.6266 21.25 32.4297 21.25C42.2327 21.25 50.1797 29.1969 50.1797 39C50.1797 48.8031 42.2327 56.75 32.4297 56.75C22.6266 56.75 14.6797 48.8031 14.6797 39ZM28.8441 37.7272C28.8441 36.0682 29.7293 35.1028 30.7569 34.5145C31.8242 33.9035 32.9762 33.75 33.2242 33.75C33.5581 33.75 34.8156 33.7508 36.1644 34.4405C37.4823 35.1144 38.9618 36.4836 39.7033 39.3685C39.8064 39.7697 40.2152 40.0113 40.6164 39.9082C41.0176 39.8051 41.2592 39.3963 41.1561 38.9951C40.3087 35.6983 38.5518 33.9765 36.8474 33.105C35.1754 32.25 33.6258 32.25 33.2252 32.25H33.2242C32.7393 32.25 31.3262 32.4601 30.0116 33.2128C28.6574 33.9881 27.3441 35.3863 27.3441 37.7272C27.3441 39.5697 28.0978 40.7137 29.0412 41.367C29.9369 41.9871 30.9258 42.1136 31.392 42.1136C31.7694 42.1136 32.2208 42.0412 32.6422 41.8581C33.0648 41.6744 33.5097 41.3546 33.7671 40.8308C33.9498 40.4591 33.7965 40.0096 33.4248 39.8269C33.0531 39.6442 32.6036 39.7975 32.4209 40.1692C32.3658 40.2812 32.2497 40.3931 32.0444 40.4824C31.838 40.5721 31.5945 40.6136 31.392 40.6136C31.1253 40.6136 30.4652 40.5285 29.8951 40.1337C29.3728 39.7721 28.8441 39.0979 28.8441 37.7272ZM36.908 38.3051C36.4309 37.2451 35.4625 36.4907 34.4218 36.1793C33.3764 35.8665 32.151 35.9749 31.2293 36.8064C30.9217 37.0838 30.8973 37.5581 31.1747 37.8656C31.4522 38.1732 31.9264 38.1976 32.234 37.9202C32.6771 37.5204 33.3207 37.4155 33.9917 37.6163C34.6674 37.8185 35.2628 38.3045 35.5402 38.9208C35.7512 39.3894 35.8769 40.0221 35.7767 40.9165C35.6289 42.2368 34.8311 43.0537 33.8768 43.5667C32.899 44.0922 31.8326 44.25 31.392 44.25C30.9051 44.25 29.5762 44.1665 28.2606 43.4729C26.9792 42.7974 25.6668 41.5238 25.1649 39.0336C25.0831 38.6276 24.6876 38.3648 24.2815 38.4466C23.8755 38.5284 23.6126 38.9239 23.6945 39.33C24.2919 42.2943 25.9109 43.9299 27.5611 44.7998C29.177 45.6517 30.7796 45.75 31.392 45.75C32.0506 45.75 33.3661 45.5442 34.587 44.8879C35.8313 44.219 37.0488 43.0359 37.2674 41.0835C37.393 39.9621 37.2448 39.0532 36.908 38.3051Z" fill="black"/>
</svg>
