<svg width="65" height="64" viewBox="0 0 65 64" fill="none" xmlns="http://www.w3.org/2000/svg">
<path d="M22.3385 9.00002C19.4782 8.9979 16.6723 9.78162 14.2271 11.2656C11.7819 12.7496 9.79129 14.8768 8.4727 17.415C7.15412 19.9533 6.55821 22.805 6.74998 25.6589C6.94175 28.5128 7.91382 31.2591 9.56014 33.5981C10.2927 34.6102 11.118 35.5518 12.0252 36.4108C13.8809 38.2072 15.2322 40.4595 15.9441 42.9422H28.733C29.4478 40.4584 30.8029 38.206 32.6624 36.4108C33.5696 35.5518 34.3949 34.6102 35.1274 33.5981C36.7743 31.2583 37.7465 28.511 37.9378 25.6562C38.1292 22.8014 37.5323 19.9489 36.2125 17.4103C34.8926 14.8717 32.9005 12.7447 30.4538 11.2615C28.007 9.77828 25.1997 8.99597 22.3385 9.00002V9.00002Z" stroke="black" stroke-width="1.5" stroke-linecap="round" stroke-linejoin="round"/>
<path d="M28.2015 42.9316H16.4863C16.2102 42.9316 15.9863 43.1555 15.9863 43.4316V49.4792C15.9863 49.7554 16.2102 49.9792 16.4863 49.9792H28.2015C28.4776 49.9792 28.7015 49.7554 28.7015 49.4792V43.4316C28.7015 43.1555 28.4776 42.9316 28.2015 42.9316Z" stroke="black" stroke-width="1.5" stroke-linecap="round" stroke-linejoin="round"/>
<path d="M27.9836 49.9902C27.6537 51.2346 26.9216 52.335 25.9013 53.12C24.881 53.9051 23.6298 54.3308 22.3424 54.3308C21.055 54.3308 19.8038 53.9051 18.7835 53.12C17.7632 52.335 17.0311 51.2346 16.7012 49.9902H27.9836Z" stroke="black" stroke-width="1.5" stroke-linecap="round" stroke-linejoin="round"/>
<path d="M55.0169 43.6094H46.1992C45.9231 43.6094 45.6992 43.8332 45.6992 44.1094V48.551C45.6992 48.8271 45.9231 49.051 46.1992 49.051H55.0169C55.2931 49.051 55.5169 48.8271 55.5169 48.551V44.1094C55.5169 43.8332 55.2931 43.6094 55.0169 43.6094Z" stroke="black" stroke-width="1.5" stroke-linecap="round" stroke-linejoin="round"/>
<path d="M42.7148 35.793H58.4947V38.7293C58.4947 40.0237 57.9806 41.265 57.0653 42.1803C56.1501 43.0955 54.9087 43.6097 53.6144 43.6097H47.5952C46.3009 43.6097 45.0595 43.0955 44.1443 42.1803C43.229 41.265 42.7148 40.0237 42.7148 38.7293V35.793Z" stroke="black" stroke-width="1.5" stroke-linecap="round" stroke-linejoin="round"/>
<path d="M54.9654 49.0352C54.7107 49.996 54.1454 50.8456 53.3576 51.4518C52.5698 52.0579 51.6037 52.3866 50.6096 52.3866C49.6156 52.3866 48.6495 52.0579 47.8617 51.4518C47.0739 50.8456 46.5086 49.996 46.2539 49.0352H54.9654Z" stroke="black" stroke-width="1.5" stroke-linecap="round" stroke-linejoin="round"/>
<path d="M50.638 16.166C52.3638 16.166 53.9864 16.8841 55.2068 18.1045C56.4271 19.3248 57.1127 20.9799 57.1127 22.7057V35.7933H44.1309V22.6732C44.1309 20.9474 44.8164 19.2923 46.0368 18.0719C47.2571 16.8516 48.9122 16.166 50.638 16.166Z" stroke="black" stroke-width="1.5" stroke-linecap="round" stroke-linejoin="round"/>
<path d="M48.5059 35.7932V22.5511C48.5059 22.0118 48.7201 21.4945 49.1014 21.1132C49.4828 20.7318 50 20.5176 50.5394 20.5176C50.8067 20.5165 51.0716 20.5684 51.3188 20.6702C51.566 20.772 51.7906 20.9218 51.9796 21.1108C52.1687 21.2999 52.3184 21.5244 52.4202 21.7716C52.5221 22.0188 52.5739 22.2837 52.5728 22.5511V32.4501" stroke="black" stroke-width="1.5" stroke-linecap="round" stroke-linejoin="round"/>
</svg>
