<svg width="73" height="32" viewBox="0 0 73 32" fill="none" xmlns="http://www.w3.org/2000/svg">
<path d="M44.1508 5.56986H39.3477V26.2549H54.0997V22.2269H44.1508V5.56986Z" fill="#6B6B6B"/>
<path d="M64.6634 18.3704H68.5729V21.987C67.8528 22.2614 66.4479 22.5346 65.1099 22.5346C60.7864 22.5346 59.3455 20.3481 59.3455 15.9116C59.3455 11.679 60.7173 9.18666 65.0398 9.18666C67.4426 9.18666 68.8133 9.93772 69.9451 11.3719L72.9314 8.64081C71.1116 6.04776 67.9211 5.26201 64.9366 5.26201C58.2137 5.26201 54.6797 8.91386 54.6797 15.8771C54.6797 22.8076 57.8701 26.562 64.9027 26.562C68.1274 26.562 71.284 25.7425 72.9987 24.5486V14.5127H64.6634V18.3704Z" fill="#6B6B6B"/>
<path d="M0 16.0006C0 24.8384 7.20099 31.9995 16.0699 31.9995C24.9192 31.9995 32.0915 24.9064 32.1607 16.1249V15.8746C32.0915 7.0949 24.9192 0.00100517 16.0699 0.00100517C7.20099 0.00100517 0 7.16262 0 16.0006Z" fill="url(#paint0_radial_1976_46733)"/>
<path d="M5.19294 5.17044C-0.180082 10.5178 -0.723881 18.6656 3.99432 23.3615C8.71213 28.0541 16.8942 27.517 22.2688 22.1664C27.6518 16.8078 28.194 8.66215 23.479 3.96711C21.3253 1.82338 18.4489 0.769444 15.4416 0.769444C11.8697 0.769444 8.11597 2.26042 5.19294 5.17044Z" fill="url(#paint1_linear_1976_46733)"/>
<path d="M15.5734 22.8587L15.2461 23.1694H20.0689L19.7547 22.8496L15.5734 22.8587Z" fill="#626D77"/>
<path d="M19.7553 21.8936L20.0694 21.59H16.9128L16.5391 21.8936H19.7553Z" fill="#8699A3"/>
<path d="M16.9124 8.81017H15.2461L15.5586 9.10742L16.5555 9.10576L16.9124 8.81017Z" fill="#8D9AA1"/>
<path d="M16.5547 9.10497L16.5642 21.8696L16.9116 21.5897V8.80938L16.5547 9.10497Z" fill="url(#paint2_linear_1976_46733)"/>
<path d="M19.7539 21.894V22.8497L20.0679 23.1694V21.5905L19.7539 21.894Z" fill="url(#paint3_linear_1976_46733)"/>
<path d="M15.2461 8.81023V23.1694L15.5734 22.8587L15.5586 9.10748L15.2461 8.81023Z" fill="#B4BDC3"/>
<path d="M8.84375 10.8921C8.84375 12.0416 9.7843 12.9731 10.9433 12.9731C12.1036 12.9731 13.0412 12.0416 13.0412 10.8921C13.0412 9.74117 12.1036 8.80501 10.9433 8.80501C9.7843 8.80501 8.84375 9.74117 8.84375 10.8921ZM9.15418 10.8921C9.15418 9.91207 9.95669 9.11851 10.9433 9.11851C11.9266 9.11851 12.7292 9.91207 12.7292 10.8921C12.7292 11.869 11.9266 12.6605 10.9433 12.6605C9.95669 12.6605 9.15418 11.869 9.15418 10.8921Z" fill="url(#paint4_linear_1976_46733)"/>
<path d="M28.3942 16.4894L20.0594 16.4795L19.75 16.8037H28.0741L28.2398 16.6322L28.3942 16.4894Z" fill="#505C61"/>
<path d="M20.0594 15.5449L29.3809 15.5297L29.6964 15.2139L19.75 15.2163L20.0594 15.5449Z" fill="#8F9CA4"/>
<path d="M2.44922 15.9951C2.44922 19.6147 3.86757 23.0216 6.43888 25.5838C9.00787 28.1446 12.4274 29.5581 16.0637 29.5581C19.7117 29.5581 23.1398 28.1446 25.7078 25.5838C28.2826 23.0216 29.6965 19.6147 29.6965 15.9951V15.2123L29.3811 15.5282V15.9951C29.3811 19.5338 27.9997 22.8589 25.4874 25.363C22.9779 27.8667 19.6284 29.2459 16.0637 29.2459C12.5137 29.2459 9.17151 27.8667 6.66106 25.363C4.14777 22.8568 2.76351 19.5308 2.76351 15.9951C2.76351 8.68695 8.73076 2.74505 16.0637 2.74505L16.572 2.73865L16.8832 2.43846L16.0637 2.43091C8.5594 2.43091 2.44922 8.51516 2.44922 15.9951Z" fill="url(#paint5_linear_1976_46733)"/>
<path d="M15.8881 3.7162C12.6661 3.76267 9.64103 5.03615 7.34092 7.30917C5.01597 9.6275 3.73438 12.7121 3.73438 15.9958C3.73438 19.2781 5.01597 22.3598 7.34092 24.6795C9.64193 26.9637 12.6793 28.2406 15.9109 28.2798H16.2289C22.6272 28.1989 27.9528 23.1963 28.385 16.8282L28.3962 16.4891L28.2393 16.6319L28.0736 16.8033C27.6461 23.0656 22.3725 27.9682 16.0717 27.9682C12.8603 27.9682 9.84095 26.7193 7.56502 24.4587C5.29682 22.1981 4.04982 19.1937 4.04982 15.9958C4.04982 12.7955 5.29682 9.78675 7.56502 7.5291C9.84558 5.27541 12.8641 4.02868 16.0717 4.02868L16.8825 4.03649L16.5703 3.724L16.2191 3.7162H15.8881Z" fill="url(#paint6_linear_1976_46733)"/>
<path d="M20.0594 15.5443L19.75 15.2157V16.8037L20.0594 16.4795V15.5443Z" fill="#B4BDC3"/>
<path d="M16.5703 2.73897V3.72544L16.8815 4.03613V2.43877L16.5703 2.73897Z" fill="url(#paint7_linear_1976_46733)"/>
<path d="M15.8901 2.59994C8.56234 2.6875 2.60938 8.66153 2.60938 15.9942C2.60938 19.5731 4.0101 22.9321 6.54976 25.4627C9.08659 27.9933 12.4722 29.3862 16.0538 29.3862C19.6579 29.3862 23.0405 27.9933 25.5784 25.4627C28.1201 22.9321 29.5168 19.5731 29.5168 15.9942V15.3853L28.985 15.3874H19.9125V16.6303H28.2383C28.2374 16.6593 28.2374 16.7876 28.2346 16.8119C27.8019 23.1237 22.5155 28.1363 16.0621 28.1363C12.8083 28.1363 9.7463 26.8723 7.43448 24.577C5.13707 22.2872 3.86782 19.2389 3.86782 15.9942C3.86782 12.7466 5.13707 9.69601 7.43448 7.40802C9.7463 5.12194 12.8083 3.85742 16.0621 3.85742C16.2022 3.85742 16.5514 3.85742 16.7056 3.861V2.60698C16.5786 2.60698 16.3679 2.60263 16.2022 2.59994H15.8901ZM15.4216 8.97862V23.0004H19.9018V21.7506H16.7056V8.97862H15.4216Z" fill="url(#paint8_radial_1976_46733)"/>
<path d="M9 10.8926C9 11.9507 9.87057 12.8052 10.9323 12.8052C11.993 12.8052 12.8615 11.9507 12.8615 10.8926C12.8615 9.8268 11.993 8.97295 10.9323 8.97295C9.87057 8.97295 9 9.8268 9 10.8926Z" fill="url(#paint9_radial_1976_46733)"/>
<defs>
<radialGradient id="paint0_radial_1976_46733" cx="0" cy="0" r="1" gradientUnits="userSpaceOnUse" gradientTransform="translate(15.4792 15.5156) scale(16.7652 16.6824)">
<stop stop-color="#BF0C3F"/>
<stop offset="0.5" stop-color="#BF0C3F"/>
<stop offset="0.883847" stop-color="#BF0C3F"/>
<stop offset="1" stop-color="#99002C"/>
</radialGradient>
<linearGradient id="paint1_linear_1976_46733" x1="9.49441" y1="2.06842" x2="17.9038" y2="25.2876" gradientUnits="userSpaceOnUse">
<stop stop-color="#F38895"/>
<stop offset="0.547622" stop-color="#BF0C3F"/>
<stop offset="0.8011" stop-color="#BF0C3F"/>
<stop offset="1" stop-color="#BF0C3F"/>
</linearGradient>
<linearGradient id="paint2_linear_1976_46733" x1="16.5546" y1="15.3395" x2="16.9115" y2="15.3395" gradientUnits="userSpaceOnUse">
<stop stop-color="#B4BDC3"/>
<stop offset="0.844281" stop-color="#333940"/>
<stop offset="1" stop-color="#333940"/>
</linearGradient>
<linearGradient id="paint3_linear_1976_46733" x1="19.7538" y1="22.38" x2="20.068" y2="22.38" gradientUnits="userSpaceOnUse">
<stop stop-color="#B3BBC1"/>
<stop offset="0.844281" stop-color="#2A3236"/>
<stop offset="1" stop-color="#2A3236"/>
</linearGradient>
<linearGradient id="paint4_linear_1976_46733" x1="9.45674" y1="9.4096" x2="12.4069" y2="12.3744" gradientUnits="userSpaceOnUse">
<stop stop-color="#ABBAC2"/>
<stop offset="1" stop-color="#262A30"/>
</linearGradient>
<linearGradient id="paint5_linear_1976_46733" x1="5.20154" y1="7.58422" x2="24.5341" y2="27.0127" gradientUnits="userSpaceOnUse">
<stop stop-color="#B4BDC3"/>
<stop offset="1" stop-color="#3E454D"/>
</linearGradient>
<linearGradient id="paint6_linear_1976_46733" x1="28.3982" y1="15.9901" x2="3.73409" y2="15.9901" gradientUnits="userSpaceOnUse">
<stop stop-color="#B4BDC3"/>
<stop offset="1" stop-color="#485159"/>
</linearGradient>
<linearGradient id="paint7_linear_1976_46733" x1="16.5703" y1="3.23737" x2="16.8815" y2="3.23737" gradientUnits="userSpaceOnUse">
<stop stop-color="#B3BBC1"/>
<stop offset="0.844281" stop-color="#2A3236"/>
<stop offset="1" stop-color="#2A3236"/>
</linearGradient>
<radialGradient id="paint8_radial_1976_46733" cx="0" cy="0" r="1" gradientUnits="userSpaceOnUse" gradientTransform="translate(10.6398 10.3227) scale(20.5786 20.4771)">
<stop stop-color="white"/>
<stop offset="0.350006" stop-color="white"/>
<stop offset="0.666526" stop-color="white"/>
<stop offset="1" stop-color="#C0CCD2"/>
</radialGradient>
<radialGradient id="paint9_radial_1976_46733" cx="0" cy="0" r="1" gradientUnits="userSpaceOnUse" gradientTransform="translate(10.1329 10.1844) scale(3.00491 2.99008)">
<stop stop-color="white"/>
<stop offset="0.350006" stop-color="white"/>
<stop offset="0.665531" stop-color="white"/>
<stop offset="1" stop-color="#D0DADF"/>
</radialGradient>
</defs>
</svg>
