<svg width="134" height="32" viewBox="0 0 134 32" fill="none" xmlns="http://www.w3.org/2000/svg">
<g clip-path="url(#clip0_2858_247289)">
<path fill-rule="evenodd" clip-rule="evenodd" d="M68.3915 18.3678H64.4948V14.5093H72.7974V24.548C71.0872 25.7461 67.9451 26.5636 64.7303 26.5636C57.7297 26.5636 54.5476 22.8059 54.5476 15.8745C54.5476 8.90861 58.0688 5.259 64.7658 5.26172C67.7451 5.26172 70.9172 6.04651 72.7355 8.63612L69.7589 11.3683C68.6297 9.9341 67.2687 9.18202 64.8694 9.18202C60.5645 9.18202 59.2007 11.6744 59.2007 15.9099C59.2007 20.348 60.6336 22.5334 64.9421 22.5334C66.2732 22.5334 67.676 22.2609 68.3915 21.9884V18.3678ZM53.9729 22.2262H44.0584V5.56499H39.2734V26.2555H53.9729V22.2262Z" fill="black"/>
<g clip-path="url(#clip1_2858_247289)">
<path d="M16.3651 32C25.2011 32 32.3575 24.8365 32.3492 16C32.3409 7.16344 25.1711 0 16.335 0C7.49898 0 0.342667 7.16344 0.350969 16C0.35927 24.8365 7.52904 32 16.3651 32Z" fill="#A50034"/>
<path fill-rule="evenodd" clip-rule="evenodd" d="M28.3818 16.5019H20.2679V15.3011H29.571C29.5837 15.5337 29.59 15.7662 29.59 16.0015C29.59 23.2318 23.6917 29.092 16.4175 29.092C9.14337 29.092 3.24414 23.2345 3.24414 16.0006C3.24414 8.76675 9.14156 2.91016 16.4166 2.91016C16.6087 2.91016 16.7998 2.91408 16.99 2.92192V4.11369C16.7998 4.10524 16.6093 4.10102 16.4185 4.10102C9.80639 4.10102 4.44428 9.42914 4.44428 16.0006C4.44428 22.5721 9.80548 27.9011 16.4185 27.9011C22.8494 27.9011 28.1028 22.8598 28.3809 16.5354L28.3818 16.5019ZM20.2378 21.5044H16.9771V9.26456H15.7715V22.7125H16.9798V22.7043H20.2405L20.2378 21.5044ZM12.5154 12.5727C12.2138 12.7759 11.8586 12.8853 11.4948 12.8871C11.2524 12.8877 11.0123 12.8406 10.7881 12.7484C10.5639 12.6563 10.3601 12.521 10.1882 12.3501C10.0164 12.1793 9.87992 11.9763 9.7866 11.7528C9.69328 11.5293 9.64495 11.2896 9.64435 11.0474C9.64436 10.6839 9.75213 10.3286 9.95407 10.0263C10.156 9.72394 10.4431 9.48814 10.779 9.34864C11.115 9.20914 11.4847 9.17218 11.8417 9.24244C12.1986 9.31269 12.5268 9.48701 12.7846 9.74339C13.0425 9.99977 13.2186 10.3267 13.2907 10.683C13.3628 11.0393 13.3276 11.4089 13.1896 11.7452C13.0516 12.0815 12.817 12.3694 12.5154 12.5727Z" fill="white"/>
</g>
</g>
<rect x="78.7266" y="6.5" width="1" height="19" fill="black"/>
<path d="M89.1549 13.9993C89.6898 13.9993 90.0991 13.8838 90.3827 13.6528C90.6664 13.4136 90.8082 13.0836 90.8082 12.6628C90.8082 12.2173 90.6745 11.8749 90.407 11.6357C90.1396 11.3882 89.7384 11.2644 89.2035 11.2644H87.3921V13.9993H89.1549ZM90.5529 9.02453C90.5529 8.22427 90.0828 7.82414 89.1427 7.82414H87.3921V10.2373H89.1427C89.629 10.2373 89.9856 10.13 90.2125 9.91554C90.4395 9.69279 90.5529 9.39579 90.5529 9.02453ZM91.8294 8.87603C91.8294 9.32154 91.7362 9.69692 91.5498 10.0022C91.3634 10.2992 91.1 10.5178 90.7596 10.6581C91.181 10.8148 91.5052 11.0623 91.7322 11.4006C91.9672 11.7388 92.0847 12.1596 92.0847 12.6628C92.0847 13.4383 91.8416 14.0323 91.3553 14.4449C90.869 14.8574 90.1842 15.0636 89.3007 15.0636H86.1156V6.7475H89.167C90.0504 6.7475 90.715 6.93313 91.1608 7.30439C91.6065 7.67564 91.8294 8.19952 91.8294 8.87603Z" fill="black"/>
<path d="M97.0468 14.5315C96.7874 14.7377 96.4997 14.8986 96.1836 15.0141C95.8676 15.1296 95.5272 15.1874 95.1624 15.1874C94.4816 15.1874 93.9832 15.0224 93.6671 14.6924C93.3591 14.3541 93.2052 13.8137 93.2052 13.0712V9.07403H94.4573V12.799C94.4573 13.3022 94.5343 13.657 94.6883 13.8632C94.8504 14.0612 95.1017 14.1602 95.4421 14.1602C95.7014 14.1602 95.9486 14.119 96.1836 14.0365C96.4268 13.9457 96.674 13.8178 96.9252 13.6528V9.07403H98.1774V15.0636H97.2413L97.0468 14.5315Z" fill="black"/>
<path d="M101.425 11.3511C101.603 11.4253 101.786 11.4913 101.972 11.5491C102.158 11.6068 102.406 11.6934 102.714 11.8089C103.127 11.9574 103.431 12.1637 103.625 12.4277C103.82 12.6835 103.917 13.0217 103.917 13.4425C103.917 14.02 103.727 14.4572 103.346 14.7542C102.965 15.043 102.349 15.1874 101.498 15.1874C101.06 15.1874 100.655 15.1461 100.282 15.0636C99.9175 14.9729 99.5771 14.845 99.261 14.68L99.6622 13.7023C99.9053 13.8426 100.181 13.954 100.489 14.0365C100.797 14.1107 101.133 14.1478 101.498 14.1478C101.911 14.1478 102.199 14.0901 102.361 13.9746C102.531 13.8508 102.616 13.6817 102.616 13.4672C102.616 13.2857 102.568 13.1413 102.47 13.0341C102.373 12.9186 102.203 12.8155 101.96 12.7247C101.749 12.6422 101.522 12.5638 101.279 12.4896C101.036 12.4153 100.813 12.3411 100.61 12.2668C100.189 12.1018 99.8851 11.8956 99.6986 11.6481C99.5122 11.4006 99.419 11.0912 99.419 10.7199C99.419 10.1507 99.6054 9.71342 99.9783 9.40816C100.359 9.10291 100.967 8.95028 101.802 8.95028C102.223 8.95028 102.596 8.99566 102.92 9.08641C103.244 9.16891 103.524 9.28441 103.759 9.43291L103.358 10.3982C103.147 10.2579 102.928 10.1548 102.701 10.0888C102.475 10.0228 102.215 9.9898 101.923 9.9898C101.486 9.9898 101.174 10.0475 100.987 10.163C100.809 10.2703 100.72 10.4188 100.72 10.6086C100.72 10.7653 100.764 10.9014 100.854 11.0169C100.943 11.1242 101.133 11.2356 101.425 11.3511Z" fill="black"/>
<path d="M105.129 9.07403H106.393V15.0636H105.129V9.07403ZM105.129 6.5H106.393V7.84889H105.129V6.5Z" fill="black"/>
<path d="M108.981 9.61854C109.241 9.41229 109.528 9.25141 109.844 9.13591C110.161 9.01216 110.501 8.95028 110.866 8.95028C111.555 8.95028 112.053 9.11941 112.361 9.45766C112.677 9.79592 112.835 10.3363 112.835 11.0788V15.0636H111.571V11.3511C111.571 10.8561 111.486 10.5054 111.315 10.2992C111.153 10.0929 110.91 9.9898 110.586 9.9898C110.327 9.9898 110.075 10.0352 109.832 10.1259C109.597 10.2084 109.358 10.3322 109.115 10.4972V15.0636H107.851V9.07403H108.799L108.981 9.61854Z" fill="black"/>
<path d="M116.667 15.1874C115.662 15.1874 114.937 14.9357 114.491 14.4325C114.053 13.9292 113.834 13.1413 113.834 12.0688C113.834 10.9963 114.045 10.2084 114.467 9.70517C114.896 9.20191 115.553 8.95028 116.436 8.95028C117.303 8.95028 117.952 9.20191 118.381 9.70517C118.811 10.2002 119.026 10.9839 119.026 12.0564V12.4896H115.123C115.164 13.0671 115.301 13.4878 115.536 13.7518C115.78 14.0158 116.161 14.1478 116.679 14.1478C117.02 14.1478 117.348 14.0983 117.664 13.9993C117.98 13.9003 118.292 13.756 118.6 13.5662L118.965 14.5439C118.657 14.7336 118.304 14.8904 117.907 15.0141C117.518 15.1296 117.105 15.1874 116.667 15.1874ZM117.725 11.4996C117.684 11.0046 117.563 10.6333 117.36 10.3858C117.157 10.13 116.849 10.0022 116.436 10.0022C115.626 10.0022 115.192 10.5013 115.135 11.4996H117.725Z" fill="black"/>
<path d="M122 11.3511C122.179 11.4253 122.361 11.4913 122.547 11.5491C122.734 11.6068 122.981 11.6934 123.289 11.8089C123.702 11.9574 124.006 12.1637 124.201 12.4277C124.395 12.6835 124.493 13.0217 124.493 13.4425C124.493 14.02 124.302 14.4572 123.921 14.7542C123.54 15.043 122.924 15.1874 122.073 15.1874C121.636 15.1874 121.23 15.1461 120.858 15.0636C120.493 14.9729 120.152 14.845 119.836 14.68L120.238 13.7023C120.481 13.8426 120.756 13.954 121.064 14.0365C121.372 14.1107 121.709 14.1478 122.073 14.1478C122.487 14.1478 122.774 14.0901 122.936 13.9746C123.107 13.8508 123.192 13.6817 123.192 13.4672C123.192 13.2857 123.143 13.1413 123.046 13.0341C122.949 12.9186 122.778 12.8155 122.535 12.7247C122.325 12.6422 122.098 12.5638 121.854 12.4896C121.611 12.4153 121.388 12.3411 121.186 12.2668C120.764 12.1018 120.46 11.8956 120.274 11.6481C120.088 11.4006 119.994 11.0912 119.994 10.7199C119.994 10.1507 120.181 9.71342 120.554 9.40816C120.935 9.10291 121.542 8.95028 122.377 8.95028C122.799 8.95028 123.171 8.99566 123.496 9.08641C123.82 9.16891 124.099 9.28441 124.334 9.43291L123.933 10.3982C123.723 10.2579 123.504 10.1548 123.277 10.0888C123.05 10.0228 122.791 9.9898 122.499 9.9898C122.061 9.9898 121.749 10.0475 121.563 10.163C121.384 10.2703 121.295 10.4188 121.295 10.6086C121.295 10.7653 121.34 10.9014 121.429 11.0169C121.518 11.1242 121.709 11.2356 122 11.3511Z" fill="black"/>
<path d="M127.491 11.3511C127.67 11.4253 127.852 11.4913 128.038 11.5491C128.225 11.6068 128.472 11.6934 128.78 11.8089C129.193 11.9574 129.497 12.1637 129.692 12.4277C129.886 12.6835 129.984 13.0217 129.984 13.4425C129.984 14.02 129.793 14.4572 129.412 14.7542C129.031 15.043 128.415 15.1874 127.564 15.1874C127.127 15.1874 126.721 15.1461 126.349 15.0636C125.984 14.9729 125.644 14.845 125.327 14.68L125.729 13.7023C125.972 13.8426 126.247 13.954 126.555 14.0365C126.863 14.1107 127.2 14.1478 127.564 14.1478C127.978 14.1478 128.265 14.0901 128.428 13.9746C128.598 13.8508 128.683 13.6817 128.683 13.4672C128.683 13.2857 128.634 13.1413 128.537 13.0341C128.44 12.9186 128.269 12.8155 128.026 12.7247C127.816 12.6422 127.589 12.5638 127.346 12.4896C127.102 12.4153 126.88 12.3411 126.677 12.2668C126.255 12.1018 125.952 11.8956 125.765 11.6481C125.579 11.4006 125.485 11.0912 125.485 10.7199C125.485 10.1507 125.672 9.71342 126.045 9.40816C126.426 9.10291 127.033 8.95028 127.868 8.95028C128.29 8.95028 128.663 8.99566 128.987 9.08641C129.311 9.16891 129.591 9.28441 129.826 9.43291L129.424 10.3982C129.214 10.2579 128.995 10.1548 128.768 10.0888C128.541 10.0228 128.282 9.9898 127.99 9.9898C127.552 9.9898 127.24 10.0475 127.054 10.163C126.875 10.2703 126.786 10.4188 126.786 10.6086C126.786 10.7653 126.831 10.9014 126.92 11.0169C127.009 11.1242 127.2 11.2356 127.491 11.3511Z" fill="black"/>
<path d="M90.3098 23.2848C90.3098 23.1198 90.2895 22.9755 90.249 22.8517C90.2085 22.728 90.1315 22.6125 90.018 22.5052C89.9045 22.398 89.7465 22.2948 89.5439 22.1958C89.3413 22.0886 89.0819 21.9772 88.7658 21.8617C88.2309 21.6802 87.7811 21.5028 87.4164 21.3296C87.0517 21.1481 86.7559 20.9542 86.5289 20.7479C86.302 20.5417 86.1399 20.3148 86.0426 20.0673C85.9454 19.8115 85.8968 19.5187 85.8968 19.1887C85.8968 18.4957 86.1399 17.947 86.6262 17.5428C87.1206 17.1385 87.8703 16.9364 88.8752 16.9364C89.3372 16.9364 89.7627 16.9983 90.1517 17.122C90.5408 17.2375 90.9095 17.4025 91.258 17.617L90.8082 18.607C90.5083 18.4173 90.1963 18.2688 89.8721 18.1615C89.5479 18.0543 89.2156 18.0007 88.8752 18.0007C88.2836 18.0007 87.85 18.0997 87.5744 18.2977C87.307 18.4874 87.1733 18.7555 87.1733 19.102C87.1733 19.2753 87.1976 19.432 87.2462 19.5723C87.3029 19.7043 87.4002 19.8322 87.538 19.9559C87.6757 20.0797 87.8622 20.1993 88.0972 20.3148C88.3403 20.4303 88.6524 20.5499 89.0333 20.6737C89.4871 20.8222 89.8762 20.9748 90.2004 21.1316C90.5246 21.2883 90.788 21.4657 90.9906 21.6637C91.2013 21.8535 91.3512 22.0762 91.4404 22.332C91.5376 22.5795 91.5863 22.8723 91.5863 23.2106C91.5863 23.9366 91.335 24.5017 90.8325 24.906C90.33 25.302 89.552 25.5 88.4984 25.5C87.9554 25.5 87.4488 25.4381 86.9787 25.3144C86.5168 25.1906 86.0994 25.0215 85.7266 24.807L86.1521 23.817C86.5411 24.0232 86.922 24.18 87.2948 24.2872C87.6757 24.3945 88.0607 24.4481 88.4497 24.4481C89.0657 24.4481 89.5277 24.3491 89.8357 24.1511C90.1517 23.9449 90.3098 23.6561 90.3098 23.2848Z" fill="black"/>
<path d="M92.4162 22.3815C92.4162 21.2924 92.6391 20.5004 93.0848 20.0054C93.5387 19.5104 94.2438 19.2629 95.2001 19.2629C96.1565 19.2629 96.8576 19.5145 97.3033 20.0178C97.7572 20.5211 97.9841 21.3089 97.9841 22.3815C97.9841 23.4705 97.7572 24.2625 97.3033 24.7575C96.8576 25.2525 96.1565 25.5 95.2001 25.5C94.2438 25.5 93.5387 25.2525 93.0848 24.7575C92.6391 24.2625 92.4162 23.4705 92.4162 22.3815ZM93.6684 22.3815C93.6684 23.0827 93.7859 23.6066 94.0209 23.9531C94.2641 24.2914 94.6571 24.4605 95.2001 24.4605C95.7432 24.4605 96.1322 24.2914 96.3672 23.9531C96.6023 23.6066 96.7198 23.0827 96.7198 22.3815C96.7198 21.6802 96.6023 21.1604 96.3672 20.8222C96.1322 20.4839 95.7432 20.3148 95.2001 20.3148C94.6571 20.3148 94.2641 20.4839 94.0209 20.8222C93.7859 21.1604 93.6684 21.6802 93.6684 22.3815Z" fill="black"/>
<path d="M100.439 16.6394V23.7675C100.439 24.048 100.475 24.2295 100.548 24.312C100.621 24.3862 100.767 24.4234 100.986 24.4234V25.4629C100.913 25.4794 100.852 25.4876 100.804 25.4876C100.755 25.4959 100.682 25.5 100.585 25.5C100.115 25.5 99.7622 25.368 99.5271 25.104C99.3002 24.8317 99.1867 24.3862 99.1867 23.7675V16.7879L100.439 16.6394Z" fill="black"/>
<path d="M105.75 24.8441C105.49 25.0504 105.202 25.2112 104.886 25.3267C104.57 25.4422 104.23 25.5 103.865 25.5C103.184 25.5 102.686 25.335 102.37 25.005C102.062 24.6667 101.908 24.1264 101.908 23.3838V19.3867H103.16V23.1116C103.16 23.6148 103.237 23.9696 103.391 24.1759C103.553 24.3739 103.804 24.4729 104.145 24.4729C104.404 24.4729 104.651 24.4316 104.886 24.3491C105.13 24.2584 105.377 24.1305 105.628 23.9655V19.3867H106.88V25.3762H105.944L105.75 24.8441Z" fill="black"/>
<path d="M109.885 20.4386V23.1735C109.885 23.652 109.949 23.9861 110.079 24.1759C110.209 24.3656 110.46 24.4605 110.833 24.4605C111.019 24.4605 111.206 24.4316 111.392 24.3739C111.587 24.3161 111.769 24.2501 111.939 24.1759L112.182 25.1287C111.923 25.2525 111.647 25.3432 111.356 25.401C111.064 25.467 110.776 25.5 110.492 25.5C110.136 25.5 109.836 25.4546 109.593 25.3639C109.358 25.2731 109.167 25.1411 109.021 24.9679C108.884 24.7864 108.782 24.5677 108.717 24.312C108.661 24.0562 108.632 23.7592 108.632 23.421V20.4386H107.672V19.3867H108.632V18.1863L109.885 17.9511V19.3867H111.963V20.4386H109.885Z" fill="black"/>
<path d="M113.119 19.3867H114.384V25.3762H113.119V19.3867ZM113.119 16.8126H114.384V18.1615H113.119V16.8126Z" fill="black"/>
<path d="M115.586 22.3815C115.586 21.2924 115.809 20.5004 116.254 20.0054C116.708 19.5104 117.413 19.2629 118.37 19.2629C119.326 19.2629 120.027 19.5145 120.473 20.0178C120.927 20.5211 121.154 21.3089 121.154 22.3815C121.154 23.4705 120.927 24.2625 120.473 24.7575C120.027 25.2525 119.326 25.5 118.37 25.5C117.413 25.5 116.708 25.2525 116.254 24.7575C115.809 24.2625 115.586 23.4705 115.586 22.3815ZM116.838 22.3815C116.838 23.0827 116.956 23.6066 117.191 23.9531C117.434 24.2914 117.827 24.4605 118.37 24.4605C118.913 24.4605 119.302 24.2914 119.537 23.9531C119.772 23.6066 119.889 23.0827 119.889 22.3815C119.889 21.6802 119.772 21.1604 119.537 20.8222C119.302 20.4839 118.913 20.3148 118.37 20.3148C117.827 20.3148 117.434 20.4839 117.191 20.8222C116.956 21.1604 116.838 21.6802 116.838 22.3815Z" fill="black"/>
<path d="M123.353 19.9312C123.613 19.7249 123.9 19.564 124.216 19.4485C124.532 19.3248 124.873 19.2629 125.238 19.2629C125.927 19.2629 126.425 19.432 126.733 19.7703C127.049 20.1086 127.207 20.6489 127.207 21.3914V25.3762H125.943V21.6637C125.943 21.1687 125.858 20.8181 125.687 20.6118C125.525 20.4056 125.282 20.3024 124.958 20.3024C124.699 20.3024 124.447 20.3478 124.204 20.4386C123.969 20.5211 123.73 20.6448 123.487 20.8098V25.3762H122.223V19.3867H123.171L123.353 19.9312Z" fill="black"/>
<path d="M130.383 21.6637C130.561 21.7379 130.743 21.8039 130.93 21.8617C131.116 21.9195 131.363 22.0061 131.671 22.1216C132.085 22.2701 132.388 22.4763 132.583 22.7403C132.777 22.9961 132.875 23.3343 132.875 23.7551C132.875 24.3326 132.684 24.7699 132.303 25.0669C131.922 25.3556 131.306 25.5 130.455 25.5C130.018 25.5 129.613 25.4587 129.24 25.3762C128.875 25.2855 128.535 25.1576 128.219 24.9926L128.62 24.015C128.863 24.1552 129.138 24.2666 129.446 24.3491C129.754 24.4234 130.091 24.4605 130.455 24.4605C130.869 24.4605 131.157 24.4027 131.319 24.2872C131.489 24.1635 131.574 23.9944 131.574 23.7799C131.574 23.5983 131.525 23.454 131.428 23.3467C131.331 23.2312 131.161 23.1281 130.917 23.0373C130.707 22.9548 130.48 22.8765 130.237 22.8022C129.993 22.728 129.771 22.6537 129.568 22.5795C129.147 22.4145 128.843 22.2082 128.656 21.9607C128.47 21.7132 128.377 21.4038 128.377 21.0326C128.377 20.4633 128.563 20.0261 128.936 19.7208C129.317 19.4155 129.925 19.2629 130.759 19.2629C131.181 19.2629 131.554 19.3083 131.878 19.399C132.202 19.4815 132.482 19.597 132.717 19.7455L132.315 20.7108C132.105 20.5706 131.886 20.4674 131.659 20.4014C131.432 20.3354 131.173 20.3024 130.881 20.3024C130.443 20.3024 130.131 20.3602 129.945 20.4757C129.767 20.5829 129.677 20.7314 129.677 20.9212C129.677 21.0779 129.722 21.2141 129.811 21.3296C129.9 21.4368 130.091 21.5482 130.383 21.6637Z" fill="black"/>
<defs>
<clipPath id="clip0_2858_247289">
<rect width="72.7273" height="32" fill="white"/>
</clipPath>
<clipPath id="clip1_2858_247289">
<rect width="32.7273" height="32" fill="white"/>
</clipPath>
</defs>
</svg>
