<svg width="100" height="44" viewBox="0 0 100 44" fill="none" xmlns="http://www.w3.org/2000/svg">
<g clip-path="url(#clip0_2465_480997)">
<path fill-rule="evenodd" clip-rule="evenodd" d="M94.0374 25.2582H88.6794V19.9527H100.095V33.756C97.7439 35.4033 93.4236 36.5273 89.0032 36.5273C79.3773 36.5273 75.002 31.3605 75.002 21.8299C75.002 12.2518 79.8436 7.23356 89.0519 7.23731C93.1485 7.23731 97.5102 8.31639 100.01 11.8771L95.9175 15.6339C94.3649 13.6618 92.4935 12.6277 89.1945 12.6277C83.2752 12.6277 81.4 16.0548 81.4 21.8786C81.4 27.9809 83.3702 30.9858 89.2945 30.9858C91.1246 30.9858 93.0535 30.6111 94.0374 30.2365V25.2582ZM74.2118 30.5635H60.5793V7.6543H54V36.1038H74.2118V30.5635Z" fill="#6B6B6B"/>
<g clip-path="url(#clip1_2465_480997)">
<path d="M22.5015 44C34.6511 44 44.491 34.1502 44.4796 22C44.4682 9.84973 34.6098 0 22.4602 0C10.3106 0 0.470679 9.84973 0.482094 22C0.493508 34.1502 10.3519 44 22.5015 44Z" fill="#A50034"/>
<path fill-rule="evenodd" clip-rule="evenodd" d="M39.0257 22.6887H27.8692V21.0376H40.6609C40.6783 21.3573 40.687 21.6771 40.687 22.0006C40.687 31.9422 32.5768 40 22.5749 40C12.5729 40 4.46143 31.9459 4.46143 21.9994C4.46143 12.0528 12.5704 4 22.5736 4C22.8376 4 23.1004 4.00539 23.362 4.01617V5.65486C23.1004 5.64324 22.8385 5.63744 22.5761 5.63744C13.4845 5.63744 6.11161 12.9636 6.11161 21.9994C6.11161 31.0351 13.4833 38.3626 22.5761 38.3626C31.4186 38.3626 38.6421 31.4308 39.0244 22.7347L39.0257 22.6887ZM27.8277 29.5671H23.3442V12.7373H21.6865V31.2282H23.3479V31.217H27.8314L27.8277 29.5671ZM17.2094 17.2859C16.7946 17.5654 16.3064 17.7158 15.8061 17.7183C15.4728 17.7191 15.1426 17.6543 14.8343 17.5276C14.5261 17.401 14.2458 17.2149 14.0095 16.98C13.7733 16.7451 13.5856 16.466 13.4573 16.1586C13.329 15.8513 13.2625 15.5217 13.2617 15.1887C13.2617 14.6889 13.4099 14.2004 13.6876 13.7847C13.9652 13.369 14.3599 13.0447 14.8219 12.8529C15.2838 12.6611 15.7923 12.6103 16.2831 12.7069C16.7739 12.8035 17.225 13.0432 17.5796 13.3957C17.9342 13.7482 18.1763 14.1978 18.2754 14.6876C18.3745 15.1775 18.3262 15.6857 18.1364 16.1482C17.9467 16.6106 17.6241 17.0065 17.2094 17.2859Z" fill="white"/>
</g>
</g>
<defs>
<clipPath id="clip0_2465_480997">
<rect width="100" height="44" fill="white"/>
</clipPath>
<clipPath id="clip1_2465_480997">
<rect width="45" height="44" fill="white"/>
</clipPath>
</defs>
</svg>
