<svg width="140" height="32" viewBox="0 0 140 32" fill="none" xmlns="http://www.w3.org/2000/svg">
<g clip-path="url(#clip0_4187_42585)">
<path fill-rule="evenodd" clip-rule="evenodd" d="M14.8743 17.4903C13.8184 18.3954 13.8366 20.928 13.8548 23.8629V24.6949L13.8639 25.0149C13.873 27.7851 13.9094 30.1623 14.5648 31.2229C14.7742 31.5794 15.1838 31.8354 15.73 31.9909C15.8665 32 16.0031 32 16.1487 32C17.4869 32 18.7886 31.8354 20.0357 31.5246C20.5455 31.2777 20.9187 30.976 21.0461 30.6651C21.1281 30.464 21.1645 30.0983 21.1645 29.6137C21.1645 27.6937 20.6001 24.0183 20.327 22.2446L20.1905 21.3211L20.1631 21.1383L20.1267 20.864C19.8992 19.2914 19.5077 17.5909 16.6585 17.152C15.8665 17.024 15.2839 17.1429 14.8743 17.4903ZM9.82214 29.3943C9.92227 30.1349 10.0679 30.6926 10.2682 31.0583C10.5595 31.1744 10.8572 31.2841 11.1603 31.3874C11.4334 31.1497 11.5972 30.4823 11.5426 28.8731C11.4607 26.56 11.0693 23.5063 10.4502 23.5429C9.78573 23.5794 9.53084 27.0629 9.82214 29.3943ZM23.3583 23.6617C22.621 24.0366 22.9032 28.2971 23.6769 29.6594C23.7588 29.7966 23.9227 29.8149 24.1047 29.7874C24.6873 29.4336 25.2426 29.0441 25.7706 28.6171C25.8343 28.48 25.8889 28.3154 25.9253 28.1051C26.071 27.3646 24.3323 23.1954 23.3583 23.6617ZM0 15.8537C0 21.1657 2.63077 25.8651 6.65429 28.736C6.76353 28.6171 6.84546 28.288 6.90918 28.0137L6.92738 27.904L7.01841 27.52C7.34612 25.9749 7.40984 24.4663 7.22778 22.6834C7.11855 21.5223 6.93649 20.8366 6.77263 20.2331C6.59968 19.584 6.45403 19.0171 6.47223 18.1394C6.48134 17.3531 6.64519 16.8046 6.81815 16.2194C7.02752 15.5611 7.25509 14.8114 7.2824 13.5131C7.37343 10.9897 7.62832 10.3589 8.38386 9.62743C9.13941 8.896 9.36699 8.59429 9.36699 8.05486C9.36699 7.51543 8.65695 6.29943 9.90407 5.01029C10.7142 4.18743 11.488 3.89486 12.0524 3.89486C12.371 3.89486 12.6168 3.98629 12.7624 4.13257C13.1629 4.55314 13.0446 5.36686 12.2526 6.44571C11.4516 7.52457 11.4698 8 11.5244 8.24686C11.5699 8.49371 11.8157 8.832 12.2799 9.19771C12.6441 9.49029 13.0537 9.81943 13.3268 10.2949C13.8275 11.2 14.1188 12.0686 14.5284 13.2571L14.6376 13.5954L14.6922 13.7234C15.0837 14.6651 16.0395 15.0034 17.6871 15.0034C19.3348 15.0034 21.2009 13.888 21.2009 13.0286C21.2009 12.1691 20.855 12.0686 20.855 11.3371C20.855 10.6057 21.9473 8.49371 23.6041 8.49371C24.4416 8.49371 24.8785 9.10629 24.4689 9.94743C24.0774 10.7794 23.2673 11.9771 23.2673 12.5074C23.2673 13.4766 24.7146 12.7269 25.625 11.9771C26.5535 11.2274 26.7628 11.0171 27.3909 9.90171C27.7824 9.20686 28.3376 9.07886 28.7018 9.25257C29.1114 9.46286 29.3663 10.0571 29.0022 10.9166C28.7109 11.584 27.928 12.4343 27.0996 13.3303C25.9982 14.528 24.7511 15.8903 24.7511 16.7589C24.7511 21.1931 27.2544 25.0697 27.5366 25.4903C27.8188 25.9109 27.9735 26.0571 28.0646 26.0937C30.404 23.3509 31.8241 19.8034 31.8332 15.9177V15.488C31.642 6.90286 24.5872 0 15.9211 0C7.25509 0 0 7.09486 0 15.8537Z" fill="#F14635"/>
<path fill-rule="evenodd" clip-rule="evenodd" d="M92.6331 10.9718C94.2052 10.9718 95.4278 11.5322 96.3017 12.654C97.1755 13.7759 97.6125 15.3174 97.6125 17.2803V17.4632C97.6125 19.3768 97.1664 20.9073 96.2743 22.0529C95.3823 23.193 94.1779 23.7626 92.6605 23.7626C91.4834 23.7626 90.5185 23.3484 89.7657 22.5192V28.7455H85.7786V11.2003H89.5017L89.6201 12.3432C90.3847 11.4289 91.3888 10.9718 92.6331 10.9718ZM64.8781 10.9718C66.5048 10.9718 67.7911 11.3558 68.7378 12.1238C69.6845 12.8918 70.1697 13.9432 70.1943 15.278V20.7455C70.2061 21.8792 70.3854 22.745 70.7313 23.342V23.534H66.7533C66.614 23.2844 66.4866 22.9151 66.371 22.4278C65.6427 23.3174 64.6205 23.7626 63.3033 23.7626C62.1017 23.7626 61.0794 23.4124 60.2356 22.7112C59.3917 22.0099 58.9703 21.1267 58.9703 20.0598C58.9703 18.7185 59.4828 17.7073 60.5087 17.0243C61.5282 16.3414 63.0147 16.0003 64.9691 16.0003H66.198V15.3512C66.198 14.2175 65.691 13.6506 64.6778 13.6506C63.7311 13.6506 63.2578 14.0986 63.2578 14.9946H59.2798C59.2798 13.7996 59.805 12.8305 60.8546 12.0872C61.9042 11.3439 63.2459 10.9718 64.8781 10.9718ZM77.8317 10.9718C79.5185 10.9718 80.8721 11.3402 81.8916 12.078C82.9175 12.8159 83.43 13.785 83.43 14.9855H79.4429C79.4429 13.998 78.9031 13.5043 77.8226 13.5043C77.4038 13.5043 77.0515 13.6168 76.7666 13.8426C76.4872 14.062 76.3479 14.3391 76.3479 14.6746C76.3479 15.0102 76.5208 15.2936 76.8668 15.5066C77.2127 15.7196 77.7652 15.897 78.5235 16.0369C79.2818 16.1713 79.9499 16.3322 80.5262 16.5215C82.4496 17.1615 83.4118 18.3071 83.4118 19.9592C83.4118 21.081 82.8929 21.9953 81.8552 22.702C80.8175 23.4088 79.4766 23.7626 77.8317 23.7626C76.7393 23.7626 75.7626 23.5734 74.9005 23.1958C74.0448 22.8182 73.3776 22.2998 72.8978 21.6415C72.4181 20.9896 72.1787 20.3039 72.1787 19.5843H75.8927C75.9109 20.1512 76.1085 20.5654 76.4844 20.8278C76.8604 21.0902 77.3465 21.2209 77.9409 21.2209C78.4807 21.2209 78.8876 21.1139 79.1607 20.9009C79.4338 20.6879 79.5703 20.4099 79.5703 20.0689C79.5703 19.7462 79.391 19.4838 79.0333 19.2826C78.681 19.0879 78.011 18.8831 77.0215 18.67C76.0265 18.457 75.2073 18.1763 74.5637 17.8289C73.9146 17.4815 73.4194 17.0609 73.0799 16.5672C72.7458 16.0735 72.5792 15.5066 72.5792 14.8666C72.5792 13.7393 73.0617 12.8067 74.0266 12.0689C74.9979 11.3375 76.266 10.9718 77.8317 10.9718ZM47.9283 5.99805V14.254L53.5631 5.99805H58.6881L52.3888 14.2815L58.2056 23.534H53.29L49.6306 17.3535L47.9283 19.1546V23.534H43.7773V5.99805H47.9283ZM100.07 11.2003H104.057V23.534H100.07V11.2003ZM139.159 11.2003V13.2758L133.469 20.5809H139.295V23.5432H128.435V21.3946L134.106 14.1718H127.425L130.092 11.2003H139.159ZM109.392 23.3786C108.299 23.3786 107.416 22.5283 107.416 21.4769C107.416 20.4255 108.299 19.566 109.392 19.566C110.484 19.566 111.358 20.4163 111.358 21.4769C111.358 22.5375 110.475 23.3786 109.392 23.3786ZM118.631 6.00719V15.2232L119.032 14.7112L122.045 11.1455H126.824L122.336 16.1649L127.124 23.3603H122.555L119.76 18.8072L118.631 19.886V23.3603H114.644V6.00719H118.631ZM66.1889 18.0575H65.0329C63.6492 18.0575 62.9574 18.6582 62.9574 19.8586C62.9574 20.206 63.0784 20.4895 63.3215 20.7089C63.5645 20.9283 63.874 21.038 64.25 21.038C64.7479 21.038 65.1603 20.9347 65.488 20.7272C65.8157 20.5196 66.0497 20.2883 66.1889 20.0323V18.0575ZM91.6409 13.9432C90.7006 13.9432 90.0725 14.2696 89.7566 14.9215V19.7763C90.1025 20.4593 90.7397 20.8003 91.6682 20.8003C92.9363 20.8003 93.589 19.7462 93.6254 17.6369V17.2255C93.6254 15.0376 92.9636 13.9432 91.6409 13.9432ZM102.109 10.0026C101.017 10.0026 100.134 9.10662 100.134 8.00033C100.134 6.89405 101.017 5.99805 102.109 5.99805C103.202 5.99805 104.076 6.89405 104.076 8.00033C104.076 9.10662 103.193 10.0026 102.109 10.0026Z" fill="black"/>
</g>
<defs>
<clipPath id="clip0_4187_42585">
<rect width="139.294" height="32" fill="white"/>
</clipPath>
</defs>
</svg>
