<svg width="69" height="30" viewBox="0 0 69 30" fill="none" xmlns="http://www.w3.org/2000/svg">
<g clip-path="url(#clip0_15_120070)">
<path fill-rule="evenodd" clip-rule="evenodd" d="M64.1185 17.2245H60.4654V13.6071H68.249V23.0184C66.6457 24.1416 63.7 24.908 60.6861 24.908C54.123 24.908 51.1398 21.3851 51.1398 14.887C51.1398 8.35646 54.441 4.93495 60.7194 4.9375C63.5125 4.9375 66.4863 5.67324 68.191 8.101L65.4004 10.6625C64.3418 9.31786 63.0659 8.61278 60.8165 8.61278C56.7807 8.61278 55.5021 10.9494 55.5021 14.9202C55.5021 19.0808 56.8454 21.1297 60.8847 21.1297C62.1325 21.1297 63.4477 20.8742 64.1185 20.6187V17.2245ZM50.6011 20.8417H41.3062V5.22181H36.8203V24.6192H50.6011V20.8417Z" fill="white"/>
<g clip-path="url(#clip1_15_120070)">
<path d="M15.3398 30C23.6236 30 30.3327 23.2843 30.3249 15C30.3171 6.71573 23.5955 0 15.3117 0C7.02785 0 0.318809 6.71573 0.326592 15C0.334374 23.2843 7.05603 30 15.3398 30Z" fill="#A50034"/>
<path fill-rule="evenodd" clip-rule="evenodd" d="M26.6056 15.4689H18.9989V14.3431H27.7205C27.7324 14.5611 27.7383 14.7791 27.7383 14.9997C27.7383 21.7781 22.2087 27.272 15.3891 27.272C8.56959 27.272 3.03906 21.7806 3.03906 14.9989C3.03906 8.21712 8.56789 2.72656 15.3883 2.72656C15.5683 2.72656 15.7475 2.73024 15.9258 2.73759V3.85487C15.7475 3.84696 15.5689 3.843 15.39 3.843C9.19117 3.843 4.16419 8.83811 4.16419 14.9989C4.16419 21.1596 9.19032 26.1556 15.39 26.1556C21.419 26.1556 26.344 21.4294 26.6047 15.5002L26.6056 15.4689ZM18.9706 20.1587H15.9137V8.68382H14.7834V21.2912H15.9162V21.2836H18.9732L18.9706 20.1587ZM11.7309 11.7852C11.4481 11.9757 11.1151 12.0783 10.7741 12.0799C10.5468 12.0805 10.3217 12.0363 10.1115 11.95C9.90132 11.8636 9.71023 11.7367 9.54914 11.5765C9.38804 11.4164 9.2601 11.2261 9.17262 11.0166C9.08513 10.807 9.03982 10.5823 9.03926 10.3552C9.03927 10.0145 9.1403 9.68137 9.32962 9.39793C9.51894 9.11449 9.78806 8.89343 10.103 8.76264C10.418 8.63186 10.7646 8.59721 11.0993 8.66307C11.4339 8.72894 11.7415 8.89236 11.9833 9.13272C12.2251 9.37307 12.3901 9.67959 12.4577 10.0136C12.5253 10.3476 12.4923 10.6941 12.3629 11.0094C12.2336 11.3247 12.0136 11.5946 11.7309 11.7852Z" fill="white"/>
</g>
</g>
<defs>
<clipPath id="clip0_15_120070">
<rect width="68.1818" height="30" fill="white"/>
</clipPath>
<clipPath id="clip1_15_120070">
<rect width="30.6818" height="30" fill="white"/>
</clipPath>
</defs>
</svg>
