<svg width="54" height="11" viewBox="0 0 54 11" fill="none" xmlns="http://www.w3.org/2000/svg">
<g clip-path="url(#clip0_419_80128)">
<path fill-rule="evenodd" clip-rule="evenodd" d="M0 0.144067H2.1406V7.96457H6.57504V9.85593H0V0.144067ZM13.0275 6.154H11.2844L11.2853 6.15302V4.34245H15V9.05383C14.2348 9.6155 12.8288 10 11.3912 10C8.25594 10 6.83507 8.2381 6.83507 4.98394C6.83507 1.71323 8.40825 0 11.4042 0C12.7368 0 14.1586 0.367955 14.9694 1.58474L13.6386 2.86966C13.1334 2.1941 12.5232 1.84172 11.4525 1.84172C9.52545 1.84172 8.91438 3.01373 8.91438 4.99951C8.91438 7.08264 9.55702 8.10863 11.4831 8.10863C12.0802 8.10863 12.7062 7.98209 13.0275 7.85165V6.154ZM53.9995 11L52.3149 9.14827C52.4939 9.00577 52.6557 8.84408 52.7969 8.6663C53.5091 7.51469 53.8516 6.1849 53.781 4.84523C53.856 3.56717 53.5116 2.29882 52.7969 1.22079C52.4345 0.836236 51.9929 0.529012 51.5005 0.318795C51.0081 0.108578 50.4757 0 49.9373 0C49.3989 0 48.8664 0.108578 48.374 0.318795C47.8815 0.529012 47.44 0.836236 47.0775 1.22079C46.3625 2.29875 46.0175 3.567 46.0916 4.84523C46.0219 6.18507 46.365 7.51478 47.0775 8.6663C47.421 9.07282 47.859 9.39523 48.3558 9.6073C48.8527 9.81937 49.3943 9.91508 49.9367 9.88664C50.261 9.88798 50.5846 9.85569 50.9018 9.79027L51.9995 10.9981L53.9995 11ZM48.355 7.65899C47.9452 6.79256 47.7563 5.84388 47.8041 4.89245C47.7538 3.97565 47.9433 3.06139 48.355 2.23389C48.5163 1.96666 48.7473 1.74495 49.0251 1.59086C49.3028 1.43676 49.6175 1.35567 49.9378 1.35567C50.258 1.35567 50.5727 1.43676 50.8504 1.59086C51.1281 1.74495 51.3592 1.96666 51.5205 2.23389C51.9309 3.0618 52.1199 3.97581 52.0704 4.89245C52.1174 5.84373 51.929 6.79217 51.5205 7.65899C51.359 7.92598 51.1278 8.14744 50.8502 8.30135C50.5725 8.45526 50.2579 8.53625 49.9378 8.53625C49.6176 8.53625 49.303 8.45526 49.0253 8.30135C48.7476 8.14744 48.5165 7.92598 48.355 7.65899ZM19 1.50724H22.0448V9.72393H23.7304V1.50724H26.7612V0.196289H19V1.50724ZM36.2373 0.9375C36.0399 0.9375 35.847 0.994023 35.6829 1.09994C35.5188 1.20586 35.3908 1.35641 35.3153 1.53255C35.2397 1.70869 35.22 1.90249 35.2585 2.08948C35.297 2.27647 35.3921 2.44823 35.5316 2.58304C35.6712 2.71785 35.849 2.80966 36.0426 2.84686C36.2362 2.88405 36.4369 2.86495 36.6192 2.79199C36.8016 2.71904 36.9574 2.59551 37.0671 2.43699C37.1768 2.27847 37.2353 2.0921 37.2353 1.90145C37.2353 1.64579 37.1302 1.40059 36.943 1.21982C36.7559 1.03904 36.502 0.9375 36.2373 0.9375ZM35.3976 9.71985V3.75977C35.6599 3.86653 35.9417 3.92153 36.2264 3.92153C36.5111 3.92153 36.7929 3.86653 37.0552 3.75977V9.71985H35.3976ZM30.7026 3.0775C30.235 3.07457 29.7714 3.16072 29.3384 3.33102V0.196289H27.6528V9.72393H29.3384V5.51823C29.3834 5.204 29.5531 4.91893 29.8115 4.72311C30.0698 4.52729 30.3968 4.43602 30.7235 4.4685C30.8915 4.44657 31.0624 4.45891 31.2251 4.50477C31.3879 4.55063 31.5388 4.62897 31.6683 4.73473C31.7977 4.84048 31.9027 4.9713 31.9765 5.11871C32.0504 5.26612 32.0913 5.42687 32.0967 5.59053V9.72295H33.7634V5.33702C33.7634 4.18028 32.6876 3.0775 30.7026 3.0775ZM38.6175 5.33565C38.6175 4.18084 39.6973 3.08291 41.6683 3.0752C43.6353 3.08291 44.7201 4.18084 44.7201 5.33565V9.72162H43.0525V5.58917C42.9949 5.27481 42.8247 4.99008 42.5714 4.78493C42.3182 4.57978 41.9983 4.46734 41.6678 4.46734C41.3373 4.46734 41.0174 4.57978 40.7641 4.78493C40.5109 4.99008 40.3406 5.27481 40.2831 5.58917V9.72162H38.6175V5.33565Z" fill="#161615"/>
</g>
<defs>
<clipPath id="clip0_419_80128">
<rect width="54" height="11" fill="white"/>
</clipPath>
</defs>
</svg>
