<svg width="101" height="44" viewBox="0 0 101 44" fill="none" xmlns="http://www.w3.org/2000/svg">
<g clip-path="url(#clip0_2618_282659)">
<path fill-rule="evenodd" clip-rule="evenodd" d="M94.6272 25.2592H89.2692V19.9537H100.685V33.7569C98.3338 35.4043 94.0134 36.5283 89.593 36.5283C79.9672 36.5283 75.5918 31.3615 75.5918 21.8308C75.5918 12.2528 80.4335 7.23454 89.6418 7.23828C93.7384 7.23828 98.1 8.31736 100.6 11.8781L96.5074 15.6349C94.9547 13.6628 93.0833 12.6287 89.7843 12.6287C83.865 12.6287 81.9899 16.0558 81.9899 21.8796C81.9899 27.9819 83.96 30.9868 89.8843 30.9868C91.7145 30.9868 93.6434 30.6121 94.6272 30.2374V25.2592ZM74.8016 30.5645H61.1692V7.65527H54.5898V36.1048H74.8016V30.5645Z" fill="black"/>
<g clip-path="url(#clip1_2618_282659)">
<path d="M23.0909 44C35.2404 44 45.0804 34.1502 45.069 22C45.0575 9.84973 35.1991 0 23.0495 0C10.9 0 1.06003 9.84973 1.07145 22C1.08286 34.1502 10.9413 44 23.0909 44Z" fill="#A50034"/>
<path fill-rule="evenodd" clip-rule="evenodd" d="M39.615 22.6887H28.4585V21.0376H41.2502C41.2677 21.3573 41.2764 21.6771 41.2764 22.0006C41.2764 31.9422 33.1662 40 23.1642 40C13.1622 40 5.05078 31.9459 5.05078 21.9994C5.05078 12.0528 13.1597 4 23.163 4C23.427 4 23.6898 4.00539 23.9513 4.01617V5.65486C23.6898 5.64324 23.4278 5.63744 23.1655 5.63744C14.0739 5.63744 6.70097 12.9636 6.70097 21.9994C6.70097 31.0351 14.0726 38.3626 23.1655 38.3626C32.008 38.3626 39.2314 31.4308 39.6138 22.7347L39.615 22.6887ZM28.4171 29.5671H23.9335V12.7373H22.2759V31.2282H23.9373V31.217H28.4208L28.4171 29.5671ZM17.7987 17.2859C17.384 17.5654 16.8957 17.7158 16.3955 17.7183C16.0622 17.7191 15.7319 17.6543 15.4237 17.5276C15.1154 17.401 14.8352 17.2149 14.5989 16.98C14.3626 16.7451 14.175 16.466 14.0467 16.1586C13.9184 15.8513 13.8519 15.5217 13.8511 15.1887C13.8511 14.6889 13.9993 14.2004 14.2769 13.7847C14.5546 13.369 14.9493 13.0447 15.4112 12.8529C15.8732 12.6611 16.3816 12.6103 16.8724 12.7069C17.3632 12.8035 17.8144 13.0432 18.169 13.3957C18.5236 13.7482 18.7657 14.1978 18.8648 14.6876C18.9639 15.1775 18.9155 15.6857 18.7258 16.1482C18.5361 16.6106 18.2135 17.0065 17.7987 17.2859Z" fill="white"/>
</g>
</g>
<defs>
<clipPath id="clip0_2618_282659">
<rect width="100" height="44" fill="white" transform="translate(0.589844)"/>
</clipPath>
<clipPath id="clip1_2618_282659">
<rect width="45" height="44" fill="white" transform="translate(0.589844)"/>
</clipPath>
</defs>
</svg>
