<svg width="99" height="11" viewBox="0 0 99 11" fill="none" xmlns="http://www.w3.org/2000/svg">
<g clip-path="url(#clip0_419_80123)">
<path fill-rule="evenodd" clip-rule="evenodd" d="M0 0.144067H2.1406V7.96457H6.57504V9.85593H0V0.144067ZM13.0275 6.154H11.2844L11.2853 6.15302V4.34245H15V9.05383C14.2348 9.6155 12.8288 10 11.3912 10C8.25594 10 6.83507 8.2381 6.83507 4.98394C6.83507 1.71323 8.40825 0 11.4042 0C12.7368 0 14.1586 0.367955 14.9694 1.58474L13.6386 2.86966C13.1334 2.1941 12.5232 1.84172 11.4525 1.84172C9.52545 1.84172 8.91438 3.01373 8.91438 4.99951C8.91438 7.08264 9.55702 8.10863 11.4831 8.10863C12.0802 8.10863 12.7062 7.98209 13.0275 7.85165V6.154ZM27.7992 6.78954V7.57414H27.7982C27.7982 7.8089 27.7743 8.03645 27.7275 8.25062C27.5016 9.3647 26.7102 9.98044 25.5009 9.98044H19.2399V8.7675H25.5486C26.1678 8.7675 26.6057 8.37727 26.6197 7.81713C26.6207 7.81199 26.6227 7.80169 26.6227 7.78933V6.63303C26.6177 5.99465 26.2693 5.62088 25.6621 5.59823L21.3013 5.5972C19.853 5.5972 19.0368 4.77657 19.002 3.28769V3.23929C19 3.22386 19 3.20843 19 3.193V3.19296V2.40836C19 2.1736 19.0229 1.95222 19.0697 1.72982C19.2976 0.614704 20.0889 0 21.3013 0H27.2069V1.21499H21.2486C20.6304 1.21499 20.1905 1.6042 20.1775 2.16845L20.1755 2.19316V3.34946C20.1775 3.97858 20.5349 4.36367 21.1361 4.38427H25.4979C26.9442 4.38427 27.7594 5.20593 27.7942 6.6979L27.7952 6.71849C27.7956 6.72645 27.7962 6.73468 27.7969 6.7432C27.798 6.75782 27.7992 6.77327 27.7992 6.78954ZM31.2651 10H30.1095V0H31.2651V10ZM37.2394 4.45119H41.7505V7.04283C41.7505 8.94049 40.7591 9.98456 38.9574 9.98456H35.6777C33.9059 9.98456 32.8876 8.91166 32.8876 7.04283V2.93863C32.8876 1.07084 33.9059 0 35.6777 0H41.2269V1.17792H35.6299C34.6853 1.17792 34.097 1.78439 34.097 2.75844V7.22508C34.097 8.17854 34.6853 8.77265 35.6299 8.77265H39.0082C40.0414 8.77265 40.5441 8.26606 40.5441 7.22508V5.64868H37.2394V4.45119ZM61.8274 9.99897L60.7623 7.54222V7.54119H55.2758L54.2057 9.99897H52.8849L57.2974 0.00102958H58.7517L63.1642 9.99897H61.8274ZM60.2368 6.32825L58.025 1.22735L55.8053 6.32825H60.2368ZM52.0487 0V9.99073H50.473L44.5913 1.49197V10H43.4417V0.0092672H44.9716L50.8732 8.51318V0H52.0487ZM61.7726 0H69.9706V1.18101H66.4928V9.96499H65.2505V1.18101H61.7726V0ZM78.3289 0H79.5701V6.8091C79.5701 8.91989 78.5668 9.98765 76.5899 9.98765H74.1333C72.1973 9.98765 71.2159 8.91989 71.2159 6.8091V0H72.4561V6.95737C72.4561 8.14765 73.0304 8.77574 74.1154 8.77574H76.6696C77.7555 8.77574 78.3289 8.14765 78.3289 6.95943V0ZM89.7638 9.99279H88.5495V9.99382C88.5216 8.77677 87.7094 6.39106 85.2816 6.39106H82.4249V9.96705H81.2145V0.00102958H87.3082C88.9168 0.00102958 89.7658 0.889621 89.7658 2.57516V3.87871C89.7658 5.51277 88.9038 6.10276 88.1802 6.30869L88.0677 6.34061L88.1633 6.41577C89.1258 7.17669 89.6623 8.38035 89.7638 9.99279ZM87.2664 1.18204H82.4249V5.21108H87.3222C88.1065 5.21108 88.5564 4.75906 88.5564 3.97035L88.5554 2.42278C88.5554 1.65568 88.0617 1.18204 87.2664 1.18204ZM99 0V1.17278H92.4195V4.39045H98.8686V5.5694H92.4195V8.80663H99V9.98456H91.2131V0H99Z" fill="#222222"/>
</g>
<defs>
<clipPath id="clip0_419_80123">
<rect width="99" height="11" fill="white"/>
</clipPath>
</defs>
</svg>
