<svg width="136" height="136" viewBox="0 0 136 136" fill="none" xmlns="http://www.w3.org/2000/svg">
<path d="M7.20078 0.799805H0.800781V7.1998H7.20078V0.799805Z" fill="black"/>
<path d="M13.6008 0.799805H7.20078V7.1998H13.6008V0.799805Z" fill="black"/>
<path d="M20.0008 0.799805H13.6008V7.1998H20.0008V0.799805Z" fill="black"/>
<path d="M26.4008 0.799805H20.0008V7.1998H26.4008V0.799805Z" fill="black"/>
<path d="M32.8008 0.799805H26.4008V7.1998H32.8008V0.799805Z" fill="black"/>
<path d="M39.2008 0.799805H32.8008V7.1998H39.2008V0.799805Z" fill="black"/>
<path d="M45.6008 0.799805H39.2008V7.1998H45.6008V0.799805Z" fill="black"/>
<path d="M58.4008 0.799805H52.0008V7.1998H58.4008V0.799805Z" fill="black"/>
<path d="M71.2008 0.799805H64.8008V7.1998H71.2008V0.799805Z" fill="black"/>
<path d="M84.0008 0.799805H77.6008V7.1998H84.0008V0.799805Z" fill="black"/>
<path d="M96.8008 0.799805H90.4008V7.1998H96.8008V0.799805Z" fill="black"/>
<path d="M103.201 0.799805H96.8008V7.1998H103.201V0.799805Z" fill="black"/>
<path d="M109.601 0.799805H103.201V7.1998H109.601V0.799805Z" fill="black"/>
<path d="M116.001 0.799805H109.601V7.1998H116.001V0.799805Z" fill="black"/>
<path d="M122.401 0.799805H116.001V7.1998H122.401V0.799805Z" fill="black"/>
<path d="M128.801 0.799805H122.401V7.1998H128.801V0.799805Z" fill="black"/>
<path d="M135.201 0.799805H128.801V7.1998H135.201V0.799805Z" fill="black"/>
<path d="M7.20078 7.1998H0.800781V13.5998H7.20078V7.1998Z" fill="black"/>
<path d="M45.6008 7.1998H39.2008V13.5998H45.6008V7.1998Z" fill="black"/>
<path d="M71.2008 7.1998H64.8008V13.5998H71.2008V7.1998Z" fill="black"/>
<path d="M77.6008 7.1998H71.2008V13.5998H77.6008V7.1998Z" fill="black"/>
<path d="M96.8008 7.1998H90.4008V13.5998H96.8008V7.1998Z" fill="black"/>
<path d="M135.201 7.1998H128.801V13.5998H135.201V7.1998Z" fill="black"/>
<path d="M7.20078 13.5998H0.800781V19.9998H7.20078V13.5998Z" fill="black"/>
<path d="M20.0008 13.5998H13.6008V19.9998H20.0008V13.5998Z" fill="black"/>
<path d="M26.4008 13.5998H20.0008V19.9998H26.4008V13.5998Z" fill="black"/>
<path d="M32.8008 13.5998H26.4008V19.9998H32.8008V13.5998Z" fill="black"/>
<path d="M45.6008 13.5998H39.2008V19.9998H45.6008V13.5998Z" fill="black"/>
<path d="M84.0008 13.5998H77.6008V19.9998H84.0008V13.5998Z" fill="black"/>
<path d="M96.8008 13.5998H90.4008V19.9998H96.8008V13.5998Z" fill="black"/>
<path d="M109.601 13.5998H103.201V19.9998H109.601V13.5998Z" fill="black"/>
<path d="M116.001 13.5998H109.601V19.9998H116.001V13.5998Z" fill="black"/>
<path d="M122.401 13.5998H116.001V19.9998H122.401V13.5998Z" fill="black"/>
<path d="M135.201 13.5998H128.801V19.9998H135.201V13.5998Z" fill="black"/>
<path d="M7.20078 19.9998H0.800781V26.3998H7.20078V19.9998Z" fill="black"/>
<path d="M20.0008 19.9998H13.6008V26.3998H20.0008V19.9998Z" fill="black"/>
<path d="M26.4008 19.9998H20.0008V26.3998H26.4008V19.9998Z" fill="black"/>
<path d="M32.8008 19.9998H26.4008V26.3998H32.8008V19.9998Z" fill="black"/>
<path d="M45.6008 19.9998H39.2008V26.3998H45.6008V19.9998Z" fill="black"/>
<path d="M58.4008 19.9998H52.0008V26.3998H58.4008V19.9998Z" fill="black"/>
<path d="M64.8008 19.9998H58.4008V26.3998H64.8008V19.9998Z" fill="black"/>
<path d="M77.6008 19.9998H71.2008V26.3998H77.6008V19.9998Z" fill="black"/>
<path d="M96.8008 19.9998H90.4008V26.3998H96.8008V19.9998Z" fill="black"/>
<path d="M109.601 19.9998H103.201V26.3998H109.601V19.9998Z" fill="black"/>
<path d="M116.001 19.9998H109.601V26.3998H116.001V19.9998Z" fill="black"/>
<path d="M122.401 19.9998H116.001V26.3998H122.401V19.9998Z" fill="black"/>
<path d="M135.201 19.9998H128.801V26.3998H135.201V19.9998Z" fill="black"/>
<path d="M7.20078 26.3998H0.800781V32.7998H7.20078V26.3998Z" fill="black"/>
<path d="M20.0008 26.3998H13.6008V32.7998H20.0008V26.3998Z" fill="black"/>
<path d="M26.4008 26.3998H20.0008V32.7998H26.4008V26.3998Z" fill="black"/>
<path d="M32.8008 26.3998H26.4008V32.7998H32.8008V26.3998Z" fill="black"/>
<path d="M45.6008 26.3998H39.2008V32.7998H45.6008V26.3998Z" fill="black"/>
<path d="M64.8008 26.3998H58.4008L58.4008 32.7998H64.8008V26.3998Z" fill="black"/>
<path d="M71.2008 26.3998H64.8008V32.7998H71.2008L71.2008 26.3998Z" fill="black"/>
<path d="M84.0008 26.3998H77.6008V32.7998H84.0008V26.3998Z" fill="black"/>
<path d="M96.8008 26.3998H90.4008V32.7998H96.8008V26.3998Z" fill="black"/>
<path d="M109.601 26.3998H103.201V32.7998H109.601V26.3998Z" fill="black"/>
<path d="M116.001 26.3998H109.601V32.7998H116.001V26.3998Z" fill="black"/>
<path d="M122.401 26.3998H116.001V32.7998H122.401V26.3998Z" fill="black"/>
<path d="M135.201 26.3998H128.801V32.7998H135.201V26.3998Z" fill="black"/>
<path d="M7.20078 32.7998H0.800781V39.1998H7.20078V32.7998Z" fill="black"/>
<path d="M45.6008 32.7998H39.2008V39.1998H45.6008V32.7998Z" fill="black"/>
<path d="M58.4008 32.7998H52.0008V39.1998H58.4008L58.4008 32.7998Z" fill="black"/>
<path d="M64.8008 32.7998H58.4008L58.4008 39.1998H64.8008V32.7998Z" fill="black"/>
<path d="M84.0008 32.7998H77.6008V39.1998H84.0008V32.7998Z" fill="black"/>
<path d="M96.8008 32.7998H90.4008V39.1998H96.8008V32.7998Z" fill="black"/>
<path d="M135.201 32.7998H128.801V39.1998H135.201V32.7998Z" fill="black"/>
<path d="M7.20078 39.1998H0.800781V45.5998H7.20078V39.1998Z" fill="black"/>
<path d="M13.6008 39.1998H7.20078V45.5998H13.6008V39.1998Z" fill="black"/>
<path d="M20.0008 39.1998H13.6008V45.5998H20.0008V39.1998Z" fill="black"/>
<path d="M26.4008 39.1998H20.0008V45.5998H26.4008V39.1998Z" fill="black"/>
<path d="M32.8008 39.1998H26.4008V45.5998H32.8008V39.1998Z" fill="black"/>
<path d="M39.2008 39.1998H32.8008V45.5998H39.2008V39.1998Z" fill="black"/>
<path d="M45.6008 39.1998H39.2008V45.5998H45.6008V39.1998Z" fill="black"/>
<path d="M58.4008 39.1998H52.0008V45.5998H58.4008V39.1998Z" fill="black"/>
<path d="M71.2008 39.1998H64.8008L64.8008 45.5998H71.2008V39.1998Z" fill="black"/>
<path d="M84.0008 39.1998H77.6008V45.5998H84.0008V39.1998Z" fill="black"/>
<path d="M96.8008 39.1998H90.4008V45.5998H96.8008V39.1998Z" fill="black"/>
<path d="M103.201 39.1998H96.8008V45.5998H103.201V39.1998Z" fill="black"/>
<path d="M109.601 39.1998H103.201V45.5998H109.601V39.1998Z" fill="black"/>
<path d="M116.001 39.1998H109.601V45.5998H116.001V39.1998Z" fill="black"/>
<path d="M122.401 39.1998H116.001V45.5998H122.401V39.1998Z" fill="black"/>
<path d="M128.801 39.1998H122.401V45.5998H128.801V39.1998Z" fill="black"/>
<path d="M135.201 39.1998H128.801V45.5998H135.201V39.1998Z" fill="black"/>
<path d="M39.2008 51.9998H32.8008V58.3998H39.2008V51.9998Z" fill="black"/>
<path d="M45.6008 51.9998H39.2008V58.3998H45.6008V51.9998Z" fill="black"/>
<path d="M58.4008 51.9998H52.0008V58.3998H58.4008V51.9998Z" fill="black"/>
<path d="M64.8008 51.9998H58.4008V58.3998H64.8008V51.9998Z" fill="black"/>
<path d="M77.6008 51.9998H71.2008V58.3998H77.6008V51.9998Z" fill="black"/>
<path d="M90.4008 51.9998H84.0008V58.3998H90.4008V51.9998Z" fill="black"/>
<path d="M103.201 51.9998H96.8008V58.3998H103.201V51.9998Z" fill="black"/>
<path d="M116.001 51.9998H109.601V58.3998H116.001V51.9998Z" fill="black"/>
<path d="M135.201 51.9998H128.801V58.3998H135.201V51.9998Z" fill="black"/>
<path d="M7.20078 58.3998H0.800781V64.7998H7.20078V58.3998Z" fill="black"/>
<path d="M13.6008 58.3998H7.20078V64.7998H13.6008V58.3998Z" fill="black"/>
<path d="M20.0008 58.3998H13.6008V64.7998H20.0008V58.3998Z" fill="black"/>
<path d="M26.4008 58.3998H20.0008V64.7998H26.4008V58.3998Z" fill="black"/>
<path d="M32.8008 58.3998L26.4008 58.3998V64.7998H32.8008V58.3998Z" fill="black"/>
<path d="M58.4008 58.3998H52.0008V64.7998H58.4008V58.3998Z" fill="black"/>
<path d="M64.8008 58.3998H58.4008V64.7998H64.8008V58.3998Z" fill="black"/>
<path d="M77.6008 58.3998H71.2008V64.7998H77.6008V58.3998Z" fill="black"/>
<path d="M109.601 58.3998H103.201V64.7998H109.601V58.3998Z" fill="black"/>
<path d="M122.401 58.3998L116.001 58.3998V64.7998H122.401V58.3998Z" fill="black"/>
<path d="M135.201 58.3998H128.801V64.7998H135.201V58.3998Z" fill="black"/>
<path d="M13.6008 64.7998H7.20078V71.1998H13.6008V64.7998Z" fill="black"/>
<path d="M32.8008 64.7998H26.4008V71.1998H32.8008V64.7998Z" fill="black"/>
<path d="M39.2008 64.7998L32.8008 64.7998V71.1998H39.2008V64.7998Z" fill="black"/>
<path d="M45.6008 64.7998H39.2008V71.1998H45.6008V64.7998Z" fill="black"/>
<path d="M52.0008 64.7998L45.6008 64.7998V71.1998H52.0008L52.0008 64.7998Z" fill="black"/>
<path d="M58.4008 64.7998H52.0008L52.0008 71.1998H58.4008V64.7998Z" fill="black"/>
<path d="M84.0008 64.7998L77.6008 64.7998V71.1998H84.0008V64.7998Z" fill="black"/>
<path d="M90.4008 64.7998H84.0008V71.1998H90.4008V64.7998Z" fill="black"/>
<path d="M103.201 64.7998L96.8008 64.7998V71.1998H103.201V64.7998Z" fill="black"/>
<path d="M109.601 64.7998H103.201V71.1998H109.601V64.7998Z" fill="black"/>
<path d="M116.001 64.7998H109.601V71.1998H116.001V64.7998Z" fill="black"/>
<path d="M122.401 64.7998H116.001V71.1998H122.401V64.7998Z" fill="black"/>
<path d="M128.801 64.7998H122.401V71.1998H128.801V64.7998Z" fill="black"/>
<path d="M13.6008 71.1998H7.20078V77.5998H13.6008V71.1998Z" fill="black"/>
<path d="M20.0008 71.1998L13.6008 71.1998V77.5998H20.0008V71.1998Z" fill="black"/>
<path d="M26.4008 71.1998L20.0008 71.1998V77.5998H26.4008V71.1998Z" fill="black"/>
<path d="M39.2008 71.1998H32.8008V77.5998H39.2008V71.1998Z" fill="black"/>
<path d="M52.0008 71.1998H45.6008V77.5998H52.0008V71.1998Z" fill="black"/>
<path d="M77.6008 71.1998L71.2008 71.1998V77.5998H77.6008V71.1998Z" fill="black"/>
<path d="M90.4008 71.1998H84.0008V77.5998H90.4008V71.1998Z" fill="black"/>
<path d="M103.201 71.1998H96.8008V77.5998H103.201V71.1998Z" fill="black"/>
<path d="M109.601 71.1998H103.201V77.5998H109.601V71.1998Z" fill="black"/>
<path d="M116.001 71.1998H109.601V77.5998H116.001V71.1998Z" fill="black"/>
<path d="M135.201 71.1998L128.801 71.1998V77.5998H135.201V71.1998Z" fill="black"/>
<path d="M32.8008 77.5998H26.4008V83.9998H32.8008V77.5998Z" fill="black"/>
<path d="M39.2008 77.5998H32.8008V83.9998H39.2008V77.5998Z" fill="black"/>
<path d="M45.6008 77.5998H39.2008V83.9998H45.6008V77.5998Z" fill="black"/>
<path d="M52.0008 77.5998H45.6008V83.9998H52.0008V77.5998Z" fill="black"/>
<path d="M71.2008 77.5998H64.8008V83.9998H71.2008L71.2008 77.5998Z" fill="black"/>
<path d="M84.0008 77.5998H77.6008V83.9998H84.0008V77.5998Z" fill="black"/>
<path d="M103.201 77.5998H96.8008V83.9998H103.201V77.5998Z" fill="black"/>
<path d="M122.401 77.5998H116.001V83.9998H122.401V77.5998Z" fill="black"/>
<path d="M135.201 77.5998H128.801V83.9998H135.201V77.5998Z" fill="black"/>
<path d="M58.4008 83.9998H52.0008L52.0008 90.3998H58.4008V83.9998Z" fill="black"/>
<path d="M71.2008 83.9998H64.8008V90.3998H71.2008V83.9998Z" fill="black"/>
<path d="M96.8008 83.9998H90.4008V90.3998H96.8008V83.9998Z" fill="black"/>
<path d="M103.201 83.9998H96.8008V90.3998H103.201V83.9998Z" fill="black"/>
<path d="M128.801 83.9998H122.401V90.3998H128.801V83.9998Z" fill="black"/>
<path d="M7.20078 90.3998H0.800781V96.7998H7.20078V90.3998Z" fill="black"/>
<path d="M13.6008 90.3998H7.20078V96.7998H13.6008V90.3998Z" fill="black"/>
<path d="M20.0008 90.3998H13.6008V96.7998H20.0008V90.3998Z" fill="black"/>
<path d="M26.4008 90.3998H20.0008V96.7998H26.4008V90.3998Z" fill="black"/>
<path d="M32.8008 90.3998H26.4008V96.7998H32.8008V90.3998Z" fill="black"/>
<path d="M39.2008 90.3998H32.8008V96.7998H39.2008V90.3998Z" fill="black"/>
<path d="M45.6008 90.3998H39.2008V96.7998H45.6008V90.3998Z" fill="black"/>
<path d="M64.8008 90.3998H58.4008L58.4008 96.7998H64.8008L64.8008 90.3998Z" fill="black"/>
<path d="M84.0008 90.3998H77.6008V96.7998H84.0008V90.3998Z" fill="black"/>
<path d="M109.601 90.3998H103.201V96.7998H109.601V90.3998Z" fill="black"/>
<path d="M128.801 90.3998H122.401V96.7998H128.801V90.3998Z" fill="black"/>
<path d="M7.20078 96.7998H0.800781V103.2H7.20078V96.7998Z" fill="black"/>
<path d="M45.6008 96.7998H39.2008V103.2H45.6008V96.7998Z" fill="black"/>
<path d="M58.4008 96.7998H52.0008V103.2H58.4008L58.4008 96.7998Z" fill="black"/>
<path d="M90.4008 96.7998H84.0008V103.2H90.4008V96.7998Z" fill="black"/>
<path d="M96.8008 96.7998H90.4008V103.2H96.8008V96.7998Z" fill="black"/>
<path d="M103.201 96.7998H96.8008V103.2H103.201V96.7998Z" fill="black"/>
<path d="M109.601 96.7998H103.201V103.2H109.601V96.7998Z" fill="black"/>
<path d="M116.001 96.7998H109.601V103.2H116.001V96.7998Z" fill="black"/>
<path d="M7.20078 103.2H0.800781V109.6H7.20078V103.2Z" fill="black"/>
<path d="M20.0008 103.2H13.6008V109.6H20.0008V103.2Z" fill="black"/>
<path d="M26.4008 103.2H20.0008V109.6H26.4008V103.2Z" fill="black"/>
<path d="M32.8008 103.2H26.4008V109.6H32.8008V103.2Z" fill="black"/>
<path d="M45.6008 103.2H39.2008V109.6H45.6008V103.2Z" fill="black"/>
<path d="M84.0008 103.2H77.6008V109.6H84.0008V103.2Z" fill="black"/>
<path d="M90.4008 103.2H84.0008V109.6H90.4008V103.2Z" fill="black"/>
<path d="M103.201 103.2H96.8008V109.6H103.201V103.2Z" fill="black"/>
<path d="M109.601 103.2H103.201V109.6H109.601V103.2Z" fill="black"/>
<path d="M122.401 103.2H116.001V109.6H122.401V103.2Z" fill="black"/>
<path d="M128.801 103.2H122.401V109.6H128.801V103.2Z" fill="black"/>
<path d="M7.20078 109.6H0.800781V116H7.20078V109.6Z" fill="black"/>
<path d="M20.0008 109.6H13.6008V116H20.0008V109.6Z" fill="black"/>
<path d="M26.4008 109.6H20.0008V116H26.4008V109.6Z" fill="black"/>
<path d="M32.8008 109.6H26.4008V116H32.8008V109.6Z" fill="black"/>
<path d="M45.6008 109.6H39.2008V116H45.6008V109.6Z" fill="black"/>
<path d="M64.8008 109.6H58.4008V116H64.8008V109.6Z" fill="black"/>
<path d="M71.2008 109.6H64.8008V116H71.2008V109.6Z" fill="black"/>
<path d="M77.6008 109.6H71.2008V116H77.6008V109.6Z" fill="black"/>
<path d="M84.0008 109.6H77.6008V116H84.0008V109.6Z" fill="black"/>
<path d="M90.4008 109.6H84.0008V116H90.4008V109.6Z" fill="black"/>
<path d="M109.601 109.6H103.201V116H109.601V109.6Z" fill="black"/>
<path d="M135.201 109.6H128.801V116H135.201V109.6Z" fill="black"/>
<path d="M7.20078 116H0.800781V122.4H7.20078V116Z" fill="black"/>
<path d="M20.0008 116H13.6008V122.4H20.0008V116Z" fill="black"/>
<path d="M26.4008 116H20.0008V122.4H26.4008V116Z" fill="black"/>
<path d="M32.8008 116H26.4008V122.4H32.8008V116Z" fill="black"/>
<path d="M45.6008 116H39.2008V122.4H45.6008V116Z" fill="black"/>
<path d="M71.2008 116H64.8008L64.8008 122.4H71.2008V116Z" fill="black"/>
<path d="M122.401 116H116.001V122.4H122.401V116Z" fill="black"/>
<path d="M7.20078 122.4H0.800781V128.8H7.20078V122.4Z" fill="black"/>
<path d="M45.6008 122.4H39.2008V128.8H45.6008V122.4Z" fill="black"/>
<path d="M64.8008 122.4H58.4008V128.8H64.8008L64.8008 122.4Z" fill="black"/>
<path d="M96.8008 122.4H90.4008V128.8H96.8008V122.4Z" fill="black"/>
<path d="M116.001 122.4H109.601V128.8H116.001V122.4Z" fill="black"/>
<path d="M135.201 122.4H128.801V128.8H135.201V122.4Z" fill="black"/>
<path d="M7.20078 128.8H0.800781V135.2H7.20078V128.8Z" fill="black"/>
<path d="M13.6008 128.8H7.20078V135.2H13.6008V128.8Z" fill="black"/>
<path d="M20.0008 128.8H13.6008V135.2H20.0008V128.8Z" fill="black"/>
<path d="M26.4008 128.8H20.0008V135.2H26.4008V128.8Z" fill="black"/>
<path d="M32.8008 128.8H26.4008V135.2H32.8008V128.8Z" fill="black"/>
<path d="M39.2008 128.8H32.8008V135.2H39.2008V128.8Z" fill="black"/>
<path d="M45.6008 128.8H39.2008V135.2H45.6008V128.8Z" fill="black"/>
<path d="M64.8008 128.8H58.4008V135.2H64.8008V128.8Z" fill="black"/>
<path d="M71.2008 128.8H64.8008V135.2H71.2008V128.8Z" fill="black"/>
<path d="M90.4008 128.8H84.0008V135.2H90.4008V128.8Z" fill="black"/>
<path d="M109.601 128.8H103.201V135.2H109.601V128.8Z" fill="black"/>
<path d="M116.001 128.8H109.601V135.2H116.001V128.8Z" fill="black"/>
<path d="M122.401 128.8H116.001V135.2H122.401V128.8Z" fill="black"/>
</svg>
