<svg width="32" height="32" viewBox="0 0 32 32" fill="none" xmlns="http://www.w3.org/2000/svg">
<path fill-rule="evenodd" clip-rule="evenodd" d="M16.0012 2.41663C9.97214 2.41663 5.08464 7.30413 5.08464 13.3332V14.1687C3.51053 14.8944 2.41797 16.4863 2.41797 18.3333C2.41797 20.8646 4.47 22.9166 7.0013 22.9166H8.16797H8.91797V22.1666V14.5V13.75H8.16797H7.0013C6.86085 13.75 6.72187 13.7563 6.58464 13.7686V13.3332C6.58464 8.13256 10.8006 3.91663 16.0012 3.91663C21.2019 3.91663 25.4179 8.13137 25.418 13.3318L25.418 13.7686C25.2807 13.7563 25.1418 13.75 25.0013 13.75H23.8346H23.0846V14.5V22.1666V22.9166H23.8346H25.0013C25.137 22.9166 25.2712 22.9107 25.4039 22.8992C25.1992 25.7964 22.784 28.0833 19.8346 28.0833H16.5013H15.7513V29.5833H16.5013H19.8346C23.7467 29.5833 26.918 26.412 26.918 22.5V22.4978C28.4921 21.7722 29.5846 20.1803 29.5846 18.3333C29.5846 16.4863 28.4921 14.8944 26.918 14.1687L26.918 13.3318C26.9179 7.30265 22.0301 2.41663 16.0012 2.41663ZM7.41797 21.4166H7.0013C5.29842 21.4166 3.91797 20.0362 3.91797 18.3333C3.91797 16.6304 5.29842 15.25 7.0013 15.25H7.41797V21.4166ZM25.0013 21.4166H24.5846V15.25H25.0013C26.7042 15.25 28.0846 16.6304 28.0846 18.3333C28.0846 20.0362 26.7042 21.4166 25.0013 21.4166Z" fill="black"/>
</svg>
