<svg width="32" height="32" viewBox="0 0 32 32" fill="none" xmlns="http://www.w3.org/2000/svg">
<path fill-rule="evenodd" clip-rule="evenodd" d="M2.72656 5.30713H1.97656V6.05713V17.0132V23.0557V23.8057H2.72656H4.71704C4.99715 25.2713 6.28566 26.3789 7.83289 26.3789C9.38011 26.3789 10.6686 25.2713 10.9487 23.8057H19.0414H19.7914V23.8056H21.0955C21.3756 25.2712 22.6641 26.3789 24.2114 26.3789C25.7586 26.3789 27.0472 25.2712 27.3272 23.8056H29.3186H30.0686V23.0556V17.5923V17.1057L29.6242 16.9074L27.5241 15.9704L24.4539 9.44294L24.2513 9.01215H23.7753H19.7914V6.05713V5.30713H19.0414H2.72656ZM24.2114 20.0343C22.7723 20.0343 21.5571 20.9925 21.1688 22.3056H19.7968L19.7963 17.1589H26.5066L28.5686 18.079V22.3056H27.254C26.8657 20.9925 25.6504 20.0343 24.2114 20.0343ZM10.8755 22.3057H18.2914V17.7632L3.47656 17.7632V22.3057H4.7903C5.17854 20.9925 6.39381 20.0343 7.83289 20.0343C9.27196 20.0343 10.4872 20.9925 10.8755 22.3057ZM18.2914 16.2632V6.80713H3.47656V16.2632L18.2914 16.2632ZM25.7199 15.6588L23.2992 10.5122H19.7963V15.6588H25.7199ZM9.50522 23.2066C9.50522 24.1302 8.75649 24.8789 7.83289 24.8789C6.90928 24.8789 6.16055 24.1302 6.16055 23.2066C6.16055 22.283 6.90928 21.5343 7.83289 21.5343C8.75649 21.5343 9.50522 22.283 9.50522 23.2066ZM24.2114 24.8789C25.135 24.8789 25.8837 24.1302 25.8837 23.2066C25.8837 22.283 25.135 21.5343 24.2114 21.5343C23.2878 21.5343 22.5391 22.283 22.5391 23.2066C22.5391 24.1302 23.2878 24.8789 24.2114 24.8789ZM4.22672 13.5H5.01872V11.718H6.66272V11.076H5.01872V10.11H6.78872V9.468H4.22672V13.5ZM8.27067 11.274V10.11H9.03267C9.24067 10.11 9.40067 10.158 9.51267 10.254C9.62867 10.35 9.68667 10.496 9.68667 10.692C9.68667 10.888 9.62867 11.034 9.51267 11.13C9.40067 11.226 9.24067 11.274 9.03267 11.274H8.27067ZM7.47867 9.468V13.5H8.27067V11.916H9.00267L9.82467 13.5H10.6647L9.77667 11.79C10.0047 11.698 10.1827 11.556 10.3107 11.364C10.4427 11.168 10.5087 10.944 10.5087 10.692C10.5087 10.28 10.3847 9.974 10.1367 9.774C9.88867 9.57 9.52267 9.468 9.03867 9.468H7.47867ZM14.0696 13.5V12.858H12.1496V11.712H13.9436V11.082H12.1496V10.11H14.0096V9.468H11.3576V13.5H14.0696ZM17.5618 13.5V12.858H15.6418V11.712H17.4358V11.082H15.6418V10.11H17.5018V9.468H14.8498V13.5H17.5618Z" fill="black"/>
</svg>
