<svg width="32" height="32" viewBox="0 0 32 32" fill="none" xmlns="http://www.w3.org/2000/svg">
<path fill-rule="evenodd" clip-rule="evenodd" d="M3.67383 7.3246C3.98782 7.17292 4.36492 7.25765 4.58384 7.52906L11.0746 15.5762L15.3395 7.64473C15.4703 7.40159 15.724 7.24993 16.0001 7.24993C16.2761 7.24993 16.5299 7.40159 16.6606 7.64473L20.9256 15.5763L27.4163 7.52906C27.6352 7.25765 28.0123 7.17292 28.3263 7.3246C28.6403 7.47628 28.8083 7.82436 28.7318 8.16456L25.1318 24.1646L25.0001 24.7499H24.4001H7.60007H7.00007L6.86837 24.1646L3.26836 8.16456C3.19182 7.82436 3.35984 7.47628 3.67383 7.3246ZM5.43901 10.9785L8.20007 23.2499H23.8001L26.5611 10.9785L21.3838 17.3973C21.2261 17.5929 20.9809 17.6965 20.7307 17.6733C20.4805 17.65 20.2585 17.503 20.1395 17.2817L16.0001 9.58356L11.8606 17.2817C11.7416 17.503 11.5197 17.65 11.2695 17.6733C11.0193 17.6965 10.7741 17.5929 10.6163 17.3973L5.43901 10.9785Z" fill="black"/>
</svg>
