<svg width="32" height="32" viewBox="0 0 32 32" fill="none" xmlns="http://www.w3.org/2000/svg">
<path fill-rule="evenodd" clip-rule="evenodd" d="M27.7983 7.38898L27.8051 7.38899L27.8025 8.88899C27.8006 10.0127 27.7984 11.4634 27.7984 12.1114C27.7984 22.3235 20.6842 26.5204 17.3143 28.5085C16.755 28.8385 16.2988 29.1076 15.9954 29.3333C15.6922 29.1078 15.2366 28.8389 14.678 28.5092C11.31 26.5214 4.19922 22.3246 4.19922 12.1114V8.88899V7.38899C6.29677 7.38899 9.59485 3.67856 9.59485 2.66663H11.0949H20.9095H22.4095C22.4095 3.73813 25.687 7.38116 27.7983 7.38898ZM25.3059 8.09191C25.6086 8.27154 25.9446 8.44485 26.303 8.58372L26.3017 9.32272C26.3001 10.3613 26.2984 11.5432 26.2984 12.1114C26.2984 21.3646 20.1056 25.0745 16.6606 27.1383C16.4251 27.2793 16.2024 27.4127 15.9955 27.5396C15.7892 27.4131 15.5674 27.2802 15.3328 27.1396L15.3326 27.1394C11.8897 25.0761 5.69922 21.3662 5.69922 12.1114V8.57974C6.06027 8.43787 6.39796 8.26083 6.70076 8.07857C7.42847 7.64053 8.1273 7.06665 8.728 6.48398C9.33 5.90004 9.87264 5.26919 10.2769 4.68968C10.3963 4.51856 10.51 4.34295 10.612 4.16663H21.3789C21.4829 4.35041 21.5994 4.53289 21.7219 4.71017C22.1274 5.29656 22.6714 5.92814 23.2743 6.5097C23.8763 7.09029 24.5763 7.65888 25.3059 8.09191ZM21.543 12.4115L22.0327 11.8434L20.8965 10.8641L20.4068 11.4322L15.2013 17.4715L11.9857 15.0337L11.388 14.5806L10.4818 15.7759L11.0794 16.229L14.8564 19.0924L15.4177 19.518L15.8776 18.9844L21.543 12.4115Z" fill="black"/>
</svg>
