<svg width="80" height="80" viewBox="0 0 80 80" fill="none" xmlns="http://www.w3.org/2000/svg">
<rect width="80" height="80" fill="#F3F3F3"/>
<path d="M45.7141 22.56V36.256H48.7221V39.552H45.7141V44H41.5541V39.552H30.8341V37.12L41.2341 22.56H45.7141ZM41.5541 36.256V27.68H41.4901L35.6021 36.256H41.5541Z" fill="black"/>
<path d="M32.4995 52.582H32.5235L33.5135 50.968H34.4135L32.9015 53.302V55H32.1095V53.296L30.6035 50.968H31.5035L32.4995 52.582ZM37.5136 54.358V55H34.8016V50.968H37.4536V51.61H35.5936V52.582H37.3876V53.212H35.5936V54.358H37.5136ZM40.7298 53.932H39.1818L38.7678 55H37.9398L39.6077 50.968H40.3038L41.9718 55H41.1438L40.7298 53.932ZM40.2018 52.546L39.9618 51.886H39.9498L39.7098 52.546L39.4277 53.302H40.4838L40.2018 52.546ZM43.3104 51.61V52.774H44.0724C44.2804 52.774 44.4404 52.726 44.5524 52.63C44.6684 52.534 44.7264 52.388 44.7264 52.192C44.7264 51.996 44.6684 51.85 44.5524 51.754C44.4404 51.658 44.2804 51.61 44.0724 51.61H43.3104ZM42.5184 55V50.968H44.0784C44.5624 50.968 44.9284 51.07 45.1764 51.274C45.4244 51.474 45.5484 51.78 45.5484 52.192C45.5484 52.444 45.4824 52.668 45.3504 52.864C45.2224 53.056 45.0444 53.198 44.8164 53.29L45.7044 55H44.8644L44.0424 53.416H43.3104V55H42.5184ZM48.4373 53.95C48.4373 53.878 48.4273 53.816 48.4073 53.764C48.3913 53.708 48.3553 53.656 48.2993 53.608C48.2433 53.56 48.1633 53.514 48.0593 53.47C47.9593 53.426 47.8253 53.378 47.6573 53.326C47.4093 53.25 47.1973 53.17 47.0213 53.086C46.8493 52.998 46.7073 52.902 46.5953 52.798C46.4873 52.694 46.4073 52.58 46.3553 52.456C46.3073 52.332 46.2833 52.194 46.2833 52.042C46.2833 51.698 46.4113 51.424 46.6673 51.22C46.9273 51.012 47.3233 50.908 47.8553 50.908C48.0833 50.908 48.2993 50.94 48.5033 51.004C48.7073 51.064 48.8993 51.146 49.0793 51.25L48.8093 51.844C48.6573 51.752 48.5033 51.678 48.3473 51.622C48.1913 51.566 48.0273 51.538 47.8553 51.538C47.5793 51.538 47.3793 51.58 47.2553 51.664C47.1353 51.744 47.0753 51.856 47.0753 52C47.0753 52.068 47.0873 52.13 47.1113 52.186C47.1353 52.242 47.1773 52.296 47.2373 52.348C47.3013 52.4 47.3893 52.452 47.5013 52.504C47.6133 52.552 47.7593 52.604 47.9393 52.66C48.1553 52.728 48.3433 52.798 48.5033 52.87C48.6673 52.942 48.8033 53.026 48.9113 53.122C49.0193 53.218 49.0993 53.33 49.1513 53.458C49.2033 53.582 49.2293 53.734 49.2293 53.914C49.2293 54.278 49.0973 54.56 48.8333 54.76C48.5733 54.96 48.1713 55.06 47.6273 55.06C47.3513 55.06 47.0953 55.03 46.8593 54.97C46.6233 54.906 46.4033 54.818 46.1993 54.706L46.4573 54.118C46.6613 54.218 46.8553 54.296 47.0393 54.352C47.2273 54.404 47.4173 54.43 47.6093 54.43C47.8853 54.43 48.0913 54.388 48.2273 54.304C48.3673 54.22 48.4373 54.102 48.4373 53.95Z" fill="black"/>
<path d="M23 58L57 58" stroke="black" stroke-width="0.8"/>
<path d="M25.837 60.968H26.599L27.283 63.38L27.415 63.944H27.433L27.547 63.38L28.171 60.968H28.969L27.805 65H27.031L26.359 62.594L26.233 62.024H26.209L26.071 62.588L25.399 65H24.625L23.461 60.968H24.259L24.883 63.38L25.003 63.938H25.021L25.147 63.374L25.837 60.968ZM31.5833 63.932H30.0353L29.6213 65H28.7933L30.4613 60.968H31.1573L32.8253 65H31.9973L31.5833 63.932ZM31.0553 62.546L30.8153 61.886H30.8033L30.5633 62.546L30.2813 63.302H31.3373L31.0553 62.546ZM34.1639 61.61V62.774H34.9259C35.1339 62.774 35.2939 62.726 35.4059 62.63C35.5219 62.534 35.5799 62.388 35.5799 62.192C35.5799 61.996 35.5219 61.85 35.4059 61.754C35.2939 61.658 35.1339 61.61 34.9259 61.61H34.1639ZM33.3719 65V60.968H34.9319C35.4159 60.968 35.7819 61.07 36.0299 61.274C36.2779 61.474 36.4019 61.78 36.4019 62.192C36.4019 62.444 36.3359 62.668 36.2039 62.864C36.0759 63.056 35.8979 63.198 35.6699 63.29L36.5579 65H35.7179L34.8959 63.416H34.1639V65H33.3719ZM38.0428 61.61V62.774H38.8048C39.0128 62.774 39.1728 62.726 39.2848 62.63C39.4008 62.534 39.4588 62.388 39.4588 62.192C39.4588 61.996 39.4008 61.85 39.2848 61.754C39.1728 61.658 39.0128 61.61 38.8048 61.61H38.0428ZM37.2508 65V60.968H38.8108C39.2948 60.968 39.6608 61.07 39.9088 61.274C40.1568 61.474 40.2808 61.78 40.2808 62.192C40.2808 62.444 40.2148 62.668 40.0828 62.864C39.9548 63.056 39.7768 63.198 39.5488 63.29L40.4368 65H39.5968L38.7748 63.416H38.0428V65H37.2508ZM43.4954 63.932H41.9474L41.5334 65H40.7054L42.3734 60.968H43.0694L44.7374 65H43.9094L43.4954 63.932ZM42.9674 62.546L42.7274 61.886H42.7154L42.4754 62.546L42.1934 63.302H43.2494L42.9674 62.546ZM48.65 60.968V65H47.792L46.436 62.762L46.076 62.132H46.064L46.076 62.726V65H45.284V60.968H46.142L47.498 63.194L47.864 63.824H47.876L47.858 63.236V60.968H48.65ZM52.3336 60.968V61.61H51.1816V65H50.3896V61.61H49.2316V60.968H52.3336ZM54.6245 62.582H54.6485L55.6385 60.968H56.5385L55.0265 63.302V65H54.2345V63.296L52.7285 60.968H53.6285L54.6245 62.582Z" fill="black"/>
<rect x="40" y="10" width="24" height="8" rx="4" fill="#EA1917"/>
<path d="M46.4241 15.544C46.8161 15.544 47.1901 15.446 47.5461 15.25L47.7141 15.748C47.5301 15.852 47.3241 15.93 47.0961 15.982C46.8721 16.034 46.6461 16.06 46.4181 16.06C45.7461 16.06 45.2581 15.882 44.9541 15.526C44.6501 15.17 44.4981 14.656 44.4981 13.984C44.4981 13.272 44.6501 12.748 44.9541 12.412C45.2581 12.076 45.7081 11.908 46.3041 11.908C46.6081 11.908 46.8781 11.958 47.1141 12.058C47.3541 12.158 47.5481 12.288 47.6961 12.448L47.3361 12.844C47.2081 12.708 47.0601 12.606 46.8921 12.538C46.7281 12.466 46.5321 12.43 46.3041 12.43C45.9081 12.43 45.6121 12.554 45.4161 12.802C45.2241 13.05 45.1281 13.444 45.1281 13.984C45.1281 14.512 45.2301 14.904 45.4341 15.16C45.6381 15.416 45.9681 15.544 46.4241 15.544ZM50.6058 16H50.1438L50.0538 15.76C49.9418 15.852 49.8098 15.926 49.6578 15.982C49.5098 16.034 49.3458 16.06 49.1658 16.06C48.8418 16.06 48.6018 15.982 48.4458 15.826C48.2898 15.666 48.2118 15.436 48.2118 15.136C48.2118 14.832 48.3098 14.606 48.5058 14.458C48.7018 14.31 49.0218 14.236 49.4658 14.236C49.5578 14.236 49.6458 14.238 49.7298 14.242C49.8138 14.246 49.8978 14.252 49.9818 14.26V14.158C49.9818 13.93 49.9358 13.77 49.8438 13.678C49.7558 13.586 49.5958 13.54 49.3638 13.54C49.2358 13.54 49.0978 13.56 48.9498 13.6C48.8058 13.636 48.6578 13.694 48.5058 13.774L48.3198 13.33C48.4918 13.238 48.6698 13.166 48.8538 13.114C49.0418 13.062 49.2378 13.036 49.4418 13.036C49.6578 13.036 49.8398 13.056 49.9878 13.096C50.1398 13.136 50.2598 13.204 50.3478 13.3C50.4398 13.392 50.5058 13.512 50.5458 13.66C50.5858 13.808 50.6058 13.99 50.6058 14.206V16ZM49.3158 15.562C49.4198 15.562 49.5338 15.538 49.6578 15.49C49.7818 15.442 49.8898 15.38 49.9818 15.304V14.746C49.9018 14.738 49.8178 14.732 49.7298 14.728C49.6418 14.72 49.5438 14.716 49.4358 14.716C49.2158 14.716 49.0598 14.748 48.9678 14.812C48.8798 14.872 48.8358 14.976 48.8358 15.124C48.8358 15.416 48.9958 15.562 49.3158 15.562ZM51.824 13.096L51.884 13.444C52.132 13.172 52.426 13.036 52.766 13.036C52.902 13.036 53.036 13.064 53.168 13.12V13.654C53.1 13.622 53.03 13.598 52.958 13.582C52.89 13.562 52.816 13.552 52.736 13.552C52.592 13.552 52.452 13.586 52.316 13.654C52.18 13.722 52.064 13.808 51.968 13.912V16H51.344V13.096H51.824ZM54.8015 16.06C54.3055 16.06 53.9475 15.938 53.7275 15.694C53.5115 15.45 53.4035 15.068 53.4035 14.548C53.4035 14.028 53.5075 13.646 53.7155 13.402C53.9275 13.158 54.2515 13.036 54.6875 13.036C55.1155 13.036 55.4355 13.158 55.6475 13.402C55.8595 13.642 55.9655 14.022 55.9655 14.542V14.752H54.0395C54.0595 15.032 54.1275 15.236 54.2435 15.364C54.3635 15.492 54.5515 15.556 54.8075 15.556C54.9755 15.556 55.1375 15.532 55.2935 15.484C55.4495 15.436 55.6035 15.366 55.7555 15.274L55.9355 15.748C55.7835 15.84 55.6095 15.916 55.4135 15.976C55.2215 16.032 55.0175 16.06 54.8015 16.06ZM55.3235 14.272C55.3035 14.032 55.2435 13.852 55.1435 13.732C55.0435 13.608 54.8915 13.546 54.6875 13.546C54.2875 13.546 54.0735 13.788 54.0455 14.272H55.3235ZM58.2857 14.374V15.364H57.7277V14.374H56.7197V13.846H57.7277V12.886H58.2857V13.846H59.2997V14.374H58.2857Z" fill="white"/>
</svg>
