<svg width="80" height="80" viewBox="0 0 80 80" fill="none" xmlns="http://www.w3.org/2000/svg">
<rect width="80" height="80" fill="#F3F3F3"/>
<path d="M38.8989 42.32C37.1709 42.32 35.6029 42.0107 34.1949 41.392C32.8082 40.752 31.7415 39.888 30.9949 38.8L33.4269 36.528C34.0455 37.2747 34.8029 37.8827 35.6989 38.352C36.5949 38.8 37.5762 39.024 38.6429 39.024C40.1789 39.024 41.3309 38.704 42.0989 38.064C42.8669 37.4027 43.2509 36.56 43.2509 35.536C43.2509 34.576 42.8562 33.8187 42.0669 33.264C41.2989 32.688 40.1575 32.4 38.6429 32.4H36.0189V29.2H38.6429C39.1549 29.2 39.6455 29.1573 40.1149 29.072C40.6055 28.9653 41.0322 28.8053 41.3949 28.592C41.7575 28.3573 42.0455 28.0587 42.2589 27.696C42.4935 27.312 42.6109 26.832 42.6109 26.256C42.6109 25.3813 42.2375 24.7093 41.4909 24.24C40.7655 23.7493 39.8055 23.504 38.6109 23.504C37.8002 23.504 37.0002 23.6853 36.2109 24.048C35.4429 24.4107 34.8029 24.944 34.2909 25.648L31.8589 23.472C32.5415 22.4907 33.4909 21.7013 34.7069 21.104C35.9229 20.4853 37.2989 20.176 38.8349 20.176C40.0295 20.176 41.1175 20.304 42.0989 20.56C43.0802 20.816 43.9229 21.1893 44.6269 21.68C45.3309 22.1707 45.8749 22.7787 46.2589 23.504C46.6429 24.208 46.8349 25.0293 46.8349 25.968C46.8349 26.5013 46.7495 27.0133 46.5789 27.504C46.4082 27.9733 46.1735 28.4107 45.8749 28.816C45.5975 29.2213 45.2669 29.5733 44.8829 29.872C44.4989 30.1707 44.1042 30.3947 43.6989 30.544C44.2109 30.6933 44.6909 30.9173 45.1389 31.216C45.5869 31.5147 45.9815 31.8773 46.3229 32.304C46.6855 32.7307 46.9629 33.2213 47.1549 33.776C47.3682 34.3307 47.4749 34.928 47.4749 35.568C47.4749 36.5707 47.2935 37.488 46.9309 38.32C46.5895 39.152 46.0562 39.8667 45.3309 40.464C44.6269 41.04 43.7309 41.4987 42.6429 41.84C41.5762 42.16 40.3282 42.32 38.8989 42.32Z" fill="black"/>
<path d="M32.4995 50.582H32.5235L33.5135 48.968H34.4135L32.9015 51.302V53H32.1095V51.296L30.6035 48.968H31.5035L32.4995 50.582ZM37.5136 52.358V53H34.8016V48.968H37.4536V49.61H35.5936V50.582H37.3876V51.212H35.5936V52.358H37.5136ZM40.7298 51.932H39.1818L38.7678 53H37.9398L39.6077 48.968H40.3038L41.9718 53H41.1438L40.7298 51.932ZM40.2018 50.546L39.9618 49.886H39.9498L39.7098 50.546L39.4277 51.302H40.4838L40.2018 50.546ZM43.3104 49.61V50.774H44.0724C44.2804 50.774 44.4404 50.726 44.5524 50.63C44.6684 50.534 44.7264 50.388 44.7264 50.192C44.7264 49.996 44.6684 49.85 44.5524 49.754C44.4404 49.658 44.2804 49.61 44.0724 49.61H43.3104ZM42.5184 53V48.968H44.0784C44.5624 48.968 44.9284 49.07 45.1764 49.274C45.4244 49.474 45.5484 49.78 45.5484 50.192C45.5484 50.444 45.4824 50.668 45.3504 50.864C45.2224 51.056 45.0444 51.198 44.8164 51.29L45.7044 53H44.8644L44.0424 51.416H43.3104V53H42.5184ZM48.4373 51.95C48.4373 51.878 48.4273 51.816 48.4073 51.764C48.3913 51.708 48.3553 51.656 48.2993 51.608C48.2433 51.56 48.1633 51.514 48.0593 51.47C47.9593 51.426 47.8253 51.378 47.6573 51.326C47.4093 51.25 47.1973 51.17 47.0213 51.086C46.8493 50.998 46.7073 50.902 46.5953 50.798C46.4873 50.694 46.4073 50.58 46.3553 50.456C46.3073 50.332 46.2833 50.194 46.2833 50.042C46.2833 49.698 46.4113 49.424 46.6673 49.22C46.9273 49.012 47.3233 48.908 47.8553 48.908C48.0833 48.908 48.2993 48.94 48.5033 49.004C48.7073 49.064 48.8993 49.146 49.0793 49.25L48.8093 49.844C48.6573 49.752 48.5033 49.678 48.3473 49.622C48.1913 49.566 48.0273 49.538 47.8553 49.538C47.5793 49.538 47.3793 49.58 47.2553 49.664C47.1353 49.744 47.0753 49.856 47.0753 50C47.0753 50.068 47.0873 50.13 47.1113 50.186C47.1353 50.242 47.1773 50.296 47.2373 50.348C47.3013 50.4 47.3893 50.452 47.5013 50.504C47.6133 50.552 47.7593 50.604 47.9393 50.66C48.1553 50.728 48.3433 50.798 48.5033 50.87C48.6673 50.942 48.8033 51.026 48.9113 51.122C49.0193 51.218 49.0993 51.33 49.1513 51.458C49.2033 51.582 49.2293 51.734 49.2293 51.914C49.2293 52.278 49.0973 52.56 48.8333 52.76C48.5733 52.96 48.1713 53.06 47.6273 53.06C47.3513 53.06 47.0953 53.03 46.8593 52.97C46.6233 52.906 46.4033 52.818 46.1993 52.706L46.4573 52.118C46.6613 52.218 46.8553 52.296 47.0393 52.352C47.2273 52.404 47.4173 52.43 47.6093 52.43C47.8853 52.43 48.0913 52.388 48.2273 52.304C48.3673 52.22 48.4373 52.102 48.4373 51.95Z" fill="black"/>
<path d="M23 56L57 56" stroke="black" stroke-width="0.8"/>
<path d="M25.837 58.968H26.599L27.283 61.38L27.415 61.944H27.433L27.547 61.38L28.171 58.968H28.969L27.805 63H27.031L26.359 60.594L26.233 60.024H26.209L26.071 60.588L25.399 63H24.625L23.461 58.968H24.259L24.883 61.38L25.003 61.938H25.021L25.147 61.374L25.837 58.968ZM31.5833 61.932H30.0353L29.6213 63H28.7933L30.4613 58.968H31.1573L32.8253 63H31.9973L31.5833 61.932ZM31.0553 60.546L30.8153 59.886H30.8033L30.5633 60.546L30.2813 61.302H31.3373L31.0553 60.546ZM34.1639 59.61V60.774H34.9259C35.1339 60.774 35.2939 60.726 35.4059 60.63C35.5219 60.534 35.5799 60.388 35.5799 60.192C35.5799 59.996 35.5219 59.85 35.4059 59.754C35.2939 59.658 35.1339 59.61 34.9259 59.61H34.1639ZM33.3719 63V58.968H34.9319C35.4159 58.968 35.7819 59.07 36.0299 59.274C36.2779 59.474 36.4019 59.78 36.4019 60.192C36.4019 60.444 36.3359 60.668 36.2039 60.864C36.0759 61.056 35.8979 61.198 35.6699 61.29L36.5579 63H35.7179L34.8959 61.416H34.1639V63H33.3719ZM38.0428 59.61V60.774H38.8048C39.0128 60.774 39.1728 60.726 39.2848 60.63C39.4008 60.534 39.4588 60.388 39.4588 60.192C39.4588 59.996 39.4008 59.85 39.2848 59.754C39.1728 59.658 39.0128 59.61 38.8048 59.61H38.0428ZM37.2508 63V58.968H38.8108C39.2948 58.968 39.6608 59.07 39.9088 59.274C40.1568 59.474 40.2808 59.78 40.2808 60.192C40.2808 60.444 40.2148 60.668 40.0828 60.864C39.9548 61.056 39.7768 61.198 39.5488 61.29L40.4368 63H39.5968L38.7748 61.416H38.0428V63H37.2508ZM43.4954 61.932H41.9474L41.5334 63H40.7054L42.3734 58.968H43.0694L44.7374 63H43.9094L43.4954 61.932ZM42.9674 60.546L42.7274 59.886H42.7154L42.4754 60.546L42.1934 61.302H43.2494L42.9674 60.546ZM48.65 58.968V63H47.792L46.436 60.762L46.076 60.132H46.064L46.076 60.726V63H45.284V58.968H46.142L47.498 61.194L47.864 61.824H47.876L47.858 61.236V58.968H48.65ZM52.3336 58.968V59.61H51.1816V63H50.3896V59.61H49.2316V58.968H52.3336ZM54.6245 60.582H54.6485L55.6385 58.968H56.5385L55.0265 61.302V63H54.2345V61.296L52.7285 58.968H53.6285L54.6245 60.582Z" fill="black"/>
</svg>
