<svg width="64" height="64" viewBox="0 0 64 64" fill="none" xmlns="http://www.w3.org/2000/svg">
<path fill-rule="evenodd" clip-rule="evenodd" d="M18.75 2C17.2312 2 16 3.23122 16 4.75V59.25C16 60.7688 17.2312 62 18.75 62H45.25C46.7688 62 48 60.7688 48 59.25V4.75C48 3.23122 46.7688 2 45.25 2H18.75ZM17.5 4.75C17.5 4.05964 18.0596 3.5 18.75 3.5H45.25C45.9404 3.5 46.5 4.05964 46.5 4.75V59.25C46.5 59.9404 45.9404 60.5 45.25 60.5H18.75C18.0596 60.5 17.5 59.9404 17.5 59.25V4.75ZM31.9987 8.38281C31.3576 8.38281 30.8379 8.90255 30.8379 9.54367C30.8379 9.95789 30.5021 10.2937 30.0879 10.2937C29.6737 10.2937 29.3379 9.95789 29.3379 9.54367C29.3379 8.07412 30.5292 6.88281 31.9987 6.88281C33.4683 6.88281 34.6596 8.07412 34.6596 9.54367C34.6596 10.7528 33.8531 11.7735 32.7487 12.0974V13.6651C33.809 13.6406 35.2557 13.6258 35.9287 13.6874C37.5136 13.7039 38.8045 14.3881 39.7438 15.1606C40.6845 15.9342 41.3192 16.833 41.6044 17.3726C41.8575 17.8516 42.4428 19.0851 42.9547 20.1761C43.213 20.7266 43.456 21.2481 43.6344 21.632C43.7236 21.8239 43.7967 21.9815 43.8475 22.0911L43.9062 22.2179L43.9216 22.2512L43.9255 22.2597L43.9265 22.2619L43.9268 22.2625L43.9268 22.2626L43.2461 22.5774L43.9269 22.2627C44.0128 22.4485 44.019 22.6615 43.944 22.852C43.869 23.0426 43.7193 23.1942 43.5298 23.2717L39.4355 24.9444V36.7494C39.4355 37.1636 39.0997 37.4994 38.6855 37.4994H32.0331L32.0198 37.4999L31.9997 37.5002H25.2813C24.8671 37.5002 24.5313 37.1644 24.5313 36.7502V24.9452L20.437 23.2724C20.2475 23.1949 20.0978 23.0433 20.0228 22.8528C19.9478 22.6622 19.954 22.4493 20.0399 22.2634L20.7207 22.5781L20.0399 22.2633L20.04 22.2632L20.0403 22.2626L20.0413 22.2605L20.0452 22.2519L20.0606 22.2187L20.1193 22.0919C20.1701 21.9822 20.2432 21.8247 20.3324 21.6327C20.5108 21.2488 20.7538 20.7273 21.0121 20.1769C21.524 19.0858 22.1093 17.8524 22.3624 17.3734C22.6476 16.8338 23.2823 15.935 24.223 15.1613C25.1623 14.3888 26.4532 13.7046 28.0381 13.6881C28.7176 13.6259 30.1859 13.6416 31.2487 13.6665V11.4545C31.2487 11.0403 31.5845 10.7045 31.9987 10.7045C32.6399 10.7045 33.1596 10.1848 33.1596 9.54367C33.1596 8.90255 32.6399 8.38281 31.9987 8.38281ZM31.9654 15.1871C31.9496 15.1871 31.9339 15.1866 31.9184 15.1856C31.2405 15.1637 30.1153 15.1389 29.2277 15.1455C29.3486 15.4738 29.5335 15.8162 29.795 16.1127C30.22 16.5944 30.8686 16.9834 31.88 16.9834C33.4269 16.9834 34.2776 16.034 34.6538 15.1443C33.7931 15.1398 32.7358 15.1629 32.0771 15.1839C32.0435 15.1874 32.0093 15.1886 31.9747 15.1874L31.9654 15.1871ZM36.2206 15.2022C35.8055 16.5892 34.5392 18.4834 31.88 18.4834C30.4208 18.4834 29.3681 17.8961 28.6702 17.105C28.147 16.5119 27.8361 15.8211 27.6782 15.2094C26.6961 15.3113 25.8539 15.7622 25.1758 16.3199C24.4015 16.9567 23.889 17.6952 23.6886 18.0742C23.4563 18.5139 22.8892 19.7076 22.37 20.814C22.1311 21.3232 21.9052 21.8078 21.7317 22.181L24.8233 23.4441L25.5699 21.2058C25.7009 20.8129 26.1257 20.6006 26.5186 20.7317C26.9116 20.8627 27.1239 21.2875 26.9928 21.6804L26.0313 24.5632V36.0002H31.9337L31.9496 35.9996L31.9671 35.9994H37.9355V24.5624L36.974 21.6797C36.8429 21.2868 37.0552 20.862 37.4482 20.7309C37.8411 20.5999 38.2659 20.8122 38.3969 21.2051L39.1435 23.4434L42.2351 22.1802C42.0616 21.8071 41.8357 21.3225 41.5968 20.8133C41.0776 19.7069 40.5105 18.5131 40.2782 18.0735C40.0778 17.6944 39.5653 16.9559 38.791 16.3191C38.0973 15.7486 37.2319 15.2899 36.2206 15.2022Z" fill="black"/>
</svg>
