<svg width="65" height="64" viewBox="0 0 65 64" fill="none" xmlns="http://www.w3.org/2000/svg">
<path fill-rule="evenodd" clip-rule="evenodd" d="M9.85547 4.75C9.85547 3.23122 11.0867 2 12.6055 2H53.1055C54.6243 2 55.8555 3.23122 55.8555 4.75V14.9804L55.8557 15L55.8555 15.0196V59.25C55.8555 60.7688 54.6243 62 53.1055 62H12.6055C11.0867 62 9.85547 60.7688 9.85547 59.25V15V4.75ZM54.3555 4.75V14.25H11.3555V4.75C11.3555 4.05964 11.9151 3.5 12.6055 3.5H53.1055C53.7958 3.5 54.3555 4.05964 54.3555 4.75ZM11.3555 59.25V15.75H54.3555V59.25C54.3555 59.9404 53.7958 60.5 53.1055 60.5H12.6055C11.9151 60.5 11.3555 59.9404 11.3555 59.25ZM31.1055 8.89404C31.1055 7.92804 31.8895 7.14404 32.8555 7.14404C33.8215 7.14404 34.6055 7.92804 34.6055 8.89404C34.6055 9.86004 33.8215 10.644 32.8555 10.644C31.8895 10.644 31.1055 9.86004 31.1055 8.89404ZM32.8555 22.75C23.8808 22.75 16.6055 30.0254 16.6055 39C16.6055 47.9746 23.8808 55.25 32.8555 55.25C41.8301 55.25 49.1055 47.9746 49.1055 39C49.1055 30.0254 41.8301 22.75 32.8555 22.75ZM15.1055 39C15.1055 29.1969 23.0524 21.25 32.8555 21.25C42.6585 21.25 50.6055 29.1969 50.6055 39C50.6055 48.8031 42.6585 56.75 32.8555 56.75C23.0524 56.75 15.1055 48.8031 15.1055 39ZM28.8426 36.0875C29.1665 35.8294 29.2198 35.3575 28.9617 35.0336C28.7035 34.7097 28.2317 34.6563 27.9077 34.9145C27.5015 35.2382 27.1735 35.6493 26.948 36.1173C26.7226 36.5852 26.6055 37.098 26.6055 37.6175C26.6055 38.1369 26.7226 38.6497 26.948 39.1176C27.1667 39.5715 27.4819 39.972 27.8714 40.2911C28.3297 40.7586 28.519 41.1962 28.5806 41.5747C28.6448 41.9694 28.5793 42.3583 28.4437 42.721C28.3073 43.0857 28.1081 43.4016 27.937 43.6306C27.8526 43.7435 27.7781 43.8313 27.7265 43.8889C27.7008 43.9177 27.6811 43.9386 27.669 43.9512L27.6579 43.9627L28.1824 44.4987C27.6579 43.9627 27.6576 43.9629 27.6574 43.9632L27.657 43.9636L27.6567 43.9639C27.3618 44.2536 27.357 44.7276 27.6463 45.0233C27.936 45.3194 28.4109 45.3245 28.7069 45.0349L28.1873 44.5038C28.7069 45.0348 28.7072 45.0346 28.7074 45.0343L28.708 45.0338L28.7093 45.0325L28.7127 45.0292L28.722 45.0198C28.7294 45.0123 28.7391 45.0024 28.7509 44.9902C28.7744 44.9657 28.8063 44.9317 28.8446 44.8889C28.921 44.8034 29.0242 44.6816 29.1386 44.5285C29.365 44.2254 29.6477 43.7839 29.8487 43.2464C30.0503 42.7071 30.1776 42.0493 30.0611 41.3337C29.9432 40.6092 29.5844 39.8824 28.9055 39.2036L28.8756 39.1737L28.8426 39.1474C28.6126 38.9641 28.427 38.7314 28.2994 38.4666C28.1717 38.2017 28.1055 37.9115 28.1055 37.6175C28.1055 37.3234 28.1717 37.0332 28.2994 36.7683C28.427 36.5035 28.6126 36.2708 28.8426 36.0875ZM33.3426 36.0875C33.6665 35.8294 33.7198 35.3575 33.4617 35.0336C33.2035 34.7097 32.7317 34.6563 32.4077 34.9145C32.0015 35.2382 31.6735 35.6493 31.448 36.1173C31.2226 36.5852 31.1055 37.098 31.1055 37.6175C31.1055 38.1369 31.2226 38.6497 31.448 39.1176C31.6667 39.5715 31.9819 39.972 32.3714 40.2911C32.8297 40.7586 33.019 41.1962 33.0806 41.5747C33.1448 41.9694 33.0793 42.3583 32.9437 42.721C32.8073 43.0857 32.6081 43.4016 32.437 43.6306C32.3526 43.7435 32.2781 43.8313 32.2265 43.8889C32.2008 43.9177 32.1811 43.9386 32.169 43.9512L32.1579 43.9627L32.6824 44.4987C32.1579 43.9627 32.1576 43.9629 32.1574 43.9632L32.157 43.9636L32.1567 43.9639C31.8618 44.2536 31.857 44.7276 32.1463 45.0233C32.436 45.3194 32.9109 45.3245 33.2069 45.0349L32.6873 44.5038C33.2069 45.0348 33.2072 45.0346 33.2074 45.0343L33.208 45.0338L33.2093 45.0325L33.2127 45.0292L33.222 45.0198C33.2294 45.0123 33.2391 45.0024 33.2509 44.9902C33.2744 44.9657 33.3063 44.9317 33.3446 44.8889C33.421 44.8034 33.5242 44.6816 33.6386 44.5285C33.865 44.2254 34.1477 43.7839 34.3487 43.2464C34.5503 42.7071 34.6776 42.0493 34.5611 41.3337C34.4432 40.6092 34.0844 39.8824 33.4055 39.2036L33.3756 39.1737L33.3426 39.1474C33.1126 38.9641 32.927 38.7314 32.7994 38.4666C32.6717 38.2017 32.6055 37.9115 32.6055 37.6175C32.6055 37.3234 32.6717 37.0332 32.7994 36.7683C32.927 36.5035 33.1126 36.2708 33.3426 36.0875ZM37.9617 35.0336C38.2198 35.3575 38.1665 35.8294 37.8426 36.0875C37.6126 36.2708 37.427 36.5035 37.2994 36.7683C37.1717 37.0332 37.1055 37.3234 37.1055 37.6175C37.1055 37.9115 37.1717 38.2017 37.2994 38.4666C37.427 38.7314 37.6126 38.9641 37.8426 39.1474L37.8756 39.1737L37.9055 39.2036C38.5844 39.8824 38.9432 40.6092 39.0611 41.3337C39.1776 42.0493 39.0503 42.7071 38.8487 43.2464C38.6477 43.7839 38.365 44.2254 38.1386 44.5285C38.0242 44.6816 37.921 44.8034 37.8446 44.8889C37.8063 44.9317 37.7744 44.9657 37.7509 44.9902C37.7391 45.0024 37.7294 45.0123 37.722 45.0198L37.7127 45.0292L37.7093 45.0325L37.708 45.0338L37.7074 45.0343C37.7072 45.0346 37.7069 45.0348 37.1873 44.5038L37.7069 45.0349C37.4109 45.3245 36.936 45.3194 36.6463 45.0233C36.357 44.7276 36.3618 44.2536 36.6567 43.9639L36.657 43.9636L36.6574 43.9632C36.6576 43.9629 36.6579 43.9627 37.1824 44.4987L36.6579 43.9627L36.669 43.9512C36.6811 43.9386 36.7008 43.9177 36.7265 43.8889C36.7781 43.8313 36.8526 43.7435 36.937 43.6306C37.1081 43.4016 37.3073 43.0857 37.4437 42.721C37.5793 42.3583 37.6448 41.9694 37.5806 41.5747C37.519 41.1962 37.3297 40.7586 36.8714 40.2911C36.4819 39.972 36.1667 39.5715 35.948 39.1176C35.7226 38.6497 35.6055 38.1369 35.6055 37.6175C35.6055 37.098 35.7226 36.5852 35.948 36.1173C36.1735 35.6493 36.5015 35.2382 36.9077 34.9145C37.2317 34.6563 37.7035 34.7097 37.9617 35.0336Z" fill="black"/>
</svg>
