<svg width="65" height="64" viewBox="0 0 65 64" fill="none" xmlns="http://www.w3.org/2000/svg">
<g clip-path="url(#clip0_911_166225)">
<path d="M59.6777 27H5.17773C4.07316 27 3.17773 27.8954 3.17773 29V35C3.17773 36.1046 4.07316 37 5.17773 37H59.6777C60.7823 37 61.6777 36.1046 61.6777 35V29C61.6777 27.8954 60.7823 27 59.6777 27Z" stroke="black" stroke-width="1.5"/>
<path d="M8.17773 32H32.1777" stroke="black" stroke-width="1.5" stroke-linecap="round"/>
<path d="M44.8379 33.0102C45.3902 33.0102 45.8379 32.558 45.8379 32.0002C45.8379 31.4424 45.3902 30.9902 44.8379 30.9902C44.2856 30.9902 43.8379 31.4424 43.8379 32.0002C43.8379 32.558 44.2856 33.0102 44.8379 33.0102Z" fill="black"/>
<path d="M49.8379 33.0102C50.3902 33.0102 50.8379 32.558 50.8379 32.0002C50.8379 31.4424 50.3902 30.9902 49.8379 30.9902C49.2856 30.9902 48.8379 31.4424 48.8379 32.0002C48.8379 32.558 49.2856 33.0102 49.8379 33.0102Z" fill="black"/>
<path d="M54.1777 32H57.1777" stroke="black" stroke-width="1.5" stroke-linecap="round"/>
</g>
<defs>
<clipPath id="clip0_911_166225">
<rect width="60" height="11.5" fill="white" transform="translate(2.42773 26.25)"/>
</clipPath>
</defs>
</svg>
