<svg width="64" height="64" viewBox="0 0 64 64" fill="none" xmlns="http://www.w3.org/2000/svg">
<path d="M36.25 9H4.25C3.42157 9 2.75 9.67157 2.75 10.5V53.5C2.75 54.3284 3.42157 55 4.25 55H36.25C37.0784 55 37.75 54.3284 37.75 53.5V10.5C37.75 9.67157 37.0784 9 36.25 9Z" stroke="black" stroke-width="1.5"/>
<circle cx="20.75" cy="13" r="1" fill="black"/>
<path d="M41 18.5C41 17.6716 41.6716 17 42.5 17H59.5C60.3284 17 61 17.6716 61 18.5V53.5C61 54.3284 60.3284 55 59.5 55H42.5C41.6716 55 41 54.3284 41 53.5V18.5Z" stroke="black" stroke-width="1.5"/>
<circle cx="51" cy="20" r="1" fill="black"/>
<path d="M53.109 38.0884C52.5612 37.406 51.7195 36.9691 50.7756 36.9691C49.8318 36.9691 48.9901 37.406 48.4423 38.0884M55.668 36.223C54.5725 34.8582 52.8891 33.9844 51.0013 33.9844C49.1135 33.9844 47.4302 34.8582 46.3346 36.223" stroke="black" stroke-width="1.5" stroke-linecap="round" stroke-linejoin="round"/>
<circle cx="50.75" cy="40.25" r="1" fill="black"/>
</svg>
