<svg width="65" height="64" viewBox="0 0 65 64" fill="none" xmlns="http://www.w3.org/2000/svg">
<path fill-rule="evenodd" clip-rule="evenodd" d="M17.1797 2C15.6609 2 14.4297 3.23122 14.4297 4.75V59.25C14.4297 60.7688 15.6609 62 17.1797 62H47.6797C49.1985 62 50.4297 60.7688 50.4297 59.25V4.75C50.4297 3.23122 49.1985 2 47.6797 2H32.1779H17.1797ZM17.1797 3.5H31.4279V34H15.9297V4.75C15.9297 4.05964 16.4893 3.5 17.1797 3.5ZM15.9297 35.5V59.25C15.9297 59.9404 16.4893 60.5 17.1797 60.5H31.4279V35.5H15.9297ZM32.9279 35.5V60.5H47.6797C48.37 60.5 48.9297 59.9404 48.9297 59.25V35.5H32.9279ZM48.9297 34V4.75C48.9297 4.05964 48.37 3.5 47.6797 3.5H32.9279V34H48.9297ZM37.9297 7C36.9632 7 36.1797 7.7835 36.1797 8.75V28.75C36.1797 29.7165 36.9632 30.5 37.9297 30.5H43.9297C44.8962 30.5 45.6797 29.7165 45.6797 28.75V8.75C45.6797 7.7835 44.8962 7 43.9297 7H37.9297ZM37.6797 8.75C37.6797 8.61193 37.7916 8.5 37.9297 8.5H43.9297C44.0678 8.5 44.1797 8.61193 44.1797 8.75V28.75C44.1797 28.8881 44.0678 29 43.9297 29H37.9297C37.7916 29 37.6797 28.8881 37.6797 28.75V8.75Z" fill="black"/>
</svg>
