<svg width="65" height="64" viewBox="0 0 65 64" fill="none" xmlns="http://www.w3.org/2000/svg">
<path fill-rule="evenodd" clip-rule="evenodd" d="M12.4648 2C10.9461 2 9.71484 3.23122 9.71484 4.75V15V59.25C9.71484 60.7688 10.9461 62 12.4648 62H52.9648C54.4836 62 55.7148 60.7688 55.7148 59.25V15.0196L55.7151 15L55.7148 14.9804V4.75C55.7148 3.23122 54.4836 2 52.9648 2H12.4648ZM54.2148 14.25V4.75C54.2148 4.05964 53.6552 3.5 52.9648 3.5H12.4648C11.7745 3.5 11.2148 4.05964 11.2148 4.75V14.25H54.2148ZM11.2148 15.75V59.25C11.2148 59.9404 11.7745 60.5 12.4648 60.5H52.9648C53.6552 60.5 54.2148 59.9404 54.2148 59.25V15.75H11.2148ZM32.7148 7.14404C31.7488 7.14404 30.9648 7.92804 30.9648 8.89404C30.9648 9.86004 31.7488 10.644 32.7148 10.644C33.6808 10.644 34.4648 9.86004 34.4648 8.89404C34.4648 7.92804 33.6808 7.14404 32.7148 7.14404ZM16.4648 39C16.4648 30.0254 23.7402 22.75 32.7148 22.75C41.6895 22.75 48.9648 30.0254 48.9648 39C48.9648 47.9746 41.6895 55.25 32.7148 55.25C23.7402 55.25 16.4648 47.9746 16.4648 39ZM32.7148 21.25C22.9118 21.25 14.9648 29.1969 14.9648 39C14.9648 48.8031 22.9118 56.75 32.7148 56.75C42.5179 56.75 50.4648 48.8031 50.4648 39C50.4648 29.1969 42.5179 21.25 32.7148 21.25ZM32.1727 29.7315C31.5125 30.098 30.9841 30.6709 30.9841 31.6515C30.9841 32.4767 31.3038 32.8474 31.5969 33.0442C31.9394 33.2742 32.3453 33.3257 32.5014 33.3257C32.6162 33.3257 32.7538 33.3022 32.8642 33.2557C32.9751 33.209 33.0001 33.1657 33.0026 33.1609C33.1898 32.7915 33.6411 32.6438 34.0106 32.831C34.3801 33.0183 34.5278 33.4696 34.3405 33.8391C34.1282 34.2581 33.7675 34.5028 33.4467 34.638C33.1254 34.7733 32.7854 34.8257 32.5014 34.8257C32.1537 34.8257 31.426 34.7362 30.7607 34.2896C30.0461 33.8097 29.4841 32.9684 29.4841 31.6515C29.4841 29.9654 30.4672 28.9626 31.4446 28.42C32.3855 27.8977 33.3947 27.75 33.761 27.75H33.7624C34.0473 27.75 35.154 27.75 36.3504 28.3432C37.5799 28.9529 38.8374 30.1563 39.4398 32.429C39.5459 32.8294 39.3074 33.24 38.907 33.3462C38.5066 33.4523 38.096 33.2138 37.9899 32.8134C37.4999 30.9649 36.5324 30.1077 35.6841 29.6871C34.8045 29.2509 33.9821 29.25 33.761 29.25C33.6235 29.25 32.8692 29.3448 32.1727 29.7315ZM34.6562 30.3748C35.4287 30.6017 36.1553 31.1553 36.5163 31.9535C36.7619 32.4965 36.863 33.1437 36.7734 33.9194C36.6099 35.3356 35.6965 36.1829 34.8005 36.6499C33.9248 37.1064 32.9846 37.25 32.5014 37.25C32.0632 37.25 30.9221 37.1827 29.7667 36.592C28.5777 35.9842 27.4092 34.8364 26.9805 32.7738C26.8962 32.3683 27.1567 31.9712 27.5622 31.8869C27.9678 31.8026 28.3649 32.063 28.4492 32.4686C28.7763 34.0424 29.6231 34.834 30.4495 35.2564C31.3096 35.6961 32.1838 35.75 32.5014 35.75C32.774 35.75 33.4713 35.6512 34.1072 35.3198C34.7227 34.9989 35.1949 34.5129 35.2833 33.7473C35.3463 33.2018 35.268 32.8333 35.1496 32.5716C34.9916 32.2222 34.6432 31.9344 34.2334 31.814C33.8274 31.6947 33.4662 31.7656 33.2287 31.9734C32.9169 32.2461 32.4431 32.2144 32.1704 31.9026C31.8977 31.5909 31.9294 31.1171 32.2411 30.8443C32.9516 30.2228 33.88 30.1468 34.6562 30.3748ZM30.2019 41.0865C30.5259 40.8284 30.5792 40.3565 30.3211 40.0326C30.0629 39.7087 29.591 39.6553 29.2671 39.9135C28.8609 40.2372 28.5328 40.6483 28.3074 41.1163C28.0819 41.5842 27.9648 42.097 27.9648 42.6164C27.9648 43.1359 28.0819 43.6487 28.3074 44.1166C28.5261 44.5705 28.8413 44.971 29.2308 45.2901C29.6891 45.7576 29.8784 46.1952 29.94 46.5737C30.0042 46.9684 29.9387 47.3573 29.803 47.72C29.6667 48.0847 29.4675 48.4006 29.2964 48.6296C29.212 48.7425 29.1374 48.8303 29.0859 48.8879C29.0602 48.9167 29.0405 48.9376 29.0284 48.9502L29.0172 48.9617L29.5417 49.4977C29.0172 48.9617 29.017 48.9619 29.0168 48.9622L29.0167 48.9623L29.0163 48.9626L29.0161 48.9628C28.7212 49.2526 28.7164 49.7266 29.0057 50.0223C29.2954 50.3184 29.7702 50.3235 30.0663 50.0338L29.5467 49.5028C30.0663 50.0338 30.0665 50.0336 30.0668 50.0333L30.0674 50.0328L30.0687 50.0315L30.0721 50.0282L30.0814 50.0188C30.0888 50.0113 30.0985 50.0014 30.1103 49.9892C30.1338 49.9647 30.1656 49.9307 30.204 49.8879C30.2804 49.8024 30.3835 49.6806 30.4979 49.5275C30.7244 49.2244 31.0071 48.7829 31.208 48.2454C31.4097 47.7061 31.537 47.0483 31.4205 46.3327C31.3026 45.6082 30.9437 44.8814 30.2649 44.2026L30.235 44.1727L30.2019 44.1463C29.972 43.9631 29.7863 43.7304 29.6587 43.4655C29.5311 43.2007 29.4648 42.9105 29.4648 42.6164C29.4648 42.3224 29.5311 42.0322 29.6587 41.7673C29.7863 41.5025 29.972 41.2698 30.2019 41.0865ZM33.8211 40.0326C34.0792 40.3565 34.0259 40.8284 33.7019 41.0865C33.472 41.2698 33.2863 41.5025 33.1587 41.7673C33.0311 42.0322 32.9648 42.3224 32.9648 42.6164C32.9648 42.9105 33.0311 43.2007 33.1587 43.4655C33.2863 43.7304 33.472 43.9631 33.7019 44.1463L33.735 44.1727L33.7649 44.2026C34.4437 44.8814 34.8026 45.6082 34.9205 46.3327C35.037 47.0483 34.9097 47.7061 34.708 48.2454C34.5071 48.7829 34.2244 49.2244 33.9979 49.5275C33.8835 49.6806 33.7804 49.8024 33.704 49.8879C33.6656 49.9307 33.6338 49.9647 33.6103 49.9892C33.6029 49.9969 33.5963 50.0036 33.5906 50.0094C33.5873 50.0129 33.5842 50.016 33.5814 50.0188L33.5721 50.0282L33.5687 50.0315L33.5674 50.0328L33.5668 50.0333C33.5665 50.0336 33.5663 50.0338 33.0467 49.5028L33.5663 50.0338C33.2702 50.3235 32.7954 50.3184 32.5057 50.0223C32.2164 49.7266 32.2212 49.2526 32.5161 48.9628L32.5163 48.9626L32.5167 48.9623L32.5168 48.9622C32.517 48.9619 32.5172 48.9617 33.0417 49.4977L32.5172 48.9617L32.5284 48.9502C32.5405 48.9376 32.5602 48.9167 32.5859 48.8879C32.6374 48.8303 32.712 48.7425 32.7964 48.6296C32.9675 48.4006 33.1667 48.0847 33.303 47.72C33.4387 47.3573 33.5042 46.9684 33.44 46.5737C33.3784 46.1952 33.1891 45.7576 32.7308 45.2901C32.3413 44.971 32.0261 44.5705 31.8074 44.1166C31.5819 43.6487 31.4648 43.1359 31.4648 42.6164C31.4648 42.097 31.5819 41.5842 31.8074 41.1163C32.0328 40.6483 32.3609 40.2372 32.7671 39.9135C33.091 39.6553 33.5629 39.7087 33.8211 40.0326ZM37.2019 41.0865C37.5259 40.8284 37.5792 40.3565 37.3211 40.0326C37.0629 39.7087 36.591 39.6553 36.2671 39.9135C35.8609 40.2372 35.5328 40.6483 35.3074 41.1163C35.0819 41.5842 34.9648 42.097 34.9648 42.6164C34.9648 43.1359 35.0819 43.6487 35.3074 44.1166C35.5261 44.5705 35.8413 44.971 36.2308 45.2901C36.6891 45.7576 36.8784 46.1952 36.94 46.5737C37.0042 46.9684 36.9387 47.3573 36.803 47.72C36.6667 48.0847 36.4675 48.4006 36.2964 48.6296C36.212 48.7425 36.1374 48.8303 36.0859 48.8879C36.0602 48.9167 36.0405 48.9376 36.0284 48.9502L36.0172 48.9617L36.5417 49.4977C36.0172 48.9617 36.017 48.9619 36.0168 48.9622L36.0167 48.9623L36.0163 48.9626L36.0161 48.9628C35.7212 49.2526 35.7164 49.7266 36.0057 50.0223C36.2954 50.3184 36.7702 50.3235 37.0663 50.0338L36.5467 49.5028C37.0663 50.0338 37.0665 50.0336 37.0668 50.0333L37.0674 50.0328L37.0687 50.0315L37.0721 50.0282L37.0814 50.0188C37.0888 50.0113 37.0985 50.0014 37.1103 49.9892C37.1338 49.9647 37.1656 49.9307 37.204 49.8879C37.2804 49.8024 37.3835 49.6806 37.4979 49.5275C37.7244 49.2244 38.0071 48.7829 38.208 48.2454C38.4097 47.7061 38.537 47.0483 38.4205 46.3327C38.3026 45.6082 37.9437 44.8814 37.2649 44.2026L37.235 44.1727L37.2019 44.1463C36.972 43.9631 36.7863 43.7304 36.6587 43.4655C36.5311 43.2007 36.4648 42.9105 36.4648 42.6164C36.4648 42.3224 36.5311 42.0322 36.6587 41.7673C36.7863 41.5025 36.972 41.2698 37.2019 41.0865Z" fill="black"/>
</svg>
