<svg width="65" height="64" viewBox="0 0 65 64" fill="none" xmlns="http://www.w3.org/2000/svg">
<g clip-path="url(#clip0_911_166311)">
<path d="M53.2574 13.3301H12.4574C11.4357 13.3301 10.6074 14.1584 10.6074 15.1801V40.7401C10.6074 41.7618 11.4357 42.5901 12.4574 42.5901H53.2574C54.2792 42.5901 55.1074 41.7618 55.1074 40.7401V15.1801C55.1074 14.1584 54.2792 13.3301 53.2574 13.3301Z" stroke="black" stroke-width="1.5" stroke-linecap="round"/>
<path d="M61.0368 48.05L55.9868 43.96C55.1668 43.39 54.6668 43.05 54.6668 43.05C53.6968 42.57 52.8768 42.59 51.7968 42.59H13.9368C12.8568 42.59 11.5068 42.68 9.8168 43.94L4.7168 48.05" stroke="black" stroke-width="1.5" stroke-linecap="round"/>
<path d="M41.2874 47.6602H59.9774C60.7374 47.6602 61.3574 48.1602 61.3574 48.7902C61.3574 49.8302 60.3274 50.6602 59.0574 50.6602H6.65742C5.38742 50.6602 4.35742 49.8202 4.35742 48.7902C4.35742 48.1702 4.97742 47.6602 5.73742 47.6602H24.4274L24.7274 48.1202H40.9874L41.2874 47.6602Z" stroke="black" stroke-width="1.5" stroke-linecap="round" stroke-linejoin="round"/>
</g>
<defs>
<clipPath id="clip0_911_166311">
<rect width="58.5" height="38.83" fill="white" transform="translate(3.60742 12.5801)"/>
</clipPath>
</defs>
</svg>
