<svg width="65" height="64" viewBox="0 0 65 64" fill="none" xmlns="http://www.w3.org/2000/svg">
<path fill-rule="evenodd" clip-rule="evenodd" d="M16.5376 16.8506C16.0244 16.8506 15.5633 17.1644 15.3749 17.6418L10.1373 30.9166H54.4331L49.1956 17.6418C49.0072 17.1644 48.5461 16.8506 48.0328 16.8506H16.5376ZM54.7853 32.4166H9.78516V45.8988C9.78516 46.5891 10.3448 47.1488 11.0352 47.1488H53.5353C54.2257 47.1488 54.7853 46.5891 54.7853 45.8988V32.4166ZM13.9796 17.0913C14.394 16.0409 15.4084 15.3506 16.5376 15.3506H48.0328C49.1621 15.3506 50.1765 16.0409 50.5909 17.0913L56.233 31.3914L56.2853 31.524V31.6666V45.8988C56.2853 47.4175 55.0541 48.6488 53.5353 48.6488H11.0352C9.51637 48.6488 8.28516 47.4175 8.28516 45.8988V31.6666V31.524L8.33749 31.3914L13.9796 17.0913ZM45.0898 34.5225C42.1903 34.5225 39.8398 36.873 39.8398 39.7725C39.8398 42.672 42.1903 45.0225 45.0898 45.0225C47.9893 45.0225 50.3398 42.672 50.3398 39.7725C50.3398 36.873 47.9893 34.5225 45.0898 34.5225ZM38.3398 39.7725C38.3398 36.0445 41.3619 33.0225 45.0898 33.0225C48.8178 33.0225 51.8398 36.0445 51.8398 39.7725C51.8398 43.5004 48.8178 46.5225 45.0898 46.5225C41.3619 46.5225 38.3398 43.5004 38.3398 39.7725ZM42.8398 39.7725C42.8398 38.5298 43.8472 37.5225 45.0898 37.5225C46.3325 37.5225 47.3398 38.5298 47.3398 39.7725C47.3398 41.0151 46.3325 42.0225 45.0898 42.0225C43.8472 42.0225 42.8398 41.0151 42.8398 39.7725ZM45.0898 36.0225C43.0188 36.0225 41.3398 37.7014 41.3398 39.7725C41.3398 41.8435 43.0188 43.5225 45.0898 43.5225C47.1609 43.5225 48.8398 41.8435 48.8398 39.7725C48.8398 37.7014 47.1609 36.0225 45.0898 36.0225Z" fill="black"/>
</svg>
