<svg width="65" height="64" viewBox="0 0 65 64" fill="none" xmlns="http://www.w3.org/2000/svg">
<g clip-path="url(#clip0_911_165568)">
<path d="M6.79453 53.3996C7.29159 53.3996 7.69453 52.9967 7.69453 52.4996C7.69453 52.0026 7.29159 51.5996 6.79453 51.5996C6.29748 51.5996 5.89453 52.0026 5.89453 52.4996C5.89453 52.9967 6.29748 53.3996 6.79453 53.3996Z" fill="black"/>
<path d="M10.3141 53.3996C10.8111 53.3996 11.2141 52.9967 11.2141 52.4996C11.2141 52.0026 10.8111 51.5996 10.3141 51.5996C9.81701 51.5996 9.41406 52.0026 9.41406 52.4996C9.41406 52.9967 9.81701 53.3996 10.3141 53.3996Z" fill="black"/>
<path d="M13.8258 53.3996C14.3228 53.3996 14.7258 52.9967 14.7258 52.4996C14.7258 52.0026 14.3228 51.5996 13.8258 51.5996C13.3287 51.5996 12.9258 52.0026 12.9258 52.4996C12.9258 52.9967 13.3287 53.3996 13.8258 53.3996Z" fill="black"/>
<path d="M17.3453 53.3996C17.8424 53.3996 18.2453 52.9967 18.2453 52.4996C18.2453 52.0026 17.8424 51.5996 17.3453 51.5996C16.8483 51.5996 16.4453 52.0026 16.4453 52.4996C16.4453 52.9967 16.8483 53.3996 17.3453 53.3996Z" fill="black"/>
<path d="M59.3945 49.5H4.89453C3.78996 49.5 2.89453 50.3954 2.89453 51.5V53.5C2.89453 54.6046 3.78996 55.5 4.89453 55.5H59.3945C60.4991 55.5 61.3945 54.6046 61.3945 53.5V51.5C61.3945 50.3954 60.4991 49.5 59.3945 49.5Z" stroke="black" stroke-width="1.5" stroke-miterlimit="10"/>
<path d="M46.9469 53.3996C47.4439 53.3996 47.8469 52.9967 47.8469 52.4996C47.8469 52.0026 47.4439 51.5996 46.9469 51.5996C46.4498 51.5996 46.0469 52.0026 46.0469 52.4996C46.0469 52.9967 46.4498 53.3996 46.9469 53.3996Z" fill="black"/>
<path d="M50.4664 53.3996C50.9635 53.3996 51.3664 52.9967 51.3664 52.4996C51.3664 52.0026 50.9635 51.5996 50.4664 51.5996C49.9694 51.5996 49.5664 52.0026 49.5664 52.4996C49.5664 52.9967 49.9694 53.3996 50.4664 53.3996Z" fill="black"/>
<path d="M53.9781 53.3996C54.4752 53.3996 54.8781 52.9967 54.8781 52.4996C54.8781 52.0026 54.4752 51.5996 53.9781 51.5996C53.4811 51.5996 53.0781 52.0026 53.0781 52.4996C53.0781 52.9967 53.4811 53.3996 53.9781 53.3996Z" fill="black"/>
<path d="M57.4977 53.3996C57.9947 53.3996 58.3977 52.9967 58.3977 52.4996C58.3977 52.0026 57.9947 51.5996 57.4977 51.5996C57.0006 51.5996 56.5977 52.0026 56.5977 52.4996C56.5977 52.9967 57.0006 53.3996 57.4977 53.3996Z" fill="black"/>
<path d="M59.3945 8.5H4.89453C3.78996 8.5 2.89453 9.39543 2.89453 10.5V42.5C2.89453 43.6046 3.78996 44.5 4.89453 44.5H59.3945C60.4991 44.5 61.3945 43.6046 61.3945 42.5V10.5C61.3945 9.39543 60.4991 8.5 59.3945 8.5Z" stroke="black" stroke-width="1.5" stroke-miterlimit="10"/>
</g>
<defs>
<clipPath id="clip0_911_165568">
<rect width="60" height="48.5" fill="white" transform="translate(2.14453 7.75)"/>
</clipPath>
</defs>
</svg>
