<svg width="65" height="64" viewBox="0 0 65 64" fill="none" xmlns="http://www.w3.org/2000/svg">
<path d="M21.3905 47C21.3438 48.5963 20.9464 50.1569 20.2318 51.5495C19.5172 52.9421 18.5064 54.1256 17.2852 55" stroke="#040000" stroke-width="1.5" stroke-linecap="round" stroke-linejoin="round"/>
<path d="M43.2852 47V55" stroke="#040000" stroke-width="1.5" stroke-linecap="round" stroke-linejoin="round"/>
<path d="M32.3372 47C32.2363 49.7214 31.7757 52.4143 30.9688 55" stroke="#040000" stroke-width="1.5" stroke-linecap="round" stroke-linejoin="round"/>
<path fill-rule="evenodd" clip-rule="evenodd" d="M5.03516 10.25C3.51637 10.25 2.28516 11.4812 2.28516 13V39C2.28516 40.5188 3.51637 41.75 5.03516 41.75H9.03516H40.2852H55.5352H59.5352C61.0539 41.75 62.2852 40.5188 62.2852 39V13C62.2852 11.4812 61.0539 10.25 59.5352 10.25H5.03516ZM56.2852 40.25H59.5352C60.2255 40.25 60.7852 39.6904 60.7852 39V36.5H56.2852V40.25ZM60.7852 35V13C60.7852 12.3096 60.2255 11.75 59.5352 11.75H5.03516C4.3448 11.75 3.78516 12.3096 3.78516 13V35H60.7852ZM3.78516 36.5V39C3.78516 39.6904 4.3448 40.25 5.03516 40.25H8.28516V36.5H3.78516ZM9.78516 40.25V36.5H54.7852V40.25H40.2852H9.78516Z" fill="black"/>
</svg>
