<svg width="65" height="64" viewBox="0 0 65 64" fill="none" xmlns="http://www.w3.org/2000/svg">
<path d="M51.1426 43.3753V21.4948C51.1426 15.9642 47.8686 10.9583 42.8017 8.7415C35.6878 5.62916 27.5973 5.62916 20.4834 8.7415C15.4166 10.9583 12.1426 15.9642 12.1426 21.4948V42.8424C12.1426 46.0827 13.1692 49.2397 15.075 51.8602C17.9464 55.8084 22.5264 58.1531 27.4082 58.1742L36.2413 58.2123C41.2505 58.234 45.9325 55.7266 48.6907 51.5451C50.2901 49.1205 51.1426 46.2799 51.1426 43.3753Z" stroke="black" stroke-width="1.5"/>
<path d="M51.1426 29.8438V29.8438C49.2064 32.0579 46.4084 33.3281 43.4671 33.3281L19.8181 33.3281C16.8768 33.3281 14.0787 32.0579 12.1426 29.8438V29.8438" stroke="black" stroke-width="1.5"/>
<path d="M51.1426 25.5781V25.5781C49.2305 22.9012 46.1433 21.3125 42.8537 21.3125L20.4315 21.3125C17.1418 21.3125 14.0547 22.9012 12.1426 25.5781V25.5781" stroke="black" stroke-width="1.5"/>
</svg>
