<svg width="65" height="64" viewBox="0 0 65 64" fill="none" xmlns="http://www.w3.org/2000/svg">
<path d="M32.7094 58.3465C47.2621 58.3465 59.0594 46.5492 59.0594 31.9965C59.0594 17.4438 47.2621 5.64648 32.7094 5.64648C18.1567 5.64648 6.35938 17.4438 6.35938 31.9965C6.35938 46.5492 18.1567 58.3465 32.7094 58.3465Z" stroke="black" stroke-width="1.5" stroke-miterlimit="10"/>
<path d="M29.709 51.4082H35.709" stroke="black" stroke-width="1.5" stroke-linecap="round"/>
<path d="M17.4346 20.5363C17.4346 20.5363 17.1299 20.4951 17.4181 20.4951C17.9698 20.4951 12.1069 20.4457 12.2304 26.1686C12.3622 32.1303 17.8463 31.5621 19.0073 31.5292C19.032 31.5292 19.0403 31.4963 19.0156 31.4798C18.2086 31.0187 11.5058 26.9179 17.4263 20.5363H17.4346Z" stroke="black" stroke-width="1.5" stroke-miterlimit="10"/>
<path d="M17.4688 20.4953C17.4688 20.4953 24.9291 11.1657 30.2156 19.2025C33.7234 24.5384 26.5019 28.9767 25.8349 29.3637C25.1679 29.7507 25.1679 30.146 25.1679 30.146V39.4179C25.1679 39.4179 25.3985 42.3905 22.08 42.3905C18.7615 42.3905 19.0333 39.2203 19.0333 39.2203V31.5129" stroke="black" stroke-width="1.5" stroke-miterlimit="10" stroke-linecap="round"/>
<path d="M47.9826 20.5363C47.9826 20.5363 48.2873 20.4951 47.9991 20.4951C47.4474 20.4951 53.3103 20.4457 53.1868 26.1686C53.055 32.1303 47.5709 31.5621 46.4099 31.5292C46.3852 31.5292 46.3769 31.4963 46.4016 31.4798C47.2086 31.0187 53.9114 26.9179 47.9909 20.5363H47.9826Z" stroke="black" stroke-width="1.5" stroke-miterlimit="10"/>
<path d="M47.9512 20.4953C47.9512 20.4953 40.4908 11.1657 35.2044 19.2025C31.6965 24.5384 38.9181 28.9767 39.5851 29.3637C40.252 29.7507 40.252 30.146 40.252 30.146V39.4179C40.252 39.4179 40.0215 42.3905 43.3399 42.3905C46.6584 42.3905 46.3867 39.2203 46.3867 39.2203V31.5129" stroke="black" stroke-width="1.5" stroke-miterlimit="10" stroke-linecap="round"/>
<path d="M12.4512 24.1205C13.5134 20.0033 17.7643 11.6777 32.7097 11.6777C45.6473 11.6777 50.3929 18.2902 52.3851 22.8016" stroke="black" stroke-width="1.5" stroke-miterlimit="10" stroke-linecap="round"/>
<path d="M25.043 30.9702C29.7777 29.735 35.3524 28.6893 40.2519 31.5466" stroke="black" stroke-width="1.5" stroke-miterlimit="10"/>
</svg>
