<svg width="65" height="64" viewBox="0 0 65 64" fill="none" xmlns="http://www.w3.org/2000/svg">
<g clip-path="url(#clip0_911_166189)">
<path d="M31.3405 49.25H34.3705C35.1955 49.25 35.8555 49.69 35.8555 50.24V55.26H29.8555V50.24C29.8555 49.69 30.5155 49.25 31.3405 49.25V49.25Z" stroke="black" stroke-width="1.5" stroke-miterlimit="10"/>
<path d="M32.7955 2.91016C33.9355 2.91016 34.8555 3.83016 34.8555 4.97016V11.4502C34.8555 12.5502 33.9555 13.4502 32.8555 13.4502C31.7555 13.4502 30.8555 12.5502 30.8555 11.4502V4.85016C30.8555 3.78016 31.7255 2.91016 32.7955 2.91016Z" stroke="black" stroke-width="1.5" stroke-miterlimit="10"/>
<path d="M30.8555 23.2207V49.2507H34.8555V23.2207" stroke="black" stroke-width="1.5" stroke-miterlimit="10" stroke-linecap="round"/>
<path d="M22.5294 55.2695H43.1816C44.3772 55.2695 45.3555 56.1695 45.3555 57.2695V60.0895C45.3555 60.6395 44.8663 61.0895 44.2685 61.0895H21.4424C20.8446 61.0895 20.3555 60.6395 20.3555 60.0895V57.2695C20.3555 56.1695 21.3337 55.2695 22.5294 55.2695Z" stroke="black" stroke-width="1.5" stroke-miterlimit="10" stroke-linecap="round"/>
<path d="M37.8555 12.0476C37.8555 9.15161 34.945 6.87617 31.6597 7.57719C29.886 7.95643 28.4495 9.26653 28.0123 10.8869C27.65 12.2315 27.9373 13.4956 28.6493 14.4954C29.6736 15.9549 30.3606 17.5753 30.3606 19.3106V21.6205C30.3606 22.7697 31.21 23.827 32.4342 24.0109C33.9956 24.2407 35.3572 23.1375 35.3572 21.7469V19.0923C35.3572 17.4604 36.0192 15.9319 37.0061 14.5874C37.5432 13.8634 37.8555 12.99 37.8555 12.0476Z" stroke="black" stroke-width="1.5" stroke-miterlimit="10"/>
<path d="M32.8598 16.6429C35.6194 16.6429 37.8564 14.5848 37.8564 12.0461C37.8564 9.50729 35.6194 7.44922 32.8598 7.44922C30.1003 7.44922 27.8633 9.50729 27.8633 12.0461C27.8633 14.5848 30.1003 16.6429 32.8598 16.6429Z" stroke="black" stroke-width="1.5" stroke-miterlimit="10"/>
</g>
<defs>
<clipPath id="clip0_911_166189">
<rect width="54.04" height="59.68" fill="white" transform="translate(5.83594 2.16016)"/>
</clipPath>
</defs>
</svg>
