<svg width="65" height="64" viewBox="0 0 65 64" fill="none" xmlns="http://www.w3.org/2000/svg">
<path fill-rule="evenodd" clip-rule="evenodd" d="M26.5724 2C25.0536 2 23.8224 3.23121 23.8224 4.75V7.00718H17.5737C14.9498 7.00718 12.8242 9.13274 12.8242 11.7567V27.9279V55.251C12.8242 58.9748 15.8497 62.0002 19.5734 62.0002H45.5701C49.2938 62.0002 52.3193 58.9748 52.3193 55.251V27.9279V11.7567C52.3193 9.13274 50.1937 7.00718 47.5698 7.00718H41.3203V4.75C41.3203 3.23122 40.0891 2 38.5703 2H26.5724ZM41.3203 8.50718V27.1779H50.8193V11.7567C50.8193 9.96117 49.3653 8.50718 47.5698 8.50718H41.3203ZM39.8203 27.1779V4.75C39.8203 4.05964 39.2606 3.5 38.5703 3.5H26.5724C25.882 3.5 25.3224 4.05964 25.3224 4.75V27.1779H39.8203ZM23.8224 27.1779V8.50718H17.5737C15.7782 8.50718 14.3242 9.96117 14.3242 11.7567V27.1779H23.8224ZM38.3211 28.6779H50.8193V55.251C50.8193 58.1464 48.4654 60.5002 45.5701 60.5002H19.5734C16.6781 60.5002 14.3242 58.1464 14.3242 55.251V28.6779H26.8224V31.2835C26.8224 32.3877 27.7368 33.2344 28.8035 33.2344H36.34C37.426 33.2344 38.3211 32.3689 38.3211 31.2835V28.6779ZM36.8211 28.6779H28.3224V31.2835C28.3224 31.516 28.5213 31.7344 28.8035 31.7344H36.34C36.6243 31.7344 36.8211 31.514 36.8211 31.2835V28.6779ZM32.0427 36.7315C32.3356 36.4386 32.8104 36.4386 33.1033 36.7315C34.5155 38.1436 36.2826 40.4391 36.2826 43.1511C36.2826 45.1934 34.6286 46.8607 32.573 46.8607C30.519 46.8607 28.8634 45.2051 28.8634 43.1511C28.8634 40.4467 30.7236 38.0506 32.0427 36.7315ZM32.5747 38.3543C31.4635 39.6108 30.3634 41.3617 30.3634 43.1511C30.3634 44.3767 31.3474 45.3607 32.573 45.3607C33.7969 45.3607 34.7826 44.3683 34.7826 43.1511C34.7826 41.3389 33.7331 39.6499 32.5747 38.3543Z" fill="black"/>
</svg>
