<svg width="65" height="64" viewBox="0 0 65 64" fill="none" xmlns="http://www.w3.org/2000/svg">
<g clip-path="url(#clip0_911_166120)">
<path d="M28.2005 19.2302C25.6805 17.7702 23.9805 15.0402 23.9805 11.9102C23.9905 7.2402 27.7705 3.4502 32.4405 3.4502C37.1105 3.4502 40.9005 7.2402 40.9005 11.9102C40.9005 14.9802 39.2605 17.6702 36.8105 19.1502" stroke="black" stroke-width="1.5"/>
<path d="M32.5287 15.6405C34.9091 15.6405 36.8387 13.7109 36.8387 11.3305C36.8387 8.95016 34.9091 7.02051 32.5287 7.02051C30.1484 7.02051 28.2188 8.95016 28.2188 11.3305C28.2188 13.7109 30.1484 15.6405 32.5287 15.6405Z" stroke="black" stroke-width="1.5"/>
<path d="M41.1409 60.4502H23.7309C22.4709 60.4502 21.4609 59.6102 21.4609 58.5702L23.9709 21.0802C23.9709 20.0402 24.9909 19.2002 26.2409 19.2002H38.6209C39.8809 19.2002 40.8909 20.0402 40.8909 21.0802L43.4009 58.5602C43.4009 59.6002 42.3809 60.4402 41.1309 60.4402L41.1409 60.4502Z" stroke="black" stroke-width="1.5" stroke-linejoin="round"/>
<path d="M23.3281 39.4805H42.2981" stroke="black" stroke-width="1.5" stroke-linejoin="round"/>
</g>
<defs>
<clipPath id="clip0_911_166120">
<rect width="23.45" height="58.5" fill="white" transform="translate(20.7109 2.7002)"/>
</clipPath>
</defs>
</svg>
