<svg width="64" height="64" viewBox="0 0 64 64" fill="none" xmlns="http://www.w3.org/2000/svg">
<g clip-path="url(#clip0_911_166201)">
<path d="M44.6496 4H19.3496C16.5882 4 14.3496 6.23858 14.3496 9V53C14.3496 55.7614 16.5882 58 19.3496 58H44.6496C47.411 58 49.6496 55.7614 49.6496 53V9C49.6496 6.23858 47.411 4 44.6496 4Z" stroke="black" stroke-width="1.5" stroke-miterlimit="10"/>
<path d="M49.6496 10.3799C49.6496 13.1399 47.4096 15.3799 44.6496 15.3799H19.3496C16.5896 15.3799 14.3496 13.1399 14.3496 10.3799" stroke="black" stroke-width="1.5" stroke-miterlimit="10"/>
<path d="M20 8.09961H44" stroke="black" stroke-width="1.5" stroke-miterlimit="10" stroke-linecap="round"/>
<path d="M22 11.6094H42" stroke="black" stroke-width="1.5" stroke-miterlimit="10" stroke-linecap="round"/>
<path d="M19.3496 58V60" stroke="black" stroke-width="1.5" stroke-miterlimit="10" stroke-linecap="round"/>
<path d="M44.6504 58V60" stroke="black" stroke-width="1.5" stroke-miterlimit="10" stroke-linecap="round"/>
<path d="M39.7992 40.0651C39.7992 44.3115 36.3092 47.75 31.9992 47.75C27.6893 47.75 24.1992 44.3115 24.1992 40.0651C24.1992 33.8649 28.5978 28.1121 31.9992 24.75C35.6444 28.3414 39.7992 33.8212 39.7992 40.0651Z" stroke="black" stroke-width="1.5" stroke-linecap="round" stroke-linejoin="round"/>
</g>
<defs>
<clipPath id="clip0_911_166201">
<rect width="36.8" height="57.5" fill="white" transform="translate(13.5996 3.25)"/>
</clipPath>
</defs>
</svg>
