<svg width="65" height="64" viewBox="0 0 65 64" fill="none" xmlns="http://www.w3.org/2000/svg">
<path fill-rule="evenodd" clip-rule="evenodd" d="M14.1426 7.25C14.1426 6.00736 15.1499 5 16.3926 5H47.8926C49.1352 5 50.1426 6.00736 50.1426 7.25V31V33V40.75C50.1426 43.3734 48.0159 45.5 45.3926 45.5H42.8926V54.9974V55.0022V58.25V59H42.1426H22.1426H21.3926V58.25V55.0049V54.9943V45.5H18.8926C16.2692 45.5 14.1426 43.3734 14.1426 40.75V33V31V7.25ZM15.6426 31V33C15.6426 34.7949 17.0977 36.25 18.8926 36.25H45.3926C47.1875 36.25 48.6426 34.7949 48.6426 33V31V7.25C48.6426 6.83579 48.3068 6.5 47.8926 6.5H16.3926C15.9784 6.5 15.6426 6.83579 15.6426 7.25V31ZM48.6426 36.4641C47.7929 37.2616 46.6498 37.75 45.3926 37.75H18.8926C17.6354 37.75 16.4922 37.2616 15.6426 36.4641V40.75C15.6426 42.5449 17.0977 44 18.8926 44H21.3926V41.5H20.1426C19.7284 41.5 19.3926 41.1642 19.3926 40.75C19.3926 40.3358 19.7284 40 20.1426 40H32.1426H44.1426C44.5568 40 44.8926 40.3358 44.8926 40.75C44.8926 41.1642 44.5568 41.5 44.1426 41.5H42.8926V44H45.3926C47.1875 44 48.6426 42.5449 48.6426 40.75V36.4641ZM22.8926 41.5V52.9243L28.4227 46.2706L29.001 45.5748L29.5775 46.2721L34.4503 52.1653L37.3034 49.66L37.8573 49.1737L38.3532 49.7189L41.3926 53.0607V41.5H32.1426H22.8926ZM22.8926 55.271V57.5H41.3926V55.2901L37.7394 51.2734L34.8595 53.8022L34.279 54.312L33.7866 53.7166L28.998 47.9252L22.8926 55.271Z" fill="black"/>
</svg>
