<svg width="65" height="64" viewBox="0 0 65 64" fill="none" xmlns="http://www.w3.org/2000/svg">
<g clip-path="url(#clip0_911_166092)">
<path d="M52.6445 2.75H11.6449C10.5403 2.75 9.64486 3.64542 9.64486 4.74999L9.64454 59.25C9.64454 60.3546 10.54 61.25 11.6445 61.25H52.6445C53.7491 61.25 54.6445 60.3546 54.6445 59.25V4.75C54.6445 3.64543 53.7491 2.75 52.6445 2.75Z" stroke="black" stroke-width="1.5"/>
<path d="M9.64453 11.5195H54.6445" stroke="black" stroke-width="1.5"/>
<path d="M35.1445 7H29.1445" stroke="black" stroke-width="1.5" stroke-linecap="round"/>
<path d="M49.1461 22L15.1445 22C14.04 22 13.1445 22.8955 13.1445 24V55C13.1445 56.1046 14.04 57 15.1445 57H49.1461C50.2506 57 51.1461 56.1046 51.1461 55V24C51.1461 22.8954 50.2506 22 49.1461 22Z" stroke="black" stroke-width="1.5"/>
<path d="M51.1445 50H19.6445H13.1445" stroke="black" stroke-width="1.5" stroke-miterlimit="10" stroke-linecap="round"/>
<path d="M28.1501 52.8627C33.3589 52.8627 37.5814 48.6401 37.5814 43.4313C37.5814 38.2226 33.3589 34 28.1501 34C22.9413 34 18.7188 38.2226 18.7188 43.4313C18.7188 48.6401 22.9413 52.8627 28.1501 52.8627Z" stroke="black" stroke-width="1.5" stroke-miterlimit="10"/>
<path d="M32.3906 34.7714C33.5378 34.2751 34.803 34 36.1324 34C41.3412 34 45.5638 38.2226 45.5638 43.4313C45.5638 48.6401 41.3412 52.8627 36.1324 52.8627C34.803 52.8627 33.5378 52.5876 32.3906 52.0913" stroke="black" stroke-width="1.5" stroke-miterlimit="10"/>
<path d="M28.1491 47.6937C30.5032 47.6937 32.4115 45.7854 32.4115 43.4313C32.4115 41.0773 30.5032 39.1689 28.1491 39.1689C25.7951 39.1689 23.8867 41.0773 23.8867 43.4313C23.8867 45.7854 25.7951 47.6937 28.1491 47.6937Z" stroke="black" stroke-width="1.5" stroke-miterlimit="10"/>
</g>
<defs>
<clipPath id="clip0_911_166092">
<rect width="46.5" height="60" fill="white" transform="translate(8.89453 2)"/>
</clipPath>
</defs>
</svg>
