<svg width="65" height="64" viewBox="0 0 65 64" fill="none" xmlns="http://www.w3.org/2000/svg">
<path fill-rule="evenodd" clip-rule="evenodd" d="M9.57031 4.75C9.57031 3.23122 10.8015 2 12.3203 2H52.8203C54.3391 2 55.5703 3.23122 55.5703 4.75V14.9804L55.5706 15L55.5703 15.0196V59.25C55.5703 60.7688 54.3391 62 52.8203 62H12.3203C10.8015 62 9.57031 60.7688 9.57031 59.25V15V4.75ZM54.0703 4.75V14.25H11.0703V4.75C11.0703 4.05964 11.63 3.5 12.3203 3.5H52.8203C53.5107 3.5 54.0703 4.05964 54.0703 4.75ZM11.0703 59.25V15.75H54.0703V59.25C54.0703 59.9404 53.5107 60.5 52.8203 60.5H12.3203C11.63 60.5 11.0703 59.9404 11.0703 59.25ZM30.8203 8.89404C30.8203 7.92804 31.6043 7.14404 32.5703 7.14404C33.5363 7.14404 34.3203 7.92804 34.3203 8.89404C34.3203 9.86004 33.5363 10.644 32.5703 10.644C31.6043 10.644 30.8203 9.86004 30.8203 8.89404ZM32.5703 22.75C23.5957 22.75 16.3203 30.0254 16.3203 39C16.3203 47.9746 23.5957 55.25 32.5703 55.25C41.5449 55.25 48.8203 47.9746 48.8203 39C48.8203 30.0254 41.5449 22.75 32.5703 22.75ZM14.8203 39C14.8203 29.1969 22.7673 21.25 32.5703 21.25C42.3734 21.25 50.3203 29.1969 50.3203 39C50.3203 48.8031 42.3734 56.75 32.5703 56.75C22.7673 56.75 14.8203 48.8031 14.8203 39ZM28.9847 37.7272C28.9847 36.0682 29.8699 35.1028 30.8975 34.5145C31.9648 33.9035 33.1168 33.75 33.3648 33.75C33.6988 33.75 34.9562 33.7508 36.3051 34.4405C37.623 35.1144 39.1024 36.4836 39.8439 39.3685C39.947 39.7697 40.3558 40.0113 40.757 39.9082C41.1582 39.8051 41.3998 39.3963 41.2967 38.9951C40.4493 35.6983 38.6924 33.9765 36.988 33.105C35.316 32.25 33.7664 32.25 33.3659 32.25H33.3648C32.8799 32.25 31.4668 32.4601 30.1523 33.2128C28.798 33.9881 27.4847 35.3863 27.4847 37.7272C27.4847 39.5697 28.2384 40.7137 29.1819 41.367C30.0775 41.9871 31.0664 42.1136 31.5326 42.1136C31.9101 42.1136 32.3614 42.0412 32.7829 41.8581C33.2054 41.6744 33.6503 41.3546 33.9077 40.8308C34.0904 40.4591 33.9372 40.0096 33.5654 39.8269C33.1937 39.6442 32.7442 39.7975 32.5615 40.1692C32.5065 40.2812 32.3903 40.3931 32.185 40.4824C31.9786 40.5721 31.7352 40.6136 31.5326 40.6136C31.2659 40.6136 30.6058 40.5285 30.0358 40.1337C29.5135 39.7721 28.9847 39.0979 28.9847 37.7272ZM37.0486 38.3051C36.5715 37.2451 35.6031 36.4907 34.5624 36.1793C33.5171 35.8665 32.2917 35.9749 31.3699 36.8064C31.0623 37.0838 31.0379 37.5581 31.3153 37.8656C31.5928 38.1732 32.067 38.1976 32.3746 37.9202C32.8178 37.5204 33.4613 37.4155 34.1324 37.6163C34.808 37.8185 35.4034 38.3045 35.6809 38.9208C35.8918 39.3894 36.0175 40.0221 35.9174 40.9165C35.7695 42.2368 34.9717 43.0537 34.0174 43.5667C33.0397 44.0922 31.9733 44.25 31.5326 44.25C31.0457 44.25 29.7168 44.1665 28.4012 43.4729C27.1199 42.7974 25.8074 41.5238 25.3055 39.0336C25.2237 38.6276 24.8282 38.3648 24.4221 38.4466C24.0161 38.5284 23.7533 38.9239 23.8351 39.33C24.4325 42.2943 26.0516 43.9299 27.7017 44.7998C29.3176 45.6517 30.9202 45.75 31.5326 45.75C32.1913 45.75 33.5067 45.5442 34.7276 44.8879C35.9719 44.219 37.1894 43.0359 37.4081 41.0835C37.5336 39.9621 37.3855 39.0532 37.0486 38.3051Z" fill="black"/>
</svg>
