<svg width="65" height="64" viewBox="0 0 65 64" fill="none" xmlns="http://www.w3.org/2000/svg">
<path fill-rule="evenodd" clip-rule="evenodd" d="M5.46484 9C3.94606 9 2.71484 10.2312 2.71484 11.75V19.75V37V46.25V47.75V52.25C2.71484 53.7688 3.94606 55 5.46484 55H59.9648C61.4836 55 62.7148 53.7688 62.7148 52.25V11.75C62.7148 10.2312 61.4836 9 59.9648 9H51.4648H12.4648H5.46484ZM4.21484 36.25V20.5H6.44041C6.77963 23.2528 8.96195 25.4351 11.7148 25.7742V26V27.7501V30.9758C8.96195 31.3149 6.77962 33.4971 6.44041 36.25H4.21484ZM4.21484 46.25V37.75H6.44041C6.77963 40.5028 8.96195 42.6851 11.7148 43.0242V46.25L4.21484 46.25ZM12.4648 47.7501L12.4524 47.75L4.21484 47.75V52.25C4.21484 52.9404 4.77449 53.5 5.46484 53.5H59.9648C60.6552 53.5 61.2148 52.9404 61.2148 52.25V47.75L51.479 47.75L51.4648 47.7501L51.4507 47.75L12.4773 47.75L12.4648 47.7501ZM13.2148 43.0241V46.25L21.9648 46.25V37.75H18.4887C18.1495 40.5026 15.9674 42.6847 13.2148 43.0241ZM21.9648 20.5V36.25H18.4887C18.1495 33.4974 15.9674 31.3152 13.2148 30.9759V27.7501V26V25.7741C15.9674 25.4347 18.1495 23.2526 18.4887 20.5H21.9648ZM21.9648 10.5V19H18.4887C18.1495 16.2474 15.9674 14.0652 13.2148 13.7259V10.5H21.9648ZM11.7148 13.7258V10.5H5.46484C4.77449 10.5 4.21484 11.0596 4.21484 11.75V19H6.44041C6.77962 16.2471 8.96195 14.0649 11.7148 13.7258ZM50.7148 10.5H42.4648V19H45.4404C45.7796 16.2471 47.9619 14.0649 50.7148 13.7258V10.5ZM42.4648 20.5V36.25H45.4404C45.7796 33.4971 47.9619 31.3149 50.7148 30.9758V27.7501V26V25.7742C47.962 25.4351 45.7796 23.2528 45.4404 20.5H42.4648ZM42.4648 37.75V46.25L50.7148 46.25V43.0242C47.962 42.6851 45.7796 40.5028 45.4404 37.75H42.4648ZM52.2148 46.25V43.0241C54.9674 42.6847 57.1495 40.5026 57.4887 37.75H61.2148V46.25L52.2148 46.25ZM61.2148 36.25V20.5H57.4887C57.1495 23.2526 54.9674 25.4347 52.2148 25.7741V26V27.7501V30.9759C54.9674 31.3152 57.1495 33.4974 57.4887 36.25H61.2148ZM61.2148 19H57.4887C57.1495 16.2474 54.9674 14.0652 52.2148 13.7259V10.5H59.9648C60.6552 10.5 61.2148 11.0596 61.2148 11.75V19ZM23.4648 29.7497V46.25L40.9648 46.25V29.7501H38.3641C38.0244 32.5775 35.7885 34.8216 32.965 35.1739V37.2285C32.965 37.6427 32.6292 37.9785 32.215 37.9785C31.8007 37.9785 31.465 37.6427 31.465 37.2285V35.1806C28.6149 34.8514 26.3515 32.5962 26.0096 29.7501H23.4883C23.4804 29.7501 23.4726 29.7499 23.4648 29.7497ZM23.4648 10.5V28.2504C23.4726 28.2502 23.4804 28.2501 23.4883 28.2501H26.0096C26.3515 25.4039 28.6149 23.1488 31.465 22.8195V20.7715C31.465 20.3573 31.8007 20.0215 32.215 20.0215C32.6292 20.0215 32.965 20.3573 32.965 20.7715V22.8263C35.7885 23.1785 38.0244 25.4227 38.3641 28.2501H40.9648V10.5H23.4648ZM27.7148 51C27.7148 51.5523 27.2671 52 26.7148 52C26.1626 52 25.7148 51.5523 25.7148 51C25.7148 50.4477 26.1626 50 26.7148 50C27.2671 50 27.7148 50.4477 27.7148 51ZM32.7148 52C33.2671 52 33.7148 51.5523 33.7148 51C33.7148 50.4477 33.2671 50 32.7148 50C32.1626 50 31.7148 50.4477 31.7148 51C31.7148 51.5523 32.1626 52 32.7148 52ZM39.7148 51C39.7148 51.5523 39.2671 52 38.7148 52C38.1626 52 37.7148 51.5523 37.7148 51C37.7148 50.4477 38.1626 50 38.7148 50C39.2671 50 39.7148 50.4477 39.7148 51ZM46.9558 36.25C47.2733 34.3268 48.7916 32.8086 50.7148 32.4912V33.37C50.7148 33.7842 51.0506 34.12 51.4648 34.12C51.8791 34.12 52.2148 33.7842 52.2148 33.37V32.4913C54.1378 32.8089 55.6558 34.327 55.9733 36.25H55.1055C54.6913 36.25 54.3555 36.5858 54.3555 37C54.3555 37.4142 54.6913 37.75 55.1055 37.75H55.9733C55.6558 39.673 54.1378 41.1911 52.2148 41.5087V40.6401C52.2148 40.2259 51.8791 39.8901 51.4648 39.8901C51.0506 39.8901 50.7148 40.2259 50.7148 40.6401V41.5088C48.7916 41.1914 47.2733 39.6732 46.9558 37.75H47.8348C48.2491 37.75 48.5848 37.4142 48.5848 37C48.5848 36.5858 48.2491 36.25 47.8348 36.25H46.9558ZM50.7148 15.2412V16.12C50.7148 16.5342 51.0506 16.87 51.4648 16.87C51.8791 16.87 52.2148 16.5342 52.2148 16.12V15.2413C54.1378 15.5589 55.6558 17.077 55.9733 19H55.1055C54.6913 19 54.3555 19.3358 54.3555 19.75C54.3555 20.1642 54.6913 20.5 55.1055 20.5H55.9733C55.6558 22.423 54.1378 23.9411 52.2148 24.2587V23.3901C52.2148 22.9759 51.8791 22.6401 51.4648 22.6401C51.0506 22.6401 50.7148 22.9759 50.7148 23.3901V24.2588C48.7916 23.9414 47.2733 22.4232 46.9558 20.5H47.8348C48.2491 20.5 48.5848 20.1642 48.5848 19.75C48.5848 19.3358 48.2491 19 47.8348 19H46.9558C47.2733 17.0768 48.7916 15.5586 50.7148 15.2412ZM11.7148 32.4912C9.79159 32.8086 8.2733 34.3268 7.95577 36.25H8.83484C9.24906 36.25 9.58484 36.5858 9.58484 37C9.58484 37.4142 9.24906 37.75 8.83484 37.75H7.95578C8.2733 39.6732 9.79159 41.1914 11.7148 41.5088V40.6401C11.7148 40.2259 12.0506 39.8901 12.4648 39.8901C12.8791 39.8901 13.2148 40.2259 13.2148 40.6401V41.5087C15.1378 41.1911 16.6558 39.673 16.9733 37.75H16.1055C15.6913 37.75 15.3555 37.4142 15.3555 37C15.3555 36.5858 15.6913 36.25 16.1055 36.25H16.9733C16.6558 34.327 15.1378 32.8089 13.2148 32.4913V33.37C13.2148 33.7842 12.8791 34.12 12.4648 34.12C12.0506 34.12 11.7148 33.7842 11.7148 33.37V32.4912ZM11.7148 16.12V15.2412C9.79159 15.5586 8.2733 17.0768 7.95577 19H8.83484C9.24906 19 9.58484 19.3358 9.58484 19.75C9.58484 20.1642 9.24906 20.5 8.83484 20.5H7.95578C8.2733 22.4232 9.79159 23.9414 11.7148 24.2588V23.3901C11.7148 22.9759 12.0506 22.6401 12.4648 22.6401C12.8791 22.6401 13.2148 22.9759 13.2148 23.3901V24.2587C15.1378 23.9411 16.6558 22.423 16.9733 20.5H16.1055C15.6913 20.5 15.3555 20.1642 15.3555 19.75C15.3555 19.3358 15.6913 19 16.1055 19H16.9733C16.6558 17.077 15.1378 15.5589 13.2148 15.2413V16.12C13.2148 16.5342 12.8791 16.87 12.4648 16.87C12.0506 16.87 11.7148 16.5342 11.7148 16.12ZM31.465 25.2949V24.3329C29.4445 24.6429 27.8459 26.2335 27.5241 28.2501H28.2883C28.7025 28.2501 29.0383 28.5858 29.0383 29.0001C29.0383 29.4143 28.7025 29.7501 28.2883 29.7501H27.5241C27.8459 31.7666 29.4445 33.3573 31.465 33.6672V32.7153C31.465 32.3011 31.8007 31.9653 32.215 31.9653C32.6292 31.9653 32.965 32.3011 32.965 32.7153V33.6583C34.9588 33.3277 36.5308 31.7479 36.8496 29.7501H36.1148C35.7006 29.7501 35.3648 29.4143 35.3648 29.0001C35.3648 28.5858 35.7006 28.2501 36.1148 28.2501H36.8496C36.5308 26.2522 34.9588 24.6725 32.965 24.3419V25.2949C32.965 25.7091 32.6292 26.0449 32.215 26.0449C31.8007 26.0449 31.465 25.7091 31.465 25.2949Z" fill="black"/>
</svg>
