<svg width="65" height="64" viewBox="0 0 65 64" fill="none" xmlns="http://www.w3.org/2000/svg">
<path d="M21.9101 31.999C21.3701 31.999 20.9201 32.419 20.8801 32.959L19.3301 54.999C19.3301 56.099 20.2301 56.999 21.3301 56.999H43.3301C44.4301 56.999 45.3301 56.099 45.3301 54.999L43.7801 32.959C43.7401 32.419 43.2901 31.999 42.7501 31.999H21.9101Z" stroke="black" stroke-width="1.5"/>
<path d="M42.3208 12.4395C42.3208 11.3395 41.4208 10.4395 40.3208 10.4395H24.3208C23.2208 10.4395 22.3208 11.3395 22.3208 12.4395L21.6508 21.8995C21.6108 22.4995 22.0808 23.0095 22.6808 23.0095H41.9508C42.5508 23.0095 43.0208 22.4995 42.9808 21.8995L42.3108 12.4395H42.3208Z" stroke="black" stroke-width="1.5"/>
<path d="M22.3214 59C22.8914 60.1 23.2214 61 24.3214 61H40.3214C41.4214 61 41.7314 60.12 42.3214 59L43.3014 57.05C43.3014 57.05 43.3015 57 43.2715 57H21.3714C21.3714 57 21.3314 57.03 21.3414 57.05L22.3214 59Z" stroke="black" stroke-width="1.5"/>
<path d="M41.0605 23L41.7005 32" stroke="black" stroke-width="1.5"/>
<path d="M22.9414 32L23.5814 23" stroke="black" stroke-width="1.5"/>
<path d="M37.7097 23L33.1397 27.57C32.6897 28.02 31.9497 28.02 31.4997 27.57L26.9297 23" stroke="black" stroke-width="1.5"/>
<path d="M25.3203 10C25.3203 6.13 28.4503 3 32.3203 3C36.1903 3 39.3203 6.13 39.3203 10" stroke="black" stroke-width="1.5"/>
<path d="M22.1503 32C21.6103 32 21.1603 32.42 21.1203 32.96L19.5703 55C19.5703 56.1 20.4703 57 21.5703 57H43.5703C44.6703 57 45.5703 56.1 45.5703 55L44.0203 32.96C43.9803 32.42 43.5303 32 42.9903 32H22.1503Z" stroke="black" stroke-width="1.5"/>
<path d="M42.561 12.4404C42.561 11.3404 41.661 10.4404 40.561 10.4404H24.561C23.461 10.4404 22.561 11.3404 22.561 12.4404L21.891 21.9004C21.851 22.5004 22.321 23.0104 22.921 23.0104H42.191C42.791 23.0104 43.261 22.5004 43.221 21.9004L42.551 12.4404H42.561Z" stroke="black" stroke-width="1.5"/>
<path d="M22.5597 59C23.1297 60.1 23.4597 61 24.5597 61H40.5597C41.6597 61 41.9697 60.12 42.5597 59L43.5397 57.05C43.5397 57.05 43.5397 57 43.5097 57H21.6097C21.6097 57 21.5697 57.03 21.5797 57.05L22.5597 59Z" stroke="black" stroke-width="1.5"/>
<path d="M25.5289 19.2707C26.026 19.2707 26.4289 18.8678 26.4289 18.3707C26.4289 17.8736 26.026 17.4707 25.5289 17.4707C25.0318 17.4707 24.6289 17.8736 24.6289 18.3707C24.6289 18.8678 25.0318 19.2707 25.5289 19.2707Z" fill="black"/>
<path d="M29.0387 19.2707C29.5357 19.2707 29.9387 18.8678 29.9387 18.3707C29.9387 17.8736 29.5357 17.4707 29.0387 17.4707C28.5416 17.4707 28.1387 17.8736 28.1387 18.3707C28.1387 18.8678 28.5416 19.2707 29.0387 19.2707Z" fill="black"/>
<path d="M32.5602 19.2707C33.0572 19.2707 33.4602 18.8678 33.4602 18.3707C33.4602 17.8736 33.0572 17.4707 32.5602 17.4707C32.0631 17.4707 31.6602 17.8736 31.6602 18.3707C31.6602 18.8678 32.0631 19.2707 32.5602 19.2707Z" fill="black"/>
<path d="M36.0797 19.2707C36.5767 19.2707 36.9797 18.8678 36.9797 18.3707C36.9797 17.8736 36.5767 17.4707 36.0797 17.4707C35.5826 17.4707 35.1797 17.8736 35.1797 18.3707C35.1797 18.8678 35.5826 19.2707 36.0797 19.2707Z" fill="black"/>
<path d="M39.5875 19.2707C40.0846 19.2707 40.4875 18.8678 40.4875 18.3707C40.4875 17.8736 40.0846 17.4707 39.5875 17.4707C39.0904 17.4707 38.6875 17.8736 38.6875 18.3707C38.6875 18.8678 39.0904 19.2707 39.5875 19.2707Z" fill="black"/>
<path d="M27.3297 16.2404C27.8267 16.2404 28.2297 15.8375 28.2297 15.3404C28.2297 14.8434 27.8267 14.4404 27.3297 14.4404C26.8326 14.4404 26.4297 14.8434 26.4297 15.3404C26.4297 15.8375 26.8326 16.2404 27.3297 16.2404Z" fill="black"/>
<path d="M30.8395 16.2404C31.3365 16.2404 31.7395 15.8375 31.7395 15.3404C31.7395 14.8434 31.3365 14.4404 30.8395 14.4404C30.3424 14.4404 29.9395 14.8434 29.9395 15.3404C29.9395 15.8375 30.3424 16.2404 30.8395 16.2404Z" fill="black"/>
<path d="M34.3609 16.2404C34.858 16.2404 35.2609 15.8375 35.2609 15.3404C35.2609 14.8434 34.858 14.4404 34.3609 14.4404C33.8639 14.4404 33.4609 14.8434 33.4609 15.3404C33.4609 15.8375 33.8639 16.2404 34.3609 16.2404Z" fill="black"/>
<path d="M37.8805 16.2404C38.3775 16.2404 38.7805 15.8375 38.7805 15.3404C38.7805 14.8434 38.3775 14.4404 37.8805 14.4404C37.3834 14.4404 36.9805 14.8434 36.9805 15.3404C36.9805 15.8375 37.3834 16.2404 37.8805 16.2404Z" fill="black"/>
<path d="M41.3008 23L41.9408 32" stroke="black" stroke-width="1.5"/>
<path d="M23.1797 32L23.8197 23" stroke="black" stroke-width="1.5"/>
<path d="M37.9499 23L33.3799 27.57C32.9299 28.02 32.1899 28.02 31.7399 27.57L27.1699 23" stroke="black" stroke-width="1.5"/>
<path d="M25.5605 10C25.5605 6.13 28.6905 3 32.5605 3C36.4305 3 39.5605 6.13 39.5605 10" stroke="black" stroke-width="1.5"/>
<path d="M23.8102 52.9797C24.3072 52.9797 24.7102 52.5767 24.7102 52.0797C24.7102 51.5826 24.3072 51.1797 23.8102 51.1797C23.3131 51.1797 22.9102 51.5826 22.9102 52.0797C22.9102 52.5767 23.3131 52.9797 23.8102 52.9797Z" fill="black"/>
<path d="M27.3297 52.9797C27.8267 52.9797 28.2297 52.5767 28.2297 52.0797C28.2297 51.5826 27.8267 51.1797 27.3297 51.1797C26.8326 51.1797 26.4297 51.5826 26.4297 52.0797C26.4297 52.5767 26.8326 52.9797 27.3297 52.9797Z" fill="black"/>
<path d="M30.8492 52.9797C31.3463 52.9797 31.7492 52.5767 31.7492 52.0797C31.7492 51.5826 31.3463 51.1797 30.8492 51.1797C30.3522 51.1797 29.9492 51.5826 29.9492 52.0797C29.9492 52.5767 30.3522 52.9797 30.8492 52.9797Z" fill="black"/>
<path d="M34.3609 52.9797C34.858 52.9797 35.2609 52.5767 35.2609 52.0797C35.2609 51.5826 34.858 51.1797 34.3609 51.1797C33.8639 51.1797 33.4609 51.5826 33.4609 52.0797C33.4609 52.5767 33.8639 52.9797 34.3609 52.9797Z" fill="black"/>
<path d="M37.8805 52.9797C38.3775 52.9797 38.7805 52.5767 38.7805 52.0797C38.7805 51.5826 38.3775 51.1797 37.8805 51.1797C37.3834 51.1797 36.9805 51.5826 36.9805 52.0797C36.9805 52.5767 37.3834 52.9797 37.8805 52.9797Z" fill="black"/>
<path d="M41.3902 52.9797C41.8873 52.9797 42.2902 52.5767 42.2902 52.0797C42.2902 51.5826 41.8873 51.1797 41.3902 51.1797C40.8932 51.1797 40.4902 51.5826 40.4902 52.0797C40.4902 52.5767 40.8932 52.9797 41.3902 52.9797Z" fill="black"/>
<path d="M25.6109 49.9504C26.108 49.9504 26.5109 49.5474 26.5109 49.0504C26.5109 48.5533 26.108 48.1504 25.6109 48.1504C25.1139 48.1504 24.7109 48.5533 24.7109 49.0504C24.7109 49.5474 25.1139 49.9504 25.6109 49.9504Z" fill="black"/>
<path d="M29.1305 49.9504C29.6275 49.9504 30.0305 49.5474 30.0305 49.0504C30.0305 48.5533 29.6275 48.1504 29.1305 48.1504C28.6334 48.1504 28.2305 48.5533 28.2305 49.0504C28.2305 49.5474 28.6334 49.9504 29.1305 49.9504Z" fill="black"/>
<path d="M32.65 49.9504C33.1471 49.9504 33.55 49.5474 33.55 49.0504C33.55 48.5533 33.1471 48.1504 32.65 48.1504C32.1529 48.1504 31.75 48.5533 31.75 49.0504C31.75 49.5474 32.1529 49.9504 32.65 49.9504Z" fill="black"/>
<path d="M36.1617 49.9504C36.6588 49.9504 37.0617 49.5474 37.0617 49.0504C37.0617 48.5533 36.6588 48.1504 36.1617 48.1504C35.6647 48.1504 35.2617 48.5533 35.2617 49.0504C35.2617 49.5474 35.6647 49.9504 36.1617 49.9504Z" fill="black"/>
<path d="M39.6813 49.9504C40.1783 49.9504 40.5813 49.5474 40.5813 49.0504C40.5813 48.5533 40.1783 48.1504 39.6813 48.1504C39.1842 48.1504 38.7812 48.5533 38.7812 49.0504C38.7812 49.5474 39.1842 49.9504 39.6813 49.9504Z" fill="black"/>
<path d="M23.8102 46.76C24.3072 46.76 24.7102 46.357 24.7102 45.86C24.7102 45.3629 24.3072 44.96 23.8102 44.96C23.3131 44.96 22.9102 45.3629 22.9102 45.86C22.9102 46.357 23.3131 46.76 23.8102 46.76Z" fill="black"/>
<path d="M27.3297 46.76C27.8267 46.76 28.2297 46.357 28.2297 45.86C28.2297 45.3629 27.8267 44.96 27.3297 44.96C26.8326 44.96 26.4297 45.3629 26.4297 45.86C26.4297 46.357 26.8326 46.76 27.3297 46.76Z" fill="black"/>
<path d="M30.8492 46.76C31.3463 46.76 31.7492 46.357 31.7492 45.86C31.7492 45.3629 31.3463 44.96 30.8492 44.96C30.3522 44.96 29.9492 45.3629 29.9492 45.86C29.9492 46.357 30.3522 46.76 30.8492 46.76Z" fill="black"/>
<path d="M34.3609 46.76C34.858 46.76 35.2609 46.357 35.2609 45.86C35.2609 45.3629 34.858 44.96 34.3609 44.96C33.8639 44.96 33.4609 45.3629 33.4609 45.86C33.4609 46.357 33.8639 46.76 34.3609 46.76Z" fill="black"/>
<path d="M37.8805 46.76C38.3775 46.76 38.7805 46.357 38.7805 45.86C38.7805 45.3629 38.3775 44.96 37.8805 44.96C37.3834 44.96 36.9805 45.3629 36.9805 45.86C36.9805 46.357 37.3834 46.76 37.8805 46.76Z" fill="black"/>
<path d="M41.3902 46.76C41.8873 46.76 42.2902 46.357 42.2902 45.86C42.2902 45.3629 41.8873 44.96 41.3902 44.96C40.8932 44.96 40.4902 45.3629 40.4902 45.86C40.4902 46.357 40.8932 46.76 41.3902 46.76Z" fill="black"/>
<path d="M25.6109 43.7395C26.108 43.7395 26.5109 43.3365 26.5109 42.8395C26.5109 42.3424 26.108 41.9395 25.6109 41.9395C25.1139 41.9395 24.7109 42.3424 24.7109 42.8395C24.7109 43.3365 25.1139 43.7395 25.6109 43.7395Z" fill="black"/>
<path d="M29.1305 43.7395C29.6275 43.7395 30.0305 43.3365 30.0305 42.8395C30.0305 42.3424 29.6275 41.9395 29.1305 41.9395C28.6334 41.9395 28.2305 42.3424 28.2305 42.8395C28.2305 43.3365 28.6334 43.7395 29.1305 43.7395Z" fill="black"/>
<path d="M32.65 43.7395C33.1471 43.7395 33.55 43.3365 33.55 42.8395C33.55 42.3424 33.1471 41.9395 32.65 41.9395C32.1529 41.9395 31.75 42.3424 31.75 42.8395C31.75 43.3365 32.1529 43.7395 32.65 43.7395Z" fill="black"/>
<path d="M36.1617 43.7395C36.6588 43.7395 37.0617 43.3365 37.0617 42.8395C37.0617 42.3424 36.6588 41.9395 36.1617 41.9395C35.6647 41.9395 35.2617 42.3424 35.2617 42.8395C35.2617 43.3365 35.6647 43.7395 36.1617 43.7395Z" fill="black"/>
<path d="M39.6813 43.7395C40.1783 43.7395 40.5813 43.3365 40.5813 42.8395C40.5813 42.3424 40.1783 41.9395 39.6813 41.9395C39.1842 41.9395 38.7812 42.3424 38.7812 42.8395C38.7812 43.3365 39.1842 43.7395 39.6813 43.7395Z" fill="black"/>
</svg>
