<svg width="65" height="64" viewBox="0 0 65 64" fill="none" xmlns="http://www.w3.org/2000/svg">
<path d="M58.6035 14.75H5.96678C4.89997 14.75 4.03516 15.6454 4.03516 16.75V25.75C4.03516 26.8546 4.89997 27.75 5.96678 27.75H58.6035C59.6703 27.75 60.5352 26.8546 60.5352 25.75V16.75C60.5352 15.6454 59.6703 14.75 58.6035 14.75Z" stroke="black" stroke-width="1.5"/>
<path d="M12.8242 22.0098C13.3765 22.0098 13.8242 21.5621 13.8242 21.0098C13.8242 20.4575 13.3765 20.0098 12.8242 20.0098C12.2719 20.0098 11.8242 20.4575 11.8242 21.0098C11.8242 21.5621 12.2719 22.0098 12.8242 22.0098Z" fill="black"/>
<path d="M23.2852 50.75V40.3971C23.2852 35.6214 27.3146 31.75 32.2852 31.75C37.2557 31.75 41.2852 35.6214 41.2852 40.3971V50.75" stroke="black" stroke-width="1.5"/>
<path d="M32.2852 46.75C35.5989 46.75 38.2852 44.0637 38.2852 40.75C38.2852 37.4363 35.5989 34.75 32.2852 34.75C28.9715 34.75 26.2852 37.4363 26.2852 40.75C26.2852 44.0637 28.9715 46.75 32.2852 46.75Z" stroke="black" stroke-width="1.5"/>
<path d="M32.2852 42.75C33.3897 42.75 34.2852 41.8546 34.2852 40.75C34.2852 39.6454 33.3897 38.75 32.2852 38.75C31.1806 38.75 30.2852 39.6454 30.2852 40.75C30.2852 41.8546 31.1806 42.75 32.2852 42.75Z" stroke="black" stroke-width="1.5"/>
<path d="M10.2852 28.25V30.25C10.2852 42.4003 20.1349 52.25 32.2852 52.25C44.4354 52.25 54.2852 42.4003 54.2852 30.25V28.25" stroke="black" stroke-width="1.5"/>
</svg>
