<svg width="220" height="110" viewBox="0 0 220 110" fill="none" xmlns="http://www.w3.org/2000/svg">
<path d="M96.0156 45.8497C98.4225 44.5192 101.342 42.4578 101.667 39.4993C101.738 38.8542 101.703 38.0326 101.256 37.5438C103.541 36.319 105.531 34.6659 105.902 31.9544C106.126 30.3265 105.587 28.5423 104.282 27.4839C102.998 26.4456 101.149 26.2944 99.6259 26.8841C99.9204 26.239 100.22 25.5939 100.509 24.9437C100.819 24.2381 99.895 23.2855 99.3111 24.0264C94.8782 29.6712 89.6988 34.7264 83.9101 38.9953C83.1332 39.5699 83.8898 40.8803 84.6769 40.3007C89.0793 37.0498 93.1466 33.3807 96.8077 29.3336C93.1314 37.0095 88.927 44.4335 84.1945 51.5147C82.5645 53.9541 80.8787 56.3481 79.1319 58.7068C78.553 59.4931 79.8733 60.2491 80.4471 59.4679C83.0418 55.96 85.5045 52.3564 87.8353 48.6772C87.8454 48.6772 87.8505 48.6772 87.8556 48.6772C90.689 48.3597 93.5224 47.2156 96.0004 45.8497H96.0156ZM100.149 38.6375C100.124 38.5114 100.093 38.6173 100.149 38.6375ZM96.7824 32.8918C97.4729 31.5109 98.1381 30.1248 98.7932 28.7288C98.9861 28.8296 99.2248 28.8346 99.4685 28.6683C100.702 27.8367 102.581 27.7611 103.632 28.9404C104.511 29.9283 104.628 31.4 104.186 32.5995C103.028 35.7394 99.2502 36.8634 96.4624 38.0578C95.6805 38.3955 96.2441 39.7563 97.0515 39.4388C97.5186 39.2523 97.9909 39.0911 98.4733 38.96C98.9049 38.8441 99.7072 38.5417 100.154 38.6324C100.154 38.6526 100.164 38.6828 100.164 38.7181C100.174 38.8491 100.179 38.9802 100.179 39.1062C100.179 39.338 100.144 39.5547 100.083 39.7815C99.8036 40.85 99.0521 41.727 98.2498 42.4578C96.3101 44.2319 93.7814 45.4264 91.3136 46.2781C90.557 46.5402 89.7191 46.7972 88.9168 46.9736C91.7452 42.3973 94.3755 37.695 96.7824 32.8868V32.8918Z" fill="black"/>
<path d="M133.774 33.6392C131.636 36.3557 129.346 39.1227 126.366 40.9674C124.868 41.8998 123.08 42.7062 121.288 42.7818C120.648 42.807 119.973 42.7011 119.384 42.4542C120.089 42.0308 120.77 41.5671 121.42 41.0732C122.842 39.9846 124.817 38.8052 124.949 36.8295C125.071 35.0101 123.288 34.0172 121.664 34.0172C119.764 34.0172 118.033 35.2469 117.093 36.8295C116.154 38.4121 115.783 40.5188 116.723 42.1266C114.946 42.9027 112.935 43.3563 110.995 43.1245C110.838 43.1043 110.503 43.0943 110.386 42.9632C110.254 42.812 110.37 42.5197 110.421 42.3635C110.589 41.8292 110.843 41.3101 111.086 40.8061C111.244 40.4835 111.417 40.171 111.594 39.8586C112.061 39.2336 112.483 38.5734 112.854 37.8929C113.331 37.021 112.102 36.3507 111.538 37.1319C111.498 37.1873 111.462 37.2428 111.422 37.2982C111.315 36.8547 111.097 36.4364 110.746 36.1037C109.345 34.7681 107.004 35.4485 105.597 36.3961C104.79 36.9404 104.104 37.6359 103.576 38.4474C103.064 39.2386 102.571 40.297 102.642 41.2597C102.825 43.5983 106.303 43.4168 107.862 42.8322C108.207 42.7011 108.532 42.5399 108.842 42.3685C108.771 42.7868 108.791 43.2051 108.984 43.5932C109.482 44.5911 110.746 44.6617 111.731 44.6869C112.889 44.7171 114.057 44.5609 115.174 44.2635C116.073 44.0267 116.941 43.6991 117.784 43.3059C119.389 44.5155 121.643 44.4601 123.527 43.9057C126.838 42.933 129.504 40.7809 131.819 38.3012C131.56 38.8304 131.301 39.3546 131.057 39.8787C130.154 41.7939 129.229 43.7041 128.255 45.5891C126.31 49.3439 124.152 53.013 121.531 56.3495C119.043 59.5247 116.179 62.4127 113.036 64.9478C111.483 66.2028 109.853 67.3771 108.151 68.4305C106.415 69.504 104.47 70.4767 102.383 70.5069C100.697 70.5321 98.8235 69.8064 97.8943 68.3498C97.2342 67.3166 96.9549 66.0969 97.0666 64.8823C97.1174 64.2926 97.2596 63.713 97.4678 63.1636C97.6709 62.6294 98.0314 62.1506 98.2142 61.6113C98.4173 61.0216 98.0568 60.694 97.7064 61.2837C96.5639 63.2039 95.4113 65.4216 95.98 67.7148C96.4014 69.4233 97.7877 70.7287 99.377 71.4091C103.475 73.158 107.634 70.6985 110.929 68.4053C118.317 63.2644 124.065 56.4251 128.376 48.5929C129.641 46.2947 130.804 43.946 131.931 41.5822C133.043 39.2487 134.378 36.8799 135.049 34.3801C135.226 33.7047 134.267 33.0192 133.774 33.6442V33.6392ZM107.852 41.1992C106.999 41.6226 105.988 41.8342 105.044 41.6427C104.536 41.5419 104.11 41.426 104.191 40.8313C104.247 40.4382 104.435 40.035 104.617 39.6922C105.343 38.3113 106.801 37.0311 108.426 36.89C109.157 36.8295 109.954 37.0563 109.99 37.903C110.03 38.8203 109.258 39.5713 108.674 40.1862C108.482 40.3878 108.436 40.6246 108.482 40.8363C108.278 40.9674 108.07 41.0934 107.852 41.1992ZM119.81 36.1189C120.709 35.5544 122.385 35.1159 123.217 36.0685C124.167 37.1571 122.212 38.5734 121.486 39.1227C120.384 39.9543 119.287 40.7658 118.094 41.4411C117.845 41.0682 117.693 40.6246 117.693 40.0904C117.693 38.5633 118.5 36.9454 119.81 36.1189Z" fill="black"/>
<path d="M140.984 35.3827C137.953 38.1749 135.902 41.965 135.262 46.0222C135.196 46.4305 135.368 46.8286 135.795 46.9546C136.155 47.0554 136.668 46.8286 136.734 46.4254C137.339 42.6 139.202 39.0872 142.066 36.4563C142.787 35.791 141.705 34.7275 140.989 35.3878L140.984 35.3827Z" fill="black"/>
<path d="M171.461 36.6173C170.954 36.3955 170.294 36.4056 169.745 36.4106C169.542 36.4106 168.851 36.5366 169.171 36.8491C169.354 37.0255 169.628 37.086 169.852 37.2019C169.999 37.2775 170.207 37.3783 170.278 37.5396C169.573 38.5829 168.405 39.228 167.247 39.727C165.663 40.4074 163.931 40.7803 162.205 40.8257C161.402 40.8458 160.559 40.8358 159.777 40.6694C158.924 40.493 158.437 39.9941 158.005 39.2683C157.147 37.8168 156.848 36.1485 157.035 34.4904C157.112 33.81 156.167 33.5277 155.735 33.9561C153.212 36.4509 150.475 38.7744 147.286 40.3973C147.068 40.5082 146.844 40.619 146.621 40.7249C146.636 40.5636 146.641 40.3973 146.661 40.2814C146.839 39.349 147.037 38.4266 147.149 37.4791C147.383 35.4883 147.286 33.4874 146.931 31.5218C146.859 31.1186 146.362 30.8918 145.991 30.9926C145.052 31.2496 144.229 31.7184 143.528 32.3988C142.828 33.0792 143.904 34.1476 144.605 33.4672C144.905 33.1749 145.235 32.9481 145.59 32.7667C145.854 34.7373 145.798 36.7483 145.422 38.7038C145.316 39.2532 145.194 39.7975 145.103 40.3469C145.026 40.8106 144.859 41.4305 145.021 41.8942C145.382 42.9122 146.494 42.4284 147.179 42.1159C150.282 40.6946 153.004 38.5879 155.492 36.2745C155.614 37.6605 156.045 39.0264 156.797 40.2058C157.279 40.9718 157.899 41.627 158.767 41.9496C159.696 42.2923 160.773 42.3326 161.758 42.3326C163.835 42.3427 165.901 41.9194 167.811 41.1079C169.456 40.4124 171.167 39.4145 171.918 37.721C172.076 37.3682 172.02 36.965 171.69 36.7281C171.619 36.6777 171.543 36.6374 171.467 36.6021L171.461 36.6173Z" fill="black"/>
<path d="M135.857 22.5039C135.912 22.5833 135.972 22.6636 136.022 22.7423C136.403 23.3235 136.75 23.9302 136.981 24.5861C137.21 25.2213 137.25 25.8539 137.234 26.5189C137.229 26.6557 137.299 26.7731 137.446 26.7797C137.793 26.7954 138.147 26.4198 138.193 26.1057C138.452 24.3608 137.922 22.4989 136.725 21.1855C136.461 20.8915 135.999 20.7518 135.66 21.0277C135.363 21.2639 135.216 21.772 135.504 22.0846C135.627 22.2201 135.745 22.3599 135.852 22.5081L135.857 22.5039Z" fill="black"/>
<path d="M23.9434 69.2274C24.3394 69.2274 24.6424 69.1434 24.8524 68.9754C25.0624 68.8014 25.1674 68.5614 25.1674 68.2554C25.1674 67.9314 25.0684 67.6824 24.8704 67.5084C24.6724 67.3284 24.3754 67.2384 23.9794 67.2384H22.6384V69.2274H23.9434ZM24.9784 65.6094C24.9784 65.0274 24.6304 64.7364 23.9344 64.7364H22.6384V66.4914H23.9344C24.2944 66.4914 24.5584 66.4134 24.7264 66.2574C24.8944 66.0954 24.9784 65.8794 24.9784 65.6094ZM25.9234 65.5014C25.9234 65.8254 25.8544 66.0984 25.7164 66.3204C25.5784 66.5364 25.3834 66.6954 25.1314 66.7974C25.4434 66.9114 25.6834 67.0914 25.8514 67.3374C26.0254 67.5834 26.1124 67.8894 26.1124 68.2554C26.1124 68.8194 25.9324 69.2514 25.5724 69.5514C25.2124 69.8514 24.7054 70.0014 24.0514 70.0014H21.6934V63.9534H23.9524C24.6064 63.9534 25.0984 64.0884 25.4284 64.3584C25.7584 64.6284 25.9234 65.0094 25.9234 65.5014Z" fill="black"/>
<path d="M30.5238 70.0014H29.8308L29.6958 69.6414C29.5278 69.7794 29.3298 69.8904 29.1018 69.9744C28.8798 70.0524 28.6338 70.0914 28.3638 70.0914C27.8778 70.0914 27.5178 69.9744 27.2838 69.7404C27.0498 69.5004 26.9328 69.1554 26.9328 68.7054C26.9328 68.2494 27.0798 67.9104 27.3738 67.6884C27.6678 67.4664 28.1478 67.3554 28.8138 67.3554C28.9518 67.3554 29.0838 67.3584 29.2098 67.3644C29.3358 67.3704 29.4618 67.3794 29.5878 67.3914V67.2384C29.5878 66.8964 29.5188 66.6564 29.3808 66.5184C29.2488 66.3804 29.0088 66.3114 28.6608 66.3114C28.4688 66.3114 28.2618 66.3414 28.0398 66.4014C27.8238 66.4554 27.6018 66.5424 27.3738 66.6624L27.0948 65.9964C27.3528 65.8584 27.6198 65.7504 27.8958 65.6724C28.1778 65.5944 28.4718 65.5554 28.7778 65.5554C29.1018 65.5554 29.3748 65.5854 29.5968 65.6454C29.8248 65.7054 30.0048 65.8074 30.1368 65.9514C30.2748 66.0894 30.3738 66.2694 30.4338 66.4914C30.4938 66.7134 30.5238 66.9864 30.5238 67.3104V70.0014ZM28.5888 69.3444C28.7448 69.3444 28.9158 69.3084 29.1018 69.2364C29.2878 69.1644 29.4498 69.0714 29.5878 68.9574V68.1204C29.4678 68.1084 29.3418 68.0994 29.2098 68.0934C29.0778 68.0814 28.9308 68.0754 28.7688 68.0754C28.4388 68.0754 28.2048 68.1234 28.0668 68.2194C27.9348 68.3094 27.8688 68.4654 27.8688 68.6874C27.8688 69.1254 28.1088 69.3444 28.5888 69.3444Z" fill="black"/>
<path d="M33.539 70.0914C32.795 70.0914 32.258 69.9084 31.928 69.5424C31.604 69.1764 31.442 68.6034 31.442 67.8234C31.442 67.0434 31.598 66.4704 31.91 66.1044C32.228 65.7384 32.714 65.5554 33.368 65.5554C34.01 65.5554 34.49 65.7384 34.808 66.1044C35.126 66.4644 35.285 67.0344 35.285 67.8144V68.1294H32.396C32.426 68.5494 32.528 68.8554 32.702 69.0474C32.882 69.2394 33.164 69.3354 33.548 69.3354C33.8 69.3354 34.043 69.2994 34.277 69.2274C34.511 69.1554 34.742 69.0504 34.97 68.9124L35.24 69.6234C35.012 69.7614 34.751 69.8754 34.457 69.9654C34.169 70.0494 33.863 70.0914 33.539 70.0914ZM34.322 67.4094C34.292 67.0494 34.202 66.7794 34.052 66.5994C33.902 66.4134 33.674 66.3204 33.368 66.3204C32.768 66.3204 32.447 66.6834 32.405 67.4094H34.322Z" fill="black"/>
<path d="M37.2983 64.7544H36.3623V63.7734H37.2983V64.7544ZM35.5793 71.2344H35.7323C35.8583 71.2344 35.9633 71.2194 36.0473 71.1894C36.1313 71.1594 36.1973 71.1084 36.2453 71.0364C36.2933 70.9704 36.3263 70.8804 36.3443 70.7664C36.3623 70.6584 36.3713 70.5204 36.3713 70.3524V65.6454H37.2983V70.1724C37.2983 70.4904 37.2773 70.7634 37.2353 70.9914C37.1933 71.2254 37.1123 71.4174 36.9923 71.5674C36.8783 71.7174 36.7193 71.8284 36.5153 71.9004C36.3173 71.9724 36.0623 72.0084 35.7503 72.0084H35.5793V71.2344Z" fill="black"/>
<path d="M38.6558 65.6454H39.5918V70.0014H38.6558V65.6454ZM38.6558 63.7734H39.5918V64.7544H38.6558V63.7734Z" fill="black"/>
<path d="M41.6878 66.0414C41.8798 65.8914 42.0928 65.7744 42.3268 65.6904C42.5608 65.6004 42.8128 65.5554 43.0828 65.5554C43.5928 65.5554 43.9618 65.6784 44.1898 65.9244C44.4238 66.1704 44.5408 66.5634 44.5408 67.1034V70.0014H43.6048V67.3014C43.6048 66.9414 43.5418 66.6864 43.4158 66.5364C43.2958 66.3864 43.1158 66.3114 42.8758 66.3114C42.6838 66.3114 42.4978 66.3444 42.3178 66.4104C42.1438 66.4704 41.9668 66.5604 41.7868 66.6804V70.0014H40.8508V65.6454H41.5528L41.6878 66.0414Z" fill="black"/>
<path d="M52.0061 69.2274V70.0014H48.2891V63.9534H49.2341V69.2274H52.0061Z" fill="black"/>
<path d="M54.5889 70.0914C53.8449 70.0914 53.3079 69.9084 52.9778 69.5424C52.6538 69.1764 52.4918 68.6034 52.4918 67.8234C52.4918 67.0434 52.6479 66.4704 52.9599 66.1044C53.2779 65.7384 53.7639 65.5554 54.4179 65.5554C55.0599 65.5554 55.5398 65.7384 55.8578 66.1044C56.1758 66.4644 56.3349 67.0344 56.3349 67.8144V68.1294H53.4459C53.4759 68.5494 53.5779 68.8554 53.7519 69.0474C53.9319 69.2394 54.2139 69.3354 54.5979 69.3354C54.8499 69.3354 55.0929 69.2994 55.3269 69.2274C55.5609 69.1554 55.7919 69.0504 56.0199 68.9124L56.2899 69.6234C56.0619 69.7614 55.8009 69.8754 55.5069 69.9654C55.2189 70.0494 54.9129 70.0914 54.5889 70.0914ZM55.3718 67.4094C55.3418 67.0494 55.2519 66.7794 55.1019 66.5994C54.9519 66.4134 54.7239 66.3204 54.4179 66.3204C53.8179 66.3204 53.4968 66.6834 53.4548 67.4094H55.3718Z" fill="black"/>
<path d="M59.2031 70.0914C58.4591 70.0914 57.9221 69.9084 57.5921 69.5424C57.2681 69.1764 57.1061 68.6034 57.1061 67.8234C57.1061 67.0434 57.2621 66.4704 57.5741 66.1044C57.8921 65.7384 58.3781 65.5554 59.0321 65.5554C59.6741 65.5554 60.1541 65.7384 60.4721 66.1044C60.7901 66.4644 60.9491 67.0344 60.9491 67.8144V68.1294H58.0601C58.0901 68.5494 58.1921 68.8554 58.3661 69.0474C58.5461 69.2394 58.8281 69.3354 59.2121 69.3354C59.4641 69.3354 59.7071 69.2994 59.9411 69.2274C60.1751 69.1554 60.4061 69.0504 60.6341 68.9124L60.9041 69.6234C60.6761 69.7614 60.4151 69.8754 60.1211 69.9654C59.8331 70.0494 59.5271 70.0914 59.2031 70.0914ZM59.9861 67.4094C59.9561 67.0494 59.8661 66.7794 59.7161 66.5994C59.5661 66.4134 59.3381 66.3204 59.0321 66.3204C58.4321 66.3204 58.1111 66.6834 58.0691 67.4094H59.9861Z" fill="black"/>
<path d="M24.3304 80.3184C24.9184 80.3184 25.4794 80.1714 26.0134 79.8774L26.2654 80.6244C25.9894 80.7804 25.6804 80.8974 25.3384 80.9754C25.0024 81.0534 24.6634 81.0924 24.3214 81.0924C23.3134 81.0924 22.5814 80.8254 22.1254 80.2914C21.6694 79.7574 21.4414 78.9864 21.4414 77.9784C21.4414 76.9104 21.6694 76.1244 22.1254 75.6204C22.5814 75.1164 23.2564 74.8644 24.1504 74.8644C24.6064 74.8644 25.0114 74.9394 25.3654 75.0894C25.7254 75.2394 26.0164 75.4344 26.2384 75.6744L25.6984 76.2684C25.5064 76.0644 25.2844 75.9114 25.0324 75.8094C24.7864 75.7014 24.4924 75.6474 24.1504 75.6474C23.5564 75.6474 23.1124 75.8334 22.8184 76.2054C22.5304 76.5774 22.3864 77.1684 22.3864 77.9784C22.3864 78.7704 22.5394 79.3584 22.8454 79.7424C23.1514 80.1264 23.6464 80.3184 24.3304 80.3184Z" fill="black"/>
<path d="M28.281 81.0024H27.336V74.9544H30.99V75.7374H28.281V77.4564H30.792V78.2394H28.281V81.0024Z" fill="black"/>
<path d="M34.4759 81.0924C34.0199 81.0924 33.6269 81.0234 33.2969 80.8854C32.9669 80.7474 32.6939 80.5464 32.4779 80.2824C32.2619 80.0124 32.0999 79.6854 31.9919 79.3014C31.8899 78.9174 31.8389 78.4764 31.8389 77.9784C31.8389 76.9104 32.0579 76.1244 32.4959 75.6204C32.9399 75.1164 33.5999 74.8644 34.4759 74.8644C36.2279 74.8644 37.1039 75.9024 37.1039 77.9784C37.1039 79.0464 36.8879 79.8324 36.4559 80.3364C36.0239 80.8404 35.3639 81.0924 34.4759 81.0924ZM36.1589 77.9784C36.1589 77.1564 36.0179 76.5624 35.7359 76.1964C35.4599 75.8304 35.0399 75.6474 34.4759 75.6474C33.9119 75.6474 33.4889 75.8304 33.2069 76.1964C32.9249 76.5624 32.7839 77.1564 32.7839 77.9784C32.7839 78.8124 32.9249 79.4124 33.2069 79.7784C33.4889 80.1384 33.9119 80.3184 34.4759 80.3184C35.0399 80.3184 35.4599 80.1384 35.7359 79.7784C36.0179 79.4124 36.1589 78.8124 36.1589 77.9784Z" fill="black"/>
<path d="M39.044 81.1824H38.027V80.2284H39.044V81.1824Z" fill="black"/>
<path d="M46.4514 80.2284V81.0024H42.7344V74.9544H43.6794V80.2284H46.4514Z" fill="black"/>
<path d="M49.6517 80.3184C49.8677 80.3184 50.0777 80.3064 50.2817 80.2824C50.4857 80.2584 50.6747 80.2224 50.8487 80.1744V78.5724H49.4357V77.8074H51.7847V80.6964C51.4967 80.8164 51.1667 80.9124 50.7947 80.9844C50.4287 81.0564 50.0447 81.0924 49.6427 81.0924C48.6347 81.0924 47.9027 80.8254 47.4467 80.2914C46.9907 79.7574 46.7627 78.9864 46.7627 77.9784C46.7627 76.9104 46.9967 76.1244 47.4647 75.6204C47.9387 75.1164 48.6287 74.8644 49.5347 74.8644C50.0087 74.8644 50.4377 74.9424 50.8217 75.0984C51.2117 75.2544 51.5237 75.4674 51.7577 75.7374L51.2177 76.3404C50.8037 75.8784 50.2427 75.6474 49.5347 75.6474C48.9347 75.6474 48.4787 75.8334 48.1667 76.2054C47.8607 76.5774 47.7077 77.1684 47.7077 77.9784C47.7077 78.7704 47.8607 79.3584 48.1667 79.7424C48.4727 80.1264 48.9677 80.3184 49.6517 80.3184Z" fill="black"/>
<path d="M59.5601 80.2284V81.0024H55.6631V74.9544H59.4701V75.7374H56.6081V77.4654H59.3711V78.2304H56.6081V80.2284H59.5601Z" fill="black"/>
<path d="M61.6874 74.6484V79.8324C61.6874 80.0364 61.7144 80.1684 61.7684 80.2284C61.8224 80.2824 61.9304 80.3094 62.0924 80.3094V81.0654C62.0384 81.0774 61.9934 81.0834 61.9574 81.0834C61.9214 81.0894 61.8674 81.0924 61.7954 81.0924C61.4474 81.0924 61.1864 80.9964 61.0124 80.8044C60.8444 80.6064 60.7604 80.2824 60.7604 79.8324V74.7564L61.6874 74.6484Z" fill="black"/>
<path d="M64.8809 81.0924C64.1369 81.0924 63.5999 80.9094 63.2699 80.5434C62.9459 80.1774 62.7839 79.6044 62.7839 78.8244C62.7839 78.0444 62.9399 77.4714 63.2519 77.1054C63.5699 76.7394 64.0559 76.5564 64.7099 76.5564C65.3519 76.5564 65.8319 76.7394 66.1499 77.1054C66.4679 77.4654 66.6269 78.0354 66.6269 78.8154V79.1304H63.7379C63.7679 79.5504 63.8699 79.8564 64.0439 80.0484C64.2239 80.2404 64.5059 80.3364 64.8899 80.3364C65.1419 80.3364 65.3849 80.3004 65.6189 80.2284C65.8529 80.1564 66.0839 80.0514 66.3119 79.9134L66.5819 80.6244C66.3539 80.7624 66.0929 80.8764 65.7989 80.9664C65.5109 81.0504 65.2049 81.0924 64.8809 81.0924ZM65.6639 78.4104C65.6339 78.0504 65.5439 77.7804 65.3939 77.6004C65.2439 77.4144 65.0159 77.3214 64.7099 77.3214C64.1099 77.3214 63.7889 77.6844 63.7469 78.4104H65.6639Z" fill="black"/>
<path d="M69.5581 80.3274C69.7801 80.3274 69.9871 80.3004 70.1791 80.2464C70.3711 80.1864 70.5601 80.1054 70.7461 80.0034L70.9711 80.7234C70.7851 80.8374 70.5721 80.9274 70.3321 80.9934C70.0921 81.0594 69.8341 81.0924 69.5581 81.0924C68.8081 81.0924 68.2591 80.9124 67.9111 80.5524C67.5691 80.1924 67.3981 79.6164 67.3981 78.8244C67.3981 78.0444 67.5661 77.4714 67.9021 77.1054C68.2381 76.7394 68.7601 76.5564 69.4681 76.5564C70.1041 76.5564 70.6171 76.7454 71.0071 77.1234L70.5211 77.7534C70.2331 77.4654 69.8911 77.3214 69.4951 77.3214C69.1171 77.3214 68.8291 77.4354 68.6311 77.6634C68.4331 77.8914 68.3341 78.2784 68.3341 78.8244C68.3341 79.3644 68.4361 79.7514 68.6401 79.9854C68.8441 80.2134 69.1501 80.3274 69.5581 80.3274Z" fill="black"/>
<path d="M73.0743 77.4114V79.4004C73.0743 79.7484 73.1223 79.9914 73.2183 80.1294C73.3143 80.2674 73.5003 80.3364 73.7763 80.3364C73.9143 80.3364 74.0523 80.3154 74.1903 80.2734C74.3343 80.2314 74.4693 80.1834 74.5953 80.1294L74.7753 80.8224C74.5833 80.9124 74.3793 80.9784 74.1633 81.0204C73.9473 81.0684 73.7343 81.0924 73.5243 81.0924C73.2603 81.0924 73.0383 81.0594 72.8583 80.9934C72.6843 80.9274 72.5433 80.8314 72.4353 80.7054C72.3333 80.5734 72.2583 80.4144 72.2103 80.2284C72.1683 80.0424 72.1473 79.8264 72.1473 79.5804V77.4114H71.4363V76.6464H72.1473V75.7734L73.0743 75.6024V76.6464H74.6133V77.4114H73.0743Z" fill="black"/>
<path d="M76.27 76.6464L76.36 77.1684C76.732 76.7604 77.173 76.5564 77.683 76.5564C77.887 76.5564 78.088 76.5984 78.286 76.6824V77.4834C78.184 77.4354 78.079 77.3994 77.971 77.3754C77.869 77.3454 77.758 77.3304 77.638 77.3304C77.422 77.3304 77.212 77.3814 77.008 77.4834C76.804 77.5854 76.63 77.7144 76.486 77.8704V81.0024H75.55V76.6464H76.27Z" fill="black"/>
<path d="M78.6394 78.8244C78.6394 78.0324 78.8044 77.4564 79.1344 77.0964C79.4704 76.7364 79.9924 76.5564 80.7004 76.5564C81.4084 76.5564 81.9274 76.7394 82.2574 77.1054C82.5934 77.4714 82.7614 78.0444 82.7614 78.8244C82.7614 79.6164 82.5934 80.1924 82.2574 80.5524C81.9274 80.9124 81.4084 81.0924 80.7004 81.0924C79.9924 81.0924 79.4704 80.9124 79.1344 80.5524C78.8044 80.1924 78.6394 79.6164 78.6394 78.8244ZM79.5664 78.8244C79.5664 79.3344 79.6534 79.7154 79.8274 79.9674C80.0074 80.2134 80.2984 80.3364 80.7004 80.3364C81.1024 80.3364 81.3904 80.2134 81.5644 79.9674C81.7384 79.7154 81.8254 79.3344 81.8254 78.8244C81.8254 78.3144 81.7384 77.9364 81.5644 77.6904C81.3904 77.4444 81.1024 77.3214 80.7004 77.3214C80.2984 77.3214 80.0074 77.4444 79.8274 77.6904C79.6534 77.9364 79.5664 78.3144 79.5664 78.8244Z" fill="black"/>
<path d="M84.5697 77.0424C84.7617 76.8924 84.9747 76.7754 85.2087 76.6914C85.4427 76.6014 85.6947 76.5564 85.9647 76.5564C86.4747 76.5564 86.8437 76.6794 87.0717 76.9254C87.3057 77.1714 87.4227 77.5644 87.4227 78.1044V81.0024H86.4867V78.3024C86.4867 77.9424 86.4237 77.6874 86.2977 77.5374C86.1777 77.3874 85.9977 77.3124 85.7577 77.3124C85.5657 77.3124 85.3797 77.3454 85.1997 77.4114C85.0257 77.4714 84.8487 77.5614 84.6687 77.6814V81.0024H83.7327V76.6464H84.4347L84.5697 77.0424Z" fill="black"/>
<path d="M88.6305 76.6464H89.5665V81.0024H88.6305V76.6464ZM88.6305 74.7744H89.5665V75.7554H88.6305V74.7744Z" fill="black"/>
<path d="M92.7964 80.3274C93.0184 80.3274 93.2254 80.3004 93.4174 80.2464C93.6094 80.1864 93.7984 80.1054 93.9844 80.0034L94.2094 80.7234C94.0234 80.8374 93.8104 80.9274 93.5704 80.9934C93.3304 81.0594 93.0724 81.0924 92.7964 81.0924C92.0464 81.0924 91.4974 80.9124 91.1494 80.5524C90.8074 80.1924 90.6364 79.6164 90.6364 78.8244C90.6364 78.0444 90.8044 77.4714 91.1404 77.1054C91.4764 76.7394 91.9984 76.5564 92.7064 76.5564C93.3424 76.5564 93.8554 76.7454 94.2454 77.1234L93.7594 77.7534C93.4714 77.4654 93.1294 77.3214 92.7334 77.3214C92.3554 77.3214 92.0674 77.4354 91.8694 77.6634C91.6714 77.8914 91.5724 78.2784 91.5724 78.8244C91.5724 79.3644 91.6744 79.7514 91.8784 79.9854C92.0824 80.2134 92.3884 80.3274 92.7964 80.3274Z" fill="black"/>
<path d="M96.3871 78.3024C96.5191 78.3564 96.6541 78.4044 96.7921 78.4464C96.9301 78.4884 97.1131 78.5514 97.3411 78.6354C97.6471 78.7434 97.8721 78.8934 98.0161 79.0854C98.1601 79.2714 98.2321 79.5174 98.2321 79.8234C98.2321 80.2434 98.0911 80.5614 97.8091 80.7774C97.5271 80.9874 97.0711 81.0924 96.4411 81.0924C96.1171 81.0924 95.8171 81.0624 95.5411 81.0024C95.2711 80.9364 95.0191 80.8434 94.7851 80.7234L95.0821 80.0124C95.2621 80.1144 95.4661 80.1954 95.6941 80.2554C95.9221 80.3094 96.1711 80.3364 96.4411 80.3364C96.7471 80.3364 96.9601 80.2944 97.0801 80.2104C97.2061 80.1204 97.2691 79.9974 97.2691 79.8414C97.2691 79.7094 97.2331 79.6044 97.1611 79.5264C97.0891 79.4424 96.9631 79.3674 96.7831 79.3014C96.6271 79.2414 96.4591 79.1844 96.2791 79.1304C96.0991 79.0764 95.9341 79.0224 95.7841 78.9684C95.4721 78.8484 95.2471 78.6984 95.1091 78.5184C94.9711 78.3384 94.9021 78.1134 94.9021 77.8434C94.9021 77.4294 95.0401 77.1114 95.3161 76.8894C95.5981 76.6674 96.0481 76.5564 96.6661 76.5564C96.9781 76.5564 97.2541 76.5894 97.4941 76.6554C97.7341 76.7154 97.9411 76.7994 98.1151 76.9074L97.8181 77.6094C97.6621 77.5074 97.5001 77.4324 97.3321 77.3844C97.1641 77.3364 96.9721 77.3124 96.7561 77.3124C96.4321 77.3124 96.2011 77.3544 96.0631 77.4384C95.9311 77.5164 95.8651 77.6244 95.8651 77.7624C95.8651 77.8764 95.8981 77.9754 95.9641 78.0594C96.0301 78.1374 96.1711 78.2184 96.3871 78.3024Z" fill="black"/>
<path d="M105.576 74.9544H106.521V78.7074C106.521 79.5354 106.332 80.1414 105.954 80.5254C105.582 80.9034 104.991 81.0924 104.181 81.0924C103.371 81.0924 102.777 80.9034 102.399 80.5254C102.021 80.1414 101.832 79.5354 101.832 78.7074V74.9544H102.777V78.8514C102.777 79.3614 102.894 79.7334 103.128 79.9674C103.362 80.2014 103.713 80.3184 104.181 80.3184C104.649 80.3184 104.997 80.2014 105.225 79.9674C105.459 79.7334 105.576 79.3614 105.576 78.8514V74.9544Z" fill="black"/>
<path d="M108.478 81.1824H107.461V80.2284H108.478V81.1824Z" fill="black"/>
<path d="M110.591 81.0024H109.646V74.9544H110.591V77.4654H111.032L113.255 74.9544H114.38L111.806 77.8344L114.236 81.0024H113.111L111.032 78.2304H110.591V81.0024Z" fill="black"/>
<path d="M121.413 80.2284V81.0024H117.696V74.9544H118.641V80.2284H121.413Z" fill="black"/>
<path d="M122.187 76.6464H123.123V81.0024H122.187V76.6464ZM122.187 74.7744H123.123V75.7554H122.187V74.7744Z" fill="black"/>
<path d="M125.201 76.9884C125.411 76.8504 125.621 76.7454 125.831 76.6734C126.047 76.5954 126.275 76.5564 126.515 76.5564C126.803 76.5564 127.037 76.5984 127.217 76.6824C127.403 76.7604 127.547 76.8954 127.649 77.0874C127.853 76.9254 128.075 76.7964 128.315 76.7004C128.555 76.6044 128.81 76.5564 129.08 76.5564C129.584 76.5564 129.935 76.6824 130.133 76.9344C130.331 77.1804 130.43 77.5704 130.43 78.1044V81.0024H129.494V78.3024C129.494 77.9364 129.446 77.6814 129.35 77.5374C129.254 77.3874 129.092 77.3124 128.864 77.3124C128.702 77.3124 128.534 77.3454 128.36 77.4114C128.192 77.4774 128.021 77.5704 127.847 77.6904C127.865 77.8104 127.874 77.9484 127.874 78.1044V81.0024H126.947V78.3024C126.947 77.9364 126.902 77.6814 126.812 77.5374C126.722 77.3874 126.554 77.3124 126.308 77.3124C126.14 77.3124 125.975 77.3424 125.813 77.4024C125.657 77.4624 125.492 77.5524 125.318 77.6724V81.0024H124.382V76.6464H125.084L125.201 76.9884Z" fill="black"/>
<path d="M131.635 76.6464H132.571V81.0024H131.635V76.6464ZM131.635 74.7744H132.571V75.7554H131.635V74.7744Z" fill="black"/>
<path d="M135.072 77.4114V79.4004C135.072 79.7484 135.12 79.9914 135.216 80.1294C135.312 80.2674 135.498 80.3364 135.774 80.3364C135.912 80.3364 136.05 80.3154 136.188 80.2734C136.332 80.2314 136.467 80.1834 136.593 80.1294L136.773 80.8224C136.581 80.9124 136.377 80.9784 136.161 81.0204C135.945 81.0684 135.732 81.0924 135.522 81.0924C135.258 81.0924 135.036 81.0594 134.856 80.9934C134.682 80.9274 134.541 80.8314 134.433 80.7054C134.331 80.5734 134.256 80.4144 134.208 80.2284C134.166 80.0424 134.145 79.8264 134.145 79.5804V77.4114H133.434V76.6464H134.145V75.7734L135.072 75.6024V76.6464H136.611V77.4114H135.072Z" fill="black"/>
<path d="M139.403 81.0924C138.659 81.0924 138.122 80.9094 137.792 80.5434C137.468 80.1774 137.306 79.6044 137.306 78.8244C137.306 78.0444 137.462 77.4714 137.774 77.1054C138.092 76.7394 138.578 76.5564 139.232 76.5564C139.874 76.5564 140.354 76.7394 140.672 77.1054C140.99 77.4654 141.149 78.0354 141.149 78.8154V79.1304H138.26C138.29 79.5504 138.392 79.8564 138.566 80.0484C138.746 80.2404 139.028 80.3364 139.412 80.3364C139.664 80.3364 139.907 80.3004 140.141 80.2284C140.375 80.1564 140.606 80.0514 140.834 79.9134L141.104 80.6244C140.876 80.7624 140.615 80.8764 140.321 80.9664C140.033 81.0504 139.727 81.0924 139.403 81.0924ZM140.186 78.4104C140.156 78.0504 140.066 77.7804 139.916 77.6004C139.766 77.4144 139.538 77.3214 139.232 77.3214C138.632 77.3214 138.311 77.6844 138.269 78.4104H140.186Z" fill="black"/>
<path d="M145.773 74.6484V81.0024H145.062L144.936 80.6694C144.642 80.9514 144.264 81.0924 143.802 81.0924C143.19 81.0924 142.722 80.9094 142.398 80.5434C142.08 80.1774 141.921 79.6044 141.921 78.8244C141.921 78.0504 142.074 77.4804 142.38 77.1144C142.686 76.7424 143.109 76.5564 143.649 76.5564C143.901 76.5564 144.126 76.5924 144.324 76.6644C144.528 76.7364 144.699 76.8324 144.837 76.9524V74.7564L145.773 74.6484ZM143.919 80.3454C144.099 80.3454 144.267 80.3154 144.423 80.2554C144.579 80.1894 144.717 80.1024 144.837 79.9944V77.6724C144.717 77.5584 144.579 77.4714 144.423 77.4114C144.267 77.3454 144.102 77.3124 143.928 77.3124C143.568 77.3124 143.298 77.4294 143.118 77.6634C142.938 77.8974 142.848 78.2844 142.848 78.8244C142.848 79.3764 142.935 79.7694 143.109 80.0034C143.289 80.2314 143.559 80.3454 143.919 80.3454Z" fill="black"/>
<rect x="14" y="57" width="188" height="1.5" fill="black"/>
<path fill-rule="evenodd" clip-rule="evenodd" d="M25.5 36H22L28.75 44.5L22 53H25.5L30.5 46.7037L35.5 53H39L32.25 44.5L39 36H35.5L30.5 42.2963L25.5 36Z" fill="black"/>
</svg>
