<svg width="64" height="64" viewBox="0 0 64 64" fill="none" xmlns="http://www.w3.org/2000/svg">
<path fill-rule="evenodd" clip-rule="evenodd" d="M32.726 29.4696V7.88865L45.4333 4.13932V29.4696H32.726ZM31.226 6.7673L45.4333 2.57539L46.9333 2.13281V3.69674V29.4696V30.9696H45.4333H32.726H31.226V29.4696V6.7673ZM32.726 34.5294V56.1103L45.4333 59.8596V34.5294H32.726ZM31.226 57.2317L45.4333 61.4236L46.9333 61.8661V60.3022V34.5294V33.0294H45.4333H32.726H31.226V34.5294V57.2317ZM18.5664 12.0052V29.4696H27.6663V9.29429L18.5664 12.0052ZM27.6663 7.72915L17.0664 10.8869V29.4696V30.9696H18.5664H27.6663H29.1663V29.4696V8.84744V7.28229L27.6663 7.72915ZM18.5664 34.5293V51.9938L27.6663 54.7047V34.5293H18.5664ZM17.0664 53.1121L27.6663 56.2698L29.1663 56.7167V55.1515V34.5293V33.0293H27.6663H18.5664H17.0664V34.5293V53.1121Z" fill="#EA1917"/>
</svg>
