<svg width="64" height="64" viewBox="0 0 64 64" fill="none" xmlns="http://www.w3.org/2000/svg">
<path fill-rule="evenodd" clip-rule="evenodd" d="M14.9844 5.75C14.9844 4.7835 15.7679 4 16.7344 4H47.2677C48.2342 4 49.0177 4.7835 49.0177 5.75V58.25C49.0177 59.2165 48.2342 60 47.2677 60H36.801C36.3868 60 36.051 59.6642 36.051 59.25C36.051 58.8358 36.3868 58.5 36.801 58.5H47.2677C47.4058 58.5 47.5177 58.3881 47.5177 58.25V5.75C47.5177 5.61193 47.4058 5.5 47.2677 5.5H16.7344C16.5963 5.5 16.4844 5.61193 16.4844 5.75V58.25C16.4844 58.3881 16.5963 58.5 16.7344 58.5H31.251V42.4375L25.3036 47.8067C24.9962 48.0843 24.5219 48.06 24.2443 47.7526C23.9668 47.4451 23.991 46.9709 24.2985 46.6933L31.4963 40.1952C31.6296 40.0739 31.8067 40 32.001 40C32.1953 40 32.3723 40.0738 32.5055 40.195L39.7036 46.6933C40.0111 46.9709 40.0353 47.4451 39.7577 47.7526C39.4802 48.06 39.0059 48.0843 38.6985 47.8067L32.751 42.4375V59.25C32.751 59.6642 32.4153 60 32.001 60H16.7344C15.7679 60 14.9844 59.2165 14.9844 58.25V5.75ZM27.9719 9.94727C27.9719 9.53305 28.3077 9.19727 28.7219 9.19727L35.9112 9.19727C36.3254 9.19727 36.6612 9.53305 36.6612 9.94727C36.6612 10.3615 36.3254 10.6973 35.9112 10.6973L28.7219 10.6973C28.3077 10.6973 27.9719 10.3615 27.9719 9.94727Z" fill="#EA1917"/>
</svg>
