<svg width="64" height="64" viewBox="0 0 64 64" fill="none" xmlns="http://www.w3.org/2000/svg">
<path fill-rule="evenodd" clip-rule="evenodd" d="M3.94601 11.7852C2.98057 11.7852 2.19601 12.5665 2.19601 13.5341V13.5555V13.577V13.5986V13.6202V13.6418V13.6635V13.6852V13.707V13.7288V13.7507V13.7726V13.7945V13.8166V13.8386V13.8607V13.8828V13.905V13.9272V13.9495V13.9718V13.9942V14.0166V14.039V14.0615V14.084V14.1066V14.1292V14.1519V14.1746V14.1973V14.2201V14.2429V14.2658V14.2887V14.3116V14.3346V14.3576V14.3807V14.4038V14.4269V14.4501V14.4733V14.4966V14.5199V14.5432V14.5666V14.59V14.6135V14.637V14.6605V14.684V14.7076V14.7313V14.755V14.7787V14.8024V14.8262V14.85V14.8739V14.8978V14.9217V14.9456V14.9696V14.9937V15.0177V15.0418V15.066V15.0901V15.1143V15.1385V15.1628V15.1871V15.2114V15.2358V15.2602V15.2846V15.3091V15.3336V15.3581V15.3827V15.4072V15.4319V15.4565V15.4812V15.5059V15.5306V15.5554V15.5802V15.605V15.6299V15.6547V15.6797V15.7046V15.7296V15.7546V15.7796V15.8046V15.8297V15.8548V15.88V15.9051V15.9303V15.9555V15.9808V16.0061V16.0313V16.0567V16.082V16.1074V16.1328V16.1582V16.1836V16.2091V16.2346V16.2601V16.2857V16.3112V16.3368V16.3624V16.3881V16.4137V16.4394V16.4651V16.4909V16.5166V16.5424V16.5682V16.594V16.6198V16.6457V16.6715V16.6974V16.7234V16.7493V16.7752V16.8012V16.8272V16.8532V16.8793V16.9053V16.9314V16.9575V16.9836V17.0097V17.0359V17.062V17.0882V17.1144V17.1406V17.1669V17.1931V17.2194V17.2457V17.272V17.2983V17.3246V17.3509V17.3773V17.4037V17.4301V17.4565V17.4829V17.5093V17.5358V17.5622V17.5887V17.6152V17.6417V17.6682V17.6947V17.7213V17.7478V17.7744V17.801V17.8276V17.8542V17.8808V17.9074V17.934V17.9607V17.9873V18.014V18.0407V18.0673V18.094V18.1207V18.1475V18.1742V18.2009V18.2277V18.2544V18.2812V18.3079V18.3347V18.3615V18.3883V18.4151V18.4419V18.4687V18.4955V18.5223V18.5491V18.576V18.6028V18.6296V18.6565V18.6834V18.7102V18.7371V18.7639V18.7908V18.8177V18.8446V18.8715V18.8984V18.9253V18.9521V18.979V19.0059V19.0329V19.0598V19.0867V19.1136V19.1405V19.1674V19.1943V19.2212V19.2482V19.2751V19.302V19.3289V19.3558V19.3827V19.4097V19.4366V19.4635V19.4904V19.5173V19.5442V19.5711V19.5981V19.625V19.6519V19.6788V19.7057V19.7326V19.7595V19.7864V19.8132V19.8401V19.867V19.8939V19.9208V19.9476V19.9745V20.0013V20.0282V20.055V20.0819V20.1087V20.1356V20.1624V20.1892V20.216V20.2428V20.2696V20.2964V20.3232V20.35V20.3767V20.4035V20.4302V20.457V20.4837V20.5104V20.5372V20.5639V20.5906V20.6173V20.6439V20.6706V20.6973V20.7239V20.7506V20.7772V20.8038V20.8304V20.857V20.8836V20.9101V20.9367V20.9632V20.9898V21.0163V21.0428V21.0693V21.0958V21.1223V21.1487V21.1751V21.2016V21.228V21.2544V21.2808V21.3071V21.3335V21.3598V21.3861V21.4124V21.4387V21.465V21.4913V21.5175V21.5437V21.5699V21.5961V21.6223V21.6484V21.6746V21.7007V21.7268V21.7529V21.7789V21.805V21.831V21.857V21.883V21.909V21.9349V21.9608V21.9867V22.0126V22.0385V22.0643V22.0902V22.116V22.1418V22.1675V22.1932V22.219V22.2447V22.2703V22.296V22.3216V22.3472V22.3728V22.3983V22.4239V22.4494V22.4748V22.5003V22.5257V22.5511V22.5765V22.6019V22.6272V22.6525V22.6778V22.7031V22.7283V22.7535V22.7787V22.8038V22.8289V22.854V22.8791V22.9041V22.9291V22.9541V22.9791V23.004V23.0289V23.0538V23.0786V23.1034V23.1282V23.1529V23.1777V23.2024V23.227V23.2517V23.2762V23.3008V23.3254V23.3499V23.3743V23.3988V23.4232V23.4476V23.4719V23.4962V23.5205V23.5447V23.569V23.5931V23.6173V23.6414V23.6655V23.6895V23.7135V23.7375V23.7615V23.7854V23.8092V23.8331V23.8569V23.8806V23.9044V23.928V23.9517V23.9753V23.9989V24.0224V24.0459V24.0694V24.0928V24.1162V24.1396V24.1629V24.1862V24.2094V24.2326V24.2558V24.2789V24.302V24.325V24.348V24.371V24.3939V24.4168V24.4396V24.4624V24.4852V24.5079V24.5306V24.5532V24.5758V24.5983V24.6209V24.6433V24.6657V24.6881V24.7104V24.7327V24.755V24.7772V24.7993V24.8215V24.8435V24.8656V24.8875V24.9095V24.9314V24.9532V24.975V24.9968V25.0185V25.0401V25.0617V25.0833V25.1048V25.1263V25.1477V25.1691V25.1904V25.2117V25.2329V25.2541V25.2753V25.2963V25.3174V25.3384V25.3593V25.3802V25.401V25.4218V25.4426V25.4632V25.4839V25.5045V25.525V25.5455V25.5659V25.5863V25.6066V25.6269V25.6471V25.6673V25.6874V25.7075V25.7275V25.7475V25.7674V25.7872V25.807V25.8268V25.8465V25.8661V25.8857V25.9052V25.9247V25.9441V25.9635V25.9828V26.002V26.0212V26.0403V26.0594V26.0784V26.0974V26.1163V26.1352C2.19601 26.5494 2.5318 26.8852 2.94601 26.8852C3.36022 26.8852 3.69601 26.5494 3.69601 26.1352V26.1163V26.0974V26.0784V26.0594V26.0403V26.0212V26.002V25.9828V25.9635V25.9441V25.9247V25.9052V25.8857V25.8661V25.8465V25.8268V25.807V25.7872V25.7674V25.7475V25.7275V25.7075V25.6874V25.6673V25.6471V25.6269V25.6066V25.5863V25.5659V25.5455V25.525V25.5045V25.4839V25.4632V25.4426V25.4218V25.401V25.3802V25.3593V25.3384V25.3174V25.2963V25.2753V25.2541V25.2329V25.2117V25.1904V25.1691V25.1477V25.1263V25.1048V25.0833V25.0617V25.0401V25.0185V24.9968V24.975V24.9532V24.9314V24.9095V24.8875V24.8656V24.8435V24.8215V24.7993V24.7772V24.755V24.7327V24.7104V24.6881V24.6657V24.6433V24.6209V24.5983V24.5758V24.5532V24.5306V24.5079V24.4852V24.4624V24.4396V24.4168V24.3939V24.371V24.348V24.325V24.302V24.2789V24.2558V24.2326V24.2094V24.1862V24.1629V24.1396V24.1162V24.0928V24.0694V24.0459V24.0224V23.9989V23.9753V23.9517V23.928V23.9044V23.8806V23.8569V23.8331V23.8092V23.7854V23.7615V23.7375V23.7135V23.6895V23.6655V23.6414V23.6173V23.5931V23.569V23.5447V23.5205V23.4962V23.4719V23.4476V23.4232V23.3988V23.3743V23.3499V23.3254V23.3008V23.2762V23.2517V23.227V23.2024V23.1777V23.1529V23.1282V23.1034V23.0786V23.0538V23.0289V23.004V22.9791V22.9541V22.9291V22.9041V22.8791V22.854V22.8289V22.8038V22.7787V22.7535V22.7283V22.7031V22.6778V22.6525V22.6272V22.6019V22.5765V22.5511V22.5257V22.5003V22.4748V22.4494V22.4239V22.3983V22.3728V22.3472V22.3216V22.296V22.2703V22.2447V22.219V22.1932V22.1675V22.1418V22.116V22.0902V22.0643V22.0385V22.0126V21.9867V21.9608V21.9349V21.909V21.883V21.857V21.831V21.805V21.7789V21.7529V21.7268V21.7007V21.6746V21.6484V21.6223V21.5961V21.5699V21.5437V21.5175V21.4913V21.465V21.4387V21.4124V21.3861V21.3598V21.3335V21.3071V21.2808V21.2544V21.228V21.2016V21.1751V21.1487V21.1223V21.0958V21.0693V21.0428V21.0163V20.9898V20.9632V20.9367V20.9101V20.8836V20.857V20.8304V20.8038V20.7772V20.7506V20.7239V20.6973V20.6706V20.6439V20.6173V20.5906V20.5639V20.5372V20.5104V20.4837V20.457V20.4302V20.4035V20.3767V20.35V20.3232V20.2964V20.2696V20.2428V20.216V20.1892V20.1624V20.1356V20.1087V20.0819V20.055V20.0282V20.0013V19.9745V19.9476V19.9208V19.8939V19.867V19.8401V19.8132V19.7864V19.7595V19.7326V19.7057V19.6788V19.6519V19.625V19.5981V19.5711V19.5442V19.5173V19.4904V19.4635V19.4366V19.4097V19.3827V19.3558V19.3289V19.302V19.2751V19.2482V19.2212V19.1943V19.1674V19.1405V19.1136V19.0867V19.0598V19.0329V19.0059V18.979V18.9521V18.9253V18.8984V18.8715V18.8446V18.8177V18.7908V18.7639V18.7371V18.7102V18.6834V18.6565V18.6296V18.6028V18.576V18.5491V18.5223V18.4955V18.4687V18.4419V18.4151V18.3883V18.3615V18.3347V18.3079V18.2812V18.2544V18.2277V18.2009V18.1742V18.1475V18.1207V18.094V18.0673V18.0407V18.014V17.9873V17.9607V17.934V17.9074V17.8808V17.8542V17.8276V17.801V17.7744V17.7478V17.7213V17.6947V17.6682V17.6417V17.6152V17.5887V17.5622V17.5358V17.5093V17.4829V17.4565V17.4301V17.4037V17.3773V17.3509V17.3246V17.2983V17.272V17.2457V17.2194V17.1931V17.1669V17.1406V17.1144V17.0882V17.062V17.0359V17.0097V16.9836V16.9575V16.9314V16.9053V16.8793V16.8532V16.8272V16.8012V16.7752V16.7493V16.7234V16.6974V16.6715V16.6457V16.6198V16.594V16.5682V16.5424V16.5166V16.4909V16.4651V16.4394V16.4137V16.3881V16.3624V16.3368V16.3112V16.2857V16.2601V16.2346V16.2091V16.1836V16.1582V16.1328V16.1074V16.082V16.0567V16.0313V16.0061V15.9808V15.9555V15.9303V15.9051V15.88V15.8548V15.8297V15.8046V15.7796V15.7546V15.7296V15.7046V15.6797V15.6547V15.6299V15.605V15.5802V15.5554V15.5306V15.5059V15.4812V15.4565V15.4319V15.4072V15.3827V15.3581V15.3336V15.3091V15.2846V15.2602V15.2358V15.2114V15.1871V15.1628V15.1385V15.1143V15.0901V15.066V15.0418V15.0177V14.9937V14.9696V14.9456V14.9217V14.8978V14.8739V14.85V14.8262V14.8024V14.7787V14.755V14.7313V14.7076V14.684V14.6605V14.637V14.6135V14.59V14.5666V14.5432V14.5199V14.4966V14.4733V14.4501V14.4269V14.4038V14.3807V14.3576V14.3346V14.3116V14.2887V14.2658V14.2429V14.2201V14.1973V14.1746V14.1519V14.1292V14.1066V14.084V14.0615V14.039V14.0166V13.9942V13.9718V13.9495V13.9272V13.905V13.8828V13.8607V13.8386V13.8166V13.7945V13.7726V13.7507V13.7288V13.707V13.6852V13.6635V13.6418V13.6202V13.5986V13.577V13.5555V13.5341C3.69601 13.3971 3.80688 13.2852 3.94601 13.2852H60.0665C60.2046 13.2852 60.3165 13.3971 60.3165 13.5352V50.4685C60.3165 50.6149 60.2048 50.7185 60.075 50.7185H60.0503H60.0253H60H59.9744H59.9485H59.9224H59.896H59.8693H59.8423H59.8151H59.7876H59.7598H59.7317H59.7034H59.6748H59.6459H59.6168H59.5873H59.5577H59.5277H59.4975H59.467H59.4363H59.4052H59.374H59.3424H59.3106H59.2786H59.2462H59.2137H59.1808H59.1477H59.1144H59.0808H59.0469H59.0128H58.9784H58.9438H58.9089H58.8738H58.8384H58.8028H58.7669H58.7308H58.6944H58.6578H58.6209H58.5838H58.5465H58.5089H58.471H58.433H58.3946H58.3561H58.3173H58.2783H58.239H58.1995H58.1597H58.1198H58.0796H58.0391H57.9984H57.9575H57.9164H57.875H57.8334H57.7916H57.7496H57.7073H57.6648H57.6221H57.5791H57.536H57.4926H57.4489H57.4051H57.3611H57.3168H57.2723H57.2276H57.1826H57.1375H57.0922H57.0466H57.0008H56.9548H56.9086H56.8622H56.8155H56.7687H56.7217H56.6744H56.627H56.5793H56.5314H56.4833H56.4351H56.3866H56.3379H56.289H56.2399H56.1907H56.1412H56.0915H56.0416H55.9916H55.9413H55.8909H55.8402H55.7894H55.7383H55.6871H55.6357H55.5841H55.5323H55.4803H55.4281H55.3758H55.3232H55.2705H55.2176H55.1645H55.1112H55.0578H55.0042H54.9503H54.8964H54.8422H54.7878H54.7333H54.6786H54.6238H54.5687H54.5135H54.4581H54.4025H54.3468H54.2909H54.2348H54.1786H54.1222H54.0656H54.0089H53.952H53.8949H53.8377H53.7803H53.7228H53.6651H53.6072H53.5492H53.491H53.4326H53.3741H53.3155H53.2567H53.1977H53.1386H53.0793H53.0199H52.9603H52.9006H52.8408H52.7807H52.7206H52.6603H52.5998H52.5392H52.4785H52.4176H52.3565H52.2954H52.2341H52.1726H52.111H52.0493H51.9874H51.9254H51.8633H51.801H51.7386H51.6761H51.6134H51.5506H51.4876H51.4246H51.3614H51.2981H51.2346H51.171H51.1073H51.0435H50.9796H50.9155H50.8513H50.787H50.7225H50.658H50.5933H50.5285H50.4636H50.3985H50.3334H50.2681H50.2027H50.1373H50.0716H50.0059H49.9401H49.8742H49.8081H49.742H49.6757H49.6093H49.5429H49.4763H49.4096H49.3428H49.2759H49.2089H49.1418H49.0746H49.0073H48.9399H48.8725H48.8049H48.7372H48.6694H48.6015H48.5336H48.4655H48.3974H48.3291H48.2608H48.1924H48.1238H48.0552H47.9866H47.9178H47.8489H47.78H47.7109H47.6418H47.5726H47.5034H47.434H47.3646H47.2951H47.2255H47.1558H47.0861H47.0162H46.9464H46.8764H46.8063H46.7362H46.666H46.5958H46.5255H46.4551H46.3846H46.3141H46.2435H46.1728H46.1021H46.0313H45.9604H45.8895H45.8185H45.7475H45.6764H45.6052H45.534H45.4627H45.3914H45.32H45.2486H45.1771H45.1055H45.0339H44.9623H44.8906H44.8188H44.747H44.6752H44.6033H44.5313H44.4593H44.3873H44.3152H44.2431H44.1709H44.0987H44.0264H43.9542H43.8818H43.8095H43.737H43.6646H43.5921H43.5196H43.4471H43.3745H43.3019H43.2292H43.1565H43.0838H43.0111H42.9383H42.8655H42.7927H42.7199H42.647H42.5741H42.5012H42.4282H42.3552H42.2823H42.2093H42.1362H42.0632H41.9901H41.917H41.8439H41.7708H41.6977H41.6245H41.5514H41.4782H41.405H41.3319H41.2587H41.1855H41.1122H41.039H40.9658H40.8925H40.8193H40.7461H40.6728H40.5996H40.5263H40.4531H40.3798H40.3066H40.2333H40.1601H40.0868H40.0136H39.9404H39.8671H39.7939H39.7207H39.6475H39.5743H39.5011H39.4279H39.3548H39.2816H39.2085H39.1354H39.0623H38.9892H38.9161H38.843H38.77H38.697H38.624H38.551H38.4781H38.4051H38.3322H38.2593H38.1865H38.1136H38.0408H37.968H37.8953H37.8225H37.7498H37.6772H37.6045H37.5319H37.4594H37.3868H37.3143H37.2419H37.1694H37.0971H37.0247H36.9524H36.8801H36.8079H36.7357H36.6635H36.5914H36.5194H36.4474H36.3754H36.3035H36.2316H36.1597H36.088H36.0162H35.9445H35.8729H35.8013H35.7298H35.6583H35.5869H35.5156H35.4442H35.373H35.3018H35.2307H35.1596H35.0886H35.0176H34.9467H34.8759H34.8051H34.7344H34.6638H34.5932H34.5227H34.4523H34.3819H34.3116H34.2414H34.1713H34.1012H34.0312H33.9612H33.8914H33.8216H33.7519H33.6822H33.6127H33.5432H33.4738H33.4045H33.3352H33.2661H33.197H33.128H33.0591H32.9903H32.9216H32.8529H32.7843H32.7159H32.6475H32.5792H32.511H32.4429H32.3749H32.3069H32.2391H32.1714H32.1037H32.0362H31.9687H31.9014H31.8341H31.767H31.6999H31.633H31.5661H31.4994H31.4327H31.3662H31.2998H31.2335H31.1672H31.1011H31.0351H30.9692H30.9035H30.8378H30.7722H30.7068H30.6415H30.5763H30.5112H30.4462H30.3813H30.3166H30.2519H30.1874H30.1231H30.0588H29.9946H29.9306H29.8667H29.8029H29.7393H29.6758H29.6124H29.5491H29.486H29.423H29.3601H29.2973H29.2347H29.1722H29.1099H29.0477H28.9856H28.9237H28.8618H28.8002C28.386 50.7185 28.0502 51.0543 28.0502 51.4685C28.0502 51.8827 28.386 52.2185 28.8002 52.2185H28.8618H28.9237H28.9856H29.0477H29.1099H29.1722H29.2347H29.2973H29.3601H29.423H29.486H29.5491H29.6124H29.6758H29.7393H29.8029H29.8667H29.9306H29.9946H30.0588H30.1231H30.1874H30.2519H30.3166H30.3813H30.4462H30.5112H30.5763H30.6415H30.7068H30.7722H30.8378H30.9035H30.9692H31.0351H31.1011H31.1672H31.2335H31.2998H31.3662H31.4327H31.4994H31.5661H31.633H31.6999H31.767H31.8341H31.9014H31.9687H32.0362H32.1037H32.1714H32.2391H32.3069H32.3749H32.4429H32.511H32.5792H32.6475H32.7159H32.7843H32.8529H32.9216H32.9903H33.0591H33.128H33.197H33.2661H33.3352H33.4045H33.4738H33.5432H33.6127H33.6822H33.7519H33.8216H33.8914H33.9612H34.0312H34.1012H34.1713H34.2414H34.3116H34.3819H34.4523H34.5227H34.5932H34.6638H34.7344H34.8051H34.8759H34.9467H35.0176H35.0886H35.1596H35.2307H35.3018H35.373H35.4442H35.5156H35.5869H35.6583H35.7298H35.8013H35.8729H35.9445H36.0162H36.088H36.1597H36.2316H36.3035H36.3754H36.4474H36.5194H36.5914H36.6635H36.7357H36.8079H36.8801H36.9524H37.0247H37.0971H37.1694H37.2419H37.3143H37.3868H37.4594H37.5319H37.6045H37.6772H37.7498H37.8225H37.8953H37.968H38.0408H38.1136H38.1865H38.2593H38.3322H38.4051H38.4781H38.551H38.624H38.697H38.77H38.843H38.9161H38.9892H39.0623H39.1354H39.2085H39.2816H39.3548H39.4279H39.5011H39.5743H39.6475H39.7207H39.7939H39.8671H39.9404H40.0136H40.0868H40.1601H40.2333H40.3066H40.3798H40.4531H40.5263H40.5996H40.6728H40.7461H40.8193H40.8925H40.9658H41.039H41.1122H41.1855H41.2587H41.3319H41.405H41.4782H41.5514H41.6245H41.6977H41.7708H41.8439H41.917H41.9901H42.0632H42.1362H42.2093H42.2823H42.3552H42.4282H42.5012H42.5741H42.647H42.7199H42.7927H42.8655H42.9383H43.0111H43.0838H43.1565H43.2292H43.3019H43.3745H43.4471H43.5196H43.5921H43.6646H43.737H43.8095H43.8818H43.9542H44.0264H44.0987H44.1709H44.2431H44.3152H44.3873H44.4593H44.5313H44.6033H44.6752H44.747H44.8188H44.8906H44.9623H45.0339H45.1055H45.1771H45.2486H45.32H45.3914H45.4627H45.534H45.6052H45.6764H45.7475H45.8185H45.8895H45.9604H46.0313H46.1021H46.1728H46.2435H46.3141H46.3846H46.4551H46.5255H46.5958H46.666H46.7362H46.8063H46.8764H46.9464H47.0162H47.0861H47.1558H47.2255H47.2951H47.3646H47.434H47.5034H47.5726H47.6418H47.7109H47.78H47.8489H47.9178H47.9866H48.0552H48.1238H48.1924H48.2608H48.3291H48.3974H48.4655H48.5336H48.6015H48.6694H48.7372H48.8049H48.8725H48.9399H49.0073H49.0746H49.1418H49.2089H49.2759H49.3428H49.4096H49.4763H49.5429H49.6093H49.6757H49.742H49.8081H49.8742H49.9401H50.0059H50.0716H50.1373H50.2027H50.2681H50.3334H50.3985H50.4636H50.5285H50.5933H50.658H50.7225H50.787H50.8513H50.9155H50.9796H51.0435H51.1073H51.171H51.2346H51.2981H51.3614H51.4246H51.4876H51.5506H51.6134H51.6761H51.7386H51.801H51.8633H51.9254H51.9874H52.0493H52.111H52.1726H52.2341H52.2954H52.3565H52.4176H52.4785H52.5392H52.5998H52.6603H52.7206H52.7807H52.8408H52.9006H52.9603H53.0199H53.0793H53.1386H53.1977H53.2567H53.3155H53.3741H53.4326H53.491H53.5492H53.6072H53.6651H53.7228H53.7803H53.8377H53.8949H53.952H54.0089H54.0656H54.1222H54.1786H54.2348H54.2909H54.3468H54.4025H54.4581H54.5135H54.5687H54.6238H54.6786H54.7333H54.7878H54.8422H54.8964H54.9503H55.0042H55.0578H55.1112H55.1645H55.2176H55.2705H55.3232H55.3758H55.4281H55.4803H55.5323H55.5841H55.6357H55.6871H55.7383H55.7894H55.8402H55.8909H55.9413H55.9916H56.0416H56.0915H56.1412H56.1907H56.2399H56.289H56.3379H56.3866H56.4351H56.4833H56.5314H56.5793H56.627H56.6744H56.7217H56.7687H56.8155H56.8622H56.9086H56.9548H57.0008H57.0466H57.0922H57.1375H57.1826H57.2276H57.2723H57.3168H57.3611H57.4051H57.4489H57.4926H57.536H57.5791H57.6221H57.6648H57.7073H57.7496H57.7916H57.8334H57.875H57.9164H57.9575H57.9984H58.0391H58.0796H58.1198H58.1597H58.1995H58.239H58.2783H58.3173H58.3561H58.3946H58.433H58.471H58.5089H58.5465H58.5838H58.6209H58.6578H58.6944H58.7308H58.7669H58.8028H58.8384H58.8738H58.9089H58.9438H58.9784H59.0128H59.0469H59.0808H59.1144H59.1477H59.1808H59.2137H59.2462H59.2786H59.3106H59.3424H59.374H59.4052H59.4363H59.467H59.4975H59.5277H59.5577H59.5873H59.6168H59.6459H59.6748H59.7034H59.7317H59.7598H59.7876H59.8151H59.8423H59.8693H59.896H59.9224H59.9485H59.9744H60H60.0253H60.0503H60.075C61.0498 52.2185 61.8165 51.4267 61.8165 50.4685V13.5352C61.8165 12.5687 61.033 11.7852 60.0665 11.7852H3.94601ZM2.18359 30.932C2.18359 30.5178 2.51938 30.182 2.93359 30.182C14.7767 30.182 24.4034 39.6352 24.7087 51.42C24.7194 51.8341 24.3924 52.1784 23.9783 52.1892C23.5642 52.1999 23.2199 51.8729 23.2092 51.4588C22.9249 40.4829 13.9593 31.682 2.93359 31.682C2.51938 31.682 2.18359 31.3462 2.18359 30.932ZM2.93372 37.8424C2.51951 37.8424 2.18372 38.1782 2.18372 38.5924C2.18372 39.0067 2.51951 39.3424 2.93372 39.3424C9.73717 39.3424 15.2909 44.738 15.5558 51.4895C15.572 51.9034 15.9207 52.2258 16.3346 52.2096C16.7485 52.1933 17.0709 51.8446 17.0546 51.4307C16.7584 43.8796 10.548 37.8424 2.93372 37.8424ZM2.93372 45.5029C2.51951 45.5029 2.18372 45.8386 2.18372 46.2529C2.18372 46.6671 2.51951 47.0029 2.93372 47.0029C5.52007 47.0029 7.64524 48.9767 7.88921 51.5098C7.92892 51.9221 8.29536 52.2242 8.70766 52.1845C9.11997 52.1447 9.42201 51.7783 9.3823 51.366C9.06527 48.0745 6.30348 45.5029 2.93372 45.5029Z" fill="#EA1917"/>
</svg>
