<svg width="116" height="116" viewBox="0 0 116 116" fill="none" xmlns="http://www.w3.org/2000/svg">
<path fill-rule="evenodd" clip-rule="evenodd" d="M110.68 60.2191H74.9551V54.8988H115.916C115.972 55.9292 116 56.9596 116 58.002C116 90.036 90.0299 116 58.002 116C25.9741 116 0 90.048 0 57.998C0 25.9479 25.9661 0 57.998 0C58.8435 0 59.6849 0.0173724 60.5224 0.0521193V5.33232C59.6849 5.2949 58.8461 5.27619 58.006 5.27619C28.8933 5.27619 5.28415 28.8827 5.28415 57.998C5.28415 87.1133 28.8893 110.724 58.006 110.724C86.321 110.724 109.452 88.3882 110.676 60.3675L110.68 60.2191ZM74.8213 82.3826H60.4644V28.1533H55.1563V87.735H60.4763V87.6989H74.8333L74.8213 82.3826ZM40.8218 42.8098C39.4938 43.7102 37.9302 44.195 36.3284 44.2029C35.261 44.2056 34.2036 43.9968 33.2165 43.5886C32.2295 43.1805 31.332 42.5808 30.5754 41.8239C29.8189 41.067 29.218 40.1678 28.8071 39.1774C28.3962 38.1871 28.1834 37.1251 28.1808 36.0521C28.1808 34.4417 28.6553 32.8675 29.5445 31.5279C30.4336 30.1884 31.6975 29.1437 33.1767 28.5256C34.6558 27.9075 36.284 27.7438 37.8556 28.0551C39.4272 28.3663 40.8719 29.1387 42.0074 30.2746C43.1428 31.4105 43.9182 32.8591 44.2355 34.4375C44.5528 36.016 44.3979 37.6536 43.7904 39.1436C43.1829 40.6337 42.1499 41.9094 40.8218 42.8098Z" fill="white"/>
</svg>
